<?xml version="1.0" encoding="UTF-8" standalone="no"?>
<!-- Created with Inkscape (http://www.inkscape.org/) -->

<svg
   xmlns:dc="http://purl.org/dc/elements/1.1/"
   xmlns:cc="http://creativecommons.org/ns#"
   xmlns:rdf="http://www.w3.org/1999/02/22-rdf-syntax-ns#"
   xmlns:svg="http://www.w3.org/2000/svg"
   xmlns="http://www.w3.org/2000/svg"
   xmlns:sodipodi="http://sodipodi.sourceforge.net/DTD/sodipodi-0.dtd"
   xmlns:inkscape="http://www.inkscape.org/namespaces/inkscape"
   width="25mm"
   height="23mm"
   viewBox="0 0 24.999999 23.000001"
   version="1.1"
   id="svg926"
   inkscape:version="0.92.2 5c3e80d, 2017-08-06"
   sodipodi:docname="12V1I.svg">
  <defs
     id="defs920" />
  <sodipodi:namedview
     id="base"
     pagecolor="#ffffff"
     bordercolor="#666666"
     borderopacity="1.0"
     inkscape:pageopacity="0.0"
     inkscape:pageshadow="2"
     inkscape:zoom="11.631819"
     inkscape:cx="31.325205"
     inkscape:cy="38.352275"
     inkscape:document-units="mm"
     inkscape:current-layer="layer7"
     showgrid="true"
     units="mm"
     objecttolerance="20"
     inkscape:snap-perpendicular="true"
     inkscape:snap-tangential="false"
     gridtolerance="8"
     inkscape:window-width="2560"
     inkscape:window-height="1395"
     inkscape:window-x="5"
     inkscape:window-y="0"
     inkscape:window-maximized="0"
     fit-margin-top="0"
     fit-margin-left="0"
     fit-margin-right="0"
     fit-margin-bottom="0"
     showguides="false">
    <inkscape:grid
       type="xygrid"
       id="grid1490"
       dotted="true"
       units="mm"
       spacingx="0.63500002"
       spacingy="0.63500002"
       empspacing="4"
       snapvisiblegridlinesonly="true"
       originx="6.9849997"
       originy="-18.799999" />
  </sodipodi:namedview>
  <metadata
     id="metadata923">
    <rdf:RDF>
      <cc:Work
         rdf:about="">
        <dc:format>image/svg+xml</dc:format>
        <dc:type
           rdf:resource="http://purl.org/dc/dcmitype/StillImage" />
        <dc:title />
      </cc:Work>
    </rdf:RDF>
  </metadata>
  <g
     inkscape:groupmode="layer"
     id="layer6"
     inkscape:label="Parts"
     style="display:inline;opacity:1"
     transform="translate(5.1750002,18.254986)">
    <g
       transform="translate(-16.451629,-142.55032)"
       id="layer1"
       inkscape:label="Layer 1"
       style="">
      <rect
         y="139.29533"
         x="26.276628"
         height="8"
         width="10"
         id="rect817"
         style="opacity:1;fill:#000000;fill-opacity:0.50196078;fill-rule:evenodd;stroke:none;stroke-width:0.5;stroke-linecap:round;stroke-linejoin:round;stroke-miterlimit:4;stroke-dasharray:none;stroke-dashoffset:0;stroke-opacity:1" />
      <path
         inkscape:connector-curvature="0"
         id="path818"
         d="m 28.776628,143.29533 h 5"
         style="opacity:1;fill:none;fill-opacity:0.50196078;fill-rule:evenodd;stroke:#ffff00;stroke-width:0.1;stroke-linecap:round;stroke-linejoin:round;stroke-miterlimit:4;stroke-dasharray:none;stroke-dashoffset:0;stroke-opacity:1" />
    </g>
    <g
       inkscape:label="Layer 1"
       id="g921"
       transform="translate(-31.451629,-142.55032)"
       style="">
      <rect
         style="opacity:1;fill:#000000;fill-opacity:0.50196078;fill-rule:evenodd;stroke:none;stroke-width:0.5;stroke-linecap:round;stroke-linejoin:round;stroke-miterlimit:4;stroke-dasharray:none;stroke-dashoffset:0;stroke-opacity:1"
         id="rect917"
         width="10"
         height="8"
         x="26.276628"
         y="139.29533" />
      <path
         style="opacity:1;fill:none;fill-opacity:0.50196078;fill-rule:evenodd;stroke:#ffff00;stroke-width:0.1;stroke-linecap:round;stroke-linejoin:round;stroke-miterlimit:4;stroke-dasharray:none;stroke-dashoffset:0;stroke-opacity:1"
         d="m 28.776628,143.29533 h 5"
         id="path919"
         inkscape:connector-curvature="0" />
    </g>
    <g
       transform="translate(-8.3499988,-105.81498)"
       id="layer1-3"
       inkscape:label="Layer 1"
       style="">
      <rect
         y="88.719994"
         x="12.699999"
         height="12.7"
         width="10.16"
         id="rect817-9"
         style="opacity:1;fill:#000000;fill-opacity:0.50196078;fill-rule:evenodd;stroke:none;stroke-width:0.1;stroke-linecap:round;stroke-linejoin:round;stroke-miterlimit:4;stroke-dasharray:none;stroke-dashoffset:0;stroke-opacity:1" />
      <path
         sodipodi:nodetypes="cccc"
         inkscape:connector-curvature="0"
         id="path831"
         d="m 13.969999,100.14999 h 2.54 2.54 2.54"
         style="opacity:1;fill:none;fill-opacity:0.50196078;fill-rule:evenodd;stroke:#ffff00;stroke-width:0.1;stroke-linecap:round;stroke-linejoin:round;stroke-miterlimit:4;stroke-dasharray:none;stroke-dashoffset:0;stroke-opacity:1" />
      <text
         id="text835"
         y="91.103241"
         x="17.733646"
         style="font-style:normal;font-variant:normal;font-weight:normal;font-stretch:normal;font-size:2.11666656px;line-height:125%;font-family:Raleway;-inkscape-font-specification:'Raleway, Normal';font-variant-ligatures:normal;font-variant-caps:normal;font-variant-numeric:normal;font-feature-settings:normal;text-align:center;letter-spacing:0px;word-spacing:0px;writing-mode:lr-tb;text-anchor:middle;fill:#000000;fill-opacity:1;stroke:none;stroke-width:0.26458332px;stroke-linecap:butt;stroke-linejoin:miter;stroke-opacity:1"
         xml:space="preserve"><tspan
           style="font-style:normal;font-variant:normal;font-weight:normal;font-stretch:normal;font-size:2.11666656px;font-family:Raleway;-inkscape-font-specification:'Raleway, Normal';font-variant-ligatures:normal;font-variant-caps:normal;font-variant-numeric:normal;font-feature-settings:normal;text-align:center;writing-mode:lr-tb;text-anchor:middle;stroke-width:0.26458332px"
           y="91.103241"
           x="17.733646"
           id="tspan833"
           sodipodi:role="line">D24V5F3</tspan></text>
    </g>
    <g
       transform="translate(0.235,0.2700022)"
       style="display:inline;opacity:1"
       inkscape:label="Parts"
       id="layer6-2">
      <g
         id="g832">
        <rect
           y="-5.1600003"
           x="-18.259987"
           height="24.75"
           width="14.5"
           id="rect934-4"
           style="opacity:1;fill:#000000;fill-opacity:0.50196078;fill-rule:evenodd;stroke:none;stroke-width:1;stroke-linecap:round;stroke-linejoin:round;stroke-miterlimit:4;stroke-dasharray:none;stroke-dashoffset:0;stroke-opacity:1"
           transform="matrix(0,1,1,0,0,0)" />
        <text
           xml:space="preserve"
           style="font-style:normal;font-variant:normal;font-weight:normal;font-stretch:normal;font-size:4.23333311px;line-height:125%;font-family:Raleway;-inkscape-font-specification:'Raleway, Normal';font-variant-ligatures:normal;font-variant-caps:normal;font-variant-numeric:normal;font-feature-settings:normal;text-align:center;letter-spacing:0px;word-spacing:0px;writing-mode:lr-tb;text-anchor:middle;fill:#000000;fill-opacity:1;stroke:none;stroke-width:0.26458332px;stroke-linecap:butt;stroke-linejoin:miter;stroke-opacity:1"
           x="10.862607"
           y="-1.3059756"
           id="text892-8"
           transform="rotate(-90)"><tspan
             sodipodi:role="line"
             id="tspan890-3"
             x="10.862607"
             y="-1.3059756"
             style="font-style:normal;font-variant:normal;font-weight:normal;font-stretch:normal;font-size:4.23333311px;font-family:Raleway;-inkscape-font-specification:'Raleway, Normal';font-variant-ligatures:normal;font-variant-caps:normal;font-variant-numeric:normal;font-feature-settings:normal;text-align:center;writing-mode:lr-tb;text-anchor:middle;stroke-width:0.26458332px">ESP-01</tspan></text>
        <path
           style="opacity:1;fill:none;fill-opacity:0.50196078;fill-rule:evenodd;stroke:#ffff00;stroke-width:0.1;stroke-linecap:round;stroke-linejoin:round;stroke-miterlimit:4;stroke-dasharray:none;stroke-dashoffset:0;stroke-opacity:1"
           d="m 18.32,-14.819987 v 2.54 2.5399997 2.5400002"
           id="path822-9"
           inkscape:connector-curvature="0" />
        <path
           inkscape:connector-curvature="0"
           id="path824-0"
           d="m 15.779998,-14.819987 v 2.54 2.5399997 2.5400002"
           style="opacity:1;fill:none;fill-opacity:0.50196078;fill-rule:evenodd;stroke:#ffff00;stroke-width:0.1;stroke-linecap:round;stroke-linejoin:round;stroke-miterlimit:4;stroke-dasharray:none;stroke-dashoffset:0;stroke-opacity:1" />
        <rect
           transform="matrix(0,1,1,0,0,0)"
           style="opacity:1;fill:#000000;fill-opacity:0.50196078;fill-rule:evenodd;stroke:none;stroke-width:1;stroke-linecap:round;stroke-linejoin:round;stroke-miterlimit:4;stroke-dasharray:none;stroke-dashoffset:0;stroke-opacity:1"
           id="rect822"
           width="14.5"
           height="6"
           x="-18.259987"
           y="-5.1600003" />
      </g>
    </g>
  </g>
  <g
     inkscape:groupmode="layer"
     id="layer3"
     inkscape:label="Edge 1mm"
     style="display:inline"
     transform="translate(5.1750002,18.254986)">
    <path
       style="opacity:1;fill:none;fill-opacity:0.50196078;fill-rule:evenodd;stroke:#ff00ff;stroke-width:0.99999988;stroke-linecap:round;stroke-linejoin:round;stroke-miterlimit:4;stroke-dasharray:none;stroke-dashoffset:0;stroke-opacity:1"
       d="m 20.325,-18.754986 -18.5150005,0 V -3.0613876 H -5.6750001 V 5.2450145 H 20.325 Z"
       id="path852"
       inkscape:connector-curvature="0"
       sodipodi:nodetypes="ccccccc" />
  </g>
  <g
     inkscape:groupmode="layer"
     id="layer7"
     inkscape:label="Track mill &lt; 0.5mm"
     style="display:inline"
     transform="translate(5.1750002,18.254986)">
    <g
       aria-label="GND"
       style="font-style:normal;font-variant:normal;font-weight:normal;font-stretch:normal;font-size:2.11666656px;line-height:125%;font-family:Raleway;-inkscape-font-specification:'Raleway, Normal';font-variant-ligatures:normal;font-variant-caps:normal;font-variant-numeric:normal;font-feature-settings:normal;text-align:center;letter-spacing:0px;word-spacing:0px;writing-mode:lr-tb;text-anchor:middle;fill:#000000;fill-opacity:1;stroke:none;stroke-width:0.26458332px;stroke-linecap:butt;stroke-linejoin:miter;stroke-opacity:1"
       id="text1062" />
    <g
       aria-label="4-36V"
       style="font-style:normal;font-variant:normal;font-weight:normal;font-stretch:normal;font-size:2.11666656px;line-height:125%;font-family:Raleway;-inkscape-font-specification:'Raleway, Normal';font-variant-ligatures:normal;font-variant-caps:normal;font-variant-numeric:normal;font-feature-settings:normal;text-align:center;letter-spacing:0px;word-spacing:0px;writing-mode:lr-tb;text-anchor:middle;fill:#000000;fill-opacity:1;stroke:none;stroke-width:0.26458332px;stroke-linecap:butt;stroke-linejoin:miter;stroke-opacity:1"
       id="text1066" />
    <g
       aria-label="IN1"
       style="font-style:normal;font-variant:normal;font-weight:normal;font-stretch:normal;font-size:2.11666656px;line-height:125%;font-family:Raleway;-inkscape-font-specification:'Raleway, Normal';font-variant-ligatures:normal;font-variant-caps:normal;font-variant-numeric:normal;font-feature-settings:normal;text-align:center;letter-spacing:0px;word-spacing:0px;writing-mode:lr-tb;text-anchor:middle;fill:#000000;fill-opacity:1;stroke:none;stroke-width:0.26458332px;stroke-linecap:butt;stroke-linejoin:miter;stroke-opacity:1"
       id="text1070" />
    <path
       id="path872"
       style="opacity:1;fill:none;fill-opacity:0.50196078;fill-rule:evenodd;stroke:#ff0000;stroke-width:0.5;stroke-linecap:round;stroke-linejoin:round;stroke-miterlimit:4;stroke-dasharray:none;stroke-dashoffset:0;stroke-opacity:1"
       d="m 17.05,-10.744988 h 3.81 M 17.258143,8.1082324 v 0.1312333 h -0.71755 V 8.1082324 H 16.84116 V 7.2022991 q -0.01693,0.0254 -0.05927,0.055033 -0.04022,0.029633 -0.09102,0.055033 -0.04868,0.0254 -0.1016,0.042333 -0.05292,0.016933 -0.09313,0.016933 v -0.1397 q 0.04868,0 0.105833,-0.027517 0.05927,-0.027517 0.110067,-0.0635 0.05292,-0.035983 0.0889,-0.067733 0.03598,-0.03175 0.04022,-0.042333 h 0.148166 V 8.1082314 Z M 15.102351,7.0117991 V 8.2394657 H 14.954185 V 6.7366325 h 0.1143 l 0.994833,1.2509499 V 6.7387491 h 0.148166 V 8.2394657 H 16.082368 Z M 14.429152,8.2394657 V 6.7366325 h 0.148167 V 8.2394657 Z M 4.2854647,6.6362849 4.823098,7.9549682 5.3586146,6.6362849 H 5.5131313 L 4.886598,8.1391182 H 4.7574813 L 4.130948,6.6362849 Z m -0.234917,1.0075333 q 0,0.10795 -0.042333,0.2032 -0.040217,0.093133 -0.1121833,0.1629833 -0.071967,0.06985 -0.1693333,0.1100667 -0.097367,0.040217 -0.20955,0.040217 -0.1185334,0 -0.2180167,-0.042333 -0.099483,-0.04445 -0.17145,-0.1248833 -0.06985,-0.080433 -0.1100666,-0.19685 -0.040217,-0.1185333 -0.040217,-0.2645833 0,-0.2286 0.040217,-0.3979333 0.040217,-0.17145 0.1121833,-0.2836333 0.074083,-0.1143 0.1756833,-0.1693334 0.1016,-0.055033 0.2264833,-0.055033 0.1502834,0 0.2688167,0.074083 0.1185333,0.074083 0.1799166,0.2053167 l -0.093133,0.084667 q -0.04445,-0.10795 -0.1397,-0.17145 -0.09525,-0.065617 -0.2159,-0.065617 -0.093133,0 -0.1693333,0.04445 -0.0762,0.04445 -0.1312333,0.1291167 -0.052917,0.08255 -0.084667,0.2053166 -0.029633,0.1227667 -0.029633,0.2772833 0.046567,-0.1248833 0.15875,-0.1989666 0.1143,-0.074083 0.2582333,-0.074083 0.10795,0 0.2010833,0.040217 0.09525,0.0381 0.1651,0.10795 0.06985,0.067733 0.1100667,0.1608667 0.040217,0.093133 0.040217,0.1989666 z M 3.5213811,8.0332849 q 0.080433,0 0.1502833,-0.029633 0.071967,-0.03175 0.1248833,-0.084667 0.055033,-0.052917 0.084667,-0.1227667 0.03175,-0.071967 0.03175,-0.1524 0,-0.080433 -0.03175,-0.1502833 -0.03175,-0.071967 -0.086783,-0.1248833 -0.052917,-0.052917 -0.1248833,-0.08255 -0.06985,-0.03175 -0.1502834,-0.03175 -0.080433,0 -0.1524,0.03175 -0.06985,0.029633 -0.1248833,0.08255 -0.052917,0.052917 -0.084667,0.1248833 -0.029633,0.06985 -0.029633,0.1502833 0,0.080433 0.03175,0.1502833 0.03175,0.06985 0.084667,0.1248834 0.055033,0.052917 0.1248833,0.084667 0.071967,0.029633 0.1523991,0.029633 z m -1.0566465,-0.3937 q 0.1397,0.023283 0.22225,0.127 0.084667,0.1037166 0.084667,0.2561166 0,0.09525 -0.035983,0.1735667 -0.033867,0.080433 -0.099483,0.1354667 -0.0635,0.05715 -0.1545166,0.086783 -0.0889,0.03175 -0.1989667,0.03175 -0.1608666,0 -0.2815166,-0.065617 -0.12065,-0.0635 -0.1820334,-0.1778 l 0.099483,-0.091017 q 0.04445,0.093133 0.1354666,0.1481666 0.091017,0.055033 0.2286,0.055033 0.15875,0 0.2497667,-0.078317 0.091017,-0.0762 0.091017,-0.2201333 0,-0.14605 -0.09525,-0.2307167 -0.09525,-0.084667 -0.2751666,-0.084667 H 2.2001513 V 7.5824349 h 0.05715 q 0.1629833,0 0.2497667,-0.074083 0.086783,-0.0762 0.086783,-0.19685 0,-0.0635 -0.023283,-0.1121834 -0.023283,-0.048683 -0.065617,-0.080433 -0.040217,-0.033867 -0.097367,-0.0508 -0.055033,-0.016933 -0.1206499,-0.016933 -0.12065,0 -0.2137834,0.055033 -0.091017,0.052917 -0.1375833,0.1481667 l -0.093133,-0.0889 q 0.0254,-0.055033 0.071967,-0.099483 0.046567,-0.046567 0.1058334,-0.078317 0.059267,-0.03175 0.1312333,-0.048683 0.071967,-0.01905 0.1481667,-0.01905 0.097367,0 0.1777999,0.027517 0.08255,0.027517 0.1418167,0.078317 0.059267,0.048683 0.091017,0.1185333 0.033867,0.06985 0.033867,0.1545167 0,0.0635 -0.01905,0.1227666 -0.01905,0.05715 -0.055033,0.1037167 -0.035983,0.04445 -0.0889,0.0762 -0.0508,0.029633 -0.1164167,0.0381 z M 1.0866855,7.6290016 v -0.13335 h 0.6180666 v 0.13335 z M 0.56575397,8.4079348 V 8.0311682 h -0.70484996 v -0.127 L 0.61232063,6.9305016 H 0.7096873 V 7.8999349 H 0.89595395 V 8.0311682 H 0.7096873 V 8.4079348 Z M 0.013304,7.8999349 h 0.56726664 v -0.74295 z M -1.8099039,8.1642046 V 6.6613713 h 0.5101166 q 0.1799167,0 0.31326669,0.059267 0.13546666,0.059267 0.22436666,0.1608667 0.0910167,0.1016 0.13546666,0.2391833 0.0465667,0.1354666 0.0465667,0.2899833 0,0.17145 -0.0508,0.31115 -0.0508,0.1375833 -0.14604999,0.2370666 -0.0931333,0.097367 -0.22648332,0.1524 -0.1312334,0.052917 -0.2963334,0.052917 z m 1.08161661,-0.7535333 q 0,-0.1354667 -0.0381,-0.24765 -0.0381,-0.1143 -0.11218332,-0.19685 -0.0719667,-0.08255 -0.17779999,-0.127 -0.1058333,-0.046567 -0.2434167,-0.046567 h -0.3619499 v 1.2403666 h 0.3619499 q 0.1397,0 0.2455334,-0.046567 0.10794996,-0.048683 0.17991662,-0.1312333 0.0719667,-0.084667 0.10794999,-0.19685 0.0381,-0.1143 0.0381,-0.2476493 z M -3.2947123,6.936538 V 8.1642046 H -3.442879 V 6.6613713 h 0.1143 l 0.9948333,1.25095 V 6.663488 h 0.1481666 v 1.5007166 h -0.1291166 z m -0.5795368,1.0075333 q -0.20955,0.2307166 -0.4826,0.2307166 -0.1523999,0 -0.2815166,-0.065617 -0.127,-0.065617 -0.22225,-0.1735667 -0.093133,-0.10795 -0.14605,-0.2434166 -0.052917,-0.1375834 -0.052917,-0.2815167 0,-0.1502833 0.0508,-0.2878666 0.052917,-0.1375834 0.14605,-0.2413 0.093133,-0.1058334 0.2201334,-0.1672167 0.127,-0.0635 0.2772833,-0.0635 0.1100666,0 0.2010833,0.0254 0.091017,0.023283 0.1608667,0.067733 0.071967,0.042333 0.1227666,0.1037167 0.052917,0.059267 0.0889,0.1312333 l -0.1143,0.0762 q -0.074083,-0.1397 -0.1926166,-0.2053166 -0.1185334,-0.065617 -0.2688167,-0.065617 -0.1248833,0 -0.2264833,0.052917 -0.099483,0.052917 -0.17145,0.1418166 -0.06985,0.086783 -0.10795,0.2010833 -0.0381,0.1121834 -0.0381,0.2328334 0,0.127 0.042333,0.2413 0.04445,0.1143 0.12065,0.2010833 0.0762,0.084667 0.1778,0.1354666 0.1037167,0.0508 0.2243667,0.0508 0.1291166,0 0.2455333,-0.059267 0.1185333,-0.061383 0.2264833,-0.1926167 V 7.539788 H -4.208683 v -0.1143 h 0.4593166 V 8.1642046 H -3.8742497 Z M 14.51,-8.204988 v 4.4449999 l 1.27,2e-7 v 9.5250004 m -6.3500008,-13.9700003 5e-7,6.985 H 13.875 v 3.8100005 l -8.8900004,9e-7 v -3.17500136 l -5.09247123,1.5e-7 0.01247107,3.17499991 H -6.4450008 M 20.86,-15.824988 h -3.81 v 5.08 h -2.54 v 0 m 6.35,-2.54 h -6.35 v 2.54 H 4.3499991 l 2e-7,6.9850003 h 2.5400001 l -2e-7,-4.4450001 H 17.05 v 2.5400002 h 3.81" />
  </g>
  <g
     inkscape:groupmode="layer"
     id="layer4"
     inkscape:label="Drill 0.5mm"
     style="display:inline"
     transform="translate(5.1750002,18.254986)">
    <g
       id="g940"
       transform="translate(3.4050019,-9.1349946)"
       style="stroke:#00ffff;stroke-opacity:1" />
    <g
       id="g1229"
       transform="rotate(-180,36.2725,8.835006)"
       style="stroke:#00ffff;stroke-opacity:1" />
    <g
       id="g942"
       transform="rotate(-90,11.727505,4.2475074)"
       style="stroke:#00ffff;stroke-opacity:1" />
    <g
       transform="rotate(-180,31.22625,8.835006)"
       id="g915"
       style="stroke:#00ffff;stroke-opacity:1" />
    <g
       id="g924"
       transform="rotate(-180,26.18,8.835006)"
       style="stroke:#00ffff;stroke-opacity:1" />
    <g
       transform="translate(19.240013,1.37501)"
       id="g941"
       style="stroke:#00ffff;stroke-opacity:1" />
    <g
       id="g925"
       style="stroke:#00ffff;stroke-opacity:1">
      <g
         transform="rotate(-90,22.037498,-8.9375003)"
         id="g954"
         style="stroke:#00ffff;stroke-opacity:1" />
      <g
         id="g964"
         transform="rotate(-90,23.307498,-10.207501)"
         style="stroke:#00ffff;stroke-opacity:1" />
    </g>
    <g
       id="g1033"
       transform="translate(-0.27007454,-0.14678238)"
       style="stroke:#00ffff;stroke-opacity:1" />
    <g
       id="g906"
       transform="translate(-2.265001,-18.990002)">
      <path
         style="opacity:1;fill:none;fill-opacity:1;fill-rule:evenodd;stroke:#00ffff;stroke-width:0.5;stroke-linecap:round;stroke-linejoin:round;stroke-miterlimit:4;stroke-dasharray:none;stroke-dashoffset:0;stroke-opacity:1"
         d="m 19.59,19.735012 h 0.499987 v -0.5 h -0.999975 v 1 h 0.999975 v -0.5"
         id="path909"
         inkscape:connector-curvature="0"
         inkscape:transform-center-x="-11.679105"
         inkscape:transform-center-y="3.9664929" />
      <path
         style="opacity:1;fill:none;fill-opacity:1;fill-rule:evenodd;stroke:#00ffff;stroke-width:0.5;stroke-linecap:round;stroke-linejoin:round;stroke-miterlimit:4;stroke-dasharray:none;stroke-dashoffset:0;stroke-opacity:1"
         d="m 14.51,19.735012 h 0.499987 v -0.5 h -0.999975 v 1 h 0.999975 v -0.5"
         id="path911"
         inkscape:connector-curvature="0" />
    </g>
    <g
       id="g1058"
       transform="translate(1.2699998)">
      <path
         style="opacity:1;fill:#6f9090;fill-opacity:0.22869933;fill-rule:evenodd;stroke:#00ffff;stroke-width:0.5;stroke-linecap:round;stroke-linejoin:round;stroke-miterlimit:4;stroke-dasharray:none;stroke-dashoffset:0;stroke-opacity:1"
         d="m 4.3499998,-5.6649872 h -0.349987 v 0.35 h 0.699975 v -0.7 h -0.699975 v 0.35"
         id="path910"
         inkscape:connector-curvature="0" />
      <path
         style="opacity:1;fill:#6f9090;fill-opacity:0.22869933;fill-rule:evenodd;stroke:#00ffff;stroke-width:0.5;stroke-linecap:round;stroke-linejoin:round;stroke-miterlimit:4;stroke-dasharray:none;stroke-dashoffset:0;stroke-opacity:1"
         d="m 9.4299999,-5.6649882 h -0.349987 v 0.35 h 0.699975 v -0.7 h -0.699975 v 0.35"
         id="path912"
         inkscape:connector-curvature="0" />
      <path
         style="opacity:1;fill:#6f9090;fill-opacity:0.22869933;fill-rule:evenodd;stroke:#00ffff;stroke-width:0.5;stroke-linecap:round;stroke-linejoin:round;stroke-miterlimit:4;stroke-dasharray:none;stroke-dashoffset:0;stroke-opacity:1"
         d="m 6.8899998,-5.6649882 h -0.349987 v 0.35 h 0.699975 v -0.7 h -0.699975 v 0.35"
         id="path914"
         inkscape:connector-curvature="0" />
    </g>
    <g
       id="g930"
       transform="matrix(-1,0,0,1,45.765,-16.504997)">
      <path
         inkscape:connector-curvature="0"
         id="path1025"
         d="m 29.750001,9.5750104 v 0.3499868 h 0.35 v -0.699975 h -0.7 v 0.699975 h 0.35"
         style="opacity:1;fill:none;fill-opacity:1;fill-rule:evenodd;stroke:#00ffff;stroke-width:0.5;stroke-linecap:round;stroke-linejoin:round;stroke-miterlimit:4;stroke-dasharray:none;stroke-dashoffset:0;stroke-opacity:1" />
      <path
         inkscape:connector-curvature="0"
         id="path1023"
         d="m 29.75,1.9550115 v 0.349985 h 0.35 v -0.699973 h -0.7 v 0.699973 h 0.35"
         style="opacity:1;fill:none;fill-opacity:1;fill-rule:evenodd;stroke:#00ffff;stroke-width:0.5;stroke-linecap:round;stroke-linejoin:round;stroke-miterlimit:4;stroke-dasharray:none;stroke-dashoffset:0;stroke-opacity:1" />
      <path
         inkscape:connector-curvature="0"
         id="path1021"
         d="m 29.75,4.4950105 v 0.3499868 h 0.35 v -0.699975 h -0.7 v 0.699975 h 0.35"
         style="opacity:1;fill:none;fill-opacity:1;fill-rule:evenodd;stroke:#00ffff;stroke-width:0.5;stroke-linecap:round;stroke-linejoin:round;stroke-miterlimit:4;stroke-dasharray:none;stroke-dashoffset:0;stroke-opacity:1" />
      <path
         inkscape:connector-curvature="0"
         id="path1019"
         d="m 29.75,7.0350105 v 0.3499868 h 0.35 v -0.699975 h -0.7 v 0.699975 h 0.35"
         style="opacity:1;fill:none;fill-opacity:1;fill-rule:evenodd;stroke:#00ffff;stroke-width:0.5;stroke-linecap:round;stroke-linejoin:round;stroke-miterlimit:4;stroke-dasharray:none;stroke-dashoffset:0;stroke-opacity:1" />
      <path
         inkscape:connector-curvature="0"
         id="path1015"
         d="m 27.21,1.9550122 v 0.349985 h 0.35 v -0.699973 h -0.7 v 0.699973 h 0.35"
         style="opacity:1;fill:none;fill-opacity:1;fill-rule:evenodd;stroke:#00ffff;stroke-width:0.5;stroke-linecap:round;stroke-linejoin:round;stroke-miterlimit:4;stroke-dasharray:none;stroke-dashoffset:0;stroke-opacity:1" />
      <path
         style="opacity:1;fill:#6f9090;fill-opacity:0.22869933;fill-rule:evenodd;stroke:#00ffff;stroke-width:0.5;stroke-linecap:round;stroke-linejoin:round;stroke-miterlimit:4;stroke-dasharray:none;stroke-dashoffset:0;stroke-opacity:1"
         d="m 27.21,4.4950116 h -0.349987 v 0.35 h 0.699975 v -0.7 h -0.699975 v 0.35"
         id="path916"
         inkscape:connector-curvature="0" />
      <path
         inkscape:connector-curvature="0"
         id="path918"
         d="m 27.21,7.0350117 h -0.349987 v 0.35 h 0.699975 v -0.7 h -0.699975 v 0.35"
         style="opacity:1;fill:#6f9090;fill-opacity:0.22869933;fill-rule:evenodd;stroke:#00ffff;stroke-width:0.5;stroke-linecap:round;stroke-linejoin:round;stroke-miterlimit:4;stroke-dasharray:none;stroke-dashoffset:0;stroke-opacity:1" />
      <path
         style="opacity:1;fill:#6f9090;fill-opacity:0.22869933;fill-rule:evenodd;stroke:#00ffff;stroke-width:0.5;stroke-linecap:round;stroke-linejoin:round;stroke-miterlimit:4;stroke-dasharray:none;stroke-dashoffset:0;stroke-opacity:1"
         d="m 27.21,9.5750118 h -0.349987 v 0.35 h 0.699975 v -0.7 h -0.699975 v 0.35"
         id="path920"
         inkscape:connector-curvature="0" />
    </g>
    <g
       transform="translate(-17.265001,-18.990002)"
       id="g943">
      <path
         inkscape:transform-center-y="3.9664929"
         inkscape:transform-center-x="-11.679105"
         inkscape:connector-curvature="0"
         id="path938"
         d="m 19.59,19.735012 h 0.499987 v -0.5 h -0.999975 v 1 h 0.999975 v -0.5"
         style="opacity:1;fill:none;fill-opacity:1;fill-rule:evenodd;stroke:#00ffff;stroke-width:0.5;stroke-linecap:round;stroke-linejoin:round;stroke-miterlimit:4;stroke-dasharray:none;stroke-dashoffset:0;stroke-opacity:1" />
      <path
         inkscape:connector-curvature="0"
         id="path940"
         d="m 14.51,19.735012 h 0.499987 v -0.5 h -0.999975 v 1 h 0.999975 v -0.5"
         style="opacity:1;fill:none;fill-opacity:1;fill-rule:evenodd;stroke:#00ffff;stroke-width:0.5;stroke-linecap:round;stroke-linejoin:round;stroke-miterlimit:4;stroke-dasharray:none;stroke-dashoffset:0;stroke-opacity:1" />
    </g>
  </g>
</svg>
