%TF.GenerationSoftware,KiCad,Pcbnew,(5.1.9-0-10_14)*%
%TF.CreationDate,2021-05-01T12:08:51+01:00*%
%TF.ProjectId,Access,41636365-7373-42e6-9b69-6361645f7063,rev?*%
%TF.SameCoordinates,Original*%
%TF.FileFunction,Paste,Bot*%
%TF.FilePolarity,Positive*%
%FSLAX46Y46*%
G04 Gerber Fmt 4.6, Leading zero omitted, Abs format (unit mm)*
G04 Created by KiCad (PCBNEW (5.1.9-0-10_14)) date 2021-05-01 12:08:51*
%MOMM*%
%LPD*%
G01*
G04 APERTURE LIST*
%ADD10C,0.500000*%
%ADD11R,0.800000X0.900000*%
G04 APERTURE END LIST*
%TO.C,D2*%
G36*
G01*
X146675000Y-69112500D02*
X145425000Y-69112500D01*
G75*
G02*
X145175000Y-68862500I0J250000D01*
G01*
X145175000Y-67937500D01*
G75*
G02*
X145425000Y-67687500I250000J0D01*
G01*
X146675000Y-67687500D01*
G75*
G02*
X146925000Y-67937500I0J-250000D01*
G01*
X146925000Y-68862500D01*
G75*
G02*
X146675000Y-69112500I-250000J0D01*
G01*
G37*
G36*
G01*
X146675000Y-72087500D02*
X145425000Y-72087500D01*
G75*
G02*
X145175000Y-71837500I0J250000D01*
G01*
X145175000Y-70912500D01*
G75*
G02*
X145425000Y-70662500I250000J0D01*
G01*
X146675000Y-70662500D01*
G75*
G02*
X146925000Y-70912500I0J-250000D01*
G01*
X146925000Y-71837500D01*
G75*
G02*
X146675000Y-72087500I-250000J0D01*
G01*
G37*
%TD*%
%TO.C,R10*%
G36*
G01*
X147925000Y-70750000D02*
X149175000Y-70750000D01*
G75*
G02*
X149425000Y-71000000I0J-250000D01*
G01*
X149425000Y-71800000D01*
G75*
G02*
X149175000Y-72050000I-250000J0D01*
G01*
X147925000Y-72050000D01*
G75*
G02*
X147675000Y-71800000I0J250000D01*
G01*
X147675000Y-71000000D01*
G75*
G02*
X147925000Y-70750000I250000J0D01*
G01*
G37*
G36*
G01*
X147925000Y-67650000D02*
X149175000Y-67650000D01*
G75*
G02*
X149425000Y-67900000I0J-250000D01*
G01*
X149425000Y-68700000D01*
G75*
G02*
X149175000Y-68950000I-250000J0D01*
G01*
X147925000Y-68950000D01*
G75*
G02*
X147675000Y-68700000I0J250000D01*
G01*
X147675000Y-67900000D01*
G75*
G02*
X147925000Y-67650000I250000J0D01*
G01*
G37*
%TD*%
%TO.C,R9*%
G36*
G01*
X151675000Y-68950000D02*
X150425000Y-68950000D01*
G75*
G02*
X150175000Y-68700000I0J250000D01*
G01*
X150175000Y-67900000D01*
G75*
G02*
X150425000Y-67650000I250000J0D01*
G01*
X151675000Y-67650000D01*
G75*
G02*
X151925000Y-67900000I0J-250000D01*
G01*
X151925000Y-68700000D01*
G75*
G02*
X151675000Y-68950000I-250000J0D01*
G01*
G37*
G36*
G01*
X151675000Y-72050000D02*
X150425000Y-72050000D01*
G75*
G02*
X150175000Y-71800000I0J250000D01*
G01*
X150175000Y-71000000D01*
G75*
G02*
X150425000Y-70750000I250000J0D01*
G01*
X151675000Y-70750000D01*
G75*
G02*
X151925000Y-71000000I0J-250000D01*
G01*
X151925000Y-71800000D01*
G75*
G02*
X151675000Y-72050000I-250000J0D01*
G01*
G37*
%TD*%
%TO.C,R8*%
G36*
G01*
X155425000Y-70750000D02*
X156675000Y-70750000D01*
G75*
G02*
X156925000Y-71000000I0J-250000D01*
G01*
X156925000Y-71800000D01*
G75*
G02*
X156675000Y-72050000I-250000J0D01*
G01*
X155425000Y-72050000D01*
G75*
G02*
X155175000Y-71800000I0J250000D01*
G01*
X155175000Y-71000000D01*
G75*
G02*
X155425000Y-70750000I250000J0D01*
G01*
G37*
G36*
G01*
X155425000Y-67650000D02*
X156675000Y-67650000D01*
G75*
G02*
X156925000Y-67900000I0J-250000D01*
G01*
X156925000Y-68700000D01*
G75*
G02*
X156675000Y-68950000I-250000J0D01*
G01*
X155425000Y-68950000D01*
G75*
G02*
X155175000Y-68700000I0J250000D01*
G01*
X155175000Y-67900000D01*
G75*
G02*
X155425000Y-67650000I250000J0D01*
G01*
G37*
%TD*%
%TO.C,R7*%
G36*
G01*
X152925000Y-70750000D02*
X154175000Y-70750000D01*
G75*
G02*
X154425000Y-71000000I0J-250000D01*
G01*
X154425000Y-71800000D01*
G75*
G02*
X154175000Y-72050000I-250000J0D01*
G01*
X152925000Y-72050000D01*
G75*
G02*
X152675000Y-71800000I0J250000D01*
G01*
X152675000Y-71000000D01*
G75*
G02*
X152925000Y-70750000I250000J0D01*
G01*
G37*
G36*
G01*
X152925000Y-67650000D02*
X154175000Y-67650000D01*
G75*
G02*
X154425000Y-67900000I0J-250000D01*
G01*
X154425000Y-68700000D01*
G75*
G02*
X154175000Y-68950000I-250000J0D01*
G01*
X152925000Y-68950000D01*
G75*
G02*
X152675000Y-68700000I0J250000D01*
G01*
X152675000Y-67900000D01*
G75*
G02*
X152925000Y-67650000I250000J0D01*
G01*
G37*
%TD*%
%TO.C,R4*%
G36*
G01*
X146150000Y-56275000D02*
X146150000Y-57525000D01*
G75*
G02*
X145900000Y-57775000I-250000J0D01*
G01*
X145100000Y-57775000D01*
G75*
G02*
X144850000Y-57525000I0J250000D01*
G01*
X144850000Y-56275000D01*
G75*
G02*
X145100000Y-56025000I250000J0D01*
G01*
X145900000Y-56025000D01*
G75*
G02*
X146150000Y-56275000I0J-250000D01*
G01*
G37*
G36*
G01*
X149250000Y-56275000D02*
X149250000Y-57525000D01*
G75*
G02*
X149000000Y-57775000I-250000J0D01*
G01*
X148200000Y-57775000D01*
G75*
G02*
X147950000Y-57525000I0J250000D01*
G01*
X147950000Y-56275000D01*
G75*
G02*
X148200000Y-56025000I250000J0D01*
G01*
X149000000Y-56025000D01*
G75*
G02*
X149250000Y-56275000I0J-250000D01*
G01*
G37*
%TD*%
%TO.C,R3*%
G36*
G01*
X121450000Y-57525000D02*
X121450000Y-56275000D01*
G75*
G02*
X121700000Y-56025000I250000J0D01*
G01*
X122500000Y-56025000D01*
G75*
G02*
X122750000Y-56275000I0J-250000D01*
G01*
X122750000Y-57525000D01*
G75*
G02*
X122500000Y-57775000I-250000J0D01*
G01*
X121700000Y-57775000D01*
G75*
G02*
X121450000Y-57525000I0J250000D01*
G01*
G37*
G36*
G01*
X118350000Y-57525000D02*
X118350000Y-56275000D01*
G75*
G02*
X118600000Y-56025000I250000J0D01*
G01*
X119400000Y-56025000D01*
G75*
G02*
X119650000Y-56275000I0J-250000D01*
G01*
X119650000Y-57525000D01*
G75*
G02*
X119400000Y-57775000I-250000J0D01*
G01*
X118600000Y-57775000D01*
G75*
G02*
X118350000Y-57525000I0J250000D01*
G01*
G37*
%TD*%
%TO.C,R2*%
G36*
G01*
X130450000Y-57525000D02*
X130450000Y-56275000D01*
G75*
G02*
X130700000Y-56025000I250000J0D01*
G01*
X131500000Y-56025000D01*
G75*
G02*
X131750000Y-56275000I0J-250000D01*
G01*
X131750000Y-57525000D01*
G75*
G02*
X131500000Y-57775000I-250000J0D01*
G01*
X130700000Y-57775000D01*
G75*
G02*
X130450000Y-57525000I0J250000D01*
G01*
G37*
G36*
G01*
X127350000Y-57525000D02*
X127350000Y-56275000D01*
G75*
G02*
X127600000Y-56025000I250000J0D01*
G01*
X128400000Y-56025000D01*
G75*
G02*
X128650000Y-56275000I0J-250000D01*
G01*
X128650000Y-57525000D01*
G75*
G02*
X128400000Y-57775000I-250000J0D01*
G01*
X127600000Y-57775000D01*
G75*
G02*
X127350000Y-57525000I0J250000D01*
G01*
G37*
%TD*%
%TO.C,R1*%
G36*
G01*
X139450000Y-57525000D02*
X139450000Y-56275000D01*
G75*
G02*
X139700000Y-56025000I250000J0D01*
G01*
X140500000Y-56025000D01*
G75*
G02*
X140750000Y-56275000I0J-250000D01*
G01*
X140750000Y-57525000D01*
G75*
G02*
X140500000Y-57775000I-250000J0D01*
G01*
X139700000Y-57775000D01*
G75*
G02*
X139450000Y-57525000I0J250000D01*
G01*
G37*
G36*
G01*
X136350000Y-57525000D02*
X136350000Y-56275000D01*
G75*
G02*
X136600000Y-56025000I250000J0D01*
G01*
X137400000Y-56025000D01*
G75*
G02*
X137650000Y-56275000I0J-250000D01*
G01*
X137650000Y-57525000D01*
G75*
G02*
X137400000Y-57775000I-250000J0D01*
G01*
X136600000Y-57775000D01*
G75*
G02*
X136350000Y-57525000I0J250000D01*
G01*
G37*
%TD*%
D10*
%TO.C,U6*%
X145050000Y-60900000D03*
G36*
G01*
X147420000Y-63020000D02*
X147930000Y-63020000D01*
G75*
G02*
X148180000Y-63270000I0J-250000D01*
G01*
X148180000Y-63780000D01*
G75*
G02*
X147930000Y-64030000I-250000J0D01*
G01*
X147420000Y-64030000D01*
G75*
G02*
X147170000Y-63780000I0J250000D01*
G01*
X147170000Y-63270000D01*
G75*
G02*
X147420000Y-63020000I250000J0D01*
G01*
G37*
G36*
G01*
X146170000Y-63020000D02*
X146680000Y-63020000D01*
G75*
G02*
X146930000Y-63270000I0J-250000D01*
G01*
X146930000Y-63780000D01*
G75*
G02*
X146680000Y-64030000I-250000J0D01*
G01*
X146170000Y-64030000D01*
G75*
G02*
X145920000Y-63780000I0J250000D01*
G01*
X145920000Y-63270000D01*
G75*
G02*
X146170000Y-63020000I250000J0D01*
G01*
G37*
G36*
G01*
X147420000Y-61770000D02*
X147930000Y-61770000D01*
G75*
G02*
X148180000Y-62020000I0J-250000D01*
G01*
X148180000Y-62530000D01*
G75*
G02*
X147930000Y-62780000I-250000J0D01*
G01*
X147420000Y-62780000D01*
G75*
G02*
X147170000Y-62530000I0J250000D01*
G01*
X147170000Y-62020000D01*
G75*
G02*
X147420000Y-61770000I250000J0D01*
G01*
G37*
G36*
G01*
X146170000Y-61770000D02*
X146680000Y-61770000D01*
G75*
G02*
X146930000Y-62020000I0J-250000D01*
G01*
X146930000Y-62530000D01*
G75*
G02*
X146680000Y-62780000I-250000J0D01*
G01*
X146170000Y-62780000D01*
G75*
G02*
X145920000Y-62530000I0J250000D01*
G01*
X145920000Y-62020000D01*
G75*
G02*
X146170000Y-61770000I250000J0D01*
G01*
G37*
G36*
G01*
X144587500Y-61775000D02*
X145462500Y-61775000D01*
G75*
G02*
X145525000Y-61837500I0J-62500D01*
G01*
X145525000Y-61962500D01*
G75*
G02*
X145462500Y-62025000I-62500J0D01*
G01*
X144587500Y-62025000D01*
G75*
G02*
X144525000Y-61962500I0J62500D01*
G01*
X144525000Y-61837500D01*
G75*
G02*
X144587500Y-61775000I62500J0D01*
G01*
G37*
G36*
G01*
X144587500Y-62275000D02*
X145462500Y-62275000D01*
G75*
G02*
X145525000Y-62337500I0J-62500D01*
G01*
X145525000Y-62462500D01*
G75*
G02*
X145462500Y-62525000I-62500J0D01*
G01*
X144587500Y-62525000D01*
G75*
G02*
X144525000Y-62462500I0J62500D01*
G01*
X144525000Y-62337500D01*
G75*
G02*
X144587500Y-62275000I62500J0D01*
G01*
G37*
G36*
G01*
X144587500Y-62775000D02*
X145462500Y-62775000D01*
G75*
G02*
X145525000Y-62837500I0J-62500D01*
G01*
X145525000Y-62962500D01*
G75*
G02*
X145462500Y-63025000I-62500J0D01*
G01*
X144587500Y-63025000D01*
G75*
G02*
X144525000Y-62962500I0J62500D01*
G01*
X144525000Y-62837500D01*
G75*
G02*
X144587500Y-62775000I62500J0D01*
G01*
G37*
G36*
G01*
X144587500Y-63275000D02*
X145462500Y-63275000D01*
G75*
G02*
X145525000Y-63337500I0J-62500D01*
G01*
X145525000Y-63462500D01*
G75*
G02*
X145462500Y-63525000I-62500J0D01*
G01*
X144587500Y-63525000D01*
G75*
G02*
X144525000Y-63462500I0J62500D01*
G01*
X144525000Y-63337500D01*
G75*
G02*
X144587500Y-63275000I62500J0D01*
G01*
G37*
G36*
G01*
X144587500Y-63775000D02*
X145462500Y-63775000D01*
G75*
G02*
X145525000Y-63837500I0J-62500D01*
G01*
X145525000Y-63962500D01*
G75*
G02*
X145462500Y-64025000I-62500J0D01*
G01*
X144587500Y-64025000D01*
G75*
G02*
X144525000Y-63962500I0J62500D01*
G01*
X144525000Y-63837500D01*
G75*
G02*
X144587500Y-63775000I62500J0D01*
G01*
G37*
G36*
G01*
X145987500Y-64425000D02*
X146112500Y-64425000D01*
G75*
G02*
X146175000Y-64487500I0J-62500D01*
G01*
X146175000Y-65362500D01*
G75*
G02*
X146112500Y-65425000I-62500J0D01*
G01*
X145987500Y-65425000D01*
G75*
G02*
X145925000Y-65362500I0J62500D01*
G01*
X145925000Y-64487500D01*
G75*
G02*
X145987500Y-64425000I62500J0D01*
G01*
G37*
G36*
G01*
X146487500Y-64425000D02*
X146612500Y-64425000D01*
G75*
G02*
X146675000Y-64487500I0J-62500D01*
G01*
X146675000Y-65362500D01*
G75*
G02*
X146612500Y-65425000I-62500J0D01*
G01*
X146487500Y-65425000D01*
G75*
G02*
X146425000Y-65362500I0J62500D01*
G01*
X146425000Y-64487500D01*
G75*
G02*
X146487500Y-64425000I62500J0D01*
G01*
G37*
G36*
G01*
X146987500Y-64425000D02*
X147112500Y-64425000D01*
G75*
G02*
X147175000Y-64487500I0J-62500D01*
G01*
X147175000Y-65362500D01*
G75*
G02*
X147112500Y-65425000I-62500J0D01*
G01*
X146987500Y-65425000D01*
G75*
G02*
X146925000Y-65362500I0J62500D01*
G01*
X146925000Y-64487500D01*
G75*
G02*
X146987500Y-64425000I62500J0D01*
G01*
G37*
G36*
G01*
X147487500Y-64425000D02*
X147612500Y-64425000D01*
G75*
G02*
X147675000Y-64487500I0J-62500D01*
G01*
X147675000Y-65362500D01*
G75*
G02*
X147612500Y-65425000I-62500J0D01*
G01*
X147487500Y-65425000D01*
G75*
G02*
X147425000Y-65362500I0J62500D01*
G01*
X147425000Y-64487500D01*
G75*
G02*
X147487500Y-64425000I62500J0D01*
G01*
G37*
G36*
G01*
X147987500Y-64425000D02*
X148112500Y-64425000D01*
G75*
G02*
X148175000Y-64487500I0J-62500D01*
G01*
X148175000Y-65362500D01*
G75*
G02*
X148112500Y-65425000I-62500J0D01*
G01*
X147987500Y-65425000D01*
G75*
G02*
X147925000Y-65362500I0J62500D01*
G01*
X147925000Y-64487500D01*
G75*
G02*
X147987500Y-64425000I62500J0D01*
G01*
G37*
G36*
G01*
X148637500Y-63775000D02*
X149512500Y-63775000D01*
G75*
G02*
X149575000Y-63837500I0J-62500D01*
G01*
X149575000Y-63962500D01*
G75*
G02*
X149512500Y-64025000I-62500J0D01*
G01*
X148637500Y-64025000D01*
G75*
G02*
X148575000Y-63962500I0J62500D01*
G01*
X148575000Y-63837500D01*
G75*
G02*
X148637500Y-63775000I62500J0D01*
G01*
G37*
G36*
G01*
X148637500Y-63275000D02*
X149512500Y-63275000D01*
G75*
G02*
X149575000Y-63337500I0J-62500D01*
G01*
X149575000Y-63462500D01*
G75*
G02*
X149512500Y-63525000I-62500J0D01*
G01*
X148637500Y-63525000D01*
G75*
G02*
X148575000Y-63462500I0J62500D01*
G01*
X148575000Y-63337500D01*
G75*
G02*
X148637500Y-63275000I62500J0D01*
G01*
G37*
G36*
G01*
X148637500Y-62775000D02*
X149512500Y-62775000D01*
G75*
G02*
X149575000Y-62837500I0J-62500D01*
G01*
X149575000Y-62962500D01*
G75*
G02*
X149512500Y-63025000I-62500J0D01*
G01*
X148637500Y-63025000D01*
G75*
G02*
X148575000Y-62962500I0J62500D01*
G01*
X148575000Y-62837500D01*
G75*
G02*
X148637500Y-62775000I62500J0D01*
G01*
G37*
G36*
G01*
X148637500Y-62275000D02*
X149512500Y-62275000D01*
G75*
G02*
X149575000Y-62337500I0J-62500D01*
G01*
X149575000Y-62462500D01*
G75*
G02*
X149512500Y-62525000I-62500J0D01*
G01*
X148637500Y-62525000D01*
G75*
G02*
X148575000Y-62462500I0J62500D01*
G01*
X148575000Y-62337500D01*
G75*
G02*
X148637500Y-62275000I62500J0D01*
G01*
G37*
G36*
G01*
X148637500Y-61775000D02*
X149512500Y-61775000D01*
G75*
G02*
X149575000Y-61837500I0J-62500D01*
G01*
X149575000Y-61962500D01*
G75*
G02*
X149512500Y-62025000I-62500J0D01*
G01*
X148637500Y-62025000D01*
G75*
G02*
X148575000Y-61962500I0J62500D01*
G01*
X148575000Y-61837500D01*
G75*
G02*
X148637500Y-61775000I62500J0D01*
G01*
G37*
G36*
G01*
X147987500Y-60375000D02*
X148112500Y-60375000D01*
G75*
G02*
X148175000Y-60437500I0J-62500D01*
G01*
X148175000Y-61312500D01*
G75*
G02*
X148112500Y-61375000I-62500J0D01*
G01*
X147987500Y-61375000D01*
G75*
G02*
X147925000Y-61312500I0J62500D01*
G01*
X147925000Y-60437500D01*
G75*
G02*
X147987500Y-60375000I62500J0D01*
G01*
G37*
G36*
G01*
X147487500Y-60375000D02*
X147612500Y-60375000D01*
G75*
G02*
X147675000Y-60437500I0J-62500D01*
G01*
X147675000Y-61312500D01*
G75*
G02*
X147612500Y-61375000I-62500J0D01*
G01*
X147487500Y-61375000D01*
G75*
G02*
X147425000Y-61312500I0J62500D01*
G01*
X147425000Y-60437500D01*
G75*
G02*
X147487500Y-60375000I62500J0D01*
G01*
G37*
G36*
G01*
X146987500Y-60375000D02*
X147112500Y-60375000D01*
G75*
G02*
X147175000Y-60437500I0J-62500D01*
G01*
X147175000Y-61312500D01*
G75*
G02*
X147112500Y-61375000I-62500J0D01*
G01*
X146987500Y-61375000D01*
G75*
G02*
X146925000Y-61312500I0J62500D01*
G01*
X146925000Y-60437500D01*
G75*
G02*
X146987500Y-60375000I62500J0D01*
G01*
G37*
G36*
G01*
X146487500Y-60375000D02*
X146612500Y-60375000D01*
G75*
G02*
X146675000Y-60437500I0J-62500D01*
G01*
X146675000Y-61312500D01*
G75*
G02*
X146612500Y-61375000I-62500J0D01*
G01*
X146487500Y-61375000D01*
G75*
G02*
X146425000Y-61312500I0J62500D01*
G01*
X146425000Y-60437500D01*
G75*
G02*
X146487500Y-60375000I62500J0D01*
G01*
G37*
G36*
G01*
X145987500Y-60375000D02*
X146112500Y-60375000D01*
G75*
G02*
X146175000Y-60437500I0J-62500D01*
G01*
X146175000Y-61312500D01*
G75*
G02*
X146112500Y-61375000I-62500J0D01*
G01*
X145987500Y-61375000D01*
G75*
G02*
X145925000Y-61312500I0J62500D01*
G01*
X145925000Y-60437500D01*
G75*
G02*
X145987500Y-60375000I62500J0D01*
G01*
G37*
%TD*%
%TO.C,R6*%
G36*
G01*
X156350000Y-57275000D02*
X156350000Y-58525000D01*
G75*
G02*
X156100000Y-58775000I-250000J0D01*
G01*
X155300000Y-58775000D01*
G75*
G02*
X155050000Y-58525000I0J250000D01*
G01*
X155050000Y-57275000D01*
G75*
G02*
X155300000Y-57025000I250000J0D01*
G01*
X156100000Y-57025000D01*
G75*
G02*
X156350000Y-57275000I0J-250000D01*
G01*
G37*
G36*
G01*
X159450000Y-57275000D02*
X159450000Y-58525000D01*
G75*
G02*
X159200000Y-58775000I-250000J0D01*
G01*
X158400000Y-58775000D01*
G75*
G02*
X158150000Y-58525000I0J250000D01*
G01*
X158150000Y-57275000D01*
G75*
G02*
X158400000Y-57025000I250000J0D01*
G01*
X159200000Y-57025000D01*
G75*
G02*
X159450000Y-57275000I0J-250000D01*
G01*
G37*
%TD*%
%TO.C,R5*%
G36*
G01*
X158150000Y-60825000D02*
X158150000Y-59575000D01*
G75*
G02*
X158400000Y-59325000I250000J0D01*
G01*
X159200000Y-59325000D01*
G75*
G02*
X159450000Y-59575000I0J-250000D01*
G01*
X159450000Y-60825000D01*
G75*
G02*
X159200000Y-61075000I-250000J0D01*
G01*
X158400000Y-61075000D01*
G75*
G02*
X158150000Y-60825000I0J250000D01*
G01*
G37*
G36*
G01*
X155050000Y-60825000D02*
X155050000Y-59575000D01*
G75*
G02*
X155300000Y-59325000I250000J0D01*
G01*
X156100000Y-59325000D01*
G75*
G02*
X156350000Y-59575000I0J-250000D01*
G01*
X156350000Y-60825000D01*
G75*
G02*
X156100000Y-61075000I-250000J0D01*
G01*
X155300000Y-61075000D01*
G75*
G02*
X155050000Y-60825000I0J250000D01*
G01*
G37*
%TD*%
D11*
%TO.C,Q1*%
X152350000Y-75100000D03*
X153300000Y-73100000D03*
X151400000Y-73100000D03*
%TD*%
M02*
