%TF.GenerationSoftware,KiCad,Pcbnew,(5.1.9-0-10_14)*%
%TF.CreationDate,2021-05-02T17:39:41+01:00*%
%TF.ProjectId,Access,41636365-7373-42e6-9b69-6361645f7063,1*%
%TF.SameCoordinates,Original*%
%TF.FileFunction,Legend,Bot*%
%TF.FilePolarity,Positive*%
%FSLAX46Y46*%
G04 Gerber Fmt 4.6, Leading zero omitted, Abs format (unit mm)*
G04 Created by KiCad (PCBNEW (5.1.9-0-10_14)) date 2021-05-02 17:39:41*
%MOMM*%
%LPD*%
G01*
G04 APERTURE LIST*
%ADD10C,0.050000*%
%ADD11C,0.150000*%
%ADD12C,0.100000*%
%ADD13C,0.300000*%
%ADD14C,0.120000*%
G04 APERTURE END LIST*
D10*
X140233333Y-53578571D02*
X140257142Y-53602380D01*
X140328571Y-53626190D01*
X140376190Y-53626190D01*
X140447619Y-53602380D01*
X140495238Y-53554761D01*
X140519047Y-53507142D01*
X140542857Y-53411904D01*
X140542857Y-53340476D01*
X140519047Y-53245238D01*
X140495238Y-53197619D01*
X140447619Y-53150000D01*
X140376190Y-53126190D01*
X140328571Y-53126190D01*
X140257142Y-53150000D01*
X140233333Y-53173809D01*
X140019047Y-53626190D02*
X140019047Y-53292857D01*
X140019047Y-53388095D02*
X139995238Y-53340476D01*
X139971428Y-53316666D01*
X139923809Y-53292857D01*
X139876190Y-53292857D01*
X139638095Y-53626190D02*
X139685714Y-53602380D01*
X139709523Y-53578571D01*
X139733333Y-53530952D01*
X139733333Y-53388095D01*
X139709523Y-53340476D01*
X139685714Y-53316666D01*
X139638095Y-53292857D01*
X139566666Y-53292857D01*
X139519047Y-53316666D01*
X139495238Y-53340476D01*
X139471428Y-53388095D01*
X139471428Y-53530952D01*
X139495238Y-53578571D01*
X139519047Y-53602380D01*
X139566666Y-53626190D01*
X139638095Y-53626190D01*
X139257142Y-53292857D02*
X139257142Y-53792857D01*
X139257142Y-53316666D02*
X139209523Y-53292857D01*
X139114285Y-53292857D01*
X139066666Y-53316666D01*
X139042857Y-53340476D01*
X139019047Y-53388095D01*
X139019047Y-53530952D01*
X139042857Y-53578571D01*
X139066666Y-53602380D01*
X139114285Y-53626190D01*
X139209523Y-53626190D01*
X139257142Y-53602380D01*
X138447619Y-53602380D02*
X138376190Y-53626190D01*
X138257142Y-53626190D01*
X138209523Y-53602380D01*
X138185714Y-53578571D01*
X138161904Y-53530952D01*
X138161904Y-53483333D01*
X138185714Y-53435714D01*
X138209523Y-53411904D01*
X138257142Y-53388095D01*
X138352380Y-53364285D01*
X138400000Y-53340476D01*
X138423809Y-53316666D01*
X138447619Y-53269047D01*
X138447619Y-53221428D01*
X138423809Y-53173809D01*
X138400000Y-53150000D01*
X138352380Y-53126190D01*
X138233333Y-53126190D01*
X138161904Y-53150000D01*
X137947619Y-53626190D02*
X137947619Y-53126190D01*
X137757142Y-53126190D01*
X137709523Y-53150000D01*
X137685714Y-53173809D01*
X137661904Y-53221428D01*
X137661904Y-53292857D01*
X137685714Y-53340476D01*
X137709523Y-53364285D01*
X137757142Y-53388095D01*
X137947619Y-53388095D01*
X137352380Y-53126190D02*
X137257142Y-53126190D01*
X137209523Y-53150000D01*
X137161904Y-53197619D01*
X137138095Y-53292857D01*
X137138095Y-53459523D01*
X137161904Y-53554761D01*
X137209523Y-53602380D01*
X137257142Y-53626190D01*
X137352380Y-53626190D01*
X137400000Y-53602380D01*
X137447619Y-53554761D01*
X137471428Y-53459523D01*
X137471428Y-53292857D01*
X137447619Y-53197619D01*
X137400000Y-53150000D01*
X137352380Y-53126190D01*
X136971428Y-53126190D02*
X136638095Y-53626190D01*
X136638095Y-53126190D02*
X136971428Y-53626190D01*
X136066666Y-53292857D02*
X136066666Y-53792857D01*
X136066666Y-53316666D02*
X136019047Y-53292857D01*
X135923809Y-53292857D01*
X135876190Y-53316666D01*
X135852380Y-53340476D01*
X135828571Y-53388095D01*
X135828571Y-53530952D01*
X135852380Y-53578571D01*
X135876190Y-53602380D01*
X135923809Y-53626190D01*
X136019047Y-53626190D01*
X136066666Y-53602380D01*
X135614285Y-53626190D02*
X135614285Y-53292857D01*
X135614285Y-53126190D02*
X135638095Y-53150000D01*
X135614285Y-53173809D01*
X135590476Y-53150000D01*
X135614285Y-53126190D01*
X135614285Y-53173809D01*
X135376190Y-53292857D02*
X135376190Y-53626190D01*
X135376190Y-53340476D02*
X135352380Y-53316666D01*
X135304761Y-53292857D01*
X135233333Y-53292857D01*
X135185714Y-53316666D01*
X135161904Y-53364285D01*
X135161904Y-53626190D01*
X134947619Y-53602380D02*
X134900000Y-53626190D01*
X134804761Y-53626190D01*
X134757142Y-53602380D01*
X134733333Y-53554761D01*
X134733333Y-53530952D01*
X134757142Y-53483333D01*
X134804761Y-53459523D01*
X134876190Y-53459523D01*
X134923809Y-53435714D01*
X134947619Y-53388095D01*
X134947619Y-53364285D01*
X134923809Y-53316666D01*
X134876190Y-53292857D01*
X134804761Y-53292857D01*
X134757142Y-53316666D01*
X133923809Y-53602380D02*
X133971428Y-53626190D01*
X134066666Y-53626190D01*
X134114285Y-53602380D01*
X134138095Y-53578571D01*
X134161904Y-53530952D01*
X134161904Y-53388095D01*
X134138095Y-53340476D01*
X134114285Y-53316666D01*
X134066666Y-53292857D01*
X133971428Y-53292857D01*
X133923809Y-53316666D01*
X133638095Y-53626190D02*
X133685714Y-53602380D01*
X133709523Y-53554761D01*
X133709523Y-53126190D01*
X133376190Y-53626190D02*
X133423809Y-53602380D01*
X133447619Y-53578571D01*
X133471428Y-53530952D01*
X133471428Y-53388095D01*
X133447619Y-53340476D01*
X133423809Y-53316666D01*
X133376190Y-53292857D01*
X133304761Y-53292857D01*
X133257142Y-53316666D01*
X133233333Y-53340476D01*
X133209523Y-53388095D01*
X133209523Y-53530952D01*
X133233333Y-53578571D01*
X133257142Y-53602380D01*
X133304761Y-53626190D01*
X133376190Y-53626190D01*
X133019047Y-53602380D02*
X132971428Y-53626190D01*
X132876190Y-53626190D01*
X132828571Y-53602380D01*
X132804761Y-53554761D01*
X132804761Y-53530952D01*
X132828571Y-53483333D01*
X132876190Y-53459523D01*
X132947619Y-53459523D01*
X132995238Y-53435714D01*
X133019047Y-53388095D01*
X133019047Y-53364285D01*
X132995238Y-53316666D01*
X132947619Y-53292857D01*
X132876190Y-53292857D01*
X132828571Y-53316666D01*
X132400000Y-53602380D02*
X132447619Y-53626190D01*
X132542857Y-53626190D01*
X132590476Y-53602380D01*
X132614285Y-53554761D01*
X132614285Y-53364285D01*
X132590476Y-53316666D01*
X132542857Y-53292857D01*
X132447619Y-53292857D01*
X132400000Y-53316666D01*
X132376190Y-53364285D01*
X132376190Y-53411904D01*
X132614285Y-53459523D01*
X131852380Y-53292857D02*
X131661904Y-53292857D01*
X131780952Y-53126190D02*
X131780952Y-53554761D01*
X131757142Y-53602380D01*
X131709523Y-53626190D01*
X131661904Y-53626190D01*
X131423809Y-53626190D02*
X131471428Y-53602380D01*
X131495238Y-53578571D01*
X131519047Y-53530952D01*
X131519047Y-53388095D01*
X131495238Y-53340476D01*
X131471428Y-53316666D01*
X131423809Y-53292857D01*
X131352380Y-53292857D01*
X131304761Y-53316666D01*
X131280952Y-53340476D01*
X131257142Y-53388095D01*
X131257142Y-53530952D01*
X131280952Y-53578571D01*
X131304761Y-53602380D01*
X131352380Y-53626190D01*
X131423809Y-53626190D01*
X130661904Y-53626190D02*
X130661904Y-53126190D01*
X130661904Y-53316666D02*
X130614285Y-53292857D01*
X130519047Y-53292857D01*
X130471428Y-53316666D01*
X130447619Y-53340476D01*
X130423809Y-53388095D01*
X130423809Y-53530952D01*
X130447619Y-53578571D01*
X130471428Y-53602380D01*
X130519047Y-53626190D01*
X130614285Y-53626190D01*
X130661904Y-53602380D01*
X130138095Y-53626190D02*
X130185714Y-53602380D01*
X130209523Y-53578571D01*
X130233333Y-53530952D01*
X130233333Y-53388095D01*
X130209523Y-53340476D01*
X130185714Y-53316666D01*
X130138095Y-53292857D01*
X130066666Y-53292857D01*
X130019047Y-53316666D01*
X129995238Y-53340476D01*
X129971428Y-53388095D01*
X129971428Y-53530952D01*
X129995238Y-53578571D01*
X130019047Y-53602380D01*
X130066666Y-53626190D01*
X130138095Y-53626190D01*
X129542857Y-53626190D02*
X129542857Y-53364285D01*
X129566666Y-53316666D01*
X129614285Y-53292857D01*
X129709523Y-53292857D01*
X129757142Y-53316666D01*
X129542857Y-53602380D02*
X129590476Y-53626190D01*
X129709523Y-53626190D01*
X129757142Y-53602380D01*
X129780952Y-53554761D01*
X129780952Y-53507142D01*
X129757142Y-53459523D01*
X129709523Y-53435714D01*
X129590476Y-53435714D01*
X129542857Y-53411904D01*
X129304761Y-53626190D02*
X129304761Y-53292857D01*
X129304761Y-53388095D02*
X129280952Y-53340476D01*
X129257142Y-53316666D01*
X129209523Y-53292857D01*
X129161904Y-53292857D01*
X128780952Y-53626190D02*
X128780952Y-53126190D01*
X128780952Y-53602380D02*
X128828571Y-53626190D01*
X128923809Y-53626190D01*
X128971428Y-53602380D01*
X128995238Y-53578571D01*
X129019047Y-53530952D01*
X129019047Y-53388095D01*
X128995238Y-53340476D01*
X128971428Y-53316666D01*
X128923809Y-53292857D01*
X128828571Y-53292857D01*
X128780952Y-53316666D01*
D11*
X152150000Y-53300000D02*
X154250000Y-52100000D01*
X152150000Y-53800000D02*
X152150000Y-53300000D01*
X150450000Y-55900000D02*
X151350000Y-55900000D01*
X150450000Y-55900000D02*
X147450000Y-52300000D01*
D12*
X114330952Y-47111904D02*
X114711904Y-47111904D01*
X114711904Y-46311904D01*
X113950000Y-47111904D02*
X114026190Y-47073809D01*
X114064285Y-47035714D01*
X114102380Y-46959523D01*
X114102380Y-46730952D01*
X114064285Y-46654761D01*
X114026190Y-46616666D01*
X113950000Y-46578571D01*
X113835714Y-46578571D01*
X113759523Y-46616666D01*
X113721428Y-46654761D01*
X113683333Y-46730952D01*
X113683333Y-46959523D01*
X113721428Y-47035714D01*
X113759523Y-47073809D01*
X113835714Y-47111904D01*
X113950000Y-47111904D01*
X112997619Y-47073809D02*
X113073809Y-47111904D01*
X113226190Y-47111904D01*
X113302380Y-47073809D01*
X113340476Y-47035714D01*
X113378571Y-46959523D01*
X113378571Y-46730952D01*
X113340476Y-46654761D01*
X113302380Y-46616666D01*
X113226190Y-46578571D01*
X113073809Y-46578571D01*
X112997619Y-46616666D01*
X112654761Y-47111904D02*
X112654761Y-46311904D01*
X112578571Y-46807142D02*
X112350000Y-47111904D01*
X112350000Y-46578571D02*
X112654761Y-46883333D01*
X115873809Y-47992857D02*
X115607142Y-47992857D01*
X115492857Y-48411904D02*
X115873809Y-48411904D01*
X115873809Y-47611904D01*
X115492857Y-47611904D01*
X115150000Y-47878571D02*
X115150000Y-48411904D01*
X115150000Y-47954761D02*
X115111904Y-47916666D01*
X115035714Y-47878571D01*
X114921428Y-47878571D01*
X114845238Y-47916666D01*
X114807142Y-47992857D01*
X114807142Y-48411904D01*
X114083333Y-47878571D02*
X114083333Y-48526190D01*
X114121428Y-48602380D01*
X114159523Y-48640476D01*
X114235714Y-48678571D01*
X114350000Y-48678571D01*
X114426190Y-48640476D01*
X114083333Y-48373809D02*
X114159523Y-48411904D01*
X114311904Y-48411904D01*
X114388095Y-48373809D01*
X114426190Y-48335714D01*
X114464285Y-48259523D01*
X114464285Y-48030952D01*
X114426190Y-47954761D01*
X114388095Y-47916666D01*
X114311904Y-47878571D01*
X114159523Y-47878571D01*
X114083333Y-47916666D01*
X113359523Y-48411904D02*
X113359523Y-47992857D01*
X113397619Y-47916666D01*
X113473809Y-47878571D01*
X113626190Y-47878571D01*
X113702380Y-47916666D01*
X113359523Y-48373809D02*
X113435714Y-48411904D01*
X113626190Y-48411904D01*
X113702380Y-48373809D01*
X113740476Y-48297619D01*
X113740476Y-48221428D01*
X113702380Y-48145238D01*
X113626190Y-48107142D01*
X113435714Y-48107142D01*
X113359523Y-48069047D01*
X112635714Y-47878571D02*
X112635714Y-48526190D01*
X112673809Y-48602380D01*
X112711904Y-48640476D01*
X112788095Y-48678571D01*
X112902380Y-48678571D01*
X112978571Y-48640476D01*
X112635714Y-48373809D02*
X112711904Y-48411904D01*
X112864285Y-48411904D01*
X112940476Y-48373809D01*
X112978571Y-48335714D01*
X113016666Y-48259523D01*
X113016666Y-48030952D01*
X112978571Y-47954761D01*
X112940476Y-47916666D01*
X112864285Y-47878571D01*
X112711904Y-47878571D01*
X112635714Y-47916666D01*
X111950000Y-48373809D02*
X112026190Y-48411904D01*
X112178571Y-48411904D01*
X112254761Y-48373809D01*
X112292857Y-48297619D01*
X112292857Y-47992857D01*
X112254761Y-47916666D01*
X112178571Y-47878571D01*
X112026190Y-47878571D01*
X111950000Y-47916666D01*
X111911904Y-47992857D01*
X111911904Y-48069047D01*
X112292857Y-48145238D01*
X111226190Y-48411904D02*
X111226190Y-47611904D01*
X111226190Y-48373809D02*
X111302380Y-48411904D01*
X111454761Y-48411904D01*
X111530952Y-48373809D01*
X111569047Y-48335714D01*
X111607142Y-48259523D01*
X111607142Y-48030952D01*
X111569047Y-47954761D01*
X111530952Y-47916666D01*
X111454761Y-47878571D01*
X111302380Y-47878571D01*
X111226190Y-47916666D01*
X119730952Y-47111904D02*
X119730952Y-46311904D01*
X119540476Y-46311904D01*
X119426190Y-46350000D01*
X119350000Y-46426190D01*
X119311904Y-46502380D01*
X119273809Y-46654761D01*
X119273809Y-46769047D01*
X119311904Y-46921428D01*
X119350000Y-46997619D01*
X119426190Y-47073809D01*
X119540476Y-47111904D01*
X119730952Y-47111904D01*
X118816666Y-47111904D02*
X118892857Y-47073809D01*
X118930952Y-47035714D01*
X118969047Y-46959523D01*
X118969047Y-46730952D01*
X118930952Y-46654761D01*
X118892857Y-46616666D01*
X118816666Y-46578571D01*
X118702380Y-46578571D01*
X118626190Y-46616666D01*
X118588095Y-46654761D01*
X118550000Y-46730952D01*
X118550000Y-46959523D01*
X118588095Y-47035714D01*
X118626190Y-47073809D01*
X118702380Y-47111904D01*
X118816666Y-47111904D01*
X118092857Y-47111904D02*
X118169047Y-47073809D01*
X118207142Y-47035714D01*
X118245238Y-46959523D01*
X118245238Y-46730952D01*
X118207142Y-46654761D01*
X118169047Y-46616666D01*
X118092857Y-46578571D01*
X117978571Y-46578571D01*
X117902380Y-46616666D01*
X117864285Y-46654761D01*
X117826190Y-46730952D01*
X117826190Y-46959523D01*
X117864285Y-47035714D01*
X117902380Y-47073809D01*
X117978571Y-47111904D01*
X118092857Y-47111904D01*
X117483333Y-47111904D02*
X117483333Y-46578571D01*
X117483333Y-46730952D02*
X117445238Y-46654761D01*
X117407142Y-46616666D01*
X117330952Y-46578571D01*
X117254761Y-46578571D01*
X119902380Y-48335714D02*
X119940476Y-48373809D01*
X120054761Y-48411904D01*
X120130952Y-48411904D01*
X120245238Y-48373809D01*
X120321428Y-48297619D01*
X120359523Y-48221428D01*
X120397619Y-48069047D01*
X120397619Y-47954761D01*
X120359523Y-47802380D01*
X120321428Y-47726190D01*
X120245238Y-47650000D01*
X120130952Y-47611904D01*
X120054761Y-47611904D01*
X119940476Y-47650000D01*
X119902380Y-47688095D01*
X119445238Y-48411904D02*
X119521428Y-48373809D01*
X119559523Y-48297619D01*
X119559523Y-47611904D01*
X119026190Y-48411904D02*
X119102380Y-48373809D01*
X119140476Y-48335714D01*
X119178571Y-48259523D01*
X119178571Y-48030952D01*
X119140476Y-47954761D01*
X119102380Y-47916666D01*
X119026190Y-47878571D01*
X118911904Y-47878571D01*
X118835714Y-47916666D01*
X118797619Y-47954761D01*
X118759523Y-48030952D01*
X118759523Y-48259523D01*
X118797619Y-48335714D01*
X118835714Y-48373809D01*
X118911904Y-48411904D01*
X119026190Y-48411904D01*
X118454761Y-48373809D02*
X118378571Y-48411904D01*
X118226190Y-48411904D01*
X118150000Y-48373809D01*
X118111904Y-48297619D01*
X118111904Y-48259523D01*
X118150000Y-48183333D01*
X118226190Y-48145238D01*
X118340476Y-48145238D01*
X118416666Y-48107142D01*
X118454761Y-48030952D01*
X118454761Y-47992857D01*
X118416666Y-47916666D01*
X118340476Y-47878571D01*
X118226190Y-47878571D01*
X118150000Y-47916666D01*
X117464285Y-48373809D02*
X117540476Y-48411904D01*
X117692857Y-48411904D01*
X117769047Y-48373809D01*
X117807142Y-48297619D01*
X117807142Y-47992857D01*
X117769047Y-47916666D01*
X117692857Y-47878571D01*
X117540476Y-47878571D01*
X117464285Y-47916666D01*
X117426190Y-47992857D01*
X117426190Y-48069047D01*
X117807142Y-48145238D01*
X116740476Y-48411904D02*
X116740476Y-47611904D01*
X116740476Y-48373809D02*
X116816666Y-48411904D01*
X116969047Y-48411904D01*
X117045238Y-48373809D01*
X117083333Y-48335714D01*
X117121428Y-48259523D01*
X117121428Y-48030952D01*
X117083333Y-47954761D01*
X117045238Y-47916666D01*
X116969047Y-47878571D01*
X116816666Y-47878571D01*
X116740476Y-47916666D01*
X124564285Y-46692857D02*
X124297619Y-46692857D01*
X124183333Y-47111904D02*
X124564285Y-47111904D01*
X124564285Y-46311904D01*
X124183333Y-46311904D01*
X123916666Y-47111904D02*
X123497619Y-46578571D01*
X123916666Y-46578571D02*
X123497619Y-47111904D01*
X123192857Y-47111904D02*
X123192857Y-46578571D01*
X123192857Y-46311904D02*
X123230952Y-46350000D01*
X123192857Y-46388095D01*
X123154761Y-46350000D01*
X123192857Y-46311904D01*
X123192857Y-46388095D01*
X122926190Y-46578571D02*
X122621428Y-46578571D01*
X122811904Y-46311904D02*
X122811904Y-46997619D01*
X122773809Y-47073809D01*
X122697619Y-47111904D01*
X122621428Y-47111904D01*
X125135714Y-47992857D02*
X125021428Y-48030952D01*
X124983333Y-48069047D01*
X124945238Y-48145238D01*
X124945238Y-48259523D01*
X124983333Y-48335714D01*
X125021428Y-48373809D01*
X125097619Y-48411904D01*
X125402380Y-48411904D01*
X125402380Y-47611904D01*
X125135714Y-47611904D01*
X125059523Y-47650000D01*
X125021428Y-47688095D01*
X124983333Y-47764285D01*
X124983333Y-47840476D01*
X125021428Y-47916666D01*
X125059523Y-47954761D01*
X125135714Y-47992857D01*
X125402380Y-47992857D01*
X124259523Y-47878571D02*
X124259523Y-48411904D01*
X124602380Y-47878571D02*
X124602380Y-48297619D01*
X124564285Y-48373809D01*
X124488095Y-48411904D01*
X124373809Y-48411904D01*
X124297619Y-48373809D01*
X124259523Y-48335714D01*
X123992857Y-47878571D02*
X123688095Y-47878571D01*
X123878571Y-47611904D02*
X123878571Y-48297619D01*
X123840476Y-48373809D01*
X123764285Y-48411904D01*
X123688095Y-48411904D01*
X123535714Y-47878571D02*
X123230952Y-47878571D01*
X123421428Y-47611904D02*
X123421428Y-48297619D01*
X123383333Y-48373809D01*
X123307142Y-48411904D01*
X123230952Y-48411904D01*
X122850000Y-48411904D02*
X122926190Y-48373809D01*
X122964285Y-48335714D01*
X123002380Y-48259523D01*
X123002380Y-48030952D01*
X122964285Y-47954761D01*
X122926190Y-47916666D01*
X122850000Y-47878571D01*
X122735714Y-47878571D01*
X122659523Y-47916666D01*
X122621428Y-47954761D01*
X122583333Y-48030952D01*
X122583333Y-48259523D01*
X122621428Y-48335714D01*
X122659523Y-48373809D01*
X122735714Y-48411904D01*
X122850000Y-48411904D01*
X122240476Y-47878571D02*
X122240476Y-48411904D01*
X122240476Y-47954761D02*
X122202380Y-47916666D01*
X122126190Y-47878571D01*
X122011904Y-47878571D01*
X121935714Y-47916666D01*
X121897619Y-47992857D01*
X121897619Y-48411904D01*
D11*
X124950000Y-50000000D02*
X124950000Y-49400000D01*
X122450000Y-49400000D02*
X124950000Y-49400000D01*
X122450000Y-49400000D02*
X122450000Y-50000000D01*
X119850000Y-50000000D02*
X119850000Y-49400000D01*
X117350000Y-49400000D02*
X119850000Y-49400000D01*
X117350000Y-49400000D02*
X117350000Y-50000000D01*
X114950000Y-50000000D02*
X114950000Y-49400000D01*
X112450000Y-49400000D02*
X114950000Y-49400000D01*
X112450000Y-49400000D02*
X112450000Y-50000000D01*
D12*
X157930952Y-47761904D02*
X157930952Y-46961904D01*
X157626190Y-46961904D01*
X157550000Y-47000000D01*
X157511904Y-47038095D01*
X157473809Y-47114285D01*
X157473809Y-47228571D01*
X157511904Y-47304761D01*
X157550000Y-47342857D01*
X157626190Y-47380952D01*
X157930952Y-47380952D01*
X157016666Y-47761904D02*
X157092857Y-47723809D01*
X157130952Y-47685714D01*
X157169047Y-47609523D01*
X157169047Y-47380952D01*
X157130952Y-47304761D01*
X157092857Y-47266666D01*
X157016666Y-47228571D01*
X156902380Y-47228571D01*
X156826190Y-47266666D01*
X156788095Y-47304761D01*
X156750000Y-47380952D01*
X156750000Y-47609523D01*
X156788095Y-47685714D01*
X156826190Y-47723809D01*
X156902380Y-47761904D01*
X157016666Y-47761904D01*
X156483333Y-47228571D02*
X156330952Y-47761904D01*
X156178571Y-47380952D01*
X156026190Y-47761904D01*
X155873809Y-47228571D01*
X155264285Y-47723809D02*
X155340476Y-47761904D01*
X155492857Y-47761904D01*
X155569047Y-47723809D01*
X155607142Y-47647619D01*
X155607142Y-47342857D01*
X155569047Y-47266666D01*
X155492857Y-47228571D01*
X155340476Y-47228571D01*
X155264285Y-47266666D01*
X155226190Y-47342857D01*
X155226190Y-47419047D01*
X155607142Y-47495238D01*
X154883333Y-47761904D02*
X154883333Y-47228571D01*
X154883333Y-47380952D02*
X154845238Y-47304761D01*
X154807142Y-47266666D01*
X154730952Y-47228571D01*
X154654761Y-47228571D01*
D11*
X151350000Y-56600000D02*
X151350000Y-53800000D01*
X152950000Y-56600000D02*
X151350000Y-56600000D01*
X152950000Y-53800000D02*
X152950000Y-56600000D01*
X151350000Y-53800000D02*
X152950000Y-53800000D01*
D12*
X146330952Y-47111904D02*
X146711904Y-47111904D01*
X146711904Y-46311904D01*
X145950000Y-47111904D02*
X146026190Y-47073809D01*
X146064285Y-47035714D01*
X146102380Y-46959523D01*
X146102380Y-46730952D01*
X146064285Y-46654761D01*
X146026190Y-46616666D01*
X145950000Y-46578571D01*
X145835714Y-46578571D01*
X145759523Y-46616666D01*
X145721428Y-46654761D01*
X145683333Y-46730952D01*
X145683333Y-46959523D01*
X145721428Y-47035714D01*
X145759523Y-47073809D01*
X145835714Y-47111904D01*
X145950000Y-47111904D01*
X144997619Y-47073809D02*
X145073809Y-47111904D01*
X145226190Y-47111904D01*
X145302380Y-47073809D01*
X145340476Y-47035714D01*
X145378571Y-46959523D01*
X145378571Y-46730952D01*
X145340476Y-46654761D01*
X145302380Y-46616666D01*
X145226190Y-46578571D01*
X145073809Y-46578571D01*
X144997619Y-46616666D01*
X144654761Y-47111904D02*
X144654761Y-46311904D01*
X144578571Y-46807142D02*
X144350000Y-47111904D01*
X144350000Y-46578571D02*
X144654761Y-46883333D01*
X146521428Y-48411904D02*
X146788095Y-48030952D01*
X146978571Y-48411904D02*
X146978571Y-47611904D01*
X146673809Y-47611904D01*
X146597619Y-47650000D01*
X146559523Y-47688095D01*
X146521428Y-47764285D01*
X146521428Y-47878571D01*
X146559523Y-47954761D01*
X146597619Y-47992857D01*
X146673809Y-48030952D01*
X146978571Y-48030952D01*
X145873809Y-48373809D02*
X145950000Y-48411904D01*
X146102380Y-48411904D01*
X146178571Y-48373809D01*
X146216666Y-48297619D01*
X146216666Y-47992857D01*
X146178571Y-47916666D01*
X146102380Y-47878571D01*
X145950000Y-47878571D01*
X145873809Y-47916666D01*
X145835714Y-47992857D01*
X145835714Y-48069047D01*
X146216666Y-48145238D01*
X145378571Y-48411904D02*
X145454761Y-48373809D01*
X145492857Y-48297619D01*
X145492857Y-47611904D01*
X144730952Y-48411904D02*
X144730952Y-47992857D01*
X144769047Y-47916666D01*
X144845238Y-47878571D01*
X144997619Y-47878571D01*
X145073809Y-47916666D01*
X144730952Y-48373809D02*
X144807142Y-48411904D01*
X144997619Y-48411904D01*
X145073809Y-48373809D01*
X145111904Y-48297619D01*
X145111904Y-48221428D01*
X145073809Y-48145238D01*
X144997619Y-48107142D01*
X144807142Y-48107142D01*
X144730952Y-48069047D01*
X144426190Y-47878571D02*
X144235714Y-48411904D01*
X144045238Y-47878571D02*
X144235714Y-48411904D01*
X144311904Y-48602380D01*
X144350000Y-48640476D01*
X144426190Y-48678571D01*
D11*
X144250000Y-49400000D02*
X144250000Y-50000000D01*
X144250000Y-49400000D02*
X146750000Y-49400000D01*
X146750000Y-50000000D02*
X146750000Y-49400000D01*
D13*
X141359523Y-68559523D02*
X141073809Y-68654761D01*
X140597619Y-68654761D01*
X140407142Y-68559523D01*
X140311904Y-68464285D01*
X140216666Y-68273809D01*
X140216666Y-68083333D01*
X140311904Y-67892857D01*
X140407142Y-67797619D01*
X140597619Y-67702380D01*
X140978571Y-67607142D01*
X141169047Y-67511904D01*
X141264285Y-67416666D01*
X141359523Y-67226190D01*
X141359523Y-67035714D01*
X141264285Y-66845238D01*
X141169047Y-66750000D01*
X140978571Y-66654761D01*
X140502380Y-66654761D01*
X140216666Y-66750000D01*
X139073809Y-68654761D02*
X139264285Y-68559523D01*
X139359523Y-68464285D01*
X139454761Y-68273809D01*
X139454761Y-67702380D01*
X139359523Y-67511904D01*
X139264285Y-67416666D01*
X139073809Y-67321428D01*
X138788095Y-67321428D01*
X138597619Y-67416666D01*
X138502380Y-67511904D01*
X138407142Y-67702380D01*
X138407142Y-68273809D01*
X138502380Y-68464285D01*
X138597619Y-68559523D01*
X138788095Y-68654761D01*
X139073809Y-68654761D01*
X137264285Y-68654761D02*
X137454761Y-68559523D01*
X137550000Y-68369047D01*
X137550000Y-66654761D01*
X135645238Y-68654761D02*
X135645238Y-67607142D01*
X135740476Y-67416666D01*
X135930952Y-67321428D01*
X136311904Y-67321428D01*
X136502380Y-67416666D01*
X135645238Y-68559523D02*
X135835714Y-68654761D01*
X136311904Y-68654761D01*
X136502380Y-68559523D01*
X136597619Y-68369047D01*
X136597619Y-68178571D01*
X136502380Y-67988095D01*
X136311904Y-67892857D01*
X135835714Y-67892857D01*
X135645238Y-67797619D01*
X134692857Y-68654761D02*
X134692857Y-67321428D01*
X134692857Y-67702380D02*
X134597619Y-67511904D01*
X134502380Y-67416666D01*
X134311904Y-67321428D01*
X134121428Y-67321428D01*
X133550000Y-68559523D02*
X133264285Y-68654761D01*
X132788095Y-68654761D01*
X132597619Y-68559523D01*
X132502380Y-68464285D01*
X132407142Y-68273809D01*
X132407142Y-68083333D01*
X132502380Y-67892857D01*
X132597619Y-67797619D01*
X132788095Y-67702380D01*
X133169047Y-67607142D01*
X133359523Y-67511904D01*
X133454761Y-67416666D01*
X133550000Y-67226190D01*
X133550000Y-67035714D01*
X133454761Y-66845238D01*
X133359523Y-66750000D01*
X133169047Y-66654761D01*
X132692857Y-66654761D01*
X132407142Y-66750000D01*
X131740476Y-67321428D02*
X131264285Y-68654761D01*
X130788095Y-67321428D02*
X131264285Y-68654761D01*
X131454761Y-69130952D01*
X131550000Y-69226190D01*
X131740476Y-69321428D01*
X130121428Y-68559523D02*
X129930952Y-68654761D01*
X129550000Y-68654761D01*
X129359523Y-68559523D01*
X129264285Y-68369047D01*
X129264285Y-68273809D01*
X129359523Y-68083333D01*
X129550000Y-67988095D01*
X129835714Y-67988095D01*
X130026190Y-67892857D01*
X130121428Y-67702380D01*
X130121428Y-67607142D01*
X130026190Y-67416666D01*
X129835714Y-67321428D01*
X129550000Y-67321428D01*
X129359523Y-67416666D01*
X128692857Y-67321428D02*
X127930952Y-67321428D01*
X128407142Y-66654761D02*
X128407142Y-68369047D01*
X128311904Y-68559523D01*
X128121428Y-68654761D01*
X127930952Y-68654761D01*
X126502380Y-68559523D02*
X126692857Y-68654761D01*
X127073809Y-68654761D01*
X127264285Y-68559523D01*
X127359523Y-68369047D01*
X127359523Y-67607142D01*
X127264285Y-67416666D01*
X127073809Y-67321428D01*
X126692857Y-67321428D01*
X126502380Y-67416666D01*
X126407142Y-67607142D01*
X126407142Y-67797619D01*
X127359523Y-67988095D01*
X125550000Y-68654761D02*
X125550000Y-67321428D01*
X125550000Y-67511904D02*
X125454761Y-67416666D01*
X125264285Y-67321428D01*
X124978571Y-67321428D01*
X124788095Y-67416666D01*
X124692857Y-67607142D01*
X124692857Y-68654761D01*
X124692857Y-67607142D02*
X124597619Y-67416666D01*
X124407142Y-67321428D01*
X124121428Y-67321428D01*
X123930952Y-67416666D01*
X123835714Y-67607142D01*
X123835714Y-68654761D01*
X141692857Y-71954761D02*
X141692857Y-69954761D01*
X141216666Y-69954761D01*
X140930952Y-70050000D01*
X140740476Y-70240476D01*
X140645238Y-70430952D01*
X140550000Y-70811904D01*
X140550000Y-71097619D01*
X140645238Y-71478571D01*
X140740476Y-71669047D01*
X140930952Y-71859523D01*
X141216666Y-71954761D01*
X141692857Y-71954761D01*
X139407142Y-71954761D02*
X139597619Y-71859523D01*
X139692857Y-71764285D01*
X139788095Y-71573809D01*
X139788095Y-71002380D01*
X139692857Y-70811904D01*
X139597619Y-70716666D01*
X139407142Y-70621428D01*
X139121428Y-70621428D01*
X138930952Y-70716666D01*
X138835714Y-70811904D01*
X138740476Y-71002380D01*
X138740476Y-71573809D01*
X138835714Y-71764285D01*
X138930952Y-71859523D01*
X139121428Y-71954761D01*
X139407142Y-71954761D01*
X137597619Y-71954761D02*
X137788095Y-71859523D01*
X137883333Y-71764285D01*
X137978571Y-71573809D01*
X137978571Y-71002380D01*
X137883333Y-70811904D01*
X137788095Y-70716666D01*
X137597619Y-70621428D01*
X137311904Y-70621428D01*
X137121428Y-70716666D01*
X137026190Y-70811904D01*
X136930952Y-71002380D01*
X136930952Y-71573809D01*
X137026190Y-71764285D01*
X137121428Y-71859523D01*
X137311904Y-71954761D01*
X137597619Y-71954761D01*
X136073809Y-71954761D02*
X136073809Y-70621428D01*
X136073809Y-71002380D02*
X135978571Y-70811904D01*
X135883333Y-70716666D01*
X135692857Y-70621428D01*
X135502380Y-70621428D01*
X132169047Y-71764285D02*
X132264285Y-71859523D01*
X132550000Y-71954761D01*
X132740476Y-71954761D01*
X133026190Y-71859523D01*
X133216666Y-71669047D01*
X133311904Y-71478571D01*
X133407142Y-71097619D01*
X133407142Y-70811904D01*
X133311904Y-70430952D01*
X133216666Y-70240476D01*
X133026190Y-70050000D01*
X132740476Y-69954761D01*
X132550000Y-69954761D01*
X132264285Y-70050000D01*
X132169047Y-70145238D01*
X131026190Y-71954761D02*
X131216666Y-71859523D01*
X131311904Y-71764285D01*
X131407142Y-71573809D01*
X131407142Y-71002380D01*
X131311904Y-70811904D01*
X131216666Y-70716666D01*
X131026190Y-70621428D01*
X130740476Y-70621428D01*
X130550000Y-70716666D01*
X130454761Y-70811904D01*
X130359523Y-71002380D01*
X130359523Y-71573809D01*
X130454761Y-71764285D01*
X130550000Y-71859523D01*
X130740476Y-71954761D01*
X131026190Y-71954761D01*
X129502380Y-70621428D02*
X129502380Y-71954761D01*
X129502380Y-70811904D02*
X129407142Y-70716666D01*
X129216666Y-70621428D01*
X128930952Y-70621428D01*
X128740476Y-70716666D01*
X128645238Y-70907142D01*
X128645238Y-71954761D01*
X127978571Y-70621428D02*
X127216666Y-70621428D01*
X127692857Y-69954761D02*
X127692857Y-71669047D01*
X127597619Y-71859523D01*
X127407142Y-71954761D01*
X127216666Y-71954761D01*
X126550000Y-71954761D02*
X126550000Y-70621428D01*
X126550000Y-71002380D02*
X126454761Y-70811904D01*
X126359523Y-70716666D01*
X126169047Y-70621428D01*
X125978571Y-70621428D01*
X125026190Y-71954761D02*
X125216666Y-71859523D01*
X125311904Y-71764285D01*
X125407142Y-71573809D01*
X125407142Y-71002380D01*
X125311904Y-70811904D01*
X125216666Y-70716666D01*
X125026190Y-70621428D01*
X124740476Y-70621428D01*
X124550000Y-70716666D01*
X124454761Y-70811904D01*
X124359523Y-71002380D01*
X124359523Y-71573809D01*
X124454761Y-71764285D01*
X124550000Y-71859523D01*
X124740476Y-71954761D01*
X125026190Y-71954761D01*
X123216666Y-71954761D02*
X123407142Y-71859523D01*
X123502380Y-71669047D01*
X123502380Y-69954761D01*
D12*
X137983333Y-47761904D02*
X137983333Y-46961904D01*
X137526190Y-47761904D01*
X137526190Y-46961904D01*
X136878571Y-47342857D02*
X137145238Y-47342857D01*
X137145238Y-47761904D02*
X137145238Y-46961904D01*
X136764285Y-46961904D01*
X136002380Y-47685714D02*
X136040476Y-47723809D01*
X136154761Y-47761904D01*
X136230952Y-47761904D01*
X136345238Y-47723809D01*
X136421428Y-47647619D01*
X136459523Y-47571428D01*
X136497619Y-47419047D01*
X136497619Y-47304761D01*
X136459523Y-47152380D01*
X136421428Y-47076190D01*
X136345238Y-47000000D01*
X136230952Y-46961904D01*
X136154761Y-46961904D01*
X136040476Y-47000000D01*
X136002380Y-47038095D01*
X134592857Y-47761904D02*
X134859523Y-47380952D01*
X135050000Y-47761904D02*
X135050000Y-46961904D01*
X134745238Y-46961904D01*
X134669047Y-47000000D01*
X134630952Y-47038095D01*
X134592857Y-47114285D01*
X134592857Y-47228571D01*
X134630952Y-47304761D01*
X134669047Y-47342857D01*
X134745238Y-47380952D01*
X135050000Y-47380952D01*
X133945238Y-47723809D02*
X134021428Y-47761904D01*
X134173809Y-47761904D01*
X134250000Y-47723809D01*
X134288095Y-47647619D01*
X134288095Y-47342857D01*
X134250000Y-47266666D01*
X134173809Y-47228571D01*
X134021428Y-47228571D01*
X133945238Y-47266666D01*
X133907142Y-47342857D01*
X133907142Y-47419047D01*
X134288095Y-47495238D01*
X133221428Y-47761904D02*
X133221428Y-47342857D01*
X133259523Y-47266666D01*
X133335714Y-47228571D01*
X133488095Y-47228571D01*
X133564285Y-47266666D01*
X133221428Y-47723809D02*
X133297619Y-47761904D01*
X133488095Y-47761904D01*
X133564285Y-47723809D01*
X133602380Y-47647619D01*
X133602380Y-47571428D01*
X133564285Y-47495238D01*
X133488095Y-47457142D01*
X133297619Y-47457142D01*
X133221428Y-47419047D01*
X132497619Y-47761904D02*
X132497619Y-46961904D01*
X132497619Y-47723809D02*
X132573809Y-47761904D01*
X132726190Y-47761904D01*
X132802380Y-47723809D01*
X132840476Y-47685714D01*
X132878571Y-47609523D01*
X132878571Y-47380952D01*
X132840476Y-47304761D01*
X132802380Y-47266666D01*
X132726190Y-47228571D01*
X132573809Y-47228571D01*
X132497619Y-47266666D01*
X131811904Y-47723809D02*
X131888095Y-47761904D01*
X132040476Y-47761904D01*
X132116666Y-47723809D01*
X132154761Y-47647619D01*
X132154761Y-47342857D01*
X132116666Y-47266666D01*
X132040476Y-47228571D01*
X131888095Y-47228571D01*
X131811904Y-47266666D01*
X131773809Y-47342857D01*
X131773809Y-47419047D01*
X132154761Y-47495238D01*
X131430952Y-47761904D02*
X131430952Y-47228571D01*
X131430952Y-47380952D02*
X131392857Y-47304761D01*
X131354761Y-47266666D01*
X131278571Y-47228571D01*
X131202380Y-47228571D01*
D11*
X130635714Y-49780952D02*
X130921428Y-49019047D01*
X131207142Y-49780952D01*
X133135714Y-49019047D02*
X133421428Y-49780952D01*
X133707142Y-49019047D01*
X135469047Y-49328571D02*
X136230952Y-49328571D01*
X135850000Y-48947619D02*
X135850000Y-49709523D01*
X137969047Y-49328571D02*
X138730952Y-49328571D01*
X148869047Y-49328571D02*
X149630952Y-49328571D01*
X157269047Y-49328571D02*
X158030952Y-49328571D01*
X155221428Y-49019047D02*
X155221428Y-49780952D01*
X155602380Y-49400000D02*
X154840476Y-49400000D01*
D14*
%TO.C,R11*%
X146972500Y-70554724D02*
X146972500Y-70045276D01*
X145927500Y-70554724D02*
X145927500Y-70045276D01*
%TO.C,R9*%
X151772500Y-70554724D02*
X151772500Y-70045276D01*
X150727500Y-70554724D02*
X150727500Y-70045276D01*
%TO.C,R8*%
X153127500Y-70045276D02*
X153127500Y-70554724D01*
X154172500Y-70045276D02*
X154172500Y-70554724D01*
%TO.C,R7*%
X155527500Y-70045276D02*
X155527500Y-70554724D01*
X156572500Y-70045276D02*
X156572500Y-70554724D01*
%TO.C,R6*%
X157004724Y-57377500D02*
X156495276Y-57377500D01*
X157004724Y-58422500D02*
X156495276Y-58422500D01*
%TO.C,R5*%
X156495276Y-60722500D02*
X157004724Y-60722500D01*
X156495276Y-59677500D02*
X157004724Y-59677500D01*
%TO.C,R4*%
X147304724Y-56377500D02*
X146795276Y-56377500D01*
X147304724Y-57422500D02*
X146795276Y-57422500D01*
%TO.C,R3*%
X120295276Y-57422500D02*
X120804724Y-57422500D01*
X120295276Y-56377500D02*
X120804724Y-56377500D01*
%TO.C,R2*%
X129295276Y-57422500D02*
X129804724Y-57422500D01*
X129295276Y-56377500D02*
X129804724Y-56377500D01*
%TO.C,R1*%
X138295276Y-57422500D02*
X138804724Y-57422500D01*
X138295276Y-56377500D02*
X138804724Y-56377500D01*
%TO.C,D1*%
X149585000Y-69500000D02*
X149585000Y-71960000D01*
X149585000Y-71960000D02*
X148115000Y-71960000D01*
X148115000Y-71960000D02*
X148115000Y-69500000D01*
%TO.C,R10*%
X150372500Y-74432776D02*
X150372500Y-74942224D01*
X149327500Y-74432776D02*
X149327500Y-74942224D01*
%TO.C,Q1*%
X153930000Y-75460000D02*
X153930000Y-74000000D01*
X150770000Y-75460000D02*
X150770000Y-73300000D01*
X150770000Y-75460000D02*
X151700000Y-75460000D01*
X153930000Y-75460000D02*
X153000000Y-75460000D01*
%TO.C,R11*%
D12*
X146771428Y-68126190D02*
X146938095Y-67888095D01*
X147057142Y-68126190D02*
X147057142Y-67626190D01*
X146866666Y-67626190D01*
X146819047Y-67650000D01*
X146795238Y-67673809D01*
X146771428Y-67721428D01*
X146771428Y-67792857D01*
X146795238Y-67840476D01*
X146819047Y-67864285D01*
X146866666Y-67888095D01*
X147057142Y-67888095D01*
X146295238Y-68126190D02*
X146580952Y-68126190D01*
X146438095Y-68126190D02*
X146438095Y-67626190D01*
X146485714Y-67697619D01*
X146533333Y-67745238D01*
X146580952Y-67769047D01*
X145819047Y-68126190D02*
X146104761Y-68126190D01*
X145961904Y-68126190D02*
X145961904Y-67626190D01*
X146009523Y-67697619D01*
X146057142Y-67745238D01*
X146104761Y-67769047D01*
%TO.C,R9*%
X151333333Y-68126190D02*
X151500000Y-67888095D01*
X151619047Y-68126190D02*
X151619047Y-67626190D01*
X151428571Y-67626190D01*
X151380952Y-67650000D01*
X151357142Y-67673809D01*
X151333333Y-67721428D01*
X151333333Y-67792857D01*
X151357142Y-67840476D01*
X151380952Y-67864285D01*
X151428571Y-67888095D01*
X151619047Y-67888095D01*
X151095238Y-68126190D02*
X151000000Y-68126190D01*
X150952380Y-68102380D01*
X150928571Y-68078571D01*
X150880952Y-68007142D01*
X150857142Y-67911904D01*
X150857142Y-67721428D01*
X150880952Y-67673809D01*
X150904761Y-67650000D01*
X150952380Y-67626190D01*
X151047619Y-67626190D01*
X151095238Y-67650000D01*
X151119047Y-67673809D01*
X151142857Y-67721428D01*
X151142857Y-67840476D01*
X151119047Y-67888095D01*
X151095238Y-67911904D01*
X151047619Y-67935714D01*
X150952380Y-67935714D01*
X150904761Y-67911904D01*
X150880952Y-67888095D01*
X150857142Y-67840476D01*
%TO.C,R8*%
X153733333Y-68126190D02*
X153900000Y-67888095D01*
X154019047Y-68126190D02*
X154019047Y-67626190D01*
X153828571Y-67626190D01*
X153780952Y-67650000D01*
X153757142Y-67673809D01*
X153733333Y-67721428D01*
X153733333Y-67792857D01*
X153757142Y-67840476D01*
X153780952Y-67864285D01*
X153828571Y-67888095D01*
X154019047Y-67888095D01*
X153447619Y-67840476D02*
X153495238Y-67816666D01*
X153519047Y-67792857D01*
X153542857Y-67745238D01*
X153542857Y-67721428D01*
X153519047Y-67673809D01*
X153495238Y-67650000D01*
X153447619Y-67626190D01*
X153352380Y-67626190D01*
X153304761Y-67650000D01*
X153280952Y-67673809D01*
X153257142Y-67721428D01*
X153257142Y-67745238D01*
X153280952Y-67792857D01*
X153304761Y-67816666D01*
X153352380Y-67840476D01*
X153447619Y-67840476D01*
X153495238Y-67864285D01*
X153519047Y-67888095D01*
X153542857Y-67935714D01*
X153542857Y-68030952D01*
X153519047Y-68078571D01*
X153495238Y-68102380D01*
X153447619Y-68126190D01*
X153352380Y-68126190D01*
X153304761Y-68102380D01*
X153280952Y-68078571D01*
X153257142Y-68030952D01*
X153257142Y-67935714D01*
X153280952Y-67888095D01*
X153304761Y-67864285D01*
X153352380Y-67840476D01*
%TO.C,R7*%
X156133333Y-68126190D02*
X156300000Y-67888095D01*
X156419047Y-68126190D02*
X156419047Y-67626190D01*
X156228571Y-67626190D01*
X156180952Y-67650000D01*
X156157142Y-67673809D01*
X156133333Y-67721428D01*
X156133333Y-67792857D01*
X156157142Y-67840476D01*
X156180952Y-67864285D01*
X156228571Y-67888095D01*
X156419047Y-67888095D01*
X155966666Y-67626190D02*
X155633333Y-67626190D01*
X155847619Y-68126190D01*
%TO.C,R6*%
X156833333Y-56876190D02*
X157000000Y-56638095D01*
X157119047Y-56876190D02*
X157119047Y-56376190D01*
X156928571Y-56376190D01*
X156880952Y-56400000D01*
X156857142Y-56423809D01*
X156833333Y-56471428D01*
X156833333Y-56542857D01*
X156857142Y-56590476D01*
X156880952Y-56614285D01*
X156928571Y-56638095D01*
X157119047Y-56638095D01*
X156404761Y-56376190D02*
X156500000Y-56376190D01*
X156547619Y-56400000D01*
X156571428Y-56423809D01*
X156619047Y-56495238D01*
X156642857Y-56590476D01*
X156642857Y-56780952D01*
X156619047Y-56828571D01*
X156595238Y-56852380D01*
X156547619Y-56876190D01*
X156452380Y-56876190D01*
X156404761Y-56852380D01*
X156380952Y-56828571D01*
X156357142Y-56780952D01*
X156357142Y-56661904D01*
X156380952Y-56614285D01*
X156404761Y-56590476D01*
X156452380Y-56566666D01*
X156547619Y-56566666D01*
X156595238Y-56590476D01*
X156619047Y-56614285D01*
X156642857Y-56661904D01*
%TO.C,R5*%
X156833333Y-61676190D02*
X157000000Y-61438095D01*
X157119047Y-61676190D02*
X157119047Y-61176190D01*
X156928571Y-61176190D01*
X156880952Y-61200000D01*
X156857142Y-61223809D01*
X156833333Y-61271428D01*
X156833333Y-61342857D01*
X156857142Y-61390476D01*
X156880952Y-61414285D01*
X156928571Y-61438095D01*
X157119047Y-61438095D01*
X156380952Y-61176190D02*
X156619047Y-61176190D01*
X156642857Y-61414285D01*
X156619047Y-61390476D01*
X156571428Y-61366666D01*
X156452380Y-61366666D01*
X156404761Y-61390476D01*
X156380952Y-61414285D01*
X156357142Y-61461904D01*
X156357142Y-61580952D01*
X156380952Y-61628571D01*
X156404761Y-61652380D01*
X156452380Y-61676190D01*
X156571428Y-61676190D01*
X156619047Y-61652380D01*
X156642857Y-61628571D01*
%TO.C,R4*%
X147133333Y-58426190D02*
X147300000Y-58188095D01*
X147419047Y-58426190D02*
X147419047Y-57926190D01*
X147228571Y-57926190D01*
X147180952Y-57950000D01*
X147157142Y-57973809D01*
X147133333Y-58021428D01*
X147133333Y-58092857D01*
X147157142Y-58140476D01*
X147180952Y-58164285D01*
X147228571Y-58188095D01*
X147419047Y-58188095D01*
X146704761Y-58092857D02*
X146704761Y-58426190D01*
X146823809Y-57902380D02*
X146942857Y-58259523D01*
X146633333Y-58259523D01*
%TO.C,R3*%
X120633333Y-58376190D02*
X120800000Y-58138095D01*
X120919047Y-58376190D02*
X120919047Y-57876190D01*
X120728571Y-57876190D01*
X120680952Y-57900000D01*
X120657142Y-57923809D01*
X120633333Y-57971428D01*
X120633333Y-58042857D01*
X120657142Y-58090476D01*
X120680952Y-58114285D01*
X120728571Y-58138095D01*
X120919047Y-58138095D01*
X120466666Y-57876190D02*
X120157142Y-57876190D01*
X120323809Y-58066666D01*
X120252380Y-58066666D01*
X120204761Y-58090476D01*
X120180952Y-58114285D01*
X120157142Y-58161904D01*
X120157142Y-58280952D01*
X120180952Y-58328571D01*
X120204761Y-58352380D01*
X120252380Y-58376190D01*
X120395238Y-58376190D01*
X120442857Y-58352380D01*
X120466666Y-58328571D01*
%TO.C,R2*%
X129633333Y-58376190D02*
X129800000Y-58138095D01*
X129919047Y-58376190D02*
X129919047Y-57876190D01*
X129728571Y-57876190D01*
X129680952Y-57900000D01*
X129657142Y-57923809D01*
X129633333Y-57971428D01*
X129633333Y-58042857D01*
X129657142Y-58090476D01*
X129680952Y-58114285D01*
X129728571Y-58138095D01*
X129919047Y-58138095D01*
X129442857Y-57923809D02*
X129419047Y-57900000D01*
X129371428Y-57876190D01*
X129252380Y-57876190D01*
X129204761Y-57900000D01*
X129180952Y-57923809D01*
X129157142Y-57971428D01*
X129157142Y-58019047D01*
X129180952Y-58090476D01*
X129466666Y-58376190D01*
X129157142Y-58376190D01*
%TO.C,R1*%
X138633333Y-58376190D02*
X138800000Y-58138095D01*
X138919047Y-58376190D02*
X138919047Y-57876190D01*
X138728571Y-57876190D01*
X138680952Y-57900000D01*
X138657142Y-57923809D01*
X138633333Y-57971428D01*
X138633333Y-58042857D01*
X138657142Y-58090476D01*
X138680952Y-58114285D01*
X138728571Y-58138095D01*
X138919047Y-58138095D01*
X138157142Y-58376190D02*
X138442857Y-58376190D01*
X138300000Y-58376190D02*
X138300000Y-57876190D01*
X138347619Y-57947619D01*
X138395238Y-57995238D01*
X138442857Y-58019047D01*
%TO.C,D1*%
X149219047Y-68126190D02*
X149219047Y-67626190D01*
X149100000Y-67626190D01*
X149028571Y-67650000D01*
X148980952Y-67697619D01*
X148957142Y-67745238D01*
X148933333Y-67840476D01*
X148933333Y-67911904D01*
X148957142Y-68007142D01*
X148980952Y-68054761D01*
X149028571Y-68102380D01*
X149100000Y-68126190D01*
X149219047Y-68126190D01*
X148457142Y-68126190D02*
X148742857Y-68126190D01*
X148600000Y-68126190D02*
X148600000Y-67626190D01*
X148647619Y-67697619D01*
X148695238Y-67745238D01*
X148742857Y-67769047D01*
%TO.C,R10*%
X150171428Y-77026190D02*
X150338095Y-76788095D01*
X150457142Y-77026190D02*
X150457142Y-76526190D01*
X150266666Y-76526190D01*
X150219047Y-76550000D01*
X150195238Y-76573809D01*
X150171428Y-76621428D01*
X150171428Y-76692857D01*
X150195238Y-76740476D01*
X150219047Y-76764285D01*
X150266666Y-76788095D01*
X150457142Y-76788095D01*
X149695238Y-77026190D02*
X149980952Y-77026190D01*
X149838095Y-77026190D02*
X149838095Y-76526190D01*
X149885714Y-76597619D01*
X149933333Y-76645238D01*
X149980952Y-76669047D01*
X149385714Y-76526190D02*
X149338095Y-76526190D01*
X149290476Y-76550000D01*
X149266666Y-76573809D01*
X149242857Y-76621428D01*
X149219047Y-76716666D01*
X149219047Y-76835714D01*
X149242857Y-76930952D01*
X149266666Y-76978571D01*
X149290476Y-77002380D01*
X149338095Y-77026190D01*
X149385714Y-77026190D01*
X149433333Y-77002380D01*
X149457142Y-76978571D01*
X149480952Y-76930952D01*
X149504761Y-76835714D01*
X149504761Y-76716666D01*
X149480952Y-76621428D01*
X149457142Y-76573809D01*
X149433333Y-76550000D01*
X149385714Y-76526190D01*
%TO.C,JP1*%
D11*
X151602380Y-57266666D02*
X152316666Y-57266666D01*
X152459523Y-57219047D01*
X152554761Y-57123809D01*
X152602380Y-56980952D01*
X152602380Y-56885714D01*
X152602380Y-57742857D02*
X151602380Y-57742857D01*
X151602380Y-58123809D01*
X151650000Y-58219047D01*
X151697619Y-58266666D01*
X151792857Y-58314285D01*
X151935714Y-58314285D01*
X152030952Y-58266666D01*
X152078571Y-58219047D01*
X152126190Y-58123809D01*
X152126190Y-57742857D01*
X152602380Y-59266666D02*
X152602380Y-58695238D01*
X152602380Y-58980952D02*
X151602380Y-58980952D01*
X151745238Y-58885714D01*
X151840476Y-58790476D01*
X151888095Y-58695238D01*
%TO.C,Q1*%
X155697619Y-74204761D02*
X155650000Y-74109523D01*
X155554761Y-74014285D01*
X155411904Y-73871428D01*
X155364285Y-73776190D01*
X155364285Y-73680952D01*
X155602380Y-73728571D02*
X155554761Y-73633333D01*
X155459523Y-73538095D01*
X155269047Y-73490476D01*
X154935714Y-73490476D01*
X154745238Y-73538095D01*
X154650000Y-73633333D01*
X154602380Y-73728571D01*
X154602380Y-73919047D01*
X154650000Y-74014285D01*
X154745238Y-74109523D01*
X154935714Y-74157142D01*
X155269047Y-74157142D01*
X155459523Y-74109523D01*
X155554761Y-74014285D01*
X155602380Y-73919047D01*
X155602380Y-73728571D01*
X155602380Y-75109523D02*
X155602380Y-74538095D01*
X155602380Y-74823809D02*
X154602380Y-74823809D01*
X154745238Y-74728571D01*
X154840476Y-74633333D01*
X154888095Y-74538095D01*
%TD*%
M02*
