%TF.GenerationSoftware,KiCad,Pcbnew,(5.1.9-0-10_14)*%
%TF.CreationDate,2021-05-02T10:40:19+01:00*%
%TF.ProjectId,Access,41636365-7373-42e6-9b69-6361645f7063,1*%
%TF.SameCoordinates,Original*%
%TF.FileFunction,Paste,Bot*%
%TF.FilePolarity,Positive*%
%FSLAX46Y46*%
G04 Gerber Fmt 4.6, Leading zero omitted, Abs format (unit mm)*
G04 Created by KiCad (PCBNEW (5.1.9-0-10_14)) date 2021-05-02 10:40:19*
%MOMM*%
%LPD*%
G01*
G04 APERTURE LIST*
%ADD10R,0.800000X0.900000*%
G04 APERTURE END LIST*
%TO.C,R10*%
G36*
G01*
X149612500Y-75112500D02*
X150087500Y-75112500D01*
G75*
G02*
X150325000Y-75350000I0J-237500D01*
G01*
X150325000Y-75850000D01*
G75*
G02*
X150087500Y-76087500I-237500J0D01*
G01*
X149612500Y-76087500D01*
G75*
G02*
X149375000Y-75850000I0J237500D01*
G01*
X149375000Y-75350000D01*
G75*
G02*
X149612500Y-75112500I237500J0D01*
G01*
G37*
G36*
G01*
X149612500Y-73287500D02*
X150087500Y-73287500D01*
G75*
G02*
X150325000Y-73525000I0J-237500D01*
G01*
X150325000Y-74025000D01*
G75*
G02*
X150087500Y-74262500I-237500J0D01*
G01*
X149612500Y-74262500D01*
G75*
G02*
X149375000Y-74025000I0J237500D01*
G01*
X149375000Y-73525000D01*
G75*
G02*
X149612500Y-73287500I237500J0D01*
G01*
G37*
%TD*%
%TO.C,D1*%
G36*
G01*
X149475000Y-69525000D02*
X148225000Y-69525000D01*
G75*
G02*
X147975000Y-69275000I0J250000D01*
G01*
X147975000Y-68350000D01*
G75*
G02*
X148225000Y-68100000I250000J0D01*
G01*
X149475000Y-68100000D01*
G75*
G02*
X149725000Y-68350000I0J-250000D01*
G01*
X149725000Y-69275000D01*
G75*
G02*
X149475000Y-69525000I-250000J0D01*
G01*
G37*
G36*
G01*
X149475000Y-72500000D02*
X148225000Y-72500000D01*
G75*
G02*
X147975000Y-72250000I0J250000D01*
G01*
X147975000Y-71325000D01*
G75*
G02*
X148225000Y-71075000I250000J0D01*
G01*
X149475000Y-71075000D01*
G75*
G02*
X149725000Y-71325000I0J-250000D01*
G01*
X149725000Y-72250000D01*
G75*
G02*
X149475000Y-72500000I-250000J0D01*
G01*
G37*
%TD*%
%TO.C,R11*%
G36*
G01*
X147075000Y-69400000D02*
X145825000Y-69400000D01*
G75*
G02*
X145575000Y-69150000I0J250000D01*
G01*
X145575000Y-68350000D01*
G75*
G02*
X145825000Y-68100000I250000J0D01*
G01*
X147075000Y-68100000D01*
G75*
G02*
X147325000Y-68350000I0J-250000D01*
G01*
X147325000Y-69150000D01*
G75*
G02*
X147075000Y-69400000I-250000J0D01*
G01*
G37*
G36*
G01*
X147075000Y-72500000D02*
X145825000Y-72500000D01*
G75*
G02*
X145575000Y-72250000I0J250000D01*
G01*
X145575000Y-71450000D01*
G75*
G02*
X145825000Y-71200000I250000J0D01*
G01*
X147075000Y-71200000D01*
G75*
G02*
X147325000Y-71450000I0J-250000D01*
G01*
X147325000Y-72250000D01*
G75*
G02*
X147075000Y-72500000I-250000J0D01*
G01*
G37*
%TD*%
%TO.C,R9*%
G36*
G01*
X151875000Y-69400000D02*
X150625000Y-69400000D01*
G75*
G02*
X150375000Y-69150000I0J250000D01*
G01*
X150375000Y-68350000D01*
G75*
G02*
X150625000Y-68100000I250000J0D01*
G01*
X151875000Y-68100000D01*
G75*
G02*
X152125000Y-68350000I0J-250000D01*
G01*
X152125000Y-69150000D01*
G75*
G02*
X151875000Y-69400000I-250000J0D01*
G01*
G37*
G36*
G01*
X151875000Y-72500000D02*
X150625000Y-72500000D01*
G75*
G02*
X150375000Y-72250000I0J250000D01*
G01*
X150375000Y-71450000D01*
G75*
G02*
X150625000Y-71200000I250000J0D01*
G01*
X151875000Y-71200000D01*
G75*
G02*
X152125000Y-71450000I0J-250000D01*
G01*
X152125000Y-72250000D01*
G75*
G02*
X151875000Y-72500000I-250000J0D01*
G01*
G37*
%TD*%
%TO.C,R8*%
G36*
G01*
X153025000Y-71200000D02*
X154275000Y-71200000D01*
G75*
G02*
X154525000Y-71450000I0J-250000D01*
G01*
X154525000Y-72250000D01*
G75*
G02*
X154275000Y-72500000I-250000J0D01*
G01*
X153025000Y-72500000D01*
G75*
G02*
X152775000Y-72250000I0J250000D01*
G01*
X152775000Y-71450000D01*
G75*
G02*
X153025000Y-71200000I250000J0D01*
G01*
G37*
G36*
G01*
X153025000Y-68100000D02*
X154275000Y-68100000D01*
G75*
G02*
X154525000Y-68350000I0J-250000D01*
G01*
X154525000Y-69150000D01*
G75*
G02*
X154275000Y-69400000I-250000J0D01*
G01*
X153025000Y-69400000D01*
G75*
G02*
X152775000Y-69150000I0J250000D01*
G01*
X152775000Y-68350000D01*
G75*
G02*
X153025000Y-68100000I250000J0D01*
G01*
G37*
%TD*%
%TO.C,R7*%
G36*
G01*
X155425000Y-71200000D02*
X156675000Y-71200000D01*
G75*
G02*
X156925000Y-71450000I0J-250000D01*
G01*
X156925000Y-72250000D01*
G75*
G02*
X156675000Y-72500000I-250000J0D01*
G01*
X155425000Y-72500000D01*
G75*
G02*
X155175000Y-72250000I0J250000D01*
G01*
X155175000Y-71450000D01*
G75*
G02*
X155425000Y-71200000I250000J0D01*
G01*
G37*
G36*
G01*
X155425000Y-68100000D02*
X156675000Y-68100000D01*
G75*
G02*
X156925000Y-68350000I0J-250000D01*
G01*
X156925000Y-69150000D01*
G75*
G02*
X156675000Y-69400000I-250000J0D01*
G01*
X155425000Y-69400000D01*
G75*
G02*
X155175000Y-69150000I0J250000D01*
G01*
X155175000Y-68350000D01*
G75*
G02*
X155425000Y-68100000I250000J0D01*
G01*
G37*
%TD*%
%TO.C,R4*%
G36*
G01*
X146150000Y-56275000D02*
X146150000Y-57525000D01*
G75*
G02*
X145900000Y-57775000I-250000J0D01*
G01*
X145100000Y-57775000D01*
G75*
G02*
X144850000Y-57525000I0J250000D01*
G01*
X144850000Y-56275000D01*
G75*
G02*
X145100000Y-56025000I250000J0D01*
G01*
X145900000Y-56025000D01*
G75*
G02*
X146150000Y-56275000I0J-250000D01*
G01*
G37*
G36*
G01*
X149250000Y-56275000D02*
X149250000Y-57525000D01*
G75*
G02*
X149000000Y-57775000I-250000J0D01*
G01*
X148200000Y-57775000D01*
G75*
G02*
X147950000Y-57525000I0J250000D01*
G01*
X147950000Y-56275000D01*
G75*
G02*
X148200000Y-56025000I250000J0D01*
G01*
X149000000Y-56025000D01*
G75*
G02*
X149250000Y-56275000I0J-250000D01*
G01*
G37*
%TD*%
%TO.C,R3*%
G36*
G01*
X121450000Y-57525000D02*
X121450000Y-56275000D01*
G75*
G02*
X121700000Y-56025000I250000J0D01*
G01*
X122500000Y-56025000D01*
G75*
G02*
X122750000Y-56275000I0J-250000D01*
G01*
X122750000Y-57525000D01*
G75*
G02*
X122500000Y-57775000I-250000J0D01*
G01*
X121700000Y-57775000D01*
G75*
G02*
X121450000Y-57525000I0J250000D01*
G01*
G37*
G36*
G01*
X118350000Y-57525000D02*
X118350000Y-56275000D01*
G75*
G02*
X118600000Y-56025000I250000J0D01*
G01*
X119400000Y-56025000D01*
G75*
G02*
X119650000Y-56275000I0J-250000D01*
G01*
X119650000Y-57525000D01*
G75*
G02*
X119400000Y-57775000I-250000J0D01*
G01*
X118600000Y-57775000D01*
G75*
G02*
X118350000Y-57525000I0J250000D01*
G01*
G37*
%TD*%
%TO.C,R2*%
G36*
G01*
X130450000Y-57525000D02*
X130450000Y-56275000D01*
G75*
G02*
X130700000Y-56025000I250000J0D01*
G01*
X131500000Y-56025000D01*
G75*
G02*
X131750000Y-56275000I0J-250000D01*
G01*
X131750000Y-57525000D01*
G75*
G02*
X131500000Y-57775000I-250000J0D01*
G01*
X130700000Y-57775000D01*
G75*
G02*
X130450000Y-57525000I0J250000D01*
G01*
G37*
G36*
G01*
X127350000Y-57525000D02*
X127350000Y-56275000D01*
G75*
G02*
X127600000Y-56025000I250000J0D01*
G01*
X128400000Y-56025000D01*
G75*
G02*
X128650000Y-56275000I0J-250000D01*
G01*
X128650000Y-57525000D01*
G75*
G02*
X128400000Y-57775000I-250000J0D01*
G01*
X127600000Y-57775000D01*
G75*
G02*
X127350000Y-57525000I0J250000D01*
G01*
G37*
%TD*%
%TO.C,R1*%
G36*
G01*
X139450000Y-57525000D02*
X139450000Y-56275000D01*
G75*
G02*
X139700000Y-56025000I250000J0D01*
G01*
X140500000Y-56025000D01*
G75*
G02*
X140750000Y-56275000I0J-250000D01*
G01*
X140750000Y-57525000D01*
G75*
G02*
X140500000Y-57775000I-250000J0D01*
G01*
X139700000Y-57775000D01*
G75*
G02*
X139450000Y-57525000I0J250000D01*
G01*
G37*
G36*
G01*
X136350000Y-57525000D02*
X136350000Y-56275000D01*
G75*
G02*
X136600000Y-56025000I250000J0D01*
G01*
X137400000Y-56025000D01*
G75*
G02*
X137650000Y-56275000I0J-250000D01*
G01*
X137650000Y-57525000D01*
G75*
G02*
X137400000Y-57775000I-250000J0D01*
G01*
X136600000Y-57775000D01*
G75*
G02*
X136350000Y-57525000I0J250000D01*
G01*
G37*
%TD*%
%TO.C,R6*%
G36*
G01*
X156350000Y-57275000D02*
X156350000Y-58525000D01*
G75*
G02*
X156100000Y-58775000I-250000J0D01*
G01*
X155300000Y-58775000D01*
G75*
G02*
X155050000Y-58525000I0J250000D01*
G01*
X155050000Y-57275000D01*
G75*
G02*
X155300000Y-57025000I250000J0D01*
G01*
X156100000Y-57025000D01*
G75*
G02*
X156350000Y-57275000I0J-250000D01*
G01*
G37*
G36*
G01*
X159450000Y-57275000D02*
X159450000Y-58525000D01*
G75*
G02*
X159200000Y-58775000I-250000J0D01*
G01*
X158400000Y-58775000D01*
G75*
G02*
X158150000Y-58525000I0J250000D01*
G01*
X158150000Y-57275000D01*
G75*
G02*
X158400000Y-57025000I250000J0D01*
G01*
X159200000Y-57025000D01*
G75*
G02*
X159450000Y-57275000I0J-250000D01*
G01*
G37*
%TD*%
%TO.C,R5*%
G36*
G01*
X158150000Y-60825000D02*
X158150000Y-59575000D01*
G75*
G02*
X158400000Y-59325000I250000J0D01*
G01*
X159200000Y-59325000D01*
G75*
G02*
X159450000Y-59575000I0J-250000D01*
G01*
X159450000Y-60825000D01*
G75*
G02*
X159200000Y-61075000I-250000J0D01*
G01*
X158400000Y-61075000D01*
G75*
G02*
X158150000Y-60825000I0J250000D01*
G01*
G37*
G36*
G01*
X155050000Y-60825000D02*
X155050000Y-59575000D01*
G75*
G02*
X155300000Y-59325000I250000J0D01*
G01*
X156100000Y-59325000D01*
G75*
G02*
X156350000Y-59575000I0J-250000D01*
G01*
X156350000Y-60825000D01*
G75*
G02*
X156100000Y-61075000I-250000J0D01*
G01*
X155300000Y-61075000D01*
G75*
G02*
X155050000Y-60825000I0J250000D01*
G01*
G37*
%TD*%
D10*
%TO.C,Q1*%
X152350000Y-75700000D03*
X153300000Y-73700000D03*
X151400000Y-73700000D03*
%TD*%
M02*
