%TF.GenerationSoftware,KiCad,Pcbnew,(5.1.9-0-10_14)*%
%TF.CreationDate,2021-06-19T10:38:47+01:00*%
%TF.ProjectId,Access,41636365-7373-42e6-9b69-6361645f7063,2*%
%TF.SameCoordinates,Original*%
%TF.FileFunction,Soldermask,Top*%
%TF.FilePolarity,Negative*%
%FSLAX46Y46*%
G04 Gerber Fmt 4.6, Leading zero omitted, Abs format (unit mm)*
G04 Created by KiCad (PCBNEW (5.1.9-0-10_14)) date 2021-06-19 10:38:47*
%MOMM*%
%LPD*%
G01*
G04 APERTURE LIST*
%ADD10C,0.350000*%
%ADD11C,0.100000*%
%ADD12R,0.650000X0.400000*%
%ADD13R,1.100000X0.600000*%
%ADD14R,3.700000X1.425000*%
%ADD15R,0.900000X2.000000*%
%ADD16R,2.000000X0.900000*%
%ADD17R,5.000000X5.000000*%
%ADD18C,2.600000*%
%ADD19R,1.300000X2.000000*%
%ADD20C,0.500000*%
%ADD21C,5.700000*%
%ADD22R,0.900000X0.800000*%
%ADD23O,1.700000X1.850000*%
%ADD24R,5.490000X5.000000*%
%ADD25R,1.140000X0.600000*%
%ADD26C,1.500000*%
%ADD27C,1.750000*%
%ADD28R,1.140000X0.300000*%
%ADD29O,1.000000X1.000000*%
%ADD30R,1.000000X1.000000*%
%ADD31R,1.200000X0.800000*%
G04 APERTURE END LIST*
D10*
%TO.C,U2*%
X137500000Y-83000000D03*
D11*
G36*
X138500000Y-82000000D02*
G01*
X138500000Y-84000000D01*
X136750000Y-84000000D01*
X136500000Y-83750000D01*
X136500000Y-82000000D01*
X138500000Y-82000000D01*
G37*
G36*
G01*
X135887500Y-84125000D02*
X135312500Y-84125000D01*
G75*
G02*
X135250000Y-84062500I0J62500D01*
G01*
X135250000Y-83937500D01*
G75*
G02*
X135312500Y-83875000I62500J0D01*
G01*
X135887500Y-83875000D01*
G75*
G02*
X135950000Y-83937500I0J-62500D01*
G01*
X135950000Y-84062500D01*
G75*
G02*
X135887500Y-84125000I-62500J0D01*
G01*
G37*
G36*
G01*
X135887500Y-83625000D02*
X135312500Y-83625000D01*
G75*
G02*
X135250000Y-83562500I0J62500D01*
G01*
X135250000Y-83437500D01*
G75*
G02*
X135312500Y-83375000I62500J0D01*
G01*
X135887500Y-83375000D01*
G75*
G02*
X135950000Y-83437500I0J-62500D01*
G01*
X135950000Y-83562500D01*
G75*
G02*
X135887500Y-83625000I-62500J0D01*
G01*
G37*
G36*
G01*
X135887500Y-83125000D02*
X135312500Y-83125000D01*
G75*
G02*
X135250000Y-83062500I0J62500D01*
G01*
X135250000Y-82937500D01*
G75*
G02*
X135312500Y-82875000I62500J0D01*
G01*
X135887500Y-82875000D01*
G75*
G02*
X135950000Y-82937500I0J-62500D01*
G01*
X135950000Y-83062500D01*
G75*
G02*
X135887500Y-83125000I-62500J0D01*
G01*
G37*
G36*
G01*
X135887500Y-82625000D02*
X135312500Y-82625000D01*
G75*
G02*
X135250000Y-82562500I0J62500D01*
G01*
X135250000Y-82437500D01*
G75*
G02*
X135312500Y-82375000I62500J0D01*
G01*
X135887500Y-82375000D01*
G75*
G02*
X135950000Y-82437500I0J-62500D01*
G01*
X135950000Y-82562500D01*
G75*
G02*
X135887500Y-82625000I-62500J0D01*
G01*
G37*
G36*
G01*
X135887500Y-82125000D02*
X135312500Y-82125000D01*
G75*
G02*
X135250000Y-82062500I0J62500D01*
G01*
X135250000Y-81937500D01*
G75*
G02*
X135312500Y-81875000I62500J0D01*
G01*
X135887500Y-81875000D01*
G75*
G02*
X135950000Y-81937500I0J-62500D01*
G01*
X135950000Y-82062500D01*
G75*
G02*
X135887500Y-82125000I-62500J0D01*
G01*
G37*
G36*
G01*
X136562500Y-81450000D02*
X136437500Y-81450000D01*
G75*
G02*
X136375000Y-81387500I0J62500D01*
G01*
X136375000Y-80812500D01*
G75*
G02*
X136437500Y-80750000I62500J0D01*
G01*
X136562500Y-80750000D01*
G75*
G02*
X136625000Y-80812500I0J-62500D01*
G01*
X136625000Y-81387500D01*
G75*
G02*
X136562500Y-81450000I-62500J0D01*
G01*
G37*
G36*
G01*
X137062500Y-81450000D02*
X136937500Y-81450000D01*
G75*
G02*
X136875000Y-81387500I0J62500D01*
G01*
X136875000Y-80812500D01*
G75*
G02*
X136937500Y-80750000I62500J0D01*
G01*
X137062500Y-80750000D01*
G75*
G02*
X137125000Y-80812500I0J-62500D01*
G01*
X137125000Y-81387500D01*
G75*
G02*
X137062500Y-81450000I-62500J0D01*
G01*
G37*
G36*
G01*
X137562500Y-81450000D02*
X137437500Y-81450000D01*
G75*
G02*
X137375000Y-81387500I0J62500D01*
G01*
X137375000Y-80812500D01*
G75*
G02*
X137437500Y-80750000I62500J0D01*
G01*
X137562500Y-80750000D01*
G75*
G02*
X137625000Y-80812500I0J-62500D01*
G01*
X137625000Y-81387500D01*
G75*
G02*
X137562500Y-81450000I-62500J0D01*
G01*
G37*
G36*
G01*
X138062500Y-81450000D02*
X137937500Y-81450000D01*
G75*
G02*
X137875000Y-81387500I0J62500D01*
G01*
X137875000Y-80812500D01*
G75*
G02*
X137937500Y-80750000I62500J0D01*
G01*
X138062500Y-80750000D01*
G75*
G02*
X138125000Y-80812500I0J-62500D01*
G01*
X138125000Y-81387500D01*
G75*
G02*
X138062500Y-81450000I-62500J0D01*
G01*
G37*
G36*
G01*
X138562500Y-81450000D02*
X138437500Y-81450000D01*
G75*
G02*
X138375000Y-81387500I0J62500D01*
G01*
X138375000Y-80812500D01*
G75*
G02*
X138437500Y-80750000I62500J0D01*
G01*
X138562500Y-80750000D01*
G75*
G02*
X138625000Y-80812500I0J-62500D01*
G01*
X138625000Y-81387500D01*
G75*
G02*
X138562500Y-81450000I-62500J0D01*
G01*
G37*
G36*
G01*
X139687500Y-82125000D02*
X139112500Y-82125000D01*
G75*
G02*
X139050000Y-82062500I0J62500D01*
G01*
X139050000Y-81937500D01*
G75*
G02*
X139112500Y-81875000I62500J0D01*
G01*
X139687500Y-81875000D01*
G75*
G02*
X139750000Y-81937500I0J-62500D01*
G01*
X139750000Y-82062500D01*
G75*
G02*
X139687500Y-82125000I-62500J0D01*
G01*
G37*
G36*
G01*
X139687500Y-82625000D02*
X139112500Y-82625000D01*
G75*
G02*
X139050000Y-82562500I0J62500D01*
G01*
X139050000Y-82437500D01*
G75*
G02*
X139112500Y-82375000I62500J0D01*
G01*
X139687500Y-82375000D01*
G75*
G02*
X139750000Y-82437500I0J-62500D01*
G01*
X139750000Y-82562500D01*
G75*
G02*
X139687500Y-82625000I-62500J0D01*
G01*
G37*
G36*
G01*
X139687500Y-83125000D02*
X139112500Y-83125000D01*
G75*
G02*
X139050000Y-83062500I0J62500D01*
G01*
X139050000Y-82937500D01*
G75*
G02*
X139112500Y-82875000I62500J0D01*
G01*
X139687500Y-82875000D01*
G75*
G02*
X139750000Y-82937500I0J-62500D01*
G01*
X139750000Y-83062500D01*
G75*
G02*
X139687500Y-83125000I-62500J0D01*
G01*
G37*
G36*
G01*
X139687500Y-83625000D02*
X139112500Y-83625000D01*
G75*
G02*
X139050000Y-83562500I0J62500D01*
G01*
X139050000Y-83437500D01*
G75*
G02*
X139112500Y-83375000I62500J0D01*
G01*
X139687500Y-83375000D01*
G75*
G02*
X139750000Y-83437500I0J-62500D01*
G01*
X139750000Y-83562500D01*
G75*
G02*
X139687500Y-83625000I-62500J0D01*
G01*
G37*
G36*
G01*
X139687500Y-84125000D02*
X139112500Y-84125000D01*
G75*
G02*
X139050000Y-84062500I0J62500D01*
G01*
X139050000Y-83937500D01*
G75*
G02*
X139112500Y-83875000I62500J0D01*
G01*
X139687500Y-83875000D01*
G75*
G02*
X139750000Y-83937500I0J-62500D01*
G01*
X139750000Y-84062500D01*
G75*
G02*
X139687500Y-84125000I-62500J0D01*
G01*
G37*
G36*
G01*
X138562500Y-85250000D02*
X138437500Y-85250000D01*
G75*
G02*
X138375000Y-85187500I0J62500D01*
G01*
X138375000Y-84612500D01*
G75*
G02*
X138437500Y-84550000I62500J0D01*
G01*
X138562500Y-84550000D01*
G75*
G02*
X138625000Y-84612500I0J-62500D01*
G01*
X138625000Y-85187500D01*
G75*
G02*
X138562500Y-85250000I-62500J0D01*
G01*
G37*
G36*
G01*
X138062500Y-85250000D02*
X137937500Y-85250000D01*
G75*
G02*
X137875000Y-85187500I0J62500D01*
G01*
X137875000Y-84612500D01*
G75*
G02*
X137937500Y-84550000I62500J0D01*
G01*
X138062500Y-84550000D01*
G75*
G02*
X138125000Y-84612500I0J-62500D01*
G01*
X138125000Y-85187500D01*
G75*
G02*
X138062500Y-85250000I-62500J0D01*
G01*
G37*
G36*
G01*
X137562500Y-85250000D02*
X137437500Y-85250000D01*
G75*
G02*
X137375000Y-85187500I0J62500D01*
G01*
X137375000Y-84612500D01*
G75*
G02*
X137437500Y-84550000I62500J0D01*
G01*
X137562500Y-84550000D01*
G75*
G02*
X137625000Y-84612500I0J-62500D01*
G01*
X137625000Y-85187500D01*
G75*
G02*
X137562500Y-85250000I-62500J0D01*
G01*
G37*
G36*
G01*
X137062500Y-85250000D02*
X136937500Y-85250000D01*
G75*
G02*
X136875000Y-85187500I0J62500D01*
G01*
X136875000Y-84612500D01*
G75*
G02*
X136937500Y-84550000I62500J0D01*
G01*
X137062500Y-84550000D01*
G75*
G02*
X137125000Y-84612500I0J-62500D01*
G01*
X137125000Y-85187500D01*
G75*
G02*
X137062500Y-85250000I-62500J0D01*
G01*
G37*
G36*
G01*
X136562500Y-85250000D02*
X136437500Y-85250000D01*
G75*
G02*
X136375000Y-85187500I0J62500D01*
G01*
X136375000Y-84612500D01*
G75*
G02*
X136437500Y-84550000I62500J0D01*
G01*
X136562500Y-84550000D01*
G75*
G02*
X136625000Y-84612500I0J-62500D01*
G01*
X136625000Y-85187500D01*
G75*
G02*
X136562500Y-85250000I-62500J0D01*
G01*
G37*
%TD*%
%TO.C,R16*%
G36*
G01*
X129825000Y-88775000D02*
X130375000Y-88775000D01*
G75*
G02*
X130575000Y-88975000I0J-200000D01*
G01*
X130575000Y-89375000D01*
G75*
G02*
X130375000Y-89575000I-200000J0D01*
G01*
X129825000Y-89575000D01*
G75*
G02*
X129625000Y-89375000I0J200000D01*
G01*
X129625000Y-88975000D01*
G75*
G02*
X129825000Y-88775000I200000J0D01*
G01*
G37*
G36*
G01*
X129825000Y-87125000D02*
X130375000Y-87125000D01*
G75*
G02*
X130575000Y-87325000I0J-200000D01*
G01*
X130575000Y-87725000D01*
G75*
G02*
X130375000Y-87925000I-200000J0D01*
G01*
X129825000Y-87925000D01*
G75*
G02*
X129625000Y-87725000I0J200000D01*
G01*
X129625000Y-87325000D01*
G75*
G02*
X129825000Y-87125000I200000J0D01*
G01*
G37*
%TD*%
%TO.C,C8*%
G36*
G01*
X125885000Y-80290000D02*
X125885000Y-79790000D01*
G75*
G02*
X126110000Y-79565000I225000J0D01*
G01*
X126560000Y-79565000D01*
G75*
G02*
X126785000Y-79790000I0J-225000D01*
G01*
X126785000Y-80290000D01*
G75*
G02*
X126560000Y-80515000I-225000J0D01*
G01*
X126110000Y-80515000D01*
G75*
G02*
X125885000Y-80290000I0J225000D01*
G01*
G37*
G36*
G01*
X124335000Y-80290000D02*
X124335000Y-79790000D01*
G75*
G02*
X124560000Y-79565000I225000J0D01*
G01*
X125010000Y-79565000D01*
G75*
G02*
X125235000Y-79790000I0J-225000D01*
G01*
X125235000Y-80290000D01*
G75*
G02*
X125010000Y-80515000I-225000J0D01*
G01*
X124560000Y-80515000D01*
G75*
G02*
X124335000Y-80290000I0J225000D01*
G01*
G37*
%TD*%
%TO.C,C7*%
G36*
G01*
X107575000Y-79450000D02*
X107575000Y-79950000D01*
G75*
G02*
X107350000Y-80175000I-225000J0D01*
G01*
X106900000Y-80175000D01*
G75*
G02*
X106675000Y-79950000I0J225000D01*
G01*
X106675000Y-79450000D01*
G75*
G02*
X106900000Y-79225000I225000J0D01*
G01*
X107350000Y-79225000D01*
G75*
G02*
X107575000Y-79450000I0J-225000D01*
G01*
G37*
G36*
G01*
X109125000Y-79450000D02*
X109125000Y-79950000D01*
G75*
G02*
X108900000Y-80175000I-225000J0D01*
G01*
X108450000Y-80175000D01*
G75*
G02*
X108225000Y-79950000I0J225000D01*
G01*
X108225000Y-79450000D01*
G75*
G02*
X108450000Y-79225000I225000J0D01*
G01*
X108900000Y-79225000D01*
G75*
G02*
X109125000Y-79450000I0J-225000D01*
G01*
G37*
%TD*%
%TO.C,C6*%
G36*
G01*
X110925000Y-79950000D02*
X110925000Y-79450000D01*
G75*
G02*
X111150000Y-79225000I225000J0D01*
G01*
X111600000Y-79225000D01*
G75*
G02*
X111825000Y-79450000I0J-225000D01*
G01*
X111825000Y-79950000D01*
G75*
G02*
X111600000Y-80175000I-225000J0D01*
G01*
X111150000Y-80175000D01*
G75*
G02*
X110925000Y-79950000I0J225000D01*
G01*
G37*
G36*
G01*
X109375000Y-79950000D02*
X109375000Y-79450000D01*
G75*
G02*
X109600000Y-79225000I225000J0D01*
G01*
X110050000Y-79225000D01*
G75*
G02*
X110275000Y-79450000I0J-225000D01*
G01*
X110275000Y-79950000D01*
G75*
G02*
X110050000Y-80175000I-225000J0D01*
G01*
X109600000Y-80175000D01*
G75*
G02*
X109375000Y-79950000I0J225000D01*
G01*
G37*
%TD*%
%TO.C,C5*%
G36*
G01*
X112950000Y-79450000D02*
X112950000Y-79950000D01*
G75*
G02*
X112725000Y-80175000I-225000J0D01*
G01*
X112275000Y-80175000D01*
G75*
G02*
X112050000Y-79950000I0J225000D01*
G01*
X112050000Y-79450000D01*
G75*
G02*
X112275000Y-79225000I225000J0D01*
G01*
X112725000Y-79225000D01*
G75*
G02*
X112950000Y-79450000I0J-225000D01*
G01*
G37*
G36*
G01*
X114500000Y-79450000D02*
X114500000Y-79950000D01*
G75*
G02*
X114275000Y-80175000I-225000J0D01*
G01*
X113825000Y-80175000D01*
G75*
G02*
X113600000Y-79950000I0J225000D01*
G01*
X113600000Y-79450000D01*
G75*
G02*
X113825000Y-79225000I225000J0D01*
G01*
X114275000Y-79225000D01*
G75*
G02*
X114500000Y-79450000I0J-225000D01*
G01*
G37*
%TD*%
%TO.C,C4*%
G36*
G01*
X116325000Y-79950000D02*
X116325000Y-79450000D01*
G75*
G02*
X116550000Y-79225000I225000J0D01*
G01*
X117000000Y-79225000D01*
G75*
G02*
X117225000Y-79450000I0J-225000D01*
G01*
X117225000Y-79950000D01*
G75*
G02*
X117000000Y-80175000I-225000J0D01*
G01*
X116550000Y-80175000D01*
G75*
G02*
X116325000Y-79950000I0J225000D01*
G01*
G37*
G36*
G01*
X114775000Y-79950000D02*
X114775000Y-79450000D01*
G75*
G02*
X115000000Y-79225000I225000J0D01*
G01*
X115450000Y-79225000D01*
G75*
G02*
X115675000Y-79450000I0J-225000D01*
G01*
X115675000Y-79950000D01*
G75*
G02*
X115450000Y-80175000I-225000J0D01*
G01*
X115000000Y-80175000D01*
G75*
G02*
X114775000Y-79950000I0J225000D01*
G01*
G37*
%TD*%
%TO.C,C3*%
G36*
G01*
X118375000Y-79450000D02*
X118375000Y-79950000D01*
G75*
G02*
X118150000Y-80175000I-225000J0D01*
G01*
X117700000Y-80175000D01*
G75*
G02*
X117475000Y-79950000I0J225000D01*
G01*
X117475000Y-79450000D01*
G75*
G02*
X117700000Y-79225000I225000J0D01*
G01*
X118150000Y-79225000D01*
G75*
G02*
X118375000Y-79450000I0J-225000D01*
G01*
G37*
G36*
G01*
X119925000Y-79450000D02*
X119925000Y-79950000D01*
G75*
G02*
X119700000Y-80175000I-225000J0D01*
G01*
X119250000Y-80175000D01*
G75*
G02*
X119025000Y-79950000I0J225000D01*
G01*
X119025000Y-79450000D01*
G75*
G02*
X119250000Y-79225000I225000J0D01*
G01*
X119700000Y-79225000D01*
G75*
G02*
X119925000Y-79450000I0J-225000D01*
G01*
G37*
%TD*%
%TO.C,C2*%
G36*
G01*
X121725000Y-79950000D02*
X121725000Y-79450000D01*
G75*
G02*
X121950000Y-79225000I225000J0D01*
G01*
X122400000Y-79225000D01*
G75*
G02*
X122625000Y-79450000I0J-225000D01*
G01*
X122625000Y-79950000D01*
G75*
G02*
X122400000Y-80175000I-225000J0D01*
G01*
X121950000Y-80175000D01*
G75*
G02*
X121725000Y-79950000I0J225000D01*
G01*
G37*
G36*
G01*
X120175000Y-79950000D02*
X120175000Y-79450000D01*
G75*
G02*
X120400000Y-79225000I225000J0D01*
G01*
X120850000Y-79225000D01*
G75*
G02*
X121075000Y-79450000I0J-225000D01*
G01*
X121075000Y-79950000D01*
G75*
G02*
X120850000Y-80175000I-225000J0D01*
G01*
X120400000Y-80175000D01*
G75*
G02*
X120175000Y-79950000I0J225000D01*
G01*
G37*
%TD*%
D12*
%TO.C,D1*%
X126700000Y-77100000D03*
X126700000Y-78400000D03*
X124800000Y-77750000D03*
X126700000Y-77750000D03*
X124800000Y-78400000D03*
X124800000Y-77100000D03*
%TD*%
%TO.C,D2*%
X121450000Y-77100000D03*
X121450000Y-78400000D03*
X119550000Y-77750000D03*
X121450000Y-77750000D03*
X119550000Y-78400000D03*
X119550000Y-77100000D03*
%TD*%
%TO.C,D3*%
X116200000Y-77100000D03*
X116200000Y-78400000D03*
X114300000Y-77750000D03*
X116200000Y-77750000D03*
X114300000Y-78400000D03*
X114300000Y-77100000D03*
%TD*%
%TO.C,D4*%
X110950000Y-77100000D03*
X110950000Y-78400000D03*
X109050000Y-77750000D03*
X110950000Y-77750000D03*
X109050000Y-78400000D03*
X109050000Y-77100000D03*
%TD*%
%TO.C,R8*%
G36*
G01*
X103425000Y-75025000D02*
X103425000Y-74475000D01*
G75*
G02*
X103625000Y-74275000I200000J0D01*
G01*
X104025000Y-74275000D01*
G75*
G02*
X104225000Y-74475000I0J-200000D01*
G01*
X104225000Y-75025000D01*
G75*
G02*
X104025000Y-75225000I-200000J0D01*
G01*
X103625000Y-75225000D01*
G75*
G02*
X103425000Y-75025000I0J200000D01*
G01*
G37*
G36*
G01*
X101775000Y-75025000D02*
X101775000Y-74475000D01*
G75*
G02*
X101975000Y-74275000I200000J0D01*
G01*
X102375000Y-74275000D01*
G75*
G02*
X102575000Y-74475000I0J-200000D01*
G01*
X102575000Y-75025000D01*
G75*
G02*
X102375000Y-75225000I-200000J0D01*
G01*
X101975000Y-75225000D01*
G75*
G02*
X101775000Y-75025000I0J200000D01*
G01*
G37*
%TD*%
%TO.C,R7*%
G36*
G01*
X106925000Y-75025000D02*
X106925000Y-74475000D01*
G75*
G02*
X107125000Y-74275000I200000J0D01*
G01*
X107525000Y-74275000D01*
G75*
G02*
X107725000Y-74475000I0J-200000D01*
G01*
X107725000Y-75025000D01*
G75*
G02*
X107525000Y-75225000I-200000J0D01*
G01*
X107125000Y-75225000D01*
G75*
G02*
X106925000Y-75025000I0J200000D01*
G01*
G37*
G36*
G01*
X105275000Y-75025000D02*
X105275000Y-74475000D01*
G75*
G02*
X105475000Y-74275000I200000J0D01*
G01*
X105875000Y-74275000D01*
G75*
G02*
X106075000Y-74475000I0J-200000D01*
G01*
X106075000Y-75025000D01*
G75*
G02*
X105875000Y-75225000I-200000J0D01*
G01*
X105475000Y-75225000D01*
G75*
G02*
X105275000Y-75025000I0J200000D01*
G01*
G37*
%TD*%
%TO.C,R6*%
G36*
G01*
X110425000Y-75025000D02*
X110425000Y-74475000D01*
G75*
G02*
X110625000Y-74275000I200000J0D01*
G01*
X111025000Y-74275000D01*
G75*
G02*
X111225000Y-74475000I0J-200000D01*
G01*
X111225000Y-75025000D01*
G75*
G02*
X111025000Y-75225000I-200000J0D01*
G01*
X110625000Y-75225000D01*
G75*
G02*
X110425000Y-75025000I0J200000D01*
G01*
G37*
G36*
G01*
X108775000Y-75025000D02*
X108775000Y-74475000D01*
G75*
G02*
X108975000Y-74275000I200000J0D01*
G01*
X109375000Y-74275000D01*
G75*
G02*
X109575000Y-74475000I0J-200000D01*
G01*
X109575000Y-75025000D01*
G75*
G02*
X109375000Y-75225000I-200000J0D01*
G01*
X108975000Y-75225000D01*
G75*
G02*
X108775000Y-75025000I0J200000D01*
G01*
G37*
%TD*%
%TO.C,R5*%
G36*
G01*
X113925000Y-75025000D02*
X113925000Y-74475000D01*
G75*
G02*
X114125000Y-74275000I200000J0D01*
G01*
X114525000Y-74275000D01*
G75*
G02*
X114725000Y-74475000I0J-200000D01*
G01*
X114725000Y-75025000D01*
G75*
G02*
X114525000Y-75225000I-200000J0D01*
G01*
X114125000Y-75225000D01*
G75*
G02*
X113925000Y-75025000I0J200000D01*
G01*
G37*
G36*
G01*
X112275000Y-75025000D02*
X112275000Y-74475000D01*
G75*
G02*
X112475000Y-74275000I200000J0D01*
G01*
X112875000Y-74275000D01*
G75*
G02*
X113075000Y-74475000I0J-200000D01*
G01*
X113075000Y-75025000D01*
G75*
G02*
X112875000Y-75225000I-200000J0D01*
G01*
X112475000Y-75225000D01*
G75*
G02*
X112275000Y-75025000I0J200000D01*
G01*
G37*
%TD*%
D13*
%TO.C,Reg2*%
X142940000Y-95190000D03*
X142940000Y-97090000D03*
X142940000Y-96140000D03*
X145640000Y-97090000D03*
X145640000Y-96140000D03*
X145640000Y-95190000D03*
G36*
G01*
X146390000Y-91215000D02*
X146390000Y-90265000D01*
G75*
G02*
X146640000Y-90015000I250000J0D01*
G01*
X147140000Y-90015000D01*
G75*
G02*
X147390000Y-90265000I0J-250000D01*
G01*
X147390000Y-91215000D01*
G75*
G02*
X147140000Y-91465000I-250000J0D01*
G01*
X146640000Y-91465000D01*
G75*
G02*
X146390000Y-91215000I0J250000D01*
G01*
G37*
G36*
G01*
X148290000Y-91215000D02*
X148290000Y-90265000D01*
G75*
G02*
X148540000Y-90015000I250000J0D01*
G01*
X149040000Y-90015000D01*
G75*
G02*
X149290000Y-90265000I0J-250000D01*
G01*
X149290000Y-91215000D01*
G75*
G02*
X149040000Y-91465000I-250000J0D01*
G01*
X148540000Y-91465000D01*
G75*
G02*
X148290000Y-91215000I0J250000D01*
G01*
G37*
G36*
G01*
X148290000Y-97465000D02*
X148290000Y-96515000D01*
G75*
G02*
X148540000Y-96265000I250000J0D01*
G01*
X149040000Y-96265000D01*
G75*
G02*
X149290000Y-96515000I0J-250000D01*
G01*
X149290000Y-97465000D01*
G75*
G02*
X149040000Y-97715000I-250000J0D01*
G01*
X148540000Y-97715000D01*
G75*
G02*
X148290000Y-97465000I0J250000D01*
G01*
G37*
G36*
G01*
X146390000Y-97465000D02*
X146390000Y-96515000D01*
G75*
G02*
X146640000Y-96265000I250000J0D01*
G01*
X147140000Y-96265000D01*
G75*
G02*
X147390000Y-96515000I0J-250000D01*
G01*
X147390000Y-97465000D01*
G75*
G02*
X147140000Y-97715000I-250000J0D01*
G01*
X146640000Y-97715000D01*
G75*
G02*
X146390000Y-97465000I0J250000D01*
G01*
G37*
G36*
G01*
X143965000Y-97990000D02*
X143965000Y-98490000D01*
G75*
G02*
X143740000Y-98715000I-225000J0D01*
G01*
X143290000Y-98715000D01*
G75*
G02*
X143065000Y-98490000I0J225000D01*
G01*
X143065000Y-97990000D01*
G75*
G02*
X143290000Y-97765000I225000J0D01*
G01*
X143740000Y-97765000D01*
G75*
G02*
X143965000Y-97990000I0J-225000D01*
G01*
G37*
G36*
G01*
X145515000Y-97990000D02*
X145515000Y-98490000D01*
G75*
G02*
X145290000Y-98715000I-225000J0D01*
G01*
X144840000Y-98715000D01*
G75*
G02*
X144615000Y-98490000I0J225000D01*
G01*
X144615000Y-97990000D01*
G75*
G02*
X144840000Y-97765000I225000J0D01*
G01*
X145290000Y-97765000D01*
G75*
G02*
X145515000Y-97990000I0J-225000D01*
G01*
G37*
G36*
G01*
X148085626Y-96065000D02*
X146834374Y-96065000D01*
G75*
G02*
X146585000Y-95815626I0J249374D01*
G01*
X146585000Y-94889374D01*
G75*
G02*
X146834374Y-94640000I249374J0D01*
G01*
X148085626Y-94640000D01*
G75*
G02*
X148335000Y-94889374I0J-249374D01*
G01*
X148335000Y-95815626D01*
G75*
G02*
X148085626Y-96065000I-249374J0D01*
G01*
G37*
G36*
G01*
X148085626Y-93090000D02*
X146834374Y-93090000D01*
G75*
G02*
X146585000Y-92840626I0J249374D01*
G01*
X146585000Y-91914374D01*
G75*
G02*
X146834374Y-91665000I249374J0D01*
G01*
X148085626Y-91665000D01*
G75*
G02*
X148335000Y-91914374I0J-249374D01*
G01*
X148335000Y-92840626D01*
G75*
G02*
X148085626Y-93090000I-249374J0D01*
G01*
G37*
D14*
X144340000Y-90740000D03*
X144340000Y-93740000D03*
%TD*%
D13*
%TO.C,Reg1*%
X134840000Y-95190000D03*
X134840000Y-97090000D03*
X134840000Y-96140000D03*
X137540000Y-97090000D03*
X137540000Y-96140000D03*
X137540000Y-95190000D03*
G36*
G01*
X138290000Y-91215000D02*
X138290000Y-90265000D01*
G75*
G02*
X138540000Y-90015000I250000J0D01*
G01*
X139040000Y-90015000D01*
G75*
G02*
X139290000Y-90265000I0J-250000D01*
G01*
X139290000Y-91215000D01*
G75*
G02*
X139040000Y-91465000I-250000J0D01*
G01*
X138540000Y-91465000D01*
G75*
G02*
X138290000Y-91215000I0J250000D01*
G01*
G37*
G36*
G01*
X140190000Y-91215000D02*
X140190000Y-90265000D01*
G75*
G02*
X140440000Y-90015000I250000J0D01*
G01*
X140940000Y-90015000D01*
G75*
G02*
X141190000Y-90265000I0J-250000D01*
G01*
X141190000Y-91215000D01*
G75*
G02*
X140940000Y-91465000I-250000J0D01*
G01*
X140440000Y-91465000D01*
G75*
G02*
X140190000Y-91215000I0J250000D01*
G01*
G37*
G36*
G01*
X140190000Y-97465000D02*
X140190000Y-96515000D01*
G75*
G02*
X140440000Y-96265000I250000J0D01*
G01*
X140940000Y-96265000D01*
G75*
G02*
X141190000Y-96515000I0J-250000D01*
G01*
X141190000Y-97465000D01*
G75*
G02*
X140940000Y-97715000I-250000J0D01*
G01*
X140440000Y-97715000D01*
G75*
G02*
X140190000Y-97465000I0J250000D01*
G01*
G37*
G36*
G01*
X138290000Y-97465000D02*
X138290000Y-96515000D01*
G75*
G02*
X138540000Y-96265000I250000J0D01*
G01*
X139040000Y-96265000D01*
G75*
G02*
X139290000Y-96515000I0J-250000D01*
G01*
X139290000Y-97465000D01*
G75*
G02*
X139040000Y-97715000I-250000J0D01*
G01*
X138540000Y-97715000D01*
G75*
G02*
X138290000Y-97465000I0J250000D01*
G01*
G37*
G36*
G01*
X135865000Y-97990000D02*
X135865000Y-98490000D01*
G75*
G02*
X135640000Y-98715000I-225000J0D01*
G01*
X135190000Y-98715000D01*
G75*
G02*
X134965000Y-98490000I0J225000D01*
G01*
X134965000Y-97990000D01*
G75*
G02*
X135190000Y-97765000I225000J0D01*
G01*
X135640000Y-97765000D01*
G75*
G02*
X135865000Y-97990000I0J-225000D01*
G01*
G37*
G36*
G01*
X137415000Y-97990000D02*
X137415000Y-98490000D01*
G75*
G02*
X137190000Y-98715000I-225000J0D01*
G01*
X136740000Y-98715000D01*
G75*
G02*
X136515000Y-98490000I0J225000D01*
G01*
X136515000Y-97990000D01*
G75*
G02*
X136740000Y-97765000I225000J0D01*
G01*
X137190000Y-97765000D01*
G75*
G02*
X137415000Y-97990000I0J-225000D01*
G01*
G37*
G36*
G01*
X139985626Y-96065000D02*
X138734374Y-96065000D01*
G75*
G02*
X138485000Y-95815626I0J249374D01*
G01*
X138485000Y-94889374D01*
G75*
G02*
X138734374Y-94640000I249374J0D01*
G01*
X139985626Y-94640000D01*
G75*
G02*
X140235000Y-94889374I0J-249374D01*
G01*
X140235000Y-95815626D01*
G75*
G02*
X139985626Y-96065000I-249374J0D01*
G01*
G37*
G36*
G01*
X139985626Y-93090000D02*
X138734374Y-93090000D01*
G75*
G02*
X138485000Y-92840626I0J249374D01*
G01*
X138485000Y-91914374D01*
G75*
G02*
X138734374Y-91665000I249374J0D01*
G01*
X139985626Y-91665000D01*
G75*
G02*
X140235000Y-91914374I0J-249374D01*
G01*
X140235000Y-92840626D01*
G75*
G02*
X139985626Y-93090000I-249374J0D01*
G01*
G37*
D14*
X136240000Y-90740000D03*
X136240000Y-93740000D03*
%TD*%
D15*
%TO.C,U1*%
X107500000Y-81850000D03*
X108770000Y-81850000D03*
X110040000Y-81850000D03*
X111310000Y-81850000D03*
X112580000Y-81850000D03*
X113850000Y-81850000D03*
X115120000Y-81850000D03*
X116390000Y-81850000D03*
X117660000Y-81850000D03*
X118930000Y-81850000D03*
X120200000Y-81850000D03*
X121470000Y-81850000D03*
X122740000Y-81850000D03*
X124010000Y-81850000D03*
D16*
X125010000Y-84635000D03*
X125010000Y-85905000D03*
X125010000Y-87175000D03*
X125010000Y-88445000D03*
X125010000Y-89715000D03*
X125010000Y-90985000D03*
X125010000Y-92255000D03*
X125010000Y-93525000D03*
X125010000Y-94795000D03*
X125010000Y-96065000D03*
D15*
X124010000Y-98850000D03*
X122740000Y-98850000D03*
X121470000Y-98850000D03*
X120200000Y-98850000D03*
X118930000Y-98850000D03*
X117660000Y-98850000D03*
X116390000Y-98850000D03*
X115120000Y-98850000D03*
X113850000Y-98850000D03*
X112580000Y-98850000D03*
X111310000Y-98850000D03*
X110040000Y-98850000D03*
X108770000Y-98850000D03*
X107500000Y-98850000D03*
D17*
X115000000Y-91350000D03*
%TD*%
%TO.C,R15*%
G36*
G01*
X148015000Y-99435000D02*
X148015000Y-98885000D01*
G75*
G02*
X148215000Y-98685000I200000J0D01*
G01*
X148615000Y-98685000D01*
G75*
G02*
X148815000Y-98885000I0J-200000D01*
G01*
X148815000Y-99435000D01*
G75*
G02*
X148615000Y-99635000I-200000J0D01*
G01*
X148215000Y-99635000D01*
G75*
G02*
X148015000Y-99435000I0J200000D01*
G01*
G37*
G36*
G01*
X146365000Y-99435000D02*
X146365000Y-98885000D01*
G75*
G02*
X146565000Y-98685000I200000J0D01*
G01*
X146965000Y-98685000D01*
G75*
G02*
X147165000Y-98885000I0J-200000D01*
G01*
X147165000Y-99435000D01*
G75*
G02*
X146965000Y-99635000I-200000J0D01*
G01*
X146565000Y-99635000D01*
G75*
G02*
X146365000Y-99435000I0J200000D01*
G01*
G37*
%TD*%
%TO.C,R14*%
G36*
G01*
X132575000Y-87975000D02*
X132575000Y-88525000D01*
G75*
G02*
X132375000Y-88725000I-200000J0D01*
G01*
X131975000Y-88725000D01*
G75*
G02*
X131775000Y-88525000I0J200000D01*
G01*
X131775000Y-87975000D01*
G75*
G02*
X131975000Y-87775000I200000J0D01*
G01*
X132375000Y-87775000D01*
G75*
G02*
X132575000Y-87975000I0J-200000D01*
G01*
G37*
G36*
G01*
X134225000Y-87975000D02*
X134225000Y-88525000D01*
G75*
G02*
X134025000Y-88725000I-200000J0D01*
G01*
X133625000Y-88725000D01*
G75*
G02*
X133425000Y-88525000I0J200000D01*
G01*
X133425000Y-87975000D01*
G75*
G02*
X133625000Y-87775000I200000J0D01*
G01*
X134025000Y-87775000D01*
G75*
G02*
X134225000Y-87975000I0J-200000D01*
G01*
G37*
%TD*%
%TO.C,R2*%
G36*
G01*
X124425000Y-75025000D02*
X124425000Y-74475000D01*
G75*
G02*
X124625000Y-74275000I200000J0D01*
G01*
X125025000Y-74275000D01*
G75*
G02*
X125225000Y-74475000I0J-200000D01*
G01*
X125225000Y-75025000D01*
G75*
G02*
X125025000Y-75225000I-200000J0D01*
G01*
X124625000Y-75225000D01*
G75*
G02*
X124425000Y-75025000I0J200000D01*
G01*
G37*
G36*
G01*
X122775000Y-75025000D02*
X122775000Y-74475000D01*
G75*
G02*
X122975000Y-74275000I200000J0D01*
G01*
X123375000Y-74275000D01*
G75*
G02*
X123575000Y-74475000I0J-200000D01*
G01*
X123575000Y-75025000D01*
G75*
G02*
X123375000Y-75225000I-200000J0D01*
G01*
X122975000Y-75225000D01*
G75*
G02*
X122775000Y-75025000I0J200000D01*
G01*
G37*
%TD*%
%TO.C,R1*%
G36*
G01*
X127675000Y-75025000D02*
X127675000Y-74475000D01*
G75*
G02*
X127875000Y-74275000I200000J0D01*
G01*
X128275000Y-74275000D01*
G75*
G02*
X128475000Y-74475000I0J-200000D01*
G01*
X128475000Y-75025000D01*
G75*
G02*
X128275000Y-75225000I-200000J0D01*
G01*
X127875000Y-75225000D01*
G75*
G02*
X127675000Y-75025000I0J200000D01*
G01*
G37*
G36*
G01*
X126025000Y-75025000D02*
X126025000Y-74475000D01*
G75*
G02*
X126225000Y-74275000I200000J0D01*
G01*
X126625000Y-74275000D01*
G75*
G02*
X126825000Y-74475000I0J-200000D01*
G01*
X126825000Y-75025000D01*
G75*
G02*
X126625000Y-75225000I-200000J0D01*
G01*
X126225000Y-75225000D01*
G75*
G02*
X126025000Y-75025000I0J200000D01*
G01*
G37*
%TD*%
%TO.C,R4*%
G36*
G01*
X117425000Y-75025000D02*
X117425000Y-74475000D01*
G75*
G02*
X117625000Y-74275000I200000J0D01*
G01*
X118025000Y-74275000D01*
G75*
G02*
X118225000Y-74475000I0J-200000D01*
G01*
X118225000Y-75025000D01*
G75*
G02*
X118025000Y-75225000I-200000J0D01*
G01*
X117625000Y-75225000D01*
G75*
G02*
X117425000Y-75025000I0J200000D01*
G01*
G37*
G36*
G01*
X115775000Y-75025000D02*
X115775000Y-74475000D01*
G75*
G02*
X115975000Y-74275000I200000J0D01*
G01*
X116375000Y-74275000D01*
G75*
G02*
X116575000Y-74475000I0J-200000D01*
G01*
X116575000Y-75025000D01*
G75*
G02*
X116375000Y-75225000I-200000J0D01*
G01*
X115975000Y-75225000D01*
G75*
G02*
X115775000Y-75025000I0J200000D01*
G01*
G37*
%TD*%
%TO.C,R3*%
G36*
G01*
X120925000Y-75025000D02*
X120925000Y-74475000D01*
G75*
G02*
X121125000Y-74275000I200000J0D01*
G01*
X121525000Y-74275000D01*
G75*
G02*
X121725000Y-74475000I0J-200000D01*
G01*
X121725000Y-75025000D01*
G75*
G02*
X121525000Y-75225000I-200000J0D01*
G01*
X121125000Y-75225000D01*
G75*
G02*
X120925000Y-75025000I0J200000D01*
G01*
G37*
G36*
G01*
X119275000Y-75025000D02*
X119275000Y-74475000D01*
G75*
G02*
X119475000Y-74275000I200000J0D01*
G01*
X119875000Y-74275000D01*
G75*
G02*
X120075000Y-74475000I0J-200000D01*
G01*
X120075000Y-75025000D01*
G75*
G02*
X119875000Y-75225000I-200000J0D01*
G01*
X119475000Y-75225000D01*
G75*
G02*
X119275000Y-75025000I0J200000D01*
G01*
G37*
%TD*%
%TO.C,R12*%
G36*
G01*
X142175000Y-87775000D02*
X142175000Y-87225000D01*
G75*
G02*
X142375000Y-87025000I200000J0D01*
G01*
X142775000Y-87025000D01*
G75*
G02*
X142975000Y-87225000I0J-200000D01*
G01*
X142975000Y-87775000D01*
G75*
G02*
X142775000Y-87975000I-200000J0D01*
G01*
X142375000Y-87975000D01*
G75*
G02*
X142175000Y-87775000I0J200000D01*
G01*
G37*
G36*
G01*
X140525000Y-87775000D02*
X140525000Y-87225000D01*
G75*
G02*
X140725000Y-87025000I200000J0D01*
G01*
X141125000Y-87025000D01*
G75*
G02*
X141325000Y-87225000I0J-200000D01*
G01*
X141325000Y-87775000D01*
G75*
G02*
X141125000Y-87975000I-200000J0D01*
G01*
X140725000Y-87975000D01*
G75*
G02*
X140525000Y-87775000I0J200000D01*
G01*
G37*
%TD*%
%TO.C,R11*%
G36*
G01*
X142175000Y-86275000D02*
X142175000Y-85725000D01*
G75*
G02*
X142375000Y-85525000I200000J0D01*
G01*
X142775000Y-85525000D01*
G75*
G02*
X142975000Y-85725000I0J-200000D01*
G01*
X142975000Y-86275000D01*
G75*
G02*
X142775000Y-86475000I-200000J0D01*
G01*
X142375000Y-86475000D01*
G75*
G02*
X142175000Y-86275000I0J200000D01*
G01*
G37*
G36*
G01*
X140525000Y-86275000D02*
X140525000Y-85725000D01*
G75*
G02*
X140725000Y-85525000I200000J0D01*
G01*
X141125000Y-85525000D01*
G75*
G02*
X141325000Y-85725000I0J-200000D01*
G01*
X141325000Y-86275000D01*
G75*
G02*
X141125000Y-86475000I-200000J0D01*
G01*
X140725000Y-86475000D01*
G75*
G02*
X140525000Y-86275000I0J200000D01*
G01*
G37*
%TD*%
%TO.C,R10*%
G36*
G01*
X141975000Y-77175000D02*
X142525000Y-77175000D01*
G75*
G02*
X142725000Y-77375000I0J-200000D01*
G01*
X142725000Y-77775000D01*
G75*
G02*
X142525000Y-77975000I-200000J0D01*
G01*
X141975000Y-77975000D01*
G75*
G02*
X141775000Y-77775000I0J200000D01*
G01*
X141775000Y-77375000D01*
G75*
G02*
X141975000Y-77175000I200000J0D01*
G01*
G37*
G36*
G01*
X141975000Y-75525000D02*
X142525000Y-75525000D01*
G75*
G02*
X142725000Y-75725000I0J-200000D01*
G01*
X142725000Y-76125000D01*
G75*
G02*
X142525000Y-76325000I-200000J0D01*
G01*
X141975000Y-76325000D01*
G75*
G02*
X141775000Y-76125000I0J200000D01*
G01*
X141775000Y-75725000D01*
G75*
G02*
X141975000Y-75525000I200000J0D01*
G01*
G37*
%TD*%
%TO.C,R9*%
G36*
G01*
X141025000Y-76325000D02*
X140475000Y-76325000D01*
G75*
G02*
X140275000Y-76125000I0J200000D01*
G01*
X140275000Y-75725000D01*
G75*
G02*
X140475000Y-75525000I200000J0D01*
G01*
X141025000Y-75525000D01*
G75*
G02*
X141225000Y-75725000I0J-200000D01*
G01*
X141225000Y-76125000D01*
G75*
G02*
X141025000Y-76325000I-200000J0D01*
G01*
G37*
G36*
G01*
X141025000Y-77975000D02*
X140475000Y-77975000D01*
G75*
G02*
X140275000Y-77775000I0J200000D01*
G01*
X140275000Y-77375000D01*
G75*
G02*
X140475000Y-77175000I200000J0D01*
G01*
X141025000Y-77175000D01*
G75*
G02*
X141225000Y-77375000I0J-200000D01*
G01*
X141225000Y-77775000D01*
G75*
G02*
X141025000Y-77975000I-200000J0D01*
G01*
G37*
%TD*%
%TO.C,C1*%
G36*
G01*
X132493413Y-85762913D02*
X132846967Y-86116467D01*
G75*
G02*
X132846967Y-86434665I-159099J-159099D01*
G01*
X132528769Y-86752863D01*
G75*
G02*
X132210571Y-86752863I-159099J159099D01*
G01*
X131857017Y-86399309D01*
G75*
G02*
X131857017Y-86081111I159099J159099D01*
G01*
X132175215Y-85762913D01*
G75*
G02*
X132493413Y-85762913I159099J-159099D01*
G01*
G37*
G36*
G01*
X133589429Y-84666897D02*
X133942983Y-85020451D01*
G75*
G02*
X133942983Y-85338649I-159099J-159099D01*
G01*
X133624785Y-85656847D01*
G75*
G02*
X133306587Y-85656847I-159099J159099D01*
G01*
X132953033Y-85303293D01*
G75*
G02*
X132953033Y-84985095I159099J159099D01*
G01*
X133271231Y-84666897D01*
G75*
G02*
X133589429Y-84666897I159099J-159099D01*
G01*
G37*
%TD*%
%TO.C,R13*%
G36*
G01*
X132075000Y-79262500D02*
X132075000Y-79737500D01*
G75*
G02*
X131837500Y-79975000I-237500J0D01*
G01*
X131337500Y-79975000D01*
G75*
G02*
X131100000Y-79737500I0J237500D01*
G01*
X131100000Y-79262500D01*
G75*
G02*
X131337500Y-79025000I237500J0D01*
G01*
X131837500Y-79025000D01*
G75*
G02*
X132075000Y-79262500I0J-237500D01*
G01*
G37*
G36*
G01*
X133900000Y-79262500D02*
X133900000Y-79737500D01*
G75*
G02*
X133662500Y-79975000I-237500J0D01*
G01*
X133162500Y-79975000D01*
G75*
G02*
X132925000Y-79737500I0J237500D01*
G01*
X132925000Y-79262500D01*
G75*
G02*
X133162500Y-79025000I237500J0D01*
G01*
X133662500Y-79025000D01*
G75*
G02*
X133900000Y-79262500I0J-237500D01*
G01*
G37*
%TD*%
D18*
%TO.C,J6*%
X129400000Y-92620000D03*
G36*
G01*
X130050000Y-99000000D02*
X128750000Y-99000000D01*
G75*
G02*
X128100000Y-98350000I0J650000D01*
G01*
X128100000Y-97050000D01*
G75*
G02*
X128750000Y-96400000I650000J0D01*
G01*
X130050000Y-96400000D01*
G75*
G02*
X130700000Y-97050000I0J-650000D01*
G01*
X130700000Y-98350000D01*
G75*
G02*
X130050000Y-99000000I-650000J0D01*
G01*
G37*
%TD*%
D19*
%TO.C,SW1*%
X127200000Y-99000000D03*
X131700000Y-99000000D03*
X131700000Y-90600000D03*
X127200000Y-90600000D03*
%TD*%
%TO.C,D6*%
G36*
G01*
X138025000Y-88625000D02*
X138025000Y-87375000D01*
G75*
G02*
X138275000Y-87125000I250000J0D01*
G01*
X139200000Y-87125000D01*
G75*
G02*
X139450000Y-87375000I0J-250000D01*
G01*
X139450000Y-88625000D01*
G75*
G02*
X139200000Y-88875000I-250000J0D01*
G01*
X138275000Y-88875000D01*
G75*
G02*
X138025000Y-88625000I0J250000D01*
G01*
G37*
G36*
G01*
X135050000Y-88625000D02*
X135050000Y-87375000D01*
G75*
G02*
X135300000Y-87125000I250000J0D01*
G01*
X136225000Y-87125000D01*
G75*
G02*
X136475000Y-87375000I0J-250000D01*
G01*
X136475000Y-88625000D01*
G75*
G02*
X136225000Y-88875000I-250000J0D01*
G01*
X135300000Y-88875000D01*
G75*
G02*
X135050000Y-88625000I0J250000D01*
G01*
G37*
%TD*%
D20*
%TO.C,H1*%
X129500000Y-81250000D03*
X127250000Y-83500000D03*
X129500000Y-85750000D03*
X131750000Y-83500000D03*
D21*
X129500000Y-83500000D03*
%TD*%
D22*
%TO.C,Q1*%
X147000000Y-88000000D03*
X145000000Y-88950000D03*
X145000000Y-87050000D03*
%TD*%
D23*
%TO.C,J5*%
X134000000Y-72650000D03*
X136500000Y-72650000D03*
G36*
G01*
X139850000Y-71975000D02*
X139850000Y-73325000D01*
G75*
G02*
X139600000Y-73575000I-250000J0D01*
G01*
X138400000Y-73575000D01*
G75*
G02*
X138150000Y-73325000I0J250000D01*
G01*
X138150000Y-71975000D01*
G75*
G02*
X138400000Y-71725000I250000J0D01*
G01*
X139600000Y-71725000D01*
G75*
G02*
X139850000Y-71975000I0J-250000D01*
G01*
G37*
%TD*%
%TO.C,J4*%
X144500000Y-72650000D03*
G36*
G01*
X147850000Y-71975000D02*
X147850000Y-73325000D01*
G75*
G02*
X147600000Y-73575000I-250000J0D01*
G01*
X146400000Y-73575000D01*
G75*
G02*
X146150000Y-73325000I0J250000D01*
G01*
X146150000Y-71975000D01*
G75*
G02*
X146400000Y-71725000I250000J0D01*
G01*
X147600000Y-71725000D01*
G75*
G02*
X147850000Y-71975000I0J-250000D01*
G01*
G37*
%TD*%
%TO.C,J3*%
X103000000Y-72650000D03*
X105500000Y-72650000D03*
X108000000Y-72650000D03*
X110500000Y-72650000D03*
X113000000Y-72650000D03*
G36*
G01*
X116350000Y-71975000D02*
X116350000Y-73325000D01*
G75*
G02*
X116100000Y-73575000I-250000J0D01*
G01*
X114900000Y-73575000D01*
G75*
G02*
X114650000Y-73325000I0J250000D01*
G01*
X114650000Y-71975000D01*
G75*
G02*
X114900000Y-71725000I250000J0D01*
G01*
X116100000Y-71725000D01*
G75*
G02*
X116350000Y-71975000I0J-250000D01*
G01*
G37*
%TD*%
%TO.C,J2*%
X121000000Y-72650000D03*
X123500000Y-72650000D03*
X126000000Y-72650000D03*
G36*
G01*
X129350000Y-71975000D02*
X129350000Y-73325000D01*
G75*
G02*
X129100000Y-73575000I-250000J0D01*
G01*
X127900000Y-73575000D01*
G75*
G02*
X127650000Y-73325000I0J250000D01*
G01*
X127650000Y-71975000D01*
G75*
G02*
X127900000Y-71725000I250000J0D01*
G01*
X129100000Y-71725000D01*
G75*
G02*
X129350000Y-71975000I0J-250000D01*
G01*
G37*
%TD*%
%TO.C,D5*%
G36*
G01*
X127650000Y-87262500D02*
X127650000Y-87737500D01*
G75*
G02*
X127412500Y-87975000I-237500J0D01*
G01*
X126837500Y-87975000D01*
G75*
G02*
X126600000Y-87737500I0J237500D01*
G01*
X126600000Y-87262500D01*
G75*
G02*
X126837500Y-87025000I237500J0D01*
G01*
X127412500Y-87025000D01*
G75*
G02*
X127650000Y-87262500I0J-237500D01*
G01*
G37*
G36*
G01*
X129400000Y-87262500D02*
X129400000Y-87737500D01*
G75*
G02*
X129162500Y-87975000I-237500J0D01*
G01*
X128587500Y-87975000D01*
G75*
G02*
X128350000Y-87737500I0J237500D01*
G01*
X128350000Y-87262500D01*
G75*
G02*
X128587500Y-87025000I237500J0D01*
G01*
X129162500Y-87025000D01*
G75*
G02*
X129400000Y-87262500I0J-237500D01*
G01*
G37*
%TD*%
D24*
%TO.C,J1*%
X147950000Y-80100000D03*
D25*
X143835000Y-82500000D03*
X143835000Y-77700000D03*
D26*
X148585000Y-75780000D03*
X148585000Y-84420000D03*
D27*
X144415000Y-75780000D03*
X144415000Y-84420000D03*
D28*
X143835000Y-79850000D03*
X143835000Y-80350000D03*
X143835000Y-79350000D03*
X143835000Y-80850000D03*
X143835000Y-78850000D03*
X143835000Y-81350000D03*
X143835000Y-78350000D03*
X143835000Y-81850000D03*
D25*
X143835000Y-76900000D03*
X143835000Y-83300000D03*
%TD*%
D29*
%TO.C,JP1*%
X137480000Y-76750000D03*
D30*
X138750000Y-76750000D03*
%TD*%
D31*
%TO.C,U3*%
X135500000Y-78020000D03*
X135500000Y-75480000D03*
X129500000Y-75480000D03*
X129500000Y-78020000D03*
%TD*%
M02*
