%TF.GenerationSoftware,KiCad,Pcbnew,(5.1.9-0-10_14)*%
%TF.CreationDate,2021-05-03T13:21:56+01:00*%
%TF.ProjectId,Access,41636365-7373-42e6-9b69-6361645f7063,1*%
%TF.SameCoordinates,Original*%
%TF.FileFunction,Copper,L1,Top*%
%TF.FilePolarity,Positive*%
%FSLAX46Y46*%
G04 Gerber Fmt 4.6, Leading zero omitted, Abs format (unit mm)*
G04 Created by KiCad (PCBNEW (5.1.9-0-10_14)) date 2021-05-03 13:21:56*
%MOMM*%
%LPD*%
G01*
G04 APERTURE LIST*
%TA.AperFunction,EtchedComponent*%
%ADD10C,0.250000*%
%TD*%
%TA.AperFunction,EtchedComponent*%
%ADD11C,0.500000*%
%TD*%
%TA.AperFunction,SMDPad,CuDef*%
%ADD12R,1.000000X0.500000*%
%TD*%
%TA.AperFunction,SMDPad,CuDef*%
%ADD13C,0.100000*%
%TD*%
%TA.AperFunction,SMDPad,CuDef*%
%ADD14R,0.500000X1.000000*%
%TD*%
%TA.AperFunction,SMDPad,CuDef*%
%ADD15R,0.500000X0.800000*%
%TD*%
%TA.AperFunction,SMDPad,CuDef*%
%ADD16R,0.500000X3.650000*%
%TD*%
%TA.AperFunction,SMDPad,CuDef*%
%ADD17R,2.500000X0.500000*%
%TD*%
%TA.AperFunction,SMDPad,CuDef*%
%ADD18R,1.100000X3.700000*%
%TD*%
%TA.AperFunction,SMDPad,CuDef*%
%ADD19R,0.650000X1.560000*%
%TD*%
%TA.AperFunction,ComponentPad*%
%ADD20C,0.500000*%
%TD*%
%TA.AperFunction,ComponentPad*%
%ADD21C,5.700000*%
%TD*%
%TA.AperFunction,SMDPad,CuDef*%
%ADD22R,0.900000X0.800000*%
%TD*%
%TA.AperFunction,ComponentPad*%
%ADD23O,1.700000X1.850000*%
%TD*%
%TA.AperFunction,SMDPad,CuDef*%
%ADD24R,5.490000X8.340000*%
%TD*%
%TA.AperFunction,SMDPad,CuDef*%
%ADD25R,1.140000X0.600000*%
%TD*%
%TA.AperFunction,ComponentPad*%
%ADD26C,1.700000*%
%TD*%
%TA.AperFunction,ComponentPad*%
%ADD27C,2.000000*%
%TD*%
%TA.AperFunction,SMDPad,CuDef*%
%ADD28R,1.140000X0.300000*%
%TD*%
%TA.AperFunction,ComponentPad*%
%ADD29C,0.600000*%
%TD*%
%TA.AperFunction,SMDPad,CuDef*%
%ADD30R,1.000000X0.800000*%
%TD*%
%TA.AperFunction,ComponentPad*%
%ADD31O,1.000000X1.000000*%
%TD*%
%TA.AperFunction,ComponentPad*%
%ADD32R,1.000000X1.000000*%
%TD*%
%TA.AperFunction,ComponentPad*%
%ADD33C,1.524000*%
%TD*%
%TA.AperFunction,SMDPad,CuDef*%
%ADD34R,0.200000X0.200000*%
%TD*%
%TA.AperFunction,SMDPad,CuDef*%
%ADD35C,0.500000*%
%TD*%
%TA.AperFunction,SMDPad,CuDef*%
%ADD36R,2.500000X2.500000*%
%TD*%
%TA.AperFunction,SMDPad,CuDef*%
%ADD37R,1.200000X0.800000*%
%TD*%
%TA.AperFunction,SMDPad,CuDef*%
%ADD38R,0.900000X2.000000*%
%TD*%
%TA.AperFunction,SMDPad,CuDef*%
%ADD39R,2.000000X0.900000*%
%TD*%
%TA.AperFunction,SMDPad,CuDef*%
%ADD40R,5.000000X5.000000*%
%TD*%
%TA.AperFunction,ViaPad*%
%ADD41C,0.800000*%
%TD*%
%TA.AperFunction,Conductor*%
%ADD42C,0.250000*%
%TD*%
%TA.AperFunction,Conductor*%
%ADD43C,0.500000*%
%TD*%
%TA.AperFunction,Conductor*%
%ADD44C,0.254000*%
%TD*%
%TA.AperFunction,Conductor*%
%ADD45C,0.100000*%
%TD*%
G04 APERTURE END LIST*
D10*
%TO.C,Reg1*%
X133500000Y-90300000D02*
X132050000Y-90300000D01*
X133500000Y-90300000D02*
X133500000Y-89800000D01*
X136850000Y-92550000D02*
X137700000Y-92550000D01*
X136850000Y-92550000D02*
X136850000Y-89800000D01*
D11*
X135400000Y-93800000D02*
X134000000Y-93800000D01*
X135250000Y-93800000D02*
X135250000Y-95800000D01*
D10*
X135250000Y-95800000D02*
X133750000Y-95800000D01*
X133750000Y-96800000D02*
X136350000Y-96800000D01*
X136350000Y-96800000D02*
X136350000Y-90300000D01*
X134000000Y-91500000D02*
X134000000Y-90300000D01*
X134000000Y-90300000D02*
X136350000Y-90300000D01*
X132050000Y-91500000D02*
X132050000Y-90300000D01*
X133500000Y-89800000D02*
X136850000Y-89800000D01*
X133750000Y-97550000D02*
X133750000Y-96800000D01*
%TO.C,Reg2*%
X142620000Y-90300000D02*
X141170000Y-90300000D01*
X142620000Y-90300000D02*
X142620000Y-89800000D01*
X145970000Y-92550000D02*
X146820000Y-92550000D01*
X145970000Y-92550000D02*
X145970000Y-89800000D01*
D11*
X144520000Y-93800000D02*
X143120000Y-93800000D01*
X144370000Y-93800000D02*
X144370000Y-95800000D01*
D10*
X144370000Y-95800000D02*
X142870000Y-95800000D01*
X142870000Y-96800000D02*
X145470000Y-96800000D01*
X145470000Y-96800000D02*
X145470000Y-90300000D01*
X143120000Y-91500000D02*
X143120000Y-90300000D01*
X143120000Y-90300000D02*
X145470000Y-90300000D01*
X141170000Y-91500000D02*
X141170000Y-90300000D01*
X142620000Y-89800000D02*
X145970000Y-89800000D01*
X142870000Y-97550000D02*
X142870000Y-96800000D01*
%TD*%
D12*
%TO.P,Reg1,4*%
%TO.N,+3V3*%
X137800000Y-93500000D03*
%TA.AperFunction,SMDPad,CuDef*%
G36*
G01*
X137215165Y-97188388D02*
X137038388Y-97365165D01*
G75*
G02*
X136861612Y-97365165I-88388J88388D01*
G01*
X136684835Y-97188388D01*
G75*
G02*
X136684835Y-97011612I88388J88388D01*
G01*
X136861612Y-96834835D01*
G75*
G02*
X137038388Y-96834835I88388J-88388D01*
G01*
X137215165Y-97011612D01*
G75*
G02*
X137215165Y-97188388I-88388J-88388D01*
G01*
G37*
%TD.AperFunction*%
%TA.AperFunction,SMDPad,CuDef*%
G36*
G01*
X136750000Y-97075000D02*
X136750000Y-96825000D01*
G75*
G02*
X136875000Y-96700000I125000J0D01*
G01*
X137125000Y-96700000D01*
G75*
G02*
X137250000Y-96825000I0J-125000D01*
G01*
X137250000Y-97075000D01*
G75*
G02*
X137125000Y-97200000I-125000J0D01*
G01*
X136875000Y-97200000D01*
G75*
G02*
X136750000Y-97075000I0J125000D01*
G01*
G37*
%TD.AperFunction*%
%TA.AperFunction,SMDPad,CuDef*%
D13*
G36*
X137230330Y-97173223D02*
G01*
X136523223Y-97880330D01*
X136169670Y-97526777D01*
X136876777Y-96819670D01*
X137230330Y-97173223D01*
G37*
%TD.AperFunction*%
%TO.P,Reg1,2*%
%TO.N,+12V*%
%TA.AperFunction,SMDPad,CuDef*%
G36*
G01*
X132750000Y-95125000D02*
X132750000Y-94875000D01*
G75*
G02*
X132875000Y-94750000I125000J0D01*
G01*
X133125000Y-94750000D01*
G75*
G02*
X133250000Y-94875000I0J-125000D01*
G01*
X133250000Y-95125000D01*
G75*
G02*
X133125000Y-95250000I-125000J0D01*
G01*
X132875000Y-95250000D01*
G75*
G02*
X132750000Y-95125000I0J125000D01*
G01*
G37*
%TD.AperFunction*%
%TA.AperFunction,SMDPad,CuDef*%
G36*
G01*
X133215165Y-95238388D02*
X133038388Y-95415165D01*
G75*
G02*
X132861612Y-95415165I-88388J88388D01*
G01*
X132684835Y-95238388D01*
G75*
G02*
X132684835Y-95061612I88388J88388D01*
G01*
X132861612Y-94884835D01*
G75*
G02*
X133038388Y-94884835I88388J-88388D01*
G01*
X133215165Y-95061612D01*
G75*
G02*
X133215165Y-95238388I-88388J-88388D01*
G01*
G37*
%TD.AperFunction*%
D14*
X133000000Y-94650000D03*
%TA.AperFunction,SMDPad,CuDef*%
D13*
G36*
X133230330Y-95223223D02*
G01*
X132523223Y-95930330D01*
X132169670Y-95576777D01*
X132876777Y-94869670D01*
X133230330Y-95223223D01*
G37*
%TD.AperFunction*%
D14*
%TO.P,Reg1,3*%
%TO.N,GND*%
X138250000Y-97150000D03*
X138250000Y-96300000D03*
X133000000Y-92050000D03*
D15*
X133000000Y-92650000D03*
D14*
X138250000Y-96800000D03*
%TO.P,Reg1,4*%
%TO.N,+3V3*%
%TA.AperFunction,SMDPad,CuDef*%
G36*
G01*
X136750000Y-93625000D02*
X136750000Y-93375000D01*
G75*
G02*
X136875000Y-93250000I125000J0D01*
G01*
X137125000Y-93250000D01*
G75*
G02*
X137250000Y-93375000I0J-125000D01*
G01*
X137250000Y-93625000D01*
G75*
G02*
X137125000Y-93750000I-125000J0D01*
G01*
X136875000Y-93750000D01*
G75*
G02*
X136750000Y-93625000I0J125000D01*
G01*
G37*
%TD.AperFunction*%
D12*
X137400000Y-93500000D03*
D16*
X137000000Y-95200000D03*
%TO.P,Reg1,~*%
%TO.N,N/C*%
%TA.AperFunction,SMDPad,CuDef*%
G36*
G01*
X134550000Y-96175626D02*
X134550000Y-94924374D01*
G75*
G02*
X134799374Y-94675000I249374J0D01*
G01*
X135725626Y-94675000D01*
G75*
G02*
X135975000Y-94924374I0J-249374D01*
G01*
X135975000Y-96175626D01*
G75*
G02*
X135725626Y-96425000I-249374J0D01*
G01*
X134799374Y-96425000D01*
G75*
G02*
X134550000Y-96175626I0J249374D01*
G01*
G37*
%TD.AperFunction*%
%TO.P,Reg1,3*%
%TO.N,GND*%
%TA.AperFunction,SMDPad,CuDef*%
G36*
G01*
X137525000Y-96175626D02*
X137525000Y-94924374D01*
G75*
G02*
X137774374Y-94675000I249374J0D01*
G01*
X138700626Y-94675000D01*
G75*
G02*
X138950000Y-94924374I0J-249374D01*
G01*
X138950000Y-96175626D01*
G75*
G02*
X138700626Y-96425000I-249374J0D01*
G01*
X137774374Y-96425000D01*
G75*
G02*
X137525000Y-96175626I0J249374D01*
G01*
G37*
%TD.AperFunction*%
D17*
X133000000Y-92800000D03*
D15*
X133000000Y-92400000D03*
D18*
%TO.P,Reg1,4*%
%TO.N,+3V3*%
X138250000Y-92550000D03*
%TO.P,Reg1,~*%
%TO.N,N/C*%
X135250000Y-92550000D03*
%TO.P,Reg1,3*%
%TO.N,GND*%
%TA.AperFunction,SMDPad,CuDef*%
G36*
G01*
X137700000Y-98250450D02*
X137700000Y-97349550D01*
G75*
G02*
X137949550Y-97100000I249550J0D01*
G01*
X138600450Y-97100000D01*
G75*
G02*
X138850000Y-97349550I0J-249550D01*
G01*
X138850000Y-98250450D01*
G75*
G02*
X138600450Y-98500000I-249550J0D01*
G01*
X137949550Y-98500000D01*
G75*
G02*
X137700000Y-98250450I0J249550D01*
G01*
G37*
%TD.AperFunction*%
%TO.P,Reg1,4*%
%TO.N,+3V3*%
%TA.AperFunction,SMDPad,CuDef*%
G36*
G01*
X135650000Y-98250450D02*
X135650000Y-97349550D01*
G75*
G02*
X135899550Y-97100000I249550J0D01*
G01*
X136550450Y-97100000D01*
G75*
G02*
X136800000Y-97349550I0J-249550D01*
G01*
X136800000Y-98250450D01*
G75*
G02*
X136550450Y-98500000I-249550J0D01*
G01*
X135899550Y-98500000D01*
G75*
G02*
X135650000Y-98250450I0J249550D01*
G01*
G37*
%TD.AperFunction*%
%TO.P,Reg1,3*%
%TO.N,GND*%
%TA.AperFunction,SMDPad,CuDef*%
G36*
G01*
X132737500Y-98200000D02*
X132262500Y-98200000D01*
G75*
G02*
X132025000Y-97962500I0J237500D01*
G01*
X132025000Y-97362500D01*
G75*
G02*
X132262500Y-97125000I237500J0D01*
G01*
X132737500Y-97125000D01*
G75*
G02*
X132975000Y-97362500I0J-237500D01*
G01*
X132975000Y-97962500D01*
G75*
G02*
X132737500Y-98200000I-237500J0D01*
G01*
G37*
%TD.AperFunction*%
%TO.P,Reg1,2*%
%TO.N,+12V*%
%TA.AperFunction,SMDPad,CuDef*%
G36*
G01*
X132737500Y-96475000D02*
X132262500Y-96475000D01*
G75*
G02*
X132025000Y-96237500I0J237500D01*
G01*
X132025000Y-95637500D01*
G75*
G02*
X132262500Y-95400000I237500J0D01*
G01*
X132737500Y-95400000D01*
G75*
G02*
X132975000Y-95637500I0J-237500D01*
G01*
X132975000Y-96237500D01*
G75*
G02*
X132737500Y-96475000I-237500J0D01*
G01*
G37*
%TD.AperFunction*%
%TO.P,Reg1,~*%
%TO.N,N/C*%
%TA.AperFunction,SMDPad,CuDef*%
G36*
G01*
X133987500Y-98200000D02*
X133512500Y-98200000D01*
G75*
G02*
X133275000Y-97962500I0J237500D01*
G01*
X133275000Y-97362500D01*
G75*
G02*
X133512500Y-97125000I237500J0D01*
G01*
X133987500Y-97125000D01*
G75*
G02*
X134225000Y-97362500I0J-237500D01*
G01*
X134225000Y-97962500D01*
G75*
G02*
X133987500Y-98200000I-237500J0D01*
G01*
G37*
%TD.AperFunction*%
%TA.AperFunction,SMDPad,CuDef*%
G36*
G01*
X133987500Y-96475000D02*
X133512500Y-96475000D01*
G75*
G02*
X133275000Y-96237500I0J237500D01*
G01*
X133275000Y-95637500D01*
G75*
G02*
X133512500Y-95400000I237500J0D01*
G01*
X133987500Y-95400000D01*
G75*
G02*
X134225000Y-95637500I0J-237500D01*
G01*
X134225000Y-96237500D01*
G75*
G02*
X133987500Y-96475000I-237500J0D01*
G01*
G37*
%TD.AperFunction*%
D19*
%TO.P,Reg1,1*%
%TO.N,+12V*%
X132050000Y-94150000D03*
%TO.P,Reg1,2*%
X133000000Y-94150000D03*
%TO.P,Reg1,~*%
%TO.N,N/C*%
X133950000Y-94150000D03*
X133950000Y-91450000D03*
X132050000Y-91450000D03*
%TO.P,Reg1,3*%
%TO.N,GND*%
X133000000Y-91450000D03*
%TD*%
%TO.P,D1,2*%
%TO.N,VBUS*%
%TA.AperFunction,SMDPad,CuDef*%
G36*
G01*
X138275000Y-88625000D02*
X138275000Y-87375000D01*
G75*
G02*
X138525000Y-87125000I250000J0D01*
G01*
X139450000Y-87125000D01*
G75*
G02*
X139700000Y-87375000I0J-250000D01*
G01*
X139700000Y-88625000D01*
G75*
G02*
X139450000Y-88875000I-250000J0D01*
G01*
X138525000Y-88875000D01*
G75*
G02*
X138275000Y-88625000I0J250000D01*
G01*
G37*
%TD.AperFunction*%
%TO.P,D1,1*%
%TO.N,+12V*%
%TA.AperFunction,SMDPad,CuDef*%
G36*
G01*
X135300000Y-88625000D02*
X135300000Y-87375000D01*
G75*
G02*
X135550000Y-87125000I250000J0D01*
G01*
X136475000Y-87125000D01*
G75*
G02*
X136725000Y-87375000I0J-250000D01*
G01*
X136725000Y-88625000D01*
G75*
G02*
X136475000Y-88875000I-250000J0D01*
G01*
X135550000Y-88875000D01*
G75*
G02*
X135300000Y-88625000I0J250000D01*
G01*
G37*
%TD.AperFunction*%
%TD*%
D20*
%TO.P,H1,1*%
%TO.N,GND*%
X129500000Y-81250000D03*
X127250000Y-83500000D03*
X129500000Y-85750000D03*
X131750000Y-83500000D03*
D21*
X129500000Y-83500000D03*
%TD*%
D22*
%TO.P,Q1,3*%
%TO.N,Net-(Q1-Pad3)*%
X145250000Y-87500000D03*
%TO.P,Q1,2*%
%TO.N,GND*%
X143250000Y-88450000D03*
%TO.P,Q1,1*%
%TO.N,Net-(Q1-Pad1)*%
X143250000Y-86550000D03*
%TD*%
D23*
%TO.P,J3,3*%
%TO.N,Net-(J3-Pad3)*%
X134000000Y-72650000D03*
%TO.P,J3,2*%
%TO.N,Net-(J3-Pad2)*%
X136500000Y-72650000D03*
%TO.P,J3,1*%
%TO.N,GND*%
%TA.AperFunction,ComponentPad*%
G36*
G01*
X139850000Y-71975000D02*
X139850000Y-73325000D01*
G75*
G02*
X139600000Y-73575000I-250000J0D01*
G01*
X138400000Y-73575000D01*
G75*
G02*
X138150000Y-73325000I0J250000D01*
G01*
X138150000Y-71975000D01*
G75*
G02*
X138400000Y-71725000I250000J0D01*
G01*
X139600000Y-71725000D01*
G75*
G02*
X139850000Y-71975000I0J-250000D01*
G01*
G37*
%TD.AperFunction*%
%TD*%
%TO.P,J2,2*%
%TO.N,+12V*%
X144500000Y-72650000D03*
%TO.P,J2,1*%
%TO.N,GND*%
%TA.AperFunction,ComponentPad*%
G36*
G01*
X147850000Y-71975000D02*
X147850000Y-73325000D01*
G75*
G02*
X147600000Y-73575000I-250000J0D01*
G01*
X146400000Y-73575000D01*
G75*
G02*
X146150000Y-73325000I0J250000D01*
G01*
X146150000Y-71975000D01*
G75*
G02*
X146400000Y-71725000I250000J0D01*
G01*
X147600000Y-71725000D01*
G75*
G02*
X147850000Y-71975000I0J-250000D01*
G01*
G37*
%TD.AperFunction*%
%TD*%
%TO.P,J5,6*%
%TO.N,Net-(J5-Pad6)*%
X103000000Y-72650000D03*
%TO.P,J5,5*%
%TO.N,GND*%
X105500000Y-72650000D03*
%TO.P,J5,4*%
%TO.N,Net-(J5-Pad4)*%
X108000000Y-72650000D03*
%TO.P,J5,3*%
%TO.N,GND*%
X110500000Y-72650000D03*
%TO.P,J5,2*%
%TO.N,Net-(J5-Pad2)*%
X113000000Y-72650000D03*
%TO.P,J5,1*%
%TO.N,GND*%
%TA.AperFunction,ComponentPad*%
G36*
G01*
X116350000Y-71975000D02*
X116350000Y-73325000D01*
G75*
G02*
X116100000Y-73575000I-250000J0D01*
G01*
X114900000Y-73575000D01*
G75*
G02*
X114650000Y-73325000I0J250000D01*
G01*
X114650000Y-71975000D01*
G75*
G02*
X114900000Y-71725000I250000J0D01*
G01*
X116100000Y-71725000D01*
G75*
G02*
X116350000Y-71975000I0J-250000D01*
G01*
G37*
%TD.AperFunction*%
%TD*%
%TO.P,J4,4*%
%TO.N,RFTX*%
X121000000Y-72650000D03*
%TO.P,J4,3*%
%TO.N,RFRX*%
X123500000Y-72650000D03*
%TO.P,J4,2*%
%TO.N,+5V*%
X126000000Y-72650000D03*
%TO.P,J4,1*%
%TO.N,GND*%
%TA.AperFunction,ComponentPad*%
G36*
G01*
X129350000Y-71975000D02*
X129350000Y-73325000D01*
G75*
G02*
X129100000Y-73575000I-250000J0D01*
G01*
X127900000Y-73575000D01*
G75*
G02*
X127650000Y-73325000I0J250000D01*
G01*
X127650000Y-71975000D01*
G75*
G02*
X127900000Y-71725000I250000J0D01*
G01*
X129100000Y-71725000D01*
G75*
G02*
X129350000Y-71975000I0J-250000D01*
G01*
G37*
%TD.AperFunction*%
%TD*%
%TO.P,D2,2*%
%TO.N,+3V3*%
%TA.AperFunction,SMDPad,CuDef*%
G36*
G01*
X127362500Y-98650000D02*
X127837500Y-98650000D01*
G75*
G02*
X128075000Y-98887500I0J-237500D01*
G01*
X128075000Y-99462500D01*
G75*
G02*
X127837500Y-99700000I-237500J0D01*
G01*
X127362500Y-99700000D01*
G75*
G02*
X127125000Y-99462500I0J237500D01*
G01*
X127125000Y-98887500D01*
G75*
G02*
X127362500Y-98650000I237500J0D01*
G01*
G37*
%TD.AperFunction*%
%TO.P,D2,1*%
%TO.N,Net-(D2-Pad1)*%
%TA.AperFunction,SMDPad,CuDef*%
G36*
G01*
X127362500Y-96900000D02*
X127837500Y-96900000D01*
G75*
G02*
X128075000Y-97137500I0J-237500D01*
G01*
X128075000Y-97712500D01*
G75*
G02*
X127837500Y-97950000I-237500J0D01*
G01*
X127362500Y-97950000D01*
G75*
G02*
X127125000Y-97712500I0J237500D01*
G01*
X127125000Y-97137500D01*
G75*
G02*
X127362500Y-96900000I237500J0D01*
G01*
G37*
%TD.AperFunction*%
%TD*%
D24*
%TO.P,J1,S1*%
%TO.N,GND*%
X147950000Y-80100000D03*
D25*
%TO.P,J1,A12*%
X143835000Y-76900000D03*
%TO.P,J1,A4*%
%TO.N,VBUS*%
X143835000Y-82500000D03*
%TO.P,J1,B12*%
%TO.N,GND*%
X143835000Y-83300000D03*
%TO.P,J1,B4*%
%TO.N,VBUS*%
X143835000Y-77700000D03*
D26*
%TO.P,J1,S1*%
%TO.N,GND*%
X148605000Y-75775000D03*
X148605000Y-84425000D03*
D27*
X144425000Y-75775000D03*
X144425000Y-84425000D03*
D28*
%TO.P,J1,A7*%
%TO.N,Net-(J1-PadA7)*%
X143835000Y-79850000D03*
%TO.P,J1,A6*%
%TO.N,Net-(J1-PadA6)*%
X143835000Y-80350000D03*
%TO.P,J1,B6*%
X143835000Y-79350000D03*
%TO.P,J1,B7*%
%TO.N,Net-(J1-PadA7)*%
X143835000Y-80850000D03*
%TO.P,J1,A8*%
%TO.N,Net-(J1-PadA8)*%
X143835000Y-78850000D03*
%TO.P,J1,A5*%
%TO.N,Net-(J1-PadA5)*%
X143835000Y-81350000D03*
%TO.P,J1,B5*%
%TO.N,Net-(J1-PadB5)*%
X143835000Y-78350000D03*
%TO.P,J1,B8*%
%TO.N,Net-(J1-PadB8)*%
X143835000Y-81850000D03*
D25*
%TO.P,J1,A9*%
%TO.N,VBUS*%
X143835000Y-77700000D03*
%TO.P,J1,B9*%
X143835000Y-82500000D03*
%TO.P,J1,B1*%
%TO.N,GND*%
X143835000Y-76900000D03*
D29*
%TO.P,J1,S1*%
X144905000Y-77210000D03*
X144905000Y-82990000D03*
D25*
%TO.P,J1,A1*%
X143835000Y-83300000D03*
%TD*%
D12*
%TO.P,Reg2,4*%
%TO.N,+5V*%
X146920000Y-93500000D03*
%TA.AperFunction,SMDPad,CuDef*%
G36*
G01*
X146335165Y-97188388D02*
X146158388Y-97365165D01*
G75*
G02*
X145981612Y-97365165I-88388J88388D01*
G01*
X145804835Y-97188388D01*
G75*
G02*
X145804835Y-97011612I88388J88388D01*
G01*
X145981612Y-96834835D01*
G75*
G02*
X146158388Y-96834835I88388J-88388D01*
G01*
X146335165Y-97011612D01*
G75*
G02*
X146335165Y-97188388I-88388J-88388D01*
G01*
G37*
%TD.AperFunction*%
%TA.AperFunction,SMDPad,CuDef*%
G36*
G01*
X145870000Y-97075000D02*
X145870000Y-96825000D01*
G75*
G02*
X145995000Y-96700000I125000J0D01*
G01*
X146245000Y-96700000D01*
G75*
G02*
X146370000Y-96825000I0J-125000D01*
G01*
X146370000Y-97075000D01*
G75*
G02*
X146245000Y-97200000I-125000J0D01*
G01*
X145995000Y-97200000D01*
G75*
G02*
X145870000Y-97075000I0J125000D01*
G01*
G37*
%TD.AperFunction*%
%TA.AperFunction,SMDPad,CuDef*%
D13*
G36*
X146350330Y-97173223D02*
G01*
X145643223Y-97880330D01*
X145289670Y-97526777D01*
X145996777Y-96819670D01*
X146350330Y-97173223D01*
G37*
%TD.AperFunction*%
%TO.P,Reg2,2*%
%TO.N,+12V*%
%TA.AperFunction,SMDPad,CuDef*%
G36*
G01*
X141870000Y-95125000D02*
X141870000Y-94875000D01*
G75*
G02*
X141995000Y-94750000I125000J0D01*
G01*
X142245000Y-94750000D01*
G75*
G02*
X142370000Y-94875000I0J-125000D01*
G01*
X142370000Y-95125000D01*
G75*
G02*
X142245000Y-95250000I-125000J0D01*
G01*
X141995000Y-95250000D01*
G75*
G02*
X141870000Y-95125000I0J125000D01*
G01*
G37*
%TD.AperFunction*%
%TA.AperFunction,SMDPad,CuDef*%
G36*
G01*
X142335165Y-95238388D02*
X142158388Y-95415165D01*
G75*
G02*
X141981612Y-95415165I-88388J88388D01*
G01*
X141804835Y-95238388D01*
G75*
G02*
X141804835Y-95061612I88388J88388D01*
G01*
X141981612Y-94884835D01*
G75*
G02*
X142158388Y-94884835I88388J-88388D01*
G01*
X142335165Y-95061612D01*
G75*
G02*
X142335165Y-95238388I-88388J-88388D01*
G01*
G37*
%TD.AperFunction*%
D14*
X142120000Y-94650000D03*
%TA.AperFunction,SMDPad,CuDef*%
D13*
G36*
X142350330Y-95223223D02*
G01*
X141643223Y-95930330D01*
X141289670Y-95576777D01*
X141996777Y-94869670D01*
X142350330Y-95223223D01*
G37*
%TD.AperFunction*%
D14*
%TO.P,Reg2,3*%
%TO.N,GND*%
X147370000Y-97150000D03*
X147370000Y-96300000D03*
X142120000Y-92050000D03*
D15*
X142120000Y-92650000D03*
D14*
X147370000Y-96800000D03*
%TO.P,Reg2,4*%
%TO.N,+5V*%
%TA.AperFunction,SMDPad,CuDef*%
G36*
G01*
X145870000Y-93625000D02*
X145870000Y-93375000D01*
G75*
G02*
X145995000Y-93250000I125000J0D01*
G01*
X146245000Y-93250000D01*
G75*
G02*
X146370000Y-93375000I0J-125000D01*
G01*
X146370000Y-93625000D01*
G75*
G02*
X146245000Y-93750000I-125000J0D01*
G01*
X145995000Y-93750000D01*
G75*
G02*
X145870000Y-93625000I0J125000D01*
G01*
G37*
%TD.AperFunction*%
D12*
X146520000Y-93500000D03*
D16*
X146120000Y-95200000D03*
%TO.P,Reg2,~*%
%TO.N,N/C*%
%TA.AperFunction,SMDPad,CuDef*%
G36*
G01*
X143670000Y-96175626D02*
X143670000Y-94924374D01*
G75*
G02*
X143919374Y-94675000I249374J0D01*
G01*
X144845626Y-94675000D01*
G75*
G02*
X145095000Y-94924374I0J-249374D01*
G01*
X145095000Y-96175626D01*
G75*
G02*
X144845626Y-96425000I-249374J0D01*
G01*
X143919374Y-96425000D01*
G75*
G02*
X143670000Y-96175626I0J249374D01*
G01*
G37*
%TD.AperFunction*%
%TO.P,Reg2,3*%
%TO.N,GND*%
%TA.AperFunction,SMDPad,CuDef*%
G36*
G01*
X146645000Y-96175626D02*
X146645000Y-94924374D01*
G75*
G02*
X146894374Y-94675000I249374J0D01*
G01*
X147820626Y-94675000D01*
G75*
G02*
X148070000Y-94924374I0J-249374D01*
G01*
X148070000Y-96175626D01*
G75*
G02*
X147820626Y-96425000I-249374J0D01*
G01*
X146894374Y-96425000D01*
G75*
G02*
X146645000Y-96175626I0J249374D01*
G01*
G37*
%TD.AperFunction*%
D17*
X142120000Y-92800000D03*
D15*
X142120000Y-92400000D03*
D18*
%TO.P,Reg2,4*%
%TO.N,+5V*%
X147370000Y-92550000D03*
%TO.P,Reg2,~*%
%TO.N,N/C*%
X144370000Y-92550000D03*
%TO.P,Reg2,3*%
%TO.N,GND*%
%TA.AperFunction,SMDPad,CuDef*%
G36*
G01*
X146820000Y-98250450D02*
X146820000Y-97349550D01*
G75*
G02*
X147069550Y-97100000I249550J0D01*
G01*
X147720450Y-97100000D01*
G75*
G02*
X147970000Y-97349550I0J-249550D01*
G01*
X147970000Y-98250450D01*
G75*
G02*
X147720450Y-98500000I-249550J0D01*
G01*
X147069550Y-98500000D01*
G75*
G02*
X146820000Y-98250450I0J249550D01*
G01*
G37*
%TD.AperFunction*%
%TO.P,Reg2,4*%
%TO.N,+5V*%
%TA.AperFunction,SMDPad,CuDef*%
G36*
G01*
X144770000Y-98250450D02*
X144770000Y-97349550D01*
G75*
G02*
X145019550Y-97100000I249550J0D01*
G01*
X145670450Y-97100000D01*
G75*
G02*
X145920000Y-97349550I0J-249550D01*
G01*
X145920000Y-98250450D01*
G75*
G02*
X145670450Y-98500000I-249550J0D01*
G01*
X145019550Y-98500000D01*
G75*
G02*
X144770000Y-98250450I0J249550D01*
G01*
G37*
%TD.AperFunction*%
%TO.P,Reg2,3*%
%TO.N,GND*%
%TA.AperFunction,SMDPad,CuDef*%
G36*
G01*
X141857500Y-98200000D02*
X141382500Y-98200000D01*
G75*
G02*
X141145000Y-97962500I0J237500D01*
G01*
X141145000Y-97362500D01*
G75*
G02*
X141382500Y-97125000I237500J0D01*
G01*
X141857500Y-97125000D01*
G75*
G02*
X142095000Y-97362500I0J-237500D01*
G01*
X142095000Y-97962500D01*
G75*
G02*
X141857500Y-98200000I-237500J0D01*
G01*
G37*
%TD.AperFunction*%
%TO.P,Reg2,2*%
%TO.N,+12V*%
%TA.AperFunction,SMDPad,CuDef*%
G36*
G01*
X141857500Y-96475000D02*
X141382500Y-96475000D01*
G75*
G02*
X141145000Y-96237500I0J237500D01*
G01*
X141145000Y-95637500D01*
G75*
G02*
X141382500Y-95400000I237500J0D01*
G01*
X141857500Y-95400000D01*
G75*
G02*
X142095000Y-95637500I0J-237500D01*
G01*
X142095000Y-96237500D01*
G75*
G02*
X141857500Y-96475000I-237500J0D01*
G01*
G37*
%TD.AperFunction*%
%TO.P,Reg2,~*%
%TO.N,N/C*%
%TA.AperFunction,SMDPad,CuDef*%
G36*
G01*
X143107500Y-98200000D02*
X142632500Y-98200000D01*
G75*
G02*
X142395000Y-97962500I0J237500D01*
G01*
X142395000Y-97362500D01*
G75*
G02*
X142632500Y-97125000I237500J0D01*
G01*
X143107500Y-97125000D01*
G75*
G02*
X143345000Y-97362500I0J-237500D01*
G01*
X143345000Y-97962500D01*
G75*
G02*
X143107500Y-98200000I-237500J0D01*
G01*
G37*
%TD.AperFunction*%
%TA.AperFunction,SMDPad,CuDef*%
G36*
G01*
X143107500Y-96475000D02*
X142632500Y-96475000D01*
G75*
G02*
X142395000Y-96237500I0J237500D01*
G01*
X142395000Y-95637500D01*
G75*
G02*
X142632500Y-95400000I237500J0D01*
G01*
X143107500Y-95400000D01*
G75*
G02*
X143345000Y-95637500I0J-237500D01*
G01*
X143345000Y-96237500D01*
G75*
G02*
X143107500Y-96475000I-237500J0D01*
G01*
G37*
%TD.AperFunction*%
D19*
%TO.P,Reg2,1*%
%TO.N,Net-(Q1-Pad3)*%
X141170000Y-94150000D03*
%TO.P,Reg2,2*%
%TO.N,+12V*%
X142120000Y-94150000D03*
%TO.P,Reg2,~*%
%TO.N,N/C*%
X143070000Y-94150000D03*
X143070000Y-91450000D03*
X141170000Y-91450000D03*
%TO.P,Reg2,3*%
%TO.N,GND*%
X142120000Y-91450000D03*
%TD*%
D30*
%TO.P,U5,4*%
%TO.N,IN3*%
X113750000Y-76730000D03*
%TO.P,U5,3*%
%TO.N,GND*%
X113750000Y-79270000D03*
%TO.P,U5,2*%
%TO.N,Net-(J5-Pad6)*%
X107250000Y-79270000D03*
%TO.P,U5,1*%
%TO.N,Net-(R4-Pad1)*%
X107250000Y-76730000D03*
%TD*%
%TO.P,U4,4*%
%TO.N,IN2*%
X122750000Y-76730000D03*
%TO.P,U4,3*%
%TO.N,GND*%
X122750000Y-79270000D03*
%TO.P,U4,2*%
%TO.N,Net-(J5-Pad4)*%
X116250000Y-79270000D03*
%TO.P,U4,1*%
%TO.N,Net-(R3-Pad1)*%
X116250000Y-76730000D03*
%TD*%
%TO.P,U3,4*%
%TO.N,IN1*%
X131750000Y-76730000D03*
%TO.P,U3,3*%
%TO.N,GND*%
X131750000Y-79270000D03*
%TO.P,U3,2*%
%TO.N,Net-(J5-Pad2)*%
X125250000Y-79270000D03*
%TO.P,U3,1*%
%TO.N,Net-(R2-Pad1)*%
X125250000Y-76730000D03*
%TD*%
D31*
%TO.P,JP1,2*%
%TO.N,Net-(J3-Pad2)*%
X142100000Y-76970000D03*
D32*
%TO.P,JP1,1*%
%TO.N,+12V*%
X142100000Y-75700000D03*
%TD*%
D33*
%TO.P,U6,21*%
%TO.N,GND*%
X137500000Y-83000000D03*
D34*
%TO.P,U6,~*%
%TO.N,N/C*%
X135500000Y-85000000D03*
X139500000Y-81000000D03*
X139500000Y-85000000D03*
X135500000Y-81000000D03*
D35*
X135500000Y-85000000D03*
D36*
%TO.P,U6,21*%
%TO.N,GND*%
X137500000Y-83000000D03*
%TO.P,U6,20*%
%TO.N,+3V3*%
%TA.AperFunction,SMDPad,CuDef*%
G36*
G01*
X135912500Y-84125000D02*
X135037500Y-84125000D01*
G75*
G02*
X134975000Y-84062500I0J62500D01*
G01*
X134975000Y-83937500D01*
G75*
G02*
X135037500Y-83875000I62500J0D01*
G01*
X135912500Y-83875000D01*
G75*
G02*
X135975000Y-83937500I0J-62500D01*
G01*
X135975000Y-84062500D01*
G75*
G02*
X135912500Y-84125000I-62500J0D01*
G01*
G37*
%TD.AperFunction*%
%TO.P,U6,19*%
%TO.N,EN*%
%TA.AperFunction,SMDPad,CuDef*%
G36*
G01*
X135912500Y-83625000D02*
X135037500Y-83625000D01*
G75*
G02*
X134975000Y-83562500I0J62500D01*
G01*
X134975000Y-83437500D01*
G75*
G02*
X135037500Y-83375000I62500J0D01*
G01*
X135912500Y-83375000D01*
G75*
G02*
X135975000Y-83437500I0J-62500D01*
G01*
X135975000Y-83562500D01*
G75*
G02*
X135912500Y-83625000I-62500J0D01*
G01*
G37*
%TD.AperFunction*%
%TO.P,U6,18*%
%TO.N,CBUS0*%
%TA.AperFunction,SMDPad,CuDef*%
G36*
G01*
X135912500Y-83125000D02*
X135037500Y-83125000D01*
G75*
G02*
X134975000Y-83062500I0J62500D01*
G01*
X134975000Y-82937500D01*
G75*
G02*
X135037500Y-82875000I62500J0D01*
G01*
X135912500Y-82875000D01*
G75*
G02*
X135975000Y-82937500I0J-62500D01*
G01*
X135975000Y-83062500D01*
G75*
G02*
X135912500Y-83125000I-62500J0D01*
G01*
G37*
%TD.AperFunction*%
%TO.P,U6,17*%
%TO.N,I*%
%TA.AperFunction,SMDPad,CuDef*%
G36*
G01*
X135912500Y-82625000D02*
X135037500Y-82625000D01*
G75*
G02*
X134975000Y-82562500I0J62500D01*
G01*
X134975000Y-82437500D01*
G75*
G02*
X135037500Y-82375000I62500J0D01*
G01*
X135912500Y-82375000D01*
G75*
G02*
X135975000Y-82437500I0J-62500D01*
G01*
X135975000Y-82562500D01*
G75*
G02*
X135912500Y-82625000I-62500J0D01*
G01*
G37*
%TD.AperFunction*%
%TO.P,U6,16*%
%TO.N,Net-(U6-Pad16)*%
%TA.AperFunction,SMDPad,CuDef*%
G36*
G01*
X135912500Y-82125000D02*
X135037500Y-82125000D01*
G75*
G02*
X134975000Y-82062500I0J62500D01*
G01*
X134975000Y-81937500D01*
G75*
G02*
X135037500Y-81875000I62500J0D01*
G01*
X135912500Y-81875000D01*
G75*
G02*
X135975000Y-81937500I0J-62500D01*
G01*
X135975000Y-82062500D01*
G75*
G02*
X135912500Y-82125000I-62500J0D01*
G01*
G37*
%TD.AperFunction*%
%TO.P,U6,15*%
%TO.N,Net-(U6-Pad15)*%
%TA.AperFunction,SMDPad,CuDef*%
G36*
G01*
X136562500Y-81475000D02*
X136437500Y-81475000D01*
G75*
G02*
X136375000Y-81412500I0J62500D01*
G01*
X136375000Y-80537500D01*
G75*
G02*
X136437500Y-80475000I62500J0D01*
G01*
X136562500Y-80475000D01*
G75*
G02*
X136625000Y-80537500I0J-62500D01*
G01*
X136625000Y-81412500D01*
G75*
G02*
X136562500Y-81475000I-62500J0D01*
G01*
G37*
%TD.AperFunction*%
%TO.P,U6,14*%
%TO.N,Net-(U6-Pad14)*%
%TA.AperFunction,SMDPad,CuDef*%
G36*
G01*
X137062500Y-81475000D02*
X136937500Y-81475000D01*
G75*
G02*
X136875000Y-81412500I0J62500D01*
G01*
X136875000Y-80537500D01*
G75*
G02*
X136937500Y-80475000I62500J0D01*
G01*
X137062500Y-80475000D01*
G75*
G02*
X137125000Y-80537500I0J-62500D01*
G01*
X137125000Y-81412500D01*
G75*
G02*
X137062500Y-81475000I-62500J0D01*
G01*
G37*
%TD.AperFunction*%
%TO.P,U6,13*%
%TO.N,GND*%
%TA.AperFunction,SMDPad,CuDef*%
G36*
G01*
X137562500Y-81475000D02*
X137437500Y-81475000D01*
G75*
G02*
X137375000Y-81412500I0J62500D01*
G01*
X137375000Y-80537500D01*
G75*
G02*
X137437500Y-80475000I62500J0D01*
G01*
X137562500Y-80475000D01*
G75*
G02*
X137625000Y-80537500I0J-62500D01*
G01*
X137625000Y-81412500D01*
G75*
G02*
X137562500Y-81475000I-62500J0D01*
G01*
G37*
%TD.AperFunction*%
%TO.P,U6,12*%
%TO.N,+3V3*%
%TA.AperFunction,SMDPad,CuDef*%
G36*
G01*
X138062500Y-81475000D02*
X137937500Y-81475000D01*
G75*
G02*
X137875000Y-81412500I0J62500D01*
G01*
X137875000Y-80537500D01*
G75*
G02*
X137937500Y-80475000I62500J0D01*
G01*
X138062500Y-80475000D01*
G75*
G02*
X138125000Y-80537500I0J-62500D01*
G01*
X138125000Y-81412500D01*
G75*
G02*
X138062500Y-81475000I-62500J0D01*
G01*
G37*
%TD.AperFunction*%
%TO.P,U6,11*%
%TA.AperFunction,SMDPad,CuDef*%
G36*
G01*
X138562500Y-81475000D02*
X138437500Y-81475000D01*
G75*
G02*
X138375000Y-81412500I0J62500D01*
G01*
X138375000Y-80537500D01*
G75*
G02*
X138437500Y-80475000I62500J0D01*
G01*
X138562500Y-80475000D01*
G75*
G02*
X138625000Y-80537500I0J-62500D01*
G01*
X138625000Y-81412500D01*
G75*
G02*
X138562500Y-81475000I-62500J0D01*
G01*
G37*
%TD.AperFunction*%
%TO.P,U6,10*%
%TA.AperFunction,SMDPad,CuDef*%
G36*
G01*
X139962500Y-82125000D02*
X139087500Y-82125000D01*
G75*
G02*
X139025000Y-82062500I0J62500D01*
G01*
X139025000Y-81937500D01*
G75*
G02*
X139087500Y-81875000I62500J0D01*
G01*
X139962500Y-81875000D01*
G75*
G02*
X140025000Y-81937500I0J-62500D01*
G01*
X140025000Y-82062500D01*
G75*
G02*
X139962500Y-82125000I-62500J0D01*
G01*
G37*
%TD.AperFunction*%
%TO.P,U6,9*%
%TO.N,D-*%
%TA.AperFunction,SMDPad,CuDef*%
G36*
G01*
X139962500Y-82625000D02*
X139087500Y-82625000D01*
G75*
G02*
X139025000Y-82562500I0J62500D01*
G01*
X139025000Y-82437500D01*
G75*
G02*
X139087500Y-82375000I62500J0D01*
G01*
X139962500Y-82375000D01*
G75*
G02*
X140025000Y-82437500I0J-62500D01*
G01*
X140025000Y-82562500D01*
G75*
G02*
X139962500Y-82625000I-62500J0D01*
G01*
G37*
%TD.AperFunction*%
%TO.P,U6,8*%
%TO.N,D+*%
%TA.AperFunction,SMDPad,CuDef*%
G36*
G01*
X139962500Y-83125000D02*
X139087500Y-83125000D01*
G75*
G02*
X139025000Y-83062500I0J62500D01*
G01*
X139025000Y-82937500D01*
G75*
G02*
X139087500Y-82875000I62500J0D01*
G01*
X139962500Y-82875000D01*
G75*
G02*
X140025000Y-82937500I0J-62500D01*
G01*
X140025000Y-83062500D01*
G75*
G02*
X139962500Y-83125000I-62500J0D01*
G01*
G37*
%TD.AperFunction*%
%TO.P,U6,7*%
%TO.N,Net-(U6-Pad7)*%
%TA.AperFunction,SMDPad,CuDef*%
G36*
G01*
X139962500Y-83625000D02*
X139087500Y-83625000D01*
G75*
G02*
X139025000Y-83562500I0J62500D01*
G01*
X139025000Y-83437500D01*
G75*
G02*
X139087500Y-83375000I62500J0D01*
G01*
X139962500Y-83375000D01*
G75*
G02*
X140025000Y-83437500I0J-62500D01*
G01*
X140025000Y-83562500D01*
G75*
G02*
X139962500Y-83625000I-62500J0D01*
G01*
G37*
%TD.AperFunction*%
%TO.P,U6,6*%
%TO.N,GND*%
%TA.AperFunction,SMDPad,CuDef*%
G36*
G01*
X139962500Y-84125000D02*
X139087500Y-84125000D01*
G75*
G02*
X139025000Y-84062500I0J62500D01*
G01*
X139025000Y-83937500D01*
G75*
G02*
X139087500Y-83875000I62500J0D01*
G01*
X139962500Y-83875000D01*
G75*
G02*
X140025000Y-83937500I0J-62500D01*
G01*
X140025000Y-84062500D01*
G75*
G02*
X139962500Y-84125000I-62500J0D01*
G01*
G37*
%TD.AperFunction*%
%TO.P,U6,5*%
%TA.AperFunction,SMDPad,CuDef*%
G36*
G01*
X138562500Y-85525000D02*
X138437500Y-85525000D01*
G75*
G02*
X138375000Y-85462500I0J62500D01*
G01*
X138375000Y-84587500D01*
G75*
G02*
X138437500Y-84525000I62500J0D01*
G01*
X138562500Y-84525000D01*
G75*
G02*
X138625000Y-84587500I0J-62500D01*
G01*
X138625000Y-85462500D01*
G75*
G02*
X138562500Y-85525000I-62500J0D01*
G01*
G37*
%TD.AperFunction*%
%TO.P,U6,4*%
%TA.AperFunction,SMDPad,CuDef*%
G36*
G01*
X138062500Y-85525000D02*
X137937500Y-85525000D01*
G75*
G02*
X137875000Y-85462500I0J62500D01*
G01*
X137875000Y-84587500D01*
G75*
G02*
X137937500Y-84525000I62500J0D01*
G01*
X138062500Y-84525000D01*
G75*
G02*
X138125000Y-84587500I0J-62500D01*
G01*
X138125000Y-85462500D01*
G75*
G02*
X138062500Y-85525000I-62500J0D01*
G01*
G37*
%TD.AperFunction*%
%TO.P,U6,3*%
%TA.AperFunction,SMDPad,CuDef*%
G36*
G01*
X137562500Y-85525000D02*
X137437500Y-85525000D01*
G75*
G02*
X137375000Y-85462500I0J62500D01*
G01*
X137375000Y-84587500D01*
G75*
G02*
X137437500Y-84525000I62500J0D01*
G01*
X137562500Y-84525000D01*
G75*
G02*
X137625000Y-84587500I0J-62500D01*
G01*
X137625000Y-85462500D01*
G75*
G02*
X137562500Y-85525000I-62500J0D01*
G01*
G37*
%TD.AperFunction*%
%TO.P,U6,2*%
%TA.AperFunction,SMDPad,CuDef*%
G36*
G01*
X137062500Y-85525000D02*
X136937500Y-85525000D01*
G75*
G02*
X136875000Y-85462500I0J62500D01*
G01*
X136875000Y-84587500D01*
G75*
G02*
X136937500Y-84525000I62500J0D01*
G01*
X137062500Y-84525000D01*
G75*
G02*
X137125000Y-84587500I0J-62500D01*
G01*
X137125000Y-85462500D01*
G75*
G02*
X137062500Y-85525000I-62500J0D01*
G01*
G37*
%TD.AperFunction*%
%TO.P,U6,1*%
%TO.N,O*%
%TA.AperFunction,SMDPad,CuDef*%
G36*
G01*
X136562500Y-85525000D02*
X136437500Y-85525000D01*
G75*
G02*
X136375000Y-85462500I0J62500D01*
G01*
X136375000Y-84587500D01*
G75*
G02*
X136437500Y-84525000I62500J0D01*
G01*
X136562500Y-84525000D01*
G75*
G02*
X136625000Y-84587500I0J-62500D01*
G01*
X136625000Y-85462500D01*
G75*
G02*
X136562500Y-85525000I-62500J0D01*
G01*
G37*
%TD.AperFunction*%
%TD*%
D37*
%TO.P,U2,1*%
%TO.N,Net-(R1-Pad1)*%
X140000000Y-79270000D03*
%TO.P,U2,2*%
%TO.N,GND*%
X140000000Y-76730000D03*
%TO.P,U2,3*%
%TO.N,Net-(J3-Pad3)*%
X134000000Y-76730000D03*
%TO.P,U2,4*%
%TO.N,Net-(J3-Pad2)*%
X134000000Y-79270000D03*
%TD*%
D38*
%TO.P,U1,38*%
%TO.N,GND*%
X107500000Y-81850000D03*
%TO.P,U1,37*%
%TO.N,Net-(U1-Pad37)*%
X108770000Y-81850000D03*
%TO.P,U1,36*%
%TO.N,IN3*%
X110040000Y-81850000D03*
%TO.P,U1,35*%
%TO.N,O*%
X111310000Y-81850000D03*
%TO.P,U1,34*%
%TO.N,I*%
X112580000Y-81850000D03*
%TO.P,U1,33*%
%TO.N,IN2*%
X113850000Y-81850000D03*
%TO.P,U1,32*%
%TO.N,Net-(U1-Pad32)*%
X115120000Y-81850000D03*
%TO.P,U1,31*%
%TO.N,Net-(U1-Pad31)*%
X116390000Y-81850000D03*
%TO.P,U1,30*%
%TO.N,IN1*%
X117660000Y-81850000D03*
%TO.P,U1,29*%
%TO.N,SHDN*%
X118930000Y-81850000D03*
%TO.P,U1,28*%
%TO.N,RFTX*%
X120200000Y-81850000D03*
%TO.P,U1,27*%
%TO.N,RFRX*%
X121470000Y-81850000D03*
%TO.P,U1,26*%
%TO.N,Net-(U1-Pad26)*%
X122740000Y-81850000D03*
%TO.P,U1,25*%
%TO.N,CBUS0*%
X124010000Y-81850000D03*
D39*
%TO.P,U1,24*%
%TO.N,Net-(U1-Pad24)*%
X125010000Y-84635000D03*
%TO.P,U1,23*%
%TO.N,OUT1*%
X125010000Y-85905000D03*
%TO.P,U1,22*%
%TO.N,Net-(U1-Pad22)*%
X125010000Y-87175000D03*
%TO.P,U1,21*%
%TO.N,Net-(U1-Pad21)*%
X125010000Y-88445000D03*
%TO.P,U1,20*%
%TO.N,Net-(U1-Pad20)*%
X125010000Y-89715000D03*
%TO.P,U1,19*%
%TO.N,Net-(U1-Pad19)*%
X125010000Y-90985000D03*
%TO.P,U1,18*%
%TO.N,Net-(U1-Pad18)*%
X125010000Y-92255000D03*
%TO.P,U1,17*%
%TO.N,Net-(U1-Pad17)*%
X125010000Y-93525000D03*
%TO.P,U1,16*%
%TO.N,Net-(U1-Pad16)*%
X125010000Y-94795000D03*
%TO.P,U1,15*%
%TO.N,GND*%
X125010000Y-96065000D03*
D38*
%TO.P,U1,14*%
%TO.N,LED*%
X124010000Y-98850000D03*
%TO.P,U1,13*%
%TO.N,Net-(U1-Pad13)*%
X122740000Y-98850000D03*
%TO.P,U1,12*%
%TO.N,Net-(U1-Pad12)*%
X121470000Y-98850000D03*
%TO.P,U1,11*%
%TO.N,Net-(U1-Pad11)*%
X120200000Y-98850000D03*
%TO.P,U1,10*%
%TO.N,Net-(U1-Pad10)*%
X118930000Y-98850000D03*
%TO.P,U1,9*%
%TO.N,Net-(U1-Pad9)*%
X117660000Y-98850000D03*
%TO.P,U1,8*%
%TO.N,Net-(U1-Pad8)*%
X116390000Y-98850000D03*
%TO.P,U1,7*%
%TO.N,Net-(U1-Pad7)*%
X115120000Y-98850000D03*
%TO.P,U1,6*%
%TO.N,Net-(U1-Pad6)*%
X113850000Y-98850000D03*
%TO.P,U1,5*%
%TO.N,GND*%
X112580000Y-98850000D03*
%TO.P,U1,4*%
X111310000Y-98850000D03*
%TO.P,U1,3*%
%TO.N,EN*%
X110040000Y-98850000D03*
%TO.P,U1,2*%
%TO.N,+3V3*%
X108770000Y-98850000D03*
%TO.P,U1,1*%
%TO.N,GND*%
X107500000Y-98850000D03*
D40*
%TO.P,U1,39*%
X115000000Y-91350000D03*
%TD*%
D41*
%TO.N,+3V3*%
X133071825Y-77924990D03*
X117400000Y-95000000D03*
X126600000Y-99100000D03*
%TO.N,GND*%
X138300000Y-99100000D03*
X127500000Y-91100000D03*
%TO.N,RFTX*%
X120225010Y-83737340D03*
%TO.N,RFRX*%
X121300000Y-83800000D03*
%TO.N,+5V*%
X146401048Y-85598952D03*
%TO.N,D-*%
X140903062Y-82802645D03*
%TO.N,D+*%
X141100000Y-84100000D03*
%TO.N,Net-(Q1-Pad1)*%
X142148344Y-87010946D03*
%TO.N,Net-(R1-Pad1)*%
X138550000Y-78000000D03*
%TO.N,Net-(R2-Pad1)*%
X126946429Y-76548252D03*
%TO.N,Net-(R3-Pad1)*%
X117854610Y-76659893D03*
%TO.N,OUT1*%
X123200000Y-85776045D03*
%TO.N,Net-(R4-Pad1)*%
X108800000Y-76300000D03*
%TO.N,SHDN*%
X119574223Y-95951096D03*
%TO.N,LED*%
X128799979Y-94100000D03*
%TO.N,O*%
X111600000Y-87400000D03*
X136330105Y-85816348D03*
%TO.N,I*%
X113000000Y-86300000D03*
X134221435Y-82044132D03*
%TO.N,CBUS0*%
X123048625Y-87226056D03*
X134101361Y-83036909D03*
%TO.N,EN*%
X134015745Y-84576631D03*
X120493195Y-87089510D03*
%TO.N,+12V*%
X140100000Y-98200000D03*
X131132868Y-95967447D03*
X136012500Y-88000000D03*
%TO.N,Net-(J1-PadA7)*%
X141249465Y-79181686D03*
X140374990Y-81160807D03*
%TO.N,Net-(J1-PadA6)*%
X140980948Y-80144974D03*
X142235633Y-78936681D03*
%TO.N,Net-(J1-PadA5)*%
X142600000Y-81500000D03*
%TO.N,Net-(J1-PadB5)*%
X141774244Y-78049470D03*
%TO.N,Net-(Q1-Pad3)*%
X139800000Y-94875000D03*
X140996755Y-89002163D03*
%TO.N,Net-(D2-Pad1)*%
X128700000Y-97400000D03*
%TD*%
D42*
%TO.N,+3V3*%
X138500000Y-80975000D02*
X139525000Y-82000000D01*
X138500000Y-80975000D02*
X138500000Y-79900000D01*
X138000000Y-80975000D02*
X138000000Y-79900000D01*
X138000000Y-79900000D02*
X138500000Y-79900000D01*
X133071825Y-80071825D02*
X133071825Y-77924990D01*
X133071825Y-84571825D02*
X133071825Y-84728175D01*
X108770000Y-98850000D02*
X108770000Y-96530000D01*
X108770000Y-96530000D02*
X110300000Y-95000000D01*
X110300000Y-95000000D02*
X117400000Y-95000000D01*
X134740755Y-84059245D02*
X134740755Y-85040755D01*
X134800000Y-84000000D02*
X134740755Y-84059245D01*
X135475000Y-84000000D02*
X134800000Y-84000000D01*
X134740755Y-85040755D02*
X134409686Y-85371825D01*
X134409686Y-86409686D02*
X134600000Y-86600000D01*
X134409686Y-85371825D02*
X134409686Y-86409686D01*
X133328175Y-85371825D02*
X134409686Y-85371825D01*
X133071825Y-85115475D02*
X133328175Y-85371825D01*
X133071825Y-84571825D02*
X133071825Y-85115475D01*
X126600000Y-99100000D02*
X127525000Y-99100000D01*
X134600000Y-86600000D02*
X137100000Y-86600000D01*
X137100000Y-86600000D02*
X137636410Y-87136410D01*
X137636410Y-87136410D02*
X137636410Y-88563590D01*
X128165685Y-98962500D02*
X127600000Y-98962500D01*
X129624989Y-97503196D02*
X128165685Y-98962500D01*
X129624989Y-89675011D02*
X129624989Y-97503196D01*
X137636410Y-89136410D02*
X137572810Y-89200010D01*
X137636410Y-88563590D02*
X137636410Y-89136410D01*
X137572810Y-89200010D02*
X130100010Y-89200010D01*
X129625009Y-89675011D02*
X129624989Y-89675011D01*
X130100010Y-89200010D02*
X129625009Y-89675011D01*
X139268205Y-93131795D02*
X138600000Y-93800000D01*
X139268205Y-90168205D02*
X139268205Y-93131795D01*
X138300010Y-89200010D02*
X139268205Y-90168205D01*
X137572810Y-89200010D02*
X138300010Y-89200010D01*
X138250000Y-92550000D02*
X138250000Y-93450000D01*
X133088649Y-80444999D02*
X133071825Y-80428175D01*
X135964001Y-80444999D02*
X133088649Y-80444999D01*
X133071825Y-80071825D02*
X133071825Y-80428175D01*
X138000000Y-79900000D02*
X137904999Y-79995001D01*
X137904999Y-79995001D02*
X136413999Y-79995001D01*
X133071825Y-80428175D02*
X133071825Y-84571825D01*
X136413999Y-79995001D02*
X135964001Y-80444999D01*
%TO.N,VBUS*%
X144490002Y-77700000D02*
X144800000Y-78009998D01*
X143835000Y-77700000D02*
X144490002Y-77700000D01*
X144490002Y-82500000D02*
X143835000Y-82500000D01*
X144800000Y-82190002D02*
X144490002Y-82500000D01*
X144800000Y-78009998D02*
X144800000Y-82190002D01*
D43*
X139461235Y-86038765D02*
X138987500Y-86512500D01*
X142600000Y-84177530D02*
X140738765Y-86038765D01*
X140738765Y-86038765D02*
X139461235Y-86038765D01*
X142600000Y-82665000D02*
X142600000Y-84177530D01*
X138987500Y-86512500D02*
X138987500Y-88000000D01*
X142765000Y-82500000D02*
X142600000Y-82665000D01*
X143835000Y-82500000D02*
X142765000Y-82500000D01*
D42*
%TO.N,GND*%
X144905000Y-76255000D02*
X144425000Y-75775000D01*
X144905000Y-77210000D02*
X144905000Y-76255000D01*
X143835000Y-76365000D02*
X144425000Y-75775000D01*
X143835000Y-76900000D02*
X143835000Y-76365000D01*
X144905000Y-83945000D02*
X144425000Y-84425000D01*
X144905000Y-82990000D02*
X144905000Y-83945000D01*
X143835000Y-83835000D02*
X144425000Y-84425000D01*
X143835000Y-83300000D02*
X143835000Y-83835000D01*
X148605000Y-80755000D02*
X147950000Y-80100000D01*
X148605000Y-84425000D02*
X148605000Y-80755000D01*
X148605000Y-79445000D02*
X147950000Y-80100000D01*
X148605000Y-75775000D02*
X148605000Y-79445000D01*
X147950000Y-79300000D02*
X147950000Y-80100000D01*
X144425000Y-75775000D02*
X147950000Y-79300000D01*
X147950000Y-80900000D02*
X147950000Y-80100000D01*
X144425000Y-84425000D02*
X147950000Y-80900000D01*
X131750000Y-79270000D02*
X131750000Y-78150000D01*
X131750000Y-78150000D02*
X132800000Y-77100000D01*
X132800000Y-77100000D02*
X132800000Y-75300000D01*
X123475001Y-79995001D02*
X126004999Y-79995001D01*
X122750000Y-79270000D02*
X123475001Y-79995001D01*
X126004999Y-79995001D02*
X129000000Y-77000000D01*
X129000000Y-77000000D02*
X129000000Y-75300000D01*
X129000000Y-75300000D02*
X128300000Y-74600000D01*
X137000000Y-83500000D02*
X137500000Y-83000000D01*
X137000000Y-85025000D02*
X137000000Y-83500000D01*
X137500000Y-85025000D02*
X137500000Y-83000000D01*
X138000000Y-83500000D02*
X137500000Y-83000000D01*
X138000000Y-85025000D02*
X138000000Y-83500000D01*
X138500000Y-85025000D02*
X138500000Y-84000000D01*
X138500000Y-84000000D02*
X137500000Y-83000000D01*
X139525000Y-84000000D02*
X138500000Y-84000000D01*
X137500000Y-80975000D02*
X137500000Y-83000000D01*
D43*
X132100000Y-80900000D02*
X129400000Y-83600000D01*
X129370000Y-79270000D02*
X131750000Y-79270000D01*
X128530000Y-79270000D02*
X129370000Y-79270000D01*
X126800000Y-81000000D02*
X128530000Y-79270000D01*
X129400000Y-83600000D02*
X126800000Y-81000000D01*
X133100000Y-92800000D02*
X131100000Y-92800000D01*
X132719999Y-92680001D02*
X131119999Y-92680001D01*
X131119999Y-92680001D02*
X130200000Y-93600000D01*
X130200000Y-93600000D02*
X130200000Y-98000000D01*
X130200000Y-98000000D02*
X131400000Y-99200000D01*
X126231814Y-96065000D02*
X126724989Y-95571825D01*
X126724989Y-95571825D02*
X126724989Y-91875011D01*
X125010000Y-96065000D02*
X126231814Y-96065000D01*
X126724989Y-91875011D02*
X127500000Y-91100000D01*
X110500000Y-74075000D02*
X110500000Y-72650000D01*
X110499999Y-79113189D02*
X110500000Y-74075000D01*
X109768178Y-79845010D02*
X110499999Y-79113189D01*
X108514987Y-79845011D02*
X109768178Y-79845010D01*
X107500000Y-80859998D02*
X108514987Y-79845011D01*
X107500000Y-81850000D02*
X107500000Y-80859998D01*
X144425000Y-84425000D02*
X145424999Y-85424999D01*
X140962500Y-87327464D02*
X140962500Y-87047904D01*
X145424999Y-86014997D02*
X146750000Y-87339998D01*
X145424999Y-85424999D02*
X145424999Y-86014997D01*
X146750000Y-87750000D02*
X146750000Y-88250000D01*
X146750000Y-87339998D02*
X146750000Y-87750000D01*
X132400000Y-97762500D02*
X132500000Y-97662500D01*
X132400000Y-99200000D02*
X132400000Y-97762500D01*
X131400000Y-99200000D02*
X132400000Y-99200000D01*
X141620000Y-99180000D02*
X141620000Y-97662500D01*
X141600000Y-99200000D02*
X141620000Y-99180000D01*
X138300000Y-99200000D02*
X138300000Y-97825000D01*
X132400000Y-99200000D02*
X138300000Y-99200000D01*
X138300000Y-99200000D02*
X141600000Y-99200000D01*
X141600000Y-99200000D02*
X147200000Y-99200000D01*
X147395000Y-99005000D02*
X147395000Y-97800000D01*
X147200000Y-99200000D02*
X147395000Y-99005000D01*
X140300000Y-92800000D02*
X142220000Y-92800000D01*
X139843216Y-89930028D02*
X139843216Y-92343216D01*
X139843216Y-92343216D02*
X140300000Y-92800000D01*
X139828165Y-89236801D02*
X139828165Y-89914977D01*
X140150010Y-88914956D02*
X139828165Y-89236801D01*
X140150010Y-87860394D02*
X140150010Y-88914956D01*
X139828165Y-89914977D02*
X139843216Y-89930028D01*
X140962500Y-87047904D02*
X140150010Y-87860394D01*
X140962500Y-86939006D02*
X143476506Y-84425000D01*
X143476506Y-84425000D02*
X144425000Y-84425000D01*
X140962500Y-87047904D02*
X140962500Y-86939006D01*
D42*
X143250000Y-89150000D02*
X146550000Y-89150000D01*
X146550000Y-89150000D02*
X146750000Y-88950000D01*
X143250000Y-88450000D02*
X143250000Y-89150000D01*
X146750000Y-88950000D02*
X146750000Y-87750000D01*
%TO.N,RFTX*%
X120200000Y-83712330D02*
X120225010Y-83737340D01*
X120200000Y-81850000D02*
X120200000Y-83712330D01*
%TO.N,RFRX*%
X121300000Y-82020000D02*
X121470000Y-81850000D01*
X121300000Y-83800000D02*
X121300000Y-82020000D01*
D43*
%TO.N,+5V*%
X149200000Y-88397904D02*
X146401048Y-85598952D01*
X149200000Y-92320000D02*
X149200000Y-88397904D01*
X147720000Y-93800000D02*
X149200000Y-92320000D01*
D42*
X147370000Y-92550000D02*
X147370000Y-93670000D01*
%TO.N,D-*%
X140600417Y-82500000D02*
X140903062Y-82802645D01*
X139525000Y-82500000D02*
X140600417Y-82500000D01*
%TO.N,D+*%
X141100000Y-84026978D02*
X141100000Y-84100000D01*
X140073022Y-83000000D02*
X141100000Y-84026978D01*
X139525000Y-83000000D02*
X140073022Y-83000000D01*
%TO.N,Net-(Q1-Pad1)*%
X143250000Y-86550000D02*
X142789054Y-87010946D01*
X142789054Y-87010946D02*
X142148344Y-87010946D01*
%TO.N,Net-(R1-Pad1)*%
X139820000Y-79270000D02*
X138550000Y-78000000D01*
X140000000Y-79270000D02*
X139820000Y-79270000D01*
%TO.N,Net-(R2-Pad1)*%
X125250000Y-76730000D02*
X126764681Y-76730000D01*
X126764681Y-76730000D02*
X126946429Y-76548252D01*
%TO.N,Net-(R3-Pad1)*%
X116250000Y-76730000D02*
X117784503Y-76730000D01*
X117784503Y-76730000D02*
X117854610Y-76659893D01*
%TO.N,OUT1*%
X123328955Y-85905000D02*
X123200000Y-85776045D01*
X125010000Y-85905000D02*
X123328955Y-85905000D01*
%TO.N,Net-(R4-Pad1)*%
X108370000Y-76730000D02*
X108800000Y-76300000D01*
X107250000Y-76730000D02*
X108370000Y-76730000D01*
%TO.N,SHDN*%
X118930000Y-81850000D02*
X118930000Y-83993589D01*
X121218205Y-94307113D02*
X121062659Y-94462659D01*
X121218205Y-86281795D02*
X121218205Y-94307113D01*
X118930000Y-83993589D02*
X121218205Y-86281795D01*
X121062659Y-94462659D02*
X119574223Y-95951096D01*
%TO.N,LED*%
X128799979Y-96200021D02*
X128799979Y-94800021D01*
X128500000Y-96500000D02*
X128799979Y-96200021D01*
X128799979Y-94800021D02*
X128799979Y-94100000D01*
X127100000Y-96500000D02*
X128500000Y-96500000D01*
X126600000Y-97000000D02*
X127100000Y-96500000D01*
X124010000Y-98850000D02*
X125750000Y-98850000D01*
X126600000Y-98000000D02*
X126600000Y-97000000D01*
X125750000Y-98850000D02*
X126600000Y-98000000D01*
%TO.N,O*%
X111300000Y-81860000D02*
X111310000Y-81850000D01*
X111600000Y-82140000D02*
X111310000Y-81850000D01*
X111600000Y-87400000D02*
X111600000Y-82140000D01*
X136500000Y-85025000D02*
X136500000Y-85646453D01*
X136500000Y-85646453D02*
X136330105Y-85816348D01*
%TO.N,I*%
X112580000Y-85880000D02*
X113000000Y-86300000D01*
X112580000Y-81850000D02*
X112580000Y-85880000D01*
X134677303Y-82500000D02*
X134221435Y-82044132D01*
X135475000Y-82500000D02*
X134677303Y-82500000D01*
%TO.N,IN1*%
X118294989Y-80450009D02*
X126536803Y-80450009D01*
X117660000Y-81850000D02*
X117660000Y-81084998D01*
X117660000Y-81084998D02*
X118294989Y-80450009D01*
X126536803Y-80450009D02*
X130256812Y-76730000D01*
X130256812Y-76730000D02*
X131650000Y-76730000D01*
%TO.N,CBUS0*%
X122253598Y-85066402D02*
X122253598Y-86431029D01*
X124010000Y-81850000D02*
X124010000Y-83310000D01*
X122253598Y-86431029D02*
X123048625Y-87226056D01*
X124010000Y-83310000D02*
X122253598Y-85066402D01*
X135475000Y-83000000D02*
X134138270Y-83000000D01*
X134138270Y-83000000D02*
X134101361Y-83036909D01*
%TO.N,IN2*%
X113850000Y-81850000D02*
X113850000Y-80450000D01*
X114200000Y-80100000D02*
X117600000Y-80100000D01*
X117949991Y-79750009D02*
X120586401Y-79750009D01*
X117600000Y-80100000D02*
X117949991Y-79750009D01*
X120586401Y-79750009D02*
X122750000Y-77586410D01*
X113850000Y-80450000D02*
X114200000Y-80100000D01*
X122750000Y-77586410D02*
X122750000Y-76730000D01*
%TO.N,IN3*%
X110040000Y-81850000D02*
X110040000Y-80660000D01*
X113750000Y-76950000D02*
X113750000Y-76730000D01*
X110040000Y-80660000D02*
X113750000Y-76950000D01*
%TO.N,EN*%
X134663590Y-83500000D02*
X134015745Y-84147845D01*
X135475000Y-83500000D02*
X134663590Y-83500000D01*
X134015745Y-84147845D02*
X134015745Y-84576631D01*
X118774998Y-95725002D02*
X120493195Y-94006805D01*
X111550000Y-95650000D02*
X116976996Y-95650000D01*
X116976996Y-95650000D02*
X117051998Y-95725002D01*
X110040000Y-98850000D02*
X110040000Y-97160000D01*
X120493195Y-94006805D02*
X120493195Y-87089510D01*
X117051998Y-95725002D02*
X118774998Y-95725002D01*
X110040000Y-97160000D02*
X111550000Y-95650000D01*
D43*
%TO.N,+12V*%
X140862500Y-95937500D02*
X140100000Y-96700000D01*
X140100000Y-96700000D02*
X140100000Y-98200000D01*
X131162815Y-95937500D02*
X131132868Y-95967447D01*
X132600000Y-95937500D02*
X131162815Y-95937500D01*
X142100000Y-73700000D02*
X142100000Y-75700000D01*
X143200000Y-72600000D02*
X142100000Y-73700000D01*
X144450000Y-72600000D02*
X144500000Y-72650000D01*
X143200000Y-72600000D02*
X144450000Y-72600000D01*
X140862500Y-95937500D02*
X141620000Y-95937500D01*
D42*
X133000000Y-94150000D02*
X132050000Y-94150000D01*
%TO.N,Net-(J1-PadA7)*%
X143835000Y-79850000D02*
X142988262Y-79850000D01*
X142799953Y-79661691D02*
X141729470Y-79661691D01*
X142988262Y-79850000D02*
X142799953Y-79661691D01*
X141729470Y-79661691D02*
X141249465Y-79181686D01*
X142640438Y-80774998D02*
X142427153Y-80561713D01*
X143015000Y-80850000D02*
X142939998Y-80774998D01*
X141660531Y-80561713D02*
X141061437Y-81160807D01*
X143835000Y-80850000D02*
X143015000Y-80850000D01*
X142939998Y-80774998D02*
X142640438Y-80774998D01*
X142427153Y-80561713D02*
X141660531Y-80561713D01*
X141061437Y-81160807D02*
X140374990Y-81160807D01*
%TO.N,Net-(J1-PadA6)*%
X143835000Y-79350000D02*
X143124673Y-79350000D01*
X143124673Y-79350000D02*
X142711354Y-78936681D01*
X142711354Y-78936681D02*
X142235633Y-78936681D01*
X142613553Y-80111702D02*
X141014220Y-80111702D01*
X141014220Y-80111702D02*
X140980948Y-80144974D01*
X143835000Y-80350000D02*
X143159415Y-80350000D01*
X143134402Y-80324987D02*
X142826838Y-80324987D01*
X143159415Y-80350000D02*
X143134402Y-80324987D01*
X142826838Y-80324987D02*
X142613553Y-80111702D01*
%TO.N,Net-(J1-PadA5)*%
X143835000Y-81350000D02*
X142750000Y-81350000D01*
X142750000Y-81350000D02*
X142600000Y-81500000D01*
%TO.N,Net-(J1-PadB5)*%
X142721954Y-78350000D02*
X142421424Y-78049470D01*
X142421424Y-78049470D02*
X141774244Y-78049470D01*
X143835000Y-78350000D02*
X142721954Y-78350000D01*
D43*
%TO.N,Net-(J3-Pad3)*%
X134000000Y-76730000D02*
X134000000Y-72650000D01*
%TO.N,Net-(J3-Pad2)*%
X142000000Y-77000000D02*
X142136002Y-77000000D01*
X136700000Y-72600000D02*
X136700000Y-72800000D01*
X135385000Y-73765000D02*
X136500000Y-72650000D01*
X135385000Y-77885000D02*
X135385000Y-73765000D01*
X134000000Y-79270000D02*
X135385000Y-77885000D01*
X141392894Y-76970000D02*
X142100000Y-76970000D01*
X141149999Y-76727105D02*
X141392894Y-76970000D01*
X141149999Y-72285033D02*
X141149999Y-76727105D01*
X138025000Y-71125000D02*
X139989966Y-71125000D01*
X139989966Y-71125000D02*
X141149999Y-72285033D01*
X136500000Y-72650000D02*
X138025000Y-71125000D01*
D42*
%TO.N,Net-(J5-Pad6)*%
X109600000Y-74500000D02*
X109600000Y-77000000D01*
X107250000Y-79270000D02*
X107250000Y-77950000D01*
X107250000Y-77950000D02*
X107700000Y-77500000D01*
X109000000Y-77500000D02*
X109050000Y-77550000D01*
X107700000Y-77500000D02*
X109000000Y-77500000D01*
X109600000Y-77000000D02*
X109050000Y-77550000D01*
X104850000Y-74500000D02*
X103000000Y-72650000D01*
X109600000Y-74500000D02*
X104850000Y-74500000D01*
%TO.N,Net-(J5-Pad4)*%
X108000000Y-72650000D02*
X108000000Y-72100000D01*
X116250000Y-79270000D02*
X120430000Y-79270000D01*
X111675010Y-72088295D02*
X110986705Y-71399990D01*
X120430000Y-79270000D02*
X121363590Y-78336410D01*
X121363590Y-77061810D02*
X119489290Y-75187510D01*
X110986705Y-71399990D02*
X109250010Y-71399990D01*
X111675010Y-73811421D02*
X111675010Y-72088295D01*
X121363590Y-78336410D02*
X121363590Y-77061810D01*
X109250010Y-71399990D02*
X108000000Y-72650000D01*
X114443604Y-74318205D02*
X115312909Y-75187510D01*
X112181795Y-74318205D02*
X114443604Y-74318205D01*
X112181795Y-74318205D02*
X111675010Y-73811421D01*
X115312909Y-75187510D02*
X119489290Y-75187510D01*
%TO.N,Net-(J5-Pad2)*%
X115499308Y-74737499D02*
X113411809Y-72650000D01*
X119937499Y-74737499D02*
X115499308Y-74737499D01*
X121087499Y-75887499D02*
X119937499Y-74737499D01*
X113411809Y-72650000D02*
X113000000Y-72650000D01*
X126534178Y-75887499D02*
X121087499Y-75887499D01*
X126598427Y-75823250D02*
X126534178Y-75887499D01*
X127800000Y-76720000D02*
X127800000Y-76374998D01*
X127248252Y-75823250D02*
X126598427Y-75823250D01*
X127800000Y-76374998D02*
X127248252Y-75823250D01*
X125250000Y-79270000D02*
X127800000Y-76720000D01*
%TO.N,Net-(Q1-Pad3)*%
X140525000Y-94150000D02*
X139800000Y-94875000D01*
X140525000Y-94150000D02*
X141170000Y-94150000D01*
X142273919Y-87724999D02*
X140996755Y-89002163D01*
X145250000Y-87500000D02*
X145025001Y-87724999D01*
X145025001Y-87724999D02*
X142273919Y-87724999D01*
%TO.N,Net-(D2-Pad1)*%
X127625000Y-97400000D02*
X127600000Y-97425000D01*
X128700000Y-97400000D02*
X127625000Y-97400000D01*
%TD*%
D44*
%TO.N,GND*%
X149315001Y-99315000D02*
X128887986Y-99315000D01*
X130135992Y-98066995D01*
X130164990Y-98043197D01*
X130259963Y-97927472D01*
X130330535Y-97795443D01*
X130373992Y-97652182D01*
X130384989Y-97540529D01*
X130388666Y-97503196D01*
X130384989Y-97465863D01*
X130384989Y-96683279D01*
X130473094Y-96771384D01*
X130642612Y-96884652D01*
X130830970Y-96962673D01*
X131030929Y-97002447D01*
X131234807Y-97002447D01*
X131434766Y-96962673D01*
X131503384Y-96934250D01*
X131453577Y-97027433D01*
X131403752Y-97191684D01*
X131386928Y-97362500D01*
X131386928Y-97962500D01*
X131403752Y-98133316D01*
X131453577Y-98297567D01*
X131534488Y-98448942D01*
X131643377Y-98581623D01*
X131776058Y-98690512D01*
X131927433Y-98771423D01*
X132091684Y-98821248D01*
X132262500Y-98838072D01*
X132737500Y-98838072D01*
X132908316Y-98821248D01*
X133072567Y-98771423D01*
X133125000Y-98743397D01*
X133177433Y-98771423D01*
X133341684Y-98821248D01*
X133512500Y-98838072D01*
X133987500Y-98838072D01*
X134158316Y-98821248D01*
X134322567Y-98771423D01*
X134473942Y-98690512D01*
X134606623Y-98581623D01*
X134715512Y-98448942D01*
X134796423Y-98297567D01*
X134846248Y-98133316D01*
X134863072Y-97962500D01*
X134863072Y-97560000D01*
X135011928Y-97560000D01*
X135011928Y-98250450D01*
X135028983Y-98423616D01*
X135079494Y-98590128D01*
X135161519Y-98743586D01*
X135271906Y-98878094D01*
X135406414Y-98988481D01*
X135559872Y-99070506D01*
X135726384Y-99121017D01*
X135899550Y-99138072D01*
X136550450Y-99138072D01*
X136723616Y-99121017D01*
X136890128Y-99070506D01*
X137043586Y-98988481D01*
X137178094Y-98878094D01*
X137250000Y-98790476D01*
X137321906Y-98878094D01*
X137456414Y-98988481D01*
X137609872Y-99070506D01*
X137776384Y-99121017D01*
X137949550Y-99138072D01*
X138600450Y-99138072D01*
X138773616Y-99121017D01*
X138940128Y-99070506D01*
X139093586Y-98988481D01*
X139228094Y-98878094D01*
X139272307Y-98824220D01*
X139296063Y-98859774D01*
X139440226Y-99003937D01*
X139609744Y-99117205D01*
X139798102Y-99195226D01*
X139998061Y-99235000D01*
X140201939Y-99235000D01*
X140401898Y-99195226D01*
X140590256Y-99117205D01*
X140759774Y-99003937D01*
X140903937Y-98859774D01*
X140985198Y-98738158D01*
X141047433Y-98771423D01*
X141211684Y-98821248D01*
X141382500Y-98838072D01*
X141857500Y-98838072D01*
X142028316Y-98821248D01*
X142192567Y-98771423D01*
X142245000Y-98743397D01*
X142297433Y-98771423D01*
X142461684Y-98821248D01*
X142632500Y-98838072D01*
X143107500Y-98838072D01*
X143278316Y-98821248D01*
X143442567Y-98771423D01*
X143593942Y-98690512D01*
X143726623Y-98581623D01*
X143835512Y-98448942D01*
X143916423Y-98297567D01*
X143966248Y-98133316D01*
X143983072Y-97962500D01*
X143983072Y-97560000D01*
X144131928Y-97560000D01*
X144131928Y-98250450D01*
X144148983Y-98423616D01*
X144199494Y-98590128D01*
X144281519Y-98743586D01*
X144391906Y-98878094D01*
X144526414Y-98988481D01*
X144679872Y-99070506D01*
X144846384Y-99121017D01*
X145019550Y-99138072D01*
X145670450Y-99138072D01*
X145843616Y-99121017D01*
X146010128Y-99070506D01*
X146163586Y-98988481D01*
X146298094Y-98878094D01*
X146370000Y-98790476D01*
X146441906Y-98878094D01*
X146576414Y-98988481D01*
X146729872Y-99070506D01*
X146896384Y-99121017D01*
X147069550Y-99138072D01*
X147720450Y-99138072D01*
X147893616Y-99121017D01*
X148060128Y-99070506D01*
X148213586Y-98988481D01*
X148348094Y-98878094D01*
X148458481Y-98743586D01*
X148540506Y-98590128D01*
X148591017Y-98423616D01*
X148608072Y-98250450D01*
X148608072Y-97349550D01*
X148591017Y-97176384D01*
X148540506Y-97009872D01*
X148458481Y-96856414D01*
X148428199Y-96819515D01*
X148448145Y-96803145D01*
X148558510Y-96668665D01*
X148640519Y-96515237D01*
X148691020Y-96348758D01*
X148708072Y-96175626D01*
X148708072Y-94924374D01*
X148691020Y-94751242D01*
X148640519Y-94584763D01*
X148558510Y-94431335D01*
X148555363Y-94427501D01*
X148558072Y-94400000D01*
X148558072Y-94213506D01*
X149315001Y-93456578D01*
X149315001Y-99315000D01*
%TA.AperFunction,Conductor*%
D45*
G36*
X149315001Y-99315000D02*
G01*
X128887986Y-99315000D01*
X130135992Y-98066995D01*
X130164990Y-98043197D01*
X130259963Y-97927472D01*
X130330535Y-97795443D01*
X130373992Y-97652182D01*
X130384989Y-97540529D01*
X130388666Y-97503196D01*
X130384989Y-97465863D01*
X130384989Y-96683279D01*
X130473094Y-96771384D01*
X130642612Y-96884652D01*
X130830970Y-96962673D01*
X131030929Y-97002447D01*
X131234807Y-97002447D01*
X131434766Y-96962673D01*
X131503384Y-96934250D01*
X131453577Y-97027433D01*
X131403752Y-97191684D01*
X131386928Y-97362500D01*
X131386928Y-97962500D01*
X131403752Y-98133316D01*
X131453577Y-98297567D01*
X131534488Y-98448942D01*
X131643377Y-98581623D01*
X131776058Y-98690512D01*
X131927433Y-98771423D01*
X132091684Y-98821248D01*
X132262500Y-98838072D01*
X132737500Y-98838072D01*
X132908316Y-98821248D01*
X133072567Y-98771423D01*
X133125000Y-98743397D01*
X133177433Y-98771423D01*
X133341684Y-98821248D01*
X133512500Y-98838072D01*
X133987500Y-98838072D01*
X134158316Y-98821248D01*
X134322567Y-98771423D01*
X134473942Y-98690512D01*
X134606623Y-98581623D01*
X134715512Y-98448942D01*
X134796423Y-98297567D01*
X134846248Y-98133316D01*
X134863072Y-97962500D01*
X134863072Y-97560000D01*
X135011928Y-97560000D01*
X135011928Y-98250450D01*
X135028983Y-98423616D01*
X135079494Y-98590128D01*
X135161519Y-98743586D01*
X135271906Y-98878094D01*
X135406414Y-98988481D01*
X135559872Y-99070506D01*
X135726384Y-99121017D01*
X135899550Y-99138072D01*
X136550450Y-99138072D01*
X136723616Y-99121017D01*
X136890128Y-99070506D01*
X137043586Y-98988481D01*
X137178094Y-98878094D01*
X137250000Y-98790476D01*
X137321906Y-98878094D01*
X137456414Y-98988481D01*
X137609872Y-99070506D01*
X137776384Y-99121017D01*
X137949550Y-99138072D01*
X138600450Y-99138072D01*
X138773616Y-99121017D01*
X138940128Y-99070506D01*
X139093586Y-98988481D01*
X139228094Y-98878094D01*
X139272307Y-98824220D01*
X139296063Y-98859774D01*
X139440226Y-99003937D01*
X139609744Y-99117205D01*
X139798102Y-99195226D01*
X139998061Y-99235000D01*
X140201939Y-99235000D01*
X140401898Y-99195226D01*
X140590256Y-99117205D01*
X140759774Y-99003937D01*
X140903937Y-98859774D01*
X140985198Y-98738158D01*
X141047433Y-98771423D01*
X141211684Y-98821248D01*
X141382500Y-98838072D01*
X141857500Y-98838072D01*
X142028316Y-98821248D01*
X142192567Y-98771423D01*
X142245000Y-98743397D01*
X142297433Y-98771423D01*
X142461684Y-98821248D01*
X142632500Y-98838072D01*
X143107500Y-98838072D01*
X143278316Y-98821248D01*
X143442567Y-98771423D01*
X143593942Y-98690512D01*
X143726623Y-98581623D01*
X143835512Y-98448942D01*
X143916423Y-98297567D01*
X143966248Y-98133316D01*
X143983072Y-97962500D01*
X143983072Y-97560000D01*
X144131928Y-97560000D01*
X144131928Y-98250450D01*
X144148983Y-98423616D01*
X144199494Y-98590128D01*
X144281519Y-98743586D01*
X144391906Y-98878094D01*
X144526414Y-98988481D01*
X144679872Y-99070506D01*
X144846384Y-99121017D01*
X145019550Y-99138072D01*
X145670450Y-99138072D01*
X145843616Y-99121017D01*
X146010128Y-99070506D01*
X146163586Y-98988481D01*
X146298094Y-98878094D01*
X146370000Y-98790476D01*
X146441906Y-98878094D01*
X146576414Y-98988481D01*
X146729872Y-99070506D01*
X146896384Y-99121017D01*
X147069550Y-99138072D01*
X147720450Y-99138072D01*
X147893616Y-99121017D01*
X148060128Y-99070506D01*
X148213586Y-98988481D01*
X148348094Y-98878094D01*
X148458481Y-98743586D01*
X148540506Y-98590128D01*
X148591017Y-98423616D01*
X148608072Y-98250450D01*
X148608072Y-97349550D01*
X148591017Y-97176384D01*
X148540506Y-97009872D01*
X148458481Y-96856414D01*
X148428199Y-96819515D01*
X148448145Y-96803145D01*
X148558510Y-96668665D01*
X148640519Y-96515237D01*
X148691020Y-96348758D01*
X148708072Y-96175626D01*
X148708072Y-94924374D01*
X148691020Y-94751242D01*
X148640519Y-94584763D01*
X148558510Y-94431335D01*
X148555363Y-94427501D01*
X148558072Y-94400000D01*
X148558072Y-94213506D01*
X149315001Y-93456578D01*
X149315001Y-99315000D01*
G37*
%TD.AperFunction*%
D44*
X107627000Y-81723000D02*
X107647000Y-81723000D01*
X107647000Y-81977000D01*
X107627000Y-81977000D01*
X107627000Y-83326250D01*
X107785750Y-83485000D01*
X107950000Y-83488072D01*
X108074482Y-83475812D01*
X108135000Y-83457454D01*
X108195518Y-83475812D01*
X108320000Y-83488072D01*
X109220000Y-83488072D01*
X109344482Y-83475812D01*
X109405000Y-83457454D01*
X109465518Y-83475812D01*
X109590000Y-83488072D01*
X110490000Y-83488072D01*
X110614482Y-83475812D01*
X110675000Y-83457454D01*
X110735518Y-83475812D01*
X110840001Y-83486102D01*
X110840000Y-86696289D01*
X110796063Y-86740226D01*
X110682795Y-86909744D01*
X110604774Y-87098102D01*
X110565000Y-87298061D01*
X110565000Y-87501939D01*
X110604774Y-87701898D01*
X110682795Y-87890256D01*
X110796063Y-88059774D01*
X110940226Y-88203937D01*
X111109744Y-88317205D01*
X111298102Y-88395226D01*
X111498061Y-88435000D01*
X111701939Y-88435000D01*
X111901898Y-88395226D01*
X112090256Y-88317205D01*
X112259774Y-88203937D01*
X112403937Y-88059774D01*
X112517205Y-87890256D01*
X112595226Y-87701898D01*
X112635000Y-87501939D01*
X112635000Y-87298061D01*
X112628720Y-87266487D01*
X112698102Y-87295226D01*
X112898061Y-87335000D01*
X113101939Y-87335000D01*
X113301898Y-87295226D01*
X113490256Y-87217205D01*
X113659774Y-87103937D01*
X113803937Y-86959774D01*
X113917205Y-86790256D01*
X113995226Y-86601898D01*
X114035000Y-86401939D01*
X114035000Y-86198061D01*
X113995226Y-85998102D01*
X113917205Y-85809744D01*
X113803937Y-85640226D01*
X113659774Y-85496063D01*
X113490256Y-85382795D01*
X113340000Y-85320556D01*
X113340000Y-83482163D01*
X113400000Y-83488072D01*
X114300000Y-83488072D01*
X114424482Y-83475812D01*
X114485000Y-83457454D01*
X114545518Y-83475812D01*
X114670000Y-83488072D01*
X115570000Y-83488072D01*
X115694482Y-83475812D01*
X115755000Y-83457454D01*
X115815518Y-83475812D01*
X115940000Y-83488072D01*
X116840000Y-83488072D01*
X116964482Y-83475812D01*
X117025000Y-83457454D01*
X117085518Y-83475812D01*
X117210000Y-83488072D01*
X118110000Y-83488072D01*
X118170001Y-83482163D01*
X118170001Y-83956257D01*
X118166324Y-83993589D01*
X118170001Y-84030922D01*
X118174466Y-84076250D01*
X118180998Y-84142574D01*
X118224454Y-84285835D01*
X118295026Y-84417864D01*
X118352253Y-84487595D01*
X118390000Y-84533590D01*
X118418998Y-84557388D01*
X120024841Y-86163233D01*
X120002939Y-86172305D01*
X119833421Y-86285573D01*
X119689258Y-86429736D01*
X119575990Y-86599254D01*
X119497969Y-86787612D01*
X119458195Y-86987571D01*
X119458195Y-87191449D01*
X119497969Y-87391408D01*
X119575990Y-87579766D01*
X119689258Y-87749284D01*
X119733196Y-87793222D01*
X119733195Y-93692003D01*
X118460197Y-94965002D01*
X118435000Y-94965002D01*
X118435000Y-94898061D01*
X118395226Y-94698102D01*
X118317205Y-94509744D01*
X118203937Y-94340226D01*
X118059774Y-94196063D01*
X118041552Y-94183887D01*
X118089502Y-94094180D01*
X118125812Y-93974482D01*
X118138072Y-93850000D01*
X118135000Y-91635750D01*
X117976250Y-91477000D01*
X115127000Y-91477000D01*
X115127000Y-91497000D01*
X114873000Y-91497000D01*
X114873000Y-91477000D01*
X112023750Y-91477000D01*
X111865000Y-91635750D01*
X111861928Y-93850000D01*
X111874188Y-93974482D01*
X111910498Y-94094180D01*
X111969463Y-94204494D01*
X111998602Y-94240000D01*
X110337325Y-94240000D01*
X110300000Y-94236324D01*
X110262675Y-94240000D01*
X110262667Y-94240000D01*
X110151014Y-94250997D01*
X110007753Y-94294454D01*
X109875724Y-94365026D01*
X109759999Y-94459999D01*
X109736201Y-94488997D01*
X108258998Y-95966201D01*
X108230000Y-95989999D01*
X108206202Y-96018997D01*
X108206201Y-96018998D01*
X108135026Y-96105724D01*
X108064454Y-96237754D01*
X108052018Y-96278752D01*
X108022710Y-96375372D01*
X108020998Y-96381015D01*
X108006324Y-96530000D01*
X108010001Y-96567332D01*
X108010001Y-97217837D01*
X107950000Y-97211928D01*
X107785750Y-97215000D01*
X107627000Y-97373750D01*
X107627000Y-98723000D01*
X107647000Y-98723000D01*
X107647000Y-98977000D01*
X107627000Y-98977000D01*
X107627000Y-98997000D01*
X107373000Y-98997000D01*
X107373000Y-98977000D01*
X107353000Y-98977000D01*
X107353000Y-98723000D01*
X107373000Y-98723000D01*
X107373000Y-97373750D01*
X107214250Y-97215000D01*
X107050000Y-97211928D01*
X106925518Y-97224188D01*
X106805820Y-97260498D01*
X106695506Y-97319463D01*
X106685000Y-97328085D01*
X106685000Y-88850000D01*
X111861928Y-88850000D01*
X111865000Y-91064250D01*
X112023750Y-91223000D01*
X114873000Y-91223000D01*
X114873000Y-88373750D01*
X115127000Y-88373750D01*
X115127000Y-91223000D01*
X117976250Y-91223000D01*
X118135000Y-91064250D01*
X118138072Y-88850000D01*
X118125812Y-88725518D01*
X118089502Y-88605820D01*
X118030537Y-88495506D01*
X117951185Y-88398815D01*
X117854494Y-88319463D01*
X117744180Y-88260498D01*
X117624482Y-88224188D01*
X117500000Y-88211928D01*
X115285750Y-88215000D01*
X115127000Y-88373750D01*
X114873000Y-88373750D01*
X114714250Y-88215000D01*
X112500000Y-88211928D01*
X112375518Y-88224188D01*
X112255820Y-88260498D01*
X112145506Y-88319463D01*
X112048815Y-88398815D01*
X111969463Y-88495506D01*
X111910498Y-88605820D01*
X111874188Y-88725518D01*
X111861928Y-88850000D01*
X106685000Y-88850000D01*
X106685000Y-83371915D01*
X106695506Y-83380537D01*
X106805820Y-83439502D01*
X106925518Y-83475812D01*
X107050000Y-83488072D01*
X107214250Y-83485000D01*
X107373000Y-83326250D01*
X107373000Y-81977000D01*
X107353000Y-81977000D01*
X107353000Y-81723000D01*
X107373000Y-81723000D01*
X107373000Y-81703000D01*
X107627000Y-81703000D01*
X107627000Y-81723000D01*
%TA.AperFunction,Conductor*%
D45*
G36*
X107627000Y-81723000D02*
G01*
X107647000Y-81723000D01*
X107647000Y-81977000D01*
X107627000Y-81977000D01*
X107627000Y-83326250D01*
X107785750Y-83485000D01*
X107950000Y-83488072D01*
X108074482Y-83475812D01*
X108135000Y-83457454D01*
X108195518Y-83475812D01*
X108320000Y-83488072D01*
X109220000Y-83488072D01*
X109344482Y-83475812D01*
X109405000Y-83457454D01*
X109465518Y-83475812D01*
X109590000Y-83488072D01*
X110490000Y-83488072D01*
X110614482Y-83475812D01*
X110675000Y-83457454D01*
X110735518Y-83475812D01*
X110840001Y-83486102D01*
X110840000Y-86696289D01*
X110796063Y-86740226D01*
X110682795Y-86909744D01*
X110604774Y-87098102D01*
X110565000Y-87298061D01*
X110565000Y-87501939D01*
X110604774Y-87701898D01*
X110682795Y-87890256D01*
X110796063Y-88059774D01*
X110940226Y-88203937D01*
X111109744Y-88317205D01*
X111298102Y-88395226D01*
X111498061Y-88435000D01*
X111701939Y-88435000D01*
X111901898Y-88395226D01*
X112090256Y-88317205D01*
X112259774Y-88203937D01*
X112403937Y-88059774D01*
X112517205Y-87890256D01*
X112595226Y-87701898D01*
X112635000Y-87501939D01*
X112635000Y-87298061D01*
X112628720Y-87266487D01*
X112698102Y-87295226D01*
X112898061Y-87335000D01*
X113101939Y-87335000D01*
X113301898Y-87295226D01*
X113490256Y-87217205D01*
X113659774Y-87103937D01*
X113803937Y-86959774D01*
X113917205Y-86790256D01*
X113995226Y-86601898D01*
X114035000Y-86401939D01*
X114035000Y-86198061D01*
X113995226Y-85998102D01*
X113917205Y-85809744D01*
X113803937Y-85640226D01*
X113659774Y-85496063D01*
X113490256Y-85382795D01*
X113340000Y-85320556D01*
X113340000Y-83482163D01*
X113400000Y-83488072D01*
X114300000Y-83488072D01*
X114424482Y-83475812D01*
X114485000Y-83457454D01*
X114545518Y-83475812D01*
X114670000Y-83488072D01*
X115570000Y-83488072D01*
X115694482Y-83475812D01*
X115755000Y-83457454D01*
X115815518Y-83475812D01*
X115940000Y-83488072D01*
X116840000Y-83488072D01*
X116964482Y-83475812D01*
X117025000Y-83457454D01*
X117085518Y-83475812D01*
X117210000Y-83488072D01*
X118110000Y-83488072D01*
X118170001Y-83482163D01*
X118170001Y-83956257D01*
X118166324Y-83993589D01*
X118170001Y-84030922D01*
X118174466Y-84076250D01*
X118180998Y-84142574D01*
X118224454Y-84285835D01*
X118295026Y-84417864D01*
X118352253Y-84487595D01*
X118390000Y-84533590D01*
X118418998Y-84557388D01*
X120024841Y-86163233D01*
X120002939Y-86172305D01*
X119833421Y-86285573D01*
X119689258Y-86429736D01*
X119575990Y-86599254D01*
X119497969Y-86787612D01*
X119458195Y-86987571D01*
X119458195Y-87191449D01*
X119497969Y-87391408D01*
X119575990Y-87579766D01*
X119689258Y-87749284D01*
X119733196Y-87793222D01*
X119733195Y-93692003D01*
X118460197Y-94965002D01*
X118435000Y-94965002D01*
X118435000Y-94898061D01*
X118395226Y-94698102D01*
X118317205Y-94509744D01*
X118203937Y-94340226D01*
X118059774Y-94196063D01*
X118041552Y-94183887D01*
X118089502Y-94094180D01*
X118125812Y-93974482D01*
X118138072Y-93850000D01*
X118135000Y-91635750D01*
X117976250Y-91477000D01*
X115127000Y-91477000D01*
X115127000Y-91497000D01*
X114873000Y-91497000D01*
X114873000Y-91477000D01*
X112023750Y-91477000D01*
X111865000Y-91635750D01*
X111861928Y-93850000D01*
X111874188Y-93974482D01*
X111910498Y-94094180D01*
X111969463Y-94204494D01*
X111998602Y-94240000D01*
X110337325Y-94240000D01*
X110300000Y-94236324D01*
X110262675Y-94240000D01*
X110262667Y-94240000D01*
X110151014Y-94250997D01*
X110007753Y-94294454D01*
X109875724Y-94365026D01*
X109759999Y-94459999D01*
X109736201Y-94488997D01*
X108258998Y-95966201D01*
X108230000Y-95989999D01*
X108206202Y-96018997D01*
X108206201Y-96018998D01*
X108135026Y-96105724D01*
X108064454Y-96237754D01*
X108052018Y-96278752D01*
X108022710Y-96375372D01*
X108020998Y-96381015D01*
X108006324Y-96530000D01*
X108010001Y-96567332D01*
X108010001Y-97217837D01*
X107950000Y-97211928D01*
X107785750Y-97215000D01*
X107627000Y-97373750D01*
X107627000Y-98723000D01*
X107647000Y-98723000D01*
X107647000Y-98977000D01*
X107627000Y-98977000D01*
X107627000Y-98997000D01*
X107373000Y-98997000D01*
X107373000Y-98977000D01*
X107353000Y-98977000D01*
X107353000Y-98723000D01*
X107373000Y-98723000D01*
X107373000Y-97373750D01*
X107214250Y-97215000D01*
X107050000Y-97211928D01*
X106925518Y-97224188D01*
X106805820Y-97260498D01*
X106695506Y-97319463D01*
X106685000Y-97328085D01*
X106685000Y-88850000D01*
X111861928Y-88850000D01*
X111865000Y-91064250D01*
X112023750Y-91223000D01*
X114873000Y-91223000D01*
X114873000Y-88373750D01*
X115127000Y-88373750D01*
X115127000Y-91223000D01*
X117976250Y-91223000D01*
X118135000Y-91064250D01*
X118138072Y-88850000D01*
X118125812Y-88725518D01*
X118089502Y-88605820D01*
X118030537Y-88495506D01*
X117951185Y-88398815D01*
X117854494Y-88319463D01*
X117744180Y-88260498D01*
X117624482Y-88224188D01*
X117500000Y-88211928D01*
X115285750Y-88215000D01*
X115127000Y-88373750D01*
X114873000Y-88373750D01*
X114714250Y-88215000D01*
X112500000Y-88211928D01*
X112375518Y-88224188D01*
X112255820Y-88260498D01*
X112145506Y-88319463D01*
X112048815Y-88398815D01*
X111969463Y-88495506D01*
X111910498Y-88605820D01*
X111874188Y-88725518D01*
X111861928Y-88850000D01*
X106685000Y-88850000D01*
X106685000Y-83371915D01*
X106695506Y-83380537D01*
X106805820Y-83439502D01*
X106925518Y-83475812D01*
X107050000Y-83488072D01*
X107214250Y-83485000D01*
X107373000Y-83326250D01*
X107373000Y-81977000D01*
X107353000Y-81977000D01*
X107353000Y-81723000D01*
X107373000Y-81723000D01*
X107373000Y-81703000D01*
X107627000Y-81703000D01*
X107627000Y-81723000D01*
G37*
%TD.AperFunction*%
D44*
X122013625Y-87265857D02*
X122013625Y-87327995D01*
X122053399Y-87527954D01*
X122131420Y-87716312D01*
X122244688Y-87885830D01*
X122388851Y-88029993D01*
X122558369Y-88143261D01*
X122746727Y-88221282D01*
X122946686Y-88261056D01*
X123150564Y-88261056D01*
X123350523Y-88221282D01*
X123371928Y-88212416D01*
X123371928Y-88895000D01*
X123384188Y-89019482D01*
X123402546Y-89080000D01*
X123384188Y-89140518D01*
X123371928Y-89265000D01*
X123371928Y-90165000D01*
X123384188Y-90289482D01*
X123402546Y-90350000D01*
X123384188Y-90410518D01*
X123371928Y-90535000D01*
X123371928Y-91435000D01*
X123384188Y-91559482D01*
X123402546Y-91620000D01*
X123384188Y-91680518D01*
X123371928Y-91805000D01*
X123371928Y-92705000D01*
X123384188Y-92829482D01*
X123402546Y-92890000D01*
X123384188Y-92950518D01*
X123371928Y-93075000D01*
X123371928Y-93975000D01*
X123384188Y-94099482D01*
X123402546Y-94160000D01*
X123384188Y-94220518D01*
X123371928Y-94345000D01*
X123371928Y-95245000D01*
X123384188Y-95369482D01*
X123402546Y-95430000D01*
X123384188Y-95490518D01*
X123371928Y-95615000D01*
X123375000Y-95779250D01*
X123533750Y-95938000D01*
X124883000Y-95938000D01*
X124883000Y-95918000D01*
X125137000Y-95918000D01*
X125137000Y-95938000D01*
X125157000Y-95938000D01*
X125157000Y-96192000D01*
X125137000Y-96192000D01*
X125137000Y-96991250D01*
X125295750Y-97150000D01*
X125840001Y-97152341D01*
X125840000Y-97685198D01*
X125435199Y-98090000D01*
X125098072Y-98090000D01*
X125098072Y-97850000D01*
X125085812Y-97725518D01*
X125049502Y-97605820D01*
X124990537Y-97495506D01*
X124911185Y-97398815D01*
X124814494Y-97319463D01*
X124704180Y-97260498D01*
X124584482Y-97224188D01*
X124460000Y-97211928D01*
X123560000Y-97211928D01*
X123435518Y-97224188D01*
X123375000Y-97242546D01*
X123314482Y-97224188D01*
X123190000Y-97211928D01*
X122290000Y-97211928D01*
X122165518Y-97224188D01*
X122105000Y-97242546D01*
X122044482Y-97224188D01*
X121920000Y-97211928D01*
X121020000Y-97211928D01*
X120895518Y-97224188D01*
X120835000Y-97242546D01*
X120774482Y-97224188D01*
X120650000Y-97211928D01*
X119750000Y-97211928D01*
X119625518Y-97224188D01*
X119565000Y-97242546D01*
X119504482Y-97224188D01*
X119380000Y-97211928D01*
X118480000Y-97211928D01*
X118355518Y-97224188D01*
X118295000Y-97242546D01*
X118234482Y-97224188D01*
X118110000Y-97211928D01*
X117210000Y-97211928D01*
X117085518Y-97224188D01*
X117025000Y-97242546D01*
X116964482Y-97224188D01*
X116840000Y-97211928D01*
X115940000Y-97211928D01*
X115815518Y-97224188D01*
X115755000Y-97242546D01*
X115694482Y-97224188D01*
X115570000Y-97211928D01*
X114670000Y-97211928D01*
X114545518Y-97224188D01*
X114485000Y-97242546D01*
X114424482Y-97224188D01*
X114300000Y-97211928D01*
X113400000Y-97211928D01*
X113275518Y-97224188D01*
X113215000Y-97242546D01*
X113154482Y-97224188D01*
X113030000Y-97211928D01*
X112865750Y-97215000D01*
X112707000Y-97373750D01*
X112707000Y-98723000D01*
X112727000Y-98723000D01*
X112727000Y-98977000D01*
X112707000Y-98977000D01*
X112707000Y-98997000D01*
X112453000Y-98997000D01*
X112453000Y-98977000D01*
X111437000Y-98977000D01*
X111437000Y-98997000D01*
X111183000Y-98997000D01*
X111183000Y-98977000D01*
X111163000Y-98977000D01*
X111163000Y-98723000D01*
X111183000Y-98723000D01*
X111183000Y-97373750D01*
X111437000Y-97373750D01*
X111437000Y-98723000D01*
X112453000Y-98723000D01*
X112453000Y-97373750D01*
X112294250Y-97215000D01*
X112130000Y-97211928D01*
X112005518Y-97224188D01*
X111945000Y-97242546D01*
X111884482Y-97224188D01*
X111760000Y-97211928D01*
X111595750Y-97215000D01*
X111437000Y-97373750D01*
X111183000Y-97373750D01*
X111042026Y-97232776D01*
X111864803Y-96410000D01*
X116721309Y-96410000D01*
X116759751Y-96430548D01*
X116903012Y-96474005D01*
X117014665Y-96485002D01*
X117014676Y-96485002D01*
X117051998Y-96488678D01*
X117089321Y-96485002D01*
X118686184Y-96485002D01*
X118770286Y-96610870D01*
X118914449Y-96755033D01*
X119083967Y-96868301D01*
X119272325Y-96946322D01*
X119472284Y-96986096D01*
X119676162Y-96986096D01*
X119876121Y-96946322D01*
X120064479Y-96868301D01*
X120233997Y-96755033D01*
X120378160Y-96610870D01*
X120442218Y-96515000D01*
X123371928Y-96515000D01*
X123384188Y-96639482D01*
X123420498Y-96759180D01*
X123479463Y-96869494D01*
X123558815Y-96966185D01*
X123655506Y-97045537D01*
X123765820Y-97104502D01*
X123885518Y-97140812D01*
X124010000Y-97153072D01*
X124724250Y-97150000D01*
X124883000Y-96991250D01*
X124883000Y-96192000D01*
X123533750Y-96192000D01*
X123375000Y-96350750D01*
X123371928Y-96515000D01*
X120442218Y-96515000D01*
X120491428Y-96441352D01*
X120569449Y-96252994D01*
X120609223Y-96053035D01*
X120609223Y-95990897D01*
X121626458Y-94973662D01*
X121626463Y-94973656D01*
X121729202Y-94870917D01*
X121758206Y-94847114D01*
X121853179Y-94731389D01*
X121923751Y-94599360D01*
X121967208Y-94456099D01*
X121978205Y-94344446D01*
X121978205Y-94344437D01*
X121981881Y-94307114D01*
X121978205Y-94269791D01*
X121978205Y-87230437D01*
X122013625Y-87265857D01*
%TA.AperFunction,Conductor*%
D45*
G36*
X122013625Y-87265857D02*
G01*
X122013625Y-87327995D01*
X122053399Y-87527954D01*
X122131420Y-87716312D01*
X122244688Y-87885830D01*
X122388851Y-88029993D01*
X122558369Y-88143261D01*
X122746727Y-88221282D01*
X122946686Y-88261056D01*
X123150564Y-88261056D01*
X123350523Y-88221282D01*
X123371928Y-88212416D01*
X123371928Y-88895000D01*
X123384188Y-89019482D01*
X123402546Y-89080000D01*
X123384188Y-89140518D01*
X123371928Y-89265000D01*
X123371928Y-90165000D01*
X123384188Y-90289482D01*
X123402546Y-90350000D01*
X123384188Y-90410518D01*
X123371928Y-90535000D01*
X123371928Y-91435000D01*
X123384188Y-91559482D01*
X123402546Y-91620000D01*
X123384188Y-91680518D01*
X123371928Y-91805000D01*
X123371928Y-92705000D01*
X123384188Y-92829482D01*
X123402546Y-92890000D01*
X123384188Y-92950518D01*
X123371928Y-93075000D01*
X123371928Y-93975000D01*
X123384188Y-94099482D01*
X123402546Y-94160000D01*
X123384188Y-94220518D01*
X123371928Y-94345000D01*
X123371928Y-95245000D01*
X123384188Y-95369482D01*
X123402546Y-95430000D01*
X123384188Y-95490518D01*
X123371928Y-95615000D01*
X123375000Y-95779250D01*
X123533750Y-95938000D01*
X124883000Y-95938000D01*
X124883000Y-95918000D01*
X125137000Y-95918000D01*
X125137000Y-95938000D01*
X125157000Y-95938000D01*
X125157000Y-96192000D01*
X125137000Y-96192000D01*
X125137000Y-96991250D01*
X125295750Y-97150000D01*
X125840001Y-97152341D01*
X125840000Y-97685198D01*
X125435199Y-98090000D01*
X125098072Y-98090000D01*
X125098072Y-97850000D01*
X125085812Y-97725518D01*
X125049502Y-97605820D01*
X124990537Y-97495506D01*
X124911185Y-97398815D01*
X124814494Y-97319463D01*
X124704180Y-97260498D01*
X124584482Y-97224188D01*
X124460000Y-97211928D01*
X123560000Y-97211928D01*
X123435518Y-97224188D01*
X123375000Y-97242546D01*
X123314482Y-97224188D01*
X123190000Y-97211928D01*
X122290000Y-97211928D01*
X122165518Y-97224188D01*
X122105000Y-97242546D01*
X122044482Y-97224188D01*
X121920000Y-97211928D01*
X121020000Y-97211928D01*
X120895518Y-97224188D01*
X120835000Y-97242546D01*
X120774482Y-97224188D01*
X120650000Y-97211928D01*
X119750000Y-97211928D01*
X119625518Y-97224188D01*
X119565000Y-97242546D01*
X119504482Y-97224188D01*
X119380000Y-97211928D01*
X118480000Y-97211928D01*
X118355518Y-97224188D01*
X118295000Y-97242546D01*
X118234482Y-97224188D01*
X118110000Y-97211928D01*
X117210000Y-97211928D01*
X117085518Y-97224188D01*
X117025000Y-97242546D01*
X116964482Y-97224188D01*
X116840000Y-97211928D01*
X115940000Y-97211928D01*
X115815518Y-97224188D01*
X115755000Y-97242546D01*
X115694482Y-97224188D01*
X115570000Y-97211928D01*
X114670000Y-97211928D01*
X114545518Y-97224188D01*
X114485000Y-97242546D01*
X114424482Y-97224188D01*
X114300000Y-97211928D01*
X113400000Y-97211928D01*
X113275518Y-97224188D01*
X113215000Y-97242546D01*
X113154482Y-97224188D01*
X113030000Y-97211928D01*
X112865750Y-97215000D01*
X112707000Y-97373750D01*
X112707000Y-98723000D01*
X112727000Y-98723000D01*
X112727000Y-98977000D01*
X112707000Y-98977000D01*
X112707000Y-98997000D01*
X112453000Y-98997000D01*
X112453000Y-98977000D01*
X111437000Y-98977000D01*
X111437000Y-98997000D01*
X111183000Y-98997000D01*
X111183000Y-98977000D01*
X111163000Y-98977000D01*
X111163000Y-98723000D01*
X111183000Y-98723000D01*
X111183000Y-97373750D01*
X111437000Y-97373750D01*
X111437000Y-98723000D01*
X112453000Y-98723000D01*
X112453000Y-97373750D01*
X112294250Y-97215000D01*
X112130000Y-97211928D01*
X112005518Y-97224188D01*
X111945000Y-97242546D01*
X111884482Y-97224188D01*
X111760000Y-97211928D01*
X111595750Y-97215000D01*
X111437000Y-97373750D01*
X111183000Y-97373750D01*
X111042026Y-97232776D01*
X111864803Y-96410000D01*
X116721309Y-96410000D01*
X116759751Y-96430548D01*
X116903012Y-96474005D01*
X117014665Y-96485002D01*
X117014676Y-96485002D01*
X117051998Y-96488678D01*
X117089321Y-96485002D01*
X118686184Y-96485002D01*
X118770286Y-96610870D01*
X118914449Y-96755033D01*
X119083967Y-96868301D01*
X119272325Y-96946322D01*
X119472284Y-96986096D01*
X119676162Y-96986096D01*
X119876121Y-96946322D01*
X120064479Y-96868301D01*
X120233997Y-96755033D01*
X120378160Y-96610870D01*
X120442218Y-96515000D01*
X123371928Y-96515000D01*
X123384188Y-96639482D01*
X123420498Y-96759180D01*
X123479463Y-96869494D01*
X123558815Y-96966185D01*
X123655506Y-97045537D01*
X123765820Y-97104502D01*
X123885518Y-97140812D01*
X124010000Y-97153072D01*
X124724250Y-97150000D01*
X124883000Y-96991250D01*
X124883000Y-96192000D01*
X123533750Y-96192000D01*
X123375000Y-96350750D01*
X123371928Y-96515000D01*
X120442218Y-96515000D01*
X120491428Y-96441352D01*
X120569449Y-96252994D01*
X120609223Y-96053035D01*
X120609223Y-95990897D01*
X121626458Y-94973662D01*
X121626463Y-94973656D01*
X121729202Y-94870917D01*
X121758206Y-94847114D01*
X121853179Y-94731389D01*
X121923751Y-94599360D01*
X121967208Y-94456099D01*
X121978205Y-94344446D01*
X121978205Y-94344437D01*
X121981881Y-94307114D01*
X121978205Y-94269791D01*
X121978205Y-87230437D01*
X122013625Y-87265857D01*
G37*
%TD.AperFunction*%
D44*
X130798815Y-77581185D02*
X130895506Y-77660537D01*
X131005820Y-77719502D01*
X131125518Y-77755812D01*
X131250000Y-77768072D01*
X132047761Y-77768072D01*
X132036825Y-77823051D01*
X132036825Y-78026929D01*
X132076599Y-78226888D01*
X132079698Y-78234370D01*
X132035750Y-78235000D01*
X131877000Y-78393750D01*
X131877000Y-79143000D01*
X131897000Y-79143000D01*
X131897000Y-79397000D01*
X131877000Y-79397000D01*
X131877000Y-80146250D01*
X132035750Y-80305000D01*
X132250000Y-80308072D01*
X132311825Y-80301983D01*
X132311825Y-80390853D01*
X132308149Y-80428175D01*
X132311825Y-80465498D01*
X132311825Y-81479833D01*
X131952033Y-81227572D01*
X129679605Y-83500000D01*
X131952033Y-85772428D01*
X132395154Y-85461742D01*
X132436851Y-85539751D01*
X132508026Y-85626477D01*
X132531825Y-85655476D01*
X132560823Y-85679274D01*
X132764371Y-85882822D01*
X132788174Y-85911826D01*
X132903899Y-86006799D01*
X133035928Y-86077371D01*
X133179189Y-86120828D01*
X133290842Y-86131825D01*
X133290850Y-86131825D01*
X133328175Y-86135501D01*
X133365500Y-86131825D01*
X133649687Y-86131825D01*
X133649687Y-86372354D01*
X133646010Y-86409686D01*
X133649687Y-86447019D01*
X133660684Y-86558672D01*
X133673378Y-86600518D01*
X133704140Y-86701932D01*
X133774712Y-86833962D01*
X133842670Y-86916768D01*
X133869686Y-86949687D01*
X133898684Y-86973485D01*
X134036196Y-87110997D01*
X134059999Y-87140001D01*
X134175724Y-87234974D01*
X134307753Y-87305546D01*
X134451014Y-87349003D01*
X134562667Y-87360000D01*
X134562675Y-87360000D01*
X134600000Y-87363676D01*
X134637325Y-87360000D01*
X134663405Y-87360000D01*
X134661928Y-87375000D01*
X134661928Y-88440010D01*
X130137333Y-88440010D01*
X130100010Y-88436334D01*
X130062687Y-88440010D01*
X130062677Y-88440010D01*
X129951024Y-88451007D01*
X129807763Y-88494464D01*
X129675734Y-88565036D01*
X129560009Y-88660009D01*
X129536206Y-88689013D01*
X129114103Y-89111116D01*
X129084988Y-89135010D01*
X128990015Y-89250735D01*
X128919443Y-89382764D01*
X128875986Y-89526025D01*
X128861312Y-89675011D01*
X128864989Y-89712344D01*
X128864989Y-93065000D01*
X128698040Y-93065000D01*
X128498081Y-93104774D01*
X128309723Y-93182795D01*
X128140205Y-93296063D01*
X127996042Y-93440226D01*
X127882774Y-93609744D01*
X127804753Y-93798102D01*
X127764979Y-93998061D01*
X127764979Y-94201939D01*
X127804753Y-94401898D01*
X127882774Y-94590256D01*
X127996042Y-94759774D01*
X128039979Y-94803711D01*
X128039979Y-94837353D01*
X128039980Y-94837363D01*
X128039979Y-95740000D01*
X127137325Y-95740000D01*
X127100000Y-95736324D01*
X127062675Y-95740000D01*
X127062667Y-95740000D01*
X126951014Y-95750997D01*
X126807753Y-95794454D01*
X126675724Y-95865026D01*
X126586807Y-95937998D01*
X126486252Y-95937998D01*
X126645000Y-95779250D01*
X126648072Y-95615000D01*
X126635812Y-95490518D01*
X126617454Y-95430000D01*
X126635812Y-95369482D01*
X126648072Y-95245000D01*
X126648072Y-94345000D01*
X126635812Y-94220518D01*
X126617454Y-94160000D01*
X126635812Y-94099482D01*
X126648072Y-93975000D01*
X126648072Y-93075000D01*
X126635812Y-92950518D01*
X126617454Y-92890000D01*
X126635812Y-92829482D01*
X126648072Y-92705000D01*
X126648072Y-91805000D01*
X126635812Y-91680518D01*
X126617454Y-91620000D01*
X126635812Y-91559482D01*
X126648072Y-91435000D01*
X126648072Y-90535000D01*
X126635812Y-90410518D01*
X126617454Y-90350000D01*
X126635812Y-90289482D01*
X126648072Y-90165000D01*
X126648072Y-89265000D01*
X126635812Y-89140518D01*
X126617454Y-89080000D01*
X126635812Y-89019482D01*
X126648072Y-88895000D01*
X126648072Y-87995000D01*
X126635812Y-87870518D01*
X126617454Y-87810000D01*
X126635812Y-87749482D01*
X126648072Y-87625000D01*
X126648072Y-86725000D01*
X126635812Y-86600518D01*
X126617454Y-86540000D01*
X126635812Y-86479482D01*
X126648072Y-86355000D01*
X126648072Y-85952033D01*
X127227572Y-85952033D01*
X127545757Y-86405850D01*
X128150210Y-86731269D01*
X128806535Y-86932512D01*
X129489510Y-87001845D01*
X130172888Y-86936605D01*
X130830407Y-86739298D01*
X131436799Y-86417506D01*
X131454243Y-86405850D01*
X131772428Y-85952033D01*
X129500000Y-83679605D01*
X127227572Y-85952033D01*
X126648072Y-85952033D01*
X126648072Y-85492049D01*
X127047967Y-85772428D01*
X129320395Y-83500000D01*
X129306253Y-83485858D01*
X129485858Y-83306253D01*
X129500000Y-83320395D01*
X131772428Y-81047967D01*
X131454243Y-80594150D01*
X130849790Y-80268731D01*
X130193465Y-80067488D01*
X129510490Y-79998155D01*
X128827112Y-80063395D01*
X128169593Y-80260702D01*
X127563201Y-80582494D01*
X127545757Y-80594150D01*
X127227573Y-81047965D01*
X127120611Y-80941003D01*
X128391614Y-79670000D01*
X130611928Y-79670000D01*
X130624188Y-79794482D01*
X130660498Y-79914180D01*
X130719463Y-80024494D01*
X130798815Y-80121185D01*
X130895506Y-80200537D01*
X131005820Y-80259502D01*
X131125518Y-80295812D01*
X131250000Y-80308072D01*
X131464250Y-80305000D01*
X131623000Y-80146250D01*
X131623000Y-79397000D01*
X130773750Y-79397000D01*
X130615000Y-79555750D01*
X130611928Y-79670000D01*
X128391614Y-79670000D01*
X129191614Y-78870000D01*
X130611928Y-78870000D01*
X130615000Y-78984250D01*
X130773750Y-79143000D01*
X131623000Y-79143000D01*
X131623000Y-78393750D01*
X131464250Y-78235000D01*
X131250000Y-78231928D01*
X131125518Y-78244188D01*
X131005820Y-78280498D01*
X130895506Y-78339463D01*
X130798815Y-78418815D01*
X130719463Y-78515506D01*
X130660498Y-78625820D01*
X130624188Y-78745518D01*
X130611928Y-78870000D01*
X129191614Y-78870000D01*
X130571614Y-77490000D01*
X130723982Y-77490000D01*
X130798815Y-77581185D01*
%TA.AperFunction,Conductor*%
D45*
G36*
X130798815Y-77581185D02*
G01*
X130895506Y-77660537D01*
X131005820Y-77719502D01*
X131125518Y-77755812D01*
X131250000Y-77768072D01*
X132047761Y-77768072D01*
X132036825Y-77823051D01*
X132036825Y-78026929D01*
X132076599Y-78226888D01*
X132079698Y-78234370D01*
X132035750Y-78235000D01*
X131877000Y-78393750D01*
X131877000Y-79143000D01*
X131897000Y-79143000D01*
X131897000Y-79397000D01*
X131877000Y-79397000D01*
X131877000Y-80146250D01*
X132035750Y-80305000D01*
X132250000Y-80308072D01*
X132311825Y-80301983D01*
X132311825Y-80390853D01*
X132308149Y-80428175D01*
X132311825Y-80465498D01*
X132311825Y-81479833D01*
X131952033Y-81227572D01*
X129679605Y-83500000D01*
X131952033Y-85772428D01*
X132395154Y-85461742D01*
X132436851Y-85539751D01*
X132508026Y-85626477D01*
X132531825Y-85655476D01*
X132560823Y-85679274D01*
X132764371Y-85882822D01*
X132788174Y-85911826D01*
X132903899Y-86006799D01*
X133035928Y-86077371D01*
X133179189Y-86120828D01*
X133290842Y-86131825D01*
X133290850Y-86131825D01*
X133328175Y-86135501D01*
X133365500Y-86131825D01*
X133649687Y-86131825D01*
X133649687Y-86372354D01*
X133646010Y-86409686D01*
X133649687Y-86447019D01*
X133660684Y-86558672D01*
X133673378Y-86600518D01*
X133704140Y-86701932D01*
X133774712Y-86833962D01*
X133842670Y-86916768D01*
X133869686Y-86949687D01*
X133898684Y-86973485D01*
X134036196Y-87110997D01*
X134059999Y-87140001D01*
X134175724Y-87234974D01*
X134307753Y-87305546D01*
X134451014Y-87349003D01*
X134562667Y-87360000D01*
X134562675Y-87360000D01*
X134600000Y-87363676D01*
X134637325Y-87360000D01*
X134663405Y-87360000D01*
X134661928Y-87375000D01*
X134661928Y-88440010D01*
X130137333Y-88440010D01*
X130100010Y-88436334D01*
X130062687Y-88440010D01*
X130062677Y-88440010D01*
X129951024Y-88451007D01*
X129807763Y-88494464D01*
X129675734Y-88565036D01*
X129560009Y-88660009D01*
X129536206Y-88689013D01*
X129114103Y-89111116D01*
X129084988Y-89135010D01*
X128990015Y-89250735D01*
X128919443Y-89382764D01*
X128875986Y-89526025D01*
X128861312Y-89675011D01*
X128864989Y-89712344D01*
X128864989Y-93065000D01*
X128698040Y-93065000D01*
X128498081Y-93104774D01*
X128309723Y-93182795D01*
X128140205Y-93296063D01*
X127996042Y-93440226D01*
X127882774Y-93609744D01*
X127804753Y-93798102D01*
X127764979Y-93998061D01*
X127764979Y-94201939D01*
X127804753Y-94401898D01*
X127882774Y-94590256D01*
X127996042Y-94759774D01*
X128039979Y-94803711D01*
X128039979Y-94837353D01*
X128039980Y-94837363D01*
X128039979Y-95740000D01*
X127137325Y-95740000D01*
X127100000Y-95736324D01*
X127062675Y-95740000D01*
X127062667Y-95740000D01*
X126951014Y-95750997D01*
X126807753Y-95794454D01*
X126675724Y-95865026D01*
X126586807Y-95937998D01*
X126486252Y-95937998D01*
X126645000Y-95779250D01*
X126648072Y-95615000D01*
X126635812Y-95490518D01*
X126617454Y-95430000D01*
X126635812Y-95369482D01*
X126648072Y-95245000D01*
X126648072Y-94345000D01*
X126635812Y-94220518D01*
X126617454Y-94160000D01*
X126635812Y-94099482D01*
X126648072Y-93975000D01*
X126648072Y-93075000D01*
X126635812Y-92950518D01*
X126617454Y-92890000D01*
X126635812Y-92829482D01*
X126648072Y-92705000D01*
X126648072Y-91805000D01*
X126635812Y-91680518D01*
X126617454Y-91620000D01*
X126635812Y-91559482D01*
X126648072Y-91435000D01*
X126648072Y-90535000D01*
X126635812Y-90410518D01*
X126617454Y-90350000D01*
X126635812Y-90289482D01*
X126648072Y-90165000D01*
X126648072Y-89265000D01*
X126635812Y-89140518D01*
X126617454Y-89080000D01*
X126635812Y-89019482D01*
X126648072Y-88895000D01*
X126648072Y-87995000D01*
X126635812Y-87870518D01*
X126617454Y-87810000D01*
X126635812Y-87749482D01*
X126648072Y-87625000D01*
X126648072Y-86725000D01*
X126635812Y-86600518D01*
X126617454Y-86540000D01*
X126635812Y-86479482D01*
X126648072Y-86355000D01*
X126648072Y-85952033D01*
X127227572Y-85952033D01*
X127545757Y-86405850D01*
X128150210Y-86731269D01*
X128806535Y-86932512D01*
X129489510Y-87001845D01*
X130172888Y-86936605D01*
X130830407Y-86739298D01*
X131436799Y-86417506D01*
X131454243Y-86405850D01*
X131772428Y-85952033D01*
X129500000Y-83679605D01*
X127227572Y-85952033D01*
X126648072Y-85952033D01*
X126648072Y-85492049D01*
X127047967Y-85772428D01*
X129320395Y-83500000D01*
X129306253Y-83485858D01*
X129485858Y-83306253D01*
X129500000Y-83320395D01*
X131772428Y-81047967D01*
X131454243Y-80594150D01*
X130849790Y-80268731D01*
X130193465Y-80067488D01*
X129510490Y-79998155D01*
X128827112Y-80063395D01*
X128169593Y-80260702D01*
X127563201Y-80582494D01*
X127545757Y-80594150D01*
X127227573Y-81047965D01*
X127120611Y-80941003D01*
X128391614Y-79670000D01*
X130611928Y-79670000D01*
X130624188Y-79794482D01*
X130660498Y-79914180D01*
X130719463Y-80024494D01*
X130798815Y-80121185D01*
X130895506Y-80200537D01*
X131005820Y-80259502D01*
X131125518Y-80295812D01*
X131250000Y-80308072D01*
X131464250Y-80305000D01*
X131623000Y-80146250D01*
X131623000Y-79397000D01*
X130773750Y-79397000D01*
X130615000Y-79555750D01*
X130611928Y-79670000D01*
X128391614Y-79670000D01*
X129191614Y-78870000D01*
X130611928Y-78870000D01*
X130615000Y-78984250D01*
X130773750Y-79143000D01*
X131623000Y-79143000D01*
X131623000Y-78393750D01*
X131464250Y-78235000D01*
X131250000Y-78231928D01*
X131125518Y-78244188D01*
X131005820Y-78280498D01*
X130895506Y-78339463D01*
X130798815Y-78418815D01*
X130719463Y-78515506D01*
X130660498Y-78625820D01*
X130624188Y-78745518D01*
X130611928Y-78870000D01*
X129191614Y-78870000D01*
X130571614Y-77490000D01*
X130723982Y-77490000D01*
X130798815Y-77581185D01*
G37*
%TD.AperFunction*%
D44*
X131344454Y-90007753D02*
X131300997Y-90151014D01*
X131296122Y-90200508D01*
X131273815Y-90218815D01*
X131194463Y-90315506D01*
X131135498Y-90425820D01*
X131099188Y-90545518D01*
X131086928Y-90670000D01*
X131086928Y-92230000D01*
X131099188Y-92354482D01*
X131123758Y-92435477D01*
X131115000Y-92518250D01*
X131254960Y-92658210D01*
X131273815Y-92681185D01*
X131370506Y-92760537D01*
X131444335Y-92800000D01*
X131370506Y-92839463D01*
X131273815Y-92918815D01*
X131254960Y-92941790D01*
X131115000Y-93081750D01*
X131123758Y-93164523D01*
X131099188Y-93245518D01*
X131086928Y-93370000D01*
X131086928Y-94930000D01*
X131087169Y-94932447D01*
X131030929Y-94932447D01*
X130830970Y-94972221D01*
X130642612Y-95050242D01*
X130473094Y-95163510D01*
X130384989Y-95251615D01*
X130384989Y-89989832D01*
X130414811Y-89960010D01*
X131369974Y-89960010D01*
X131344454Y-90007753D01*
%TA.AperFunction,Conductor*%
D45*
G36*
X131344454Y-90007753D02*
G01*
X131300997Y-90151014D01*
X131296122Y-90200508D01*
X131273815Y-90218815D01*
X131194463Y-90315506D01*
X131135498Y-90425820D01*
X131099188Y-90545518D01*
X131086928Y-90670000D01*
X131086928Y-92230000D01*
X131099188Y-92354482D01*
X131123758Y-92435477D01*
X131115000Y-92518250D01*
X131254960Y-92658210D01*
X131273815Y-92681185D01*
X131370506Y-92760537D01*
X131444335Y-92800000D01*
X131370506Y-92839463D01*
X131273815Y-92918815D01*
X131254960Y-92941790D01*
X131115000Y-93081750D01*
X131123758Y-93164523D01*
X131099188Y-93245518D01*
X131086928Y-93370000D01*
X131086928Y-94930000D01*
X131087169Y-94932447D01*
X131030929Y-94932447D01*
X130830970Y-94972221D01*
X130642612Y-95050242D01*
X130473094Y-95163510D01*
X130384989Y-95251615D01*
X130384989Y-89989832D01*
X130414811Y-89960010D01*
X131369974Y-89960010D01*
X131344454Y-90007753D01*
G37*
%TD.AperFunction*%
D44*
X140079550Y-89492419D02*
X140192818Y-89661937D01*
X140336981Y-89806100D01*
X140506499Y-89919368D01*
X140510755Y-89921131D01*
X140464454Y-90007753D01*
X140420997Y-90151014D01*
X140416122Y-90200508D01*
X140393815Y-90218815D01*
X140314463Y-90315506D01*
X140255498Y-90425820D01*
X140219188Y-90545518D01*
X140206928Y-90670000D01*
X140206928Y-92230000D01*
X140219188Y-92354482D01*
X140243758Y-92435477D01*
X140235000Y-92518250D01*
X140374960Y-92658210D01*
X140393815Y-92681185D01*
X140490506Y-92760537D01*
X140564335Y-92800000D01*
X140490506Y-92839463D01*
X140393815Y-92918815D01*
X140374960Y-92941790D01*
X140235000Y-93081750D01*
X140243758Y-93164523D01*
X140219188Y-93245518D01*
X140206928Y-93370000D01*
X140206928Y-93458258D01*
X140100724Y-93515026D01*
X139984999Y-93609999D01*
X139961201Y-93638998D01*
X139760198Y-93840000D01*
X139698061Y-93840000D01*
X139619094Y-93855707D01*
X139779207Y-93695595D01*
X139808206Y-93671796D01*
X139903179Y-93556071D01*
X139973751Y-93424042D01*
X140017208Y-93280781D01*
X140028205Y-93169128D01*
X140031882Y-93131795D01*
X140028205Y-93094462D01*
X140028205Y-90205538D01*
X140031882Y-90168205D01*
X140017208Y-90019219D01*
X139973751Y-89875958D01*
X139903179Y-89743929D01*
X139832004Y-89657202D01*
X139808206Y-89628204D01*
X139779209Y-89604407D01*
X139659742Y-89484940D01*
X139789850Y-89445472D01*
X139943386Y-89363405D01*
X140005123Y-89312739D01*
X140079550Y-89492419D01*
%TA.AperFunction,Conductor*%
D45*
G36*
X140079550Y-89492419D02*
G01*
X140192818Y-89661937D01*
X140336981Y-89806100D01*
X140506499Y-89919368D01*
X140510755Y-89921131D01*
X140464454Y-90007753D01*
X140420997Y-90151014D01*
X140416122Y-90200508D01*
X140393815Y-90218815D01*
X140314463Y-90315506D01*
X140255498Y-90425820D01*
X140219188Y-90545518D01*
X140206928Y-90670000D01*
X140206928Y-92230000D01*
X140219188Y-92354482D01*
X140243758Y-92435477D01*
X140235000Y-92518250D01*
X140374960Y-92658210D01*
X140393815Y-92681185D01*
X140490506Y-92760537D01*
X140564335Y-92800000D01*
X140490506Y-92839463D01*
X140393815Y-92918815D01*
X140374960Y-92941790D01*
X140235000Y-93081750D01*
X140243758Y-93164523D01*
X140219188Y-93245518D01*
X140206928Y-93370000D01*
X140206928Y-93458258D01*
X140100724Y-93515026D01*
X139984999Y-93609999D01*
X139961201Y-93638998D01*
X139760198Y-93840000D01*
X139698061Y-93840000D01*
X139619094Y-93855707D01*
X139779207Y-93695595D01*
X139808206Y-93671796D01*
X139903179Y-93556071D01*
X139973751Y-93424042D01*
X140017208Y-93280781D01*
X140028205Y-93169128D01*
X140031882Y-93131795D01*
X140028205Y-93094462D01*
X140028205Y-90205538D01*
X140031882Y-90168205D01*
X140017208Y-90019219D01*
X139973751Y-89875958D01*
X139903179Y-89743929D01*
X139832004Y-89657202D01*
X139808206Y-89628204D01*
X139779209Y-89604407D01*
X139659742Y-89484940D01*
X139789850Y-89445472D01*
X139943386Y-89363405D01*
X140005123Y-89312739D01*
X140079550Y-89492419D01*
G37*
%TD.AperFunction*%
D44*
X146099150Y-86594178D02*
X146156005Y-86605487D01*
X148315001Y-88764484D01*
X148315001Y-90202706D01*
X148274494Y-90169463D01*
X148164180Y-90110498D01*
X148044482Y-90074188D01*
X147920000Y-90061928D01*
X146820000Y-90061928D01*
X146730000Y-90070792D01*
X146730000Y-89837333D01*
X146733677Y-89800000D01*
X146719003Y-89651014D01*
X146675546Y-89507753D01*
X146604974Y-89375724D01*
X146510001Y-89259999D01*
X146394276Y-89165026D01*
X146262247Y-89094454D01*
X146118986Y-89050997D01*
X146007333Y-89040000D01*
X145970000Y-89036323D01*
X145932667Y-89040000D01*
X144305937Y-89040000D01*
X144325812Y-88974482D01*
X144338072Y-88850000D01*
X144335000Y-88735750D01*
X144176252Y-88577002D01*
X144335000Y-88577002D01*
X144335000Y-88484999D01*
X144547396Y-88484999D01*
X144555820Y-88489502D01*
X144675518Y-88525812D01*
X144800000Y-88538072D01*
X145700000Y-88538072D01*
X145824482Y-88525812D01*
X145944180Y-88489502D01*
X146054494Y-88430537D01*
X146151185Y-88351185D01*
X146230537Y-88254494D01*
X146289502Y-88144180D01*
X146325812Y-88024482D01*
X146338072Y-87900000D01*
X146338072Y-87100000D01*
X146325812Y-86975518D01*
X146289502Y-86855820D01*
X146230537Y-86745506D01*
X146151185Y-86648815D01*
X146069791Y-86582017D01*
X146099150Y-86594178D01*
%TA.AperFunction,Conductor*%
D45*
G36*
X146099150Y-86594178D02*
G01*
X146156005Y-86605487D01*
X148315001Y-88764484D01*
X148315001Y-90202706D01*
X148274494Y-90169463D01*
X148164180Y-90110498D01*
X148044482Y-90074188D01*
X147920000Y-90061928D01*
X146820000Y-90061928D01*
X146730000Y-90070792D01*
X146730000Y-89837333D01*
X146733677Y-89800000D01*
X146719003Y-89651014D01*
X146675546Y-89507753D01*
X146604974Y-89375724D01*
X146510001Y-89259999D01*
X146394276Y-89165026D01*
X146262247Y-89094454D01*
X146118986Y-89050997D01*
X146007333Y-89040000D01*
X145970000Y-89036323D01*
X145932667Y-89040000D01*
X144305937Y-89040000D01*
X144325812Y-88974482D01*
X144338072Y-88850000D01*
X144335000Y-88735750D01*
X144176252Y-88577002D01*
X144335000Y-88577002D01*
X144335000Y-88484999D01*
X144547396Y-88484999D01*
X144555820Y-88489502D01*
X144675518Y-88525812D01*
X144800000Y-88538072D01*
X145700000Y-88538072D01*
X145824482Y-88525812D01*
X145944180Y-88489502D01*
X146054494Y-88430537D01*
X146151185Y-88351185D01*
X146230537Y-88254494D01*
X146289502Y-88144180D01*
X146325812Y-88024482D01*
X146338072Y-87900000D01*
X146338072Y-87100000D01*
X146325812Y-86975518D01*
X146289502Y-86855820D01*
X146230537Y-86745506D01*
X146151185Y-86648815D01*
X146069791Y-86582017D01*
X146099150Y-86594178D01*
G37*
%TD.AperFunction*%
D44*
X141113344Y-86909007D02*
X141113344Y-87112885D01*
X141153118Y-87312844D01*
X141231139Y-87501202D01*
X141307953Y-87616163D01*
X140956954Y-87967163D01*
X140894816Y-87967163D01*
X140694857Y-88006937D01*
X140506499Y-88084958D01*
X140338072Y-88197497D01*
X140338072Y-87375000D01*
X140321008Y-87201746D01*
X140270472Y-87035150D01*
X140210935Y-86923765D01*
X140695296Y-86923765D01*
X140738765Y-86928046D01*
X140782234Y-86923765D01*
X140782242Y-86923765D01*
X140912255Y-86910960D01*
X141079078Y-86860354D01*
X141128249Y-86834072D01*
X141113344Y-86909007D01*
%TA.AperFunction,Conductor*%
D45*
G36*
X141113344Y-86909007D02*
G01*
X141113344Y-87112885D01*
X141153118Y-87312844D01*
X141231139Y-87501202D01*
X141307953Y-87616163D01*
X140956954Y-87967163D01*
X140894816Y-87967163D01*
X140694857Y-88006937D01*
X140506499Y-88084958D01*
X140338072Y-88197497D01*
X140338072Y-87375000D01*
X140321008Y-87201746D01*
X140270472Y-87035150D01*
X140210935Y-86923765D01*
X140695296Y-86923765D01*
X140738765Y-86928046D01*
X140782234Y-86923765D01*
X140782242Y-86923765D01*
X140912255Y-86910960D01*
X141079078Y-86860354D01*
X141128249Y-86834072D01*
X141113344Y-86909007D01*
G37*
%TD.AperFunction*%
D44*
X145366048Y-85700891D02*
X145405822Y-85900850D01*
X145483843Y-86089208D01*
X145597111Y-86258726D01*
X145741274Y-86402889D01*
X145867519Y-86487243D01*
X145824482Y-86474188D01*
X145700000Y-86461928D01*
X144800000Y-86461928D01*
X144675518Y-86474188D01*
X144555820Y-86510498D01*
X144445506Y-86569463D01*
X144348815Y-86648815D01*
X144338072Y-86661905D01*
X144338072Y-86150000D01*
X144328930Y-86057176D01*
X144487595Y-86066718D01*
X144806675Y-86022961D01*
X145111088Y-85917795D01*
X145285044Y-85824814D01*
X145366048Y-85601165D01*
X145366048Y-85700891D01*
%TA.AperFunction,Conductor*%
D45*
G36*
X145366048Y-85700891D02*
G01*
X145405822Y-85900850D01*
X145483843Y-86089208D01*
X145597111Y-86258726D01*
X145741274Y-86402889D01*
X145867519Y-86487243D01*
X145824482Y-86474188D01*
X145700000Y-86461928D01*
X144800000Y-86461928D01*
X144675518Y-86474188D01*
X144555820Y-86510498D01*
X144445506Y-86569463D01*
X144348815Y-86648815D01*
X144338072Y-86661905D01*
X144338072Y-86150000D01*
X144328930Y-86057176D01*
X144487595Y-86066718D01*
X144806675Y-86022961D01*
X145111088Y-85917795D01*
X145285044Y-85824814D01*
X145366048Y-85601165D01*
X145366048Y-85700891D01*
G37*
%TD.AperFunction*%
D44*
X138625000Y-85152000D02*
X137875000Y-85152000D01*
X137875000Y-84898000D01*
X138625000Y-84898000D01*
X138625000Y-85152000D01*
%TA.AperFunction,Conductor*%
D45*
G36*
X138625000Y-85152000D02*
G01*
X137875000Y-85152000D01*
X137875000Y-84898000D01*
X138625000Y-84898000D01*
X138625000Y-85152000D01*
G37*
%TD.AperFunction*%
D44*
X144576655Y-84368765D02*
X144579188Y-84394482D01*
X144598790Y-84459100D01*
X144439143Y-84618748D01*
X144425000Y-84604605D01*
X144410858Y-84618748D01*
X144231253Y-84439143D01*
X144245395Y-84425000D01*
X144231253Y-84410858D01*
X144404048Y-84238062D01*
X144405000Y-84238072D01*
X144416540Y-84236935D01*
X144425000Y-84245395D01*
X144435308Y-84235087D01*
X144442289Y-84234399D01*
X144576655Y-84368765D01*
%TA.AperFunction,Conductor*%
D45*
G36*
X144576655Y-84368765D02*
G01*
X144579188Y-84394482D01*
X144598790Y-84459100D01*
X144439143Y-84618748D01*
X144425000Y-84604605D01*
X144410858Y-84618748D01*
X144231253Y-84439143D01*
X144245395Y-84425000D01*
X144231253Y-84410858D01*
X144404048Y-84238062D01*
X144405000Y-84238072D01*
X144416540Y-84236935D01*
X144425000Y-84245395D01*
X144435308Y-84235087D01*
X144442289Y-84234399D01*
X144576655Y-84368765D01*
G37*
%TD.AperFunction*%
D44*
X147833843Y-77052472D02*
X148077000Y-77168414D01*
X148077000Y-79973000D01*
X148097000Y-79973000D01*
X148097000Y-80227000D01*
X148077000Y-80227000D01*
X148077000Y-83036619D01*
X147971253Y-83074081D01*
X147833843Y-83147528D01*
X147823000Y-83182315D01*
X147823000Y-80227000D01*
X147803000Y-80227000D01*
X147803000Y-79973000D01*
X147823000Y-79973000D01*
X147823000Y-77017685D01*
X147833843Y-77052472D01*
%TA.AperFunction,Conductor*%
D45*
G36*
X147833843Y-77052472D02*
G01*
X148077000Y-77168414D01*
X148077000Y-79973000D01*
X148097000Y-79973000D01*
X148097000Y-80227000D01*
X148077000Y-80227000D01*
X148077000Y-83036619D01*
X147971253Y-83074081D01*
X147833843Y-83147528D01*
X147823000Y-83182315D01*
X147823000Y-80227000D01*
X147803000Y-80227000D01*
X147803000Y-79973000D01*
X147823000Y-79973000D01*
X147823000Y-77017685D01*
X147833843Y-77052472D01*
G37*
%TD.AperFunction*%
D44*
X137647000Y-82939110D02*
X137647000Y-83060890D01*
X137560890Y-83147000D01*
X137439110Y-83147000D01*
X137353000Y-83060890D01*
X137353000Y-82939110D01*
X137439110Y-82853000D01*
X137560890Y-82853000D01*
X137647000Y-82939110D01*
%TA.AperFunction,Conductor*%
D45*
G36*
X137647000Y-82939110D02*
G01*
X137647000Y-83060890D01*
X137560890Y-83147000D01*
X137439110Y-83147000D01*
X137353000Y-83060890D01*
X137353000Y-82939110D01*
X137439110Y-82853000D01*
X137560890Y-82853000D01*
X137647000Y-82939110D01*
G37*
%TD.AperFunction*%
D44*
X110627000Y-72523000D02*
X110647000Y-72523000D01*
X110647000Y-72777000D01*
X110627000Y-72777000D01*
X110627000Y-74045155D01*
X110856890Y-74166476D01*
X110980700Y-74124687D01*
X111040036Y-74235696D01*
X111135009Y-74351422D01*
X111164008Y-74375221D01*
X111617992Y-74829203D01*
X111641794Y-74858206D01*
X111757519Y-74953179D01*
X111889548Y-75023751D01*
X112032809Y-75067208D01*
X112144462Y-75078205D01*
X112144463Y-75078205D01*
X112181796Y-75081882D01*
X112219129Y-75078205D01*
X114128803Y-75078205D01*
X114749109Y-75698512D01*
X114772908Y-75727511D01*
X114801906Y-75751309D01*
X114888632Y-75822484D01*
X114993649Y-75878617D01*
X115020662Y-75893056D01*
X115163923Y-75936513D01*
X115244917Y-75944490D01*
X115219463Y-75975506D01*
X115160498Y-76085820D01*
X115124188Y-76205518D01*
X115111928Y-76330000D01*
X115111928Y-77130000D01*
X115124188Y-77254482D01*
X115160498Y-77374180D01*
X115219463Y-77484494D01*
X115298815Y-77581185D01*
X115395506Y-77660537D01*
X115505820Y-77719502D01*
X115625518Y-77755812D01*
X115750000Y-77768072D01*
X116750000Y-77768072D01*
X116874482Y-77755812D01*
X116994180Y-77719502D01*
X117104494Y-77660537D01*
X117201185Y-77581185D01*
X117261138Y-77508132D01*
X117364354Y-77577098D01*
X117552712Y-77655119D01*
X117752671Y-77694893D01*
X117956549Y-77694893D01*
X118156508Y-77655119D01*
X118344866Y-77577098D01*
X118514384Y-77463830D01*
X118658547Y-77319667D01*
X118771815Y-77150149D01*
X118849836Y-76961791D01*
X118889610Y-76761832D01*
X118889610Y-76557954D01*
X118849836Y-76357995D01*
X118771815Y-76169637D01*
X118658547Y-76000119D01*
X118605938Y-75947510D01*
X119174489Y-75947510D01*
X120603591Y-77376613D01*
X120603590Y-78021608D01*
X120115199Y-78510000D01*
X117276018Y-78510000D01*
X117201185Y-78418815D01*
X117104494Y-78339463D01*
X116994180Y-78280498D01*
X116874482Y-78244188D01*
X116750000Y-78231928D01*
X115750000Y-78231928D01*
X115625518Y-78244188D01*
X115505820Y-78280498D01*
X115395506Y-78339463D01*
X115298815Y-78418815D01*
X115219463Y-78515506D01*
X115160498Y-78625820D01*
X115124188Y-78745518D01*
X115111928Y-78870000D01*
X115111928Y-79340000D01*
X114237325Y-79340000D01*
X114200000Y-79336324D01*
X114162675Y-79340000D01*
X114162667Y-79340000D01*
X114051014Y-79350997D01*
X113907753Y-79394454D01*
X113902990Y-79397000D01*
X113877000Y-79397000D01*
X113877000Y-79410892D01*
X113865573Y-79417000D01*
X113623000Y-79417000D01*
X113623000Y-79397000D01*
X112773750Y-79397000D01*
X112615000Y-79555750D01*
X112611928Y-79670000D01*
X112624188Y-79794482D01*
X112660498Y-79914180D01*
X112719463Y-80024494D01*
X112798815Y-80121185D01*
X112895506Y-80200537D01*
X112916817Y-80211928D01*
X112130000Y-80211928D01*
X112005518Y-80224188D01*
X111945000Y-80242546D01*
X111884482Y-80224188D01*
X111760000Y-80211928D01*
X111562873Y-80211928D01*
X112702776Y-79072026D01*
X112773750Y-79143000D01*
X113623000Y-79143000D01*
X113623000Y-78393750D01*
X113877000Y-78393750D01*
X113877000Y-79143000D01*
X114726250Y-79143000D01*
X114885000Y-78984250D01*
X114888072Y-78870000D01*
X114875812Y-78745518D01*
X114839502Y-78625820D01*
X114780537Y-78515506D01*
X114701185Y-78418815D01*
X114604494Y-78339463D01*
X114494180Y-78280498D01*
X114374482Y-78244188D01*
X114250000Y-78231928D01*
X114035750Y-78235000D01*
X113877000Y-78393750D01*
X113623000Y-78393750D01*
X113502026Y-78272776D01*
X114006730Y-77768072D01*
X114250000Y-77768072D01*
X114374482Y-77755812D01*
X114494180Y-77719502D01*
X114604494Y-77660537D01*
X114701185Y-77581185D01*
X114780537Y-77484494D01*
X114839502Y-77374180D01*
X114875812Y-77254482D01*
X114888072Y-77130000D01*
X114888072Y-76330000D01*
X114875812Y-76205518D01*
X114839502Y-76085820D01*
X114780537Y-75975506D01*
X114701185Y-75878815D01*
X114604494Y-75799463D01*
X114494180Y-75740498D01*
X114374482Y-75704188D01*
X114250000Y-75691928D01*
X113250000Y-75691928D01*
X113125518Y-75704188D01*
X113005820Y-75740498D01*
X112895506Y-75799463D01*
X112798815Y-75878815D01*
X112719463Y-75975506D01*
X112660498Y-76085820D01*
X112624188Y-76205518D01*
X112611928Y-76330000D01*
X112611928Y-77013270D01*
X109528998Y-80096201D01*
X109500000Y-80119999D01*
X109476202Y-80148997D01*
X109476201Y-80148998D01*
X109405026Y-80235724D01*
X109401885Y-80241601D01*
X109344482Y-80224188D01*
X109220000Y-80211928D01*
X108320000Y-80211928D01*
X108195518Y-80224188D01*
X108135000Y-80242546D01*
X108074482Y-80224188D01*
X108062462Y-80223004D01*
X108104494Y-80200537D01*
X108201185Y-80121185D01*
X108280537Y-80024494D01*
X108339502Y-79914180D01*
X108375812Y-79794482D01*
X108388072Y-79670000D01*
X108388072Y-78870000D01*
X108375812Y-78745518D01*
X108339502Y-78625820D01*
X108280537Y-78515506D01*
X108201185Y-78418815D01*
X108104494Y-78339463D01*
X108010000Y-78288954D01*
X108010000Y-78264801D01*
X108014801Y-78260000D01*
X108772437Y-78260000D01*
X108901015Y-78299003D01*
X109050000Y-78313676D01*
X109198986Y-78299003D01*
X109342246Y-78255546D01*
X109474276Y-78184974D01*
X109590001Y-78090001D01*
X109613803Y-78060998D01*
X110111007Y-77563795D01*
X110140001Y-77540001D01*
X110163795Y-77511008D01*
X110163799Y-77511004D01*
X110234973Y-77424277D01*
X110234974Y-77424276D01*
X110305546Y-77292247D01*
X110349003Y-77148986D01*
X110360000Y-77037333D01*
X110360000Y-77037324D01*
X110363676Y-77000001D01*
X110360000Y-76962678D01*
X110360000Y-74537333D01*
X110363677Y-74500000D01*
X110355949Y-74421532D01*
X110349003Y-74351014D01*
X110305546Y-74207753D01*
X110252598Y-74108695D01*
X110373000Y-74045155D01*
X110373000Y-72777000D01*
X110353000Y-72777000D01*
X110353000Y-72523000D01*
X110373000Y-72523000D01*
X110373000Y-72503000D01*
X110627000Y-72503000D01*
X110627000Y-72523000D01*
%TA.AperFunction,Conductor*%
D45*
G36*
X110627000Y-72523000D02*
G01*
X110647000Y-72523000D01*
X110647000Y-72777000D01*
X110627000Y-72777000D01*
X110627000Y-74045155D01*
X110856890Y-74166476D01*
X110980700Y-74124687D01*
X111040036Y-74235696D01*
X111135009Y-74351422D01*
X111164008Y-74375221D01*
X111617992Y-74829203D01*
X111641794Y-74858206D01*
X111757519Y-74953179D01*
X111889548Y-75023751D01*
X112032809Y-75067208D01*
X112144462Y-75078205D01*
X112144463Y-75078205D01*
X112181796Y-75081882D01*
X112219129Y-75078205D01*
X114128803Y-75078205D01*
X114749109Y-75698512D01*
X114772908Y-75727511D01*
X114801906Y-75751309D01*
X114888632Y-75822484D01*
X114993649Y-75878617D01*
X115020662Y-75893056D01*
X115163923Y-75936513D01*
X115244917Y-75944490D01*
X115219463Y-75975506D01*
X115160498Y-76085820D01*
X115124188Y-76205518D01*
X115111928Y-76330000D01*
X115111928Y-77130000D01*
X115124188Y-77254482D01*
X115160498Y-77374180D01*
X115219463Y-77484494D01*
X115298815Y-77581185D01*
X115395506Y-77660537D01*
X115505820Y-77719502D01*
X115625518Y-77755812D01*
X115750000Y-77768072D01*
X116750000Y-77768072D01*
X116874482Y-77755812D01*
X116994180Y-77719502D01*
X117104494Y-77660537D01*
X117201185Y-77581185D01*
X117261138Y-77508132D01*
X117364354Y-77577098D01*
X117552712Y-77655119D01*
X117752671Y-77694893D01*
X117956549Y-77694893D01*
X118156508Y-77655119D01*
X118344866Y-77577098D01*
X118514384Y-77463830D01*
X118658547Y-77319667D01*
X118771815Y-77150149D01*
X118849836Y-76961791D01*
X118889610Y-76761832D01*
X118889610Y-76557954D01*
X118849836Y-76357995D01*
X118771815Y-76169637D01*
X118658547Y-76000119D01*
X118605938Y-75947510D01*
X119174489Y-75947510D01*
X120603591Y-77376613D01*
X120603590Y-78021608D01*
X120115199Y-78510000D01*
X117276018Y-78510000D01*
X117201185Y-78418815D01*
X117104494Y-78339463D01*
X116994180Y-78280498D01*
X116874482Y-78244188D01*
X116750000Y-78231928D01*
X115750000Y-78231928D01*
X115625518Y-78244188D01*
X115505820Y-78280498D01*
X115395506Y-78339463D01*
X115298815Y-78418815D01*
X115219463Y-78515506D01*
X115160498Y-78625820D01*
X115124188Y-78745518D01*
X115111928Y-78870000D01*
X115111928Y-79340000D01*
X114237325Y-79340000D01*
X114200000Y-79336324D01*
X114162675Y-79340000D01*
X114162667Y-79340000D01*
X114051014Y-79350997D01*
X113907753Y-79394454D01*
X113902990Y-79397000D01*
X113877000Y-79397000D01*
X113877000Y-79410892D01*
X113865573Y-79417000D01*
X113623000Y-79417000D01*
X113623000Y-79397000D01*
X112773750Y-79397000D01*
X112615000Y-79555750D01*
X112611928Y-79670000D01*
X112624188Y-79794482D01*
X112660498Y-79914180D01*
X112719463Y-80024494D01*
X112798815Y-80121185D01*
X112895506Y-80200537D01*
X112916817Y-80211928D01*
X112130000Y-80211928D01*
X112005518Y-80224188D01*
X111945000Y-80242546D01*
X111884482Y-80224188D01*
X111760000Y-80211928D01*
X111562873Y-80211928D01*
X112702776Y-79072026D01*
X112773750Y-79143000D01*
X113623000Y-79143000D01*
X113623000Y-78393750D01*
X113877000Y-78393750D01*
X113877000Y-79143000D01*
X114726250Y-79143000D01*
X114885000Y-78984250D01*
X114888072Y-78870000D01*
X114875812Y-78745518D01*
X114839502Y-78625820D01*
X114780537Y-78515506D01*
X114701185Y-78418815D01*
X114604494Y-78339463D01*
X114494180Y-78280498D01*
X114374482Y-78244188D01*
X114250000Y-78231928D01*
X114035750Y-78235000D01*
X113877000Y-78393750D01*
X113623000Y-78393750D01*
X113502026Y-78272776D01*
X114006730Y-77768072D01*
X114250000Y-77768072D01*
X114374482Y-77755812D01*
X114494180Y-77719502D01*
X114604494Y-77660537D01*
X114701185Y-77581185D01*
X114780537Y-77484494D01*
X114839502Y-77374180D01*
X114875812Y-77254482D01*
X114888072Y-77130000D01*
X114888072Y-76330000D01*
X114875812Y-76205518D01*
X114839502Y-76085820D01*
X114780537Y-75975506D01*
X114701185Y-75878815D01*
X114604494Y-75799463D01*
X114494180Y-75740498D01*
X114374482Y-75704188D01*
X114250000Y-75691928D01*
X113250000Y-75691928D01*
X113125518Y-75704188D01*
X113005820Y-75740498D01*
X112895506Y-75799463D01*
X112798815Y-75878815D01*
X112719463Y-75975506D01*
X112660498Y-76085820D01*
X112624188Y-76205518D01*
X112611928Y-76330000D01*
X112611928Y-77013270D01*
X109528998Y-80096201D01*
X109500000Y-80119999D01*
X109476202Y-80148997D01*
X109476201Y-80148998D01*
X109405026Y-80235724D01*
X109401885Y-80241601D01*
X109344482Y-80224188D01*
X109220000Y-80211928D01*
X108320000Y-80211928D01*
X108195518Y-80224188D01*
X108135000Y-80242546D01*
X108074482Y-80224188D01*
X108062462Y-80223004D01*
X108104494Y-80200537D01*
X108201185Y-80121185D01*
X108280537Y-80024494D01*
X108339502Y-79914180D01*
X108375812Y-79794482D01*
X108388072Y-79670000D01*
X108388072Y-78870000D01*
X108375812Y-78745518D01*
X108339502Y-78625820D01*
X108280537Y-78515506D01*
X108201185Y-78418815D01*
X108104494Y-78339463D01*
X108010000Y-78288954D01*
X108010000Y-78264801D01*
X108014801Y-78260000D01*
X108772437Y-78260000D01*
X108901015Y-78299003D01*
X109050000Y-78313676D01*
X109198986Y-78299003D01*
X109342246Y-78255546D01*
X109474276Y-78184974D01*
X109590001Y-78090001D01*
X109613803Y-78060998D01*
X110111007Y-77563795D01*
X110140001Y-77540001D01*
X110163795Y-77511008D01*
X110163799Y-77511004D01*
X110234973Y-77424277D01*
X110234974Y-77424276D01*
X110305546Y-77292247D01*
X110349003Y-77148986D01*
X110360000Y-77037333D01*
X110360000Y-77037324D01*
X110363676Y-77000001D01*
X110360000Y-76962678D01*
X110360000Y-74537333D01*
X110363677Y-74500000D01*
X110355949Y-74421532D01*
X110349003Y-74351014D01*
X110305546Y-74207753D01*
X110252598Y-74108695D01*
X110373000Y-74045155D01*
X110373000Y-72777000D01*
X110353000Y-72777000D01*
X110353000Y-72523000D01*
X110373000Y-72523000D01*
X110373000Y-72503000D01*
X110627000Y-72503000D01*
X110627000Y-72523000D01*
G37*
%TD.AperFunction*%
D44*
X124111928Y-77130000D02*
X124124188Y-77254482D01*
X124160498Y-77374180D01*
X124219463Y-77484494D01*
X124298815Y-77581185D01*
X124395506Y-77660537D01*
X124505820Y-77719502D01*
X124625518Y-77755812D01*
X124750000Y-77768072D01*
X125677127Y-77768072D01*
X125213271Y-78231928D01*
X124750000Y-78231928D01*
X124625518Y-78244188D01*
X124505820Y-78280498D01*
X124395506Y-78339463D01*
X124298815Y-78418815D01*
X124219463Y-78515506D01*
X124160498Y-78625820D01*
X124124188Y-78745518D01*
X124111928Y-78870000D01*
X124111928Y-79670000D01*
X124113899Y-79690009D01*
X123886101Y-79690009D01*
X123888072Y-79670000D01*
X123885000Y-79555750D01*
X123726250Y-79397000D01*
X122877000Y-79397000D01*
X122877000Y-79417000D01*
X122623000Y-79417000D01*
X122623000Y-79397000D01*
X122603000Y-79397000D01*
X122603000Y-79143000D01*
X122623000Y-79143000D01*
X122623000Y-79123000D01*
X122877000Y-79123000D01*
X122877000Y-79143000D01*
X123726250Y-79143000D01*
X123885000Y-78984250D01*
X123888072Y-78870000D01*
X123875812Y-78745518D01*
X123839502Y-78625820D01*
X123780537Y-78515506D01*
X123701185Y-78418815D01*
X123604494Y-78339463D01*
X123494180Y-78280498D01*
X123374482Y-78244188D01*
X123250000Y-78231928D01*
X123178255Y-78232957D01*
X123261004Y-78150208D01*
X123290001Y-78126411D01*
X123343368Y-78061383D01*
X123384974Y-78010687D01*
X123455546Y-77878657D01*
X123460899Y-77861011D01*
X123499003Y-77735396D01*
X123500923Y-77715897D01*
X123604494Y-77660537D01*
X123701185Y-77581185D01*
X123780537Y-77484494D01*
X123839502Y-77374180D01*
X123875812Y-77254482D01*
X123888072Y-77130000D01*
X123888072Y-76647499D01*
X124111928Y-76647499D01*
X124111928Y-77130000D01*
%TA.AperFunction,Conductor*%
D45*
G36*
X124111928Y-77130000D02*
G01*
X124124188Y-77254482D01*
X124160498Y-77374180D01*
X124219463Y-77484494D01*
X124298815Y-77581185D01*
X124395506Y-77660537D01*
X124505820Y-77719502D01*
X124625518Y-77755812D01*
X124750000Y-77768072D01*
X125677127Y-77768072D01*
X125213271Y-78231928D01*
X124750000Y-78231928D01*
X124625518Y-78244188D01*
X124505820Y-78280498D01*
X124395506Y-78339463D01*
X124298815Y-78418815D01*
X124219463Y-78515506D01*
X124160498Y-78625820D01*
X124124188Y-78745518D01*
X124111928Y-78870000D01*
X124111928Y-79670000D01*
X124113899Y-79690009D01*
X123886101Y-79690009D01*
X123888072Y-79670000D01*
X123885000Y-79555750D01*
X123726250Y-79397000D01*
X122877000Y-79397000D01*
X122877000Y-79417000D01*
X122623000Y-79417000D01*
X122623000Y-79397000D01*
X122603000Y-79397000D01*
X122603000Y-79143000D01*
X122623000Y-79143000D01*
X122623000Y-79123000D01*
X122877000Y-79123000D01*
X122877000Y-79143000D01*
X123726250Y-79143000D01*
X123885000Y-78984250D01*
X123888072Y-78870000D01*
X123875812Y-78745518D01*
X123839502Y-78625820D01*
X123780537Y-78515506D01*
X123701185Y-78418815D01*
X123604494Y-78339463D01*
X123494180Y-78280498D01*
X123374482Y-78244188D01*
X123250000Y-78231928D01*
X123178255Y-78232957D01*
X123261004Y-78150208D01*
X123290001Y-78126411D01*
X123343368Y-78061383D01*
X123384974Y-78010687D01*
X123455546Y-77878657D01*
X123460899Y-77861011D01*
X123499003Y-77735396D01*
X123500923Y-77715897D01*
X123604494Y-77660537D01*
X123701185Y-77581185D01*
X123780537Y-77484494D01*
X123839502Y-77374180D01*
X123875812Y-77254482D01*
X123888072Y-77130000D01*
X123888072Y-76647499D01*
X124111928Y-76647499D01*
X124111928Y-77130000D01*
G37*
%TD.AperFunction*%
D44*
X139127000Y-72523000D02*
X139147000Y-72523000D01*
X139147000Y-72777000D01*
X139127000Y-72777000D01*
X139127000Y-74051250D01*
X139285750Y-74210000D01*
X139850000Y-74213072D01*
X139974482Y-74200812D01*
X140094180Y-74164502D01*
X140204494Y-74105537D01*
X140264999Y-74055882D01*
X140265000Y-75715750D01*
X140127000Y-75853750D01*
X140127000Y-76603000D01*
X140147000Y-76603000D01*
X140147000Y-76857000D01*
X140127000Y-76857000D01*
X140127000Y-77606250D01*
X140285750Y-77765000D01*
X140600000Y-77768072D01*
X140724482Y-77755812D01*
X140782952Y-77738075D01*
X140779018Y-77747572D01*
X140739244Y-77947531D01*
X140739244Y-78151409D01*
X140759832Y-78254911D01*
X140724482Y-78244188D01*
X140600000Y-78231928D01*
X139856730Y-78231928D01*
X139585000Y-77960199D01*
X139585000Y-77898061D01*
X139558835Y-77766519D01*
X139714250Y-77765000D01*
X139873000Y-77606250D01*
X139873000Y-76857000D01*
X138923750Y-76857000D01*
X138788572Y-76992178D01*
X138651939Y-76965000D01*
X138448061Y-76965000D01*
X138248102Y-77004774D01*
X138059744Y-77082795D01*
X137890226Y-77196063D01*
X137746063Y-77340226D01*
X137632795Y-77509744D01*
X137554774Y-77698102D01*
X137515000Y-77898061D01*
X137515000Y-78101939D01*
X137554774Y-78301898D01*
X137632795Y-78490256D01*
X137746063Y-78659774D01*
X137890226Y-78803937D01*
X138059744Y-78917205D01*
X138248102Y-78995226D01*
X138448061Y-79035000D01*
X138510199Y-79035000D01*
X138623706Y-79148507D01*
X138537333Y-79140000D01*
X138500000Y-79136323D01*
X138462667Y-79140000D01*
X138037333Y-79140000D01*
X138000000Y-79136323D01*
X137962667Y-79140000D01*
X137851014Y-79150997D01*
X137707753Y-79194454D01*
X137631896Y-79235001D01*
X136451321Y-79235001D01*
X136413998Y-79231325D01*
X136376675Y-79235001D01*
X136376666Y-79235001D01*
X136265013Y-79245998D01*
X136121752Y-79289455D01*
X135989723Y-79360027D01*
X135873998Y-79455000D01*
X135850195Y-79484004D01*
X135649200Y-79684999D01*
X135236595Y-79684999D01*
X135238072Y-79670000D01*
X135238072Y-79283506D01*
X135980050Y-78541529D01*
X136013817Y-78513817D01*
X136061415Y-78455820D01*
X136124411Y-78379059D01*
X136147975Y-78334974D01*
X136206589Y-78225313D01*
X136257195Y-78058490D01*
X136270000Y-77928477D01*
X136270000Y-77928469D01*
X136274281Y-77885000D01*
X136270000Y-77841531D01*
X136270000Y-76330000D01*
X138761928Y-76330000D01*
X138765000Y-76444250D01*
X138923750Y-76603000D01*
X139873000Y-76603000D01*
X139873000Y-75853750D01*
X139714250Y-75695000D01*
X139400000Y-75691928D01*
X139275518Y-75704188D01*
X139155820Y-75740498D01*
X139045506Y-75799463D01*
X138948815Y-75878815D01*
X138869463Y-75975506D01*
X138810498Y-76085820D01*
X138774188Y-76205518D01*
X138761928Y-76330000D01*
X136270000Y-76330000D01*
X136270000Y-74194532D01*
X136500000Y-74217185D01*
X136791110Y-74188513D01*
X137071033Y-74103599D01*
X137329013Y-73965706D01*
X137549945Y-73784392D01*
X137560498Y-73819180D01*
X137619463Y-73929494D01*
X137698815Y-74026185D01*
X137795506Y-74105537D01*
X137905820Y-74164502D01*
X138025518Y-74200812D01*
X138150000Y-74213072D01*
X138714250Y-74210000D01*
X138873000Y-74051250D01*
X138873000Y-72777000D01*
X138853000Y-72777000D01*
X138853000Y-72523000D01*
X138873000Y-72523000D01*
X138873000Y-72503000D01*
X139127000Y-72503000D01*
X139127000Y-72523000D01*
%TA.AperFunction,Conductor*%
D45*
G36*
X139127000Y-72523000D02*
G01*
X139147000Y-72523000D01*
X139147000Y-72777000D01*
X139127000Y-72777000D01*
X139127000Y-74051250D01*
X139285750Y-74210000D01*
X139850000Y-74213072D01*
X139974482Y-74200812D01*
X140094180Y-74164502D01*
X140204494Y-74105537D01*
X140264999Y-74055882D01*
X140265000Y-75715750D01*
X140127000Y-75853750D01*
X140127000Y-76603000D01*
X140147000Y-76603000D01*
X140147000Y-76857000D01*
X140127000Y-76857000D01*
X140127000Y-77606250D01*
X140285750Y-77765000D01*
X140600000Y-77768072D01*
X140724482Y-77755812D01*
X140782952Y-77738075D01*
X140779018Y-77747572D01*
X140739244Y-77947531D01*
X140739244Y-78151409D01*
X140759832Y-78254911D01*
X140724482Y-78244188D01*
X140600000Y-78231928D01*
X139856730Y-78231928D01*
X139585000Y-77960199D01*
X139585000Y-77898061D01*
X139558835Y-77766519D01*
X139714250Y-77765000D01*
X139873000Y-77606250D01*
X139873000Y-76857000D01*
X138923750Y-76857000D01*
X138788572Y-76992178D01*
X138651939Y-76965000D01*
X138448061Y-76965000D01*
X138248102Y-77004774D01*
X138059744Y-77082795D01*
X137890226Y-77196063D01*
X137746063Y-77340226D01*
X137632795Y-77509744D01*
X137554774Y-77698102D01*
X137515000Y-77898061D01*
X137515000Y-78101939D01*
X137554774Y-78301898D01*
X137632795Y-78490256D01*
X137746063Y-78659774D01*
X137890226Y-78803937D01*
X138059744Y-78917205D01*
X138248102Y-78995226D01*
X138448061Y-79035000D01*
X138510199Y-79035000D01*
X138623706Y-79148507D01*
X138537333Y-79140000D01*
X138500000Y-79136323D01*
X138462667Y-79140000D01*
X138037333Y-79140000D01*
X138000000Y-79136323D01*
X137962667Y-79140000D01*
X137851014Y-79150997D01*
X137707753Y-79194454D01*
X137631896Y-79235001D01*
X136451321Y-79235001D01*
X136413998Y-79231325D01*
X136376675Y-79235001D01*
X136376666Y-79235001D01*
X136265013Y-79245998D01*
X136121752Y-79289455D01*
X135989723Y-79360027D01*
X135873998Y-79455000D01*
X135850195Y-79484004D01*
X135649200Y-79684999D01*
X135236595Y-79684999D01*
X135238072Y-79670000D01*
X135238072Y-79283506D01*
X135980050Y-78541529D01*
X136013817Y-78513817D01*
X136061415Y-78455820D01*
X136124411Y-78379059D01*
X136147975Y-78334974D01*
X136206589Y-78225313D01*
X136257195Y-78058490D01*
X136270000Y-77928477D01*
X136270000Y-77928469D01*
X136274281Y-77885000D01*
X136270000Y-77841531D01*
X136270000Y-76330000D01*
X138761928Y-76330000D01*
X138765000Y-76444250D01*
X138923750Y-76603000D01*
X139873000Y-76603000D01*
X139873000Y-75853750D01*
X139714250Y-75695000D01*
X139400000Y-75691928D01*
X139275518Y-75704188D01*
X139155820Y-75740498D01*
X139045506Y-75799463D01*
X138948815Y-75878815D01*
X138869463Y-75975506D01*
X138810498Y-76085820D01*
X138774188Y-76205518D01*
X138761928Y-76330000D01*
X136270000Y-76330000D01*
X136270000Y-74194532D01*
X136500000Y-74217185D01*
X136791110Y-74188513D01*
X137071033Y-74103599D01*
X137329013Y-73965706D01*
X137549945Y-73784392D01*
X137560498Y-73819180D01*
X137619463Y-73929494D01*
X137698815Y-74026185D01*
X137795506Y-74105537D01*
X137905820Y-74164502D01*
X138025518Y-74200812D01*
X138150000Y-74213072D01*
X138714250Y-74210000D01*
X138873000Y-74051250D01*
X138873000Y-72777000D01*
X138853000Y-72777000D01*
X138853000Y-72523000D01*
X138873000Y-72523000D01*
X138873000Y-72503000D01*
X139127000Y-72503000D01*
X139127000Y-72523000D01*
G37*
%TD.AperFunction*%
D44*
X149315000Y-74468367D02*
X149112117Y-74371629D01*
X148828589Y-74299661D01*
X148536469Y-74284389D01*
X148246981Y-74326401D01*
X147971253Y-74424081D01*
X147833843Y-74497528D01*
X147756208Y-74746603D01*
X148304519Y-75294914D01*
X148235750Y-75295000D01*
X148090573Y-75440178D01*
X147576603Y-74926208D01*
X147327528Y-75003843D01*
X147201629Y-75267883D01*
X147194895Y-75294414D01*
X145988269Y-75292906D01*
X145917795Y-75088912D01*
X145824814Y-74914956D01*
X145560413Y-74819192D01*
X145073196Y-75306409D01*
X144960820Y-75340498D01*
X144850506Y-75399463D01*
X144753815Y-75478815D01*
X144674463Y-75575506D01*
X144615498Y-75685820D01*
X144579188Y-75805518D01*
X144576655Y-75831235D01*
X144442289Y-75965601D01*
X144435308Y-75964913D01*
X144425000Y-75954605D01*
X144416540Y-75963065D01*
X144405000Y-75961928D01*
X144404048Y-75961938D01*
X144231253Y-75789143D01*
X144245395Y-75775000D01*
X143289587Y-74819192D01*
X143144551Y-74871723D01*
X143130537Y-74845506D01*
X143051185Y-74748815D01*
X142985000Y-74694499D01*
X142985000Y-74066578D01*
X143366696Y-73684883D01*
X143444866Y-73780134D01*
X143670986Y-73965706D01*
X143928966Y-74103599D01*
X144131295Y-74164975D01*
X144043325Y-74177039D01*
X143738912Y-74282205D01*
X143564956Y-74375186D01*
X143469192Y-74639587D01*
X144425000Y-75595395D01*
X145380808Y-74639587D01*
X145285044Y-74375186D01*
X144995429Y-74234296D01*
X144804878Y-74184337D01*
X145071033Y-74103599D01*
X145329013Y-73965706D01*
X145549945Y-73784392D01*
X145560498Y-73819180D01*
X145619463Y-73929494D01*
X145698815Y-74026185D01*
X145795506Y-74105537D01*
X145905820Y-74164502D01*
X146025518Y-74200812D01*
X146150000Y-74213072D01*
X146714250Y-74210000D01*
X146873000Y-74051250D01*
X146873000Y-72777000D01*
X147127000Y-72777000D01*
X147127000Y-74051250D01*
X147285750Y-74210000D01*
X147850000Y-74213072D01*
X147974482Y-74200812D01*
X148094180Y-74164502D01*
X148204494Y-74105537D01*
X148301185Y-74026185D01*
X148380537Y-73929494D01*
X148439502Y-73819180D01*
X148475812Y-73699482D01*
X148488072Y-73575000D01*
X148485000Y-72935750D01*
X148326250Y-72777000D01*
X147127000Y-72777000D01*
X146873000Y-72777000D01*
X146853000Y-72777000D01*
X146853000Y-72523000D01*
X146873000Y-72523000D01*
X146873000Y-71248750D01*
X147127000Y-71248750D01*
X147127000Y-72523000D01*
X148326250Y-72523000D01*
X148485000Y-72364250D01*
X148488072Y-71725000D01*
X148475812Y-71600518D01*
X148439502Y-71480820D01*
X148380537Y-71370506D01*
X148301185Y-71273815D01*
X148204494Y-71194463D01*
X148094180Y-71135498D01*
X147974482Y-71099188D01*
X147850000Y-71086928D01*
X147285750Y-71090000D01*
X147127000Y-71248750D01*
X146873000Y-71248750D01*
X146714250Y-71090000D01*
X146150000Y-71086928D01*
X146025518Y-71099188D01*
X145905820Y-71135498D01*
X145795506Y-71194463D01*
X145698815Y-71273815D01*
X145619463Y-71370506D01*
X145560498Y-71480820D01*
X145549945Y-71515608D01*
X145329014Y-71334294D01*
X145071034Y-71196401D01*
X144791111Y-71111487D01*
X144500000Y-71082815D01*
X144208890Y-71111487D01*
X143928967Y-71196401D01*
X143670987Y-71334294D01*
X143444866Y-71519866D01*
X143284724Y-71715000D01*
X143243469Y-71715000D01*
X143200000Y-71710719D01*
X143156531Y-71715000D01*
X143156523Y-71715000D01*
X143041306Y-71726348D01*
X143026509Y-71727805D01*
X142975903Y-71743157D01*
X142859687Y-71778411D01*
X142766141Y-71828412D01*
X142705941Y-71860589D01*
X142604953Y-71943468D01*
X142604951Y-71943470D01*
X142571183Y-71971183D01*
X142543470Y-72004951D01*
X142034999Y-72513422D01*
X142034999Y-72328498D01*
X142039280Y-72285032D01*
X142034999Y-72241566D01*
X142034999Y-72241556D01*
X142022194Y-72111543D01*
X141971588Y-71944720D01*
X141889410Y-71790974D01*
X141831201Y-71720047D01*
X141806531Y-71689986D01*
X141806529Y-71689984D01*
X141778816Y-71656216D01*
X141745049Y-71628504D01*
X140646500Y-70529956D01*
X140618783Y-70496183D01*
X140484025Y-70385589D01*
X140330279Y-70303411D01*
X140163456Y-70252805D01*
X140033443Y-70240000D01*
X140033435Y-70240000D01*
X139989966Y-70235719D01*
X139946497Y-70240000D01*
X138068469Y-70240000D01*
X138025000Y-70235719D01*
X137981531Y-70240000D01*
X137981523Y-70240000D01*
X137851510Y-70252805D01*
X137684686Y-70303411D01*
X137530941Y-70385589D01*
X137429953Y-70468468D01*
X137429951Y-70468470D01*
X137396183Y-70496183D01*
X137368470Y-70529951D01*
X136787309Y-71111113D01*
X136500000Y-71082815D01*
X136208890Y-71111487D01*
X135928967Y-71196401D01*
X135670987Y-71334294D01*
X135444866Y-71519866D01*
X135259294Y-71745986D01*
X135250000Y-71763374D01*
X135240706Y-71745987D01*
X135055134Y-71519866D01*
X134829014Y-71334294D01*
X134571034Y-71196401D01*
X134291111Y-71111487D01*
X134000000Y-71082815D01*
X133708890Y-71111487D01*
X133428967Y-71196401D01*
X133170987Y-71334294D01*
X132944866Y-71519866D01*
X132759294Y-71745986D01*
X132621401Y-72003966D01*
X132536487Y-72283889D01*
X132515000Y-72502050D01*
X132515000Y-72797949D01*
X132536487Y-73016110D01*
X132621401Y-73296033D01*
X132759294Y-73554013D01*
X132944866Y-73780134D01*
X133115001Y-73919760D01*
X133115000Y-75762317D01*
X133045506Y-75799463D01*
X132948815Y-75878815D01*
X132869463Y-75975506D01*
X132825000Y-76058689D01*
X132780537Y-75975506D01*
X132701185Y-75878815D01*
X132604494Y-75799463D01*
X132494180Y-75740498D01*
X132374482Y-75704188D01*
X132250000Y-75691928D01*
X131250000Y-75691928D01*
X131125518Y-75704188D01*
X131005820Y-75740498D01*
X130895506Y-75799463D01*
X130798815Y-75878815D01*
X130723982Y-75970000D01*
X130294134Y-75970000D01*
X130256811Y-75966324D01*
X130219488Y-75970000D01*
X130219479Y-75970000D01*
X130107826Y-75980997D01*
X129964565Y-76024454D01*
X129832536Y-76095026D01*
X129716811Y-76189999D01*
X129693013Y-76218997D01*
X126388072Y-79523939D01*
X126388072Y-79206729D01*
X128311004Y-77283798D01*
X128340001Y-77260001D01*
X128434974Y-77144276D01*
X128505546Y-77012247D01*
X128549003Y-76868986D01*
X128560000Y-76757333D01*
X128560000Y-76757332D01*
X128563677Y-76720000D01*
X128560000Y-76682667D01*
X128560000Y-76412331D01*
X128563677Y-76374998D01*
X128549003Y-76226012D01*
X128505546Y-76082751D01*
X128434974Y-75950722D01*
X128363799Y-75863995D01*
X128340001Y-75834997D01*
X128311002Y-75811198D01*
X127812055Y-75312252D01*
X127788253Y-75283249D01*
X127672528Y-75188276D01*
X127540499Y-75117704D01*
X127397238Y-75074247D01*
X127285585Y-75063250D01*
X127285574Y-75063250D01*
X127248252Y-75059574D01*
X127210930Y-75063250D01*
X126635750Y-75063250D01*
X126598427Y-75059574D01*
X126561105Y-75063250D01*
X126561094Y-75063250D01*
X126449441Y-75074247D01*
X126306180Y-75117704D01*
X126287855Y-75127499D01*
X121402301Y-75127499D01*
X120501303Y-74226502D01*
X120477500Y-74197498D01*
X120361775Y-74102525D01*
X120229746Y-74031953D01*
X120086485Y-73988496D01*
X119974832Y-73977499D01*
X119974821Y-73977499D01*
X119937499Y-73973823D01*
X119900177Y-73977499D01*
X116841140Y-73977499D01*
X116880537Y-73929494D01*
X116939502Y-73819180D01*
X116975812Y-73699482D01*
X116988072Y-73575000D01*
X116985000Y-72935750D01*
X116826250Y-72777000D01*
X115627000Y-72777000D01*
X115627000Y-72797000D01*
X115373000Y-72797000D01*
X115373000Y-72777000D01*
X115353000Y-72777000D01*
X115353000Y-72523000D01*
X115373000Y-72523000D01*
X115373000Y-71248750D01*
X115627000Y-71248750D01*
X115627000Y-72523000D01*
X116826250Y-72523000D01*
X116847200Y-72502050D01*
X119515000Y-72502050D01*
X119515000Y-72797949D01*
X119536487Y-73016110D01*
X119621401Y-73296033D01*
X119759294Y-73554013D01*
X119944866Y-73780134D01*
X120170986Y-73965706D01*
X120428966Y-74103599D01*
X120708889Y-74188513D01*
X121000000Y-74217185D01*
X121291110Y-74188513D01*
X121571033Y-74103599D01*
X121829013Y-73965706D01*
X122055134Y-73780134D01*
X122240706Y-73554014D01*
X122250000Y-73536626D01*
X122259294Y-73554013D01*
X122444866Y-73780134D01*
X122670986Y-73965706D01*
X122928966Y-74103599D01*
X123208889Y-74188513D01*
X123500000Y-74217185D01*
X123791110Y-74188513D01*
X124071033Y-74103599D01*
X124329013Y-73965706D01*
X124555134Y-73780134D01*
X124740706Y-73554014D01*
X124750000Y-73536626D01*
X124759294Y-73554013D01*
X124944866Y-73780134D01*
X125170986Y-73965706D01*
X125428966Y-74103599D01*
X125708889Y-74188513D01*
X126000000Y-74217185D01*
X126291110Y-74188513D01*
X126571033Y-74103599D01*
X126829013Y-73965706D01*
X127049945Y-73784392D01*
X127060498Y-73819180D01*
X127119463Y-73929494D01*
X127198815Y-74026185D01*
X127295506Y-74105537D01*
X127405820Y-74164502D01*
X127525518Y-74200812D01*
X127650000Y-74213072D01*
X128214250Y-74210000D01*
X128373000Y-74051250D01*
X128373000Y-72777000D01*
X128627000Y-72777000D01*
X128627000Y-74051250D01*
X128785750Y-74210000D01*
X129350000Y-74213072D01*
X129474482Y-74200812D01*
X129594180Y-74164502D01*
X129704494Y-74105537D01*
X129801185Y-74026185D01*
X129880537Y-73929494D01*
X129939502Y-73819180D01*
X129975812Y-73699482D01*
X129988072Y-73575000D01*
X129985000Y-72935750D01*
X129826250Y-72777000D01*
X128627000Y-72777000D01*
X128373000Y-72777000D01*
X128353000Y-72777000D01*
X128353000Y-72523000D01*
X128373000Y-72523000D01*
X128373000Y-71248750D01*
X128627000Y-71248750D01*
X128627000Y-72523000D01*
X129826250Y-72523000D01*
X129985000Y-72364250D01*
X129988072Y-71725000D01*
X129975812Y-71600518D01*
X129939502Y-71480820D01*
X129880537Y-71370506D01*
X129801185Y-71273815D01*
X129704494Y-71194463D01*
X129594180Y-71135498D01*
X129474482Y-71099188D01*
X129350000Y-71086928D01*
X128785750Y-71090000D01*
X128627000Y-71248750D01*
X128373000Y-71248750D01*
X128214250Y-71090000D01*
X127650000Y-71086928D01*
X127525518Y-71099188D01*
X127405820Y-71135498D01*
X127295506Y-71194463D01*
X127198815Y-71273815D01*
X127119463Y-71370506D01*
X127060498Y-71480820D01*
X127049945Y-71515608D01*
X126829014Y-71334294D01*
X126571034Y-71196401D01*
X126291111Y-71111487D01*
X126000000Y-71082815D01*
X125708890Y-71111487D01*
X125428967Y-71196401D01*
X125170987Y-71334294D01*
X124944866Y-71519866D01*
X124759294Y-71745986D01*
X124750000Y-71763374D01*
X124740706Y-71745987D01*
X124555134Y-71519866D01*
X124329014Y-71334294D01*
X124071034Y-71196401D01*
X123791111Y-71111487D01*
X123500000Y-71082815D01*
X123208890Y-71111487D01*
X122928967Y-71196401D01*
X122670987Y-71334294D01*
X122444866Y-71519866D01*
X122259294Y-71745986D01*
X122250000Y-71763374D01*
X122240706Y-71745987D01*
X122055134Y-71519866D01*
X121829014Y-71334294D01*
X121571034Y-71196401D01*
X121291111Y-71111487D01*
X121000000Y-71082815D01*
X120708890Y-71111487D01*
X120428967Y-71196401D01*
X120170987Y-71334294D01*
X119944866Y-71519866D01*
X119759294Y-71745986D01*
X119621401Y-72003966D01*
X119536487Y-72283889D01*
X119515000Y-72502050D01*
X116847200Y-72502050D01*
X116985000Y-72364250D01*
X116988072Y-71725000D01*
X116975812Y-71600518D01*
X116939502Y-71480820D01*
X116880537Y-71370506D01*
X116801185Y-71273815D01*
X116704494Y-71194463D01*
X116594180Y-71135498D01*
X116474482Y-71099188D01*
X116350000Y-71086928D01*
X115785750Y-71090000D01*
X115627000Y-71248750D01*
X115373000Y-71248750D01*
X115214250Y-71090000D01*
X114650000Y-71086928D01*
X114525518Y-71099188D01*
X114405820Y-71135498D01*
X114295506Y-71194463D01*
X114198815Y-71273815D01*
X114119463Y-71370506D01*
X114060498Y-71480820D01*
X114049945Y-71515608D01*
X113829014Y-71334294D01*
X113571034Y-71196401D01*
X113291111Y-71111487D01*
X113000000Y-71082815D01*
X112708890Y-71111487D01*
X112428967Y-71196401D01*
X112170987Y-71334294D01*
X112074772Y-71413255D01*
X111550508Y-70888992D01*
X111526706Y-70859989D01*
X111410981Y-70765016D01*
X111278952Y-70694444D01*
X111135691Y-70650987D01*
X111024038Y-70639990D01*
X111024027Y-70639990D01*
X110986705Y-70636314D01*
X110949383Y-70639990D01*
X109287332Y-70639990D01*
X109250009Y-70636314D01*
X109212686Y-70639990D01*
X109212677Y-70639990D01*
X109101024Y-70650987D01*
X108957763Y-70694444D01*
X108825733Y-70765016D01*
X108742093Y-70833658D01*
X108710009Y-70859989D01*
X108686211Y-70888987D01*
X108423539Y-71151659D01*
X108291111Y-71111487D01*
X108000000Y-71082815D01*
X107708890Y-71111487D01*
X107428967Y-71196401D01*
X107170987Y-71334294D01*
X106944866Y-71519866D01*
X106759294Y-71745986D01*
X106745504Y-71771786D01*
X106737106Y-71755914D01*
X106553540Y-71530305D01*
X106329487Y-71344843D01*
X106073557Y-71206655D01*
X105856890Y-71133524D01*
X105627000Y-71254845D01*
X105627000Y-72523000D01*
X105647000Y-72523000D01*
X105647000Y-72777000D01*
X105627000Y-72777000D01*
X105627000Y-72797000D01*
X105373000Y-72797000D01*
X105373000Y-72777000D01*
X105353000Y-72777000D01*
X105353000Y-72523000D01*
X105373000Y-72523000D01*
X105373000Y-71254845D01*
X105143110Y-71133524D01*
X104926443Y-71206655D01*
X104670513Y-71344843D01*
X104446460Y-71530305D01*
X104262894Y-71755914D01*
X104254496Y-71771786D01*
X104240706Y-71745987D01*
X104055134Y-71519866D01*
X103829014Y-71334294D01*
X103571034Y-71196401D01*
X103291111Y-71111487D01*
X103000000Y-71082815D01*
X102708890Y-71111487D01*
X102428967Y-71196401D01*
X102170987Y-71334294D01*
X101944866Y-71519866D01*
X101759294Y-71745986D01*
X101621401Y-72003966D01*
X101536487Y-72283889D01*
X101515000Y-72502050D01*
X101515000Y-72797949D01*
X101536487Y-73016110D01*
X101621401Y-73296033D01*
X101759294Y-73554013D01*
X101944866Y-73780134D01*
X102170986Y-73965706D01*
X102428966Y-74103599D01*
X102708889Y-74188513D01*
X103000000Y-74217185D01*
X103291110Y-74188513D01*
X103423539Y-74148341D01*
X104286201Y-75011003D01*
X104309999Y-75040001D01*
X104338997Y-75063799D01*
X104425723Y-75134974D01*
X104547377Y-75200000D01*
X104557753Y-75205546D01*
X104701014Y-75249003D01*
X104812667Y-75260000D01*
X104812676Y-75260000D01*
X104849999Y-75263676D01*
X104887322Y-75260000D01*
X108840000Y-75260000D01*
X108840000Y-75265000D01*
X108698061Y-75265000D01*
X108498102Y-75304774D01*
X108309744Y-75382795D01*
X108140226Y-75496063D01*
X107996063Y-75640226D01*
X107940038Y-75724074D01*
X107874482Y-75704188D01*
X107750000Y-75691928D01*
X106750000Y-75691928D01*
X106625518Y-75704188D01*
X106619563Y-75705994D01*
X106572312Y-75617593D01*
X106486711Y-75513289D01*
X106382407Y-75427688D01*
X106263406Y-75364081D01*
X106134283Y-75324912D01*
X106033647Y-75315000D01*
X106000000Y-75311686D01*
X105966353Y-75315000D01*
X100685000Y-75315000D01*
X100685000Y-66685000D01*
X149315000Y-66685000D01*
X149315000Y-74468367D01*
%TA.AperFunction,Conductor*%
D45*
G36*
X149315000Y-74468367D02*
G01*
X149112117Y-74371629D01*
X148828589Y-74299661D01*
X148536469Y-74284389D01*
X148246981Y-74326401D01*
X147971253Y-74424081D01*
X147833843Y-74497528D01*
X147756208Y-74746603D01*
X148304519Y-75294914D01*
X148235750Y-75295000D01*
X148090573Y-75440178D01*
X147576603Y-74926208D01*
X147327528Y-75003843D01*
X147201629Y-75267883D01*
X147194895Y-75294414D01*
X145988269Y-75292906D01*
X145917795Y-75088912D01*
X145824814Y-74914956D01*
X145560413Y-74819192D01*
X145073196Y-75306409D01*
X144960820Y-75340498D01*
X144850506Y-75399463D01*
X144753815Y-75478815D01*
X144674463Y-75575506D01*
X144615498Y-75685820D01*
X144579188Y-75805518D01*
X144576655Y-75831235D01*
X144442289Y-75965601D01*
X144435308Y-75964913D01*
X144425000Y-75954605D01*
X144416540Y-75963065D01*
X144405000Y-75961928D01*
X144404048Y-75961938D01*
X144231253Y-75789143D01*
X144245395Y-75775000D01*
X143289587Y-74819192D01*
X143144551Y-74871723D01*
X143130537Y-74845506D01*
X143051185Y-74748815D01*
X142985000Y-74694499D01*
X142985000Y-74066578D01*
X143366696Y-73684883D01*
X143444866Y-73780134D01*
X143670986Y-73965706D01*
X143928966Y-74103599D01*
X144131295Y-74164975D01*
X144043325Y-74177039D01*
X143738912Y-74282205D01*
X143564956Y-74375186D01*
X143469192Y-74639587D01*
X144425000Y-75595395D01*
X145380808Y-74639587D01*
X145285044Y-74375186D01*
X144995429Y-74234296D01*
X144804878Y-74184337D01*
X145071033Y-74103599D01*
X145329013Y-73965706D01*
X145549945Y-73784392D01*
X145560498Y-73819180D01*
X145619463Y-73929494D01*
X145698815Y-74026185D01*
X145795506Y-74105537D01*
X145905820Y-74164502D01*
X146025518Y-74200812D01*
X146150000Y-74213072D01*
X146714250Y-74210000D01*
X146873000Y-74051250D01*
X146873000Y-72777000D01*
X147127000Y-72777000D01*
X147127000Y-74051250D01*
X147285750Y-74210000D01*
X147850000Y-74213072D01*
X147974482Y-74200812D01*
X148094180Y-74164502D01*
X148204494Y-74105537D01*
X148301185Y-74026185D01*
X148380537Y-73929494D01*
X148439502Y-73819180D01*
X148475812Y-73699482D01*
X148488072Y-73575000D01*
X148485000Y-72935750D01*
X148326250Y-72777000D01*
X147127000Y-72777000D01*
X146873000Y-72777000D01*
X146853000Y-72777000D01*
X146853000Y-72523000D01*
X146873000Y-72523000D01*
X146873000Y-71248750D01*
X147127000Y-71248750D01*
X147127000Y-72523000D01*
X148326250Y-72523000D01*
X148485000Y-72364250D01*
X148488072Y-71725000D01*
X148475812Y-71600518D01*
X148439502Y-71480820D01*
X148380537Y-71370506D01*
X148301185Y-71273815D01*
X148204494Y-71194463D01*
X148094180Y-71135498D01*
X147974482Y-71099188D01*
X147850000Y-71086928D01*
X147285750Y-71090000D01*
X147127000Y-71248750D01*
X146873000Y-71248750D01*
X146714250Y-71090000D01*
X146150000Y-71086928D01*
X146025518Y-71099188D01*
X145905820Y-71135498D01*
X145795506Y-71194463D01*
X145698815Y-71273815D01*
X145619463Y-71370506D01*
X145560498Y-71480820D01*
X145549945Y-71515608D01*
X145329014Y-71334294D01*
X145071034Y-71196401D01*
X144791111Y-71111487D01*
X144500000Y-71082815D01*
X144208890Y-71111487D01*
X143928967Y-71196401D01*
X143670987Y-71334294D01*
X143444866Y-71519866D01*
X143284724Y-71715000D01*
X143243469Y-71715000D01*
X143200000Y-71710719D01*
X143156531Y-71715000D01*
X143156523Y-71715000D01*
X143041306Y-71726348D01*
X143026509Y-71727805D01*
X142975903Y-71743157D01*
X142859687Y-71778411D01*
X142766141Y-71828412D01*
X142705941Y-71860589D01*
X142604953Y-71943468D01*
X142604951Y-71943470D01*
X142571183Y-71971183D01*
X142543470Y-72004951D01*
X142034999Y-72513422D01*
X142034999Y-72328498D01*
X142039280Y-72285032D01*
X142034999Y-72241566D01*
X142034999Y-72241556D01*
X142022194Y-72111543D01*
X141971588Y-71944720D01*
X141889410Y-71790974D01*
X141831201Y-71720047D01*
X141806531Y-71689986D01*
X141806529Y-71689984D01*
X141778816Y-71656216D01*
X141745049Y-71628504D01*
X140646500Y-70529956D01*
X140618783Y-70496183D01*
X140484025Y-70385589D01*
X140330279Y-70303411D01*
X140163456Y-70252805D01*
X140033443Y-70240000D01*
X140033435Y-70240000D01*
X139989966Y-70235719D01*
X139946497Y-70240000D01*
X138068469Y-70240000D01*
X138025000Y-70235719D01*
X137981531Y-70240000D01*
X137981523Y-70240000D01*
X137851510Y-70252805D01*
X137684686Y-70303411D01*
X137530941Y-70385589D01*
X137429953Y-70468468D01*
X137429951Y-70468470D01*
X137396183Y-70496183D01*
X137368470Y-70529951D01*
X136787309Y-71111113D01*
X136500000Y-71082815D01*
X136208890Y-71111487D01*
X135928967Y-71196401D01*
X135670987Y-71334294D01*
X135444866Y-71519866D01*
X135259294Y-71745986D01*
X135250000Y-71763374D01*
X135240706Y-71745987D01*
X135055134Y-71519866D01*
X134829014Y-71334294D01*
X134571034Y-71196401D01*
X134291111Y-71111487D01*
X134000000Y-71082815D01*
X133708890Y-71111487D01*
X133428967Y-71196401D01*
X133170987Y-71334294D01*
X132944866Y-71519866D01*
X132759294Y-71745986D01*
X132621401Y-72003966D01*
X132536487Y-72283889D01*
X132515000Y-72502050D01*
X132515000Y-72797949D01*
X132536487Y-73016110D01*
X132621401Y-73296033D01*
X132759294Y-73554013D01*
X132944866Y-73780134D01*
X133115001Y-73919760D01*
X133115000Y-75762317D01*
X133045506Y-75799463D01*
X132948815Y-75878815D01*
X132869463Y-75975506D01*
X132825000Y-76058689D01*
X132780537Y-75975506D01*
X132701185Y-75878815D01*
X132604494Y-75799463D01*
X132494180Y-75740498D01*
X132374482Y-75704188D01*
X132250000Y-75691928D01*
X131250000Y-75691928D01*
X131125518Y-75704188D01*
X131005820Y-75740498D01*
X130895506Y-75799463D01*
X130798815Y-75878815D01*
X130723982Y-75970000D01*
X130294134Y-75970000D01*
X130256811Y-75966324D01*
X130219488Y-75970000D01*
X130219479Y-75970000D01*
X130107826Y-75980997D01*
X129964565Y-76024454D01*
X129832536Y-76095026D01*
X129716811Y-76189999D01*
X129693013Y-76218997D01*
X126388072Y-79523939D01*
X126388072Y-79206729D01*
X128311004Y-77283798D01*
X128340001Y-77260001D01*
X128434974Y-77144276D01*
X128505546Y-77012247D01*
X128549003Y-76868986D01*
X128560000Y-76757333D01*
X128560000Y-76757332D01*
X128563677Y-76720000D01*
X128560000Y-76682667D01*
X128560000Y-76412331D01*
X128563677Y-76374998D01*
X128549003Y-76226012D01*
X128505546Y-76082751D01*
X128434974Y-75950722D01*
X128363799Y-75863995D01*
X128340001Y-75834997D01*
X128311002Y-75811198D01*
X127812055Y-75312252D01*
X127788253Y-75283249D01*
X127672528Y-75188276D01*
X127540499Y-75117704D01*
X127397238Y-75074247D01*
X127285585Y-75063250D01*
X127285574Y-75063250D01*
X127248252Y-75059574D01*
X127210930Y-75063250D01*
X126635750Y-75063250D01*
X126598427Y-75059574D01*
X126561105Y-75063250D01*
X126561094Y-75063250D01*
X126449441Y-75074247D01*
X126306180Y-75117704D01*
X126287855Y-75127499D01*
X121402301Y-75127499D01*
X120501303Y-74226502D01*
X120477500Y-74197498D01*
X120361775Y-74102525D01*
X120229746Y-74031953D01*
X120086485Y-73988496D01*
X119974832Y-73977499D01*
X119974821Y-73977499D01*
X119937499Y-73973823D01*
X119900177Y-73977499D01*
X116841140Y-73977499D01*
X116880537Y-73929494D01*
X116939502Y-73819180D01*
X116975812Y-73699482D01*
X116988072Y-73575000D01*
X116985000Y-72935750D01*
X116826250Y-72777000D01*
X115627000Y-72777000D01*
X115627000Y-72797000D01*
X115373000Y-72797000D01*
X115373000Y-72777000D01*
X115353000Y-72777000D01*
X115353000Y-72523000D01*
X115373000Y-72523000D01*
X115373000Y-71248750D01*
X115627000Y-71248750D01*
X115627000Y-72523000D01*
X116826250Y-72523000D01*
X116847200Y-72502050D01*
X119515000Y-72502050D01*
X119515000Y-72797949D01*
X119536487Y-73016110D01*
X119621401Y-73296033D01*
X119759294Y-73554013D01*
X119944866Y-73780134D01*
X120170986Y-73965706D01*
X120428966Y-74103599D01*
X120708889Y-74188513D01*
X121000000Y-74217185D01*
X121291110Y-74188513D01*
X121571033Y-74103599D01*
X121829013Y-73965706D01*
X122055134Y-73780134D01*
X122240706Y-73554014D01*
X122250000Y-73536626D01*
X122259294Y-73554013D01*
X122444866Y-73780134D01*
X122670986Y-73965706D01*
X122928966Y-74103599D01*
X123208889Y-74188513D01*
X123500000Y-74217185D01*
X123791110Y-74188513D01*
X124071033Y-74103599D01*
X124329013Y-73965706D01*
X124555134Y-73780134D01*
X124740706Y-73554014D01*
X124750000Y-73536626D01*
X124759294Y-73554013D01*
X124944866Y-73780134D01*
X125170986Y-73965706D01*
X125428966Y-74103599D01*
X125708889Y-74188513D01*
X126000000Y-74217185D01*
X126291110Y-74188513D01*
X126571033Y-74103599D01*
X126829013Y-73965706D01*
X127049945Y-73784392D01*
X127060498Y-73819180D01*
X127119463Y-73929494D01*
X127198815Y-74026185D01*
X127295506Y-74105537D01*
X127405820Y-74164502D01*
X127525518Y-74200812D01*
X127650000Y-74213072D01*
X128214250Y-74210000D01*
X128373000Y-74051250D01*
X128373000Y-72777000D01*
X128627000Y-72777000D01*
X128627000Y-74051250D01*
X128785750Y-74210000D01*
X129350000Y-74213072D01*
X129474482Y-74200812D01*
X129594180Y-74164502D01*
X129704494Y-74105537D01*
X129801185Y-74026185D01*
X129880537Y-73929494D01*
X129939502Y-73819180D01*
X129975812Y-73699482D01*
X129988072Y-73575000D01*
X129985000Y-72935750D01*
X129826250Y-72777000D01*
X128627000Y-72777000D01*
X128373000Y-72777000D01*
X128353000Y-72777000D01*
X128353000Y-72523000D01*
X128373000Y-72523000D01*
X128373000Y-71248750D01*
X128627000Y-71248750D01*
X128627000Y-72523000D01*
X129826250Y-72523000D01*
X129985000Y-72364250D01*
X129988072Y-71725000D01*
X129975812Y-71600518D01*
X129939502Y-71480820D01*
X129880537Y-71370506D01*
X129801185Y-71273815D01*
X129704494Y-71194463D01*
X129594180Y-71135498D01*
X129474482Y-71099188D01*
X129350000Y-71086928D01*
X128785750Y-71090000D01*
X128627000Y-71248750D01*
X128373000Y-71248750D01*
X128214250Y-71090000D01*
X127650000Y-71086928D01*
X127525518Y-71099188D01*
X127405820Y-71135498D01*
X127295506Y-71194463D01*
X127198815Y-71273815D01*
X127119463Y-71370506D01*
X127060498Y-71480820D01*
X127049945Y-71515608D01*
X126829014Y-71334294D01*
X126571034Y-71196401D01*
X126291111Y-71111487D01*
X126000000Y-71082815D01*
X125708890Y-71111487D01*
X125428967Y-71196401D01*
X125170987Y-71334294D01*
X124944866Y-71519866D01*
X124759294Y-71745986D01*
X124750000Y-71763374D01*
X124740706Y-71745987D01*
X124555134Y-71519866D01*
X124329014Y-71334294D01*
X124071034Y-71196401D01*
X123791111Y-71111487D01*
X123500000Y-71082815D01*
X123208890Y-71111487D01*
X122928967Y-71196401D01*
X122670987Y-71334294D01*
X122444866Y-71519866D01*
X122259294Y-71745986D01*
X122250000Y-71763374D01*
X122240706Y-71745987D01*
X122055134Y-71519866D01*
X121829014Y-71334294D01*
X121571034Y-71196401D01*
X121291111Y-71111487D01*
X121000000Y-71082815D01*
X120708890Y-71111487D01*
X120428967Y-71196401D01*
X120170987Y-71334294D01*
X119944866Y-71519866D01*
X119759294Y-71745986D01*
X119621401Y-72003966D01*
X119536487Y-72283889D01*
X119515000Y-72502050D01*
X116847200Y-72502050D01*
X116985000Y-72364250D01*
X116988072Y-71725000D01*
X116975812Y-71600518D01*
X116939502Y-71480820D01*
X116880537Y-71370506D01*
X116801185Y-71273815D01*
X116704494Y-71194463D01*
X116594180Y-71135498D01*
X116474482Y-71099188D01*
X116350000Y-71086928D01*
X115785750Y-71090000D01*
X115627000Y-71248750D01*
X115373000Y-71248750D01*
X115214250Y-71090000D01*
X114650000Y-71086928D01*
X114525518Y-71099188D01*
X114405820Y-71135498D01*
X114295506Y-71194463D01*
X114198815Y-71273815D01*
X114119463Y-71370506D01*
X114060498Y-71480820D01*
X114049945Y-71515608D01*
X113829014Y-71334294D01*
X113571034Y-71196401D01*
X113291111Y-71111487D01*
X113000000Y-71082815D01*
X112708890Y-71111487D01*
X112428967Y-71196401D01*
X112170987Y-71334294D01*
X112074772Y-71413255D01*
X111550508Y-70888992D01*
X111526706Y-70859989D01*
X111410981Y-70765016D01*
X111278952Y-70694444D01*
X111135691Y-70650987D01*
X111024038Y-70639990D01*
X111024027Y-70639990D01*
X110986705Y-70636314D01*
X110949383Y-70639990D01*
X109287332Y-70639990D01*
X109250009Y-70636314D01*
X109212686Y-70639990D01*
X109212677Y-70639990D01*
X109101024Y-70650987D01*
X108957763Y-70694444D01*
X108825733Y-70765016D01*
X108742093Y-70833658D01*
X108710009Y-70859989D01*
X108686211Y-70888987D01*
X108423539Y-71151659D01*
X108291111Y-71111487D01*
X108000000Y-71082815D01*
X107708890Y-71111487D01*
X107428967Y-71196401D01*
X107170987Y-71334294D01*
X106944866Y-71519866D01*
X106759294Y-71745986D01*
X106745504Y-71771786D01*
X106737106Y-71755914D01*
X106553540Y-71530305D01*
X106329487Y-71344843D01*
X106073557Y-71206655D01*
X105856890Y-71133524D01*
X105627000Y-71254845D01*
X105627000Y-72523000D01*
X105647000Y-72523000D01*
X105647000Y-72777000D01*
X105627000Y-72777000D01*
X105627000Y-72797000D01*
X105373000Y-72797000D01*
X105373000Y-72777000D01*
X105353000Y-72777000D01*
X105353000Y-72523000D01*
X105373000Y-72523000D01*
X105373000Y-71254845D01*
X105143110Y-71133524D01*
X104926443Y-71206655D01*
X104670513Y-71344843D01*
X104446460Y-71530305D01*
X104262894Y-71755914D01*
X104254496Y-71771786D01*
X104240706Y-71745987D01*
X104055134Y-71519866D01*
X103829014Y-71334294D01*
X103571034Y-71196401D01*
X103291111Y-71111487D01*
X103000000Y-71082815D01*
X102708890Y-71111487D01*
X102428967Y-71196401D01*
X102170987Y-71334294D01*
X101944866Y-71519866D01*
X101759294Y-71745986D01*
X101621401Y-72003966D01*
X101536487Y-72283889D01*
X101515000Y-72502050D01*
X101515000Y-72797949D01*
X101536487Y-73016110D01*
X101621401Y-73296033D01*
X101759294Y-73554013D01*
X101944866Y-73780134D01*
X102170986Y-73965706D01*
X102428966Y-74103599D01*
X102708889Y-74188513D01*
X103000000Y-74217185D01*
X103291110Y-74188513D01*
X103423539Y-74148341D01*
X104286201Y-75011003D01*
X104309999Y-75040001D01*
X104338997Y-75063799D01*
X104425723Y-75134974D01*
X104547377Y-75200000D01*
X104557753Y-75205546D01*
X104701014Y-75249003D01*
X104812667Y-75260000D01*
X104812676Y-75260000D01*
X104849999Y-75263676D01*
X104887322Y-75260000D01*
X108840000Y-75260000D01*
X108840000Y-75265000D01*
X108698061Y-75265000D01*
X108498102Y-75304774D01*
X108309744Y-75382795D01*
X108140226Y-75496063D01*
X107996063Y-75640226D01*
X107940038Y-75724074D01*
X107874482Y-75704188D01*
X107750000Y-75691928D01*
X106750000Y-75691928D01*
X106625518Y-75704188D01*
X106619563Y-75705994D01*
X106572312Y-75617593D01*
X106486711Y-75513289D01*
X106382407Y-75427688D01*
X106263406Y-75364081D01*
X106134283Y-75324912D01*
X106033647Y-75315000D01*
X106000000Y-75311686D01*
X105966353Y-75315000D01*
X100685000Y-75315000D01*
X100685000Y-66685000D01*
X149315000Y-66685000D01*
X149315000Y-74468367D01*
G37*
%TD.AperFunction*%
%TD*%
M02*
