%TF.GenerationSoftware,KiCad,Pcbnew,(5.1.9-0-10_14)*%
%TF.CreationDate,2021-05-20T17:24:27+01:00*%
%TF.ProjectId,Access,41636365-7373-42e6-9b69-6361645f7063,1*%
%TF.SameCoordinates,Original*%
%TF.FileFunction,Copper,L1,Top*%
%TF.FilePolarity,Positive*%
%FSLAX46Y46*%
G04 Gerber Fmt 4.6, Leading zero omitted, Abs format (unit mm)*
G04 Created by KiCad (PCBNEW (5.1.9-0-10_14)) date 2021-05-20 17:24:27*
%MOMM*%
%LPD*%
G01*
G04 APERTURE LIST*
%TA.AperFunction,NonConductor*%
%ADD10C,0.200000*%
%TD*%
%TA.AperFunction,EtchedComponent*%
%ADD11C,0.250000*%
%TD*%
%TA.AperFunction,EtchedComponent*%
%ADD12C,0.500000*%
%TD*%
%TA.AperFunction,SMDPad,CuDef*%
%ADD13R,0.900000X2.000000*%
%TD*%
%TA.AperFunction,SMDPad,CuDef*%
%ADD14R,2.000000X0.900000*%
%TD*%
%TA.AperFunction,SMDPad,CuDef*%
%ADD15R,5.000000X5.000000*%
%TD*%
%TA.AperFunction,SMDPad,CuDef*%
%ADD16R,0.650000X0.400000*%
%TD*%
%TA.AperFunction,SMDPad,CuDef*%
%ADD17R,0.700000X0.450000*%
%TD*%
%TA.AperFunction,ComponentPad*%
%ADD18C,2.600000*%
%TD*%
%TA.AperFunction,SMDPad,CuDef*%
%ADD19R,1.300000X1.550000*%
%TD*%
%TA.AperFunction,SMDPad,CuDef*%
%ADD20C,0.100000*%
%TD*%
%TA.AperFunction,SMDPad,CuDef*%
%ADD21R,0.500000X3.000000*%
%TD*%
%TA.AperFunction,SMDPad,CuDef*%
%ADD22R,1.425000X3.700000*%
%TD*%
%TA.AperFunction,SMDPad,CuDef*%
%ADD23R,0.650000X1.560000*%
%TD*%
%TA.AperFunction,ComponentPad*%
%ADD24C,0.500000*%
%TD*%
%TA.AperFunction,ComponentPad*%
%ADD25C,5.700000*%
%TD*%
%TA.AperFunction,SMDPad,CuDef*%
%ADD26R,0.900000X0.800000*%
%TD*%
%TA.AperFunction,ComponentPad*%
%ADD27O,1.700000X1.850000*%
%TD*%
%TA.AperFunction,SMDPad,CuDef*%
%ADD28R,0.500000X0.200000*%
%TD*%
%TA.AperFunction,SMDPad,CuDef*%
%ADD29R,1.140000X0.600000*%
%TD*%
%TA.AperFunction,ComponentPad*%
%ADD30C,1.700000*%
%TD*%
%TA.AperFunction,ComponentPad*%
%ADD31C,2.000000*%
%TD*%
%TA.AperFunction,SMDPad,CuDef*%
%ADD32R,1.140000X0.300000*%
%TD*%
%TA.AperFunction,ComponentPad*%
%ADD33C,0.600000*%
%TD*%
%TA.AperFunction,ComponentPad*%
%ADD34O,1.000000X1.000000*%
%TD*%
%TA.AperFunction,ComponentPad*%
%ADD35R,1.000000X1.000000*%
%TD*%
%TA.AperFunction,ComponentPad*%
%ADD36C,0.350000*%
%TD*%
%TA.AperFunction,SMDPad,CuDef*%
%ADD37R,0.200000X0.200000*%
%TD*%
%TA.AperFunction,SMDPad,CuDef*%
%ADD38C,0.500000*%
%TD*%
%TA.AperFunction,SMDPad,CuDef*%
%ADD39R,1.200000X0.800000*%
%TD*%
%TA.AperFunction,ViaPad*%
%ADD40C,0.800000*%
%TD*%
%TA.AperFunction,Conductor*%
%ADD41C,0.250000*%
%TD*%
%TA.AperFunction,Conductor*%
%ADD42C,0.500000*%
%TD*%
%TA.AperFunction,Conductor*%
%ADD43C,0.254000*%
%TD*%
%TA.AperFunction,Conductor*%
%ADD44C,0.100000*%
%TD*%
G04 APERTURE END LIST*
D10*
X143190476Y-67952380D02*
X143190476Y-66952380D01*
X143571428Y-66952380D01*
X143666666Y-67000000D01*
X143714285Y-67047619D01*
X143761904Y-67142857D01*
X143761904Y-67285714D01*
X143714285Y-67380952D01*
X143666666Y-67428571D01*
X143571428Y-67476190D01*
X143190476Y-67476190D01*
X144380952Y-66952380D02*
X144571428Y-66952380D01*
X144666666Y-67000000D01*
X144761904Y-67095238D01*
X144809523Y-67285714D01*
X144809523Y-67619047D01*
X144761904Y-67809523D01*
X144666666Y-67904761D01*
X144571428Y-67952380D01*
X144380952Y-67952380D01*
X144285714Y-67904761D01*
X144190476Y-67809523D01*
X144142857Y-67619047D01*
X144142857Y-67285714D01*
X144190476Y-67095238D01*
X144285714Y-67000000D01*
X144380952Y-66952380D01*
X145142857Y-66952380D02*
X145380952Y-67952380D01*
X145571428Y-67238095D01*
X145761904Y-67952380D01*
X146000000Y-66952380D01*
X146380952Y-67428571D02*
X146714285Y-67428571D01*
X146857142Y-67952380D02*
X146380952Y-67952380D01*
X146380952Y-66952380D01*
X146857142Y-66952380D01*
X147857142Y-67952380D02*
X147523809Y-67476190D01*
X147285714Y-67952380D02*
X147285714Y-66952380D01*
X147666666Y-66952380D01*
X147761904Y-67000000D01*
X147809523Y-67047619D01*
X147857142Y-67142857D01*
X147857142Y-67285714D01*
X147809523Y-67380952D01*
X147761904Y-67428571D01*
X147666666Y-67476190D01*
X147285714Y-67476190D01*
X134690476Y-67952380D02*
X134690476Y-66952380D01*
X134928571Y-66952380D01*
X135071428Y-67000000D01*
X135166666Y-67095238D01*
X135214285Y-67190476D01*
X135261904Y-67380952D01*
X135261904Y-67523809D01*
X135214285Y-67714285D01*
X135166666Y-67809523D01*
X135071428Y-67904761D01*
X134928571Y-67952380D01*
X134690476Y-67952380D01*
X135880952Y-66952380D02*
X136071428Y-66952380D01*
X136166666Y-67000000D01*
X136261904Y-67095238D01*
X136309523Y-67285714D01*
X136309523Y-67619047D01*
X136261904Y-67809523D01*
X136166666Y-67904761D01*
X136071428Y-67952380D01*
X135880952Y-67952380D01*
X135785714Y-67904761D01*
X135690476Y-67809523D01*
X135642857Y-67619047D01*
X135642857Y-67285714D01*
X135690476Y-67095238D01*
X135785714Y-67000000D01*
X135880952Y-66952380D01*
X136928571Y-66952380D02*
X137119047Y-66952380D01*
X137214285Y-67000000D01*
X137309523Y-67095238D01*
X137357142Y-67285714D01*
X137357142Y-67619047D01*
X137309523Y-67809523D01*
X137214285Y-67904761D01*
X137119047Y-67952380D01*
X136928571Y-67952380D01*
X136833333Y-67904761D01*
X136738095Y-67809523D01*
X136690476Y-67619047D01*
X136690476Y-67285714D01*
X136738095Y-67095238D01*
X136833333Y-67000000D01*
X136928571Y-66952380D01*
X138357142Y-67952380D02*
X138023809Y-67476190D01*
X137785714Y-67952380D02*
X137785714Y-66952380D01*
X138166666Y-66952380D01*
X138261904Y-67000000D01*
X138309523Y-67047619D01*
X138357142Y-67142857D01*
X138357142Y-67285714D01*
X138309523Y-67380952D01*
X138261904Y-67428571D01*
X138166666Y-67476190D01*
X137785714Y-67476190D01*
X123892857Y-67952380D02*
X123559523Y-67476190D01*
X123321428Y-67952380D02*
X123321428Y-66952380D01*
X123702380Y-66952380D01*
X123797619Y-67000000D01*
X123845238Y-67047619D01*
X123892857Y-67142857D01*
X123892857Y-67285714D01*
X123845238Y-67380952D01*
X123797619Y-67428571D01*
X123702380Y-67476190D01*
X123321428Y-67476190D01*
X124654761Y-67428571D02*
X124321428Y-67428571D01*
X124321428Y-67952380D02*
X124321428Y-66952380D01*
X124797619Y-66952380D01*
X125178571Y-67952380D02*
X125178571Y-66952380D01*
X125654761Y-67952380D02*
X125654761Y-66952380D01*
X125892857Y-66952380D01*
X126035714Y-67000000D01*
X126130952Y-67095238D01*
X126178571Y-67190476D01*
X126226190Y-67380952D01*
X126226190Y-67523809D01*
X126178571Y-67714285D01*
X126130952Y-67809523D01*
X126035714Y-67904761D01*
X125892857Y-67952380D01*
X125654761Y-67952380D01*
X106595238Y-67952380D02*
X106595238Y-66952380D01*
X107071428Y-67952380D02*
X107071428Y-66952380D01*
X107642857Y-67952380D01*
X107642857Y-66952380D01*
X108119047Y-67952380D02*
X108119047Y-66952380D01*
X108500000Y-66952380D01*
X108595238Y-67000000D01*
X108642857Y-67047619D01*
X108690476Y-67142857D01*
X108690476Y-67285714D01*
X108642857Y-67380952D01*
X108595238Y-67428571D01*
X108500000Y-67476190D01*
X108119047Y-67476190D01*
X109119047Y-66952380D02*
X109119047Y-67761904D01*
X109166666Y-67857142D01*
X109214285Y-67904761D01*
X109309523Y-67952380D01*
X109500000Y-67952380D01*
X109595238Y-67904761D01*
X109642857Y-67857142D01*
X109690476Y-67761904D01*
X109690476Y-66952380D01*
X110023809Y-66952380D02*
X110595238Y-66952380D01*
X110309523Y-67952380D02*
X110309523Y-66952380D01*
X110880952Y-67904761D02*
X111023809Y-67952380D01*
X111261904Y-67952380D01*
X111357142Y-67904761D01*
X111404761Y-67857142D01*
X111452380Y-67761904D01*
X111452380Y-67666666D01*
X111404761Y-67571428D01*
X111357142Y-67523809D01*
X111261904Y-67476190D01*
X111071428Y-67428571D01*
X110976190Y-67380952D01*
X110928571Y-67333333D01*
X110880952Y-67238095D01*
X110880952Y-67142857D01*
X110928571Y-67047619D01*
X110976190Y-67000000D01*
X111071428Y-66952380D01*
X111309523Y-66952380D01*
X111452380Y-67000000D01*
D11*
%TO.C,Reg1*%
X133150000Y-90550000D02*
G75*
G02*
X134000000Y-89700000I850000J0D01*
G01*
X138300000Y-90900000D02*
G75*
G02*
X137950000Y-90550000I0J350000D01*
G01*
X134850000Y-97050000D02*
G75*
G02*
X135200000Y-96700000I350000J0D01*
G01*
X137450000Y-96350000D02*
G75*
G02*
X137100000Y-96700000I-350000J0D01*
G01*
X135100000Y-90550000D02*
G75*
G02*
X135450000Y-90200000I350000J0D01*
G01*
X137100000Y-90200000D02*
G75*
G02*
X137450000Y-90550000I0J-350000D01*
G01*
X137100000Y-89700000D02*
G75*
G02*
X137950000Y-90550000I0J-850000D01*
G01*
X138300000Y-90900000D02*
X138800000Y-90900000D01*
D12*
X136500000Y-93700000D02*
X135100000Y-93700000D01*
X136350000Y-93700000D02*
X136350000Y-95700000D01*
D11*
X136350000Y-95800000D02*
X134850000Y-95800000D01*
X135200000Y-96700000D02*
X137100000Y-96700000D01*
X137450000Y-96350000D02*
X137450000Y-90600000D01*
X135450000Y-90200000D02*
X137100000Y-90200000D01*
X134050000Y-89700000D02*
X137100000Y-89700000D01*
%TO.C,Reg2*%
X141950000Y-90650000D02*
G75*
G02*
X142800000Y-89800000I850000J0D01*
G01*
X147100000Y-91000000D02*
G75*
G02*
X146750000Y-90650000I0J350000D01*
G01*
X143650000Y-97150000D02*
G75*
G02*
X144000000Y-96800000I350000J0D01*
G01*
X146250000Y-96450000D02*
G75*
G02*
X145900000Y-96800000I-350000J0D01*
G01*
X143900000Y-90650000D02*
G75*
G02*
X144250000Y-90300000I350000J0D01*
G01*
X145900000Y-90300000D02*
G75*
G02*
X146250000Y-90650000I0J-350000D01*
G01*
X145900000Y-89800000D02*
G75*
G02*
X146750000Y-90650000I0J-850000D01*
G01*
X147100000Y-91000000D02*
X147600000Y-91000000D01*
D12*
X145300000Y-93800000D02*
X143900000Y-93800000D01*
X145150000Y-93800000D02*
X145150000Y-95800000D01*
D11*
X145150000Y-95900000D02*
X143650000Y-95900000D01*
X144000000Y-96800000D02*
X145900000Y-96800000D01*
X146250000Y-96450000D02*
X146250000Y-90700000D01*
X144250000Y-90300000D02*
X145900000Y-90300000D01*
X142850000Y-89800000D02*
X145900000Y-89800000D01*
%TD*%
D13*
%TO.P,U1,38*%
%TO.N,GND*%
X107500000Y-81850000D03*
%TO.P,U1,37*%
%TO.N,Net-(U1-Pad37)*%
X108770000Y-81850000D03*
%TO.P,U1,36*%
%TO.N,IN3*%
X110040000Y-81850000D03*
%TO.P,U1,35*%
%TO.N,O*%
X111310000Y-81850000D03*
%TO.P,U1,34*%
%TO.N,I*%
X112580000Y-81850000D03*
%TO.P,U1,33*%
%TO.N,IN2*%
X113850000Y-81850000D03*
%TO.P,U1,32*%
%TO.N,Net-(U1-Pad32)*%
X115120000Y-81850000D03*
%TO.P,U1,31*%
%TO.N,Net-(U1-Pad31)*%
X116390000Y-81850000D03*
%TO.P,U1,30*%
%TO.N,IN1*%
X117660000Y-81850000D03*
%TO.P,U1,29*%
%TO.N,SHDN*%
X118930000Y-81850000D03*
%TO.P,U1,28*%
%TO.N,RFTX*%
X120200000Y-81850000D03*
%TO.P,U1,27*%
%TO.N,RFRX*%
X121470000Y-81850000D03*
%TO.P,U1,26*%
%TO.N,Net-(U1-Pad26)*%
X122740000Y-81850000D03*
%TO.P,U1,25*%
%TO.N,CBUS0*%
X124010000Y-81850000D03*
D14*
%TO.P,U1,24*%
%TO.N,Net-(U1-Pad24)*%
X125010000Y-84635000D03*
%TO.P,U1,23*%
%TO.N,OUT1*%
X125010000Y-85905000D03*
%TO.P,U1,22*%
%TO.N,Net-(U1-Pad22)*%
X125010000Y-87175000D03*
%TO.P,U1,21*%
%TO.N,Net-(U1-Pad21)*%
X125010000Y-88445000D03*
%TO.P,U1,20*%
%TO.N,Net-(U1-Pad20)*%
X125010000Y-89715000D03*
%TO.P,U1,19*%
%TO.N,Net-(U1-Pad19)*%
X125010000Y-90985000D03*
%TO.P,U1,18*%
%TO.N,Net-(U1-Pad18)*%
X125010000Y-92255000D03*
%TO.P,U1,17*%
%TO.N,Net-(U1-Pad17)*%
X125010000Y-93525000D03*
%TO.P,U1,16*%
%TO.N,TAMPER*%
X125010000Y-94795000D03*
%TO.P,U1,15*%
%TO.N,GND*%
X125010000Y-96065000D03*
D13*
%TO.P,U1,14*%
%TO.N,Net-(U1-Pad14)*%
X124010000Y-98850000D03*
%TO.P,U1,13*%
%TO.N,LED*%
X122740000Y-98850000D03*
%TO.P,U1,12*%
%TO.N,Net-(U1-Pad12)*%
X121470000Y-98850000D03*
%TO.P,U1,11*%
%TO.N,Net-(U1-Pad11)*%
X120200000Y-98850000D03*
%TO.P,U1,10*%
%TO.N,Net-(U1-Pad10)*%
X118930000Y-98850000D03*
%TO.P,U1,9*%
%TO.N,Net-(U1-Pad9)*%
X117660000Y-98850000D03*
%TO.P,U1,8*%
%TO.N,Net-(U1-Pad8)*%
X116390000Y-98850000D03*
%TO.P,U1,7*%
%TO.N,Net-(U1-Pad7)*%
X115120000Y-98850000D03*
%TO.P,U1,6*%
%TO.N,Net-(U1-Pad6)*%
X113850000Y-98850000D03*
%TO.P,U1,5*%
%TO.N,Net-(U1-Pad5)*%
X112580000Y-98850000D03*
%TO.P,U1,4*%
%TO.N,Net-(U1-Pad4)*%
X111310000Y-98850000D03*
%TO.P,U1,3*%
%TO.N,EN*%
X110040000Y-98850000D03*
%TO.P,U1,2*%
%TO.N,+3V3*%
X108770000Y-98850000D03*
%TO.P,U1,1*%
%TO.N,GND*%
X107500000Y-98850000D03*
D15*
%TO.P,U1,39*%
X115000000Y-91350000D03*
%TD*%
%TO.P,R13,2*%
%TO.N,LED*%
%TA.AperFunction,SMDPad,CuDef*%
G36*
G01*
X127575000Y-88725000D02*
X127575000Y-89275000D01*
G75*
G02*
X127375000Y-89475000I-200000J0D01*
G01*
X126975000Y-89475000D01*
G75*
G02*
X126775000Y-89275000I0J200000D01*
G01*
X126775000Y-88725000D01*
G75*
G02*
X126975000Y-88525000I200000J0D01*
G01*
X127375000Y-88525000D01*
G75*
G02*
X127575000Y-88725000I0J-200000D01*
G01*
G37*
%TD.AperFunction*%
%TO.P,R13,1*%
%TO.N,Net-(D4-Pad1)*%
%TA.AperFunction,SMDPad,CuDef*%
G36*
G01*
X129225000Y-88725000D02*
X129225000Y-89275000D01*
G75*
G02*
X129025000Y-89475000I-200000J0D01*
G01*
X128625000Y-89475000D01*
G75*
G02*
X128425000Y-89275000I0J200000D01*
G01*
X128425000Y-88725000D01*
G75*
G02*
X128625000Y-88525000I200000J0D01*
G01*
X129025000Y-88525000D01*
G75*
G02*
X129225000Y-88725000I0J-200000D01*
G01*
G37*
%TD.AperFunction*%
%TD*%
%TO.P,R12,2*%
%TO.N,+12V*%
%TA.AperFunction,SMDPad,CuDef*%
G36*
G01*
X140525000Y-95425000D02*
X141075000Y-95425000D01*
G75*
G02*
X141275000Y-95625000I0J-200000D01*
G01*
X141275000Y-96025000D01*
G75*
G02*
X141075000Y-96225000I-200000J0D01*
G01*
X140525000Y-96225000D01*
G75*
G02*
X140325000Y-96025000I0J200000D01*
G01*
X140325000Y-95625000D01*
G75*
G02*
X140525000Y-95425000I200000J0D01*
G01*
G37*
%TD.AperFunction*%
%TO.P,R12,1*%
%TO.N,Net-(Q1-Pad3)*%
%TA.AperFunction,SMDPad,CuDef*%
G36*
G01*
X140525000Y-93775000D02*
X141075000Y-93775000D01*
G75*
G02*
X141275000Y-93975000I0J-200000D01*
G01*
X141275000Y-94375000D01*
G75*
G02*
X141075000Y-94575000I-200000J0D01*
G01*
X140525000Y-94575000D01*
G75*
G02*
X140325000Y-94375000I0J200000D01*
G01*
X140325000Y-93975000D01*
G75*
G02*
X140525000Y-93775000I200000J0D01*
G01*
G37*
%TD.AperFunction*%
%TD*%
%TO.P,R11,2*%
%TO.N,SHDN*%
%TA.AperFunction,SMDPad,CuDef*%
G36*
G01*
X132575000Y-87975000D02*
X132575000Y-88525000D01*
G75*
G02*
X132375000Y-88725000I-200000J0D01*
G01*
X131975000Y-88725000D01*
G75*
G02*
X131775000Y-88525000I0J200000D01*
G01*
X131775000Y-87975000D01*
G75*
G02*
X131975000Y-87775000I200000J0D01*
G01*
X132375000Y-87775000D01*
G75*
G02*
X132575000Y-87975000I0J-200000D01*
G01*
G37*
%TD.AperFunction*%
%TO.P,R11,1*%
%TO.N,Net-(Q1-Pad1)*%
%TA.AperFunction,SMDPad,CuDef*%
G36*
G01*
X134225000Y-87975000D02*
X134225000Y-88525000D01*
G75*
G02*
X134025000Y-88725000I-200000J0D01*
G01*
X133625000Y-88725000D01*
G75*
G02*
X133425000Y-88525000I0J200000D01*
G01*
X133425000Y-87975000D01*
G75*
G02*
X133625000Y-87775000I200000J0D01*
G01*
X134025000Y-87775000D01*
G75*
G02*
X134225000Y-87975000I0J-200000D01*
G01*
G37*
%TD.AperFunction*%
%TD*%
%TO.P,R10,2*%
%TO.N,RFTX*%
%TA.AperFunction,SMDPad,CuDef*%
G36*
G01*
X120825000Y-74725000D02*
X120825000Y-75275000D01*
G75*
G02*
X120625000Y-75475000I-200000J0D01*
G01*
X120225000Y-75475000D01*
G75*
G02*
X120025000Y-75275000I0J200000D01*
G01*
X120025000Y-74725000D01*
G75*
G02*
X120225000Y-74525000I200000J0D01*
G01*
X120625000Y-74525000D01*
G75*
G02*
X120825000Y-74725000I0J-200000D01*
G01*
G37*
%TD.AperFunction*%
%TO.P,R10,1*%
%TO.N,Net-(J4-Pad4)*%
%TA.AperFunction,SMDPad,CuDef*%
G36*
G01*
X122475000Y-74725000D02*
X122475000Y-75275000D01*
G75*
G02*
X122275000Y-75475000I-200000J0D01*
G01*
X121875000Y-75475000D01*
G75*
G02*
X121675000Y-75275000I0J200000D01*
G01*
X121675000Y-74725000D01*
G75*
G02*
X121875000Y-74525000I200000J0D01*
G01*
X122275000Y-74525000D01*
G75*
G02*
X122475000Y-74725000I0J-200000D01*
G01*
G37*
%TD.AperFunction*%
%TD*%
%TO.P,R9,2*%
%TO.N,RFRX*%
%TA.AperFunction,SMDPad,CuDef*%
G36*
G01*
X125175000Y-75275000D02*
X125175000Y-74725000D01*
G75*
G02*
X125375000Y-74525000I200000J0D01*
G01*
X125775000Y-74525000D01*
G75*
G02*
X125975000Y-74725000I0J-200000D01*
G01*
X125975000Y-75275000D01*
G75*
G02*
X125775000Y-75475000I-200000J0D01*
G01*
X125375000Y-75475000D01*
G75*
G02*
X125175000Y-75275000I0J200000D01*
G01*
G37*
%TD.AperFunction*%
%TO.P,R9,1*%
%TO.N,Net-(J4-Pad3)*%
%TA.AperFunction,SMDPad,CuDef*%
G36*
G01*
X123525000Y-75275000D02*
X123525000Y-74725000D01*
G75*
G02*
X123725000Y-74525000I200000J0D01*
G01*
X124125000Y-74525000D01*
G75*
G02*
X124325000Y-74725000I0J-200000D01*
G01*
X124325000Y-75275000D01*
G75*
G02*
X124125000Y-75475000I-200000J0D01*
G01*
X123725000Y-75475000D01*
G75*
G02*
X123525000Y-75275000I0J200000D01*
G01*
G37*
%TD.AperFunction*%
%TD*%
%TO.P,R8,2*%
%TO.N,IN3*%
%TA.AperFunction,SMDPad,CuDef*%
G36*
G01*
X104425000Y-75275000D02*
X104425000Y-74725000D01*
G75*
G02*
X104625000Y-74525000I200000J0D01*
G01*
X105025000Y-74525000D01*
G75*
G02*
X105225000Y-74725000I0J-200000D01*
G01*
X105225000Y-75275000D01*
G75*
G02*
X105025000Y-75475000I-200000J0D01*
G01*
X104625000Y-75475000D01*
G75*
G02*
X104425000Y-75275000I0J200000D01*
G01*
G37*
%TD.AperFunction*%
%TO.P,R8,1*%
%TO.N,Net-(J5-Pad6)*%
%TA.AperFunction,SMDPad,CuDef*%
G36*
G01*
X102775000Y-75275000D02*
X102775000Y-74725000D01*
G75*
G02*
X102975000Y-74525000I200000J0D01*
G01*
X103375000Y-74525000D01*
G75*
G02*
X103575000Y-74725000I0J-200000D01*
G01*
X103575000Y-75275000D01*
G75*
G02*
X103375000Y-75475000I-200000J0D01*
G01*
X102975000Y-75475000D01*
G75*
G02*
X102775000Y-75275000I0J200000D01*
G01*
G37*
%TD.AperFunction*%
%TD*%
%TO.P,R7,2*%
%TO.N,IN2*%
%TA.AperFunction,SMDPad,CuDef*%
G36*
G01*
X109425000Y-75275000D02*
X109425000Y-74725000D01*
G75*
G02*
X109625000Y-74525000I200000J0D01*
G01*
X110025000Y-74525000D01*
G75*
G02*
X110225000Y-74725000I0J-200000D01*
G01*
X110225000Y-75275000D01*
G75*
G02*
X110025000Y-75475000I-200000J0D01*
G01*
X109625000Y-75475000D01*
G75*
G02*
X109425000Y-75275000I0J200000D01*
G01*
G37*
%TD.AperFunction*%
%TO.P,R7,1*%
%TO.N,Net-(J5-Pad4)*%
%TA.AperFunction,SMDPad,CuDef*%
G36*
G01*
X107775000Y-75275000D02*
X107775000Y-74725000D01*
G75*
G02*
X107975000Y-74525000I200000J0D01*
G01*
X108375000Y-74525000D01*
G75*
G02*
X108575000Y-74725000I0J-200000D01*
G01*
X108575000Y-75275000D01*
G75*
G02*
X108375000Y-75475000I-200000J0D01*
G01*
X107975000Y-75475000D01*
G75*
G02*
X107775000Y-75275000I0J200000D01*
G01*
G37*
%TD.AperFunction*%
%TD*%
%TO.P,R6,2*%
%TO.N,IN1*%
%TA.AperFunction,SMDPad,CuDef*%
G36*
G01*
X114425000Y-75275000D02*
X114425000Y-74725000D01*
G75*
G02*
X114625000Y-74525000I200000J0D01*
G01*
X115025000Y-74525000D01*
G75*
G02*
X115225000Y-74725000I0J-200000D01*
G01*
X115225000Y-75275000D01*
G75*
G02*
X115025000Y-75475000I-200000J0D01*
G01*
X114625000Y-75475000D01*
G75*
G02*
X114425000Y-75275000I0J200000D01*
G01*
G37*
%TD.AperFunction*%
%TO.P,R6,1*%
%TO.N,Net-(J5-Pad2)*%
%TA.AperFunction,SMDPad,CuDef*%
G36*
G01*
X112775000Y-75275000D02*
X112775000Y-74725000D01*
G75*
G02*
X112975000Y-74525000I200000J0D01*
G01*
X113375000Y-74525000D01*
G75*
G02*
X113575000Y-74725000I0J-200000D01*
G01*
X113575000Y-75275000D01*
G75*
G02*
X113375000Y-75475000I-200000J0D01*
G01*
X112975000Y-75475000D01*
G75*
G02*
X112775000Y-75275000I0J200000D01*
G01*
G37*
%TD.AperFunction*%
%TD*%
%TO.P,R5,2*%
%TO.N,Net-(J1-PadA6)*%
%TA.AperFunction,SMDPad,CuDef*%
G36*
G01*
X142175000Y-87775000D02*
X142175000Y-87225000D01*
G75*
G02*
X142375000Y-87025000I200000J0D01*
G01*
X142775000Y-87025000D01*
G75*
G02*
X142975000Y-87225000I0J-200000D01*
G01*
X142975000Y-87775000D01*
G75*
G02*
X142775000Y-87975000I-200000J0D01*
G01*
X142375000Y-87975000D01*
G75*
G02*
X142175000Y-87775000I0J200000D01*
G01*
G37*
%TD.AperFunction*%
%TO.P,R5,1*%
%TO.N,D+*%
%TA.AperFunction,SMDPad,CuDef*%
G36*
G01*
X140525000Y-87775000D02*
X140525000Y-87225000D01*
G75*
G02*
X140725000Y-87025000I200000J0D01*
G01*
X141125000Y-87025000D01*
G75*
G02*
X141325000Y-87225000I0J-200000D01*
G01*
X141325000Y-87775000D01*
G75*
G02*
X141125000Y-87975000I-200000J0D01*
G01*
X140725000Y-87975000D01*
G75*
G02*
X140525000Y-87775000I0J200000D01*
G01*
G37*
%TD.AperFunction*%
%TD*%
%TO.P,R4,2*%
%TO.N,Net-(J1-PadA7)*%
%TA.AperFunction,SMDPad,CuDef*%
G36*
G01*
X142175000Y-86275000D02*
X142175000Y-85725000D01*
G75*
G02*
X142375000Y-85525000I200000J0D01*
G01*
X142775000Y-85525000D01*
G75*
G02*
X142975000Y-85725000I0J-200000D01*
G01*
X142975000Y-86275000D01*
G75*
G02*
X142775000Y-86475000I-200000J0D01*
G01*
X142375000Y-86475000D01*
G75*
G02*
X142175000Y-86275000I0J200000D01*
G01*
G37*
%TD.AperFunction*%
%TO.P,R4,1*%
%TO.N,D-*%
%TA.AperFunction,SMDPad,CuDef*%
G36*
G01*
X140525000Y-86275000D02*
X140525000Y-85725000D01*
G75*
G02*
X140725000Y-85525000I200000J0D01*
G01*
X141125000Y-85525000D01*
G75*
G02*
X141325000Y-85725000I0J-200000D01*
G01*
X141325000Y-86275000D01*
G75*
G02*
X141125000Y-86475000I-200000J0D01*
G01*
X140725000Y-86475000D01*
G75*
G02*
X140525000Y-86275000I0J200000D01*
G01*
G37*
%TD.AperFunction*%
%TD*%
%TO.P,R2,2*%
%TO.N,Net-(J1-PadB5)*%
%TA.AperFunction,SMDPad,CuDef*%
G36*
G01*
X141975000Y-77175000D02*
X142525000Y-77175000D01*
G75*
G02*
X142725000Y-77375000I0J-200000D01*
G01*
X142725000Y-77775000D01*
G75*
G02*
X142525000Y-77975000I-200000J0D01*
G01*
X141975000Y-77975000D01*
G75*
G02*
X141775000Y-77775000I0J200000D01*
G01*
X141775000Y-77375000D01*
G75*
G02*
X141975000Y-77175000I200000J0D01*
G01*
G37*
%TD.AperFunction*%
%TO.P,R2,1*%
%TO.N,GND*%
%TA.AperFunction,SMDPad,CuDef*%
G36*
G01*
X141975000Y-75525000D02*
X142525000Y-75525000D01*
G75*
G02*
X142725000Y-75725000I0J-200000D01*
G01*
X142725000Y-76125000D01*
G75*
G02*
X142525000Y-76325000I-200000J0D01*
G01*
X141975000Y-76325000D01*
G75*
G02*
X141775000Y-76125000I0J200000D01*
G01*
X141775000Y-75725000D01*
G75*
G02*
X141975000Y-75525000I200000J0D01*
G01*
G37*
%TD.AperFunction*%
%TD*%
%TO.P,R1,2*%
%TO.N,GND*%
%TA.AperFunction,SMDPad,CuDef*%
G36*
G01*
X141025000Y-76325000D02*
X140475000Y-76325000D01*
G75*
G02*
X140275000Y-76125000I0J200000D01*
G01*
X140275000Y-75725000D01*
G75*
G02*
X140475000Y-75525000I200000J0D01*
G01*
X141025000Y-75525000D01*
G75*
G02*
X141225000Y-75725000I0J-200000D01*
G01*
X141225000Y-76125000D01*
G75*
G02*
X141025000Y-76325000I-200000J0D01*
G01*
G37*
%TD.AperFunction*%
%TO.P,R1,1*%
%TO.N,Net-(J1-PadA5)*%
%TA.AperFunction,SMDPad,CuDef*%
G36*
G01*
X141025000Y-77975000D02*
X140475000Y-77975000D01*
G75*
G02*
X140275000Y-77775000I0J200000D01*
G01*
X140275000Y-77375000D01*
G75*
G02*
X140475000Y-77175000I200000J0D01*
G01*
X141025000Y-77175000D01*
G75*
G02*
X141225000Y-77375000I0J-200000D01*
G01*
X141225000Y-77775000D01*
G75*
G02*
X141025000Y-77975000I-200000J0D01*
G01*
G37*
%TD.AperFunction*%
%TD*%
%TO.P,C1,2*%
%TO.N,GND*%
%TA.AperFunction,SMDPad,CuDef*%
G36*
G01*
X132493413Y-85762913D02*
X132846967Y-86116467D01*
G75*
G02*
X132846967Y-86434665I-159099J-159099D01*
G01*
X132528769Y-86752863D01*
G75*
G02*
X132210571Y-86752863I-159099J159099D01*
G01*
X131857017Y-86399309D01*
G75*
G02*
X131857017Y-86081111I159099J159099D01*
G01*
X132175215Y-85762913D01*
G75*
G02*
X132493413Y-85762913I159099J-159099D01*
G01*
G37*
%TD.AperFunction*%
%TO.P,C1,1*%
%TO.N,+3V3*%
%TA.AperFunction,SMDPad,CuDef*%
G36*
G01*
X133589429Y-84666897D02*
X133942983Y-85020451D01*
G75*
G02*
X133942983Y-85338649I-159099J-159099D01*
G01*
X133624785Y-85656847D01*
G75*
G02*
X133306587Y-85656847I-159099J159099D01*
G01*
X132953033Y-85303293D01*
G75*
G02*
X132953033Y-84985095I159099J159099D01*
G01*
X133271231Y-84666897D01*
G75*
G02*
X133589429Y-84666897I159099J-159099D01*
G01*
G37*
%TD.AperFunction*%
%TD*%
%TO.P,R3,2*%
%TO.N,OUT1*%
%TA.AperFunction,SMDPad,CuDef*%
G36*
G01*
X124325000Y-79262500D02*
X124325000Y-79737500D01*
G75*
G02*
X124087500Y-79975000I-237500J0D01*
G01*
X123587500Y-79975000D01*
G75*
G02*
X123350000Y-79737500I0J237500D01*
G01*
X123350000Y-79262500D01*
G75*
G02*
X123587500Y-79025000I237500J0D01*
G01*
X124087500Y-79025000D01*
G75*
G02*
X124325000Y-79262500I0J-237500D01*
G01*
G37*
%TD.AperFunction*%
%TO.P,R3,1*%
%TO.N,Net-(R3-Pad1)*%
%TA.AperFunction,SMDPad,CuDef*%
G36*
G01*
X126150000Y-79262500D02*
X126150000Y-79737500D01*
G75*
G02*
X125912500Y-79975000I-237500J0D01*
G01*
X125412500Y-79975000D01*
G75*
G02*
X125175000Y-79737500I0J237500D01*
G01*
X125175000Y-79262500D01*
G75*
G02*
X125412500Y-79025000I237500J0D01*
G01*
X125912500Y-79025000D01*
G75*
G02*
X126150000Y-79262500I0J-237500D01*
G01*
G37*
%TD.AperFunction*%
%TD*%
D16*
%TO.P,D3,6*%
%TO.N,RFRX*%
X125700000Y-76600000D03*
%TO.P,D3,4*%
%TO.N,GND*%
X125700000Y-77900000D03*
%TO.P,D3,2*%
%TO.N,+3V3*%
X123800000Y-77250000D03*
%TO.P,D3,5*%
X125700000Y-77250000D03*
%TO.P,D3,3*%
%TO.N,RFTX*%
X123800000Y-77900000D03*
%TO.P,D3,1*%
%TO.N,GND*%
X123800000Y-76600000D03*
%TD*%
D17*
%TO.P,D2,3*%
%TO.N,IN3*%
X108000000Y-77250000D03*
%TO.P,D2,2*%
%TO.N,+3V3*%
X110000000Y-76600000D03*
%TO.P,D2,1*%
%TO.N,GND*%
X110000000Y-77900000D03*
%TD*%
D16*
%TO.P,D1,6*%
%TO.N,IN1*%
X114950000Y-76600000D03*
%TO.P,D1,4*%
%TO.N,GND*%
X114950000Y-77900000D03*
%TO.P,D1,2*%
%TO.N,+3V3*%
X113050000Y-77250000D03*
%TO.P,D1,5*%
X114950000Y-77250000D03*
%TO.P,D1,3*%
%TO.N,IN2*%
X113050000Y-77900000D03*
%TO.P,D1,1*%
%TO.N,GND*%
X113050000Y-76600000D03*
%TD*%
D18*
%TO.P,J6,2*%
%TO.N,TAMPER*%
X129400000Y-92620000D03*
%TO.P,J6,1*%
%TO.N,GND*%
%TA.AperFunction,ComponentPad*%
G36*
G01*
X130050000Y-99000000D02*
X128750000Y-99000000D01*
G75*
G02*
X128100000Y-98350000I0J650000D01*
G01*
X128100000Y-97050000D01*
G75*
G02*
X128750000Y-96400000I650000J0D01*
G01*
X130050000Y-96400000D01*
G75*
G02*
X130700000Y-97050000I0J-650000D01*
G01*
X130700000Y-98350000D01*
G75*
G02*
X130050000Y-99000000I-650000J0D01*
G01*
G37*
%TD.AperFunction*%
%TD*%
D19*
%TO.P,SW1,2*%
%TO.N,TAMPER*%
X127150000Y-99180000D03*
%TO.P,SW1,1*%
%TO.N,GND*%
X131650000Y-99180000D03*
X131650000Y-91220000D03*
%TO.P,SW1,2*%
%TO.N,TAMPER*%
X127150000Y-91220000D03*
%TD*%
%TO.P,Reg1,3*%
%TO.N,GND*%
%TA.AperFunction,SMDPad,CuDef*%
G36*
G01*
X133850450Y-98350000D02*
X132949550Y-98350000D01*
G75*
G02*
X132700000Y-98100450I0J249550D01*
G01*
X132700000Y-97449550D01*
G75*
G02*
X132949550Y-97200000I249550J0D01*
G01*
X133850450Y-97200000D01*
G75*
G02*
X134100000Y-97449550I0J-249550D01*
G01*
X134100000Y-98100450D01*
G75*
G02*
X133850450Y-98350000I-249550J0D01*
G01*
G37*
%TD.AperFunction*%
%TO.P,Reg1,2*%
%TO.N,+12V*%
%TA.AperFunction,SMDPad,CuDef*%
G36*
G01*
X133850450Y-96300000D02*
X132949550Y-96300000D01*
G75*
G02*
X132700000Y-96050450I0J249550D01*
G01*
X132700000Y-95399550D01*
G75*
G02*
X132949550Y-95150000I249550J0D01*
G01*
X133850450Y-95150000D01*
G75*
G02*
X134100000Y-95399550I0J-249550D01*
G01*
X134100000Y-96050450D01*
G75*
G02*
X133850450Y-96300000I-249550J0D01*
G01*
G37*
%TD.AperFunction*%
%TA.AperFunction,SMDPad,CuDef*%
D20*
G36*
X134350000Y-94800000D02*
G01*
X134344708Y-94800000D01*
X134344707Y-94811969D01*
X134339935Y-94909532D01*
X134339935Y-94909551D01*
X134339933Y-94909573D01*
X134339743Y-94912968D01*
X134338605Y-94923114D01*
X134337599Y-94933373D01*
X134323327Y-95030024D01*
X134322803Y-95033405D01*
X134320672Y-95043430D01*
X134318677Y-95053506D01*
X134295045Y-95148287D01*
X134295042Y-95148302D01*
X134295037Y-95148318D01*
X134294190Y-95151617D01*
X134291092Y-95161385D01*
X134288123Y-95171217D01*
X134255355Y-95263242D01*
X134255351Y-95263254D01*
X134255350Y-95263256D01*
X134254180Y-95266470D01*
X134250136Y-95275905D01*
X134246229Y-95285384D01*
X134204631Y-95373786D01*
X134203153Y-95376871D01*
X134198229Y-95385827D01*
X134193393Y-95394924D01*
X134143374Y-95478828D01*
X134143366Y-95478844D01*
X134143355Y-95478861D01*
X134141593Y-95481770D01*
X134135810Y-95490216D01*
X134130119Y-95498781D01*
X134072149Y-95577409D01*
X134072144Y-95577416D01*
X134072142Y-95577418D01*
X134070093Y-95580157D01*
X134063498Y-95588016D01*
X134057015Y-95595965D01*
X133991643Y-95668570D01*
X133989336Y-95671096D01*
X133982026Y-95678254D01*
X133974775Y-95685556D01*
X133902641Y-95751423D01*
X133902630Y-95751434D01*
X133902619Y-95751443D01*
X133900085Y-95753724D01*
X133892120Y-95760128D01*
X133884186Y-95766691D01*
X133850000Y-95792266D01*
X133850000Y-96050000D01*
X133100000Y-96050000D01*
X133100000Y-95300000D01*
X133664143Y-95300000D01*
X133684858Y-95276993D01*
X133728614Y-95217646D01*
X133766369Y-95154312D01*
X133797761Y-95087599D01*
X133822496Y-95018134D01*
X133840333Y-94946596D01*
X133851106Y-94873639D01*
X133854708Y-94800000D01*
X133850000Y-94800000D01*
X133850000Y-94300000D01*
X134350000Y-94300000D01*
X134350000Y-94800000D01*
G37*
%TD.AperFunction*%
D21*
%TO.P,Reg1,3*%
%TO.N,GND*%
X139350000Y-96700000D03*
%TA.AperFunction,SMDPad,CuDef*%
D20*
%TO.P,Reg1,4*%
%TO.N,+3V3*%
G36*
X139600000Y-92950000D02*
G01*
X138603704Y-92950000D01*
X138573897Y-92951667D01*
X138549793Y-92955398D01*
X138526160Y-92961466D01*
X138503236Y-92969810D01*
X138481241Y-92980348D01*
X138460364Y-92992992D01*
X138440839Y-93007598D01*
X138422818Y-93024054D01*
X138406495Y-93042183D01*
X138392021Y-93061813D01*
X138379530Y-93082767D01*
X138369139Y-93104849D01*
X138360956Y-93127830D01*
X138355053Y-93151503D01*
X138351491Y-93175627D01*
X138350000Y-93206117D01*
X138350000Y-96400000D01*
X138349702Y-96400000D01*
X138349702Y-96412213D01*
X138344929Y-96509776D01*
X138344929Y-96509795D01*
X138344927Y-96509817D01*
X138344734Y-96513282D01*
X138343566Y-96523698D01*
X138342545Y-96534103D01*
X138328273Y-96630754D01*
X138327739Y-96634204D01*
X138325564Y-96644436D01*
X138323529Y-96654715D01*
X138299893Y-96749513D01*
X138299025Y-96752894D01*
X138295863Y-96762859D01*
X138292834Y-96772894D01*
X138260061Y-96864932D01*
X138258867Y-96868213D01*
X138254739Y-96877844D01*
X138250754Y-96887513D01*
X138209156Y-96975915D01*
X138207647Y-96979064D01*
X138202589Y-96988264D01*
X138197687Y-96997484D01*
X138147660Y-97081404D01*
X138145852Y-97084390D01*
X138139914Y-97093062D01*
X138134143Y-97101748D01*
X138076176Y-97180371D01*
X138076169Y-97180382D01*
X138076160Y-97180393D01*
X138074076Y-97183181D01*
X138067341Y-97191207D01*
X138060731Y-97199311D01*
X137995365Y-97271908D01*
X137995357Y-97271917D01*
X137995347Y-97271927D01*
X137993005Y-97274494D01*
X137985494Y-97281849D01*
X137978146Y-97289248D01*
X137906010Y-97355117D01*
X137906001Y-97355126D01*
X137905990Y-97355135D01*
X137903405Y-97357463D01*
X137895263Y-97364009D01*
X137887181Y-97370695D01*
X137808950Y-97429220D01*
X137806140Y-97431292D01*
X137798831Y-97436075D01*
X137791671Y-97441051D01*
X137732478Y-97478038D01*
X137729504Y-97479868D01*
X137708019Y-97491484D01*
X137685502Y-97500949D01*
X137662170Y-97508171D01*
X137638244Y-97513082D01*
X137613953Y-97515635D01*
X137600000Y-97515732D01*
X137600000Y-98300000D01*
X136600000Y-98300000D01*
X136600000Y-97300000D01*
X137352543Y-97300000D01*
X137350493Y-97281720D01*
X137350153Y-97257297D01*
X137352197Y-97232958D01*
X137356605Y-97208935D01*
X137363339Y-97185456D01*
X137372330Y-97162747D01*
X137383495Y-97141023D01*
X137396726Y-97120492D01*
X137411898Y-97101351D01*
X137428865Y-97083781D01*
X137447466Y-97067951D01*
X137467522Y-97054012D01*
X137517829Y-97022577D01*
X137577879Y-96977653D01*
X137631968Y-96928264D01*
X137680975Y-96873835D01*
X137724445Y-96814873D01*
X137761944Y-96751969D01*
X137793133Y-96685689D01*
X137817703Y-96616687D01*
X137835424Y-96545613D01*
X137846123Y-96473155D01*
X137850000Y-96393898D01*
X137850000Y-93200000D01*
X137850298Y-93200000D01*
X137850298Y-93187789D01*
X137852684Y-93138998D01*
X137852879Y-93135513D01*
X137854045Y-93125115D01*
X137855068Y-93114689D01*
X137862204Y-93066363D01*
X137862737Y-93062913D01*
X137864919Y-93052648D01*
X137866948Y-93042402D01*
X137878766Y-92995003D01*
X137879634Y-92991622D01*
X137882791Y-92981670D01*
X137885826Y-92971619D01*
X137902213Y-92925600D01*
X137903407Y-92922319D01*
X137907541Y-92912674D01*
X137911519Y-92903022D01*
X137932318Y-92858821D01*
X137933826Y-92855672D01*
X137938903Y-92846437D01*
X137943786Y-92837254D01*
X137968799Y-92795294D01*
X137970607Y-92792307D01*
X137976547Y-92783633D01*
X137982317Y-92774948D01*
X138011296Y-92735643D01*
X138011305Y-92735629D01*
X138011317Y-92735614D01*
X138013397Y-92732833D01*
X138020125Y-92724815D01*
X138026743Y-92716701D01*
X138059430Y-92680398D01*
X138061784Y-92677820D01*
X138069273Y-92670487D01*
X138076637Y-92663071D01*
X138112710Y-92630131D01*
X138115304Y-92627795D01*
X138123488Y-92621215D01*
X138131534Y-92614559D01*
X138170640Y-92585305D01*
X138170649Y-92585297D01*
X138170661Y-92585289D01*
X138173459Y-92583225D01*
X138182212Y-92577498D01*
X138190898Y-92571639D01*
X138232682Y-92546334D01*
X138235681Y-92544546D01*
X138245000Y-92539674D01*
X138254163Y-92534720D01*
X138298217Y-92513611D01*
X138301376Y-92512125D01*
X138311080Y-92508204D01*
X138320740Y-92504144D01*
X138366635Y-92487440D01*
X138366644Y-92487437D01*
X138369933Y-92486265D01*
X138380002Y-92483302D01*
X138389971Y-92480216D01*
X138437286Y-92468067D01*
X138440673Y-92467222D01*
X138451001Y-92465252D01*
X138461216Y-92463155D01*
X138509479Y-92455684D01*
X138509488Y-92455682D01*
X138509498Y-92455681D01*
X138512945Y-92455171D01*
X138523407Y-92454219D01*
X138533780Y-92453129D01*
X138582553Y-92450402D01*
X138586039Y-92450231D01*
X138590843Y-92450265D01*
X138595650Y-92450013D01*
X138599141Y-92450001D01*
X138600000Y-92450004D01*
X138600000Y-92450000D01*
X139600000Y-92450000D01*
X139600000Y-92950000D01*
G37*
%TD.AperFunction*%
%TO.P,Reg1,~*%
%TO.N,N/C*%
%TA.AperFunction,SMDPad,CuDef*%
G36*
G01*
X135650000Y-96125626D02*
X135650000Y-94874374D01*
G75*
G02*
X135899374Y-94625000I249374J0D01*
G01*
X136825626Y-94625000D01*
G75*
G02*
X137075000Y-94874374I0J-249374D01*
G01*
X137075000Y-96125626D01*
G75*
G02*
X136825626Y-96375000I-249374J0D01*
G01*
X135899374Y-96375000D01*
G75*
G02*
X135650000Y-96125626I0J249374D01*
G01*
G37*
%TD.AperFunction*%
%TO.P,Reg1,3*%
%TO.N,GND*%
%TA.AperFunction,SMDPad,CuDef*%
G36*
G01*
X138625000Y-96125626D02*
X138625000Y-94874374D01*
G75*
G02*
X138874374Y-94625000I249374J0D01*
G01*
X139800626Y-94625000D01*
G75*
G02*
X140050000Y-94874374I0J-249374D01*
G01*
X140050000Y-96125626D01*
G75*
G02*
X139800626Y-96375000I-249374J0D01*
G01*
X138874374Y-96375000D01*
G75*
G02*
X138625000Y-96125626I0J249374D01*
G01*
G37*
%TD.AperFunction*%
%TA.AperFunction,SMDPad,CuDef*%
G36*
X134350000Y-92450000D02*
G01*
X135375000Y-92450000D01*
X135375000Y-92950000D01*
X132825000Y-92950000D01*
X132825000Y-92450000D01*
X133850000Y-92450000D01*
X133850000Y-91200000D01*
X134350000Y-91200000D01*
X134350000Y-92450000D01*
G37*
%TD.AperFunction*%
D22*
%TO.P,Reg1,4*%
%TO.N,+3V3*%
X139350000Y-92450000D03*
%TO.P,Reg1,~*%
%TO.N,N/C*%
X136350000Y-92450000D03*
%TO.P,Reg1,3*%
%TO.N,GND*%
%TA.AperFunction,SMDPad,CuDef*%
G36*
G01*
X138662500Y-98096200D02*
X138662500Y-97303800D01*
G75*
G02*
X138966300Y-97000000I303800J0D01*
G01*
X139783700Y-97000000D01*
G75*
G02*
X140087500Y-97303800I0J-303800D01*
G01*
X140087500Y-98096200D01*
G75*
G02*
X139783700Y-98400000I-303800J0D01*
G01*
X138966300Y-98400000D01*
G75*
G02*
X138662500Y-98096200I0J303800D01*
G01*
G37*
%TD.AperFunction*%
%TO.P,Reg1,4*%
%TO.N,+3V3*%
%TA.AperFunction,SMDPad,CuDef*%
G36*
G01*
X136387500Y-98096200D02*
X136387500Y-97303800D01*
G75*
G02*
X136691300Y-97000000I303800J0D01*
G01*
X137508700Y-97000000D01*
G75*
G02*
X137812500Y-97303800I0J-303800D01*
G01*
X137812500Y-98096200D01*
G75*
G02*
X137508700Y-98400000I-303800J0D01*
G01*
X136691300Y-98400000D01*
G75*
G02*
X136387500Y-98096200I0J303800D01*
G01*
G37*
%TD.AperFunction*%
%TO.P,Reg1,~*%
%TO.N,N/C*%
%TA.AperFunction,SMDPad,CuDef*%
G36*
G01*
X135087500Y-98100000D02*
X134612500Y-98100000D01*
G75*
G02*
X134375000Y-97862500I0J237500D01*
G01*
X134375000Y-97262500D01*
G75*
G02*
X134612500Y-97025000I237500J0D01*
G01*
X135087500Y-97025000D01*
G75*
G02*
X135325000Y-97262500I0J-237500D01*
G01*
X135325000Y-97862500D01*
G75*
G02*
X135087500Y-98100000I-237500J0D01*
G01*
G37*
%TD.AperFunction*%
%TA.AperFunction,SMDPad,CuDef*%
G36*
G01*
X135087500Y-96375000D02*
X134612500Y-96375000D01*
G75*
G02*
X134375000Y-96137500I0J237500D01*
G01*
X134375000Y-95537500D01*
G75*
G02*
X134612500Y-95300000I237500J0D01*
G01*
X135087500Y-95300000D01*
G75*
G02*
X135325000Y-95537500I0J-237500D01*
G01*
X135325000Y-96137500D01*
G75*
G02*
X135087500Y-96375000I-237500J0D01*
G01*
G37*
%TD.AperFunction*%
D23*
%TO.P,Reg1,1*%
%TO.N,+12V*%
X133150000Y-94050000D03*
%TO.P,Reg1,2*%
X134100000Y-94050000D03*
%TO.P,Reg1,~*%
%TO.N,N/C*%
X135050000Y-94050000D03*
X135050000Y-91350000D03*
X133150000Y-91350000D03*
%TO.P,Reg1,3*%
%TO.N,GND*%
X134100000Y-91350000D03*
%TD*%
%TO.P,D5,2*%
%TO.N,VBUS*%
%TA.AperFunction,SMDPad,CuDef*%
G36*
G01*
X138025000Y-88625000D02*
X138025000Y-87375000D01*
G75*
G02*
X138275000Y-87125000I250000J0D01*
G01*
X139200000Y-87125000D01*
G75*
G02*
X139450000Y-87375000I0J-250000D01*
G01*
X139450000Y-88625000D01*
G75*
G02*
X139200000Y-88875000I-250000J0D01*
G01*
X138275000Y-88875000D01*
G75*
G02*
X138025000Y-88625000I0J250000D01*
G01*
G37*
%TD.AperFunction*%
%TO.P,D5,1*%
%TO.N,+12V*%
%TA.AperFunction,SMDPad,CuDef*%
G36*
G01*
X135050000Y-88625000D02*
X135050000Y-87375000D01*
G75*
G02*
X135300000Y-87125000I250000J0D01*
G01*
X136225000Y-87125000D01*
G75*
G02*
X136475000Y-87375000I0J-250000D01*
G01*
X136475000Y-88625000D01*
G75*
G02*
X136225000Y-88875000I-250000J0D01*
G01*
X135300000Y-88875000D01*
G75*
G02*
X135050000Y-88625000I0J250000D01*
G01*
G37*
%TD.AperFunction*%
%TD*%
D24*
%TO.P,H1,1*%
%TO.N,GND*%
X129500000Y-81250000D03*
X127250000Y-83500000D03*
X129500000Y-85750000D03*
X131750000Y-83500000D03*
D25*
X129500000Y-83500000D03*
%TD*%
D26*
%TO.P,Q1,3*%
%TO.N,Net-(Q1-Pad3)*%
X147000000Y-88000000D03*
%TO.P,Q1,2*%
%TO.N,GND*%
X145000000Y-88950000D03*
%TO.P,Q1,1*%
%TO.N,Net-(Q1-Pad1)*%
X145000000Y-87050000D03*
%TD*%
D27*
%TO.P,J3,3*%
%TO.N,Net-(J3-Pad3)*%
X134000000Y-72650000D03*
%TO.P,J3,2*%
%TO.N,Net-(J3-Pad2)*%
X136500000Y-72650000D03*
%TO.P,J3,1*%
%TO.N,GND*%
%TA.AperFunction,ComponentPad*%
G36*
G01*
X139850000Y-71975000D02*
X139850000Y-73325000D01*
G75*
G02*
X139600000Y-73575000I-250000J0D01*
G01*
X138400000Y-73575000D01*
G75*
G02*
X138150000Y-73325000I0J250000D01*
G01*
X138150000Y-71975000D01*
G75*
G02*
X138400000Y-71725000I250000J0D01*
G01*
X139600000Y-71725000D01*
G75*
G02*
X139850000Y-71975000I0J-250000D01*
G01*
G37*
%TD.AperFunction*%
%TD*%
%TO.P,J2,2*%
%TO.N,+12V*%
X144500000Y-72650000D03*
%TO.P,J2,1*%
%TO.N,GND*%
%TA.AperFunction,ComponentPad*%
G36*
G01*
X147850000Y-71975000D02*
X147850000Y-73325000D01*
G75*
G02*
X147600000Y-73575000I-250000J0D01*
G01*
X146400000Y-73575000D01*
G75*
G02*
X146150000Y-73325000I0J250000D01*
G01*
X146150000Y-71975000D01*
G75*
G02*
X146400000Y-71725000I250000J0D01*
G01*
X147600000Y-71725000D01*
G75*
G02*
X147850000Y-71975000I0J-250000D01*
G01*
G37*
%TD.AperFunction*%
%TD*%
%TO.P,J5,6*%
%TO.N,Net-(J5-Pad6)*%
X103000000Y-72650000D03*
%TO.P,J5,5*%
%TO.N,GND*%
X105500000Y-72650000D03*
%TO.P,J5,4*%
%TO.N,Net-(J5-Pad4)*%
X108000000Y-72650000D03*
%TO.P,J5,3*%
%TO.N,GND*%
X110500000Y-72650000D03*
%TO.P,J5,2*%
%TO.N,Net-(J5-Pad2)*%
X113000000Y-72650000D03*
%TO.P,J5,1*%
%TO.N,GND*%
%TA.AperFunction,ComponentPad*%
G36*
G01*
X116350000Y-71975000D02*
X116350000Y-73325000D01*
G75*
G02*
X116100000Y-73575000I-250000J0D01*
G01*
X114900000Y-73575000D01*
G75*
G02*
X114650000Y-73325000I0J250000D01*
G01*
X114650000Y-71975000D01*
G75*
G02*
X114900000Y-71725000I250000J0D01*
G01*
X116100000Y-71725000D01*
G75*
G02*
X116350000Y-71975000I0J-250000D01*
G01*
G37*
%TD.AperFunction*%
%TD*%
%TO.P,J4,4*%
%TO.N,Net-(J4-Pad4)*%
X121000000Y-72650000D03*
%TO.P,J4,3*%
%TO.N,Net-(J4-Pad3)*%
X123500000Y-72650000D03*
%TO.P,J4,2*%
%TO.N,+5V*%
X126000000Y-72650000D03*
%TO.P,J4,1*%
%TO.N,GND*%
%TA.AperFunction,ComponentPad*%
G36*
G01*
X129350000Y-71975000D02*
X129350000Y-73325000D01*
G75*
G02*
X129100000Y-73575000I-250000J0D01*
G01*
X127900000Y-73575000D01*
G75*
G02*
X127650000Y-73325000I0J250000D01*
G01*
X127650000Y-71975000D01*
G75*
G02*
X127900000Y-71725000I250000J0D01*
G01*
X129100000Y-71725000D01*
G75*
G02*
X129350000Y-71975000I0J-250000D01*
G01*
G37*
%TD.AperFunction*%
%TD*%
%TO.P,D4,2*%
%TO.N,+3V3*%
%TA.AperFunction,SMDPad,CuDef*%
G36*
G01*
X127650000Y-87262500D02*
X127650000Y-87737500D01*
G75*
G02*
X127412500Y-87975000I-237500J0D01*
G01*
X126837500Y-87975000D01*
G75*
G02*
X126600000Y-87737500I0J237500D01*
G01*
X126600000Y-87262500D01*
G75*
G02*
X126837500Y-87025000I237500J0D01*
G01*
X127412500Y-87025000D01*
G75*
G02*
X127650000Y-87262500I0J-237500D01*
G01*
G37*
%TD.AperFunction*%
%TO.P,D4,1*%
%TO.N,Net-(D4-Pad1)*%
%TA.AperFunction,SMDPad,CuDef*%
G36*
G01*
X129400000Y-87262500D02*
X129400000Y-87737500D01*
G75*
G02*
X129162500Y-87975000I-237500J0D01*
G01*
X128587500Y-87975000D01*
G75*
G02*
X128350000Y-87737500I0J237500D01*
G01*
X128350000Y-87262500D01*
G75*
G02*
X128587500Y-87025000I237500J0D01*
G01*
X129162500Y-87025000D01*
G75*
G02*
X129400000Y-87262500I0J-237500D01*
G01*
G37*
%TD.AperFunction*%
%TD*%
D28*
%TO.P,J1,S1*%
%TO.N,GND*%
X145275000Y-76080000D03*
%TA.AperFunction,SMDPad,CuDef*%
D20*
G36*
X143710684Y-83286936D02*
G01*
X143712553Y-83274868D01*
X143715589Y-83263040D01*
X143719766Y-83251563D01*
X143725043Y-83240550D01*
X143731369Y-83230103D01*
X143738684Y-83220325D01*
X143746919Y-83211306D01*
X143755995Y-83203134D01*
X143765824Y-83195886D01*
X143776314Y-83189634D01*
X143787364Y-83184433D01*
X143798868Y-83180336D01*
X143810718Y-83177381D01*
X143822800Y-83175597D01*
X143834998Y-83175000D01*
X143847195Y-83175597D01*
X143859277Y-83177380D01*
X143871127Y-83180335D01*
X143882631Y-83184431D01*
X143893682Y-83189631D01*
X143904172Y-83195884D01*
X143914002Y-83203131D01*
X143923077Y-83211303D01*
X143931312Y-83220320D01*
X143938628Y-83230099D01*
X143944954Y-83240545D01*
X143950232Y-83251558D01*
X143954409Y-83263034D01*
X143957446Y-83274863D01*
X143959315Y-83286932D01*
X143959997Y-83299125D01*
X143960082Y-83311210D01*
X143966318Y-83410337D01*
X143981779Y-83505799D01*
X144006485Y-83599306D01*
X144040193Y-83689942D01*
X144082585Y-83776861D01*
X144133261Y-83859234D01*
X144191731Y-83936265D01*
X144257437Y-84007221D01*
X144329760Y-84071431D01*
X144407991Y-84128269D01*
X144491404Y-84177208D01*
X144579191Y-84217772D01*
X144670523Y-84249577D01*
X144764522Y-84272318D01*
X144810977Y-84278847D01*
X144893150Y-84273677D01*
X145205000Y-84223168D01*
X145205000Y-83098629D01*
X144953200Y-83114471D01*
X144951458Y-83114569D01*
X144948835Y-83114569D01*
X144946225Y-83114715D01*
X144905874Y-83114997D01*
X144904129Y-83114997D01*
X144891934Y-83114315D01*
X144879866Y-83112447D01*
X144868038Y-83109410D01*
X144856561Y-83105233D01*
X144845548Y-83099956D01*
X144835102Y-83093630D01*
X144825323Y-83086315D01*
X144816304Y-83078080D01*
X144808133Y-83069004D01*
X144800885Y-83059174D01*
X144794632Y-83048685D01*
X144789432Y-83037635D01*
X144785336Y-83026130D01*
X144782381Y-83014281D01*
X144780596Y-83002199D01*
X144780000Y-82990001D01*
X144780597Y-82977803D01*
X144782380Y-82965721D01*
X144785335Y-82953871D01*
X144789431Y-82942367D01*
X144794631Y-82931317D01*
X144800884Y-82920827D01*
X144808132Y-82910997D01*
X144816303Y-82901922D01*
X144825321Y-82893686D01*
X144835100Y-82886371D01*
X144845546Y-82880045D01*
X144856560Y-82874768D01*
X144868036Y-82870590D01*
X144879865Y-82867554D01*
X144891933Y-82865685D01*
X144904126Y-82865003D01*
X144940993Y-82864745D01*
X145205000Y-82848135D01*
X145205000Y-77352804D01*
X145174804Y-77348345D01*
X144898894Y-77334851D01*
X144897151Y-77334754D01*
X144885014Y-77333392D01*
X144873069Y-77330852D01*
X144861429Y-77327160D01*
X144850203Y-77322349D01*
X144839502Y-77316466D01*
X144829425Y-77309566D01*
X144820070Y-77301717D01*
X144811525Y-77292991D01*
X144803873Y-77283473D01*
X144797185Y-77273254D01*
X144791528Y-77262431D01*
X144786953Y-77251108D01*
X144783505Y-77239393D01*
X144781216Y-77227397D01*
X144780109Y-77215234D01*
X144780195Y-77203022D01*
X144781472Y-77190877D01*
X144783927Y-77178913D01*
X144787538Y-77167247D01*
X144792271Y-77155990D01*
X144798080Y-77145247D01*
X144804908Y-77135122D01*
X144812693Y-77125712D01*
X144821359Y-77117107D01*
X144830822Y-77109388D01*
X144840995Y-77102630D01*
X144851778Y-77096897D01*
X144863069Y-77092243D01*
X144874760Y-77088713D01*
X144886740Y-77086341D01*
X144898894Y-77085150D01*
X144911106Y-77085149D01*
X145193121Y-77098942D01*
X145194864Y-77099039D01*
X145200118Y-77099629D01*
X145205000Y-77100107D01*
X145205000Y-75974855D01*
X144834837Y-75920194D01*
X144821039Y-75919519D01*
X144750967Y-75930366D01*
X144657290Y-75954419D01*
X144566416Y-75987494D01*
X144479204Y-76029279D01*
X144396485Y-76079375D01*
X144319049Y-76137304D01*
X144247633Y-76202517D01*
X144182918Y-76274388D01*
X144125530Y-76352229D01*
X144076010Y-76435300D01*
X144034835Y-76522803D01*
X144002398Y-76613899D01*
X143979001Y-76707739D01*
X143964873Y-76803406D01*
X143959851Y-76906106D01*
X143959754Y-76907848D01*
X143958392Y-76919985D01*
X143955853Y-76931930D01*
X143952161Y-76943571D01*
X143947350Y-76954796D01*
X143941466Y-76965498D01*
X143934566Y-76975575D01*
X143926717Y-76984929D01*
X143917991Y-76993474D01*
X143908473Y-77001127D01*
X143898254Y-77007814D01*
X143887432Y-77013472D01*
X143876109Y-77018047D01*
X143864394Y-77021495D01*
X143852397Y-77023784D01*
X143840235Y-77024891D01*
X143828022Y-77024805D01*
X143815877Y-77023528D01*
X143803914Y-77021073D01*
X143792247Y-77017462D01*
X143780990Y-77012729D01*
X143770247Y-77006921D01*
X143760123Y-77000092D01*
X143750713Y-76992307D01*
X143742108Y-76983641D01*
X143734389Y-76974178D01*
X143727630Y-76964006D01*
X143721897Y-76953223D01*
X143717243Y-76941932D01*
X143713713Y-76930241D01*
X143711341Y-76918261D01*
X143710150Y-76906107D01*
X143710149Y-76893894D01*
X143715470Y-76785089D01*
X143715567Y-76783347D01*
X143716155Y-76778103D01*
X143716662Y-76772934D01*
X143732576Y-76665168D01*
X143732843Y-76663443D01*
X143733934Y-76658311D01*
X143734948Y-76653188D01*
X143761302Y-76547489D01*
X143761736Y-76545799D01*
X143763324Y-76540793D01*
X143764832Y-76535799D01*
X143801374Y-76433176D01*
X143801970Y-76431536D01*
X143804038Y-76426712D01*
X143806027Y-76421885D01*
X143852409Y-76323318D01*
X143853163Y-76321744D01*
X143855680Y-76317166D01*
X143858143Y-76312533D01*
X143913923Y-76218963D01*
X143914827Y-76217470D01*
X143917784Y-76213151D01*
X143920681Y-76208791D01*
X143985325Y-76121110D01*
X143986371Y-76119712D01*
X143989746Y-76115690D01*
X143993044Y-76111645D01*
X144065936Y-76030691D01*
X144067113Y-76029402D01*
X144070873Y-76025720D01*
X144074541Y-76022026D01*
X144154984Y-75948572D01*
X144156280Y-75947404D01*
X144160400Y-75944092D01*
X144164394Y-75940787D01*
X144251622Y-75875532D01*
X144253026Y-75874496D01*
X144257414Y-75871625D01*
X144261747Y-75868702D01*
X144315944Y-75835879D01*
X144311529Y-75827432D01*
X144306953Y-75816109D01*
X144303506Y-75804393D01*
X144301217Y-75792397D01*
X144300110Y-75780235D01*
X144300195Y-75768022D01*
X144301472Y-75755877D01*
X144303927Y-75743914D01*
X144307539Y-75732247D01*
X144312271Y-75720990D01*
X144318080Y-75710247D01*
X144324909Y-75700122D01*
X144332694Y-75690712D01*
X144341359Y-75682107D01*
X144350823Y-75674388D01*
X144360995Y-75667630D01*
X144371778Y-75661897D01*
X144383069Y-75657243D01*
X144394760Y-75653713D01*
X144406740Y-75651341D01*
X144418894Y-75650150D01*
X144431107Y-75650149D01*
X144807891Y-75668576D01*
X144814327Y-75667580D01*
X144816053Y-75667324D01*
X144821303Y-75666847D01*
X144826473Y-75666303D01*
X144935238Y-75660222D01*
X144936981Y-75660136D01*
X144942257Y-75660173D01*
X144947450Y-75660137D01*
X145056290Y-75664699D01*
X145058033Y-75664784D01*
X145063232Y-75665331D01*
X145068452Y-75665806D01*
X145176327Y-75680967D01*
X145178053Y-75681221D01*
X145183226Y-75682283D01*
X145188323Y-75683255D01*
X145294203Y-75708870D01*
X145295897Y-75709292D01*
X145300911Y-75710844D01*
X145305920Y-75712318D01*
X145408794Y-75748143D01*
X145410438Y-75748728D01*
X145415277Y-75750762D01*
X145420118Y-75752718D01*
X145488199Y-75784176D01*
X145705303Y-75838306D01*
X145706993Y-75838740D01*
X145711988Y-75840324D01*
X145716994Y-75841836D01*
X145964587Y-75930000D01*
X148355000Y-75930000D01*
X148355000Y-75350000D01*
X148855000Y-75350000D01*
X148855000Y-75930000D01*
X150695000Y-75930000D01*
X150695000Y-84270000D01*
X148855000Y-84270000D01*
X148855000Y-84850000D01*
X148355000Y-84850000D01*
X148355000Y-84270000D01*
X145963766Y-84270000D01*
X145776322Y-84339710D01*
X145774682Y-84340307D01*
X145769675Y-84341819D01*
X145764681Y-84343403D01*
X145484421Y-84417450D01*
X145436091Y-84440606D01*
X145434512Y-84441349D01*
X145429651Y-84443313D01*
X145424833Y-84445338D01*
X145322466Y-84482597D01*
X145320822Y-84483182D01*
X145315796Y-84484661D01*
X145310800Y-84486208D01*
X145205288Y-84513299D01*
X145203595Y-84513721D01*
X145198433Y-84514706D01*
X145193325Y-84515755D01*
X145085673Y-84532420D01*
X145083946Y-84532676D01*
X145078704Y-84533153D01*
X145073527Y-84533697D01*
X144964762Y-84539778D01*
X144963019Y-84539864D01*
X144957743Y-84539827D01*
X144952549Y-84539863D01*
X144843710Y-84535301D01*
X144841967Y-84535216D01*
X144836747Y-84534667D01*
X144831548Y-84534194D01*
X144801330Y-84529947D01*
X144493235Y-84549331D01*
X144491492Y-84549429D01*
X144488869Y-84549429D01*
X144486259Y-84549575D01*
X144425874Y-84549997D01*
X144424128Y-84549997D01*
X144411934Y-84549315D01*
X144399866Y-84547447D01*
X144388038Y-84544410D01*
X144376561Y-84540233D01*
X144365548Y-84534956D01*
X144355101Y-84528630D01*
X144345323Y-84521315D01*
X144336304Y-84513080D01*
X144328133Y-84504004D01*
X144320885Y-84494174D01*
X144314632Y-84483685D01*
X144309432Y-84472635D01*
X144305336Y-84461130D01*
X144302381Y-84449280D01*
X144300596Y-84437199D01*
X144300000Y-84425001D01*
X144300597Y-84412803D01*
X144302380Y-84400721D01*
X144305335Y-84388871D01*
X144309431Y-84377367D01*
X144314631Y-84366317D01*
X144315943Y-84364116D01*
X144276213Y-84340806D01*
X144274714Y-84339913D01*
X144270358Y-84336975D01*
X144265994Y-84334119D01*
X144177864Y-84270089D01*
X144176459Y-84269054D01*
X144172412Y-84265706D01*
X144168346Y-84262437D01*
X144086884Y-84190112D01*
X144085587Y-84188944D01*
X144081868Y-84185199D01*
X144078159Y-84181567D01*
X144004144Y-84101638D01*
X144002967Y-84100350D01*
X143999641Y-84096272D01*
X143996294Y-84092283D01*
X143930432Y-84005513D01*
X143929386Y-84004116D01*
X143926467Y-83999722D01*
X143923532Y-83995436D01*
X143866452Y-83902653D01*
X143865548Y-83901160D01*
X143863068Y-83896496D01*
X143860569Y-83891951D01*
X143812819Y-83794050D01*
X143812815Y-83794042D01*
X143812811Y-83794033D01*
X143812061Y-83792468D01*
X143810072Y-83787641D01*
X143808004Y-83782817D01*
X143770032Y-83680714D01*
X143769435Y-83679074D01*
X143767923Y-83674067D01*
X143766339Y-83669073D01*
X143738512Y-83563753D01*
X143738078Y-83562063D01*
X143737058Y-83556910D01*
X143735973Y-83551806D01*
X143718557Y-83444273D01*
X143718290Y-83442548D01*
X143717778Y-83437324D01*
X143717196Y-83432137D01*
X143710356Y-83323417D01*
X143710258Y-83321674D01*
X143710258Y-83319053D01*
X143710112Y-83316443D01*
X143710003Y-83300876D01*
X143710003Y-83299131D01*
X143710684Y-83286936D01*
G37*
%TD.AperFunction*%
D29*
%TO.P,J1,A12*%
X143835000Y-76900000D03*
%TO.P,J1,A4*%
%TO.N,VBUS*%
X143835000Y-82500000D03*
%TO.P,J1,B12*%
%TO.N,GND*%
X143835000Y-83300000D03*
%TO.P,J1,B4*%
%TO.N,VBUS*%
X143835000Y-77700000D03*
D30*
%TO.P,J1,S1*%
%TO.N,GND*%
X148605000Y-75775000D03*
X148605000Y-84425000D03*
D31*
X144425000Y-75775000D03*
X144425000Y-84425000D03*
D32*
%TO.P,J1,A7*%
%TO.N,Net-(J1-PadA7)*%
X143835000Y-79850000D03*
%TO.P,J1,A6*%
%TO.N,Net-(J1-PadA6)*%
X143835000Y-80350000D03*
%TO.P,J1,B6*%
X143835000Y-79350000D03*
%TO.P,J1,B7*%
%TO.N,Net-(J1-PadA7)*%
X143835000Y-80850000D03*
%TO.P,J1,A8*%
%TO.N,Net-(J1-PadA8)*%
X143835000Y-78850000D03*
%TO.P,J1,A5*%
%TO.N,Net-(J1-PadA5)*%
X143835000Y-81350000D03*
%TO.P,J1,B5*%
%TO.N,Net-(J1-PadB5)*%
X143835000Y-78350000D03*
%TO.P,J1,B8*%
%TO.N,Net-(J1-PadB8)*%
X143835000Y-81850000D03*
D29*
%TO.P,J1,A9*%
%TO.N,VBUS*%
X143835000Y-77700000D03*
%TO.P,J1,B9*%
X143835000Y-82500000D03*
%TO.P,J1,B1*%
%TO.N,GND*%
X143835000Y-76900000D03*
D33*
%TO.P,J1,S1*%
X144905000Y-77210000D03*
X144905000Y-82990000D03*
D29*
%TO.P,J1,A1*%
X143835000Y-83300000D03*
%TD*%
%TO.P,Reg2,3*%
%TO.N,GND*%
%TA.AperFunction,SMDPad,CuDef*%
G36*
G01*
X142650450Y-98450000D02*
X141749550Y-98450000D01*
G75*
G02*
X141500000Y-98200450I0J249550D01*
G01*
X141500000Y-97549550D01*
G75*
G02*
X141749550Y-97300000I249550J0D01*
G01*
X142650450Y-97300000D01*
G75*
G02*
X142900000Y-97549550I0J-249550D01*
G01*
X142900000Y-98200450D01*
G75*
G02*
X142650450Y-98450000I-249550J0D01*
G01*
G37*
%TD.AperFunction*%
%TO.P,Reg2,2*%
%TO.N,+12V*%
%TA.AperFunction,SMDPad,CuDef*%
G36*
G01*
X142650450Y-96400000D02*
X141749550Y-96400000D01*
G75*
G02*
X141500000Y-96150450I0J249550D01*
G01*
X141500000Y-95499550D01*
G75*
G02*
X141749550Y-95250000I249550J0D01*
G01*
X142650450Y-95250000D01*
G75*
G02*
X142900000Y-95499550I0J-249550D01*
G01*
X142900000Y-96150450D01*
G75*
G02*
X142650450Y-96400000I-249550J0D01*
G01*
G37*
%TD.AperFunction*%
%TA.AperFunction,SMDPad,CuDef*%
D20*
G36*
X143150000Y-94900000D02*
G01*
X143144708Y-94900000D01*
X143144707Y-94911969D01*
X143139935Y-95009532D01*
X143139935Y-95009551D01*
X143139933Y-95009573D01*
X143139743Y-95012968D01*
X143138605Y-95023114D01*
X143137599Y-95033373D01*
X143123327Y-95130024D01*
X143122803Y-95133405D01*
X143120672Y-95143430D01*
X143118677Y-95153506D01*
X143095045Y-95248287D01*
X143095042Y-95248302D01*
X143095037Y-95248318D01*
X143094190Y-95251617D01*
X143091092Y-95261385D01*
X143088123Y-95271217D01*
X143055355Y-95363242D01*
X143055351Y-95363254D01*
X143055350Y-95363256D01*
X143054180Y-95366470D01*
X143050136Y-95375905D01*
X143046229Y-95385384D01*
X143004631Y-95473786D01*
X143003153Y-95476871D01*
X142998229Y-95485827D01*
X142993393Y-95494924D01*
X142943374Y-95578828D01*
X142943366Y-95578844D01*
X142943355Y-95578861D01*
X142941593Y-95581770D01*
X142935810Y-95590216D01*
X142930119Y-95598781D01*
X142872149Y-95677409D01*
X142872144Y-95677416D01*
X142872142Y-95677418D01*
X142870093Y-95680157D01*
X142863498Y-95688016D01*
X142857015Y-95695965D01*
X142791643Y-95768570D01*
X142789336Y-95771096D01*
X142782026Y-95778254D01*
X142774775Y-95785556D01*
X142702641Y-95851423D01*
X142702630Y-95851434D01*
X142702619Y-95851443D01*
X142700085Y-95853724D01*
X142692120Y-95860128D01*
X142684186Y-95866691D01*
X142650000Y-95892266D01*
X142650000Y-96150000D01*
X141900000Y-96150000D01*
X141900000Y-95400000D01*
X142464143Y-95400000D01*
X142484858Y-95376993D01*
X142528614Y-95317646D01*
X142566369Y-95254312D01*
X142597761Y-95187599D01*
X142622496Y-95118134D01*
X142640333Y-95046596D01*
X142651106Y-94973639D01*
X142654708Y-94900000D01*
X142650000Y-94900000D01*
X142650000Y-94400000D01*
X143150000Y-94400000D01*
X143150000Y-94900000D01*
G37*
%TD.AperFunction*%
D21*
%TO.P,Reg2,3*%
%TO.N,GND*%
X148150000Y-96800000D03*
%TA.AperFunction,SMDPad,CuDef*%
D20*
%TO.P,Reg2,4*%
%TO.N,+5V*%
G36*
X148400000Y-93050000D02*
G01*
X147403704Y-93050000D01*
X147373897Y-93051667D01*
X147349793Y-93055398D01*
X147326160Y-93061466D01*
X147303236Y-93069810D01*
X147281241Y-93080348D01*
X147260364Y-93092992D01*
X147240839Y-93107598D01*
X147222818Y-93124054D01*
X147206495Y-93142183D01*
X147192021Y-93161813D01*
X147179530Y-93182767D01*
X147169139Y-93204849D01*
X147160956Y-93227830D01*
X147155053Y-93251503D01*
X147151491Y-93275627D01*
X147150000Y-93306117D01*
X147150000Y-96500000D01*
X147149702Y-96500000D01*
X147149702Y-96512213D01*
X147144929Y-96609776D01*
X147144929Y-96609795D01*
X147144927Y-96609817D01*
X147144734Y-96613282D01*
X147143566Y-96623698D01*
X147142545Y-96634103D01*
X147128273Y-96730754D01*
X147127739Y-96734204D01*
X147125564Y-96744436D01*
X147123529Y-96754715D01*
X147099893Y-96849513D01*
X147099025Y-96852894D01*
X147095863Y-96862859D01*
X147092834Y-96872894D01*
X147060061Y-96964932D01*
X147058867Y-96968213D01*
X147054739Y-96977844D01*
X147050754Y-96987513D01*
X147009156Y-97075915D01*
X147007647Y-97079064D01*
X147002589Y-97088264D01*
X146997687Y-97097484D01*
X146947660Y-97181404D01*
X146945852Y-97184390D01*
X146939914Y-97193062D01*
X146934143Y-97201748D01*
X146876176Y-97280371D01*
X146876169Y-97280382D01*
X146876160Y-97280393D01*
X146874076Y-97283181D01*
X146867341Y-97291207D01*
X146860731Y-97299311D01*
X146795365Y-97371908D01*
X146795357Y-97371917D01*
X146795347Y-97371927D01*
X146793005Y-97374494D01*
X146785494Y-97381849D01*
X146778146Y-97389248D01*
X146706010Y-97455117D01*
X146706001Y-97455126D01*
X146705990Y-97455135D01*
X146703405Y-97457463D01*
X146695263Y-97464009D01*
X146687181Y-97470695D01*
X146608950Y-97529220D01*
X146606140Y-97531292D01*
X146598831Y-97536075D01*
X146591671Y-97541051D01*
X146532478Y-97578038D01*
X146529504Y-97579868D01*
X146508019Y-97591484D01*
X146485502Y-97600949D01*
X146462170Y-97608171D01*
X146438244Y-97613082D01*
X146413953Y-97615635D01*
X146400000Y-97615732D01*
X146400000Y-98400000D01*
X145400000Y-98400000D01*
X145400000Y-97400000D01*
X146152543Y-97400000D01*
X146150493Y-97381720D01*
X146150153Y-97357297D01*
X146152197Y-97332958D01*
X146156605Y-97308935D01*
X146163339Y-97285456D01*
X146172330Y-97262747D01*
X146183495Y-97241023D01*
X146196726Y-97220492D01*
X146211898Y-97201351D01*
X146228865Y-97183781D01*
X146247466Y-97167951D01*
X146267522Y-97154012D01*
X146317829Y-97122577D01*
X146377879Y-97077653D01*
X146431968Y-97028264D01*
X146480975Y-96973835D01*
X146524445Y-96914873D01*
X146561944Y-96851969D01*
X146593133Y-96785689D01*
X146617703Y-96716687D01*
X146635424Y-96645613D01*
X146646123Y-96573155D01*
X146650000Y-96493898D01*
X146650000Y-93300000D01*
X146650298Y-93300000D01*
X146650298Y-93287789D01*
X146652684Y-93238998D01*
X146652879Y-93235513D01*
X146654045Y-93225115D01*
X146655068Y-93214689D01*
X146662204Y-93166363D01*
X146662737Y-93162913D01*
X146664919Y-93152648D01*
X146666948Y-93142402D01*
X146678766Y-93095003D01*
X146679634Y-93091622D01*
X146682791Y-93081670D01*
X146685826Y-93071619D01*
X146702213Y-93025600D01*
X146703407Y-93022319D01*
X146707541Y-93012674D01*
X146711519Y-93003022D01*
X146732318Y-92958821D01*
X146733826Y-92955672D01*
X146738903Y-92946437D01*
X146743786Y-92937254D01*
X146768799Y-92895294D01*
X146770607Y-92892307D01*
X146776547Y-92883633D01*
X146782317Y-92874948D01*
X146811296Y-92835643D01*
X146811305Y-92835629D01*
X146811317Y-92835614D01*
X146813397Y-92832833D01*
X146820125Y-92824815D01*
X146826743Y-92816701D01*
X146859430Y-92780398D01*
X146861784Y-92777820D01*
X146869273Y-92770487D01*
X146876637Y-92763071D01*
X146912710Y-92730131D01*
X146915304Y-92727795D01*
X146923488Y-92721215D01*
X146931534Y-92714559D01*
X146970640Y-92685305D01*
X146970649Y-92685297D01*
X146970661Y-92685289D01*
X146973459Y-92683225D01*
X146982212Y-92677498D01*
X146990898Y-92671639D01*
X147032682Y-92646334D01*
X147035681Y-92644546D01*
X147045000Y-92639674D01*
X147054163Y-92634720D01*
X147098217Y-92613611D01*
X147101376Y-92612125D01*
X147111080Y-92608204D01*
X147120740Y-92604144D01*
X147166635Y-92587440D01*
X147166644Y-92587437D01*
X147169933Y-92586265D01*
X147180002Y-92583302D01*
X147189971Y-92580216D01*
X147237286Y-92568067D01*
X147240673Y-92567222D01*
X147251001Y-92565252D01*
X147261216Y-92563155D01*
X147309479Y-92555684D01*
X147309488Y-92555682D01*
X147309498Y-92555681D01*
X147312945Y-92555171D01*
X147323407Y-92554219D01*
X147333780Y-92553129D01*
X147382553Y-92550402D01*
X147386039Y-92550231D01*
X147390843Y-92550265D01*
X147395650Y-92550013D01*
X147399141Y-92550001D01*
X147400000Y-92550004D01*
X147400000Y-92550000D01*
X148400000Y-92550000D01*
X148400000Y-93050000D01*
G37*
%TD.AperFunction*%
%TO.P,Reg2,~*%
%TO.N,N/C*%
%TA.AperFunction,SMDPad,CuDef*%
G36*
G01*
X144450000Y-96225626D02*
X144450000Y-94974374D01*
G75*
G02*
X144699374Y-94725000I249374J0D01*
G01*
X145625626Y-94725000D01*
G75*
G02*
X145875000Y-94974374I0J-249374D01*
G01*
X145875000Y-96225626D01*
G75*
G02*
X145625626Y-96475000I-249374J0D01*
G01*
X144699374Y-96475000D01*
G75*
G02*
X144450000Y-96225626I0J249374D01*
G01*
G37*
%TD.AperFunction*%
%TO.P,Reg2,3*%
%TO.N,GND*%
%TA.AperFunction,SMDPad,CuDef*%
G36*
G01*
X147425000Y-96225626D02*
X147425000Y-94974374D01*
G75*
G02*
X147674374Y-94725000I249374J0D01*
G01*
X148600626Y-94725000D01*
G75*
G02*
X148850000Y-94974374I0J-249374D01*
G01*
X148850000Y-96225626D01*
G75*
G02*
X148600626Y-96475000I-249374J0D01*
G01*
X147674374Y-96475000D01*
G75*
G02*
X147425000Y-96225626I0J249374D01*
G01*
G37*
%TD.AperFunction*%
%TA.AperFunction,SMDPad,CuDef*%
G36*
X143150000Y-92550000D02*
G01*
X144175000Y-92550000D01*
X144175000Y-93050000D01*
X141625000Y-93050000D01*
X141625000Y-92550000D01*
X142650000Y-92550000D01*
X142650000Y-91300000D01*
X143150000Y-91300000D01*
X143150000Y-92550000D01*
G37*
%TD.AperFunction*%
D22*
%TO.P,Reg2,4*%
%TO.N,+5V*%
X148150000Y-92550000D03*
%TO.P,Reg2,~*%
%TO.N,N/C*%
X145150000Y-92550000D03*
%TO.P,Reg2,3*%
%TO.N,GND*%
%TA.AperFunction,SMDPad,CuDef*%
G36*
G01*
X147462500Y-98196200D02*
X147462500Y-97403800D01*
G75*
G02*
X147766300Y-97100000I303800J0D01*
G01*
X148583700Y-97100000D01*
G75*
G02*
X148887500Y-97403800I0J-303800D01*
G01*
X148887500Y-98196200D01*
G75*
G02*
X148583700Y-98500000I-303800J0D01*
G01*
X147766300Y-98500000D01*
G75*
G02*
X147462500Y-98196200I0J303800D01*
G01*
G37*
%TD.AperFunction*%
%TO.P,Reg2,4*%
%TO.N,+5V*%
%TA.AperFunction,SMDPad,CuDef*%
G36*
G01*
X145187500Y-98196200D02*
X145187500Y-97403800D01*
G75*
G02*
X145491300Y-97100000I303800J0D01*
G01*
X146308700Y-97100000D01*
G75*
G02*
X146612500Y-97403800I0J-303800D01*
G01*
X146612500Y-98196200D01*
G75*
G02*
X146308700Y-98500000I-303800J0D01*
G01*
X145491300Y-98500000D01*
G75*
G02*
X145187500Y-98196200I0J303800D01*
G01*
G37*
%TD.AperFunction*%
%TO.P,Reg2,~*%
%TO.N,N/C*%
%TA.AperFunction,SMDPad,CuDef*%
G36*
G01*
X143887500Y-98200000D02*
X143412500Y-98200000D01*
G75*
G02*
X143175000Y-97962500I0J237500D01*
G01*
X143175000Y-97362500D01*
G75*
G02*
X143412500Y-97125000I237500J0D01*
G01*
X143887500Y-97125000D01*
G75*
G02*
X144125000Y-97362500I0J-237500D01*
G01*
X144125000Y-97962500D01*
G75*
G02*
X143887500Y-98200000I-237500J0D01*
G01*
G37*
%TD.AperFunction*%
%TA.AperFunction,SMDPad,CuDef*%
G36*
G01*
X143887500Y-96475000D02*
X143412500Y-96475000D01*
G75*
G02*
X143175000Y-96237500I0J237500D01*
G01*
X143175000Y-95637500D01*
G75*
G02*
X143412500Y-95400000I237500J0D01*
G01*
X143887500Y-95400000D01*
G75*
G02*
X144125000Y-95637500I0J-237500D01*
G01*
X144125000Y-96237500D01*
G75*
G02*
X143887500Y-96475000I-237500J0D01*
G01*
G37*
%TD.AperFunction*%
D23*
%TO.P,Reg2,1*%
%TO.N,Net-(Q1-Pad3)*%
X141950000Y-94150000D03*
%TO.P,Reg2,2*%
%TO.N,+12V*%
X142900000Y-94150000D03*
%TO.P,Reg2,~*%
%TO.N,N/C*%
X143850000Y-94150000D03*
X143850000Y-91450000D03*
X141950000Y-91450000D03*
%TO.P,Reg2,3*%
%TO.N,GND*%
X142900000Y-91450000D03*
%TD*%
D34*
%TO.P,JP1,2*%
%TO.N,Net-(J3-Pad2)*%
X137480000Y-76750000D03*
D35*
%TO.P,JP1,1*%
%TO.N,+12V*%
X138750000Y-76750000D03*
%TD*%
D36*
%TO.P,U2,21*%
%TO.N,GND*%
X137500000Y-83000000D03*
D37*
%TO.P,U2,~*%
%TO.N,N/C*%
X135500000Y-85000000D03*
X139500000Y-81000000D03*
X139500000Y-85000000D03*
X135500000Y-81000000D03*
D38*
X135500000Y-85000000D03*
%TA.AperFunction,SMDPad,CuDef*%
D20*
%TO.P,U2,21*%
%TO.N,GND*%
G36*
X138500000Y-82000000D02*
G01*
X138500000Y-84000000D01*
X136750000Y-84000000D01*
X136500000Y-83750000D01*
X136500000Y-82000000D01*
X138500000Y-82000000D01*
G37*
%TD.AperFunction*%
%TO.P,U2,20*%
%TO.N,+3V3*%
%TA.AperFunction,SMDPad,CuDef*%
G36*
G01*
X135937500Y-84125000D02*
X135062500Y-84125000D01*
G75*
G02*
X135000000Y-84062500I0J62500D01*
G01*
X135000000Y-83937500D01*
G75*
G02*
X135062500Y-83875000I62500J0D01*
G01*
X135937500Y-83875000D01*
G75*
G02*
X136000000Y-83937500I0J-62500D01*
G01*
X136000000Y-84062500D01*
G75*
G02*
X135937500Y-84125000I-62500J0D01*
G01*
G37*
%TD.AperFunction*%
%TO.P,U2,19*%
%TO.N,EN*%
%TA.AperFunction,SMDPad,CuDef*%
G36*
G01*
X135937500Y-83625000D02*
X135062500Y-83625000D01*
G75*
G02*
X135000000Y-83562500I0J62500D01*
G01*
X135000000Y-83437500D01*
G75*
G02*
X135062500Y-83375000I62500J0D01*
G01*
X135937500Y-83375000D01*
G75*
G02*
X136000000Y-83437500I0J-62500D01*
G01*
X136000000Y-83562500D01*
G75*
G02*
X135937500Y-83625000I-62500J0D01*
G01*
G37*
%TD.AperFunction*%
%TO.P,U2,18*%
%TO.N,CBUS0*%
%TA.AperFunction,SMDPad,CuDef*%
G36*
G01*
X135937500Y-83125000D02*
X135062500Y-83125000D01*
G75*
G02*
X135000000Y-83062500I0J62500D01*
G01*
X135000000Y-82937500D01*
G75*
G02*
X135062500Y-82875000I62500J0D01*
G01*
X135937500Y-82875000D01*
G75*
G02*
X136000000Y-82937500I0J-62500D01*
G01*
X136000000Y-83062500D01*
G75*
G02*
X135937500Y-83125000I-62500J0D01*
G01*
G37*
%TD.AperFunction*%
%TO.P,U2,17*%
%TO.N,I*%
%TA.AperFunction,SMDPad,CuDef*%
G36*
G01*
X135937500Y-82625000D02*
X135062500Y-82625000D01*
G75*
G02*
X135000000Y-82562500I0J62500D01*
G01*
X135000000Y-82437500D01*
G75*
G02*
X135062500Y-82375000I62500J0D01*
G01*
X135937500Y-82375000D01*
G75*
G02*
X136000000Y-82437500I0J-62500D01*
G01*
X136000000Y-82562500D01*
G75*
G02*
X135937500Y-82625000I-62500J0D01*
G01*
G37*
%TD.AperFunction*%
%TO.P,U2,16*%
%TO.N,Net-(U2-Pad16)*%
%TA.AperFunction,SMDPad,CuDef*%
G36*
G01*
X135937500Y-82125000D02*
X135062500Y-82125000D01*
G75*
G02*
X135000000Y-82062500I0J62500D01*
G01*
X135000000Y-81937500D01*
G75*
G02*
X135062500Y-81875000I62500J0D01*
G01*
X135937500Y-81875000D01*
G75*
G02*
X136000000Y-81937500I0J-62500D01*
G01*
X136000000Y-82062500D01*
G75*
G02*
X135937500Y-82125000I-62500J0D01*
G01*
G37*
%TD.AperFunction*%
%TO.P,U2,15*%
%TO.N,Net-(U2-Pad15)*%
%TA.AperFunction,SMDPad,CuDef*%
G36*
G01*
X136562500Y-81500000D02*
X136437500Y-81500000D01*
G75*
G02*
X136375000Y-81437500I0J62500D01*
G01*
X136375000Y-80562500D01*
G75*
G02*
X136437500Y-80500000I62500J0D01*
G01*
X136562500Y-80500000D01*
G75*
G02*
X136625000Y-80562500I0J-62500D01*
G01*
X136625000Y-81437500D01*
G75*
G02*
X136562500Y-81500000I-62500J0D01*
G01*
G37*
%TD.AperFunction*%
%TO.P,U2,14*%
%TO.N,Net-(U2-Pad14)*%
%TA.AperFunction,SMDPad,CuDef*%
G36*
G01*
X137062500Y-81500000D02*
X136937500Y-81500000D01*
G75*
G02*
X136875000Y-81437500I0J62500D01*
G01*
X136875000Y-80562500D01*
G75*
G02*
X136937500Y-80500000I62500J0D01*
G01*
X137062500Y-80500000D01*
G75*
G02*
X137125000Y-80562500I0J-62500D01*
G01*
X137125000Y-81437500D01*
G75*
G02*
X137062500Y-81500000I-62500J0D01*
G01*
G37*
%TD.AperFunction*%
%TO.P,U2,13*%
%TO.N,GND*%
%TA.AperFunction,SMDPad,CuDef*%
G36*
G01*
X137562500Y-81500000D02*
X137437500Y-81500000D01*
G75*
G02*
X137375000Y-81437500I0J62500D01*
G01*
X137375000Y-80562500D01*
G75*
G02*
X137437500Y-80500000I62500J0D01*
G01*
X137562500Y-80500000D01*
G75*
G02*
X137625000Y-80562500I0J-62500D01*
G01*
X137625000Y-81437500D01*
G75*
G02*
X137562500Y-81500000I-62500J0D01*
G01*
G37*
%TD.AperFunction*%
%TO.P,U2,12*%
%TO.N,+3V3*%
%TA.AperFunction,SMDPad,CuDef*%
G36*
G01*
X138062500Y-81500000D02*
X137937500Y-81500000D01*
G75*
G02*
X137875000Y-81437500I0J62500D01*
G01*
X137875000Y-80562500D01*
G75*
G02*
X137937500Y-80500000I62500J0D01*
G01*
X138062500Y-80500000D01*
G75*
G02*
X138125000Y-80562500I0J-62500D01*
G01*
X138125000Y-81437500D01*
G75*
G02*
X138062500Y-81500000I-62500J0D01*
G01*
G37*
%TD.AperFunction*%
%TO.P,U2,11*%
%TA.AperFunction,SMDPad,CuDef*%
G36*
G01*
X138562500Y-81500000D02*
X138437500Y-81500000D01*
G75*
G02*
X138375000Y-81437500I0J62500D01*
G01*
X138375000Y-80562500D01*
G75*
G02*
X138437500Y-80500000I62500J0D01*
G01*
X138562500Y-80500000D01*
G75*
G02*
X138625000Y-80562500I0J-62500D01*
G01*
X138625000Y-81437500D01*
G75*
G02*
X138562500Y-81500000I-62500J0D01*
G01*
G37*
%TD.AperFunction*%
%TO.P,U2,10*%
%TA.AperFunction,SMDPad,CuDef*%
G36*
G01*
X139937500Y-82125000D02*
X139062500Y-82125000D01*
G75*
G02*
X139000000Y-82062500I0J62500D01*
G01*
X139000000Y-81937500D01*
G75*
G02*
X139062500Y-81875000I62500J0D01*
G01*
X139937500Y-81875000D01*
G75*
G02*
X140000000Y-81937500I0J-62500D01*
G01*
X140000000Y-82062500D01*
G75*
G02*
X139937500Y-82125000I-62500J0D01*
G01*
G37*
%TD.AperFunction*%
%TO.P,U2,9*%
%TO.N,D-*%
%TA.AperFunction,SMDPad,CuDef*%
G36*
G01*
X139937500Y-82625000D02*
X139062500Y-82625000D01*
G75*
G02*
X139000000Y-82562500I0J62500D01*
G01*
X139000000Y-82437500D01*
G75*
G02*
X139062500Y-82375000I62500J0D01*
G01*
X139937500Y-82375000D01*
G75*
G02*
X140000000Y-82437500I0J-62500D01*
G01*
X140000000Y-82562500D01*
G75*
G02*
X139937500Y-82625000I-62500J0D01*
G01*
G37*
%TD.AperFunction*%
%TO.P,U2,8*%
%TO.N,D+*%
%TA.AperFunction,SMDPad,CuDef*%
G36*
G01*
X139937500Y-83125000D02*
X139062500Y-83125000D01*
G75*
G02*
X139000000Y-83062500I0J62500D01*
G01*
X139000000Y-82937500D01*
G75*
G02*
X139062500Y-82875000I62500J0D01*
G01*
X139937500Y-82875000D01*
G75*
G02*
X140000000Y-82937500I0J-62500D01*
G01*
X140000000Y-83062500D01*
G75*
G02*
X139937500Y-83125000I-62500J0D01*
G01*
G37*
%TD.AperFunction*%
%TO.P,U2,7*%
%TO.N,Net-(U2-Pad7)*%
%TA.AperFunction,SMDPad,CuDef*%
G36*
G01*
X139937500Y-83625000D02*
X139062500Y-83625000D01*
G75*
G02*
X139000000Y-83562500I0J62500D01*
G01*
X139000000Y-83437500D01*
G75*
G02*
X139062500Y-83375000I62500J0D01*
G01*
X139937500Y-83375000D01*
G75*
G02*
X140000000Y-83437500I0J-62500D01*
G01*
X140000000Y-83562500D01*
G75*
G02*
X139937500Y-83625000I-62500J0D01*
G01*
G37*
%TD.AperFunction*%
%TO.P,U2,6*%
%TO.N,GND*%
%TA.AperFunction,SMDPad,CuDef*%
G36*
G01*
X139937500Y-84125000D02*
X139062500Y-84125000D01*
G75*
G02*
X139000000Y-84062500I0J62500D01*
G01*
X139000000Y-83937500D01*
G75*
G02*
X139062500Y-83875000I62500J0D01*
G01*
X139937500Y-83875000D01*
G75*
G02*
X140000000Y-83937500I0J-62500D01*
G01*
X140000000Y-84062500D01*
G75*
G02*
X139937500Y-84125000I-62500J0D01*
G01*
G37*
%TD.AperFunction*%
%TO.P,U2,5*%
%TA.AperFunction,SMDPad,CuDef*%
G36*
G01*
X138562500Y-85500000D02*
X138437500Y-85500000D01*
G75*
G02*
X138375000Y-85437500I0J62500D01*
G01*
X138375000Y-84562500D01*
G75*
G02*
X138437500Y-84500000I62500J0D01*
G01*
X138562500Y-84500000D01*
G75*
G02*
X138625000Y-84562500I0J-62500D01*
G01*
X138625000Y-85437500D01*
G75*
G02*
X138562500Y-85500000I-62500J0D01*
G01*
G37*
%TD.AperFunction*%
%TO.P,U2,4*%
%TA.AperFunction,SMDPad,CuDef*%
G36*
G01*
X138062500Y-85500000D02*
X137937500Y-85500000D01*
G75*
G02*
X137875000Y-85437500I0J62500D01*
G01*
X137875000Y-84562500D01*
G75*
G02*
X137937500Y-84500000I62500J0D01*
G01*
X138062500Y-84500000D01*
G75*
G02*
X138125000Y-84562500I0J-62500D01*
G01*
X138125000Y-85437500D01*
G75*
G02*
X138062500Y-85500000I-62500J0D01*
G01*
G37*
%TD.AperFunction*%
%TO.P,U2,3*%
%TA.AperFunction,SMDPad,CuDef*%
G36*
G01*
X137562500Y-85500000D02*
X137437500Y-85500000D01*
G75*
G02*
X137375000Y-85437500I0J62500D01*
G01*
X137375000Y-84562500D01*
G75*
G02*
X137437500Y-84500000I62500J0D01*
G01*
X137562500Y-84500000D01*
G75*
G02*
X137625000Y-84562500I0J-62500D01*
G01*
X137625000Y-85437500D01*
G75*
G02*
X137562500Y-85500000I-62500J0D01*
G01*
G37*
%TD.AperFunction*%
%TO.P,U2,2*%
%TA.AperFunction,SMDPad,CuDef*%
G36*
G01*
X137062500Y-85500000D02*
X136937500Y-85500000D01*
G75*
G02*
X136875000Y-85437500I0J62500D01*
G01*
X136875000Y-84562500D01*
G75*
G02*
X136937500Y-84500000I62500J0D01*
G01*
X137062500Y-84500000D01*
G75*
G02*
X137125000Y-84562500I0J-62500D01*
G01*
X137125000Y-85437500D01*
G75*
G02*
X137062500Y-85500000I-62500J0D01*
G01*
G37*
%TD.AperFunction*%
%TO.P,U2,1*%
%TO.N,O*%
%TA.AperFunction,SMDPad,CuDef*%
G36*
G01*
X136562500Y-85500000D02*
X136437500Y-85500000D01*
G75*
G02*
X136375000Y-85437500I0J62500D01*
G01*
X136375000Y-84562500D01*
G75*
G02*
X136437500Y-84500000I62500J0D01*
G01*
X136562500Y-84500000D01*
G75*
G02*
X136625000Y-84562500I0J-62500D01*
G01*
X136625000Y-85437500D01*
G75*
G02*
X136562500Y-85500000I-62500J0D01*
G01*
G37*
%TD.AperFunction*%
%TD*%
D39*
%TO.P,U3,1*%
%TO.N,Net-(R3-Pad1)*%
X135500000Y-78020000D03*
%TO.P,U3,2*%
%TO.N,GND*%
X135500000Y-75480000D03*
%TO.P,U3,3*%
%TO.N,Net-(J3-Pad3)*%
X129500000Y-75480000D03*
%TO.P,U3,4*%
%TO.N,Net-(J3-Pad2)*%
X129500000Y-78020000D03*
%TD*%
D40*
%TO.N,+3V3*%
X127000000Y-77250000D03*
X116000000Y-77250000D03*
X134000011Y-80700011D03*
X122239757Y-77325010D03*
X118800000Y-95000000D03*
X132594555Y-89839318D03*
%TO.N,VBUS*%
X142825031Y-84007959D03*
X138750000Y-86250000D03*
%TO.N,GND*%
X107500000Y-79750000D03*
X116000000Y-79750000D03*
X133750000Y-75500000D03*
%TO.N,+5V*%
X146401048Y-85598952D03*
%TO.N,Net-(Q1-Pad1)*%
X144758316Y-86385653D03*
X134093952Y-86578239D03*
%TO.N,SHDN*%
X130250000Y-88750044D03*
X122000000Y-89250000D03*
%TO.N,LED*%
X121900000Y-91500000D03*
X129000000Y-90700000D03*
%TO.N,O*%
X111600000Y-87400000D03*
X136024990Y-85981508D03*
%TO.N,I*%
X113000000Y-86300000D03*
X134311681Y-81650213D03*
%TO.N,CBUS0*%
X123048625Y-87226056D03*
X134028399Y-82609262D03*
%TO.N,EN*%
X119500000Y-87000000D03*
X133999746Y-83608864D03*
%TO.N,+12V*%
X136974978Y-88500000D03*
X132400000Y-95800000D03*
X140750000Y-98250000D03*
%TO.N,Net-(J1-PadA7)*%
X141500000Y-79000000D03*
X141487345Y-81487336D03*
%TO.N,Net-(J1-PadA6)*%
X141675021Y-80149950D03*
X142666543Y-79043161D03*
%TO.N,Net-(J1-PadA5)*%
X140250000Y-79000000D03*
X142500000Y-81500000D03*
%TO.N,Net-(Q1-Pad3)*%
X141800000Y-89300000D03*
X140716783Y-93329598D03*
%TD*%
D41*
%TO.N,+3V3*%
X138500000Y-80975000D02*
X139525000Y-82000000D01*
X138500000Y-80975000D02*
X138500000Y-79900000D01*
X138000000Y-80975000D02*
X138000000Y-79900000D01*
X138000000Y-79900000D02*
X138500000Y-79900000D01*
X135475000Y-84000000D02*
X134651046Y-84000000D01*
X133551046Y-85100000D02*
X134651046Y-84000000D01*
X133509880Y-85100000D02*
X133551046Y-85100000D01*
X133675595Y-85100000D02*
X133509880Y-85100000D01*
X135282104Y-86706509D02*
X133675595Y-85100000D01*
X137206509Y-86706509D02*
X135282104Y-86706509D01*
X137699990Y-87199990D02*
X137206509Y-86706509D01*
X137547818Y-89225002D02*
X137699990Y-89072830D01*
X137699990Y-89072830D02*
X137699990Y-87199990D01*
X137547818Y-89225002D02*
X139125002Y-89225002D01*
X139350000Y-89450000D02*
X139350000Y-92450000D01*
X139125002Y-89225002D02*
X139350000Y-89450000D01*
X135591412Y-79900000D02*
X138000000Y-79900000D01*
X134000011Y-80700011D02*
X134791402Y-80700011D01*
X133071825Y-81628197D02*
X134000011Y-80700011D01*
X134791402Y-80700011D02*
X135591412Y-79900000D01*
X133071825Y-84661945D02*
X133071825Y-81628197D01*
X133509880Y-85100000D02*
X133071825Y-84661945D01*
X110000000Y-76600000D02*
X110850000Y-76600000D01*
X111500000Y-77250000D02*
X113050000Y-77250000D01*
X110850000Y-76600000D02*
X111500000Y-77250000D01*
X113050000Y-77250000D02*
X114000000Y-77250000D01*
X114000000Y-77250000D02*
X114950000Y-77250000D01*
X125700000Y-77250000D02*
X127000000Y-77250000D01*
X116000000Y-77250000D02*
X114950000Y-77250000D01*
X123800000Y-77250000D02*
X122314767Y-77250000D01*
X122314767Y-77250000D02*
X122239757Y-77325010D01*
X137547818Y-89225002D02*
X136975002Y-89225002D01*
X118150009Y-95649991D02*
X118800000Y-95000000D01*
X116750009Y-95649991D02*
X118150009Y-95649991D01*
X116750009Y-95649991D02*
X109650009Y-95649991D01*
X109650009Y-95649991D02*
X108770000Y-96530000D01*
X108770000Y-96530000D02*
X108770000Y-98850000D01*
X127125000Y-87525000D02*
X127125000Y-87500000D01*
X128100000Y-88500000D02*
X127125000Y-87525000D01*
X128100000Y-89492478D02*
X128100000Y-88500000D01*
X128407522Y-89800000D02*
X128100000Y-89492478D01*
X133974998Y-89225002D02*
X136975002Y-89225002D01*
X132555237Y-89800000D02*
X132594555Y-89839318D01*
X130100000Y-89800000D02*
X132555237Y-89800000D01*
X130100000Y-89800000D02*
X128407522Y-89800000D01*
X133208871Y-89225002D02*
X132594555Y-89839318D01*
X133274998Y-89225002D02*
X133208871Y-89225002D01*
X133974998Y-89225002D02*
X133274998Y-89225002D01*
%TO.N,VBUS*%
X144490002Y-77700000D02*
X144800000Y-78009998D01*
X143835000Y-77700000D02*
X144490002Y-77700000D01*
X144490002Y-82500000D02*
X143835000Y-82500000D01*
X144800000Y-82190002D02*
X144490002Y-82500000D01*
X144800000Y-78009998D02*
X144800000Y-82190002D01*
D42*
X143835000Y-82500000D02*
X143008002Y-82500000D01*
X143008002Y-82500000D02*
X142675032Y-82832970D01*
X142675032Y-83857960D02*
X142825031Y-84007959D01*
X142675032Y-82832970D02*
X142675032Y-83857960D01*
X138750000Y-87987500D02*
X138737500Y-88000000D01*
X138750000Y-86250000D02*
X138750000Y-87987500D01*
D41*
%TO.N,GND*%
X144425000Y-75775000D02*
X147950000Y-79300000D01*
X144425000Y-84425000D02*
X147950000Y-80900000D01*
X137000000Y-83500000D02*
X137500000Y-83000000D01*
X137000000Y-85025000D02*
X137000000Y-83500000D01*
X137500000Y-85025000D02*
X137500000Y-83000000D01*
X138000000Y-83500000D02*
X137500000Y-83000000D01*
X138000000Y-85025000D02*
X138000000Y-83500000D01*
X138500000Y-85025000D02*
X138500000Y-84000000D01*
X138500000Y-84000000D02*
X137500000Y-83000000D01*
X139525000Y-84000000D02*
X138500000Y-84000000D01*
X137500000Y-80975000D02*
X137500000Y-83000000D01*
D42*
X131400000Y-99200000D02*
X132400000Y-99200000D01*
D41*
X146135002Y-86750000D02*
X145424999Y-86039997D01*
X147185002Y-86750000D02*
X146135002Y-86750000D01*
X145000000Y-88950000D02*
X147450000Y-88950000D01*
X147775001Y-88624999D02*
X147775001Y-87339999D01*
X147775001Y-87339999D02*
X147185002Y-86750000D01*
X145424999Y-86039997D02*
X145424999Y-85424999D01*
X147450000Y-88950000D02*
X147775001Y-88624999D01*
X145424999Y-85424999D02*
X144425000Y-84425000D01*
D42*
X148605000Y-85605000D02*
X148605000Y-84425000D01*
X130600000Y-99200000D02*
X130100000Y-98700000D01*
X131400000Y-99200000D02*
X130600000Y-99200000D01*
X139300000Y-99200000D02*
X141600000Y-99200000D01*
X138300000Y-99200000D02*
X139300000Y-99200000D01*
X133500000Y-99200000D02*
X138300000Y-99200000D01*
X132400000Y-99200000D02*
X133500000Y-99200000D01*
X139375000Y-99125000D02*
X139300000Y-99200000D01*
X139375000Y-97700000D02*
X139375000Y-99125000D01*
D41*
X148137500Y-95550000D02*
X149050000Y-95550000D01*
D42*
X148175000Y-97800000D02*
X148175000Y-99125000D01*
X148100000Y-99200000D02*
X146800000Y-99200000D01*
X148175000Y-99125000D02*
X148100000Y-99200000D01*
X142500000Y-99200000D02*
X146800000Y-99200000D01*
X115500000Y-72650000D02*
X115500000Y-74000000D01*
X115500000Y-74000000D02*
X116000000Y-74000000D01*
X115500000Y-74000000D02*
X114000000Y-74000000D01*
X105500000Y-72650000D02*
X105500000Y-74000000D01*
X104250000Y-74000000D02*
X105500000Y-74000000D01*
X105500000Y-74000000D02*
X106750000Y-74000000D01*
X110500000Y-72650000D02*
X110500000Y-74000000D01*
X110500000Y-74000000D02*
X109250000Y-74000000D01*
X110500000Y-74000000D02*
X111750000Y-74000000D01*
X111750000Y-74000000D02*
X111750000Y-76000000D01*
X111750000Y-76000000D02*
X114000000Y-76000000D01*
X106750000Y-74000000D02*
X106750000Y-75406470D01*
X106750000Y-75406470D02*
X107343530Y-76000000D01*
X107343530Y-76000000D02*
X108000000Y-76000000D01*
X108000000Y-76000000D02*
X108000000Y-76250000D01*
D41*
X109389999Y-76049999D02*
X111299999Y-76049999D01*
X109324999Y-77224999D02*
X109324999Y-76114999D01*
X111299999Y-76049999D02*
X111850000Y-76600000D01*
X109324999Y-76114999D02*
X109389999Y-76049999D01*
X111850000Y-76600000D02*
X113050000Y-76600000D01*
X110000000Y-77900000D02*
X109324999Y-77224999D01*
D42*
X114950000Y-78700000D02*
X116000000Y-79750000D01*
X114950000Y-77900000D02*
X114950000Y-78700000D01*
D41*
X123800000Y-76600000D02*
X118600000Y-76600000D01*
X118600000Y-76600000D02*
X116000000Y-74000000D01*
X125700000Y-77900000D02*
X125900000Y-77900000D01*
X125900000Y-77900000D02*
X126500000Y-78500000D01*
X126500000Y-78500000D02*
X127500000Y-78500000D01*
X127500000Y-78500000D02*
X128000000Y-78000000D01*
X128000000Y-78000000D02*
X128000000Y-74750000D01*
X128500000Y-74250000D02*
X128500000Y-72650000D01*
X128000000Y-74750000D02*
X128500000Y-74250000D01*
D42*
X143251812Y-88449998D02*
X141391998Y-88449998D01*
X144425000Y-84425000D02*
X143425001Y-85424999D01*
X141391998Y-88449998D02*
X140949998Y-88891998D01*
X141558004Y-92800000D02*
X142900000Y-92800000D01*
X143425001Y-88276809D02*
X143251812Y-88449998D01*
X143425001Y-85424999D02*
X143425001Y-88276809D01*
X140949998Y-88891998D02*
X140949998Y-92191994D01*
X148605000Y-85605000D02*
X149500000Y-86500000D01*
X149500000Y-95100000D02*
X149050000Y-95550000D01*
X149500000Y-86500000D02*
X149500000Y-95100000D01*
X148187500Y-95550000D02*
X148137500Y-95600000D01*
X149050000Y-95550000D02*
X148187500Y-95550000D01*
X142200000Y-97875000D02*
X142200000Y-99200000D01*
X142200000Y-99200000D02*
X142500000Y-99200000D01*
X141600000Y-99200000D02*
X142200000Y-99200000D01*
X133400000Y-99100000D02*
X133500000Y-99200000D01*
X133400000Y-97775000D02*
X133400000Y-99100000D01*
X131650000Y-92495000D02*
X131650000Y-91220000D01*
X131855000Y-92700000D02*
X131650000Y-92495000D01*
X133075000Y-92700000D02*
X131855000Y-92700000D01*
X141558004Y-92800000D02*
X140949998Y-92191994D01*
D41*
%TO.N,RFTX*%
X120200000Y-80925000D02*
X120200000Y-81850000D01*
X123225000Y-77900000D02*
X120200000Y-80925000D01*
X123800000Y-77900000D02*
X123225000Y-77900000D01*
X124260002Y-77900000D02*
X123800000Y-77900000D01*
X124050010Y-75800010D02*
X124450001Y-76200001D01*
X124450001Y-76200001D02*
X124450001Y-77710001D01*
X124450001Y-77710001D02*
X124260002Y-77900000D01*
X120425000Y-75475000D02*
X120750010Y-75800010D01*
X122199990Y-75800010D02*
X124050010Y-75800010D01*
X120750010Y-75800010D02*
X122199990Y-75800010D01*
X120425000Y-75000000D02*
X120425000Y-75475000D01*
%TO.N,RFRX*%
X125662500Y-76562500D02*
X125700000Y-76600000D01*
X125662500Y-75000000D02*
X125662500Y-76562500D01*
X125700000Y-76600000D02*
X125125000Y-76600000D01*
X125125000Y-76600000D02*
X124950009Y-76774991D01*
X123629489Y-78425001D02*
X121470000Y-80584490D01*
X124950009Y-76774991D02*
X124950009Y-77859993D01*
X124950009Y-77859993D02*
X124385001Y-78425001D01*
X121470000Y-80584490D02*
X121470000Y-81850000D01*
X124385001Y-78425001D02*
X123629489Y-78425001D01*
D42*
%TO.N,+5V*%
X146401048Y-85598952D02*
X147298952Y-85598952D01*
X147298952Y-85598952D02*
X148350012Y-86650012D01*
X148350012Y-92349988D02*
X148175010Y-92524990D01*
X148350012Y-86650012D02*
X148350012Y-92349988D01*
D41*
%TO.N,D-*%
X140209433Y-82500000D02*
X139525000Y-82500000D01*
X140837500Y-83128067D02*
X140209433Y-82500000D01*
X140837500Y-86000000D02*
X140837500Y-83128067D01*
%TO.N,D+*%
X140024990Y-85529500D02*
X140024990Y-86687490D01*
X140350010Y-85204480D02*
X140024990Y-85529500D01*
X140350010Y-83276988D02*
X140350010Y-85204480D01*
X140024990Y-86687490D02*
X140837500Y-87500000D01*
X140073022Y-83000000D02*
X140350010Y-83276988D01*
X139525000Y-83000000D02*
X140073022Y-83000000D01*
%TO.N,Net-(Q1-Pad1)*%
X144950000Y-87000000D02*
X145000000Y-87050000D01*
X144758316Y-86808316D02*
X144758316Y-86385653D01*
X145000000Y-87050000D02*
X144758316Y-86808316D01*
X133912500Y-88250000D02*
X133912500Y-86759691D01*
X133912500Y-86759691D02*
X134093952Y-86578239D01*
X134162500Y-86587500D02*
X134103213Y-86587500D01*
X134103213Y-86587500D02*
X134093952Y-86578239D01*
%TO.N,Net-(R3-Pad1)*%
X134480000Y-78020000D02*
X135500000Y-78020000D01*
X134460000Y-78000000D02*
X134480000Y-78020000D01*
X125662500Y-79500000D02*
X127250000Y-79500000D01*
X127250000Y-79500000D02*
X128000000Y-78750000D01*
X131105002Y-78000000D02*
X134460000Y-78000000D01*
X128000000Y-78750000D02*
X130355002Y-78750000D01*
X130355002Y-78750000D02*
X131105002Y-78000000D01*
%TO.N,OUT1*%
X123684999Y-85829999D02*
X123760000Y-85905000D01*
X123684999Y-83924999D02*
X123684999Y-85829999D01*
X123760000Y-85905000D02*
X125010000Y-85905000D01*
X123749999Y-83859999D02*
X123684999Y-83924999D01*
X124785001Y-83110001D02*
X124035003Y-83859999D01*
X124785001Y-80447501D02*
X124785001Y-83110001D01*
X124035003Y-83859999D02*
X123749999Y-83859999D01*
X123837500Y-79500000D02*
X124785001Y-80447501D01*
%TO.N,SHDN*%
X130250000Y-88750044D02*
X130750044Y-88250000D01*
X130750044Y-88250000D02*
X132087500Y-88250000D01*
X122500000Y-86750000D02*
X122000000Y-87250000D01*
X122500000Y-83500000D02*
X122500000Y-86750000D01*
X122250000Y-83250000D02*
X122500000Y-83500000D01*
X119250000Y-83250000D02*
X122250000Y-83250000D01*
X118930000Y-82930000D02*
X119250000Y-83250000D01*
X122000000Y-87250000D02*
X122000000Y-89250000D01*
X118930000Y-81850000D02*
X118930000Y-82930000D01*
%TO.N,LED*%
X128540002Y-90700000D02*
X129000000Y-90700000D01*
X127087500Y-89247498D02*
X128540002Y-90700000D01*
X127087500Y-89000000D02*
X127087500Y-89247498D01*
X121900000Y-96400000D02*
X121900000Y-91500000D01*
X122740000Y-97240000D02*
X121900000Y-96400000D01*
X122740000Y-98850000D02*
X122740000Y-97240000D01*
%TO.N,O*%
X111300000Y-81860000D02*
X111310000Y-81850000D01*
X111600000Y-82140000D02*
X111310000Y-81850000D01*
X111600000Y-87400000D02*
X111600000Y-82140000D01*
X136500000Y-85506498D02*
X136024990Y-85981508D01*
X136500000Y-85025000D02*
X136500000Y-85506498D01*
%TO.N,I*%
X112580000Y-85880000D02*
X113000000Y-86300000D01*
X112580000Y-81850000D02*
X112580000Y-85880000D01*
X134649990Y-82223012D02*
X134649990Y-81988522D01*
X134649990Y-81988522D02*
X134311681Y-81650213D01*
X135475000Y-82500000D02*
X134926978Y-82500000D01*
X134926978Y-82500000D02*
X134649990Y-82223012D01*
%TO.N,IN1*%
X114912500Y-76562500D02*
X114950000Y-76600000D01*
X114912500Y-75000000D02*
X114912500Y-76562500D01*
X114950000Y-76600000D02*
X115025001Y-76524999D01*
X115025001Y-76524999D02*
X116348001Y-76524999D01*
X116348001Y-76524999D02*
X117660000Y-77836998D01*
X117660000Y-77836998D02*
X117660000Y-81850000D01*
%TO.N,CBUS0*%
X134419137Y-83000000D02*
X134028399Y-82609262D01*
X135475000Y-83000000D02*
X134419137Y-83000000D01*
X124010000Y-82963587D02*
X124010000Y-81850000D01*
X123048625Y-83924963D02*
X124010000Y-82963587D01*
X123048625Y-87226056D02*
X123048625Y-83924963D01*
%TO.N,IN2*%
X113850000Y-80600000D02*
X113850000Y-81850000D01*
X113500000Y-80250000D02*
X113850000Y-80600000D01*
X113050000Y-80200000D02*
X113000000Y-80250000D01*
X113050000Y-77900000D02*
X113050000Y-80200000D01*
X113000000Y-80250000D02*
X113500000Y-80250000D01*
X108874988Y-78874988D02*
X110250000Y-80250000D01*
X110250000Y-80250000D02*
X113000000Y-80250000D01*
X109425000Y-75000000D02*
X108874988Y-75550012D01*
X108874988Y-75550012D02*
X108874988Y-78874988D01*
X109912500Y-75000000D02*
X109425000Y-75000000D01*
%TO.N,IN3*%
X107780344Y-77250000D02*
X108000000Y-77250000D01*
X105530344Y-75000000D02*
X107780344Y-77250000D01*
X104912500Y-75000000D02*
X105530344Y-75000000D01*
X108000000Y-77250000D02*
X108000000Y-78636410D01*
X108000000Y-78636410D02*
X110040000Y-80676410D01*
X110040000Y-80676410D02*
X110040000Y-81850000D01*
%TO.N,EN*%
X135475000Y-83500000D02*
X134108610Y-83500000D01*
X134108610Y-83500000D02*
X133999746Y-83608864D01*
X110250000Y-96150000D02*
X110040000Y-96360000D01*
X119100000Y-96150000D02*
X110250000Y-96150000D01*
X110040000Y-96360000D02*
X110040000Y-98850000D01*
X119750000Y-95500000D02*
X119100000Y-96150000D01*
X119750000Y-94500000D02*
X119750000Y-95500000D01*
X119500000Y-94250000D02*
X119750000Y-94500000D01*
X119500000Y-87000000D02*
X119500000Y-94250000D01*
D42*
%TO.N,+12V*%
X136474978Y-88000000D02*
X136974978Y-88500000D01*
X135762500Y-88000000D02*
X136474978Y-88000000D01*
X142375000Y-95912500D02*
X142400000Y-95937500D01*
X140950000Y-95912500D02*
X142375000Y-95912500D01*
X133362500Y-95800000D02*
X133400000Y-95837500D01*
X133562500Y-95800000D02*
X133600000Y-95837500D01*
X132400000Y-95800000D02*
X133562500Y-95800000D01*
D41*
X133150000Y-94050000D02*
X134100000Y-94050000D01*
D42*
X141850000Y-72650000D02*
X144500000Y-72650000D01*
X138750000Y-75750000D02*
X141850000Y-72650000D01*
X138750000Y-76750000D02*
X138750000Y-75750000D01*
X140800000Y-98200000D02*
X140750000Y-98250000D01*
X140800000Y-95825000D02*
X140800000Y-98200000D01*
D41*
%TO.N,Net-(J1-PadA7)*%
X141598075Y-79000000D02*
X141500000Y-79000000D01*
X143835000Y-79850000D02*
X142448075Y-79850000D01*
X142448075Y-79850000D02*
X141598075Y-79000000D01*
X142100021Y-82423023D02*
X141487345Y-81810347D01*
X142662500Y-86000000D02*
X142100021Y-85437521D01*
X142100021Y-85437521D02*
X142100021Y-82423023D01*
X142848001Y-80774999D02*
X142199682Y-80774999D01*
X143835000Y-80850000D02*
X142923002Y-80850000D01*
X142923002Y-80850000D02*
X142848001Y-80774999D01*
X142199682Y-80774999D02*
X141487345Y-81487336D01*
X141487345Y-81810347D02*
X141487345Y-81487336D01*
%TO.N,Net-(J1-PadA6)*%
X143835000Y-79350000D02*
X142973382Y-79350000D01*
X142973382Y-79350000D02*
X142666543Y-79043161D01*
X143015000Y-80350000D02*
X142989988Y-80324988D01*
X142662500Y-87500000D02*
X142175000Y-87500000D01*
X143835000Y-80350000D02*
X143015000Y-80350000D01*
X141650010Y-82723005D02*
X140762343Y-81835338D01*
X141850059Y-80324988D02*
X141675021Y-80149950D01*
X140762343Y-81835338D02*
X140762343Y-81062628D01*
X142175000Y-87500000D02*
X141650010Y-86975010D01*
X140762343Y-81062628D02*
X141675021Y-80149950D01*
X142989988Y-80324988D02*
X141850059Y-80324988D01*
X141650010Y-86975010D02*
X141650010Y-82723005D01*
%TO.N,Net-(J1-PadA5)*%
X140750000Y-78500000D02*
X140250000Y-79000000D01*
X140750000Y-77662500D02*
X140750000Y-78500000D01*
X142650000Y-81350000D02*
X143835000Y-81350000D01*
X142500000Y-81500000D02*
X142650000Y-81350000D01*
%TO.N,Net-(J1-PadB5)*%
X142937500Y-78350000D02*
X143835000Y-78350000D01*
X142250000Y-77662500D02*
X142937500Y-78350000D01*
%TO.N,Net-(J3-Pad3)*%
X132330000Y-72650000D02*
X129500000Y-75480000D01*
X134000000Y-72650000D02*
X132330000Y-72650000D01*
D42*
%TO.N,Net-(J3-Pad2)*%
X136700000Y-72600000D02*
X136700000Y-72800000D01*
X137480000Y-73630000D02*
X137480000Y-76750000D01*
X136500000Y-72650000D02*
X137480000Y-73630000D01*
X137060001Y-77169999D02*
X137480000Y-76750000D01*
X130350001Y-77169999D02*
X137060001Y-77169999D01*
X129500000Y-78020000D02*
X130350001Y-77169999D01*
D41*
%TO.N,Net-(J5-Pad6)*%
X103087500Y-72737500D02*
X103000000Y-72650000D01*
X103087500Y-75000000D02*
X103087500Y-72737500D01*
%TO.N,Net-(J5-Pad4)*%
X108000000Y-72650000D02*
X108000000Y-72100000D01*
X108087500Y-72737500D02*
X108000000Y-72650000D01*
X108087500Y-75000000D02*
X108087500Y-72737500D01*
%TO.N,Net-(J5-Pad2)*%
X113087500Y-72737500D02*
X113000000Y-72650000D01*
X113087500Y-75000000D02*
X113087500Y-72737500D01*
%TO.N,Net-(Q1-Pad3)*%
X147000000Y-88000000D02*
X144572995Y-88000000D01*
X144572995Y-88000000D02*
X143322995Y-89250000D01*
X143322995Y-89250000D02*
X143050000Y-89250000D01*
X143050000Y-89250000D02*
X141850000Y-89250000D01*
X141850000Y-89250000D02*
X141800000Y-89300000D01*
X141950000Y-94150000D02*
X140862500Y-94150000D01*
X140862500Y-94150000D02*
X140662503Y-93950003D01*
X140800000Y-94175000D02*
X140800000Y-93412815D01*
X140800000Y-93412815D02*
X140716783Y-93329598D01*
%TO.N,TAMPER*%
X126260000Y-94795000D02*
X127050000Y-94005000D01*
X127050000Y-94005000D02*
X127050000Y-91220000D01*
X126260000Y-94795000D02*
X127050000Y-95585000D01*
X127050000Y-95585000D02*
X127050000Y-99180000D01*
X125010000Y-94795000D02*
X126260000Y-94795000D01*
X128000000Y-91220000D02*
X129400000Y-92620000D01*
X127150000Y-91220000D02*
X128000000Y-91220000D01*
%TO.N,Net-(J4-Pad4)*%
X122162500Y-73812500D02*
X121000000Y-72650000D01*
X122162500Y-75000000D02*
X122162500Y-73812500D01*
%TO.N,Net-(J4-Pad3)*%
X123837500Y-72987500D02*
X123500000Y-72650000D01*
X123837500Y-75000000D02*
X123837500Y-72987500D01*
%TO.N,Net-(D4-Pad1)*%
X128875000Y-88962500D02*
X128912500Y-89000000D01*
X128875000Y-87500000D02*
X128875000Y-88962500D01*
%TD*%
D43*
%TO.N,GND*%
X131777000Y-91093000D02*
X131797000Y-91093000D01*
X131797000Y-91347000D01*
X131777000Y-91347000D01*
X131777000Y-92471250D01*
X131935750Y-92630000D01*
X132186928Y-92632118D01*
X132186928Y-92950000D01*
X132199188Y-93074482D01*
X132209962Y-93110000D01*
X132199188Y-93145518D01*
X132186928Y-93270000D01*
X132186928Y-94787106D01*
X132098102Y-94804774D01*
X131909744Y-94882795D01*
X131740226Y-94996063D01*
X131596063Y-95140226D01*
X131482795Y-95309744D01*
X131404774Y-95498102D01*
X131365000Y-95698061D01*
X131365000Y-95901939D01*
X131404774Y-96101898D01*
X131482795Y-96290256D01*
X131596063Y-96459774D01*
X131740226Y-96603937D01*
X131909744Y-96717205D01*
X132098102Y-96795226D01*
X132298061Y-96835000D01*
X132311160Y-96835000D01*
X132211519Y-96956414D01*
X132129494Y-97109872D01*
X132078983Y-97276384D01*
X132061928Y-97449550D01*
X132061928Y-97768936D01*
X131935750Y-97770000D01*
X131777000Y-97928750D01*
X131777000Y-99053000D01*
X132776250Y-99053000D01*
X132850895Y-98978355D01*
X132949550Y-98988072D01*
X133850450Y-98988072D01*
X134023616Y-98971017D01*
X134190128Y-98920506D01*
X134343586Y-98838481D01*
X134478094Y-98728094D01*
X134480569Y-98725078D01*
X134612500Y-98738072D01*
X135087500Y-98738072D01*
X135258316Y-98721248D01*
X135422567Y-98671423D01*
X135573942Y-98590512D01*
X135706623Y-98481623D01*
X135795757Y-98373014D01*
X135821124Y-98456639D01*
X135908162Y-98619476D01*
X136025296Y-98762204D01*
X136168024Y-98879338D01*
X136330861Y-98966376D01*
X136507550Y-99019974D01*
X136691300Y-99038072D01*
X137508700Y-99038072D01*
X137692450Y-99019974D01*
X137869139Y-98966376D01*
X138031976Y-98879338D01*
X138174704Y-98762204D01*
X138237500Y-98685687D01*
X138300296Y-98762204D01*
X138443024Y-98879338D01*
X138605861Y-98966376D01*
X138782550Y-99019974D01*
X138966300Y-99038072D01*
X139783700Y-99038072D01*
X139967450Y-99019974D01*
X140035592Y-98999303D01*
X140090226Y-99053937D01*
X140259744Y-99167205D01*
X140448102Y-99245226D01*
X140648061Y-99285000D01*
X140851939Y-99285000D01*
X141051898Y-99245226D01*
X141240256Y-99167205D01*
X141409774Y-99053937D01*
X141435447Y-99028264D01*
X141576384Y-99071017D01*
X141749550Y-99088072D01*
X142650450Y-99088072D01*
X142823616Y-99071017D01*
X142990128Y-99020506D01*
X143143586Y-98938481D01*
X143278094Y-98828094D01*
X143280569Y-98825078D01*
X143412500Y-98838072D01*
X143887500Y-98838072D01*
X144058316Y-98821248D01*
X144222567Y-98771423D01*
X144373942Y-98690512D01*
X144506623Y-98581623D01*
X144595757Y-98473014D01*
X144621124Y-98556639D01*
X144708162Y-98719476D01*
X144825296Y-98862204D01*
X144968024Y-98979338D01*
X145130861Y-99066376D01*
X145307550Y-99119974D01*
X145491300Y-99138072D01*
X146308700Y-99138072D01*
X146492450Y-99119974D01*
X146669139Y-99066376D01*
X146831976Y-98979338D01*
X146974704Y-98862204D01*
X147037500Y-98785687D01*
X147100296Y-98862204D01*
X147243024Y-98979338D01*
X147405861Y-99066376D01*
X147582550Y-99119974D01*
X147766300Y-99138072D01*
X148583700Y-99138072D01*
X148767450Y-99119974D01*
X148944139Y-99066376D01*
X149106976Y-98979338D01*
X149249704Y-98862204D01*
X149315001Y-98782639D01*
X149315001Y-98966485D01*
X149305778Y-99060546D01*
X149288194Y-99118787D01*
X149259635Y-99172500D01*
X149221183Y-99219646D01*
X149174310Y-99258423D01*
X149120796Y-99287358D01*
X149062677Y-99305349D01*
X148970855Y-99315000D01*
X132784250Y-99315000D01*
X132776250Y-99307000D01*
X131777000Y-99307000D01*
X131777000Y-99315000D01*
X131523000Y-99315000D01*
X131523000Y-99307000D01*
X131503000Y-99307000D01*
X131503000Y-99053000D01*
X131523000Y-99053000D01*
X131523000Y-97928750D01*
X131364250Y-97770000D01*
X131000000Y-97766928D01*
X130875518Y-97779188D01*
X130755820Y-97815498D01*
X130734302Y-97827000D01*
X129527000Y-97827000D01*
X129527000Y-97847000D01*
X129273000Y-97847000D01*
X129273000Y-97827000D01*
X129253000Y-97827000D01*
X129253000Y-97573000D01*
X129273000Y-97573000D01*
X129273000Y-95923750D01*
X129527000Y-95923750D01*
X129527000Y-97573000D01*
X131176250Y-97573000D01*
X131335000Y-97414250D01*
X131338072Y-96400000D01*
X131325812Y-96275518D01*
X131289502Y-96155820D01*
X131230537Y-96045506D01*
X131151185Y-95948815D01*
X131054494Y-95869463D01*
X130944180Y-95810498D01*
X130824482Y-95774188D01*
X130700000Y-95761928D01*
X129685750Y-95765000D01*
X129527000Y-95923750D01*
X129273000Y-95923750D01*
X129114250Y-95765000D01*
X128100000Y-95761928D01*
X127975518Y-95774188D01*
X127855820Y-95810498D01*
X127810000Y-95834990D01*
X127810000Y-95622325D01*
X127813676Y-95585000D01*
X127810000Y-95547675D01*
X127810000Y-95547667D01*
X127799003Y-95436014D01*
X127755546Y-95292753D01*
X127684974Y-95160724D01*
X127590001Y-95044999D01*
X127561004Y-95021202D01*
X127334802Y-94795000D01*
X127561004Y-94568798D01*
X127590001Y-94545001D01*
X127684974Y-94429276D01*
X127755546Y-94297247D01*
X127799003Y-94153986D01*
X127810000Y-94042333D01*
X127810000Y-94042325D01*
X127813676Y-94005000D01*
X127810000Y-93967675D01*
X127810000Y-93723305D01*
X127896987Y-93853491D01*
X128166509Y-94123013D01*
X128483434Y-94334775D01*
X128835581Y-94480639D01*
X129209419Y-94555000D01*
X129590581Y-94555000D01*
X129964419Y-94480639D01*
X130316566Y-94334775D01*
X130633491Y-94123013D01*
X130903013Y-93853491D01*
X131114775Y-93536566D01*
X131260639Y-93184419D01*
X131335000Y-92810581D01*
X131335000Y-92630247D01*
X131364250Y-92630000D01*
X131523000Y-92471250D01*
X131523000Y-91347000D01*
X131503000Y-91347000D01*
X131503000Y-91093000D01*
X131523000Y-91093000D01*
X131523000Y-91073000D01*
X131777000Y-91073000D01*
X131777000Y-91093000D01*
%TA.AperFunction,Conductor*%
D44*
G36*
X131777000Y-91093000D02*
G01*
X131797000Y-91093000D01*
X131797000Y-91347000D01*
X131777000Y-91347000D01*
X131777000Y-92471250D01*
X131935750Y-92630000D01*
X132186928Y-92632118D01*
X132186928Y-92950000D01*
X132199188Y-93074482D01*
X132209962Y-93110000D01*
X132199188Y-93145518D01*
X132186928Y-93270000D01*
X132186928Y-94787106D01*
X132098102Y-94804774D01*
X131909744Y-94882795D01*
X131740226Y-94996063D01*
X131596063Y-95140226D01*
X131482795Y-95309744D01*
X131404774Y-95498102D01*
X131365000Y-95698061D01*
X131365000Y-95901939D01*
X131404774Y-96101898D01*
X131482795Y-96290256D01*
X131596063Y-96459774D01*
X131740226Y-96603937D01*
X131909744Y-96717205D01*
X132098102Y-96795226D01*
X132298061Y-96835000D01*
X132311160Y-96835000D01*
X132211519Y-96956414D01*
X132129494Y-97109872D01*
X132078983Y-97276384D01*
X132061928Y-97449550D01*
X132061928Y-97768936D01*
X131935750Y-97770000D01*
X131777000Y-97928750D01*
X131777000Y-99053000D01*
X132776250Y-99053000D01*
X132850895Y-98978355D01*
X132949550Y-98988072D01*
X133850450Y-98988072D01*
X134023616Y-98971017D01*
X134190128Y-98920506D01*
X134343586Y-98838481D01*
X134478094Y-98728094D01*
X134480569Y-98725078D01*
X134612500Y-98738072D01*
X135087500Y-98738072D01*
X135258316Y-98721248D01*
X135422567Y-98671423D01*
X135573942Y-98590512D01*
X135706623Y-98481623D01*
X135795757Y-98373014D01*
X135821124Y-98456639D01*
X135908162Y-98619476D01*
X136025296Y-98762204D01*
X136168024Y-98879338D01*
X136330861Y-98966376D01*
X136507550Y-99019974D01*
X136691300Y-99038072D01*
X137508700Y-99038072D01*
X137692450Y-99019974D01*
X137869139Y-98966376D01*
X138031976Y-98879338D01*
X138174704Y-98762204D01*
X138237500Y-98685687D01*
X138300296Y-98762204D01*
X138443024Y-98879338D01*
X138605861Y-98966376D01*
X138782550Y-99019974D01*
X138966300Y-99038072D01*
X139783700Y-99038072D01*
X139967450Y-99019974D01*
X140035592Y-98999303D01*
X140090226Y-99053937D01*
X140259744Y-99167205D01*
X140448102Y-99245226D01*
X140648061Y-99285000D01*
X140851939Y-99285000D01*
X141051898Y-99245226D01*
X141240256Y-99167205D01*
X141409774Y-99053937D01*
X141435447Y-99028264D01*
X141576384Y-99071017D01*
X141749550Y-99088072D01*
X142650450Y-99088072D01*
X142823616Y-99071017D01*
X142990128Y-99020506D01*
X143143586Y-98938481D01*
X143278094Y-98828094D01*
X143280569Y-98825078D01*
X143412500Y-98838072D01*
X143887500Y-98838072D01*
X144058316Y-98821248D01*
X144222567Y-98771423D01*
X144373942Y-98690512D01*
X144506623Y-98581623D01*
X144595757Y-98473014D01*
X144621124Y-98556639D01*
X144708162Y-98719476D01*
X144825296Y-98862204D01*
X144968024Y-98979338D01*
X145130861Y-99066376D01*
X145307550Y-99119974D01*
X145491300Y-99138072D01*
X146308700Y-99138072D01*
X146492450Y-99119974D01*
X146669139Y-99066376D01*
X146831976Y-98979338D01*
X146974704Y-98862204D01*
X147037500Y-98785687D01*
X147100296Y-98862204D01*
X147243024Y-98979338D01*
X147405861Y-99066376D01*
X147582550Y-99119974D01*
X147766300Y-99138072D01*
X148583700Y-99138072D01*
X148767450Y-99119974D01*
X148944139Y-99066376D01*
X149106976Y-98979338D01*
X149249704Y-98862204D01*
X149315001Y-98782639D01*
X149315001Y-98966485D01*
X149305778Y-99060546D01*
X149288194Y-99118787D01*
X149259635Y-99172500D01*
X149221183Y-99219646D01*
X149174310Y-99258423D01*
X149120796Y-99287358D01*
X149062677Y-99305349D01*
X148970855Y-99315000D01*
X132784250Y-99315000D01*
X132776250Y-99307000D01*
X131777000Y-99307000D01*
X131777000Y-99315000D01*
X131523000Y-99315000D01*
X131523000Y-99307000D01*
X131503000Y-99307000D01*
X131503000Y-99053000D01*
X131523000Y-99053000D01*
X131523000Y-97928750D01*
X131364250Y-97770000D01*
X131000000Y-97766928D01*
X130875518Y-97779188D01*
X130755820Y-97815498D01*
X130734302Y-97827000D01*
X129527000Y-97827000D01*
X129527000Y-97847000D01*
X129273000Y-97847000D01*
X129273000Y-97827000D01*
X129253000Y-97827000D01*
X129253000Y-97573000D01*
X129273000Y-97573000D01*
X129273000Y-95923750D01*
X129527000Y-95923750D01*
X129527000Y-97573000D01*
X131176250Y-97573000D01*
X131335000Y-97414250D01*
X131338072Y-96400000D01*
X131325812Y-96275518D01*
X131289502Y-96155820D01*
X131230537Y-96045506D01*
X131151185Y-95948815D01*
X131054494Y-95869463D01*
X130944180Y-95810498D01*
X130824482Y-95774188D01*
X130700000Y-95761928D01*
X129685750Y-95765000D01*
X129527000Y-95923750D01*
X129273000Y-95923750D01*
X129114250Y-95765000D01*
X128100000Y-95761928D01*
X127975518Y-95774188D01*
X127855820Y-95810498D01*
X127810000Y-95834990D01*
X127810000Y-95622325D01*
X127813676Y-95585000D01*
X127810000Y-95547675D01*
X127810000Y-95547667D01*
X127799003Y-95436014D01*
X127755546Y-95292753D01*
X127684974Y-95160724D01*
X127590001Y-95044999D01*
X127561004Y-95021202D01*
X127334802Y-94795000D01*
X127561004Y-94568798D01*
X127590001Y-94545001D01*
X127684974Y-94429276D01*
X127755546Y-94297247D01*
X127799003Y-94153986D01*
X127810000Y-94042333D01*
X127810000Y-94042325D01*
X127813676Y-94005000D01*
X127810000Y-93967675D01*
X127810000Y-93723305D01*
X127896987Y-93853491D01*
X128166509Y-94123013D01*
X128483434Y-94334775D01*
X128835581Y-94480639D01*
X129209419Y-94555000D01*
X129590581Y-94555000D01*
X129964419Y-94480639D01*
X130316566Y-94334775D01*
X130633491Y-94123013D01*
X130903013Y-93853491D01*
X131114775Y-93536566D01*
X131260639Y-93184419D01*
X131335000Y-92810581D01*
X131335000Y-92630247D01*
X131364250Y-92630000D01*
X131523000Y-92471250D01*
X131523000Y-91347000D01*
X131503000Y-91347000D01*
X131503000Y-91093000D01*
X131523000Y-91093000D01*
X131523000Y-91073000D01*
X131777000Y-91073000D01*
X131777000Y-91093000D01*
G37*
%TD.AperFunction*%
D43*
X107020819Y-77565277D02*
X107024188Y-77599482D01*
X107060498Y-77719180D01*
X107119463Y-77829494D01*
X107198815Y-77926185D01*
X107240001Y-77959985D01*
X107240001Y-78599078D01*
X107236324Y-78636410D01*
X107240001Y-78673743D01*
X107249844Y-78773674D01*
X107250998Y-78785395D01*
X107294454Y-78928656D01*
X107365026Y-79060686D01*
X107434304Y-79145100D01*
X107460000Y-79176411D01*
X107488998Y-79200209D01*
X108500716Y-80211928D01*
X108320000Y-80211928D01*
X108195518Y-80224188D01*
X108135000Y-80242546D01*
X108074482Y-80224188D01*
X107950000Y-80211928D01*
X107785750Y-80215000D01*
X107627000Y-80373750D01*
X107627000Y-81723000D01*
X107647000Y-81723000D01*
X107647000Y-81977000D01*
X107627000Y-81977000D01*
X107627000Y-83326250D01*
X107785750Y-83485000D01*
X107950000Y-83488072D01*
X108074482Y-83475812D01*
X108135000Y-83457454D01*
X108195518Y-83475812D01*
X108320000Y-83488072D01*
X109220000Y-83488072D01*
X109344482Y-83475812D01*
X109405000Y-83457454D01*
X109465518Y-83475812D01*
X109590000Y-83488072D01*
X110490000Y-83488072D01*
X110614482Y-83475812D01*
X110675000Y-83457454D01*
X110735518Y-83475812D01*
X110840001Y-83486102D01*
X110840000Y-86696289D01*
X110796063Y-86740226D01*
X110682795Y-86909744D01*
X110604774Y-87098102D01*
X110565000Y-87298061D01*
X110565000Y-87501939D01*
X110604774Y-87701898D01*
X110682795Y-87890256D01*
X110796063Y-88059774D01*
X110940226Y-88203937D01*
X111109744Y-88317205D01*
X111298102Y-88395226D01*
X111498061Y-88435000D01*
X111701939Y-88435000D01*
X111901898Y-88395226D01*
X112090256Y-88317205D01*
X112259774Y-88203937D01*
X112403937Y-88059774D01*
X112517205Y-87890256D01*
X112595226Y-87701898D01*
X112635000Y-87501939D01*
X112635000Y-87298061D01*
X112628720Y-87266487D01*
X112698102Y-87295226D01*
X112898061Y-87335000D01*
X113101939Y-87335000D01*
X113301898Y-87295226D01*
X113490256Y-87217205D01*
X113659774Y-87103937D01*
X113803937Y-86959774D01*
X113917205Y-86790256D01*
X113995226Y-86601898D01*
X114035000Y-86401939D01*
X114035000Y-86198061D01*
X113995226Y-85998102D01*
X113917205Y-85809744D01*
X113803937Y-85640226D01*
X113659774Y-85496063D01*
X113490256Y-85382795D01*
X113340000Y-85320556D01*
X113340000Y-83482163D01*
X113400000Y-83488072D01*
X114300000Y-83488072D01*
X114424482Y-83475812D01*
X114485000Y-83457454D01*
X114545518Y-83475812D01*
X114670000Y-83488072D01*
X115570000Y-83488072D01*
X115694482Y-83475812D01*
X115755000Y-83457454D01*
X115815518Y-83475812D01*
X115940000Y-83488072D01*
X116840000Y-83488072D01*
X116964482Y-83475812D01*
X117025000Y-83457454D01*
X117085518Y-83475812D01*
X117210000Y-83488072D01*
X118110000Y-83488072D01*
X118234482Y-83475812D01*
X118295000Y-83457454D01*
X118355518Y-83475812D01*
X118402749Y-83480464D01*
X118418998Y-83493799D01*
X118686196Y-83760997D01*
X118709999Y-83790001D01*
X118825724Y-83884974D01*
X118957753Y-83955546D01*
X119101014Y-83999003D01*
X119212667Y-84010000D01*
X119212676Y-84010000D01*
X119249999Y-84013676D01*
X119287322Y-84010000D01*
X121740000Y-84010000D01*
X121740001Y-86435198D01*
X121489003Y-86686196D01*
X121459999Y-86709999D01*
X121417878Y-86761324D01*
X121365026Y-86825724D01*
X121301537Y-86944502D01*
X121294454Y-86957754D01*
X121250997Y-87101015D01*
X121240000Y-87212668D01*
X121240000Y-87212678D01*
X121236324Y-87250000D01*
X121240000Y-87287323D01*
X121240001Y-88546288D01*
X121196063Y-88590226D01*
X121082795Y-88759744D01*
X121004774Y-88948102D01*
X120965000Y-89148061D01*
X120965000Y-89351939D01*
X121004774Y-89551898D01*
X121082795Y-89740256D01*
X121196063Y-89909774D01*
X121340226Y-90053937D01*
X121509744Y-90167205D01*
X121698102Y-90245226D01*
X121898061Y-90285000D01*
X122101939Y-90285000D01*
X122301898Y-90245226D01*
X122490256Y-90167205D01*
X122659774Y-90053937D01*
X122803937Y-89909774D01*
X122917205Y-89740256D01*
X122995226Y-89551898D01*
X123035000Y-89351939D01*
X123035000Y-89148061D01*
X122995226Y-88948102D01*
X122917205Y-88759744D01*
X122803937Y-88590226D01*
X122760000Y-88546289D01*
X122760000Y-88223922D01*
X122946686Y-88261056D01*
X123150564Y-88261056D01*
X123350523Y-88221282D01*
X123371928Y-88212416D01*
X123371928Y-88895000D01*
X123384188Y-89019482D01*
X123402546Y-89080000D01*
X123384188Y-89140518D01*
X123371928Y-89265000D01*
X123371928Y-90165000D01*
X123384188Y-90289482D01*
X123402546Y-90350000D01*
X123384188Y-90410518D01*
X123371928Y-90535000D01*
X123371928Y-91435000D01*
X123384188Y-91559482D01*
X123402546Y-91620000D01*
X123384188Y-91680518D01*
X123371928Y-91805000D01*
X123371928Y-92705000D01*
X123384188Y-92829482D01*
X123402546Y-92890000D01*
X123384188Y-92950518D01*
X123371928Y-93075000D01*
X123371928Y-93975000D01*
X123384188Y-94099482D01*
X123402546Y-94160000D01*
X123384188Y-94220518D01*
X123371928Y-94345000D01*
X123371928Y-95245000D01*
X123384188Y-95369482D01*
X123402546Y-95430000D01*
X123384188Y-95490518D01*
X123371928Y-95615000D01*
X123375000Y-95779250D01*
X123533750Y-95938000D01*
X124883000Y-95938000D01*
X124883000Y-95918000D01*
X125137000Y-95918000D01*
X125137000Y-95938000D01*
X125157000Y-95938000D01*
X125157000Y-96192000D01*
X125137000Y-96192000D01*
X125137000Y-96991250D01*
X125295750Y-97150000D01*
X126010000Y-97153072D01*
X126134482Y-97140812D01*
X126254180Y-97104502D01*
X126290000Y-97085355D01*
X126290001Y-97805129D01*
X126255820Y-97815498D01*
X126145506Y-97874463D01*
X126048815Y-97953815D01*
X125969463Y-98050506D01*
X125910498Y-98160820D01*
X125874188Y-98280518D01*
X125861928Y-98405000D01*
X125861928Y-99315000D01*
X125098072Y-99315000D01*
X125098072Y-97850000D01*
X125085812Y-97725518D01*
X125049502Y-97605820D01*
X124990537Y-97495506D01*
X124911185Y-97398815D01*
X124814494Y-97319463D01*
X124704180Y-97260498D01*
X124584482Y-97224188D01*
X124460000Y-97211928D01*
X123560000Y-97211928D01*
X123501479Y-97217692D01*
X123500000Y-97202676D01*
X123500000Y-97202667D01*
X123489003Y-97091014D01*
X123445546Y-96947753D01*
X123374974Y-96815724D01*
X123347425Y-96782155D01*
X123303799Y-96728996D01*
X123303795Y-96728992D01*
X123280001Y-96699999D01*
X123251008Y-96676205D01*
X123089803Y-96515000D01*
X123371928Y-96515000D01*
X123384188Y-96639482D01*
X123420498Y-96759180D01*
X123479463Y-96869494D01*
X123558815Y-96966185D01*
X123655506Y-97045537D01*
X123765820Y-97104502D01*
X123885518Y-97140812D01*
X124010000Y-97153072D01*
X124724250Y-97150000D01*
X124883000Y-96991250D01*
X124883000Y-96192000D01*
X123533750Y-96192000D01*
X123375000Y-96350750D01*
X123371928Y-96515000D01*
X123089803Y-96515000D01*
X122660000Y-96085198D01*
X122660000Y-92203711D01*
X122703937Y-92159774D01*
X122817205Y-91990256D01*
X122895226Y-91801898D01*
X122935000Y-91601939D01*
X122935000Y-91398061D01*
X122895226Y-91198102D01*
X122817205Y-91009744D01*
X122703937Y-90840226D01*
X122559774Y-90696063D01*
X122390256Y-90582795D01*
X122201898Y-90504774D01*
X122001939Y-90465000D01*
X121798061Y-90465000D01*
X121598102Y-90504774D01*
X121409744Y-90582795D01*
X121240226Y-90696063D01*
X121096063Y-90840226D01*
X120982795Y-91009744D01*
X120904774Y-91198102D01*
X120865000Y-91398061D01*
X120865000Y-91601939D01*
X120904774Y-91801898D01*
X120982795Y-91990256D01*
X121096063Y-92159774D01*
X121140001Y-92203712D01*
X121140000Y-96362677D01*
X121136324Y-96400000D01*
X121140000Y-96437322D01*
X121140000Y-96437332D01*
X121150997Y-96548985D01*
X121193188Y-96688072D01*
X121194454Y-96692246D01*
X121265026Y-96824276D01*
X121297090Y-96863346D01*
X121359999Y-96940001D01*
X121389002Y-96963803D01*
X121637126Y-97211928D01*
X121020000Y-97211928D01*
X120895518Y-97224188D01*
X120835000Y-97242546D01*
X120774482Y-97224188D01*
X120650000Y-97211928D01*
X119750000Y-97211928D01*
X119625518Y-97224188D01*
X119565000Y-97242546D01*
X119504482Y-97224188D01*
X119380000Y-97211928D01*
X118480000Y-97211928D01*
X118355518Y-97224188D01*
X118295000Y-97242546D01*
X118234482Y-97224188D01*
X118110000Y-97211928D01*
X117210000Y-97211928D01*
X117085518Y-97224188D01*
X117025000Y-97242546D01*
X116964482Y-97224188D01*
X116840000Y-97211928D01*
X115940000Y-97211928D01*
X115815518Y-97224188D01*
X115755000Y-97242546D01*
X115694482Y-97224188D01*
X115570000Y-97211928D01*
X114670000Y-97211928D01*
X114545518Y-97224188D01*
X114485000Y-97242546D01*
X114424482Y-97224188D01*
X114300000Y-97211928D01*
X113400000Y-97211928D01*
X113275518Y-97224188D01*
X113215000Y-97242546D01*
X113154482Y-97224188D01*
X113030000Y-97211928D01*
X112130000Y-97211928D01*
X112005518Y-97224188D01*
X111945000Y-97242546D01*
X111884482Y-97224188D01*
X111760000Y-97211928D01*
X110860000Y-97211928D01*
X110800000Y-97217837D01*
X110800000Y-96910000D01*
X119062678Y-96910000D01*
X119100000Y-96913676D01*
X119137322Y-96910000D01*
X119137333Y-96910000D01*
X119248986Y-96899003D01*
X119392247Y-96855546D01*
X119524276Y-96784974D01*
X119640001Y-96690001D01*
X119663803Y-96660998D01*
X120261002Y-96063800D01*
X120290001Y-96040001D01*
X120384974Y-95924276D01*
X120455546Y-95792247D01*
X120499003Y-95648986D01*
X120510000Y-95537333D01*
X120510000Y-95537323D01*
X120513676Y-95500000D01*
X120510000Y-95462677D01*
X120510000Y-94537322D01*
X120513676Y-94499999D01*
X120510000Y-94462676D01*
X120510000Y-94462667D01*
X120499003Y-94351014D01*
X120455546Y-94207753D01*
X120384974Y-94075724D01*
X120290001Y-93959999D01*
X120261003Y-93936201D01*
X120260000Y-93935198D01*
X120260000Y-87703711D01*
X120303937Y-87659774D01*
X120417205Y-87490256D01*
X120495226Y-87301898D01*
X120535000Y-87101939D01*
X120535000Y-86898061D01*
X120495226Y-86698102D01*
X120417205Y-86509744D01*
X120303937Y-86340226D01*
X120159774Y-86196063D01*
X119990256Y-86082795D01*
X119801898Y-86004774D01*
X119601939Y-85965000D01*
X119398061Y-85965000D01*
X119198102Y-86004774D01*
X119009744Y-86082795D01*
X118840226Y-86196063D01*
X118696063Y-86340226D01*
X118582795Y-86509744D01*
X118504774Y-86698102D01*
X118465000Y-86898061D01*
X118465000Y-87101939D01*
X118504774Y-87301898D01*
X118582795Y-87490256D01*
X118696063Y-87659774D01*
X118740000Y-87703711D01*
X118740001Y-93965000D01*
X118698061Y-93965000D01*
X118498102Y-94004774D01*
X118309744Y-94082795D01*
X118140226Y-94196063D01*
X117996063Y-94340226D01*
X117882795Y-94509744D01*
X117804774Y-94698102D01*
X117766605Y-94889991D01*
X109687334Y-94889991D01*
X109650009Y-94886315D01*
X109612684Y-94889991D01*
X109612676Y-94889991D01*
X109501023Y-94900988D01*
X109357762Y-94944445D01*
X109225733Y-95015017D01*
X109110008Y-95109990D01*
X109086210Y-95138988D01*
X108259002Y-95966197D01*
X108229999Y-95989999D01*
X108183515Y-96046641D01*
X108135026Y-96105724D01*
X108074121Y-96219668D01*
X108064454Y-96237754D01*
X108020997Y-96381015D01*
X108010000Y-96492668D01*
X108010000Y-96492678D01*
X108006324Y-96530000D01*
X108010000Y-96567323D01*
X108010000Y-97217837D01*
X107950000Y-97211928D01*
X107785750Y-97215000D01*
X107627000Y-97373750D01*
X107627000Y-98723000D01*
X107647000Y-98723000D01*
X107647000Y-98977000D01*
X107627000Y-98977000D01*
X107627000Y-98997000D01*
X107373000Y-98997000D01*
X107373000Y-98977000D01*
X107353000Y-98977000D01*
X107353000Y-98723000D01*
X107373000Y-98723000D01*
X107373000Y-97373750D01*
X107214250Y-97215000D01*
X107050000Y-97211928D01*
X106925518Y-97224188D01*
X106805820Y-97260498D01*
X106695506Y-97319463D01*
X106685000Y-97328085D01*
X106685000Y-83371915D01*
X106695506Y-83380537D01*
X106805820Y-83439502D01*
X106925518Y-83475812D01*
X107050000Y-83488072D01*
X107214250Y-83485000D01*
X107373000Y-83326250D01*
X107373000Y-81977000D01*
X107353000Y-81977000D01*
X107353000Y-81723000D01*
X107373000Y-81723000D01*
X107373000Y-80373750D01*
X107214250Y-80215000D01*
X107050000Y-80211928D01*
X106925518Y-80224188D01*
X106805820Y-80260498D01*
X106695506Y-80319463D01*
X106685000Y-80328085D01*
X106685000Y-77229458D01*
X107020819Y-77565277D01*
%TA.AperFunction,Conductor*%
D44*
G36*
X107020819Y-77565277D02*
G01*
X107024188Y-77599482D01*
X107060498Y-77719180D01*
X107119463Y-77829494D01*
X107198815Y-77926185D01*
X107240001Y-77959985D01*
X107240001Y-78599078D01*
X107236324Y-78636410D01*
X107240001Y-78673743D01*
X107249844Y-78773674D01*
X107250998Y-78785395D01*
X107294454Y-78928656D01*
X107365026Y-79060686D01*
X107434304Y-79145100D01*
X107460000Y-79176411D01*
X107488998Y-79200209D01*
X108500716Y-80211928D01*
X108320000Y-80211928D01*
X108195518Y-80224188D01*
X108135000Y-80242546D01*
X108074482Y-80224188D01*
X107950000Y-80211928D01*
X107785750Y-80215000D01*
X107627000Y-80373750D01*
X107627000Y-81723000D01*
X107647000Y-81723000D01*
X107647000Y-81977000D01*
X107627000Y-81977000D01*
X107627000Y-83326250D01*
X107785750Y-83485000D01*
X107950000Y-83488072D01*
X108074482Y-83475812D01*
X108135000Y-83457454D01*
X108195518Y-83475812D01*
X108320000Y-83488072D01*
X109220000Y-83488072D01*
X109344482Y-83475812D01*
X109405000Y-83457454D01*
X109465518Y-83475812D01*
X109590000Y-83488072D01*
X110490000Y-83488072D01*
X110614482Y-83475812D01*
X110675000Y-83457454D01*
X110735518Y-83475812D01*
X110840001Y-83486102D01*
X110840000Y-86696289D01*
X110796063Y-86740226D01*
X110682795Y-86909744D01*
X110604774Y-87098102D01*
X110565000Y-87298061D01*
X110565000Y-87501939D01*
X110604774Y-87701898D01*
X110682795Y-87890256D01*
X110796063Y-88059774D01*
X110940226Y-88203937D01*
X111109744Y-88317205D01*
X111298102Y-88395226D01*
X111498061Y-88435000D01*
X111701939Y-88435000D01*
X111901898Y-88395226D01*
X112090256Y-88317205D01*
X112259774Y-88203937D01*
X112403937Y-88059774D01*
X112517205Y-87890256D01*
X112595226Y-87701898D01*
X112635000Y-87501939D01*
X112635000Y-87298061D01*
X112628720Y-87266487D01*
X112698102Y-87295226D01*
X112898061Y-87335000D01*
X113101939Y-87335000D01*
X113301898Y-87295226D01*
X113490256Y-87217205D01*
X113659774Y-87103937D01*
X113803937Y-86959774D01*
X113917205Y-86790256D01*
X113995226Y-86601898D01*
X114035000Y-86401939D01*
X114035000Y-86198061D01*
X113995226Y-85998102D01*
X113917205Y-85809744D01*
X113803937Y-85640226D01*
X113659774Y-85496063D01*
X113490256Y-85382795D01*
X113340000Y-85320556D01*
X113340000Y-83482163D01*
X113400000Y-83488072D01*
X114300000Y-83488072D01*
X114424482Y-83475812D01*
X114485000Y-83457454D01*
X114545518Y-83475812D01*
X114670000Y-83488072D01*
X115570000Y-83488072D01*
X115694482Y-83475812D01*
X115755000Y-83457454D01*
X115815518Y-83475812D01*
X115940000Y-83488072D01*
X116840000Y-83488072D01*
X116964482Y-83475812D01*
X117025000Y-83457454D01*
X117085518Y-83475812D01*
X117210000Y-83488072D01*
X118110000Y-83488072D01*
X118234482Y-83475812D01*
X118295000Y-83457454D01*
X118355518Y-83475812D01*
X118402749Y-83480464D01*
X118418998Y-83493799D01*
X118686196Y-83760997D01*
X118709999Y-83790001D01*
X118825724Y-83884974D01*
X118957753Y-83955546D01*
X119101014Y-83999003D01*
X119212667Y-84010000D01*
X119212676Y-84010000D01*
X119249999Y-84013676D01*
X119287322Y-84010000D01*
X121740000Y-84010000D01*
X121740001Y-86435198D01*
X121489003Y-86686196D01*
X121459999Y-86709999D01*
X121417878Y-86761324D01*
X121365026Y-86825724D01*
X121301537Y-86944502D01*
X121294454Y-86957754D01*
X121250997Y-87101015D01*
X121240000Y-87212668D01*
X121240000Y-87212678D01*
X121236324Y-87250000D01*
X121240000Y-87287323D01*
X121240001Y-88546288D01*
X121196063Y-88590226D01*
X121082795Y-88759744D01*
X121004774Y-88948102D01*
X120965000Y-89148061D01*
X120965000Y-89351939D01*
X121004774Y-89551898D01*
X121082795Y-89740256D01*
X121196063Y-89909774D01*
X121340226Y-90053937D01*
X121509744Y-90167205D01*
X121698102Y-90245226D01*
X121898061Y-90285000D01*
X122101939Y-90285000D01*
X122301898Y-90245226D01*
X122490256Y-90167205D01*
X122659774Y-90053937D01*
X122803937Y-89909774D01*
X122917205Y-89740256D01*
X122995226Y-89551898D01*
X123035000Y-89351939D01*
X123035000Y-89148061D01*
X122995226Y-88948102D01*
X122917205Y-88759744D01*
X122803937Y-88590226D01*
X122760000Y-88546289D01*
X122760000Y-88223922D01*
X122946686Y-88261056D01*
X123150564Y-88261056D01*
X123350523Y-88221282D01*
X123371928Y-88212416D01*
X123371928Y-88895000D01*
X123384188Y-89019482D01*
X123402546Y-89080000D01*
X123384188Y-89140518D01*
X123371928Y-89265000D01*
X123371928Y-90165000D01*
X123384188Y-90289482D01*
X123402546Y-90350000D01*
X123384188Y-90410518D01*
X123371928Y-90535000D01*
X123371928Y-91435000D01*
X123384188Y-91559482D01*
X123402546Y-91620000D01*
X123384188Y-91680518D01*
X123371928Y-91805000D01*
X123371928Y-92705000D01*
X123384188Y-92829482D01*
X123402546Y-92890000D01*
X123384188Y-92950518D01*
X123371928Y-93075000D01*
X123371928Y-93975000D01*
X123384188Y-94099482D01*
X123402546Y-94160000D01*
X123384188Y-94220518D01*
X123371928Y-94345000D01*
X123371928Y-95245000D01*
X123384188Y-95369482D01*
X123402546Y-95430000D01*
X123384188Y-95490518D01*
X123371928Y-95615000D01*
X123375000Y-95779250D01*
X123533750Y-95938000D01*
X124883000Y-95938000D01*
X124883000Y-95918000D01*
X125137000Y-95918000D01*
X125137000Y-95938000D01*
X125157000Y-95938000D01*
X125157000Y-96192000D01*
X125137000Y-96192000D01*
X125137000Y-96991250D01*
X125295750Y-97150000D01*
X126010000Y-97153072D01*
X126134482Y-97140812D01*
X126254180Y-97104502D01*
X126290000Y-97085355D01*
X126290001Y-97805129D01*
X126255820Y-97815498D01*
X126145506Y-97874463D01*
X126048815Y-97953815D01*
X125969463Y-98050506D01*
X125910498Y-98160820D01*
X125874188Y-98280518D01*
X125861928Y-98405000D01*
X125861928Y-99315000D01*
X125098072Y-99315000D01*
X125098072Y-97850000D01*
X125085812Y-97725518D01*
X125049502Y-97605820D01*
X124990537Y-97495506D01*
X124911185Y-97398815D01*
X124814494Y-97319463D01*
X124704180Y-97260498D01*
X124584482Y-97224188D01*
X124460000Y-97211928D01*
X123560000Y-97211928D01*
X123501479Y-97217692D01*
X123500000Y-97202676D01*
X123500000Y-97202667D01*
X123489003Y-97091014D01*
X123445546Y-96947753D01*
X123374974Y-96815724D01*
X123347425Y-96782155D01*
X123303799Y-96728996D01*
X123303795Y-96728992D01*
X123280001Y-96699999D01*
X123251008Y-96676205D01*
X123089803Y-96515000D01*
X123371928Y-96515000D01*
X123384188Y-96639482D01*
X123420498Y-96759180D01*
X123479463Y-96869494D01*
X123558815Y-96966185D01*
X123655506Y-97045537D01*
X123765820Y-97104502D01*
X123885518Y-97140812D01*
X124010000Y-97153072D01*
X124724250Y-97150000D01*
X124883000Y-96991250D01*
X124883000Y-96192000D01*
X123533750Y-96192000D01*
X123375000Y-96350750D01*
X123371928Y-96515000D01*
X123089803Y-96515000D01*
X122660000Y-96085198D01*
X122660000Y-92203711D01*
X122703937Y-92159774D01*
X122817205Y-91990256D01*
X122895226Y-91801898D01*
X122935000Y-91601939D01*
X122935000Y-91398061D01*
X122895226Y-91198102D01*
X122817205Y-91009744D01*
X122703937Y-90840226D01*
X122559774Y-90696063D01*
X122390256Y-90582795D01*
X122201898Y-90504774D01*
X122001939Y-90465000D01*
X121798061Y-90465000D01*
X121598102Y-90504774D01*
X121409744Y-90582795D01*
X121240226Y-90696063D01*
X121096063Y-90840226D01*
X120982795Y-91009744D01*
X120904774Y-91198102D01*
X120865000Y-91398061D01*
X120865000Y-91601939D01*
X120904774Y-91801898D01*
X120982795Y-91990256D01*
X121096063Y-92159774D01*
X121140001Y-92203712D01*
X121140000Y-96362677D01*
X121136324Y-96400000D01*
X121140000Y-96437322D01*
X121140000Y-96437332D01*
X121150997Y-96548985D01*
X121193188Y-96688072D01*
X121194454Y-96692246D01*
X121265026Y-96824276D01*
X121297090Y-96863346D01*
X121359999Y-96940001D01*
X121389002Y-96963803D01*
X121637126Y-97211928D01*
X121020000Y-97211928D01*
X120895518Y-97224188D01*
X120835000Y-97242546D01*
X120774482Y-97224188D01*
X120650000Y-97211928D01*
X119750000Y-97211928D01*
X119625518Y-97224188D01*
X119565000Y-97242546D01*
X119504482Y-97224188D01*
X119380000Y-97211928D01*
X118480000Y-97211928D01*
X118355518Y-97224188D01*
X118295000Y-97242546D01*
X118234482Y-97224188D01*
X118110000Y-97211928D01*
X117210000Y-97211928D01*
X117085518Y-97224188D01*
X117025000Y-97242546D01*
X116964482Y-97224188D01*
X116840000Y-97211928D01*
X115940000Y-97211928D01*
X115815518Y-97224188D01*
X115755000Y-97242546D01*
X115694482Y-97224188D01*
X115570000Y-97211928D01*
X114670000Y-97211928D01*
X114545518Y-97224188D01*
X114485000Y-97242546D01*
X114424482Y-97224188D01*
X114300000Y-97211928D01*
X113400000Y-97211928D01*
X113275518Y-97224188D01*
X113215000Y-97242546D01*
X113154482Y-97224188D01*
X113030000Y-97211928D01*
X112130000Y-97211928D01*
X112005518Y-97224188D01*
X111945000Y-97242546D01*
X111884482Y-97224188D01*
X111760000Y-97211928D01*
X110860000Y-97211928D01*
X110800000Y-97217837D01*
X110800000Y-96910000D01*
X119062678Y-96910000D01*
X119100000Y-96913676D01*
X119137322Y-96910000D01*
X119137333Y-96910000D01*
X119248986Y-96899003D01*
X119392247Y-96855546D01*
X119524276Y-96784974D01*
X119640001Y-96690001D01*
X119663803Y-96660998D01*
X120261002Y-96063800D01*
X120290001Y-96040001D01*
X120384974Y-95924276D01*
X120455546Y-95792247D01*
X120499003Y-95648986D01*
X120510000Y-95537333D01*
X120510000Y-95537323D01*
X120513676Y-95500000D01*
X120510000Y-95462677D01*
X120510000Y-94537322D01*
X120513676Y-94499999D01*
X120510000Y-94462676D01*
X120510000Y-94462667D01*
X120499003Y-94351014D01*
X120455546Y-94207753D01*
X120384974Y-94075724D01*
X120290001Y-93959999D01*
X120261003Y-93936201D01*
X120260000Y-93935198D01*
X120260000Y-87703711D01*
X120303937Y-87659774D01*
X120417205Y-87490256D01*
X120495226Y-87301898D01*
X120535000Y-87101939D01*
X120535000Y-86898061D01*
X120495226Y-86698102D01*
X120417205Y-86509744D01*
X120303937Y-86340226D01*
X120159774Y-86196063D01*
X119990256Y-86082795D01*
X119801898Y-86004774D01*
X119601939Y-85965000D01*
X119398061Y-85965000D01*
X119198102Y-86004774D01*
X119009744Y-86082795D01*
X118840226Y-86196063D01*
X118696063Y-86340226D01*
X118582795Y-86509744D01*
X118504774Y-86698102D01*
X118465000Y-86898061D01*
X118465000Y-87101939D01*
X118504774Y-87301898D01*
X118582795Y-87490256D01*
X118696063Y-87659774D01*
X118740000Y-87703711D01*
X118740001Y-93965000D01*
X118698061Y-93965000D01*
X118498102Y-94004774D01*
X118309744Y-94082795D01*
X118140226Y-94196063D01*
X117996063Y-94340226D01*
X117882795Y-94509744D01*
X117804774Y-94698102D01*
X117766605Y-94889991D01*
X109687334Y-94889991D01*
X109650009Y-94886315D01*
X109612684Y-94889991D01*
X109612676Y-94889991D01*
X109501023Y-94900988D01*
X109357762Y-94944445D01*
X109225733Y-95015017D01*
X109110008Y-95109990D01*
X109086210Y-95138988D01*
X108259002Y-95966197D01*
X108229999Y-95989999D01*
X108183515Y-96046641D01*
X108135026Y-96105724D01*
X108074121Y-96219668D01*
X108064454Y-96237754D01*
X108020997Y-96381015D01*
X108010000Y-96492668D01*
X108010000Y-96492678D01*
X108006324Y-96530000D01*
X108010000Y-96567323D01*
X108010000Y-97217837D01*
X107950000Y-97211928D01*
X107785750Y-97215000D01*
X107627000Y-97373750D01*
X107627000Y-98723000D01*
X107647000Y-98723000D01*
X107647000Y-98977000D01*
X107627000Y-98977000D01*
X107627000Y-98997000D01*
X107373000Y-98997000D01*
X107373000Y-98977000D01*
X107353000Y-98977000D01*
X107353000Y-98723000D01*
X107373000Y-98723000D01*
X107373000Y-97373750D01*
X107214250Y-97215000D01*
X107050000Y-97211928D01*
X106925518Y-97224188D01*
X106805820Y-97260498D01*
X106695506Y-97319463D01*
X106685000Y-97328085D01*
X106685000Y-83371915D01*
X106695506Y-83380537D01*
X106805820Y-83439502D01*
X106925518Y-83475812D01*
X107050000Y-83488072D01*
X107214250Y-83485000D01*
X107373000Y-83326250D01*
X107373000Y-81977000D01*
X107353000Y-81977000D01*
X107353000Y-81723000D01*
X107373000Y-81723000D01*
X107373000Y-80373750D01*
X107214250Y-80215000D01*
X107050000Y-80211928D01*
X106925518Y-80224188D01*
X106805820Y-80260498D01*
X106695506Y-80319463D01*
X106685000Y-80328085D01*
X106685000Y-77229458D01*
X107020819Y-77565277D01*
G37*
%TD.AperFunction*%
D43*
X140132394Y-88367606D02*
X140259392Y-88471831D01*
X140404284Y-88549278D01*
X140561500Y-88596969D01*
X140725000Y-88613072D01*
X141023217Y-88613072D01*
X140996063Y-88640226D01*
X140882795Y-88809744D01*
X140804774Y-88998102D01*
X140765000Y-89198061D01*
X140765000Y-89401939D01*
X140804774Y-89601898D01*
X140882795Y-89790256D01*
X140996063Y-89959774D01*
X141140226Y-90103937D01*
X141235899Y-90167864D01*
X141173815Y-90218815D01*
X141094463Y-90315506D01*
X141035498Y-90425820D01*
X140999188Y-90545518D01*
X140986928Y-90670000D01*
X140986928Y-92230000D01*
X140996778Y-92330015D01*
X140818722Y-92294598D01*
X140700572Y-92294598D01*
X140700572Y-90600000D01*
X140688312Y-90475518D01*
X140652002Y-90355820D01*
X140593037Y-90245506D01*
X140513685Y-90148815D01*
X140416994Y-90069463D01*
X140306680Y-90010498D01*
X140186982Y-89974188D01*
X140110000Y-89966606D01*
X140110000Y-89487320D01*
X140113676Y-89449999D01*
X140110000Y-89412676D01*
X140110000Y-89412667D01*
X140099003Y-89301014D01*
X140055546Y-89157753D01*
X139986454Y-89028493D01*
X140020472Y-88964850D01*
X140071008Y-88798254D01*
X140088072Y-88625000D01*
X140088072Y-88313600D01*
X140132394Y-88367606D01*
%TA.AperFunction,Conductor*%
D44*
G36*
X140132394Y-88367606D02*
G01*
X140259392Y-88471831D01*
X140404284Y-88549278D01*
X140561500Y-88596969D01*
X140725000Y-88613072D01*
X141023217Y-88613072D01*
X140996063Y-88640226D01*
X140882795Y-88809744D01*
X140804774Y-88998102D01*
X140765000Y-89198061D01*
X140765000Y-89401939D01*
X140804774Y-89601898D01*
X140882795Y-89790256D01*
X140996063Y-89959774D01*
X141140226Y-90103937D01*
X141235899Y-90167864D01*
X141173815Y-90218815D01*
X141094463Y-90315506D01*
X141035498Y-90425820D01*
X140999188Y-90545518D01*
X140986928Y-90670000D01*
X140986928Y-92230000D01*
X140996778Y-92330015D01*
X140818722Y-92294598D01*
X140700572Y-92294598D01*
X140700572Y-90600000D01*
X140688312Y-90475518D01*
X140652002Y-90355820D01*
X140593037Y-90245506D01*
X140513685Y-90148815D01*
X140416994Y-90069463D01*
X140306680Y-90010498D01*
X140186982Y-89974188D01*
X140110000Y-89966606D01*
X140110000Y-89487320D01*
X140113676Y-89449999D01*
X140110000Y-89412676D01*
X140110000Y-89412667D01*
X140099003Y-89301014D01*
X140055546Y-89157753D01*
X139986454Y-89028493D01*
X140020472Y-88964850D01*
X140071008Y-88798254D01*
X140088072Y-88625000D01*
X140088072Y-88313600D01*
X140132394Y-88367606D01*
G37*
%TD.AperFunction*%
D43*
X146098815Y-88851185D02*
X146195506Y-88930537D01*
X146305820Y-88989502D01*
X146425518Y-89025812D01*
X146550000Y-89038072D01*
X147450000Y-89038072D01*
X147465012Y-89036593D01*
X147465013Y-90061928D01*
X147437500Y-90061928D01*
X147397003Y-90065917D01*
X147382888Y-90032338D01*
X147357098Y-89968506D01*
X147352117Y-89959137D01*
X147273215Y-89813211D01*
X147234678Y-89756077D01*
X147196978Y-89698466D01*
X147190272Y-89690243D01*
X147084528Y-89562422D01*
X147035657Y-89513891D01*
X146987458Y-89464672D01*
X146979282Y-89457908D01*
X146850726Y-89353060D01*
X146793334Y-89314929D01*
X146736515Y-89276024D01*
X146727186Y-89270980D01*
X146727182Y-89270977D01*
X146727178Y-89270975D01*
X146580708Y-89193096D01*
X146517033Y-89166851D01*
X146453711Y-89139711D01*
X146443574Y-89136573D01*
X146284764Y-89088625D01*
X146217181Y-89075243D01*
X146149815Y-89060924D01*
X146139264Y-89059815D01*
X146139262Y-89059815D01*
X145974163Y-89043627D01*
X145974158Y-89043627D01*
X145937333Y-89040000D01*
X144853000Y-89040000D01*
X144853000Y-88823000D01*
X144873000Y-88823000D01*
X144873000Y-88803000D01*
X145127000Y-88803000D01*
X145127000Y-88823000D01*
X145926250Y-88823000D01*
X145989250Y-88760000D01*
X146023982Y-88760000D01*
X146098815Y-88851185D01*
%TA.AperFunction,Conductor*%
D44*
G36*
X146098815Y-88851185D02*
G01*
X146195506Y-88930537D01*
X146305820Y-88989502D01*
X146425518Y-89025812D01*
X146550000Y-89038072D01*
X147450000Y-89038072D01*
X147465012Y-89036593D01*
X147465013Y-90061928D01*
X147437500Y-90061928D01*
X147397003Y-90065917D01*
X147382888Y-90032338D01*
X147357098Y-89968506D01*
X147352117Y-89959137D01*
X147273215Y-89813211D01*
X147234678Y-89756077D01*
X147196978Y-89698466D01*
X147190272Y-89690243D01*
X147084528Y-89562422D01*
X147035657Y-89513891D01*
X146987458Y-89464672D01*
X146979282Y-89457908D01*
X146850726Y-89353060D01*
X146793334Y-89314929D01*
X146736515Y-89276024D01*
X146727186Y-89270980D01*
X146727182Y-89270977D01*
X146727178Y-89270975D01*
X146580708Y-89193096D01*
X146517033Y-89166851D01*
X146453711Y-89139711D01*
X146443574Y-89136573D01*
X146284764Y-89088625D01*
X146217181Y-89075243D01*
X146149815Y-89060924D01*
X146139264Y-89059815D01*
X146139262Y-89059815D01*
X145974163Y-89043627D01*
X145974158Y-89043627D01*
X145937333Y-89040000D01*
X144853000Y-89040000D01*
X144853000Y-88823000D01*
X144873000Y-88823000D01*
X144873000Y-88803000D01*
X145127000Y-88803000D01*
X145127000Y-88823000D01*
X145926250Y-88823000D01*
X145989250Y-88760000D01*
X146023982Y-88760000D01*
X146098815Y-88851185D01*
G37*
%TD.AperFunction*%
D43*
X139636928Y-77775000D02*
X139653031Y-77938500D01*
X139700722Y-78095716D01*
X139711165Y-78115254D01*
X139590226Y-78196063D01*
X139446063Y-78340226D01*
X139332795Y-78509744D01*
X139254774Y-78698102D01*
X139215000Y-78898061D01*
X139215000Y-79101939D01*
X139254774Y-79301898D01*
X139332795Y-79490256D01*
X139446063Y-79659774D01*
X139590226Y-79803937D01*
X139759744Y-79917205D01*
X139948102Y-79995226D01*
X140148061Y-80035000D01*
X140351939Y-80035000D01*
X140551898Y-79995226D01*
X140659376Y-79950707D01*
X140640021Y-80048011D01*
X140640021Y-80110149D01*
X140251341Y-80498829D01*
X140222343Y-80522627D01*
X140198545Y-80551625D01*
X140198544Y-80551626D01*
X140159341Y-80599394D01*
X140130537Y-80545506D01*
X140051185Y-80448815D01*
X139954494Y-80369463D01*
X139844180Y-80310498D01*
X139724482Y-80274188D01*
X139600000Y-80261928D01*
X139400000Y-80261928D01*
X139275518Y-80274188D01*
X139260000Y-80278895D01*
X139260000Y-79937333D01*
X139263677Y-79900000D01*
X139249003Y-79751014D01*
X139205546Y-79607753D01*
X139134974Y-79475724D01*
X139040001Y-79359999D01*
X138924276Y-79265026D01*
X138792247Y-79194454D01*
X138648986Y-79150997D01*
X138537333Y-79140000D01*
X138500000Y-79136323D01*
X138462667Y-79140000D01*
X138037333Y-79140000D01*
X138000000Y-79136323D01*
X137962667Y-79140000D01*
X135628736Y-79140000D01*
X135591411Y-79136324D01*
X135554088Y-79140000D01*
X135554079Y-79140000D01*
X135442426Y-79150997D01*
X135330328Y-79185001D01*
X135299165Y-79194454D01*
X135167135Y-79265026D01*
X135122207Y-79301898D01*
X135051411Y-79359999D01*
X135027612Y-79388998D01*
X134576312Y-79840299D01*
X134490267Y-79782806D01*
X134301909Y-79704785D01*
X134101950Y-79665011D01*
X133898072Y-79665011D01*
X133698113Y-79704785D01*
X133509755Y-79782806D01*
X133340237Y-79896074D01*
X133196074Y-80040237D01*
X133082806Y-80209755D01*
X133004785Y-80398113D01*
X132965011Y-80598072D01*
X132965011Y-80660210D01*
X132560823Y-81064398D01*
X132531825Y-81088196D01*
X132508027Y-81117194D01*
X132508026Y-81117195D01*
X132436851Y-81203921D01*
X132366279Y-81335951D01*
X132338865Y-81426326D01*
X132322823Y-81479211D01*
X132322055Y-81487006D01*
X131952033Y-81227572D01*
X129679605Y-83500000D01*
X131952033Y-85772428D01*
X132007352Y-85733643D01*
X132351992Y-86078283D01*
X132366135Y-86064141D01*
X132545740Y-86243746D01*
X132531597Y-86257888D01*
X133085040Y-86811331D01*
X133098726Y-86880137D01*
X133152501Y-87009960D01*
X133152501Y-87283825D01*
X133032394Y-87382394D01*
X133000000Y-87421866D01*
X132967606Y-87382394D01*
X132875293Y-87306634D01*
X132934825Y-87244832D01*
X132934825Y-87020326D01*
X132351992Y-86437493D01*
X131786837Y-87002648D01*
X131786837Y-87160512D01*
X131654284Y-87200722D01*
X131509392Y-87278169D01*
X131382394Y-87382394D01*
X131294084Y-87490000D01*
X130787366Y-87490000D01*
X130750043Y-87486324D01*
X130712721Y-87490000D01*
X130712711Y-87490000D01*
X130601058Y-87500997D01*
X130479822Y-87537773D01*
X130457797Y-87544454D01*
X130325767Y-87615026D01*
X130286580Y-87647187D01*
X130210043Y-87709999D01*
X130205903Y-87715044D01*
X130148061Y-87715044D01*
X130038072Y-87736922D01*
X130038072Y-87262500D01*
X130021248Y-87091684D01*
X129979797Y-86955039D01*
X130172888Y-86936605D01*
X130830407Y-86739298D01*
X131153128Y-86568041D01*
X131167380Y-86594704D01*
X131246733Y-86691395D01*
X131382725Y-86823043D01*
X131607232Y-86823043D01*
X132172387Y-86257888D01*
X131589554Y-85675055D01*
X131495450Y-85675055D01*
X129500000Y-83679605D01*
X127227572Y-85952033D01*
X127541391Y-86399623D01*
X127412500Y-86386928D01*
X126837500Y-86386928D01*
X126666684Y-86403752D01*
X126642549Y-86411073D01*
X126648072Y-86355000D01*
X126648072Y-85492049D01*
X127047967Y-85772428D01*
X129320395Y-83500000D01*
X127047967Y-81227572D01*
X126594150Y-81545757D01*
X126268731Y-82150210D01*
X126067488Y-82806535D01*
X125998155Y-83489510D01*
X126003637Y-83546928D01*
X125409593Y-83546928D01*
X125419975Y-83534277D01*
X125490547Y-83402248D01*
X125534004Y-83258987D01*
X125545001Y-83147334D01*
X125545001Y-83147325D01*
X125548677Y-83110002D01*
X125545001Y-83072679D01*
X125545001Y-81047967D01*
X127227572Y-81047967D01*
X129500000Y-83320395D01*
X131772428Y-81047967D01*
X131454243Y-80594150D01*
X130849790Y-80268731D01*
X130193465Y-80067488D01*
X129510490Y-79998155D01*
X128827112Y-80063395D01*
X128169593Y-80260702D01*
X127563201Y-80582494D01*
X127545757Y-80594150D01*
X127227572Y-81047967D01*
X125545001Y-81047967D01*
X125545001Y-80613072D01*
X125912500Y-80613072D01*
X126083316Y-80596248D01*
X126247567Y-80546423D01*
X126398942Y-80465512D01*
X126531623Y-80356623D01*
X126610920Y-80260000D01*
X127212678Y-80260000D01*
X127250000Y-80263676D01*
X127287322Y-80260000D01*
X127287333Y-80260000D01*
X127398986Y-80249003D01*
X127542247Y-80205546D01*
X127674276Y-80134974D01*
X127790001Y-80040001D01*
X127813803Y-80010998D01*
X128314802Y-79510000D01*
X130317680Y-79510000D01*
X130355002Y-79513676D01*
X130392324Y-79510000D01*
X130392335Y-79510000D01*
X130503988Y-79499003D01*
X130647249Y-79455546D01*
X130779278Y-79384974D01*
X130895003Y-79290001D01*
X130918805Y-79260998D01*
X131419804Y-78760000D01*
X134301335Y-78760000D01*
X134331014Y-78769003D01*
X134368502Y-78772695D01*
X134369463Y-78774494D01*
X134448815Y-78871185D01*
X134545506Y-78950537D01*
X134655820Y-79009502D01*
X134775518Y-79045812D01*
X134900000Y-79058072D01*
X136100000Y-79058072D01*
X136224482Y-79045812D01*
X136344180Y-79009502D01*
X136454494Y-78950537D01*
X136551185Y-78871185D01*
X136630537Y-78774494D01*
X136689502Y-78664180D01*
X136725812Y-78544482D01*
X136738072Y-78420000D01*
X136738072Y-78054999D01*
X137016532Y-78054999D01*
X137060001Y-78059280D01*
X137103470Y-78054999D01*
X137103478Y-78054999D01*
X137233491Y-78042194D01*
X137400314Y-77991588D01*
X137554060Y-77909410D01*
X137583803Y-77885000D01*
X137591788Y-77885000D01*
X137811067Y-77841383D01*
X137922774Y-77795112D01*
X138005820Y-77839502D01*
X138125518Y-77875812D01*
X138250000Y-77888072D01*
X139250000Y-77888072D01*
X139374482Y-77875812D01*
X139494180Y-77839502D01*
X139604494Y-77780537D01*
X139636928Y-77753919D01*
X139636928Y-77775000D01*
%TA.AperFunction,Conductor*%
D44*
G36*
X139636928Y-77775000D02*
G01*
X139653031Y-77938500D01*
X139700722Y-78095716D01*
X139711165Y-78115254D01*
X139590226Y-78196063D01*
X139446063Y-78340226D01*
X139332795Y-78509744D01*
X139254774Y-78698102D01*
X139215000Y-78898061D01*
X139215000Y-79101939D01*
X139254774Y-79301898D01*
X139332795Y-79490256D01*
X139446063Y-79659774D01*
X139590226Y-79803937D01*
X139759744Y-79917205D01*
X139948102Y-79995226D01*
X140148061Y-80035000D01*
X140351939Y-80035000D01*
X140551898Y-79995226D01*
X140659376Y-79950707D01*
X140640021Y-80048011D01*
X140640021Y-80110149D01*
X140251341Y-80498829D01*
X140222343Y-80522627D01*
X140198545Y-80551625D01*
X140198544Y-80551626D01*
X140159341Y-80599394D01*
X140130537Y-80545506D01*
X140051185Y-80448815D01*
X139954494Y-80369463D01*
X139844180Y-80310498D01*
X139724482Y-80274188D01*
X139600000Y-80261928D01*
X139400000Y-80261928D01*
X139275518Y-80274188D01*
X139260000Y-80278895D01*
X139260000Y-79937333D01*
X139263677Y-79900000D01*
X139249003Y-79751014D01*
X139205546Y-79607753D01*
X139134974Y-79475724D01*
X139040001Y-79359999D01*
X138924276Y-79265026D01*
X138792247Y-79194454D01*
X138648986Y-79150997D01*
X138537333Y-79140000D01*
X138500000Y-79136323D01*
X138462667Y-79140000D01*
X138037333Y-79140000D01*
X138000000Y-79136323D01*
X137962667Y-79140000D01*
X135628736Y-79140000D01*
X135591411Y-79136324D01*
X135554088Y-79140000D01*
X135554079Y-79140000D01*
X135442426Y-79150997D01*
X135330328Y-79185001D01*
X135299165Y-79194454D01*
X135167135Y-79265026D01*
X135122207Y-79301898D01*
X135051411Y-79359999D01*
X135027612Y-79388998D01*
X134576312Y-79840299D01*
X134490267Y-79782806D01*
X134301909Y-79704785D01*
X134101950Y-79665011D01*
X133898072Y-79665011D01*
X133698113Y-79704785D01*
X133509755Y-79782806D01*
X133340237Y-79896074D01*
X133196074Y-80040237D01*
X133082806Y-80209755D01*
X133004785Y-80398113D01*
X132965011Y-80598072D01*
X132965011Y-80660210D01*
X132560823Y-81064398D01*
X132531825Y-81088196D01*
X132508027Y-81117194D01*
X132508026Y-81117195D01*
X132436851Y-81203921D01*
X132366279Y-81335951D01*
X132338865Y-81426326D01*
X132322823Y-81479211D01*
X132322055Y-81487006D01*
X131952033Y-81227572D01*
X129679605Y-83500000D01*
X131952033Y-85772428D01*
X132007352Y-85733643D01*
X132351992Y-86078283D01*
X132366135Y-86064141D01*
X132545740Y-86243746D01*
X132531597Y-86257888D01*
X133085040Y-86811331D01*
X133098726Y-86880137D01*
X133152501Y-87009960D01*
X133152501Y-87283825D01*
X133032394Y-87382394D01*
X133000000Y-87421866D01*
X132967606Y-87382394D01*
X132875293Y-87306634D01*
X132934825Y-87244832D01*
X132934825Y-87020326D01*
X132351992Y-86437493D01*
X131786837Y-87002648D01*
X131786837Y-87160512D01*
X131654284Y-87200722D01*
X131509392Y-87278169D01*
X131382394Y-87382394D01*
X131294084Y-87490000D01*
X130787366Y-87490000D01*
X130750043Y-87486324D01*
X130712721Y-87490000D01*
X130712711Y-87490000D01*
X130601058Y-87500997D01*
X130479822Y-87537773D01*
X130457797Y-87544454D01*
X130325767Y-87615026D01*
X130286580Y-87647187D01*
X130210043Y-87709999D01*
X130205903Y-87715044D01*
X130148061Y-87715044D01*
X130038072Y-87736922D01*
X130038072Y-87262500D01*
X130021248Y-87091684D01*
X129979797Y-86955039D01*
X130172888Y-86936605D01*
X130830407Y-86739298D01*
X131153128Y-86568041D01*
X131167380Y-86594704D01*
X131246733Y-86691395D01*
X131382725Y-86823043D01*
X131607232Y-86823043D01*
X132172387Y-86257888D01*
X131589554Y-85675055D01*
X131495450Y-85675055D01*
X129500000Y-83679605D01*
X127227572Y-85952033D01*
X127541391Y-86399623D01*
X127412500Y-86386928D01*
X126837500Y-86386928D01*
X126666684Y-86403752D01*
X126642549Y-86411073D01*
X126648072Y-86355000D01*
X126648072Y-85492049D01*
X127047967Y-85772428D01*
X129320395Y-83500000D01*
X127047967Y-81227572D01*
X126594150Y-81545757D01*
X126268731Y-82150210D01*
X126067488Y-82806535D01*
X125998155Y-83489510D01*
X126003637Y-83546928D01*
X125409593Y-83546928D01*
X125419975Y-83534277D01*
X125490547Y-83402248D01*
X125534004Y-83258987D01*
X125545001Y-83147334D01*
X125545001Y-83147325D01*
X125548677Y-83110002D01*
X125545001Y-83072679D01*
X125545001Y-81047967D01*
X127227572Y-81047967D01*
X129500000Y-83320395D01*
X131772428Y-81047967D01*
X131454243Y-80594150D01*
X130849790Y-80268731D01*
X130193465Y-80067488D01*
X129510490Y-79998155D01*
X128827112Y-80063395D01*
X128169593Y-80260702D01*
X127563201Y-80582494D01*
X127545757Y-80594150D01*
X127227572Y-81047967D01*
X125545001Y-81047967D01*
X125545001Y-80613072D01*
X125912500Y-80613072D01*
X126083316Y-80596248D01*
X126247567Y-80546423D01*
X126398942Y-80465512D01*
X126531623Y-80356623D01*
X126610920Y-80260000D01*
X127212678Y-80260000D01*
X127250000Y-80263676D01*
X127287322Y-80260000D01*
X127287333Y-80260000D01*
X127398986Y-80249003D01*
X127542247Y-80205546D01*
X127674276Y-80134974D01*
X127790001Y-80040001D01*
X127813803Y-80010998D01*
X128314802Y-79510000D01*
X130317680Y-79510000D01*
X130355002Y-79513676D01*
X130392324Y-79510000D01*
X130392335Y-79510000D01*
X130503988Y-79499003D01*
X130647249Y-79455546D01*
X130779278Y-79384974D01*
X130895003Y-79290001D01*
X130918805Y-79260998D01*
X131419804Y-78760000D01*
X134301335Y-78760000D01*
X134331014Y-78769003D01*
X134368502Y-78772695D01*
X134369463Y-78774494D01*
X134448815Y-78871185D01*
X134545506Y-78950537D01*
X134655820Y-79009502D01*
X134775518Y-79045812D01*
X134900000Y-79058072D01*
X136100000Y-79058072D01*
X136224482Y-79045812D01*
X136344180Y-79009502D01*
X136454494Y-78950537D01*
X136551185Y-78871185D01*
X136630537Y-78774494D01*
X136689502Y-78664180D01*
X136725812Y-78544482D01*
X136738072Y-78420000D01*
X136738072Y-78054999D01*
X137016532Y-78054999D01*
X137060001Y-78059280D01*
X137103470Y-78054999D01*
X137103478Y-78054999D01*
X137233491Y-78042194D01*
X137400314Y-77991588D01*
X137554060Y-77909410D01*
X137583803Y-77885000D01*
X137591788Y-77885000D01*
X137811067Y-77841383D01*
X137922774Y-77795112D01*
X138005820Y-77839502D01*
X138125518Y-77875812D01*
X138250000Y-77888072D01*
X139250000Y-77888072D01*
X139374482Y-77875812D01*
X139494180Y-77839502D01*
X139604494Y-77780537D01*
X139636928Y-77753919D01*
X139636928Y-77775000D01*
G37*
%TD.AperFunction*%
D43*
X147410349Y-86961928D02*
X146550000Y-86961928D01*
X146425518Y-86974188D01*
X146305820Y-87010498D01*
X146195506Y-87069463D01*
X146098815Y-87148815D01*
X146088072Y-87161905D01*
X146088072Y-86650000D01*
X146081869Y-86587020D01*
X146099150Y-86594178D01*
X146299109Y-86633952D01*
X146502987Y-86633952D01*
X146702946Y-86594178D01*
X146891304Y-86516157D01*
X146935229Y-86486807D01*
X147410349Y-86961928D01*
%TA.AperFunction,Conductor*%
D44*
G36*
X147410349Y-86961928D02*
G01*
X146550000Y-86961928D01*
X146425518Y-86974188D01*
X146305820Y-87010498D01*
X146195506Y-87069463D01*
X146098815Y-87148815D01*
X146088072Y-87161905D01*
X146088072Y-86650000D01*
X146081869Y-86587020D01*
X146099150Y-86594178D01*
X146299109Y-86633952D01*
X146502987Y-86633952D01*
X146702946Y-86594178D01*
X146891304Y-86516157D01*
X146935229Y-86486807D01*
X147410349Y-86961928D01*
G37*
%TD.AperFunction*%
D43*
X105622143Y-69065000D02*
X112377857Y-69065000D01*
X112377857Y-66685000D01*
X122348334Y-66685000D01*
X122348334Y-69065000D01*
X127151667Y-69065000D01*
X127151667Y-66685000D01*
X133717381Y-66685000D01*
X133717381Y-69065000D01*
X139282619Y-69065000D01*
X139282619Y-66685000D01*
X142217381Y-66685000D01*
X142217381Y-69065000D01*
X148782619Y-69065000D01*
X148782619Y-66685000D01*
X149315000Y-66685000D01*
X149315000Y-74468367D01*
X149112117Y-74371629D01*
X148828589Y-74299661D01*
X148536469Y-74284389D01*
X148246981Y-74326401D01*
X147971253Y-74424081D01*
X147833843Y-74497528D01*
X147756208Y-74746603D01*
X148605000Y-75595395D01*
X148619143Y-75581253D01*
X148798748Y-75760858D01*
X148784605Y-75775000D01*
X148798748Y-75789143D01*
X148619143Y-75968748D01*
X148605000Y-75954605D01*
X147756208Y-76803397D01*
X147833843Y-77052472D01*
X148097883Y-77178371D01*
X148381411Y-77250339D01*
X148673531Y-77265611D01*
X148963019Y-77223599D01*
X149238747Y-77125919D01*
X149315000Y-77085161D01*
X149315001Y-83118367D01*
X149112117Y-83021629D01*
X148828589Y-82949661D01*
X148536469Y-82934389D01*
X148246981Y-82976401D01*
X147971253Y-83074081D01*
X147833843Y-83147528D01*
X147756208Y-83396603D01*
X148605000Y-84245395D01*
X148619143Y-84231253D01*
X148798748Y-84410858D01*
X148784605Y-84425000D01*
X148798748Y-84439143D01*
X148619143Y-84618748D01*
X148605000Y-84604605D01*
X148590858Y-84618748D01*
X148411253Y-84439143D01*
X148425395Y-84425000D01*
X147576603Y-83576208D01*
X147327528Y-83653843D01*
X147201629Y-83917883D01*
X147129661Y-84201411D01*
X147114389Y-84493531D01*
X147146378Y-84713952D01*
X146939502Y-84713952D01*
X146891304Y-84681747D01*
X146702946Y-84603726D01*
X146502987Y-84563952D01*
X146299109Y-84563952D01*
X146099150Y-84603726D01*
X146051006Y-84623668D01*
X146066718Y-84362405D01*
X146022961Y-84043325D01*
X145917795Y-83738912D01*
X145824814Y-83564956D01*
X145560413Y-83469192D01*
X144604605Y-84425000D01*
X144618748Y-84439143D01*
X144439143Y-84618748D01*
X144425000Y-84604605D01*
X144410858Y-84618748D01*
X144231253Y-84439143D01*
X144245395Y-84425000D01*
X144231253Y-84410858D01*
X144404048Y-84238062D01*
X144405000Y-84238072D01*
X144416540Y-84236935D01*
X144425000Y-84245395D01*
X144435308Y-84235087D01*
X144529482Y-84225812D01*
X144649180Y-84189502D01*
X144759494Y-84130537D01*
X144856185Y-84051185D01*
X144935537Y-83954494D01*
X144994502Y-83844180D01*
X145030812Y-83724482D01*
X145040087Y-83630308D01*
X145380808Y-83289587D01*
X145285044Y-83025186D01*
X145119937Y-82944866D01*
X145311002Y-82753802D01*
X145340001Y-82730003D01*
X145434974Y-82614278D01*
X145505546Y-82482249D01*
X145549003Y-82338988D01*
X145560000Y-82227335D01*
X145560000Y-82227326D01*
X145563676Y-82190003D01*
X145560000Y-82152680D01*
X145560000Y-78047320D01*
X145563676Y-78009997D01*
X145560000Y-77972674D01*
X145560000Y-77972665D01*
X145549003Y-77861012D01*
X145505546Y-77717751D01*
X145434974Y-77585722D01*
X145340001Y-77469997D01*
X145311003Y-77446199D01*
X145125106Y-77260302D01*
X145285044Y-77174814D01*
X145380808Y-76910413D01*
X145285395Y-76815000D01*
X145402002Y-76815000D01*
X145402002Y-76660252D01*
X145556750Y-76815000D01*
X145616965Y-76811410D01*
X145738380Y-76781336D01*
X145851595Y-76728153D01*
X145952259Y-76653905D01*
X146036503Y-76561445D01*
X146101091Y-76454326D01*
X146143540Y-76336665D01*
X146160000Y-76238750D01*
X146028223Y-76106973D01*
X146047384Y-76033892D01*
X146047386Y-76033864D01*
X146160000Y-75921250D01*
X146146936Y-75843531D01*
X147114389Y-75843531D01*
X147156401Y-76133019D01*
X147254081Y-76408747D01*
X147327528Y-76546157D01*
X147576603Y-76623792D01*
X148425395Y-75775000D01*
X147576603Y-74926208D01*
X147327528Y-75003843D01*
X147201629Y-75267883D01*
X147129661Y-75551411D01*
X147114389Y-75843531D01*
X146146936Y-75843531D01*
X146143540Y-75823335D01*
X146101091Y-75705674D01*
X146055404Y-75629902D01*
X146022961Y-75393325D01*
X145917795Y-75088912D01*
X145824814Y-74914956D01*
X145560413Y-74819192D01*
X145013928Y-75365678D01*
X144993250Y-75345000D01*
X144933035Y-75348590D01*
X144811620Y-75378664D01*
X144698405Y-75431847D01*
X144597741Y-75506095D01*
X144513497Y-75598555D01*
X144448909Y-75705674D01*
X144406460Y-75823335D01*
X144390000Y-75921250D01*
X144421748Y-75952998D01*
X144395108Y-75952998D01*
X144231253Y-75789143D01*
X144245395Y-75775000D01*
X143289587Y-74819192D01*
X143025186Y-74914956D01*
X143005697Y-74955017D01*
X142969180Y-74935498D01*
X142849482Y-74899188D01*
X142725000Y-74886928D01*
X142535750Y-74890000D01*
X142377000Y-75048750D01*
X142377000Y-75798000D01*
X142397000Y-75798000D01*
X142397000Y-76052000D01*
X142377000Y-76052000D01*
X142377000Y-76072000D01*
X142123000Y-76072000D01*
X142123000Y-76052000D01*
X140877000Y-76052000D01*
X140877000Y-76072000D01*
X140623000Y-76072000D01*
X140623000Y-76052000D01*
X140603000Y-76052000D01*
X140603000Y-75798000D01*
X140623000Y-75798000D01*
X140623000Y-75778000D01*
X140877000Y-75778000D01*
X140877000Y-75798000D01*
X142123000Y-75798000D01*
X142123000Y-75048750D01*
X141964250Y-74890000D01*
X141775000Y-74886928D01*
X141650518Y-74899188D01*
X141530820Y-74935498D01*
X141500000Y-74951972D01*
X141469180Y-74935498D01*
X141349482Y-74899188D01*
X141225000Y-74886928D01*
X141035750Y-74890000D01*
X140877002Y-75048748D01*
X140877002Y-74890000D01*
X140861578Y-74890000D01*
X142216579Y-73535000D01*
X143249131Y-73535000D01*
X143259294Y-73554013D01*
X143444866Y-73780134D01*
X143670986Y-73965706D01*
X143928966Y-74103599D01*
X144131295Y-74164975D01*
X144043325Y-74177039D01*
X143738912Y-74282205D01*
X143564956Y-74375186D01*
X143469192Y-74639587D01*
X144425000Y-75595395D01*
X145380808Y-74639587D01*
X145285044Y-74375186D01*
X144995429Y-74234296D01*
X144804878Y-74184337D01*
X145071033Y-74103599D01*
X145329013Y-73965706D01*
X145549945Y-73784392D01*
X145560498Y-73819180D01*
X145619463Y-73929494D01*
X145698815Y-74026185D01*
X145795506Y-74105537D01*
X145905820Y-74164502D01*
X146025518Y-74200812D01*
X146150000Y-74213072D01*
X146714250Y-74210000D01*
X146873000Y-74051250D01*
X146873000Y-72777000D01*
X147127000Y-72777000D01*
X147127000Y-74051250D01*
X147285750Y-74210000D01*
X147850000Y-74213072D01*
X147974482Y-74200812D01*
X148094180Y-74164502D01*
X148204494Y-74105537D01*
X148301185Y-74026185D01*
X148380537Y-73929494D01*
X148439502Y-73819180D01*
X148475812Y-73699482D01*
X148488072Y-73575000D01*
X148485000Y-72935750D01*
X148326250Y-72777000D01*
X147127000Y-72777000D01*
X146873000Y-72777000D01*
X146853000Y-72777000D01*
X146853000Y-72523000D01*
X146873000Y-72523000D01*
X146873000Y-71248750D01*
X147127000Y-71248750D01*
X147127000Y-72523000D01*
X148326250Y-72523000D01*
X148485000Y-72364250D01*
X148488072Y-71725000D01*
X148475812Y-71600518D01*
X148439502Y-71480820D01*
X148380537Y-71370506D01*
X148301185Y-71273815D01*
X148204494Y-71194463D01*
X148094180Y-71135498D01*
X147974482Y-71099188D01*
X147850000Y-71086928D01*
X147285750Y-71090000D01*
X147127000Y-71248750D01*
X146873000Y-71248750D01*
X146714250Y-71090000D01*
X146150000Y-71086928D01*
X146025518Y-71099188D01*
X145905820Y-71135498D01*
X145795506Y-71194463D01*
X145698815Y-71273815D01*
X145619463Y-71370506D01*
X145560498Y-71480820D01*
X145549945Y-71515608D01*
X145329014Y-71334294D01*
X145071034Y-71196401D01*
X144791111Y-71111487D01*
X144500000Y-71082815D01*
X144208890Y-71111487D01*
X143928967Y-71196401D01*
X143670987Y-71334294D01*
X143444866Y-71519866D01*
X143259294Y-71745986D01*
X143249131Y-71765000D01*
X141893466Y-71765000D01*
X141849999Y-71760719D01*
X141806533Y-71765000D01*
X141806523Y-71765000D01*
X141676510Y-71777805D01*
X141509687Y-71828411D01*
X141355941Y-71910589D01*
X141355939Y-71910590D01*
X141355940Y-71910590D01*
X141254953Y-71993468D01*
X141254951Y-71993470D01*
X141221183Y-72021183D01*
X141193470Y-72054951D01*
X140398836Y-72849586D01*
X140326250Y-72777000D01*
X139127000Y-72777000D01*
X139127000Y-74051250D01*
X139162086Y-74086336D01*
X138365000Y-74883422D01*
X138365000Y-74211901D01*
X138714250Y-74210000D01*
X138873000Y-74051250D01*
X138873000Y-72777000D01*
X138853000Y-72777000D01*
X138853000Y-72523000D01*
X138873000Y-72523000D01*
X138873000Y-71248750D01*
X139127000Y-71248750D01*
X139127000Y-72523000D01*
X140326250Y-72523000D01*
X140485000Y-72364250D01*
X140488072Y-71725000D01*
X140475812Y-71600518D01*
X140439502Y-71480820D01*
X140380537Y-71370506D01*
X140301185Y-71273815D01*
X140204494Y-71194463D01*
X140094180Y-71135498D01*
X139974482Y-71099188D01*
X139850000Y-71086928D01*
X139285750Y-71090000D01*
X139127000Y-71248750D01*
X138873000Y-71248750D01*
X138714250Y-71090000D01*
X138150000Y-71086928D01*
X138025518Y-71099188D01*
X137905820Y-71135498D01*
X137795506Y-71194463D01*
X137698815Y-71273815D01*
X137619463Y-71370506D01*
X137560498Y-71480820D01*
X137549945Y-71515608D01*
X137329014Y-71334294D01*
X137071034Y-71196401D01*
X136791111Y-71111487D01*
X136500000Y-71082815D01*
X136208890Y-71111487D01*
X135928967Y-71196401D01*
X135670987Y-71334294D01*
X135444866Y-71519866D01*
X135259294Y-71745986D01*
X135250000Y-71763374D01*
X135240706Y-71745987D01*
X135055134Y-71519866D01*
X134829014Y-71334294D01*
X134571034Y-71196401D01*
X134291111Y-71111487D01*
X134000000Y-71082815D01*
X133708890Y-71111487D01*
X133428967Y-71196401D01*
X133170987Y-71334294D01*
X132944866Y-71519866D01*
X132759294Y-71745986D01*
X132682317Y-71890000D01*
X132367322Y-71890000D01*
X132329999Y-71886324D01*
X132292676Y-71890000D01*
X132292667Y-71890000D01*
X132181014Y-71900997D01*
X132037753Y-71944454D01*
X131905724Y-72015026D01*
X131905722Y-72015027D01*
X131905723Y-72015027D01*
X131818996Y-72086201D01*
X131818992Y-72086205D01*
X131789999Y-72109999D01*
X131766205Y-72138992D01*
X129463271Y-74441928D01*
X128900000Y-74441928D01*
X128775518Y-74454188D01*
X128655820Y-74490498D01*
X128545506Y-74549463D01*
X128448815Y-74628815D01*
X128369463Y-74725506D01*
X128310498Y-74835820D01*
X128274188Y-74955518D01*
X128261928Y-75080000D01*
X128261928Y-75880000D01*
X128274188Y-76004482D01*
X128310498Y-76124180D01*
X128369463Y-76234494D01*
X128448815Y-76331185D01*
X128545506Y-76410537D01*
X128655820Y-76469502D01*
X128775518Y-76505812D01*
X128900000Y-76518072D01*
X129749343Y-76518072D01*
X129721184Y-76541182D01*
X129693471Y-76574950D01*
X129286494Y-76981928D01*
X128900000Y-76981928D01*
X128775518Y-76994188D01*
X128655820Y-77030498D01*
X128545506Y-77089463D01*
X128448815Y-77168815D01*
X128369463Y-77265506D01*
X128310498Y-77375820D01*
X128274188Y-77495518D01*
X128261928Y-77620000D01*
X128261928Y-77990000D01*
X128037322Y-77990000D01*
X127999999Y-77986324D01*
X127962676Y-77990000D01*
X127962667Y-77990000D01*
X127851014Y-78000997D01*
X127707753Y-78044454D01*
X127575724Y-78115026D01*
X127459999Y-78209999D01*
X127436201Y-78238998D01*
X126935199Y-78740000D01*
X126610920Y-78740000D01*
X126531623Y-78643377D01*
X126448393Y-78575072D01*
X126464903Y-78562192D01*
X126546619Y-78467490D01*
X126608290Y-78358666D01*
X126647546Y-78239902D01*
X126649262Y-78224996D01*
X126698102Y-78245226D01*
X126898061Y-78285000D01*
X127101939Y-78285000D01*
X127301898Y-78245226D01*
X127490256Y-78167205D01*
X127659774Y-78053937D01*
X127803937Y-77909774D01*
X127917205Y-77740256D01*
X127995226Y-77551898D01*
X128035000Y-77351939D01*
X128035000Y-77148061D01*
X127995226Y-76948102D01*
X127917205Y-76759744D01*
X127803937Y-76590226D01*
X127659774Y-76446063D01*
X127490256Y-76332795D01*
X127301898Y-76254774D01*
X127101939Y-76215000D01*
X126898061Y-76215000D01*
X126698102Y-76254774D01*
X126650501Y-76274491D01*
X126614502Y-76155820D01*
X126555537Y-76045506D01*
X126476185Y-75948815D01*
X126422500Y-75904757D01*
X126422500Y-75800718D01*
X126471831Y-75740608D01*
X126549278Y-75595716D01*
X126596969Y-75438500D01*
X126613072Y-75275000D01*
X126613072Y-74725000D01*
X126596969Y-74561500D01*
X126549278Y-74404284D01*
X126471831Y-74259392D01*
X126389234Y-74158747D01*
X126571033Y-74103599D01*
X126829013Y-73965706D01*
X127049945Y-73784392D01*
X127060498Y-73819180D01*
X127119463Y-73929494D01*
X127198815Y-74026185D01*
X127295506Y-74105537D01*
X127405820Y-74164502D01*
X127525518Y-74200812D01*
X127650000Y-74213072D01*
X128214250Y-74210000D01*
X128373000Y-74051250D01*
X128373000Y-72777000D01*
X128627000Y-72777000D01*
X128627000Y-74051250D01*
X128785750Y-74210000D01*
X129350000Y-74213072D01*
X129474482Y-74200812D01*
X129594180Y-74164502D01*
X129704494Y-74105537D01*
X129801185Y-74026185D01*
X129880537Y-73929494D01*
X129939502Y-73819180D01*
X129975812Y-73699482D01*
X129988072Y-73575000D01*
X129985000Y-72935750D01*
X129826250Y-72777000D01*
X128627000Y-72777000D01*
X128373000Y-72777000D01*
X128353000Y-72777000D01*
X128353000Y-72523000D01*
X128373000Y-72523000D01*
X128373000Y-71248750D01*
X128627000Y-71248750D01*
X128627000Y-72523000D01*
X129826250Y-72523000D01*
X129985000Y-72364250D01*
X129988072Y-71725000D01*
X129975812Y-71600518D01*
X129939502Y-71480820D01*
X129880537Y-71370506D01*
X129801185Y-71273815D01*
X129704494Y-71194463D01*
X129594180Y-71135498D01*
X129474482Y-71099188D01*
X129350000Y-71086928D01*
X128785750Y-71090000D01*
X128627000Y-71248750D01*
X128373000Y-71248750D01*
X128214250Y-71090000D01*
X127650000Y-71086928D01*
X127525518Y-71099188D01*
X127405820Y-71135498D01*
X127295506Y-71194463D01*
X127198815Y-71273815D01*
X127119463Y-71370506D01*
X127060498Y-71480820D01*
X127049945Y-71515608D01*
X126829014Y-71334294D01*
X126571034Y-71196401D01*
X126291111Y-71111487D01*
X126000000Y-71082815D01*
X125708890Y-71111487D01*
X125428967Y-71196401D01*
X125170987Y-71334294D01*
X124944866Y-71519866D01*
X124759294Y-71745986D01*
X124750000Y-71763374D01*
X124740706Y-71745987D01*
X124555134Y-71519866D01*
X124329014Y-71334294D01*
X124071034Y-71196401D01*
X123791111Y-71111487D01*
X123500000Y-71082815D01*
X123208890Y-71111487D01*
X122928967Y-71196401D01*
X122670987Y-71334294D01*
X122444866Y-71519866D01*
X122259294Y-71745986D01*
X122250000Y-71763374D01*
X122240706Y-71745987D01*
X122055134Y-71519866D01*
X121829014Y-71334294D01*
X121571034Y-71196401D01*
X121291111Y-71111487D01*
X121000000Y-71082815D01*
X120708890Y-71111487D01*
X120428967Y-71196401D01*
X120170987Y-71334294D01*
X119944866Y-71519866D01*
X119759294Y-71745986D01*
X119621401Y-72003966D01*
X119536487Y-72283889D01*
X119515000Y-72502050D01*
X119515000Y-72797949D01*
X119536487Y-73016110D01*
X119621401Y-73296033D01*
X119759294Y-73554013D01*
X119944866Y-73780134D01*
X120091068Y-73900119D01*
X120061500Y-73903031D01*
X119904284Y-73950722D01*
X119759392Y-74028169D01*
X119632394Y-74132394D01*
X119528169Y-74259392D01*
X119450722Y-74404284D01*
X119403031Y-74561500D01*
X119386928Y-74725000D01*
X119386928Y-75275000D01*
X119403031Y-75438500D01*
X119450722Y-75595716D01*
X119528169Y-75740608D01*
X119632394Y-75867606D01*
X119759392Y-75971831D01*
X119904284Y-76049278D01*
X119933270Y-76058071D01*
X120186206Y-76311007D01*
X120210009Y-76340011D01*
X120325734Y-76434984D01*
X120428660Y-76490000D01*
X120457763Y-76505556D01*
X120601024Y-76549013D01*
X120750010Y-76563687D01*
X120787343Y-76560010D01*
X121541046Y-76560010D01*
X121435820Y-76665236D01*
X121322552Y-76834754D01*
X121244531Y-77023112D01*
X121204757Y-77223071D01*
X121204757Y-77426949D01*
X121244531Y-77626908D01*
X121322552Y-77815266D01*
X121435820Y-77984784D01*
X121579983Y-78128947D01*
X121749501Y-78242215D01*
X121790854Y-78259344D01*
X119838271Y-80211928D01*
X119750000Y-80211928D01*
X119625518Y-80224188D01*
X119565000Y-80242546D01*
X119504482Y-80224188D01*
X119380000Y-80211928D01*
X118480000Y-80211928D01*
X118420000Y-80217837D01*
X118420000Y-77874323D01*
X118423676Y-77836998D01*
X118420000Y-77799673D01*
X118420000Y-77799665D01*
X118409003Y-77688012D01*
X118365546Y-77544751D01*
X118294974Y-77412722D01*
X118200001Y-77296997D01*
X118171004Y-77273200D01*
X116911805Y-76014002D01*
X116888002Y-75984998D01*
X116772277Y-75890025D01*
X116640248Y-75819453D01*
X116496987Y-75775996D01*
X116385334Y-75764999D01*
X116385323Y-75764999D01*
X116348001Y-75761323D01*
X116310679Y-75764999D01*
X115701814Y-75764999D01*
X115721831Y-75740608D01*
X115799278Y-75595716D01*
X115846969Y-75438500D01*
X115863072Y-75275000D01*
X115863072Y-74725000D01*
X115846969Y-74561500D01*
X115799278Y-74404284D01*
X115721831Y-74259392D01*
X115627002Y-74143843D01*
X115627002Y-74051252D01*
X115785750Y-74210000D01*
X116350000Y-74213072D01*
X116474482Y-74200812D01*
X116594180Y-74164502D01*
X116704494Y-74105537D01*
X116801185Y-74026185D01*
X116880537Y-73929494D01*
X116939502Y-73819180D01*
X116975812Y-73699482D01*
X116988072Y-73575000D01*
X116985000Y-72935750D01*
X116826250Y-72777000D01*
X115627000Y-72777000D01*
X115627000Y-72797000D01*
X115373000Y-72797000D01*
X115373000Y-72777000D01*
X115353000Y-72777000D01*
X115353000Y-72523000D01*
X115373000Y-72523000D01*
X115373000Y-71248750D01*
X115627000Y-71248750D01*
X115627000Y-72523000D01*
X116826250Y-72523000D01*
X116985000Y-72364250D01*
X116988072Y-71725000D01*
X116975812Y-71600518D01*
X116939502Y-71480820D01*
X116880537Y-71370506D01*
X116801185Y-71273815D01*
X116704494Y-71194463D01*
X116594180Y-71135498D01*
X116474482Y-71099188D01*
X116350000Y-71086928D01*
X115785750Y-71090000D01*
X115627000Y-71248750D01*
X115373000Y-71248750D01*
X115214250Y-71090000D01*
X114650000Y-71086928D01*
X114525518Y-71099188D01*
X114405820Y-71135498D01*
X114295506Y-71194463D01*
X114198815Y-71273815D01*
X114119463Y-71370506D01*
X114060498Y-71480820D01*
X114049945Y-71515608D01*
X113829014Y-71334294D01*
X113571034Y-71196401D01*
X113291111Y-71111487D01*
X113000000Y-71082815D01*
X112708890Y-71111487D01*
X112428967Y-71196401D01*
X112170987Y-71334294D01*
X111944866Y-71519866D01*
X111759294Y-71745986D01*
X111745504Y-71771786D01*
X111737106Y-71755914D01*
X111553540Y-71530305D01*
X111329487Y-71344843D01*
X111073557Y-71206655D01*
X110856890Y-71133524D01*
X110627000Y-71254845D01*
X110627000Y-72523000D01*
X110647000Y-72523000D01*
X110647000Y-72777000D01*
X110627000Y-72777000D01*
X110627000Y-72797000D01*
X110373000Y-72797000D01*
X110373000Y-72777000D01*
X110353000Y-72777000D01*
X110353000Y-72523000D01*
X110373000Y-72523000D01*
X110373000Y-71254845D01*
X110143110Y-71133524D01*
X109926443Y-71206655D01*
X109670513Y-71344843D01*
X109446460Y-71530305D01*
X109262894Y-71755914D01*
X109254496Y-71771786D01*
X109240706Y-71745987D01*
X109055134Y-71519866D01*
X108829014Y-71334294D01*
X108571034Y-71196401D01*
X108291111Y-71111487D01*
X108000000Y-71082815D01*
X107708890Y-71111487D01*
X107428967Y-71196401D01*
X107170987Y-71334294D01*
X106944866Y-71519866D01*
X106759294Y-71745986D01*
X106745504Y-71771786D01*
X106737106Y-71755914D01*
X106553540Y-71530305D01*
X106329487Y-71344843D01*
X106073557Y-71206655D01*
X105856890Y-71133524D01*
X105627000Y-71254845D01*
X105627000Y-72523000D01*
X105647000Y-72523000D01*
X105647000Y-72777000D01*
X105627000Y-72777000D01*
X105627000Y-72797000D01*
X105373000Y-72797000D01*
X105373000Y-72777000D01*
X105353000Y-72777000D01*
X105353000Y-72523000D01*
X105373000Y-72523000D01*
X105373000Y-71254845D01*
X105143110Y-71133524D01*
X104926443Y-71206655D01*
X104670513Y-71344843D01*
X104446460Y-71530305D01*
X104262894Y-71755914D01*
X104254496Y-71771786D01*
X104240706Y-71745987D01*
X104055134Y-71519866D01*
X103829014Y-71334294D01*
X103571034Y-71196401D01*
X103291111Y-71111487D01*
X103000000Y-71082815D01*
X102708890Y-71111487D01*
X102428967Y-71196401D01*
X102170987Y-71334294D01*
X101944866Y-71519866D01*
X101759294Y-71745986D01*
X101621401Y-72003966D01*
X101536487Y-72283889D01*
X101515000Y-72502050D01*
X101515000Y-72797949D01*
X101536487Y-73016110D01*
X101621401Y-73296033D01*
X101759294Y-73554013D01*
X101944866Y-73780134D01*
X102170986Y-73965706D01*
X102327500Y-74049365D01*
X102327500Y-74199282D01*
X102278169Y-74259392D01*
X102200722Y-74404284D01*
X102153031Y-74561500D01*
X102136928Y-74725000D01*
X102136928Y-75275000D01*
X102140868Y-75315000D01*
X100685000Y-75315000D01*
X100685000Y-66685000D01*
X105622143Y-66685000D01*
X105622143Y-69065000D01*
%TA.AperFunction,Conductor*%
D44*
G36*
X105622143Y-69065000D02*
G01*
X112377857Y-69065000D01*
X112377857Y-66685000D01*
X122348334Y-66685000D01*
X122348334Y-69065000D01*
X127151667Y-69065000D01*
X127151667Y-66685000D01*
X133717381Y-66685000D01*
X133717381Y-69065000D01*
X139282619Y-69065000D01*
X139282619Y-66685000D01*
X142217381Y-66685000D01*
X142217381Y-69065000D01*
X148782619Y-69065000D01*
X148782619Y-66685000D01*
X149315000Y-66685000D01*
X149315000Y-74468367D01*
X149112117Y-74371629D01*
X148828589Y-74299661D01*
X148536469Y-74284389D01*
X148246981Y-74326401D01*
X147971253Y-74424081D01*
X147833843Y-74497528D01*
X147756208Y-74746603D01*
X148605000Y-75595395D01*
X148619143Y-75581253D01*
X148798748Y-75760858D01*
X148784605Y-75775000D01*
X148798748Y-75789143D01*
X148619143Y-75968748D01*
X148605000Y-75954605D01*
X147756208Y-76803397D01*
X147833843Y-77052472D01*
X148097883Y-77178371D01*
X148381411Y-77250339D01*
X148673531Y-77265611D01*
X148963019Y-77223599D01*
X149238747Y-77125919D01*
X149315000Y-77085161D01*
X149315001Y-83118367D01*
X149112117Y-83021629D01*
X148828589Y-82949661D01*
X148536469Y-82934389D01*
X148246981Y-82976401D01*
X147971253Y-83074081D01*
X147833843Y-83147528D01*
X147756208Y-83396603D01*
X148605000Y-84245395D01*
X148619143Y-84231253D01*
X148798748Y-84410858D01*
X148784605Y-84425000D01*
X148798748Y-84439143D01*
X148619143Y-84618748D01*
X148605000Y-84604605D01*
X148590858Y-84618748D01*
X148411253Y-84439143D01*
X148425395Y-84425000D01*
X147576603Y-83576208D01*
X147327528Y-83653843D01*
X147201629Y-83917883D01*
X147129661Y-84201411D01*
X147114389Y-84493531D01*
X147146378Y-84713952D01*
X146939502Y-84713952D01*
X146891304Y-84681747D01*
X146702946Y-84603726D01*
X146502987Y-84563952D01*
X146299109Y-84563952D01*
X146099150Y-84603726D01*
X146051006Y-84623668D01*
X146066718Y-84362405D01*
X146022961Y-84043325D01*
X145917795Y-83738912D01*
X145824814Y-83564956D01*
X145560413Y-83469192D01*
X144604605Y-84425000D01*
X144618748Y-84439143D01*
X144439143Y-84618748D01*
X144425000Y-84604605D01*
X144410858Y-84618748D01*
X144231253Y-84439143D01*
X144245395Y-84425000D01*
X144231253Y-84410858D01*
X144404048Y-84238062D01*
X144405000Y-84238072D01*
X144416540Y-84236935D01*
X144425000Y-84245395D01*
X144435308Y-84235087D01*
X144529482Y-84225812D01*
X144649180Y-84189502D01*
X144759494Y-84130537D01*
X144856185Y-84051185D01*
X144935537Y-83954494D01*
X144994502Y-83844180D01*
X145030812Y-83724482D01*
X145040087Y-83630308D01*
X145380808Y-83289587D01*
X145285044Y-83025186D01*
X145119937Y-82944866D01*
X145311002Y-82753802D01*
X145340001Y-82730003D01*
X145434974Y-82614278D01*
X145505546Y-82482249D01*
X145549003Y-82338988D01*
X145560000Y-82227335D01*
X145560000Y-82227326D01*
X145563676Y-82190003D01*
X145560000Y-82152680D01*
X145560000Y-78047320D01*
X145563676Y-78009997D01*
X145560000Y-77972674D01*
X145560000Y-77972665D01*
X145549003Y-77861012D01*
X145505546Y-77717751D01*
X145434974Y-77585722D01*
X145340001Y-77469997D01*
X145311003Y-77446199D01*
X145125106Y-77260302D01*
X145285044Y-77174814D01*
X145380808Y-76910413D01*
X145285395Y-76815000D01*
X145402002Y-76815000D01*
X145402002Y-76660252D01*
X145556750Y-76815000D01*
X145616965Y-76811410D01*
X145738380Y-76781336D01*
X145851595Y-76728153D01*
X145952259Y-76653905D01*
X146036503Y-76561445D01*
X146101091Y-76454326D01*
X146143540Y-76336665D01*
X146160000Y-76238750D01*
X146028223Y-76106973D01*
X146047384Y-76033892D01*
X146047386Y-76033864D01*
X146160000Y-75921250D01*
X146146936Y-75843531D01*
X147114389Y-75843531D01*
X147156401Y-76133019D01*
X147254081Y-76408747D01*
X147327528Y-76546157D01*
X147576603Y-76623792D01*
X148425395Y-75775000D01*
X147576603Y-74926208D01*
X147327528Y-75003843D01*
X147201629Y-75267883D01*
X147129661Y-75551411D01*
X147114389Y-75843531D01*
X146146936Y-75843531D01*
X146143540Y-75823335D01*
X146101091Y-75705674D01*
X146055404Y-75629902D01*
X146022961Y-75393325D01*
X145917795Y-75088912D01*
X145824814Y-74914956D01*
X145560413Y-74819192D01*
X145013928Y-75365678D01*
X144993250Y-75345000D01*
X144933035Y-75348590D01*
X144811620Y-75378664D01*
X144698405Y-75431847D01*
X144597741Y-75506095D01*
X144513497Y-75598555D01*
X144448909Y-75705674D01*
X144406460Y-75823335D01*
X144390000Y-75921250D01*
X144421748Y-75952998D01*
X144395108Y-75952998D01*
X144231253Y-75789143D01*
X144245395Y-75775000D01*
X143289587Y-74819192D01*
X143025186Y-74914956D01*
X143005697Y-74955017D01*
X142969180Y-74935498D01*
X142849482Y-74899188D01*
X142725000Y-74886928D01*
X142535750Y-74890000D01*
X142377000Y-75048750D01*
X142377000Y-75798000D01*
X142397000Y-75798000D01*
X142397000Y-76052000D01*
X142377000Y-76052000D01*
X142377000Y-76072000D01*
X142123000Y-76072000D01*
X142123000Y-76052000D01*
X140877000Y-76052000D01*
X140877000Y-76072000D01*
X140623000Y-76072000D01*
X140623000Y-76052000D01*
X140603000Y-76052000D01*
X140603000Y-75798000D01*
X140623000Y-75798000D01*
X140623000Y-75778000D01*
X140877000Y-75778000D01*
X140877000Y-75798000D01*
X142123000Y-75798000D01*
X142123000Y-75048750D01*
X141964250Y-74890000D01*
X141775000Y-74886928D01*
X141650518Y-74899188D01*
X141530820Y-74935498D01*
X141500000Y-74951972D01*
X141469180Y-74935498D01*
X141349482Y-74899188D01*
X141225000Y-74886928D01*
X141035750Y-74890000D01*
X140877002Y-75048748D01*
X140877002Y-74890000D01*
X140861578Y-74890000D01*
X142216579Y-73535000D01*
X143249131Y-73535000D01*
X143259294Y-73554013D01*
X143444866Y-73780134D01*
X143670986Y-73965706D01*
X143928966Y-74103599D01*
X144131295Y-74164975D01*
X144043325Y-74177039D01*
X143738912Y-74282205D01*
X143564956Y-74375186D01*
X143469192Y-74639587D01*
X144425000Y-75595395D01*
X145380808Y-74639587D01*
X145285044Y-74375186D01*
X144995429Y-74234296D01*
X144804878Y-74184337D01*
X145071033Y-74103599D01*
X145329013Y-73965706D01*
X145549945Y-73784392D01*
X145560498Y-73819180D01*
X145619463Y-73929494D01*
X145698815Y-74026185D01*
X145795506Y-74105537D01*
X145905820Y-74164502D01*
X146025518Y-74200812D01*
X146150000Y-74213072D01*
X146714250Y-74210000D01*
X146873000Y-74051250D01*
X146873000Y-72777000D01*
X147127000Y-72777000D01*
X147127000Y-74051250D01*
X147285750Y-74210000D01*
X147850000Y-74213072D01*
X147974482Y-74200812D01*
X148094180Y-74164502D01*
X148204494Y-74105537D01*
X148301185Y-74026185D01*
X148380537Y-73929494D01*
X148439502Y-73819180D01*
X148475812Y-73699482D01*
X148488072Y-73575000D01*
X148485000Y-72935750D01*
X148326250Y-72777000D01*
X147127000Y-72777000D01*
X146873000Y-72777000D01*
X146853000Y-72777000D01*
X146853000Y-72523000D01*
X146873000Y-72523000D01*
X146873000Y-71248750D01*
X147127000Y-71248750D01*
X147127000Y-72523000D01*
X148326250Y-72523000D01*
X148485000Y-72364250D01*
X148488072Y-71725000D01*
X148475812Y-71600518D01*
X148439502Y-71480820D01*
X148380537Y-71370506D01*
X148301185Y-71273815D01*
X148204494Y-71194463D01*
X148094180Y-71135498D01*
X147974482Y-71099188D01*
X147850000Y-71086928D01*
X147285750Y-71090000D01*
X147127000Y-71248750D01*
X146873000Y-71248750D01*
X146714250Y-71090000D01*
X146150000Y-71086928D01*
X146025518Y-71099188D01*
X145905820Y-71135498D01*
X145795506Y-71194463D01*
X145698815Y-71273815D01*
X145619463Y-71370506D01*
X145560498Y-71480820D01*
X145549945Y-71515608D01*
X145329014Y-71334294D01*
X145071034Y-71196401D01*
X144791111Y-71111487D01*
X144500000Y-71082815D01*
X144208890Y-71111487D01*
X143928967Y-71196401D01*
X143670987Y-71334294D01*
X143444866Y-71519866D01*
X143259294Y-71745986D01*
X143249131Y-71765000D01*
X141893466Y-71765000D01*
X141849999Y-71760719D01*
X141806533Y-71765000D01*
X141806523Y-71765000D01*
X141676510Y-71777805D01*
X141509687Y-71828411D01*
X141355941Y-71910589D01*
X141355939Y-71910590D01*
X141355940Y-71910590D01*
X141254953Y-71993468D01*
X141254951Y-71993470D01*
X141221183Y-72021183D01*
X141193470Y-72054951D01*
X140398836Y-72849586D01*
X140326250Y-72777000D01*
X139127000Y-72777000D01*
X139127000Y-74051250D01*
X139162086Y-74086336D01*
X138365000Y-74883422D01*
X138365000Y-74211901D01*
X138714250Y-74210000D01*
X138873000Y-74051250D01*
X138873000Y-72777000D01*
X138853000Y-72777000D01*
X138853000Y-72523000D01*
X138873000Y-72523000D01*
X138873000Y-71248750D01*
X139127000Y-71248750D01*
X139127000Y-72523000D01*
X140326250Y-72523000D01*
X140485000Y-72364250D01*
X140488072Y-71725000D01*
X140475812Y-71600518D01*
X140439502Y-71480820D01*
X140380537Y-71370506D01*
X140301185Y-71273815D01*
X140204494Y-71194463D01*
X140094180Y-71135498D01*
X139974482Y-71099188D01*
X139850000Y-71086928D01*
X139285750Y-71090000D01*
X139127000Y-71248750D01*
X138873000Y-71248750D01*
X138714250Y-71090000D01*
X138150000Y-71086928D01*
X138025518Y-71099188D01*
X137905820Y-71135498D01*
X137795506Y-71194463D01*
X137698815Y-71273815D01*
X137619463Y-71370506D01*
X137560498Y-71480820D01*
X137549945Y-71515608D01*
X137329014Y-71334294D01*
X137071034Y-71196401D01*
X136791111Y-71111487D01*
X136500000Y-71082815D01*
X136208890Y-71111487D01*
X135928967Y-71196401D01*
X135670987Y-71334294D01*
X135444866Y-71519866D01*
X135259294Y-71745986D01*
X135250000Y-71763374D01*
X135240706Y-71745987D01*
X135055134Y-71519866D01*
X134829014Y-71334294D01*
X134571034Y-71196401D01*
X134291111Y-71111487D01*
X134000000Y-71082815D01*
X133708890Y-71111487D01*
X133428967Y-71196401D01*
X133170987Y-71334294D01*
X132944866Y-71519866D01*
X132759294Y-71745986D01*
X132682317Y-71890000D01*
X132367322Y-71890000D01*
X132329999Y-71886324D01*
X132292676Y-71890000D01*
X132292667Y-71890000D01*
X132181014Y-71900997D01*
X132037753Y-71944454D01*
X131905724Y-72015026D01*
X131905722Y-72015027D01*
X131905723Y-72015027D01*
X131818996Y-72086201D01*
X131818992Y-72086205D01*
X131789999Y-72109999D01*
X131766205Y-72138992D01*
X129463271Y-74441928D01*
X128900000Y-74441928D01*
X128775518Y-74454188D01*
X128655820Y-74490498D01*
X128545506Y-74549463D01*
X128448815Y-74628815D01*
X128369463Y-74725506D01*
X128310498Y-74835820D01*
X128274188Y-74955518D01*
X128261928Y-75080000D01*
X128261928Y-75880000D01*
X128274188Y-76004482D01*
X128310498Y-76124180D01*
X128369463Y-76234494D01*
X128448815Y-76331185D01*
X128545506Y-76410537D01*
X128655820Y-76469502D01*
X128775518Y-76505812D01*
X128900000Y-76518072D01*
X129749343Y-76518072D01*
X129721184Y-76541182D01*
X129693471Y-76574950D01*
X129286494Y-76981928D01*
X128900000Y-76981928D01*
X128775518Y-76994188D01*
X128655820Y-77030498D01*
X128545506Y-77089463D01*
X128448815Y-77168815D01*
X128369463Y-77265506D01*
X128310498Y-77375820D01*
X128274188Y-77495518D01*
X128261928Y-77620000D01*
X128261928Y-77990000D01*
X128037322Y-77990000D01*
X127999999Y-77986324D01*
X127962676Y-77990000D01*
X127962667Y-77990000D01*
X127851014Y-78000997D01*
X127707753Y-78044454D01*
X127575724Y-78115026D01*
X127459999Y-78209999D01*
X127436201Y-78238998D01*
X126935199Y-78740000D01*
X126610920Y-78740000D01*
X126531623Y-78643377D01*
X126448393Y-78575072D01*
X126464903Y-78562192D01*
X126546619Y-78467490D01*
X126608290Y-78358666D01*
X126647546Y-78239902D01*
X126649262Y-78224996D01*
X126698102Y-78245226D01*
X126898061Y-78285000D01*
X127101939Y-78285000D01*
X127301898Y-78245226D01*
X127490256Y-78167205D01*
X127659774Y-78053937D01*
X127803937Y-77909774D01*
X127917205Y-77740256D01*
X127995226Y-77551898D01*
X128035000Y-77351939D01*
X128035000Y-77148061D01*
X127995226Y-76948102D01*
X127917205Y-76759744D01*
X127803937Y-76590226D01*
X127659774Y-76446063D01*
X127490256Y-76332795D01*
X127301898Y-76254774D01*
X127101939Y-76215000D01*
X126898061Y-76215000D01*
X126698102Y-76254774D01*
X126650501Y-76274491D01*
X126614502Y-76155820D01*
X126555537Y-76045506D01*
X126476185Y-75948815D01*
X126422500Y-75904757D01*
X126422500Y-75800718D01*
X126471831Y-75740608D01*
X126549278Y-75595716D01*
X126596969Y-75438500D01*
X126613072Y-75275000D01*
X126613072Y-74725000D01*
X126596969Y-74561500D01*
X126549278Y-74404284D01*
X126471831Y-74259392D01*
X126389234Y-74158747D01*
X126571033Y-74103599D01*
X126829013Y-73965706D01*
X127049945Y-73784392D01*
X127060498Y-73819180D01*
X127119463Y-73929494D01*
X127198815Y-74026185D01*
X127295506Y-74105537D01*
X127405820Y-74164502D01*
X127525518Y-74200812D01*
X127650000Y-74213072D01*
X128214250Y-74210000D01*
X128373000Y-74051250D01*
X128373000Y-72777000D01*
X128627000Y-72777000D01*
X128627000Y-74051250D01*
X128785750Y-74210000D01*
X129350000Y-74213072D01*
X129474482Y-74200812D01*
X129594180Y-74164502D01*
X129704494Y-74105537D01*
X129801185Y-74026185D01*
X129880537Y-73929494D01*
X129939502Y-73819180D01*
X129975812Y-73699482D01*
X129988072Y-73575000D01*
X129985000Y-72935750D01*
X129826250Y-72777000D01*
X128627000Y-72777000D01*
X128373000Y-72777000D01*
X128353000Y-72777000D01*
X128353000Y-72523000D01*
X128373000Y-72523000D01*
X128373000Y-71248750D01*
X128627000Y-71248750D01*
X128627000Y-72523000D01*
X129826250Y-72523000D01*
X129985000Y-72364250D01*
X129988072Y-71725000D01*
X129975812Y-71600518D01*
X129939502Y-71480820D01*
X129880537Y-71370506D01*
X129801185Y-71273815D01*
X129704494Y-71194463D01*
X129594180Y-71135498D01*
X129474482Y-71099188D01*
X129350000Y-71086928D01*
X128785750Y-71090000D01*
X128627000Y-71248750D01*
X128373000Y-71248750D01*
X128214250Y-71090000D01*
X127650000Y-71086928D01*
X127525518Y-71099188D01*
X127405820Y-71135498D01*
X127295506Y-71194463D01*
X127198815Y-71273815D01*
X127119463Y-71370506D01*
X127060498Y-71480820D01*
X127049945Y-71515608D01*
X126829014Y-71334294D01*
X126571034Y-71196401D01*
X126291111Y-71111487D01*
X126000000Y-71082815D01*
X125708890Y-71111487D01*
X125428967Y-71196401D01*
X125170987Y-71334294D01*
X124944866Y-71519866D01*
X124759294Y-71745986D01*
X124750000Y-71763374D01*
X124740706Y-71745987D01*
X124555134Y-71519866D01*
X124329014Y-71334294D01*
X124071034Y-71196401D01*
X123791111Y-71111487D01*
X123500000Y-71082815D01*
X123208890Y-71111487D01*
X122928967Y-71196401D01*
X122670987Y-71334294D01*
X122444866Y-71519866D01*
X122259294Y-71745986D01*
X122250000Y-71763374D01*
X122240706Y-71745987D01*
X122055134Y-71519866D01*
X121829014Y-71334294D01*
X121571034Y-71196401D01*
X121291111Y-71111487D01*
X121000000Y-71082815D01*
X120708890Y-71111487D01*
X120428967Y-71196401D01*
X120170987Y-71334294D01*
X119944866Y-71519866D01*
X119759294Y-71745986D01*
X119621401Y-72003966D01*
X119536487Y-72283889D01*
X119515000Y-72502050D01*
X119515000Y-72797949D01*
X119536487Y-73016110D01*
X119621401Y-73296033D01*
X119759294Y-73554013D01*
X119944866Y-73780134D01*
X120091068Y-73900119D01*
X120061500Y-73903031D01*
X119904284Y-73950722D01*
X119759392Y-74028169D01*
X119632394Y-74132394D01*
X119528169Y-74259392D01*
X119450722Y-74404284D01*
X119403031Y-74561500D01*
X119386928Y-74725000D01*
X119386928Y-75275000D01*
X119403031Y-75438500D01*
X119450722Y-75595716D01*
X119528169Y-75740608D01*
X119632394Y-75867606D01*
X119759392Y-75971831D01*
X119904284Y-76049278D01*
X119933270Y-76058071D01*
X120186206Y-76311007D01*
X120210009Y-76340011D01*
X120325734Y-76434984D01*
X120428660Y-76490000D01*
X120457763Y-76505556D01*
X120601024Y-76549013D01*
X120750010Y-76563687D01*
X120787343Y-76560010D01*
X121541046Y-76560010D01*
X121435820Y-76665236D01*
X121322552Y-76834754D01*
X121244531Y-77023112D01*
X121204757Y-77223071D01*
X121204757Y-77426949D01*
X121244531Y-77626908D01*
X121322552Y-77815266D01*
X121435820Y-77984784D01*
X121579983Y-78128947D01*
X121749501Y-78242215D01*
X121790854Y-78259344D01*
X119838271Y-80211928D01*
X119750000Y-80211928D01*
X119625518Y-80224188D01*
X119565000Y-80242546D01*
X119504482Y-80224188D01*
X119380000Y-80211928D01*
X118480000Y-80211928D01*
X118420000Y-80217837D01*
X118420000Y-77874323D01*
X118423676Y-77836998D01*
X118420000Y-77799673D01*
X118420000Y-77799665D01*
X118409003Y-77688012D01*
X118365546Y-77544751D01*
X118294974Y-77412722D01*
X118200001Y-77296997D01*
X118171004Y-77273200D01*
X116911805Y-76014002D01*
X116888002Y-75984998D01*
X116772277Y-75890025D01*
X116640248Y-75819453D01*
X116496987Y-75775996D01*
X116385334Y-75764999D01*
X116385323Y-75764999D01*
X116348001Y-75761323D01*
X116310679Y-75764999D01*
X115701814Y-75764999D01*
X115721831Y-75740608D01*
X115799278Y-75595716D01*
X115846969Y-75438500D01*
X115863072Y-75275000D01*
X115863072Y-74725000D01*
X115846969Y-74561500D01*
X115799278Y-74404284D01*
X115721831Y-74259392D01*
X115627002Y-74143843D01*
X115627002Y-74051252D01*
X115785750Y-74210000D01*
X116350000Y-74213072D01*
X116474482Y-74200812D01*
X116594180Y-74164502D01*
X116704494Y-74105537D01*
X116801185Y-74026185D01*
X116880537Y-73929494D01*
X116939502Y-73819180D01*
X116975812Y-73699482D01*
X116988072Y-73575000D01*
X116985000Y-72935750D01*
X116826250Y-72777000D01*
X115627000Y-72777000D01*
X115627000Y-72797000D01*
X115373000Y-72797000D01*
X115373000Y-72777000D01*
X115353000Y-72777000D01*
X115353000Y-72523000D01*
X115373000Y-72523000D01*
X115373000Y-71248750D01*
X115627000Y-71248750D01*
X115627000Y-72523000D01*
X116826250Y-72523000D01*
X116985000Y-72364250D01*
X116988072Y-71725000D01*
X116975812Y-71600518D01*
X116939502Y-71480820D01*
X116880537Y-71370506D01*
X116801185Y-71273815D01*
X116704494Y-71194463D01*
X116594180Y-71135498D01*
X116474482Y-71099188D01*
X116350000Y-71086928D01*
X115785750Y-71090000D01*
X115627000Y-71248750D01*
X115373000Y-71248750D01*
X115214250Y-71090000D01*
X114650000Y-71086928D01*
X114525518Y-71099188D01*
X114405820Y-71135498D01*
X114295506Y-71194463D01*
X114198815Y-71273815D01*
X114119463Y-71370506D01*
X114060498Y-71480820D01*
X114049945Y-71515608D01*
X113829014Y-71334294D01*
X113571034Y-71196401D01*
X113291111Y-71111487D01*
X113000000Y-71082815D01*
X112708890Y-71111487D01*
X112428967Y-71196401D01*
X112170987Y-71334294D01*
X111944866Y-71519866D01*
X111759294Y-71745986D01*
X111745504Y-71771786D01*
X111737106Y-71755914D01*
X111553540Y-71530305D01*
X111329487Y-71344843D01*
X111073557Y-71206655D01*
X110856890Y-71133524D01*
X110627000Y-71254845D01*
X110627000Y-72523000D01*
X110647000Y-72523000D01*
X110647000Y-72777000D01*
X110627000Y-72777000D01*
X110627000Y-72797000D01*
X110373000Y-72797000D01*
X110373000Y-72777000D01*
X110353000Y-72777000D01*
X110353000Y-72523000D01*
X110373000Y-72523000D01*
X110373000Y-71254845D01*
X110143110Y-71133524D01*
X109926443Y-71206655D01*
X109670513Y-71344843D01*
X109446460Y-71530305D01*
X109262894Y-71755914D01*
X109254496Y-71771786D01*
X109240706Y-71745987D01*
X109055134Y-71519866D01*
X108829014Y-71334294D01*
X108571034Y-71196401D01*
X108291111Y-71111487D01*
X108000000Y-71082815D01*
X107708890Y-71111487D01*
X107428967Y-71196401D01*
X107170987Y-71334294D01*
X106944866Y-71519866D01*
X106759294Y-71745986D01*
X106745504Y-71771786D01*
X106737106Y-71755914D01*
X106553540Y-71530305D01*
X106329487Y-71344843D01*
X106073557Y-71206655D01*
X105856890Y-71133524D01*
X105627000Y-71254845D01*
X105627000Y-72523000D01*
X105647000Y-72523000D01*
X105647000Y-72777000D01*
X105627000Y-72777000D01*
X105627000Y-72797000D01*
X105373000Y-72797000D01*
X105373000Y-72777000D01*
X105353000Y-72777000D01*
X105353000Y-72523000D01*
X105373000Y-72523000D01*
X105373000Y-71254845D01*
X105143110Y-71133524D01*
X104926443Y-71206655D01*
X104670513Y-71344843D01*
X104446460Y-71530305D01*
X104262894Y-71755914D01*
X104254496Y-71771786D01*
X104240706Y-71745987D01*
X104055134Y-71519866D01*
X103829014Y-71334294D01*
X103571034Y-71196401D01*
X103291111Y-71111487D01*
X103000000Y-71082815D01*
X102708890Y-71111487D01*
X102428967Y-71196401D01*
X102170987Y-71334294D01*
X101944866Y-71519866D01*
X101759294Y-71745986D01*
X101621401Y-72003966D01*
X101536487Y-72283889D01*
X101515000Y-72502050D01*
X101515000Y-72797949D01*
X101536487Y-73016110D01*
X101621401Y-73296033D01*
X101759294Y-73554013D01*
X101944866Y-73780134D01*
X102170986Y-73965706D01*
X102327500Y-74049365D01*
X102327500Y-74199282D01*
X102278169Y-74259392D01*
X102200722Y-74404284D01*
X102153031Y-74561500D01*
X102136928Y-74725000D01*
X102136928Y-75275000D01*
X102140868Y-75315000D01*
X100685000Y-75315000D01*
X100685000Y-66685000D01*
X105622143Y-66685000D01*
X105622143Y-69065000D01*
G37*
%TD.AperFunction*%
D43*
X116900000Y-78151800D02*
X116900001Y-80217837D01*
X116840000Y-80211928D01*
X115940000Y-80211928D01*
X115815518Y-80224188D01*
X115755000Y-80242546D01*
X115694482Y-80224188D01*
X115570000Y-80211928D01*
X114670000Y-80211928D01*
X114545518Y-80224188D01*
X114515712Y-80233230D01*
X114484974Y-80175724D01*
X114390001Y-80059999D01*
X114360998Y-80036197D01*
X114063804Y-79739003D01*
X114040001Y-79709999D01*
X113924276Y-79615026D01*
X113810000Y-79553943D01*
X113810000Y-78564468D01*
X113826185Y-78551185D01*
X113905537Y-78454494D01*
X113964502Y-78344180D01*
X114000715Y-78224801D01*
X114002454Y-78239902D01*
X114041710Y-78358666D01*
X114103381Y-78467490D01*
X114185097Y-78562192D01*
X114283719Y-78639132D01*
X114395456Y-78695353D01*
X114516014Y-78728695D01*
X114640761Y-78737877D01*
X114664250Y-78735000D01*
X114823000Y-78576250D01*
X114823000Y-78088072D01*
X115077000Y-78088072D01*
X115077000Y-78576250D01*
X115235750Y-78735000D01*
X115259239Y-78737877D01*
X115383986Y-78728695D01*
X115504544Y-78695353D01*
X115616281Y-78639132D01*
X115714903Y-78562192D01*
X115796619Y-78467490D01*
X115858290Y-78358666D01*
X115883591Y-78282122D01*
X115898061Y-78285000D01*
X116101939Y-78285000D01*
X116301898Y-78245226D01*
X116490256Y-78167205D01*
X116659774Y-78053937D01*
X116730956Y-77982755D01*
X116900000Y-78151800D01*
%TA.AperFunction,Conductor*%
D44*
G36*
X116900000Y-78151800D02*
G01*
X116900001Y-80217837D01*
X116840000Y-80211928D01*
X115940000Y-80211928D01*
X115815518Y-80224188D01*
X115755000Y-80242546D01*
X115694482Y-80224188D01*
X115570000Y-80211928D01*
X114670000Y-80211928D01*
X114545518Y-80224188D01*
X114515712Y-80233230D01*
X114484974Y-80175724D01*
X114390001Y-80059999D01*
X114360998Y-80036197D01*
X114063804Y-79739003D01*
X114040001Y-79709999D01*
X113924276Y-79615026D01*
X113810000Y-79553943D01*
X113810000Y-78564468D01*
X113826185Y-78551185D01*
X113905537Y-78454494D01*
X113964502Y-78344180D01*
X114000715Y-78224801D01*
X114002454Y-78239902D01*
X114041710Y-78358666D01*
X114103381Y-78467490D01*
X114185097Y-78562192D01*
X114283719Y-78639132D01*
X114395456Y-78695353D01*
X114516014Y-78728695D01*
X114640761Y-78737877D01*
X114664250Y-78735000D01*
X114823000Y-78576250D01*
X114823000Y-78088072D01*
X115077000Y-78088072D01*
X115077000Y-78576250D01*
X115235750Y-78735000D01*
X115259239Y-78737877D01*
X115383986Y-78728695D01*
X115504544Y-78695353D01*
X115616281Y-78639132D01*
X115714903Y-78562192D01*
X115796619Y-78467490D01*
X115858290Y-78358666D01*
X115883591Y-78282122D01*
X115898061Y-78285000D01*
X116101939Y-78285000D01*
X116301898Y-78245226D01*
X116490256Y-78167205D01*
X116659774Y-78053937D01*
X116730956Y-77982755D01*
X116900000Y-78151800D01*
G37*
%TD.AperFunction*%
D43*
X110936200Y-77761002D02*
X110959999Y-77790001D01*
X111075724Y-77884974D01*
X111207753Y-77955546D01*
X111351014Y-77999003D01*
X111462667Y-78010000D01*
X111462677Y-78010000D01*
X111500000Y-78013676D01*
X111537323Y-78010000D01*
X112086928Y-78010000D01*
X112086928Y-78100000D01*
X112099188Y-78224482D01*
X112135498Y-78344180D01*
X112194463Y-78454494D01*
X112273815Y-78551185D01*
X112290000Y-78564468D01*
X112290001Y-79490000D01*
X110564802Y-79490000D01*
X109774526Y-78699724D01*
X109873000Y-78601250D01*
X109873000Y-77998000D01*
X110127000Y-77998000D01*
X110127000Y-78601250D01*
X110285750Y-78760000D01*
X110334829Y-78762892D01*
X110459567Y-78753594D01*
X110580095Y-78720141D01*
X110691780Y-78663816D01*
X110790330Y-78586785D01*
X110871959Y-78492008D01*
X110933529Y-78383127D01*
X110972675Y-78264326D01*
X110985000Y-78156750D01*
X110826250Y-77998000D01*
X110127000Y-77998000D01*
X109873000Y-77998000D01*
X109853000Y-77998000D01*
X109853000Y-77802000D01*
X109873000Y-77802000D01*
X109873000Y-77753000D01*
X110127000Y-77753000D01*
X110127000Y-77802000D01*
X110826250Y-77802000D01*
X110901724Y-77726526D01*
X110936200Y-77761002D01*
%TA.AperFunction,Conductor*%
D44*
G36*
X110936200Y-77761002D02*
G01*
X110959999Y-77790001D01*
X111075724Y-77884974D01*
X111207753Y-77955546D01*
X111351014Y-77999003D01*
X111462667Y-78010000D01*
X111462677Y-78010000D01*
X111500000Y-78013676D01*
X111537323Y-78010000D01*
X112086928Y-78010000D01*
X112086928Y-78100000D01*
X112099188Y-78224482D01*
X112135498Y-78344180D01*
X112194463Y-78454494D01*
X112273815Y-78551185D01*
X112290000Y-78564468D01*
X112290001Y-79490000D01*
X110564802Y-79490000D01*
X109774526Y-78699724D01*
X109873000Y-78601250D01*
X109873000Y-77998000D01*
X110127000Y-77998000D01*
X110127000Y-78601250D01*
X110285750Y-78760000D01*
X110334829Y-78762892D01*
X110459567Y-78753594D01*
X110580095Y-78720141D01*
X110691780Y-78663816D01*
X110790330Y-78586785D01*
X110871959Y-78492008D01*
X110933529Y-78383127D01*
X110972675Y-78264326D01*
X110985000Y-78156750D01*
X110826250Y-77998000D01*
X110127000Y-77998000D01*
X109873000Y-77998000D01*
X109853000Y-77998000D01*
X109853000Y-77802000D01*
X109873000Y-77802000D01*
X109873000Y-77753000D01*
X110127000Y-77753000D01*
X110127000Y-77802000D01*
X110826250Y-77802000D01*
X110901724Y-77726526D01*
X110936200Y-77761002D01*
G37*
%TD.AperFunction*%
D43*
X111759294Y-73554013D02*
X111944866Y-73780134D01*
X112170986Y-73965706D01*
X112327500Y-74049365D01*
X112327500Y-74199282D01*
X112278169Y-74259392D01*
X112200722Y-74404284D01*
X112153031Y-74561500D01*
X112136928Y-74725000D01*
X112136928Y-75275000D01*
X112153031Y-75438500D01*
X112200722Y-75595716D01*
X112278169Y-75740608D01*
X112379540Y-75864128D01*
X112285097Y-75937808D01*
X112203381Y-76032510D01*
X112141710Y-76141334D01*
X112102454Y-76260098D01*
X112090000Y-76368250D01*
X112194748Y-76472998D01*
X112090000Y-76472998D01*
X112090000Y-76490000D01*
X111814802Y-76490000D01*
X111413803Y-76089002D01*
X111390001Y-76059999D01*
X111274276Y-75965026D01*
X111142247Y-75894454D01*
X110998986Y-75850997D01*
X110887333Y-75840000D01*
X110887322Y-75840000D01*
X110850000Y-75836324D01*
X110812678Y-75840000D01*
X110696144Y-75840000D01*
X110657301Y-75819238D01*
X110721831Y-75740608D01*
X110799278Y-75595716D01*
X110846969Y-75438500D01*
X110863072Y-75275000D01*
X110863072Y-74725000D01*
X110846969Y-74561500D01*
X110799278Y-74404284D01*
X110721831Y-74259392D01*
X110627002Y-74143843D01*
X110627002Y-74045156D01*
X110856890Y-74166476D01*
X111073557Y-74093345D01*
X111329487Y-73955157D01*
X111553540Y-73769695D01*
X111737106Y-73544086D01*
X111745504Y-73528214D01*
X111759294Y-73554013D01*
%TA.AperFunction,Conductor*%
D44*
G36*
X111759294Y-73554013D02*
G01*
X111944866Y-73780134D01*
X112170986Y-73965706D01*
X112327500Y-74049365D01*
X112327500Y-74199282D01*
X112278169Y-74259392D01*
X112200722Y-74404284D01*
X112153031Y-74561500D01*
X112136928Y-74725000D01*
X112136928Y-75275000D01*
X112153031Y-75438500D01*
X112200722Y-75595716D01*
X112278169Y-75740608D01*
X112379540Y-75864128D01*
X112285097Y-75937808D01*
X112203381Y-76032510D01*
X112141710Y-76141334D01*
X112102454Y-76260098D01*
X112090000Y-76368250D01*
X112194748Y-76472998D01*
X112090000Y-76472998D01*
X112090000Y-76490000D01*
X111814802Y-76490000D01*
X111413803Y-76089002D01*
X111390001Y-76059999D01*
X111274276Y-75965026D01*
X111142247Y-75894454D01*
X110998986Y-75850997D01*
X110887333Y-75840000D01*
X110887322Y-75840000D01*
X110850000Y-75836324D01*
X110812678Y-75840000D01*
X110696144Y-75840000D01*
X110657301Y-75819238D01*
X110721831Y-75740608D01*
X110799278Y-75595716D01*
X110846969Y-75438500D01*
X110863072Y-75275000D01*
X110863072Y-74725000D01*
X110846969Y-74561500D01*
X110799278Y-74404284D01*
X110721831Y-74259392D01*
X110627002Y-74143843D01*
X110627002Y-74045156D01*
X110856890Y-74166476D01*
X111073557Y-74093345D01*
X111329487Y-73955157D01*
X111553540Y-73769695D01*
X111737106Y-73544086D01*
X111745504Y-73528214D01*
X111759294Y-73554013D01*
G37*
%TD.AperFunction*%
D43*
X107811500Y-76096969D02*
X107975000Y-76113072D01*
X108114988Y-76113072D01*
X108114988Y-76386928D01*
X107992074Y-76386928D01*
X107654485Y-76049339D01*
X107811500Y-76096969D01*
%TA.AperFunction,Conductor*%
D44*
G36*
X107811500Y-76096969D02*
G01*
X107975000Y-76113072D01*
X108114988Y-76113072D01*
X108114988Y-76386928D01*
X107992074Y-76386928D01*
X107654485Y-76049339D01*
X107811500Y-76096969D01*
G37*
%TD.AperFunction*%
D43*
X132759294Y-73554013D02*
X132944866Y-73780134D01*
X133170986Y-73965706D01*
X133428966Y-74103599D01*
X133708889Y-74188513D01*
X134000000Y-74217185D01*
X134291110Y-74188513D01*
X134571033Y-74103599D01*
X134829013Y-73965706D01*
X135055134Y-73780134D01*
X135240706Y-73554014D01*
X135250000Y-73536626D01*
X135259294Y-73554013D01*
X135444866Y-73780134D01*
X135670986Y-73965706D01*
X135928966Y-74103599D01*
X136208889Y-74188513D01*
X136500000Y-74217185D01*
X136595000Y-74207828D01*
X136595000Y-74682204D01*
X136551185Y-74628815D01*
X136454494Y-74549463D01*
X136344180Y-74490498D01*
X136224482Y-74454188D01*
X136100000Y-74441928D01*
X135785750Y-74445000D01*
X135627000Y-74603750D01*
X135627000Y-75353000D01*
X135647000Y-75353000D01*
X135647000Y-75607000D01*
X135627000Y-75607000D01*
X135627000Y-75627000D01*
X135373000Y-75627000D01*
X135373000Y-75607000D01*
X134423750Y-75607000D01*
X134265000Y-75765750D01*
X134261928Y-75880000D01*
X134274188Y-76004482D01*
X134310498Y-76124180D01*
X134369463Y-76234494D01*
X134410911Y-76284999D01*
X130589089Y-76284999D01*
X130630537Y-76234494D01*
X130689502Y-76124180D01*
X130725812Y-76004482D01*
X130738072Y-75880000D01*
X130738072Y-75316730D01*
X130974802Y-75080000D01*
X134261928Y-75080000D01*
X134265000Y-75194250D01*
X134423750Y-75353000D01*
X135373000Y-75353000D01*
X135373000Y-74603750D01*
X135214250Y-74445000D01*
X134900000Y-74441928D01*
X134775518Y-74454188D01*
X134655820Y-74490498D01*
X134545506Y-74549463D01*
X134448815Y-74628815D01*
X134369463Y-74725506D01*
X134310498Y-74835820D01*
X134274188Y-74955518D01*
X134261928Y-75080000D01*
X130974802Y-75080000D01*
X132644803Y-73410000D01*
X132682318Y-73410000D01*
X132759294Y-73554013D01*
%TA.AperFunction,Conductor*%
D44*
G36*
X132759294Y-73554013D02*
G01*
X132944866Y-73780134D01*
X133170986Y-73965706D01*
X133428966Y-74103599D01*
X133708889Y-74188513D01*
X134000000Y-74217185D01*
X134291110Y-74188513D01*
X134571033Y-74103599D01*
X134829013Y-73965706D01*
X135055134Y-73780134D01*
X135240706Y-73554014D01*
X135250000Y-73536626D01*
X135259294Y-73554013D01*
X135444866Y-73780134D01*
X135670986Y-73965706D01*
X135928966Y-74103599D01*
X136208889Y-74188513D01*
X136500000Y-74217185D01*
X136595000Y-74207828D01*
X136595000Y-74682204D01*
X136551185Y-74628815D01*
X136454494Y-74549463D01*
X136344180Y-74490498D01*
X136224482Y-74454188D01*
X136100000Y-74441928D01*
X135785750Y-74445000D01*
X135627000Y-74603750D01*
X135627000Y-75353000D01*
X135647000Y-75353000D01*
X135647000Y-75607000D01*
X135627000Y-75607000D01*
X135627000Y-75627000D01*
X135373000Y-75627000D01*
X135373000Y-75607000D01*
X134423750Y-75607000D01*
X134265000Y-75765750D01*
X134261928Y-75880000D01*
X134274188Y-76004482D01*
X134310498Y-76124180D01*
X134369463Y-76234494D01*
X134410911Y-76284999D01*
X130589089Y-76284999D01*
X130630537Y-76234494D01*
X130689502Y-76124180D01*
X130725812Y-76004482D01*
X130738072Y-75880000D01*
X130738072Y-75316730D01*
X130974802Y-75080000D01*
X134261928Y-75080000D01*
X134265000Y-75194250D01*
X134423750Y-75353000D01*
X135373000Y-75353000D01*
X135373000Y-74603750D01*
X135214250Y-74445000D01*
X134900000Y-74441928D01*
X134775518Y-74454188D01*
X134655820Y-74490498D01*
X134545506Y-74549463D01*
X134448815Y-74628815D01*
X134369463Y-74725506D01*
X134310498Y-74835820D01*
X134274188Y-74955518D01*
X134261928Y-75080000D01*
X130974802Y-75080000D01*
X132644803Y-73410000D01*
X132682318Y-73410000D01*
X132759294Y-73554013D01*
G37*
%TD.AperFunction*%
D43*
X114032394Y-75867606D02*
X114152501Y-75966175D01*
X114152501Y-75974787D01*
X114094463Y-76045506D01*
X114035498Y-76155820D01*
X113999285Y-76275199D01*
X113997546Y-76260098D01*
X113958290Y-76141334D01*
X113896619Y-76032510D01*
X113842746Y-75970076D01*
X113967606Y-75867606D01*
X114000000Y-75828134D01*
X114032394Y-75867606D01*
%TA.AperFunction,Conductor*%
D44*
G36*
X114032394Y-75867606D02*
G01*
X114152501Y-75966175D01*
X114152501Y-75974787D01*
X114094463Y-76045506D01*
X114035498Y-76155820D01*
X113999285Y-76275199D01*
X113997546Y-76260098D01*
X113958290Y-76141334D01*
X113896619Y-76032510D01*
X113842746Y-75970076D01*
X113967606Y-75867606D01*
X114000000Y-75828134D01*
X114032394Y-75867606D01*
G37*
%TD.AperFunction*%
D43*
X106759294Y-73554013D02*
X106944866Y-73780134D01*
X107170986Y-73965706D01*
X107327500Y-74049365D01*
X107327500Y-74199282D01*
X107278169Y-74259392D01*
X107200722Y-74404284D01*
X107153031Y-74561500D01*
X107136928Y-74725000D01*
X107136928Y-75275000D01*
X107153031Y-75438500D01*
X107200661Y-75595516D01*
X106094148Y-74489003D01*
X106070345Y-74459999D01*
X105954620Y-74365026D01*
X105822591Y-74294454D01*
X105724700Y-74264760D01*
X105721831Y-74259392D01*
X105627002Y-74143843D01*
X105627002Y-74045156D01*
X105856890Y-74166476D01*
X106073557Y-74093345D01*
X106329487Y-73955157D01*
X106553540Y-73769695D01*
X106737106Y-73544086D01*
X106745504Y-73528214D01*
X106759294Y-73554013D01*
%TA.AperFunction,Conductor*%
D44*
G36*
X106759294Y-73554013D02*
G01*
X106944866Y-73780134D01*
X107170986Y-73965706D01*
X107327500Y-74049365D01*
X107327500Y-74199282D01*
X107278169Y-74259392D01*
X107200722Y-74404284D01*
X107153031Y-74561500D01*
X107136928Y-74725000D01*
X107136928Y-75275000D01*
X107153031Y-75438500D01*
X107200661Y-75595516D01*
X106094148Y-74489003D01*
X106070345Y-74459999D01*
X105954620Y-74365026D01*
X105822591Y-74294454D01*
X105724700Y-74264760D01*
X105721831Y-74259392D01*
X105627002Y-74143843D01*
X105627002Y-74045156D01*
X105856890Y-74166476D01*
X106073557Y-74093345D01*
X106329487Y-73955157D01*
X106553540Y-73769695D01*
X106737106Y-73544086D01*
X106745504Y-73528214D01*
X106759294Y-73554013D01*
G37*
%TD.AperFunction*%
D43*
X104262894Y-73544086D02*
X104446460Y-73769695D01*
X104592012Y-73890177D01*
X104461500Y-73903031D01*
X104304284Y-73950722D01*
X104159392Y-74028169D01*
X104032394Y-74132394D01*
X104000000Y-74171866D01*
X103967606Y-74132394D01*
X103847500Y-74033825D01*
X103847500Y-73950534D01*
X104055134Y-73780134D01*
X104240706Y-73554014D01*
X104254496Y-73528214D01*
X104262894Y-73544086D01*
%TA.AperFunction,Conductor*%
D44*
G36*
X104262894Y-73544086D02*
G01*
X104446460Y-73769695D01*
X104592012Y-73890177D01*
X104461500Y-73903031D01*
X104304284Y-73950722D01*
X104159392Y-74028169D01*
X104032394Y-74132394D01*
X104000000Y-74171866D01*
X103967606Y-74132394D01*
X103847500Y-74033825D01*
X103847500Y-73950534D01*
X104055134Y-73780134D01*
X104240706Y-73554014D01*
X104254496Y-73528214D01*
X104262894Y-73544086D01*
G37*
%TD.AperFunction*%
D43*
X109262894Y-73544086D02*
X109446460Y-73769695D01*
X109592012Y-73890177D01*
X109461500Y-73903031D01*
X109304284Y-73950722D01*
X109159392Y-74028169D01*
X109032394Y-74132394D01*
X109000000Y-74171866D01*
X108967606Y-74132394D01*
X108847500Y-74033825D01*
X108847500Y-73950534D01*
X109055134Y-73780134D01*
X109240706Y-73554014D01*
X109254496Y-73528214D01*
X109262894Y-73544086D01*
%TA.AperFunction,Conductor*%
D44*
G36*
X109262894Y-73544086D02*
G01*
X109446460Y-73769695D01*
X109592012Y-73890177D01*
X109461500Y-73903031D01*
X109304284Y-73950722D01*
X109159392Y-74028169D01*
X109032394Y-74132394D01*
X109000000Y-74171866D01*
X108967606Y-74132394D01*
X108847500Y-74033825D01*
X108847500Y-73950534D01*
X109055134Y-73780134D01*
X109240706Y-73554014D01*
X109254496Y-73528214D01*
X109262894Y-73544086D01*
G37*
%TD.AperFunction*%
D43*
X114060498Y-73819180D02*
X114119463Y-73929494D01*
X114187926Y-74012917D01*
X114159392Y-74028169D01*
X114032394Y-74132394D01*
X114000000Y-74171866D01*
X113967606Y-74132394D01*
X113847500Y-74033825D01*
X113847500Y-73950534D01*
X114049945Y-73784392D01*
X114060498Y-73819180D01*
%TA.AperFunction,Conductor*%
D44*
G36*
X114060498Y-73819180D02*
G01*
X114119463Y-73929494D01*
X114187926Y-74012917D01*
X114159392Y-74028169D01*
X114032394Y-74132394D01*
X114000000Y-74171866D01*
X113967606Y-74132394D01*
X113847500Y-74033825D01*
X113847500Y-73950534D01*
X114049945Y-73784392D01*
X114060498Y-73819180D01*
G37*
%TD.AperFunction*%
%TD*%
M02*
