%TF.GenerationSoftware,KiCad,Pcbnew,(6.0.2-0)*%
%TF.CreationDate,2022-02-20T16:44:26+00:00*%
%TF.ProjectId,Access,41636365-7373-42e6-9b69-6361645f7063,3*%
%TF.SameCoordinates,Original*%
%TF.FileFunction,Soldermask,Top*%
%TF.FilePolarity,Negative*%
%FSLAX46Y46*%
G04 Gerber Fmt 4.6, Leading zero omitted, Abs format (unit mm)*
G04 Created by KiCad (PCBNEW (6.0.2-0)) date 2022-02-20 16:44:26*
%MOMM*%
%LPD*%
G01*
G04 APERTURE LIST*
G04 Aperture macros list*
%AMRoundRect*
0 Rectangle with rounded corners*
0 $1 Rounding radius*
0 $2 $3 $4 $5 $6 $7 $8 $9 X,Y pos of 4 corners*
0 Add a 4 corners polygon primitive as box body*
4,1,4,$2,$3,$4,$5,$6,$7,$8,$9,$2,$3,0*
0 Add four circle primitives for the rounded corners*
1,1,$1+$1,$2,$3*
1,1,$1+$1,$4,$5*
1,1,$1+$1,$6,$7*
1,1,$1+$1,$8,$9*
0 Add four rect primitives between the rounded corners*
20,1,$1+$1,$2,$3,$4,$5,0*
20,1,$1+$1,$4,$5,$6,$7,0*
20,1,$1+$1,$6,$7,$8,$9,0*
20,1,$1+$1,$8,$9,$2,$3,0*%
%AMFreePoly0*
4,1,6,1.000000,-1.000000,-1.000000,-1.000000,-1.000000,0.750000,-0.750000,1.000000,1.000000,1.000000,1.000000,-1.000000,1.000000,-1.000000,$1*%
G04 Aperture macros list end*
%ADD10R,1.200000X0.800000*%
%ADD11R,0.900000X2.000000*%
%ADD12R,2.000000X0.900000*%
%ADD13R,5.000000X5.000000*%
%ADD14RoundRect,0.200000X-0.200000X-0.275000X0.200000X-0.275000X0.200000X0.275000X-0.200000X0.275000X0*%
%ADD15RoundRect,0.250001X-0.462499X-0.624999X0.462499X-0.624999X0.462499X0.624999X-0.462499X0.624999X0*%
%ADD16C,5.700000*%
%ADD17C,0.500000*%
%ADD18RoundRect,0.250000X0.600000X0.675000X-0.600000X0.675000X-0.600000X-0.675000X0.600000X-0.675000X0*%
%ADD19O,1.700000X1.850000*%
%ADD20RoundRect,0.237500X0.250000X0.237500X-0.250000X0.237500X-0.250000X-0.237500X0.250000X-0.237500X0*%
%ADD21R,1.140000X0.600000*%
%ADD22RoundRect,0.075000X0.495000X-0.075000X0.495000X0.075000X-0.495000X0.075000X-0.495000X-0.075000X0*%
%ADD23C,0.800000*%
%ADD24C,1.250000*%
%ADD25C,1.500000*%
%ADD26R,5.490000X5.000000*%
%ADD27RoundRect,0.062500X0.062500X-0.287500X0.062500X0.287500X-0.062500X0.287500X-0.062500X-0.287500X0*%
%ADD28RoundRect,0.062500X0.287500X-0.062500X0.287500X0.062500X-0.287500X0.062500X-0.287500X-0.062500X0*%
%ADD29C,0.350000*%
%ADD30FreePoly0,90.000000*%
%ADD31RoundRect,0.200000X-0.275000X0.200000X-0.275000X-0.200000X0.275000X-0.200000X0.275000X0.200000X0*%
%ADD32RoundRect,0.225000X-0.017678X0.335876X-0.335876X0.017678X0.017678X-0.335876X0.335876X-0.017678X0*%
%ADD33R,1.300000X2.000000*%
%ADD34R,0.650000X0.400000*%
%ADD35RoundRect,0.200000X0.275000X-0.200000X0.275000X0.200000X-0.275000X0.200000X-0.275000X-0.200000X0*%
%ADD36RoundRect,0.225000X-0.225000X-0.250000X0.225000X-0.250000X0.225000X0.250000X-0.225000X0.250000X0*%
%ADD37RoundRect,0.225000X0.225000X0.250000X-0.225000X0.250000X-0.225000X-0.250000X0.225000X-0.250000X0*%
%ADD38RoundRect,0.150000X-0.587500X-0.150000X0.587500X-0.150000X0.587500X0.150000X-0.587500X0.150000X0*%
%ADD39R,0.500000X0.850000*%
%ADD40RoundRect,0.249375X0.625625X-0.463125X0.625625X0.463125X-0.625625X0.463125X-0.625625X-0.463125X0*%
%ADD41R,3.700000X1.425000*%
%ADD42R,1.100000X0.600000*%
%ADD43RoundRect,0.250000X-0.250000X-0.475000X0.250000X-0.475000X0.250000X0.475000X-0.250000X0.475000X0*%
%ADD44R,1.000000X1.000000*%
%ADD45O,1.000000X1.000000*%
%ADD46RoundRect,0.200000X0.200000X0.275000X-0.200000X0.275000X-0.200000X-0.275000X0.200000X-0.275000X0*%
%ADD47RoundRect,0.650000X0.650000X-0.650000X0.650000X0.650000X-0.650000X0.650000X-0.650000X-0.650000X0*%
%ADD48C,2.600000*%
G04 APERTURE END LIST*
D10*
%TO.C,U3*%
X135500000Y-78020000D03*
X135500000Y-75480000D03*
X129500000Y-75480000D03*
X129500000Y-78020000D03*
%TD*%
D11*
%TO.C,U1*%
X107500000Y-98850000D03*
X108770000Y-98850000D03*
X110040000Y-98850000D03*
X111310000Y-98850000D03*
X112580000Y-98850000D03*
X113850000Y-98850000D03*
X115120000Y-98850000D03*
X116390000Y-98850000D03*
X117660000Y-98850000D03*
X118930000Y-98850000D03*
X120200000Y-98850000D03*
X121470000Y-98850000D03*
X122740000Y-98850000D03*
X124010000Y-98850000D03*
D12*
X125010000Y-96065000D03*
X125010000Y-94795000D03*
X125010000Y-93525000D03*
X125010000Y-92255000D03*
X125010000Y-90985000D03*
X125010000Y-89715000D03*
X125010000Y-88445000D03*
X125010000Y-87175000D03*
X125010000Y-85905000D03*
X125010000Y-84635000D03*
D11*
X124010000Y-81850000D03*
X122740000Y-81850000D03*
X121470000Y-81850000D03*
X120200000Y-81850000D03*
X118930000Y-81850000D03*
X117660000Y-81850000D03*
X116390000Y-81850000D03*
X115120000Y-81850000D03*
X113850000Y-81850000D03*
X112580000Y-81850000D03*
X111310000Y-81850000D03*
X110040000Y-81850000D03*
X108770000Y-81850000D03*
X107500000Y-81850000D03*
D13*
X115000000Y-91350000D03*
%TD*%
D14*
%TO.C,R3*%
X142575000Y-89000000D03*
X144225000Y-89000000D03*
%TD*%
%TO.C,R2*%
X140075000Y-89000000D03*
X141725000Y-89000000D03*
%TD*%
%TO.C,R1*%
X135175000Y-79700000D03*
X136825000Y-79700000D03*
%TD*%
D15*
%TO.C,D8*%
X135762500Y-88000000D03*
X138737500Y-88000000D03*
%TD*%
D16*
%TO.C,H1*%
X129500000Y-83500000D03*
D17*
X131750000Y-83500000D03*
X129500000Y-85750000D03*
X127250000Y-83500000D03*
X129500000Y-81250000D03*
%TD*%
D18*
%TO.C,J5*%
X147000000Y-72650000D03*
D19*
X144500000Y-72650000D03*
%TD*%
D18*
%TO.C,J6*%
X139000000Y-72650000D03*
D19*
X136500000Y-72650000D03*
X134000000Y-72650000D03*
%TD*%
D20*
%TO.C,R16*%
X133412500Y-79500000D03*
X131587500Y-79500000D03*
%TD*%
D21*
%TO.C,J1*%
X143135000Y-83300000D03*
X143135000Y-82500000D03*
D22*
X143135000Y-81350000D03*
X143135000Y-80350000D03*
X143135000Y-79850000D03*
X143135000Y-78850000D03*
D21*
X143135000Y-76900000D03*
X143135000Y-77700000D03*
D22*
X143135000Y-78350000D03*
X143135000Y-79350000D03*
X143135000Y-80850000D03*
X143135000Y-81850000D03*
D23*
X144205000Y-77210000D03*
D24*
X147885000Y-75780000D03*
D25*
X143715000Y-84420000D03*
D26*
X147250000Y-80100000D03*
D25*
X143715000Y-75780000D03*
D23*
X144205000Y-82990000D03*
D24*
X147885000Y-84420000D03*
%TD*%
D14*
%TO.C,R15*%
X140925000Y-87500000D03*
X142575000Y-87500000D03*
%TD*%
%TO.C,R14*%
X140925000Y-86000000D03*
X142575000Y-86000000D03*
%TD*%
D27*
%TO.C,U2*%
X136500000Y-84900000D03*
X137000000Y-84900000D03*
X137500000Y-84900000D03*
X138000000Y-84900000D03*
X138500000Y-84900000D03*
D28*
X139400000Y-84000000D03*
X139400000Y-83500000D03*
X139400000Y-83000000D03*
X139400000Y-82500000D03*
X139400000Y-82000000D03*
D27*
X138500000Y-81100000D03*
X138000000Y-81100000D03*
X137500000Y-81100000D03*
X137000000Y-81100000D03*
X136500000Y-81100000D03*
D28*
X135600000Y-82000000D03*
X135600000Y-82500000D03*
X135600000Y-83000000D03*
X135600000Y-83500000D03*
X135600000Y-84000000D03*
D29*
X137500000Y-83000000D03*
D30*
X137500000Y-83000000D03*
%TD*%
D18*
%TO.C,J2*%
X128500000Y-72650000D03*
D19*
X126000000Y-72650000D03*
X123500000Y-72650000D03*
X121000000Y-72650000D03*
%TD*%
D18*
%TO.C,J3*%
X115500000Y-72650000D03*
D19*
X113000000Y-72650000D03*
X110500000Y-72650000D03*
X108000000Y-72650000D03*
X105500000Y-72650000D03*
X103000000Y-72650000D03*
%TD*%
D31*
%TO.C,R13*%
X141550000Y-75925000D03*
X141550000Y-77575000D03*
%TD*%
D32*
%TO.C,C1*%
X134200000Y-84800000D03*
X133103984Y-85896016D03*
%TD*%
D33*
%TO.C,SW1*%
X127200000Y-90500000D03*
X131700000Y-90500000D03*
X131700000Y-98900000D03*
X127200000Y-98900000D03*
%TD*%
D14*
%TO.C,R4*%
X126425000Y-74750000D03*
X128075000Y-74750000D03*
%TD*%
%TO.C,R5*%
X123175000Y-74750000D03*
X124825000Y-74750000D03*
%TD*%
D34*
%TO.C,D2*%
X119550000Y-77100000D03*
X119550000Y-77750000D03*
X119550000Y-78400000D03*
X121450000Y-78400000D03*
X121450000Y-77750000D03*
X121450000Y-77100000D03*
%TD*%
D14*
%TO.C,R6*%
X119675000Y-74750000D03*
X121325000Y-74750000D03*
%TD*%
%TO.C,R7*%
X116175000Y-74750000D03*
X117825000Y-74750000D03*
%TD*%
D34*
%TO.C,D1*%
X124800000Y-77100000D03*
X124800000Y-77750000D03*
X124800000Y-78400000D03*
X126700000Y-78400000D03*
X126700000Y-77750000D03*
X126700000Y-77100000D03*
%TD*%
D14*
%TO.C,R20*%
X146765000Y-99160000D03*
X148415000Y-99160000D03*
%TD*%
D35*
%TO.C,R12*%
X140050000Y-77575000D03*
X140050000Y-75925000D03*
%TD*%
D34*
%TO.C,D3*%
X114300000Y-77100000D03*
X114300000Y-77750000D03*
X114300000Y-78400000D03*
X116200000Y-78400000D03*
X116200000Y-77750000D03*
X116200000Y-77100000D03*
%TD*%
%TO.C,D4*%
X109050000Y-77100000D03*
X109050000Y-77750000D03*
X109050000Y-78400000D03*
X110950000Y-78400000D03*
X110950000Y-77750000D03*
X110950000Y-77100000D03*
%TD*%
D14*
%TO.C,R8*%
X112675000Y-74750000D03*
X114325000Y-74750000D03*
%TD*%
%TO.C,R9*%
X109175000Y-74750000D03*
X110825000Y-74750000D03*
%TD*%
%TO.C,R10*%
X105675000Y-74750000D03*
X107325000Y-74750000D03*
%TD*%
%TO.C,R11*%
X102175000Y-74750000D03*
X103825000Y-74750000D03*
%TD*%
D36*
%TO.C,C3*%
X120625000Y-79700000D03*
X122175000Y-79700000D03*
%TD*%
D37*
%TO.C,C4*%
X119475000Y-79700000D03*
X117925000Y-79700000D03*
%TD*%
D36*
%TO.C,C5*%
X115225000Y-79700000D03*
X116775000Y-79700000D03*
%TD*%
D37*
%TO.C,C6*%
X114050000Y-79700000D03*
X112500000Y-79700000D03*
%TD*%
D36*
%TO.C,C7*%
X109825000Y-79700000D03*
X111375000Y-79700000D03*
%TD*%
D37*
%TO.C,C8*%
X108675000Y-79700000D03*
X107125000Y-79700000D03*
%TD*%
D36*
%TO.C,C2*%
X124785000Y-80040000D03*
X126335000Y-80040000D03*
%TD*%
D38*
%TO.C,Q1*%
X145462500Y-87050000D03*
X145462500Y-88950000D03*
X147337500Y-88000000D03*
%TD*%
D39*
%TO.C,D5*%
X127025000Y-88775000D03*
X127025000Y-87025000D03*
X128025000Y-87025000D03*
X128025000Y-88775000D03*
%TD*%
D14*
%TO.C,R17*%
X132300000Y-87900000D03*
X133950000Y-87900000D03*
%TD*%
%TO.C,R18*%
X129150000Y-87100000D03*
X130800000Y-87100000D03*
%TD*%
%TO.C,R19*%
X129150000Y-88800000D03*
X130800000Y-88800000D03*
%TD*%
D37*
%TO.C,U5*%
X137215000Y-98150000D03*
D40*
X139360000Y-95252500D03*
D41*
X136240000Y-93650000D03*
D42*
X137540000Y-95100000D03*
D37*
X135665000Y-98150000D03*
D42*
X134840000Y-95100000D03*
X137540000Y-97000000D03*
D43*
X138790000Y-96900000D03*
D42*
X137540000Y-96050000D03*
D43*
X140690000Y-90650000D03*
X140690000Y-96900000D03*
D40*
X139360000Y-92287500D03*
D42*
X134840000Y-96050000D03*
D43*
X138790000Y-90650000D03*
D41*
X136240000Y-90650000D03*
D42*
X134840000Y-97000000D03*
%TD*%
D44*
%TO.C,JP1*%
X137800000Y-76250000D03*
D45*
X137800000Y-77520000D03*
%TD*%
D14*
%TO.C,R21*%
X138315000Y-99300000D03*
X139965000Y-99300000D03*
%TD*%
%TO.C,R24*%
X132915000Y-99300000D03*
X134565000Y-99300000D03*
%TD*%
D46*
%TO.C,R22*%
X137265000Y-99300000D03*
X135615000Y-99300000D03*
%TD*%
D37*
%TO.C,U4*%
X145315000Y-98150000D03*
D40*
X147460000Y-95252500D03*
D41*
X144340000Y-93650000D03*
D42*
X145640000Y-95100000D03*
D37*
X143765000Y-98150000D03*
D42*
X142940000Y-95100000D03*
X145640000Y-97000000D03*
D43*
X146890000Y-96900000D03*
D42*
X145640000Y-96050000D03*
D43*
X148790000Y-90650000D03*
X148790000Y-96900000D03*
D40*
X147460000Y-92287500D03*
D42*
X142940000Y-96050000D03*
D43*
X146890000Y-90650000D03*
D41*
X144340000Y-90650000D03*
D42*
X142940000Y-97000000D03*
%TD*%
D46*
%TO.C,R23*%
X142665000Y-99300000D03*
X141015000Y-99300000D03*
%TD*%
D47*
%TO.C,J4*%
X129400000Y-97700000D03*
D48*
X129400000Y-92620000D03*
%TD*%
M02*
