M48
; DRILL file {KiCad (6.0.2-0)} date Tuesday, 22 February 2022 at 18:10:13
; FORMAT={-:-/ absolute / inch / decimal}
; #@! TF.CreationDate,2022-02-22T18:10:13+00:00
; #@! TF.GenerationSoftware,Kicad,Pcbnew,(6.0.2-0)
; #@! TF.FileFunction,Plated,1,2,PTH
FMAT,2
INCH
; #@! TA.AperFunction,Plated,PTH,ViaDrill
T1C0.0157
; #@! TA.AperFunction,Plated,PTH,ComponentDrill
T2C0.0236
; #@! TA.AperFunction,Plated,PTH,ComponentDrill
T3C0.0256
; #@! TA.AperFunction,Plated,PTH,ComponentDrill
T4C0.0335
; #@! TA.AperFunction,Plated,PTH,ComponentDrill
T5C0.0394
; #@! TA.AperFunction,Plated,PTH,ComponentDrill
T6C0.0492
; #@! TA.AperFunction,Plated,PTH,ComponentDrill
T7C0.0512
%
G90
G05
T1
X4.0945Y-2.7559
X4.252Y-2.7559
X4.252Y-2.8002
X4.2687Y-3.002
X4.2815Y-3.1988
X4.3209Y-3.563
X4.3475Y-3.002
X4.3799Y-3.2087
X4.4094Y-2.7559
X4.4094Y-2.8051
X4.4094Y-3.0709
X4.4094Y-3.1791
X4.4262Y-3.002
X4.4783Y-3.563
X4.5049Y-3.002
X4.5079Y-3.5335
X4.5571Y-3.4843
X4.5571Y-3.5236
X4.5571Y-3.563
X4.558Y-3.3711
X4.5669Y-2.7559
X4.5669Y-3.2185
X4.5837Y-3.002
X4.6024Y-3.0866
X4.626Y-2.8248
X4.659Y-3.3475
X4.6624Y-3.002
X4.6665Y-3.2591
X4.6693Y-3.6024
X4.7047Y-3.2087
X4.722Y-3.2982
X4.7244Y-2.7559
X4.7412Y-3.002
X4.7428Y-3.3316
X4.8228Y-3.002
X4.878Y-2.9724
X4.9114Y-3.248
X4.9114Y-3.5503
X4.9806Y-2.9815
X5.0217Y-2.9794
X5.0718Y-3.0207
X5.0783Y-3.3381
X5.1003Y-3.1892
X5.1186Y-3.3381
X5.1376Y-3.0516
X5.1803Y-3.0569
X5.1969Y-3.5335
X5.1971Y-3.1208
X5.2756Y-3.3071
X5.3248Y-3.4055
X5.3445Y-3.1102
X5.3839Y-3.3169
X5.4134Y-3.0709
X5.4429Y-3.2579
X5.5118Y-3.1594
X5.5193Y-3.2871
X5.5217Y-3.3366
X5.5384Y-3.1988
X5.5807Y-3.5335
X5.6102Y-3.4843
X5.7087Y-3.4744
X5.7579Y-3.002
X5.7579Y-3.4744
X5.8858Y-3.622
T2
X5.675Y-3.1441
X5.675Y-3.3717
T3
X5.5906Y-2.9717
X5.5906Y-3.0217
T4
X4.0551Y-2.8602
X4.1535Y-2.8602
X4.252Y-2.8602
X4.3504Y-2.8602
X4.4488Y-2.8602
X4.5472Y-2.8602
X4.7638Y-2.8602
X4.8622Y-2.8602
X4.9606Y-2.8602
X5.0591Y-2.8602
X5.2756Y-2.8602
X5.374Y-2.8602
X5.4724Y-2.8602
X5.689Y-2.8602
X5.7874Y-2.8602
T5
X5.8199Y-3.0878
X5.8199Y-3.428
T6
X5.6557Y-3.0878
X5.6557Y-3.428
T7
X5.2823Y-3.5138
X5.4823Y-3.5138
T0
M30
