%TF.GenerationSoftware,KiCad,Pcbnew,(5.1.9-0-10_14)*%
%TF.CreationDate,2021-07-09T13:00:24+01:00*%
%TF.ProjectId,Access,41636365-7373-42e6-9b69-6361645f7063,2*%
%TF.SameCoordinates,Original*%
%TF.FileFunction,Soldermask,Bot*%
%TF.FilePolarity,Negative*%
%FSLAX46Y46*%
G04 Gerber Fmt 4.6, Leading zero omitted, Abs format (unit mm)*
G04 Created by KiCad (PCBNEW (5.1.9-0-10_14)) date 2021-07-09 13:00:24*
%MOMM*%
%LPD*%
G01*
G04 APERTURE LIST*
%ADD10C,0.100000*%
%ADD11C,0.350000*%
%ADD12C,5.500000*%
%ADD13C,2.600000*%
%ADD14C,0.500000*%
%ADD15C,5.700000*%
%ADD16O,1.700000X1.850000*%
%ADD17C,1.250000*%
%ADD18C,1.500000*%
%ADD19O,1.000000X1.000000*%
%ADD20R,1.000000X1.000000*%
G04 APERTURE END LIST*
D10*
%TO.C,U5*%
G36*
X111900000Y-99900000D02*
G01*
X106100000Y-99900000D01*
X106100000Y-94100000D01*
X111900000Y-94100000D01*
X111900000Y-99900000D01*
G37*
X111900000Y-99900000D02*
X106100000Y-99900000D01*
X106100000Y-94100000D01*
X111900000Y-94100000D01*
X111900000Y-99900000D01*
%TD*%
D11*
%TO.C,U2*%
X137500000Y-83000000D03*
%TD*%
D12*
%TO.C,U4*%
X143250000Y-94100000D03*
%TD*%
D13*
%TO.C,J6*%
X129400000Y-92620000D03*
G36*
G01*
X130050000Y-99000000D02*
X128750000Y-99000000D01*
G75*
G02*
X128100000Y-98350000I0J650000D01*
G01*
X128100000Y-97050000D01*
G75*
G02*
X128750000Y-96400000I650000J0D01*
G01*
X130050000Y-96400000D01*
G75*
G02*
X130700000Y-97050000I0J-650000D01*
G01*
X130700000Y-98350000D01*
G75*
G02*
X130050000Y-99000000I-650000J0D01*
G01*
G37*
%TD*%
D14*
%TO.C,H1*%
X129500000Y-81250000D03*
X127250000Y-83500000D03*
X129500000Y-85750000D03*
X131750000Y-83500000D03*
D15*
X129500000Y-83500000D03*
%TD*%
D16*
%TO.C,J5*%
X134000000Y-72650000D03*
X136500000Y-72650000D03*
G36*
G01*
X139850000Y-71975000D02*
X139850000Y-73325000D01*
G75*
G02*
X139600000Y-73575000I-250000J0D01*
G01*
X138400000Y-73575000D01*
G75*
G02*
X138150000Y-73325000I0J250000D01*
G01*
X138150000Y-71975000D01*
G75*
G02*
X138400000Y-71725000I250000J0D01*
G01*
X139600000Y-71725000D01*
G75*
G02*
X139850000Y-71975000I0J-250000D01*
G01*
G37*
%TD*%
%TO.C,J4*%
X144500000Y-72650000D03*
G36*
G01*
X147850000Y-71975000D02*
X147850000Y-73325000D01*
G75*
G02*
X147600000Y-73575000I-250000J0D01*
G01*
X146400000Y-73575000D01*
G75*
G02*
X146150000Y-73325000I0J250000D01*
G01*
X146150000Y-71975000D01*
G75*
G02*
X146400000Y-71725000I250000J0D01*
G01*
X147600000Y-71725000D01*
G75*
G02*
X147850000Y-71975000I0J-250000D01*
G01*
G37*
%TD*%
%TO.C,J3*%
X103000000Y-72650000D03*
X105500000Y-72650000D03*
X108000000Y-72650000D03*
X110500000Y-72650000D03*
X113000000Y-72650000D03*
G36*
G01*
X116350000Y-71975000D02*
X116350000Y-73325000D01*
G75*
G02*
X116100000Y-73575000I-250000J0D01*
G01*
X114900000Y-73575000D01*
G75*
G02*
X114650000Y-73325000I0J250000D01*
G01*
X114650000Y-71975000D01*
G75*
G02*
X114900000Y-71725000I250000J0D01*
G01*
X116100000Y-71725000D01*
G75*
G02*
X116350000Y-71975000I0J-250000D01*
G01*
G37*
%TD*%
%TO.C,J2*%
X121000000Y-72650000D03*
X123500000Y-72650000D03*
X126000000Y-72650000D03*
G36*
G01*
X129350000Y-71975000D02*
X129350000Y-73325000D01*
G75*
G02*
X129100000Y-73575000I-250000J0D01*
G01*
X127900000Y-73575000D01*
G75*
G02*
X127650000Y-73325000I0J250000D01*
G01*
X127650000Y-71975000D01*
G75*
G02*
X127900000Y-71725000I250000J0D01*
G01*
X129100000Y-71725000D01*
G75*
G02*
X129350000Y-71975000I0J-250000D01*
G01*
G37*
%TD*%
D17*
%TO.C,J1*%
X148585000Y-75780000D03*
X148585000Y-84420000D03*
D18*
X144415000Y-75780000D03*
X144415000Y-84420000D03*
%TD*%
D19*
%TO.C,JP1*%
X137480000Y-76750000D03*
D20*
X138750000Y-76750000D03*
%TD*%
M02*
