%TF.GenerationSoftware,KiCad,Pcbnew,(5.1.9-0-10_14)*%
%TF.CreationDate,2021-05-02T17:27:35+01:00*%
%TF.ProjectId,Access,41636365-7373-42e6-9b69-6361645f7063,1*%
%TF.SameCoordinates,Original*%
%TF.FileFunction,Paste,Bot*%
%TF.FilePolarity,Positive*%
%FSLAX46Y46*%
G04 Gerber Fmt 4.6, Leading zero omitted, Abs format (unit mm)*
G04 Created by KiCad (PCBNEW (5.1.9-0-10_14)) date 2021-05-02 17:27:35*
%MOMM*%
%LPD*%
G01*
G04 APERTURE LIST*
%ADD10R,0.800000X0.900000*%
G04 APERTURE END LIST*
%TO.C,R11*%
G36*
G01*
X146687500Y-69875000D02*
X146212500Y-69875000D01*
G75*
G02*
X145975000Y-69637500I0J237500D01*
G01*
X145975000Y-69137500D01*
G75*
G02*
X146212500Y-68900000I237500J0D01*
G01*
X146687500Y-68900000D01*
G75*
G02*
X146925000Y-69137500I0J-237500D01*
G01*
X146925000Y-69637500D01*
G75*
G02*
X146687500Y-69875000I-237500J0D01*
G01*
G37*
G36*
G01*
X146687500Y-71700000D02*
X146212500Y-71700000D01*
G75*
G02*
X145975000Y-71462500I0J237500D01*
G01*
X145975000Y-70962500D01*
G75*
G02*
X146212500Y-70725000I237500J0D01*
G01*
X146687500Y-70725000D01*
G75*
G02*
X146925000Y-70962500I0J-237500D01*
G01*
X146925000Y-71462500D01*
G75*
G02*
X146687500Y-71700000I-237500J0D01*
G01*
G37*
%TD*%
%TO.C,R9*%
G36*
G01*
X151487500Y-69875000D02*
X151012500Y-69875000D01*
G75*
G02*
X150775000Y-69637500I0J237500D01*
G01*
X150775000Y-69137500D01*
G75*
G02*
X151012500Y-68900000I237500J0D01*
G01*
X151487500Y-68900000D01*
G75*
G02*
X151725000Y-69137500I0J-237500D01*
G01*
X151725000Y-69637500D01*
G75*
G02*
X151487500Y-69875000I-237500J0D01*
G01*
G37*
G36*
G01*
X151487500Y-71700000D02*
X151012500Y-71700000D01*
G75*
G02*
X150775000Y-71462500I0J237500D01*
G01*
X150775000Y-70962500D01*
G75*
G02*
X151012500Y-70725000I237500J0D01*
G01*
X151487500Y-70725000D01*
G75*
G02*
X151725000Y-70962500I0J-237500D01*
G01*
X151725000Y-71462500D01*
G75*
G02*
X151487500Y-71700000I-237500J0D01*
G01*
G37*
%TD*%
%TO.C,R8*%
G36*
G01*
X153412500Y-70725000D02*
X153887500Y-70725000D01*
G75*
G02*
X154125000Y-70962500I0J-237500D01*
G01*
X154125000Y-71462500D01*
G75*
G02*
X153887500Y-71700000I-237500J0D01*
G01*
X153412500Y-71700000D01*
G75*
G02*
X153175000Y-71462500I0J237500D01*
G01*
X153175000Y-70962500D01*
G75*
G02*
X153412500Y-70725000I237500J0D01*
G01*
G37*
G36*
G01*
X153412500Y-68900000D02*
X153887500Y-68900000D01*
G75*
G02*
X154125000Y-69137500I0J-237500D01*
G01*
X154125000Y-69637500D01*
G75*
G02*
X153887500Y-69875000I-237500J0D01*
G01*
X153412500Y-69875000D01*
G75*
G02*
X153175000Y-69637500I0J237500D01*
G01*
X153175000Y-69137500D01*
G75*
G02*
X153412500Y-68900000I237500J0D01*
G01*
G37*
%TD*%
%TO.C,R7*%
G36*
G01*
X155812500Y-70725000D02*
X156287500Y-70725000D01*
G75*
G02*
X156525000Y-70962500I0J-237500D01*
G01*
X156525000Y-71462500D01*
G75*
G02*
X156287500Y-71700000I-237500J0D01*
G01*
X155812500Y-71700000D01*
G75*
G02*
X155575000Y-71462500I0J237500D01*
G01*
X155575000Y-70962500D01*
G75*
G02*
X155812500Y-70725000I237500J0D01*
G01*
G37*
G36*
G01*
X155812500Y-68900000D02*
X156287500Y-68900000D01*
G75*
G02*
X156525000Y-69137500I0J-237500D01*
G01*
X156525000Y-69637500D01*
G75*
G02*
X156287500Y-69875000I-237500J0D01*
G01*
X155812500Y-69875000D01*
G75*
G02*
X155575000Y-69637500I0J237500D01*
G01*
X155575000Y-69137500D01*
G75*
G02*
X155812500Y-68900000I237500J0D01*
G01*
G37*
%TD*%
%TO.C,R6*%
G36*
G01*
X156325000Y-57662500D02*
X156325000Y-58137500D01*
G75*
G02*
X156087500Y-58375000I-237500J0D01*
G01*
X155587500Y-58375000D01*
G75*
G02*
X155350000Y-58137500I0J237500D01*
G01*
X155350000Y-57662500D01*
G75*
G02*
X155587500Y-57425000I237500J0D01*
G01*
X156087500Y-57425000D01*
G75*
G02*
X156325000Y-57662500I0J-237500D01*
G01*
G37*
G36*
G01*
X158150000Y-57662500D02*
X158150000Y-58137500D01*
G75*
G02*
X157912500Y-58375000I-237500J0D01*
G01*
X157412500Y-58375000D01*
G75*
G02*
X157175000Y-58137500I0J237500D01*
G01*
X157175000Y-57662500D01*
G75*
G02*
X157412500Y-57425000I237500J0D01*
G01*
X157912500Y-57425000D01*
G75*
G02*
X158150000Y-57662500I0J-237500D01*
G01*
G37*
%TD*%
%TO.C,R5*%
G36*
G01*
X157175000Y-60437500D02*
X157175000Y-59962500D01*
G75*
G02*
X157412500Y-59725000I237500J0D01*
G01*
X157912500Y-59725000D01*
G75*
G02*
X158150000Y-59962500I0J-237500D01*
G01*
X158150000Y-60437500D01*
G75*
G02*
X157912500Y-60675000I-237500J0D01*
G01*
X157412500Y-60675000D01*
G75*
G02*
X157175000Y-60437500I0J237500D01*
G01*
G37*
G36*
G01*
X155350000Y-60437500D02*
X155350000Y-59962500D01*
G75*
G02*
X155587500Y-59725000I237500J0D01*
G01*
X156087500Y-59725000D01*
G75*
G02*
X156325000Y-59962500I0J-237500D01*
G01*
X156325000Y-60437500D01*
G75*
G02*
X156087500Y-60675000I-237500J0D01*
G01*
X155587500Y-60675000D01*
G75*
G02*
X155350000Y-60437500I0J237500D01*
G01*
G37*
%TD*%
%TO.C,R4*%
G36*
G01*
X146625000Y-56662500D02*
X146625000Y-57137500D01*
G75*
G02*
X146387500Y-57375000I-237500J0D01*
G01*
X145887500Y-57375000D01*
G75*
G02*
X145650000Y-57137500I0J237500D01*
G01*
X145650000Y-56662500D01*
G75*
G02*
X145887500Y-56425000I237500J0D01*
G01*
X146387500Y-56425000D01*
G75*
G02*
X146625000Y-56662500I0J-237500D01*
G01*
G37*
G36*
G01*
X148450000Y-56662500D02*
X148450000Y-57137500D01*
G75*
G02*
X148212500Y-57375000I-237500J0D01*
G01*
X147712500Y-57375000D01*
G75*
G02*
X147475000Y-57137500I0J237500D01*
G01*
X147475000Y-56662500D01*
G75*
G02*
X147712500Y-56425000I237500J0D01*
G01*
X148212500Y-56425000D01*
G75*
G02*
X148450000Y-56662500I0J-237500D01*
G01*
G37*
%TD*%
%TO.C,R3*%
G36*
G01*
X120975000Y-57137500D02*
X120975000Y-56662500D01*
G75*
G02*
X121212500Y-56425000I237500J0D01*
G01*
X121712500Y-56425000D01*
G75*
G02*
X121950000Y-56662500I0J-237500D01*
G01*
X121950000Y-57137500D01*
G75*
G02*
X121712500Y-57375000I-237500J0D01*
G01*
X121212500Y-57375000D01*
G75*
G02*
X120975000Y-57137500I0J237500D01*
G01*
G37*
G36*
G01*
X119150000Y-57137500D02*
X119150000Y-56662500D01*
G75*
G02*
X119387500Y-56425000I237500J0D01*
G01*
X119887500Y-56425000D01*
G75*
G02*
X120125000Y-56662500I0J-237500D01*
G01*
X120125000Y-57137500D01*
G75*
G02*
X119887500Y-57375000I-237500J0D01*
G01*
X119387500Y-57375000D01*
G75*
G02*
X119150000Y-57137500I0J237500D01*
G01*
G37*
%TD*%
%TO.C,R2*%
G36*
G01*
X129975000Y-57137500D02*
X129975000Y-56662500D01*
G75*
G02*
X130212500Y-56425000I237500J0D01*
G01*
X130712500Y-56425000D01*
G75*
G02*
X130950000Y-56662500I0J-237500D01*
G01*
X130950000Y-57137500D01*
G75*
G02*
X130712500Y-57375000I-237500J0D01*
G01*
X130212500Y-57375000D01*
G75*
G02*
X129975000Y-57137500I0J237500D01*
G01*
G37*
G36*
G01*
X128150000Y-57137500D02*
X128150000Y-56662500D01*
G75*
G02*
X128387500Y-56425000I237500J0D01*
G01*
X128887500Y-56425000D01*
G75*
G02*
X129125000Y-56662500I0J-237500D01*
G01*
X129125000Y-57137500D01*
G75*
G02*
X128887500Y-57375000I-237500J0D01*
G01*
X128387500Y-57375000D01*
G75*
G02*
X128150000Y-57137500I0J237500D01*
G01*
G37*
%TD*%
%TO.C,R1*%
G36*
G01*
X138975000Y-57137500D02*
X138975000Y-56662500D01*
G75*
G02*
X139212500Y-56425000I237500J0D01*
G01*
X139712500Y-56425000D01*
G75*
G02*
X139950000Y-56662500I0J-237500D01*
G01*
X139950000Y-57137500D01*
G75*
G02*
X139712500Y-57375000I-237500J0D01*
G01*
X139212500Y-57375000D01*
G75*
G02*
X138975000Y-57137500I0J237500D01*
G01*
G37*
G36*
G01*
X137150000Y-57137500D02*
X137150000Y-56662500D01*
G75*
G02*
X137387500Y-56425000I237500J0D01*
G01*
X137887500Y-56425000D01*
G75*
G02*
X138125000Y-56662500I0J-237500D01*
G01*
X138125000Y-57137500D01*
G75*
G02*
X137887500Y-57375000I-237500J0D01*
G01*
X137387500Y-57375000D01*
G75*
G02*
X137150000Y-57137500I0J237500D01*
G01*
G37*
%TD*%
%TO.C,D1*%
G36*
G01*
X149087500Y-69950000D02*
X148612500Y-69950000D01*
G75*
G02*
X148375000Y-69712500I0J237500D01*
G01*
X148375000Y-69137500D01*
G75*
G02*
X148612500Y-68900000I237500J0D01*
G01*
X149087500Y-68900000D01*
G75*
G02*
X149325000Y-69137500I0J-237500D01*
G01*
X149325000Y-69712500D01*
G75*
G02*
X149087500Y-69950000I-237500J0D01*
G01*
G37*
G36*
G01*
X149087500Y-71700000D02*
X148612500Y-71700000D01*
G75*
G02*
X148375000Y-71462500I0J237500D01*
G01*
X148375000Y-70887500D01*
G75*
G02*
X148612500Y-70650000I237500J0D01*
G01*
X149087500Y-70650000D01*
G75*
G02*
X149325000Y-70887500I0J-237500D01*
G01*
X149325000Y-71462500D01*
G75*
G02*
X149087500Y-71700000I-237500J0D01*
G01*
G37*
%TD*%
%TO.C,R10*%
G36*
G01*
X149612500Y-75112500D02*
X150087500Y-75112500D01*
G75*
G02*
X150325000Y-75350000I0J-237500D01*
G01*
X150325000Y-75850000D01*
G75*
G02*
X150087500Y-76087500I-237500J0D01*
G01*
X149612500Y-76087500D01*
G75*
G02*
X149375000Y-75850000I0J237500D01*
G01*
X149375000Y-75350000D01*
G75*
G02*
X149612500Y-75112500I237500J0D01*
G01*
G37*
G36*
G01*
X149612500Y-73287500D02*
X150087500Y-73287500D01*
G75*
G02*
X150325000Y-73525000I0J-237500D01*
G01*
X150325000Y-74025000D01*
G75*
G02*
X150087500Y-74262500I-237500J0D01*
G01*
X149612500Y-74262500D01*
G75*
G02*
X149375000Y-74025000I0J237500D01*
G01*
X149375000Y-73525000D01*
G75*
G02*
X149612500Y-73287500I237500J0D01*
G01*
G37*
%TD*%
D10*
%TO.C,Q1*%
X152350000Y-75700000D03*
X153300000Y-73700000D03*
X151400000Y-73700000D03*
%TD*%
M02*
