M48
; DRILL file {KiCad (6.0.5-0)} date Monday, 15 August 2022 at 15:55:02
; FORMAT={-:-/ absolute / inch / decimal}
; #@! TF.CreationDate,2022-08-15T15:55:02+01:00
; #@! TF.GenerationSoftware,Kicad,Pcbnew,(6.0.5-0)
; #@! TF.FileFunction,Plated,1,2,PTH
FMAT,2
INCH
; #@! TA.AperFunction,Plated,PTH,ViaDrill
T1C0.0157
; #@! TA.AperFunction,Plated,PTH,ComponentDrill
T2C0.0197
; #@! TA.AperFunction,Plated,PTH,ComponentDrill
T3C0.0256
; #@! TA.AperFunction,Plated,PTH,ComponentDrill
T4C0.0335
; #@! TA.AperFunction,Plated,PTH,ComponentDrill
T5C0.0394
%
G90
G05
T1
X4.0945Y-2.7559
X4.252Y-2.7559
X4.252Y-2.8002
X4.2687Y-2.9724
X4.2815Y-3.1988
X4.3209Y-3.563
X4.3475Y-2.9724
X4.3799Y-3.2087
X4.4094Y-2.7559
X4.4094Y-2.8051
X4.4094Y-3.1791
X4.4262Y-2.9724
X4.437Y-3.0906
X4.4783Y-3.563
X4.4803Y-3.2047
X4.5049Y-2.9724
X4.5079Y-3.5335
X4.558Y-3.3711
X4.5591Y-3.563
X4.56Y-3.5237
X4.56Y-3.484
X4.5669Y-2.7559
X4.5669Y-3.2185
X4.5837Y-2.9724
X4.5984Y-3.0906
X4.626Y-2.8248
X4.6516Y-3.5935
X4.6555Y-3.3366
X4.6624Y-2.9724
X4.6665Y-3.2591
X4.7047Y-3.2323
X4.722Y-3.2982
X4.7244Y-2.7559
X4.7412Y-2.9724
X4.7428Y-3.3316
X4.8228Y-2.9724
X4.9114Y-3.5345
X4.9806Y-2.9815
X5.0217Y-2.9794
X5.0718Y-3.0207
X5.0783Y-3.3381
X5.1003Y-3.1892
X5.1186Y-3.3381
X5.1376Y-3.0516
X5.1803Y-3.0569
X5.1971Y-3.1208
X5.2461Y-3.3858
X5.2756Y-3.3071
X5.3445Y-3.1102
X5.3504Y-3.2992
X5.3937Y-3.4449
X5.4134Y-3.0709
X5.4173Y-3.2559
X5.5413Y-3.4744
X5.5464Y-3.1657
X5.5464Y-3.3468
X5.5906Y-3.4744
X5.6693Y-3.5492
X5.7087Y-3.4744
X5.7441Y-3.0866
X5.7579Y-3.4744
X5.8374Y-3.5541
X5.8602Y-3.4724
T3
X5.5681Y-2.9843
X5.6181Y-2.9843
T4
X4.0551Y-2.8602
X4.1535Y-2.8602
X4.252Y-2.8602
X4.3504Y-2.8602
X4.4488Y-2.8602
X4.5472Y-2.8602
X4.7638Y-2.8602
X4.8622Y-2.8602
X4.9606Y-2.8602
X5.0591Y-2.8602
X5.2756Y-2.8602
X5.374Y-2.8602
X5.4724Y-2.8602
X5.689Y-2.8602
X5.7874Y-2.8602
T5
X5.4417Y-2.6575
X5.5417Y-2.6575
X5.6417Y-2.6575
X5.7417Y-2.6575
X5.8417Y-2.6575
T2
G00X5.64Y-3.0878
M15
G01X5.6715Y-3.0878
M16
G05
G00X5.64Y-3.428
M15
G01X5.6715Y-3.428
M16
G05
G00X5.8108Y-3.0878
M15
G01X5.8305Y-3.0878
M16
G05
G00X5.8108Y-3.428
M15
G01X5.8305Y-3.428
M16
G05
T0
M30
