%TF.GenerationSoftware,KiCad,Pcbnew,(5.1.9-0-10_14)*%
%TF.CreationDate,2021-07-31T15:35:19+01:00*%
%TF.ProjectId,Access,41636365-7373-42e6-9b69-6361645f7063,3*%
%TF.SameCoordinates,Original*%
%TF.FileFunction,Legend,Top*%
%TF.FilePolarity,Positive*%
%FSLAX46Y46*%
G04 Gerber Fmt 4.6, Leading zero omitted, Abs format (unit mm)*
G04 Created by KiCad (PCBNEW (5.1.9-0-10_14)) date 2021-07-31 15:35:19*
%MOMM*%
%LPD*%
G01*
G04 APERTURE LIST*
%ADD10C,0.120000*%
%ADD11C,0.080000*%
%ADD12C,0.100000*%
%ADD13C,0.150000*%
G04 APERTURE END LIST*
D10*
%TO.C,R16*%
X129834420Y-88290000D02*
X130115580Y-88290000D01*
X129834420Y-89310000D02*
X130115580Y-89310000D01*
%TO.C,R15*%
X129834420Y-86590000D02*
X130115580Y-86590000D01*
X129834420Y-87610000D02*
X130115580Y-87610000D01*
%TO.C,R14*%
X132984420Y-87390000D02*
X133265580Y-87390000D01*
X132984420Y-88410000D02*
X133265580Y-88410000D01*
%TO.C,Q1*%
X146860000Y-89580000D02*
X146860000Y-88650000D01*
X146860000Y-86420000D02*
X146860000Y-87350000D01*
X146860000Y-86420000D02*
X144700000Y-86420000D01*
X146860000Y-89580000D02*
X145400000Y-89580000D01*
%TO.C,U2*%
X135390000Y-81615000D02*
X135390000Y-80890000D01*
X135390000Y-80890000D02*
X136115000Y-80890000D01*
X139610000Y-84385000D02*
X139610000Y-85110000D01*
X139610000Y-85110000D02*
X138885000Y-85110000D01*
X139610000Y-81615000D02*
X139610000Y-80890000D01*
X139610000Y-80890000D02*
X138885000Y-80890000D01*
X135390000Y-84385000D02*
X135390000Y-85110000D01*
%TO.C,C2*%
X125419420Y-80550000D02*
X125700580Y-80550000D01*
X125419420Y-79530000D02*
X125700580Y-79530000D01*
%TO.C,C8*%
X108040580Y-79190000D02*
X107759420Y-79190000D01*
X108040580Y-80210000D02*
X107759420Y-80210000D01*
%TO.C,C7*%
X110459420Y-80210000D02*
X110740580Y-80210000D01*
X110459420Y-79190000D02*
X110740580Y-79190000D01*
%TO.C,C6*%
X113415580Y-79190000D02*
X113134420Y-79190000D01*
X113415580Y-80210000D02*
X113134420Y-80210000D01*
%TO.C,C5*%
X115859420Y-80210000D02*
X116140580Y-80210000D01*
X115859420Y-79190000D02*
X116140580Y-79190000D01*
%TO.C,C4*%
X118840580Y-79190000D02*
X118559420Y-79190000D01*
X118840580Y-80210000D02*
X118559420Y-80210000D01*
%TO.C,C3*%
X121259420Y-80210000D02*
X121540580Y-80210000D01*
X121259420Y-79190000D02*
X121540580Y-79190000D01*
%TO.C,D1*%
X125050000Y-78910000D02*
X126450000Y-78910000D01*
X126450000Y-76590000D02*
X124550000Y-76590000D01*
%TO.C,D2*%
X119800000Y-78910000D02*
X121200000Y-78910000D01*
X121200000Y-76590000D02*
X119300000Y-76590000D01*
%TO.C,D3*%
X114550000Y-78910000D02*
X115950000Y-78910000D01*
X115950000Y-76590000D02*
X114050000Y-76590000D01*
%TO.C,D4*%
X109300000Y-78910000D02*
X110700000Y-78910000D01*
X110700000Y-76590000D02*
X108800000Y-76590000D01*
%TO.C,R8*%
X102859420Y-75260000D02*
X103140580Y-75260000D01*
X102859420Y-74240000D02*
X103140580Y-74240000D01*
%TO.C,R7*%
X106359420Y-75260000D02*
X106640580Y-75260000D01*
X106359420Y-74240000D02*
X106640580Y-74240000D01*
%TO.C,R6*%
X109859420Y-75260000D02*
X110140580Y-75260000D01*
X109859420Y-74240000D02*
X110140580Y-74240000D01*
%TO.C,R5*%
X113359420Y-75260000D02*
X113640580Y-75260000D01*
X113359420Y-74240000D02*
X113640580Y-74240000D01*
%TO.C,U1*%
X124855000Y-99470000D02*
X125635000Y-99470000D01*
X125635000Y-99470000D02*
X125635000Y-98470000D01*
X124855000Y-81230000D02*
X125635000Y-81230000D01*
X125635000Y-81230000D02*
X125635000Y-82230000D01*
%TO.C,R17*%
X147449420Y-99670000D02*
X147730580Y-99670000D01*
X147449420Y-98650000D02*
X147730580Y-98650000D01*
%TO.C,R2*%
X123859420Y-75260000D02*
X124140580Y-75260000D01*
X123859420Y-74240000D02*
X124140580Y-74240000D01*
%TO.C,R1*%
X127109420Y-75260000D02*
X127390580Y-75260000D01*
X127109420Y-74240000D02*
X127390580Y-74240000D01*
%TO.C,R4*%
X116859420Y-75260000D02*
X117140580Y-75260000D01*
X116859420Y-74240000D02*
X117140580Y-74240000D01*
%TO.C,R3*%
X120359420Y-75260000D02*
X120640580Y-75260000D01*
X120359420Y-74240000D02*
X120640580Y-74240000D01*
%TO.C,R12*%
X141609420Y-88010000D02*
X141890580Y-88010000D01*
X141609420Y-86990000D02*
X141890580Y-86990000D01*
%TO.C,R11*%
X141609420Y-86510000D02*
X141890580Y-86510000D01*
X141609420Y-85490000D02*
X141890580Y-85490000D01*
%TO.C,R10*%
X141740000Y-76609420D02*
X141740000Y-76890580D01*
X142760000Y-76609420D02*
X142760000Y-76890580D01*
%TO.C,R9*%
X141260000Y-76890580D02*
X141260000Y-76609420D01*
X140240000Y-76890580D02*
X140240000Y-76609420D01*
%TO.C,C1*%
X133390773Y-84887978D02*
X133191962Y-85086789D01*
X134112022Y-85609227D02*
X133913211Y-85808038D01*
%TO.C,R13*%
X132754724Y-78977500D02*
X132245276Y-78977500D01*
X132754724Y-80022500D02*
X132245276Y-80022500D01*
%TO.C,SW1*%
X132680000Y-98030000D02*
X132650000Y-98030000D01*
X126220000Y-98030000D02*
X126250000Y-98030000D01*
X126220000Y-91570000D02*
X126250000Y-91570000D01*
X132650000Y-91570000D02*
X132680000Y-91570000D01*
X130750000Y-98030000D02*
X128150000Y-98030000D01*
X132680000Y-91570000D02*
X132680000Y-98030000D01*
X130750000Y-91570000D02*
X128150000Y-91570000D01*
X126220000Y-91570000D02*
X126220000Y-98030000D01*
%TO.C,D6*%
X134790000Y-89135000D02*
X138850000Y-89135000D01*
X134790000Y-86865000D02*
X134790000Y-89135000D01*
X138850000Y-86865000D02*
X134790000Y-86865000D01*
%TO.C,J6*%
X141600000Y-74050000D02*
X141600000Y-66050000D01*
X141600000Y-74050000D02*
X131400000Y-74050000D01*
X131400000Y-74050000D02*
X131400000Y-66050000D01*
%TO.C,J5*%
X149600000Y-74050000D02*
X149600000Y-66050000D01*
X149600000Y-74050000D02*
X141900000Y-74050000D01*
X141900000Y-74050000D02*
X141900000Y-66050000D01*
%TO.C,J3*%
X100400000Y-74050000D02*
X100400000Y-66050000D01*
X118100000Y-74050000D02*
X100400000Y-74050000D01*
X118100000Y-74050000D02*
X118100000Y-66050000D01*
%TO.C,J2*%
X131100000Y-74050000D02*
X131100000Y-66050000D01*
X131100000Y-74050000D02*
X118400000Y-74050000D01*
X118400000Y-74050000D02*
X118400000Y-66050000D01*
%TO.C,JP1*%
X139510000Y-75640000D02*
X139510000Y-76750000D01*
X138750000Y-75640000D02*
X139510000Y-75640000D01*
X137990000Y-77313471D02*
X137990000Y-77860000D01*
X137990000Y-75640000D02*
X137990000Y-76186529D01*
X137990000Y-77860000D02*
X136785000Y-77860000D01*
X137990000Y-75640000D02*
X136785000Y-75640000D01*
X136785000Y-77057530D02*
X136785000Y-77860000D01*
X136785000Y-75640000D02*
X136785000Y-76442470D01*
%TO.C,R16*%
D11*
X129678571Y-90026190D02*
X129511904Y-89788095D01*
X129392857Y-90026190D02*
X129392857Y-89526190D01*
X129583333Y-89526190D01*
X129630952Y-89550000D01*
X129654761Y-89573809D01*
X129678571Y-89621428D01*
X129678571Y-89692857D01*
X129654761Y-89740476D01*
X129630952Y-89764285D01*
X129583333Y-89788095D01*
X129392857Y-89788095D01*
X130154761Y-90026190D02*
X129869047Y-90026190D01*
X130011904Y-90026190D02*
X130011904Y-89526190D01*
X129964285Y-89597619D01*
X129916666Y-89645238D01*
X129869047Y-89669047D01*
X130583333Y-89526190D02*
X130488095Y-89526190D01*
X130440476Y-89550000D01*
X130416666Y-89573809D01*
X130369047Y-89645238D01*
X130345238Y-89740476D01*
X130345238Y-89930952D01*
X130369047Y-89978571D01*
X130392857Y-90002380D01*
X130440476Y-90026190D01*
X130535714Y-90026190D01*
X130583333Y-90002380D01*
X130607142Y-89978571D01*
X130630952Y-89930952D01*
X130630952Y-89811904D01*
X130607142Y-89764285D01*
X130583333Y-89740476D01*
X130535714Y-89716666D01*
X130440476Y-89716666D01*
X130392857Y-89740476D01*
X130369047Y-89764285D01*
X130345238Y-89811904D01*
%TO.C,R15*%
X131826190Y-87421428D02*
X131588095Y-87588095D01*
X131826190Y-87707142D02*
X131326190Y-87707142D01*
X131326190Y-87516666D01*
X131350000Y-87469047D01*
X131373809Y-87445238D01*
X131421428Y-87421428D01*
X131492857Y-87421428D01*
X131540476Y-87445238D01*
X131564285Y-87469047D01*
X131588095Y-87516666D01*
X131588095Y-87707142D01*
X131826190Y-86945238D02*
X131826190Y-87230952D01*
X131826190Y-87088095D02*
X131326190Y-87088095D01*
X131397619Y-87135714D01*
X131445238Y-87183333D01*
X131469047Y-87230952D01*
X131326190Y-86492857D02*
X131326190Y-86730952D01*
X131564285Y-86754761D01*
X131540476Y-86730952D01*
X131516666Y-86683333D01*
X131516666Y-86564285D01*
X131540476Y-86516666D01*
X131564285Y-86492857D01*
X131611904Y-86469047D01*
X131730952Y-86469047D01*
X131778571Y-86492857D01*
X131802380Y-86516666D01*
X131826190Y-86564285D01*
X131826190Y-86683333D01*
X131802380Y-86730952D01*
X131778571Y-86754761D01*
%TO.C,R14*%
X132778571Y-89126190D02*
X132611904Y-88888095D01*
X132492857Y-89126190D02*
X132492857Y-88626190D01*
X132683333Y-88626190D01*
X132730952Y-88650000D01*
X132754761Y-88673809D01*
X132778571Y-88721428D01*
X132778571Y-88792857D01*
X132754761Y-88840476D01*
X132730952Y-88864285D01*
X132683333Y-88888095D01*
X132492857Y-88888095D01*
X133254761Y-89126190D02*
X132969047Y-89126190D01*
X133111904Y-89126190D02*
X133111904Y-88626190D01*
X133064285Y-88697619D01*
X133016666Y-88745238D01*
X132969047Y-88769047D01*
X133683333Y-88792857D02*
X133683333Y-89126190D01*
X133564285Y-88602380D02*
X133445238Y-88959523D01*
X133754761Y-88959523D01*
%TO.C,D5*%
X126626190Y-88269047D02*
X126126190Y-88269047D01*
X126126190Y-88150000D01*
X126150000Y-88078571D01*
X126197619Y-88030952D01*
X126245238Y-88007142D01*
X126340476Y-87983333D01*
X126411904Y-87983333D01*
X126507142Y-88007142D01*
X126554761Y-88030952D01*
X126602380Y-88078571D01*
X126626190Y-88150000D01*
X126626190Y-88269047D01*
X126126190Y-87530952D02*
X126126190Y-87769047D01*
X126364285Y-87792857D01*
X126340476Y-87769047D01*
X126316666Y-87721428D01*
X126316666Y-87602380D01*
X126340476Y-87554761D01*
X126364285Y-87530952D01*
X126411904Y-87507142D01*
X126530952Y-87507142D01*
X126578571Y-87530952D01*
X126602380Y-87554761D01*
X126626190Y-87602380D01*
X126626190Y-87721428D01*
X126602380Y-87769047D01*
X126578571Y-87792857D01*
%TO.C,Q1*%
X144752380Y-88273809D02*
X144704761Y-88250000D01*
X144657142Y-88202380D01*
X144585714Y-88130952D01*
X144538095Y-88107142D01*
X144490476Y-88107142D01*
X144514285Y-88226190D02*
X144466666Y-88202380D01*
X144419047Y-88154761D01*
X144395238Y-88059523D01*
X144395238Y-87892857D01*
X144419047Y-87797619D01*
X144466666Y-87750000D01*
X144514285Y-87726190D01*
X144609523Y-87726190D01*
X144657142Y-87750000D01*
X144704761Y-87797619D01*
X144728571Y-87892857D01*
X144728571Y-88059523D01*
X144704761Y-88154761D01*
X144657142Y-88202380D01*
X144609523Y-88226190D01*
X144514285Y-88226190D01*
X145204761Y-88226190D02*
X144919047Y-88226190D01*
X145061904Y-88226190D02*
X145061904Y-87726190D01*
X145014285Y-87797619D01*
X144966666Y-87845238D01*
X144919047Y-87869047D01*
%TO.C,U2*%
X137119047Y-80126190D02*
X137119047Y-80530952D01*
X137142857Y-80578571D01*
X137166666Y-80602380D01*
X137214285Y-80626190D01*
X137309523Y-80626190D01*
X137357142Y-80602380D01*
X137380952Y-80578571D01*
X137404761Y-80530952D01*
X137404761Y-80126190D01*
X137619047Y-80173809D02*
X137642857Y-80150000D01*
X137690476Y-80126190D01*
X137809523Y-80126190D01*
X137857142Y-80150000D01*
X137880952Y-80173809D01*
X137904761Y-80221428D01*
X137904761Y-80269047D01*
X137880952Y-80340476D01*
X137595238Y-80626190D01*
X137904761Y-80626190D01*
%TO.C,C2*%
X124138571Y-80123333D02*
X124162380Y-80147142D01*
X124186190Y-80218571D01*
X124186190Y-80266190D01*
X124162380Y-80337619D01*
X124114761Y-80385238D01*
X124067142Y-80409047D01*
X123971904Y-80432857D01*
X123900476Y-80432857D01*
X123805238Y-80409047D01*
X123757619Y-80385238D01*
X123710000Y-80337619D01*
X123686190Y-80266190D01*
X123686190Y-80218571D01*
X123710000Y-80147142D01*
X123733809Y-80123333D01*
X123733809Y-79932857D02*
X123710000Y-79909047D01*
X123686190Y-79861428D01*
X123686190Y-79742380D01*
X123710000Y-79694761D01*
X123733809Y-79670952D01*
X123781428Y-79647142D01*
X123829047Y-79647142D01*
X123900476Y-79670952D01*
X124186190Y-79956666D01*
X124186190Y-79647142D01*
%TO.C,C8*%
X107816666Y-80578571D02*
X107792857Y-80602380D01*
X107721428Y-80626190D01*
X107673809Y-80626190D01*
X107602380Y-80602380D01*
X107554761Y-80554761D01*
X107530952Y-80507142D01*
X107507142Y-80411904D01*
X107507142Y-80340476D01*
X107530952Y-80245238D01*
X107554761Y-80197619D01*
X107602380Y-80150000D01*
X107673809Y-80126190D01*
X107721428Y-80126190D01*
X107792857Y-80150000D01*
X107816666Y-80173809D01*
X108102380Y-80340476D02*
X108054761Y-80316666D01*
X108030952Y-80292857D01*
X108007142Y-80245238D01*
X108007142Y-80221428D01*
X108030952Y-80173809D01*
X108054761Y-80150000D01*
X108102380Y-80126190D01*
X108197619Y-80126190D01*
X108245238Y-80150000D01*
X108269047Y-80173809D01*
X108292857Y-80221428D01*
X108292857Y-80245238D01*
X108269047Y-80292857D01*
X108245238Y-80316666D01*
X108197619Y-80340476D01*
X108102380Y-80340476D01*
X108054761Y-80364285D01*
X108030952Y-80388095D01*
X108007142Y-80435714D01*
X108007142Y-80530952D01*
X108030952Y-80578571D01*
X108054761Y-80602380D01*
X108102380Y-80626190D01*
X108197619Y-80626190D01*
X108245238Y-80602380D01*
X108269047Y-80578571D01*
X108292857Y-80530952D01*
X108292857Y-80435714D01*
X108269047Y-80388095D01*
X108245238Y-80364285D01*
X108197619Y-80340476D01*
%TO.C,C7*%
X110516666Y-80578571D02*
X110492857Y-80602380D01*
X110421428Y-80626190D01*
X110373809Y-80626190D01*
X110302380Y-80602380D01*
X110254761Y-80554761D01*
X110230952Y-80507142D01*
X110207142Y-80411904D01*
X110207142Y-80340476D01*
X110230952Y-80245238D01*
X110254761Y-80197619D01*
X110302380Y-80150000D01*
X110373809Y-80126190D01*
X110421428Y-80126190D01*
X110492857Y-80150000D01*
X110516666Y-80173809D01*
X110683333Y-80126190D02*
X111016666Y-80126190D01*
X110802380Y-80626190D01*
%TO.C,C6*%
X113216666Y-80578571D02*
X113192857Y-80602380D01*
X113121428Y-80626190D01*
X113073809Y-80626190D01*
X113002380Y-80602380D01*
X112954761Y-80554761D01*
X112930952Y-80507142D01*
X112907142Y-80411904D01*
X112907142Y-80340476D01*
X112930952Y-80245238D01*
X112954761Y-80197619D01*
X113002380Y-80150000D01*
X113073809Y-80126190D01*
X113121428Y-80126190D01*
X113192857Y-80150000D01*
X113216666Y-80173809D01*
X113645238Y-80126190D02*
X113550000Y-80126190D01*
X113502380Y-80150000D01*
X113478571Y-80173809D01*
X113430952Y-80245238D01*
X113407142Y-80340476D01*
X113407142Y-80530952D01*
X113430952Y-80578571D01*
X113454761Y-80602380D01*
X113502380Y-80626190D01*
X113597619Y-80626190D01*
X113645238Y-80602380D01*
X113669047Y-80578571D01*
X113692857Y-80530952D01*
X113692857Y-80411904D01*
X113669047Y-80364285D01*
X113645238Y-80340476D01*
X113597619Y-80316666D01*
X113502380Y-80316666D01*
X113454761Y-80340476D01*
X113430952Y-80364285D01*
X113407142Y-80411904D01*
%TO.C,C5*%
X115916666Y-80578571D02*
X115892857Y-80602380D01*
X115821428Y-80626190D01*
X115773809Y-80626190D01*
X115702380Y-80602380D01*
X115654761Y-80554761D01*
X115630952Y-80507142D01*
X115607142Y-80411904D01*
X115607142Y-80340476D01*
X115630952Y-80245238D01*
X115654761Y-80197619D01*
X115702380Y-80150000D01*
X115773809Y-80126190D01*
X115821428Y-80126190D01*
X115892857Y-80150000D01*
X115916666Y-80173809D01*
X116369047Y-80126190D02*
X116130952Y-80126190D01*
X116107142Y-80364285D01*
X116130952Y-80340476D01*
X116178571Y-80316666D01*
X116297619Y-80316666D01*
X116345238Y-80340476D01*
X116369047Y-80364285D01*
X116392857Y-80411904D01*
X116392857Y-80530952D01*
X116369047Y-80578571D01*
X116345238Y-80602380D01*
X116297619Y-80626190D01*
X116178571Y-80626190D01*
X116130952Y-80602380D01*
X116107142Y-80578571D01*
%TO.C,C4*%
X118616666Y-80578571D02*
X118592857Y-80602380D01*
X118521428Y-80626190D01*
X118473809Y-80626190D01*
X118402380Y-80602380D01*
X118354761Y-80554761D01*
X118330952Y-80507142D01*
X118307142Y-80411904D01*
X118307142Y-80340476D01*
X118330952Y-80245238D01*
X118354761Y-80197619D01*
X118402380Y-80150000D01*
X118473809Y-80126190D01*
X118521428Y-80126190D01*
X118592857Y-80150000D01*
X118616666Y-80173809D01*
X119045238Y-80292857D02*
X119045238Y-80626190D01*
X118926190Y-80102380D02*
X118807142Y-80459523D01*
X119116666Y-80459523D01*
%TO.C,C3*%
X121316666Y-80578571D02*
X121292857Y-80602380D01*
X121221428Y-80626190D01*
X121173809Y-80626190D01*
X121102380Y-80602380D01*
X121054761Y-80554761D01*
X121030952Y-80507142D01*
X121007142Y-80411904D01*
X121007142Y-80340476D01*
X121030952Y-80245238D01*
X121054761Y-80197619D01*
X121102380Y-80150000D01*
X121173809Y-80126190D01*
X121221428Y-80126190D01*
X121292857Y-80150000D01*
X121316666Y-80173809D01*
X121483333Y-80126190D02*
X121792857Y-80126190D01*
X121626190Y-80316666D01*
X121697619Y-80316666D01*
X121745238Y-80340476D01*
X121769047Y-80364285D01*
X121792857Y-80411904D01*
X121792857Y-80530952D01*
X121769047Y-80578571D01*
X121745238Y-80602380D01*
X121697619Y-80626190D01*
X121554761Y-80626190D01*
X121507142Y-80602380D01*
X121483333Y-80578571D01*
%TO.C,D1*%
X125380952Y-76126190D02*
X125380952Y-75626190D01*
X125500000Y-75626190D01*
X125571428Y-75650000D01*
X125619047Y-75697619D01*
X125642857Y-75745238D01*
X125666666Y-75840476D01*
X125666666Y-75911904D01*
X125642857Y-76007142D01*
X125619047Y-76054761D01*
X125571428Y-76102380D01*
X125500000Y-76126190D01*
X125380952Y-76126190D01*
X126142857Y-76126190D02*
X125857142Y-76126190D01*
X126000000Y-76126190D02*
X126000000Y-75626190D01*
X125952380Y-75697619D01*
X125904761Y-75745238D01*
X125857142Y-75769047D01*
%TO.C,D2*%
X120130952Y-76126190D02*
X120130952Y-75626190D01*
X120250000Y-75626190D01*
X120321428Y-75650000D01*
X120369047Y-75697619D01*
X120392857Y-75745238D01*
X120416666Y-75840476D01*
X120416666Y-75911904D01*
X120392857Y-76007142D01*
X120369047Y-76054761D01*
X120321428Y-76102380D01*
X120250000Y-76126190D01*
X120130952Y-76126190D01*
X120607142Y-75673809D02*
X120630952Y-75650000D01*
X120678571Y-75626190D01*
X120797619Y-75626190D01*
X120845238Y-75650000D01*
X120869047Y-75673809D01*
X120892857Y-75721428D01*
X120892857Y-75769047D01*
X120869047Y-75840476D01*
X120583333Y-76126190D01*
X120892857Y-76126190D01*
%TO.C,D3*%
X114830952Y-76126190D02*
X114830952Y-75626190D01*
X114950000Y-75626190D01*
X115021428Y-75650000D01*
X115069047Y-75697619D01*
X115092857Y-75745238D01*
X115116666Y-75840476D01*
X115116666Y-75911904D01*
X115092857Y-76007142D01*
X115069047Y-76054761D01*
X115021428Y-76102380D01*
X114950000Y-76126190D01*
X114830952Y-76126190D01*
X115283333Y-75626190D02*
X115592857Y-75626190D01*
X115426190Y-75816666D01*
X115497619Y-75816666D01*
X115545238Y-75840476D01*
X115569047Y-75864285D01*
X115592857Y-75911904D01*
X115592857Y-76030952D01*
X115569047Y-76078571D01*
X115545238Y-76102380D01*
X115497619Y-76126190D01*
X115354761Y-76126190D01*
X115307142Y-76102380D01*
X115283333Y-76078571D01*
%TO.C,D4*%
X109630952Y-76126190D02*
X109630952Y-75626190D01*
X109750000Y-75626190D01*
X109821428Y-75650000D01*
X109869047Y-75697619D01*
X109892857Y-75745238D01*
X109916666Y-75840476D01*
X109916666Y-75911904D01*
X109892857Y-76007142D01*
X109869047Y-76054761D01*
X109821428Y-76102380D01*
X109750000Y-76126190D01*
X109630952Y-76126190D01*
X110345238Y-75792857D02*
X110345238Y-76126190D01*
X110226190Y-75602380D02*
X110107142Y-75959523D01*
X110416666Y-75959523D01*
%TO.C,R8*%
X101626190Y-74833333D02*
X101388095Y-75000000D01*
X101626190Y-75119047D02*
X101126190Y-75119047D01*
X101126190Y-74928571D01*
X101150000Y-74880952D01*
X101173809Y-74857142D01*
X101221428Y-74833333D01*
X101292857Y-74833333D01*
X101340476Y-74857142D01*
X101364285Y-74880952D01*
X101388095Y-74928571D01*
X101388095Y-75119047D01*
X101340476Y-74547619D02*
X101316666Y-74595238D01*
X101292857Y-74619047D01*
X101245238Y-74642857D01*
X101221428Y-74642857D01*
X101173809Y-74619047D01*
X101150000Y-74595238D01*
X101126190Y-74547619D01*
X101126190Y-74452380D01*
X101150000Y-74404761D01*
X101173809Y-74380952D01*
X101221428Y-74357142D01*
X101245238Y-74357142D01*
X101292857Y-74380952D01*
X101316666Y-74404761D01*
X101340476Y-74452380D01*
X101340476Y-74547619D01*
X101364285Y-74595238D01*
X101388095Y-74619047D01*
X101435714Y-74642857D01*
X101530952Y-74642857D01*
X101578571Y-74619047D01*
X101602380Y-74595238D01*
X101626190Y-74547619D01*
X101626190Y-74452380D01*
X101602380Y-74404761D01*
X101578571Y-74380952D01*
X101530952Y-74357142D01*
X101435714Y-74357142D01*
X101388095Y-74380952D01*
X101364285Y-74404761D01*
X101340476Y-74452380D01*
%TO.C,R7*%
X105126190Y-74833333D02*
X104888095Y-75000000D01*
X105126190Y-75119047D02*
X104626190Y-75119047D01*
X104626190Y-74928571D01*
X104650000Y-74880952D01*
X104673809Y-74857142D01*
X104721428Y-74833333D01*
X104792857Y-74833333D01*
X104840476Y-74857142D01*
X104864285Y-74880952D01*
X104888095Y-74928571D01*
X104888095Y-75119047D01*
X104626190Y-74666666D02*
X104626190Y-74333333D01*
X105126190Y-74547619D01*
%TO.C,R6*%
X108626190Y-74833333D02*
X108388095Y-75000000D01*
X108626190Y-75119047D02*
X108126190Y-75119047D01*
X108126190Y-74928571D01*
X108150000Y-74880952D01*
X108173809Y-74857142D01*
X108221428Y-74833333D01*
X108292857Y-74833333D01*
X108340476Y-74857142D01*
X108364285Y-74880952D01*
X108388095Y-74928571D01*
X108388095Y-75119047D01*
X108126190Y-74404761D02*
X108126190Y-74500000D01*
X108150000Y-74547619D01*
X108173809Y-74571428D01*
X108245238Y-74619047D01*
X108340476Y-74642857D01*
X108530952Y-74642857D01*
X108578571Y-74619047D01*
X108602380Y-74595238D01*
X108626190Y-74547619D01*
X108626190Y-74452380D01*
X108602380Y-74404761D01*
X108578571Y-74380952D01*
X108530952Y-74357142D01*
X108411904Y-74357142D01*
X108364285Y-74380952D01*
X108340476Y-74404761D01*
X108316666Y-74452380D01*
X108316666Y-74547619D01*
X108340476Y-74595238D01*
X108364285Y-74619047D01*
X108411904Y-74642857D01*
%TO.C,R5*%
X112126190Y-74833333D02*
X111888095Y-75000000D01*
X112126190Y-75119047D02*
X111626190Y-75119047D01*
X111626190Y-74928571D01*
X111650000Y-74880952D01*
X111673809Y-74857142D01*
X111721428Y-74833333D01*
X111792857Y-74833333D01*
X111840476Y-74857142D01*
X111864285Y-74880952D01*
X111888095Y-74928571D01*
X111888095Y-75119047D01*
X111626190Y-74380952D02*
X111626190Y-74619047D01*
X111864285Y-74642857D01*
X111840476Y-74619047D01*
X111816666Y-74571428D01*
X111816666Y-74452380D01*
X111840476Y-74404761D01*
X111864285Y-74380952D01*
X111911904Y-74357142D01*
X112030952Y-74357142D01*
X112078571Y-74380952D01*
X112102380Y-74404761D01*
X112126190Y-74452380D01*
X112126190Y-74571428D01*
X112102380Y-74619047D01*
X112078571Y-74642857D01*
%TO.C,Reg2*%
D12*
X142016190Y-98370238D02*
X141778095Y-98536904D01*
X142016190Y-98655952D02*
X141516190Y-98655952D01*
X141516190Y-98465476D01*
X141540000Y-98417857D01*
X141563809Y-98394047D01*
X141611428Y-98370238D01*
X141682857Y-98370238D01*
X141730476Y-98394047D01*
X141754285Y-98417857D01*
X141778095Y-98465476D01*
X141778095Y-98655952D01*
X141992380Y-97965476D02*
X142016190Y-98013095D01*
X142016190Y-98108333D01*
X141992380Y-98155952D01*
X141944761Y-98179761D01*
X141754285Y-98179761D01*
X141706666Y-98155952D01*
X141682857Y-98108333D01*
X141682857Y-98013095D01*
X141706666Y-97965476D01*
X141754285Y-97941666D01*
X141801904Y-97941666D01*
X141849523Y-98179761D01*
X141682857Y-97513095D02*
X142087619Y-97513095D01*
X142135238Y-97536904D01*
X142159047Y-97560714D01*
X142182857Y-97608333D01*
X142182857Y-97679761D01*
X142159047Y-97727380D01*
X141992380Y-97513095D02*
X142016190Y-97560714D01*
X142016190Y-97655952D01*
X141992380Y-97703571D01*
X141968571Y-97727380D01*
X141920952Y-97751190D01*
X141778095Y-97751190D01*
X141730476Y-97727380D01*
X141706666Y-97703571D01*
X141682857Y-97655952D01*
X141682857Y-97560714D01*
X141706666Y-97513095D01*
X141563809Y-97298809D02*
X141540000Y-97275000D01*
X141516190Y-97227380D01*
X141516190Y-97108333D01*
X141540000Y-97060714D01*
X141563809Y-97036904D01*
X141611428Y-97013095D01*
X141659047Y-97013095D01*
X141730476Y-97036904D01*
X142016190Y-97322619D01*
X142016190Y-97013095D01*
%TO.C,Reg1*%
X133916190Y-98370238D02*
X133678095Y-98536904D01*
X133916190Y-98655952D02*
X133416190Y-98655952D01*
X133416190Y-98465476D01*
X133440000Y-98417857D01*
X133463809Y-98394047D01*
X133511428Y-98370238D01*
X133582857Y-98370238D01*
X133630476Y-98394047D01*
X133654285Y-98417857D01*
X133678095Y-98465476D01*
X133678095Y-98655952D01*
X133892380Y-97965476D02*
X133916190Y-98013095D01*
X133916190Y-98108333D01*
X133892380Y-98155952D01*
X133844761Y-98179761D01*
X133654285Y-98179761D01*
X133606666Y-98155952D01*
X133582857Y-98108333D01*
X133582857Y-98013095D01*
X133606666Y-97965476D01*
X133654285Y-97941666D01*
X133701904Y-97941666D01*
X133749523Y-98179761D01*
X133582857Y-97513095D02*
X133987619Y-97513095D01*
X134035238Y-97536904D01*
X134059047Y-97560714D01*
X134082857Y-97608333D01*
X134082857Y-97679761D01*
X134059047Y-97727380D01*
X133892380Y-97513095D02*
X133916190Y-97560714D01*
X133916190Y-97655952D01*
X133892380Y-97703571D01*
X133868571Y-97727380D01*
X133820952Y-97751190D01*
X133678095Y-97751190D01*
X133630476Y-97727380D01*
X133606666Y-97703571D01*
X133582857Y-97655952D01*
X133582857Y-97560714D01*
X133606666Y-97513095D01*
X133916190Y-97013095D02*
X133916190Y-97298809D01*
X133916190Y-97155952D02*
X133416190Y-97155952D01*
X133487619Y-97203571D01*
X133535238Y-97251190D01*
X133559047Y-97298809D01*
%TO.C,U1*%
D11*
X125976190Y-81880952D02*
X126380952Y-81880952D01*
X126428571Y-81857142D01*
X126452380Y-81833333D01*
X126476190Y-81785714D01*
X126476190Y-81690476D01*
X126452380Y-81642857D01*
X126428571Y-81619047D01*
X126380952Y-81595238D01*
X125976190Y-81595238D01*
X126476190Y-81095238D02*
X126476190Y-81380952D01*
X126476190Y-81238095D02*
X125976190Y-81238095D01*
X126047619Y-81285714D01*
X126095238Y-81333333D01*
X126119047Y-81380952D01*
%TO.C,R17*%
X147278571Y-98426190D02*
X147111904Y-98188095D01*
X146992857Y-98426190D02*
X146992857Y-97926190D01*
X147183333Y-97926190D01*
X147230952Y-97950000D01*
X147254761Y-97973809D01*
X147278571Y-98021428D01*
X147278571Y-98092857D01*
X147254761Y-98140476D01*
X147230952Y-98164285D01*
X147183333Y-98188095D01*
X146992857Y-98188095D01*
X147754761Y-98426190D02*
X147469047Y-98426190D01*
X147611904Y-98426190D02*
X147611904Y-97926190D01*
X147564285Y-97997619D01*
X147516666Y-98045238D01*
X147469047Y-98069047D01*
X147921428Y-97926190D02*
X148254761Y-97926190D01*
X148040476Y-98426190D01*
%TO.C,R2*%
X122476190Y-74833333D02*
X122238095Y-75000000D01*
X122476190Y-75119047D02*
X121976190Y-75119047D01*
X121976190Y-74928571D01*
X122000000Y-74880952D01*
X122023809Y-74857142D01*
X122071428Y-74833333D01*
X122142857Y-74833333D01*
X122190476Y-74857142D01*
X122214285Y-74880952D01*
X122238095Y-74928571D01*
X122238095Y-75119047D01*
X122023809Y-74642857D02*
X122000000Y-74619047D01*
X121976190Y-74571428D01*
X121976190Y-74452380D01*
X122000000Y-74404761D01*
X122023809Y-74380952D01*
X122071428Y-74357142D01*
X122119047Y-74357142D01*
X122190476Y-74380952D01*
X122476190Y-74666666D01*
X122476190Y-74357142D01*
%TO.C,R1*%
X125876190Y-74833333D02*
X125638095Y-75000000D01*
X125876190Y-75119047D02*
X125376190Y-75119047D01*
X125376190Y-74928571D01*
X125400000Y-74880952D01*
X125423809Y-74857142D01*
X125471428Y-74833333D01*
X125542857Y-74833333D01*
X125590476Y-74857142D01*
X125614285Y-74880952D01*
X125638095Y-74928571D01*
X125638095Y-75119047D01*
X125876190Y-74357142D02*
X125876190Y-74642857D01*
X125876190Y-74500000D02*
X125376190Y-74500000D01*
X125447619Y-74547619D01*
X125495238Y-74595238D01*
X125519047Y-74642857D01*
%TO.C,R4*%
X115626190Y-74833333D02*
X115388095Y-75000000D01*
X115626190Y-75119047D02*
X115126190Y-75119047D01*
X115126190Y-74928571D01*
X115150000Y-74880952D01*
X115173809Y-74857142D01*
X115221428Y-74833333D01*
X115292857Y-74833333D01*
X115340476Y-74857142D01*
X115364285Y-74880952D01*
X115388095Y-74928571D01*
X115388095Y-75119047D01*
X115292857Y-74404761D02*
X115626190Y-74404761D01*
X115102380Y-74523809D02*
X115459523Y-74642857D01*
X115459523Y-74333333D01*
%TO.C,R3*%
X119126190Y-74833333D02*
X118888095Y-75000000D01*
X119126190Y-75119047D02*
X118626190Y-75119047D01*
X118626190Y-74928571D01*
X118650000Y-74880952D01*
X118673809Y-74857142D01*
X118721428Y-74833333D01*
X118792857Y-74833333D01*
X118840476Y-74857142D01*
X118864285Y-74880952D01*
X118888095Y-74928571D01*
X118888095Y-75119047D01*
X118626190Y-74666666D02*
X118626190Y-74357142D01*
X118816666Y-74523809D01*
X118816666Y-74452380D01*
X118840476Y-74404761D01*
X118864285Y-74380952D01*
X118911904Y-74357142D01*
X119030952Y-74357142D01*
X119078571Y-74380952D01*
X119102380Y-74404761D01*
X119126190Y-74452380D01*
X119126190Y-74595238D01*
X119102380Y-74642857D01*
X119078571Y-74666666D01*
%TO.C,R12*%
X140376190Y-87821428D02*
X140138095Y-87988095D01*
X140376190Y-88107142D02*
X139876190Y-88107142D01*
X139876190Y-87916666D01*
X139900000Y-87869047D01*
X139923809Y-87845238D01*
X139971428Y-87821428D01*
X140042857Y-87821428D01*
X140090476Y-87845238D01*
X140114285Y-87869047D01*
X140138095Y-87916666D01*
X140138095Y-88107142D01*
X140376190Y-87345238D02*
X140376190Y-87630952D01*
X140376190Y-87488095D02*
X139876190Y-87488095D01*
X139947619Y-87535714D01*
X139995238Y-87583333D01*
X140019047Y-87630952D01*
X139923809Y-87154761D02*
X139900000Y-87130952D01*
X139876190Y-87083333D01*
X139876190Y-86964285D01*
X139900000Y-86916666D01*
X139923809Y-86892857D01*
X139971428Y-86869047D01*
X140019047Y-86869047D01*
X140090476Y-86892857D01*
X140376190Y-87178571D01*
X140376190Y-86869047D01*
%TO.C,R11*%
X140376190Y-86321428D02*
X140138095Y-86488095D01*
X140376190Y-86607142D02*
X139876190Y-86607142D01*
X139876190Y-86416666D01*
X139900000Y-86369047D01*
X139923809Y-86345238D01*
X139971428Y-86321428D01*
X140042857Y-86321428D01*
X140090476Y-86345238D01*
X140114285Y-86369047D01*
X140138095Y-86416666D01*
X140138095Y-86607142D01*
X140376190Y-85845238D02*
X140376190Y-86130952D01*
X140376190Y-85988095D02*
X139876190Y-85988095D01*
X139947619Y-86035714D01*
X139995238Y-86083333D01*
X140019047Y-86130952D01*
X140376190Y-85369047D02*
X140376190Y-85654761D01*
X140376190Y-85511904D02*
X139876190Y-85511904D01*
X139947619Y-85559523D01*
X139995238Y-85607142D01*
X140019047Y-85654761D01*
%TO.C,R10*%
X141928571Y-75326190D02*
X141761904Y-75088095D01*
X141642857Y-75326190D02*
X141642857Y-74826190D01*
X141833333Y-74826190D01*
X141880952Y-74850000D01*
X141904761Y-74873809D01*
X141928571Y-74921428D01*
X141928571Y-74992857D01*
X141904761Y-75040476D01*
X141880952Y-75064285D01*
X141833333Y-75088095D01*
X141642857Y-75088095D01*
X142404761Y-75326190D02*
X142119047Y-75326190D01*
X142261904Y-75326190D02*
X142261904Y-74826190D01*
X142214285Y-74897619D01*
X142166666Y-74945238D01*
X142119047Y-74969047D01*
X142714285Y-74826190D02*
X142761904Y-74826190D01*
X142809523Y-74850000D01*
X142833333Y-74873809D01*
X142857142Y-74921428D01*
X142880952Y-75016666D01*
X142880952Y-75135714D01*
X142857142Y-75230952D01*
X142833333Y-75278571D01*
X142809523Y-75302380D01*
X142761904Y-75326190D01*
X142714285Y-75326190D01*
X142666666Y-75302380D01*
X142642857Y-75278571D01*
X142619047Y-75230952D01*
X142595238Y-75135714D01*
X142595238Y-75016666D01*
X142619047Y-74921428D01*
X142642857Y-74873809D01*
X142666666Y-74850000D01*
X142714285Y-74826190D01*
%TO.C,R9*%
X140666666Y-75326190D02*
X140500000Y-75088095D01*
X140380952Y-75326190D02*
X140380952Y-74826190D01*
X140571428Y-74826190D01*
X140619047Y-74850000D01*
X140642857Y-74873809D01*
X140666666Y-74921428D01*
X140666666Y-74992857D01*
X140642857Y-75040476D01*
X140619047Y-75064285D01*
X140571428Y-75088095D01*
X140380952Y-75088095D01*
X140904761Y-75326190D02*
X141000000Y-75326190D01*
X141047619Y-75302380D01*
X141071428Y-75278571D01*
X141119047Y-75207142D01*
X141142857Y-75111904D01*
X141142857Y-74921428D01*
X141119047Y-74873809D01*
X141095238Y-74850000D01*
X141047619Y-74826190D01*
X140952380Y-74826190D01*
X140904761Y-74850000D01*
X140880952Y-74873809D01*
X140857142Y-74921428D01*
X140857142Y-75040476D01*
X140880952Y-75088095D01*
X140904761Y-75111904D01*
X140952380Y-75135714D01*
X141047619Y-75135714D01*
X141095238Y-75111904D01*
X141119047Y-75088095D01*
X141142857Y-75040476D01*
%TO.C,C1*%
X133067343Y-84885194D02*
X133067343Y-84918866D01*
X133033671Y-84986209D01*
X133000000Y-85019881D01*
X132932656Y-85053553D01*
X132865312Y-85053553D01*
X132814805Y-85036717D01*
X132730625Y-84986209D01*
X132680118Y-84935702D01*
X132629610Y-84851522D01*
X132612774Y-84801015D01*
X132612774Y-84733671D01*
X132646446Y-84666328D01*
X132680118Y-84632656D01*
X132747461Y-84598984D01*
X132781133Y-84598984D01*
X133437732Y-84582148D02*
X133235702Y-84784179D01*
X133336717Y-84683164D02*
X132983164Y-84329610D01*
X133000000Y-84413790D01*
X133000000Y-84481133D01*
X132983164Y-84531641D01*
%TO.C,R13*%
D12*
X130726190Y-79771428D02*
X130488095Y-79938095D01*
X130726190Y-80057142D02*
X130226190Y-80057142D01*
X130226190Y-79866666D01*
X130250000Y-79819047D01*
X130273809Y-79795238D01*
X130321428Y-79771428D01*
X130392857Y-79771428D01*
X130440476Y-79795238D01*
X130464285Y-79819047D01*
X130488095Y-79866666D01*
X130488095Y-80057142D01*
X130726190Y-79295238D02*
X130726190Y-79580952D01*
X130726190Y-79438095D02*
X130226190Y-79438095D01*
X130297619Y-79485714D01*
X130345238Y-79533333D01*
X130369047Y-79580952D01*
X130226190Y-79128571D02*
X130226190Y-78819047D01*
X130416666Y-78985714D01*
X130416666Y-78914285D01*
X130440476Y-78866666D01*
X130464285Y-78842857D01*
X130511904Y-78819047D01*
X130630952Y-78819047D01*
X130678571Y-78842857D01*
X130702380Y-78866666D01*
X130726190Y-78914285D01*
X130726190Y-79057142D01*
X130702380Y-79104761D01*
X130678571Y-79128571D01*
%TO.C,D6*%
X136930952Y-86626190D02*
X136930952Y-86126190D01*
X137050000Y-86126190D01*
X137121428Y-86150000D01*
X137169047Y-86197619D01*
X137192857Y-86245238D01*
X137216666Y-86340476D01*
X137216666Y-86411904D01*
X137192857Y-86507142D01*
X137169047Y-86554761D01*
X137121428Y-86602380D01*
X137050000Y-86626190D01*
X136930952Y-86626190D01*
X137645238Y-86126190D02*
X137550000Y-86126190D01*
X137502380Y-86150000D01*
X137478571Y-86173809D01*
X137430952Y-86245238D01*
X137407142Y-86340476D01*
X137407142Y-86530952D01*
X137430952Y-86578571D01*
X137454761Y-86602380D01*
X137502380Y-86626190D01*
X137597619Y-86626190D01*
X137645238Y-86602380D01*
X137669047Y-86578571D01*
X137692857Y-86530952D01*
X137692857Y-86411904D01*
X137669047Y-86364285D01*
X137645238Y-86340476D01*
X137597619Y-86316666D01*
X137502380Y-86316666D01*
X137454761Y-86340476D01*
X137430952Y-86364285D01*
X137407142Y-86411904D01*
%TO.C,J6*%
D13*
X136166666Y-69452380D02*
X136166666Y-70166666D01*
X136119047Y-70309523D01*
X136023809Y-70404761D01*
X135880952Y-70452380D01*
X135785714Y-70452380D01*
X137071428Y-69452380D02*
X136880952Y-69452380D01*
X136785714Y-69500000D01*
X136738095Y-69547619D01*
X136642857Y-69690476D01*
X136595238Y-69880952D01*
X136595238Y-70261904D01*
X136642857Y-70357142D01*
X136690476Y-70404761D01*
X136785714Y-70452380D01*
X136976190Y-70452380D01*
X137071428Y-70404761D01*
X137119047Y-70357142D01*
X137166666Y-70261904D01*
X137166666Y-70023809D01*
X137119047Y-69928571D01*
X137071428Y-69880952D01*
X136976190Y-69833333D01*
X136785714Y-69833333D01*
X136690476Y-69880952D01*
X136642857Y-69928571D01*
X136595238Y-70023809D01*
X140785714Y-73102380D02*
X140214285Y-73102380D01*
X140500000Y-73102380D02*
X140500000Y-72102380D01*
X140404761Y-72245238D01*
X140309523Y-72340476D01*
X140214285Y-72388095D01*
%TO.C,J5*%
X145416666Y-69452380D02*
X145416666Y-70166666D01*
X145369047Y-70309523D01*
X145273809Y-70404761D01*
X145130952Y-70452380D01*
X145035714Y-70452380D01*
X146369047Y-69452380D02*
X145892857Y-69452380D01*
X145845238Y-69928571D01*
X145892857Y-69880952D01*
X145988095Y-69833333D01*
X146226190Y-69833333D01*
X146321428Y-69880952D01*
X146369047Y-69928571D01*
X146416666Y-70023809D01*
X146416666Y-70261904D01*
X146369047Y-70357142D01*
X146321428Y-70404761D01*
X146226190Y-70452380D01*
X145988095Y-70452380D01*
X145892857Y-70404761D01*
X145845238Y-70357142D01*
X148785714Y-73102380D02*
X148214285Y-73102380D01*
X148500000Y-73102380D02*
X148500000Y-72102380D01*
X148404761Y-72245238D01*
X148309523Y-72340476D01*
X148214285Y-72388095D01*
%TO.C,J3*%
X108916666Y-69452380D02*
X108916666Y-70166666D01*
X108869047Y-70309523D01*
X108773809Y-70404761D01*
X108630952Y-70452380D01*
X108535714Y-70452380D01*
X109297619Y-69452380D02*
X109916666Y-69452380D01*
X109583333Y-69833333D01*
X109726190Y-69833333D01*
X109821428Y-69880952D01*
X109869047Y-69928571D01*
X109916666Y-70023809D01*
X109916666Y-70261904D01*
X109869047Y-70357142D01*
X109821428Y-70404761D01*
X109726190Y-70452380D01*
X109440476Y-70452380D01*
X109345238Y-70404761D01*
X109297619Y-70357142D01*
X117285714Y-73102380D02*
X116714285Y-73102380D01*
X117000000Y-73102380D02*
X117000000Y-72102380D01*
X116904761Y-72245238D01*
X116809523Y-72340476D01*
X116714285Y-72388095D01*
%TO.C,J2*%
X124416666Y-69452380D02*
X124416666Y-70166666D01*
X124369047Y-70309523D01*
X124273809Y-70404761D01*
X124130952Y-70452380D01*
X124035714Y-70452380D01*
X124845238Y-69547619D02*
X124892857Y-69500000D01*
X124988095Y-69452380D01*
X125226190Y-69452380D01*
X125321428Y-69500000D01*
X125369047Y-69547619D01*
X125416666Y-69642857D01*
X125416666Y-69738095D01*
X125369047Y-69880952D01*
X124797619Y-70452380D01*
X125416666Y-70452380D01*
X130285714Y-73102380D02*
X129714285Y-73102380D01*
X130000000Y-73102380D02*
X130000000Y-72102380D01*
X129904761Y-72245238D01*
X129809523Y-72340476D01*
X129714285Y-72388095D01*
%TO.C,J1*%
D11*
X142126190Y-80266666D02*
X142483333Y-80266666D01*
X142554761Y-80290476D01*
X142602380Y-80338095D01*
X142626190Y-80409523D01*
X142626190Y-80457142D01*
X142626190Y-79766666D02*
X142626190Y-80052380D01*
X142626190Y-79909523D02*
X142126190Y-79909523D01*
X142197619Y-79957142D01*
X142245238Y-80004761D01*
X142269047Y-80052380D01*
%TO.C,U3*%
X128869047Y-76476190D02*
X128869047Y-76880952D01*
X128892857Y-76928571D01*
X128916666Y-76952380D01*
X128964285Y-76976190D01*
X129059523Y-76976190D01*
X129107142Y-76952380D01*
X129130952Y-76928571D01*
X129154761Y-76880952D01*
X129154761Y-76476190D01*
X129345238Y-76476190D02*
X129654761Y-76476190D01*
X129488095Y-76666666D01*
X129559523Y-76666666D01*
X129607142Y-76690476D01*
X129630952Y-76714285D01*
X129654761Y-76761904D01*
X129654761Y-76880952D01*
X129630952Y-76928571D01*
X129607142Y-76952380D01*
X129559523Y-76976190D01*
X129416666Y-76976190D01*
X129369047Y-76952380D01*
X129345238Y-76928571D01*
%TD*%
M02*
