%TF.GenerationSoftware,KiCad,Pcbnew,(5.1.9-0-10_14)*%
%TF.CreationDate,2021-05-02T07:47:22+01:00*%
%TF.ProjectId,Access,41636365-7373-42e6-9b69-6361645f7063,1*%
%TF.SameCoordinates,Original*%
%TF.FileFunction,Paste,Top*%
%TF.FilePolarity,Positive*%
%FSLAX46Y46*%
G04 Gerber Fmt 4.6, Leading zero omitted, Abs format (unit mm)*
G04 Created by KiCad (PCBNEW (5.1.9-0-10_14)) date 2021-05-02 07:47:22*
%MOMM*%
%LPD*%
G01*
G04 APERTURE LIST*
%ADD10R,1.060000X0.650000*%
%ADD11R,1.100000X3.700000*%
%ADD12R,1.000000X0.800000*%
%ADD13R,1.140000X0.600000*%
%ADD14R,1.140000X0.300000*%
%ADD15C,0.500000*%
%ADD16R,1.200000X0.800000*%
%ADD17R,0.900000X2.000000*%
%ADD18R,2.000000X0.900000*%
%ADD19R,5.000000X5.000000*%
G04 APERTURE END LIST*
D10*
%TO.C,U8*%
X146950000Y-69500000D03*
X146950000Y-68550000D03*
X146950000Y-70450000D03*
X144750000Y-70450000D03*
X144750000Y-69500000D03*
X144750000Y-68550000D03*
%TD*%
%TO.C,U7*%
X155950000Y-69500000D03*
X155950000Y-68550000D03*
X155950000Y-70450000D03*
X153750000Y-70450000D03*
X153750000Y-69500000D03*
X153750000Y-68550000D03*
%TD*%
D11*
%TO.C,L2*%
X147250000Y-73400000D03*
X144250000Y-73400000D03*
%TD*%
%TO.C,L1*%
X156250000Y-73400000D03*
X153250000Y-73400000D03*
%TD*%
%TO.C,D3*%
G36*
G01*
X148299550Y-73950000D02*
X149200450Y-73950000D01*
G75*
G02*
X149450000Y-74199550I0J-249550D01*
G01*
X149450000Y-74850450D01*
G75*
G02*
X149200450Y-75100000I-249550J0D01*
G01*
X148299550Y-75100000D01*
G75*
G02*
X148050000Y-74850450I0J249550D01*
G01*
X148050000Y-74199550D01*
G75*
G02*
X148299550Y-73950000I249550J0D01*
G01*
G37*
G36*
G01*
X148299999Y-71900000D02*
X149200001Y-71900000D01*
G75*
G02*
X149450000Y-72149999I0J-249999D01*
G01*
X149450000Y-72800001D01*
G75*
G02*
X149200001Y-73050000I-249999J0D01*
G01*
X148299999Y-73050000D01*
G75*
G02*
X148050000Y-72800001I0J249999D01*
G01*
X148050000Y-72149999D01*
G75*
G02*
X148299999Y-71900000I249999J0D01*
G01*
G37*
%TD*%
%TO.C,D2*%
G36*
G01*
X157299550Y-73950000D02*
X158200450Y-73950000D01*
G75*
G02*
X158450000Y-74199550I0J-249550D01*
G01*
X158450000Y-74850450D01*
G75*
G02*
X158200450Y-75100000I-249550J0D01*
G01*
X157299550Y-75100000D01*
G75*
G02*
X157050000Y-74850450I0J249550D01*
G01*
X157050000Y-74199550D01*
G75*
G02*
X157299550Y-73950000I249550J0D01*
G01*
G37*
G36*
G01*
X157299999Y-71900000D02*
X158200001Y-71900000D01*
G75*
G02*
X158450000Y-72149999I0J-249999D01*
G01*
X158450000Y-72800001D01*
G75*
G02*
X158200001Y-73050000I-249999J0D01*
G01*
X157299999Y-73050000D01*
G75*
G02*
X157050000Y-72800001I0J249999D01*
G01*
X157050000Y-72149999D01*
G75*
G02*
X157299999Y-71900000I249999J0D01*
G01*
G37*
%TD*%
%TO.C,C6*%
G36*
G01*
X147150000Y-77249576D02*
X147150000Y-75950424D01*
G75*
G02*
X147400424Y-75700000I250424J0D01*
G01*
X148224576Y-75700000D01*
G75*
G02*
X148475000Y-75950424I0J-250424D01*
G01*
X148475000Y-77249576D01*
G75*
G02*
X148224576Y-77500000I-250424J0D01*
G01*
X147400424Y-77500000D01*
G75*
G02*
X147150000Y-77249576I0J250424D01*
G01*
G37*
G36*
G01*
X144025000Y-77250002D02*
X144025000Y-75949998D01*
G75*
G02*
X144274998Y-75700000I249998J0D01*
G01*
X145100002Y-75700000D01*
G75*
G02*
X145350000Y-75949998I0J-249998D01*
G01*
X145350000Y-77250002D01*
G75*
G02*
X145100002Y-77500000I-249998J0D01*
G01*
X144274998Y-77500000D01*
G75*
G02*
X144025000Y-77250002I0J249998D01*
G01*
G37*
%TD*%
%TO.C,C5*%
G36*
G01*
X156150000Y-77249576D02*
X156150000Y-75950424D01*
G75*
G02*
X156400424Y-75700000I250424J0D01*
G01*
X157224576Y-75700000D01*
G75*
G02*
X157475000Y-75950424I0J-250424D01*
G01*
X157475000Y-77249576D01*
G75*
G02*
X157224576Y-77500000I-250424J0D01*
G01*
X156400424Y-77500000D01*
G75*
G02*
X156150000Y-77249576I0J250424D01*
G01*
G37*
G36*
G01*
X153025000Y-77250002D02*
X153025000Y-75949998D01*
G75*
G02*
X153274998Y-75700000I249998J0D01*
G01*
X154100002Y-75700000D01*
G75*
G02*
X154350000Y-75949998I0J-249998D01*
G01*
X154350000Y-77250002D01*
G75*
G02*
X154100002Y-77500000I-249998J0D01*
G01*
X153274998Y-77500000D01*
G75*
G02*
X153025000Y-77250002I0J249998D01*
G01*
G37*
%TD*%
%TO.C,C4*%
G36*
G01*
X146075000Y-67137500D02*
X146075000Y-66662500D01*
G75*
G02*
X146312500Y-66425000I237500J0D01*
G01*
X146912500Y-66425000D01*
G75*
G02*
X147150000Y-66662500I0J-237500D01*
G01*
X147150000Y-67137500D01*
G75*
G02*
X146912500Y-67375000I-237500J0D01*
G01*
X146312500Y-67375000D01*
G75*
G02*
X146075000Y-67137500I0J237500D01*
G01*
G37*
G36*
G01*
X144350000Y-67137500D02*
X144350000Y-66662500D01*
G75*
G02*
X144587500Y-66425000I237500J0D01*
G01*
X145187500Y-66425000D01*
G75*
G02*
X145425000Y-66662500I0J-237500D01*
G01*
X145425000Y-67137500D01*
G75*
G02*
X145187500Y-67375000I-237500J0D01*
G01*
X144587500Y-67375000D01*
G75*
G02*
X144350000Y-67137500I0J237500D01*
G01*
G37*
%TD*%
%TO.C,C3*%
G36*
G01*
X155075000Y-67137500D02*
X155075000Y-66662500D01*
G75*
G02*
X155312500Y-66425000I237500J0D01*
G01*
X155912500Y-66425000D01*
G75*
G02*
X156150000Y-66662500I0J-237500D01*
G01*
X156150000Y-67137500D01*
G75*
G02*
X155912500Y-67375000I-237500J0D01*
G01*
X155312500Y-67375000D01*
G75*
G02*
X155075000Y-67137500I0J237500D01*
G01*
G37*
G36*
G01*
X153350000Y-67137500D02*
X153350000Y-66662500D01*
G75*
G02*
X153587500Y-66425000I237500J0D01*
G01*
X154187500Y-66425000D01*
G75*
G02*
X154425000Y-66662500I0J-237500D01*
G01*
X154425000Y-67137500D01*
G75*
G02*
X154187500Y-67375000I-237500J0D01*
G01*
X153587500Y-67375000D01*
G75*
G02*
X153350000Y-67137500I0J237500D01*
G01*
G37*
%TD*%
%TO.C,C2*%
G36*
G01*
X148312500Y-70325000D02*
X148787500Y-70325000D01*
G75*
G02*
X149025000Y-70562500I0J-237500D01*
G01*
X149025000Y-71162500D01*
G75*
G02*
X148787500Y-71400000I-237500J0D01*
G01*
X148312500Y-71400000D01*
G75*
G02*
X148075000Y-71162500I0J237500D01*
G01*
X148075000Y-70562500D01*
G75*
G02*
X148312500Y-70325000I237500J0D01*
G01*
G37*
G36*
G01*
X148312500Y-68600000D02*
X148787500Y-68600000D01*
G75*
G02*
X149025000Y-68837500I0J-237500D01*
G01*
X149025000Y-69437500D01*
G75*
G02*
X148787500Y-69675000I-237500J0D01*
G01*
X148312500Y-69675000D01*
G75*
G02*
X148075000Y-69437500I0J237500D01*
G01*
X148075000Y-68837500D01*
G75*
G02*
X148312500Y-68600000I237500J0D01*
G01*
G37*
%TD*%
%TO.C,C1*%
G36*
G01*
X157312500Y-70325000D02*
X157787500Y-70325000D01*
G75*
G02*
X158025000Y-70562500I0J-237500D01*
G01*
X158025000Y-71162500D01*
G75*
G02*
X157787500Y-71400000I-237500J0D01*
G01*
X157312500Y-71400000D01*
G75*
G02*
X157075000Y-71162500I0J237500D01*
G01*
X157075000Y-70562500D01*
G75*
G02*
X157312500Y-70325000I237500J0D01*
G01*
G37*
G36*
G01*
X157312500Y-68600000D02*
X157787500Y-68600000D01*
G75*
G02*
X158025000Y-68837500I0J-237500D01*
G01*
X158025000Y-69437500D01*
G75*
G02*
X157787500Y-69675000I-237500J0D01*
G01*
X157312500Y-69675000D01*
G75*
G02*
X157075000Y-69437500I0J237500D01*
G01*
X157075000Y-68837500D01*
G75*
G02*
X157312500Y-68600000I237500J0D01*
G01*
G37*
%TD*%
D12*
%TO.C,U4*%
X123800000Y-55630000D03*
X123800000Y-58170000D03*
X117300000Y-58170000D03*
X117300000Y-55630000D03*
%TD*%
%TO.C,U3*%
X132800000Y-55630000D03*
X132800000Y-58170000D03*
X126300000Y-58170000D03*
X126300000Y-55630000D03*
%TD*%
%TO.C,U2*%
X141800000Y-55630000D03*
X141800000Y-58170000D03*
X135300000Y-58170000D03*
X135300000Y-55630000D03*
%TD*%
D13*
%TO.C,J1*%
X153885000Y-61400000D03*
X153885000Y-56600000D03*
D14*
X153885000Y-58750000D03*
X153885000Y-59250000D03*
X153885000Y-58250000D03*
X153885000Y-59750000D03*
X153885000Y-57750000D03*
X153885000Y-60250000D03*
X153885000Y-57250000D03*
X153885000Y-60750000D03*
D13*
X153885000Y-55800000D03*
X153885000Y-62200000D03*
%TD*%
D15*
%TO.C,U6*%
X145550000Y-63900000D03*
G36*
G01*
X148430003Y-61780000D02*
X147919997Y-61780000D01*
G75*
G02*
X147670000Y-61530003I0J249997D01*
G01*
X147670000Y-61019997D01*
G75*
G02*
X147919997Y-60770000I249997J0D01*
G01*
X148430003Y-60770000D01*
G75*
G02*
X148680000Y-61019997I0J-249997D01*
G01*
X148680000Y-61530003D01*
G75*
G02*
X148430003Y-61780000I-249997J0D01*
G01*
G37*
G36*
G01*
X147180003Y-61780000D02*
X146669997Y-61780000D01*
G75*
G02*
X146420000Y-61530003I0J249997D01*
G01*
X146420000Y-61019997D01*
G75*
G02*
X146669997Y-60770000I249997J0D01*
G01*
X147180003Y-60770000D01*
G75*
G02*
X147430000Y-61019997I0J-249997D01*
G01*
X147430000Y-61530003D01*
G75*
G02*
X147180003Y-61780000I-249997J0D01*
G01*
G37*
G36*
G01*
X148430003Y-63030000D02*
X147919997Y-63030000D01*
G75*
G02*
X147670000Y-62780003I0J249997D01*
G01*
X147670000Y-62269997D01*
G75*
G02*
X147919997Y-62020000I249997J0D01*
G01*
X148430003Y-62020000D01*
G75*
G02*
X148680000Y-62269997I0J-249997D01*
G01*
X148680000Y-62780003D01*
G75*
G02*
X148430003Y-63030000I-249997J0D01*
G01*
G37*
G36*
G01*
X147180003Y-63030000D02*
X146669997Y-63030000D01*
G75*
G02*
X146420000Y-62780003I0J249997D01*
G01*
X146420000Y-62269997D01*
G75*
G02*
X146669997Y-62020000I249997J0D01*
G01*
X147180003Y-62020000D01*
G75*
G02*
X147430000Y-62269997I0J-249997D01*
G01*
X147430000Y-62780003D01*
G75*
G02*
X147180003Y-63030000I-249997J0D01*
G01*
G37*
G36*
G01*
X145962500Y-63025000D02*
X145087500Y-63025000D01*
G75*
G02*
X145025000Y-62962500I0J62500D01*
G01*
X145025000Y-62837500D01*
G75*
G02*
X145087500Y-62775000I62500J0D01*
G01*
X145962500Y-62775000D01*
G75*
G02*
X146025000Y-62837500I0J-62500D01*
G01*
X146025000Y-62962500D01*
G75*
G02*
X145962500Y-63025000I-62500J0D01*
G01*
G37*
G36*
G01*
X145962500Y-62525000D02*
X145087500Y-62525000D01*
G75*
G02*
X145025000Y-62462500I0J62500D01*
G01*
X145025000Y-62337500D01*
G75*
G02*
X145087500Y-62275000I62500J0D01*
G01*
X145962500Y-62275000D01*
G75*
G02*
X146025000Y-62337500I0J-62500D01*
G01*
X146025000Y-62462500D01*
G75*
G02*
X145962500Y-62525000I-62500J0D01*
G01*
G37*
G36*
G01*
X145962500Y-62025000D02*
X145087500Y-62025000D01*
G75*
G02*
X145025000Y-61962500I0J62500D01*
G01*
X145025000Y-61837500D01*
G75*
G02*
X145087500Y-61775000I62500J0D01*
G01*
X145962500Y-61775000D01*
G75*
G02*
X146025000Y-61837500I0J-62500D01*
G01*
X146025000Y-61962500D01*
G75*
G02*
X145962500Y-62025000I-62500J0D01*
G01*
G37*
G36*
G01*
X145962500Y-61525000D02*
X145087500Y-61525000D01*
G75*
G02*
X145025000Y-61462500I0J62500D01*
G01*
X145025000Y-61337500D01*
G75*
G02*
X145087500Y-61275000I62500J0D01*
G01*
X145962500Y-61275000D01*
G75*
G02*
X146025000Y-61337500I0J-62500D01*
G01*
X146025000Y-61462500D01*
G75*
G02*
X145962500Y-61525000I-62500J0D01*
G01*
G37*
G36*
G01*
X145962500Y-61025000D02*
X145087500Y-61025000D01*
G75*
G02*
X145025000Y-60962500I0J62500D01*
G01*
X145025000Y-60837500D01*
G75*
G02*
X145087500Y-60775000I62500J0D01*
G01*
X145962500Y-60775000D01*
G75*
G02*
X146025000Y-60837500I0J-62500D01*
G01*
X146025000Y-60962500D01*
G75*
G02*
X145962500Y-61025000I-62500J0D01*
G01*
G37*
G36*
G01*
X146612500Y-60375000D02*
X146487500Y-60375000D01*
G75*
G02*
X146425000Y-60312500I0J62500D01*
G01*
X146425000Y-59437500D01*
G75*
G02*
X146487500Y-59375000I62500J0D01*
G01*
X146612500Y-59375000D01*
G75*
G02*
X146675000Y-59437500I0J-62500D01*
G01*
X146675000Y-60312500D01*
G75*
G02*
X146612500Y-60375000I-62500J0D01*
G01*
G37*
G36*
G01*
X147112500Y-60375000D02*
X146987500Y-60375000D01*
G75*
G02*
X146925000Y-60312500I0J62500D01*
G01*
X146925000Y-59437500D01*
G75*
G02*
X146987500Y-59375000I62500J0D01*
G01*
X147112500Y-59375000D01*
G75*
G02*
X147175000Y-59437500I0J-62500D01*
G01*
X147175000Y-60312500D01*
G75*
G02*
X147112500Y-60375000I-62500J0D01*
G01*
G37*
G36*
G01*
X147612500Y-60375000D02*
X147487500Y-60375000D01*
G75*
G02*
X147425000Y-60312500I0J62500D01*
G01*
X147425000Y-59437500D01*
G75*
G02*
X147487500Y-59375000I62500J0D01*
G01*
X147612500Y-59375000D01*
G75*
G02*
X147675000Y-59437500I0J-62500D01*
G01*
X147675000Y-60312500D01*
G75*
G02*
X147612500Y-60375000I-62500J0D01*
G01*
G37*
G36*
G01*
X148112500Y-60375000D02*
X147987500Y-60375000D01*
G75*
G02*
X147925000Y-60312500I0J62500D01*
G01*
X147925000Y-59437500D01*
G75*
G02*
X147987500Y-59375000I62500J0D01*
G01*
X148112500Y-59375000D01*
G75*
G02*
X148175000Y-59437500I0J-62500D01*
G01*
X148175000Y-60312500D01*
G75*
G02*
X148112500Y-60375000I-62500J0D01*
G01*
G37*
G36*
G01*
X148612500Y-60375000D02*
X148487500Y-60375000D01*
G75*
G02*
X148425000Y-60312500I0J62500D01*
G01*
X148425000Y-59437500D01*
G75*
G02*
X148487500Y-59375000I62500J0D01*
G01*
X148612500Y-59375000D01*
G75*
G02*
X148675000Y-59437500I0J-62500D01*
G01*
X148675000Y-60312500D01*
G75*
G02*
X148612500Y-60375000I-62500J0D01*
G01*
G37*
G36*
G01*
X150012500Y-61025000D02*
X149137500Y-61025000D01*
G75*
G02*
X149075000Y-60962500I0J62500D01*
G01*
X149075000Y-60837500D01*
G75*
G02*
X149137500Y-60775000I62500J0D01*
G01*
X150012500Y-60775000D01*
G75*
G02*
X150075000Y-60837500I0J-62500D01*
G01*
X150075000Y-60962500D01*
G75*
G02*
X150012500Y-61025000I-62500J0D01*
G01*
G37*
G36*
G01*
X150012500Y-61525000D02*
X149137500Y-61525000D01*
G75*
G02*
X149075000Y-61462500I0J62500D01*
G01*
X149075000Y-61337500D01*
G75*
G02*
X149137500Y-61275000I62500J0D01*
G01*
X150012500Y-61275000D01*
G75*
G02*
X150075000Y-61337500I0J-62500D01*
G01*
X150075000Y-61462500D01*
G75*
G02*
X150012500Y-61525000I-62500J0D01*
G01*
G37*
G36*
G01*
X150012500Y-62025000D02*
X149137500Y-62025000D01*
G75*
G02*
X149075000Y-61962500I0J62500D01*
G01*
X149075000Y-61837500D01*
G75*
G02*
X149137500Y-61775000I62500J0D01*
G01*
X150012500Y-61775000D01*
G75*
G02*
X150075000Y-61837500I0J-62500D01*
G01*
X150075000Y-61962500D01*
G75*
G02*
X150012500Y-62025000I-62500J0D01*
G01*
G37*
G36*
G01*
X150012500Y-62525000D02*
X149137500Y-62525000D01*
G75*
G02*
X149075000Y-62462500I0J62500D01*
G01*
X149075000Y-62337500D01*
G75*
G02*
X149137500Y-62275000I62500J0D01*
G01*
X150012500Y-62275000D01*
G75*
G02*
X150075000Y-62337500I0J-62500D01*
G01*
X150075000Y-62462500D01*
G75*
G02*
X150012500Y-62525000I-62500J0D01*
G01*
G37*
G36*
G01*
X150012500Y-63025000D02*
X149137500Y-63025000D01*
G75*
G02*
X149075000Y-62962500I0J62500D01*
G01*
X149075000Y-62837500D01*
G75*
G02*
X149137500Y-62775000I62500J0D01*
G01*
X150012500Y-62775000D01*
G75*
G02*
X150075000Y-62837500I0J-62500D01*
G01*
X150075000Y-62962500D01*
G75*
G02*
X150012500Y-63025000I-62500J0D01*
G01*
G37*
G36*
G01*
X148612500Y-64425000D02*
X148487500Y-64425000D01*
G75*
G02*
X148425000Y-64362500I0J62500D01*
G01*
X148425000Y-63487500D01*
G75*
G02*
X148487500Y-63425000I62500J0D01*
G01*
X148612500Y-63425000D01*
G75*
G02*
X148675000Y-63487500I0J-62500D01*
G01*
X148675000Y-64362500D01*
G75*
G02*
X148612500Y-64425000I-62500J0D01*
G01*
G37*
G36*
G01*
X148112500Y-64425000D02*
X147987500Y-64425000D01*
G75*
G02*
X147925000Y-64362500I0J62500D01*
G01*
X147925000Y-63487500D01*
G75*
G02*
X147987500Y-63425000I62500J0D01*
G01*
X148112500Y-63425000D01*
G75*
G02*
X148175000Y-63487500I0J-62500D01*
G01*
X148175000Y-64362500D01*
G75*
G02*
X148112500Y-64425000I-62500J0D01*
G01*
G37*
G36*
G01*
X147612500Y-64425000D02*
X147487500Y-64425000D01*
G75*
G02*
X147425000Y-64362500I0J62500D01*
G01*
X147425000Y-63487500D01*
G75*
G02*
X147487500Y-63425000I62500J0D01*
G01*
X147612500Y-63425000D01*
G75*
G02*
X147675000Y-63487500I0J-62500D01*
G01*
X147675000Y-64362500D01*
G75*
G02*
X147612500Y-64425000I-62500J0D01*
G01*
G37*
G36*
G01*
X147112500Y-64425000D02*
X146987500Y-64425000D01*
G75*
G02*
X146925000Y-64362500I0J62500D01*
G01*
X146925000Y-63487500D01*
G75*
G02*
X146987500Y-63425000I62500J0D01*
G01*
X147112500Y-63425000D01*
G75*
G02*
X147175000Y-63487500I0J-62500D01*
G01*
X147175000Y-64362500D01*
G75*
G02*
X147112500Y-64425000I-62500J0D01*
G01*
G37*
G36*
G01*
X146612500Y-64425000D02*
X146487500Y-64425000D01*
G75*
G02*
X146425000Y-64362500I0J62500D01*
G01*
X146425000Y-63487500D01*
G75*
G02*
X146487500Y-63425000I62500J0D01*
G01*
X146612500Y-63425000D01*
G75*
G02*
X146675000Y-63487500I0J-62500D01*
G01*
X146675000Y-64362500D01*
G75*
G02*
X146612500Y-64425000I-62500J0D01*
G01*
G37*
%TD*%
D16*
%TO.C,U5*%
X150050000Y-58170000D03*
X150050000Y-55630000D03*
X144050000Y-55630000D03*
X144050000Y-58170000D03*
%TD*%
D17*
%TO.C,U1*%
X117550000Y-60750000D03*
X118820000Y-60750000D03*
X120090000Y-60750000D03*
X121360000Y-60750000D03*
X122630000Y-60750000D03*
X123900000Y-60750000D03*
X125170000Y-60750000D03*
X126440000Y-60750000D03*
X127710000Y-60750000D03*
X128980000Y-60750000D03*
X130250000Y-60750000D03*
X131520000Y-60750000D03*
X132790000Y-60750000D03*
X134060000Y-60750000D03*
D18*
X135060000Y-63535000D03*
X135060000Y-64805000D03*
X135060000Y-66075000D03*
X135060000Y-67345000D03*
X135060000Y-68615000D03*
X135060000Y-69885000D03*
X135060000Y-71155000D03*
X135060000Y-72425000D03*
X135060000Y-73695000D03*
X135060000Y-74965000D03*
D17*
X134060000Y-77750000D03*
X132790000Y-77750000D03*
X131520000Y-77750000D03*
X130250000Y-77750000D03*
X128980000Y-77750000D03*
X127710000Y-77750000D03*
X126440000Y-77750000D03*
X125170000Y-77750000D03*
X123900000Y-77750000D03*
X122630000Y-77750000D03*
X121360000Y-77750000D03*
X120090000Y-77750000D03*
X118820000Y-77750000D03*
X117550000Y-77750000D03*
D19*
X125050000Y-70250000D03*
%TD*%
%TO.C,D4*%
G36*
G01*
X137249999Y-77200000D02*
X138050001Y-77200000D01*
G75*
G02*
X138300000Y-77449999I0J-249999D01*
G01*
X138300000Y-78275001D01*
G75*
G02*
X138050001Y-78525000I-249999J0D01*
G01*
X137249999Y-78525000D01*
G75*
G02*
X137000000Y-78275001I0J249999D01*
G01*
X137000000Y-77449999D01*
G75*
G02*
X137249999Y-77200000I249999J0D01*
G01*
G37*
G36*
G01*
X137249999Y-75275000D02*
X138050001Y-75275000D01*
G75*
G02*
X138300000Y-75524999I0J-249999D01*
G01*
X138300000Y-76350001D01*
G75*
G02*
X138050001Y-76600000I-249999J0D01*
G01*
X137249999Y-76600000D01*
G75*
G02*
X137000000Y-76350001I0J249999D01*
G01*
X137000000Y-75524999D01*
G75*
G02*
X137249999Y-75275000I249999J0D01*
G01*
G37*
%TD*%
M02*
