%TF.GenerationSoftware,KiCad,Pcbnew,(6.0.5-0)*%
%TF.CreationDate,2022-08-15T15:55:00+01:00*%
%TF.ProjectId,Access2,41636365-7373-4322-9e6b-696361645f70,3*%
%TF.SameCoordinates,Original*%
%TF.FileFunction,Paste,Bot*%
%TF.FilePolarity,Positive*%
%FSLAX46Y46*%
G04 Gerber Fmt 4.6, Leading zero omitted, Abs format (unit mm)*
G04 Created by KiCad (PCBNEW (6.0.5-0)) date 2022-08-15 15:55:00*
%MOMM*%
%LPD*%
G01*
G04 APERTURE LIST*
G04 Aperture macros list*
%AMRoundRect*
0 Rectangle with rounded corners*
0 $1 Rounding radius*
0 $2 $3 $4 $5 $6 $7 $8 $9 X,Y pos of 4 corners*
0 Add a 4 corners polygon primitive as box body*
4,1,4,$2,$3,$4,$5,$6,$7,$8,$9,$2,$3,0*
0 Add four circle primitives for the rounded corners*
1,1,$1+$1,$2,$3*
1,1,$1+$1,$4,$5*
1,1,$1+$1,$6,$7*
1,1,$1+$1,$8,$9*
0 Add four rect primitives between the rounded corners*
20,1,$1+$1,$2,$3,$4,$5,0*
20,1,$1+$1,$4,$5,$6,$7,0*
20,1,$1+$1,$6,$7,$8,$9,0*
20,1,$1+$1,$8,$9,$2,$3,0*%
G04 Aperture macros list end*
%ADD10RoundRect,0.184000X0.272000X-0.200000X0.272000X0.200000X-0.272000X0.200000X-0.272000X-0.200000X0*%
%ADD11R,0.624000X0.384000*%
G04 APERTURE END LIST*
D10*
%TO.C,C3*%
X115000000Y-68275000D03*
X115000000Y-66725000D03*
%TD*%
%TO.C,C5*%
X111000000Y-68275000D03*
X111000000Y-66725000D03*
%TD*%
%TO.C,C7*%
X107000000Y-68275000D03*
X107000000Y-66725000D03*
%TD*%
D11*
%TO.C,D1*%
X117050000Y-70650000D03*
X117050000Y-70000000D03*
X117050000Y-69350000D03*
X118950000Y-69350000D03*
X118950000Y-70000000D03*
X118950000Y-70650000D03*
%TD*%
%TO.C,D4*%
X105050000Y-70650000D03*
X105050000Y-70000000D03*
X105050000Y-69350000D03*
X106950000Y-69350000D03*
X106950000Y-70000000D03*
X106950000Y-70650000D03*
%TD*%
D10*
%TO.C,C2*%
X117000000Y-68300000D03*
X117000000Y-66750000D03*
%TD*%
D11*
%TO.C,D3*%
X109050000Y-70650000D03*
X109050000Y-70000000D03*
X109050000Y-69350000D03*
X110950000Y-69350000D03*
X110950000Y-70000000D03*
X110950000Y-70650000D03*
%TD*%
D10*
%TO.C,C8*%
X105000000Y-68275000D03*
X105000000Y-66725000D03*
%TD*%
%TO.C,C6*%
X109000000Y-68275000D03*
X109000000Y-66725000D03*
%TD*%
D11*
%TO.C,D2*%
X113050000Y-70650000D03*
X113050000Y-70000000D03*
X113050000Y-69350000D03*
X114950000Y-69350000D03*
X114950000Y-70000000D03*
X114950000Y-70650000D03*
%TD*%
D10*
%TO.C,C4*%
X113000000Y-68275000D03*
X113000000Y-66725000D03*
%TD*%
M02*
