M48
; DRILL file {KiCad (5.1.9-0-10_14)} date Monday, May 03, 2021 at 02:32:56 PM
; FORMAT={-:-/ absolute / inch / decimal}
; #@! TF.CreationDate,2021-05-03T14:32:56+01:00
; #@! TF.GenerationSoftware,Kicad,Pcbnew,(5.1.9-0-10_14)
; #@! TF.FileFunction,Plated,1,2,PTH
FMAT,2
INCH
T1C0.0098
T2C0.0157
T3C0.0236
T4C0.0256
T5C0.0300
T6C0.0335
T7C0.0472
T8C0.0591
T9C0.1260
%
G90
G05
T1
X5.0098Y-3.2874
X5.0984Y-3.1988
X5.0984Y-3.376
X5.187Y-3.2874
T2
X4.3937Y-3.4409
X4.4411Y-2.9537
X4.4488Y-3.3976
X4.622Y-3.7402
X4.7047Y-3.4252
X4.7333Y-3.2967
X4.7756Y-3.2992
X4.8031Y-3.5138
X4.81Y-2.9334
X4.8444Y-3.4341
X4.872Y-2.9429
X4.9311Y-3.1791
X4.9843Y-3.9016
X5.0197Y-3.5866
X5.0591Y-3.002
X5.0886Y-3.0807
X5.0984Y-3.002
X5.128Y-3.4941
X5.1627Y-3.7782
X5.2293Y-3.0434
X5.2762Y-3.3298
X5.2796Y-3.2692
X5.2843Y-3.2301
X5.2854Y-3.4055
X5.2953Y-3.061
X5.3224Y-3.0005
X5.345Y-3.4646
X5.3553Y-3.3851
X5.4016Y-3.1093
X5.4035Y-3.061
X5.4262Y-3.0054
X5.4449Y-3.9016
X5.4621Y-3.4641
X5.502Y-3.7141
X5.5157Y-3.8661
X5.5709Y-3.1102
X5.5709Y-3.2087
X5.5778Y-3.1555
X5.5881Y-3.5257
X5.612Y-3.0729
X5.6168Y-3.1119
X5.6168Y-3.2143
X5.623Y-3.3074
X5.6991Y-3.401
X5.7638Y-3.37
T3
X5.7049Y-3.0398
X5.7049Y-3.2673
T4
X5.5945Y-2.9803
X5.5945Y-3.0303
T5
X5.4134Y-3.2677
T6
X4.0551Y-2.8602
X4.1535Y-2.8602
X4.252Y-2.8602
X4.3504Y-2.8602
X4.4488Y-2.8602
X4.5472Y-2.8602
X4.7638Y-2.8602
X4.8622Y-2.8602
X4.9606Y-2.8602
X5.0591Y-2.8602
X5.2756Y-2.8602
X5.374Y-2.8602
X5.4724Y-2.8602
X5.689Y-2.8602
X5.7874Y-2.8602
T7
X5.8506Y-2.9833
X5.8506Y-3.3238
T8
X5.686Y-2.9833
X5.686Y-3.3238
T9
X5.0984Y-3.2874
T0
M30
