%TF.GenerationSoftware,KiCad,Pcbnew,(5.1.9-0-10_14)*%
%TF.CreationDate,2021-05-18T07:41:56+01:00*%
%TF.ProjectId,Access,41636365-7373-42e6-9b69-6361645f7063,1*%
%TF.SameCoordinates,Original*%
%TF.FileFunction,Paste,Top*%
%TF.FilePolarity,Positive*%
%FSLAX46Y46*%
G04 Gerber Fmt 4.6, Leading zero omitted, Abs format (unit mm)*
G04 Created by KiCad (PCBNEW (5.1.9-0-10_14)) date 2021-05-18 07:41:56*
%MOMM*%
%LPD*%
G01*
G04 APERTURE LIST*
%ADD10R,0.650000X0.400000*%
%ADD11R,0.700000X0.450000*%
%ADD12R,1.300000X1.550000*%
%ADD13R,1.100000X3.700000*%
%ADD14R,0.650000X1.560000*%
%ADD15R,0.900000X0.800000*%
%ADD16R,1.140000X0.600000*%
%ADD17R,1.140000X0.300000*%
%ADD18C,0.500000*%
%ADD19R,1.200000X0.800000*%
%ADD20R,0.900000X2.000000*%
%ADD21R,2.000000X0.900000*%
%ADD22R,5.000000X5.000000*%
G04 APERTURE END LIST*
%TO.C,R13*%
G36*
G01*
X127575000Y-88725000D02*
X127575000Y-89275000D01*
G75*
G02*
X127375000Y-89475000I-200000J0D01*
G01*
X126975000Y-89475000D01*
G75*
G02*
X126775000Y-89275000I0J200000D01*
G01*
X126775000Y-88725000D01*
G75*
G02*
X126975000Y-88525000I200000J0D01*
G01*
X127375000Y-88525000D01*
G75*
G02*
X127575000Y-88725000I0J-200000D01*
G01*
G37*
G36*
G01*
X129225000Y-88725000D02*
X129225000Y-89275000D01*
G75*
G02*
X129025000Y-89475000I-200000J0D01*
G01*
X128625000Y-89475000D01*
G75*
G02*
X128425000Y-89275000I0J200000D01*
G01*
X128425000Y-88725000D01*
G75*
G02*
X128625000Y-88525000I200000J0D01*
G01*
X129025000Y-88525000D01*
G75*
G02*
X129225000Y-88725000I0J-200000D01*
G01*
G37*
%TD*%
%TO.C,R12*%
G36*
G01*
X140525000Y-95425000D02*
X141075000Y-95425000D01*
G75*
G02*
X141275000Y-95625000I0J-200000D01*
G01*
X141275000Y-96025000D01*
G75*
G02*
X141075000Y-96225000I-200000J0D01*
G01*
X140525000Y-96225000D01*
G75*
G02*
X140325000Y-96025000I0J200000D01*
G01*
X140325000Y-95625000D01*
G75*
G02*
X140525000Y-95425000I200000J0D01*
G01*
G37*
G36*
G01*
X140525000Y-93775000D02*
X141075000Y-93775000D01*
G75*
G02*
X141275000Y-93975000I0J-200000D01*
G01*
X141275000Y-94375000D01*
G75*
G02*
X141075000Y-94575000I-200000J0D01*
G01*
X140525000Y-94575000D01*
G75*
G02*
X140325000Y-94375000I0J200000D01*
G01*
X140325000Y-93975000D01*
G75*
G02*
X140525000Y-93775000I200000J0D01*
G01*
G37*
%TD*%
%TO.C,R11*%
G36*
G01*
X132575000Y-87975000D02*
X132575000Y-88525000D01*
G75*
G02*
X132375000Y-88725000I-200000J0D01*
G01*
X131975000Y-88725000D01*
G75*
G02*
X131775000Y-88525000I0J200000D01*
G01*
X131775000Y-87975000D01*
G75*
G02*
X131975000Y-87775000I200000J0D01*
G01*
X132375000Y-87775000D01*
G75*
G02*
X132575000Y-87975000I0J-200000D01*
G01*
G37*
G36*
G01*
X134225000Y-87975000D02*
X134225000Y-88525000D01*
G75*
G02*
X134025000Y-88725000I-200000J0D01*
G01*
X133625000Y-88725000D01*
G75*
G02*
X133425000Y-88525000I0J200000D01*
G01*
X133425000Y-87975000D01*
G75*
G02*
X133625000Y-87775000I200000J0D01*
G01*
X134025000Y-87775000D01*
G75*
G02*
X134225000Y-87975000I0J-200000D01*
G01*
G37*
%TD*%
%TO.C,R10*%
G36*
G01*
X120825000Y-74725000D02*
X120825000Y-75275000D01*
G75*
G02*
X120625000Y-75475000I-200000J0D01*
G01*
X120225000Y-75475000D01*
G75*
G02*
X120025000Y-75275000I0J200000D01*
G01*
X120025000Y-74725000D01*
G75*
G02*
X120225000Y-74525000I200000J0D01*
G01*
X120625000Y-74525000D01*
G75*
G02*
X120825000Y-74725000I0J-200000D01*
G01*
G37*
G36*
G01*
X122475000Y-74725000D02*
X122475000Y-75275000D01*
G75*
G02*
X122275000Y-75475000I-200000J0D01*
G01*
X121875000Y-75475000D01*
G75*
G02*
X121675000Y-75275000I0J200000D01*
G01*
X121675000Y-74725000D01*
G75*
G02*
X121875000Y-74525000I200000J0D01*
G01*
X122275000Y-74525000D01*
G75*
G02*
X122475000Y-74725000I0J-200000D01*
G01*
G37*
%TD*%
%TO.C,R9*%
G36*
G01*
X125175000Y-75275000D02*
X125175000Y-74725000D01*
G75*
G02*
X125375000Y-74525000I200000J0D01*
G01*
X125775000Y-74525000D01*
G75*
G02*
X125975000Y-74725000I0J-200000D01*
G01*
X125975000Y-75275000D01*
G75*
G02*
X125775000Y-75475000I-200000J0D01*
G01*
X125375000Y-75475000D01*
G75*
G02*
X125175000Y-75275000I0J200000D01*
G01*
G37*
G36*
G01*
X123525000Y-75275000D02*
X123525000Y-74725000D01*
G75*
G02*
X123725000Y-74525000I200000J0D01*
G01*
X124125000Y-74525000D01*
G75*
G02*
X124325000Y-74725000I0J-200000D01*
G01*
X124325000Y-75275000D01*
G75*
G02*
X124125000Y-75475000I-200000J0D01*
G01*
X123725000Y-75475000D01*
G75*
G02*
X123525000Y-75275000I0J200000D01*
G01*
G37*
%TD*%
%TO.C,R8*%
G36*
G01*
X104425000Y-75275000D02*
X104425000Y-74725000D01*
G75*
G02*
X104625000Y-74525000I200000J0D01*
G01*
X105025000Y-74525000D01*
G75*
G02*
X105225000Y-74725000I0J-200000D01*
G01*
X105225000Y-75275000D01*
G75*
G02*
X105025000Y-75475000I-200000J0D01*
G01*
X104625000Y-75475000D01*
G75*
G02*
X104425000Y-75275000I0J200000D01*
G01*
G37*
G36*
G01*
X102775000Y-75275000D02*
X102775000Y-74725000D01*
G75*
G02*
X102975000Y-74525000I200000J0D01*
G01*
X103375000Y-74525000D01*
G75*
G02*
X103575000Y-74725000I0J-200000D01*
G01*
X103575000Y-75275000D01*
G75*
G02*
X103375000Y-75475000I-200000J0D01*
G01*
X102975000Y-75475000D01*
G75*
G02*
X102775000Y-75275000I0J200000D01*
G01*
G37*
%TD*%
%TO.C,R7*%
G36*
G01*
X109425000Y-75275000D02*
X109425000Y-74725000D01*
G75*
G02*
X109625000Y-74525000I200000J0D01*
G01*
X110025000Y-74525000D01*
G75*
G02*
X110225000Y-74725000I0J-200000D01*
G01*
X110225000Y-75275000D01*
G75*
G02*
X110025000Y-75475000I-200000J0D01*
G01*
X109625000Y-75475000D01*
G75*
G02*
X109425000Y-75275000I0J200000D01*
G01*
G37*
G36*
G01*
X107775000Y-75275000D02*
X107775000Y-74725000D01*
G75*
G02*
X107975000Y-74525000I200000J0D01*
G01*
X108375000Y-74525000D01*
G75*
G02*
X108575000Y-74725000I0J-200000D01*
G01*
X108575000Y-75275000D01*
G75*
G02*
X108375000Y-75475000I-200000J0D01*
G01*
X107975000Y-75475000D01*
G75*
G02*
X107775000Y-75275000I0J200000D01*
G01*
G37*
%TD*%
%TO.C,R6*%
G36*
G01*
X114425000Y-75275000D02*
X114425000Y-74725000D01*
G75*
G02*
X114625000Y-74525000I200000J0D01*
G01*
X115025000Y-74525000D01*
G75*
G02*
X115225000Y-74725000I0J-200000D01*
G01*
X115225000Y-75275000D01*
G75*
G02*
X115025000Y-75475000I-200000J0D01*
G01*
X114625000Y-75475000D01*
G75*
G02*
X114425000Y-75275000I0J200000D01*
G01*
G37*
G36*
G01*
X112775000Y-75275000D02*
X112775000Y-74725000D01*
G75*
G02*
X112975000Y-74525000I200000J0D01*
G01*
X113375000Y-74525000D01*
G75*
G02*
X113575000Y-74725000I0J-200000D01*
G01*
X113575000Y-75275000D01*
G75*
G02*
X113375000Y-75475000I-200000J0D01*
G01*
X112975000Y-75475000D01*
G75*
G02*
X112775000Y-75275000I0J200000D01*
G01*
G37*
%TD*%
%TO.C,R5*%
G36*
G01*
X142175000Y-87775000D02*
X142175000Y-87225000D01*
G75*
G02*
X142375000Y-87025000I200000J0D01*
G01*
X142775000Y-87025000D01*
G75*
G02*
X142975000Y-87225000I0J-200000D01*
G01*
X142975000Y-87775000D01*
G75*
G02*
X142775000Y-87975000I-200000J0D01*
G01*
X142375000Y-87975000D01*
G75*
G02*
X142175000Y-87775000I0J200000D01*
G01*
G37*
G36*
G01*
X140525000Y-87775000D02*
X140525000Y-87225000D01*
G75*
G02*
X140725000Y-87025000I200000J0D01*
G01*
X141125000Y-87025000D01*
G75*
G02*
X141325000Y-87225000I0J-200000D01*
G01*
X141325000Y-87775000D01*
G75*
G02*
X141125000Y-87975000I-200000J0D01*
G01*
X140725000Y-87975000D01*
G75*
G02*
X140525000Y-87775000I0J200000D01*
G01*
G37*
%TD*%
%TO.C,R4*%
G36*
G01*
X142175000Y-86275000D02*
X142175000Y-85725000D01*
G75*
G02*
X142375000Y-85525000I200000J0D01*
G01*
X142775000Y-85525000D01*
G75*
G02*
X142975000Y-85725000I0J-200000D01*
G01*
X142975000Y-86275000D01*
G75*
G02*
X142775000Y-86475000I-200000J0D01*
G01*
X142375000Y-86475000D01*
G75*
G02*
X142175000Y-86275000I0J200000D01*
G01*
G37*
G36*
G01*
X140525000Y-86275000D02*
X140525000Y-85725000D01*
G75*
G02*
X140725000Y-85525000I200000J0D01*
G01*
X141125000Y-85525000D01*
G75*
G02*
X141325000Y-85725000I0J-200000D01*
G01*
X141325000Y-86275000D01*
G75*
G02*
X141125000Y-86475000I-200000J0D01*
G01*
X140725000Y-86475000D01*
G75*
G02*
X140525000Y-86275000I0J200000D01*
G01*
G37*
%TD*%
%TO.C,R2*%
G36*
G01*
X141975000Y-77175000D02*
X142525000Y-77175000D01*
G75*
G02*
X142725000Y-77375000I0J-200000D01*
G01*
X142725000Y-77775000D01*
G75*
G02*
X142525000Y-77975000I-200000J0D01*
G01*
X141975000Y-77975000D01*
G75*
G02*
X141775000Y-77775000I0J200000D01*
G01*
X141775000Y-77375000D01*
G75*
G02*
X141975000Y-77175000I200000J0D01*
G01*
G37*
G36*
G01*
X141975000Y-75525000D02*
X142525000Y-75525000D01*
G75*
G02*
X142725000Y-75725000I0J-200000D01*
G01*
X142725000Y-76125000D01*
G75*
G02*
X142525000Y-76325000I-200000J0D01*
G01*
X141975000Y-76325000D01*
G75*
G02*
X141775000Y-76125000I0J200000D01*
G01*
X141775000Y-75725000D01*
G75*
G02*
X141975000Y-75525000I200000J0D01*
G01*
G37*
%TD*%
%TO.C,R1*%
G36*
G01*
X141025000Y-76325000D02*
X140475000Y-76325000D01*
G75*
G02*
X140275000Y-76125000I0J200000D01*
G01*
X140275000Y-75725000D01*
G75*
G02*
X140475000Y-75525000I200000J0D01*
G01*
X141025000Y-75525000D01*
G75*
G02*
X141225000Y-75725000I0J-200000D01*
G01*
X141225000Y-76125000D01*
G75*
G02*
X141025000Y-76325000I-200000J0D01*
G01*
G37*
G36*
G01*
X141025000Y-77975000D02*
X140475000Y-77975000D01*
G75*
G02*
X140275000Y-77775000I0J200000D01*
G01*
X140275000Y-77375000D01*
G75*
G02*
X140475000Y-77175000I200000J0D01*
G01*
X141025000Y-77175000D01*
G75*
G02*
X141225000Y-77375000I0J-200000D01*
G01*
X141225000Y-77775000D01*
G75*
G02*
X141025000Y-77975000I-200000J0D01*
G01*
G37*
%TD*%
%TO.C,C1*%
G36*
G01*
X132493413Y-85762913D02*
X132846967Y-86116467D01*
G75*
G02*
X132846967Y-86434665I-159099J-159099D01*
G01*
X132528769Y-86752863D01*
G75*
G02*
X132210571Y-86752863I-159099J159099D01*
G01*
X131857017Y-86399309D01*
G75*
G02*
X131857017Y-86081111I159099J159099D01*
G01*
X132175215Y-85762913D01*
G75*
G02*
X132493413Y-85762913I159099J-159099D01*
G01*
G37*
G36*
G01*
X133589429Y-84666897D02*
X133942983Y-85020451D01*
G75*
G02*
X133942983Y-85338649I-159099J-159099D01*
G01*
X133624785Y-85656847D01*
G75*
G02*
X133306587Y-85656847I-159099J159099D01*
G01*
X132953033Y-85303293D01*
G75*
G02*
X132953033Y-84985095I159099J159099D01*
G01*
X133271231Y-84666897D01*
G75*
G02*
X133589429Y-84666897I159099J-159099D01*
G01*
G37*
%TD*%
%TO.C,R3*%
G36*
G01*
X124325000Y-79262500D02*
X124325000Y-79737500D01*
G75*
G02*
X124087500Y-79975000I-237500J0D01*
G01*
X123587500Y-79975000D01*
G75*
G02*
X123350000Y-79737500I0J237500D01*
G01*
X123350000Y-79262500D01*
G75*
G02*
X123587500Y-79025000I237500J0D01*
G01*
X124087500Y-79025000D01*
G75*
G02*
X124325000Y-79262500I0J-237500D01*
G01*
G37*
G36*
G01*
X126150000Y-79262500D02*
X126150000Y-79737500D01*
G75*
G02*
X125912500Y-79975000I-237500J0D01*
G01*
X125412500Y-79975000D01*
G75*
G02*
X125175000Y-79737500I0J237500D01*
G01*
X125175000Y-79262500D01*
G75*
G02*
X125412500Y-79025000I237500J0D01*
G01*
X125912500Y-79025000D01*
G75*
G02*
X126150000Y-79262500I0J-237500D01*
G01*
G37*
%TD*%
D10*
%TO.C,D3*%
X125700000Y-76600000D03*
X125700000Y-77900000D03*
X123800000Y-77250000D03*
X125700000Y-77250000D03*
X123800000Y-77900000D03*
X123800000Y-76600000D03*
%TD*%
D11*
%TO.C,D2*%
X108000000Y-77250000D03*
X110000000Y-76600000D03*
X110000000Y-77900000D03*
%TD*%
D10*
%TO.C,D1*%
X114950000Y-76600000D03*
X114950000Y-77900000D03*
X113050000Y-77250000D03*
X114950000Y-77250000D03*
X113050000Y-77900000D03*
X113050000Y-76600000D03*
%TD*%
D12*
%TO.C,SW1*%
X127150000Y-99180000D03*
X131650000Y-99180000D03*
X131650000Y-91220000D03*
X127150000Y-91220000D03*
%TD*%
%TO.C,Reg1*%
G36*
G01*
X133850450Y-98350000D02*
X132949550Y-98350000D01*
G75*
G02*
X132700000Y-98100450I0J249550D01*
G01*
X132700000Y-97449550D01*
G75*
G02*
X132949550Y-97200000I249550J0D01*
G01*
X133850450Y-97200000D01*
G75*
G02*
X134100000Y-97449550I0J-249550D01*
G01*
X134100000Y-98100450D01*
G75*
G02*
X133850450Y-98350000I-249550J0D01*
G01*
G37*
G36*
G01*
X133850450Y-96300000D02*
X132949550Y-96300000D01*
G75*
G02*
X132700000Y-96050450I0J249550D01*
G01*
X132700000Y-95399550D01*
G75*
G02*
X132949550Y-95150000I249550J0D01*
G01*
X133850450Y-95150000D01*
G75*
G02*
X134100000Y-95399550I0J-249550D01*
G01*
X134100000Y-96050450D01*
G75*
G02*
X133850450Y-96300000I-249550J0D01*
G01*
G37*
G36*
G01*
X135650000Y-96075626D02*
X135650000Y-94824374D01*
G75*
G02*
X135899374Y-94575000I249374J0D01*
G01*
X136825626Y-94575000D01*
G75*
G02*
X137075000Y-94824374I0J-249374D01*
G01*
X137075000Y-96075626D01*
G75*
G02*
X136825626Y-96325000I-249374J0D01*
G01*
X135899374Y-96325000D01*
G75*
G02*
X135650000Y-96075626I0J249374D01*
G01*
G37*
G36*
G01*
X138625000Y-96075626D02*
X138625000Y-94824374D01*
G75*
G02*
X138874374Y-94575000I249374J0D01*
G01*
X139800626Y-94575000D01*
G75*
G02*
X140050000Y-94824374I0J-249374D01*
G01*
X140050000Y-96075626D01*
G75*
G02*
X139800626Y-96325000I-249374J0D01*
G01*
X138874374Y-96325000D01*
G75*
G02*
X138625000Y-96075626I0J249374D01*
G01*
G37*
D13*
X139350000Y-92450000D03*
X136350000Y-92450000D03*
G36*
G01*
X138800000Y-98150450D02*
X138800000Y-97249550D01*
G75*
G02*
X139049550Y-97000000I249550J0D01*
G01*
X139700450Y-97000000D01*
G75*
G02*
X139950000Y-97249550I0J-249550D01*
G01*
X139950000Y-98150450D01*
G75*
G02*
X139700450Y-98400000I-249550J0D01*
G01*
X139049550Y-98400000D01*
G75*
G02*
X138800000Y-98150450I0J249550D01*
G01*
G37*
G36*
G01*
X136750000Y-98150450D02*
X136750000Y-97249550D01*
G75*
G02*
X136999550Y-97000000I249550J0D01*
G01*
X137650450Y-97000000D01*
G75*
G02*
X137900000Y-97249550I0J-249550D01*
G01*
X137900000Y-98150450D01*
G75*
G02*
X137650450Y-98400000I-249550J0D01*
G01*
X136999550Y-98400000D01*
G75*
G02*
X136750000Y-98150450I0J249550D01*
G01*
G37*
G36*
G01*
X135087500Y-98100000D02*
X134612500Y-98100000D01*
G75*
G02*
X134375000Y-97862500I0J237500D01*
G01*
X134375000Y-97262500D01*
G75*
G02*
X134612500Y-97025000I237500J0D01*
G01*
X135087500Y-97025000D01*
G75*
G02*
X135325000Y-97262500I0J-237500D01*
G01*
X135325000Y-97862500D01*
G75*
G02*
X135087500Y-98100000I-237500J0D01*
G01*
G37*
G36*
G01*
X135087500Y-96375000D02*
X134612500Y-96375000D01*
G75*
G02*
X134375000Y-96137500I0J237500D01*
G01*
X134375000Y-95537500D01*
G75*
G02*
X134612500Y-95300000I237500J0D01*
G01*
X135087500Y-95300000D01*
G75*
G02*
X135325000Y-95537500I0J-237500D01*
G01*
X135325000Y-96137500D01*
G75*
G02*
X135087500Y-96375000I-237500J0D01*
G01*
G37*
D14*
X133150000Y-94050000D03*
X134100000Y-94050000D03*
X135050000Y-94050000D03*
X135050000Y-91350000D03*
X133150000Y-91350000D03*
X134100000Y-91350000D03*
%TD*%
%TO.C,D5*%
G36*
G01*
X138025000Y-88625000D02*
X138025000Y-87375000D01*
G75*
G02*
X138275000Y-87125000I250000J0D01*
G01*
X139200000Y-87125000D01*
G75*
G02*
X139450000Y-87375000I0J-250000D01*
G01*
X139450000Y-88625000D01*
G75*
G02*
X139200000Y-88875000I-250000J0D01*
G01*
X138275000Y-88875000D01*
G75*
G02*
X138025000Y-88625000I0J250000D01*
G01*
G37*
G36*
G01*
X135050000Y-88625000D02*
X135050000Y-87375000D01*
G75*
G02*
X135300000Y-87125000I250000J0D01*
G01*
X136225000Y-87125000D01*
G75*
G02*
X136475000Y-87375000I0J-250000D01*
G01*
X136475000Y-88625000D01*
G75*
G02*
X136225000Y-88875000I-250000J0D01*
G01*
X135300000Y-88875000D01*
G75*
G02*
X135050000Y-88625000I0J250000D01*
G01*
G37*
%TD*%
D15*
%TO.C,Q1*%
X147000000Y-88000000D03*
X145000000Y-88950000D03*
X145000000Y-87050000D03*
%TD*%
%TO.C,D4*%
G36*
G01*
X127650000Y-87262500D02*
X127650000Y-87737500D01*
G75*
G02*
X127412500Y-87975000I-237500J0D01*
G01*
X126837500Y-87975000D01*
G75*
G02*
X126600000Y-87737500I0J237500D01*
G01*
X126600000Y-87262500D01*
G75*
G02*
X126837500Y-87025000I237500J0D01*
G01*
X127412500Y-87025000D01*
G75*
G02*
X127650000Y-87262500I0J-237500D01*
G01*
G37*
G36*
G01*
X129400000Y-87262500D02*
X129400000Y-87737500D01*
G75*
G02*
X129162500Y-87975000I-237500J0D01*
G01*
X128587500Y-87975000D01*
G75*
G02*
X128350000Y-87737500I0J237500D01*
G01*
X128350000Y-87262500D01*
G75*
G02*
X128587500Y-87025000I237500J0D01*
G01*
X129162500Y-87025000D01*
G75*
G02*
X129400000Y-87262500I0J-237500D01*
G01*
G37*
%TD*%
%TO.C,J1*%
G36*
G01*
X147642500Y-81150000D02*
X147177500Y-81150000D01*
G75*
G02*
X146945000Y-80917500I0J232500D01*
G01*
X146945000Y-80452500D01*
G75*
G02*
X147177500Y-80220000I232500J0D01*
G01*
X147642500Y-80220000D01*
G75*
G02*
X147875000Y-80452500I0J-232500D01*
G01*
X147875000Y-80917500D01*
G75*
G02*
X147642500Y-81150000I-232500J0D01*
G01*
G37*
G36*
G01*
X148792500Y-81150000D02*
X148327500Y-81150000D01*
G75*
G02*
X148095000Y-80917500I0J232500D01*
G01*
X148095000Y-80452500D01*
G75*
G02*
X148327500Y-80220000I232500J0D01*
G01*
X148792500Y-80220000D01*
G75*
G02*
X149025000Y-80452500I0J-232500D01*
G01*
X149025000Y-80917500D01*
G75*
G02*
X148792500Y-81150000I-232500J0D01*
G01*
G37*
G36*
G01*
X149942500Y-81150000D02*
X149477500Y-81150000D01*
G75*
G02*
X149245000Y-80917500I0J232500D01*
G01*
X149245000Y-80452500D01*
G75*
G02*
X149477500Y-80220000I232500J0D01*
G01*
X149942500Y-80220000D01*
G75*
G02*
X150175000Y-80452500I0J-232500D01*
G01*
X150175000Y-80917500D01*
G75*
G02*
X149942500Y-81150000I-232500J0D01*
G01*
G37*
G36*
G01*
X146492500Y-80000000D02*
X146027500Y-80000000D01*
G75*
G02*
X145795000Y-79767500I0J232500D01*
G01*
X145795000Y-79302500D01*
G75*
G02*
X146027500Y-79070000I232500J0D01*
G01*
X146492500Y-79070000D01*
G75*
G02*
X146725000Y-79302500I0J-232500D01*
G01*
X146725000Y-79767500D01*
G75*
G02*
X146492500Y-80000000I-232500J0D01*
G01*
G37*
G36*
G01*
X147642500Y-80000000D02*
X147177500Y-80000000D01*
G75*
G02*
X146945000Y-79767500I0J232500D01*
G01*
X146945000Y-79302500D01*
G75*
G02*
X147177500Y-79070000I232500J0D01*
G01*
X147642500Y-79070000D01*
G75*
G02*
X147875000Y-79302500I0J-232500D01*
G01*
X147875000Y-79767500D01*
G75*
G02*
X147642500Y-80000000I-232500J0D01*
G01*
G37*
G36*
G01*
X148792500Y-80000000D02*
X148327500Y-80000000D01*
G75*
G02*
X148095000Y-79767500I0J232500D01*
G01*
X148095000Y-79302500D01*
G75*
G02*
X148327500Y-79070000I232500J0D01*
G01*
X148792500Y-79070000D01*
G75*
G02*
X149025000Y-79302500I0J-232500D01*
G01*
X149025000Y-79767500D01*
G75*
G02*
X148792500Y-80000000I-232500J0D01*
G01*
G37*
G36*
G01*
X149942500Y-80000000D02*
X149477500Y-80000000D01*
G75*
G02*
X149245000Y-79767500I0J232500D01*
G01*
X149245000Y-79302500D01*
G75*
G02*
X149477500Y-79070000I232500J0D01*
G01*
X149942500Y-79070000D01*
G75*
G02*
X150175000Y-79302500I0J-232500D01*
G01*
X150175000Y-79767500D01*
G75*
G02*
X149942500Y-80000000I-232500J0D01*
G01*
G37*
G36*
G01*
X146492500Y-78850000D02*
X146027500Y-78850000D01*
G75*
G02*
X145795000Y-78617500I0J232500D01*
G01*
X145795000Y-78152500D01*
G75*
G02*
X146027500Y-77920000I232500J0D01*
G01*
X146492500Y-77920000D01*
G75*
G02*
X146725000Y-78152500I0J-232500D01*
G01*
X146725000Y-78617500D01*
G75*
G02*
X146492500Y-78850000I-232500J0D01*
G01*
G37*
G36*
G01*
X147642500Y-78850000D02*
X147177500Y-78850000D01*
G75*
G02*
X146945000Y-78617500I0J232500D01*
G01*
X146945000Y-78152500D01*
G75*
G02*
X147177500Y-77920000I232500J0D01*
G01*
X147642500Y-77920000D01*
G75*
G02*
X147875000Y-78152500I0J-232500D01*
G01*
X147875000Y-78617500D01*
G75*
G02*
X147642500Y-78850000I-232500J0D01*
G01*
G37*
G36*
G01*
X148792500Y-78850000D02*
X148327500Y-78850000D01*
G75*
G02*
X148095000Y-78617500I0J232500D01*
G01*
X148095000Y-78152500D01*
G75*
G02*
X148327500Y-77920000I232500J0D01*
G01*
X148792500Y-77920000D01*
G75*
G02*
X149025000Y-78152500I0J-232500D01*
G01*
X149025000Y-78617500D01*
G75*
G02*
X148792500Y-78850000I-232500J0D01*
G01*
G37*
G36*
G01*
X149942500Y-78850000D02*
X149477500Y-78850000D01*
G75*
G02*
X149245000Y-78617500I0J232500D01*
G01*
X149245000Y-78152500D01*
G75*
G02*
X149477500Y-77920000I232500J0D01*
G01*
X149942500Y-77920000D01*
G75*
G02*
X150175000Y-78152500I0J-232500D01*
G01*
X150175000Y-78617500D01*
G75*
G02*
X149942500Y-78850000I-232500J0D01*
G01*
G37*
G36*
G01*
X146492500Y-82300000D02*
X146027500Y-82300000D01*
G75*
G02*
X145795000Y-82067500I0J232500D01*
G01*
X145795000Y-81602500D01*
G75*
G02*
X146027500Y-81370000I232500J0D01*
G01*
X146492500Y-81370000D01*
G75*
G02*
X146725000Y-81602500I0J-232500D01*
G01*
X146725000Y-82067500D01*
G75*
G02*
X146492500Y-82300000I-232500J0D01*
G01*
G37*
G36*
G01*
X147642500Y-82300000D02*
X147177500Y-82300000D01*
G75*
G02*
X146945000Y-82067500I0J232500D01*
G01*
X146945000Y-81602500D01*
G75*
G02*
X147177500Y-81370000I232500J0D01*
G01*
X147642500Y-81370000D01*
G75*
G02*
X147875000Y-81602500I0J-232500D01*
G01*
X147875000Y-82067500D01*
G75*
G02*
X147642500Y-82300000I-232500J0D01*
G01*
G37*
G36*
G01*
X148792500Y-82300000D02*
X148327500Y-82300000D01*
G75*
G02*
X148095000Y-82067500I0J232500D01*
G01*
X148095000Y-81602500D01*
G75*
G02*
X148327500Y-81370000I232500J0D01*
G01*
X148792500Y-81370000D01*
G75*
G02*
X149025000Y-81602500I0J-232500D01*
G01*
X149025000Y-82067500D01*
G75*
G02*
X148792500Y-82300000I-232500J0D01*
G01*
G37*
G36*
G01*
X149942500Y-82300000D02*
X149477500Y-82300000D01*
G75*
G02*
X149245000Y-82067500I0J232500D01*
G01*
X149245000Y-81602500D01*
G75*
G02*
X149477500Y-81370000I232500J0D01*
G01*
X149942500Y-81370000D01*
G75*
G02*
X150175000Y-81602500I0J-232500D01*
G01*
X150175000Y-82067500D01*
G75*
G02*
X149942500Y-82300000I-232500J0D01*
G01*
G37*
G36*
G01*
X146492500Y-81150000D02*
X146027500Y-81150000D01*
G75*
G02*
X145795000Y-80917500I0J232500D01*
G01*
X145795000Y-80452500D01*
G75*
G02*
X146027500Y-80220000I232500J0D01*
G01*
X146492500Y-80220000D01*
G75*
G02*
X146725000Y-80452500I0J-232500D01*
G01*
X146725000Y-80917500D01*
G75*
G02*
X146492500Y-81150000I-232500J0D01*
G01*
G37*
D16*
X143835000Y-82500000D03*
X143835000Y-77700000D03*
D17*
X143835000Y-79850000D03*
X143835000Y-80350000D03*
X143835000Y-79350000D03*
X143835000Y-80850000D03*
X143835000Y-78850000D03*
X143835000Y-81350000D03*
X143835000Y-78350000D03*
X143835000Y-81850000D03*
D16*
X143835000Y-76900000D03*
X143835000Y-83300000D03*
%TD*%
%TO.C,Reg2*%
G36*
G01*
X142650450Y-98450000D02*
X141749550Y-98450000D01*
G75*
G02*
X141500000Y-98200450I0J249550D01*
G01*
X141500000Y-97549550D01*
G75*
G02*
X141749550Y-97300000I249550J0D01*
G01*
X142650450Y-97300000D01*
G75*
G02*
X142900000Y-97549550I0J-249550D01*
G01*
X142900000Y-98200450D01*
G75*
G02*
X142650450Y-98450000I-249550J0D01*
G01*
G37*
G36*
G01*
X142650450Y-96400000D02*
X141749550Y-96400000D01*
G75*
G02*
X141500000Y-96150450I0J249550D01*
G01*
X141500000Y-95499550D01*
G75*
G02*
X141749550Y-95250000I249550J0D01*
G01*
X142650450Y-95250000D01*
G75*
G02*
X142900000Y-95499550I0J-249550D01*
G01*
X142900000Y-96150450D01*
G75*
G02*
X142650450Y-96400000I-249550J0D01*
G01*
G37*
G36*
G01*
X144450000Y-96175626D02*
X144450000Y-94924374D01*
G75*
G02*
X144699374Y-94675000I249374J0D01*
G01*
X145625626Y-94675000D01*
G75*
G02*
X145875000Y-94924374I0J-249374D01*
G01*
X145875000Y-96175626D01*
G75*
G02*
X145625626Y-96425000I-249374J0D01*
G01*
X144699374Y-96425000D01*
G75*
G02*
X144450000Y-96175626I0J249374D01*
G01*
G37*
G36*
G01*
X147425000Y-96175626D02*
X147425000Y-94924374D01*
G75*
G02*
X147674374Y-94675000I249374J0D01*
G01*
X148600626Y-94675000D01*
G75*
G02*
X148850000Y-94924374I0J-249374D01*
G01*
X148850000Y-96175626D01*
G75*
G02*
X148600626Y-96425000I-249374J0D01*
G01*
X147674374Y-96425000D01*
G75*
G02*
X147425000Y-96175626I0J249374D01*
G01*
G37*
D13*
X148150000Y-92550000D03*
X145150000Y-92550000D03*
G36*
G01*
X147600000Y-98250450D02*
X147600000Y-97349550D01*
G75*
G02*
X147849550Y-97100000I249550J0D01*
G01*
X148500450Y-97100000D01*
G75*
G02*
X148750000Y-97349550I0J-249550D01*
G01*
X148750000Y-98250450D01*
G75*
G02*
X148500450Y-98500000I-249550J0D01*
G01*
X147849550Y-98500000D01*
G75*
G02*
X147600000Y-98250450I0J249550D01*
G01*
G37*
G36*
G01*
X145550000Y-98250450D02*
X145550000Y-97349550D01*
G75*
G02*
X145799550Y-97100000I249550J0D01*
G01*
X146450450Y-97100000D01*
G75*
G02*
X146700000Y-97349550I0J-249550D01*
G01*
X146700000Y-98250450D01*
G75*
G02*
X146450450Y-98500000I-249550J0D01*
G01*
X145799550Y-98500000D01*
G75*
G02*
X145550000Y-98250450I0J249550D01*
G01*
G37*
G36*
G01*
X143887500Y-98200000D02*
X143412500Y-98200000D01*
G75*
G02*
X143175000Y-97962500I0J237500D01*
G01*
X143175000Y-97362500D01*
G75*
G02*
X143412500Y-97125000I237500J0D01*
G01*
X143887500Y-97125000D01*
G75*
G02*
X144125000Y-97362500I0J-237500D01*
G01*
X144125000Y-97962500D01*
G75*
G02*
X143887500Y-98200000I-237500J0D01*
G01*
G37*
G36*
G01*
X143887500Y-96475000D02*
X143412500Y-96475000D01*
G75*
G02*
X143175000Y-96237500I0J237500D01*
G01*
X143175000Y-95637500D01*
G75*
G02*
X143412500Y-95400000I237500J0D01*
G01*
X143887500Y-95400000D01*
G75*
G02*
X144125000Y-95637500I0J-237500D01*
G01*
X144125000Y-96237500D01*
G75*
G02*
X143887500Y-96475000I-237500J0D01*
G01*
G37*
D14*
X141950000Y-94150000D03*
X142900000Y-94150000D03*
X143850000Y-94150000D03*
X143850000Y-91450000D03*
X141950000Y-91450000D03*
X142900000Y-91450000D03*
%TD*%
D18*
%TO.C,U2*%
X135500000Y-85000000D03*
G36*
G01*
X138189000Y-82875000D02*
X137811000Y-82875000D01*
G75*
G02*
X137625000Y-82689000I0J186000D01*
G01*
X137625000Y-82311000D01*
G75*
G02*
X137811000Y-82125000I186000J0D01*
G01*
X138189000Y-82125000D01*
G75*
G02*
X138375000Y-82311000I0J-186000D01*
G01*
X138375000Y-82689000D01*
G75*
G02*
X138189000Y-82875000I-186000J0D01*
G01*
G37*
G36*
G01*
X137189000Y-82875000D02*
X136811000Y-82875000D01*
G75*
G02*
X136625000Y-82689000I0J186000D01*
G01*
X136625000Y-82311000D01*
G75*
G02*
X136811000Y-82125000I186000J0D01*
G01*
X137189000Y-82125000D01*
G75*
G02*
X137375000Y-82311000I0J-186000D01*
G01*
X137375000Y-82689000D01*
G75*
G02*
X137189000Y-82875000I-186000J0D01*
G01*
G37*
G36*
G01*
X138189000Y-83875000D02*
X137811000Y-83875000D01*
G75*
G02*
X137625000Y-83689000I0J186000D01*
G01*
X137625000Y-83311000D01*
G75*
G02*
X137811000Y-83125000I186000J0D01*
G01*
X138189000Y-83125000D01*
G75*
G02*
X138375000Y-83311000I0J-186000D01*
G01*
X138375000Y-83689000D01*
G75*
G02*
X138189000Y-83875000I-186000J0D01*
G01*
G37*
G36*
G01*
X137189000Y-83875000D02*
X136811000Y-83875000D01*
G75*
G02*
X136625000Y-83689000I0J186000D01*
G01*
X136625000Y-83311000D01*
G75*
G02*
X136811000Y-83125000I186000J0D01*
G01*
X137189000Y-83125000D01*
G75*
G02*
X137375000Y-83311000I0J-186000D01*
G01*
X137375000Y-83689000D01*
G75*
G02*
X137189000Y-83875000I-186000J0D01*
G01*
G37*
G36*
G01*
X135937500Y-84125000D02*
X135062500Y-84125000D01*
G75*
G02*
X135000000Y-84062500I0J62500D01*
G01*
X135000000Y-83937500D01*
G75*
G02*
X135062500Y-83875000I62500J0D01*
G01*
X135937500Y-83875000D01*
G75*
G02*
X136000000Y-83937500I0J-62500D01*
G01*
X136000000Y-84062500D01*
G75*
G02*
X135937500Y-84125000I-62500J0D01*
G01*
G37*
G36*
G01*
X135937500Y-83625000D02*
X135062500Y-83625000D01*
G75*
G02*
X135000000Y-83562500I0J62500D01*
G01*
X135000000Y-83437500D01*
G75*
G02*
X135062500Y-83375000I62500J0D01*
G01*
X135937500Y-83375000D01*
G75*
G02*
X136000000Y-83437500I0J-62500D01*
G01*
X136000000Y-83562500D01*
G75*
G02*
X135937500Y-83625000I-62500J0D01*
G01*
G37*
G36*
G01*
X135937500Y-83125000D02*
X135062500Y-83125000D01*
G75*
G02*
X135000000Y-83062500I0J62500D01*
G01*
X135000000Y-82937500D01*
G75*
G02*
X135062500Y-82875000I62500J0D01*
G01*
X135937500Y-82875000D01*
G75*
G02*
X136000000Y-82937500I0J-62500D01*
G01*
X136000000Y-83062500D01*
G75*
G02*
X135937500Y-83125000I-62500J0D01*
G01*
G37*
G36*
G01*
X135937500Y-82625000D02*
X135062500Y-82625000D01*
G75*
G02*
X135000000Y-82562500I0J62500D01*
G01*
X135000000Y-82437500D01*
G75*
G02*
X135062500Y-82375000I62500J0D01*
G01*
X135937500Y-82375000D01*
G75*
G02*
X136000000Y-82437500I0J-62500D01*
G01*
X136000000Y-82562500D01*
G75*
G02*
X135937500Y-82625000I-62500J0D01*
G01*
G37*
G36*
G01*
X135937500Y-82125000D02*
X135062500Y-82125000D01*
G75*
G02*
X135000000Y-82062500I0J62500D01*
G01*
X135000000Y-81937500D01*
G75*
G02*
X135062500Y-81875000I62500J0D01*
G01*
X135937500Y-81875000D01*
G75*
G02*
X136000000Y-81937500I0J-62500D01*
G01*
X136000000Y-82062500D01*
G75*
G02*
X135937500Y-82125000I-62500J0D01*
G01*
G37*
G36*
G01*
X136562500Y-81500000D02*
X136437500Y-81500000D01*
G75*
G02*
X136375000Y-81437500I0J62500D01*
G01*
X136375000Y-80562500D01*
G75*
G02*
X136437500Y-80500000I62500J0D01*
G01*
X136562500Y-80500000D01*
G75*
G02*
X136625000Y-80562500I0J-62500D01*
G01*
X136625000Y-81437500D01*
G75*
G02*
X136562500Y-81500000I-62500J0D01*
G01*
G37*
G36*
G01*
X137062500Y-81500000D02*
X136937500Y-81500000D01*
G75*
G02*
X136875000Y-81437500I0J62500D01*
G01*
X136875000Y-80562500D01*
G75*
G02*
X136937500Y-80500000I62500J0D01*
G01*
X137062500Y-80500000D01*
G75*
G02*
X137125000Y-80562500I0J-62500D01*
G01*
X137125000Y-81437500D01*
G75*
G02*
X137062500Y-81500000I-62500J0D01*
G01*
G37*
G36*
G01*
X137562500Y-81500000D02*
X137437500Y-81500000D01*
G75*
G02*
X137375000Y-81437500I0J62500D01*
G01*
X137375000Y-80562500D01*
G75*
G02*
X137437500Y-80500000I62500J0D01*
G01*
X137562500Y-80500000D01*
G75*
G02*
X137625000Y-80562500I0J-62500D01*
G01*
X137625000Y-81437500D01*
G75*
G02*
X137562500Y-81500000I-62500J0D01*
G01*
G37*
G36*
G01*
X138062500Y-81500000D02*
X137937500Y-81500000D01*
G75*
G02*
X137875000Y-81437500I0J62500D01*
G01*
X137875000Y-80562500D01*
G75*
G02*
X137937500Y-80500000I62500J0D01*
G01*
X138062500Y-80500000D01*
G75*
G02*
X138125000Y-80562500I0J-62500D01*
G01*
X138125000Y-81437500D01*
G75*
G02*
X138062500Y-81500000I-62500J0D01*
G01*
G37*
G36*
G01*
X138562500Y-81500000D02*
X138437500Y-81500000D01*
G75*
G02*
X138375000Y-81437500I0J62500D01*
G01*
X138375000Y-80562500D01*
G75*
G02*
X138437500Y-80500000I62500J0D01*
G01*
X138562500Y-80500000D01*
G75*
G02*
X138625000Y-80562500I0J-62500D01*
G01*
X138625000Y-81437500D01*
G75*
G02*
X138562500Y-81500000I-62500J0D01*
G01*
G37*
G36*
G01*
X139937500Y-82125000D02*
X139062500Y-82125000D01*
G75*
G02*
X139000000Y-82062500I0J62500D01*
G01*
X139000000Y-81937500D01*
G75*
G02*
X139062500Y-81875000I62500J0D01*
G01*
X139937500Y-81875000D01*
G75*
G02*
X140000000Y-81937500I0J-62500D01*
G01*
X140000000Y-82062500D01*
G75*
G02*
X139937500Y-82125000I-62500J0D01*
G01*
G37*
G36*
G01*
X139937500Y-82625000D02*
X139062500Y-82625000D01*
G75*
G02*
X139000000Y-82562500I0J62500D01*
G01*
X139000000Y-82437500D01*
G75*
G02*
X139062500Y-82375000I62500J0D01*
G01*
X139937500Y-82375000D01*
G75*
G02*
X140000000Y-82437500I0J-62500D01*
G01*
X140000000Y-82562500D01*
G75*
G02*
X139937500Y-82625000I-62500J0D01*
G01*
G37*
G36*
G01*
X139937500Y-83125000D02*
X139062500Y-83125000D01*
G75*
G02*
X139000000Y-83062500I0J62500D01*
G01*
X139000000Y-82937500D01*
G75*
G02*
X139062500Y-82875000I62500J0D01*
G01*
X139937500Y-82875000D01*
G75*
G02*
X140000000Y-82937500I0J-62500D01*
G01*
X140000000Y-83062500D01*
G75*
G02*
X139937500Y-83125000I-62500J0D01*
G01*
G37*
G36*
G01*
X139937500Y-83625000D02*
X139062500Y-83625000D01*
G75*
G02*
X139000000Y-83562500I0J62500D01*
G01*
X139000000Y-83437500D01*
G75*
G02*
X139062500Y-83375000I62500J0D01*
G01*
X139937500Y-83375000D01*
G75*
G02*
X140000000Y-83437500I0J-62500D01*
G01*
X140000000Y-83562500D01*
G75*
G02*
X139937500Y-83625000I-62500J0D01*
G01*
G37*
G36*
G01*
X139937500Y-84125000D02*
X139062500Y-84125000D01*
G75*
G02*
X139000000Y-84062500I0J62500D01*
G01*
X139000000Y-83937500D01*
G75*
G02*
X139062500Y-83875000I62500J0D01*
G01*
X139937500Y-83875000D01*
G75*
G02*
X140000000Y-83937500I0J-62500D01*
G01*
X140000000Y-84062500D01*
G75*
G02*
X139937500Y-84125000I-62500J0D01*
G01*
G37*
G36*
G01*
X138562500Y-85500000D02*
X138437500Y-85500000D01*
G75*
G02*
X138375000Y-85437500I0J62500D01*
G01*
X138375000Y-84562500D01*
G75*
G02*
X138437500Y-84500000I62500J0D01*
G01*
X138562500Y-84500000D01*
G75*
G02*
X138625000Y-84562500I0J-62500D01*
G01*
X138625000Y-85437500D01*
G75*
G02*
X138562500Y-85500000I-62500J0D01*
G01*
G37*
G36*
G01*
X138062500Y-85500000D02*
X137937500Y-85500000D01*
G75*
G02*
X137875000Y-85437500I0J62500D01*
G01*
X137875000Y-84562500D01*
G75*
G02*
X137937500Y-84500000I62500J0D01*
G01*
X138062500Y-84500000D01*
G75*
G02*
X138125000Y-84562500I0J-62500D01*
G01*
X138125000Y-85437500D01*
G75*
G02*
X138062500Y-85500000I-62500J0D01*
G01*
G37*
G36*
G01*
X137562500Y-85500000D02*
X137437500Y-85500000D01*
G75*
G02*
X137375000Y-85437500I0J62500D01*
G01*
X137375000Y-84562500D01*
G75*
G02*
X137437500Y-84500000I62500J0D01*
G01*
X137562500Y-84500000D01*
G75*
G02*
X137625000Y-84562500I0J-62500D01*
G01*
X137625000Y-85437500D01*
G75*
G02*
X137562500Y-85500000I-62500J0D01*
G01*
G37*
G36*
G01*
X137062500Y-85500000D02*
X136937500Y-85500000D01*
G75*
G02*
X136875000Y-85437500I0J62500D01*
G01*
X136875000Y-84562500D01*
G75*
G02*
X136937500Y-84500000I62500J0D01*
G01*
X137062500Y-84500000D01*
G75*
G02*
X137125000Y-84562500I0J-62500D01*
G01*
X137125000Y-85437500D01*
G75*
G02*
X137062500Y-85500000I-62500J0D01*
G01*
G37*
G36*
G01*
X136562500Y-85500000D02*
X136437500Y-85500000D01*
G75*
G02*
X136375000Y-85437500I0J62500D01*
G01*
X136375000Y-84562500D01*
G75*
G02*
X136437500Y-84500000I62500J0D01*
G01*
X136562500Y-84500000D01*
G75*
G02*
X136625000Y-84562500I0J-62500D01*
G01*
X136625000Y-85437500D01*
G75*
G02*
X136562500Y-85500000I-62500J0D01*
G01*
G37*
%TD*%
D19*
%TO.C,U3*%
X135500000Y-78020000D03*
X135500000Y-75480000D03*
X129500000Y-75480000D03*
X129500000Y-78020000D03*
%TD*%
D20*
%TO.C,U1*%
X107500000Y-81850000D03*
X108770000Y-81850000D03*
X110040000Y-81850000D03*
X111310000Y-81850000D03*
X112580000Y-81850000D03*
X113850000Y-81850000D03*
X115120000Y-81850000D03*
X116390000Y-81850000D03*
X117660000Y-81850000D03*
X118930000Y-81850000D03*
X120200000Y-81850000D03*
X121470000Y-81850000D03*
X122740000Y-81850000D03*
X124010000Y-81850000D03*
D21*
X125010000Y-84635000D03*
X125010000Y-85905000D03*
X125010000Y-87175000D03*
X125010000Y-88445000D03*
X125010000Y-89715000D03*
X125010000Y-90985000D03*
X125010000Y-92255000D03*
X125010000Y-93525000D03*
X125010000Y-94795000D03*
X125010000Y-96065000D03*
D20*
X124010000Y-98850000D03*
X122740000Y-98850000D03*
X121470000Y-98850000D03*
X120200000Y-98850000D03*
X118930000Y-98850000D03*
X117660000Y-98850000D03*
X116390000Y-98850000D03*
X115120000Y-98850000D03*
X113850000Y-98850000D03*
X112580000Y-98850000D03*
X111310000Y-98850000D03*
X110040000Y-98850000D03*
X108770000Y-98850000D03*
X107500000Y-98850000D03*
D22*
X115000000Y-91350000D03*
%TD*%
M02*
