%TF.GenerationSoftware,KiCad,Pcbnew,(5.1.9-0-10_14)*%
%TF.CreationDate,2021-05-03T13:21:56+01:00*%
%TF.ProjectId,Access,41636365-7373-42e6-9b69-6361645f7063,1*%
%TF.SameCoordinates,Original*%
%TF.FileFunction,Paste,Bot*%
%TF.FilePolarity,Positive*%
%FSLAX46Y46*%
G04 Gerber Fmt 4.6, Leading zero omitted, Abs format (unit mm)*
G04 Created by KiCad (PCBNEW (5.1.9-0-10_14)) date 2021-05-03 13:21:56*
%MOMM*%
%LPD*%
G01*
G04 APERTURE LIST*
G04 APERTURE END LIST*
%TO.C,R11*%
G36*
G01*
X137737500Y-91075000D02*
X137262500Y-91075000D01*
G75*
G02*
X137025000Y-90837500I0J237500D01*
G01*
X137025000Y-90337500D01*
G75*
G02*
X137262500Y-90100000I237500J0D01*
G01*
X137737500Y-90100000D01*
G75*
G02*
X137975000Y-90337500I0J-237500D01*
G01*
X137975000Y-90837500D01*
G75*
G02*
X137737500Y-91075000I-237500J0D01*
G01*
G37*
G36*
G01*
X137737500Y-92900000D02*
X137262500Y-92900000D01*
G75*
G02*
X137025000Y-92662500I0J237500D01*
G01*
X137025000Y-92162500D01*
G75*
G02*
X137262500Y-91925000I237500J0D01*
G01*
X137737500Y-91925000D01*
G75*
G02*
X137975000Y-92162500I0J-237500D01*
G01*
X137975000Y-92662500D01*
G75*
G02*
X137737500Y-92900000I-237500J0D01*
G01*
G37*
%TD*%
%TO.C,R9*%
G36*
G01*
X141737500Y-91075000D02*
X141262500Y-91075000D01*
G75*
G02*
X141025000Y-90837500I0J237500D01*
G01*
X141025000Y-90337500D01*
G75*
G02*
X141262500Y-90100000I237500J0D01*
G01*
X141737500Y-90100000D01*
G75*
G02*
X141975000Y-90337500I0J-237500D01*
G01*
X141975000Y-90837500D01*
G75*
G02*
X141737500Y-91075000I-237500J0D01*
G01*
G37*
G36*
G01*
X141737500Y-92900000D02*
X141262500Y-92900000D01*
G75*
G02*
X141025000Y-92662500I0J237500D01*
G01*
X141025000Y-92162500D01*
G75*
G02*
X141262500Y-91925000I237500J0D01*
G01*
X141737500Y-91925000D01*
G75*
G02*
X141975000Y-92162500I0J-237500D01*
G01*
X141975000Y-92662500D01*
G75*
G02*
X141737500Y-92900000I-237500J0D01*
G01*
G37*
%TD*%
%TO.C,R8*%
G36*
G01*
X143262500Y-91925000D02*
X143737500Y-91925000D01*
G75*
G02*
X143975000Y-92162500I0J-237500D01*
G01*
X143975000Y-92662500D01*
G75*
G02*
X143737500Y-92900000I-237500J0D01*
G01*
X143262500Y-92900000D01*
G75*
G02*
X143025000Y-92662500I0J237500D01*
G01*
X143025000Y-92162500D01*
G75*
G02*
X143262500Y-91925000I237500J0D01*
G01*
G37*
G36*
G01*
X143262500Y-90100000D02*
X143737500Y-90100000D01*
G75*
G02*
X143975000Y-90337500I0J-237500D01*
G01*
X143975000Y-90837500D01*
G75*
G02*
X143737500Y-91075000I-237500J0D01*
G01*
X143262500Y-91075000D01*
G75*
G02*
X143025000Y-90837500I0J237500D01*
G01*
X143025000Y-90337500D01*
G75*
G02*
X143262500Y-90100000I237500J0D01*
G01*
G37*
%TD*%
%TO.C,R7*%
G36*
G01*
X145262500Y-91925000D02*
X145737500Y-91925000D01*
G75*
G02*
X145975000Y-92162500I0J-237500D01*
G01*
X145975000Y-92662500D01*
G75*
G02*
X145737500Y-92900000I-237500J0D01*
G01*
X145262500Y-92900000D01*
G75*
G02*
X145025000Y-92662500I0J237500D01*
G01*
X145025000Y-92162500D01*
G75*
G02*
X145262500Y-91925000I237500J0D01*
G01*
G37*
G36*
G01*
X145262500Y-90100000D02*
X145737500Y-90100000D01*
G75*
G02*
X145975000Y-90337500I0J-237500D01*
G01*
X145975000Y-90837500D01*
G75*
G02*
X145737500Y-91075000I-237500J0D01*
G01*
X145262500Y-91075000D01*
G75*
G02*
X145025000Y-90837500I0J237500D01*
G01*
X145025000Y-90337500D01*
G75*
G02*
X145262500Y-90100000I237500J0D01*
G01*
G37*
%TD*%
%TO.C,R6*%
G36*
G01*
X146275000Y-78762500D02*
X146275000Y-79237500D01*
G75*
G02*
X146037500Y-79475000I-237500J0D01*
G01*
X145537500Y-79475000D01*
G75*
G02*
X145300000Y-79237500I0J237500D01*
G01*
X145300000Y-78762500D01*
G75*
G02*
X145537500Y-78525000I237500J0D01*
G01*
X146037500Y-78525000D01*
G75*
G02*
X146275000Y-78762500I0J-237500D01*
G01*
G37*
G36*
G01*
X148100000Y-78762500D02*
X148100000Y-79237500D01*
G75*
G02*
X147862500Y-79475000I-237500J0D01*
G01*
X147362500Y-79475000D01*
G75*
G02*
X147125000Y-79237500I0J237500D01*
G01*
X147125000Y-78762500D01*
G75*
G02*
X147362500Y-78525000I237500J0D01*
G01*
X147862500Y-78525000D01*
G75*
G02*
X148100000Y-78762500I0J-237500D01*
G01*
G37*
%TD*%
%TO.C,R5*%
G36*
G01*
X147125000Y-81537500D02*
X147125000Y-81062500D01*
G75*
G02*
X147362500Y-80825000I237500J0D01*
G01*
X147862500Y-80825000D01*
G75*
G02*
X148100000Y-81062500I0J-237500D01*
G01*
X148100000Y-81537500D01*
G75*
G02*
X147862500Y-81775000I-237500J0D01*
G01*
X147362500Y-81775000D01*
G75*
G02*
X147125000Y-81537500I0J237500D01*
G01*
G37*
G36*
G01*
X145300000Y-81537500D02*
X145300000Y-81062500D01*
G75*
G02*
X145537500Y-80825000I237500J0D01*
G01*
X146037500Y-80825000D01*
G75*
G02*
X146275000Y-81062500I0J-237500D01*
G01*
X146275000Y-81537500D01*
G75*
G02*
X146037500Y-81775000I-237500J0D01*
G01*
X145537500Y-81775000D01*
G75*
G02*
X145300000Y-81537500I0J237500D01*
G01*
G37*
%TD*%
%TO.C,R1*%
G36*
G01*
X136575000Y-77762500D02*
X136575000Y-78237500D01*
G75*
G02*
X136337500Y-78475000I-237500J0D01*
G01*
X135837500Y-78475000D01*
G75*
G02*
X135600000Y-78237500I0J237500D01*
G01*
X135600000Y-77762500D01*
G75*
G02*
X135837500Y-77525000I237500J0D01*
G01*
X136337500Y-77525000D01*
G75*
G02*
X136575000Y-77762500I0J-237500D01*
G01*
G37*
G36*
G01*
X138400000Y-77762500D02*
X138400000Y-78237500D01*
G75*
G02*
X138162500Y-78475000I-237500J0D01*
G01*
X137662500Y-78475000D01*
G75*
G02*
X137425000Y-78237500I0J237500D01*
G01*
X137425000Y-77762500D01*
G75*
G02*
X137662500Y-77525000I237500J0D01*
G01*
X138162500Y-77525000D01*
G75*
G02*
X138400000Y-77762500I0J-237500D01*
G01*
G37*
%TD*%
%TO.C,R4*%
G36*
G01*
X110925000Y-78237500D02*
X110925000Y-77762500D01*
G75*
G02*
X111162500Y-77525000I237500J0D01*
G01*
X111662500Y-77525000D01*
G75*
G02*
X111900000Y-77762500I0J-237500D01*
G01*
X111900000Y-78237500D01*
G75*
G02*
X111662500Y-78475000I-237500J0D01*
G01*
X111162500Y-78475000D01*
G75*
G02*
X110925000Y-78237500I0J237500D01*
G01*
G37*
G36*
G01*
X109100000Y-78237500D02*
X109100000Y-77762500D01*
G75*
G02*
X109337500Y-77525000I237500J0D01*
G01*
X109837500Y-77525000D01*
G75*
G02*
X110075000Y-77762500I0J-237500D01*
G01*
X110075000Y-78237500D01*
G75*
G02*
X109837500Y-78475000I-237500J0D01*
G01*
X109337500Y-78475000D01*
G75*
G02*
X109100000Y-78237500I0J237500D01*
G01*
G37*
%TD*%
%TO.C,R3*%
G36*
G01*
X119925000Y-78237500D02*
X119925000Y-77762500D01*
G75*
G02*
X120162500Y-77525000I237500J0D01*
G01*
X120662500Y-77525000D01*
G75*
G02*
X120900000Y-77762500I0J-237500D01*
G01*
X120900000Y-78237500D01*
G75*
G02*
X120662500Y-78475000I-237500J0D01*
G01*
X120162500Y-78475000D01*
G75*
G02*
X119925000Y-78237500I0J237500D01*
G01*
G37*
G36*
G01*
X118100000Y-78237500D02*
X118100000Y-77762500D01*
G75*
G02*
X118337500Y-77525000I237500J0D01*
G01*
X118837500Y-77525000D01*
G75*
G02*
X119075000Y-77762500I0J-237500D01*
G01*
X119075000Y-78237500D01*
G75*
G02*
X118837500Y-78475000I-237500J0D01*
G01*
X118337500Y-78475000D01*
G75*
G02*
X118100000Y-78237500I0J237500D01*
G01*
G37*
%TD*%
%TO.C,R2*%
G36*
G01*
X128925000Y-78237500D02*
X128925000Y-77762500D01*
G75*
G02*
X129162500Y-77525000I237500J0D01*
G01*
X129662500Y-77525000D01*
G75*
G02*
X129900000Y-77762500I0J-237500D01*
G01*
X129900000Y-78237500D01*
G75*
G02*
X129662500Y-78475000I-237500J0D01*
G01*
X129162500Y-78475000D01*
G75*
G02*
X128925000Y-78237500I0J237500D01*
G01*
G37*
G36*
G01*
X127100000Y-78237500D02*
X127100000Y-77762500D01*
G75*
G02*
X127337500Y-77525000I237500J0D01*
G01*
X127837500Y-77525000D01*
G75*
G02*
X128075000Y-77762500I0J-237500D01*
G01*
X128075000Y-78237500D01*
G75*
G02*
X127837500Y-78475000I-237500J0D01*
G01*
X127337500Y-78475000D01*
G75*
G02*
X127100000Y-78237500I0J237500D01*
G01*
G37*
%TD*%
%TO.C,R10*%
G36*
G01*
X139262500Y-91925000D02*
X139737500Y-91925000D01*
G75*
G02*
X139975000Y-92162500I0J-237500D01*
G01*
X139975000Y-92662500D01*
G75*
G02*
X139737500Y-92900000I-237500J0D01*
G01*
X139262500Y-92900000D01*
G75*
G02*
X139025000Y-92662500I0J237500D01*
G01*
X139025000Y-92162500D01*
G75*
G02*
X139262500Y-91925000I237500J0D01*
G01*
G37*
G36*
G01*
X139262500Y-90100000D02*
X139737500Y-90100000D01*
G75*
G02*
X139975000Y-90337500I0J-237500D01*
G01*
X139975000Y-90837500D01*
G75*
G02*
X139737500Y-91075000I-237500J0D01*
G01*
X139262500Y-91075000D01*
G75*
G02*
X139025000Y-90837500I0J237500D01*
G01*
X139025000Y-90337500D01*
G75*
G02*
X139262500Y-90100000I237500J0D01*
G01*
G37*
%TD*%
M02*
