M48
; DRILL file {KiCad (5.1.9-0-10_14)} date Sunday, July 18, 2021 at 09:19:11 AM
; FORMAT={-:-/ absolute / inch / decimal}
; #@! TF.CreationDate,2021-07-18T09:19:11+01:00
; #@! TF.GenerationSoftware,Kicad,Pcbnew,(5.1.9-0-10_14)
; #@! TF.FileFunction,Plated,1,2,PTH
FMAT,2
INCH
T1C0.0098
T2C0.0157
T3C0.0236
T4C0.0256
T5C0.0335
T6C0.0394
T7C0.0492
T8C0.0512
T9C0.1260
%
G90
G05
T1
X5.0098Y-3.2874
X5.0984Y-3.1988
X5.0984Y-3.376
X5.187Y-3.2874
X5.4134Y-3.2677
T2
X4.2618Y-3.061
X4.3937Y-3.4409
X4.3968Y-3.061
X4.4323Y-3.2906
X4.4716Y-3.061
X4.6032Y-3.061
X4.6358Y-3.5236
X4.6772Y-3.7402
X4.6783Y-3.061
X4.7047Y-3.4252
X4.7913Y-3.2913
X4.7992Y-3.6024
X4.8099Y-3.061
X4.8409Y-3.4281
X4.8425Y-3.5157
X4.885Y-3.061
X4.9488Y-3.1024
X5.0166Y-3.061
X5.063Y-3.5118
X5.0787Y-3.5709
X5.1655Y-3.5032
X5.2362Y-3.5157
X5.2756Y-3.2917
X5.2756Y-3.1772
X5.2767Y-3.2523
X5.2793Y-3.4086
X5.2879Y-3.2146
X5.3553Y-3.3851
X5.3927Y-3.4843
X5.4134Y-3.1102
X5.443Y-3.871
X5.464Y-3.3912
X5.485Y-3.6972
X5.5217Y-3.1102
X5.5704Y-3.2082
X5.5709Y-3.1102
X5.5778Y-3.1555
X5.6102Y-3.2087
X5.6168Y-3.1119
X5.623Y-3.3074
X5.6493Y-3.5323
X5.657Y-3.4398
X5.7551Y-3.8772
X5.8028Y-3.698
X5.8205Y-3.5067
X5.8776Y-3.8921
T3
X5.7049Y-3.0398
X5.7049Y-3.2673
T4
X5.4126Y-3.0217
X5.4626Y-3.0217
T5
X4.0551Y-2.8602
X4.1535Y-2.8602
X4.252Y-2.8602
X4.3504Y-2.8602
X4.4488Y-2.8602
X4.5472Y-2.8602
X4.7638Y-2.8602
X4.8622Y-2.8602
X4.9606Y-2.8602
X5.0591Y-2.8602
X5.2756Y-2.8602
X5.374Y-2.8602
X5.4724Y-2.8602
X5.689Y-2.8602
X5.7874Y-2.8602
T6
X5.8498Y-2.9835
X5.8498Y-3.3236
T7
X5.6856Y-2.9835
X5.6856Y-3.3236
T8
X5.0945Y-3.6465
X5.0945Y-3.8465
T9
X5.0984Y-3.2874
T0
M30
