M48
; DRILL file {KiCad (6.0.2-0)} date Wednesday, 06 April 2022 at 10:25:13
; FORMAT={-:-/ absolute / inch / decimal}
; #@! TF.CreationDate,2022-04-06T10:25:13+01:00
; #@! TF.GenerationSoftware,Kicad,Pcbnew,(6.0.2-0)
; #@! TF.FileFunction,Plated,1,2,PTH
FMAT,2
INCH
; #@! TA.AperFunction,Plated,PTH,ViaDrill
T1C0.0157
; #@! TA.AperFunction,Plated,PTH,ComponentDrill
T2C0.0236
; #@! TA.AperFunction,Plated,PTH,ComponentDrill
T3C0.0335
; #@! TA.AperFunction,Plated,PTH,ComponentDrill
T4C0.0394
; #@! TA.AperFunction,Plated,PTH,ComponentDrill
T5C0.0492
%
G90
G05
T1
X2.4213Y-1.8307
X2.6575Y-2.0768
X2.6673Y-1.9488
X2.6969Y-2.0768
X2.7362Y-1.8209
X2.7362Y-2.0787
X2.9528Y-2.0571
X2.9532Y-1.9916
X2.9626Y-2.3524
X2.9724Y-1.6732
X2.9724Y-1.7323
X2.9724Y-1.7815
X2.9724Y-1.8406
X2.9724Y-1.8898
X3.002Y-1.5846
X3.1398Y-1.9685
X3.1791Y-2.1752
X3.189Y-1.9685
X3.1954Y-2.3461
X3.2382Y-1.9685
X3.2972Y-1.8898
X3.3071Y-1.624
X3.3268Y-1.752
X3.3366Y-1.6949
X3.4252Y-1.998
X3.435Y-1.56
X3.4744Y-2.0276
X3.4941Y-1.9783
X3.5955Y-1.9085
X3.6024Y-1.5945
X3.631Y-1.8211
X3.6319Y-1.7815
X3.6713Y-1.378
X3.6742Y-1.4252
X3.7283Y-1.4803
X3.7447Y-1.7573
X3.7495Y-1.3283
X3.75Y-1.8012
X3.75Y-2.0079
X3.7505Y-1.968
X3.7549Y-1.6228
X3.7942Y-1.6217
X3.8071Y-1.3563
X3.8091Y-1.5748
X3.8192Y-1.3964
X3.8287Y-1.9783
X3.8474Y-1.7618
X3.8791Y-1.4597
X3.9469Y-1.5453
X4.0748Y-1.4567
X4.1535Y-1.3583
T2
X3.3311Y-2.1539
X3.5587Y-2.1539
T3
X3.7402Y-2.122
X3.8386Y-2.122
X3.9921Y-1.3957
X3.9921Y-1.4941
X3.9921Y-1.5925
X3.9921Y-1.6909
X3.9921Y-1.7894
X3.9921Y-1.8878
X3.9921Y-1.9862
X3.9921Y-2.0846
X3.9921Y-2.1831
X3.9921Y-2.2815
T4
X3.2748Y-2.2988
X3.615Y-2.2988
T5
X3.2748Y-2.1346
X3.615Y-2.1346
T0
M30
