%TF.GenerationSoftware,KiCad,Pcbnew,(6.0.2-0)*%
%TF.CreationDate,2022-02-22T20:13:48+00:00*%
%TF.ProjectId,Bell2,42656c6c-322e-46b6-9963-61645f706362,2*%
%TF.SameCoordinates,Original*%
%TF.FileFunction,Legend,Bot*%
%TF.FilePolarity,Positive*%
%FSLAX46Y46*%
G04 Gerber Fmt 4.6, Leading zero omitted, Abs format (unit mm)*
G04 Created by KiCad (PCBNEW (6.0.2-0)) date 2022-02-22 20:13:48*
%MOMM*%
%LPD*%
G01*
G04 APERTURE LIST*
%ADD10C,0.150000*%
%ADD11C,0.100000*%
%ADD12C,0.120000*%
G04 APERTURE END LIST*
D10*
X86535714Y-51599761D02*
X86392857Y-51647380D01*
X86154761Y-51647380D01*
X86059523Y-51599761D01*
X86011904Y-51552142D01*
X85964285Y-51456904D01*
X85964285Y-51361666D01*
X86011904Y-51266428D01*
X86059523Y-51218809D01*
X86154761Y-51171190D01*
X86345238Y-51123571D01*
X86440476Y-51075952D01*
X86488095Y-51028333D01*
X86535714Y-50933095D01*
X86535714Y-50837857D01*
X86488095Y-50742619D01*
X86440476Y-50695000D01*
X86345238Y-50647380D01*
X86107142Y-50647380D01*
X85964285Y-50695000D01*
X85392857Y-51647380D02*
X85488095Y-51599761D01*
X85535714Y-51552142D01*
X85583333Y-51456904D01*
X85583333Y-51171190D01*
X85535714Y-51075952D01*
X85488095Y-51028333D01*
X85392857Y-50980714D01*
X85250000Y-50980714D01*
X85154761Y-51028333D01*
X85107142Y-51075952D01*
X85059523Y-51171190D01*
X85059523Y-51456904D01*
X85107142Y-51552142D01*
X85154761Y-51599761D01*
X85250000Y-51647380D01*
X85392857Y-51647380D01*
X84488095Y-51647380D02*
X84583333Y-51599761D01*
X84630952Y-51504523D01*
X84630952Y-50647380D01*
X83678571Y-51647380D02*
X83678571Y-51123571D01*
X83726190Y-51028333D01*
X83821428Y-50980714D01*
X84011904Y-50980714D01*
X84107142Y-51028333D01*
X83678571Y-51599761D02*
X83773809Y-51647380D01*
X84011904Y-51647380D01*
X84107142Y-51599761D01*
X84154761Y-51504523D01*
X84154761Y-51409285D01*
X84107142Y-51314047D01*
X84011904Y-51266428D01*
X83773809Y-51266428D01*
X83678571Y-51218809D01*
X83202380Y-51647380D02*
X83202380Y-50980714D01*
X83202380Y-51171190D02*
X83154761Y-51075952D01*
X83107142Y-51028333D01*
X83011904Y-50980714D01*
X82916666Y-50980714D01*
X81869047Y-51599761D02*
X81726190Y-51647380D01*
X81488095Y-51647380D01*
X81392857Y-51599761D01*
X81345238Y-51552142D01*
X81297619Y-51456904D01*
X81297619Y-51361666D01*
X81345238Y-51266428D01*
X81392857Y-51218809D01*
X81488095Y-51171190D01*
X81678571Y-51123571D01*
X81773809Y-51075952D01*
X81821428Y-51028333D01*
X81869047Y-50933095D01*
X81869047Y-50837857D01*
X81821428Y-50742619D01*
X81773809Y-50695000D01*
X81678571Y-50647380D01*
X81440476Y-50647380D01*
X81297619Y-50695000D01*
X80964285Y-50980714D02*
X80726190Y-51647380D01*
X80488095Y-50980714D02*
X80726190Y-51647380D01*
X80821428Y-51885476D01*
X80869047Y-51933095D01*
X80964285Y-51980714D01*
X80154761Y-51599761D02*
X80059523Y-51647380D01*
X79869047Y-51647380D01*
X79773809Y-51599761D01*
X79726190Y-51504523D01*
X79726190Y-51456904D01*
X79773809Y-51361666D01*
X79869047Y-51314047D01*
X80011904Y-51314047D01*
X80107142Y-51266428D01*
X80154761Y-51171190D01*
X80154761Y-51123571D01*
X80107142Y-51028333D01*
X80011904Y-50980714D01*
X79869047Y-50980714D01*
X79773809Y-51028333D01*
X79440476Y-50980714D02*
X79059523Y-50980714D01*
X79297619Y-50647380D02*
X79297619Y-51504523D01*
X79250000Y-51599761D01*
X79154761Y-51647380D01*
X79059523Y-51647380D01*
X78345238Y-51599761D02*
X78440476Y-51647380D01*
X78630952Y-51647380D01*
X78726190Y-51599761D01*
X78773809Y-51504523D01*
X78773809Y-51123571D01*
X78726190Y-51028333D01*
X78630952Y-50980714D01*
X78440476Y-50980714D01*
X78345238Y-51028333D01*
X78297619Y-51123571D01*
X78297619Y-51218809D01*
X78773809Y-51314047D01*
X77869047Y-51647380D02*
X77869047Y-50980714D01*
X77869047Y-51075952D02*
X77821428Y-51028333D01*
X77726190Y-50980714D01*
X77583333Y-50980714D01*
X77488095Y-51028333D01*
X77440476Y-51123571D01*
X77440476Y-51647380D01*
X77440476Y-51123571D02*
X77392857Y-51028333D01*
X77297619Y-50980714D01*
X77154761Y-50980714D01*
X77059523Y-51028333D01*
X77011904Y-51123571D01*
X77011904Y-51647380D01*
X84369047Y-52733571D02*
X84226190Y-52781190D01*
X84178571Y-52828809D01*
X84130952Y-52924047D01*
X84130952Y-53066904D01*
X84178571Y-53162142D01*
X84226190Y-53209761D01*
X84321428Y-53257380D01*
X84702380Y-53257380D01*
X84702380Y-52257380D01*
X84369047Y-52257380D01*
X84273809Y-52305000D01*
X84226190Y-52352619D01*
X84178571Y-52447857D01*
X84178571Y-52543095D01*
X84226190Y-52638333D01*
X84273809Y-52685952D01*
X84369047Y-52733571D01*
X84702380Y-52733571D01*
X83321428Y-53209761D02*
X83416666Y-53257380D01*
X83607142Y-53257380D01*
X83702380Y-53209761D01*
X83750000Y-53114523D01*
X83750000Y-52733571D01*
X83702380Y-52638333D01*
X83607142Y-52590714D01*
X83416666Y-52590714D01*
X83321428Y-52638333D01*
X83273809Y-52733571D01*
X83273809Y-52828809D01*
X83750000Y-52924047D01*
X82702380Y-53257380D02*
X82797619Y-53209761D01*
X82845238Y-53114523D01*
X82845238Y-52257380D01*
X82178571Y-53257380D02*
X82273809Y-53209761D01*
X82321428Y-53114523D01*
X82321428Y-52257380D01*
X80702380Y-52733571D02*
X80559523Y-52781190D01*
X80511904Y-52828809D01*
X80464285Y-52924047D01*
X80464285Y-53066904D01*
X80511904Y-53162142D01*
X80559523Y-53209761D01*
X80654761Y-53257380D01*
X81035714Y-53257380D01*
X81035714Y-52257380D01*
X80702380Y-52257380D01*
X80607142Y-52305000D01*
X80559523Y-52352619D01*
X80511904Y-52447857D01*
X80511904Y-52543095D01*
X80559523Y-52638333D01*
X80607142Y-52685952D01*
X80702380Y-52733571D01*
X81035714Y-52733571D01*
X79892857Y-53257380D02*
X79988095Y-53209761D01*
X80035714Y-53162142D01*
X80083333Y-53066904D01*
X80083333Y-52781190D01*
X80035714Y-52685952D01*
X79988095Y-52638333D01*
X79892857Y-52590714D01*
X79750000Y-52590714D01*
X79654761Y-52638333D01*
X79607142Y-52685952D01*
X79559523Y-52781190D01*
X79559523Y-53066904D01*
X79607142Y-53162142D01*
X79654761Y-53209761D01*
X79750000Y-53257380D01*
X79892857Y-53257380D01*
X79226190Y-53257380D02*
X78702380Y-52590714D01*
X79226190Y-52590714D02*
X78702380Y-53257380D01*
D11*
X107700000Y-54100000D02*
X107566666Y-54566666D01*
X107433333Y-54233333D01*
X107300000Y-54566666D01*
X107166666Y-54100000D01*
X106966666Y-54100000D02*
X106833333Y-54566666D01*
X106700000Y-54233333D01*
X106566666Y-54566666D01*
X106433333Y-54100000D01*
X106233333Y-54100000D02*
X106100000Y-54566666D01*
X105966666Y-54233333D01*
X105833333Y-54566666D01*
X105700000Y-54100000D01*
X105433333Y-54500000D02*
X105400000Y-54533333D01*
X105433333Y-54566666D01*
X105466666Y-54533333D01*
X105433333Y-54500000D01*
X105433333Y-54566666D01*
X105100000Y-54566666D02*
X105100000Y-54100000D01*
X105100000Y-54166666D02*
X105066666Y-54133333D01*
X105000000Y-54100000D01*
X104900000Y-54100000D01*
X104833333Y-54133333D01*
X104800000Y-54200000D01*
X104800000Y-54566666D01*
X104800000Y-54200000D02*
X104766666Y-54133333D01*
X104700000Y-54100000D01*
X104600000Y-54100000D01*
X104533333Y-54133333D01*
X104500000Y-54200000D01*
X104500000Y-54566666D01*
X103900000Y-54533333D02*
X103966666Y-54566666D01*
X104100000Y-54566666D01*
X104166666Y-54533333D01*
X104200000Y-54466666D01*
X104200000Y-54200000D01*
X104166666Y-54133333D01*
X104100000Y-54100000D01*
X103966666Y-54100000D01*
X103900000Y-54133333D01*
X103866666Y-54200000D01*
X103866666Y-54266666D01*
X104200000Y-54333333D01*
X103566666Y-54500000D02*
X103533333Y-54533333D01*
X103566666Y-54566666D01*
X103600000Y-54533333D01*
X103566666Y-54500000D01*
X103566666Y-54566666D01*
X102933333Y-54100000D02*
X102933333Y-54566666D01*
X103233333Y-54100000D02*
X103233333Y-54466666D01*
X103200000Y-54533333D01*
X103133333Y-54566666D01*
X103033333Y-54566666D01*
X102966666Y-54533333D01*
X102933333Y-54500000D01*
X102600000Y-54566666D02*
X102600000Y-53866666D01*
X102533333Y-54300000D02*
X102333333Y-54566666D01*
X102333333Y-54100000D02*
X102600000Y-54366666D01*
D12*
%TO.C,C3*%
X104700000Y-42500000D02*
X105300000Y-42500000D01*
X104700000Y-43500000D02*
X105300000Y-43500000D01*
%TO.C,D1*%
X106160000Y-39800000D02*
X106160000Y-41700000D01*
X103840000Y-41200000D02*
X103840000Y-39800000D01*
%TO.C,C2*%
X105300000Y-37500000D02*
X104700000Y-37500000D01*
X105300000Y-38500000D02*
X104700000Y-38500000D01*
%TD*%
M02*
