%TF.GenerationSoftware,KiCad,Pcbnew,(6.0.5-0)*%
%TF.CreationDate,2022-08-15T15:56:59+01:00*%
%TF.ProjectId,Bell,42656c6c-2e6b-4696-9361-645f70636258,2*%
%TF.SameCoordinates,Original*%
%TF.FileFunction,Legend,Top*%
%TF.FilePolarity,Positive*%
%FSLAX46Y46*%
G04 Gerber Fmt 4.6, Leading zero omitted, Abs format (unit mm)*
G04 Created by KiCad (PCBNEW (6.0.5-0)) date 2022-08-15 15:56:59*
%MOMM*%
%LPD*%
G01*
G04 APERTURE LIST*
%ADD10C,0.100000*%
%ADD11C,0.120000*%
G04 APERTURE END LIST*
D10*
X84014285Y-59528571D02*
X84166666Y-60061904D01*
X84319047Y-59680952D01*
X84471428Y-60061904D01*
X84623809Y-59528571D01*
X84852380Y-59528571D02*
X85004761Y-60061904D01*
X85157142Y-59680952D01*
X85309523Y-60061904D01*
X85461904Y-59528571D01*
X85690476Y-59528571D02*
X85842857Y-60061904D01*
X85995238Y-59680952D01*
X86147619Y-60061904D01*
X86300000Y-59528571D01*
X86604761Y-59985714D02*
X86642857Y-60023809D01*
X86604761Y-60061904D01*
X86566666Y-60023809D01*
X86604761Y-59985714D01*
X86604761Y-60061904D01*
X86985714Y-60061904D02*
X86985714Y-59528571D01*
X86985714Y-59604761D02*
X87023809Y-59566666D01*
X87100000Y-59528571D01*
X87214285Y-59528571D01*
X87290476Y-59566666D01*
X87328571Y-59642857D01*
X87328571Y-60061904D01*
X87328571Y-59642857D02*
X87366666Y-59566666D01*
X87442857Y-59528571D01*
X87557142Y-59528571D01*
X87633333Y-59566666D01*
X87671428Y-59642857D01*
X87671428Y-60061904D01*
X88357142Y-60023809D02*
X88280952Y-60061904D01*
X88128571Y-60061904D01*
X88052380Y-60023809D01*
X88014285Y-59947619D01*
X88014285Y-59642857D01*
X88052380Y-59566666D01*
X88128571Y-59528571D01*
X88280952Y-59528571D01*
X88357142Y-59566666D01*
X88395238Y-59642857D01*
X88395238Y-59719047D01*
X88014285Y-59795238D01*
X88738095Y-59985714D02*
X88776190Y-60023809D01*
X88738095Y-60061904D01*
X88700000Y-60023809D01*
X88738095Y-59985714D01*
X88738095Y-60061904D01*
X89461904Y-59528571D02*
X89461904Y-60061904D01*
X89119047Y-59528571D02*
X89119047Y-59947619D01*
X89157142Y-60023809D01*
X89233333Y-60061904D01*
X89347619Y-60061904D01*
X89423809Y-60023809D01*
X89461904Y-59985714D01*
X89842857Y-60061904D02*
X89842857Y-59261904D01*
X89919047Y-59757142D02*
X90147619Y-60061904D01*
X90147619Y-59528571D02*
X89842857Y-59833333D01*
D11*
%TO.C,C1*%
X84300000Y-62700000D02*
X83700000Y-62700000D01*
X84300000Y-61700000D02*
X83700000Y-61700000D01*
%TO.C,D3*%
X94540000Y-59635000D02*
X98600000Y-59635000D01*
X94540000Y-57365000D02*
X94540000Y-59635000D01*
X98600000Y-57365000D02*
X94540000Y-57365000D01*
%TO.C,J2*%
X71850000Y-60000000D02*
X71850000Y-68000000D01*
X79550000Y-60000000D02*
X79550000Y-68000000D01*
X71850000Y-60000000D02*
X79550000Y-60000000D01*
%TO.C,R5*%
X97800000Y-56000000D02*
X97200000Y-56000000D01*
X97800000Y-57000000D02*
X97200000Y-57000000D01*
%TO.C,U2*%
X81890000Y-63090000D02*
X82615000Y-63090000D01*
X81890000Y-63815000D02*
X81890000Y-63090000D01*
X86110000Y-66585000D02*
X86110000Y-67310000D01*
X86110000Y-63815000D02*
X86110000Y-63090000D01*
X86110000Y-67310000D02*
X85385000Y-67310000D01*
X86110000Y-63090000D02*
X85385000Y-63090000D01*
X82482843Y-67000000D02*
G75*
G03*
X82482843Y-67000000I-282843J0D01*
G01*
%TO.C,R10*%
X98600000Y-39600000D02*
X98000000Y-39600000D01*
X98600000Y-38600000D02*
X98000000Y-38600000D01*
%TO.C,R6*%
X94300000Y-56000000D02*
X93700000Y-56000000D01*
X94300000Y-57000000D02*
X93700000Y-57000000D01*
%TO.C,C3*%
X97800000Y-42200000D02*
X97800000Y-42800000D01*
X98800000Y-42200000D02*
X98800000Y-42800000D01*
%TO.C,D1*%
X96900000Y-41340000D02*
X95500000Y-41340000D01*
X95500000Y-43660000D02*
X97400000Y-43660000D01*
%TO.C,R7*%
X99000000Y-42800000D02*
X99000000Y-42200000D01*
X100000000Y-42800000D02*
X100000000Y-42200000D01*
%TO.C,C2*%
X93600000Y-42800000D02*
X93600000Y-42200000D01*
X94600000Y-42800000D02*
X94600000Y-42200000D01*
%TO.C,R4*%
X93400000Y-42200000D02*
X93400000Y-42800000D01*
X92400000Y-42200000D02*
X92400000Y-42800000D01*
%TO.C,U3*%
X96100000Y-50340000D02*
X92650000Y-50340000D01*
X96100000Y-55460000D02*
X94150000Y-55460000D01*
X96100000Y-50340000D02*
X98050000Y-50340000D01*
X96100000Y-55460000D02*
X98050000Y-55460000D01*
%TO.C,U4*%
X96100000Y-49860000D02*
X98050000Y-49860000D01*
X96100000Y-44740000D02*
X98050000Y-44740000D01*
X96100000Y-44740000D02*
X92650000Y-44740000D01*
X96100000Y-49860000D02*
X94150000Y-49860000D01*
%TO.C,D2*%
X98200000Y-35000000D02*
X98200000Y-36000000D01*
X99300000Y-35000000D02*
X98200000Y-35000000D01*
%TO.C,R9*%
X98000000Y-38400000D02*
X98600000Y-38400000D01*
X98000000Y-37400000D02*
X98600000Y-37400000D01*
%TO.C,R8*%
X98000000Y-37200000D02*
X98600000Y-37200000D01*
X98000000Y-36200000D02*
X98600000Y-36200000D01*
%TO.C,J3*%
X100000000Y-60550000D02*
X108000000Y-60550000D01*
X100000000Y-60550000D02*
X100000000Y-32850000D01*
X100000000Y-32850000D02*
X108000000Y-32850000D01*
%TO.C,R1*%
X80400000Y-60600000D02*
X81000000Y-60600000D01*
X80400000Y-59600000D02*
X81000000Y-59600000D01*
%TO.C,U1*%
X72480000Y-58580000D02*
X73480000Y-58580000D01*
X90720000Y-57800000D02*
X90720000Y-58580000D01*
X72480000Y-57800000D02*
X72480000Y-58580000D01*
X90720000Y-58580000D02*
X89720000Y-58580000D01*
%TO.C,R12*%
X92975000Y-59600000D02*
X92375000Y-59600000D01*
X92975000Y-58600000D02*
X92375000Y-58600000D01*
%TO.C,R2*%
X83550000Y-60500000D02*
X82950000Y-60500000D01*
X83550000Y-61500000D02*
X82950000Y-61500000D01*
%TO.C,R3*%
X81100000Y-61700000D02*
X81700000Y-61700000D01*
X81100000Y-62700000D02*
X81700000Y-62700000D01*
%TO.C,U5*%
X91825000Y-65205000D02*
X91825000Y-66805000D01*
X88550000Y-62155000D02*
X91650000Y-62155000D01*
%TO.C,R11*%
X86700000Y-60300000D02*
X87300000Y-60300000D01*
X86700000Y-61300000D02*
X87300000Y-61300000D01*
%TD*%
M02*
