M48
; DRILL file {KiCad (5.1.9-0-10_14)} date Saturday, June 19, 2021 at 02:41:20 PM
; FORMAT={-:-/ absolute / inch / decimal}
; #@! TF.CreationDate,2021-06-19T14:41:20+01:00
; #@! TF.GenerationSoftware,Kicad,Pcbnew,(5.1.9-0-10_14)
; #@! TF.FileFunction,Plated,1,2,PTH
FMAT,2
INCH
T1C0.0098
T2C0.0157
T3C0.0236
T4C0.0335
T5C0.0394
T6C0.0492
%
G90
G05
T1
X3.2874Y-2.5
T2
X2.9409Y-2.1417
X2.9409Y-2.2874
X2.994Y-2.0543
X3.0225Y-2.108
X3.1614Y-2.5472
X3.2441Y-1.9921
X3.3346Y-1.6181
X3.3399Y-2.3728
X3.343Y-1.7673
X3.3927Y-2.6084
X3.4025Y-2.4378
X3.4099Y-2.3548
X3.4134Y-2.5079
X3.4353Y-1.778
X3.4495Y-1.8148
X3.4537Y-2.58
X3.4615Y-1.6017
X3.4685Y-2.0197
X3.6151Y-1.5787
X3.6457Y-2.5984
X3.6585Y-1.7254
X3.6636Y-2.2725
X3.688Y-1.561
X3.7608Y-1.6318
X3.7638Y-1.6821
X3.8071Y-1.5118
X3.8152Y-2.3589
X3.8346Y-1.5794
X3.8997Y-1.5246
X3.9647Y-2.3434
X4.0039Y-2.3465
X4.0737Y-2.315
X4.0768Y-2.2579
X4.1132Y-2.3433
T3
X3.902Y-2.4492
X4.1295Y-2.4492
T4
X2.9429Y-2.4016
X3.0413Y-2.4016
X3.9921Y-1.3976
X3.9921Y-1.4961
X3.9921Y-1.5945
X3.9921Y-1.6929
X3.9921Y-1.7913
X3.9921Y-1.8898
X3.9921Y-1.9882
X3.9921Y-2.0866
X3.9921Y-2.185
X3.9921Y-2.2835
T5
X3.8457Y-2.5941
X4.1858Y-2.5941
T6
X3.8457Y-2.4299
X4.1858Y-2.4299
T0
M30
