M48
; DRILL file {KiCad (5.1.9-0-10_14)} date Thursday, June 17, 2021 at 10:46:40 AM
; FORMAT={-:-/ absolute / inch / decimal}
; #@! TF.CreationDate,2021-06-17T10:46:40+01:00
; #@! TF.GenerationSoftware,Kicad,Pcbnew,(5.1.9-0-10_14)
; #@! TF.FileFunction,Plated,1,2,PTH
FMAT,2
INCH
T1C0.0098
T2C0.0157
T3C0.0236
T4C0.0335
T5C0.0472
T6C0.0591
%
G90
G05
T1
X3.2874Y-2.5
T2
X2.9409Y-2.1417
X2.9409Y-2.2874
X2.994Y-2.0543
X3.0225Y-2.108
X3.1614Y-2.5472
X3.2441Y-1.9921
X3.3346Y-1.6181
X3.3399Y-2.3728
X3.343Y-1.7673
X3.3927Y-2.6084
X3.4055Y-2.437
X3.4134Y-2.3583
X3.4134Y-2.5079
X3.4353Y-1.778
X3.4495Y-1.8148
X3.4537Y-2.58
X3.4615Y-1.6017
X3.4627Y-1.6467
X3.4685Y-2.0197
X3.4803Y-1.937
X3.6151Y-1.5787
X3.6299Y-1.9803
X3.6299Y-2.1339
X3.6457Y-2.5984
X3.6614Y-1.7362
X3.688Y-1.561
X3.7047Y-2.1329
X3.7589Y-1.6358
X3.7638Y-1.6929
X3.7644Y-2.2224
X3.7675Y-2.0363
X3.769Y-1.9205
X3.7717Y-1.9724
X3.7752Y-2.1845
X3.8071Y-1.5118
X3.815Y-2.3583
X3.8346Y-1.5794
X3.8396Y-1.8799
X3.8997Y-1.5246
X3.9647Y-2.3434
X4.0039Y-2.3465
X4.0726Y-2.3083
X4.0907Y-2.3433
X4.1296Y-2.3493
T3
X3.902Y-2.4492
X4.1295Y-2.4492
T4
X2.9429Y-2.4016
X3.0413Y-2.4016
X3.9921Y-1.3976
X3.9921Y-1.4961
X3.9921Y-1.5945
X3.9921Y-1.6929
X3.9921Y-1.7913
X3.9921Y-1.8898
X3.9921Y-1.9882
X3.9921Y-2.0866
X3.9921Y-2.185
X3.9921Y-2.2835
T5
X3.8455Y-2.5949
X4.186Y-2.5949
T6
X3.8455Y-2.4303
X4.186Y-2.4303
T0
M30
