%TF.GenerationSoftware,KiCad,Pcbnew,(5.1.9-0-10_14)*%
%TF.CreationDate,2021-06-18T08:33:25+01:00*%
%TF.ProjectId,Bell,42656c6c-2e6b-4696-9361-645f70636258,1*%
%TF.SameCoordinates,Original*%
%TF.FileFunction,Paste,Top*%
%TF.FilePolarity,Positive*%
%FSLAX46Y46*%
G04 Gerber Fmt 4.6, Leading zero omitted, Abs format (unit mm)*
G04 Created by KiCad (PCBNEW (5.1.9-0-10_14)) date 2021-06-18 08:33:25*
%MOMM*%
%LPD*%
G01*
G04 APERTURE LIST*
%ADD10R,0.600000X1.140000*%
%ADD11R,0.300000X1.140000*%
%ADD12R,0.650000X0.400000*%
%ADD13R,2.000000X0.900000*%
%ADD14R,0.900000X2.000000*%
%ADD15R,0.600000X1.100000*%
G04 APERTURE END LIST*
%TO.C,J1*%
G36*
G01*
X100950000Y-64947500D02*
X100950000Y-64482500D01*
G75*
G02*
X101182500Y-64250000I232500J0D01*
G01*
X101647500Y-64250000D01*
G75*
G02*
X101880000Y-64482500I0J-232500D01*
G01*
X101880000Y-64947500D01*
G75*
G02*
X101647500Y-65180000I-232500J0D01*
G01*
X101182500Y-65180000D01*
G75*
G02*
X100950000Y-64947500I0J232500D01*
G01*
G37*
G36*
G01*
X100950000Y-66097500D02*
X100950000Y-65632500D01*
G75*
G02*
X101182500Y-65400000I232500J0D01*
G01*
X101647500Y-65400000D01*
G75*
G02*
X101880000Y-65632500I0J-232500D01*
G01*
X101880000Y-66097500D01*
G75*
G02*
X101647500Y-66330000I-232500J0D01*
G01*
X101182500Y-66330000D01*
G75*
G02*
X100950000Y-66097500I0J232500D01*
G01*
G37*
G36*
G01*
X100950000Y-67247500D02*
X100950000Y-66782500D01*
G75*
G02*
X101182500Y-66550000I232500J0D01*
G01*
X101647500Y-66550000D01*
G75*
G02*
X101880000Y-66782500I0J-232500D01*
G01*
X101880000Y-67247500D01*
G75*
G02*
X101647500Y-67480000I-232500J0D01*
G01*
X101182500Y-67480000D01*
G75*
G02*
X100950000Y-67247500I0J232500D01*
G01*
G37*
G36*
G01*
X102100000Y-63797500D02*
X102100000Y-63332500D01*
G75*
G02*
X102332500Y-63100000I232500J0D01*
G01*
X102797500Y-63100000D01*
G75*
G02*
X103030000Y-63332500I0J-232500D01*
G01*
X103030000Y-63797500D01*
G75*
G02*
X102797500Y-64030000I-232500J0D01*
G01*
X102332500Y-64030000D01*
G75*
G02*
X102100000Y-63797500I0J232500D01*
G01*
G37*
G36*
G01*
X102100000Y-64947500D02*
X102100000Y-64482500D01*
G75*
G02*
X102332500Y-64250000I232500J0D01*
G01*
X102797500Y-64250000D01*
G75*
G02*
X103030000Y-64482500I0J-232500D01*
G01*
X103030000Y-64947500D01*
G75*
G02*
X102797500Y-65180000I-232500J0D01*
G01*
X102332500Y-65180000D01*
G75*
G02*
X102100000Y-64947500I0J232500D01*
G01*
G37*
G36*
G01*
X102100000Y-66097500D02*
X102100000Y-65632500D01*
G75*
G02*
X102332500Y-65400000I232500J0D01*
G01*
X102797500Y-65400000D01*
G75*
G02*
X103030000Y-65632500I0J-232500D01*
G01*
X103030000Y-66097500D01*
G75*
G02*
X102797500Y-66330000I-232500J0D01*
G01*
X102332500Y-66330000D01*
G75*
G02*
X102100000Y-66097500I0J232500D01*
G01*
G37*
G36*
G01*
X102100000Y-67247500D02*
X102100000Y-66782500D01*
G75*
G02*
X102332500Y-66550000I232500J0D01*
G01*
X102797500Y-66550000D01*
G75*
G02*
X103030000Y-66782500I0J-232500D01*
G01*
X103030000Y-67247500D01*
G75*
G02*
X102797500Y-67480000I-232500J0D01*
G01*
X102332500Y-67480000D01*
G75*
G02*
X102100000Y-67247500I0J232500D01*
G01*
G37*
G36*
G01*
X103250000Y-63797500D02*
X103250000Y-63332500D01*
G75*
G02*
X103482500Y-63100000I232500J0D01*
G01*
X103947500Y-63100000D01*
G75*
G02*
X104180000Y-63332500I0J-232500D01*
G01*
X104180000Y-63797500D01*
G75*
G02*
X103947500Y-64030000I-232500J0D01*
G01*
X103482500Y-64030000D01*
G75*
G02*
X103250000Y-63797500I0J232500D01*
G01*
G37*
G36*
G01*
X103250000Y-64947500D02*
X103250000Y-64482500D01*
G75*
G02*
X103482500Y-64250000I232500J0D01*
G01*
X103947500Y-64250000D01*
G75*
G02*
X104180000Y-64482500I0J-232500D01*
G01*
X104180000Y-64947500D01*
G75*
G02*
X103947500Y-65180000I-232500J0D01*
G01*
X103482500Y-65180000D01*
G75*
G02*
X103250000Y-64947500I0J232500D01*
G01*
G37*
G36*
G01*
X103250000Y-66097500D02*
X103250000Y-65632500D01*
G75*
G02*
X103482500Y-65400000I232500J0D01*
G01*
X103947500Y-65400000D01*
G75*
G02*
X104180000Y-65632500I0J-232500D01*
G01*
X104180000Y-66097500D01*
G75*
G02*
X103947500Y-66330000I-232500J0D01*
G01*
X103482500Y-66330000D01*
G75*
G02*
X103250000Y-66097500I0J232500D01*
G01*
G37*
G36*
G01*
X103250000Y-67247500D02*
X103250000Y-66782500D01*
G75*
G02*
X103482500Y-66550000I232500J0D01*
G01*
X103947500Y-66550000D01*
G75*
G02*
X104180000Y-66782500I0J-232500D01*
G01*
X104180000Y-67247500D01*
G75*
G02*
X103947500Y-67480000I-232500J0D01*
G01*
X103482500Y-67480000D01*
G75*
G02*
X103250000Y-67247500I0J232500D01*
G01*
G37*
G36*
G01*
X99800000Y-63797500D02*
X99800000Y-63332500D01*
G75*
G02*
X100032500Y-63100000I232500J0D01*
G01*
X100497500Y-63100000D01*
G75*
G02*
X100730000Y-63332500I0J-232500D01*
G01*
X100730000Y-63797500D01*
G75*
G02*
X100497500Y-64030000I-232500J0D01*
G01*
X100032500Y-64030000D01*
G75*
G02*
X99800000Y-63797500I0J232500D01*
G01*
G37*
G36*
G01*
X99800000Y-64947500D02*
X99800000Y-64482500D01*
G75*
G02*
X100032500Y-64250000I232500J0D01*
G01*
X100497500Y-64250000D01*
G75*
G02*
X100730000Y-64482500I0J-232500D01*
G01*
X100730000Y-64947500D01*
G75*
G02*
X100497500Y-65180000I-232500J0D01*
G01*
X100032500Y-65180000D01*
G75*
G02*
X99800000Y-64947500I0J232500D01*
G01*
G37*
G36*
G01*
X99800000Y-66097500D02*
X99800000Y-65632500D01*
G75*
G02*
X100032500Y-65400000I232500J0D01*
G01*
X100497500Y-65400000D01*
G75*
G02*
X100730000Y-65632500I0J-232500D01*
G01*
X100730000Y-66097500D01*
G75*
G02*
X100497500Y-66330000I-232500J0D01*
G01*
X100032500Y-66330000D01*
G75*
G02*
X99800000Y-66097500I0J232500D01*
G01*
G37*
G36*
G01*
X99800000Y-67247500D02*
X99800000Y-66782500D01*
G75*
G02*
X100032500Y-66550000I232500J0D01*
G01*
X100497500Y-66550000D01*
G75*
G02*
X100730000Y-66782500I0J-232500D01*
G01*
X100730000Y-67247500D01*
G75*
G02*
X100497500Y-67480000I-232500J0D01*
G01*
X100032500Y-67480000D01*
G75*
G02*
X99800000Y-67247500I0J232500D01*
G01*
G37*
G36*
G01*
X100950000Y-63797500D02*
X100950000Y-63332500D01*
G75*
G02*
X101182500Y-63100000I232500J0D01*
G01*
X101647500Y-63100000D01*
G75*
G02*
X101880000Y-63332500I0J-232500D01*
G01*
X101880000Y-63797500D01*
G75*
G02*
X101647500Y-64030000I-232500J0D01*
G01*
X101182500Y-64030000D01*
G75*
G02*
X100950000Y-63797500I0J232500D01*
G01*
G37*
D10*
X99600000Y-61140000D03*
X104400000Y-61140000D03*
D11*
X102250000Y-61140000D03*
X101750000Y-61140000D03*
X102750000Y-61140000D03*
X101250000Y-61140000D03*
X103250000Y-61140000D03*
X100750000Y-61140000D03*
X103750000Y-61140000D03*
X100250000Y-61140000D03*
D10*
X105200000Y-61140000D03*
X98800000Y-61140000D03*
%TD*%
%TO.C,U2*%
G36*
G01*
X84189000Y-63375000D02*
X83811000Y-63375000D01*
G75*
G02*
X83625000Y-63189000I0J186000D01*
G01*
X83625000Y-62811000D01*
G75*
G02*
X83811000Y-62625000I186000J0D01*
G01*
X84189000Y-62625000D01*
G75*
G02*
X84375000Y-62811000I0J-186000D01*
G01*
X84375000Y-63189000D01*
G75*
G02*
X84189000Y-63375000I-186000J0D01*
G01*
G37*
G36*
G01*
X83189000Y-63375000D02*
X82811000Y-63375000D01*
G75*
G02*
X82625000Y-63189000I0J186000D01*
G01*
X82625000Y-62811000D01*
G75*
G02*
X82811000Y-62625000I186000J0D01*
G01*
X83189000Y-62625000D01*
G75*
G02*
X83375000Y-62811000I0J-186000D01*
G01*
X83375000Y-63189000D01*
G75*
G02*
X83189000Y-63375000I-186000J0D01*
G01*
G37*
G36*
G01*
X84189000Y-64375000D02*
X83811000Y-64375000D01*
G75*
G02*
X83625000Y-64189000I0J186000D01*
G01*
X83625000Y-63811000D01*
G75*
G02*
X83811000Y-63625000I186000J0D01*
G01*
X84189000Y-63625000D01*
G75*
G02*
X84375000Y-63811000I0J-186000D01*
G01*
X84375000Y-64189000D01*
G75*
G02*
X84189000Y-64375000I-186000J0D01*
G01*
G37*
G36*
G01*
X83189000Y-64375000D02*
X82811000Y-64375000D01*
G75*
G02*
X82625000Y-64189000I0J186000D01*
G01*
X82625000Y-63811000D01*
G75*
G02*
X82811000Y-63625000I186000J0D01*
G01*
X83189000Y-63625000D01*
G75*
G02*
X83375000Y-63811000I0J-186000D01*
G01*
X83375000Y-64189000D01*
G75*
G02*
X83189000Y-64375000I-186000J0D01*
G01*
G37*
G36*
G01*
X81887500Y-64625000D02*
X81312500Y-64625000D01*
G75*
G02*
X81250000Y-64562500I0J62500D01*
G01*
X81250000Y-64437500D01*
G75*
G02*
X81312500Y-64375000I62500J0D01*
G01*
X81887500Y-64375000D01*
G75*
G02*
X81950000Y-64437500I0J-62500D01*
G01*
X81950000Y-64562500D01*
G75*
G02*
X81887500Y-64625000I-62500J0D01*
G01*
G37*
G36*
G01*
X81887500Y-64125000D02*
X81312500Y-64125000D01*
G75*
G02*
X81250000Y-64062500I0J62500D01*
G01*
X81250000Y-63937500D01*
G75*
G02*
X81312500Y-63875000I62500J0D01*
G01*
X81887500Y-63875000D01*
G75*
G02*
X81950000Y-63937500I0J-62500D01*
G01*
X81950000Y-64062500D01*
G75*
G02*
X81887500Y-64125000I-62500J0D01*
G01*
G37*
G36*
G01*
X81887500Y-63625000D02*
X81312500Y-63625000D01*
G75*
G02*
X81250000Y-63562500I0J62500D01*
G01*
X81250000Y-63437500D01*
G75*
G02*
X81312500Y-63375000I62500J0D01*
G01*
X81887500Y-63375000D01*
G75*
G02*
X81950000Y-63437500I0J-62500D01*
G01*
X81950000Y-63562500D01*
G75*
G02*
X81887500Y-63625000I-62500J0D01*
G01*
G37*
G36*
G01*
X81887500Y-63125000D02*
X81312500Y-63125000D01*
G75*
G02*
X81250000Y-63062500I0J62500D01*
G01*
X81250000Y-62937500D01*
G75*
G02*
X81312500Y-62875000I62500J0D01*
G01*
X81887500Y-62875000D01*
G75*
G02*
X81950000Y-62937500I0J-62500D01*
G01*
X81950000Y-63062500D01*
G75*
G02*
X81887500Y-63125000I-62500J0D01*
G01*
G37*
G36*
G01*
X81887500Y-62625000D02*
X81312500Y-62625000D01*
G75*
G02*
X81250000Y-62562500I0J62500D01*
G01*
X81250000Y-62437500D01*
G75*
G02*
X81312500Y-62375000I62500J0D01*
G01*
X81887500Y-62375000D01*
G75*
G02*
X81950000Y-62437500I0J-62500D01*
G01*
X81950000Y-62562500D01*
G75*
G02*
X81887500Y-62625000I-62500J0D01*
G01*
G37*
G36*
G01*
X82562500Y-61950000D02*
X82437500Y-61950000D01*
G75*
G02*
X82375000Y-61887500I0J62500D01*
G01*
X82375000Y-61312500D01*
G75*
G02*
X82437500Y-61250000I62500J0D01*
G01*
X82562500Y-61250000D01*
G75*
G02*
X82625000Y-61312500I0J-62500D01*
G01*
X82625000Y-61887500D01*
G75*
G02*
X82562500Y-61950000I-62500J0D01*
G01*
G37*
G36*
G01*
X83062500Y-61950000D02*
X82937500Y-61950000D01*
G75*
G02*
X82875000Y-61887500I0J62500D01*
G01*
X82875000Y-61312500D01*
G75*
G02*
X82937500Y-61250000I62500J0D01*
G01*
X83062500Y-61250000D01*
G75*
G02*
X83125000Y-61312500I0J-62500D01*
G01*
X83125000Y-61887500D01*
G75*
G02*
X83062500Y-61950000I-62500J0D01*
G01*
G37*
G36*
G01*
X83562500Y-61950000D02*
X83437500Y-61950000D01*
G75*
G02*
X83375000Y-61887500I0J62500D01*
G01*
X83375000Y-61312500D01*
G75*
G02*
X83437500Y-61250000I62500J0D01*
G01*
X83562500Y-61250000D01*
G75*
G02*
X83625000Y-61312500I0J-62500D01*
G01*
X83625000Y-61887500D01*
G75*
G02*
X83562500Y-61950000I-62500J0D01*
G01*
G37*
G36*
G01*
X84062500Y-61950000D02*
X83937500Y-61950000D01*
G75*
G02*
X83875000Y-61887500I0J62500D01*
G01*
X83875000Y-61312500D01*
G75*
G02*
X83937500Y-61250000I62500J0D01*
G01*
X84062500Y-61250000D01*
G75*
G02*
X84125000Y-61312500I0J-62500D01*
G01*
X84125000Y-61887500D01*
G75*
G02*
X84062500Y-61950000I-62500J0D01*
G01*
G37*
G36*
G01*
X84562500Y-61950000D02*
X84437500Y-61950000D01*
G75*
G02*
X84375000Y-61887500I0J62500D01*
G01*
X84375000Y-61312500D01*
G75*
G02*
X84437500Y-61250000I62500J0D01*
G01*
X84562500Y-61250000D01*
G75*
G02*
X84625000Y-61312500I0J-62500D01*
G01*
X84625000Y-61887500D01*
G75*
G02*
X84562500Y-61950000I-62500J0D01*
G01*
G37*
G36*
G01*
X85687500Y-62625000D02*
X85112500Y-62625000D01*
G75*
G02*
X85050000Y-62562500I0J62500D01*
G01*
X85050000Y-62437500D01*
G75*
G02*
X85112500Y-62375000I62500J0D01*
G01*
X85687500Y-62375000D01*
G75*
G02*
X85750000Y-62437500I0J-62500D01*
G01*
X85750000Y-62562500D01*
G75*
G02*
X85687500Y-62625000I-62500J0D01*
G01*
G37*
G36*
G01*
X85687500Y-63125000D02*
X85112500Y-63125000D01*
G75*
G02*
X85050000Y-63062500I0J62500D01*
G01*
X85050000Y-62937500D01*
G75*
G02*
X85112500Y-62875000I62500J0D01*
G01*
X85687500Y-62875000D01*
G75*
G02*
X85750000Y-62937500I0J-62500D01*
G01*
X85750000Y-63062500D01*
G75*
G02*
X85687500Y-63125000I-62500J0D01*
G01*
G37*
G36*
G01*
X85687500Y-63625000D02*
X85112500Y-63625000D01*
G75*
G02*
X85050000Y-63562500I0J62500D01*
G01*
X85050000Y-63437500D01*
G75*
G02*
X85112500Y-63375000I62500J0D01*
G01*
X85687500Y-63375000D01*
G75*
G02*
X85750000Y-63437500I0J-62500D01*
G01*
X85750000Y-63562500D01*
G75*
G02*
X85687500Y-63625000I-62500J0D01*
G01*
G37*
G36*
G01*
X85687500Y-64125000D02*
X85112500Y-64125000D01*
G75*
G02*
X85050000Y-64062500I0J62500D01*
G01*
X85050000Y-63937500D01*
G75*
G02*
X85112500Y-63875000I62500J0D01*
G01*
X85687500Y-63875000D01*
G75*
G02*
X85750000Y-63937500I0J-62500D01*
G01*
X85750000Y-64062500D01*
G75*
G02*
X85687500Y-64125000I-62500J0D01*
G01*
G37*
G36*
G01*
X85687500Y-64625000D02*
X85112500Y-64625000D01*
G75*
G02*
X85050000Y-64562500I0J62500D01*
G01*
X85050000Y-64437500D01*
G75*
G02*
X85112500Y-64375000I62500J0D01*
G01*
X85687500Y-64375000D01*
G75*
G02*
X85750000Y-64437500I0J-62500D01*
G01*
X85750000Y-64562500D01*
G75*
G02*
X85687500Y-64625000I-62500J0D01*
G01*
G37*
G36*
G01*
X84562500Y-65750000D02*
X84437500Y-65750000D01*
G75*
G02*
X84375000Y-65687500I0J62500D01*
G01*
X84375000Y-65112500D01*
G75*
G02*
X84437500Y-65050000I62500J0D01*
G01*
X84562500Y-65050000D01*
G75*
G02*
X84625000Y-65112500I0J-62500D01*
G01*
X84625000Y-65687500D01*
G75*
G02*
X84562500Y-65750000I-62500J0D01*
G01*
G37*
G36*
G01*
X84062500Y-65750000D02*
X83937500Y-65750000D01*
G75*
G02*
X83875000Y-65687500I0J62500D01*
G01*
X83875000Y-65112500D01*
G75*
G02*
X83937500Y-65050000I62500J0D01*
G01*
X84062500Y-65050000D01*
G75*
G02*
X84125000Y-65112500I0J-62500D01*
G01*
X84125000Y-65687500D01*
G75*
G02*
X84062500Y-65750000I-62500J0D01*
G01*
G37*
G36*
G01*
X83562500Y-65750000D02*
X83437500Y-65750000D01*
G75*
G02*
X83375000Y-65687500I0J62500D01*
G01*
X83375000Y-65112500D01*
G75*
G02*
X83437500Y-65050000I62500J0D01*
G01*
X83562500Y-65050000D01*
G75*
G02*
X83625000Y-65112500I0J-62500D01*
G01*
X83625000Y-65687500D01*
G75*
G02*
X83562500Y-65750000I-62500J0D01*
G01*
G37*
G36*
G01*
X83062500Y-65750000D02*
X82937500Y-65750000D01*
G75*
G02*
X82875000Y-65687500I0J62500D01*
G01*
X82875000Y-65112500D01*
G75*
G02*
X82937500Y-65050000I62500J0D01*
G01*
X83062500Y-65050000D01*
G75*
G02*
X83125000Y-65112500I0J-62500D01*
G01*
X83125000Y-65687500D01*
G75*
G02*
X83062500Y-65750000I-62500J0D01*
G01*
G37*
G36*
G01*
X82562500Y-65750000D02*
X82437500Y-65750000D01*
G75*
G02*
X82375000Y-65687500I0J62500D01*
G01*
X82375000Y-65112500D01*
G75*
G02*
X82437500Y-65050000I62500J0D01*
G01*
X82562500Y-65050000D01*
G75*
G02*
X82625000Y-65112500I0J-62500D01*
G01*
X82625000Y-65687500D01*
G75*
G02*
X82562500Y-65750000I-62500J0D01*
G01*
G37*
%TD*%
%TO.C,R1*%
G36*
G01*
X95925000Y-40275000D02*
X95925000Y-39725000D01*
G75*
G02*
X96125000Y-39525000I200000J0D01*
G01*
X96525000Y-39525000D01*
G75*
G02*
X96725000Y-39725000I0J-200000D01*
G01*
X96725000Y-40275000D01*
G75*
G02*
X96525000Y-40475000I-200000J0D01*
G01*
X96125000Y-40475000D01*
G75*
G02*
X95925000Y-40275000I0J200000D01*
G01*
G37*
G36*
G01*
X94275000Y-40275000D02*
X94275000Y-39725000D01*
G75*
G02*
X94475000Y-39525000I200000J0D01*
G01*
X94875000Y-39525000D01*
G75*
G02*
X95075000Y-39725000I0J-200000D01*
G01*
X95075000Y-40275000D01*
G75*
G02*
X94875000Y-40475000I-200000J0D01*
G01*
X94475000Y-40475000D01*
G75*
G02*
X94275000Y-40275000I0J200000D01*
G01*
G37*
%TD*%
D12*
%TO.C,D1*%
X94550000Y-42650000D03*
X94550000Y-41350000D03*
X96450000Y-42000000D03*
X94550000Y-42000000D03*
X96450000Y-41350000D03*
X96450000Y-42650000D03*
%TD*%
%TO.C,C2*%
G36*
G01*
X97750000Y-42325000D02*
X98250000Y-42325000D01*
G75*
G02*
X98475000Y-42550000I0J-225000D01*
G01*
X98475000Y-43000000D01*
G75*
G02*
X98250000Y-43225000I-225000J0D01*
G01*
X97750000Y-43225000D01*
G75*
G02*
X97525000Y-43000000I0J225000D01*
G01*
X97525000Y-42550000D01*
G75*
G02*
X97750000Y-42325000I225000J0D01*
G01*
G37*
G36*
G01*
X97750000Y-40775000D02*
X98250000Y-40775000D01*
G75*
G02*
X98475000Y-41000000I0J-225000D01*
G01*
X98475000Y-41450000D01*
G75*
G02*
X98250000Y-41675000I-225000J0D01*
G01*
X97750000Y-41675000D01*
G75*
G02*
X97525000Y-41450000I0J225000D01*
G01*
X97525000Y-41000000D01*
G75*
G02*
X97750000Y-40775000I225000J0D01*
G01*
G37*
%TD*%
%TO.C,U9*%
X98450000Y-52350000D03*
X98450000Y-53650000D03*
X96550000Y-53000000D03*
X98450000Y-53000000D03*
X96550000Y-53650000D03*
X96550000Y-52350000D03*
%TD*%
%TO.C,U8*%
X94950000Y-52350000D03*
X94950000Y-53650000D03*
X93050000Y-53000000D03*
X94950000Y-53000000D03*
X93050000Y-53650000D03*
X93050000Y-52350000D03*
%TD*%
%TO.C,U7*%
X94950000Y-46850000D03*
X94950000Y-48150000D03*
X93050000Y-47500000D03*
X94950000Y-47500000D03*
X93050000Y-48150000D03*
X93050000Y-46850000D03*
%TD*%
%TO.C,U6*%
X98450000Y-46850000D03*
X98450000Y-48150000D03*
X96550000Y-47500000D03*
X98450000Y-47500000D03*
X96550000Y-48150000D03*
X96550000Y-46850000D03*
%TD*%
%TO.C,U1*%
G36*
G01*
X79450000Y-46247500D02*
X79450000Y-45782500D01*
G75*
G02*
X79682500Y-45550000I232500J0D01*
G01*
X80147500Y-45550000D01*
G75*
G02*
X80380000Y-45782500I0J-232500D01*
G01*
X80380000Y-46247500D01*
G75*
G02*
X80147500Y-46480000I-232500J0D01*
G01*
X79682500Y-46480000D01*
G75*
G02*
X79450000Y-46247500I0J232500D01*
G01*
G37*
G36*
G01*
X78300000Y-49697500D02*
X78300000Y-49232500D01*
G75*
G02*
X78532500Y-49000000I232500J0D01*
G01*
X78997500Y-49000000D01*
G75*
G02*
X79230000Y-49232500I0J-232500D01*
G01*
X79230000Y-49697500D01*
G75*
G02*
X78997500Y-49930000I-232500J0D01*
G01*
X78532500Y-49930000D01*
G75*
G02*
X78300000Y-49697500I0J232500D01*
G01*
G37*
G36*
G01*
X78300000Y-48547500D02*
X78300000Y-48082500D01*
G75*
G02*
X78532500Y-47850000I232500J0D01*
G01*
X78997500Y-47850000D01*
G75*
G02*
X79230000Y-48082500I0J-232500D01*
G01*
X79230000Y-48547500D01*
G75*
G02*
X78997500Y-48780000I-232500J0D01*
G01*
X78532500Y-48780000D01*
G75*
G02*
X78300000Y-48547500I0J232500D01*
G01*
G37*
G36*
G01*
X78300000Y-47397500D02*
X78300000Y-46932500D01*
G75*
G02*
X78532500Y-46700000I232500J0D01*
G01*
X78997500Y-46700000D01*
G75*
G02*
X79230000Y-46932500I0J-232500D01*
G01*
X79230000Y-47397500D01*
G75*
G02*
X78997500Y-47630000I-232500J0D01*
G01*
X78532500Y-47630000D01*
G75*
G02*
X78300000Y-47397500I0J232500D01*
G01*
G37*
G36*
G01*
X78300000Y-46247500D02*
X78300000Y-45782500D01*
G75*
G02*
X78532500Y-45550000I232500J0D01*
G01*
X78997500Y-45550000D01*
G75*
G02*
X79230000Y-45782500I0J-232500D01*
G01*
X79230000Y-46247500D01*
G75*
G02*
X78997500Y-46480000I-232500J0D01*
G01*
X78532500Y-46480000D01*
G75*
G02*
X78300000Y-46247500I0J232500D01*
G01*
G37*
G36*
G01*
X81750000Y-49697500D02*
X81750000Y-49232500D01*
G75*
G02*
X81982500Y-49000000I232500J0D01*
G01*
X82447500Y-49000000D01*
G75*
G02*
X82680000Y-49232500I0J-232500D01*
G01*
X82680000Y-49697500D01*
G75*
G02*
X82447500Y-49930000I-232500J0D01*
G01*
X81982500Y-49930000D01*
G75*
G02*
X81750000Y-49697500I0J232500D01*
G01*
G37*
G36*
G01*
X81750000Y-48547500D02*
X81750000Y-48082500D01*
G75*
G02*
X81982500Y-47850000I232500J0D01*
G01*
X82447500Y-47850000D01*
G75*
G02*
X82680000Y-48082500I0J-232500D01*
G01*
X82680000Y-48547500D01*
G75*
G02*
X82447500Y-48780000I-232500J0D01*
G01*
X81982500Y-48780000D01*
G75*
G02*
X81750000Y-48547500I0J232500D01*
G01*
G37*
G36*
G01*
X81750000Y-47397500D02*
X81750000Y-46932500D01*
G75*
G02*
X81982500Y-46700000I232500J0D01*
G01*
X82447500Y-46700000D01*
G75*
G02*
X82680000Y-46932500I0J-232500D01*
G01*
X82680000Y-47397500D01*
G75*
G02*
X82447500Y-47630000I-232500J0D01*
G01*
X81982500Y-47630000D01*
G75*
G02*
X81750000Y-47397500I0J232500D01*
G01*
G37*
G36*
G01*
X81750000Y-46247500D02*
X81750000Y-45782500D01*
G75*
G02*
X81982500Y-45550000I232500J0D01*
G01*
X82447500Y-45550000D01*
G75*
G02*
X82680000Y-45782500I0J-232500D01*
G01*
X82680000Y-46247500D01*
G75*
G02*
X82447500Y-46480000I-232500J0D01*
G01*
X81982500Y-46480000D01*
G75*
G02*
X81750000Y-46247500I0J232500D01*
G01*
G37*
G36*
G01*
X80600000Y-49697500D02*
X80600000Y-49232500D01*
G75*
G02*
X80832500Y-49000000I232500J0D01*
G01*
X81297500Y-49000000D01*
G75*
G02*
X81530000Y-49232500I0J-232500D01*
G01*
X81530000Y-49697500D01*
G75*
G02*
X81297500Y-49930000I-232500J0D01*
G01*
X80832500Y-49930000D01*
G75*
G02*
X80600000Y-49697500I0J232500D01*
G01*
G37*
G36*
G01*
X80600000Y-48547500D02*
X80600000Y-48082500D01*
G75*
G02*
X80832500Y-47850000I232500J0D01*
G01*
X81297500Y-47850000D01*
G75*
G02*
X81530000Y-48082500I0J-232500D01*
G01*
X81530000Y-48547500D01*
G75*
G02*
X81297500Y-48780000I-232500J0D01*
G01*
X80832500Y-48780000D01*
G75*
G02*
X80600000Y-48547500I0J232500D01*
G01*
G37*
G36*
G01*
X80600000Y-47397500D02*
X80600000Y-46932500D01*
G75*
G02*
X80832500Y-46700000I232500J0D01*
G01*
X81297500Y-46700000D01*
G75*
G02*
X81530000Y-46932500I0J-232500D01*
G01*
X81530000Y-47397500D01*
G75*
G02*
X81297500Y-47630000I-232500J0D01*
G01*
X80832500Y-47630000D01*
G75*
G02*
X80600000Y-47397500I0J232500D01*
G01*
G37*
G36*
G01*
X80600000Y-46247500D02*
X80600000Y-45782500D01*
G75*
G02*
X80832500Y-45550000I232500J0D01*
G01*
X81297500Y-45550000D01*
G75*
G02*
X81530000Y-45782500I0J-232500D01*
G01*
X81530000Y-46247500D01*
G75*
G02*
X81297500Y-46480000I-232500J0D01*
G01*
X80832500Y-46480000D01*
G75*
G02*
X80600000Y-46247500I0J232500D01*
G01*
G37*
G36*
G01*
X79450000Y-49697500D02*
X79450000Y-49232500D01*
G75*
G02*
X79682500Y-49000000I232500J0D01*
G01*
X80147500Y-49000000D01*
G75*
G02*
X80380000Y-49232500I0J-232500D01*
G01*
X80380000Y-49697500D01*
G75*
G02*
X80147500Y-49930000I-232500J0D01*
G01*
X79682500Y-49930000D01*
G75*
G02*
X79450000Y-49697500I0J232500D01*
G01*
G37*
G36*
G01*
X79450000Y-48547500D02*
X79450000Y-48082500D01*
G75*
G02*
X79682500Y-47850000I232500J0D01*
G01*
X80147500Y-47850000D01*
G75*
G02*
X80380000Y-48082500I0J-232500D01*
G01*
X80380000Y-48547500D01*
G75*
G02*
X80147500Y-48780000I-232500J0D01*
G01*
X79682500Y-48780000D01*
G75*
G02*
X79450000Y-48547500I0J232500D01*
G01*
G37*
G36*
G01*
X79450000Y-47397500D02*
X79450000Y-46932500D01*
G75*
G02*
X79682500Y-46700000I232500J0D01*
G01*
X80147500Y-46700000D01*
G75*
G02*
X80380000Y-46932500I0J-232500D01*
G01*
X80380000Y-47397500D01*
G75*
G02*
X80147500Y-47630000I-232500J0D01*
G01*
X79682500Y-47630000D01*
G75*
G02*
X79450000Y-47397500I0J232500D01*
G01*
G37*
D13*
X90000000Y-40245000D03*
X90000000Y-41515000D03*
X90000000Y-42785000D03*
X90000000Y-44055000D03*
X90000000Y-45325000D03*
X90000000Y-46595000D03*
X90000000Y-47865000D03*
X90000000Y-49135000D03*
X90000000Y-50405000D03*
X90000000Y-51675000D03*
X90000000Y-52945000D03*
X90000000Y-54215000D03*
X90000000Y-55485000D03*
X90000000Y-56755000D03*
D14*
X87215000Y-57755000D03*
X85945000Y-57755000D03*
X84675000Y-57755000D03*
X83405000Y-57755000D03*
X82135000Y-57755000D03*
X80865000Y-57755000D03*
X79595000Y-57755000D03*
X78325000Y-57755000D03*
X77055000Y-57755000D03*
X75785000Y-57755000D03*
D13*
X73000000Y-56755000D03*
X73000000Y-55485000D03*
X73000000Y-54215000D03*
X73000000Y-52945000D03*
X73000000Y-51675000D03*
X73000000Y-50405000D03*
X73000000Y-49135000D03*
X73000000Y-47865000D03*
X73000000Y-46595000D03*
X73000000Y-45325000D03*
X73000000Y-44055000D03*
X73000000Y-42785000D03*
X73000000Y-41515000D03*
X73000000Y-40245000D03*
%TD*%
%TO.C,Reg1*%
G36*
G01*
X94850000Y-64300000D02*
X94850000Y-63800000D01*
G75*
G02*
X95100000Y-63550000I250000J0D01*
G01*
X95800000Y-63550000D01*
G75*
G02*
X96050000Y-63800000I0J-250000D01*
G01*
X96050000Y-64300000D01*
G75*
G02*
X95800000Y-64550000I-250000J0D01*
G01*
X95100000Y-64550000D01*
G75*
G02*
X94850000Y-64300000I0J250000D01*
G01*
G37*
G36*
G01*
X94850000Y-63150000D02*
X94850000Y-62650000D01*
G75*
G02*
X95100000Y-62400000I250000J0D01*
G01*
X95800000Y-62400000D01*
G75*
G02*
X96050000Y-62650000I0J-250000D01*
G01*
X96050000Y-63150000D01*
G75*
G02*
X95800000Y-63400000I-250000J0D01*
G01*
X95100000Y-63400000D01*
G75*
G02*
X94850000Y-63150000I0J250000D01*
G01*
G37*
G36*
G01*
X94850000Y-62000000D02*
X94850000Y-61500000D01*
G75*
G02*
X95100000Y-61250000I250000J0D01*
G01*
X95800000Y-61250000D01*
G75*
G02*
X96050000Y-61500000I0J-250000D01*
G01*
X96050000Y-62000000D01*
G75*
G02*
X95800000Y-62250000I-250000J0D01*
G01*
X95100000Y-62250000D01*
G75*
G02*
X94850000Y-62000000I0J250000D01*
G01*
G37*
G36*
G01*
X91850000Y-63150000D02*
X91850000Y-62650000D01*
G75*
G02*
X92100000Y-62400000I250000J0D01*
G01*
X92800000Y-62400000D01*
G75*
G02*
X93050000Y-62650000I0J-250000D01*
G01*
X93050000Y-63150000D01*
G75*
G02*
X92800000Y-63400000I-250000J0D01*
G01*
X92100000Y-63400000D01*
G75*
G02*
X91850000Y-63150000I0J250000D01*
G01*
G37*
G36*
G01*
X91850000Y-64300000D02*
X91850000Y-63800000D01*
G75*
G02*
X92100000Y-63550000I250000J0D01*
G01*
X92800000Y-63550000D01*
G75*
G02*
X93050000Y-63800000I0J-250000D01*
G01*
X93050000Y-64300000D01*
G75*
G02*
X92800000Y-64550000I-250000J0D01*
G01*
X92100000Y-64550000D01*
G75*
G02*
X91850000Y-64300000I0J250000D01*
G01*
G37*
G36*
G01*
X91850000Y-62000000D02*
X91850000Y-61500000D01*
G75*
G02*
X92100000Y-61250000I250000J0D01*
G01*
X92800000Y-61250000D01*
G75*
G02*
X93050000Y-61500000I0J-250000D01*
G01*
X93050000Y-62000000D01*
G75*
G02*
X92800000Y-62250000I-250000J0D01*
G01*
X92100000Y-62250000D01*
G75*
G02*
X91850000Y-62000000I0J250000D01*
G01*
G37*
D15*
X91000000Y-61500000D03*
X89100000Y-61500000D03*
X90050000Y-61500000D03*
X89100000Y-64200000D03*
X90050000Y-64200000D03*
X91000000Y-64200000D03*
G36*
G01*
X94975000Y-64950000D02*
X95925000Y-64950000D01*
G75*
G02*
X96175000Y-65200000I0J-250000D01*
G01*
X96175000Y-65700000D01*
G75*
G02*
X95925000Y-65950000I-250000J0D01*
G01*
X94975000Y-65950000D01*
G75*
G02*
X94725000Y-65700000I0J250000D01*
G01*
X94725000Y-65200000D01*
G75*
G02*
X94975000Y-64950000I250000J0D01*
G01*
G37*
G36*
G01*
X94975000Y-66850000D02*
X95925000Y-66850000D01*
G75*
G02*
X96175000Y-67100000I0J-250000D01*
G01*
X96175000Y-67600000D01*
G75*
G02*
X95925000Y-67850000I-250000J0D01*
G01*
X94975000Y-67850000D01*
G75*
G02*
X94725000Y-67600000I0J250000D01*
G01*
X94725000Y-67100000D01*
G75*
G02*
X94975000Y-66850000I250000J0D01*
G01*
G37*
G36*
G01*
X88725000Y-66850000D02*
X89675000Y-66850000D01*
G75*
G02*
X89925000Y-67100000I0J-250000D01*
G01*
X89925000Y-67600000D01*
G75*
G02*
X89675000Y-67850000I-250000J0D01*
G01*
X88725000Y-67850000D01*
G75*
G02*
X88475000Y-67600000I0J250000D01*
G01*
X88475000Y-67100000D01*
G75*
G02*
X88725000Y-66850000I250000J0D01*
G01*
G37*
G36*
G01*
X88725000Y-64950000D02*
X89675000Y-64950000D01*
G75*
G02*
X89925000Y-65200000I0J-250000D01*
G01*
X89925000Y-65700000D01*
G75*
G02*
X89675000Y-65950000I-250000J0D01*
G01*
X88725000Y-65950000D01*
G75*
G02*
X88475000Y-65700000I0J250000D01*
G01*
X88475000Y-65200000D01*
G75*
G02*
X88725000Y-64950000I250000J0D01*
G01*
G37*
G36*
G01*
X88200000Y-62525000D02*
X87700000Y-62525000D01*
G75*
G02*
X87475000Y-62300000I0J225000D01*
G01*
X87475000Y-61850000D01*
G75*
G02*
X87700000Y-61625000I225000J0D01*
G01*
X88200000Y-61625000D01*
G75*
G02*
X88425000Y-61850000I0J-225000D01*
G01*
X88425000Y-62300000D01*
G75*
G02*
X88200000Y-62525000I-225000J0D01*
G01*
G37*
G36*
G01*
X88200000Y-64075000D02*
X87700000Y-64075000D01*
G75*
G02*
X87475000Y-63850000I0J225000D01*
G01*
X87475000Y-63400000D01*
G75*
G02*
X87700000Y-63175000I225000J0D01*
G01*
X88200000Y-63175000D01*
G75*
G02*
X88425000Y-63400000I0J-225000D01*
G01*
X88425000Y-63850000D01*
G75*
G02*
X88200000Y-64075000I-225000J0D01*
G01*
G37*
G36*
G01*
X90125000Y-66645626D02*
X90125000Y-65394374D01*
G75*
G02*
X90374374Y-65145000I249374J0D01*
G01*
X91300626Y-65145000D01*
G75*
G02*
X91550000Y-65394374I0J-249374D01*
G01*
X91550000Y-66645626D01*
G75*
G02*
X91300626Y-66895000I-249374J0D01*
G01*
X90374374Y-66895000D01*
G75*
G02*
X90125000Y-66645626I0J249374D01*
G01*
G37*
G36*
G01*
X93100000Y-66645626D02*
X93100000Y-65394374D01*
G75*
G02*
X93349374Y-65145000I249374J0D01*
G01*
X94275626Y-65145000D01*
G75*
G02*
X94525000Y-65394374I0J-249374D01*
G01*
X94525000Y-66645626D01*
G75*
G02*
X94275626Y-66895000I-249374J0D01*
G01*
X93349374Y-66895000D01*
G75*
G02*
X93100000Y-66645626I0J249374D01*
G01*
G37*
%TD*%
%TO.C,R17*%
G36*
G01*
X97075000Y-54725000D02*
X97075000Y-55275000D01*
G75*
G02*
X96875000Y-55475000I-200000J0D01*
G01*
X96475000Y-55475000D01*
G75*
G02*
X96275000Y-55275000I0J200000D01*
G01*
X96275000Y-54725000D01*
G75*
G02*
X96475000Y-54525000I200000J0D01*
G01*
X96875000Y-54525000D01*
G75*
G02*
X97075000Y-54725000I0J-200000D01*
G01*
G37*
G36*
G01*
X98725000Y-54725000D02*
X98725000Y-55275000D01*
G75*
G02*
X98525000Y-55475000I-200000J0D01*
G01*
X98125000Y-55475000D01*
G75*
G02*
X97925000Y-55275000I0J200000D01*
G01*
X97925000Y-54725000D01*
G75*
G02*
X98125000Y-54525000I200000J0D01*
G01*
X98525000Y-54525000D01*
G75*
G02*
X98725000Y-54725000I0J-200000D01*
G01*
G37*
%TD*%
%TO.C,R16*%
G36*
G01*
X97575000Y-35225000D02*
X97575000Y-35775000D01*
G75*
G02*
X97375000Y-35975000I-200000J0D01*
G01*
X96975000Y-35975000D01*
G75*
G02*
X96775000Y-35775000I0J200000D01*
G01*
X96775000Y-35225000D01*
G75*
G02*
X96975000Y-35025000I200000J0D01*
G01*
X97375000Y-35025000D01*
G75*
G02*
X97575000Y-35225000I0J-200000D01*
G01*
G37*
G36*
G01*
X99225000Y-35225000D02*
X99225000Y-35775000D01*
G75*
G02*
X99025000Y-35975000I-200000J0D01*
G01*
X98625000Y-35975000D01*
G75*
G02*
X98425000Y-35775000I0J200000D01*
G01*
X98425000Y-35225000D01*
G75*
G02*
X98625000Y-35025000I200000J0D01*
G01*
X99025000Y-35025000D01*
G75*
G02*
X99225000Y-35225000I0J-200000D01*
G01*
G37*
%TD*%
%TO.C,R15*%
G36*
G01*
X97925000Y-51275000D02*
X97925000Y-50725000D01*
G75*
G02*
X98125000Y-50525000I200000J0D01*
G01*
X98525000Y-50525000D01*
G75*
G02*
X98725000Y-50725000I0J-200000D01*
G01*
X98725000Y-51275000D01*
G75*
G02*
X98525000Y-51475000I-200000J0D01*
G01*
X98125000Y-51475000D01*
G75*
G02*
X97925000Y-51275000I0J200000D01*
G01*
G37*
G36*
G01*
X96275000Y-51275000D02*
X96275000Y-50725000D01*
G75*
G02*
X96475000Y-50525000I200000J0D01*
G01*
X96875000Y-50525000D01*
G75*
G02*
X97075000Y-50725000I0J-200000D01*
G01*
X97075000Y-51275000D01*
G75*
G02*
X96875000Y-51475000I-200000J0D01*
G01*
X96475000Y-51475000D01*
G75*
G02*
X96275000Y-51275000I0J200000D01*
G01*
G37*
%TD*%
%TO.C,R14*%
G36*
G01*
X93575000Y-54725000D02*
X93575000Y-55275000D01*
G75*
G02*
X93375000Y-55475000I-200000J0D01*
G01*
X92975000Y-55475000D01*
G75*
G02*
X92775000Y-55275000I0J200000D01*
G01*
X92775000Y-54725000D01*
G75*
G02*
X92975000Y-54525000I200000J0D01*
G01*
X93375000Y-54525000D01*
G75*
G02*
X93575000Y-54725000I0J-200000D01*
G01*
G37*
G36*
G01*
X95225000Y-54725000D02*
X95225000Y-55275000D01*
G75*
G02*
X95025000Y-55475000I-200000J0D01*
G01*
X94625000Y-55475000D01*
G75*
G02*
X94425000Y-55275000I0J200000D01*
G01*
X94425000Y-54725000D01*
G75*
G02*
X94625000Y-54525000I200000J0D01*
G01*
X95025000Y-54525000D01*
G75*
G02*
X95225000Y-54725000I0J-200000D01*
G01*
G37*
%TD*%
%TO.C,R10*%
G36*
G01*
X94425000Y-56775000D02*
X94425000Y-56225000D01*
G75*
G02*
X94625000Y-56025000I200000J0D01*
G01*
X95025000Y-56025000D01*
G75*
G02*
X95225000Y-56225000I0J-200000D01*
G01*
X95225000Y-56775000D01*
G75*
G02*
X95025000Y-56975000I-200000J0D01*
G01*
X94625000Y-56975000D01*
G75*
G02*
X94425000Y-56775000I0J200000D01*
G01*
G37*
G36*
G01*
X92775000Y-56775000D02*
X92775000Y-56225000D01*
G75*
G02*
X92975000Y-56025000I200000J0D01*
G01*
X93375000Y-56025000D01*
G75*
G02*
X93575000Y-56225000I0J-200000D01*
G01*
X93575000Y-56775000D01*
G75*
G02*
X93375000Y-56975000I-200000J0D01*
G01*
X92975000Y-56975000D01*
G75*
G02*
X92775000Y-56775000I0J200000D01*
G01*
G37*
%TD*%
%TO.C,R9*%
G36*
G01*
X97075000Y-56225000D02*
X97075000Y-56775000D01*
G75*
G02*
X96875000Y-56975000I-200000J0D01*
G01*
X96475000Y-56975000D01*
G75*
G02*
X96275000Y-56775000I0J200000D01*
G01*
X96275000Y-56225000D01*
G75*
G02*
X96475000Y-56025000I200000J0D01*
G01*
X96875000Y-56025000D01*
G75*
G02*
X97075000Y-56225000I0J-200000D01*
G01*
G37*
G36*
G01*
X98725000Y-56225000D02*
X98725000Y-56775000D01*
G75*
G02*
X98525000Y-56975000I-200000J0D01*
G01*
X98125000Y-56975000D01*
G75*
G02*
X97925000Y-56775000I0J200000D01*
G01*
X97925000Y-56225000D01*
G75*
G02*
X98125000Y-56025000I200000J0D01*
G01*
X98525000Y-56025000D01*
G75*
G02*
X98725000Y-56225000I0J-200000D01*
G01*
G37*
%TD*%
%TO.C,R8*%
G36*
G01*
X95075000Y-43725000D02*
X95075000Y-44275000D01*
G75*
G02*
X94875000Y-44475000I-200000J0D01*
G01*
X94475000Y-44475000D01*
G75*
G02*
X94275000Y-44275000I0J200000D01*
G01*
X94275000Y-43725000D01*
G75*
G02*
X94475000Y-43525000I200000J0D01*
G01*
X94875000Y-43525000D01*
G75*
G02*
X95075000Y-43725000I0J-200000D01*
G01*
G37*
G36*
G01*
X96725000Y-43725000D02*
X96725000Y-44275000D01*
G75*
G02*
X96525000Y-44475000I-200000J0D01*
G01*
X96125000Y-44475000D01*
G75*
G02*
X95925000Y-44275000I0J200000D01*
G01*
X95925000Y-43725000D01*
G75*
G02*
X96125000Y-43525000I200000J0D01*
G01*
X96525000Y-43525000D01*
G75*
G02*
X96725000Y-43725000I0J-200000D01*
G01*
G37*
%TD*%
%TO.C,R7*%
G36*
G01*
X94425000Y-51275000D02*
X94425000Y-50725000D01*
G75*
G02*
X94625000Y-50525000I200000J0D01*
G01*
X95025000Y-50525000D01*
G75*
G02*
X95225000Y-50725000I0J-200000D01*
G01*
X95225000Y-51275000D01*
G75*
G02*
X95025000Y-51475000I-200000J0D01*
G01*
X94625000Y-51475000D01*
G75*
G02*
X94425000Y-51275000I0J200000D01*
G01*
G37*
G36*
G01*
X92775000Y-51275000D02*
X92775000Y-50725000D01*
G75*
G02*
X92975000Y-50525000I200000J0D01*
G01*
X93375000Y-50525000D01*
G75*
G02*
X93575000Y-50725000I0J-200000D01*
G01*
X93575000Y-51275000D01*
G75*
G02*
X93375000Y-51475000I-200000J0D01*
G01*
X92975000Y-51475000D01*
G75*
G02*
X92775000Y-51275000I0J200000D01*
G01*
G37*
%TD*%
%TO.C,R6*%
G36*
G01*
X93575000Y-49225000D02*
X93575000Y-49775000D01*
G75*
G02*
X93375000Y-49975000I-200000J0D01*
G01*
X92975000Y-49975000D01*
G75*
G02*
X92775000Y-49775000I0J200000D01*
G01*
X92775000Y-49225000D01*
G75*
G02*
X92975000Y-49025000I200000J0D01*
G01*
X93375000Y-49025000D01*
G75*
G02*
X93575000Y-49225000I0J-200000D01*
G01*
G37*
G36*
G01*
X95225000Y-49225000D02*
X95225000Y-49775000D01*
G75*
G02*
X95025000Y-49975000I-200000J0D01*
G01*
X94625000Y-49975000D01*
G75*
G02*
X94425000Y-49775000I0J200000D01*
G01*
X94425000Y-49225000D01*
G75*
G02*
X94625000Y-49025000I200000J0D01*
G01*
X95025000Y-49025000D01*
G75*
G02*
X95225000Y-49225000I0J-200000D01*
G01*
G37*
%TD*%
%TO.C,R5*%
G36*
G01*
X94425000Y-45775000D02*
X94425000Y-45225000D01*
G75*
G02*
X94625000Y-45025000I200000J0D01*
G01*
X95025000Y-45025000D01*
G75*
G02*
X95225000Y-45225000I0J-200000D01*
G01*
X95225000Y-45775000D01*
G75*
G02*
X95025000Y-45975000I-200000J0D01*
G01*
X94625000Y-45975000D01*
G75*
G02*
X94425000Y-45775000I0J200000D01*
G01*
G37*
G36*
G01*
X92775000Y-45775000D02*
X92775000Y-45225000D01*
G75*
G02*
X92975000Y-45025000I200000J0D01*
G01*
X93375000Y-45025000D01*
G75*
G02*
X93575000Y-45225000I0J-200000D01*
G01*
X93575000Y-45775000D01*
G75*
G02*
X93375000Y-45975000I-200000J0D01*
G01*
X92975000Y-45975000D01*
G75*
G02*
X92775000Y-45775000I0J200000D01*
G01*
G37*
%TD*%
%TO.C,R4*%
G36*
G01*
X97075000Y-49225000D02*
X97075000Y-49775000D01*
G75*
G02*
X96875000Y-49975000I-200000J0D01*
G01*
X96475000Y-49975000D01*
G75*
G02*
X96275000Y-49775000I0J200000D01*
G01*
X96275000Y-49225000D01*
G75*
G02*
X96475000Y-49025000I200000J0D01*
G01*
X96875000Y-49025000D01*
G75*
G02*
X97075000Y-49225000I0J-200000D01*
G01*
G37*
G36*
G01*
X98725000Y-49225000D02*
X98725000Y-49775000D01*
G75*
G02*
X98525000Y-49975000I-200000J0D01*
G01*
X98125000Y-49975000D01*
G75*
G02*
X97925000Y-49775000I0J200000D01*
G01*
X97925000Y-49225000D01*
G75*
G02*
X98125000Y-49025000I200000J0D01*
G01*
X98525000Y-49025000D01*
G75*
G02*
X98725000Y-49225000I0J-200000D01*
G01*
G37*
%TD*%
%TO.C,R3*%
G36*
G01*
X97925000Y-45775000D02*
X97925000Y-45225000D01*
G75*
G02*
X98125000Y-45025000I200000J0D01*
G01*
X98525000Y-45025000D01*
G75*
G02*
X98725000Y-45225000I0J-200000D01*
G01*
X98725000Y-45775000D01*
G75*
G02*
X98525000Y-45975000I-200000J0D01*
G01*
X98125000Y-45975000D01*
G75*
G02*
X97925000Y-45775000I0J200000D01*
G01*
G37*
G36*
G01*
X96275000Y-45775000D02*
X96275000Y-45225000D01*
G75*
G02*
X96475000Y-45025000I200000J0D01*
G01*
X96875000Y-45025000D01*
G75*
G02*
X97075000Y-45225000I0J-200000D01*
G01*
X97075000Y-45775000D01*
G75*
G02*
X96875000Y-45975000I-200000J0D01*
G01*
X96475000Y-45975000D01*
G75*
G02*
X96275000Y-45775000I0J200000D01*
G01*
G37*
%TD*%
%TO.C,D6*%
G36*
G01*
X97775000Y-59125000D02*
X97775000Y-57875000D01*
G75*
G02*
X98025000Y-57625000I250000J0D01*
G01*
X98950000Y-57625000D01*
G75*
G02*
X99200000Y-57875000I0J-250000D01*
G01*
X99200000Y-59125000D01*
G75*
G02*
X98950000Y-59375000I-250000J0D01*
G01*
X98025000Y-59375000D01*
G75*
G02*
X97775000Y-59125000I0J250000D01*
G01*
G37*
G36*
G01*
X94800000Y-59125000D02*
X94800000Y-57875000D01*
G75*
G02*
X95050000Y-57625000I250000J0D01*
G01*
X95975000Y-57625000D01*
G75*
G02*
X96225000Y-57875000I0J-250000D01*
G01*
X96225000Y-59125000D01*
G75*
G02*
X95975000Y-59375000I-250000J0D01*
G01*
X95050000Y-59375000D01*
G75*
G02*
X94800000Y-59125000I0J250000D01*
G01*
G37*
%TD*%
%TO.C,D5*%
G36*
G01*
X97525000Y-33762500D02*
X97525000Y-34237500D01*
G75*
G02*
X97287500Y-34475000I-237500J0D01*
G01*
X96712500Y-34475000D01*
G75*
G02*
X96475000Y-34237500I0J237500D01*
G01*
X96475000Y-33762500D01*
G75*
G02*
X96712500Y-33525000I237500J0D01*
G01*
X97287500Y-33525000D01*
G75*
G02*
X97525000Y-33762500I0J-237500D01*
G01*
G37*
G36*
G01*
X99275000Y-33762500D02*
X99275000Y-34237500D01*
G75*
G02*
X99037500Y-34475000I-237500J0D01*
G01*
X98462500Y-34475000D01*
G75*
G02*
X98225000Y-34237500I0J237500D01*
G01*
X98225000Y-33762500D01*
G75*
G02*
X98462500Y-33525000I237500J0D01*
G01*
X99037500Y-33525000D01*
G75*
G02*
X99275000Y-33762500I0J-237500D01*
G01*
G37*
%TD*%
%TO.C,C7*%
G36*
G01*
X93250000Y-41675000D02*
X92750000Y-41675000D01*
G75*
G02*
X92525000Y-41450000I0J225000D01*
G01*
X92525000Y-41000000D01*
G75*
G02*
X92750000Y-40775000I225000J0D01*
G01*
X93250000Y-40775000D01*
G75*
G02*
X93475000Y-41000000I0J-225000D01*
G01*
X93475000Y-41450000D01*
G75*
G02*
X93250000Y-41675000I-225000J0D01*
G01*
G37*
G36*
G01*
X93250000Y-43225000D02*
X92750000Y-43225000D01*
G75*
G02*
X92525000Y-43000000I0J225000D01*
G01*
X92525000Y-42550000D01*
G75*
G02*
X92750000Y-42325000I225000J0D01*
G01*
X93250000Y-42325000D01*
G75*
G02*
X93475000Y-42550000I0J-225000D01*
G01*
X93475000Y-43000000D01*
G75*
G02*
X93250000Y-43225000I-225000J0D01*
G01*
G37*
%TD*%
%TO.C,C1*%
G36*
G01*
X81725000Y-67350000D02*
X81725000Y-66850000D01*
G75*
G02*
X81950000Y-66625000I225000J0D01*
G01*
X82400000Y-66625000D01*
G75*
G02*
X82625000Y-66850000I0J-225000D01*
G01*
X82625000Y-67350000D01*
G75*
G02*
X82400000Y-67575000I-225000J0D01*
G01*
X81950000Y-67575000D01*
G75*
G02*
X81725000Y-67350000I0J225000D01*
G01*
G37*
G36*
G01*
X80175000Y-67350000D02*
X80175000Y-66850000D01*
G75*
G02*
X80400000Y-66625000I225000J0D01*
G01*
X80850000Y-66625000D01*
G75*
G02*
X81075000Y-66850000I0J-225000D01*
G01*
X81075000Y-67350000D01*
G75*
G02*
X80850000Y-67575000I-225000J0D01*
G01*
X80400000Y-67575000D01*
G75*
G02*
X80175000Y-67350000I0J225000D01*
G01*
G37*
%TD*%
M02*
