%TF.GenerationSoftware,KiCad,Pcbnew,(6.0.2-0)*%
%TF.CreationDate,2022-02-22T18:22:15+00:00*%
%TF.ProjectId,Bell2,42656c6c-322e-46b6-9963-61645f706362,2*%
%TF.SameCoordinates,Original*%
%TF.FileFunction,Copper,L1,Top*%
%TF.FilePolarity,Positive*%
%FSLAX46Y46*%
G04 Gerber Fmt 4.6, Leading zero omitted, Abs format (unit mm)*
G04 Created by KiCad (PCBNEW (6.0.2-0)) date 2022-02-22 18:22:15*
%MOMM*%
%LPD*%
G01*
G04 APERTURE LIST*
G04 Aperture macros list*
%AMRoundRect*
0 Rectangle with rounded corners*
0 $1 Rounding radius*
0 $2 $3 $4 $5 $6 $7 $8 $9 X,Y pos of 4 corners*
0 Add a 4 corners polygon primitive as box body*
4,1,4,$2,$3,$4,$5,$6,$7,$8,$9,$2,$3,0*
0 Add four circle primitives for the rounded corners*
1,1,$1+$1,$2,$3*
1,1,$1+$1,$4,$5*
1,1,$1+$1,$6,$7*
1,1,$1+$1,$8,$9*
0 Add four rect primitives between the rounded corners*
20,1,$1+$1,$2,$3,$4,$5,0*
20,1,$1+$1,$4,$5,$6,$7,0*
20,1,$1+$1,$6,$7,$8,$9,0*
20,1,$1+$1,$8,$9,$2,$3,0*%
%AMFreePoly0*
4,1,43,1.102950,0.110584,1.224483,0.068057,1.333507,-0.000447,1.424553,-0.091493,1.493057,-0.200517,1.535584,-0.322050,1.550000,-0.450000,1.533253,-0.512500,1.487500,-0.558253,1.425000,-0.575000,1.362500,-0.558253,1.316747,-0.512500,1.300000,-0.450000,1.302546,-0.440498,1.287946,-0.348318,1.241208,-0.256589,1.168411,-0.183792,1.076682,-0.137054,0.984502,-0.122454,0.975000,-0.125000,
-0.975000,-0.125000,-0.984502,-0.122454,-1.076682,-0.137054,-1.168411,-0.183792,-1.241208,-0.256589,-1.287946,-0.348318,-1.302546,-0.440498,-1.300000,-0.450000,-1.316747,-0.512500,-1.362500,-0.558253,-1.425000,-0.575000,-1.487500,-0.558253,-1.533253,-0.512500,-1.550000,-0.450000,-1.535584,-0.322050,-1.493057,-0.200517,-1.424553,-0.091493,-1.333507,-0.000447,-1.224483,0.068057,-1.102950,0.110584,
-0.975000,0.125000,0.975000,0.125000,1.102950,0.110584,1.102950,0.110584,$1*%
%AMFreePoly1*
4,1,24,1.812500,0.558253,1.858253,0.512500,1.875000,0.450000,1.860584,0.322050,1.818057,0.200517,1.749553,0.091493,1.658507,0.000447,1.549483,-0.068057,1.427950,-0.110584,1.300000,-0.125000,-1.300000,-0.125000,-1.300000,0.125000,1.300000,0.125000,1.309502,0.122454,1.401682,0.137054,1.493411,0.183792,1.566208,0.256589,1.612946,0.348318,1.627546,0.440498,1.625000,0.450000,
1.641747,0.512500,1.687500,0.558253,1.750000,0.575000,1.812500,0.558253,1.812500,0.558253,$1*%
%AMFreePoly2*
4,1,37,1.095671,1.230970,1.176777,1.176777,1.230970,1.095671,1.250000,1.000000,1.234611,0.804457,1.188821,0.613729,1.113759,0.432512,1.011272,0.265269,0.883885,0.116117,0.734733,-0.011271,0.567490,-0.113758,0.386273,-0.188820,0.195545,-0.234610,0.000002,-0.250000,-0.095669,-0.230970,-0.176775,-0.176777,-0.230968,-0.095671,-0.249998,0.000000,-0.230968,0.095671,-0.176775,0.176777,
-0.095669,0.230970,0.000002,0.250000,0.012204,0.247573,0.147027,0.260852,0.288403,0.303738,0.418695,0.373381,0.532897,0.467104,0.626620,0.581306,0.696263,0.711599,0.739148,0.852974,0.752427,0.987798,0.750000,1.000000,0.769030,1.095671,0.823223,1.176777,0.904329,1.230970,1.000000,1.250000,1.095671,1.230970,1.095671,1.230970,$1*%
%AMFreePoly3*
4,1,72,4.686563,7.086550,4.817878,7.046716,4.938899,6.982029,5.044975,6.894975,5.132029,6.788899,5.196716,6.667878,5.236550,6.536563,5.250000,6.400000,5.250000,1.600000,5.230970,1.504329,5.176777,1.423223,5.112500,1.380275,5.112500,0.250000,6.600000,0.250000,6.695671,0.230970,6.776777,0.176777,6.830970,0.095671,6.850000,0.000000,6.830970,-0.095671,6.776777,-0.176777,
6.695671,-0.230970,6.600000,-0.250000,0.000000,-0.250000,-0.095671,-0.230970,-0.176777,-0.176777,-0.230970,-0.095671,-0.250000,0.000000,-0.230970,0.095671,-0.176777,0.176777,-0.095671,0.230970,0.000000,0.250000,4.612500,0.250000,4.612500,1.600000,4.631530,1.695671,4.685723,1.776777,4.750000,1.819725,4.750000,6.400000,4.751388,6.406978,4.742582,6.462574,4.713820,6.519022,
4.669022,6.563820,4.612574,6.592582,4.556978,6.601388,4.550000,6.600000,1.550000,6.600000,1.543022,6.601388,1.487426,6.592582,1.430978,6.563820,1.386180,6.519022,1.357418,6.462574,1.348612,6.406978,1.350000,6.400000,1.350000,5.900000,1.330970,5.804329,1.276777,5.723223,1.195671,5.669030,1.100000,5.650000,1.004329,5.669030,0.923223,5.723223,0.869030,5.804329,
0.850000,5.900000,0.850000,6.400000,0.863450,6.536563,0.903284,6.667878,0.967971,6.788899,1.055025,6.894975,1.161101,6.982029,1.282122,7.046716,1.413437,7.086550,1.550000,7.100000,4.550000,7.100000,4.686563,7.086550,4.686563,7.086550,$1*%
%AMFreePoly4*
4,1,18,-0.124998,0.730000,0.725000,0.730000,0.728536,0.728536,0.730000,0.725000,0.730000,-0.725000,0.728536,-0.728536,0.725000,-0.730000,-0.725000,-0.730000,-0.728536,-0.728536,-0.730000,-0.725000,-0.730000,0.124998,-0.730001,0.125000,-0.728536,0.128536,-0.128536,0.728535,-0.128536,0.728536,-0.126768,0.729268,-0.125000,0.730001,-0.124998,0.730000,-0.124998,0.730000,$1*%
%AMFreePoly5*
4,1,136,3.383385,4.221938,3.559722,4.168447,3.722236,4.081581,3.864680,3.964680,3.981581,3.822236,4.068447,3.659722,4.121938,3.483385,4.125213,3.450138,4.182769,3.539508,4.186818,3.554319,4.232803,3.599839,4.295387,3.616268,4.357802,3.599205,4.403322,3.553220,4.419751,3.490636,4.402688,3.428221,4.402685,3.428218,4.172864,3.069999,4.056927,2.918726,3.981581,2.777764,
3.864680,2.635320,3.750000,2.541204,3.750000,0.022998,4.066621,-0.229499,4.408387,-0.546611,4.440740,-0.602647,4.440740,-0.667351,4.408387,-0.723387,4.352351,-0.755740,4.287647,-0.755740,4.231611,-0.723387,4.223834,-0.709917,3.889556,-0.400914,3.520256,-0.109781,3.483169,-0.085000,2.500000,-0.085000,2.500000,-1.185000,3.750000,-1.185000,3.750000,-2.745000,-3.750000,-2.745000,
-3.750000,-1.185000,-2.500000,-1.185000,-2.500000,-0.085000,-3.483168,-0.085000,-3.520257,-0.109782,-3.889557,-0.400914,-4.223835,-0.709917,-4.231612,-0.723388,-4.287648,-0.755741,-4.352352,-0.755741,-4.408388,-0.723388,-4.440741,-0.667352,-4.440741,-0.602648,-4.408388,-0.546612,-4.066622,-0.229500,-3.750000,0.022998,-3.750000,2.541204,-3.864680,2.635320,-3.981581,2.777764,-4.057059,2.918973,
-4.182136,3.083248,-4.410822,3.442198,-4.427688,3.504666,-4.411060,3.567198,-4.365394,3.613038,-4.302926,3.629904,-4.240394,3.613276,-4.194554,3.567610,-4.190552,3.552787,-4.125171,3.450557,-4.121938,3.483385,-4.068447,3.659722,-3.981581,3.822236,-3.864680,3.964680,-3.722236,4.081581,-3.559722,4.168447,-3.383385,4.221938,-3.200000,4.240000,-3.137500,4.223253,-3.091747,4.177500,
-3.075000,4.115000,-3.091747,4.052500,-3.137500,4.006747,-3.200000,3.990000,-3.211471,3.993074,-3.354511,3.976957,-3.501274,3.925602,-3.632930,3.842877,-3.742877,3.732930,-3.825602,3.601274,-3.876957,3.454511,-3.894366,3.300000,-3.876957,3.145489,-3.839657,3.038894,-3.713800,2.875371,-3.594054,2.745000,-2.998152,2.745000,-3.015000,3.045000,-2.998253,3.107500,-2.952500,3.153253,
-2.890000,3.170000,-2.827500,3.153253,-2.781747,3.107500,-2.765000,3.045000,-2.768849,3.030634,-2.752213,2.745000,2.752213,2.745000,2.768849,3.030634,2.765000,3.045000,2.781747,3.107500,2.827500,3.153253,2.890000,3.170000,2.952500,3.153253,2.998253,3.107500,3.015000,3.045000,2.998152,2.745000,3.594234,2.745000,3.703871,2.863608,3.839648,3.038866,3.876957,3.145489,
3.894366,3.300000,3.876957,3.454511,3.825602,3.601274,3.742877,3.732930,3.632930,3.842877,3.501274,3.925602,3.354511,3.976957,3.211471,3.993074,3.200000,3.990000,3.137500,4.006747,3.091747,4.052500,3.075000,4.115000,3.091747,4.177500,3.137500,4.223253,3.200000,4.240000,3.383385,4.221938,3.383385,4.221938,$1*%
G04 Aperture macros list end*
%TA.AperFunction,ComponentPad*%
%ADD10RoundRect,0.250000X0.675000X-0.600000X0.675000X0.600000X-0.675000X0.600000X-0.675000X-0.600000X0*%
%TD*%
%TA.AperFunction,ComponentPad*%
%ADD11O,1.850000X1.700000*%
%TD*%
%TA.AperFunction,SMDPad,CuDef*%
%ADD12RoundRect,0.200000X-0.200000X-0.275000X0.200000X-0.275000X0.200000X0.275000X-0.200000X0.275000X0*%
%TD*%
%TA.AperFunction,ComponentPad*%
%ADD13RoundRect,0.250000X-0.600000X-0.675000X0.600000X-0.675000X0.600000X0.675000X-0.600000X0.675000X0*%
%TD*%
%TA.AperFunction,ComponentPad*%
%ADD14O,1.700000X1.850000*%
%TD*%
%TA.AperFunction,SMDPad,CuDef*%
%ADD15RoundRect,0.200000X0.200000X0.275000X-0.200000X0.275000X-0.200000X-0.275000X0.200000X-0.275000X0*%
%TD*%
%TA.AperFunction,SMDPad,CuDef*%
%ADD16RoundRect,0.200000X-0.275000X0.200000X-0.275000X-0.200000X0.275000X-0.200000X0.275000X0.200000X0*%
%TD*%
%TA.AperFunction,SMDPad,CuDef*%
%ADD17RoundRect,0.200000X0.275000X-0.200000X0.275000X0.200000X-0.275000X0.200000X-0.275000X-0.200000X0*%
%TD*%
%TA.AperFunction,SMDPad,CuDef*%
%ADD18RoundRect,0.225000X0.225000X0.250000X-0.225000X0.250000X-0.225000X-0.250000X0.225000X-0.250000X0*%
%TD*%
%TA.AperFunction,SMDPad,CuDef*%
%ADD19RoundRect,0.150000X-0.725000X-0.150000X0.725000X-0.150000X0.725000X0.150000X-0.725000X0.150000X0*%
%TD*%
%TA.AperFunction,SMDPad,CuDef*%
%ADD20RoundRect,0.250001X0.462499X0.624999X-0.462499X0.624999X-0.462499X-0.624999X0.462499X-0.624999X0*%
%TD*%
%TA.AperFunction,SMDPad,CuDef*%
%ADD21R,1.100000X0.600000*%
%TD*%
%TA.AperFunction,SMDPad,CuDef*%
%ADD22R,0.500000X2.000000*%
%TD*%
%TA.AperFunction,SMDPad,CuDef*%
%ADD23FreePoly0,90.000000*%
%TD*%
%TA.AperFunction,SMDPad,CuDef*%
%ADD24RoundRect,0.249375X0.625625X-0.463125X0.625625X0.463125X-0.625625X0.463125X-0.625625X-0.463125X0*%
%TD*%
%TA.AperFunction,SMDPad,CuDef*%
%ADD25FreePoly1,90.000000*%
%TD*%
%TA.AperFunction,SMDPad,CuDef*%
%ADD26R,3.700000X1.425000*%
%TD*%
%TA.AperFunction,SMDPad,CuDef*%
%ADD27R,2.000000X0.500000*%
%TD*%
%TA.AperFunction,SMDPad,CuDef*%
%ADD28RoundRect,0.250000X-0.250000X-0.475000X0.250000X-0.475000X0.250000X0.475000X-0.250000X0.475000X0*%
%TD*%
%TA.AperFunction,SMDPad,CuDef*%
%ADD29FreePoly2,90.000000*%
%TD*%
%TA.AperFunction,SMDPad,CuDef*%
%ADD30FreePoly3,90.000000*%
%TD*%
%TA.AperFunction,SMDPad,CuDef*%
%ADD31R,4.000000X0.500000*%
%TD*%
%TA.AperFunction,SMDPad,CuDef*%
%ADD32R,0.850000X0.500000*%
%TD*%
%TA.AperFunction,SMDPad,CuDef*%
%ADD33R,0.800000X0.400000*%
%TD*%
%TA.AperFunction,SMDPad,CuDef*%
%ADD34R,0.400000X0.800000*%
%TD*%
%TA.AperFunction,SMDPad,CuDef*%
%ADD35R,1.450000X1.450000*%
%TD*%
%TA.AperFunction,SMDPad,CuDef*%
%ADD36R,0.700000X0.700000*%
%TD*%
%TA.AperFunction,SMDPad,CuDef*%
%ADD37FreePoly4,0.000000*%
%TD*%
%TA.AperFunction,SMDPad,CuDef*%
%ADD38R,0.600000X1.140000*%
%TD*%
%TA.AperFunction,SMDPad,CuDef*%
%ADD39RoundRect,0.075000X-0.075000X-0.495000X0.075000X-0.495000X0.075000X0.495000X-0.075000X0.495000X0*%
%TD*%
%TA.AperFunction,SMDPad,CuDef*%
%ADD40R,5.000000X5.490000*%
%TD*%
%TA.AperFunction,ComponentPad*%
%ADD41C,1.500000*%
%TD*%
%TA.AperFunction,ComponentPad*%
%ADD42C,1.250000*%
%TD*%
%TA.AperFunction,ComponentPad*%
%ADD43C,0.600000*%
%TD*%
%TA.AperFunction,SMDPad,CuDef*%
%ADD44FreePoly5,0.000000*%
%TD*%
%TA.AperFunction,SMDPad,CuDef*%
%ADD45RoundRect,0.062500X-0.350000X-0.062500X0.350000X-0.062500X0.350000X0.062500X-0.350000X0.062500X0*%
%TD*%
%TA.AperFunction,SMDPad,CuDef*%
%ADD46RoundRect,0.062500X-0.062500X-0.350000X0.062500X-0.350000X0.062500X0.350000X-0.062500X0.350000X0*%
%TD*%
%TA.AperFunction,SMDPad,CuDef*%
%ADD47R,2.500000X2.500000*%
%TD*%
%TA.AperFunction,ViaPad*%
%ADD48C,0.800000*%
%TD*%
%TA.AperFunction,Conductor*%
%ADD49C,0.250000*%
%TD*%
%TA.AperFunction,Conductor*%
%ADD50C,0.500000*%
%TD*%
%TA.AperFunction,Conductor*%
%ADD51C,0.200000*%
%TD*%
G04 APERTURE END LIST*
D10*
%TO.P,J3,1,Pin_1*%
%TO.N,GND*%
X101400000Y-57950000D03*
D11*
%TO.P,J3,2,Pin_2*%
%TO.N,+12V*%
X101400000Y-55450000D03*
%TO.P,J3,3,Pin_3*%
%TO.N,BELL*%
X101400000Y-52950000D03*
%TO.P,J3,4,Pin_4*%
%TO.N,STB*%
X101400000Y-50450000D03*
%TO.P,J3,5,Pin_5*%
%TO.N,ENGHOLD*%
X101400000Y-47950000D03*
%TO.P,J3,6,Pin_6*%
%TO.N,GND*%
X101400000Y-45450000D03*
%TO.P,J3,7,Pin_7*%
%TO.N,FAULT*%
X101400000Y-42950000D03*
%TO.P,J3,8,Pin_8*%
%TO.N,GND*%
X101400000Y-40450000D03*
%TO.P,J3,9,Pin_9*%
%TO.N,T*%
X101400000Y-37950000D03*
%TO.P,J3,10,Pin_10*%
%TO.N,~{BACKLIGHT}*%
X101400000Y-35450000D03*
%TD*%
D12*
%TO.P,R3,1*%
%TO.N,Net-(R2-Pad2)*%
X90425000Y-50750000D03*
%TO.P,R3,2*%
%TO.N,GND*%
X92075000Y-50750000D03*
%TD*%
%TO.P,R2,1*%
%TO.N,VBUS*%
X90500000Y-49250000D03*
%TO.P,R2,2*%
%TO.N,Net-(R2-Pad2)*%
X92150000Y-49250000D03*
%TD*%
D13*
%TO.P,J2,1,Pin_1*%
%TO.N,GND*%
X95000000Y-53900000D03*
D14*
%TO.P,J2,2,Pin_2*%
%TO.N,+12V*%
X97500000Y-53900000D03*
%TD*%
D15*
%TO.P,R10,1*%
%TO.N,Net-(D2-Pad4)*%
X89825000Y-42750000D03*
%TO.P,R10,2*%
%TO.N,B*%
X88175000Y-42750000D03*
%TD*%
D16*
%TO.P,R4,1*%
%TO.N,T*%
X99300000Y-36250000D03*
%TO.P,R4,2*%
%TO.N,IN1*%
X99300000Y-37900000D03*
%TD*%
D15*
%TO.P,R9,1*%
%TO.N,Net-(D2-Pad3)*%
X89825000Y-41500000D03*
%TO.P,R9,2*%
%TO.N,G*%
X88175000Y-41500000D03*
%TD*%
D17*
%TO.P,R7,1*%
%TO.N,FAULT*%
X99300000Y-40575000D03*
%TO.P,R7,2*%
%TO.N,IN2*%
X99300000Y-38925000D03*
%TD*%
D18*
%TO.P,C1,1*%
%TO.N,+3V3*%
X94025000Y-34000000D03*
%TO.P,C1,2*%
%TO.N,GND*%
X92475000Y-34000000D03*
%TD*%
D12*
%TO.P,R1,1*%
%TO.N,EN*%
X73925000Y-50500000D03*
%TO.P,R1,2*%
%TO.N,+3V3*%
X75575000Y-50500000D03*
%TD*%
D19*
%TO.P,U4,1,NC*%
%TO.N,unconnected-(U4-Pad1)*%
X93675000Y-42095000D03*
%TO.P,U4,2,IN_A*%
%TO.N,OUT4*%
X93675000Y-43365000D03*
%TO.P,U4,3,GND*%
%TO.N,GND*%
X93675000Y-44635000D03*
%TO.P,U4,4,IN_B*%
%TO.N,OUT3*%
X93675000Y-45905000D03*
%TO.P,U4,5,OUT_B*%
%TO.N,ENGHOLD*%
X98825000Y-45905000D03*
%TO.P,U4,6,V+*%
%TO.N,+12V*%
X98825000Y-44635000D03*
%TO.P,U4,7,OUT_A*%
%TO.N,~{BACKLIGHT}*%
X98825000Y-43365000D03*
%TO.P,U4,8,NC*%
%TO.N,unconnected-(U4-Pad8)*%
X98825000Y-42095000D03*
%TD*%
%TO.P,U3,1,NC*%
%TO.N,unconnected-(U3-Pad1)*%
X93675000Y-47595000D03*
%TO.P,U3,2,IN_A*%
%TO.N,OUT2*%
X93675000Y-48865000D03*
%TO.P,U3,3,GND*%
%TO.N,GND*%
X93675000Y-50135000D03*
%TO.P,U3,4,IN_B*%
%TO.N,OUT1*%
X93675000Y-51405000D03*
%TO.P,U3,5,OUT_B*%
%TO.N,BELL*%
X98825000Y-51405000D03*
%TO.P,U3,6,V+*%
%TO.N,+12V*%
X98825000Y-50135000D03*
%TO.P,U3,7,OUT_A*%
%TO.N,STB*%
X98825000Y-48865000D03*
%TO.P,U3,8,NC*%
%TO.N,unconnected-(U3-Pad8)*%
X98825000Y-47595000D03*
%TD*%
D15*
%TO.P,R5,1*%
%TO.N,Net-(J1-PadA5)*%
X85825000Y-52250000D03*
%TO.P,R5,2*%
%TO.N,GND*%
X84175000Y-52250000D03*
%TD*%
D16*
%TO.P,R12,1*%
%TO.N,GND*%
X74000000Y-55175000D03*
%TO.P,R12,2*%
%TO.N,Net-(R11-Pad2)*%
X74000000Y-56825000D03*
%TD*%
D15*
%TO.P,R6,1*%
%TO.N,GND*%
X91075000Y-52250000D03*
%TO.P,R6,2*%
%TO.N,Net-(J1-PadB5)*%
X89425000Y-52250000D03*
%TD*%
D20*
%TO.P,D3,1,K*%
%TO.N,+12V*%
X90487500Y-47500000D03*
%TO.P,D3,2,A*%
%TO.N,VBUS*%
X87512500Y-47500000D03*
%TD*%
D17*
%TO.P,R11,1*%
%TO.N,+3V3*%
X74000000Y-59575000D03*
%TO.P,R11,2*%
%TO.N,Net-(R11-Pad2)*%
X74000000Y-57925000D03*
%TD*%
D21*
%TO.P,U5,*%
%TO.N,*%
X78850000Y-56750000D03*
D22*
X78850000Y-55800000D03*
D23*
X77950000Y-58175000D03*
D24*
X80670000Y-56902500D03*
D25*
X77050000Y-58500000D03*
D18*
X78525000Y-59800000D03*
X76975000Y-59800000D03*
D26*
X77550000Y-55300000D03*
D27*
X79800000Y-56750000D03*
D21*
X76150000Y-56750000D03*
%TO.P,U5,1,SHDN*%
%TO.N,+12V*%
X78850000Y-58650000D03*
%TO.P,U5,2,VIN*%
X78850000Y-57700000D03*
D28*
X80100000Y-58550000D03*
D29*
X80050000Y-58760000D03*
D30*
%TO.P,U5,3,GND*%
%TO.N,GND*%
X82000000Y-58800000D03*
D28*
X82000000Y-52300000D03*
X82000000Y-58550000D03*
D24*
X80670000Y-53937500D03*
D21*
X76150000Y-57700000D03*
D31*
%TO.P,U5,4,VOUT*%
%TO.N,+3V3*%
X78300000Y-52300000D03*
D28*
X80100000Y-52300000D03*
D26*
X77550000Y-52300000D03*
D21*
%TO.P,U5,5,FB*%
%TO.N,Net-(R11-Pad2)*%
X76150000Y-58650000D03*
%TD*%
D15*
%TO.P,R8,1*%
%TO.N,Net-(D2-Pad2)*%
X89825000Y-44000000D03*
%TO.P,R8,2*%
%TO.N,R*%
X88175000Y-44000000D03*
%TD*%
D32*
%TO.P,D2,1,A*%
%TO.N,+3V3*%
X88250000Y-39250000D03*
%TO.P,D2,2,RK*%
%TO.N,Net-(D2-Pad2)*%
X90000000Y-39250000D03*
%TO.P,D2,3,GK*%
%TO.N,Net-(D2-Pad3)*%
X90000000Y-40250000D03*
%TO.P,D2,4,BK*%
%TO.N,Net-(D2-Pad4)*%
X88250000Y-40250000D03*
%TD*%
D33*
%TO.P,U1,1,GND*%
%TO.N,GND*%
X73900000Y-40100000D03*
%TO.P,U1,2,GND*%
X73900000Y-40900000D03*
%TO.P,U1,3,3V3*%
%TO.N,+3V3*%
X73900000Y-41700000D03*
%TO.P,U1,4,I36*%
%TO.N,unconnected-(U1-Pad4)*%
X73900000Y-42500000D03*
%TO.P,U1,5,I37*%
%TO.N,unconnected-(U1-Pad5)*%
X73900000Y-43300000D03*
%TO.P,U1,6,I38*%
%TO.N,unconnected-(U1-Pad6)*%
X73900000Y-44100000D03*
%TO.P,U1,7,I39*%
%TO.N,unconnected-(U1-Pad7)*%
X73900000Y-44900000D03*
%TO.P,U1,8,EN*%
%TO.N,EN*%
X73900000Y-45700000D03*
%TO.P,U1,9,I34*%
%TO.N,unconnected-(U1-Pad9)*%
X73900000Y-46500000D03*
%TO.P,U1,10,I35*%
%TO.N,unconnected-(U1-Pad10)*%
X73900000Y-47300000D03*
%TO.P,U1,11,GND*%
%TO.N,GND*%
X73900000Y-48100000D03*
D34*
%TO.P,U1,12,IO32*%
%TO.N,unconnected-(U1-Pad12)*%
X75000000Y-49000000D03*
%TO.P,U1,13,IO33*%
%TO.N,unconnected-(U1-Pad13)*%
X75800000Y-49000000D03*
%TO.P,U1,14,GND*%
%TO.N,GND*%
X76600000Y-49000000D03*
%TO.P,U1,15,IO25*%
%TO.N,unconnected-(U1-Pad15)*%
X77400000Y-49000000D03*
%TO.P,U1,16,IO26*%
%TO.N,unconnected-(U1-Pad16)*%
X78200000Y-49000000D03*
%TO.P,U1,17,IO27*%
%TO.N,unconnected-(U1-Pad17)*%
X79000000Y-49000000D03*
%TO.P,U1,18,IO14*%
%TO.N,OUT1*%
X79800000Y-49000000D03*
%TO.P,U1,19,IO12*%
%TO.N,unconnected-(U1-Pad19)*%
X80600000Y-49000000D03*
%TO.P,U1,20,IO13*%
%TO.N,OUT2*%
X81400000Y-49000000D03*
%TO.P,U1,21,IO15*%
%TO.N,OUT3*%
X82200000Y-49000000D03*
%TO.P,U1,22,IO2*%
%TO.N,unconnected-(U1-Pad22)*%
X83000000Y-49000000D03*
%TO.P,U1,23,IO0*%
%TO.N,BOOT*%
X83800000Y-49000000D03*
%TO.P,U1,24,IO4*%
%TO.N,unconnected-(U1-Pad24)*%
X84600000Y-49000000D03*
D33*
%TO.P,U1,25,NC*%
%TO.N,unconnected-(U1-Pad25)*%
X85700000Y-48100000D03*
%TO.P,U1,26,IO20*%
%TO.N,IN2*%
X85700000Y-47300000D03*
%TO.P,U1,27,IO7*%
%TO.N,IN1*%
X85700000Y-46500000D03*
%TO.P,U1,28,IO8*%
%TO.N,OUT4*%
X85700000Y-45700000D03*
%TO.P,U1,29,IO5*%
%TO.N,unconnected-(U1-Pad29)*%
X85700000Y-44900000D03*
%TO.P,U1,30,RXD0*%
%TO.N,I*%
X85700000Y-44100000D03*
%TO.P,U1,31,TXD0*%
%TO.N,O*%
X85700000Y-43300000D03*
%TO.P,U1,32,NC*%
%TO.N,unconnected-(U1-Pad32)*%
X85700000Y-42500000D03*
%TO.P,U1,33,IO19*%
%TO.N,R*%
X85700000Y-41700000D03*
%TO.P,U1,34,IO22*%
%TO.N,B*%
X85700000Y-40900000D03*
%TO.P,U1,35,IO21*%
%TO.N,G*%
X85700000Y-40100000D03*
D34*
%TO.P,U1,36,GND*%
%TO.N,GND*%
X84600000Y-39200000D03*
%TO.P,U1,37,GND*%
X83800000Y-39200000D03*
%TO.P,U1,38,GND*%
X83000000Y-39200000D03*
%TO.P,U1,39,GND*%
X82200000Y-39200000D03*
%TO.P,U1,40,GND*%
X81400000Y-39200000D03*
%TO.P,U1,41,GND*%
X80600000Y-39200000D03*
%TO.P,U1,42,GND*%
X79800000Y-39200000D03*
%TO.P,U1,43,GND*%
X79000000Y-39200000D03*
%TO.P,U1,44,GND*%
X78200000Y-39200000D03*
%TO.P,U1,45,GND*%
X77400000Y-39200000D03*
%TO.P,U1,46,GND*%
X76600000Y-39200000D03*
%TO.P,U1,47,GND*%
X75800000Y-39200000D03*
%TO.P,U1,48,GND*%
X75000000Y-39200000D03*
D35*
%TO.P,U1,49,GND*%
X79800000Y-44100000D03*
D36*
%TO.P,U1,50,GND*%
X85750000Y-39150000D03*
%TO.P,U1,51,GND*%
X85750000Y-49050000D03*
%TO.P,U1,52,GND*%
X73850000Y-49050000D03*
%TO.P,U1,53,GND*%
X73850000Y-39150000D03*
D35*
%TO.P,U1,54,GND*%
X77850000Y-44100000D03*
%TO.P,U1,55,GND*%
X77850000Y-46050000D03*
%TO.P,U1,56,GND*%
X79800000Y-46050000D03*
%TO.P,U1,57,GND*%
X81750000Y-46050000D03*
%TO.P,U1,58,GND*%
X81750000Y-44100000D03*
%TO.P,U1,59,GND*%
X81750000Y-42150000D03*
%TO.P,U1,60,GND*%
X79800000Y-42150000D03*
D37*
%TO.P,U1,61,GND*%
X77850000Y-42150000D03*
%TD*%
D38*
%TO.P,J1,A1,GND*%
%TO.N,GND*%
X84300000Y-53640000D03*
%TO.P,J1,A4,VBUS*%
%TO.N,VBUS*%
X85100000Y-53640000D03*
D39*
%TO.P,J1,A5,CC1*%
%TO.N,Net-(J1-PadA5)*%
X86250000Y-53640000D03*
%TO.P,J1,A6,D+*%
%TO.N,D+*%
X87250000Y-53640000D03*
%TO.P,J1,A7,D-*%
%TO.N,D-*%
X87750000Y-53640000D03*
%TO.P,J1,A8,SBU1*%
%TO.N,unconnected-(J1-PadA8)*%
X88750000Y-53640000D03*
D38*
%TO.P,J1,A9,VBUS*%
%TO.N,VBUS*%
X89900000Y-53640000D03*
%TO.P,J1,A12,GND*%
%TO.N,GND*%
X90700000Y-53640000D03*
%TO.P,J1,B1,GND*%
X90700000Y-53640000D03*
%TO.P,J1,B4,VBUS*%
%TO.N,VBUS*%
X89900000Y-53640000D03*
D39*
%TO.P,J1,B5,CC2*%
%TO.N,Net-(J1-PadB5)*%
X89250000Y-53640000D03*
%TO.P,J1,B6,D+*%
%TO.N,D+*%
X88250000Y-53640000D03*
%TO.P,J1,B7,D-*%
%TO.N,D-*%
X86750000Y-53640000D03*
%TO.P,J1,B8,SBU2*%
%TO.N,unconnected-(J1-PadB8)*%
X85750000Y-53640000D03*
D38*
%TO.P,J1,B9,VBUS*%
%TO.N,VBUS*%
X85100000Y-53640000D03*
%TO.P,J1,B12,GND*%
%TO.N,GND*%
X84300000Y-53640000D03*
D40*
%TO.P,J1,S1,SHIELD*%
X87500000Y-57755000D03*
D41*
X83180000Y-54220000D03*
D42*
X91820000Y-58390000D03*
D41*
X91820000Y-54220000D03*
D43*
X90390000Y-54710000D03*
D42*
X83180000Y-58390000D03*
D44*
X87500000Y-57755000D03*
D43*
X84610000Y-54710000D03*
%TD*%
D45*
%TO.P,U2,1,RXD*%
%TO.N,O*%
X93162500Y-37000000D03*
%TO.P,U2,2,~{RI}*%
%TO.N,GND*%
X93162500Y-37500000D03*
%TO.P,U2,3,GND*%
X93162500Y-38000000D03*
%TO.P,U2,4,~{DSR}*%
X93162500Y-38500000D03*
%TO.P,U2,5,~{DCD}*%
X93162500Y-39000000D03*
D46*
%TO.P,U2,6,~{CTS}*%
X94100000Y-39937500D03*
%TO.P,U2,7,CBUS2*%
%TO.N,unconnected-(U2-Pad7)*%
X94600000Y-39937500D03*
%TO.P,U2,8,USBDP*%
%TO.N,D+*%
X95100000Y-39937500D03*
%TO.P,U2,9,USBDM*%
%TO.N,D-*%
X95600000Y-39937500D03*
%TO.P,U2,10,3V3OUT*%
%TO.N,+3V3*%
X96100000Y-39937500D03*
D45*
%TO.P,U2,11,~{RESET}*%
X97037500Y-39000000D03*
%TO.P,U2,12,VCC*%
X97037500Y-38500000D03*
%TO.P,U2,13,GND*%
%TO.N,GND*%
X97037500Y-38000000D03*
%TO.P,U2,14,CBUS1*%
%TO.N,unconnected-(U2-Pad14)*%
X97037500Y-37500000D03*
%TO.P,U2,15,CBUS0*%
%TO.N,unconnected-(U2-Pad15)*%
X97037500Y-37000000D03*
D46*
%TO.P,U2,16,CBUS3*%
%TO.N,Net-(R2-Pad2)*%
X96100000Y-36062500D03*
%TO.P,U2,17,TXD*%
%TO.N,I*%
X95600000Y-36062500D03*
%TO.P,U2,18,~{DTR}*%
%TO.N,BOOT*%
X95100000Y-36062500D03*
%TO.P,U2,19,~{RTS}*%
%TO.N,EN*%
X94600000Y-36062500D03*
%TO.P,U2,20,VCCIO*%
%TO.N,+3V3*%
X94100000Y-36062500D03*
D47*
%TO.P,U2,21,GND*%
%TO.N,GND*%
X95100000Y-38000000D03*
%TD*%
D48*
%TO.N,GND*%
X103500000Y-37000000D03*
X94700000Y-37600000D03*
X105500000Y-34500000D03*
X84000000Y-41250000D03*
X93200000Y-36150000D03*
X80750000Y-55250000D03*
X75500000Y-43500000D03*
%TO.N,+3V3*%
X76500000Y-50500000D03*
X96750000Y-40000000D03*
X87250000Y-39500000D03*
X75250000Y-59750000D03*
X93250000Y-35000000D03*
X75750000Y-41750000D03*
%TO.N,+12V*%
X97250000Y-50250000D03*
X97724500Y-44750000D03*
X91325000Y-48476426D03*
X81000000Y-60000000D03*
%TO.N,D-*%
X89113754Y-50185327D03*
X86874642Y-52291448D03*
X96373278Y-41190964D03*
%TO.N,D+*%
X87777352Y-50532486D03*
X95374143Y-41218077D03*
X89250000Y-51175500D03*
%TO.N,OUT1*%
X79750000Y-50000000D03*
X95250000Y-51000000D03*
%TO.N,OUT3*%
X95250000Y-45750000D03*
X82250000Y-50000000D03*
%TO.N,O*%
X84750000Y-43050999D03*
X91500000Y-40500000D03*
%TO.N,I*%
X97006908Y-35468493D03*
X84500000Y-44500000D03*
%TO.N,OUT2*%
X81000000Y-50000000D03*
X95262299Y-49987701D03*
%TO.N,EN*%
X74750000Y-45750000D03*
X74000000Y-51500000D03*
X95237701Y-33737701D03*
%TO.N,BOOT*%
X96700000Y-34450000D03*
X83750000Y-48000000D03*
%TO.N,IN2*%
X92227991Y-46256131D03*
X100250000Y-39250000D03*
%TO.N,IN1*%
X98528748Y-37076845D03*
X92250000Y-45250000D03*
%TD*%
D49*
%TO.N,GND*%
X97000000Y-38000000D02*
X95100000Y-38000000D01*
X73850000Y-49100000D02*
X74649520Y-49899520D01*
X75000000Y-51250000D02*
X75000000Y-52250000D01*
D50*
X85750000Y-49050000D02*
X85750000Y-49349022D01*
X85750000Y-49349022D02*
X85112608Y-49986414D01*
D49*
X93200000Y-37500000D02*
X94600000Y-37500000D01*
X90700000Y-53640000D02*
X90700000Y-52625000D01*
X93675000Y-50135000D02*
X92690000Y-50135000D01*
X95000000Y-38000000D02*
X95100000Y-38000000D01*
X74000000Y-53250000D02*
X74000000Y-55175000D01*
D50*
X80670000Y-53937500D02*
X80670000Y-55170000D01*
D49*
X94100000Y-40968534D02*
X95074044Y-41942578D01*
X93200000Y-38500000D02*
X94600000Y-38500000D01*
X95115000Y-41950901D02*
X95115000Y-44635000D01*
X93200000Y-39000000D02*
X94100000Y-39000000D01*
X92690000Y-50135000D02*
X92075000Y-50750000D01*
X73850000Y-49050000D02*
X73850000Y-49100000D01*
X90700000Y-52625000D02*
X91075000Y-52250000D01*
X95106677Y-41942578D02*
X95115000Y-41950901D01*
D50*
X80670000Y-55170000D02*
X80750000Y-55250000D01*
D49*
X75000000Y-52250000D02*
X74000000Y-53250000D01*
X95074044Y-41942578D02*
X95106677Y-41942578D01*
X77850000Y-42150000D02*
X77850000Y-44100000D01*
X95115000Y-44635000D02*
X93675000Y-44635000D01*
X74649520Y-49899520D02*
X74649520Y-50899520D01*
X74649520Y-50899520D02*
X75000000Y-51250000D01*
X93200000Y-38000000D02*
X95000000Y-38000000D01*
X94100000Y-39900000D02*
X94100000Y-40968534D01*
X94100000Y-39000000D02*
X95100000Y-38000000D01*
X79800000Y-42150000D02*
X77850000Y-42150000D01*
X94100000Y-39900000D02*
X94100000Y-39000000D01*
D50*
X84175000Y-52250000D02*
G75*
G02*
X85112608Y-49986414I3201201J-3D01*
G01*
D49*
%TO.N,+3V3*%
X94025000Y-34000000D02*
X94025000Y-34225000D01*
X94100000Y-36100000D02*
X94100000Y-34181066D01*
X75700000Y-41700000D02*
X75750000Y-41750000D01*
X73900000Y-41700000D02*
X75700000Y-41700000D01*
X94025000Y-34225000D02*
X93250000Y-35000000D01*
X77030330Y-51780330D02*
X77550000Y-52300000D01*
X96100000Y-39937500D02*
X96599112Y-39937500D01*
X76500000Y-50500000D02*
X75575000Y-50500000D01*
X88250000Y-39250000D02*
X87500000Y-39250000D01*
X97037500Y-39000000D02*
X97037500Y-39305914D01*
X74000000Y-59575000D02*
X74827513Y-59575000D01*
X97000000Y-38500000D02*
X97000000Y-39000000D01*
X94025000Y-34000000D02*
G75*
G02*
X94100000Y-34181066I-181068J-181067D01*
G01*
X75250000Y-59750000D02*
G75*
G03*
X74827513Y-59575000I-422488J-422488D01*
G01*
X77030330Y-51780330D02*
G75*
G02*
X76500000Y-50500000I1280325J1280328D01*
G01*
X96750000Y-40000000D02*
G75*
G03*
X96599112Y-39937500I-150892J-150896D01*
G01*
X96750000Y-40000000D02*
G75*
G03*
X97037500Y-39305914I-694086J694086D01*
G01*
X87250000Y-39500000D02*
G75*
G02*
X87500000Y-39250000I249999J1D01*
G01*
%TO.N,VBUS*%
X85100000Y-53640000D02*
X85100000Y-51758217D01*
X85458217Y-51400000D02*
X86500000Y-51400000D01*
X87050000Y-50850000D02*
X87050000Y-47962500D01*
X85700000Y-54600000D02*
X89200000Y-54600000D01*
X89900000Y-53900000D02*
X89900000Y-53640000D01*
X87512500Y-47500000D02*
X88500000Y-47500000D01*
X89000000Y-48700000D02*
X89000000Y-48000000D01*
X90500000Y-49250000D02*
X89550000Y-49250000D01*
X85100000Y-53640000D02*
X85100000Y-54000000D01*
X89900000Y-53900000D02*
G75*
G02*
X89200000Y-54600000I-699999J-1D01*
G01*
X85458217Y-51400000D02*
G75*
G03*
X85100000Y-51758217I-1J-358216D01*
G01*
X87512500Y-47500000D02*
G75*
G03*
X87050000Y-47962500I0J-462500D01*
G01*
X85700000Y-54600000D02*
G75*
G02*
X85100000Y-54000000I0J600000D01*
G01*
X88500000Y-47500000D02*
G75*
G02*
X89000000Y-48000000I-1J-500001D01*
G01*
X87050000Y-50850000D02*
G75*
G02*
X86500000Y-51400000I-549999J-1D01*
G01*
X89000000Y-48700000D02*
G75*
G03*
X89550000Y-49250000I549999J-1D01*
G01*
D50*
%TO.N,+12V*%
X98825000Y-50135000D02*
X97527634Y-50135000D01*
X99850000Y-53900000D02*
X101400000Y-55450000D01*
X91325000Y-48476426D02*
X91325000Y-48337500D01*
X91325000Y-48337500D02*
X90487500Y-47500000D01*
X97500000Y-53900000D02*
X99850000Y-53900000D01*
X98825000Y-44635000D02*
X98002134Y-44635000D01*
D49*
X78850000Y-57700000D02*
X78850000Y-58650000D01*
D50*
X80100000Y-58550000D02*
X80611091Y-59061091D01*
X97724500Y-44750000D02*
G75*
G02*
X98002134Y-44635000I277632J-277630D01*
G01*
X97250000Y-50250000D02*
G75*
G02*
X97527634Y-50135000I277632J-277630D01*
G01*
X81000000Y-60000000D02*
G75*
G03*
X80611091Y-59061091I-1327815J1D01*
G01*
D49*
%TO.N,Net-(J1-PadA5)*%
X86250000Y-53640000D02*
X86250000Y-53276040D01*
X85825000Y-52250000D02*
G75*
G02*
X86250000Y-53276040I-1026040J-1026040D01*
G01*
%TO.N,Net-(J1-PadB5)*%
X89425000Y-52250000D02*
X89250000Y-52425000D01*
X89250000Y-52425000D02*
X89250000Y-53640000D01*
D51*
%TO.N,D-*%
X86750000Y-53640000D02*
X86750000Y-52416090D01*
X87750000Y-52975354D02*
X87750000Y-53640000D01*
X88550499Y-50885756D02*
X88418399Y-51017856D01*
X86750000Y-52416090D02*
X86874642Y-52291448D01*
X87962677Y-52762677D02*
X87750000Y-52975354D01*
X89016757Y-50419497D02*
X88550499Y-50885756D01*
X88100489Y-51785358D02*
X88100489Y-52429970D01*
X96373278Y-41190964D02*
X95600000Y-40417686D01*
X95600000Y-40417686D02*
X95600000Y-39937500D01*
X87962677Y-52762677D02*
G75*
G03*
X88100489Y-52429970I-332714J332710D01*
G01*
X89016757Y-50419497D02*
G75*
G03*
X89113754Y-50185327I-234171J234171D01*
G01*
X88100489Y-51785358D02*
G75*
G02*
X88418399Y-51017856I1085410J0D01*
G01*
%TO.N,D+*%
X89250000Y-51232123D02*
X88724774Y-51757348D01*
X88395174Y-52895174D02*
X88250000Y-53040349D01*
X87700978Y-50608860D02*
X87700978Y-52147127D01*
X87480180Y-52680180D02*
X87250000Y-52910361D01*
X88500000Y-52300000D02*
X88500000Y-52642102D01*
X87250000Y-52910361D02*
X87250000Y-53640000D01*
X95100000Y-39900000D02*
X95100000Y-40556238D01*
X89250000Y-51175500D02*
X89250000Y-51232123D01*
X87777352Y-50532486D02*
X87700978Y-50608860D01*
X88250000Y-53040349D02*
X88250000Y-53640000D01*
X88500001Y-52300000D02*
G75*
G02*
X88724775Y-51757349I767422J1D01*
G01*
X88395174Y-52895174D02*
G75*
G03*
X88500000Y-52642102I-253076J253074D01*
G01*
X95374143Y-41218077D02*
G75*
G02*
X95100000Y-40556238I661848J661843D01*
G01*
X87480180Y-52680180D02*
G75*
G03*
X87700978Y-52147127I-533059J533056D01*
G01*
D49*
%TO.N,OUT1*%
X79800000Y-49000000D02*
X79800000Y-49879290D01*
X94272244Y-51405000D02*
X93675000Y-51405000D01*
X94272244Y-51404999D02*
G75*
G03*
X95249999Y-50999999I1J1382752D01*
G01*
X79750000Y-50000000D02*
G75*
G03*
X79800000Y-49879290I-120713J120712D01*
G01*
%TO.N,OUT4*%
X87494422Y-44800000D02*
X90100000Y-44800000D01*
X93675000Y-43365000D02*
X92679472Y-43365000D01*
X91124264Y-44375736D02*
X91750000Y-43750000D01*
X86453002Y-45388097D02*
X86720549Y-45120549D01*
X91124264Y-44375736D02*
G75*
G02*
X90100000Y-44800000I-1024265J1024267D01*
G01*
X91750000Y-43750000D02*
G75*
G02*
X92679472Y-43365000I929472J-929472D01*
G01*
X87494422Y-44800001D02*
G75*
G03*
X86720549Y-45120549I0J-1094421D01*
G01*
X86453002Y-45388097D02*
G75*
G02*
X85700000Y-45700000I-753002J753003D01*
G01*
%TO.N,OUT3*%
X82200000Y-49000000D02*
X82200000Y-49879290D01*
X93675000Y-45905000D02*
X94875797Y-45905000D01*
X95250000Y-45750000D02*
G75*
G02*
X94875797Y-45905000I-374207J374213D01*
G01*
X82250000Y-50000000D02*
G75*
G02*
X82200000Y-49879290I120718J120714D01*
G01*
%TO.N,O*%
X91949520Y-40050480D02*
X91949520Y-37853152D01*
X84999001Y-43300000D02*
X84750000Y-43050999D01*
X85700000Y-43300000D02*
X84999001Y-43300000D01*
X93200000Y-37000000D02*
X92802672Y-37000000D01*
X91949520Y-40050480D02*
G75*
G02*
X91500000Y-40500000I-449519J-1D01*
G01*
X91949520Y-37853152D02*
G75*
G02*
X92802672Y-37000000I853151J1D01*
G01*
%TO.N,I*%
X84500000Y-44500000D02*
X84900000Y-44100000D01*
X84900000Y-44100000D02*
X85700000Y-44100000D01*
X95600000Y-36062500D02*
X95600000Y-35600000D01*
X95900000Y-35300000D02*
X96600130Y-35300000D01*
X95900000Y-35300000D02*
G75*
G03*
X95600000Y-35600000I0J-300000D01*
G01*
X97006908Y-35468493D02*
G75*
G03*
X96600130Y-35300000I-406780J-406782D01*
G01*
%TO.N,OUT2*%
X94468119Y-49193520D02*
X95262299Y-49987701D01*
X81400000Y-49000000D02*
X81400000Y-49034315D01*
X81000000Y-50000000D02*
G75*
G03*
X81400000Y-49034315I-965689J965687D01*
G01*
X94468119Y-49193520D02*
G75*
G03*
X93675000Y-48865000I-793121J-793125D01*
G01*
%TO.N,EN*%
X74000000Y-50575000D02*
X73925000Y-50500000D01*
X94962711Y-34401584D02*
X94932148Y-34432148D01*
X94600000Y-35234024D02*
X94600000Y-36100000D01*
X74000000Y-51500000D02*
X74000000Y-50575000D01*
X73900000Y-45700000D02*
X74700000Y-45700000D01*
X74700000Y-45700000D02*
X74750000Y-45750000D01*
X94962711Y-34401584D02*
G75*
G03*
X95237701Y-33737701I-663874J663880D01*
G01*
X94600001Y-35234024D02*
G75*
G02*
X94932149Y-34432149I1134014J4D01*
G01*
%TO.N,BOOT*%
X96700000Y-34450000D02*
X96294974Y-34450000D01*
X83750000Y-48950000D02*
X83800000Y-49000000D01*
X95100000Y-35644974D02*
X95100000Y-36062500D01*
X83750000Y-48000000D02*
X83750000Y-48950000D01*
X95100001Y-35644974D02*
G75*
G02*
X95450001Y-34800001I1194970J1D01*
G01*
X95450000Y-34800000D02*
G75*
G02*
X96294974Y-34450000I844975J-844976D01*
G01*
%TO.N,IN2*%
X86956254Y-46156254D02*
X86608057Y-46504451D01*
X99300000Y-38925000D02*
X99465381Y-38925000D01*
X86475480Y-46824520D02*
X86475480Y-47024520D01*
X92227991Y-46256131D02*
X92177410Y-46205550D01*
X91199510Y-45800490D02*
X87815144Y-45800490D01*
X86200000Y-47300000D02*
X85700000Y-47300000D01*
X100250000Y-39250000D02*
G75*
G03*
X99465381Y-38925000I-784622J-784625D01*
G01*
X86200000Y-47300000D02*
G75*
G03*
X86475480Y-47024520I1J275479D01*
G01*
X91199510Y-45800491D02*
G75*
G02*
X92177409Y-46205551I-1J-1382960D01*
G01*
X86475480Y-46824520D02*
G75*
G02*
X86608057Y-46504451I452650J-2D01*
G01*
X86956254Y-46156254D02*
G75*
G02*
X87815144Y-45800490I858890J-858889D01*
G01*
%TO.N,IN1*%
X86172530Y-46304271D02*
X86856845Y-45619957D01*
X99300000Y-37900000D02*
X99300000Y-37848097D01*
X87750000Y-45250000D02*
X92250000Y-45250000D01*
X98528748Y-37076845D02*
G75*
G02*
X99300000Y-37848097I2J-771250D01*
G01*
X86172530Y-46304271D02*
G75*
G02*
X85700000Y-46500000I-472528J472522D01*
G01*
X87750000Y-45250001D02*
G75*
G03*
X86856846Y-45619958I1J-1263114D01*
G01*
%TO.N,~{BACKLIGHT}*%
X102649520Y-43436502D02*
X102649520Y-36699520D01*
X100883460Y-44124520D02*
X101961502Y-44124520D01*
X98825000Y-43365000D02*
X99049818Y-43365000D01*
X100883460Y-44124519D02*
G75*
G02*
X100100001Y-43799999I1J1107981D01*
G01*
X101400000Y-35450000D02*
G75*
G02*
X102649520Y-36699520I0J-1249520D01*
G01*
X102649520Y-43436502D02*
G75*
G02*
X101961502Y-44124520I-688019J1D01*
G01*
X100100000Y-43800000D02*
G75*
G03*
X99049818Y-43365000I-1050184J-1050185D01*
G01*
%TO.N,T*%
X99700000Y-36250000D02*
X101400000Y-37950000D01*
%TO.N,FAULT*%
X99494454Y-41044455D02*
X101400000Y-42950000D01*
X99494454Y-41044455D02*
G75*
G02*
X99300000Y-40575000I469458J469455D01*
G01*
%TO.N,ENGHOLD*%
X100870000Y-47950000D02*
X98825000Y-45905000D01*
X101400000Y-47950000D02*
X100870000Y-47950000D01*
%TO.N,STB*%
X99815000Y-48865000D02*
X98825000Y-48865000D01*
X101400000Y-50450000D02*
X99815000Y-48865000D01*
%TO.N,BELL*%
X100370000Y-52950000D02*
X98825000Y-51405000D01*
X101400000Y-52950000D02*
X100370000Y-52950000D01*
%TO.N,Net-(D2-Pad3)*%
X90000000Y-41325000D02*
X89825000Y-41500000D01*
X90000000Y-40250000D02*
X90000000Y-41325000D01*
%TO.N,Net-(D2-Pad2)*%
X90749511Y-39949511D02*
X90749511Y-43550489D01*
X90300000Y-44000000D02*
X89825000Y-44000000D01*
X90000000Y-39250000D02*
X90050000Y-39250000D01*
X90749511Y-39949511D02*
G75*
G03*
X90050000Y-39250000I-699511J0D01*
G01*
X90300000Y-44000000D02*
G75*
G03*
X90749511Y-43550489I-1J449512D01*
G01*
%TO.N,G*%
X87900000Y-41500000D02*
X88175000Y-41500000D01*
X85700000Y-40100000D02*
X86500000Y-40100000D01*
X87900000Y-41500000D02*
G75*
G02*
X87400000Y-41000000I1J500001D01*
G01*
X87400000Y-41000000D02*
G75*
G03*
X86500000Y-40100000I-900000J0D01*
G01*
%TO.N,B*%
X86350000Y-40900000D02*
X85700000Y-40900000D01*
X87450000Y-42750000D02*
X88175000Y-42750000D01*
X87000000Y-41550000D02*
X87000000Y-42300000D01*
X87450000Y-42750000D02*
G75*
G02*
X87000000Y-42300000I0J450000D01*
G01*
X87000000Y-41550000D02*
G75*
G03*
X86350000Y-40900000I-650001J-1D01*
G01*
%TO.N,R*%
X86550317Y-42150317D02*
X86550317Y-43150317D01*
X87400000Y-44000000D02*
X88175000Y-44000000D01*
X85700000Y-41700000D02*
X86100000Y-41700000D01*
X87400000Y-44000000D02*
G75*
G02*
X86550317Y-43150317I-1J849682D01*
G01*
X86550317Y-42150317D02*
G75*
G03*
X86100000Y-41700000I-450318J-1D01*
G01*
%TO.N,Net-(R2-Pad2)*%
X96781802Y-42018198D02*
X96700000Y-42100000D01*
X96200000Y-43307106D02*
X96200000Y-46000000D01*
X96100000Y-36100000D02*
X96339026Y-36339026D01*
X92295840Y-49104160D02*
X92150000Y-49250000D01*
X95450000Y-46750000D02*
X93344401Y-46750000D01*
X96849520Y-36550480D02*
X97547808Y-36550480D01*
X97400000Y-40400000D02*
X97382843Y-40417158D01*
X97800000Y-36802672D02*
X97800000Y-39434315D01*
X91925000Y-49250000D02*
X90425000Y-50750000D01*
X92295840Y-47798561D02*
X92295840Y-49104160D01*
X92150000Y-49250000D02*
X91925000Y-49250000D01*
X97100000Y-41100000D02*
X97100000Y-41250000D01*
X96849520Y-36550479D02*
G75*
G02*
X96339027Y-36339025I0J721946D01*
G01*
X97100000Y-41100000D02*
G75*
G02*
X97382843Y-40417158I965675J3D01*
G01*
X95450000Y-46750000D02*
G75*
G03*
X96200000Y-46000000I0J750000D01*
G01*
X97800000Y-36802672D02*
G75*
G03*
X97547808Y-36550480I-252191J1D01*
G01*
X96781802Y-42018198D02*
G75*
G03*
X97100000Y-41250000I-768197J768198D01*
G01*
X92295840Y-47798561D02*
G75*
G02*
X93344401Y-46750000I1048560J1D01*
G01*
X96200001Y-43307106D02*
G75*
G02*
X96700001Y-42100001I1707107J-1D01*
G01*
X97400000Y-40400000D02*
G75*
G03*
X97800000Y-39434315I-965689J965687D01*
G01*
%TO.N,Net-(D2-Pad4)*%
X89100480Y-40925480D02*
X89100480Y-42025480D01*
X88250000Y-40250000D02*
X88425000Y-40250000D01*
X89100480Y-40925480D02*
G75*
G03*
X88425000Y-40250000I-675482J-2D01*
G01*
X89100480Y-42025480D02*
G75*
G03*
X89825000Y-42750000I724520J0D01*
G01*
%TO.N,Net-(R11-Pad2)*%
X75750304Y-58650000D02*
X76150000Y-58650000D01*
X74000000Y-56825000D02*
X74000000Y-57925000D01*
X75750304Y-58649999D02*
G75*
G02*
X74000000Y-57925000I2J2475308D01*
G01*
%TD*%
%TA.AperFunction,Conductor*%
%TO.N,GND*%
G36*
X107688121Y-33274002D02*
G01*
X107734614Y-33327658D01*
X107746000Y-33380000D01*
X107746000Y-60120000D01*
X107725998Y-60188121D01*
X107672342Y-60234614D01*
X107620000Y-60246000D01*
X81771319Y-60246000D01*
X81703198Y-60225998D01*
X81656705Y-60172342D01*
X81646576Y-60102248D01*
X81658581Y-60017894D01*
X81658582Y-60017884D01*
X81659162Y-60013807D01*
X81659307Y-60000000D01*
X81650187Y-59924636D01*
X81661860Y-59854607D01*
X81709541Y-59802005D01*
X81775274Y-59783500D01*
X82300400Y-59783500D01*
X82303646Y-59783163D01*
X82303650Y-59783163D01*
X82399308Y-59773238D01*
X82399312Y-59773237D01*
X82406166Y-59772526D01*
X82412702Y-59770345D01*
X82412704Y-59770345D01*
X82566998Y-59718868D01*
X82573946Y-59716550D01*
X82724348Y-59623478D01*
X82747513Y-59600273D01*
X82817596Y-59530068D01*
X82879879Y-59495989D01*
X82934577Y-59496193D01*
X83025844Y-59516845D01*
X83037251Y-59518347D01*
X83233783Y-59526068D01*
X83245265Y-59525466D01*
X83439905Y-59497245D01*
X83451101Y-59494557D01*
X83637343Y-59431336D01*
X83647840Y-59426662D01*
X83766401Y-59360266D01*
X83776264Y-59350189D01*
X83775929Y-59349319D01*
X91225041Y-59349319D01*
X91234923Y-59361809D01*
X91272259Y-59386756D01*
X91282371Y-59392247D01*
X91463081Y-59469885D01*
X91474014Y-59473437D01*
X91665844Y-59516845D01*
X91677253Y-59518347D01*
X91873783Y-59526068D01*
X91885265Y-59525466D01*
X92079905Y-59497245D01*
X92091101Y-59494557D01*
X92277343Y-59431336D01*
X92287840Y-59426662D01*
X92406401Y-59360266D01*
X92416264Y-59350189D01*
X92413309Y-59342519D01*
X91832812Y-58762022D01*
X91818868Y-58754408D01*
X91817035Y-58754539D01*
X91810420Y-58758790D01*
X91231237Y-59337973D01*
X91225041Y-59349319D01*
X83775929Y-59349319D01*
X83773309Y-59342519D01*
X83045405Y-58614615D01*
X83011379Y-58552303D01*
X83008500Y-58525520D01*
X83008500Y-58391132D01*
X83544408Y-58391132D01*
X83544539Y-58392965D01*
X83548790Y-58399580D01*
X84128603Y-58979393D01*
X84140983Y-58986153D01*
X84147563Y-58981227D01*
X84216662Y-58857840D01*
X84221336Y-58847343D01*
X84284557Y-58661101D01*
X84287245Y-58649905D01*
X84315762Y-58453224D01*
X84316392Y-58445843D01*
X84317757Y-58393704D01*
X84317514Y-58386305D01*
X84315647Y-58365980D01*
X90682914Y-58365980D01*
X90695777Y-58562233D01*
X90697577Y-58573601D01*
X90745991Y-58764228D01*
X90749829Y-58775066D01*
X90832173Y-58953685D01*
X90837922Y-58963642D01*
X90847850Y-58977690D01*
X90858439Y-58986078D01*
X90871740Y-58979050D01*
X91447978Y-58402812D01*
X91454356Y-58391132D01*
X92184408Y-58391132D01*
X92184539Y-58392965D01*
X92188790Y-58399580D01*
X92768603Y-58979393D01*
X92780983Y-58986153D01*
X92787563Y-58981227D01*
X92856662Y-58857840D01*
X92861336Y-58847343D01*
X92924557Y-58661101D01*
X92927245Y-58649905D01*
X92934902Y-58597095D01*
X99967001Y-58597095D01*
X99967338Y-58603614D01*
X99977257Y-58699206D01*
X99980149Y-58712600D01*
X100031588Y-58866784D01*
X100037761Y-58879962D01*
X100123063Y-59017807D01*
X100132099Y-59029208D01*
X100246829Y-59143739D01*
X100258240Y-59152751D01*
X100396243Y-59237816D01*
X100409424Y-59243963D01*
X100563710Y-59295138D01*
X100577086Y-59298005D01*
X100671438Y-59307672D01*
X100677854Y-59308000D01*
X101127885Y-59308000D01*
X101143124Y-59303525D01*
X101144329Y-59302135D01*
X101146000Y-59294452D01*
X101146000Y-59289884D01*
X101654000Y-59289884D01*
X101658475Y-59305123D01*
X101659865Y-59306328D01*
X101667548Y-59307999D01*
X102122095Y-59307999D01*
X102128614Y-59307662D01*
X102224206Y-59297743D01*
X102237600Y-59294851D01*
X102391784Y-59243412D01*
X102404962Y-59237239D01*
X102542807Y-59151937D01*
X102554208Y-59142901D01*
X102668739Y-59028171D01*
X102677751Y-59016760D01*
X102762816Y-58878757D01*
X102768963Y-58865576D01*
X102820138Y-58711290D01*
X102823005Y-58697914D01*
X102832672Y-58603562D01*
X102833000Y-58597146D01*
X102833000Y-58222115D01*
X102828525Y-58206876D01*
X102827135Y-58205671D01*
X102819452Y-58204000D01*
X101672115Y-58204000D01*
X101656876Y-58208475D01*
X101655671Y-58209865D01*
X101654000Y-58217548D01*
X101654000Y-59289884D01*
X101146000Y-59289884D01*
X101146000Y-58222115D01*
X101141525Y-58206876D01*
X101140135Y-58205671D01*
X101132452Y-58204000D01*
X99985116Y-58204000D01*
X99969877Y-58208475D01*
X99968672Y-58209865D01*
X99967001Y-58217548D01*
X99967001Y-58597095D01*
X92934902Y-58597095D01*
X92955762Y-58453224D01*
X92956392Y-58445843D01*
X92957757Y-58393704D01*
X92957514Y-58386305D01*
X92939330Y-58188397D01*
X92937233Y-58177083D01*
X92883846Y-57987789D01*
X92879724Y-57977050D01*
X92792736Y-57800656D01*
X92791577Y-57798765D01*
X92782732Y-57792126D01*
X92770312Y-57798898D01*
X92192022Y-58377188D01*
X92184408Y-58391132D01*
X91454356Y-58391132D01*
X91455592Y-58388868D01*
X91455461Y-58387035D01*
X91451210Y-58380420D01*
X90870031Y-57799241D01*
X90857651Y-57792481D01*
X90851685Y-57796947D01*
X90771452Y-57949445D01*
X90767047Y-57960079D01*
X90708724Y-58147910D01*
X90706332Y-58159164D01*
X90683215Y-58354479D01*
X90682914Y-58365980D01*
X84315647Y-58365980D01*
X84299330Y-58188397D01*
X84297233Y-58177083D01*
X84243846Y-57987789D01*
X84239724Y-57977050D01*
X84152736Y-57800656D01*
X84151577Y-57798765D01*
X84142732Y-57792126D01*
X84130312Y-57798898D01*
X83552022Y-58377188D01*
X83544408Y-58391132D01*
X83008500Y-58391132D01*
X83008500Y-58254480D01*
X83028502Y-58186359D01*
X83045405Y-58165385D01*
X83768407Y-57442383D01*
X83774931Y-57430436D01*
X91224547Y-57430436D01*
X91228033Y-57438823D01*
X91807188Y-58017978D01*
X91821132Y-58025592D01*
X91822965Y-58025461D01*
X91829580Y-58021210D01*
X92408407Y-57442383D01*
X92415167Y-57430003D01*
X92409137Y-57421948D01*
X92341459Y-57379246D01*
X92331211Y-57374025D01*
X92148531Y-57301143D01*
X92137504Y-57297876D01*
X91944605Y-57259506D01*
X91933159Y-57258303D01*
X91736507Y-57255730D01*
X91725027Y-57256633D01*
X91531199Y-57289938D01*
X91520079Y-57292918D01*
X91335557Y-57360992D01*
X91325179Y-57365942D01*
X91234146Y-57420101D01*
X91224547Y-57430436D01*
X83774931Y-57430436D01*
X83775167Y-57430003D01*
X83769137Y-57421948D01*
X83701459Y-57379246D01*
X83691211Y-57374025D01*
X83508531Y-57301143D01*
X83497504Y-57297876D01*
X83304605Y-57259506D01*
X83293159Y-57258303D01*
X83096507Y-57255730D01*
X83085025Y-57256633D01*
X82911066Y-57286524D01*
X82840542Y-57278347D01*
X82785635Y-57233340D01*
X82763729Y-57162344D01*
X82763729Y-55575044D01*
X82783731Y-55506923D01*
X82837387Y-55460430D01*
X82907661Y-55450326D01*
X82922341Y-55453337D01*
X82955404Y-55462196D01*
X82966196Y-55464099D01*
X83174525Y-55482326D01*
X83185475Y-55482326D01*
X83393804Y-55464099D01*
X83404599Y-55462196D01*
X83606595Y-55408072D01*
X83616887Y-55404326D01*
X83806416Y-55315947D01*
X83815912Y-55310464D01*
X83857148Y-55281590D01*
X83865523Y-55271113D01*
X83865023Y-55270161D01*
X91134393Y-55270161D01*
X91143687Y-55282175D01*
X91184088Y-55310464D01*
X91193584Y-55315947D01*
X91383113Y-55404326D01*
X91393405Y-55408072D01*
X91595401Y-55462196D01*
X91606196Y-55464099D01*
X91814525Y-55482326D01*
X91825475Y-55482326D01*
X92033804Y-55464099D01*
X92044599Y-55462196D01*
X92246595Y-55408072D01*
X92256887Y-55404326D01*
X92446416Y-55315947D01*
X92455912Y-55310464D01*
X92497148Y-55281590D01*
X92505523Y-55271112D01*
X92498457Y-55257668D01*
X91832811Y-54592021D01*
X91818868Y-54584408D01*
X91817034Y-54584539D01*
X91810420Y-54588790D01*
X91140820Y-55258391D01*
X91134393Y-55270161D01*
X83865023Y-55270161D01*
X83858455Y-55257667D01*
X82909884Y-54309095D01*
X82875859Y-54246783D01*
X82880924Y-54175967D01*
X82909885Y-54130905D01*
X83180000Y-53860790D01*
X83439188Y-53601601D01*
X83452000Y-53578139D01*
X83452000Y-53512000D01*
X83472002Y-53443879D01*
X83525658Y-53397386D01*
X83578000Y-53386000D01*
X83636674Y-53386000D01*
X83662319Y-53378470D01*
X83915622Y-53125167D01*
X83921000Y-53110747D01*
X83921000Y-52522115D01*
X83916525Y-52506876D01*
X83915135Y-52505671D01*
X83907452Y-52504000D01*
X83285116Y-52504000D01*
X83269877Y-52508475D01*
X83268672Y-52509865D01*
X83267001Y-52517548D01*
X83267001Y-52578705D01*
X83267264Y-52584454D01*
X83273132Y-52648315D01*
X83275743Y-52661351D01*
X83317482Y-52794543D01*
X83318766Y-52865528D01*
X83281469Y-52925939D01*
X83217432Y-52956595D01*
X83190982Y-52957569D01*
X83190982Y-52957674D01*
X83188143Y-52957674D01*
X83186270Y-52957743D01*
X83185481Y-52957674D01*
X83174515Y-52957674D01*
X83145006Y-52960256D01*
X83075401Y-52946268D01*
X83024408Y-52896869D01*
X83008198Y-52828352D01*
X83008500Y-52825400D01*
X83008500Y-51977885D01*
X83267000Y-51977885D01*
X83271475Y-51993124D01*
X83272865Y-51994329D01*
X83280548Y-51996000D01*
X83902885Y-51996000D01*
X83918124Y-51991525D01*
X83919329Y-51990135D01*
X83921000Y-51982452D01*
X83921000Y-51285116D01*
X83916525Y-51269877D01*
X83915135Y-51268672D01*
X83910706Y-51267709D01*
X83851685Y-51273132D01*
X83838649Y-51275743D01*
X83688757Y-51322715D01*
X83675012Y-51328921D01*
X83541426Y-51409824D01*
X83529557Y-51419131D01*
X83419131Y-51529557D01*
X83409824Y-51541426D01*
X83328921Y-51675012D01*
X83322715Y-51688757D01*
X83275744Y-51838644D01*
X83273131Y-51851694D01*
X83267266Y-51915521D01*
X83267000Y-51921309D01*
X83267000Y-51977885D01*
X83008500Y-51977885D01*
X83008500Y-51774600D01*
X83006977Y-51759924D01*
X82998238Y-51675692D01*
X82998237Y-51675688D01*
X82997526Y-51668834D01*
X82993143Y-51655695D01*
X82944675Y-51510421D01*
X82941550Y-51501054D01*
X82848478Y-51350652D01*
X82723303Y-51225695D01*
X82694882Y-51208176D01*
X82578968Y-51136725D01*
X82578966Y-51136724D01*
X82572738Y-51132885D01*
X82490482Y-51105602D01*
X82411389Y-51079368D01*
X82411387Y-51079368D01*
X82404861Y-51077203D01*
X82398025Y-51076503D01*
X82398022Y-51076502D01*
X82349795Y-51071561D01*
X82300400Y-51066500D01*
X81699600Y-51066500D01*
X81696354Y-51066837D01*
X81696350Y-51066837D01*
X81600692Y-51076762D01*
X81600688Y-51076763D01*
X81593834Y-51077474D01*
X81587298Y-51079655D01*
X81587296Y-51079655D01*
X81509524Y-51105602D01*
X81426054Y-51133450D01*
X81275652Y-51226522D01*
X81270479Y-51231704D01*
X81230777Y-51271475D01*
X81150695Y-51351697D01*
X81146855Y-51357927D01*
X81146854Y-51357928D01*
X81061812Y-51495892D01*
X81057885Y-51502262D01*
X81033708Y-51575153D01*
X81007118Y-51655320D01*
X80966687Y-51713680D01*
X80901123Y-51740917D01*
X80831242Y-51728384D01*
X80779230Y-51680059D01*
X80768642Y-51657401D01*
X80766040Y-51649990D01*
X80752634Y-51611816D01*
X80747042Y-51604246D01*
X80747041Y-51604243D01*
X80677742Y-51510421D01*
X80672150Y-51502850D01*
X80643743Y-51481868D01*
X80570757Y-51427959D01*
X80570754Y-51427958D01*
X80563184Y-51422366D01*
X80435369Y-51377481D01*
X80427723Y-51376758D01*
X80427722Y-51376758D01*
X80421752Y-51376194D01*
X80403834Y-51374500D01*
X79796166Y-51374500D01*
X79778248Y-51376194D01*
X79772278Y-51376758D01*
X79772277Y-51376758D01*
X79764631Y-51377481D01*
X79757384Y-51380026D01*
X79679260Y-51407461D01*
X79608360Y-51411159D01*
X79567509Y-51393342D01*
X79509621Y-51354661D01*
X79509618Y-51354660D01*
X79499301Y-51347766D01*
X79425067Y-51333000D01*
X79233625Y-51333000D01*
X77217045Y-51333001D01*
X77148924Y-51312999D01*
X77112281Y-51277004D01*
X77075828Y-51222448D01*
X77067588Y-51208176D01*
X76992092Y-51055086D01*
X76985793Y-51039883D01*
X76985682Y-51039558D01*
X76984902Y-51037258D01*
X76981931Y-50966326D01*
X77001885Y-50923208D01*
X77034259Y-50878155D01*
X77077755Y-50817624D01*
X77136842Y-50670641D01*
X77142965Y-50627615D01*
X77158581Y-50517891D01*
X77158581Y-50517888D01*
X77159162Y-50513807D01*
X77159307Y-50500000D01*
X77157945Y-50488740D01*
X77152058Y-50440095D01*
X77140276Y-50342733D01*
X77084280Y-50194546D01*
X76994553Y-50063992D01*
X76988878Y-50058935D01*
X76985751Y-50055389D01*
X76955706Y-49991063D01*
X76965207Y-49920705D01*
X77011238Y-49866653D01*
X77036035Y-49854081D01*
X77038054Y-49853324D01*
X77053649Y-49844786D01*
X77155724Y-49768285D01*
X77168281Y-49755728D01*
X77206348Y-49704935D01*
X77263208Y-49662420D01*
X77307175Y-49654500D01*
X77604941Y-49654499D01*
X77625066Y-49654499D01*
X77661065Y-49647339D01*
X77687126Y-49642156D01*
X77687128Y-49642155D01*
X77699301Y-49639734D01*
X77709621Y-49632839D01*
X77709622Y-49632838D01*
X77729998Y-49619223D01*
X77797751Y-49598008D01*
X77870002Y-49619223D01*
X77890379Y-49632839D01*
X77890382Y-49632840D01*
X77900699Y-49639734D01*
X77974933Y-49654500D01*
X78199963Y-49654500D01*
X78425066Y-49654499D01*
X78461065Y-49647339D01*
X78487126Y-49642156D01*
X78487128Y-49642155D01*
X78499301Y-49639734D01*
X78509621Y-49632839D01*
X78509622Y-49632838D01*
X78529998Y-49619223D01*
X78597751Y-49598008D01*
X78670002Y-49619223D01*
X78690379Y-49632839D01*
X78690382Y-49632840D01*
X78700699Y-49639734D01*
X78774933Y-49654500D01*
X78787784Y-49654500D01*
X78997822Y-49654499D01*
X79065941Y-49674501D01*
X79112434Y-49728156D01*
X79122539Y-49798430D01*
X79115216Y-49826264D01*
X79111406Y-49836037D01*
X79110414Y-49843570D01*
X79110414Y-49843571D01*
X79092519Y-49979500D01*
X79090729Y-49993096D01*
X79098206Y-50060823D01*
X79106411Y-50135136D01*
X79108113Y-50150553D01*
X79110723Y-50157684D01*
X79110723Y-50157686D01*
X79148137Y-50259924D01*
X79162553Y-50299319D01*
X79166789Y-50305622D01*
X79166789Y-50305623D01*
X79244108Y-50420685D01*
X79250908Y-50430805D01*
X79256527Y-50435918D01*
X79256528Y-50435919D01*
X79344539Y-50516002D01*
X79368076Y-50537419D01*
X79507293Y-50613008D01*
X79660522Y-50653207D01*
X79744477Y-50654526D01*
X79811319Y-50655576D01*
X79811322Y-50655576D01*
X79818916Y-50655695D01*
X79973332Y-50620329D01*
X80043742Y-50584917D01*
X80108072Y-50552563D01*
X80108075Y-50552561D01*
X80114855Y-50549151D01*
X80120626Y-50544222D01*
X80120629Y-50544220D01*
X80229536Y-50451204D01*
X80229536Y-50451203D01*
X80235314Y-50446269D01*
X80272141Y-50395019D01*
X80328135Y-50351371D01*
X80398839Y-50344925D01*
X80461803Y-50377728D01*
X80479045Y-50398270D01*
X80496669Y-50424497D01*
X80500908Y-50430805D01*
X80506527Y-50435918D01*
X80506528Y-50435919D01*
X80594539Y-50516002D01*
X80618076Y-50537419D01*
X80757293Y-50613008D01*
X80910522Y-50653207D01*
X80994477Y-50654526D01*
X81061319Y-50655576D01*
X81061322Y-50655576D01*
X81068916Y-50655695D01*
X81223332Y-50620329D01*
X81293742Y-50584917D01*
X81358072Y-50552563D01*
X81358075Y-50552561D01*
X81364855Y-50549151D01*
X81370626Y-50544222D01*
X81370629Y-50544220D01*
X81479536Y-50451204D01*
X81479536Y-50451203D01*
X81485314Y-50446269D01*
X81522141Y-50395019D01*
X81578135Y-50351371D01*
X81648839Y-50344925D01*
X81711803Y-50377728D01*
X81729045Y-50398270D01*
X81746669Y-50424497D01*
X81750908Y-50430805D01*
X81756527Y-50435918D01*
X81756528Y-50435919D01*
X81844539Y-50516002D01*
X81868076Y-50537419D01*
X82007293Y-50613008D01*
X82160522Y-50653207D01*
X82244477Y-50654526D01*
X82311319Y-50655576D01*
X82311322Y-50655576D01*
X82318916Y-50655695D01*
X82473332Y-50620329D01*
X82543742Y-50584917D01*
X82608072Y-50552563D01*
X82608075Y-50552561D01*
X82614855Y-50549151D01*
X82620626Y-50544222D01*
X82620629Y-50544220D01*
X82729536Y-50451204D01*
X82729536Y-50451203D01*
X82735314Y-50446269D01*
X82827755Y-50317624D01*
X82886842Y-50170641D01*
X82900645Y-50073654D01*
X82908581Y-50017891D01*
X82908581Y-50017888D01*
X82909162Y-50013807D01*
X82909231Y-50007265D01*
X82909264Y-50004134D01*
X82909264Y-50004128D01*
X82909307Y-50000000D01*
X82890276Y-49842733D01*
X82883590Y-49825039D01*
X82878220Y-49754248D01*
X82911976Y-49691790D01*
X82974141Y-49657496D01*
X83001454Y-49654500D01*
X83212179Y-49654499D01*
X83225066Y-49654499D01*
X83261065Y-49647339D01*
X83287126Y-49642156D01*
X83287128Y-49642155D01*
X83299301Y-49639734D01*
X83309621Y-49632839D01*
X83309622Y-49632838D01*
X83329998Y-49619223D01*
X83397751Y-49598008D01*
X83470002Y-49619223D01*
X83490379Y-49632839D01*
X83490382Y-49632840D01*
X83500699Y-49639734D01*
X83574933Y-49654500D01*
X83799963Y-49654500D01*
X84025066Y-49654499D01*
X84061065Y-49647339D01*
X84087126Y-49642156D01*
X84087128Y-49642155D01*
X84099301Y-49639734D01*
X84109621Y-49632839D01*
X84109622Y-49632838D01*
X84129998Y-49619223D01*
X84197751Y-49598008D01*
X84270002Y-49619223D01*
X84290379Y-49632839D01*
X84290382Y-49632840D01*
X84300699Y-49639734D01*
X84374933Y-49654500D01*
X84599963Y-49654500D01*
X84825066Y-49654499D01*
X84861065Y-49647339D01*
X84931779Y-49653668D01*
X84986471Y-49695354D01*
X85031716Y-49755725D01*
X85044276Y-49768285D01*
X85146351Y-49844786D01*
X85161946Y-49853324D01*
X85282394Y-49898478D01*
X85297649Y-49902105D01*
X85348514Y-49907631D01*
X85355328Y-49908000D01*
X85477885Y-49908000D01*
X85493124Y-49903525D01*
X85494329Y-49902135D01*
X85496000Y-49894452D01*
X85496000Y-48922000D01*
X85516002Y-48853879D01*
X85569658Y-48807386D01*
X85622000Y-48796000D01*
X85878000Y-48796000D01*
X85946121Y-48816002D01*
X85992614Y-48869658D01*
X86004000Y-48922000D01*
X86004000Y-49889884D01*
X86008475Y-49905123D01*
X86009865Y-49906328D01*
X86017548Y-49907999D01*
X86144669Y-49907999D01*
X86151490Y-49907629D01*
X86202352Y-49902105D01*
X86217604Y-49898479D01*
X86338054Y-49853324D01*
X86353649Y-49844786D01*
X86462904Y-49762904D01*
X86463758Y-49764043D01*
X86517717Y-49734578D01*
X86588532Y-49739643D01*
X86645368Y-49782190D01*
X86670179Y-49848710D01*
X86670500Y-49857699D01*
X86670500Y-50810213D01*
X86668949Y-50829923D01*
X86665769Y-50850001D01*
X86666943Y-50857411D01*
X86664900Y-50878153D01*
X86662412Y-50890664D01*
X86643598Y-50936087D01*
X86634484Y-50949727D01*
X86599728Y-50984483D01*
X86586087Y-50993598D01*
X86540664Y-51012412D01*
X86528153Y-51014900D01*
X86507411Y-51016943D01*
X86500001Y-51015769D01*
X86479924Y-51018949D01*
X86460213Y-51020500D01*
X85498006Y-51020500D01*
X85478295Y-51018949D01*
X85468012Y-51017320D01*
X85468011Y-51017320D01*
X85458218Y-51015769D01*
X85442469Y-51018264D01*
X85435120Y-51019206D01*
X85359152Y-51026688D01*
X85313600Y-51031174D01*
X85307674Y-51032972D01*
X85307672Y-51032972D01*
X85293537Y-51037260D01*
X85174539Y-51073358D01*
X85169084Y-51076274D01*
X85169081Y-51076275D01*
X85114215Y-51105602D01*
X85046381Y-51141860D01*
X84934048Y-51234048D01*
X84866315Y-51316583D01*
X84865301Y-51317818D01*
X84806624Y-51357787D01*
X84735653Y-51359688D01*
X84702630Y-51345661D01*
X84674992Y-51328923D01*
X84661243Y-51322715D01*
X84511356Y-51275744D01*
X84498306Y-51273131D01*
X84443414Y-51268087D01*
X84431876Y-51271475D01*
X84430671Y-51272865D01*
X84429000Y-51280548D01*
X84429000Y-52503885D01*
X84433475Y-52519124D01*
X84434865Y-52520329D01*
X84454781Y-52524661D01*
X84517094Y-52558685D01*
X84551120Y-52620997D01*
X84554000Y-52647782D01*
X84554000Y-52989790D01*
X84551579Y-53014371D01*
X84545500Y-53044933D01*
X84545501Y-53632452D01*
X84545501Y-53768000D01*
X84525499Y-53836121D01*
X84471843Y-53882614D01*
X84419501Y-53894000D01*
X83883326Y-53894000D01*
X83857681Y-53901530D01*
X83552021Y-54207189D01*
X83544408Y-54221132D01*
X83544539Y-54222966D01*
X83548790Y-54229580D01*
X84218391Y-54899180D01*
X84230161Y-54905607D01*
X84242176Y-54896311D01*
X84270466Y-54855907D01*
X84275946Y-54846417D01*
X84301904Y-54790749D01*
X84348821Y-54737464D01*
X84416099Y-54717999D01*
X84644669Y-54717999D01*
X84651490Y-54717629D01*
X84702352Y-54712105D01*
X84717604Y-54708479D01*
X84838057Y-54663323D01*
X84845727Y-54659124D01*
X84915085Y-54643957D01*
X84981632Y-54668696D01*
X84995328Y-54680551D01*
X85067984Y-54753207D01*
X85072492Y-54756364D01*
X85072495Y-54756366D01*
X85121599Y-54790749D01*
X85208379Y-54851513D01*
X85213361Y-54853836D01*
X85213366Y-54853839D01*
X85351549Y-54918274D01*
X85363711Y-54923945D01*
X85369019Y-54925367D01*
X85369021Y-54925368D01*
X85523947Y-54966880D01*
X85523949Y-54966880D01*
X85529262Y-54968304D01*
X85534746Y-54968784D01*
X85534753Y-54968785D01*
X85621735Y-54976396D01*
X85629883Y-54977624D01*
X85633851Y-54979018D01*
X85639416Y-54979500D01*
X85651729Y-54979500D01*
X85662691Y-54979978D01*
X85681696Y-54981641D01*
X85690160Y-54982680D01*
X85690205Y-54982680D01*
X85700000Y-54984231D01*
X85720078Y-54981051D01*
X85739788Y-54979500D01*
X89160211Y-54979500D01*
X89179921Y-54981051D01*
X89199999Y-54984231D01*
X89208560Y-54982875D01*
X89210789Y-54982680D01*
X89211407Y-54982680D01*
X89212934Y-54982492D01*
X89388169Y-54967162D01*
X89549457Y-54923945D01*
X89565311Y-54919697D01*
X89565313Y-54919696D01*
X89570621Y-54918274D01*
X89575603Y-54915951D01*
X89736825Y-54840772D01*
X89736830Y-54840769D01*
X89741812Y-54838446D01*
X89876579Y-54744081D01*
X89892029Y-54733263D01*
X89892032Y-54733261D01*
X89896540Y-54730104D01*
X89969365Y-54657279D01*
X90031677Y-54623253D01*
X90102492Y-54628318D01*
X90134024Y-54645547D01*
X90146352Y-54654787D01*
X90161946Y-54663324D01*
X90282394Y-54708478D01*
X90297649Y-54712105D01*
X90348514Y-54717631D01*
X90355328Y-54718000D01*
X90583901Y-54718000D01*
X90652022Y-54738002D01*
X90698095Y-54790749D01*
X90724052Y-54846412D01*
X90729534Y-54855907D01*
X90758411Y-54897149D01*
X90768887Y-54905523D01*
X90782334Y-54898455D01*
X91447979Y-54232811D01*
X91454356Y-54221132D01*
X92184408Y-54221132D01*
X92184539Y-54222966D01*
X92188790Y-54229580D01*
X92858391Y-54899180D01*
X92870161Y-54905607D01*
X92882176Y-54896311D01*
X92910466Y-54855907D01*
X92915946Y-54846417D01*
X93004326Y-54656887D01*
X93008072Y-54646595D01*
X93014637Y-54622095D01*
X93642001Y-54622095D01*
X93642338Y-54628614D01*
X93652257Y-54724206D01*
X93655149Y-54737600D01*
X93706588Y-54891784D01*
X93712761Y-54904962D01*
X93798063Y-55042807D01*
X93807099Y-55054208D01*
X93921829Y-55168739D01*
X93933240Y-55177751D01*
X94071243Y-55262816D01*
X94084424Y-55268963D01*
X94238710Y-55320138D01*
X94252086Y-55323005D01*
X94346438Y-55332672D01*
X94352854Y-55333000D01*
X94727885Y-55333000D01*
X94743124Y-55328525D01*
X94744329Y-55327135D01*
X94746000Y-55319452D01*
X94746000Y-54172115D01*
X94741525Y-54156876D01*
X94740135Y-54155671D01*
X94732452Y-54154000D01*
X93660116Y-54154000D01*
X93644877Y-54158475D01*
X93643672Y-54159865D01*
X93642001Y-54167548D01*
X93642001Y-54622095D01*
X93014637Y-54622095D01*
X93062196Y-54444599D01*
X93064099Y-54433804D01*
X93082326Y-54225475D01*
X93082326Y-54214525D01*
X93064099Y-54006196D01*
X93062196Y-53995401D01*
X93008072Y-53793405D01*
X93004326Y-53783113D01*
X92931941Y-53627885D01*
X93642000Y-53627885D01*
X93646475Y-53643124D01*
X93647865Y-53644329D01*
X93655548Y-53646000D01*
X94727885Y-53646000D01*
X94743124Y-53641525D01*
X94744329Y-53640135D01*
X94746000Y-53632452D01*
X94746000Y-52485116D01*
X94741525Y-52469877D01*
X94740135Y-52468672D01*
X94732452Y-52467001D01*
X94352905Y-52467001D01*
X94346386Y-52467338D01*
X94250794Y-52477257D01*
X94237400Y-52480149D01*
X94083216Y-52531588D01*
X94070038Y-52537761D01*
X93932193Y-52623063D01*
X93920792Y-52632099D01*
X93806261Y-52746829D01*
X93797249Y-52758240D01*
X93712184Y-52896243D01*
X93706037Y-52909424D01*
X93654862Y-53063710D01*
X93651995Y-53077086D01*
X93642328Y-53171438D01*
X93642000Y-53177855D01*
X93642000Y-53627885D01*
X92931941Y-53627885D01*
X92915946Y-53593583D01*
X92910466Y-53584093D01*
X92881589Y-53542851D01*
X92871113Y-53534477D01*
X92857666Y-53541545D01*
X92192021Y-54207189D01*
X92184408Y-54221132D01*
X91454356Y-54221132D01*
X91455592Y-54218868D01*
X91455461Y-54217034D01*
X91451210Y-54210421D01*
X91147597Y-53906808D01*
X91124141Y-53894000D01*
X90580500Y-53894000D01*
X90512379Y-53873998D01*
X90465886Y-53820342D01*
X90454500Y-53768000D01*
X90454499Y-53276183D01*
X91239276Y-53276183D01*
X91242539Y-53283328D01*
X91332399Y-53373188D01*
X91355861Y-53386000D01*
X91422000Y-53386000D01*
X91490121Y-53406002D01*
X91536614Y-53459658D01*
X91548000Y-53512000D01*
X91548000Y-53570674D01*
X91555530Y-53596319D01*
X91807189Y-53847979D01*
X91821132Y-53855592D01*
X91822966Y-53855461D01*
X91829580Y-53851210D01*
X92499180Y-53181609D01*
X92505607Y-53169839D01*
X92496313Y-53157825D01*
X92455912Y-53129536D01*
X92446416Y-53124053D01*
X92256887Y-53035674D01*
X92246595Y-53031928D01*
X92044599Y-52977804D01*
X92028385Y-52974945D01*
X92028688Y-52973228D01*
X91969891Y-52950222D01*
X91928257Y-52892714D01*
X91924324Y-52821827D01*
X91926767Y-52812894D01*
X91974256Y-52661356D01*
X91976869Y-52648306D01*
X91982734Y-52584479D01*
X91983000Y-52578691D01*
X91983000Y-52522115D01*
X91978525Y-52506876D01*
X91977135Y-52505671D01*
X91969452Y-52504000D01*
X91347115Y-52504000D01*
X91331876Y-52508475D01*
X91330671Y-52509865D01*
X91329000Y-52517548D01*
X91329000Y-53155577D01*
X91308998Y-53223698D01*
X91255342Y-53270191D01*
X91239276Y-53276183D01*
X90454499Y-53276183D01*
X90454499Y-53051123D01*
X90454499Y-53044934D01*
X90448421Y-53014375D01*
X90446000Y-52989796D01*
X90446000Y-52648000D01*
X90466002Y-52579879D01*
X90519658Y-52533386D01*
X90572000Y-52522000D01*
X90802885Y-52522000D01*
X90818124Y-52517525D01*
X90819329Y-52516135D01*
X90821000Y-52508452D01*
X90821000Y-52122000D01*
X90841002Y-52053879D01*
X90894658Y-52007386D01*
X90947000Y-51996000D01*
X91964884Y-51996000D01*
X91980123Y-51991525D01*
X91981328Y-51990135D01*
X91982999Y-51982452D01*
X91982999Y-51921295D01*
X91982736Y-51915546D01*
X91976868Y-51851685D01*
X91974257Y-51838649D01*
X91959102Y-51790288D01*
X91950274Y-51777084D01*
X91928190Y-51767477D01*
X91878879Y-51752998D01*
X91832386Y-51699342D01*
X91821000Y-51647000D01*
X91821000Y-50622000D01*
X91841002Y-50553879D01*
X91894658Y-50507386D01*
X91947000Y-50496000D01*
X92203000Y-50496000D01*
X92271121Y-50516002D01*
X92317614Y-50569658D01*
X92329000Y-50622000D01*
X92329000Y-51714884D01*
X92333475Y-51730123D01*
X92334865Y-51731328D01*
X92339294Y-51732291D01*
X92398313Y-51726869D01*
X92411346Y-51724258D01*
X92457123Y-51709913D01*
X92528108Y-51708630D01*
X92588519Y-51745928D01*
X92607068Y-51772945D01*
X92618674Y-51795723D01*
X92709277Y-51886326D01*
X92823445Y-51944498D01*
X92918166Y-51959500D01*
X94431834Y-51959500D01*
X94526555Y-51944498D01*
X94640723Y-51886326D01*
X94731326Y-51795723D01*
X94735825Y-51786893D01*
X94735828Y-51786889D01*
X94750146Y-51758787D01*
X94798894Y-51707171D01*
X94821909Y-51696677D01*
X94942842Y-51655626D01*
X94944171Y-51655175D01*
X94944172Y-51655175D01*
X94948077Y-51653849D01*
X94980504Y-51637858D01*
X95050444Y-51625668D01*
X95068204Y-51628988D01*
X95153172Y-51651279D01*
X95153174Y-51651279D01*
X95160522Y-51653207D01*
X95244477Y-51654526D01*
X95311319Y-51655576D01*
X95311322Y-51655576D01*
X95318916Y-51655695D01*
X95473332Y-51620329D01*
X95549780Y-51581880D01*
X95608072Y-51552563D01*
X95608075Y-51552561D01*
X95614855Y-51549151D01*
X95620626Y-51544222D01*
X95620629Y-51544220D01*
X95729536Y-51451204D01*
X95729536Y-51451203D01*
X95735314Y-51446269D01*
X95827755Y-51317624D01*
X95886842Y-51170641D01*
X95900140Y-51077203D01*
X95908581Y-51017891D01*
X95908581Y-51017888D01*
X95909162Y-51013807D01*
X95909307Y-51000000D01*
X95890276Y-50842733D01*
X95834280Y-50694546D01*
X95778241Y-50613008D01*
X95750531Y-50572690D01*
X95728431Y-50505221D01*
X95746317Y-50436514D01*
X95752040Y-50427809D01*
X95840054Y-50305325D01*
X95899141Y-50158342D01*
X95910439Y-50078957D01*
X95920880Y-50005592D01*
X95920880Y-50005589D01*
X95921461Y-50001508D01*
X95921530Y-49994966D01*
X95921563Y-49991835D01*
X95921563Y-49991829D01*
X95921606Y-49987701D01*
X95920614Y-49979499D01*
X95915645Y-49938444D01*
X95902575Y-49830434D01*
X95846579Y-49682247D01*
X95822588Y-49647340D01*
X95761154Y-49557952D01*
X95761153Y-49557950D01*
X95756852Y-49551693D01*
X95638574Y-49446312D01*
X95498573Y-49372185D01*
X95344932Y-49333593D01*
X95337333Y-49333553D01*
X95337332Y-49333553D01*
X95276166Y-49333233D01*
X95195635Y-49332811D01*
X95127621Y-49312453D01*
X95107201Y-49295908D01*
X94841405Y-49030112D01*
X94807379Y-48967800D01*
X94804500Y-48941017D01*
X94804500Y-48683166D01*
X94789498Y-48588445D01*
X94731326Y-48474277D01*
X94640723Y-48383674D01*
X94559458Y-48342267D01*
X94507843Y-48293518D01*
X94490777Y-48224603D01*
X94513678Y-48157402D01*
X94559458Y-48117733D01*
X94593585Y-48100344D01*
X94640723Y-48076326D01*
X94731326Y-47985723D01*
X94789498Y-47871555D01*
X94804500Y-47776834D01*
X94804500Y-47413166D01*
X94789498Y-47318445D01*
X94784997Y-47309611D01*
X94781932Y-47300178D01*
X94784089Y-47299477D01*
X94773467Y-47242931D01*
X94800165Y-47177146D01*
X94858191Y-47136237D01*
X94898839Y-47129500D01*
X95410212Y-47129500D01*
X95429922Y-47131051D01*
X95450000Y-47134231D01*
X95455867Y-47133302D01*
X95462965Y-47132681D01*
X95462969Y-47132681D01*
X95541705Y-47125792D01*
X95646885Y-47116590D01*
X95652198Y-47115166D01*
X95652200Y-47115166D01*
X95832478Y-47066861D01*
X95832480Y-47066860D01*
X95837788Y-47065438D01*
X95842770Y-47063115D01*
X96011921Y-46984239D01*
X96011926Y-46984236D01*
X96016908Y-46981913D01*
X96110304Y-46916516D01*
X96174291Y-46871712D01*
X96174293Y-46871710D01*
X96178802Y-46868553D01*
X96318553Y-46728802D01*
X96325441Y-46718966D01*
X96392599Y-46623054D01*
X96431913Y-46566908D01*
X96434236Y-46561926D01*
X96434239Y-46561921D01*
X96513115Y-46392770D01*
X96513116Y-46392769D01*
X96515438Y-46387788D01*
X96517709Y-46379315D01*
X96551380Y-46253648D01*
X96566590Y-46196885D01*
X96577360Y-46073789D01*
X96578130Y-46068677D01*
X96579018Y-46066149D01*
X96579500Y-46060584D01*
X96579500Y-46054816D01*
X96579980Y-46043832D01*
X96582681Y-46012968D01*
X96582681Y-46012964D01*
X96583302Y-46005867D01*
X96584231Y-46000000D01*
X96581051Y-45979922D01*
X96579500Y-45960212D01*
X96579500Y-43346894D01*
X96581051Y-43327183D01*
X96582680Y-43316900D01*
X96582680Y-43316898D01*
X96584231Y-43307106D01*
X96582679Y-43297310D01*
X96582679Y-43290972D01*
X96581806Y-43271935D01*
X96590319Y-43142061D01*
X96592470Y-43125721D01*
X96618035Y-42997194D01*
X96623128Y-42971592D01*
X96627391Y-42955682D01*
X96677904Y-42806877D01*
X96684210Y-42791651D01*
X96753715Y-42650710D01*
X96761955Y-42636438D01*
X96849256Y-42505780D01*
X96859291Y-42492703D01*
X96945112Y-42394844D01*
X96959199Y-42381992D01*
X96963672Y-42377519D01*
X96971692Y-42371692D01*
X96983639Y-42355248D01*
X96996481Y-42340213D01*
X97022011Y-42314683D01*
X97037047Y-42301841D01*
X97045472Y-42295720D01*
X97045476Y-42295716D01*
X97053494Y-42289891D01*
X97060266Y-42280570D01*
X97067471Y-42271552D01*
X97176354Y-42147396D01*
X97176358Y-42147390D01*
X97179072Y-42144296D01*
X97186263Y-42133535D01*
X97283537Y-41987954D01*
X97285831Y-41984521D01*
X97295484Y-41964948D01*
X97368999Y-41815873D01*
X97369000Y-41815871D01*
X97370821Y-41812178D01*
X97373607Y-41803972D01*
X97431262Y-41634126D01*
X97431263Y-41634122D01*
X97432589Y-41630216D01*
X97435880Y-41613674D01*
X97469273Y-41445790D01*
X97470077Y-41441748D01*
X97471110Y-41425995D01*
X97477838Y-41323333D01*
X97478724Y-41316985D01*
X97479018Y-41316149D01*
X97479500Y-41310584D01*
X97479500Y-41302101D01*
X97479770Y-41293862D01*
X97481147Y-41272848D01*
X97482427Y-41261388D01*
X97484231Y-41250000D01*
X97481051Y-41229922D01*
X97479500Y-41210212D01*
X97479500Y-41139787D01*
X97481051Y-41120076D01*
X97481387Y-41117956D01*
X97484231Y-41099999D01*
X97482680Y-41090206D01*
X97482680Y-41080288D01*
X97483335Y-41080288D01*
X97482899Y-41065489D01*
X97488896Y-41004596D01*
X97489546Y-40997994D01*
X97494365Y-40973768D01*
X97520520Y-40887549D01*
X97529972Y-40864730D01*
X97572439Y-40785279D01*
X97586162Y-40764741D01*
X97629191Y-40712311D01*
X97639960Y-40702158D01*
X97639497Y-40701695D01*
X97646510Y-40694682D01*
X97654534Y-40688852D01*
X97660364Y-40680828D01*
X97663672Y-40677519D01*
X97671693Y-40671692D01*
X97677519Y-40663673D01*
X97678958Y-40662234D01*
X97681823Y-40658648D01*
X97734640Y-40598422D01*
X97821834Y-40498996D01*
X97826142Y-40492550D01*
X97924950Y-40344672D01*
X97948932Y-40308780D01*
X97980088Y-40245603D01*
X98002233Y-40200696D01*
X98050115Y-40103601D01*
X98064708Y-40060611D01*
X98122323Y-39890884D01*
X98122324Y-39890880D01*
X98123651Y-39886971D01*
X98124457Y-39882921D01*
X98167479Y-39666636D01*
X98167480Y-39666630D01*
X98168282Y-39662597D01*
X98169072Y-39650553D01*
X98178701Y-39503640D01*
X98179143Y-39500475D01*
X98179018Y-39500464D01*
X98179264Y-39497622D01*
X98179500Y-39494899D01*
X98179500Y-39492161D01*
X98179531Y-39491444D01*
X98179684Y-39488638D01*
X98179992Y-39483953D01*
X98182171Y-39450701D01*
X98182680Y-39446146D01*
X98182680Y-39444109D01*
X98184231Y-39434316D01*
X98181051Y-39414238D01*
X98179500Y-39394528D01*
X98179500Y-37825222D01*
X98199502Y-37757101D01*
X98253158Y-37710608D01*
X98323432Y-37700504D01*
X98337470Y-37703345D01*
X98439270Y-37730052D01*
X98446870Y-37730171D01*
X98454388Y-37731201D01*
X98454201Y-37732565D01*
X98514274Y-37751232D01*
X98559920Y-37805609D01*
X98570500Y-37856149D01*
X98570501Y-38154314D01*
X98573507Y-38186127D01*
X98618791Y-38315076D01*
X98624389Y-38322655D01*
X98635457Y-38337641D01*
X98659840Y-38404319D01*
X98644303Y-38473595D01*
X98635457Y-38487359D01*
X98626121Y-38500000D01*
X98618791Y-38509924D01*
X98573507Y-38638873D01*
X98570500Y-38670685D01*
X98570501Y-39179314D01*
X98570780Y-39182262D01*
X98570780Y-39182271D01*
X98571636Y-39191330D01*
X98573507Y-39211127D01*
X98618791Y-39340076D01*
X98699990Y-39450010D01*
X98809924Y-39531209D01*
X98938873Y-39576493D01*
X98946515Y-39577215D01*
X98946518Y-39577216D01*
X98961421Y-39578624D01*
X98970685Y-39579500D01*
X99088414Y-39579500D01*
X99615696Y-39579499D01*
X99683817Y-39599501D01*
X99720277Y-39635223D01*
X99746667Y-39674495D01*
X99746671Y-39674500D01*
X99750908Y-39680805D01*
X99783578Y-39710532D01*
X99820501Y-39771172D01*
X99818778Y-39842148D01*
X99778956Y-39900925D01*
X99713679Y-39928842D01*
X99671774Y-39926798D01*
X99668373Y-39926052D01*
X99661127Y-39923507D01*
X99653485Y-39922785D01*
X99653482Y-39922784D01*
X99638579Y-39921376D01*
X99629315Y-39920500D01*
X99300223Y-39920500D01*
X98970686Y-39920501D01*
X98967738Y-39920780D01*
X98967729Y-39920780D01*
X98946522Y-39922784D01*
X98946520Y-39922784D01*
X98938873Y-39923507D01*
X98809924Y-39968791D01*
X98699990Y-40049990D01*
X98618791Y-40159924D01*
X98573507Y-40288873D01*
X98570500Y-40320685D01*
X98570501Y-40829314D01*
X98573507Y-40861127D01*
X98618791Y-40990076D01*
X98699990Y-41100010D01*
X98809924Y-41181209D01*
X98938873Y-41226493D01*
X98946515Y-41227215D01*
X98946518Y-41227216D01*
X98959312Y-41228425D01*
X98970685Y-41229500D01*
X99090909Y-41229500D01*
X99159030Y-41249502D01*
X99183117Y-41269783D01*
X99183268Y-41269963D01*
X99193616Y-41280311D01*
X99200333Y-41287577D01*
X99208309Y-41296916D01*
X99214430Y-41304679D01*
X99222761Y-41316146D01*
X99230781Y-41321973D01*
X99234213Y-41325405D01*
X99268239Y-41387717D01*
X99263174Y-41458532D01*
X99220627Y-41515368D01*
X99154107Y-41540179D01*
X99145118Y-41540500D01*
X98068166Y-41540500D01*
X97973445Y-41555502D01*
X97859277Y-41613674D01*
X97768674Y-41704277D01*
X97710502Y-41818445D01*
X97695500Y-41913166D01*
X97695500Y-42276834D01*
X97710502Y-42371555D01*
X97768674Y-42485723D01*
X97859277Y-42576326D01*
X97932411Y-42613590D01*
X97940542Y-42617733D01*
X97992157Y-42666482D01*
X98009223Y-42735397D01*
X97986322Y-42802598D01*
X97940542Y-42842267D01*
X97859277Y-42883674D01*
X97768674Y-42974277D01*
X97710502Y-43088445D01*
X97695500Y-43183166D01*
X97695500Y-43546834D01*
X97710502Y-43641555D01*
X97768674Y-43755723D01*
X97859277Y-43846326D01*
X97868109Y-43850826D01*
X97868110Y-43850827D01*
X97886884Y-43860393D01*
X97938498Y-43909142D01*
X97955563Y-43978057D01*
X97932661Y-44045258D01*
X97877063Y-44089410D01*
X97814087Y-44097639D01*
X97807133Y-44095892D01*
X97799539Y-44095852D01*
X97799537Y-44095852D01*
X97729748Y-44095487D01*
X97648721Y-44095062D01*
X97641341Y-44096834D01*
X97641339Y-44096834D01*
X97502063Y-44130271D01*
X97502060Y-44130272D01*
X97494684Y-44132043D01*
X97353914Y-44204700D01*
X97234539Y-44308838D01*
X97143450Y-44438444D01*
X97114678Y-44512241D01*
X97092158Y-44570002D01*
X97085906Y-44586037D01*
X97084914Y-44593570D01*
X97084914Y-44593571D01*
X97067405Y-44726568D01*
X97065229Y-44743096D01*
X97068427Y-44772062D01*
X97079607Y-44873322D01*
X97082613Y-44900553D01*
X97085223Y-44907684D01*
X97085223Y-44907686D01*
X97132054Y-45035658D01*
X97137053Y-45049319D01*
X97141289Y-45055622D01*
X97141289Y-45055623D01*
X97194282Y-45134484D01*
X97225408Y-45180805D01*
X97231027Y-45185918D01*
X97231028Y-45185919D01*
X97334783Y-45280328D01*
X97342576Y-45287419D01*
X97481793Y-45363008D01*
X97509699Y-45370329D01*
X97627672Y-45401279D01*
X97627674Y-45401279D01*
X97635022Y-45403207D01*
X97639029Y-45403270D01*
X97702409Y-45431705D01*
X97741190Y-45491173D01*
X97741665Y-45562168D01*
X97732801Y-45584681D01*
X97710502Y-45628445D01*
X97695500Y-45723166D01*
X97695500Y-46086834D01*
X97710502Y-46181555D01*
X97768674Y-46295723D01*
X97859277Y-46386326D01*
X97973445Y-46444498D01*
X98068166Y-46459500D01*
X98790616Y-46459500D01*
X98858737Y-46479502D01*
X98879711Y-46496405D01*
X99208711Y-46825405D01*
X99242737Y-46887717D01*
X99237672Y-46958532D01*
X99195125Y-47015368D01*
X99128605Y-47040179D01*
X99119616Y-47040500D01*
X98068166Y-47040500D01*
X97973445Y-47055502D01*
X97859277Y-47113674D01*
X97768674Y-47204277D01*
X97710502Y-47318445D01*
X97695500Y-47413166D01*
X97695500Y-47776834D01*
X97710502Y-47871555D01*
X97768674Y-47985723D01*
X97859277Y-48076326D01*
X97906415Y-48100344D01*
X97940542Y-48117733D01*
X97992157Y-48166482D01*
X98009223Y-48235397D01*
X97986322Y-48302598D01*
X97940542Y-48342267D01*
X97859277Y-48383674D01*
X97768674Y-48474277D01*
X97710502Y-48588445D01*
X97695500Y-48683166D01*
X97695500Y-49046834D01*
X97710502Y-49141555D01*
X97768674Y-49255723D01*
X97859277Y-49346326D01*
X97910028Y-49372185D01*
X97940542Y-49387733D01*
X97992157Y-49436482D01*
X98009223Y-49505397D01*
X97986322Y-49572598D01*
X97940541Y-49612267D01*
X97931709Y-49616767D01*
X97874507Y-49630500D01*
X97580549Y-49630500D01*
X97559646Y-49628754D01*
X97547329Y-49626682D01*
X97544881Y-49626270D01*
X97544880Y-49626270D01*
X97540090Y-49625464D01*
X97533962Y-49625389D01*
X97532501Y-49625371D01*
X97532496Y-49625371D01*
X97527637Y-49625312D01*
X97522824Y-49626001D01*
X97522812Y-49626002D01*
X97502564Y-49628902D01*
X97454007Y-49626379D01*
X97332633Y-49595892D01*
X97325034Y-49595852D01*
X97325033Y-49595852D01*
X97258198Y-49595502D01*
X97174221Y-49595062D01*
X97166841Y-49596834D01*
X97166839Y-49596834D01*
X97027563Y-49630271D01*
X97027560Y-49630272D01*
X97020184Y-49632043D01*
X96879414Y-49704700D01*
X96760039Y-49808838D01*
X96668950Y-49938444D01*
X96644362Y-50001508D01*
X96617559Y-50070256D01*
X96611406Y-50086037D01*
X96610414Y-50093570D01*
X96610414Y-50093571D01*
X96592844Y-50227032D01*
X96590729Y-50243096D01*
X96598323Y-50311880D01*
X96603191Y-50355968D01*
X96608113Y-50400553D01*
X96610723Y-50407684D01*
X96610723Y-50407686D01*
X96656484Y-50532734D01*
X96662553Y-50549319D01*
X96666789Y-50555622D01*
X96666789Y-50555623D01*
X96711393Y-50622000D01*
X96750908Y-50680805D01*
X96756527Y-50685918D01*
X96756528Y-50685919D01*
X96843001Y-50764603D01*
X96868076Y-50787419D01*
X97007293Y-50863008D01*
X97160522Y-50903207D01*
X97244477Y-50904526D01*
X97311319Y-50905576D01*
X97311322Y-50905576D01*
X97318916Y-50905695D01*
X97473332Y-50870329D01*
X97554882Y-50829314D01*
X97608072Y-50802563D01*
X97608075Y-50802561D01*
X97614855Y-50799151D01*
X97620626Y-50794222D01*
X97620629Y-50794220D01*
X97729537Y-50701203D01*
X97735314Y-50696269D01*
X97739748Y-50690099D01*
X97744887Y-50684510D01*
X97746304Y-50685813D01*
X97794395Y-50648326D01*
X97840723Y-50639500D01*
X97874507Y-50639500D01*
X97931709Y-50653233D01*
X97940541Y-50657733D01*
X97992156Y-50706480D01*
X98009223Y-50775395D01*
X97986323Y-50842597D01*
X97940542Y-50882267D01*
X97859277Y-50923674D01*
X97768674Y-51014277D01*
X97710502Y-51128445D01*
X97695500Y-51223166D01*
X97695500Y-51586834D01*
X97710502Y-51681555D01*
X97768674Y-51795723D01*
X97859277Y-51886326D01*
X97973445Y-51944498D01*
X98068166Y-51959500D01*
X98790616Y-51959500D01*
X98858737Y-51979502D01*
X98879711Y-51996405D01*
X100063522Y-53180216D01*
X100080279Y-53200964D01*
X100085429Y-53208940D01*
X100082544Y-53210803D01*
X100105681Y-53258376D01*
X100097287Y-53328874D01*
X100052110Y-53383643D01*
X99984495Y-53405293D01*
X99961878Y-53403113D01*
X99959448Y-53402202D01*
X99950498Y-53401537D01*
X99912643Y-53398724D01*
X99902596Y-53397570D01*
X99894114Y-53396249D01*
X99894111Y-53396249D01*
X99889303Y-53395500D01*
X99873938Y-53395500D01*
X99864601Y-53395154D01*
X99848519Y-53393959D01*
X99815333Y-53391493D01*
X99806558Y-53393366D01*
X99797862Y-53393959D01*
X99783262Y-53395500D01*
X98598021Y-53395500D01*
X98529900Y-53375498D01*
X98486005Y-53327193D01*
X98433676Y-53225590D01*
X98372011Y-53147087D01*
X98307192Y-53064568D01*
X98307188Y-53064564D01*
X98303486Y-53059851D01*
X98298955Y-53055919D01*
X98148835Y-52925650D01*
X98148830Y-52925646D01*
X98144304Y-52921719D01*
X97961874Y-52816181D01*
X97762778Y-52747043D01*
X97756845Y-52746183D01*
X97756842Y-52746182D01*
X97560140Y-52717662D01*
X97560137Y-52717662D01*
X97554200Y-52716801D01*
X97343667Y-52726545D01*
X97337843Y-52727949D01*
X97337840Y-52727949D01*
X97144607Y-52774518D01*
X97144605Y-52774519D01*
X97138774Y-52775924D01*
X97133316Y-52778406D01*
X97133312Y-52778407D01*
X97029958Y-52825400D01*
X96946916Y-52863157D01*
X96775014Y-52985096D01*
X96700947Y-53062467D01*
X96641992Y-53124053D01*
X96629272Y-53137340D01*
X96626021Y-53142375D01*
X96586447Y-53203664D01*
X96532692Y-53250042D01*
X96462396Y-53259995D01*
X96397879Y-53230363D01*
X96359623Y-53170555D01*
X96355268Y-53148319D01*
X96347743Y-53075794D01*
X96344851Y-53062400D01*
X96293412Y-52908216D01*
X96287239Y-52895038D01*
X96201937Y-52757193D01*
X96192901Y-52745792D01*
X96078171Y-52631261D01*
X96066760Y-52622249D01*
X95928757Y-52537184D01*
X95915576Y-52531037D01*
X95761290Y-52479862D01*
X95747914Y-52476995D01*
X95653562Y-52467328D01*
X95647145Y-52467000D01*
X95272115Y-52467000D01*
X95256876Y-52471475D01*
X95255671Y-52472865D01*
X95254000Y-52480548D01*
X95254000Y-55314884D01*
X95258475Y-55330123D01*
X95259865Y-55331328D01*
X95267548Y-55332999D01*
X95647095Y-55332999D01*
X95653614Y-55332662D01*
X95749206Y-55322743D01*
X95762600Y-55319851D01*
X95916784Y-55268412D01*
X95929962Y-55262239D01*
X96067807Y-55176937D01*
X96079208Y-55167901D01*
X96193739Y-55053171D01*
X96202751Y-55041760D01*
X96287816Y-54903757D01*
X96293963Y-54890576D01*
X96345138Y-54736290D01*
X96348005Y-54722914D01*
X96354869Y-54655919D01*
X96381710Y-54590192D01*
X96439824Y-54549410D01*
X96510762Y-54546520D01*
X96572001Y-54582442D01*
X96579299Y-54590928D01*
X96696514Y-54740149D01*
X96701044Y-54744080D01*
X96701045Y-54744081D01*
X96851165Y-54874350D01*
X96851170Y-54874354D01*
X96855696Y-54878281D01*
X97038126Y-54983819D01*
X97237222Y-55052957D01*
X97243155Y-55053817D01*
X97243158Y-55053818D01*
X97439860Y-55082338D01*
X97439863Y-55082338D01*
X97445800Y-55083199D01*
X97656333Y-55073455D01*
X97662157Y-55072051D01*
X97662160Y-55072051D01*
X97855393Y-55025482D01*
X97855395Y-55025481D01*
X97861226Y-55024076D01*
X97866684Y-55021594D01*
X97866688Y-55021593D01*
X97989533Y-54965738D01*
X98053084Y-54936843D01*
X98191798Y-54838446D01*
X98220100Y-54818370D01*
X98220101Y-54818369D01*
X98224986Y-54814904D01*
X98370728Y-54662660D01*
X98421255Y-54584408D01*
X98481800Y-54490640D01*
X98481801Y-54490637D01*
X98485052Y-54485603D01*
X98487294Y-54480041D01*
X98490052Y-54474719D01*
X98492005Y-54475731D01*
X98529937Y-54427708D01*
X98602805Y-54404500D01*
X99588839Y-54404500D01*
X99656960Y-54424502D01*
X99677934Y-54441405D01*
X100236755Y-55000226D01*
X100270781Y-55062538D01*
X100266687Y-55130653D01*
X100247043Y-55187222D01*
X100246182Y-55193160D01*
X100225907Y-55332999D01*
X100216801Y-55395800D01*
X100226545Y-55606333D01*
X100275924Y-55811226D01*
X100278406Y-55816684D01*
X100278407Y-55816688D01*
X100319109Y-55906206D01*
X100363157Y-56003084D01*
X100485096Y-56174986D01*
X100637340Y-56320728D01*
X100642375Y-56323979D01*
X100703664Y-56363553D01*
X100750042Y-56417308D01*
X100759995Y-56487604D01*
X100730363Y-56552121D01*
X100670555Y-56590377D01*
X100648319Y-56594732D01*
X100575794Y-56602257D01*
X100562400Y-56605149D01*
X100408216Y-56656588D01*
X100395038Y-56662761D01*
X100257193Y-56748063D01*
X100245792Y-56757099D01*
X100131261Y-56871829D01*
X100122249Y-56883240D01*
X100037184Y-57021243D01*
X100031037Y-57034424D01*
X99979862Y-57188710D01*
X99976995Y-57202086D01*
X99967328Y-57296438D01*
X99967000Y-57302855D01*
X99967000Y-57677885D01*
X99971475Y-57693124D01*
X99972865Y-57694329D01*
X99980548Y-57696000D01*
X102814884Y-57696000D01*
X102830123Y-57691525D01*
X102831328Y-57690135D01*
X102832999Y-57682452D01*
X102832999Y-57302905D01*
X102832662Y-57296386D01*
X102822743Y-57200794D01*
X102819851Y-57187400D01*
X102768412Y-57033216D01*
X102762239Y-57020038D01*
X102676937Y-56882193D01*
X102667901Y-56870792D01*
X102553171Y-56756261D01*
X102541760Y-56747249D01*
X102403757Y-56662184D01*
X102390576Y-56656037D01*
X102236290Y-56604862D01*
X102222914Y-56601995D01*
X102155919Y-56595131D01*
X102090192Y-56568290D01*
X102049410Y-56510176D01*
X102046520Y-56439238D01*
X102082442Y-56377999D01*
X102090928Y-56370701D01*
X102235431Y-56257192D01*
X102240149Y-56253486D01*
X102271884Y-56216915D01*
X102374350Y-56098835D01*
X102374354Y-56098830D01*
X102378281Y-56094304D01*
X102483819Y-55911874D01*
X102552957Y-55712778D01*
X102572928Y-55575044D01*
X102582338Y-55510140D01*
X102582338Y-55510137D01*
X102583199Y-55504200D01*
X102573455Y-55293667D01*
X102570686Y-55282175D01*
X102525482Y-55094607D01*
X102525481Y-55094605D01*
X102524076Y-55088774D01*
X102521542Y-55083199D01*
X102445498Y-54915951D01*
X102436843Y-54896916D01*
X102323832Y-54737600D01*
X102318370Y-54729900D01*
X102318369Y-54729899D01*
X102314904Y-54725014D01*
X102162660Y-54579272D01*
X102111936Y-54546520D01*
X101990640Y-54468200D01*
X101990637Y-54468199D01*
X101985603Y-54464948D01*
X101790122Y-54386166D01*
X101637228Y-54356308D01*
X101587717Y-54346639D01*
X101587714Y-54346639D01*
X101583271Y-54345771D01*
X101577730Y-54345500D01*
X101272341Y-54345500D01*
X101115194Y-54360493D01*
X101109445Y-54362180D01*
X101104825Y-54363069D01*
X101034152Y-54356308D01*
X100991908Y-54328437D01*
X100887299Y-54223828D01*
X100853273Y-54161516D01*
X100858338Y-54090701D01*
X100900885Y-54033865D01*
X100967405Y-54009054D01*
X101009326Y-54013611D01*
X101009878Y-54013834D01*
X101080672Y-54027659D01*
X101212283Y-54053361D01*
X101212286Y-54053361D01*
X101216729Y-54054229D01*
X101222270Y-54054500D01*
X101527659Y-54054500D01*
X101684806Y-54039507D01*
X101887042Y-53980177D01*
X101962440Y-53941345D01*
X102069079Y-53886422D01*
X102069082Y-53886420D01*
X102074410Y-53883676D01*
X102134950Y-53836121D01*
X102235432Y-53757192D01*
X102235436Y-53757188D01*
X102240149Y-53753486D01*
X102267237Y-53722270D01*
X102374350Y-53598835D01*
X102374354Y-53598830D01*
X102378281Y-53594304D01*
X102483819Y-53411874D01*
X102552957Y-53212778D01*
X102554279Y-53203664D01*
X102582338Y-53010140D01*
X102582338Y-53010137D01*
X102583199Y-53004200D01*
X102573455Y-52793667D01*
X102569778Y-52778407D01*
X102525482Y-52594607D01*
X102525481Y-52594605D01*
X102524076Y-52588774D01*
X102519776Y-52579315D01*
X102468708Y-52467000D01*
X102436843Y-52396916D01*
X102314904Y-52225014D01*
X102162660Y-52079272D01*
X102051328Y-52007386D01*
X101990640Y-51968200D01*
X101990637Y-51968199D01*
X101985603Y-51964948D01*
X101923936Y-51940095D01*
X101795685Y-51888408D01*
X101790122Y-51886166D01*
X101655739Y-51859923D01*
X101587717Y-51846639D01*
X101587714Y-51846639D01*
X101583271Y-51845771D01*
X101577730Y-51845500D01*
X101272341Y-51845500D01*
X101115194Y-51860493D01*
X101109434Y-51862183D01*
X101109433Y-51862183D01*
X101031600Y-51885017D01*
X100912958Y-51919823D01*
X100873788Y-51939997D01*
X100730921Y-52013578D01*
X100730918Y-52013580D01*
X100725590Y-52016324D01*
X100679456Y-52052563D01*
X100564568Y-52142808D01*
X100564564Y-52142812D01*
X100559851Y-52146514D01*
X100555920Y-52151044D01*
X100555919Y-52151045D01*
X100436328Y-52288860D01*
X100376574Y-52327201D01*
X100305578Y-52327150D01*
X100252068Y-52295374D01*
X99902064Y-51945370D01*
X99868038Y-51883058D01*
X99873103Y-51812243D01*
X99881834Y-51795982D01*
X99881326Y-51795723D01*
X99893745Y-51771350D01*
X99939498Y-51681555D01*
X99954500Y-51586834D01*
X99954500Y-51223166D01*
X99939498Y-51128445D01*
X99881326Y-51014277D01*
X99790723Y-50923674D01*
X99709458Y-50882267D01*
X99657843Y-50833518D01*
X99640777Y-50764603D01*
X99663678Y-50697402D01*
X99709458Y-50657733D01*
X99718107Y-50653326D01*
X99790723Y-50616326D01*
X99881326Y-50525723D01*
X99939498Y-50411555D01*
X99954500Y-50316834D01*
X99954500Y-49953166D01*
X99939498Y-49858445D01*
X99939200Y-49857861D01*
X99937321Y-49792033D01*
X99973984Y-49731235D01*
X100037697Y-49699911D01*
X100108231Y-49708005D01*
X100148276Y-49734971D01*
X100282319Y-49869014D01*
X100316345Y-49931326D01*
X100312251Y-49999443D01*
X100250099Y-50178423D01*
X100247043Y-50187222D01*
X100246183Y-50193155D01*
X100246182Y-50193158D01*
X100226179Y-50331121D01*
X100216801Y-50395800D01*
X100226545Y-50606333D01*
X100238413Y-50655576D01*
X100271826Y-50794220D01*
X100275924Y-50811226D01*
X100278406Y-50816684D01*
X100278407Y-50816688D01*
X100318877Y-50905695D01*
X100363157Y-51003084D01*
X100426541Y-51092439D01*
X100464382Y-51145784D01*
X100485096Y-51174986D01*
X100581956Y-51267709D01*
X100632951Y-51316526D01*
X100637340Y-51320728D01*
X100642375Y-51323979D01*
X100809360Y-51431800D01*
X100809363Y-51431801D01*
X100814397Y-51435052D01*
X100819960Y-51437294D01*
X100910909Y-51473948D01*
X101009878Y-51513834D01*
X101132688Y-51537817D01*
X101212283Y-51553361D01*
X101212286Y-51553361D01*
X101216729Y-51554229D01*
X101222270Y-51554500D01*
X101527659Y-51554500D01*
X101684806Y-51539507D01*
X101718723Y-51529557D01*
X101881278Y-51481868D01*
X101887042Y-51480177D01*
X101970304Y-51437294D01*
X102069079Y-51386422D01*
X102069082Y-51386420D01*
X102074410Y-51383676D01*
X102126533Y-51342733D01*
X102235432Y-51257192D01*
X102235436Y-51257188D01*
X102240149Y-51253486D01*
X102262945Y-51227216D01*
X102374350Y-51098835D01*
X102374354Y-51098830D01*
X102378281Y-51094304D01*
X102483819Y-50911874D01*
X102552957Y-50712778D01*
X102554636Y-50701203D01*
X102582338Y-50510140D01*
X102582338Y-50510137D01*
X102583199Y-50504200D01*
X102573455Y-50293667D01*
X102566065Y-50263000D01*
X102525482Y-50094607D01*
X102525481Y-50094605D01*
X102524076Y-50088774D01*
X102519613Y-50078957D01*
X102444851Y-49914529D01*
X102436843Y-49896916D01*
X102314904Y-49725014D01*
X102181955Y-49597743D01*
X102166990Y-49583417D01*
X102162660Y-49579272D01*
X102087720Y-49530884D01*
X101990640Y-49468200D01*
X101990637Y-49468199D01*
X101985603Y-49464948D01*
X101790122Y-49386166D01*
X101639855Y-49356821D01*
X101587717Y-49346639D01*
X101587714Y-49346639D01*
X101583271Y-49345771D01*
X101577730Y-49345500D01*
X101272341Y-49345500D01*
X101115194Y-49360493D01*
X100979693Y-49400245D01*
X100908699Y-49400229D01*
X100855130Y-49368436D01*
X100543322Y-49056628D01*
X100509296Y-48994316D01*
X100514361Y-48923501D01*
X100556908Y-48866665D01*
X100623428Y-48841854D01*
X100692802Y-48856945D01*
X100700764Y-48861681D01*
X100809355Y-48931797D01*
X100809359Y-48931799D01*
X100814397Y-48935052D01*
X101009878Y-49013834D01*
X101132688Y-49037817D01*
X101212283Y-49053361D01*
X101212286Y-49053361D01*
X101216729Y-49054229D01*
X101222270Y-49054500D01*
X101527659Y-49054500D01*
X101684806Y-49039507D01*
X101716831Y-49030112D01*
X101881278Y-48981868D01*
X101887042Y-48980177D01*
X101970304Y-48937294D01*
X102069079Y-48886422D01*
X102069082Y-48886420D01*
X102074410Y-48883676D01*
X102137034Y-48834484D01*
X102235432Y-48757192D01*
X102235436Y-48757188D01*
X102240149Y-48753486D01*
X102258589Y-48732236D01*
X102374350Y-48598835D01*
X102374354Y-48598830D01*
X102378281Y-48594304D01*
X102483819Y-48411874D01*
X102552957Y-48212778D01*
X102559067Y-48170641D01*
X102582338Y-48010140D01*
X102582338Y-48010137D01*
X102583199Y-48004200D01*
X102573455Y-47793667D01*
X102571310Y-47784764D01*
X102525482Y-47594607D01*
X102525481Y-47594605D01*
X102524076Y-47588774D01*
X102520530Y-47580973D01*
X102461533Y-47451219D01*
X102436843Y-47396916D01*
X102341330Y-47262268D01*
X102318370Y-47229900D01*
X102318369Y-47229899D01*
X102314904Y-47225014D01*
X102162660Y-47079272D01*
X102063690Y-47015368D01*
X101990640Y-46968200D01*
X101990637Y-46968199D01*
X101985603Y-46964948D01*
X101975643Y-46960934D01*
X101960226Y-46954720D01*
X101904521Y-46910704D01*
X101881456Y-46843558D01*
X101898354Y-46774602D01*
X101955576Y-46722973D01*
X102132970Y-46643063D01*
X102142256Y-46637894D01*
X102324575Y-46515150D01*
X102332870Y-46508481D01*
X102491900Y-46356772D01*
X102498941Y-46348814D01*
X102630141Y-46172475D01*
X102635745Y-46163438D01*
X102735357Y-45967516D01*
X102739357Y-45957665D01*
X102804534Y-45747760D01*
X102806817Y-45737376D01*
X102808861Y-45721957D01*
X102806665Y-45707793D01*
X102793478Y-45704000D01*
X101272000Y-45704000D01*
X101203879Y-45683998D01*
X101157386Y-45630342D01*
X101146000Y-45578000D01*
X101146000Y-45322000D01*
X101166002Y-45253879D01*
X101219658Y-45207386D01*
X101272000Y-45196000D01*
X102791192Y-45196000D01*
X102804723Y-45192027D01*
X102806248Y-45181420D01*
X102781523Y-45063579D01*
X102778463Y-45053383D01*
X102697737Y-44848971D01*
X102693006Y-44839439D01*
X102578984Y-44651538D01*
X102572720Y-44642947D01*
X102485565Y-44542511D01*
X102456025Y-44477951D01*
X102466079Y-44407670D01*
X102508458Y-44356718D01*
X102583967Y-44303846D01*
X102645799Y-44260551D01*
X102645802Y-44260549D01*
X102650310Y-44257392D01*
X102782392Y-44125310D01*
X102801750Y-44097665D01*
X102854946Y-44021692D01*
X102889531Y-43972300D01*
X102891854Y-43967318D01*
X102891857Y-43967313D01*
X102941714Y-43860393D01*
X102968472Y-43803010D01*
X103016818Y-43622583D01*
X103024818Y-43531135D01*
X103026480Y-43512143D01*
X103027440Y-43505776D01*
X103028538Y-43502651D01*
X103029020Y-43497086D01*
X103029020Y-43488619D01*
X103029499Y-43477638D01*
X103031909Y-43450089D01*
X103032199Y-43447728D01*
X103032199Y-43446775D01*
X103032292Y-43445713D01*
X103033751Y-43436503D01*
X103030571Y-43416425D01*
X103029020Y-43396715D01*
X103029020Y-36739308D01*
X103030571Y-36719597D01*
X103032200Y-36709310D01*
X103033751Y-36699520D01*
X103032712Y-36692958D01*
X103031586Y-36677205D01*
X103022728Y-36553361D01*
X103016558Y-36467094D01*
X103000428Y-36392947D01*
X102967985Y-36243807D01*
X102967984Y-36243803D01*
X102967026Y-36239400D01*
X102962625Y-36227599D01*
X102887167Y-36025290D01*
X102885594Y-36021072D01*
X102773919Y-35816556D01*
X102634276Y-35630014D01*
X102618399Y-35614137D01*
X102584373Y-35551825D01*
X102583125Y-35516179D01*
X102582045Y-35516126D01*
X102582337Y-35510142D01*
X102583199Y-35504200D01*
X102573455Y-35293667D01*
X102549233Y-35193158D01*
X102525482Y-35094607D01*
X102525481Y-35094605D01*
X102524076Y-35088774D01*
X102497280Y-35029838D01*
X102439323Y-34902371D01*
X102436843Y-34896916D01*
X102314904Y-34725014D01*
X102162660Y-34579272D01*
X102060918Y-34513578D01*
X101990640Y-34468200D01*
X101990637Y-34468199D01*
X101985603Y-34464948D01*
X101790122Y-34386166D01*
X101655739Y-34359923D01*
X101587717Y-34346639D01*
X101587714Y-34346639D01*
X101583271Y-34345771D01*
X101577730Y-34345500D01*
X101272341Y-34345500D01*
X101115194Y-34360493D01*
X100912958Y-34419823D01*
X100907619Y-34422573D01*
X100730921Y-34513578D01*
X100730918Y-34513580D01*
X100725590Y-34516324D01*
X100720875Y-34520028D01*
X100564568Y-34642808D01*
X100564564Y-34642812D01*
X100559851Y-34646514D01*
X100555920Y-34651044D01*
X100555919Y-34651045D01*
X100425650Y-34801165D01*
X100425646Y-34801170D01*
X100421719Y-34805696D01*
X100316181Y-34988126D01*
X100247043Y-35187222D01*
X100216801Y-35395800D01*
X100226545Y-35606333D01*
X100238413Y-35655576D01*
X100271361Y-35792291D01*
X100275924Y-35811226D01*
X100278406Y-35816684D01*
X100278407Y-35816688D01*
X100315968Y-35899298D01*
X100363157Y-36003084D01*
X100375917Y-36021072D01*
X100410795Y-36070241D01*
X100433893Y-36137375D01*
X100417029Y-36206340D01*
X100365557Y-36255239D01*
X100295819Y-36268548D01*
X100229957Y-36242042D01*
X100218930Y-36232236D01*
X100066153Y-36079459D01*
X100032127Y-36017147D01*
X100029499Y-35997145D01*
X100029499Y-35995686D01*
X100026493Y-35963873D01*
X99981209Y-35834924D01*
X99900010Y-35724990D01*
X99790076Y-35643791D01*
X99661127Y-35598507D01*
X99653485Y-35597785D01*
X99653482Y-35597784D01*
X99638579Y-35596376D01*
X99629315Y-35595500D01*
X99300223Y-35595500D01*
X98970686Y-35595501D01*
X98967738Y-35595780D01*
X98967729Y-35595780D01*
X98946522Y-35597784D01*
X98946520Y-35597784D01*
X98938873Y-35598507D01*
X98809924Y-35643791D01*
X98699990Y-35724990D01*
X98618791Y-35834924D01*
X98573507Y-35963873D01*
X98570500Y-35995685D01*
X98570501Y-36206340D01*
X98570501Y-36296965D01*
X98550499Y-36365085D01*
X98496844Y-36411578D01*
X98459654Y-36421942D01*
X98452969Y-36421907D01*
X98445589Y-36423679D01*
X98445587Y-36423679D01*
X98306311Y-36457116D01*
X98306308Y-36457117D01*
X98298932Y-36458888D01*
X98292190Y-36462368D01*
X98292184Y-36462370D01*
X98234860Y-36491957D01*
X98165153Y-36505426D01*
X98099229Y-36479070D01*
X98070384Y-36447027D01*
X98064269Y-36437294D01*
X98044810Y-36406326D01*
X97944154Y-36305670D01*
X97845700Y-36243807D01*
X97829614Y-36233699D01*
X97829611Y-36233698D01*
X97823623Y-36229935D01*
X97689261Y-36182921D01*
X97682234Y-36182129D01*
X97682233Y-36182129D01*
X97639290Y-36177290D01*
X97626883Y-36175260D01*
X97621430Y-36174086D01*
X97613957Y-36171462D01*
X97608392Y-36170980D01*
X97590360Y-36170980D01*
X97576259Y-36170188D01*
X97566678Y-36169109D01*
X97561071Y-36168350D01*
X97547806Y-36166249D01*
X97538013Y-36167800D01*
X97537491Y-36167800D01*
X97469370Y-36147798D01*
X97422877Y-36094142D01*
X97412773Y-36023868D01*
X97442267Y-35959288D01*
X97455660Y-35945989D01*
X97486444Y-35919697D01*
X97486444Y-35919696D01*
X97492222Y-35914762D01*
X97584663Y-35786117D01*
X97643750Y-35639134D01*
X97653664Y-35569473D01*
X97665489Y-35486384D01*
X97665489Y-35486381D01*
X97666070Y-35482300D01*
X97666215Y-35468493D01*
X97647184Y-35311226D01*
X97591188Y-35163039D01*
X97540147Y-35088774D01*
X97505763Y-35038744D01*
X97505762Y-35038742D01*
X97501461Y-35032485D01*
X97383183Y-34927104D01*
X97343659Y-34906177D01*
X97292817Y-34856625D01*
X97276836Y-34787451D01*
X97285713Y-34747827D01*
X97334007Y-34627694D01*
X97334008Y-34627692D01*
X97336842Y-34620641D01*
X97359162Y-34463807D01*
X97359307Y-34450000D01*
X97340276Y-34292733D01*
X97284280Y-34144546D01*
X97233506Y-34070669D01*
X97198855Y-34020251D01*
X97198854Y-34020249D01*
X97194553Y-34013992D01*
X97076275Y-33908611D01*
X97068889Y-33904700D01*
X96942988Y-33838039D01*
X96942989Y-33838039D01*
X96936274Y-33834484D01*
X96782633Y-33795892D01*
X96775034Y-33795852D01*
X96775033Y-33795852D01*
X96709181Y-33795507D01*
X96624221Y-33795062D01*
X96616841Y-33796834D01*
X96616839Y-33796834D01*
X96477563Y-33830271D01*
X96477560Y-33830272D01*
X96470184Y-33832043D01*
X96329414Y-33904700D01*
X96210039Y-34008838D01*
X96205671Y-34015052D01*
X96205670Y-34015054D01*
X96197669Y-34026438D01*
X96142134Y-34070669D01*
X96102827Y-34079716D01*
X96093138Y-34080351D01*
X96093134Y-34080352D01*
X96089023Y-34080621D01*
X96008943Y-34096550D01*
X95938229Y-34090222D01*
X95882162Y-34046668D01*
X95858543Y-33979715D01*
X95867455Y-33925975D01*
X95871707Y-33915399D01*
X95871709Y-33915392D01*
X95874543Y-33908342D01*
X95885054Y-33834484D01*
X95896282Y-33755592D01*
X95896282Y-33755589D01*
X95896863Y-33751508D01*
X95897008Y-33737701D01*
X95877977Y-33580434D01*
X95843779Y-33489932D01*
X95824666Y-33439352D01*
X95824665Y-33439351D01*
X95821981Y-33432247D01*
X95822870Y-33431911D01*
X95810321Y-33368737D01*
X95836332Y-33302677D01*
X95893929Y-33261167D01*
X95935817Y-33254000D01*
X107620000Y-33254000D01*
X107688121Y-33274002D01*
G37*
%TD.AperFunction*%
%TA.AperFunction,Conductor*%
G36*
X79766167Y-55106851D02*
G01*
X79883113Y-55145640D01*
X79883115Y-55145640D01*
X79889641Y-55147805D01*
X79896478Y-55148505D01*
X79896480Y-55148506D01*
X79939179Y-55152881D01*
X79994023Y-55158500D01*
X80024950Y-55158500D01*
X81110271Y-55158499D01*
X81178392Y-55178501D01*
X81224885Y-55232157D01*
X81236271Y-55284499D01*
X81236271Y-55863500D01*
X81216269Y-55931621D01*
X81162613Y-55978114D01*
X81110271Y-55989500D01*
X80019276Y-55989501D01*
X79990628Y-55989501D01*
X79987678Y-55989780D01*
X79987673Y-55989780D01*
X79966774Y-55991755D01*
X79966773Y-55991755D01*
X79959125Y-55992478D01*
X79831488Y-56037301D01*
X79801357Y-56059556D01*
X79734682Y-56083938D01*
X79665406Y-56068402D01*
X79615527Y-56017878D01*
X79600500Y-55958204D01*
X79600500Y-55226444D01*
X79620502Y-55158323D01*
X79674158Y-55111830D01*
X79744432Y-55101726D01*
X79766167Y-55106851D01*
G37*
%TD.AperFunction*%
%TA.AperFunction,Conductor*%
G36*
X74774933Y-49654500D02*
G01*
X74999689Y-49654500D01*
X75067810Y-49674502D01*
X75114303Y-49728158D01*
X75124407Y-49798432D01*
X75094913Y-49863012D01*
X75074548Y-49881851D01*
X75049990Y-49899990D01*
X74968791Y-50009924D01*
X74923507Y-50138873D01*
X74920500Y-50170685D01*
X74920501Y-50829314D01*
X74920780Y-50832262D01*
X74920780Y-50832271D01*
X74922481Y-50850273D01*
X74923507Y-50861127D01*
X74968791Y-50990076D01*
X75049990Y-51100010D01*
X75159924Y-51181209D01*
X75288873Y-51226493D01*
X75296515Y-51227215D01*
X75296518Y-51227216D01*
X75311421Y-51228624D01*
X75320685Y-51229500D01*
X75397394Y-51229500D01*
X75465515Y-51249502D01*
X75512008Y-51303158D01*
X75522112Y-51373432D01*
X75502159Y-51425502D01*
X75482351Y-51455147D01*
X75460266Y-51488199D01*
X75445500Y-51562433D01*
X75445501Y-52295374D01*
X75445501Y-52938888D01*
X75425499Y-53007009D01*
X75371843Y-53053502D01*
X75344081Y-53062467D01*
X75335527Y-53064168D01*
X75316699Y-53067913D01*
X75316696Y-53067914D01*
X75313648Y-53068520D01*
X75181697Y-53108547D01*
X75178845Y-53109728D01*
X75178846Y-53109728D01*
X75091516Y-53145901D01*
X75091507Y-53145905D01*
X75088654Y-53147087D01*
X75068565Y-53157825D01*
X74972936Y-53208940D01*
X74967048Y-53212087D01*
X74964476Y-53213806D01*
X74964472Y-53213808D01*
X74939696Y-53230363D01*
X74883314Y-53268037D01*
X74776725Y-53355512D01*
X74705512Y-53426725D01*
X74618037Y-53533314D01*
X74593750Y-53569661D01*
X74588086Y-53578139D01*
X74562087Y-53617048D01*
X74497087Y-53738654D01*
X74495905Y-53741507D01*
X74495901Y-53741516D01*
X74492820Y-53748955D01*
X74458547Y-53831697D01*
X74418520Y-53963648D01*
X74398873Y-54062424D01*
X74398570Y-54065496D01*
X74398570Y-54065499D01*
X74389918Y-54153350D01*
X74363336Y-54219182D01*
X74305382Y-54260192D01*
X74282074Y-54264076D01*
X74256876Y-54271475D01*
X74255671Y-54272865D01*
X74254000Y-54280548D01*
X74254000Y-55303000D01*
X74233998Y-55371121D01*
X74180342Y-55417614D01*
X74128000Y-55429000D01*
X73872000Y-55429000D01*
X73803879Y-55408998D01*
X73757386Y-55355342D01*
X73746000Y-55303000D01*
X73746000Y-54285116D01*
X73741525Y-54269877D01*
X73740135Y-54268672D01*
X73732452Y-54267001D01*
X73671295Y-54267001D01*
X73665546Y-54267264D01*
X73641528Y-54269471D01*
X73571863Y-54255785D01*
X73520656Y-54206608D01*
X73504000Y-54143999D01*
X73504000Y-52187268D01*
X73524002Y-52119147D01*
X73577658Y-52072654D01*
X73647932Y-52062550D01*
X73690122Y-52076537D01*
X73757293Y-52113008D01*
X73910522Y-52153207D01*
X73994477Y-52154526D01*
X74061319Y-52155576D01*
X74061322Y-52155576D01*
X74068916Y-52155695D01*
X74223332Y-52120329D01*
X74304966Y-52079272D01*
X74358072Y-52052563D01*
X74358075Y-52052561D01*
X74364855Y-52049151D01*
X74370626Y-52044222D01*
X74370629Y-52044220D01*
X74479536Y-51951204D01*
X74479536Y-51951203D01*
X74485314Y-51946269D01*
X74577755Y-51817624D01*
X74636842Y-51670641D01*
X74649474Y-51581880D01*
X74658581Y-51517891D01*
X74658581Y-51517888D01*
X74659162Y-51513807D01*
X74659307Y-51500000D01*
X74640276Y-51342733D01*
X74584280Y-51194546D01*
X74535478Y-51123538D01*
X74513378Y-51056068D01*
X74527538Y-50995046D01*
X74531209Y-50990076D01*
X74539316Y-50966993D01*
X74573948Y-50868374D01*
X74576493Y-50861127D01*
X74579500Y-50829315D01*
X74579499Y-50170686D01*
X74579000Y-50165396D01*
X74577216Y-50146522D01*
X74577215Y-50146518D01*
X74576493Y-50138873D01*
X74531209Y-50009924D01*
X74517278Y-49991063D01*
X74499400Y-49966857D01*
X74475017Y-49900179D01*
X74490554Y-49830903D01*
X74525186Y-49791172D01*
X74555724Y-49768285D01*
X74568285Y-49755724D01*
X74613530Y-49695354D01*
X74670389Y-49652839D01*
X74738937Y-49647340D01*
X74774933Y-49654500D01*
G37*
%TD.AperFunction*%
%TA.AperFunction,Conductor*%
G36*
X93871121Y-49901002D02*
G01*
X93917614Y-49954658D01*
X93929000Y-50007000D01*
X93929000Y-50263000D01*
X93908998Y-50331121D01*
X93855342Y-50377614D01*
X93803000Y-50389000D01*
X92378000Y-50389000D01*
X92309879Y-50368998D01*
X92263386Y-50315342D01*
X92252000Y-50263000D01*
X92252000Y-50105499D01*
X92272002Y-50037378D01*
X92325658Y-49990885D01*
X92378000Y-49979499D01*
X92404314Y-49979499D01*
X92407262Y-49979220D01*
X92407271Y-49979220D01*
X92428478Y-49977216D01*
X92428480Y-49977216D01*
X92436127Y-49976493D01*
X92565076Y-49931209D01*
X92572648Y-49925616D01*
X92572652Y-49925614D01*
X92596998Y-49907631D01*
X92599682Y-49905649D01*
X92666359Y-49881266D01*
X92674541Y-49881000D01*
X93803000Y-49881000D01*
X93871121Y-49901002D01*
G37*
%TD.AperFunction*%
%TA.AperFunction,Conductor*%
G36*
X74696581Y-38916002D02*
G01*
X74743074Y-38969658D01*
X74749356Y-38986503D01*
X74752474Y-38997124D01*
X74753865Y-38998329D01*
X74761548Y-39000000D01*
X84833885Y-39000000D01*
X84849124Y-38995525D01*
X84851292Y-38993024D01*
X84884117Y-38932906D01*
X84946429Y-38898880D01*
X84973214Y-38896000D01*
X85878000Y-38896000D01*
X85946121Y-38916002D01*
X85992614Y-38969658D01*
X86004000Y-39022000D01*
X86004000Y-39278000D01*
X85983998Y-39346121D01*
X85930342Y-39392614D01*
X85878000Y-39404000D01*
X84870388Y-39404000D01*
X84843605Y-39401121D01*
X84838452Y-39400000D01*
X84818115Y-39400000D01*
X84802876Y-39404475D01*
X84801671Y-39405865D01*
X84800000Y-39413548D01*
X84800000Y-40089884D01*
X84804475Y-40105123D01*
X84805865Y-40106328D01*
X84813548Y-40107999D01*
X84844669Y-40107999D01*
X84851488Y-40107630D01*
X84905895Y-40101720D01*
X84975777Y-40114249D01*
X85027792Y-40162570D01*
X85045501Y-40226982D01*
X85045501Y-40325066D01*
X85049401Y-40344672D01*
X85055379Y-40374728D01*
X85060266Y-40399301D01*
X85067161Y-40409621D01*
X85067162Y-40409622D01*
X85080777Y-40429998D01*
X85101992Y-40497751D01*
X85080777Y-40570002D01*
X85067161Y-40590379D01*
X85067160Y-40590382D01*
X85060266Y-40600699D01*
X85045500Y-40674933D01*
X85045501Y-41125066D01*
X85048429Y-41139787D01*
X85057809Y-41186946D01*
X85060266Y-41199301D01*
X85067161Y-41209621D01*
X85067162Y-41209622D01*
X85080777Y-41229998D01*
X85101992Y-41297751D01*
X85080777Y-41370002D01*
X85067161Y-41390379D01*
X85067160Y-41390382D01*
X85060266Y-41400699D01*
X85045500Y-41474933D01*
X85045501Y-41925066D01*
X85047223Y-41933724D01*
X85056590Y-41980817D01*
X85060266Y-41999301D01*
X85067161Y-42009621D01*
X85067162Y-42009622D01*
X85080777Y-42029998D01*
X85101992Y-42097751D01*
X85080777Y-42170002D01*
X85067161Y-42190379D01*
X85067160Y-42190382D01*
X85060266Y-42200699D01*
X85045500Y-42274933D01*
X85045500Y-42288796D01*
X85025498Y-42356917D01*
X84971842Y-42403410D01*
X84901568Y-42413514D01*
X84888805Y-42411000D01*
X84840004Y-42398742D01*
X84840000Y-42398742D01*
X84832633Y-42396891D01*
X84825034Y-42396851D01*
X84825033Y-42396851D01*
X84759181Y-42396506D01*
X84674221Y-42396061D01*
X84666841Y-42397833D01*
X84666839Y-42397833D01*
X84527563Y-42431270D01*
X84527560Y-42431271D01*
X84520184Y-42433042D01*
X84379414Y-42505699D01*
X84260039Y-42609837D01*
X84168950Y-42739443D01*
X84148595Y-42791651D01*
X84116487Y-42874005D01*
X84111406Y-42887036D01*
X84110414Y-42894569D01*
X84110414Y-42894570D01*
X84096904Y-42997194D01*
X84090729Y-43044095D01*
X84098327Y-43112912D01*
X84107014Y-43191597D01*
X84108113Y-43201552D01*
X84110723Y-43208683D01*
X84110723Y-43208685D01*
X84157671Y-43336976D01*
X84162553Y-43350318D01*
X84166789Y-43356621D01*
X84166789Y-43356622D01*
X84241281Y-43467477D01*
X84250908Y-43481804D01*
X84256527Y-43486917D01*
X84256528Y-43486918D01*
X84322375Y-43546834D01*
X84368076Y-43588418D01*
X84385965Y-43598131D01*
X84424581Y-43619098D01*
X84474903Y-43669181D01*
X84490159Y-43738519D01*
X84465506Y-43805098D01*
X84408772Y-43847780D01*
X84393873Y-43852348D01*
X84277563Y-43880271D01*
X84277560Y-43880272D01*
X84270184Y-43882043D01*
X84129414Y-43954700D01*
X84010039Y-44058838D01*
X83918950Y-44188444D01*
X83903056Y-44229210D01*
X83869588Y-44315052D01*
X83861406Y-44336037D01*
X83860414Y-44343570D01*
X83860414Y-44343571D01*
X83842248Y-44481559D01*
X83840729Y-44493096D01*
X83844980Y-44531600D01*
X83856567Y-44636546D01*
X83858113Y-44650553D01*
X83860723Y-44657684D01*
X83860723Y-44657686D01*
X83896142Y-44754472D01*
X83912553Y-44799319D01*
X83916789Y-44805622D01*
X83916789Y-44805623D01*
X83987973Y-44911555D01*
X84000908Y-44930805D01*
X84118076Y-45037419D01*
X84257293Y-45113008D01*
X84410522Y-45153207D01*
X84494477Y-45154526D01*
X84561319Y-45155576D01*
X84561322Y-45155576D01*
X84568916Y-45155695D01*
X84723332Y-45120329D01*
X84864855Y-45049151D01*
X84866011Y-45051449D01*
X84922069Y-45034056D01*
X84990487Y-45053017D01*
X85037792Y-45105957D01*
X85047568Y-45135460D01*
X85050715Y-45151279D01*
X85056710Y-45181420D01*
X85060266Y-45199301D01*
X85067161Y-45209621D01*
X85067162Y-45209622D01*
X85080777Y-45229998D01*
X85101992Y-45297751D01*
X85080777Y-45370002D01*
X85067161Y-45390379D01*
X85067160Y-45390382D01*
X85060266Y-45400699D01*
X85045500Y-45474933D01*
X85045501Y-45925066D01*
X85051985Y-45957665D01*
X85056412Y-45979923D01*
X85060266Y-45999301D01*
X85067161Y-46009621D01*
X85067162Y-46009622D01*
X85080777Y-46029998D01*
X85101992Y-46097751D01*
X85080777Y-46170002D01*
X85067161Y-46190379D01*
X85067160Y-46190382D01*
X85060266Y-46200699D01*
X85045500Y-46274933D01*
X85045501Y-46725066D01*
X85052082Y-46758152D01*
X85055117Y-46773411D01*
X85060266Y-46799301D01*
X85067161Y-46809621D01*
X85067162Y-46809622D01*
X85080777Y-46829998D01*
X85101992Y-46897751D01*
X85080777Y-46970002D01*
X85067161Y-46990379D01*
X85067160Y-46990382D01*
X85060266Y-47000699D01*
X85045500Y-47074933D01*
X85045501Y-47525066D01*
X85048565Y-47540469D01*
X85057086Y-47583312D01*
X85060266Y-47599301D01*
X85067161Y-47609621D01*
X85067162Y-47609622D01*
X85080777Y-47629998D01*
X85101992Y-47697751D01*
X85080777Y-47770002D01*
X85067161Y-47790379D01*
X85067160Y-47790382D01*
X85060266Y-47800699D01*
X85045500Y-47874933D01*
X85045501Y-48097895D01*
X85045501Y-48235816D01*
X85025499Y-48303936D01*
X84971844Y-48350429D01*
X84894921Y-48359395D01*
X84825067Y-48345500D01*
X84804323Y-48345500D01*
X84502999Y-48345501D01*
X84434880Y-48325499D01*
X84388387Y-48271844D01*
X84378282Y-48201570D01*
X84382682Y-48185197D01*
X84382042Y-48185026D01*
X84384006Y-48177695D01*
X84386842Y-48170641D01*
X84397397Y-48096475D01*
X84408581Y-48017891D01*
X84408581Y-48017888D01*
X84409162Y-48013807D01*
X84409307Y-48000000D01*
X84390276Y-47842733D01*
X84334280Y-47694546D01*
X84275204Y-47608590D01*
X84248855Y-47570251D01*
X84248854Y-47570249D01*
X84244553Y-47563992D01*
X84126275Y-47458611D01*
X84118889Y-47454700D01*
X84031205Y-47408274D01*
X83986274Y-47384484D01*
X83832633Y-47345892D01*
X83825034Y-47345852D01*
X83825033Y-47345852D01*
X83759181Y-47345507D01*
X83674221Y-47345062D01*
X83666841Y-47346834D01*
X83666839Y-47346834D01*
X83527563Y-47380271D01*
X83527560Y-47380272D01*
X83520184Y-47382043D01*
X83379414Y-47454700D01*
X83260039Y-47558838D01*
X83168950Y-47688444D01*
X83143196Y-47754499D01*
X83114701Y-47827587D01*
X83111406Y-47836037D01*
X83110414Y-47843570D01*
X83110414Y-47843571D01*
X83092863Y-47976890D01*
X83090729Y-47993096D01*
X83094362Y-48026000D01*
X83104490Y-48117733D01*
X83108113Y-48150553D01*
X83110723Y-48157684D01*
X83110723Y-48157686D01*
X83117498Y-48176199D01*
X83122124Y-48247045D01*
X83087714Y-48309145D01*
X83025192Y-48342784D01*
X82999173Y-48345500D01*
X82787850Y-48345501D01*
X82774934Y-48345501D01*
X82739182Y-48352612D01*
X82712874Y-48357844D01*
X82712872Y-48357845D01*
X82700699Y-48360266D01*
X82690379Y-48367161D01*
X82690378Y-48367162D01*
X82670002Y-48380777D01*
X82602249Y-48401992D01*
X82529998Y-48380777D01*
X82509621Y-48367161D01*
X82509618Y-48367160D01*
X82499301Y-48360266D01*
X82425067Y-48345500D01*
X82200037Y-48345500D01*
X81974934Y-48345501D01*
X81939182Y-48352612D01*
X81912874Y-48357844D01*
X81912872Y-48357845D01*
X81900699Y-48360266D01*
X81890379Y-48367161D01*
X81890378Y-48367162D01*
X81870002Y-48380777D01*
X81802249Y-48401992D01*
X81729998Y-48380777D01*
X81709621Y-48367161D01*
X81709618Y-48367160D01*
X81699301Y-48360266D01*
X81625067Y-48345500D01*
X81400037Y-48345500D01*
X81174934Y-48345501D01*
X81139182Y-48352612D01*
X81112874Y-48357844D01*
X81112872Y-48357845D01*
X81100699Y-48360266D01*
X81090379Y-48367161D01*
X81090378Y-48367162D01*
X81070002Y-48380777D01*
X81002249Y-48401992D01*
X80929998Y-48380777D01*
X80909621Y-48367161D01*
X80909618Y-48367160D01*
X80899301Y-48360266D01*
X80825067Y-48345500D01*
X80600037Y-48345500D01*
X80374934Y-48345501D01*
X80339182Y-48352612D01*
X80312874Y-48357844D01*
X80312872Y-48357845D01*
X80300699Y-48360266D01*
X80290379Y-48367161D01*
X80290378Y-48367162D01*
X80270002Y-48380777D01*
X80202249Y-48401992D01*
X80129998Y-48380777D01*
X80109621Y-48367161D01*
X80109618Y-48367160D01*
X80099301Y-48360266D01*
X80025067Y-48345500D01*
X79800037Y-48345500D01*
X79574934Y-48345501D01*
X79539182Y-48352612D01*
X79512874Y-48357844D01*
X79512872Y-48357845D01*
X79500699Y-48360266D01*
X79490379Y-48367161D01*
X79490378Y-48367162D01*
X79470002Y-48380777D01*
X79402249Y-48401992D01*
X79329998Y-48380777D01*
X79309621Y-48367161D01*
X79309618Y-48367160D01*
X79299301Y-48360266D01*
X79225067Y-48345500D01*
X79000037Y-48345500D01*
X78774934Y-48345501D01*
X78739182Y-48352612D01*
X78712874Y-48357844D01*
X78712872Y-48357845D01*
X78700699Y-48360266D01*
X78690379Y-48367161D01*
X78690378Y-48367162D01*
X78670002Y-48380777D01*
X78602249Y-48401992D01*
X78529998Y-48380777D01*
X78509621Y-48367161D01*
X78509618Y-48367160D01*
X78499301Y-48360266D01*
X78425067Y-48345500D01*
X78200037Y-48345500D01*
X77974934Y-48345501D01*
X77939182Y-48352612D01*
X77912874Y-48357844D01*
X77912872Y-48357845D01*
X77900699Y-48360266D01*
X77890379Y-48367161D01*
X77890378Y-48367162D01*
X77870002Y-48380777D01*
X77802249Y-48401992D01*
X77729998Y-48380777D01*
X77709621Y-48367161D01*
X77709618Y-48367160D01*
X77699301Y-48360266D01*
X77625067Y-48345500D01*
X77604949Y-48345500D01*
X77307175Y-48345501D01*
X77239056Y-48325499D01*
X77206350Y-48295066D01*
X77168285Y-48244276D01*
X77155724Y-48231715D01*
X77053649Y-48155214D01*
X77038054Y-48146676D01*
X76917606Y-48101522D01*
X76902351Y-48097895D01*
X76851486Y-48092369D01*
X76844672Y-48092000D01*
X76818115Y-48092000D01*
X76802876Y-48096475D01*
X76801671Y-48097865D01*
X76800000Y-48105548D01*
X76800000Y-49074000D01*
X76779998Y-49142121D01*
X76726342Y-49188614D01*
X76674000Y-49200000D01*
X76526000Y-49200000D01*
X76457879Y-49179998D01*
X76411386Y-49126342D01*
X76400000Y-49074000D01*
X76400000Y-48110116D01*
X76395525Y-48094877D01*
X76394135Y-48093672D01*
X76386452Y-48092001D01*
X76355331Y-48092001D01*
X76348510Y-48092371D01*
X76297648Y-48097895D01*
X76282396Y-48101521D01*
X76161946Y-48146676D01*
X76146351Y-48155214D01*
X76044276Y-48231715D01*
X76031719Y-48244272D01*
X75993652Y-48295065D01*
X75936792Y-48337580D01*
X75892825Y-48345500D01*
X75595059Y-48345501D01*
X75574934Y-48345501D01*
X75539182Y-48352612D01*
X75512874Y-48357844D01*
X75512872Y-48357845D01*
X75500699Y-48360266D01*
X75490379Y-48367161D01*
X75490378Y-48367162D01*
X75470002Y-48380777D01*
X75402249Y-48401992D01*
X75329998Y-48380777D01*
X75309621Y-48367161D01*
X75309618Y-48367160D01*
X75299301Y-48360266D01*
X75225067Y-48345500D01*
X75203802Y-48345500D01*
X74899712Y-48345501D01*
X74831593Y-48325499D01*
X74817201Y-48314726D01*
X74802135Y-48301671D01*
X74794452Y-48300000D01*
X74122115Y-48300000D01*
X74106876Y-48304475D01*
X74105671Y-48305865D01*
X74104000Y-48313548D01*
X74104000Y-49178000D01*
X74083998Y-49246121D01*
X74030342Y-49292614D01*
X73978000Y-49304000D01*
X73722000Y-49304000D01*
X73653879Y-49283998D01*
X73607386Y-49230342D01*
X73596000Y-49178000D01*
X73596000Y-48271540D01*
X73616002Y-48203419D01*
X73669658Y-48156926D01*
X73686503Y-48150644D01*
X73697124Y-48147526D01*
X73698329Y-48146135D01*
X73700000Y-48138452D01*
X73700000Y-48026000D01*
X73720002Y-47957879D01*
X73773658Y-47911386D01*
X73826000Y-47900000D01*
X74789884Y-47900000D01*
X74805123Y-47895525D01*
X74806328Y-47894135D01*
X74807999Y-47886452D01*
X74807999Y-47855331D01*
X74807629Y-47848510D01*
X74802105Y-47797648D01*
X74798479Y-47782396D01*
X74753324Y-47661946D01*
X74744786Y-47646351D01*
X74668285Y-47544276D01*
X74655728Y-47531719D01*
X74604935Y-47493652D01*
X74562420Y-47436792D01*
X74554500Y-47392825D01*
X74554499Y-47081123D01*
X74554499Y-47074934D01*
X74542652Y-47015368D01*
X74542156Y-47012874D01*
X74542155Y-47012872D01*
X74539734Y-47000699D01*
X74527182Y-46981913D01*
X74519223Y-46970002D01*
X74498008Y-46902249D01*
X74519223Y-46829998D01*
X74526125Y-46819669D01*
X76617001Y-46819669D01*
X76617371Y-46826490D01*
X76622895Y-46877352D01*
X76626521Y-46892604D01*
X76671676Y-47013054D01*
X76680214Y-47028649D01*
X76756715Y-47130724D01*
X76769276Y-47143285D01*
X76871351Y-47219786D01*
X76886946Y-47228324D01*
X77007394Y-47273478D01*
X77022649Y-47277105D01*
X77073514Y-47282631D01*
X77080328Y-47283000D01*
X77577885Y-47283000D01*
X77593124Y-47278525D01*
X77594329Y-47277135D01*
X77596000Y-47269452D01*
X77596000Y-47264884D01*
X78104000Y-47264884D01*
X78108475Y-47280123D01*
X78109865Y-47281328D01*
X78117548Y-47282999D01*
X78619669Y-47282999D01*
X78626490Y-47282629D01*
X78677352Y-47277105D01*
X78692604Y-47273479D01*
X78780770Y-47240427D01*
X78851578Y-47235244D01*
X78869230Y-47240427D01*
X78957394Y-47273478D01*
X78972649Y-47277105D01*
X79023514Y-47282631D01*
X79030328Y-47283000D01*
X79527885Y-47283000D01*
X79543124Y-47278525D01*
X79544329Y-47277135D01*
X79546000Y-47269452D01*
X79546000Y-47264884D01*
X80054000Y-47264884D01*
X80058475Y-47280123D01*
X80059865Y-47281328D01*
X80067548Y-47282999D01*
X80569669Y-47282999D01*
X80576490Y-47282629D01*
X80627352Y-47277105D01*
X80642604Y-47273479D01*
X80730770Y-47240427D01*
X80801578Y-47235244D01*
X80819230Y-47240427D01*
X80907394Y-47273478D01*
X80922649Y-47277105D01*
X80973514Y-47282631D01*
X80980328Y-47283000D01*
X81477885Y-47283000D01*
X81493124Y-47278525D01*
X81494329Y-47277135D01*
X81496000Y-47269452D01*
X81496000Y-47264884D01*
X82004000Y-47264884D01*
X82008475Y-47280123D01*
X82009865Y-47281328D01*
X82017548Y-47282999D01*
X82519669Y-47282999D01*
X82526490Y-47282629D01*
X82577352Y-47277105D01*
X82592604Y-47273479D01*
X82713054Y-47228324D01*
X82728649Y-47219786D01*
X82830724Y-47143285D01*
X82843285Y-47130724D01*
X82919786Y-47028649D01*
X82928324Y-47013054D01*
X82973478Y-46892606D01*
X82977105Y-46877351D01*
X82982631Y-46826486D01*
X82983000Y-46819672D01*
X82983000Y-46322115D01*
X82978525Y-46306876D01*
X82977135Y-46305671D01*
X82969452Y-46304000D01*
X82022115Y-46304000D01*
X82006876Y-46308475D01*
X82005671Y-46309865D01*
X82004000Y-46317548D01*
X82004000Y-47264884D01*
X81496000Y-47264884D01*
X81496000Y-46322115D01*
X81491525Y-46306876D01*
X81490135Y-46305671D01*
X81482452Y-46304000D01*
X80072115Y-46304000D01*
X80056876Y-46308475D01*
X80055671Y-46309865D01*
X80054000Y-46317548D01*
X80054000Y-47264884D01*
X79546000Y-47264884D01*
X79546000Y-46322115D01*
X79541525Y-46306876D01*
X79540135Y-46305671D01*
X79532452Y-46304000D01*
X78122115Y-46304000D01*
X78106876Y-46308475D01*
X78105671Y-46309865D01*
X78104000Y-46317548D01*
X78104000Y-47264884D01*
X77596000Y-47264884D01*
X77596000Y-46322115D01*
X77591525Y-46306876D01*
X77590135Y-46305671D01*
X77582452Y-46304000D01*
X76635116Y-46304000D01*
X76619877Y-46308475D01*
X76618672Y-46309865D01*
X76617001Y-46317548D01*
X76617001Y-46819669D01*
X74526125Y-46819669D01*
X74532839Y-46809621D01*
X74532840Y-46809618D01*
X74539734Y-46799301D01*
X74554500Y-46725067D01*
X74554499Y-46529535D01*
X74574501Y-46461416D01*
X74628156Y-46414923D01*
X74682478Y-46403552D01*
X74811318Y-46405576D01*
X74811321Y-46405576D01*
X74818916Y-46405695D01*
X74973332Y-46370329D01*
X75069196Y-46322115D01*
X75108072Y-46302563D01*
X75108075Y-46302561D01*
X75114855Y-46299151D01*
X75120626Y-46294222D01*
X75120629Y-46294220D01*
X75229536Y-46201204D01*
X75229536Y-46201203D01*
X75235314Y-46196269D01*
X75327755Y-46067624D01*
X75386842Y-45920641D01*
X75392965Y-45877615D01*
X75407159Y-45777885D01*
X76617000Y-45777885D01*
X76621475Y-45793124D01*
X76622865Y-45794329D01*
X76630548Y-45796000D01*
X77577885Y-45796000D01*
X77593124Y-45791525D01*
X77594329Y-45790135D01*
X77596000Y-45782452D01*
X77596000Y-45777885D01*
X78104000Y-45777885D01*
X78108475Y-45793124D01*
X78109865Y-45794329D01*
X78117548Y-45796000D01*
X79527885Y-45796000D01*
X79543124Y-45791525D01*
X79544329Y-45790135D01*
X79546000Y-45782452D01*
X79546000Y-45777885D01*
X80054000Y-45777885D01*
X80058475Y-45793124D01*
X80059865Y-45794329D01*
X80067548Y-45796000D01*
X81477885Y-45796000D01*
X81493124Y-45791525D01*
X81494329Y-45790135D01*
X81496000Y-45782452D01*
X81496000Y-45777885D01*
X82004000Y-45777885D01*
X82008475Y-45793124D01*
X82009865Y-45794329D01*
X82017548Y-45796000D01*
X82964884Y-45796000D01*
X82980123Y-45791525D01*
X82981328Y-45790135D01*
X82982999Y-45782452D01*
X82982999Y-45280331D01*
X82982629Y-45273510D01*
X82977105Y-45222648D01*
X82973479Y-45207396D01*
X82940427Y-45119230D01*
X82935244Y-45048422D01*
X82940427Y-45030770D01*
X82973478Y-44942606D01*
X82977105Y-44927351D01*
X82982631Y-44876486D01*
X82983000Y-44869672D01*
X82983000Y-44372115D01*
X82978525Y-44356876D01*
X82977135Y-44355671D01*
X82969452Y-44354000D01*
X82022115Y-44354000D01*
X82006876Y-44358475D01*
X82005671Y-44359865D01*
X82004000Y-44367548D01*
X82004000Y-45777885D01*
X81496000Y-45777885D01*
X81496000Y-44372115D01*
X81491525Y-44356876D01*
X81490135Y-44355671D01*
X81482452Y-44354000D01*
X80072115Y-44354000D01*
X80056876Y-44358475D01*
X80055671Y-44359865D01*
X80054000Y-44367548D01*
X80054000Y-45777885D01*
X79546000Y-45777885D01*
X79546000Y-44372115D01*
X79541525Y-44356876D01*
X79540135Y-44355671D01*
X79532452Y-44354000D01*
X78122115Y-44354000D01*
X78106876Y-44358475D01*
X78105671Y-44359865D01*
X78104000Y-44367548D01*
X78104000Y-45777885D01*
X77596000Y-45777885D01*
X77596000Y-44372115D01*
X77591525Y-44356876D01*
X77590135Y-44355671D01*
X77582452Y-44354000D01*
X76635116Y-44354000D01*
X76619877Y-44358475D01*
X76618672Y-44359865D01*
X76617001Y-44367548D01*
X76617001Y-44869669D01*
X76617371Y-44876490D01*
X76622895Y-44927352D01*
X76626521Y-44942604D01*
X76659573Y-45030770D01*
X76664756Y-45101578D01*
X76659573Y-45119230D01*
X76626522Y-45207394D01*
X76622895Y-45222649D01*
X76617369Y-45273514D01*
X76617000Y-45280328D01*
X76617000Y-45777885D01*
X75407159Y-45777885D01*
X75408581Y-45767891D01*
X75408581Y-45767888D01*
X75409162Y-45763807D01*
X75409307Y-45750000D01*
X75405914Y-45721957D01*
X75404199Y-45707793D01*
X75390276Y-45592733D01*
X75334280Y-45444546D01*
X75283272Y-45370329D01*
X75248855Y-45320251D01*
X75248854Y-45320249D01*
X75244553Y-45313992D01*
X75126275Y-45208611D01*
X75118889Y-45204700D01*
X75038673Y-45162228D01*
X74986274Y-45134484D01*
X74832633Y-45095892D01*
X74825034Y-45095852D01*
X74825033Y-45095852D01*
X74679839Y-45095091D01*
X74611825Y-45074732D01*
X74565614Y-45020834D01*
X74554500Y-44969093D01*
X74554499Y-44681123D01*
X74554499Y-44674934D01*
X74542767Y-44615946D01*
X74542156Y-44612874D01*
X74542155Y-44612872D01*
X74539734Y-44600699D01*
X74525207Y-44578957D01*
X74519223Y-44570002D01*
X74498008Y-44502249D01*
X74519223Y-44429998D01*
X74532839Y-44409621D01*
X74532840Y-44409618D01*
X74539734Y-44399301D01*
X74554500Y-44325067D01*
X74554499Y-43874934D01*
X74539734Y-43800699D01*
X74532760Y-43790261D01*
X74519223Y-43770002D01*
X74498008Y-43702249D01*
X74519223Y-43629998D01*
X74532839Y-43609621D01*
X74532840Y-43609618D01*
X74539734Y-43599301D01*
X74554500Y-43525067D01*
X74554499Y-43074934D01*
X74539734Y-43000699D01*
X74530684Y-42987154D01*
X74519223Y-42970002D01*
X74498008Y-42902249D01*
X74519223Y-42829998D01*
X74532839Y-42809621D01*
X74532840Y-42809618D01*
X74539734Y-42799301D01*
X74554500Y-42725067D01*
X74554499Y-42274934D01*
X74545577Y-42230077D01*
X74551907Y-42159364D01*
X74595463Y-42103298D01*
X74669157Y-42079500D01*
X75115697Y-42079500D01*
X75183818Y-42099502D01*
X75220279Y-42135224D01*
X75250908Y-42180805D01*
X75256527Y-42185918D01*
X75256528Y-42185919D01*
X75350638Y-42271552D01*
X75368076Y-42287419D01*
X75507293Y-42363008D01*
X75660522Y-42403207D01*
X75744477Y-42404526D01*
X75811319Y-42405576D01*
X75811322Y-42405576D01*
X75818916Y-42405695D01*
X75973332Y-42370329D01*
X76083973Y-42314683D01*
X76108072Y-42302563D01*
X76108075Y-42302561D01*
X76114855Y-42299151D01*
X76120626Y-42294222D01*
X76120629Y-42294220D01*
X76229536Y-42201204D01*
X76229536Y-42201203D01*
X76235314Y-42196269D01*
X76327755Y-42067624D01*
X76363364Y-41979044D01*
X76407331Y-41923300D01*
X76474455Y-41900175D01*
X76543427Y-41917012D01*
X76592347Y-41968465D01*
X76606271Y-42026041D01*
X76606271Y-42874005D01*
X76607892Y-42874005D01*
X76610152Y-42892009D01*
X76608796Y-42929853D01*
X76644940Y-43071538D01*
X76645352Y-43072533D01*
X76645373Y-43072583D01*
X76646546Y-43075415D01*
X76648158Y-43078367D01*
X76649620Y-43081423D01*
X76648539Y-43081940D01*
X76662573Y-43146546D01*
X76654879Y-43181750D01*
X76626522Y-43257391D01*
X76622895Y-43272649D01*
X76617369Y-43323514D01*
X76617000Y-43330328D01*
X76617000Y-43827885D01*
X76621475Y-43843124D01*
X76622865Y-43844329D01*
X76630548Y-43846000D01*
X79527885Y-43846000D01*
X79543124Y-43841525D01*
X79544329Y-43840135D01*
X79546000Y-43832452D01*
X79546000Y-43827885D01*
X80054000Y-43827885D01*
X80058475Y-43843124D01*
X80059865Y-43844329D01*
X80067548Y-43846000D01*
X81477885Y-43846000D01*
X81493124Y-43841525D01*
X81494329Y-43840135D01*
X81496000Y-43832452D01*
X81496000Y-43827885D01*
X82004000Y-43827885D01*
X82008475Y-43843124D01*
X82009865Y-43844329D01*
X82017548Y-43846000D01*
X82964884Y-43846000D01*
X82980123Y-43841525D01*
X82981328Y-43840135D01*
X82982999Y-43832452D01*
X82982999Y-43330331D01*
X82982629Y-43323510D01*
X82977105Y-43272648D01*
X82973479Y-43257396D01*
X82940427Y-43169230D01*
X82935244Y-43098422D01*
X82940427Y-43080770D01*
X82973478Y-42992606D01*
X82977105Y-42977351D01*
X82982631Y-42926486D01*
X82983000Y-42919672D01*
X82983000Y-42422115D01*
X82978525Y-42406876D01*
X82977135Y-42405671D01*
X82969452Y-42404000D01*
X82022115Y-42404000D01*
X82006876Y-42408475D01*
X82005671Y-42409865D01*
X82004000Y-42417548D01*
X82004000Y-43827885D01*
X81496000Y-43827885D01*
X81496000Y-42422115D01*
X81491525Y-42406876D01*
X81490135Y-42405671D01*
X81482452Y-42404000D01*
X80072115Y-42404000D01*
X80056876Y-42408475D01*
X80055671Y-42409865D01*
X80054000Y-42417548D01*
X80054000Y-43827885D01*
X79546000Y-43827885D01*
X79546000Y-41877885D01*
X80054000Y-41877885D01*
X80058475Y-41893124D01*
X80059865Y-41894329D01*
X80067548Y-41896000D01*
X81477885Y-41896000D01*
X81493124Y-41891525D01*
X81494329Y-41890135D01*
X81496000Y-41882452D01*
X81496000Y-41877885D01*
X82004000Y-41877885D01*
X82008475Y-41893124D01*
X82009865Y-41894329D01*
X82017548Y-41896000D01*
X82964884Y-41896000D01*
X82980123Y-41891525D01*
X82981328Y-41890135D01*
X82982999Y-41882452D01*
X82982999Y-41380331D01*
X82982629Y-41373510D01*
X82977105Y-41322648D01*
X82973479Y-41307396D01*
X82928324Y-41186946D01*
X82919786Y-41171351D01*
X82843285Y-41069276D01*
X82830724Y-41056715D01*
X82728649Y-40980214D01*
X82713054Y-40971676D01*
X82592606Y-40926522D01*
X82577351Y-40922895D01*
X82526486Y-40917369D01*
X82519672Y-40917000D01*
X82022115Y-40917000D01*
X82006876Y-40921475D01*
X82005671Y-40922865D01*
X82004000Y-40930548D01*
X82004000Y-41877885D01*
X81496000Y-41877885D01*
X81496000Y-40935116D01*
X81491525Y-40919877D01*
X81490135Y-40918672D01*
X81482452Y-40917001D01*
X80980331Y-40917001D01*
X80973510Y-40917371D01*
X80922648Y-40922895D01*
X80907396Y-40926521D01*
X80819230Y-40959573D01*
X80748422Y-40964756D01*
X80730770Y-40959573D01*
X80642606Y-40926522D01*
X80627351Y-40922895D01*
X80576486Y-40917369D01*
X80569672Y-40917000D01*
X80072115Y-40917000D01*
X80056876Y-40921475D01*
X80055671Y-40922865D01*
X80054000Y-40930548D01*
X80054000Y-41877885D01*
X79546000Y-41877885D01*
X79546000Y-40935116D01*
X79541525Y-40919877D01*
X79540135Y-40918672D01*
X79532452Y-40917001D01*
X79030331Y-40917001D01*
X79023510Y-40917371D01*
X78972648Y-40922895D01*
X78957394Y-40926522D01*
X78881531Y-40954961D01*
X78810724Y-40960144D01*
X78780904Y-40949652D01*
X78779279Y-40948838D01*
X78775415Y-40946546D01*
X78772583Y-40945373D01*
X78772533Y-40945352D01*
X78771538Y-40944940D01*
X78733699Y-40933830D01*
X78673835Y-40916252D01*
X78673831Y-40916251D01*
X78666276Y-40914033D01*
X78621950Y-40912444D01*
X78593567Y-40911427D01*
X78574005Y-40908969D01*
X78574005Y-40906271D01*
X77725995Y-40906271D01*
X77725995Y-40907892D01*
X77707991Y-40910152D01*
X77670147Y-40908796D01*
X77528462Y-40944940D01*
X77527467Y-40945352D01*
X77527417Y-40945373D01*
X77524585Y-40946546D01*
X77516056Y-40951204D01*
X77435053Y-40995440D01*
X77435051Y-40995441D01*
X77428130Y-40999221D01*
X77380738Y-41043356D01*
X77374995Y-41048704D01*
X77359408Y-41060815D01*
X77357500Y-41058907D01*
X76758907Y-41657500D01*
X76760058Y-41658651D01*
X76748932Y-41672975D01*
X76729620Y-41690960D01*
X76721123Y-41698873D01*
X76716526Y-41706622D01*
X76716525Y-41706624D01*
X76683502Y-41762297D01*
X76647164Y-41823558D01*
X76647162Y-41823560D01*
X76646525Y-41824635D01*
X76646291Y-41824496D01*
X76599353Y-41874924D01*
X76530564Y-41892491D01*
X76463198Y-41870079D01*
X76418642Y-41814804D01*
X76410503Y-41763821D01*
X76409162Y-41763807D01*
X76409264Y-41754134D01*
X76409264Y-41754128D01*
X76409307Y-41750000D01*
X76390276Y-41592733D01*
X76334280Y-41444546D01*
X76295223Y-41387717D01*
X76248855Y-41320251D01*
X76248854Y-41320249D01*
X76244553Y-41313992D01*
X76126275Y-41208611D01*
X76118889Y-41204700D01*
X76021635Y-41153207D01*
X75986274Y-41134484D01*
X75832633Y-41095892D01*
X75825034Y-41095852D01*
X75825033Y-41095852D01*
X75759181Y-41095507D01*
X75674221Y-41095062D01*
X75666841Y-41096834D01*
X75666839Y-41096834D01*
X75527563Y-41130271D01*
X75527560Y-41130272D01*
X75520184Y-41132043D01*
X75379414Y-41204700D01*
X75373695Y-41209689D01*
X75282265Y-41289449D01*
X75217783Y-41319157D01*
X75199435Y-41320500D01*
X74929700Y-41320500D01*
X74861579Y-41300498D01*
X74815086Y-41246842D01*
X74804437Y-41180894D01*
X74807631Y-41151491D01*
X74808000Y-41144672D01*
X74808000Y-41118115D01*
X74803525Y-41102876D01*
X74802135Y-41101671D01*
X74794452Y-41100000D01*
X73826000Y-41100000D01*
X73757879Y-41079998D01*
X73711386Y-41026342D01*
X73700000Y-40974000D01*
X73700000Y-40681885D01*
X74100000Y-40681885D01*
X74104475Y-40697124D01*
X74105865Y-40698329D01*
X74113548Y-40700000D01*
X74789884Y-40700000D01*
X74805123Y-40695525D01*
X74806328Y-40694135D01*
X74807999Y-40686452D01*
X74807999Y-40655331D01*
X74807629Y-40648510D01*
X74802105Y-40597648D01*
X74798479Y-40582397D01*
X74784171Y-40544230D01*
X74778988Y-40473423D01*
X74784171Y-40455770D01*
X74798478Y-40417606D01*
X74802105Y-40402351D01*
X74807631Y-40351486D01*
X74808000Y-40344672D01*
X74808000Y-40318115D01*
X74803525Y-40302876D01*
X74802135Y-40301671D01*
X74794452Y-40300000D01*
X74118115Y-40300000D01*
X74102876Y-40304475D01*
X74101671Y-40305865D01*
X74100000Y-40313548D01*
X74100000Y-40681885D01*
X73700000Y-40681885D01*
X73700000Y-40089884D01*
X75200000Y-40089884D01*
X75204475Y-40105123D01*
X75205865Y-40106328D01*
X75213548Y-40107999D01*
X75244669Y-40107999D01*
X75251490Y-40107629D01*
X75302352Y-40102105D01*
X75317603Y-40098479D01*
X75355770Y-40084171D01*
X75426577Y-40078988D01*
X75444230Y-40084171D01*
X75482394Y-40098478D01*
X75497649Y-40102105D01*
X75548514Y-40107631D01*
X75555328Y-40108000D01*
X75581885Y-40108000D01*
X75597124Y-40103525D01*
X75598329Y-40102135D01*
X75600000Y-40094452D01*
X75600000Y-40089884D01*
X76000000Y-40089884D01*
X76004475Y-40105123D01*
X76005865Y-40106328D01*
X76013548Y-40107999D01*
X76044669Y-40107999D01*
X76051490Y-40107629D01*
X76102352Y-40102105D01*
X76117603Y-40098479D01*
X76155770Y-40084171D01*
X76226577Y-40078988D01*
X76244230Y-40084171D01*
X76282394Y-40098478D01*
X76297649Y-40102105D01*
X76348514Y-40107631D01*
X76355328Y-40108000D01*
X76381885Y-40108000D01*
X76397124Y-40103525D01*
X76398329Y-40102135D01*
X76400000Y-40094452D01*
X76400000Y-40089884D01*
X76800000Y-40089884D01*
X76804475Y-40105123D01*
X76805865Y-40106328D01*
X76813548Y-40107999D01*
X76844669Y-40107999D01*
X76851490Y-40107629D01*
X76902352Y-40102105D01*
X76917603Y-40098479D01*
X76955770Y-40084171D01*
X77026577Y-40078988D01*
X77044230Y-40084171D01*
X77082394Y-40098478D01*
X77097649Y-40102105D01*
X77148514Y-40107631D01*
X77155328Y-40108000D01*
X77181885Y-40108000D01*
X77197124Y-40103525D01*
X77198329Y-40102135D01*
X77200000Y-40094452D01*
X77200000Y-40089884D01*
X77600000Y-40089884D01*
X77604475Y-40105123D01*
X77605865Y-40106328D01*
X77613548Y-40107999D01*
X77644669Y-40107999D01*
X77651490Y-40107629D01*
X77702352Y-40102105D01*
X77717603Y-40098479D01*
X77755770Y-40084171D01*
X77826577Y-40078988D01*
X77844230Y-40084171D01*
X77882394Y-40098478D01*
X77897649Y-40102105D01*
X77948514Y-40107631D01*
X77955328Y-40108000D01*
X77981885Y-40108000D01*
X77997124Y-40103525D01*
X77998329Y-40102135D01*
X78000000Y-40094452D01*
X78000000Y-40089884D01*
X78400000Y-40089884D01*
X78404475Y-40105123D01*
X78405865Y-40106328D01*
X78413548Y-40107999D01*
X78444669Y-40107999D01*
X78451490Y-40107629D01*
X78502352Y-40102105D01*
X78517603Y-40098479D01*
X78555770Y-40084171D01*
X78626577Y-40078988D01*
X78644230Y-40084171D01*
X78682394Y-40098478D01*
X78697649Y-40102105D01*
X78748514Y-40107631D01*
X78755328Y-40108000D01*
X78781885Y-40108000D01*
X78797124Y-40103525D01*
X78798329Y-40102135D01*
X78800000Y-40094452D01*
X78800000Y-40089884D01*
X79200000Y-40089884D01*
X79204475Y-40105123D01*
X79205865Y-40106328D01*
X79213548Y-40107999D01*
X79244669Y-40107999D01*
X79251490Y-40107629D01*
X79302352Y-40102105D01*
X79317603Y-40098479D01*
X79355770Y-40084171D01*
X79426577Y-40078988D01*
X79444230Y-40084171D01*
X79482394Y-40098478D01*
X79497649Y-40102105D01*
X79548514Y-40107631D01*
X79555328Y-40108000D01*
X79581885Y-40108000D01*
X79597124Y-40103525D01*
X79598329Y-40102135D01*
X79600000Y-40094452D01*
X79600000Y-40089884D01*
X80000000Y-40089884D01*
X80004475Y-40105123D01*
X80005865Y-40106328D01*
X80013548Y-40107999D01*
X80044669Y-40107999D01*
X80051490Y-40107629D01*
X80102352Y-40102105D01*
X80117603Y-40098479D01*
X80155770Y-40084171D01*
X80226577Y-40078988D01*
X80244230Y-40084171D01*
X80282394Y-40098478D01*
X80297649Y-40102105D01*
X80348514Y-40107631D01*
X80355328Y-40108000D01*
X80381885Y-40108000D01*
X80397124Y-40103525D01*
X80398329Y-40102135D01*
X80400000Y-40094452D01*
X80400000Y-40089884D01*
X80800000Y-40089884D01*
X80804475Y-40105123D01*
X80805865Y-40106328D01*
X80813548Y-40107999D01*
X80844669Y-40107999D01*
X80851490Y-40107629D01*
X80902352Y-40102105D01*
X80917603Y-40098479D01*
X80955770Y-40084171D01*
X81026577Y-40078988D01*
X81044230Y-40084171D01*
X81082394Y-40098478D01*
X81097649Y-40102105D01*
X81148514Y-40107631D01*
X81155328Y-40108000D01*
X81181885Y-40108000D01*
X81197124Y-40103525D01*
X81198329Y-40102135D01*
X81200000Y-40094452D01*
X81200000Y-40089884D01*
X81600000Y-40089884D01*
X81604475Y-40105123D01*
X81605865Y-40106328D01*
X81613548Y-40107999D01*
X81644669Y-40107999D01*
X81651490Y-40107629D01*
X81702352Y-40102105D01*
X81717603Y-40098479D01*
X81755770Y-40084171D01*
X81826577Y-40078988D01*
X81844230Y-40084171D01*
X81882394Y-40098478D01*
X81897649Y-40102105D01*
X81948514Y-40107631D01*
X81955328Y-40108000D01*
X81981885Y-40108000D01*
X81997124Y-40103525D01*
X81998329Y-40102135D01*
X82000000Y-40094452D01*
X82000000Y-40089884D01*
X82400000Y-40089884D01*
X82404475Y-40105123D01*
X82405865Y-40106328D01*
X82413548Y-40107999D01*
X82444669Y-40107999D01*
X82451490Y-40107629D01*
X82502352Y-40102105D01*
X82517603Y-40098479D01*
X82555770Y-40084171D01*
X82626577Y-40078988D01*
X82644230Y-40084171D01*
X82682394Y-40098478D01*
X82697649Y-40102105D01*
X82748514Y-40107631D01*
X82755328Y-40108000D01*
X82781885Y-40108000D01*
X82797124Y-40103525D01*
X82798329Y-40102135D01*
X82800000Y-40094452D01*
X82800000Y-40089884D01*
X83200000Y-40089884D01*
X83204475Y-40105123D01*
X83205865Y-40106328D01*
X83213548Y-40107999D01*
X83244669Y-40107999D01*
X83251490Y-40107629D01*
X83302352Y-40102105D01*
X83317603Y-40098479D01*
X83355770Y-40084171D01*
X83426577Y-40078988D01*
X83444230Y-40084171D01*
X83482394Y-40098478D01*
X83497649Y-40102105D01*
X83548514Y-40107631D01*
X83555328Y-40108000D01*
X83581885Y-40108000D01*
X83597124Y-40103525D01*
X83598329Y-40102135D01*
X83600000Y-40094452D01*
X83600000Y-40089884D01*
X84000000Y-40089884D01*
X84004475Y-40105123D01*
X84005865Y-40106328D01*
X84013548Y-40107999D01*
X84044669Y-40107999D01*
X84051490Y-40107629D01*
X84102352Y-40102105D01*
X84117603Y-40098479D01*
X84155770Y-40084171D01*
X84226577Y-40078988D01*
X84244230Y-40084171D01*
X84282394Y-40098478D01*
X84297649Y-40102105D01*
X84348514Y-40107631D01*
X84355328Y-40108000D01*
X84381885Y-40108000D01*
X84397124Y-40103525D01*
X84398329Y-40102135D01*
X84400000Y-40094452D01*
X84400000Y-39418115D01*
X84395525Y-39402876D01*
X84394135Y-39401671D01*
X84386452Y-39400000D01*
X84018115Y-39400000D01*
X84002876Y-39404475D01*
X84001671Y-39405865D01*
X84000000Y-39413548D01*
X84000000Y-40089884D01*
X83600000Y-40089884D01*
X83600000Y-39418115D01*
X83595525Y-39402876D01*
X83594135Y-39401671D01*
X83586452Y-39400000D01*
X83218115Y-39400000D01*
X83202876Y-39404475D01*
X83201671Y-39405865D01*
X83200000Y-39413548D01*
X83200000Y-40089884D01*
X82800000Y-40089884D01*
X82800000Y-39418115D01*
X82795525Y-39402876D01*
X82794135Y-39401671D01*
X82786452Y-39400000D01*
X82418115Y-39400000D01*
X82402876Y-39404475D01*
X82401671Y-39405865D01*
X82400000Y-39413548D01*
X82400000Y-40089884D01*
X82000000Y-40089884D01*
X82000000Y-39418115D01*
X81995525Y-39402876D01*
X81994135Y-39401671D01*
X81986452Y-39400000D01*
X81618115Y-39400000D01*
X81602876Y-39404475D01*
X81601671Y-39405865D01*
X81600000Y-39413548D01*
X81600000Y-40089884D01*
X81200000Y-40089884D01*
X81200000Y-39418115D01*
X81195525Y-39402876D01*
X81194135Y-39401671D01*
X81186452Y-39400000D01*
X80818115Y-39400000D01*
X80802876Y-39404475D01*
X80801671Y-39405865D01*
X80800000Y-39413548D01*
X80800000Y-40089884D01*
X80400000Y-40089884D01*
X80400000Y-39418115D01*
X80395525Y-39402876D01*
X80394135Y-39401671D01*
X80386452Y-39400000D01*
X80018115Y-39400000D01*
X80002876Y-39404475D01*
X80001671Y-39405865D01*
X80000000Y-39413548D01*
X80000000Y-40089884D01*
X79600000Y-40089884D01*
X79600000Y-39418115D01*
X79595525Y-39402876D01*
X79594135Y-39401671D01*
X79586452Y-39400000D01*
X79218115Y-39400000D01*
X79202876Y-39404475D01*
X79201671Y-39405865D01*
X79200000Y-39413548D01*
X79200000Y-40089884D01*
X78800000Y-40089884D01*
X78800000Y-39418115D01*
X78795525Y-39402876D01*
X78794135Y-39401671D01*
X78786452Y-39400000D01*
X78418115Y-39400000D01*
X78402876Y-39404475D01*
X78401671Y-39405865D01*
X78400000Y-39413548D01*
X78400000Y-40089884D01*
X78000000Y-40089884D01*
X78000000Y-39418115D01*
X77995525Y-39402876D01*
X77994135Y-39401671D01*
X77986452Y-39400000D01*
X77618115Y-39400000D01*
X77602876Y-39404475D01*
X77601671Y-39405865D01*
X77600000Y-39413548D01*
X77600000Y-40089884D01*
X77200000Y-40089884D01*
X77200000Y-39418115D01*
X77195525Y-39402876D01*
X77194135Y-39401671D01*
X77186452Y-39400000D01*
X76818115Y-39400000D01*
X76802876Y-39404475D01*
X76801671Y-39405865D01*
X76800000Y-39413548D01*
X76800000Y-40089884D01*
X76400000Y-40089884D01*
X76400000Y-39418115D01*
X76395525Y-39402876D01*
X76394135Y-39401671D01*
X76386452Y-39400000D01*
X76018115Y-39400000D01*
X76002876Y-39404475D01*
X76001671Y-39405865D01*
X76000000Y-39413548D01*
X76000000Y-40089884D01*
X75600000Y-40089884D01*
X75600000Y-39418115D01*
X75595525Y-39402876D01*
X75594135Y-39401671D01*
X75586452Y-39400000D01*
X75218115Y-39400000D01*
X75202876Y-39404475D01*
X75201671Y-39405865D01*
X75200000Y-39413548D01*
X75200000Y-40089884D01*
X73700000Y-40089884D01*
X73700000Y-40066115D01*
X73695525Y-40050876D01*
X73693024Y-40048708D01*
X73632906Y-40015883D01*
X73598880Y-39953571D01*
X73596000Y-39926786D01*
X73596000Y-39881885D01*
X74104000Y-39881885D01*
X74108475Y-39897124D01*
X74109865Y-39898329D01*
X74117548Y-39900000D01*
X74781885Y-39900000D01*
X74797124Y-39895525D01*
X74798329Y-39894135D01*
X74800000Y-39886452D01*
X74800000Y-39418115D01*
X74795525Y-39402876D01*
X74794135Y-39401671D01*
X74786452Y-39400000D01*
X74762197Y-39400000D01*
X74734377Y-39404000D01*
X74122115Y-39404000D01*
X74106876Y-39408475D01*
X74105671Y-39409865D01*
X74104000Y-39417548D01*
X74104000Y-39881885D01*
X73596000Y-39881885D01*
X73596000Y-39022000D01*
X73616002Y-38953879D01*
X73669658Y-38907386D01*
X73722000Y-38896000D01*
X74628460Y-38896000D01*
X74696581Y-38916002D01*
G37*
%TD.AperFunction*%
%TA.AperFunction,Conductor*%
G36*
X95941712Y-41690960D02*
G01*
X95973351Y-41712002D01*
X95991354Y-41728383D01*
X96130571Y-41803972D01*
X96171860Y-41814804D01*
X96194288Y-41820688D01*
X96255103Y-41857322D01*
X96286458Y-41921019D01*
X96278399Y-41991557D01*
X96265076Y-42015475D01*
X96137543Y-42195216D01*
X96135830Y-42198315D01*
X96135829Y-42198317D01*
X96057407Y-42340213D01*
X96024178Y-42400336D01*
X95934491Y-42616858D01*
X95869611Y-42842061D01*
X95830354Y-43073112D01*
X95828488Y-43106333D01*
X95820935Y-43240827D01*
X95820755Y-43243348D01*
X95820735Y-43243815D01*
X95820500Y-43246522D01*
X95820500Y-43247242D01*
X95820054Y-43248548D01*
X95820500Y-43248573D01*
X95818800Y-43278852D01*
X95818363Y-43286627D01*
X95817320Y-43296376D01*
X95817320Y-43297313D01*
X95815769Y-43307106D01*
X95818367Y-43323510D01*
X95818949Y-43327183D01*
X95820500Y-43346894D01*
X95820500Y-45103697D01*
X95800498Y-45171818D01*
X95746842Y-45218311D01*
X95676568Y-45228415D01*
X95626279Y-45208614D01*
X95626275Y-45208611D01*
X95486274Y-45134484D01*
X95332633Y-45095892D01*
X95325034Y-45095852D01*
X95325033Y-45095852D01*
X95260052Y-45095512D01*
X95174221Y-45095062D01*
X95173938Y-45095130D01*
X95107037Y-45083616D01*
X95054687Y-45035658D01*
X95036575Y-44967011D01*
X95041530Y-44935339D01*
X95049939Y-44906395D01*
X95049899Y-44892294D01*
X95042630Y-44889000D01*
X93547000Y-44889000D01*
X93478879Y-44868998D01*
X93432386Y-44815342D01*
X93421000Y-44763000D01*
X93421000Y-44507000D01*
X93441002Y-44438879D01*
X93494658Y-44392386D01*
X93547000Y-44381000D01*
X95036878Y-44381000D01*
X95050409Y-44377027D01*
X95051544Y-44369129D01*
X95010893Y-44229210D01*
X95004648Y-44214779D01*
X94928089Y-44085322D01*
X94918449Y-44072896D01*
X94812104Y-43966551D01*
X94799677Y-43956911D01*
X94767475Y-43937867D01*
X94719022Y-43885974D01*
X94706317Y-43816123D01*
X94728418Y-43758631D01*
X94731326Y-43755723D01*
X94741378Y-43735996D01*
X94771383Y-43677107D01*
X94789498Y-43641555D01*
X94804500Y-43546834D01*
X94804500Y-43183166D01*
X94789498Y-43088445D01*
X94731326Y-42974277D01*
X94640723Y-42883674D01*
X94559458Y-42842267D01*
X94507843Y-42793518D01*
X94490777Y-42724603D01*
X94513678Y-42657402D01*
X94559458Y-42617733D01*
X94567589Y-42613590D01*
X94640723Y-42576326D01*
X94731326Y-42485723D01*
X94789498Y-42371555D01*
X94804500Y-42276834D01*
X94804500Y-41913166D01*
X94799241Y-41879962D01*
X94808340Y-41809553D01*
X94854062Y-41755239D01*
X94921890Y-41734266D01*
X94989581Y-41753096D01*
X94992219Y-41755496D01*
X95131436Y-41831085D01*
X95284665Y-41871284D01*
X95368620Y-41872603D01*
X95435462Y-41873653D01*
X95435465Y-41873653D01*
X95443059Y-41873772D01*
X95597475Y-41838406D01*
X95684954Y-41794409D01*
X95732215Y-41770640D01*
X95732218Y-41770638D01*
X95738998Y-41767228D01*
X95744769Y-41762299D01*
X95744772Y-41762297D01*
X95806722Y-41709386D01*
X95871512Y-41680355D01*
X95941712Y-41690960D01*
G37*
%TD.AperFunction*%
%TA.AperFunction,Conductor*%
G36*
X92518022Y-39555679D02*
G01*
X92532419Y-39563991D01*
X92655941Y-39615156D01*
X92671758Y-39619394D01*
X92771019Y-39632462D01*
X92779228Y-39633000D01*
X93341000Y-39633000D01*
X93409121Y-39653002D01*
X93455614Y-39706658D01*
X93467000Y-39759000D01*
X93467000Y-40320772D01*
X93467538Y-40328981D01*
X93480606Y-40428242D01*
X93484844Y-40444060D01*
X93536009Y-40567582D01*
X93544196Y-40581763D01*
X93625587Y-40687835D01*
X93637167Y-40699414D01*
X93743235Y-40780802D01*
X93757421Y-40788992D01*
X93880941Y-40840156D01*
X93896758Y-40844394D01*
X93996019Y-40857462D01*
X94004228Y-40858000D01*
X94195772Y-40858000D01*
X94203981Y-40857462D01*
X94303242Y-40844394D01*
X94319060Y-40840156D01*
X94442582Y-40788991D01*
X94456763Y-40780804D01*
X94561217Y-40700654D01*
X94627437Y-40675054D01*
X94696986Y-40689319D01*
X94747782Y-40738920D01*
X94760439Y-40771202D01*
X94783772Y-40868389D01*
X94778647Y-40943574D01*
X94739407Y-41044220D01*
X94735549Y-41054114D01*
X94734557Y-41061647D01*
X94734557Y-41061648D01*
X94718038Y-41187126D01*
X94714872Y-41211173D01*
X94722938Y-41284231D01*
X94729591Y-41344490D01*
X94732256Y-41368630D01*
X94734866Y-41375763D01*
X94734867Y-41375766D01*
X94753252Y-41426007D01*
X94757878Y-41496853D01*
X94723468Y-41558953D01*
X94660946Y-41592591D01*
X94590163Y-41587087D01*
X94577722Y-41581573D01*
X94535391Y-41560004D01*
X94535390Y-41560004D01*
X94526555Y-41555502D01*
X94431834Y-41540500D01*
X92918166Y-41540500D01*
X92823445Y-41555502D01*
X92709277Y-41613674D01*
X92618674Y-41704277D01*
X92560502Y-41818445D01*
X92545500Y-41913166D01*
X92545500Y-42276834D01*
X92560502Y-42371555D01*
X92618674Y-42485723D01*
X92709277Y-42576326D01*
X92782411Y-42613590D01*
X92790542Y-42617733D01*
X92842157Y-42666482D01*
X92859223Y-42735397D01*
X92836322Y-42802598D01*
X92790542Y-42842267D01*
X92709277Y-42883674D01*
X92639823Y-42953128D01*
X92577511Y-42987154D01*
X92558969Y-42989763D01*
X92524421Y-42992028D01*
X92457890Y-42996388D01*
X92453840Y-42997194D01*
X92453837Y-42997194D01*
X92244149Y-43038904D01*
X92244143Y-43038906D01*
X92240099Y-43039710D01*
X92236190Y-43041037D01*
X92236186Y-43041038D01*
X92033732Y-43109762D01*
X92029826Y-43111088D01*
X91981224Y-43135056D01*
X91834373Y-43207474D01*
X91834368Y-43207477D01*
X91830669Y-43209301D01*
X91797913Y-43231188D01*
X91649465Y-43330377D01*
X91649460Y-43330381D01*
X91646034Y-43332670D01*
X91642940Y-43335384D01*
X91642934Y-43335388D01*
X91531868Y-43432791D01*
X91528722Y-43435166D01*
X91528768Y-43435220D01*
X91524492Y-43438814D01*
X91522550Y-43440756D01*
X91520568Y-43442574D01*
X91520548Y-43442552D01*
X91517777Y-43445148D01*
X91492316Y-43467477D01*
X91487418Y-43471391D01*
X91486328Y-43472481D01*
X91478308Y-43478308D01*
X91472481Y-43486328D01*
X91466360Y-43494753D01*
X91453519Y-43509787D01*
X91346759Y-43616547D01*
X91284447Y-43650573D01*
X91213632Y-43645508D01*
X91156796Y-43602961D01*
X91133215Y-43547163D01*
X91130562Y-43530413D01*
X91129011Y-43510702D01*
X91129011Y-41242674D01*
X91149013Y-41174553D01*
X91202669Y-41128060D01*
X91272943Y-41117956D01*
X91286984Y-41120798D01*
X91403171Y-41151279D01*
X91403175Y-41151280D01*
X91410522Y-41153207D01*
X91494477Y-41154526D01*
X91561319Y-41155576D01*
X91561322Y-41155576D01*
X91568916Y-41155695D01*
X91723332Y-41120329D01*
X91800373Y-41081582D01*
X91858072Y-41052563D01*
X91858075Y-41052561D01*
X91864855Y-41049151D01*
X91870626Y-41044222D01*
X91870629Y-41044220D01*
X91979536Y-40951204D01*
X91979536Y-40951203D01*
X91985314Y-40946269D01*
X92077755Y-40817624D01*
X92136842Y-40670641D01*
X92140014Y-40648355D01*
X92147259Y-40597446D01*
X92174603Y-40535265D01*
X92177063Y-40532267D01*
X92192640Y-40513287D01*
X92269621Y-40369267D01*
X92284358Y-40320685D01*
X92315229Y-40218918D01*
X92315230Y-40218914D01*
X92317025Y-40212996D01*
X92324964Y-40132389D01*
X92326537Y-40122328D01*
X92328538Y-40116629D01*
X92329020Y-40111064D01*
X92329020Y-40097390D01*
X92329627Y-40085042D01*
X92331483Y-40066195D01*
X92332199Y-40060611D01*
X92332199Y-40060277D01*
X92333751Y-40050479D01*
X92330571Y-40030401D01*
X92329020Y-40010691D01*
X92329020Y-39664797D01*
X92349022Y-39596676D01*
X92402678Y-39550183D01*
X92472952Y-39540079D01*
X92518022Y-39555679D01*
G37*
%TD.AperFunction*%
%TA.AperFunction,Conductor*%
G36*
X92671121Y-33766002D02*
G01*
X92717614Y-33819658D01*
X92729000Y-33872000D01*
X92729000Y-34563153D01*
X92706086Y-34635604D01*
X92673322Y-34682222D01*
X92673319Y-34682227D01*
X92668950Y-34688444D01*
X92611406Y-34836037D01*
X92610414Y-34843570D01*
X92610414Y-34843571D01*
X92593328Y-34973358D01*
X92590729Y-34993096D01*
X92608113Y-35150553D01*
X92610723Y-35157684D01*
X92610723Y-35157686D01*
X92621532Y-35187222D01*
X92662553Y-35299319D01*
X92666789Y-35305622D01*
X92666789Y-35305623D01*
X92727386Y-35395800D01*
X92750908Y-35430805D01*
X92756527Y-35435918D01*
X92756528Y-35435919D01*
X92844675Y-35516126D01*
X92868076Y-35537419D01*
X93007293Y-35613008D01*
X93160522Y-35653207D01*
X93244477Y-35654526D01*
X93311319Y-35655576D01*
X93311322Y-35655576D01*
X93318916Y-35655695D01*
X93473332Y-35620329D01*
X93537886Y-35587862D01*
X93607731Y-35575124D01*
X93673374Y-35602168D01*
X93713976Y-35660409D01*
X93720500Y-35700427D01*
X93720500Y-36168654D01*
X93700498Y-36236775D01*
X93646842Y-36283268D01*
X93638728Y-36286637D01*
X93611937Y-36296680D01*
X93596356Y-36305210D01*
X93494276Y-36381715D01*
X93481715Y-36394276D01*
X93405210Y-36496356D01*
X93396680Y-36511937D01*
X93386637Y-36538728D01*
X93343996Y-36595493D01*
X93277435Y-36620194D01*
X93268654Y-36620500D01*
X92842460Y-36620500D01*
X92822749Y-36618949D01*
X92812466Y-36617320D01*
X92812465Y-36617320D01*
X92802672Y-36615769D01*
X92792875Y-36617321D01*
X92791811Y-36617321D01*
X92786212Y-36617984D01*
X92609247Y-36631911D01*
X92604440Y-36633065D01*
X92604434Y-36633066D01*
X92486604Y-36661355D01*
X92420584Y-36677205D01*
X92416017Y-36679097D01*
X92416010Y-36679099D01*
X92245903Y-36749559D01*
X92245899Y-36749561D01*
X92241329Y-36751454D01*
X92075897Y-36852831D01*
X91994896Y-36922013D01*
X91961831Y-36950253D01*
X91897041Y-36979284D01*
X91826841Y-36968679D01*
X91773519Y-36921804D01*
X91754000Y-36854442D01*
X91754000Y-35029838D01*
X91774002Y-34961717D01*
X91827658Y-34915224D01*
X91897932Y-34905120D01*
X91933252Y-34915644D01*
X91945061Y-34921151D01*
X92093814Y-34970491D01*
X92107190Y-34973358D01*
X92198097Y-34982672D01*
X92203126Y-34982929D01*
X92218124Y-34978525D01*
X92219329Y-34977135D01*
X92221000Y-34969452D01*
X92221000Y-33872000D01*
X92241002Y-33803879D01*
X92294658Y-33757386D01*
X92347000Y-33746000D01*
X92603000Y-33746000D01*
X92671121Y-33766002D01*
G37*
%TD.AperFunction*%
%TD*%
M02*
