%TF.GenerationSoftware,KiCad,Pcbnew,(6.0.2-0)*%
%TF.CreationDate,2022-02-18T15:09:58+00:00*%
%TF.ProjectId,Bell,42656c6c-2e6b-4696-9361-645f70636258,2*%
%TF.SameCoordinates,Original*%
%TF.FileFunction,Copper,L1,Top*%
%TF.FilePolarity,Positive*%
%FSLAX46Y46*%
G04 Gerber Fmt 4.6, Leading zero omitted, Abs format (unit mm)*
G04 Created by KiCad (PCBNEW (6.0.2-0)) date 2022-02-18 15:09:58*
%MOMM*%
%LPD*%
G01*
G04 APERTURE LIST*
G04 Aperture macros list*
%AMRoundRect*
0 Rectangle with rounded corners*
0 $1 Rounding radius*
0 $2 $3 $4 $5 $6 $7 $8 $9 X,Y pos of 4 corners*
0 Add a 4 corners polygon primitive as box body*
4,1,4,$2,$3,$4,$5,$6,$7,$8,$9,$2,$3,0*
0 Add four circle primitives for the rounded corners*
1,1,$1+$1,$2,$3*
1,1,$1+$1,$4,$5*
1,1,$1+$1,$6,$7*
1,1,$1+$1,$8,$9*
0 Add four rect primitives between the rounded corners*
20,1,$1+$1,$2,$3,$4,$5,0*
20,1,$1+$1,$4,$5,$6,$7,0*
20,1,$1+$1,$6,$7,$8,$9,0*
20,1,$1+$1,$8,$9,$2,$3,0*%
%AMFreePoly0*
4,1,137,3.383385,4.221938,3.559722,4.168447,3.722236,4.081581,3.864680,3.964680,3.981581,3.822236,4.068447,3.659722,4.121938,3.483385,4.125210,3.450161,4.182771,3.539516,4.186818,3.554319,4.232803,3.599839,4.295387,3.616268,4.357802,3.599205,4.403322,3.553220,4.419751,3.490636,4.402688,3.428221,4.402683,3.428217,4.172250,3.069125,4.056972,2.918810,3.981581,2.777764,
3.864680,2.635320,3.750000,2.541204,3.750000,0.022998,4.066622,-0.229500,4.408388,-0.546612,4.440741,-0.602648,4.440741,-0.667352,4.408388,-0.723388,4.352352,-0.755741,4.287648,-0.755741,4.231612,-0.723388,4.223835,-0.709917,3.889557,-0.400914,3.520257,-0.109782,3.483168,-0.085000,2.500000,-0.085000,2.500000,-1.185000,3.750000,-1.185000,3.750000,-2.745000,-3.750000,-2.745000,
-3.750000,-1.185000,-2.500000,-1.185000,-2.500000,-0.085000,-3.483168,-0.085000,-3.520257,-0.109782,-3.889557,-0.400914,-4.223835,-0.709917,-4.231612,-0.723388,-4.287648,-0.755741,-4.352352,-0.755741,-4.408388,-0.723388,-4.440741,-0.667352,-4.440741,-0.602648,-4.408388,-0.546612,-4.066622,-0.229500,-3.750000,0.022998,-3.750000,2.541204,-3.864680,2.635320,-3.981581,2.777764,-4.057035,2.918929,
-4.196742,3.104304,-4.424150,3.465322,-4.424153,3.465325,-4.440691,3.527880,-4.423736,3.590324,-4.377831,3.635925,-4.315276,3.652463,-4.252832,3.635508,-4.207231,3.589603,-4.203309,3.574768,-4.125116,3.451113,-4.121938,3.483385,-4.068447,3.659722,-3.981581,3.822236,-3.864680,3.964680,-3.722236,4.081581,-3.559722,4.168447,-3.383385,4.221938,-3.200000,4.240000,-3.137500,4.223253,
-3.091747,4.177500,-3.075000,4.115000,-3.091747,4.052500,-3.137500,4.006747,-3.200000,3.990000,-3.211471,3.993074,-3.354511,3.976957,-3.501274,3.925602,-3.632930,3.842877,-3.742877,3.732930,-3.825602,3.601274,-3.876957,3.454511,-3.894366,3.300000,-3.876957,3.145489,-3.839596,3.038718,-3.728752,2.893230,-3.593879,2.745000,-2.998152,2.745000,-3.015000,3.045000,-2.998253,3.107500,
-2.952500,3.153253,-2.890000,3.170000,-2.827500,3.153253,-2.781747,3.107500,-2.765000,3.045000,-2.768849,3.030634,-2.752213,2.745000,2.752213,2.745000,2.768849,3.030634,2.765000,3.045000,2.781747,3.107500,2.827500,3.153253,2.890000,3.170000,2.952500,3.153253,2.998253,3.107500,3.015000,3.045000,2.998152,2.745000,3.594239,2.745000,3.702502,2.861993,3.839668,3.038924,
3.876957,3.145489,3.894366,3.300000,3.876957,3.454511,3.825602,3.601274,3.742877,3.732930,3.632930,3.842877,3.501274,3.925602,3.354511,3.976957,3.211471,3.993074,3.200000,3.990000,3.137500,4.006747,3.091747,4.052500,3.075000,4.115000,3.091747,4.177500,3.137500,4.223253,3.200000,4.240000,3.383385,4.221938,3.383385,4.221938,$1*%
%AMFreePoly1*
4,1,6,1.000000,-1.000000,-1.000000,-1.000000,-1.000000,0.750000,-0.750000,1.000000,1.000000,1.000000,1.000000,-1.000000,1.000000,-1.000000,$1*%
%AMFreePoly2*
4,1,43,1.102950,0.110584,1.224483,0.068057,1.333507,-0.000447,1.424553,-0.091493,1.493057,-0.200517,1.535584,-0.322050,1.550000,-0.450000,1.533253,-0.512500,1.487500,-0.558253,1.425000,-0.575000,1.362500,-0.558253,1.316747,-0.512500,1.300000,-0.450000,1.302546,-0.440498,1.287946,-0.348318,1.241208,-0.256589,1.168411,-0.183792,1.076682,-0.137054,0.984502,-0.122454,0.975000,-0.125000,
-0.975000,-0.125000,-0.984502,-0.122454,-1.076682,-0.137054,-1.168411,-0.183792,-1.241208,-0.256589,-1.287946,-0.348318,-1.302546,-0.440498,-1.300000,-0.450000,-1.316747,-0.512500,-1.362500,-0.558253,-1.425000,-0.575000,-1.487500,-0.558253,-1.533253,-0.512500,-1.550000,-0.450000,-1.535584,-0.322050,-1.493057,-0.200517,-1.424553,-0.091493,-1.333507,-0.000447,-1.224483,0.068057,-1.102950,0.110584,
-0.975000,0.125000,0.975000,0.125000,1.102950,0.110584,1.102950,0.110584,$1*%
%AMFreePoly3*
4,1,24,1.812500,0.558253,1.858253,0.512500,1.875000,0.450000,1.860584,0.322050,1.818057,0.200517,1.749553,0.091493,1.658507,0.000447,1.549483,-0.068057,1.427950,-0.110584,1.300000,-0.125000,-1.300000,-0.125000,-1.300000,0.125000,1.300000,0.125000,1.309502,0.122454,1.401682,0.137054,1.493411,0.183792,1.566208,0.256589,1.612946,0.348318,1.627546,0.440498,1.625000,0.450000,
1.641747,0.512500,1.687500,0.558253,1.750000,0.575000,1.812500,0.558253,1.812500,0.558253,$1*%
%AMFreePoly4*
4,1,37,1.095671,1.230970,1.176777,1.176777,1.230970,1.095671,1.250000,1.000000,1.234611,0.804457,1.188821,0.613729,1.113759,0.432512,1.011272,0.265269,0.883885,0.116117,0.734733,-0.011271,0.567490,-0.113758,0.386273,-0.188820,0.195545,-0.234610,0.000002,-0.250000,-0.095669,-0.230970,-0.176775,-0.176777,-0.230968,-0.095671,-0.249998,0.000000,-0.230968,0.095671,-0.176775,0.176777,
-0.095669,0.230970,0.000002,0.250000,0.012204,0.247573,0.147027,0.260852,0.288403,0.303738,0.418695,0.373381,0.532897,0.467104,0.626620,0.581306,0.696263,0.711599,0.739148,0.852974,0.752427,0.987798,0.750000,1.000000,0.769030,1.095671,0.823223,1.176777,0.904329,1.230970,1.000000,1.250000,1.095671,1.230970,1.095671,1.230970,$1*%
%AMFreePoly5*
4,1,72,4.686563,7.086550,4.817878,7.046716,4.938899,6.982029,5.044975,6.894975,5.132029,6.788899,5.196716,6.667878,5.236550,6.536563,5.250000,6.400000,5.250000,1.600000,5.230970,1.504329,5.176777,1.423223,5.112500,1.380275,5.112500,0.250000,6.600000,0.250000,6.695671,0.230970,6.776777,0.176777,6.830970,0.095671,6.850000,0.000000,6.830970,-0.095671,6.776777,-0.176777,
6.695671,-0.230970,6.600000,-0.250000,0.000000,-0.250000,-0.095671,-0.230970,-0.176777,-0.176777,-0.230970,-0.095671,-0.250000,0.000000,-0.230970,0.095671,-0.176777,0.176777,-0.095671,0.230970,0.000000,0.250000,4.612500,0.250000,4.612500,1.600000,4.631530,1.695671,4.685723,1.776777,4.750000,1.819725,4.750000,6.400000,4.751388,6.406978,4.742582,6.462574,4.713820,6.519022,
4.669022,6.563820,4.612574,6.592582,4.556978,6.601388,4.550000,6.600000,1.550000,6.600000,1.543022,6.601388,1.487426,6.592582,1.430978,6.563820,1.386180,6.519022,1.357418,6.462574,1.348612,6.406978,1.350000,6.400000,1.350000,5.900000,1.330970,5.804329,1.276777,5.723223,1.195671,5.669030,1.100000,5.650000,1.004329,5.669030,0.923223,5.723223,0.869030,5.804329,
0.850000,5.900000,0.850000,6.400000,0.863450,6.536563,0.903284,6.667878,0.967971,6.788899,1.055025,6.894975,1.161101,6.982029,1.282122,7.046716,1.413437,7.086550,1.550000,7.100000,4.550000,7.100000,4.686563,7.086550,4.686563,7.086550,$1*%
G04 Aperture macros list end*
%ADD10C,0.300000*%
%TA.AperFunction,NonConductor*%
%ADD11C,0.300000*%
%TD*%
%TA.AperFunction,SMDPad,CuDef*%
%ADD12RoundRect,0.225000X0.225000X0.250000X-0.225000X0.250000X-0.225000X-0.250000X0.225000X-0.250000X0*%
%TD*%
%TA.AperFunction,SMDPad,CuDef*%
%ADD13RoundRect,0.250001X-0.462499X-0.624999X0.462499X-0.624999X0.462499X0.624999X-0.462499X0.624999X0*%
%TD*%
%TA.AperFunction,SMDPad,CuDef*%
%ADD14R,0.600000X1.140000*%
%TD*%
%TA.AperFunction,ComponentPad*%
%ADD15C,0.600000*%
%TD*%
%TA.AperFunction,SMDPad,CuDef*%
%ADD16RoundRect,0.075000X-0.075000X-0.495000X0.075000X-0.495000X0.075000X0.495000X-0.075000X0.495000X0*%
%TD*%
%TA.AperFunction,ComponentPad*%
%ADD17C,1.500000*%
%TD*%
%TA.AperFunction,ComponentPad*%
%ADD18C,1.250000*%
%TD*%
%TA.AperFunction,SMDPad,CuDef*%
%ADD19FreePoly0,0.000000*%
%TD*%
%TA.AperFunction,SMDPad,CuDef*%
%ADD20R,5.000000X5.490000*%
%TD*%
%TA.AperFunction,ComponentPad*%
%ADD21RoundRect,0.250000X-0.600000X-0.675000X0.600000X-0.675000X0.600000X0.675000X-0.600000X0.675000X0*%
%TD*%
%TA.AperFunction,ComponentPad*%
%ADD22O,1.700000X1.850000*%
%TD*%
%TA.AperFunction,SMDPad,CuDef*%
%ADD23RoundRect,0.200000X0.200000X0.275000X-0.200000X0.275000X-0.200000X-0.275000X0.200000X-0.275000X0*%
%TD*%
%TA.AperFunction,SMDPad,CuDef*%
%ADD24RoundRect,0.062500X0.062500X-0.287500X0.062500X0.287500X-0.062500X0.287500X-0.062500X-0.287500X0*%
%TD*%
%TA.AperFunction,SMDPad,CuDef*%
%ADD25RoundRect,0.062500X0.287500X-0.062500X0.287500X0.062500X-0.287500X0.062500X-0.287500X-0.062500X0*%
%TD*%
%TA.AperFunction,ComponentPad*%
%ADD26C,0.350000*%
%TD*%
%TA.AperFunction,SMDPad,CuDef*%
%ADD27FreePoly1,90.000000*%
%TD*%
%TA.AperFunction,SMDPad,CuDef*%
%ADD28RoundRect,0.225000X-0.250000X0.225000X-0.250000X-0.225000X0.250000X-0.225000X0.250000X0.225000X0*%
%TD*%
%TA.AperFunction,SMDPad,CuDef*%
%ADD29R,0.650000X0.400000*%
%TD*%
%TA.AperFunction,SMDPad,CuDef*%
%ADD30RoundRect,0.200000X0.275000X-0.200000X0.275000X0.200000X-0.275000X0.200000X-0.275000X-0.200000X0*%
%TD*%
%TA.AperFunction,SMDPad,CuDef*%
%ADD31RoundRect,0.225000X0.250000X-0.225000X0.250000X0.225000X-0.250000X0.225000X-0.250000X-0.225000X0*%
%TD*%
%TA.AperFunction,SMDPad,CuDef*%
%ADD32RoundRect,0.200000X-0.275000X0.200000X-0.275000X-0.200000X0.275000X-0.200000X0.275000X0.200000X0*%
%TD*%
%TA.AperFunction,SMDPad,CuDef*%
%ADD33RoundRect,0.150000X-0.725000X-0.150000X0.725000X-0.150000X0.725000X0.150000X-0.725000X0.150000X0*%
%TD*%
%TA.AperFunction,SMDPad,CuDef*%
%ADD34R,0.850000X0.500000*%
%TD*%
%TA.AperFunction,SMDPad,CuDef*%
%ADD35RoundRect,0.200000X-0.200000X-0.275000X0.200000X-0.275000X0.200000X0.275000X-0.200000X0.275000X0*%
%TD*%
%TA.AperFunction,ComponentPad*%
%ADD36RoundRect,0.250000X0.675000X-0.600000X0.675000X0.600000X-0.675000X0.600000X-0.675000X-0.600000X0*%
%TD*%
%TA.AperFunction,ComponentPad*%
%ADD37O,1.850000X1.700000*%
%TD*%
%TA.AperFunction,SMDPad,CuDef*%
%ADD38R,2.000000X0.900000*%
%TD*%
%TA.AperFunction,SMDPad,CuDef*%
%ADD39R,0.900000X2.000000*%
%TD*%
%TA.AperFunction,SMDPad,CuDef*%
%ADD40R,5.000000X5.000000*%
%TD*%
%TA.AperFunction,SMDPad,CuDef*%
%ADD41RoundRect,0.249375X-0.463125X-0.625625X0.463125X-0.625625X0.463125X0.625625X-0.463125X0.625625X0*%
%TD*%
%TA.AperFunction,SMDPad,CuDef*%
%ADD42FreePoly2,0.000000*%
%TD*%
%TA.AperFunction,SMDPad,CuDef*%
%ADD43R,2.000000X0.500000*%
%TD*%
%TA.AperFunction,SMDPad,CuDef*%
%ADD44R,1.425000X3.700000*%
%TD*%
%TA.AperFunction,SMDPad,CuDef*%
%ADD45FreePoly3,0.000000*%
%TD*%
%TA.AperFunction,SMDPad,CuDef*%
%ADD46R,0.600000X1.100000*%
%TD*%
%TA.AperFunction,SMDPad,CuDef*%
%ADD47R,0.500000X2.000000*%
%TD*%
%TA.AperFunction,SMDPad,CuDef*%
%ADD48RoundRect,0.250000X-0.475000X0.250000X-0.475000X-0.250000X0.475000X-0.250000X0.475000X0.250000X0*%
%TD*%
%TA.AperFunction,SMDPad,CuDef*%
%ADD49FreePoly4,0.000000*%
%TD*%
%TA.AperFunction,SMDPad,CuDef*%
%ADD50FreePoly5,0.000000*%
%TD*%
%TA.AperFunction,SMDPad,CuDef*%
%ADD51R,0.500000X4.000000*%
%TD*%
%TA.AperFunction,ViaPad*%
%ADD52C,0.800000*%
%TD*%
%TA.AperFunction,Conductor*%
%ADD53C,0.250000*%
%TD*%
%TA.AperFunction,Conductor*%
%ADD54C,0.500000*%
%TD*%
%TA.AperFunction,Conductor*%
%ADD55C,0.200000*%
%TD*%
G04 APERTURE END LIST*
D10*
D11*
X105378571Y-52685714D02*
X106378571Y-52400000D01*
X105664285Y-52114285D01*
X106378571Y-51828571D01*
X105378571Y-51542857D01*
X105378571Y-51114285D02*
X106378571Y-50828571D01*
X105664285Y-50542857D01*
X106378571Y-50257142D01*
X105378571Y-49971428D01*
X105378571Y-49542857D02*
X106378571Y-49257142D01*
X105664285Y-48971428D01*
X106378571Y-48685714D01*
X105378571Y-48400000D01*
X106235714Y-47828571D02*
X106307142Y-47757142D01*
X106378571Y-47828571D01*
X106307142Y-47900000D01*
X106235714Y-47828571D01*
X106378571Y-47828571D01*
X106378571Y-47114285D02*
X105378571Y-47114285D01*
X105521428Y-47114285D02*
X105450000Y-47042857D01*
X105378571Y-46900000D01*
X105378571Y-46685714D01*
X105450000Y-46542857D01*
X105592857Y-46471428D01*
X106378571Y-46471428D01*
X105592857Y-46471428D02*
X105450000Y-46400000D01*
X105378571Y-46257142D01*
X105378571Y-46042857D01*
X105450000Y-45900000D01*
X105592857Y-45828571D01*
X106378571Y-45828571D01*
X106307142Y-44542857D02*
X106378571Y-44685714D01*
X106378571Y-44971428D01*
X106307142Y-45114285D01*
X106164285Y-45185714D01*
X105592857Y-45185714D01*
X105450000Y-45114285D01*
X105378571Y-44971428D01*
X105378571Y-44685714D01*
X105450000Y-44542857D01*
X105592857Y-44471428D01*
X105735714Y-44471428D01*
X105878571Y-45185714D01*
X106235714Y-43828571D02*
X106307142Y-43757142D01*
X106378571Y-43828571D01*
X106307142Y-43900000D01*
X106235714Y-43828571D01*
X106378571Y-43828571D01*
X105378571Y-42471428D02*
X106378571Y-42471428D01*
X105378571Y-43114285D02*
X106164285Y-43114285D01*
X106307142Y-43042857D01*
X106378571Y-42900000D01*
X106378571Y-42685714D01*
X106307142Y-42542857D01*
X106235714Y-42471428D01*
X106378571Y-41757142D02*
X104878571Y-41757142D01*
X105807142Y-41614285D02*
X106378571Y-41185714D01*
X105378571Y-41185714D02*
X105950000Y-41757142D01*
D12*
%TO.P,C1,1*%
%TO.N,+3V3*%
X84775000Y-62200000D03*
%TO.P,C1,2*%
%TO.N,GND*%
X83225000Y-62200000D03*
%TD*%
D13*
%TO.P,D3,1,K*%
%TO.N,+12V*%
X95512500Y-58500000D03*
%TO.P,D3,2,A*%
%TO.N,VBUS*%
X98487500Y-58500000D03*
%TD*%
D14*
%TO.P,J1,A1,GND*%
%TO.N,GND*%
X98800000Y-61040000D03*
D15*
%TO.P,J1,S1,SHIELD*%
X99110000Y-62110000D03*
X104890000Y-62110000D03*
D14*
%TO.P,J1,B1,GND*%
X105200000Y-61040000D03*
%TO.P,J1,B9,VBUS*%
%TO.N,VBUS*%
X99600000Y-61040000D03*
%TO.P,J1,A9,VBUS*%
X104400000Y-61040000D03*
D16*
%TO.P,J1,B8,SBU2*%
%TO.N,unconnected-(J1-PadB8)*%
X100250000Y-61040000D03*
%TO.P,J1,B5,CC2*%
%TO.N,Net-(J1-PadB5)*%
X103750000Y-61040000D03*
%TO.P,J1,A5,CC1*%
%TO.N,Net-(J1-PadA5)*%
X100750000Y-61040000D03*
%TO.P,J1,A8,SBU1*%
%TO.N,unconnected-(J1-PadA8)*%
X103250000Y-61040000D03*
%TO.P,J1,B7,D-*%
%TO.N,D-*%
X101250000Y-61040000D03*
%TO.P,J1,B6,D+*%
%TO.N,D+*%
X102750000Y-61040000D03*
%TO.P,J1,A6,D+*%
X101750000Y-61040000D03*
%TO.P,J1,A7,D-*%
%TO.N,D-*%
X102250000Y-61040000D03*
D17*
%TO.P,J1,S1,SHIELD*%
%TO.N,GND*%
X97680000Y-61620000D03*
X106320000Y-61620000D03*
D18*
X97680000Y-65790000D03*
X106320000Y-65790000D03*
D14*
%TO.P,J1,B4,VBUS*%
%TO.N,VBUS*%
X104400000Y-61040000D03*
%TO.P,J1,B12,GND*%
%TO.N,GND*%
X98800000Y-61040000D03*
%TO.P,J1,A4,VBUS*%
%TO.N,VBUS*%
X99600000Y-61040000D03*
%TO.P,J1,A12,GND*%
%TO.N,GND*%
X105200000Y-61040000D03*
D19*
%TO.P,J1,S1,SHIELD*%
X102000000Y-65155000D03*
D20*
X102000000Y-65155000D03*
%TD*%
D21*
%TO.P,J2,1,Pin_1*%
%TO.N,GND*%
X74450000Y-61400000D03*
D22*
%TO.P,J2,2,Pin_2*%
%TO.N,+12V*%
X76950000Y-61400000D03*
%TD*%
D23*
%TO.P,R2,1*%
%TO.N,Net-(J1-PadA5)*%
X98325000Y-56500000D03*
%TO.P,R2,2*%
%TO.N,GND*%
X96675000Y-56500000D03*
%TD*%
D24*
%TO.P,U2,1,RXD*%
%TO.N,O*%
X83000000Y-67100000D03*
%TO.P,U2,2,~{RI}*%
%TO.N,GND*%
X83500000Y-67100000D03*
%TO.P,U2,3,GND*%
X84000000Y-67100000D03*
%TO.P,U2,4,~{DSR}*%
X84500000Y-67100000D03*
%TO.P,U2,5,~{DCD}*%
X85000000Y-67100000D03*
D25*
%TO.P,U2,6,~{CTS}*%
X85900000Y-66200000D03*
%TO.P,U2,7,CBUS2*%
%TO.N,unconnected-(U2-Pad7)*%
X85900000Y-65700000D03*
%TO.P,U2,8,USBDP*%
%TO.N,D+*%
X85900000Y-65200000D03*
%TO.P,U2,9,USBDM*%
%TO.N,D-*%
X85900000Y-64700000D03*
%TO.P,U2,10,3V3OUT*%
%TO.N,+3V3*%
X85900000Y-64200000D03*
D24*
%TO.P,U2,11,~{RESET}*%
X85000000Y-63300000D03*
%TO.P,U2,12,VCC*%
X84500000Y-63300000D03*
%TO.P,U2,13,GND*%
%TO.N,GND*%
X84000000Y-63300000D03*
%TO.P,U2,14,CBUS1*%
%TO.N,unconnected-(U2-Pad14)*%
X83500000Y-63300000D03*
%TO.P,U2,15,CBUS0*%
%TO.N,unconnected-(U2-Pad15)*%
X83000000Y-63300000D03*
D25*
%TO.P,U2,16,CBUS3*%
%TO.N,unconnected-(U2-Pad16)*%
X82100000Y-64200000D03*
%TO.P,U2,17,TXD*%
%TO.N,I*%
X82100000Y-64700000D03*
%TO.P,U2,18,~{DTR}*%
%TO.N,BOOT*%
X82100000Y-65200000D03*
%TO.P,U2,19,~{RTS}*%
%TO.N,EN*%
X82100000Y-65700000D03*
%TO.P,U2,20,VCCIO*%
%TO.N,+3V3*%
X82100000Y-66200000D03*
D26*
%TO.P,U2,21,GND*%
%TO.N,GND*%
X84000000Y-65200000D03*
D27*
X84000000Y-65200000D03*
%TD*%
D23*
%TO.P,R7,1*%
%TO.N,Net-(D2-Pad4)*%
X99125000Y-39100000D03*
%TO.P,R7,2*%
%TO.N,B*%
X97475000Y-39100000D03*
%TD*%
%TO.P,R3,1*%
%TO.N,GND*%
X94825000Y-56500000D03*
%TO.P,R3,2*%
%TO.N,Net-(J1-PadB5)*%
X93175000Y-56500000D03*
%TD*%
D28*
%TO.P,C3,1*%
%TO.N,IN2*%
X98300000Y-41725000D03*
%TO.P,C3,2*%
%TO.N,GND*%
X98300000Y-43275000D03*
%TD*%
D29*
%TO.P,D1,1,A1*%
%TO.N,GND*%
X97150000Y-43150000D03*
%TO.P,D1,2,K2*%
%TO.N,+3V3*%
X97150000Y-42500000D03*
%TO.P,D1,3,K1A2*%
%TO.N,IN2*%
X97150000Y-41850000D03*
%TO.P,D1,4,A3*%
%TO.N,GND*%
X95250000Y-41850000D03*
%TO.P,D1,5,K4*%
%TO.N,+3V3*%
X95250000Y-42500000D03*
%TO.P,D1,6,K3A4*%
%TO.N,IN1*%
X95250000Y-43150000D03*
%TD*%
D30*
%TO.P,R4,1*%
%TO.N,FAULT*%
X99500000Y-43325000D03*
%TO.P,R4,2*%
%TO.N,IN2*%
X99500000Y-41675000D03*
%TD*%
D31*
%TO.P,C2,1*%
%TO.N,IN1*%
X94100000Y-43275000D03*
%TO.P,C2,2*%
%TO.N,GND*%
X94100000Y-41725000D03*
%TD*%
D32*
%TO.P,R1,1*%
%TO.N,T*%
X92900000Y-41675000D03*
%TO.P,R1,2*%
%TO.N,IN1*%
X92900000Y-43325000D03*
%TD*%
D33*
%TO.P,U3,1,NC*%
%TO.N,unconnected-(U3-Pad1)*%
X93525000Y-50995000D03*
%TO.P,U3,2,IN_A*%
%TO.N,OUT2*%
X93525000Y-52265000D03*
%TO.P,U3,3,GND*%
%TO.N,GND*%
X93525000Y-53535000D03*
%TO.P,U3,4,IN_B*%
%TO.N,OUT1*%
X93525000Y-54805000D03*
%TO.P,U3,5,OUT_B*%
%TO.N,BELL*%
X98675000Y-54805000D03*
%TO.P,U3,6,V+*%
%TO.N,+12V*%
X98675000Y-53535000D03*
%TO.P,U3,7,OUT_A*%
%TO.N,STB*%
X98675000Y-52265000D03*
%TO.P,U3,8,NC*%
%TO.N,unconnected-(U3-Pad8)*%
X98675000Y-50995000D03*
%TD*%
%TO.P,U4,1,NC*%
%TO.N,unconnected-(U4-Pad1)*%
X93525000Y-45395000D03*
%TO.P,U4,2,IN_A*%
%TO.N,OUT4*%
X93525000Y-46665000D03*
%TO.P,U4,3,GND*%
%TO.N,GND*%
X93525000Y-47935000D03*
%TO.P,U4,4,IN_B*%
%TO.N,OUT3*%
X93525000Y-49205000D03*
%TO.P,U4,5,OUT_B*%
%TO.N,ENGHOLD*%
X98675000Y-49205000D03*
%TO.P,U4,6,V+*%
%TO.N,+12V*%
X98675000Y-47935000D03*
%TO.P,U4,7,OUT_A*%
%TO.N,~{BACKLIGHT}*%
X98675000Y-46665000D03*
%TO.P,U4,8,NC*%
%TO.N,unconnected-(U4-Pad8)*%
X98675000Y-45395000D03*
%TD*%
D34*
%TO.P,D2,1,A*%
%TO.N,+3V3*%
X99075000Y-35500000D03*
%TO.P,D2,2,RK*%
%TO.N,Net-(D2-Pad2)*%
X97325000Y-35500000D03*
%TO.P,D2,3,GK*%
%TO.N,Net-(D2-Pad3)*%
X97325000Y-34500000D03*
%TO.P,D2,4,BK*%
%TO.N,Net-(D2-Pad4)*%
X99075000Y-34500000D03*
%TD*%
D35*
%TO.P,R6,1*%
%TO.N,Net-(D2-Pad3)*%
X97475000Y-37900000D03*
%TO.P,R6,2*%
%TO.N,G*%
X99125000Y-37900000D03*
%TD*%
%TO.P,R5,1*%
%TO.N,Net-(D2-Pad2)*%
X97475000Y-36700000D03*
%TO.P,R5,2*%
%TO.N,R*%
X99125000Y-36700000D03*
%TD*%
D36*
%TO.P,J3,1,Pin_1*%
%TO.N,GND*%
X101400000Y-57950000D03*
D37*
%TO.P,J3,2,Pin_2*%
%TO.N,+12V*%
X101400000Y-55450000D03*
%TO.P,J3,3,Pin_3*%
%TO.N,BELL*%
X101400000Y-52950000D03*
%TO.P,J3,4,Pin_4*%
%TO.N,STB*%
X101400000Y-50450000D03*
%TO.P,J3,5,Pin_5*%
%TO.N,ENGHOLD*%
X101400000Y-47950000D03*
%TO.P,J3,6,Pin_6*%
%TO.N,GND*%
X101400000Y-45450000D03*
%TO.P,J3,7,Pin_7*%
%TO.N,FAULT*%
X101400000Y-42950000D03*
%TO.P,J3,8,Pin_8*%
%TO.N,GND*%
X101400000Y-40450000D03*
%TO.P,J3,9,Pin_9*%
%TO.N,T*%
X101400000Y-37950000D03*
%TO.P,J3,10,Pin_10*%
%TO.N,~{BACKLIGHT}*%
X101400000Y-35450000D03*
%TD*%
D38*
%TO.P,U1,1,GND*%
%TO.N,GND*%
X73100000Y-40445000D03*
%TO.P,U1,2,VDD*%
%TO.N,+3V3*%
X73100000Y-41715000D03*
%TO.P,U1,3,EN*%
%TO.N,EN*%
X73100000Y-42985000D03*
%TO.P,U1,4,SENSOR_VP*%
%TO.N,unconnected-(U1-Pad4)*%
X73100000Y-44255000D03*
%TO.P,U1,5,SENSOR_VN*%
%TO.N,unconnected-(U1-Pad5)*%
X73100000Y-45525000D03*
%TO.P,U1,6,IO34*%
%TO.N,unconnected-(U1-Pad6)*%
X73100000Y-46795000D03*
%TO.P,U1,7,IO35*%
%TO.N,unconnected-(U1-Pad7)*%
X73100000Y-48065000D03*
%TO.P,U1,8,IO32*%
%TO.N,unconnected-(U1-Pad8)*%
X73100000Y-49335000D03*
%TO.P,U1,9,IO33*%
%TO.N,unconnected-(U1-Pad9)*%
X73100000Y-50605000D03*
%TO.P,U1,10,IO25*%
%TO.N,B*%
X73100000Y-51875000D03*
%TO.P,U1,11,IO26*%
%TO.N,R*%
X73100000Y-53145000D03*
%TO.P,U1,12,IO27*%
%TO.N,G*%
X73100000Y-54415000D03*
%TO.P,U1,13,IO14*%
%TO.N,IN1*%
X73100000Y-55685000D03*
%TO.P,U1,14,IO12*%
%TO.N,unconnected-(U1-Pad14)*%
X73100000Y-56955000D03*
D39*
%TO.P,U1,15,GND*%
%TO.N,GND*%
X75885000Y-57955000D03*
%TO.P,U1,16,IO13*%
%TO.N,IN2*%
X77155000Y-57955000D03*
%TO.P,U1,17,SHD/SD2*%
%TO.N,unconnected-(U1-Pad17)*%
X78425000Y-57955000D03*
%TO.P,U1,18,SWP/SD3*%
%TO.N,unconnected-(U1-Pad18)*%
X79695000Y-57955000D03*
%TO.P,U1,19,SCS/CMD*%
%TO.N,unconnected-(U1-Pad19)*%
X80965000Y-57955000D03*
%TO.P,U1,20,SCK/CLK*%
%TO.N,unconnected-(U1-Pad20)*%
X82235000Y-57955000D03*
%TO.P,U1,21,SDO/SD0*%
%TO.N,unconnected-(U1-Pad21)*%
X83505000Y-57955000D03*
%TO.P,U1,22,SDI/SD1*%
%TO.N,unconnected-(U1-Pad22)*%
X84775000Y-57955000D03*
%TO.P,U1,23,IO15*%
%TO.N,unconnected-(U1-Pad23)*%
X86045000Y-57955000D03*
%TO.P,U1,24,IO2*%
%TO.N,unconnected-(U1-Pad24)*%
X87315000Y-57955000D03*
D38*
%TO.P,U1,25,IO0*%
%TO.N,BOOT*%
X90100000Y-56955000D03*
%TO.P,U1,26,IO4*%
%TO.N,unconnected-(U1-Pad26)*%
X90100000Y-55685000D03*
%TO.P,U1,27,IO16*%
%TO.N,unconnected-(U1-Pad27)*%
X90100000Y-54415000D03*
%TO.P,U1,28,IO17*%
%TO.N,unconnected-(U1-Pad28)*%
X90100000Y-53145000D03*
%TO.P,U1,29,IO5*%
%TO.N,unconnected-(U1-Pad29)*%
X90100000Y-51875000D03*
%TO.P,U1,30,IO18*%
%TO.N,unconnected-(U1-Pad30)*%
X90100000Y-50605000D03*
%TO.P,U1,31,IO19*%
%TO.N,OUT1*%
X90100000Y-49335000D03*
%TO.P,U1,32,NC*%
%TO.N,unconnected-(U1-Pad32)*%
X90100000Y-48065000D03*
%TO.P,U1,33,IO21*%
%TO.N,OUT2*%
X90100000Y-46795000D03*
%TO.P,U1,34,RXD0/IO3*%
%TO.N,I*%
X90100000Y-45525000D03*
%TO.P,U1,35,TXD0/IO1*%
%TO.N,O*%
X90100000Y-44255000D03*
%TO.P,U1,36,IO22*%
%TO.N,OUT3*%
X90100000Y-42985000D03*
%TO.P,U1,37,IO23*%
%TO.N,OUT4*%
X90100000Y-41715000D03*
%TO.P,U1,38,GND*%
%TO.N,GND*%
X90100000Y-40445000D03*
D40*
%TO.P,U1,39,GND*%
X80600000Y-47945000D03*
%TD*%
D23*
%TO.P,R9,1*%
%TO.N,GND*%
X93500000Y-59100000D03*
%TO.P,R9,2*%
%TO.N,Net-(R8-Pad2)*%
X91850000Y-59100000D03*
%TD*%
D31*
%TO.P,U5,*%
%TO.N,*%
X88000000Y-63855000D03*
D41*
X90897500Y-66000000D03*
D42*
X89625000Y-63280000D03*
D43*
X92000000Y-64180000D03*
D44*
X92500000Y-62880000D03*
D45*
X89300000Y-62380000D03*
D46*
X91050000Y-64180000D03*
D31*
X88000000Y-62305000D03*
D47*
X91050000Y-65130000D03*
D46*
X91050000Y-61480000D03*
%TO.P,U5,1,SHDN*%
%TO.N,+12V*%
X89150000Y-64180000D03*
D48*
%TO.P,U5,2,VIN*%
X89250000Y-65430000D03*
D46*
X90100000Y-64180000D03*
D49*
X89040000Y-65380000D03*
D48*
%TO.P,U5,3,GND*%
%TO.N,GND*%
X95500000Y-67330000D03*
X89250000Y-67330000D03*
D50*
X89000000Y-67330000D03*
D41*
X93862500Y-66000000D03*
D46*
X90100000Y-61480000D03*
D51*
%TO.P,U5,4,VOUT*%
%TO.N,+3V3*%
X95500000Y-63630000D03*
D48*
X95500000Y-65430000D03*
D44*
X95500000Y-62880000D03*
D46*
%TO.P,U5,5,FB*%
%TO.N,Net-(R8-Pad2)*%
X89150000Y-61480000D03*
%TD*%
D35*
%TO.P,R8,1*%
%TO.N,+3V3*%
X86175000Y-60800000D03*
%TO.P,R8,2*%
%TO.N,Net-(R8-Pad2)*%
X87825000Y-60800000D03*
%TD*%
D52*
%TO.N,GND*%
X92600000Y-66000000D03*
X88100000Y-51300000D03*
X82400000Y-51300000D03*
X87600000Y-66900000D03*
X92000000Y-57200000D03*
%TO.N,+3V3*%
X96100000Y-44500000D03*
X100200000Y-34450000D03*
X84600000Y-46500000D03*
X85616025Y-63214348D03*
X80995895Y-66325586D03*
%TO.N,+12V*%
X95480000Y-59920000D03*
X87739960Y-65536979D03*
%TO.N,Net-(J1-PadB5)*%
X93054204Y-57720477D03*
X103539915Y-57240099D03*
%TO.N,D-*%
X100742531Y-59417933D03*
X103399017Y-58689100D03*
X86672692Y-62270418D03*
%TO.N,D+*%
X104532011Y-59275500D03*
X101724567Y-59603976D03*
X86786353Y-65235885D03*
%TO.N,O*%
X87074932Y-45323144D03*
X80049972Y-65450028D03*
%TO.N,I*%
X81276475Y-63475021D03*
X87602587Y-46172617D03*
%TO.N,IN2*%
X100406653Y-41696844D03*
X76635009Y-56163399D03*
%TO.N,IN1*%
X74484979Y-55499335D03*
X92934500Y-44425504D03*
%TO.N,T*%
X92100000Y-41800000D03*
%TO.N,G*%
X74484980Y-54198797D03*
X100163143Y-37082480D03*
%TO.N,B*%
X74484980Y-51687340D03*
X96700000Y-39774990D03*
%TO.N,R*%
X74484980Y-52900000D03*
X100022342Y-36086855D03*
%TD*%
D53*
%TO.N,GND*%
X94100000Y-56800000D02*
X94100000Y-58500000D01*
X98800000Y-60713190D02*
X98800000Y-61140000D01*
D54*
X104250000Y-55950000D02*
X105000000Y-55950000D01*
X75785000Y-57955000D02*
X75785000Y-55475000D01*
D53*
X95800000Y-56500000D02*
X96675000Y-56500000D01*
X84000000Y-67100000D02*
X84000000Y-65200000D01*
X85900000Y-66200000D02*
X86900000Y-66200000D01*
D54*
X93525000Y-47935000D02*
X95465000Y-47935000D01*
X101400000Y-57950000D02*
X102798959Y-56551041D01*
D53*
X95800000Y-55550000D02*
X95800000Y-53620000D01*
D54*
X79525000Y-51735000D02*
X81965000Y-51735000D01*
D53*
X84363604Y-65563604D02*
X84000000Y-65200000D01*
X95800000Y-53620000D02*
X95885000Y-53535000D01*
D54*
X95985000Y-53535000D02*
X96135000Y-53385000D01*
D53*
X83500000Y-67100000D02*
X83500000Y-66407106D01*
X96675000Y-60715000D02*
X97680000Y-61720000D01*
D54*
X93525000Y-53535000D02*
X95885000Y-53535000D01*
X96135000Y-53385000D02*
X96135000Y-47935000D01*
X106325000Y-61730000D02*
X106325000Y-57275000D01*
X92620000Y-66020000D02*
X92600000Y-66000000D01*
D53*
X97150000Y-43150000D02*
X98175000Y-43150000D01*
X95800000Y-56500000D02*
X95800000Y-55550000D01*
D54*
X73000000Y-40445000D02*
X90000000Y-40445000D01*
D53*
X98175000Y-43150000D02*
X98300000Y-43275000D01*
X94825000Y-56500000D02*
X95800000Y-56500000D01*
X83225000Y-62200000D02*
X83500000Y-62200000D01*
X101175000Y-40250000D02*
X101650000Y-40250000D01*
X86900000Y-66200000D02*
X87600000Y-66900000D01*
X95250000Y-41850000D02*
X94225000Y-41850000D01*
X84000000Y-63300000D02*
X84000000Y-62700000D01*
D54*
X81965000Y-51735000D02*
X82400000Y-51300000D01*
D53*
X84500000Y-67100000D02*
X84500000Y-66407106D01*
X94825000Y-56500000D02*
X94400000Y-56500000D01*
X84000000Y-63300000D02*
X84000000Y-65200000D01*
X96675000Y-56500000D02*
X96675000Y-60715000D01*
D54*
X95465000Y-47935000D02*
X96135000Y-47935000D01*
X93812500Y-66020000D02*
X92620000Y-66020000D01*
D53*
X94225000Y-41850000D02*
X94100000Y-41725000D01*
D54*
X95885000Y-53535000D02*
X95985000Y-53535000D01*
X75785000Y-55475000D02*
X79525000Y-51735000D01*
D53*
X84000000Y-62700000D02*
G75*
G03*
X83500000Y-62200000I-500001J-1D01*
G01*
D54*
X106325000Y-57275000D02*
G75*
G03*
X105000000Y-55950000I-1325002J-2D01*
G01*
D53*
X84000000Y-65200000D02*
G75*
G03*
X83500000Y-66407106I1207108J-1207107D01*
G01*
D54*
X104250000Y-55950001D02*
G75*
G03*
X102798960Y-56551042I0J-2052081D01*
G01*
D53*
X84363604Y-65563604D02*
G75*
G03*
X85900000Y-66200000I1536395J1536395D01*
G01*
X84000000Y-65200000D02*
G75*
G02*
X84500000Y-66407106I-1207108J-1207107D01*
G01*
X84363604Y-65563604D02*
G75*
G02*
X85000000Y-67100000I-1536395J-1536395D01*
G01*
X94100000Y-56800000D02*
G75*
G02*
X94400000Y-56500000I300000J0D01*
G01*
X93500000Y-59100000D02*
G75*
G03*
X94100000Y-58500000I0J600000D01*
G01*
%TO.N,+3V3*%
X85000000Y-63300000D02*
X85000000Y-62425000D01*
X93083217Y-59900000D02*
X93500000Y-59900000D01*
X96200000Y-42500000D02*
X96300000Y-42500000D01*
X100200000Y-34550000D02*
X99373744Y-35376256D01*
X84500000Y-42400000D02*
X84500000Y-46400000D01*
X100200000Y-34450000D02*
X100200000Y-34550000D01*
X95250000Y-42500000D02*
X96000000Y-42500000D01*
X85616025Y-63214348D02*
X85616025Y-62153975D01*
X92700000Y-58900000D02*
X92700000Y-59516783D01*
X94865686Y-60465685D02*
X94900000Y-60500000D01*
X84500000Y-62475000D02*
X84775000Y-62200000D01*
X94900000Y-60500000D02*
X95500000Y-61100000D01*
X89500000Y-58300000D02*
X92100000Y-58300000D01*
X86175000Y-60800000D02*
X86175000Y-60425000D01*
X85000000Y-62425000D02*
X84775000Y-62200000D01*
X85570000Y-62200000D02*
X85616025Y-62153975D01*
X73100000Y-41715000D02*
X83815000Y-41715000D01*
X96100000Y-42600000D02*
X96000000Y-42500000D01*
X96100000Y-44500000D02*
X96100000Y-42600000D01*
X95500000Y-61100000D02*
X95500000Y-62880000D01*
X84775000Y-62200000D02*
X85570000Y-62200000D01*
X96300000Y-42500000D02*
X97150000Y-42500000D01*
X85616025Y-62153975D02*
X85616025Y-61358975D01*
X82100000Y-66200000D02*
X81121481Y-66200000D01*
X84500000Y-63300000D02*
X84500000Y-62475000D01*
X86800000Y-59800000D02*
X88000000Y-59800000D01*
X96000000Y-42500000D02*
X96200000Y-42500000D01*
X89500000Y-58300000D02*
G75*
G03*
X88800000Y-59000000I-1J-699999D01*
G01*
X85616025Y-61358975D02*
G75*
G02*
X86175000Y-60800000I558975J0D01*
G01*
X92700000Y-58900000D02*
G75*
G03*
X92100000Y-58300000I-600000J0D01*
G01*
X80995895Y-66325586D02*
G75*
G02*
X81121481Y-66200000I125585J1D01*
G01*
X86800000Y-59800000D02*
G75*
G03*
X86175000Y-60425000I-1J-624999D01*
G01*
X84500000Y-42400000D02*
G75*
G03*
X83815000Y-41715000I-685000J0D01*
G01*
X93083217Y-59900000D02*
G75*
G02*
X92700000Y-59516783I1J383218D01*
G01*
X88800000Y-59000000D02*
G75*
G02*
X88000000Y-59800000I-800001J1D01*
G01*
X84600000Y-46500000D02*
G75*
G02*
X84500000Y-46400000I-1J99999D01*
G01*
X85900000Y-64200000D02*
G75*
G02*
X85000000Y-63300000I0J900000D01*
G01*
X94865686Y-60465685D02*
G75*
G03*
X93500000Y-59900000I-1365687J-1365690D01*
G01*
X99075000Y-35499999D02*
G75*
G03*
X99373743Y-35376255I0J422487D01*
G01*
%TO.N,VBUS*%
X104400000Y-61040000D02*
X104400000Y-61300000D01*
D54*
X99200000Y-59600000D02*
X98761504Y-59161504D01*
D53*
X99600000Y-61040000D02*
X99600000Y-61400000D01*
X100210000Y-62010000D02*
X103690000Y-62010000D01*
D54*
X99600000Y-61040000D02*
X99600000Y-60565685D01*
D53*
X103690000Y-62010000D02*
G75*
G03*
X104400000Y-61300000I1J709999D01*
G01*
D54*
X99200000Y-59600000D02*
G75*
G02*
X99600000Y-60565685I-965682J-965684D01*
G01*
D53*
X100210000Y-62010000D02*
G75*
G02*
X99600000Y-61400000I0J610000D01*
G01*
D54*
X98487501Y-58500000D02*
G75*
G03*
X98761505Y-59161503I935512J2D01*
G01*
%TO.N,+12V*%
X97349990Y-53550010D02*
X98659990Y-53550010D01*
X95512500Y-59887500D02*
X95480000Y-59920000D01*
X97349990Y-53550010D02*
X97349990Y-55203534D01*
X98675000Y-47935000D02*
X97800000Y-47935000D01*
X97349990Y-48385010D02*
X97349990Y-53550010D01*
X101344990Y-55555010D02*
X101400000Y-55500000D01*
X101294990Y-55555010D02*
X101400000Y-55450000D01*
X87876939Y-65400000D02*
X87739960Y-65536979D01*
D53*
X89100000Y-64200000D02*
X90050000Y-64200000D01*
D54*
X95512500Y-58500000D02*
X95512500Y-59887500D01*
X88990000Y-65400000D02*
X87876939Y-65400000D01*
X97701466Y-55555010D02*
X101344990Y-55555010D01*
X98675000Y-53535000D02*
G75*
G02*
X98659990Y-53550010I-15009J-1D01*
G01*
X97349990Y-48385010D02*
G75*
G02*
X97800000Y-47935000I450010J0D01*
G01*
X97701466Y-55555010D02*
G75*
G02*
X97349990Y-55203534I0J351476D01*
G01*
D53*
%TO.N,Net-(J1-PadA5)*%
X100750000Y-61040000D02*
X100750000Y-60404994D01*
X99674998Y-58815376D02*
X99674998Y-57074998D01*
X99100000Y-56500000D02*
X98325000Y-56500000D01*
X100750000Y-60404994D02*
X100490486Y-60145480D01*
X100490486Y-60145480D02*
X100306902Y-60145480D01*
X100070711Y-59909289D02*
X100070711Y-59770710D01*
X100306902Y-60145480D02*
X100070711Y-59909289D01*
X99100000Y-56500000D02*
G75*
G02*
X99674998Y-57074998I0J-574998D01*
G01*
X99674999Y-58815376D02*
G75*
G03*
X100070712Y-59770709I1351039J-2D01*
G01*
%TO.N,Net-(J1-PadB5)*%
X103750000Y-61040000D02*
X103750000Y-60550000D01*
X105300000Y-59500000D02*
X105300000Y-59100000D01*
X104300000Y-60000000D02*
X104800000Y-60000000D01*
X103922498Y-57387653D02*
X103687469Y-57387653D01*
X93175000Y-56500000D02*
X93175000Y-57599681D01*
X103687469Y-57387653D02*
X103539915Y-57240099D01*
X93054204Y-57720477D02*
G75*
G03*
X93175000Y-57599681I1J120795D01*
G01*
X104300000Y-60000000D02*
G75*
G03*
X103750000Y-60550000I-1J-549999D01*
G01*
X105300000Y-59500000D02*
G75*
G02*
X104800000Y-60000000I-500001J1D01*
G01*
X103922498Y-57387653D02*
G75*
G02*
X105300000Y-59100000I-377919J-1714259D01*
G01*
%TO.N,D-*%
X85900000Y-64700000D02*
X86100000Y-64700000D01*
X101250000Y-61040000D02*
X101250000Y-60728584D01*
X86672692Y-64127308D02*
X86672692Y-62270418D01*
X102723676Y-59623676D02*
X103399017Y-58948335D01*
X100742531Y-59543697D02*
X100742531Y-59417933D01*
X103399017Y-58948335D02*
X103399017Y-58689100D01*
D55*
X102250000Y-61040000D02*
X102250000Y-60767231D01*
D53*
X100988249Y-59789415D02*
X100742531Y-59543697D01*
X86672692Y-64127308D02*
G75*
G02*
X86100000Y-64700000I-572693J1D01*
G01*
X100988249Y-59789415D02*
G75*
G02*
X101250000Y-60728584I-1575114J-945052D01*
G01*
X102723676Y-59623676D02*
G75*
G03*
X102250000Y-60767231I1143553J-1143554D01*
G01*
%TO.N,D+*%
X101750000Y-61140000D02*
X101750000Y-59629409D01*
X103600000Y-59500000D02*
X102900000Y-60200000D01*
X101750000Y-59629409D02*
X101724567Y-59603976D01*
X102750000Y-60562132D02*
X102750000Y-61040000D01*
X104532011Y-59275500D02*
X104141990Y-59275500D01*
X85900000Y-65200000D02*
X86750468Y-65200000D01*
X103600000Y-59500000D02*
G75*
G02*
X104141990Y-59275500I541989J-541986D01*
G01*
X86786353Y-65235885D02*
G75*
G03*
X86750468Y-65200000I-35883J2D01*
G01*
X102750001Y-60562132D02*
G75*
G02*
X102900001Y-60200001I512136J-2D01*
G01*
%TO.N,OUT1*%
X91500000Y-54400000D02*
X91500000Y-50100000D01*
X93525000Y-54805000D02*
X91905000Y-54805000D01*
X90000000Y-49335000D02*
X90965002Y-49335000D01*
X91500000Y-54400000D02*
G75*
G03*
X91905000Y-54805000I405001J1D01*
G01*
X91500000Y-50100000D02*
G75*
G03*
X90735000Y-49335000I-764999J1D01*
G01*
%TO.N,OUT4*%
X90929022Y-41715000D02*
X90100000Y-41715000D01*
X91672131Y-42458108D02*
X90929022Y-41715000D01*
X92100480Y-45899520D02*
X92100480Y-43492233D01*
X93525000Y-46665000D02*
X92865960Y-46665000D01*
X92100480Y-45899520D02*
G75*
G03*
X92865960Y-46665000I765480J0D01*
G01*
X91672131Y-42458108D02*
G75*
G02*
X92100480Y-43492233I-1034123J-1034125D01*
G01*
%TO.N,OUT3*%
X91600000Y-46258579D02*
X91600000Y-43235000D01*
X91350000Y-42985000D02*
X90100000Y-42985000D01*
X93525000Y-49205000D02*
X92805000Y-49205000D01*
X92000000Y-48400000D02*
X92000000Y-47224264D01*
X92000000Y-48400000D02*
G75*
G03*
X92805000Y-49205000I805000J0D01*
G01*
X91600000Y-46258579D02*
G75*
G03*
X91700000Y-46500000I341419J0D01*
G01*
X91350000Y-42985000D02*
G75*
G02*
X91600000Y-43235000I1J-249999D01*
G01*
X91700000Y-46500000D02*
G75*
G02*
X92000000Y-47224264I-724263J-724264D01*
G01*
%TO.N,O*%
X90100000Y-44255000D02*
X88143076Y-44255000D01*
X80049972Y-65450028D02*
X80049972Y-66649980D01*
X80499992Y-67100000D02*
X83000000Y-67100000D01*
X80499992Y-67100000D02*
G75*
G02*
X80049972Y-66649980I1J450021D01*
G01*
X87074932Y-45323144D02*
G75*
G02*
X88143076Y-44255000I1068144J0D01*
G01*
%TO.N,I*%
X81600989Y-64599011D02*
X81550989Y-64549011D01*
X90100000Y-45525000D02*
X88250204Y-45525000D01*
X81276475Y-63475021D02*
X81276475Y-63886276D01*
X82100000Y-64700000D02*
X81844798Y-64700000D01*
X87602587Y-46172617D02*
G75*
G02*
X88250204Y-45525000I647618J-1D01*
G01*
X81550989Y-64549011D02*
G75*
G02*
X81276475Y-63886276I662728J662732D01*
G01*
X81600989Y-64599011D02*
G75*
G03*
X81844798Y-64700000I243809J243809D01*
G01*
%TO.N,OUT2*%
X92000000Y-52000000D02*
X92000000Y-49924264D01*
X91500000Y-48717158D02*
X91500000Y-47300000D01*
X93525000Y-52265000D02*
X92265000Y-52265000D01*
X90100000Y-46795000D02*
X90995000Y-46795000D01*
X92000000Y-52000000D02*
G75*
G03*
X92265000Y-52265000I265001J1D01*
G01*
X91500000Y-48717158D02*
G75*
G03*
X91700000Y-49200000I682850J4D01*
G01*
X91500000Y-47300000D02*
G75*
G03*
X90995000Y-46795000I-505000J0D01*
G01*
X91700000Y-49200000D02*
G75*
G02*
X92000000Y-49924264I-724263J-724264D01*
G01*
%TO.N,EN*%
X79180001Y-59280001D02*
X75419999Y-59280001D01*
X75110489Y-58970491D02*
X75110489Y-56735223D01*
X73100000Y-42985000D02*
X74085000Y-42985000D01*
X79580001Y-62628447D02*
X79580001Y-59680001D01*
X80514785Y-64885215D02*
X80784793Y-65155224D01*
X74470000Y-50440000D02*
X74470000Y-43370000D01*
X75209989Y-56495009D02*
X75209990Y-51179990D01*
X74865000Y-50835000D02*
G75*
G02*
X75209990Y-51179990I1J-344989D01*
G01*
X79580002Y-62628447D02*
G75*
G03*
X80514786Y-64885214I3191546J-2D01*
G01*
X74470000Y-43370000D02*
G75*
G03*
X74085000Y-42985000I-385000J0D01*
G01*
X75209989Y-56495009D02*
G75*
G03*
X75110489Y-56735223I240215J-240215D01*
G01*
X74470000Y-50440000D02*
G75*
G03*
X74865000Y-50835000I395001J1D01*
G01*
X75110489Y-58970491D02*
G75*
G03*
X75419999Y-59280001I309509J-1D01*
G01*
X79180001Y-59280001D02*
G75*
G02*
X79580001Y-59680001I1J-399999D01*
G01*
X80784793Y-65155224D02*
G75*
G03*
X82100000Y-65700000I1315208J1315212D01*
G01*
%TO.N,BOOT*%
X80100000Y-62758370D02*
X80100000Y-59659022D01*
X81016455Y-64751181D02*
X80861099Y-64595825D01*
X88110000Y-59095002D02*
X88110000Y-57890000D01*
X90100000Y-56955000D02*
X89045000Y-56955000D01*
X80479511Y-59279511D02*
X87925491Y-59279511D01*
X88110000Y-59095002D02*
G75*
G02*
X87925491Y-59279511I-184508J-1D01*
G01*
X88110000Y-57890000D02*
G75*
G02*
X89045000Y-56955000I934999J1D01*
G01*
X81016455Y-64751181D02*
G75*
G03*
X82100000Y-65200000I1083544J1083544D01*
G01*
X80100001Y-62758370D02*
G75*
G03*
X80861100Y-64595824I2598553J0D01*
G01*
X80479511Y-59279511D02*
G75*
G03*
X80100000Y-59659022I-1J-379510D01*
G01*
%TO.N,IN2*%
X99521844Y-41696844D02*
X99500000Y-41675000D01*
X97150000Y-41850000D02*
X98175000Y-41850000D01*
X100406653Y-41696844D02*
X99521844Y-41696844D01*
X77055000Y-57955000D02*
X77055000Y-56583390D01*
X98300000Y-41725000D02*
X99450000Y-41725000D01*
X77055000Y-56583390D02*
X76635009Y-56163399D01*
X98175000Y-41850000D02*
X98300000Y-41725000D01*
X99450000Y-41725000D02*
X99500000Y-41675000D01*
%TO.N,IN1*%
X94050000Y-43325000D02*
X94100000Y-43275000D01*
X73000000Y-55685000D02*
X74299314Y-55685000D01*
X92900000Y-43325000D02*
X92900000Y-44391004D01*
X94225000Y-43150000D02*
X94100000Y-43275000D01*
X74299314Y-55685000D02*
X74484979Y-55499335D01*
X95250000Y-43150000D02*
X94225000Y-43150000D01*
X92900000Y-44391004D02*
X92934500Y-44425504D01*
X92900000Y-43325000D02*
X94050000Y-43325000D01*
%TO.N,~{BACKLIGHT}*%
X99965000Y-45365000D02*
X99965000Y-46435000D01*
X99735000Y-46665000D02*
X98675000Y-46665000D01*
X102649520Y-36699520D02*
X102649520Y-43050480D01*
X101525010Y-44174990D02*
X101155010Y-44174990D01*
X99735000Y-46665000D02*
G75*
G03*
X99965000Y-46435000I2J229998D01*
G01*
X101525010Y-44174990D02*
G75*
G03*
X102649520Y-43050480I1J1124509D01*
G01*
X102649520Y-36699520D02*
G75*
G03*
X101400000Y-35450000I-1249520J0D01*
G01*
X99965000Y-45365000D02*
G75*
G02*
X101155010Y-44174990I1190010J0D01*
G01*
%TO.N,T*%
X92900000Y-41675000D02*
X92225000Y-41675000D01*
X92225000Y-41675000D02*
X92100000Y-41800000D01*
%TO.N,FAULT*%
X99500000Y-43325000D02*
X101025000Y-43325000D01*
X101025000Y-43325000D02*
X101400000Y-42950000D01*
D54*
%TO.N,ENGHOLD*%
X100475000Y-48875000D02*
X101400000Y-47950000D01*
X98675000Y-49205000D02*
X99678310Y-49205000D01*
X100475000Y-48875000D02*
G75*
G02*
X99678310Y-49205000I-796690J796690D01*
G01*
%TO.N,STB*%
X100100000Y-51900000D02*
X101293934Y-50706066D01*
X98675000Y-52265000D02*
X99218813Y-52265000D01*
X100100000Y-51900000D02*
G75*
G02*
X99218813Y-52265000I-881185J881181D01*
G01*
X101399999Y-50450000D02*
G75*
G02*
X101293933Y-50706065I-362119J-5D01*
G01*
%TO.N,BELL*%
X98675000Y-54805000D02*
X99263665Y-54805000D01*
X100000000Y-54500000D02*
X101293934Y-53206066D01*
X100000000Y-54500000D02*
G75*
G02*
X99263665Y-54805000I-736332J736327D01*
G01*
X101399999Y-52950000D02*
G75*
G02*
X101293933Y-53206065I-362119J-5D01*
G01*
D53*
%TO.N,Net-(D2-Pad3)*%
X97475000Y-37900000D02*
X97075000Y-37900000D01*
X97325000Y-34500000D02*
X97150000Y-34500000D01*
X96574999Y-35075001D02*
X96574999Y-37399999D01*
X96574999Y-35075001D02*
G75*
G02*
X97150000Y-34500000I575001J0D01*
G01*
X96574999Y-37399999D02*
G75*
G03*
X97075000Y-37900000I500001J0D01*
G01*
%TO.N,Net-(D2-Pad2)*%
X97475000Y-36700000D02*
X97475000Y-35650000D01*
X97475000Y-35650000D02*
X97325000Y-35500000D01*
%TO.N,G*%
X100163143Y-37082480D02*
X100163143Y-37536857D01*
X73000000Y-54415000D02*
X74268777Y-54415000D01*
X74268777Y-54415000D02*
X74484980Y-54198797D01*
X99800000Y-37900000D02*
X99125000Y-37900000D01*
X99800000Y-37900000D02*
G75*
G03*
X100163143Y-37536857I0J363143D01*
G01*
%TO.N,B*%
X97475000Y-39100000D02*
X97374990Y-39100000D01*
X74297320Y-51875000D02*
X74484980Y-51687340D01*
X97374990Y-39100000D02*
X96700000Y-39774990D01*
X73000000Y-51875000D02*
X74297320Y-51875000D01*
%TO.N,R*%
X73000000Y-53145000D02*
X74239980Y-53145000D01*
X100022342Y-36086855D02*
X99610155Y-36499042D01*
X74239980Y-53145000D02*
X74484980Y-52900000D01*
X99125000Y-36700000D02*
G75*
G03*
X99610155Y-36499042I1J686109D01*
G01*
%TO.N,Net-(D2-Pad4)*%
X99125000Y-39100000D02*
X99049998Y-39100000D01*
X99075000Y-34500000D02*
X98849998Y-34500000D01*
X98324999Y-35024999D02*
X98324999Y-38375001D01*
X98324999Y-35024999D02*
G75*
G02*
X98849998Y-34500000I525000J-1D01*
G01*
X98324999Y-38375001D02*
G75*
G03*
X99049998Y-39100000I724998J-1D01*
G01*
%TO.N,Net-(R8-Pad2)*%
X89150000Y-61480000D02*
X89150000Y-60150000D01*
X91850000Y-59100000D02*
X90200000Y-59100000D01*
X88505000Y-61480000D02*
X89150000Y-61480000D01*
X88505000Y-61480000D02*
G75*
G02*
X87825000Y-60800000I-1J679999D01*
G01*
X90200000Y-59100000D02*
G75*
G03*
X89150000Y-60150000I0J-1050000D01*
G01*
%TD*%
%TA.AperFunction,Conductor*%
%TO.N,GND*%
G36*
X107688121Y-33274002D02*
G01*
X107734614Y-33327658D01*
X107746000Y-33380000D01*
X107746000Y-61133035D01*
X107725998Y-61201156D01*
X107672342Y-61247649D01*
X107602068Y-61257753D01*
X107537488Y-61228259D01*
X107505805Y-61186285D01*
X107415946Y-60993583D01*
X107410466Y-60984093D01*
X107381589Y-60942851D01*
X107371113Y-60934477D01*
X107357666Y-60941545D01*
X106692021Y-61607189D01*
X106684408Y-61621132D01*
X106684539Y-61622966D01*
X106688790Y-61629580D01*
X107358391Y-62299180D01*
X107370161Y-62305607D01*
X107382176Y-62296311D01*
X107410466Y-62255907D01*
X107415946Y-62246417D01*
X107505805Y-62053715D01*
X107552723Y-62000430D01*
X107621000Y-61980969D01*
X107688960Y-62001511D01*
X107735025Y-62055534D01*
X107746000Y-62106965D01*
X107746000Y-67462573D01*
X107743579Y-67487154D01*
X107741024Y-67499999D01*
X107743109Y-67510482D01*
X107741894Y-67525923D01*
X107737082Y-67556306D01*
X107724900Y-67593799D01*
X107708077Y-67626816D01*
X107684905Y-67658708D01*
X107658708Y-67684905D01*
X107626816Y-67708077D01*
X107593799Y-67724900D01*
X107556306Y-67737082D01*
X107534018Y-67740612D01*
X107525923Y-67741894D01*
X107510482Y-67743109D01*
X107499999Y-67741024D01*
X107487828Y-67743445D01*
X107487154Y-67743579D01*
X107462573Y-67746000D01*
X96859500Y-67746000D01*
X96791379Y-67725998D01*
X96744886Y-67672342D01*
X96733500Y-67620000D01*
X96733500Y-67029600D01*
X96733163Y-67026350D01*
X96723238Y-66930692D01*
X96723237Y-66930688D01*
X96722526Y-66923834D01*
X96720195Y-66916845D01*
X96668868Y-66763002D01*
X96666550Y-66756054D01*
X96662382Y-66749319D01*
X97085041Y-66749319D01*
X97094923Y-66761809D01*
X97132259Y-66786756D01*
X97142371Y-66792247D01*
X97323081Y-66869885D01*
X97334014Y-66873437D01*
X97525844Y-66916845D01*
X97537253Y-66918347D01*
X97733783Y-66926068D01*
X97745265Y-66925466D01*
X97939905Y-66897245D01*
X97951101Y-66894557D01*
X98137343Y-66831336D01*
X98147840Y-66826662D01*
X98266401Y-66760266D01*
X98276264Y-66750189D01*
X98275929Y-66749319D01*
X105725041Y-66749319D01*
X105734923Y-66761809D01*
X105772259Y-66786756D01*
X105782371Y-66792247D01*
X105963081Y-66869885D01*
X105974014Y-66873437D01*
X106165844Y-66916845D01*
X106177253Y-66918347D01*
X106373783Y-66926068D01*
X106385265Y-66925466D01*
X106579905Y-66897245D01*
X106591101Y-66894557D01*
X106777343Y-66831336D01*
X106787840Y-66826662D01*
X106906401Y-66760266D01*
X106916264Y-66750189D01*
X106913309Y-66742519D01*
X106332812Y-66162022D01*
X106318868Y-66154408D01*
X106317035Y-66154539D01*
X106310420Y-66158790D01*
X105731237Y-66737973D01*
X105725041Y-66749319D01*
X98275929Y-66749319D01*
X98273309Y-66742519D01*
X97692812Y-66162022D01*
X97678868Y-66154408D01*
X97677035Y-66154539D01*
X97670420Y-66158790D01*
X97091237Y-66737973D01*
X97085041Y-66749319D01*
X96662382Y-66749319D01*
X96573478Y-66605652D01*
X96448303Y-66480695D01*
X96442072Y-66476854D01*
X96303968Y-66391725D01*
X96303966Y-66391724D01*
X96297738Y-66387885D01*
X96186535Y-66351001D01*
X96144680Y-66337118D01*
X96086320Y-66296687D01*
X96059083Y-66231123D01*
X96071616Y-66161242D01*
X96119941Y-66109230D01*
X96142599Y-66098642D01*
X96142799Y-66098572D01*
X96188184Y-66082634D01*
X96195754Y-66077042D01*
X96195757Y-66077041D01*
X96289579Y-66007742D01*
X96297150Y-66002150D01*
X96302742Y-65994579D01*
X96302745Y-65994576D01*
X96338330Y-65946398D01*
X96394891Y-65903487D01*
X96465673Y-65897967D01*
X96528202Y-65931591D01*
X96561804Y-65990242D01*
X96605990Y-66164226D01*
X96609829Y-66175066D01*
X96692173Y-66353685D01*
X96697922Y-66363642D01*
X96707850Y-66377690D01*
X96718439Y-66386078D01*
X96731740Y-66379050D01*
X97307978Y-65802812D01*
X97314356Y-65791132D01*
X98044408Y-65791132D01*
X98044539Y-65792965D01*
X98048790Y-65799580D01*
X98628603Y-66379393D01*
X98640983Y-66386153D01*
X98647563Y-66381227D01*
X98716662Y-66257840D01*
X98721336Y-66247343D01*
X98784557Y-66061101D01*
X98787245Y-66049905D01*
X98815762Y-65853224D01*
X98816392Y-65845843D01*
X98817757Y-65793704D01*
X98817514Y-65786305D01*
X98815647Y-65765980D01*
X105182914Y-65765980D01*
X105195777Y-65962233D01*
X105197577Y-65973601D01*
X105245991Y-66164228D01*
X105249829Y-66175066D01*
X105332173Y-66353685D01*
X105337922Y-66363642D01*
X105347850Y-66377690D01*
X105358439Y-66386078D01*
X105371740Y-66379050D01*
X105947978Y-65802812D01*
X105954356Y-65791132D01*
X106684408Y-65791132D01*
X106684539Y-65792965D01*
X106688790Y-65799580D01*
X107268603Y-66379393D01*
X107280983Y-66386153D01*
X107287563Y-66381227D01*
X107356662Y-66257840D01*
X107361336Y-66247343D01*
X107424557Y-66061101D01*
X107427245Y-66049905D01*
X107455762Y-65853224D01*
X107456392Y-65845843D01*
X107457757Y-65793704D01*
X107457514Y-65786305D01*
X107439330Y-65588397D01*
X107437233Y-65577083D01*
X107383846Y-65387789D01*
X107379724Y-65377050D01*
X107292736Y-65200656D01*
X107291577Y-65198765D01*
X107282732Y-65192126D01*
X107270312Y-65198898D01*
X106692022Y-65777188D01*
X106684408Y-65791132D01*
X105954356Y-65791132D01*
X105955592Y-65788868D01*
X105955461Y-65787035D01*
X105951210Y-65780420D01*
X105370031Y-65199241D01*
X105357651Y-65192481D01*
X105351685Y-65196947D01*
X105271452Y-65349445D01*
X105267047Y-65360079D01*
X105208724Y-65547910D01*
X105206332Y-65559164D01*
X105183215Y-65754479D01*
X105182914Y-65765980D01*
X98815647Y-65765980D01*
X98799330Y-65588397D01*
X98797233Y-65577083D01*
X98743846Y-65387789D01*
X98739724Y-65377050D01*
X98652736Y-65200656D01*
X98651577Y-65198765D01*
X98642732Y-65192126D01*
X98630312Y-65198898D01*
X98052022Y-65777188D01*
X98044408Y-65791132D01*
X97314356Y-65791132D01*
X97315592Y-65788868D01*
X97315461Y-65787035D01*
X97311210Y-65780420D01*
X96730031Y-65199241D01*
X96717651Y-65192481D01*
X96711686Y-65196946D01*
X96663008Y-65289468D01*
X96613589Y-65340440D01*
X96544456Y-65356603D01*
X96477560Y-65332824D01*
X96434140Y-65276653D01*
X96425500Y-65230800D01*
X96425500Y-65126166D01*
X96422519Y-65094631D01*
X96392539Y-65009260D01*
X96388841Y-64938360D01*
X96406658Y-64897509D01*
X96408001Y-64895500D01*
X96433158Y-64857850D01*
X96445339Y-64839621D01*
X96445340Y-64839618D01*
X96451476Y-64830436D01*
X97084547Y-64830436D01*
X97088033Y-64838823D01*
X97667188Y-65417978D01*
X97681132Y-65425592D01*
X97682965Y-65425461D01*
X97689580Y-65421210D01*
X98268407Y-64842383D01*
X98274931Y-64830436D01*
X105724547Y-64830436D01*
X105728033Y-64838823D01*
X106307188Y-65417978D01*
X106321132Y-65425592D01*
X106322965Y-65425461D01*
X106329580Y-65421210D01*
X106908407Y-64842383D01*
X106915167Y-64830003D01*
X106909137Y-64821948D01*
X106841459Y-64779246D01*
X106831211Y-64774025D01*
X106648531Y-64701143D01*
X106637504Y-64697876D01*
X106444605Y-64659506D01*
X106433159Y-64658303D01*
X106236507Y-64655730D01*
X106225027Y-64656633D01*
X106031199Y-64689938D01*
X106020079Y-64692918D01*
X105835557Y-64760992D01*
X105825179Y-64765942D01*
X105734146Y-64820101D01*
X105724547Y-64830436D01*
X98274931Y-64830436D01*
X98275167Y-64830003D01*
X98269137Y-64821948D01*
X98201459Y-64779246D01*
X98191211Y-64774025D01*
X98008531Y-64701143D01*
X97997504Y-64697876D01*
X97804605Y-64659506D01*
X97793159Y-64658303D01*
X97596507Y-64655730D01*
X97585027Y-64656633D01*
X97391199Y-64689938D01*
X97380079Y-64692918D01*
X97195557Y-64760992D01*
X97185179Y-64765942D01*
X97094146Y-64820101D01*
X97084547Y-64830436D01*
X96451476Y-64830436D01*
X96452234Y-64829301D01*
X96467000Y-64755067D01*
X96466999Y-62670161D01*
X96994393Y-62670161D01*
X97003687Y-62682175D01*
X97044088Y-62710464D01*
X97053584Y-62715947D01*
X97243113Y-62804326D01*
X97253405Y-62808072D01*
X97455401Y-62862196D01*
X97466196Y-62864099D01*
X97674525Y-62882326D01*
X97685475Y-62882326D01*
X97893804Y-62864099D01*
X97904599Y-62862196D01*
X98106595Y-62808072D01*
X98116887Y-62804326D01*
X98306416Y-62715947D01*
X98315912Y-62710464D01*
X98357148Y-62681590D01*
X98365523Y-62671112D01*
X98365023Y-62670161D01*
X105634393Y-62670161D01*
X105643687Y-62682175D01*
X105684088Y-62710464D01*
X105693584Y-62715947D01*
X105883113Y-62804326D01*
X105893405Y-62808072D01*
X106095401Y-62862196D01*
X106106196Y-62864099D01*
X106314525Y-62882326D01*
X106325475Y-62882326D01*
X106533804Y-62864099D01*
X106544599Y-62862196D01*
X106746595Y-62808072D01*
X106756887Y-62804326D01*
X106946416Y-62715947D01*
X106955912Y-62710464D01*
X106997148Y-62681590D01*
X107005523Y-62671112D01*
X106998457Y-62657668D01*
X106332811Y-61992021D01*
X106318868Y-61984408D01*
X106317034Y-61984539D01*
X106310420Y-61988790D01*
X105640820Y-62658391D01*
X105634393Y-62670161D01*
X98365023Y-62670161D01*
X98358457Y-62657668D01*
X97692811Y-61992021D01*
X97678868Y-61984408D01*
X97677034Y-61984539D01*
X97670420Y-61988790D01*
X97000820Y-62658391D01*
X96994393Y-62670161D01*
X96466999Y-62670161D01*
X96466999Y-62429823D01*
X96487001Y-62361703D01*
X96540657Y-62315210D01*
X96605971Y-62304494D01*
X96626752Y-62306645D01*
X96642334Y-62298455D01*
X97307979Y-61632811D01*
X97315592Y-61618868D01*
X97315461Y-61617034D01*
X97311210Y-61610420D01*
X96641609Y-60940820D01*
X96629839Y-60934393D01*
X96621213Y-60941067D01*
X96555095Y-60966930D01*
X96485490Y-60952942D01*
X96439347Y-60911413D01*
X96395984Y-60846516D01*
X96311801Y-60790266D01*
X96237567Y-60775500D01*
X95766694Y-60775500D01*
X95698573Y-60755498D01*
X95652080Y-60701842D01*
X95641976Y-60631568D01*
X95670603Y-60568887D01*
X96994477Y-60568887D01*
X97001545Y-60582334D01*
X97667189Y-61247979D01*
X97681132Y-61255592D01*
X97682966Y-61255461D01*
X97689579Y-61251210D01*
X97939192Y-61001597D01*
X97952000Y-60978141D01*
X97952000Y-60912000D01*
X97972002Y-60843879D01*
X98025658Y-60797386D01*
X98078000Y-60786000D01*
X98136674Y-60786000D01*
X98162319Y-60778470D01*
X98329124Y-60611665D01*
X98391436Y-60577639D01*
X98462251Y-60582704D01*
X98507314Y-60611665D01*
X98533190Y-60637541D01*
X98543276Y-60643048D01*
X98546000Y-60635744D01*
X98546000Y-59963661D01*
X98546510Y-59961924D01*
X98544340Y-59962001D01*
X98455331Y-59962001D01*
X98448510Y-59962371D01*
X98397648Y-59967895D01*
X98382396Y-59971521D01*
X98261946Y-60016676D01*
X98246351Y-60025214D01*
X98144276Y-60101715D01*
X98131715Y-60114276D01*
X98055214Y-60216351D01*
X98046676Y-60231946D01*
X98023171Y-60294645D01*
X97980529Y-60351409D01*
X97913968Y-60376109D01*
X97894207Y-60375936D01*
X97685475Y-60357674D01*
X97674525Y-60357674D01*
X97466196Y-60375901D01*
X97455401Y-60377804D01*
X97253405Y-60431928D01*
X97243113Y-60435674D01*
X97053583Y-60524054D01*
X97044093Y-60529534D01*
X97002851Y-60558411D01*
X96994477Y-60568887D01*
X95670603Y-60568887D01*
X95671470Y-60566988D01*
X95710080Y-60536935D01*
X95838072Y-60472563D01*
X95838075Y-60472561D01*
X95844855Y-60469151D01*
X95850626Y-60464222D01*
X95850629Y-60464220D01*
X95959536Y-60371204D01*
X95959536Y-60371203D01*
X95965314Y-60366269D01*
X96057755Y-60237624D01*
X96116842Y-60090641D01*
X96132608Y-59979862D01*
X96138581Y-59937891D01*
X96138581Y-59937888D01*
X96139162Y-59933807D01*
X96139246Y-59925815D01*
X96139264Y-59924134D01*
X96139264Y-59924128D01*
X96139307Y-59920000D01*
X96136138Y-59893808D01*
X96128240Y-59828548D01*
X96120276Y-59762733D01*
X96117592Y-59755630D01*
X96117590Y-59755622D01*
X96114170Y-59746573D01*
X96108801Y-59675779D01*
X96142557Y-59613321D01*
X96187804Y-59584052D01*
X96219764Y-59572071D01*
X96226943Y-59566691D01*
X96226946Y-59566689D01*
X96328224Y-59490785D01*
X96335404Y-59485404D01*
X96394310Y-59406806D01*
X96416689Y-59376946D01*
X96416691Y-59376943D01*
X96422071Y-59369764D01*
X96448778Y-59298522D01*
X96470026Y-59241842D01*
X96470026Y-59241841D01*
X96472798Y-59234447D01*
X96479500Y-59172755D01*
X96479499Y-57827246D01*
X96478929Y-57822000D01*
X96473652Y-57773411D01*
X96473651Y-57773407D01*
X96472798Y-57765553D01*
X96422071Y-57630236D01*
X96416689Y-57623054D01*
X96412377Y-57615179D01*
X96414976Y-57613756D01*
X96395353Y-57561238D01*
X96410404Y-57491855D01*
X96418740Y-57479842D01*
X96421000Y-57469452D01*
X96421000Y-56772115D01*
X96416525Y-56756876D01*
X96415135Y-56755671D01*
X96407452Y-56754000D01*
X95767001Y-56754000D01*
X95767001Y-56753896D01*
X95725746Y-56755369D01*
X95719453Y-56754000D01*
X94697000Y-56754000D01*
X94628879Y-56733998D01*
X94582386Y-56680342D01*
X94571000Y-56628000D01*
X94571000Y-56227885D01*
X95079000Y-56227885D01*
X95083475Y-56243124D01*
X95084865Y-56244329D01*
X95092548Y-56246000D01*
X95732999Y-56246000D01*
X95732999Y-56246104D01*
X95774254Y-56244631D01*
X95780547Y-56246000D01*
X96402885Y-56246000D01*
X96418124Y-56241525D01*
X96419329Y-56240135D01*
X96421000Y-56232452D01*
X96421000Y-55535116D01*
X96416525Y-55519877D01*
X96415135Y-55518672D01*
X96410706Y-55517709D01*
X96351685Y-55523132D01*
X96338649Y-55525743D01*
X96188757Y-55572715D01*
X96175012Y-55578921D01*
X96041426Y-55659824D01*
X96029557Y-55669131D01*
X95919131Y-55779557D01*
X95909824Y-55791426D01*
X95857776Y-55877367D01*
X95805378Y-55925273D01*
X95735399Y-55937246D01*
X95670055Y-55909485D01*
X95642224Y-55877367D01*
X95590176Y-55791426D01*
X95580869Y-55779557D01*
X95470443Y-55669131D01*
X95458574Y-55659824D01*
X95324988Y-55578921D01*
X95311243Y-55572715D01*
X95161356Y-55525744D01*
X95148306Y-55523131D01*
X95093414Y-55518087D01*
X95081876Y-55521475D01*
X95080671Y-55522865D01*
X95079000Y-55530548D01*
X95079000Y-56227885D01*
X94571000Y-56227885D01*
X94571000Y-55535116D01*
X94566525Y-55519877D01*
X94565135Y-55518672D01*
X94544217Y-55514122D01*
X94544520Y-55512727D01*
X94494504Y-55500498D01*
X94445603Y-55449027D01*
X94432292Y-55379290D01*
X94458797Y-55313426D01*
X94482796Y-55290365D01*
X94490723Y-55286326D01*
X94581326Y-55195723D01*
X94639498Y-55081555D01*
X94654500Y-54986834D01*
X94654500Y-54623166D01*
X94639498Y-54528445D01*
X94606002Y-54462706D01*
X94585829Y-54423114D01*
X94585828Y-54423113D01*
X94581326Y-54414277D01*
X94578558Y-54411509D01*
X94555820Y-54347783D01*
X94571899Y-54278631D01*
X94617475Y-54232133D01*
X94649677Y-54213089D01*
X94662104Y-54203449D01*
X94768449Y-54097104D01*
X94778089Y-54084678D01*
X94854648Y-53955221D01*
X94860893Y-53940790D01*
X94899939Y-53806395D01*
X94899899Y-53792294D01*
X94892630Y-53789000D01*
X92163122Y-53789000D01*
X92149591Y-53792973D01*
X92148456Y-53800871D01*
X92189107Y-53940790D01*
X92195352Y-53955221D01*
X92271911Y-54084678D01*
X92281551Y-54097104D01*
X92393502Y-54209055D01*
X92391445Y-54211112D01*
X92424945Y-54257510D01*
X92428787Y-54328403D01*
X92393692Y-54390119D01*
X92330803Y-54423064D01*
X92306147Y-54425500D01*
X92005500Y-54425500D01*
X91937379Y-54405498D01*
X91890886Y-54351842D01*
X91879500Y-54299500D01*
X91879500Y-52725505D01*
X91899502Y-52657384D01*
X91953158Y-52610891D01*
X92023432Y-52600787D01*
X92047109Y-52606574D01*
X92120677Y-52632316D01*
X92127704Y-52633108D01*
X92127705Y-52633108D01*
X92158068Y-52636529D01*
X92174305Y-52638358D01*
X92186718Y-52640389D01*
X92191371Y-52641391D01*
X92198851Y-52644018D01*
X92204416Y-52644500D01*
X92221731Y-52644500D01*
X92235838Y-52645292D01*
X92247921Y-52646653D01*
X92253524Y-52647413D01*
X92264999Y-52649231D01*
X92274792Y-52647680D01*
X92274793Y-52647680D01*
X92285076Y-52646051D01*
X92304787Y-52644500D01*
X92306147Y-52644500D01*
X92374268Y-52664502D01*
X92420761Y-52718158D01*
X92430865Y-52788432D01*
X92401371Y-52853012D01*
X92393256Y-52860699D01*
X92393502Y-52860945D01*
X92281551Y-52972896D01*
X92271911Y-52985322D01*
X92195352Y-53114779D01*
X92189107Y-53129210D01*
X92150061Y-53263605D01*
X92150101Y-53277706D01*
X92157370Y-53281000D01*
X94886878Y-53281000D01*
X94900409Y-53277027D01*
X94901544Y-53269129D01*
X94860893Y-53129210D01*
X94854648Y-53114779D01*
X94778089Y-52985322D01*
X94768449Y-52972896D01*
X94662104Y-52866551D01*
X94649677Y-52856911D01*
X94617475Y-52837867D01*
X94569022Y-52785974D01*
X94556317Y-52716123D01*
X94578418Y-52658631D01*
X94581326Y-52655723D01*
X94585948Y-52646653D01*
X94612466Y-52594607D01*
X94639498Y-52541555D01*
X94654500Y-52446834D01*
X94654500Y-52083166D01*
X94639498Y-51988445D01*
X94581326Y-51874277D01*
X94490723Y-51783674D01*
X94409458Y-51742267D01*
X94357843Y-51693518D01*
X94340777Y-51624603D01*
X94363678Y-51557402D01*
X94409458Y-51517733D01*
X94415313Y-51514750D01*
X94490723Y-51476326D01*
X94581326Y-51385723D01*
X94639498Y-51271555D01*
X94654500Y-51176834D01*
X94654500Y-50813166D01*
X94639498Y-50718445D01*
X94581326Y-50604277D01*
X94490723Y-50513674D01*
X94376555Y-50455502D01*
X94281834Y-50440500D01*
X92768166Y-50440500D01*
X92673445Y-50455502D01*
X92664612Y-50460003D01*
X92664611Y-50460003D01*
X92562703Y-50511928D01*
X92492926Y-50525032D01*
X92427142Y-50498332D01*
X92386235Y-50440304D01*
X92379500Y-50399661D01*
X92379500Y-49964052D01*
X92381051Y-49944341D01*
X92382680Y-49934058D01*
X92382680Y-49934057D01*
X92384231Y-49924264D01*
X92382201Y-49911452D01*
X92380920Y-49899982D01*
X92374739Y-49805667D01*
X92390243Y-49736384D01*
X92440744Y-49686482D01*
X92510206Y-49671804D01*
X92557755Y-49689313D01*
X92559277Y-49686326D01*
X92673445Y-49744498D01*
X92768166Y-49759500D01*
X94281834Y-49759500D01*
X94376555Y-49744498D01*
X94490723Y-49686326D01*
X94581326Y-49595723D01*
X94639498Y-49481555D01*
X94654500Y-49386834D01*
X94654500Y-49023166D01*
X94639498Y-48928445D01*
X94581326Y-48814277D01*
X94578558Y-48811509D01*
X94555820Y-48747783D01*
X94571899Y-48678631D01*
X94617475Y-48632133D01*
X94649677Y-48613089D01*
X94662104Y-48603449D01*
X94768449Y-48497104D01*
X94778089Y-48484678D01*
X94854648Y-48355221D01*
X94860893Y-48340790D01*
X94899939Y-48206395D01*
X94899899Y-48192294D01*
X94892630Y-48189000D01*
X93397000Y-48189000D01*
X93328879Y-48168998D01*
X93282386Y-48115342D01*
X93271000Y-48063000D01*
X93271000Y-47807000D01*
X93291002Y-47738879D01*
X93344658Y-47692386D01*
X93397000Y-47681000D01*
X94886878Y-47681000D01*
X94900409Y-47677027D01*
X94901544Y-47669129D01*
X94860893Y-47529210D01*
X94854648Y-47514779D01*
X94778089Y-47385322D01*
X94768449Y-47372896D01*
X94662104Y-47266551D01*
X94649677Y-47256911D01*
X94617475Y-47237867D01*
X94569022Y-47185974D01*
X94556317Y-47116123D01*
X94578418Y-47058631D01*
X94581326Y-47055723D01*
X94588807Y-47041042D01*
X94617946Y-46983852D01*
X94639498Y-46941555D01*
X94654500Y-46846834D01*
X94654500Y-46483166D01*
X94639498Y-46388445D01*
X94581326Y-46274277D01*
X94490723Y-46183674D01*
X94409458Y-46142267D01*
X94357843Y-46093518D01*
X94340777Y-46024603D01*
X94363678Y-45957402D01*
X94409458Y-45917733D01*
X94430785Y-45906866D01*
X94490723Y-45876326D01*
X94581326Y-45785723D01*
X94639498Y-45671555D01*
X94654500Y-45576834D01*
X94654500Y-45213166D01*
X94639498Y-45118445D01*
X94581326Y-45004277D01*
X94490723Y-44913674D01*
X94376555Y-44855502D01*
X94281834Y-44840500D01*
X93659563Y-44840500D01*
X93591442Y-44820498D01*
X93544949Y-44766842D01*
X93534845Y-44696568D01*
X93542656Y-44667503D01*
X93544107Y-44663895D01*
X93552527Y-44642948D01*
X93568507Y-44603198D01*
X93568508Y-44603196D01*
X93571342Y-44596145D01*
X93588306Y-44476948D01*
X93593081Y-44443395D01*
X93593081Y-44443392D01*
X93593662Y-44439311D01*
X93593807Y-44425504D01*
X93574776Y-44268237D01*
X93518780Y-44120050D01*
X93518647Y-44119857D01*
X93505425Y-44053300D01*
X93531435Y-43987240D01*
X93589031Y-43945728D01*
X93659927Y-43941945D01*
X93675150Y-43946579D01*
X93738581Y-43970358D01*
X93738582Y-43970358D01*
X93745976Y-43973130D01*
X93753826Y-43973983D01*
X93753827Y-43973983D01*
X93783587Y-43977216D01*
X93804611Y-43979500D01*
X94099956Y-43979500D01*
X94395388Y-43979499D01*
X94398782Y-43979130D01*
X94398788Y-43979130D01*
X94446166Y-43973984D01*
X94446170Y-43973983D01*
X94454024Y-43973130D01*
X94582635Y-43924917D01*
X94589814Y-43919537D01*
X94589817Y-43919535D01*
X94685367Y-43847923D01*
X94692544Y-43842544D01*
X94697923Y-43835367D01*
X94769535Y-43739817D01*
X94769537Y-43739814D01*
X94774917Y-43732635D01*
X94792298Y-43686271D01*
X94834939Y-43629506D01*
X94901501Y-43604806D01*
X94910280Y-43604500D01*
X95355176Y-43604499D01*
X95594500Y-43604499D01*
X95662621Y-43624501D01*
X95709114Y-43678157D01*
X95720500Y-43730499D01*
X95720500Y-43905187D01*
X95700498Y-43973308D01*
X95677330Y-44000135D01*
X95610039Y-44058838D01*
X95518950Y-44188444D01*
X95490609Y-44261135D01*
X95468062Y-44318966D01*
X95461406Y-44336037D01*
X95460414Y-44343570D01*
X95460414Y-44343571D01*
X95442855Y-44476948D01*
X95440729Y-44493096D01*
X95447851Y-44557600D01*
X95456692Y-44637680D01*
X95458113Y-44650553D01*
X95460723Y-44657684D01*
X95460723Y-44657686D01*
X95509923Y-44792131D01*
X95512553Y-44799319D01*
X95516789Y-44805622D01*
X95516789Y-44805623D01*
X95594108Y-44920685D01*
X95600908Y-44930805D01*
X95606527Y-44935918D01*
X95606528Y-44935919D01*
X95696394Y-45017690D01*
X95718076Y-45037419D01*
X95857293Y-45113008D01*
X96010522Y-45153207D01*
X96094477Y-45154526D01*
X96161319Y-45155576D01*
X96161322Y-45155576D01*
X96168916Y-45155695D01*
X96323332Y-45120329D01*
X96393742Y-45084917D01*
X96458072Y-45052563D01*
X96458075Y-45052561D01*
X96464855Y-45049151D01*
X96470626Y-45044222D01*
X96470629Y-45044220D01*
X96579536Y-44951204D01*
X96579536Y-44951203D01*
X96585314Y-44946269D01*
X96677755Y-44817624D01*
X96736842Y-44670641D01*
X96755010Y-44542984D01*
X96758581Y-44517891D01*
X96758581Y-44517888D01*
X96759162Y-44513807D01*
X96759307Y-44500000D01*
X96756518Y-44476948D01*
X96741188Y-44350273D01*
X96740276Y-44342733D01*
X96684280Y-44194546D01*
X96668201Y-44171151D01*
X96598855Y-44070251D01*
X96598854Y-44070249D01*
X96594553Y-44063992D01*
X96588882Y-44058940D01*
X96585170Y-44054729D01*
X96555124Y-43990404D01*
X96564625Y-43920046D01*
X96610656Y-43865993D01*
X96678602Y-43845408D01*
X96708827Y-43848820D01*
X96722644Y-43852105D01*
X96773514Y-43857631D01*
X96780328Y-43858000D01*
X96931885Y-43858000D01*
X96947124Y-43853525D01*
X96948329Y-43852135D01*
X96950000Y-43844452D01*
X96950000Y-43839884D01*
X97350000Y-43839884D01*
X97354475Y-43855123D01*
X97355867Y-43856329D01*
X97364430Y-43858192D01*
X97426742Y-43892217D01*
X97444790Y-43915009D01*
X97467788Y-43952173D01*
X97476824Y-43963574D01*
X97587429Y-44073986D01*
X97598840Y-44082998D01*
X97731880Y-44165004D01*
X97745061Y-44171151D01*
X97893814Y-44220491D01*
X97907190Y-44223358D01*
X97998097Y-44232672D01*
X98004513Y-44233000D01*
X98027885Y-44233000D01*
X98043124Y-44228525D01*
X98044329Y-44227135D01*
X98046000Y-44219452D01*
X98046000Y-43547115D01*
X98041525Y-43531876D01*
X98040135Y-43530671D01*
X98032452Y-43529000D01*
X97368115Y-43529000D01*
X97352876Y-43533475D01*
X97351671Y-43534865D01*
X97350000Y-43542548D01*
X97350000Y-43839884D01*
X96950000Y-43839884D01*
X96950000Y-43080500D01*
X96970002Y-43012379D01*
X97023658Y-42965886D01*
X97076000Y-42954500D01*
X97484714Y-42954499D01*
X97500066Y-42954499D01*
X97510513Y-42952421D01*
X97535093Y-42950000D01*
X97913149Y-42950000D01*
X97981270Y-42970002D01*
X98009387Y-43002451D01*
X98028865Y-43019329D01*
X98036548Y-43021000D01*
X98428000Y-43021000D01*
X98496121Y-43041002D01*
X98542614Y-43094658D01*
X98554000Y-43147000D01*
X98554000Y-44214885D01*
X98558475Y-44230124D01*
X98559865Y-44231329D01*
X98567548Y-44233000D01*
X98595438Y-44233000D01*
X98601953Y-44232663D01*
X98694057Y-44223106D01*
X98707456Y-44220212D01*
X98856107Y-44170619D01*
X98869286Y-44164445D01*
X99002173Y-44082212D01*
X99013574Y-44073176D01*
X99070679Y-44015971D01*
X99132961Y-43981892D01*
X99165789Y-43979129D01*
X99167727Y-43979220D01*
X99170685Y-43979500D01*
X99173654Y-43979500D01*
X99500055Y-43979499D01*
X99829314Y-43979499D01*
X99832262Y-43979220D01*
X99832271Y-43979220D01*
X99853478Y-43977216D01*
X99853480Y-43977216D01*
X99861127Y-43976493D01*
X99870197Y-43973308D01*
X99903866Y-43961484D01*
X99990076Y-43931209D01*
X100100010Y-43850010D01*
X100105602Y-43842439D01*
X100105605Y-43842436D01*
X100169713Y-43755641D01*
X100226274Y-43712730D01*
X100271064Y-43704500D01*
X100427390Y-43704500D01*
X100495511Y-43724502D01*
X100542004Y-43778158D01*
X100552108Y-43848432D01*
X100522614Y-43913012D01*
X100487776Y-43941088D01*
X100304301Y-44041272D01*
X100287504Y-44053846D01*
X100128177Y-44173116D01*
X100128170Y-44173122D01*
X100124574Y-44175814D01*
X99965824Y-44334564D01*
X99963132Y-44338160D01*
X99963126Y-44338167D01*
X99861576Y-44473823D01*
X99831282Y-44514291D01*
X99829123Y-44518245D01*
X99738988Y-44683316D01*
X99723687Y-44711337D01*
X99696063Y-44785401D01*
X99653518Y-44842235D01*
X99586998Y-44867046D01*
X99539072Y-44861200D01*
X99535390Y-44860004D01*
X99526555Y-44855502D01*
X99431834Y-44840500D01*
X97918166Y-44840500D01*
X97823445Y-44855502D01*
X97709277Y-44913674D01*
X97618674Y-45004277D01*
X97560502Y-45118445D01*
X97545500Y-45213166D01*
X97545500Y-45576834D01*
X97560502Y-45671555D01*
X97618674Y-45785723D01*
X97709277Y-45876326D01*
X97769215Y-45906866D01*
X97790542Y-45917733D01*
X97842157Y-45966482D01*
X97859223Y-46035397D01*
X97836322Y-46102598D01*
X97790542Y-46142267D01*
X97709277Y-46183674D01*
X97618674Y-46274277D01*
X97560502Y-46388445D01*
X97545500Y-46483166D01*
X97545500Y-46846834D01*
X97560502Y-46941555D01*
X97618674Y-47055723D01*
X97709277Y-47146326D01*
X97790544Y-47187734D01*
X97842158Y-47236481D01*
X97859224Y-47305396D01*
X97836323Y-47372598D01*
X97790550Y-47412263D01*
X97775844Y-47419756D01*
X97729623Y-47433011D01*
X97687878Y-47436664D01*
X97639099Y-47440931D01*
X97639094Y-47440932D01*
X97633618Y-47441411D01*
X97628304Y-47442835D01*
X97628303Y-47442835D01*
X97477601Y-47483215D01*
X97477599Y-47483216D01*
X97472291Y-47484638D01*
X97467311Y-47486960D01*
X97467309Y-47486961D01*
X97325903Y-47552900D01*
X97325900Y-47552902D01*
X97320922Y-47555223D01*
X97184109Y-47651020D01*
X97066010Y-47769119D01*
X96970213Y-47905932D01*
X96967892Y-47910910D01*
X96967890Y-47910913D01*
X96901951Y-48052319D01*
X96899628Y-48057301D01*
X96898206Y-48062609D01*
X96898205Y-48062611D01*
X96869699Y-48168998D01*
X96856401Y-48218628D01*
X96846418Y-48332734D01*
X96845386Y-48344531D01*
X96844366Y-48352928D01*
X96840340Y-48378783D01*
X96841504Y-48387685D01*
X96841504Y-48387688D01*
X96844426Y-48410029D01*
X96845490Y-48426367D01*
X96845490Y-53541408D01*
X96845488Y-53542176D01*
X96845018Y-53619183D01*
X96845400Y-53620518D01*
X96845490Y-53621846D01*
X96845490Y-55154480D01*
X96843990Y-55173865D01*
X96841983Y-55186758D01*
X96840340Y-55197307D01*
X96841504Y-55206209D01*
X96841682Y-55207572D01*
X96842138Y-55211557D01*
X96857875Y-55371335D01*
X96906821Y-55532687D01*
X96914123Y-55546347D01*
X96929000Y-55605742D01*
X96929000Y-57464884D01*
X96933475Y-57480123D01*
X96934865Y-57481328D01*
X96939294Y-57482291D01*
X96998315Y-57476868D01*
X97011351Y-57474257D01*
X97161243Y-57427285D01*
X97174988Y-57421079D01*
X97308574Y-57340176D01*
X97320443Y-57330869D01*
X97430869Y-57220443D01*
X97440176Y-57208574D01*
X97521079Y-57074988D01*
X97530409Y-57054323D01*
X97532856Y-57055428D01*
X97565245Y-57006963D01*
X97630345Y-56978633D01*
X97700426Y-56989996D01*
X97747387Y-57028792D01*
X97799990Y-57100010D01*
X97807561Y-57105602D01*
X97807564Y-57105605D01*
X97901169Y-57174743D01*
X97944080Y-57231304D01*
X97949600Y-57302086D01*
X97915976Y-57364615D01*
X97870539Y-57394076D01*
X97831762Y-57408613D01*
X97780236Y-57427929D01*
X97773057Y-57433309D01*
X97773054Y-57433311D01*
X97694939Y-57491855D01*
X97664596Y-57514596D01*
X97659215Y-57521776D01*
X97583311Y-57623054D01*
X97583309Y-57623057D01*
X97577929Y-57630236D01*
X97567412Y-57658291D01*
X97531913Y-57752987D01*
X97527202Y-57765553D01*
X97526349Y-57773403D01*
X97526349Y-57773404D01*
X97525035Y-57785500D01*
X97520500Y-57827245D01*
X97520501Y-59172754D01*
X97527202Y-59234447D01*
X97577929Y-59369764D01*
X97583309Y-59376943D01*
X97583311Y-59376946D01*
X97605690Y-59406806D01*
X97664596Y-59485404D01*
X97671776Y-59490785D01*
X97773054Y-59566689D01*
X97773057Y-59566691D01*
X97780236Y-59572071D01*
X97788639Y-59575221D01*
X97908158Y-59620026D01*
X97908159Y-59620026D01*
X97915553Y-59622798D01*
X97923403Y-59623651D01*
X97923404Y-59623651D01*
X97973848Y-59629131D01*
X97977245Y-59629500D01*
X98010344Y-59629500D01*
X98463838Y-59629499D01*
X98531959Y-59649501D01*
X98552933Y-59666404D01*
X98633435Y-59746906D01*
X98667461Y-59809218D01*
X98665079Y-59842516D01*
X98689932Y-59838943D01*
X98754512Y-59868437D01*
X98761095Y-59874566D01*
X98808578Y-59922049D01*
X98821224Y-59936816D01*
X98835220Y-59955974D01*
X98842340Y-59961447D01*
X98846291Y-59964484D01*
X98865313Y-59982550D01*
X98924588Y-60051952D01*
X98936209Y-60067948D01*
X98996456Y-60166261D01*
X99005432Y-60183877D01*
X99008596Y-60191516D01*
X99044409Y-60277977D01*
X99054000Y-60326194D01*
X99054000Y-60389790D01*
X99051579Y-60414371D01*
X99048087Y-60431928D01*
X99045500Y-60444933D01*
X99045501Y-61036772D01*
X99045501Y-61168000D01*
X99025499Y-61236121D01*
X98971843Y-61282614D01*
X98919501Y-61294000D01*
X98383326Y-61294000D01*
X98357681Y-61301530D01*
X98052021Y-61607189D01*
X98044408Y-61621132D01*
X98044539Y-61622966D01*
X98048790Y-61629580D01*
X98718391Y-62299180D01*
X98730161Y-62305607D01*
X98742176Y-62296311D01*
X98770466Y-62255907D01*
X98775946Y-62246417D01*
X98801904Y-62190749D01*
X98848821Y-62137464D01*
X98916099Y-62117999D01*
X99144669Y-62117999D01*
X99151490Y-62117629D01*
X99202352Y-62112105D01*
X99217604Y-62108479D01*
X99338058Y-62063323D01*
X99343047Y-62060591D01*
X99412404Y-62045422D01*
X99478952Y-62070158D01*
X99492651Y-62082016D01*
X99571532Y-62160897D01*
X99576040Y-62164054D01*
X99576043Y-62164056D01*
X99690331Y-62244081D01*
X99713360Y-62260206D01*
X99718342Y-62262529D01*
X99718347Y-62262532D01*
X99861166Y-62329129D01*
X99870278Y-62333378D01*
X99875586Y-62334800D01*
X99875588Y-62334801D01*
X99891461Y-62339054D01*
X100037519Y-62378190D01*
X100082602Y-62382134D01*
X100132026Y-62386458D01*
X100139976Y-62387657D01*
X100143851Y-62389018D01*
X100149416Y-62389500D01*
X100161293Y-62389500D01*
X100172276Y-62389980D01*
X100192207Y-62391724D01*
X100199992Y-62392679D01*
X100200204Y-62392679D01*
X100210000Y-62394231D01*
X100219793Y-62392680D01*
X100219794Y-62392680D01*
X100230077Y-62391051D01*
X100249788Y-62389500D01*
X103650211Y-62389500D01*
X103669921Y-62391051D01*
X103689999Y-62394231D01*
X103698024Y-62392960D01*
X103701224Y-62392680D01*
X103701563Y-62392680D01*
X103702402Y-62392577D01*
X103725273Y-62390576D01*
X103879912Y-62377047D01*
X103885225Y-62375623D01*
X103885227Y-62375623D01*
X104058744Y-62329129D01*
X104058746Y-62329128D01*
X104064054Y-62327706D01*
X104069036Y-62325383D01*
X104231850Y-62249462D01*
X104231853Y-62249460D01*
X104236831Y-62247139D01*
X104392993Y-62137794D01*
X104471733Y-62059054D01*
X104534045Y-62025028D01*
X104604860Y-62030093D01*
X104636391Y-62047321D01*
X104646353Y-62054787D01*
X104661946Y-62063324D01*
X104782394Y-62108478D01*
X104797649Y-62112105D01*
X104848514Y-62117631D01*
X104855328Y-62118000D01*
X105083901Y-62118000D01*
X105152022Y-62138002D01*
X105198095Y-62190749D01*
X105224052Y-62246412D01*
X105229534Y-62255907D01*
X105258411Y-62297149D01*
X105268887Y-62305523D01*
X105282334Y-62298455D01*
X105947979Y-61632811D01*
X105955592Y-61618868D01*
X105955461Y-61617034D01*
X105951210Y-61610421D01*
X105647597Y-61306808D01*
X105624141Y-61294000D01*
X105080500Y-61294000D01*
X105012379Y-61273998D01*
X104965886Y-61220342D01*
X104954500Y-61168000D01*
X104954499Y-60465657D01*
X104974501Y-60397536D01*
X105028157Y-60351043D01*
X105043922Y-60345083D01*
X105069510Y-60337321D01*
X105138199Y-60316484D01*
X105143654Y-60313568D01*
X105143657Y-60313567D01*
X105268604Y-60246781D01*
X105338110Y-60232309D01*
X105404406Y-60257713D01*
X105446444Y-60314926D01*
X105454000Y-60357903D01*
X105454000Y-60632235D01*
X105457237Y-60643260D01*
X105464330Y-60640021D01*
X105492686Y-60611665D01*
X105554998Y-60577639D01*
X105625813Y-60582704D01*
X105670876Y-60611665D01*
X105832399Y-60773188D01*
X105855861Y-60786000D01*
X105922000Y-60786000D01*
X105990121Y-60806002D01*
X106036614Y-60859658D01*
X106048000Y-60912000D01*
X106048000Y-60970674D01*
X106055530Y-60996319D01*
X106307189Y-61247979D01*
X106321132Y-61255592D01*
X106322966Y-61255461D01*
X106329580Y-61251210D01*
X106999180Y-60581609D01*
X107005607Y-60569839D01*
X106996313Y-60557825D01*
X106955912Y-60529536D01*
X106946416Y-60524053D01*
X106756887Y-60435674D01*
X106746595Y-60431928D01*
X106544599Y-60377804D01*
X106533804Y-60375901D01*
X106325475Y-60357674D01*
X106314525Y-60357674D01*
X106105793Y-60375936D01*
X106036188Y-60361947D01*
X105985196Y-60312548D01*
X105976829Y-60294645D01*
X105953324Y-60231946D01*
X105944786Y-60216351D01*
X105868285Y-60114276D01*
X105855724Y-60101715D01*
X105753649Y-60025214D01*
X105738054Y-60016676D01*
X105690331Y-59998785D01*
X105633566Y-59956143D01*
X105608867Y-59889581D01*
X105617203Y-59838417D01*
X105616484Y-59838199D01*
X105618113Y-59832829D01*
X105666775Y-59672413D01*
X105675895Y-59579813D01*
X105677240Y-59571210D01*
X105679018Y-59566149D01*
X105679500Y-59560584D01*
X105679500Y-59549400D01*
X105680107Y-59537050D01*
X105682610Y-59511636D01*
X105682680Y-59511091D01*
X105682680Y-59510926D01*
X105682975Y-59507931D01*
X105684231Y-59500001D01*
X105681051Y-59479923D01*
X105679500Y-59460213D01*
X105679500Y-59139510D01*
X105681030Y-59119934D01*
X105681148Y-59119183D01*
X105684231Y-59099581D01*
X105683121Y-59092621D01*
X105667118Y-58837222D01*
X105618620Y-58578860D01*
X105538797Y-58328398D01*
X105457172Y-58151121D01*
X105430474Y-58093136D01*
X105430473Y-58093134D01*
X105428854Y-58089618D01*
X105330873Y-57931401D01*
X105292493Y-57869425D01*
X105292491Y-57869422D01*
X105290451Y-57866128D01*
X105125679Y-57661304D01*
X104937027Y-57478237D01*
X104727343Y-57319694D01*
X104723995Y-57317758D01*
X104723990Y-57317754D01*
X104503147Y-57190008D01*
X104503142Y-57190006D01*
X104499796Y-57188070D01*
X104305533Y-57105605D01*
X104261380Y-57086862D01*
X104261377Y-57086861D01*
X104257820Y-57085351D01*
X104254105Y-57084289D01*
X104254094Y-57084285D01*
X104232714Y-57078173D01*
X104172715Y-57040216D01*
X104149483Y-57001566D01*
X104126880Y-56941749D01*
X104126878Y-56941745D01*
X104124195Y-56934645D01*
X104106307Y-56908618D01*
X104038770Y-56810350D01*
X104038769Y-56810348D01*
X104034468Y-56804091D01*
X103916190Y-56698710D01*
X103908804Y-56694799D01*
X103782903Y-56628138D01*
X103782904Y-56628138D01*
X103776189Y-56624583D01*
X103622548Y-56585991D01*
X103614949Y-56585951D01*
X103614948Y-56585951D01*
X103549096Y-56585606D01*
X103464136Y-56585161D01*
X103456756Y-56586933D01*
X103456754Y-56586933D01*
X103317478Y-56620370D01*
X103317475Y-56620371D01*
X103310099Y-56622142D01*
X103169329Y-56694799D01*
X103049954Y-56798937D01*
X102958865Y-56928543D01*
X102956106Y-56935619D01*
X102956103Y-56935625D01*
X102952680Y-56944406D01*
X102909300Y-57000608D01*
X102842421Y-57024435D01*
X102773277Y-57008322D01*
X102728143Y-56964940D01*
X102676937Y-56882193D01*
X102667901Y-56870792D01*
X102553171Y-56756261D01*
X102541760Y-56747249D01*
X102403757Y-56662184D01*
X102390576Y-56656037D01*
X102236290Y-56604862D01*
X102222914Y-56601995D01*
X102155919Y-56595131D01*
X102090192Y-56568290D01*
X102049410Y-56510176D01*
X102046520Y-56439238D01*
X102082442Y-56377999D01*
X102090928Y-56370701D01*
X102235431Y-56257192D01*
X102240149Y-56253486D01*
X102247843Y-56244620D01*
X102374350Y-56098835D01*
X102374354Y-56098830D01*
X102378281Y-56094304D01*
X102483819Y-55911874D01*
X102552957Y-55712778D01*
X102559286Y-55669131D01*
X102582338Y-55510140D01*
X102582338Y-55510137D01*
X102583199Y-55504200D01*
X102573455Y-55293667D01*
X102554767Y-55216120D01*
X102525482Y-55094607D01*
X102525481Y-55094605D01*
X102524076Y-55088774D01*
X102519807Y-55079383D01*
X102439323Y-54902371D01*
X102436843Y-54896916D01*
X102314904Y-54725014D01*
X102162660Y-54579272D01*
X102135971Y-54562039D01*
X101990640Y-54468200D01*
X101990637Y-54468199D01*
X101985603Y-54464948D01*
X101790122Y-54386166D01*
X101629834Y-54354864D01*
X101587717Y-54346639D01*
X101587714Y-54346639D01*
X101583271Y-54345771D01*
X101577730Y-54345500D01*
X101272341Y-54345500D01*
X101174194Y-54354864D01*
X101104482Y-54341423D01*
X101053103Y-54292425D01*
X101036370Y-54223429D01*
X101059596Y-54156339D01*
X101073132Y-54140339D01*
X101122440Y-54091031D01*
X101184752Y-54057005D01*
X101217690Y-54054276D01*
X101220729Y-54054425D01*
X101220744Y-54054425D01*
X101222270Y-54054500D01*
X101527659Y-54054500D01*
X101684806Y-54039507D01*
X101887042Y-53980177D01*
X101992771Y-53925723D01*
X102069079Y-53886422D01*
X102069082Y-53886420D01*
X102074410Y-53883676D01*
X102179712Y-53800960D01*
X102235432Y-53757192D01*
X102235436Y-53757188D01*
X102240149Y-53753486D01*
X102244081Y-53748955D01*
X102374350Y-53598835D01*
X102374354Y-53598830D01*
X102378281Y-53594304D01*
X102483819Y-53411874D01*
X102521279Y-53304000D01*
X104013500Y-53304000D01*
X107386500Y-53304000D01*
X107386500Y-40496000D01*
X104013500Y-40496000D01*
X104013500Y-53304000D01*
X102521279Y-53304000D01*
X102552957Y-53212778D01*
X102561609Y-53153110D01*
X102582338Y-53010140D01*
X102582338Y-53010137D01*
X102583199Y-53004200D01*
X102573455Y-52793667D01*
X102563131Y-52750826D01*
X102525482Y-52594607D01*
X102525481Y-52594605D01*
X102524076Y-52588774D01*
X102501925Y-52540054D01*
X102449294Y-52424301D01*
X102436843Y-52396916D01*
X102314904Y-52225014D01*
X102162660Y-52079272D01*
X102065171Y-52016324D01*
X101990640Y-51968200D01*
X101990637Y-51968199D01*
X101985603Y-51964948D01*
X101790122Y-51886166D01*
X101629834Y-51854864D01*
X101587717Y-51846639D01*
X101587714Y-51846639D01*
X101583271Y-51845771D01*
X101577730Y-51845500D01*
X101272341Y-51845500D01*
X101174195Y-51854864D01*
X101104483Y-51841423D01*
X101053104Y-51792425D01*
X101036371Y-51723429D01*
X101059597Y-51656339D01*
X101073133Y-51640339D01*
X101122441Y-51591031D01*
X101184753Y-51557005D01*
X101217691Y-51554276D01*
X101218505Y-51554316D01*
X101220731Y-51554425D01*
X101220742Y-51554425D01*
X101222270Y-51554500D01*
X101527659Y-51554500D01*
X101684806Y-51539507D01*
X101743739Y-51522218D01*
X101881278Y-51481868D01*
X101887042Y-51480177D01*
X101962440Y-51441345D01*
X102069079Y-51386422D01*
X102069082Y-51386420D01*
X102074410Y-51383676D01*
X102148218Y-51325699D01*
X102235432Y-51257192D01*
X102235436Y-51257188D01*
X102240149Y-51253486D01*
X102278005Y-51209861D01*
X102374350Y-51098835D01*
X102374354Y-51098830D01*
X102378281Y-51094304D01*
X102483819Y-50911874D01*
X102552957Y-50712778D01*
X102559853Y-50665220D01*
X102582338Y-50510140D01*
X102582338Y-50510137D01*
X102583199Y-50504200D01*
X102573455Y-50293667D01*
X102549233Y-50193158D01*
X102525482Y-50094607D01*
X102525481Y-50094605D01*
X102524076Y-50088774D01*
X102514573Y-50067872D01*
X102458406Y-49944341D01*
X102436843Y-49896916D01*
X102328725Y-49744498D01*
X102318370Y-49729900D01*
X102318369Y-49729899D01*
X102314904Y-49725014D01*
X102162660Y-49579272D01*
X102011323Y-49481555D01*
X101990640Y-49468200D01*
X101990637Y-49468199D01*
X101985603Y-49464948D01*
X101790122Y-49386166D01*
X101627038Y-49354318D01*
X101587717Y-49346639D01*
X101587714Y-49346639D01*
X101583271Y-49345771D01*
X101577730Y-49345500D01*
X101272341Y-49345500D01*
X101115194Y-49360493D01*
X101005302Y-49392732D01*
X100934306Y-49392716D01*
X100874589Y-49354318D01*
X100845111Y-49289731D01*
X100855232Y-49219459D01*
X100880738Y-49182733D01*
X100995718Y-49067753D01*
X101058030Y-49033727D01*
X101108963Y-49033184D01*
X101212283Y-49053361D01*
X101212286Y-49053361D01*
X101216729Y-49054229D01*
X101222270Y-49054500D01*
X101527659Y-49054500D01*
X101684806Y-49039507D01*
X101723621Y-49028120D01*
X101881278Y-48981868D01*
X101887042Y-48980177D01*
X101962440Y-48941345D01*
X102069079Y-48886422D01*
X102069082Y-48886420D01*
X102074410Y-48883676D01*
X102162759Y-48814277D01*
X102235432Y-48757192D01*
X102235436Y-48757188D01*
X102240149Y-48753486D01*
X102285804Y-48700874D01*
X102374350Y-48598835D01*
X102374354Y-48598830D01*
X102378281Y-48594304D01*
X102483819Y-48411874D01*
X102552957Y-48212778D01*
X102553883Y-48206395D01*
X102582338Y-48010140D01*
X102582338Y-48010137D01*
X102583199Y-48004200D01*
X102573455Y-47793667D01*
X102568627Y-47773631D01*
X102525482Y-47594607D01*
X102525481Y-47594605D01*
X102524076Y-47588774D01*
X102508822Y-47555223D01*
X102457074Y-47441411D01*
X102436843Y-47396916D01*
X102314904Y-47225014D01*
X102162660Y-47079272D01*
X102065171Y-47016324D01*
X101990640Y-46968200D01*
X101990637Y-46968199D01*
X101985603Y-46964948D01*
X101975643Y-46960934D01*
X101960226Y-46954720D01*
X101904521Y-46910704D01*
X101881456Y-46843558D01*
X101898354Y-46774602D01*
X101955576Y-46722973D01*
X102132970Y-46643063D01*
X102142256Y-46637894D01*
X102324575Y-46515150D01*
X102332870Y-46508481D01*
X102491900Y-46356772D01*
X102498941Y-46348814D01*
X102630141Y-46172475D01*
X102635745Y-46163438D01*
X102735357Y-45967516D01*
X102739357Y-45957665D01*
X102804534Y-45747760D01*
X102806817Y-45737376D01*
X102808861Y-45721957D01*
X102806665Y-45707793D01*
X102793478Y-45704000D01*
X101272000Y-45704000D01*
X101203879Y-45683998D01*
X101157386Y-45630342D01*
X101146000Y-45578000D01*
X101146000Y-45322000D01*
X101166002Y-45253879D01*
X101219658Y-45207386D01*
X101272000Y-45196000D01*
X102791192Y-45196000D01*
X102804723Y-45192027D01*
X102806248Y-45181420D01*
X102781523Y-45063579D01*
X102778463Y-45053383D01*
X102697737Y-44848971D01*
X102693006Y-44839439D01*
X102578984Y-44651538D01*
X102572720Y-44642948D01*
X102428673Y-44476948D01*
X102421044Y-44469530D01*
X102410813Y-44461141D01*
X102370818Y-44402482D01*
X102368885Y-44331512D01*
X102405629Y-44270763D01*
X102415177Y-44262851D01*
X102512443Y-44190039D01*
X102664569Y-44037913D01*
X102793496Y-43865686D01*
X102886490Y-43695381D01*
X102894447Y-43680809D01*
X102894448Y-43680807D01*
X102896601Y-43676864D01*
X102914265Y-43629506D01*
X102970215Y-43479499D01*
X102970217Y-43479493D01*
X102971784Y-43475291D01*
X102973776Y-43466137D01*
X103016558Y-43269463D01*
X103017514Y-43265069D01*
X103027801Y-43121245D01*
X103028406Y-43117006D01*
X103028538Y-43116629D01*
X103029020Y-43111064D01*
X103029020Y-43108354D01*
X103029091Y-43106712D01*
X103029341Y-43099710D01*
X103031744Y-43066108D01*
X103032200Y-43062133D01*
X103032200Y-43060272D01*
X103033751Y-43050480D01*
X103030571Y-43030402D01*
X103029020Y-43010692D01*
X103029020Y-36739308D01*
X103030571Y-36719597D01*
X103032200Y-36709310D01*
X103033751Y-36699520D01*
X103032712Y-36692958D01*
X103029388Y-36646472D01*
X103022728Y-36553361D01*
X103016558Y-36467094D01*
X103000428Y-36392947D01*
X102967985Y-36243807D01*
X102967984Y-36243803D01*
X102967026Y-36239400D01*
X102885594Y-36021072D01*
X102773919Y-35816556D01*
X102634276Y-35630014D01*
X102618399Y-35614137D01*
X102584373Y-35551825D01*
X102583125Y-35516179D01*
X102582045Y-35516126D01*
X102582337Y-35510142D01*
X102583199Y-35504200D01*
X102573455Y-35293667D01*
X102524076Y-35088774D01*
X102488381Y-35010266D01*
X102462021Y-34952291D01*
X102436843Y-34896916D01*
X102314904Y-34725014D01*
X102162660Y-34579272D01*
X102070949Y-34520055D01*
X101990640Y-34468200D01*
X101990637Y-34468199D01*
X101985603Y-34464948D01*
X101790122Y-34386166D01*
X101655739Y-34359923D01*
X101587717Y-34346639D01*
X101587714Y-34346639D01*
X101583271Y-34345771D01*
X101577730Y-34345500D01*
X101272341Y-34345500D01*
X101115194Y-34360493D01*
X100999811Y-34394343D01*
X100928816Y-34394327D01*
X100869098Y-34355929D01*
X100841978Y-34303492D01*
X100841189Y-34300282D01*
X100840276Y-34292733D01*
X100784280Y-34144546D01*
X100725914Y-34059623D01*
X100698855Y-34020251D01*
X100698854Y-34020249D01*
X100694553Y-34013992D01*
X100576275Y-33908611D01*
X100568889Y-33904700D01*
X100442988Y-33838039D01*
X100442989Y-33838039D01*
X100436274Y-33834484D01*
X100282633Y-33795892D01*
X100275034Y-33795852D01*
X100275033Y-33795852D01*
X100209181Y-33795507D01*
X100124221Y-33795062D01*
X100116841Y-33796834D01*
X100116839Y-33796834D01*
X99977563Y-33830271D01*
X99977560Y-33830272D01*
X99970184Y-33832043D01*
X99829414Y-33904700D01*
X99823695Y-33909689D01*
X99730111Y-33991328D01*
X99665628Y-34021036D01*
X99603989Y-34013398D01*
X99599301Y-34010266D01*
X99587132Y-34007845D01*
X99587131Y-34007845D01*
X99531135Y-33996707D01*
X99525067Y-33995500D01*
X99075073Y-33995500D01*
X98624934Y-33995501D01*
X98589182Y-34002612D01*
X98562874Y-34007844D01*
X98562872Y-34007845D01*
X98550699Y-34010266D01*
X98540379Y-34017161D01*
X98540378Y-34017162D01*
X98479985Y-34057516D01*
X98466516Y-34066516D01*
X98410266Y-34150699D01*
X98407845Y-34162871D01*
X98403070Y-34186877D01*
X98370163Y-34249786D01*
X98349948Y-34266681D01*
X98345054Y-34269297D01*
X98340265Y-34273228D01*
X98340264Y-34273228D01*
X98210433Y-34379779D01*
X98145086Y-34407533D01*
X98075108Y-34395552D01*
X98022716Y-34347639D01*
X98004499Y-34282380D01*
X98004499Y-34224934D01*
X97989734Y-34150699D01*
X97933484Y-34066516D01*
X97849301Y-34010266D01*
X97775067Y-33995500D01*
X97325073Y-33995500D01*
X96874934Y-33995501D01*
X96839182Y-34002612D01*
X96812874Y-34007844D01*
X96812872Y-34007845D01*
X96800699Y-34010266D01*
X96790379Y-34017161D01*
X96790378Y-34017162D01*
X96729985Y-34057516D01*
X96716516Y-34066516D01*
X96660266Y-34150699D01*
X96657845Y-34162871D01*
X96646566Y-34219574D01*
X96613658Y-34282483D01*
X96595258Y-34298205D01*
X96534115Y-34341018D01*
X96469095Y-34406038D01*
X96406783Y-34440064D01*
X96335968Y-34434999D01*
X96279132Y-34392452D01*
X96254321Y-34325932D01*
X96254000Y-34316943D01*
X96254000Y-33537427D01*
X96256421Y-33512846D01*
X96256555Y-33512172D01*
X96258976Y-33500001D01*
X96256891Y-33489518D01*
X96258106Y-33474077D01*
X96262918Y-33443694D01*
X96275100Y-33406201D01*
X96291923Y-33373184D01*
X96315095Y-33341292D01*
X96341292Y-33315095D01*
X96373184Y-33291923D01*
X96406201Y-33275100D01*
X96443694Y-33262918D01*
X96474077Y-33258106D01*
X96489518Y-33256891D01*
X96500001Y-33258976D01*
X96512172Y-33256555D01*
X96512846Y-33256421D01*
X96537427Y-33254000D01*
X107620000Y-33254000D01*
X107688121Y-33274002D01*
G37*
%TD.AperFunction*%
%TA.AperFunction,Conductor*%
G36*
X74747226Y-56131271D02*
G01*
X74804524Y-56173193D01*
X74830062Y-56239438D01*
X74830489Y-56249802D01*
X74830489Y-56337357D01*
X74815611Y-56396753D01*
X74782521Y-56458660D01*
X74780725Y-56464580D01*
X74780724Y-56464583D01*
X74743387Y-56587669D01*
X74741396Y-56594232D01*
X74739098Y-56617561D01*
X74736024Y-56648765D01*
X74733955Y-56662000D01*
X74731471Y-56669074D01*
X74730989Y-56674639D01*
X74730989Y-56693699D01*
X74730382Y-56706052D01*
X74729930Y-56710640D01*
X74728986Y-56717995D01*
X74726258Y-56735222D01*
X74727809Y-56745014D01*
X74729438Y-56755299D01*
X74730989Y-56775010D01*
X74730989Y-58930702D01*
X74729438Y-58950412D01*
X74726258Y-58970490D01*
X74729105Y-58988460D01*
X74729373Y-58990155D01*
X74730316Y-58997511D01*
X74740958Y-59105560D01*
X74742753Y-59111478D01*
X74742754Y-59111482D01*
X74778559Y-59229516D01*
X74780356Y-59235439D01*
X74844336Y-59355137D01*
X74930438Y-59460052D01*
X75035353Y-59546154D01*
X75040811Y-59549072D01*
X75040812Y-59549072D01*
X75071812Y-59565642D01*
X75155051Y-59610134D01*
X75160971Y-59611930D01*
X75160974Y-59611931D01*
X75279008Y-59647736D01*
X75279012Y-59647737D01*
X75284930Y-59649532D01*
X75291093Y-59650139D01*
X75332294Y-59654197D01*
X75346402Y-59656403D01*
X75353850Y-59659019D01*
X75359415Y-59659501D01*
X75379961Y-59659501D01*
X75392268Y-59660104D01*
X75392950Y-59660171D01*
X75400323Y-59661115D01*
X75420000Y-59664232D01*
X75440078Y-59661052D01*
X75459788Y-59659501D01*
X79074501Y-59659501D01*
X79142622Y-59679503D01*
X79189115Y-59733159D01*
X79200501Y-59785501D01*
X79200501Y-62588659D01*
X79198950Y-62608369D01*
X79195770Y-62628447D01*
X79196386Y-62632337D01*
X79206162Y-62831328D01*
X79213175Y-62974080D01*
X79213411Y-62978893D01*
X79264894Y-63325965D01*
X79350148Y-63666319D01*
X79468353Y-63996677D01*
X79469673Y-63999467D01*
X79469673Y-63999468D01*
X79516010Y-64097439D01*
X79618368Y-64313859D01*
X79619951Y-64316500D01*
X79797162Y-64612160D01*
X79797168Y-64612169D01*
X79798751Y-64614810D01*
X79800594Y-64617295D01*
X79832912Y-64660871D01*
X79857426Y-64727501D01*
X79842025Y-64796808D01*
X79789498Y-64847895D01*
X79679386Y-64904728D01*
X79560011Y-65008866D01*
X79468922Y-65138472D01*
X79448003Y-65192126D01*
X79415048Y-65276653D01*
X79411378Y-65286065D01*
X79410386Y-65293598D01*
X79410386Y-65293599D01*
X79394012Y-65417978D01*
X79390701Y-65443124D01*
X79391535Y-65450674D01*
X79406740Y-65588397D01*
X79408085Y-65600581D01*
X79410695Y-65607712D01*
X79410695Y-65607714D01*
X79447259Y-65707629D01*
X79462525Y-65749347D01*
X79466761Y-65755650D01*
X79466761Y-65755651D01*
X79535476Y-65857909D01*
X79550880Y-65880833D01*
X79556499Y-65885946D01*
X79556500Y-65885947D01*
X79629271Y-65952163D01*
X79666194Y-66012803D01*
X79670472Y-66045357D01*
X79670472Y-66610193D01*
X79668921Y-66629903D01*
X79665741Y-66649981D01*
X79667292Y-66659774D01*
X79667292Y-66660123D01*
X79668001Y-66665650D01*
X79682474Y-66812595D01*
X79729907Y-66968960D01*
X79732823Y-66974415D01*
X79732824Y-66974418D01*
X79804016Y-67107608D01*
X79806934Y-67113067D01*
X79910595Y-67239377D01*
X80036905Y-67343038D01*
X80042363Y-67345956D01*
X80042364Y-67345956D01*
X80175554Y-67417148D01*
X80175557Y-67417149D01*
X80181012Y-67420065D01*
X80337377Y-67467498D01*
X80418111Y-67475450D01*
X80428153Y-67477020D01*
X80433843Y-67479018D01*
X80439408Y-67479500D01*
X80453049Y-67479500D01*
X80465398Y-67480107D01*
X80474983Y-67481051D01*
X80484318Y-67481970D01*
X80489848Y-67482680D01*
X80490198Y-67482680D01*
X80499991Y-67484231D01*
X80520069Y-67481051D01*
X80539779Y-67479500D01*
X82550359Y-67479500D01*
X82618480Y-67499502D01*
X82664555Y-67552253D01*
X82671316Y-67566753D01*
X82681975Y-67636945D01*
X82652994Y-67701757D01*
X82593573Y-67740612D01*
X82557120Y-67746000D01*
X72380000Y-67746000D01*
X72311879Y-67725998D01*
X72265386Y-67672342D01*
X72254000Y-67620000D01*
X72254000Y-62122095D01*
X73092001Y-62122095D01*
X73092338Y-62128614D01*
X73102257Y-62224206D01*
X73105149Y-62237600D01*
X73156588Y-62391784D01*
X73162761Y-62404962D01*
X73248063Y-62542807D01*
X73257099Y-62554208D01*
X73371829Y-62668739D01*
X73383240Y-62677751D01*
X73521243Y-62762816D01*
X73534424Y-62768963D01*
X73688710Y-62820138D01*
X73702086Y-62823005D01*
X73796438Y-62832672D01*
X73802854Y-62833000D01*
X74177885Y-62833000D01*
X74193124Y-62828525D01*
X74194329Y-62827135D01*
X74196000Y-62819452D01*
X74196000Y-62814884D01*
X74704000Y-62814884D01*
X74708475Y-62830123D01*
X74709865Y-62831328D01*
X74717548Y-62832999D01*
X75097095Y-62832999D01*
X75103614Y-62832662D01*
X75199206Y-62822743D01*
X75212600Y-62819851D01*
X75366784Y-62768412D01*
X75379962Y-62762239D01*
X75517807Y-62676937D01*
X75529208Y-62667901D01*
X75643739Y-62553171D01*
X75652751Y-62541760D01*
X75737816Y-62403757D01*
X75743963Y-62390576D01*
X75795138Y-62236290D01*
X75798005Y-62222914D01*
X75804869Y-62155919D01*
X75831710Y-62090192D01*
X75889824Y-62049410D01*
X75960762Y-62046520D01*
X76022001Y-62082442D01*
X76029299Y-62090928D01*
X76146514Y-62240149D01*
X76151044Y-62244080D01*
X76151045Y-62244081D01*
X76301165Y-62374350D01*
X76301170Y-62374354D01*
X76305696Y-62378281D01*
X76488126Y-62483819D01*
X76687222Y-62552957D01*
X76693155Y-62553817D01*
X76693158Y-62553818D01*
X76889860Y-62582338D01*
X76889863Y-62582338D01*
X76895800Y-62583199D01*
X77106333Y-62573455D01*
X77112157Y-62572051D01*
X77112160Y-62572051D01*
X77305393Y-62525482D01*
X77305395Y-62525481D01*
X77311226Y-62524076D01*
X77316684Y-62521594D01*
X77316688Y-62521593D01*
X77490391Y-62442614D01*
X77503084Y-62436843D01*
X77652217Y-62331055D01*
X77670100Y-62318370D01*
X77670101Y-62318369D01*
X77674986Y-62314904D01*
X77820728Y-62162660D01*
X77886633Y-62060591D01*
X77931800Y-61990640D01*
X77931801Y-61990637D01*
X77935052Y-61985603D01*
X78013834Y-61790122D01*
X78046835Y-61621132D01*
X78053361Y-61587717D01*
X78053361Y-61587714D01*
X78054229Y-61583271D01*
X78054500Y-61577730D01*
X78054500Y-61272341D01*
X78039507Y-61115194D01*
X77980177Y-60912958D01*
X77939382Y-60833750D01*
X77886422Y-60730921D01*
X77886420Y-60730918D01*
X77883676Y-60725590D01*
X77816461Y-60640021D01*
X77757192Y-60564568D01*
X77757188Y-60564564D01*
X77753486Y-60559851D01*
X77727078Y-60536935D01*
X77598835Y-60425650D01*
X77598830Y-60425646D01*
X77594304Y-60421719D01*
X77411874Y-60316181D01*
X77212778Y-60247043D01*
X77206845Y-60246183D01*
X77206842Y-60246182D01*
X77010140Y-60217662D01*
X77010137Y-60217662D01*
X77004200Y-60216801D01*
X76793667Y-60226545D01*
X76787843Y-60227949D01*
X76787840Y-60227949D01*
X76594607Y-60274518D01*
X76594605Y-60274519D01*
X76588774Y-60275924D01*
X76583316Y-60278406D01*
X76583312Y-60278407D01*
X76513995Y-60309924D01*
X76396916Y-60363157D01*
X76225014Y-60485096D01*
X76079272Y-60637340D01*
X76076021Y-60642375D01*
X76036447Y-60703664D01*
X75982692Y-60750042D01*
X75912396Y-60759995D01*
X75847879Y-60730363D01*
X75809623Y-60670555D01*
X75805268Y-60648319D01*
X75797743Y-60575794D01*
X75794851Y-60562400D01*
X75743412Y-60408216D01*
X75737239Y-60395038D01*
X75651937Y-60257193D01*
X75642901Y-60245792D01*
X75528171Y-60131261D01*
X75516760Y-60122249D01*
X75378757Y-60037184D01*
X75365576Y-60031037D01*
X75211290Y-59979862D01*
X75197914Y-59976995D01*
X75103562Y-59967328D01*
X75097145Y-59967000D01*
X74722115Y-59967000D01*
X74706876Y-59971475D01*
X74705671Y-59972865D01*
X74704000Y-59980548D01*
X74704000Y-62814884D01*
X74196000Y-62814884D01*
X74196000Y-61672115D01*
X74191525Y-61656876D01*
X74190135Y-61655671D01*
X74182452Y-61654000D01*
X73110116Y-61654000D01*
X73094877Y-61658475D01*
X73093672Y-61659865D01*
X73092001Y-61667548D01*
X73092001Y-62122095D01*
X72254000Y-62122095D01*
X72254000Y-61127885D01*
X73092000Y-61127885D01*
X73096475Y-61143124D01*
X73097865Y-61144329D01*
X73105548Y-61146000D01*
X74177885Y-61146000D01*
X74193124Y-61141525D01*
X74194329Y-61140135D01*
X74196000Y-61132452D01*
X74196000Y-59985116D01*
X74191525Y-59969877D01*
X74190135Y-59968672D01*
X74182452Y-59967001D01*
X73802905Y-59967001D01*
X73796386Y-59967338D01*
X73700794Y-59977257D01*
X73687400Y-59980149D01*
X73533216Y-60031588D01*
X73520038Y-60037761D01*
X73382193Y-60123063D01*
X73370792Y-60132099D01*
X73256261Y-60246829D01*
X73247249Y-60258240D01*
X73162184Y-60396243D01*
X73156037Y-60409424D01*
X73104862Y-60563710D01*
X73101995Y-60577086D01*
X73092328Y-60671438D01*
X73092000Y-60677855D01*
X73092000Y-61127885D01*
X72254000Y-61127885D01*
X72254000Y-57785500D01*
X72274002Y-57717379D01*
X72327658Y-57670886D01*
X72380000Y-57659500D01*
X74037464Y-57659499D01*
X74125066Y-57659499D01*
X74160818Y-57652388D01*
X74187126Y-57647156D01*
X74187128Y-57647155D01*
X74199301Y-57644734D01*
X74209621Y-57637839D01*
X74209622Y-57637838D01*
X74273168Y-57595377D01*
X74283484Y-57588484D01*
X74339734Y-57504301D01*
X74354500Y-57430067D01*
X74354499Y-56479934D01*
X74339734Y-56405699D01*
X74329247Y-56390004D01*
X74308030Y-56322252D01*
X74329247Y-56249995D01*
X74331847Y-56246104D01*
X74339734Y-56234301D01*
X74340982Y-56228028D01*
X74382918Y-56175988D01*
X74456756Y-56153504D01*
X74489268Y-56154015D01*
X74546298Y-56154911D01*
X74546301Y-56154911D01*
X74553895Y-56155030D01*
X74676359Y-56126982D01*
X74747226Y-56131271D01*
G37*
%TD.AperFunction*%
%TA.AperFunction,Conductor*%
G36*
X87162687Y-65861712D02*
G01*
X87188393Y-65889695D01*
X87236627Y-65961474D01*
X87236631Y-65961478D01*
X87240868Y-65967784D01*
X87246487Y-65972897D01*
X87246488Y-65972898D01*
X87305041Y-66026177D01*
X87358036Y-66074398D01*
X87497253Y-66149987D01*
X87650482Y-66190186D01*
X87734437Y-66191505D01*
X87801279Y-66192555D01*
X87801282Y-66192555D01*
X87808876Y-66192674D01*
X87963292Y-66157308D01*
X88033702Y-66121896D01*
X88098032Y-66089542D01*
X88098035Y-66089540D01*
X88104815Y-66086130D01*
X88110586Y-66081201D01*
X88110589Y-66081199D01*
X88219502Y-65988178D01*
X88219503Y-65988177D01*
X88225274Y-65983248D01*
X88229703Y-65977084D01*
X88234849Y-65971488D01*
X88235788Y-65972351D01*
X88285681Y-65933456D01*
X88356384Y-65927007D01*
X88419349Y-65959808D01*
X88433364Y-65975769D01*
X88447255Y-65994576D01*
X88447258Y-65994579D01*
X88452850Y-66002150D01*
X88460421Y-66007742D01*
X88554243Y-66077041D01*
X88554246Y-66077042D01*
X88561816Y-66082634D01*
X88607203Y-66098573D01*
X88664847Y-66140015D01*
X88690936Y-66206044D01*
X88677186Y-66275696D01*
X88627961Y-66326857D01*
X88605331Y-66336978D01*
X88458007Y-66386130D01*
X88458005Y-66386131D01*
X88451054Y-66388450D01*
X88300652Y-66481522D01*
X88175695Y-66606697D01*
X88171855Y-66612927D01*
X88171854Y-66612928D01*
X88105546Y-66720500D01*
X88082885Y-66757262D01*
X88080581Y-66764209D01*
X88037347Y-66894557D01*
X88027203Y-66925139D01*
X88016500Y-67029600D01*
X88016500Y-67620000D01*
X87996498Y-67688121D01*
X87942842Y-67734614D01*
X87890500Y-67746000D01*
X85720082Y-67746000D01*
X85651961Y-67725998D01*
X85605468Y-67672342D01*
X85595364Y-67602068D01*
X85603673Y-67571783D01*
X85615155Y-67544063D01*
X85619394Y-67528242D01*
X85632462Y-67428981D01*
X85633000Y-67420772D01*
X85633000Y-66959000D01*
X85653002Y-66890879D01*
X85706658Y-66844386D01*
X85759000Y-66833000D01*
X86220772Y-66833000D01*
X86228981Y-66832462D01*
X86328242Y-66819394D01*
X86344060Y-66815156D01*
X86467582Y-66763991D01*
X86481763Y-66755804D01*
X86587835Y-66674413D01*
X86599414Y-66662833D01*
X86680802Y-66556765D01*
X86688992Y-66542579D01*
X86740156Y-66419059D01*
X86744394Y-66403242D01*
X86757462Y-66303981D01*
X86758000Y-66295772D01*
X86758000Y-66104228D01*
X86757462Y-66096019D01*
X86749013Y-66031841D01*
X86759953Y-65961692D01*
X86807081Y-65908594D01*
X86855354Y-65891950D01*
X86855269Y-65891580D01*
X86862664Y-65889886D01*
X86862667Y-65889886D01*
X86929722Y-65874528D01*
X87009685Y-65856214D01*
X87027198Y-65847406D01*
X87097043Y-65834668D01*
X87162687Y-65861712D01*
G37*
%TD.AperFunction*%
%TA.AperFunction,Conductor*%
G36*
X92641677Y-64950502D02*
G01*
X92688170Y-65004158D01*
X92698274Y-65074432D01*
X92693149Y-65096167D01*
X92659722Y-65196947D01*
X92652195Y-65219641D01*
X92651495Y-65226478D01*
X92651494Y-65226480D01*
X92647119Y-65269179D01*
X92641500Y-65324023D01*
X92641501Y-65933456D01*
X92641501Y-66440271D01*
X92621499Y-66508392D01*
X92567843Y-66554885D01*
X92515501Y-66566271D01*
X91936500Y-66566271D01*
X91868379Y-66546269D01*
X91821886Y-66492613D01*
X91810500Y-66440271D01*
X91810499Y-65323594D01*
X91810499Y-65320628D01*
X91807522Y-65289125D01*
X91762699Y-65161488D01*
X91740444Y-65131357D01*
X91716062Y-65064682D01*
X91731598Y-64995406D01*
X91782122Y-64945527D01*
X91841796Y-64930500D01*
X92573556Y-64930500D01*
X92641677Y-64950502D01*
G37*
%TD.AperFunction*%
%TA.AperFunction,Conductor*%
G36*
X85936160Y-59679013D02*
G01*
X85982653Y-59732669D01*
X85992757Y-59802943D01*
X85971252Y-59857281D01*
X85926754Y-59920831D01*
X85872230Y-60037761D01*
X85871450Y-60039433D01*
X85824533Y-60092719D01*
X85799004Y-60105066D01*
X85768816Y-60115667D01*
X85768808Y-60115671D01*
X85759924Y-60118791D01*
X85649990Y-60199990D01*
X85568791Y-60309924D01*
X85523507Y-60438873D01*
X85520500Y-60470685D01*
X85520500Y-60634081D01*
X85500498Y-60702202D01*
X85483595Y-60723176D01*
X85453340Y-60753431D01*
X85450183Y-60757939D01*
X85450181Y-60757942D01*
X85439506Y-60773188D01*
X85359152Y-60887945D01*
X85356829Y-60892927D01*
X85356826Y-60892932D01*
X85309892Y-60993583D01*
X85289753Y-61036772D01*
X85288331Y-61042080D01*
X85288330Y-61042082D01*
X85249691Y-61186285D01*
X85247252Y-61195388D01*
X85246773Y-61200864D01*
X85246772Y-61200869D01*
X85239895Y-61279480D01*
X85238541Y-61288459D01*
X85237007Y-61292826D01*
X85236525Y-61298391D01*
X85236525Y-61312490D01*
X85236045Y-61323472D01*
X85234736Y-61338433D01*
X85233665Y-61347160D01*
X85232896Y-61352018D01*
X85232895Y-61352021D01*
X85231794Y-61358974D01*
X85230895Y-61358832D01*
X85213343Y-61418610D01*
X85159687Y-61465103D01*
X85093738Y-61475752D01*
X85048788Y-61470869D01*
X85048783Y-61470869D01*
X85045389Y-61470500D01*
X84775080Y-61470500D01*
X84504612Y-61470501D01*
X84501218Y-61470870D01*
X84501212Y-61470870D01*
X84453834Y-61476016D01*
X84453830Y-61476017D01*
X84445976Y-61476870D01*
X84317365Y-61525083D01*
X84310186Y-61530463D01*
X84310183Y-61530465D01*
X84296279Y-61540886D01*
X84245584Y-61578881D01*
X84244308Y-61579837D01*
X84177802Y-61604685D01*
X84108419Y-61589633D01*
X84061598Y-61545314D01*
X84032212Y-61497827D01*
X84023176Y-61486426D01*
X83912571Y-61376014D01*
X83901160Y-61367002D01*
X83768120Y-61284996D01*
X83754939Y-61278849D01*
X83606186Y-61229509D01*
X83592810Y-61226642D01*
X83501903Y-61217328D01*
X83496874Y-61217071D01*
X83481876Y-61221475D01*
X83480671Y-61222865D01*
X83479000Y-61230548D01*
X83479000Y-62328000D01*
X83458998Y-62396121D01*
X83405342Y-62442614D01*
X83353000Y-62454000D01*
X82285115Y-62454000D01*
X82269876Y-62458475D01*
X82268671Y-62459865D01*
X82267000Y-62467548D01*
X82267000Y-62495438D01*
X82267337Y-62501953D01*
X82276894Y-62594057D01*
X82279788Y-62607456D01*
X82329381Y-62756107D01*
X82335555Y-62769286D01*
X82417788Y-62902173D01*
X82426824Y-62913574D01*
X82537429Y-63023986D01*
X82548843Y-63033000D01*
X82560617Y-63040258D01*
X82608110Y-63093031D01*
X82620500Y-63147517D01*
X82620500Y-63327310D01*
X82600498Y-63395431D01*
X82583595Y-63416405D01*
X82216405Y-63783595D01*
X82154093Y-63817621D01*
X82127310Y-63820500D01*
X82029484Y-63820500D01*
X81961363Y-63800498D01*
X81914870Y-63746842D01*
X81904766Y-63676568D01*
X81909159Y-63660219D01*
X81908517Y-63660047D01*
X81910481Y-63652716D01*
X81913317Y-63645662D01*
X81926085Y-63555946D01*
X81935056Y-63492912D01*
X81935056Y-63492909D01*
X81935637Y-63488828D01*
X81935782Y-63475021D01*
X81932230Y-63445664D01*
X81925516Y-63390183D01*
X81916751Y-63317754D01*
X81860755Y-63169567D01*
X81814752Y-63102632D01*
X81775330Y-63045272D01*
X81775329Y-63045270D01*
X81771028Y-63039013D01*
X81652750Y-62933632D01*
X81645364Y-62929721D01*
X81606028Y-62908894D01*
X81512749Y-62859505D01*
X81359108Y-62820913D01*
X81351509Y-62820873D01*
X81351508Y-62820873D01*
X81285656Y-62820528D01*
X81200696Y-62820083D01*
X81193316Y-62821855D01*
X81193314Y-62821855D01*
X81054038Y-62855292D01*
X81054035Y-62855293D01*
X81046659Y-62857064D01*
X80905889Y-62929721D01*
X80786514Y-63033859D01*
X80782147Y-63040073D01*
X80782144Y-63040076D01*
X80730236Y-63113934D01*
X80674702Y-63158166D01*
X80604070Y-63165352D01*
X80540765Y-63133211D01*
X80504887Y-63071947D01*
X80502929Y-63062591D01*
X80499134Y-63040258D01*
X80494638Y-63013795D01*
X80493057Y-62999760D01*
X80491550Y-62972913D01*
X80481495Y-62793878D01*
X80482680Y-62770442D01*
X80482680Y-62768162D01*
X80484231Y-62758370D01*
X80481051Y-62738292D01*
X80479500Y-62718582D01*
X80479500Y-61927885D01*
X82267000Y-61927885D01*
X82271475Y-61943124D01*
X82272865Y-61944329D01*
X82280548Y-61946000D01*
X82952885Y-61946000D01*
X82968124Y-61941525D01*
X82969329Y-61940135D01*
X82971000Y-61932452D01*
X82971000Y-61235115D01*
X82966525Y-61219876D01*
X82965135Y-61218671D01*
X82957452Y-61217000D01*
X82954562Y-61217000D01*
X82948047Y-61217337D01*
X82855943Y-61226894D01*
X82842544Y-61229788D01*
X82693893Y-61279381D01*
X82680714Y-61285555D01*
X82547827Y-61367788D01*
X82536426Y-61376824D01*
X82426014Y-61487429D01*
X82417002Y-61498840D01*
X82334996Y-61631880D01*
X82328849Y-61645061D01*
X82279509Y-61793814D01*
X82276642Y-61807190D01*
X82267328Y-61898097D01*
X82267000Y-61904514D01*
X82267000Y-61927885D01*
X80479500Y-61927885D01*
X80479500Y-59785011D01*
X80499502Y-59716890D01*
X80553158Y-59670397D01*
X80605500Y-59659011D01*
X85868039Y-59659011D01*
X85936160Y-59679013D01*
G37*
%TD.AperFunction*%
%TA.AperFunction,Conductor*%
G36*
X91539434Y-55094136D02*
G01*
X91597874Y-55125373D01*
X91597877Y-55125374D01*
X91603332Y-55128290D01*
X91751210Y-55173149D01*
X91821247Y-55180047D01*
X91832595Y-55181821D01*
X91838851Y-55184018D01*
X91844416Y-55184500D01*
X91860275Y-55184500D01*
X91872624Y-55185107D01*
X91882210Y-55186051D01*
X91885692Y-55186394D01*
X91893054Y-55187339D01*
X91895055Y-55187656D01*
X91904999Y-55189231D01*
X91914792Y-55187680D01*
X91914793Y-55187680D01*
X91925076Y-55186051D01*
X91944787Y-55184500D01*
X92405261Y-55184500D01*
X92473382Y-55204502D01*
X92494356Y-55221405D01*
X92559277Y-55286326D01*
X92673445Y-55344498D01*
X92768166Y-55359500D01*
X94236037Y-55359500D01*
X94304158Y-55379502D01*
X94350651Y-55433158D01*
X94360755Y-55503432D01*
X94331261Y-55568012D01*
X94301309Y-55593276D01*
X94191426Y-55659824D01*
X94179557Y-55669131D01*
X94069131Y-55779557D01*
X94059824Y-55791426D01*
X93978921Y-55925012D01*
X93969591Y-55945677D01*
X93967144Y-55944572D01*
X93934755Y-55993037D01*
X93869655Y-56021367D01*
X93799574Y-56010004D01*
X93752613Y-55971208D01*
X93705602Y-55907561D01*
X93700010Y-55899990D01*
X93590076Y-55818791D01*
X93461127Y-55773507D01*
X93453485Y-55772785D01*
X93453482Y-55772784D01*
X93438579Y-55771376D01*
X93429315Y-55770500D01*
X93175172Y-55770500D01*
X92920686Y-55770501D01*
X92917738Y-55770780D01*
X92917729Y-55770780D01*
X92896522Y-55772784D01*
X92896520Y-55772784D01*
X92888873Y-55773507D01*
X92759924Y-55818791D01*
X92649990Y-55899990D01*
X92568791Y-56009924D01*
X92523507Y-56138873D01*
X92520500Y-56170685D01*
X92520501Y-56829314D01*
X92520780Y-56832262D01*
X92520780Y-56832271D01*
X92522784Y-56853478D01*
X92523507Y-56861127D01*
X92568791Y-56990076D01*
X92617061Y-57055428D01*
X92627913Y-57070120D01*
X92652296Y-57136798D01*
X92636760Y-57206074D01*
X92609391Y-57239929D01*
X92569969Y-57274319D01*
X92569965Y-57274323D01*
X92564243Y-57279315D01*
X92473154Y-57408921D01*
X92465994Y-57427285D01*
X92424541Y-57533608D01*
X92415610Y-57556514D01*
X92414618Y-57564047D01*
X92414618Y-57564048D01*
X92397247Y-57696000D01*
X92394933Y-57713573D01*
X92403598Y-57792054D01*
X92391192Y-57861958D01*
X92342963Y-57914058D01*
X92267376Y-57931401D01*
X92178265Y-57923604D01*
X92170117Y-57922376D01*
X92166149Y-57920982D01*
X92160584Y-57920500D01*
X92148271Y-57920500D01*
X92137309Y-57920022D01*
X92118304Y-57918359D01*
X92109840Y-57917320D01*
X92109795Y-57917320D01*
X92100000Y-57915769D01*
X92079923Y-57918949D01*
X92060212Y-57920500D01*
X89539789Y-57920500D01*
X89520078Y-57918949D01*
X89500001Y-57915769D01*
X89491440Y-57917125D01*
X89489211Y-57917320D01*
X89488593Y-57917320D01*
X89487066Y-57917508D01*
X89311831Y-57932838D01*
X89195955Y-57963887D01*
X89134689Y-57980303D01*
X89134687Y-57980304D01*
X89129379Y-57981726D01*
X89124399Y-57984048D01*
X89124397Y-57984049D01*
X88963175Y-58059228D01*
X88963170Y-58059231D01*
X88958188Y-58061554D01*
X88897876Y-58103785D01*
X88807971Y-58166737D01*
X88807968Y-58166739D01*
X88803460Y-58169896D01*
X88704595Y-58268761D01*
X88642283Y-58302787D01*
X88571468Y-58297722D01*
X88514632Y-58255175D01*
X88489821Y-58188655D01*
X88489500Y-58179666D01*
X88489500Y-57929788D01*
X88491051Y-57910077D01*
X88492680Y-57899792D01*
X88494231Y-57890000D01*
X88492680Y-57880206D01*
X88492680Y-57870292D01*
X88493713Y-57870292D01*
X88493377Y-57855589D01*
X88493657Y-57853107D01*
X88501838Y-57780492D01*
X88508115Y-57752992D01*
X88539823Y-57662376D01*
X88552064Y-57636959D01*
X88603143Y-57555667D01*
X88620735Y-57533608D01*
X88667499Y-57486844D01*
X88729811Y-57452818D01*
X88800626Y-57457883D01*
X88861358Y-57505935D01*
X88916516Y-57588484D01*
X89000699Y-57644734D01*
X89074933Y-57659500D01*
X90099834Y-57659500D01*
X91125066Y-57659499D01*
X91160818Y-57652388D01*
X91187126Y-57647156D01*
X91187128Y-57647155D01*
X91199301Y-57644734D01*
X91209621Y-57637839D01*
X91209622Y-57637838D01*
X91273168Y-57595377D01*
X91283484Y-57588484D01*
X91339734Y-57504301D01*
X91354500Y-57430067D01*
X91354499Y-56479934D01*
X91339734Y-56405699D01*
X91329247Y-56390004D01*
X91308030Y-56322252D01*
X91329247Y-56249995D01*
X91331847Y-56246104D01*
X91339734Y-56234301D01*
X91354500Y-56160067D01*
X91354499Y-55209934D01*
X91356103Y-55209934D01*
X91367868Y-55147866D01*
X91416703Y-55096333D01*
X91485647Y-55079383D01*
X91539434Y-55094136D01*
G37*
%TD.AperFunction*%
%TA.AperFunction,Conductor*%
G36*
X103038907Y-57668053D02*
G01*
X103040823Y-57670904D01*
X103087716Y-57713573D01*
X103144842Y-57765553D01*
X103157991Y-57777518D01*
X103247948Y-57826361D01*
X103298268Y-57876442D01*
X103313525Y-57945780D01*
X103288873Y-58012360D01*
X103232138Y-58055041D01*
X103217239Y-58059610D01*
X103176581Y-58069371D01*
X103176579Y-58069372D01*
X103169201Y-58071143D01*
X103028431Y-58143800D01*
X102982352Y-58183998D01*
X102975092Y-58190331D01*
X102910610Y-58220039D01*
X102840302Y-58210170D01*
X102836436Y-58207695D01*
X102819452Y-58204000D01*
X101272000Y-58204000D01*
X101203879Y-58183998D01*
X101157386Y-58130342D01*
X101146000Y-58078000D01*
X101146000Y-57822000D01*
X101166002Y-57753879D01*
X101219658Y-57707386D01*
X101272000Y-57696000D01*
X102814884Y-57696000D01*
X102830123Y-57691526D01*
X102849788Y-57668830D01*
X102909514Y-57630446D01*
X102980510Y-57630446D01*
X103038907Y-57668053D01*
G37*
%TD.AperFunction*%
%TA.AperFunction,Conductor*%
G36*
X100228161Y-38233595D02*
G01*
X100270198Y-38290810D01*
X100274246Y-38304265D01*
X100275924Y-38311226D01*
X100363157Y-38503084D01*
X100485096Y-38674986D01*
X100637340Y-38820728D01*
X100642375Y-38823979D01*
X100809360Y-38931800D01*
X100809363Y-38931801D01*
X100814397Y-38935052D01*
X100819963Y-38937295D01*
X100839774Y-38945280D01*
X100895479Y-38989296D01*
X100918544Y-39056442D01*
X100901646Y-39125398D01*
X100844424Y-39177027D01*
X100667030Y-39256937D01*
X100657744Y-39262106D01*
X100475425Y-39384850D01*
X100467130Y-39391519D01*
X100308100Y-39543228D01*
X100301059Y-39551186D01*
X100169859Y-39727525D01*
X100164255Y-39736562D01*
X100064643Y-39932484D01*
X100060643Y-39942335D01*
X99995466Y-40152240D01*
X99993183Y-40162624D01*
X99991139Y-40178043D01*
X99993335Y-40192207D01*
X100006522Y-40196000D01*
X101528000Y-40196000D01*
X101596121Y-40216002D01*
X101642614Y-40269658D01*
X101654000Y-40322000D01*
X101654000Y-40578000D01*
X101633998Y-40646121D01*
X101580342Y-40692614D01*
X101528000Y-40704000D01*
X100008808Y-40704000D01*
X99995277Y-40707973D01*
X99993752Y-40718580D01*
X100018477Y-40836421D01*
X100021534Y-40846607D01*
X100027151Y-40860831D01*
X100033568Y-40931537D01*
X100000740Y-40994488D01*
X99939089Y-41029698D01*
X99876153Y-41026410D01*
X99875871Y-41027697D01*
X99868373Y-41026052D01*
X99861127Y-41023507D01*
X99853485Y-41022785D01*
X99853482Y-41022784D01*
X99838579Y-41021376D01*
X99829315Y-41020500D01*
X99500223Y-41020500D01*
X99170686Y-41020501D01*
X99167738Y-41020780D01*
X99167729Y-41020780D01*
X99146522Y-41022784D01*
X99146520Y-41022784D01*
X99138873Y-41023507D01*
X99131623Y-41026053D01*
X99129297Y-41026870D01*
X99009924Y-41068791D01*
X98992696Y-41081516D01*
X98966631Y-41100768D01*
X98899952Y-41125151D01*
X98830677Y-41109615D01*
X98816205Y-41100242D01*
X98789821Y-41080468D01*
X98789816Y-41080465D01*
X98782635Y-41075083D01*
X98765851Y-41068791D01*
X98661419Y-41029642D01*
X98661418Y-41029642D01*
X98654024Y-41026870D01*
X98646174Y-41026017D01*
X98646173Y-41026017D01*
X98598786Y-41020869D01*
X98598785Y-41020869D01*
X98595389Y-41020500D01*
X98300044Y-41020500D01*
X98004612Y-41020501D01*
X98001218Y-41020870D01*
X98001212Y-41020870D01*
X97953834Y-41026016D01*
X97953830Y-41026017D01*
X97945976Y-41026870D01*
X97817365Y-41075083D01*
X97810186Y-41080463D01*
X97810183Y-41080465D01*
X97722108Y-41146475D01*
X97707456Y-41157456D01*
X97702077Y-41164633D01*
X97630465Y-41260183D01*
X97630463Y-41260186D01*
X97625083Y-41267365D01*
X97621932Y-41275771D01*
X97607702Y-41313729D01*
X97565061Y-41370494D01*
X97498499Y-41395194D01*
X97489720Y-41395500D01*
X97061976Y-41395501D01*
X96799934Y-41395501D01*
X96766379Y-41402175D01*
X96737874Y-41407844D01*
X96737872Y-41407845D01*
X96725699Y-41410266D01*
X96715379Y-41417161D01*
X96715378Y-41417162D01*
X96661916Y-41452885D01*
X96641516Y-41466516D01*
X96585266Y-41550699D01*
X96570500Y-41624933D01*
X96570501Y-41845771D01*
X96570501Y-41994500D01*
X96550499Y-42062620D01*
X96496844Y-42109113D01*
X96444501Y-42120500D01*
X96192704Y-42120500D01*
X96124583Y-42100498D01*
X96097761Y-42069544D01*
X96077135Y-42051671D01*
X96069452Y-42050000D01*
X95635100Y-42050000D01*
X95610519Y-42047579D01*
X95606135Y-42046707D01*
X95600067Y-42045500D01*
X95250057Y-42045500D01*
X94899934Y-42045501D01*
X94890193Y-42047439D01*
X94889486Y-42047579D01*
X94864907Y-42050000D01*
X94486851Y-42050000D01*
X94418730Y-42029998D01*
X94390613Y-41997549D01*
X94371135Y-41980671D01*
X94363452Y-41979000D01*
X93972000Y-41979000D01*
X93903879Y-41958998D01*
X93857386Y-41905342D01*
X93846000Y-41853000D01*
X93846000Y-41631885D01*
X95450000Y-41631885D01*
X95454475Y-41647124D01*
X95455865Y-41648329D01*
X95463548Y-41650000D01*
X96064884Y-41650000D01*
X96080123Y-41645525D01*
X96081328Y-41644135D01*
X96082999Y-41636452D01*
X96082999Y-41605331D01*
X96082629Y-41598510D01*
X96077105Y-41547648D01*
X96073479Y-41532396D01*
X96028324Y-41411946D01*
X96019786Y-41396351D01*
X95943285Y-41294276D01*
X95930724Y-41281715D01*
X95828649Y-41205214D01*
X95813054Y-41196676D01*
X95692606Y-41151522D01*
X95677351Y-41147895D01*
X95626486Y-41142369D01*
X95619672Y-41142000D01*
X95468115Y-41142000D01*
X95452876Y-41146475D01*
X95451671Y-41147865D01*
X95450000Y-41155548D01*
X95450000Y-41631885D01*
X93846000Y-41631885D01*
X93846000Y-41452885D01*
X94354000Y-41452885D01*
X94358475Y-41468124D01*
X94359865Y-41469329D01*
X94367548Y-41471000D01*
X95031885Y-41471000D01*
X95047124Y-41466525D01*
X95048329Y-41465135D01*
X95050000Y-41457452D01*
X95050000Y-41160116D01*
X95045525Y-41144877D01*
X95044133Y-41143671D01*
X95035570Y-41141808D01*
X94973258Y-41107783D01*
X94955210Y-41084991D01*
X94932212Y-41047827D01*
X94923176Y-41036426D01*
X94812571Y-40926014D01*
X94801160Y-40917002D01*
X94668120Y-40834996D01*
X94654939Y-40828849D01*
X94506186Y-40779509D01*
X94492810Y-40776642D01*
X94401903Y-40767328D01*
X94395486Y-40767000D01*
X94372115Y-40767000D01*
X94356876Y-40771475D01*
X94355671Y-40772865D01*
X94354000Y-40780548D01*
X94354000Y-41452885D01*
X93846000Y-41452885D01*
X93846000Y-40785115D01*
X93841525Y-40769876D01*
X93840135Y-40768671D01*
X93832452Y-40767000D01*
X93804562Y-40767000D01*
X93798047Y-40767337D01*
X93705943Y-40776894D01*
X93692544Y-40779788D01*
X93543893Y-40829381D01*
X93530714Y-40835555D01*
X93397827Y-40917788D01*
X93386426Y-40926824D01*
X93329321Y-40984029D01*
X93267039Y-41018108D01*
X93234211Y-41020871D01*
X93232273Y-41020780D01*
X93229315Y-41020500D01*
X93226346Y-41020500D01*
X92899945Y-41020501D01*
X92570686Y-41020501D01*
X92567738Y-41020780D01*
X92567729Y-41020780D01*
X92546522Y-41022784D01*
X92546520Y-41022784D01*
X92538873Y-41023507D01*
X92531623Y-41026053D01*
X92529297Y-41026870D01*
X92409924Y-41068791D01*
X92402350Y-41074386D01*
X92402345Y-41074388D01*
X92322202Y-41133583D01*
X92255524Y-41157966D01*
X92216649Y-41154436D01*
X92182633Y-41145892D01*
X92175033Y-41145852D01*
X92175032Y-41145852D01*
X92110232Y-41145513D01*
X92024221Y-41145062D01*
X92016841Y-41146834D01*
X92016839Y-41146834D01*
X91877563Y-41180271D01*
X91877560Y-41180272D01*
X91870184Y-41182043D01*
X91863442Y-41185523D01*
X91863436Y-41185525D01*
X91745078Y-41246614D01*
X91675371Y-41260083D01*
X91609448Y-41233728D01*
X91568238Y-41175915D01*
X91564827Y-41105000D01*
X91569307Y-41090418D01*
X91598478Y-41012605D01*
X91602105Y-40997351D01*
X91607631Y-40946486D01*
X91608000Y-40939672D01*
X91608000Y-40717115D01*
X91603525Y-40701876D01*
X91602135Y-40700671D01*
X91594452Y-40699000D01*
X88610116Y-40699000D01*
X88594877Y-40703475D01*
X88593672Y-40704865D01*
X88592001Y-40712548D01*
X88592001Y-40939669D01*
X88592371Y-40946490D01*
X88597895Y-40997352D01*
X88601521Y-41012604D01*
X88646676Y-41133054D01*
X88655214Y-41148649D01*
X88731715Y-41250724D01*
X88744272Y-41263281D01*
X88795065Y-41301348D01*
X88837580Y-41358208D01*
X88845500Y-41402175D01*
X88845501Y-41843558D01*
X88845501Y-42190066D01*
X88847479Y-42200010D01*
X88856091Y-42243309D01*
X88860266Y-42264301D01*
X88870753Y-42279995D01*
X88891970Y-42347748D01*
X88870753Y-42420004D01*
X88860266Y-42435699D01*
X88845500Y-42509933D01*
X88845501Y-43460066D01*
X88860266Y-43534301D01*
X88870753Y-43549995D01*
X88891970Y-43617748D01*
X88870753Y-43690004D01*
X88860266Y-43705699D01*
X88857845Y-43717872D01*
X88846664Y-43774081D01*
X88813757Y-43836991D01*
X88752062Y-43872123D01*
X88723085Y-43875500D01*
X88182864Y-43875500D01*
X88163153Y-43873949D01*
X88152870Y-43872320D01*
X88152869Y-43872320D01*
X88143076Y-43870769D01*
X88139876Y-43871276D01*
X87915914Y-43888902D01*
X87911107Y-43890056D01*
X87911101Y-43890057D01*
X87788319Y-43919535D01*
X87694346Y-43942096D01*
X87689775Y-43943989D01*
X87689773Y-43943990D01*
X87488401Y-44027401D01*
X87488397Y-44027403D01*
X87483827Y-44029296D01*
X87289541Y-44148354D01*
X87116272Y-44296340D01*
X86968286Y-44469609D01*
X86849228Y-44663895D01*
X86846239Y-44671112D01*
X86845555Y-44671960D01*
X86845089Y-44672875D01*
X86844897Y-44672777D01*
X86801695Y-44726393D01*
X86787620Y-44734863D01*
X86704346Y-44777844D01*
X86584971Y-44881982D01*
X86493882Y-45011588D01*
X86479237Y-45049151D01*
X86439419Y-45151279D01*
X86436338Y-45159181D01*
X86435346Y-45166714D01*
X86435346Y-45166715D01*
X86419986Y-45283391D01*
X86415661Y-45316240D01*
X86433045Y-45473697D01*
X86435655Y-45480828D01*
X86435655Y-45480830D01*
X86472578Y-45581726D01*
X86487485Y-45622463D01*
X86491721Y-45628766D01*
X86491721Y-45628767D01*
X86542276Y-45704000D01*
X86575840Y-45753949D01*
X86581459Y-45759062D01*
X86581460Y-45759063D01*
X86661083Y-45831514D01*
X86693008Y-45860563D01*
X86832225Y-45936152D01*
X86857828Y-45942869D01*
X86861373Y-45943799D01*
X86922188Y-45980433D01*
X86953543Y-46044131D01*
X86954321Y-46082121D01*
X86944365Y-46157748D01*
X86943316Y-46165713D01*
X86947284Y-46201649D01*
X86959673Y-46313865D01*
X86960700Y-46323170D01*
X86963310Y-46330301D01*
X86963310Y-46330303D01*
X87008619Y-46454115D01*
X87015140Y-46471936D01*
X87019376Y-46478239D01*
X87019376Y-46478240D01*
X87046021Y-46517891D01*
X87103495Y-46603422D01*
X87109114Y-46608535D01*
X87109115Y-46608536D01*
X87203535Y-46694451D01*
X87220663Y-46710036D01*
X87359880Y-46785625D01*
X87513109Y-46825824D01*
X87597064Y-46827143D01*
X87663906Y-46828193D01*
X87663909Y-46828193D01*
X87671503Y-46828312D01*
X87825919Y-46792946D01*
X87896329Y-46757534D01*
X87960659Y-46725180D01*
X87960662Y-46725178D01*
X87967442Y-46721768D01*
X87973213Y-46716839D01*
X87973216Y-46716837D01*
X88082123Y-46623821D01*
X88082123Y-46623820D01*
X88087901Y-46618886D01*
X88180342Y-46490241D01*
X88239429Y-46343258D01*
X88261749Y-46186424D01*
X88261894Y-46172617D01*
X88246528Y-46045637D01*
X88258201Y-45975607D01*
X88305883Y-45923005D01*
X88371615Y-45904500D01*
X88723087Y-45904500D01*
X88791208Y-45924502D01*
X88837701Y-45978158D01*
X88846663Y-46005909D01*
X88860266Y-46074301D01*
X88870753Y-46089995D01*
X88891970Y-46157748D01*
X88870753Y-46230004D01*
X88860266Y-46245699D01*
X88845500Y-46319933D01*
X88845501Y-47270066D01*
X88852528Y-47305396D01*
X88853621Y-47310889D01*
X88860266Y-47344301D01*
X88870753Y-47359995D01*
X88891970Y-47427748D01*
X88870753Y-47500004D01*
X88860266Y-47515699D01*
X88845500Y-47589933D01*
X88845501Y-48540066D01*
X88850382Y-48564605D01*
X88857718Y-48601489D01*
X88860266Y-48614301D01*
X88870753Y-48629995D01*
X88891970Y-48697748D01*
X88870753Y-48770004D01*
X88860266Y-48785699D01*
X88845500Y-48859933D01*
X88845501Y-49810066D01*
X88860266Y-49884301D01*
X88870744Y-49899982D01*
X88870753Y-49899995D01*
X88891970Y-49967748D01*
X88870753Y-50040004D01*
X88860266Y-50055699D01*
X88845500Y-50129933D01*
X88845501Y-51080066D01*
X88860266Y-51154301D01*
X88870753Y-51169995D01*
X88891970Y-51237748D01*
X88870753Y-51310004D01*
X88860266Y-51325699D01*
X88845500Y-51399933D01*
X88845501Y-52350066D01*
X88860266Y-52424301D01*
X88870753Y-52439995D01*
X88891970Y-52507748D01*
X88870753Y-52580004D01*
X88860266Y-52595699D01*
X88845500Y-52669933D01*
X88845501Y-53620066D01*
X88849688Y-53641118D01*
X88856992Y-53677839D01*
X88860266Y-53694301D01*
X88870753Y-53709995D01*
X88891970Y-53777748D01*
X88870753Y-53850004D01*
X88860266Y-53865699D01*
X88845500Y-53939933D01*
X88845501Y-54890066D01*
X88860266Y-54964301D01*
X88870753Y-54979995D01*
X88891970Y-55047748D01*
X88870753Y-55120004D01*
X88860266Y-55135699D01*
X88845500Y-55209933D01*
X88845501Y-56160066D01*
X88849722Y-56181286D01*
X88855309Y-56209376D01*
X88860266Y-56234301D01*
X88868153Y-56246104D01*
X88870753Y-56249995D01*
X88891970Y-56317748D01*
X88870753Y-56390004D01*
X88860266Y-56405699D01*
X88845500Y-56479933D01*
X88845500Y-56486713D01*
X88845412Y-56487012D01*
X88844893Y-56492283D01*
X88843893Y-56492185D01*
X88825498Y-56554834D01*
X88771842Y-56601327D01*
X88748914Y-56609232D01*
X88637541Y-56635970D01*
X88632970Y-56637863D01*
X88632968Y-56637864D01*
X88450958Y-56713255D01*
X88450954Y-56713257D01*
X88446384Y-56715150D01*
X88269967Y-56823258D01*
X88266207Y-56826470D01*
X88266202Y-56826473D01*
X88231983Y-56855699D01*
X88198577Y-56884231D01*
X88194056Y-56888092D01*
X88129267Y-56917123D01*
X88059067Y-56906518D01*
X88005744Y-56859643D01*
X88005378Y-56858937D01*
X88004734Y-56855699D01*
X87948484Y-56771516D01*
X87864301Y-56715266D01*
X87790067Y-56700500D01*
X87315077Y-56700500D01*
X86839934Y-56700501D01*
X86804182Y-56707612D01*
X86777874Y-56712844D01*
X86777872Y-56712845D01*
X86765699Y-56715266D01*
X86750004Y-56725753D01*
X86682252Y-56746970D01*
X86609996Y-56725753D01*
X86594301Y-56715266D01*
X86520067Y-56700500D01*
X86045077Y-56700500D01*
X85569934Y-56700501D01*
X85534182Y-56707612D01*
X85507874Y-56712844D01*
X85507872Y-56712845D01*
X85495699Y-56715266D01*
X85480004Y-56725753D01*
X85412252Y-56746970D01*
X85339996Y-56725753D01*
X85324301Y-56715266D01*
X85250067Y-56700500D01*
X84775077Y-56700500D01*
X84299934Y-56700501D01*
X84264182Y-56707612D01*
X84237874Y-56712844D01*
X84237872Y-56712845D01*
X84225699Y-56715266D01*
X84210004Y-56725753D01*
X84142252Y-56746970D01*
X84069996Y-56725753D01*
X84054301Y-56715266D01*
X83980067Y-56700500D01*
X83505077Y-56700500D01*
X83029934Y-56700501D01*
X82994182Y-56707612D01*
X82967874Y-56712844D01*
X82967872Y-56712845D01*
X82955699Y-56715266D01*
X82940004Y-56725753D01*
X82872252Y-56746970D01*
X82799996Y-56725753D01*
X82784301Y-56715266D01*
X82710067Y-56700500D01*
X82235077Y-56700500D01*
X81759934Y-56700501D01*
X81724182Y-56707612D01*
X81697874Y-56712844D01*
X81697872Y-56712845D01*
X81685699Y-56715266D01*
X81670004Y-56725753D01*
X81602252Y-56746970D01*
X81529996Y-56725753D01*
X81514301Y-56715266D01*
X81440067Y-56700500D01*
X80965077Y-56700500D01*
X80489934Y-56700501D01*
X80454182Y-56707612D01*
X80427874Y-56712844D01*
X80427872Y-56712845D01*
X80415699Y-56715266D01*
X80400004Y-56725753D01*
X80332252Y-56746970D01*
X80259996Y-56725753D01*
X80244301Y-56715266D01*
X80170067Y-56700500D01*
X79695077Y-56700500D01*
X79219934Y-56700501D01*
X79184182Y-56707612D01*
X79157874Y-56712844D01*
X79157872Y-56712845D01*
X79145699Y-56715266D01*
X79130004Y-56725753D01*
X79062252Y-56746970D01*
X78989996Y-56725753D01*
X78974301Y-56715266D01*
X78900067Y-56700500D01*
X78425077Y-56700500D01*
X77949934Y-56700501D01*
X77914182Y-56707612D01*
X77887874Y-56712844D01*
X77887872Y-56712845D01*
X77875699Y-56715266D01*
X77860004Y-56725753D01*
X77792252Y-56746970D01*
X77719996Y-56725753D01*
X77704301Y-56715266D01*
X77630067Y-56700500D01*
X77563003Y-56700500D01*
X77494882Y-56680498D01*
X77448389Y-56626842D01*
X77437877Y-56589313D01*
X77435374Y-56568170D01*
X77435024Y-56562236D01*
X77434928Y-56562244D01*
X77434500Y-56557066D01*
X77434500Y-56551866D01*
X77432443Y-56539507D01*
X77431331Y-56532825D01*
X77430494Y-56526947D01*
X77425694Y-56486389D01*
X77425694Y-56486388D01*
X77424470Y-56476049D01*
X77420507Y-56467797D01*
X77419004Y-56458764D01*
X77408469Y-56439238D01*
X77394666Y-56413658D01*
X77391969Y-56408365D01*
X77373215Y-56369308D01*
X77373212Y-56369304D01*
X77369781Y-56362158D01*
X77366186Y-56357882D01*
X77364263Y-56355959D01*
X77362491Y-56354027D01*
X77362448Y-56353948D01*
X77362572Y-56353835D01*
X77362096Y-56353295D01*
X77359010Y-56347576D01*
X77351366Y-56340510D01*
X77351363Y-56340506D01*
X77328807Y-56319656D01*
X77292361Y-56258728D01*
X77289592Y-56209379D01*
X77294171Y-56177206D01*
X77294246Y-56170096D01*
X77294273Y-56167533D01*
X77294273Y-56167527D01*
X77294316Y-56163399D01*
X77275285Y-56006132D01*
X77219289Y-55857945D01*
X77165415Y-55779557D01*
X77133864Y-55733650D01*
X77133863Y-55733648D01*
X77129562Y-55727391D01*
X77011284Y-55622010D01*
X77003898Y-55618099D01*
X76877997Y-55551438D01*
X76877998Y-55551438D01*
X76871283Y-55547883D01*
X76717642Y-55509291D01*
X76710043Y-55509251D01*
X76710042Y-55509251D01*
X76644190Y-55508906D01*
X76559230Y-55508461D01*
X76551850Y-55510233D01*
X76551848Y-55510233D01*
X76412572Y-55543670D01*
X76412569Y-55543671D01*
X76405193Y-55545442D01*
X76264423Y-55618099D01*
X76145048Y-55722237D01*
X76053959Y-55851843D01*
X76031485Y-55909485D01*
X76007421Y-55971208D01*
X75996415Y-55999436D01*
X75995423Y-56006969D01*
X75995423Y-56006970D01*
X75979059Y-56131271D01*
X75975738Y-56156495D01*
X75977890Y-56175988D01*
X75990337Y-56288723D01*
X75993122Y-56313952D01*
X75995732Y-56321083D01*
X75995732Y-56321085D01*
X76044079Y-56453199D01*
X76047562Y-56462718D01*
X76051798Y-56469021D01*
X76051798Y-56469022D01*
X76117582Y-56566919D01*
X76139000Y-56637195D01*
X76139000Y-58083000D01*
X76118998Y-58151121D01*
X76065342Y-58197614D01*
X76013000Y-58209000D01*
X75757000Y-58209000D01*
X75688879Y-58188998D01*
X75642386Y-58135342D01*
X75631000Y-58083000D01*
X75631000Y-56465116D01*
X75624120Y-56441686D01*
X75594593Y-56395739D01*
X75589489Y-56360242D01*
X75589490Y-53879972D01*
X75589490Y-51219780D01*
X75591041Y-51200070D01*
X75592670Y-51189785D01*
X75592670Y-51189784D01*
X75594221Y-51179991D01*
X75592638Y-51169995D01*
X75591558Y-51163177D01*
X75590614Y-51155816D01*
X75579614Y-51044129D01*
X75579007Y-51037966D01*
X75551804Y-50948287D01*
X75539377Y-50907322D01*
X75539376Y-50907319D01*
X75537580Y-50901399D01*
X75470306Y-50775538D01*
X75379770Y-50665220D01*
X75269452Y-50574684D01*
X75263993Y-50571766D01*
X75149053Y-50510329D01*
X75149049Y-50510327D01*
X75143591Y-50507410D01*
X75137671Y-50505614D01*
X75137668Y-50505613D01*
X75012946Y-50467779D01*
X75012942Y-50467778D01*
X75007024Y-50465983D01*
X74963150Y-50461662D01*
X74897318Y-50435080D01*
X74856308Y-50377126D01*
X74849500Y-50336269D01*
X74849500Y-43409788D01*
X74851051Y-43390077D01*
X74852680Y-43379792D01*
X74854231Y-43370000D01*
X74852080Y-43356420D01*
X74851137Y-43349065D01*
X74839045Y-43226297D01*
X74838438Y-43220132D01*
X74794723Y-43076023D01*
X74789424Y-43066108D01*
X74755398Y-43002451D01*
X74723734Y-42943212D01*
X74628199Y-42826801D01*
X74511788Y-42731266D01*
X74421103Y-42682794D01*
X74370455Y-42633042D01*
X74354499Y-42571672D01*
X74354499Y-42509934D01*
X74343711Y-42455695D01*
X74342156Y-42447874D01*
X74342155Y-42447872D01*
X74339734Y-42435699D01*
X74329247Y-42420004D01*
X74308030Y-42352252D01*
X74329247Y-42279995D01*
X74339734Y-42264301D01*
X74353336Y-42195919D01*
X74386243Y-42133009D01*
X74447938Y-42097877D01*
X74476915Y-42094500D01*
X83775212Y-42094500D01*
X83794923Y-42096051D01*
X83805206Y-42097680D01*
X83805207Y-42097680D01*
X83815000Y-42099231D01*
X83824797Y-42097679D01*
X83825153Y-42097679D01*
X83844866Y-42099230D01*
X83889694Y-42106330D01*
X83927186Y-42118512D01*
X83976789Y-42143786D01*
X84008681Y-42166958D01*
X84048042Y-42206319D01*
X84071214Y-42238211D01*
X84078304Y-42252126D01*
X84096488Y-42287814D01*
X84108670Y-42325306D01*
X84112225Y-42347748D01*
X84115770Y-42370132D01*
X84117321Y-42389847D01*
X84117321Y-42390203D01*
X84115769Y-42400000D01*
X84117320Y-42409793D01*
X84117320Y-42409794D01*
X84118949Y-42420077D01*
X84120500Y-42439788D01*
X84120500Y-46004104D01*
X84097587Y-46076555D01*
X84018950Y-46188444D01*
X84016190Y-46195524D01*
X83966423Y-46323170D01*
X83961406Y-46336037D01*
X83960414Y-46343570D01*
X83960414Y-46343571D01*
X83942685Y-46478240D01*
X83940729Y-46493096D01*
X83949200Y-46569825D01*
X83955162Y-46623821D01*
X83958113Y-46650553D01*
X83960723Y-46657684D01*
X83960723Y-46657686D01*
X84008247Y-46787551D01*
X84012553Y-46799319D01*
X84016789Y-46805622D01*
X84016789Y-46805623D01*
X84092512Y-46918310D01*
X84100908Y-46930805D01*
X84106527Y-46935918D01*
X84106528Y-46935919D01*
X84123326Y-46951204D01*
X84218076Y-47037419D01*
X84357293Y-47113008D01*
X84510522Y-47153207D01*
X84594477Y-47154526D01*
X84661319Y-47155576D01*
X84661322Y-47155576D01*
X84668916Y-47155695D01*
X84823332Y-47120329D01*
X84905377Y-47079065D01*
X84958072Y-47052563D01*
X84958075Y-47052561D01*
X84964855Y-47049151D01*
X84970626Y-47044222D01*
X84970629Y-47044220D01*
X85079536Y-46951204D01*
X85079536Y-46951203D01*
X85085314Y-46946269D01*
X85177755Y-46817624D01*
X85236842Y-46670641D01*
X85259162Y-46513807D01*
X85259307Y-46500000D01*
X85240276Y-46342733D01*
X85184280Y-46194546D01*
X85114153Y-46092510D01*
X85098855Y-46070251D01*
X85098854Y-46070249D01*
X85094553Y-46063992D01*
X84976275Y-45958611D01*
X84946540Y-45942867D01*
X84895698Y-45893317D01*
X84879500Y-45831514D01*
X84879500Y-42439788D01*
X84881051Y-42420077D01*
X84882680Y-42409794D01*
X84882680Y-42409793D01*
X84884231Y-42400000D01*
X84882745Y-42390620D01*
X84882679Y-42389866D01*
X84882679Y-42388823D01*
X84882362Y-42386241D01*
X84877160Y-42326782D01*
X84867332Y-42214445D01*
X84823717Y-42051671D01*
X84820547Y-42039839D01*
X84820546Y-42039837D01*
X84819124Y-42034529D01*
X84800458Y-41994500D01*
X84742731Y-41870704D01*
X84742728Y-41870699D01*
X84740405Y-41865717D01*
X84736747Y-41860493D01*
X84636728Y-41717650D01*
X84636726Y-41717647D01*
X84633569Y-41713139D01*
X84501861Y-41581431D01*
X84497353Y-41578274D01*
X84497350Y-41578272D01*
X84353792Y-41477752D01*
X84353790Y-41477751D01*
X84349283Y-41474595D01*
X84344301Y-41472272D01*
X84344296Y-41472269D01*
X84185453Y-41398199D01*
X84185451Y-41398198D01*
X84180471Y-41395876D01*
X84175163Y-41394454D01*
X84175161Y-41394453D01*
X84085743Y-41370494D01*
X84000555Y-41347668D01*
X83890730Y-41338060D01*
X83884307Y-41337091D01*
X83881149Y-41335982D01*
X83875584Y-41335500D01*
X83866977Y-41335500D01*
X83855995Y-41335020D01*
X83828759Y-41332637D01*
X83826182Y-41332321D01*
X83825134Y-41332321D01*
X83824380Y-41332255D01*
X83815000Y-41330769D01*
X83805207Y-41332320D01*
X83805206Y-41332320D01*
X83794923Y-41333949D01*
X83775212Y-41335500D01*
X74655119Y-41335500D01*
X74586998Y-41315498D01*
X74540505Y-41261842D01*
X74530401Y-41191568D01*
X74544600Y-41148990D01*
X74553322Y-41133060D01*
X74598478Y-41012606D01*
X74602105Y-40997351D01*
X74607631Y-40946486D01*
X74608000Y-40939672D01*
X74608000Y-40717115D01*
X74603525Y-40701876D01*
X74602135Y-40700671D01*
X74594452Y-40699000D01*
X72972000Y-40699000D01*
X72903879Y-40678998D01*
X72857386Y-40625342D01*
X72846000Y-40573000D01*
X72846000Y-40317000D01*
X72866002Y-40248879D01*
X72919658Y-40202386D01*
X72972000Y-40191000D01*
X74589884Y-40191000D01*
X74605123Y-40186525D01*
X74606328Y-40185135D01*
X74607999Y-40177452D01*
X74607999Y-39950331D01*
X74607629Y-39943510D01*
X74602105Y-39892648D01*
X74598479Y-39877396D01*
X74553324Y-39756946D01*
X74544786Y-39741351D01*
X74468285Y-39639276D01*
X74455724Y-39626715D01*
X74353649Y-39550214D01*
X74338054Y-39541676D01*
X74221501Y-39497982D01*
X74164737Y-39455340D01*
X74140037Y-39388779D01*
X74155244Y-39319430D01*
X74205530Y-39269312D01*
X74265731Y-39254000D01*
X88934269Y-39254000D01*
X89002390Y-39274002D01*
X89048883Y-39327658D01*
X89058987Y-39397932D01*
X89029493Y-39462512D01*
X88978499Y-39497982D01*
X88861946Y-39541676D01*
X88846351Y-39550214D01*
X88744276Y-39626715D01*
X88731715Y-39639276D01*
X88655214Y-39741351D01*
X88646676Y-39756946D01*
X88601522Y-39877394D01*
X88597895Y-39892649D01*
X88592369Y-39943514D01*
X88592000Y-39950328D01*
X88592000Y-40172885D01*
X88596475Y-40188124D01*
X88597865Y-40189329D01*
X88605548Y-40191000D01*
X91589884Y-40191000D01*
X91605123Y-40186525D01*
X91606328Y-40185135D01*
X91607999Y-40177452D01*
X91607999Y-39950331D01*
X91607629Y-39943510D01*
X91602105Y-39892648D01*
X91598479Y-39877396D01*
X91553324Y-39756946D01*
X91544786Y-39741351D01*
X91468285Y-39639276D01*
X91455724Y-39626715D01*
X91353649Y-39550214D01*
X91338054Y-39541676D01*
X91221501Y-39497982D01*
X91164737Y-39455340D01*
X91140037Y-39388779D01*
X91155244Y-39319430D01*
X91205530Y-39269312D01*
X91265731Y-39254000D01*
X95962575Y-39254000D01*
X95987153Y-39256421D01*
X96000000Y-39258976D01*
X96012172Y-39256555D01*
X96021786Y-39256555D01*
X96089907Y-39276557D01*
X96136400Y-39330213D01*
X96146504Y-39400487D01*
X96126697Y-39450411D01*
X96126908Y-39450524D01*
X96125924Y-39452360D01*
X96124875Y-39455003D01*
X96123320Y-39457216D01*
X96118950Y-39463434D01*
X96104694Y-39499999D01*
X96066621Y-39597652D01*
X96061406Y-39611027D01*
X96060414Y-39618560D01*
X96060414Y-39618561D01*
X96042196Y-39756946D01*
X96040729Y-39768086D01*
X96058113Y-39925543D01*
X96112553Y-40074309D01*
X96116789Y-40080612D01*
X96116789Y-40080613D01*
X96189034Y-40188124D01*
X96200908Y-40205795D01*
X96206527Y-40210908D01*
X96206528Y-40210909D01*
X96212125Y-40216002D01*
X96318076Y-40312409D01*
X96457293Y-40387998D01*
X96610522Y-40428197D01*
X96694477Y-40429516D01*
X96761319Y-40430566D01*
X96761322Y-40430566D01*
X96768916Y-40430685D01*
X96923332Y-40395319D01*
X96993742Y-40359907D01*
X97058072Y-40327553D01*
X97058075Y-40327551D01*
X97064855Y-40324141D01*
X97070626Y-40319212D01*
X97070629Y-40319210D01*
X97179536Y-40226194D01*
X97179536Y-40226193D01*
X97185314Y-40221259D01*
X97277755Y-40092614D01*
X97336842Y-39945631D01*
X97337964Y-39937747D01*
X97338074Y-39937506D01*
X97339878Y-39930772D01*
X97341000Y-39931073D01*
X97367364Y-39873124D01*
X97427035Y-39834655D01*
X97462707Y-39829500D01*
X97719379Y-39829499D01*
X97729314Y-39829499D01*
X97732262Y-39829220D01*
X97732271Y-39829220D01*
X97753478Y-39827216D01*
X97753480Y-39827216D01*
X97761127Y-39826493D01*
X97890076Y-39781209D01*
X98000010Y-39700010D01*
X98081209Y-39590076D01*
X98126493Y-39461127D01*
X98127496Y-39450524D01*
X98128624Y-39438579D01*
X98129500Y-39429315D01*
X98129500Y-39319522D01*
X98149502Y-39251401D01*
X98203158Y-39204908D01*
X98273432Y-39194804D01*
X98335601Y-39222602D01*
X98337328Y-39224329D01*
X98416773Y-39279957D01*
X98461100Y-39335411D01*
X98470501Y-39383168D01*
X98470501Y-39429314D01*
X98470780Y-39432262D01*
X98470780Y-39432271D01*
X98472784Y-39453478D01*
X98473507Y-39461127D01*
X98476052Y-39468374D01*
X98476053Y-39468377D01*
X98480949Y-39482320D01*
X98518791Y-39590076D01*
X98599990Y-39700010D01*
X98709924Y-39781209D01*
X98838873Y-39826493D01*
X98846515Y-39827215D01*
X98846518Y-39827216D01*
X98861421Y-39828624D01*
X98870685Y-39829500D01*
X99124828Y-39829500D01*
X99379314Y-39829499D01*
X99382262Y-39829220D01*
X99382271Y-39829220D01*
X99403478Y-39827216D01*
X99403480Y-39827216D01*
X99411127Y-39826493D01*
X99540076Y-39781209D01*
X99650010Y-39700010D01*
X99731209Y-39590076D01*
X99776493Y-39461127D01*
X99777496Y-39450524D01*
X99778624Y-39438579D01*
X99779500Y-39429315D01*
X99779499Y-38770686D01*
X99776493Y-38738873D01*
X99731209Y-38609924D01*
X99725616Y-38602352D01*
X99725614Y-38602348D01*
X99705310Y-38574860D01*
X99680927Y-38508182D01*
X99696463Y-38438906D01*
X99705310Y-38425140D01*
X99725614Y-38397652D01*
X99725616Y-38397648D01*
X99731209Y-38390076D01*
X99741051Y-38362050D01*
X99782495Y-38304405D01*
X99847582Y-38278407D01*
X99905811Y-38272671D01*
X99945583Y-38268754D01*
X99971257Y-38260966D01*
X100079650Y-38228086D01*
X100079655Y-38228084D01*
X100085572Y-38226289D01*
X100092360Y-38222661D01*
X100093133Y-38222500D01*
X100096744Y-38221004D01*
X100097028Y-38221689D01*
X100161866Y-38208190D01*
X100228161Y-38233595D01*
G37*
%TD.AperFunction*%
%TD*%
M02*
