%TF.GenerationSoftware,KiCad,Pcbnew,(5.1.9-0-10_14)*%
%TF.CreationDate,2021-06-12T12:45:42+01:00*%
%TF.ProjectId,Bell,42656c6c-2e6b-4696-9361-645f70636258,1*%
%TF.SameCoordinates,Original*%
%TF.FileFunction,Soldermask,Top*%
%TF.FilePolarity,Negative*%
%FSLAX46Y46*%
G04 Gerber Fmt 4.6, Leading zero omitted, Abs format (unit mm)*
G04 Created by KiCad (PCBNEW (5.1.9-0-10_14)) date 2021-06-12 12:45:42*
%MOMM*%
%LPD*%
G01*
G04 APERTURE LIST*
%ADD10C,0.100000*%
%ADD11R,0.900000X0.800000*%
%ADD12R,0.650000X0.400000*%
%ADD13C,5.500000*%
%ADD14C,0.350000*%
%ADD15C,0.500000*%
%ADD16R,2.000000X0.900000*%
%ADD17R,0.900000X2.000000*%
%ADD18R,5.000000X5.000000*%
%ADD19R,1.100000X0.600000*%
%ADD20R,3.700000X1.425000*%
%ADD21O,1.850000X1.700000*%
%ADD22R,1.140000X0.600000*%
%ADD23C,1.700000*%
%ADD24C,2.000000*%
%ADD25R,1.140000X0.300000*%
G04 APERTURE END LIST*
D10*
%TO.C,U5*%
G36*
X71600000Y-62400000D02*
G01*
X71600000Y-68200000D01*
X77400000Y-68200000D01*
X77400000Y-62400000D01*
X71600000Y-62400000D01*
G37*
X71600000Y-62400000D02*
X71600000Y-68200000D01*
X77400000Y-68200000D01*
X77400000Y-62400000D01*
X71600000Y-62400000D01*
%TD*%
D11*
%TO.C,D1*%
X98750000Y-35750000D03*
X96750000Y-36700000D03*
X96750000Y-34800000D03*
%TD*%
D12*
%TO.C,U9*%
X98700000Y-46350000D03*
X98700000Y-47650000D03*
X96800000Y-47000000D03*
X98700000Y-47000000D03*
X96800000Y-47650000D03*
X96800000Y-46350000D03*
%TD*%
%TO.C,U8*%
X94450000Y-46350000D03*
X94450000Y-47650000D03*
X92550000Y-47000000D03*
X94450000Y-47000000D03*
X92550000Y-47650000D03*
X92550000Y-46350000D03*
%TD*%
%TO.C,U7*%
X94450000Y-40850000D03*
X94450000Y-42150000D03*
X92550000Y-41500000D03*
X94450000Y-41500000D03*
X92550000Y-42150000D03*
X92550000Y-40850000D03*
%TD*%
%TO.C,U6*%
X98700000Y-40850000D03*
X98700000Y-42150000D03*
X96800000Y-41500000D03*
X98700000Y-41500000D03*
X96800000Y-42150000D03*
X96800000Y-40850000D03*
%TD*%
D13*
%TO.C,U4*%
X81000000Y-65100000D03*
%TD*%
D14*
%TO.C,U2*%
X93500000Y-63000000D03*
D15*
X91500000Y-65000000D03*
D10*
G36*
X94500000Y-62000000D02*
G01*
X94500000Y-64000000D01*
X92750000Y-64000000D01*
X92500000Y-63750000D01*
X92500000Y-62000000D01*
X94500000Y-62000000D01*
G37*
G36*
G01*
X91937500Y-64125000D02*
X91062500Y-64125000D01*
G75*
G02*
X91000000Y-64062500I0J62500D01*
G01*
X91000000Y-63937500D01*
G75*
G02*
X91062500Y-63875000I62500J0D01*
G01*
X91937500Y-63875000D01*
G75*
G02*
X92000000Y-63937500I0J-62500D01*
G01*
X92000000Y-64062500D01*
G75*
G02*
X91937500Y-64125000I-62500J0D01*
G01*
G37*
G36*
G01*
X91937500Y-63625000D02*
X91062500Y-63625000D01*
G75*
G02*
X91000000Y-63562500I0J62500D01*
G01*
X91000000Y-63437500D01*
G75*
G02*
X91062500Y-63375000I62500J0D01*
G01*
X91937500Y-63375000D01*
G75*
G02*
X92000000Y-63437500I0J-62500D01*
G01*
X92000000Y-63562500D01*
G75*
G02*
X91937500Y-63625000I-62500J0D01*
G01*
G37*
G36*
G01*
X91937500Y-63125000D02*
X91062500Y-63125000D01*
G75*
G02*
X91000000Y-63062500I0J62500D01*
G01*
X91000000Y-62937500D01*
G75*
G02*
X91062500Y-62875000I62500J0D01*
G01*
X91937500Y-62875000D01*
G75*
G02*
X92000000Y-62937500I0J-62500D01*
G01*
X92000000Y-63062500D01*
G75*
G02*
X91937500Y-63125000I-62500J0D01*
G01*
G37*
G36*
G01*
X91937500Y-62625000D02*
X91062500Y-62625000D01*
G75*
G02*
X91000000Y-62562500I0J62500D01*
G01*
X91000000Y-62437500D01*
G75*
G02*
X91062500Y-62375000I62500J0D01*
G01*
X91937500Y-62375000D01*
G75*
G02*
X92000000Y-62437500I0J-62500D01*
G01*
X92000000Y-62562500D01*
G75*
G02*
X91937500Y-62625000I-62500J0D01*
G01*
G37*
G36*
G01*
X91937500Y-62125000D02*
X91062500Y-62125000D01*
G75*
G02*
X91000000Y-62062500I0J62500D01*
G01*
X91000000Y-61937500D01*
G75*
G02*
X91062500Y-61875000I62500J0D01*
G01*
X91937500Y-61875000D01*
G75*
G02*
X92000000Y-61937500I0J-62500D01*
G01*
X92000000Y-62062500D01*
G75*
G02*
X91937500Y-62125000I-62500J0D01*
G01*
G37*
G36*
G01*
X92562500Y-61500000D02*
X92437500Y-61500000D01*
G75*
G02*
X92375000Y-61437500I0J62500D01*
G01*
X92375000Y-60562500D01*
G75*
G02*
X92437500Y-60500000I62500J0D01*
G01*
X92562500Y-60500000D01*
G75*
G02*
X92625000Y-60562500I0J-62500D01*
G01*
X92625000Y-61437500D01*
G75*
G02*
X92562500Y-61500000I-62500J0D01*
G01*
G37*
G36*
G01*
X93062500Y-61500000D02*
X92937500Y-61500000D01*
G75*
G02*
X92875000Y-61437500I0J62500D01*
G01*
X92875000Y-60562500D01*
G75*
G02*
X92937500Y-60500000I62500J0D01*
G01*
X93062500Y-60500000D01*
G75*
G02*
X93125000Y-60562500I0J-62500D01*
G01*
X93125000Y-61437500D01*
G75*
G02*
X93062500Y-61500000I-62500J0D01*
G01*
G37*
G36*
G01*
X93562500Y-61500000D02*
X93437500Y-61500000D01*
G75*
G02*
X93375000Y-61437500I0J62500D01*
G01*
X93375000Y-60562500D01*
G75*
G02*
X93437500Y-60500000I62500J0D01*
G01*
X93562500Y-60500000D01*
G75*
G02*
X93625000Y-60562500I0J-62500D01*
G01*
X93625000Y-61437500D01*
G75*
G02*
X93562500Y-61500000I-62500J0D01*
G01*
G37*
G36*
G01*
X94062500Y-61500000D02*
X93937500Y-61500000D01*
G75*
G02*
X93875000Y-61437500I0J62500D01*
G01*
X93875000Y-60562500D01*
G75*
G02*
X93937500Y-60500000I62500J0D01*
G01*
X94062500Y-60500000D01*
G75*
G02*
X94125000Y-60562500I0J-62500D01*
G01*
X94125000Y-61437500D01*
G75*
G02*
X94062500Y-61500000I-62500J0D01*
G01*
G37*
G36*
G01*
X94562500Y-61500000D02*
X94437500Y-61500000D01*
G75*
G02*
X94375000Y-61437500I0J62500D01*
G01*
X94375000Y-60562500D01*
G75*
G02*
X94437500Y-60500000I62500J0D01*
G01*
X94562500Y-60500000D01*
G75*
G02*
X94625000Y-60562500I0J-62500D01*
G01*
X94625000Y-61437500D01*
G75*
G02*
X94562500Y-61500000I-62500J0D01*
G01*
G37*
G36*
G01*
X95937500Y-62125000D02*
X95062500Y-62125000D01*
G75*
G02*
X95000000Y-62062500I0J62500D01*
G01*
X95000000Y-61937500D01*
G75*
G02*
X95062500Y-61875000I62500J0D01*
G01*
X95937500Y-61875000D01*
G75*
G02*
X96000000Y-61937500I0J-62500D01*
G01*
X96000000Y-62062500D01*
G75*
G02*
X95937500Y-62125000I-62500J0D01*
G01*
G37*
G36*
G01*
X95937500Y-62625000D02*
X95062500Y-62625000D01*
G75*
G02*
X95000000Y-62562500I0J62500D01*
G01*
X95000000Y-62437500D01*
G75*
G02*
X95062500Y-62375000I62500J0D01*
G01*
X95937500Y-62375000D01*
G75*
G02*
X96000000Y-62437500I0J-62500D01*
G01*
X96000000Y-62562500D01*
G75*
G02*
X95937500Y-62625000I-62500J0D01*
G01*
G37*
G36*
G01*
X95937500Y-63125000D02*
X95062500Y-63125000D01*
G75*
G02*
X95000000Y-63062500I0J62500D01*
G01*
X95000000Y-62937500D01*
G75*
G02*
X95062500Y-62875000I62500J0D01*
G01*
X95937500Y-62875000D01*
G75*
G02*
X96000000Y-62937500I0J-62500D01*
G01*
X96000000Y-63062500D01*
G75*
G02*
X95937500Y-63125000I-62500J0D01*
G01*
G37*
G36*
G01*
X95937500Y-63625000D02*
X95062500Y-63625000D01*
G75*
G02*
X95000000Y-63562500I0J62500D01*
G01*
X95000000Y-63437500D01*
G75*
G02*
X95062500Y-63375000I62500J0D01*
G01*
X95937500Y-63375000D01*
G75*
G02*
X96000000Y-63437500I0J-62500D01*
G01*
X96000000Y-63562500D01*
G75*
G02*
X95937500Y-63625000I-62500J0D01*
G01*
G37*
G36*
G01*
X95937500Y-64125000D02*
X95062500Y-64125000D01*
G75*
G02*
X95000000Y-64062500I0J62500D01*
G01*
X95000000Y-63937500D01*
G75*
G02*
X95062500Y-63875000I62500J0D01*
G01*
X95937500Y-63875000D01*
G75*
G02*
X96000000Y-63937500I0J-62500D01*
G01*
X96000000Y-64062500D01*
G75*
G02*
X95937500Y-64125000I-62500J0D01*
G01*
G37*
G36*
G01*
X94562500Y-65500000D02*
X94437500Y-65500000D01*
G75*
G02*
X94375000Y-65437500I0J62500D01*
G01*
X94375000Y-64562500D01*
G75*
G02*
X94437500Y-64500000I62500J0D01*
G01*
X94562500Y-64500000D01*
G75*
G02*
X94625000Y-64562500I0J-62500D01*
G01*
X94625000Y-65437500D01*
G75*
G02*
X94562500Y-65500000I-62500J0D01*
G01*
G37*
G36*
G01*
X94062500Y-65500000D02*
X93937500Y-65500000D01*
G75*
G02*
X93875000Y-65437500I0J62500D01*
G01*
X93875000Y-64562500D01*
G75*
G02*
X93937500Y-64500000I62500J0D01*
G01*
X94062500Y-64500000D01*
G75*
G02*
X94125000Y-64562500I0J-62500D01*
G01*
X94125000Y-65437500D01*
G75*
G02*
X94062500Y-65500000I-62500J0D01*
G01*
G37*
G36*
G01*
X93562500Y-65500000D02*
X93437500Y-65500000D01*
G75*
G02*
X93375000Y-65437500I0J62500D01*
G01*
X93375000Y-64562500D01*
G75*
G02*
X93437500Y-64500000I62500J0D01*
G01*
X93562500Y-64500000D01*
G75*
G02*
X93625000Y-64562500I0J-62500D01*
G01*
X93625000Y-65437500D01*
G75*
G02*
X93562500Y-65500000I-62500J0D01*
G01*
G37*
G36*
G01*
X93062500Y-65500000D02*
X92937500Y-65500000D01*
G75*
G02*
X92875000Y-65437500I0J62500D01*
G01*
X92875000Y-64562500D01*
G75*
G02*
X92937500Y-64500000I62500J0D01*
G01*
X93062500Y-64500000D01*
G75*
G02*
X93125000Y-64562500I0J-62500D01*
G01*
X93125000Y-65437500D01*
G75*
G02*
X93062500Y-65500000I-62500J0D01*
G01*
G37*
G36*
G01*
X92562500Y-65500000D02*
X92437500Y-65500000D01*
G75*
G02*
X92375000Y-65437500I0J62500D01*
G01*
X92375000Y-64562500D01*
G75*
G02*
X92437500Y-64500000I62500J0D01*
G01*
X92562500Y-64500000D01*
G75*
G02*
X92625000Y-64562500I0J-62500D01*
G01*
X92625000Y-65437500D01*
G75*
G02*
X92562500Y-65500000I-62500J0D01*
G01*
G37*
%TD*%
D16*
%TO.C,U1*%
X89750000Y-40245000D03*
X89750000Y-41515000D03*
X89750000Y-42785000D03*
X89750000Y-44055000D03*
X89750000Y-45325000D03*
X89750000Y-46595000D03*
X89750000Y-47865000D03*
X89750000Y-49135000D03*
X89750000Y-50405000D03*
X89750000Y-51675000D03*
X89750000Y-52945000D03*
X89750000Y-54215000D03*
X89750000Y-55485000D03*
X89750000Y-56755000D03*
D17*
X86965000Y-57755000D03*
X85695000Y-57755000D03*
X84425000Y-57755000D03*
X83155000Y-57755000D03*
X81885000Y-57755000D03*
X80615000Y-57755000D03*
X79345000Y-57755000D03*
X78075000Y-57755000D03*
X76805000Y-57755000D03*
X75535000Y-57755000D03*
D16*
X72750000Y-56755000D03*
X72750000Y-55485000D03*
X72750000Y-54215000D03*
X72750000Y-52945000D03*
X72750000Y-51675000D03*
X72750000Y-50405000D03*
X72750000Y-49135000D03*
X72750000Y-47865000D03*
X72750000Y-46595000D03*
X72750000Y-45325000D03*
X72750000Y-44055000D03*
X72750000Y-42785000D03*
X72750000Y-41515000D03*
X72750000Y-40245000D03*
D18*
X80250000Y-47745000D03*
%TD*%
D19*
%TO.C,Reg1*%
X93000000Y-55500000D03*
X93000000Y-57400000D03*
X93000000Y-56450000D03*
X95700000Y-57400000D03*
X95700000Y-56450000D03*
X95700000Y-55500000D03*
G36*
G01*
X96450000Y-51525000D02*
X96450000Y-50575000D01*
G75*
G02*
X96700000Y-50325000I250000J0D01*
G01*
X97200000Y-50325000D01*
G75*
G02*
X97450000Y-50575000I0J-250000D01*
G01*
X97450000Y-51525000D01*
G75*
G02*
X97200000Y-51775000I-250000J0D01*
G01*
X96700000Y-51775000D01*
G75*
G02*
X96450000Y-51525000I0J250000D01*
G01*
G37*
G36*
G01*
X98350000Y-51525000D02*
X98350000Y-50575000D01*
G75*
G02*
X98600000Y-50325000I250000J0D01*
G01*
X99100000Y-50325000D01*
G75*
G02*
X99350000Y-50575000I0J-250000D01*
G01*
X99350000Y-51525000D01*
G75*
G02*
X99100000Y-51775000I-250000J0D01*
G01*
X98600000Y-51775000D01*
G75*
G02*
X98350000Y-51525000I0J250000D01*
G01*
G37*
G36*
G01*
X98350000Y-57775000D02*
X98350000Y-56825000D01*
G75*
G02*
X98600000Y-56575000I250000J0D01*
G01*
X99100000Y-56575000D01*
G75*
G02*
X99350000Y-56825000I0J-250000D01*
G01*
X99350000Y-57775000D01*
G75*
G02*
X99100000Y-58025000I-250000J0D01*
G01*
X98600000Y-58025000D01*
G75*
G02*
X98350000Y-57775000I0J250000D01*
G01*
G37*
G36*
G01*
X96450000Y-57775000D02*
X96450000Y-56825000D01*
G75*
G02*
X96700000Y-56575000I250000J0D01*
G01*
X97200000Y-56575000D01*
G75*
G02*
X97450000Y-56825000I0J-250000D01*
G01*
X97450000Y-57775000D01*
G75*
G02*
X97200000Y-58025000I-250000J0D01*
G01*
X96700000Y-58025000D01*
G75*
G02*
X96450000Y-57775000I0J250000D01*
G01*
G37*
G36*
G01*
X94025000Y-58300000D02*
X94025000Y-58800000D01*
G75*
G02*
X93800000Y-59025000I-225000J0D01*
G01*
X93350000Y-59025000D01*
G75*
G02*
X93125000Y-58800000I0J225000D01*
G01*
X93125000Y-58300000D01*
G75*
G02*
X93350000Y-58075000I225000J0D01*
G01*
X93800000Y-58075000D01*
G75*
G02*
X94025000Y-58300000I0J-225000D01*
G01*
G37*
G36*
G01*
X95575000Y-58300000D02*
X95575000Y-58800000D01*
G75*
G02*
X95350000Y-59025000I-225000J0D01*
G01*
X94900000Y-59025000D01*
G75*
G02*
X94675000Y-58800000I0J225000D01*
G01*
X94675000Y-58300000D01*
G75*
G02*
X94900000Y-58075000I225000J0D01*
G01*
X95350000Y-58075000D01*
G75*
G02*
X95575000Y-58300000I0J-225000D01*
G01*
G37*
G36*
G01*
X98145627Y-56375000D02*
X96894373Y-56375000D01*
G75*
G02*
X96645000Y-56125627I0J249373D01*
G01*
X96645000Y-55199373D01*
G75*
G02*
X96894373Y-54950000I249373J0D01*
G01*
X98145627Y-54950000D01*
G75*
G02*
X98395000Y-55199373I0J-249373D01*
G01*
X98395000Y-56125627D01*
G75*
G02*
X98145627Y-56375000I-249373J0D01*
G01*
G37*
G36*
G01*
X98145627Y-53400000D02*
X96894373Y-53400000D01*
G75*
G02*
X96645000Y-53150627I0J249373D01*
G01*
X96645000Y-52224373D01*
G75*
G02*
X96894373Y-51975000I249373J0D01*
G01*
X98145627Y-51975000D01*
G75*
G02*
X98395000Y-52224373I0J-249373D01*
G01*
X98395000Y-53150627D01*
G75*
G02*
X98145627Y-53400000I-249373J0D01*
G01*
G37*
D20*
X94400000Y-51050000D03*
X94400000Y-54050000D03*
%TD*%
%TO.C,R17*%
G36*
G01*
X98175000Y-49275000D02*
X98175000Y-48725000D01*
G75*
G02*
X98375000Y-48525000I200000J0D01*
G01*
X98775000Y-48525000D01*
G75*
G02*
X98975000Y-48725000I0J-200000D01*
G01*
X98975000Y-49275000D01*
G75*
G02*
X98775000Y-49475000I-200000J0D01*
G01*
X98375000Y-49475000D01*
G75*
G02*
X98175000Y-49275000I0J200000D01*
G01*
G37*
G36*
G01*
X96525000Y-49275000D02*
X96525000Y-48725000D01*
G75*
G02*
X96725000Y-48525000I200000J0D01*
G01*
X97125000Y-48525000D01*
G75*
G02*
X97325000Y-48725000I0J-200000D01*
G01*
X97325000Y-49275000D01*
G75*
G02*
X97125000Y-49475000I-200000J0D01*
G01*
X96725000Y-49475000D01*
G75*
G02*
X96525000Y-49275000I0J200000D01*
G01*
G37*
%TD*%
%TO.C,R16*%
G36*
G01*
X88425000Y-67275000D02*
X88425000Y-66725000D01*
G75*
G02*
X88625000Y-66525000I200000J0D01*
G01*
X89025000Y-66525000D01*
G75*
G02*
X89225000Y-66725000I0J-200000D01*
G01*
X89225000Y-67275000D01*
G75*
G02*
X89025000Y-67475000I-200000J0D01*
G01*
X88625000Y-67475000D01*
G75*
G02*
X88425000Y-67275000I0J200000D01*
G01*
G37*
G36*
G01*
X86775000Y-67275000D02*
X86775000Y-66725000D01*
G75*
G02*
X86975000Y-66525000I200000J0D01*
G01*
X87375000Y-66525000D01*
G75*
G02*
X87575000Y-66725000I0J-200000D01*
G01*
X87575000Y-67275000D01*
G75*
G02*
X87375000Y-67475000I-200000J0D01*
G01*
X86975000Y-67475000D01*
G75*
G02*
X86775000Y-67275000I0J200000D01*
G01*
G37*
%TD*%
%TO.C,R15*%
G36*
G01*
X98175000Y-45275000D02*
X98175000Y-44725000D01*
G75*
G02*
X98375000Y-44525000I200000J0D01*
G01*
X98775000Y-44525000D01*
G75*
G02*
X98975000Y-44725000I0J-200000D01*
G01*
X98975000Y-45275000D01*
G75*
G02*
X98775000Y-45475000I-200000J0D01*
G01*
X98375000Y-45475000D01*
G75*
G02*
X98175000Y-45275000I0J200000D01*
G01*
G37*
G36*
G01*
X96525000Y-45275000D02*
X96525000Y-44725000D01*
G75*
G02*
X96725000Y-44525000I200000J0D01*
G01*
X97125000Y-44525000D01*
G75*
G02*
X97325000Y-44725000I0J-200000D01*
G01*
X97325000Y-45275000D01*
G75*
G02*
X97125000Y-45475000I-200000J0D01*
G01*
X96725000Y-45475000D01*
G75*
G02*
X96525000Y-45275000I0J200000D01*
G01*
G37*
%TD*%
%TO.C,R14*%
G36*
G01*
X93925000Y-49275000D02*
X93925000Y-48725000D01*
G75*
G02*
X94125000Y-48525000I200000J0D01*
G01*
X94525000Y-48525000D01*
G75*
G02*
X94725000Y-48725000I0J-200000D01*
G01*
X94725000Y-49275000D01*
G75*
G02*
X94525000Y-49475000I-200000J0D01*
G01*
X94125000Y-49475000D01*
G75*
G02*
X93925000Y-49275000I0J200000D01*
G01*
G37*
G36*
G01*
X92275000Y-49275000D02*
X92275000Y-48725000D01*
G75*
G02*
X92475000Y-48525000I200000J0D01*
G01*
X92875000Y-48525000D01*
G75*
G02*
X93075000Y-48725000I0J-200000D01*
G01*
X93075000Y-49275000D01*
G75*
G02*
X92875000Y-49475000I-200000J0D01*
G01*
X92475000Y-49475000D01*
G75*
G02*
X92275000Y-49275000I0J200000D01*
G01*
G37*
%TD*%
%TO.C,R12*%
G36*
G01*
X98025000Y-63675000D02*
X98025000Y-63125000D01*
G75*
G02*
X98225000Y-62925000I200000J0D01*
G01*
X98625000Y-62925000D01*
G75*
G02*
X98825000Y-63125000I0J-200000D01*
G01*
X98825000Y-63675000D01*
G75*
G02*
X98625000Y-63875000I-200000J0D01*
G01*
X98225000Y-63875000D01*
G75*
G02*
X98025000Y-63675000I0J200000D01*
G01*
G37*
G36*
G01*
X96375000Y-63675000D02*
X96375000Y-63125000D01*
G75*
G02*
X96575000Y-62925000I200000J0D01*
G01*
X96975000Y-62925000D01*
G75*
G02*
X97175000Y-63125000I0J-200000D01*
G01*
X97175000Y-63675000D01*
G75*
G02*
X96975000Y-63875000I-200000J0D01*
G01*
X96575000Y-63875000D01*
G75*
G02*
X96375000Y-63675000I0J200000D01*
G01*
G37*
%TD*%
%TO.C,R11*%
G36*
G01*
X98025000Y-61975000D02*
X98025000Y-61425000D01*
G75*
G02*
X98225000Y-61225000I200000J0D01*
G01*
X98625000Y-61225000D01*
G75*
G02*
X98825000Y-61425000I0J-200000D01*
G01*
X98825000Y-61975000D01*
G75*
G02*
X98625000Y-62175000I-200000J0D01*
G01*
X98225000Y-62175000D01*
G75*
G02*
X98025000Y-61975000I0J200000D01*
G01*
G37*
G36*
G01*
X96375000Y-61975000D02*
X96375000Y-61425000D01*
G75*
G02*
X96575000Y-61225000I200000J0D01*
G01*
X96975000Y-61225000D01*
G75*
G02*
X97175000Y-61425000I0J-200000D01*
G01*
X97175000Y-61975000D01*
G75*
G02*
X96975000Y-62175000I-200000J0D01*
G01*
X96575000Y-62175000D01*
G75*
G02*
X96375000Y-61975000I0J200000D01*
G01*
G37*
%TD*%
%TO.C,R10*%
G36*
G01*
X98025000Y-60075000D02*
X98025000Y-59525000D01*
G75*
G02*
X98225000Y-59325000I200000J0D01*
G01*
X98625000Y-59325000D01*
G75*
G02*
X98825000Y-59525000I0J-200000D01*
G01*
X98825000Y-60075000D01*
G75*
G02*
X98625000Y-60275000I-200000J0D01*
G01*
X98225000Y-60275000D01*
G75*
G02*
X98025000Y-60075000I0J200000D01*
G01*
G37*
G36*
G01*
X96375000Y-60075000D02*
X96375000Y-59525000D01*
G75*
G02*
X96575000Y-59325000I200000J0D01*
G01*
X96975000Y-59325000D01*
G75*
G02*
X97175000Y-59525000I0J-200000D01*
G01*
X97175000Y-60075000D01*
G75*
G02*
X96975000Y-60275000I-200000J0D01*
G01*
X96575000Y-60275000D01*
G75*
G02*
X96375000Y-60075000I0J200000D01*
G01*
G37*
%TD*%
%TO.C,R9*%
G36*
G01*
X97375000Y-65325000D02*
X97375000Y-65875000D01*
G75*
G02*
X97175000Y-66075000I-200000J0D01*
G01*
X96775000Y-66075000D01*
G75*
G02*
X96575000Y-65875000I0J200000D01*
G01*
X96575000Y-65325000D01*
G75*
G02*
X96775000Y-65125000I200000J0D01*
G01*
X97175000Y-65125000D01*
G75*
G02*
X97375000Y-65325000I0J-200000D01*
G01*
G37*
G36*
G01*
X99025000Y-65325000D02*
X99025000Y-65875000D01*
G75*
G02*
X98825000Y-66075000I-200000J0D01*
G01*
X98425000Y-66075000D01*
G75*
G02*
X98225000Y-65875000I0J200000D01*
G01*
X98225000Y-65325000D01*
G75*
G02*
X98425000Y-65125000I200000J0D01*
G01*
X98825000Y-65125000D01*
G75*
G02*
X99025000Y-65325000I0J-200000D01*
G01*
G37*
%TD*%
%TO.C,R8*%
G36*
G01*
X97325000Y-33225000D02*
X97325000Y-33775000D01*
G75*
G02*
X97125000Y-33975000I-200000J0D01*
G01*
X96725000Y-33975000D01*
G75*
G02*
X96525000Y-33775000I0J200000D01*
G01*
X96525000Y-33225000D01*
G75*
G02*
X96725000Y-33025000I200000J0D01*
G01*
X97125000Y-33025000D01*
G75*
G02*
X97325000Y-33225000I0J-200000D01*
G01*
G37*
G36*
G01*
X98975000Y-33225000D02*
X98975000Y-33775000D01*
G75*
G02*
X98775000Y-33975000I-200000J0D01*
G01*
X98375000Y-33975000D01*
G75*
G02*
X98175000Y-33775000I0J200000D01*
G01*
X98175000Y-33225000D01*
G75*
G02*
X98375000Y-33025000I200000J0D01*
G01*
X98775000Y-33025000D01*
G75*
G02*
X98975000Y-33225000I0J-200000D01*
G01*
G37*
%TD*%
%TO.C,R7*%
G36*
G01*
X93925000Y-45275000D02*
X93925000Y-44725000D01*
G75*
G02*
X94125000Y-44525000I200000J0D01*
G01*
X94525000Y-44525000D01*
G75*
G02*
X94725000Y-44725000I0J-200000D01*
G01*
X94725000Y-45275000D01*
G75*
G02*
X94525000Y-45475000I-200000J0D01*
G01*
X94125000Y-45475000D01*
G75*
G02*
X93925000Y-45275000I0J200000D01*
G01*
G37*
G36*
G01*
X92275000Y-45275000D02*
X92275000Y-44725000D01*
G75*
G02*
X92475000Y-44525000I200000J0D01*
G01*
X92875000Y-44525000D01*
G75*
G02*
X93075000Y-44725000I0J-200000D01*
G01*
X93075000Y-45275000D01*
G75*
G02*
X92875000Y-45475000I-200000J0D01*
G01*
X92475000Y-45475000D01*
G75*
G02*
X92275000Y-45275000I0J200000D01*
G01*
G37*
%TD*%
%TO.C,R6*%
G36*
G01*
X94025000Y-43775000D02*
X94025000Y-43225000D01*
G75*
G02*
X94225000Y-43025000I200000J0D01*
G01*
X94625000Y-43025000D01*
G75*
G02*
X94825000Y-43225000I0J-200000D01*
G01*
X94825000Y-43775000D01*
G75*
G02*
X94625000Y-43975000I-200000J0D01*
G01*
X94225000Y-43975000D01*
G75*
G02*
X94025000Y-43775000I0J200000D01*
G01*
G37*
G36*
G01*
X92375000Y-43775000D02*
X92375000Y-43225000D01*
G75*
G02*
X92575000Y-43025000I200000J0D01*
G01*
X92975000Y-43025000D01*
G75*
G02*
X93175000Y-43225000I0J-200000D01*
G01*
X93175000Y-43775000D01*
G75*
G02*
X92975000Y-43975000I-200000J0D01*
G01*
X92575000Y-43975000D01*
G75*
G02*
X92375000Y-43775000I0J200000D01*
G01*
G37*
%TD*%
%TO.C,R5*%
G36*
G01*
X93925000Y-39775000D02*
X93925000Y-39225000D01*
G75*
G02*
X94125000Y-39025000I200000J0D01*
G01*
X94525000Y-39025000D01*
G75*
G02*
X94725000Y-39225000I0J-200000D01*
G01*
X94725000Y-39775000D01*
G75*
G02*
X94525000Y-39975000I-200000J0D01*
G01*
X94125000Y-39975000D01*
G75*
G02*
X93925000Y-39775000I0J200000D01*
G01*
G37*
G36*
G01*
X92275000Y-39775000D02*
X92275000Y-39225000D01*
G75*
G02*
X92475000Y-39025000I200000J0D01*
G01*
X92875000Y-39025000D01*
G75*
G02*
X93075000Y-39225000I0J-200000D01*
G01*
X93075000Y-39775000D01*
G75*
G02*
X92875000Y-39975000I-200000J0D01*
G01*
X92475000Y-39975000D01*
G75*
G02*
X92275000Y-39775000I0J200000D01*
G01*
G37*
%TD*%
%TO.C,R4*%
G36*
G01*
X98175000Y-43775000D02*
X98175000Y-43225000D01*
G75*
G02*
X98375000Y-43025000I200000J0D01*
G01*
X98775000Y-43025000D01*
G75*
G02*
X98975000Y-43225000I0J-200000D01*
G01*
X98975000Y-43775000D01*
G75*
G02*
X98775000Y-43975000I-200000J0D01*
G01*
X98375000Y-43975000D01*
G75*
G02*
X98175000Y-43775000I0J200000D01*
G01*
G37*
G36*
G01*
X96525000Y-43775000D02*
X96525000Y-43225000D01*
G75*
G02*
X96725000Y-43025000I200000J0D01*
G01*
X97125000Y-43025000D01*
G75*
G02*
X97325000Y-43225000I0J-200000D01*
G01*
X97325000Y-43775000D01*
G75*
G02*
X97125000Y-43975000I-200000J0D01*
G01*
X96725000Y-43975000D01*
G75*
G02*
X96525000Y-43775000I0J200000D01*
G01*
G37*
%TD*%
%TO.C,R3*%
G36*
G01*
X98175000Y-39775000D02*
X98175000Y-39225000D01*
G75*
G02*
X98375000Y-39025000I200000J0D01*
G01*
X98775000Y-39025000D01*
G75*
G02*
X98975000Y-39225000I0J-200000D01*
G01*
X98975000Y-39775000D01*
G75*
G02*
X98775000Y-39975000I-200000J0D01*
G01*
X98375000Y-39975000D01*
G75*
G02*
X98175000Y-39775000I0J200000D01*
G01*
G37*
G36*
G01*
X96525000Y-39775000D02*
X96525000Y-39225000D01*
G75*
G02*
X96725000Y-39025000I200000J0D01*
G01*
X97125000Y-39025000D01*
G75*
G02*
X97325000Y-39225000I0J-200000D01*
G01*
X97325000Y-39775000D01*
G75*
G02*
X97125000Y-39975000I-200000J0D01*
G01*
X96725000Y-39975000D01*
G75*
G02*
X96525000Y-39775000I0J200000D01*
G01*
G37*
%TD*%
D21*
%TO.C,J4*%
X101250000Y-52750000D03*
G36*
G01*
X101925000Y-56100000D02*
X100575000Y-56100000D01*
G75*
G02*
X100325000Y-55850000I0J250000D01*
G01*
X100325000Y-54650000D01*
G75*
G02*
X100575000Y-54400000I250000J0D01*
G01*
X101925000Y-54400000D01*
G75*
G02*
X102175000Y-54650000I0J-250000D01*
G01*
X102175000Y-55850000D01*
G75*
G02*
X101925000Y-56100000I-250000J0D01*
G01*
G37*
%TD*%
%TO.C,J3*%
X101250000Y-35250000D03*
X101250000Y-37750000D03*
X101250000Y-40250000D03*
X101250000Y-42750000D03*
X101250000Y-45250000D03*
G36*
G01*
X101925000Y-48600000D02*
X100575000Y-48600000D01*
G75*
G02*
X100325000Y-48350000I0J250000D01*
G01*
X100325000Y-47150000D01*
G75*
G02*
X100575000Y-46900000I250000J0D01*
G01*
X101925000Y-46900000D01*
G75*
G02*
X102175000Y-47150000I0J-250000D01*
G01*
X102175000Y-48350000D01*
G75*
G02*
X101925000Y-48600000I-250000J0D01*
G01*
G37*
%TD*%
D10*
%TO.C,J1*%
G36*
X100265684Y-65936936D02*
G01*
X100267553Y-65924868D01*
X100270589Y-65913040D01*
X100274766Y-65901563D01*
X100280043Y-65890550D01*
X100286369Y-65880103D01*
X100293684Y-65870325D01*
X100301919Y-65861306D01*
X100310995Y-65853134D01*
X100320824Y-65845886D01*
X100331314Y-65839634D01*
X100342364Y-65834433D01*
X100353868Y-65830336D01*
X100365718Y-65827381D01*
X100377800Y-65825597D01*
X100389998Y-65825000D01*
X100402195Y-65825597D01*
X100414277Y-65827380D01*
X100426127Y-65830335D01*
X100437631Y-65834431D01*
X100448682Y-65839631D01*
X100459172Y-65845884D01*
X100469002Y-65853131D01*
X100478077Y-65861303D01*
X100486312Y-65870320D01*
X100493628Y-65880099D01*
X100499954Y-65890545D01*
X100505232Y-65901558D01*
X100509409Y-65913034D01*
X100512446Y-65924863D01*
X100514315Y-65936932D01*
X100514997Y-65949125D01*
X100515082Y-65961210D01*
X100521318Y-66060337D01*
X100536779Y-66155799D01*
X100561485Y-66249306D01*
X100595193Y-66339942D01*
X100637585Y-66426861D01*
X100688261Y-66509234D01*
X100746731Y-66586265D01*
X100812437Y-66657221D01*
X100884760Y-66721431D01*
X100962991Y-66778269D01*
X101046404Y-66827208D01*
X101134191Y-66867772D01*
X101225523Y-66899577D01*
X101319522Y-66922318D01*
X101365977Y-66928847D01*
X101448150Y-66923677D01*
X101760000Y-66873168D01*
X101760000Y-65748629D01*
X101508200Y-65764471D01*
X101506458Y-65764569D01*
X101503835Y-65764569D01*
X101501225Y-65764715D01*
X101460874Y-65764997D01*
X101459129Y-65764997D01*
X101446934Y-65764315D01*
X101434866Y-65762447D01*
X101423038Y-65759410D01*
X101411561Y-65755233D01*
X101400548Y-65749956D01*
X101390102Y-65743630D01*
X101380323Y-65736315D01*
X101371304Y-65728080D01*
X101363133Y-65719004D01*
X101355885Y-65709174D01*
X101349632Y-65698685D01*
X101344432Y-65687635D01*
X101340336Y-65676130D01*
X101337381Y-65664281D01*
X101335596Y-65652199D01*
X101335000Y-65640001D01*
X101335597Y-65627803D01*
X101337380Y-65615721D01*
X101340335Y-65603871D01*
X101344431Y-65592367D01*
X101349631Y-65581317D01*
X101355884Y-65570827D01*
X101363132Y-65560997D01*
X101371303Y-65551922D01*
X101380321Y-65543686D01*
X101390100Y-65536371D01*
X101400546Y-65530045D01*
X101411560Y-65524768D01*
X101423036Y-65520590D01*
X101434865Y-65517554D01*
X101446933Y-65515685D01*
X101459126Y-65515003D01*
X101495993Y-65514745D01*
X101760000Y-65498135D01*
X101760000Y-60002804D01*
X101729804Y-59998345D01*
X101453894Y-59984851D01*
X101452151Y-59984754D01*
X101440014Y-59983392D01*
X101428069Y-59980852D01*
X101416429Y-59977160D01*
X101405203Y-59972349D01*
X101394502Y-59966466D01*
X101384425Y-59959566D01*
X101375070Y-59951717D01*
X101366525Y-59942991D01*
X101358873Y-59933473D01*
X101352185Y-59923254D01*
X101346528Y-59912431D01*
X101341953Y-59901108D01*
X101338505Y-59889393D01*
X101336216Y-59877397D01*
X101335109Y-59865234D01*
X101335195Y-59853022D01*
X101336472Y-59840877D01*
X101338927Y-59828913D01*
X101342538Y-59817247D01*
X101347271Y-59805990D01*
X101353080Y-59795247D01*
X101359908Y-59785122D01*
X101367693Y-59775712D01*
X101376359Y-59767107D01*
X101385822Y-59759388D01*
X101395995Y-59752630D01*
X101406778Y-59746897D01*
X101418069Y-59742243D01*
X101429760Y-59738713D01*
X101441740Y-59736341D01*
X101453894Y-59735150D01*
X101466106Y-59735149D01*
X101748121Y-59748942D01*
X101749864Y-59749039D01*
X101755118Y-59749629D01*
X101760000Y-59750107D01*
X101760000Y-58624855D01*
X101389837Y-58570194D01*
X101376039Y-58569519D01*
X101305967Y-58580366D01*
X101212290Y-58604419D01*
X101121416Y-58637494D01*
X101034204Y-58679279D01*
X100951485Y-58729375D01*
X100874049Y-58787304D01*
X100802633Y-58852517D01*
X100737918Y-58924388D01*
X100680530Y-59002229D01*
X100631010Y-59085300D01*
X100589835Y-59172803D01*
X100557398Y-59263899D01*
X100534001Y-59357739D01*
X100519873Y-59453406D01*
X100514851Y-59556106D01*
X100514754Y-59557848D01*
X100513392Y-59569985D01*
X100510853Y-59581930D01*
X100507161Y-59593571D01*
X100502350Y-59604796D01*
X100496466Y-59615498D01*
X100489566Y-59625575D01*
X100481717Y-59634929D01*
X100472991Y-59643474D01*
X100463473Y-59651127D01*
X100453254Y-59657814D01*
X100442432Y-59663472D01*
X100431109Y-59668047D01*
X100419394Y-59671495D01*
X100407397Y-59673784D01*
X100395235Y-59674891D01*
X100383022Y-59674805D01*
X100370877Y-59673528D01*
X100358914Y-59671073D01*
X100347247Y-59667462D01*
X100335990Y-59662729D01*
X100325247Y-59656921D01*
X100315123Y-59650092D01*
X100305713Y-59642307D01*
X100297108Y-59633641D01*
X100289389Y-59624178D01*
X100282630Y-59614006D01*
X100276897Y-59603223D01*
X100272243Y-59591932D01*
X100268713Y-59580241D01*
X100266341Y-59568261D01*
X100265150Y-59556107D01*
X100265149Y-59543894D01*
X100270470Y-59435089D01*
X100270567Y-59433347D01*
X100271155Y-59428103D01*
X100271662Y-59422934D01*
X100287576Y-59315168D01*
X100287843Y-59313443D01*
X100288934Y-59308311D01*
X100289948Y-59303188D01*
X100316302Y-59197489D01*
X100316736Y-59195799D01*
X100318324Y-59190793D01*
X100319832Y-59185799D01*
X100356374Y-59083176D01*
X100356970Y-59081536D01*
X100359038Y-59076712D01*
X100361027Y-59071885D01*
X100407409Y-58973318D01*
X100408163Y-58971744D01*
X100410680Y-58967166D01*
X100413143Y-58962533D01*
X100468923Y-58868963D01*
X100469827Y-58867470D01*
X100472784Y-58863151D01*
X100475681Y-58858791D01*
X100540325Y-58771110D01*
X100541371Y-58769712D01*
X100544746Y-58765690D01*
X100548044Y-58761645D01*
X100620936Y-58680691D01*
X100622113Y-58679402D01*
X100625873Y-58675720D01*
X100629541Y-58672026D01*
X100709984Y-58598572D01*
X100711280Y-58597404D01*
X100715400Y-58594092D01*
X100719394Y-58590787D01*
X100806622Y-58525532D01*
X100808026Y-58524496D01*
X100812414Y-58521625D01*
X100816747Y-58518702D01*
X100870944Y-58485879D01*
X100866529Y-58477432D01*
X100861953Y-58466109D01*
X100858506Y-58454393D01*
X100856217Y-58442397D01*
X100855110Y-58430235D01*
X100855195Y-58418022D01*
X100856472Y-58405877D01*
X100858927Y-58393914D01*
X100862539Y-58382247D01*
X100867271Y-58370990D01*
X100873080Y-58360247D01*
X100879909Y-58350122D01*
X100887694Y-58340712D01*
X100896359Y-58332107D01*
X100905823Y-58324388D01*
X100915995Y-58317630D01*
X100926778Y-58311897D01*
X100938069Y-58307243D01*
X100949760Y-58303713D01*
X100961740Y-58301341D01*
X100973894Y-58300150D01*
X100986107Y-58300149D01*
X101362891Y-58318576D01*
X101369327Y-58317580D01*
X101371053Y-58317324D01*
X101376303Y-58316847D01*
X101381473Y-58316303D01*
X101490238Y-58310222D01*
X101491981Y-58310136D01*
X101497257Y-58310173D01*
X101502450Y-58310137D01*
X101611290Y-58314699D01*
X101613033Y-58314784D01*
X101618232Y-58315331D01*
X101623452Y-58315806D01*
X101731327Y-58330967D01*
X101733053Y-58331221D01*
X101738226Y-58332283D01*
X101743323Y-58333255D01*
X101849203Y-58358870D01*
X101850897Y-58359292D01*
X101855911Y-58360844D01*
X101860920Y-58362318D01*
X101963794Y-58398143D01*
X101965438Y-58398728D01*
X101970277Y-58400762D01*
X101975118Y-58402718D01*
X102043199Y-58434176D01*
X102260303Y-58488306D01*
X102261993Y-58488740D01*
X102266988Y-58490324D01*
X102271994Y-58491836D01*
X102519587Y-58580000D01*
X104910000Y-58580000D01*
X104910000Y-58000000D01*
X105410000Y-58000000D01*
X105410000Y-58580000D01*
X107250000Y-58580000D01*
X107250000Y-66920000D01*
X105410000Y-66920000D01*
X105410000Y-67500000D01*
X104910000Y-67500000D01*
X104910000Y-66920000D01*
X102518766Y-66920000D01*
X102331322Y-66989710D01*
X102329682Y-66990307D01*
X102324675Y-66991819D01*
X102319681Y-66993403D01*
X102039421Y-67067450D01*
X101991091Y-67090606D01*
X101989512Y-67091349D01*
X101984651Y-67093313D01*
X101979833Y-67095338D01*
X101877466Y-67132597D01*
X101875822Y-67133182D01*
X101870796Y-67134661D01*
X101865800Y-67136208D01*
X101760288Y-67163299D01*
X101758595Y-67163721D01*
X101753433Y-67164706D01*
X101748325Y-67165755D01*
X101640673Y-67182420D01*
X101638946Y-67182676D01*
X101633704Y-67183153D01*
X101628527Y-67183697D01*
X101519762Y-67189778D01*
X101518019Y-67189864D01*
X101512743Y-67189827D01*
X101507549Y-67189863D01*
X101398710Y-67185301D01*
X101396967Y-67185216D01*
X101391747Y-67184667D01*
X101386548Y-67184194D01*
X101356330Y-67179947D01*
X101048235Y-67199331D01*
X101046492Y-67199429D01*
X101043869Y-67199429D01*
X101041259Y-67199575D01*
X100980874Y-67199997D01*
X100979128Y-67199997D01*
X100966934Y-67199315D01*
X100954866Y-67197447D01*
X100943038Y-67194410D01*
X100931561Y-67190233D01*
X100920548Y-67184956D01*
X100910101Y-67178630D01*
X100900323Y-67171315D01*
X100891304Y-67163080D01*
X100883133Y-67154004D01*
X100875885Y-67144174D01*
X100869632Y-67133685D01*
X100864432Y-67122635D01*
X100860336Y-67111130D01*
X100857381Y-67099280D01*
X100855596Y-67087199D01*
X100855000Y-67075001D01*
X100855597Y-67062803D01*
X100857380Y-67050721D01*
X100860335Y-67038871D01*
X100864431Y-67027367D01*
X100869631Y-67016317D01*
X100870943Y-67014116D01*
X100831213Y-66990806D01*
X100829714Y-66989913D01*
X100825358Y-66986975D01*
X100820994Y-66984119D01*
X100732864Y-66920089D01*
X100731459Y-66919054D01*
X100727412Y-66915706D01*
X100723346Y-66912437D01*
X100641884Y-66840112D01*
X100640587Y-66838944D01*
X100636868Y-66835199D01*
X100633159Y-66831567D01*
X100559144Y-66751638D01*
X100557967Y-66750350D01*
X100554641Y-66746272D01*
X100551294Y-66742283D01*
X100485432Y-66655513D01*
X100484386Y-66654116D01*
X100481467Y-66649722D01*
X100478532Y-66645436D01*
X100421452Y-66552653D01*
X100420548Y-66551160D01*
X100418068Y-66546496D01*
X100415569Y-66541951D01*
X100367819Y-66444050D01*
X100367815Y-66444042D01*
X100367811Y-66444033D01*
X100367061Y-66442468D01*
X100365072Y-66437641D01*
X100363004Y-66432817D01*
X100325032Y-66330714D01*
X100324435Y-66329074D01*
X100322923Y-66324067D01*
X100321339Y-66319073D01*
X100293512Y-66213753D01*
X100293078Y-66212063D01*
X100292058Y-66206910D01*
X100290973Y-66201806D01*
X100273557Y-66094273D01*
X100273290Y-66092548D01*
X100272778Y-66087324D01*
X100272196Y-66082137D01*
X100265356Y-65973417D01*
X100265258Y-65971674D01*
X100265258Y-65969053D01*
X100265112Y-65966443D01*
X100265003Y-65950876D01*
X100265003Y-65949131D01*
X100265684Y-65936936D01*
G37*
D22*
X100390000Y-65150000D03*
X100390000Y-60350000D03*
D23*
X105160000Y-58425000D03*
X105160000Y-67075000D03*
D24*
X100980000Y-58425000D03*
X100980000Y-67075000D03*
D25*
X100390000Y-62500000D03*
X100390000Y-63000000D03*
X100390000Y-62000000D03*
X100390000Y-63500000D03*
X100390000Y-61500000D03*
X100390000Y-64000000D03*
X100390000Y-61000000D03*
X100390000Y-64500000D03*
D22*
X100390000Y-59550000D03*
X100390000Y-65950000D03*
%TD*%
%TO.C,D6*%
G36*
G01*
X94275000Y-67625000D02*
X94275000Y-66375000D01*
G75*
G02*
X94525000Y-66125000I250000J0D01*
G01*
X95450000Y-66125000D01*
G75*
G02*
X95700000Y-66375000I0J-250000D01*
G01*
X95700000Y-67625000D01*
G75*
G02*
X95450000Y-67875000I-250000J0D01*
G01*
X94525000Y-67875000D01*
G75*
G02*
X94275000Y-67625000I0J250000D01*
G01*
G37*
G36*
G01*
X91300000Y-67625000D02*
X91300000Y-66375000D01*
G75*
G02*
X91550000Y-66125000I250000J0D01*
G01*
X92475000Y-66125000D01*
G75*
G02*
X92725000Y-66375000I0J-250000D01*
G01*
X92725000Y-67625000D01*
G75*
G02*
X92475000Y-67875000I-250000J0D01*
G01*
X91550000Y-67875000D01*
G75*
G02*
X91300000Y-67625000I0J250000D01*
G01*
G37*
%TD*%
%TO.C,D5*%
G36*
G01*
X85987500Y-65650000D02*
X85512500Y-65650000D01*
G75*
G02*
X85275000Y-65412500I0J237500D01*
G01*
X85275000Y-64837500D01*
G75*
G02*
X85512500Y-64600000I237500J0D01*
G01*
X85987500Y-64600000D01*
G75*
G02*
X86225000Y-64837500I0J-237500D01*
G01*
X86225000Y-65412500D01*
G75*
G02*
X85987500Y-65650000I-237500J0D01*
G01*
G37*
G36*
G01*
X85987500Y-67400000D02*
X85512500Y-67400000D01*
G75*
G02*
X85275000Y-67162500I0J237500D01*
G01*
X85275000Y-66587500D01*
G75*
G02*
X85512500Y-66350000I237500J0D01*
G01*
X85987500Y-66350000D01*
G75*
G02*
X86225000Y-66587500I0J-237500D01*
G01*
X86225000Y-67162500D01*
G75*
G02*
X85987500Y-67400000I-237500J0D01*
G01*
G37*
%TD*%
%TO.C,C7*%
G36*
G01*
X97425000Y-37750000D02*
X97425000Y-38250000D01*
G75*
G02*
X97200000Y-38475000I-225000J0D01*
G01*
X96750000Y-38475000D01*
G75*
G02*
X96525000Y-38250000I0J225000D01*
G01*
X96525000Y-37750000D01*
G75*
G02*
X96750000Y-37525000I225000J0D01*
G01*
X97200000Y-37525000D01*
G75*
G02*
X97425000Y-37750000I0J-225000D01*
G01*
G37*
G36*
G01*
X98975000Y-37750000D02*
X98975000Y-38250000D01*
G75*
G02*
X98750000Y-38475000I-225000J0D01*
G01*
X98300000Y-38475000D01*
G75*
G02*
X98075000Y-38250000I0J225000D01*
G01*
X98075000Y-37750000D01*
G75*
G02*
X98300000Y-37525000I225000J0D01*
G01*
X98750000Y-37525000D01*
G75*
G02*
X98975000Y-37750000I0J-225000D01*
G01*
G37*
%TD*%
%TO.C,C1*%
G36*
G01*
X88325000Y-65750000D02*
X88325000Y-65250000D01*
G75*
G02*
X88550000Y-65025000I225000J0D01*
G01*
X89000000Y-65025000D01*
G75*
G02*
X89225000Y-65250000I0J-225000D01*
G01*
X89225000Y-65750000D01*
G75*
G02*
X89000000Y-65975000I-225000J0D01*
G01*
X88550000Y-65975000D01*
G75*
G02*
X88325000Y-65750000I0J225000D01*
G01*
G37*
G36*
G01*
X86775000Y-65750000D02*
X86775000Y-65250000D01*
G75*
G02*
X87000000Y-65025000I225000J0D01*
G01*
X87450000Y-65025000D01*
G75*
G02*
X87675000Y-65250000I0J-225000D01*
G01*
X87675000Y-65750000D01*
G75*
G02*
X87450000Y-65975000I-225000J0D01*
G01*
X87000000Y-65975000D01*
G75*
G02*
X86775000Y-65750000I0J225000D01*
G01*
G37*
%TD*%
M02*
