%TF.GenerationSoftware,KiCad,Pcbnew,(6.0.2-0)*%
%TF.CreationDate,2022-04-06T10:25:11+01:00*%
%TF.ProjectId,Bell2,42656c6c-322e-46b6-9963-61645f706362,2*%
%TF.SameCoordinates,Original*%
%TF.FileFunction,Copper,L2,Bot*%
%TF.FilePolarity,Positive*%
%FSLAX46Y46*%
G04 Gerber Fmt 4.6, Leading zero omitted, Abs format (unit mm)*
G04 Created by KiCad (PCBNEW (6.0.2-0)) date 2022-04-06 10:25:11*
%MOMM*%
%LPD*%
G01*
G04 APERTURE LIST*
G04 Aperture macros list*
%AMRoundRect*
0 Rectangle with rounded corners*
0 $1 Rounding radius*
0 $2 $3 $4 $5 $6 $7 $8 $9 X,Y pos of 4 corners*
0 Add a 4 corners polygon primitive as box body*
4,1,4,$2,$3,$4,$5,$6,$7,$8,$9,$2,$3,0*
0 Add four circle primitives for the rounded corners*
1,1,$1+$1,$2,$3*
1,1,$1+$1,$4,$5*
1,1,$1+$1,$6,$7*
1,1,$1+$1,$8,$9*
0 Add four rect primitives between the rounded corners*
20,1,$1+$1,$2,$3,$4,$5,0*
20,1,$1+$1,$4,$5,$6,$7,0*
20,1,$1+$1,$6,$7,$8,$9,0*
20,1,$1+$1,$8,$9,$2,$3,0*%
G04 Aperture macros list end*
%ADD10C,0.100000*%
%TA.AperFunction,NonConductor*%
%ADD11C,0.100000*%
%TD*%
%TA.AperFunction,EtchedComponent*%
%ADD12C,0.375000*%
%TD*%
%TA.AperFunction,EtchedComponent*%
%ADD13C,0.200000*%
%TD*%
%TA.AperFunction,EtchedComponent*%
%ADD14C,0.250000*%
%TD*%
%TA.AperFunction,EtchedComponent*%
%ADD15C,0.080000*%
%TD*%
%TA.AperFunction,ComponentPad*%
%ADD16RoundRect,0.250000X0.675000X-0.600000X0.675000X0.600000X-0.675000X0.600000X-0.675000X-0.600000X0*%
%TD*%
%TA.AperFunction,ComponentPad*%
%ADD17O,1.850000X1.700000*%
%TD*%
%TA.AperFunction,ComponentPad*%
%ADD18RoundRect,0.250000X-0.600000X-0.675000X0.600000X-0.675000X0.600000X0.675000X-0.600000X0.675000X0*%
%TD*%
%TA.AperFunction,ComponentPad*%
%ADD19O,1.700000X1.850000*%
%TD*%
%TA.AperFunction,ComponentPad*%
%ADD20C,1.500000*%
%TD*%
%TA.AperFunction,ComponentPad*%
%ADD21C,0.670000*%
%TD*%
%TA.AperFunction,ComponentPad*%
%ADD22C,1.250000*%
%TD*%
%TA.AperFunction,SMDPad,CuDef*%
%ADD23R,0.200000X1.400000*%
%TD*%
%TA.AperFunction,SMDPad,CuDef*%
%ADD24R,0.400000X0.200000*%
%TD*%
%TA.AperFunction,SMDPad,CuDef*%
%ADD25R,0.200000X0.200000*%
%TD*%
%TA.AperFunction,SMDPad,CuDef*%
%ADD26R,0.600000X0.400000*%
%TD*%
%TA.AperFunction,SMDPad,CuDef*%
%ADD27R,0.200000X0.400000*%
%TD*%
%TA.AperFunction,SMDPad,CuDef*%
%ADD28R,1.400000X0.200000*%
%TD*%
%TA.AperFunction,SMDPad,CuDef*%
%ADD29R,0.200000X1.200000*%
%TD*%
%TA.AperFunction,SMDPad,CuDef*%
%ADD30R,0.600000X0.200000*%
%TD*%
%TA.AperFunction,SMDPad,CuDef*%
%ADD31R,0.200000X0.600000*%
%TD*%
%TA.AperFunction,SMDPad,CuDef*%
%ADD32R,0.600000X0.600000*%
%TD*%
%TA.AperFunction,SMDPad,CuDef*%
%ADD33R,0.200000X0.800000*%
%TD*%
%TA.AperFunction,SMDPad,CuDef*%
%ADD34R,1.000000X0.200000*%
%TD*%
%TA.AperFunction,SMDPad,CuDef*%
%ADD35R,0.800000X0.200000*%
%TD*%
%TA.AperFunction,SMDPad,CuDef*%
%ADD36RoundRect,0.200000X-0.200000X-0.275000X0.200000X-0.275000X0.200000X0.275000X-0.200000X0.275000X0*%
%TD*%
%TA.AperFunction,SMDPad,CuDef*%
%ADD37R,0.400000X0.650000*%
%TD*%
%TA.AperFunction,SMDPad,CuDef*%
%ADD38RoundRect,0.200000X0.200000X0.275000X-0.200000X0.275000X-0.200000X-0.275000X0.200000X-0.275000X0*%
%TD*%
%TA.AperFunction,ViaPad*%
%ADD39C,0.800000*%
%TD*%
%TA.AperFunction,Conductor*%
%ADD40C,0.250000*%
%TD*%
%TA.AperFunction,Conductor*%
%ADD41C,0.500000*%
%TD*%
%TA.AperFunction,Conductor*%
%ADD42C,0.200000*%
%TD*%
G04 APERTURE END LIST*
D10*
%TO.C,U8*%
D11*
X82428571Y-40173809D02*
X82404761Y-40150000D01*
X82357142Y-40126190D01*
X82238095Y-40126190D01*
X82190476Y-40150000D01*
X82166666Y-40173809D01*
X82142857Y-40221428D01*
X82142857Y-40269047D01*
X82166666Y-40340476D01*
X82452380Y-40626190D01*
X82142857Y-40626190D01*
X81833333Y-40126190D02*
X81785714Y-40126190D01*
X81738095Y-40150000D01*
X81714285Y-40173809D01*
X81690476Y-40221428D01*
X81666666Y-40316666D01*
X81666666Y-40435714D01*
X81690476Y-40530952D01*
X81714285Y-40578571D01*
X81738095Y-40602380D01*
X81785714Y-40626190D01*
X81833333Y-40626190D01*
X81880952Y-40602380D01*
X81904761Y-40578571D01*
X81928571Y-40530952D01*
X81952380Y-40435714D01*
X81952380Y-40316666D01*
X81928571Y-40221428D01*
X81904761Y-40173809D01*
X81880952Y-40150000D01*
X81833333Y-40126190D01*
X81476190Y-40173809D02*
X81452380Y-40150000D01*
X81404761Y-40126190D01*
X81285714Y-40126190D01*
X81238095Y-40150000D01*
X81214285Y-40173809D01*
X81190476Y-40221428D01*
X81190476Y-40269047D01*
X81214285Y-40340476D01*
X81500000Y-40626190D01*
X81190476Y-40626190D01*
X81000000Y-40173809D02*
X80976190Y-40150000D01*
X80928571Y-40126190D01*
X80809523Y-40126190D01*
X80761904Y-40150000D01*
X80738095Y-40173809D01*
X80714285Y-40221428D01*
X80714285Y-40269047D01*
X80738095Y-40340476D01*
X81023809Y-40626190D01*
X80714285Y-40626190D01*
X80500000Y-40435714D02*
X80119047Y-40435714D01*
X79785714Y-40126190D02*
X79738095Y-40126190D01*
X79690476Y-40150000D01*
X79666666Y-40173809D01*
X79642857Y-40221428D01*
X79619047Y-40316666D01*
X79619047Y-40435714D01*
X79642857Y-40530952D01*
X79666666Y-40578571D01*
X79690476Y-40602380D01*
X79738095Y-40626190D01*
X79785714Y-40626190D01*
X79833333Y-40602380D01*
X79857142Y-40578571D01*
X79880952Y-40530952D01*
X79904761Y-40435714D01*
X79904761Y-40316666D01*
X79880952Y-40221428D01*
X79857142Y-40173809D01*
X79833333Y-40150000D01*
X79785714Y-40126190D01*
X79190476Y-40292857D02*
X79190476Y-40626190D01*
X79309523Y-40102380D02*
X79428571Y-40459523D01*
X79119047Y-40459523D01*
X78928571Y-40435714D02*
X78547619Y-40435714D01*
X78214285Y-40126190D02*
X78166666Y-40126190D01*
X78119047Y-40150000D01*
X78095238Y-40173809D01*
X78071428Y-40221428D01*
X78047619Y-40316666D01*
X78047619Y-40435714D01*
X78071428Y-40530952D01*
X78095238Y-40578571D01*
X78119047Y-40602380D01*
X78166666Y-40626190D01*
X78214285Y-40626190D01*
X78261904Y-40602380D01*
X78285714Y-40578571D01*
X78309523Y-40530952D01*
X78333333Y-40435714D01*
X78333333Y-40316666D01*
X78309523Y-40221428D01*
X78285714Y-40173809D01*
X78261904Y-40150000D01*
X78214285Y-40126190D01*
X77619047Y-40126190D02*
X77714285Y-40126190D01*
X77761904Y-40150000D01*
X77785714Y-40173809D01*
X77833333Y-40245238D01*
X77857142Y-40340476D01*
X77857142Y-40530952D01*
X77833333Y-40578571D01*
X77809523Y-40602380D01*
X77761904Y-40626190D01*
X77666666Y-40626190D01*
X77619047Y-40602380D01*
X77595238Y-40578571D01*
X77571428Y-40530952D01*
X77571428Y-40411904D01*
X77595238Y-40364285D01*
X77619047Y-40340476D01*
X77666666Y-40316666D01*
X77761904Y-40316666D01*
X77809523Y-40340476D01*
X77833333Y-40364285D01*
X77857142Y-40411904D01*
D12*
%TO.C,U7*%
X107287500Y-56375000D02*
G75*
G03*
X107287500Y-56375000I-937500J0D01*
G01*
D13*
X107550000Y-56375000D02*
G75*
G03*
X107550000Y-56375000I-2400000J0D01*
G01*
D12*
X104887500Y-56375000D02*
G75*
G03*
X104887500Y-56375000I-937500J0D01*
G01*
G36*
X105075000Y-57475000D02*
G01*
X104700000Y-57300000D01*
X104700000Y-55275000D01*
X105075000Y-55275000D01*
X105075000Y-57475000D01*
G37*
G36*
X105600000Y-57300000D02*
G01*
X105225000Y-57475000D01*
X105225000Y-55275000D01*
X105600000Y-55275000D01*
X105600000Y-57300000D01*
G37*
D14*
%TO.C,AJK1*%
X104400000Y-49125000D02*
X105900000Y-49125000D01*
X104400000Y-47025000D02*
X104400000Y-51225000D01*
D15*
X105250000Y-51235000D02*
X105150000Y-51235000D01*
X105250000Y-51075000D02*
X105250000Y-51375000D01*
D14*
X102600000Y-47125000D02*
X104400000Y-49125000D01*
X104400000Y-47025000D02*
X107400000Y-51225000D01*
D15*
X105150000Y-51235000D02*
X105050000Y-51375000D01*
X105250000Y-51075000D02*
X105150000Y-51075000D01*
D14*
X104400000Y-49125000D02*
X102600000Y-51225000D01*
X104400000Y-51225000D02*
G75*
G03*
X105900000Y-51225000I750000J0D01*
G01*
D15*
X105150000Y-51075000D02*
G75*
G03*
X105150000Y-51235000I0J-80000D01*
G01*
X105470000Y-51235000D02*
G75*
G03*
X105470000Y-51235000I-300000J0D01*
G01*
%TD*%
D16*
%TO.P,J3,1,Pin_1*%
%TO.N,GND*%
X101400000Y-57950000D03*
D17*
%TO.P,J3,2,Pin_2*%
%TO.N,+12V*%
X101400000Y-55450000D03*
%TO.P,J3,3,Pin_3*%
%TO.N,BELL*%
X101400000Y-52950000D03*
%TO.P,J3,4,Pin_4*%
%TO.N,STB*%
X101400000Y-50450000D03*
%TO.P,J3,5,Pin_5*%
%TO.N,ENGHOLD*%
X101400000Y-47950000D03*
%TO.P,J3,6,Pin_6*%
%TO.N,GND*%
X101400000Y-45450000D03*
%TO.P,J3,7,Pin_7*%
%TO.N,FAULT*%
X101400000Y-42950000D03*
%TO.P,J3,8,Pin_8*%
%TO.N,GND*%
X101400000Y-40450000D03*
%TO.P,J3,9,Pin_9*%
%TO.N,T*%
X101400000Y-37950000D03*
%TO.P,J3,10,Pin_10*%
%TO.N,~{BACKLIGHT}*%
X101400000Y-35450000D03*
%TD*%
D18*
%TO.P,J2,1,GND*%
%TO.N,GND*%
X95000000Y-53900000D03*
D19*
%TO.P,J2,2,DC*%
%TO.N,+12V*%
X97500000Y-53900000D03*
%TD*%
D20*
%TO.P,J1,S1,SHIELD*%
%TO.N,GND*%
X91820000Y-54220000D03*
D21*
X84610000Y-54710000D03*
D22*
X83180000Y-58390000D03*
D20*
X83180000Y-54220000D03*
D22*
X91820000Y-58390000D03*
D21*
X90390000Y-54710000D03*
%TD*%
D23*
%TO.P,U8,*%
%TO.N,*%
X81800000Y-44600000D03*
D24*
X81100000Y-44800000D03*
D25*
X80000000Y-45600000D03*
X78800000Y-44400000D03*
X80200000Y-45800000D03*
D26*
X80000000Y-42700000D03*
D27*
X79800000Y-43700000D03*
D25*
X81000000Y-45800000D03*
X80000000Y-46000000D03*
D28*
X81400000Y-42000000D03*
D29*
X80800000Y-42700000D03*
D24*
X79700000Y-42400000D03*
D30*
X79800000Y-43000000D03*
D24*
X79300000Y-43600000D03*
D31*
X80800000Y-45800000D03*
D27*
X80600000Y-44900000D03*
D32*
X78600000Y-42600000D03*
D25*
X80400000Y-43200000D03*
X80200000Y-44400000D03*
D24*
X78700000Y-44000000D03*
D29*
X79200000Y-42700000D03*
D24*
X79300000Y-44000000D03*
D27*
X80200000Y-44900000D03*
D30*
X79400000Y-44400000D03*
D24*
X79900000Y-42200000D03*
D25*
X79600000Y-43200000D03*
X78000000Y-43600000D03*
X79600000Y-46000000D03*
D31*
X80400000Y-45800000D03*
D32*
X81400000Y-42600000D03*
D25*
X81200000Y-45200000D03*
D33*
X81400000Y-45300000D03*
D25*
X80400000Y-44600000D03*
D24*
X81900000Y-45600000D03*
D25*
X79600000Y-45600000D03*
D31*
X78400000Y-43800000D03*
D25*
X81000000Y-44400000D03*
D31*
X78000000Y-44200000D03*
D25*
X79800000Y-44200000D03*
D29*
X78000000Y-42700000D03*
D25*
X80400000Y-45200000D03*
D27*
X82000000Y-44500000D03*
D25*
X80400000Y-44200000D03*
X80200000Y-45400000D03*
D24*
X79900000Y-45200000D03*
D25*
X80600000Y-45800000D03*
X81000000Y-43600000D03*
D34*
X81400000Y-43200000D03*
D25*
X80800000Y-45200000D03*
D24*
X80700000Y-43800000D03*
D27*
X81600000Y-43700000D03*
D25*
X80600000Y-44400000D03*
X81000000Y-45000000D03*
D29*
X78000000Y-45500000D03*
D32*
X78600000Y-45400000D03*
D34*
X78600000Y-43200000D03*
D25*
X78200000Y-44200000D03*
D29*
X82000000Y-42700000D03*
D35*
X79900000Y-42000000D03*
D34*
X78600000Y-46000000D03*
D31*
X79000000Y-44000000D03*
D28*
X78600000Y-44800000D03*
D33*
X80000000Y-43500000D03*
D26*
X79800000Y-44700000D03*
D24*
X80300000Y-43600000D03*
D25*
X78600000Y-44200000D03*
X81600000Y-44800000D03*
D33*
X80400000Y-42500000D03*
D28*
X78600000Y-42000000D03*
D27*
X82000000Y-45900000D03*
D25*
X81000000Y-45400000D03*
D33*
X81400000Y-44300000D03*
D25*
X80800000Y-44200000D03*
X81800000Y-46000000D03*
D29*
X79200000Y-45500000D03*
D25*
X81600000Y-45200000D03*
X80800000Y-44600000D03*
D27*
X82000000Y-43700000D03*
D25*
X81200000Y-43800000D03*
X80600000Y-45400000D03*
%TD*%
D36*
%TO.P,C3,1*%
%TO.N,IN2*%
X104225000Y-43000000D03*
%TO.P,C3,2*%
%TO.N,GND*%
X105775000Y-43000000D03*
%TD*%
D37*
%TO.P,D1,1,A1*%
%TO.N,GND*%
X105650000Y-41450000D03*
%TO.P,D1,2,K2*%
%TO.N,+3V3*%
X105000000Y-41450000D03*
%TO.P,D1,3,K1A2*%
%TO.N,IN2*%
X104350000Y-41450000D03*
%TO.P,D1,4,A3*%
%TO.N,GND*%
X104350000Y-39550000D03*
%TO.P,D1,5,K4*%
%TO.N,+3V3*%
X105000000Y-39550000D03*
%TO.P,D1,6,K3A4*%
%TO.N,IN1*%
X105650000Y-39550000D03*
%TD*%
D38*
%TO.P,C2,1*%
%TO.N,IN1*%
X105775000Y-38000000D03*
%TO.P,C2,2*%
%TO.N,GND*%
X104225000Y-38000000D03*
%TD*%
D39*
%TO.N,GND*%
X69500000Y-46250000D03*
X103500000Y-37000000D03*
X94700000Y-37600000D03*
X75500000Y-44000000D03*
X105500000Y-34500000D03*
X84000000Y-41250000D03*
X93324500Y-36200000D03*
X80750000Y-55250000D03*
X87000000Y-50750000D03*
X95115000Y-44635000D03*
%TO.N,+3V3*%
X96750000Y-40000000D03*
X87250000Y-39624500D03*
X69500000Y-52800000D03*
X75250000Y-59750000D03*
X76250000Y-40250000D03*
X61500000Y-46500000D03*
X93250000Y-35000000D03*
X75000000Y-52250000D03*
%TO.N,+12V*%
X97250000Y-50250000D03*
X97724500Y-44750000D03*
X91325000Y-48476426D03*
X81164138Y-59590156D03*
%TO.N,D-*%
X88750000Y-50250000D03*
X96373278Y-41190964D03*
%TO.N,D+*%
X88250000Y-51500000D03*
X95374143Y-41218077D03*
%TO.N,OUT1*%
X79750000Y-50000000D03*
X95250000Y-51000000D03*
%TO.N,OUT3*%
X95250000Y-45750000D03*
X82250000Y-50000000D03*
%TO.N,O*%
X84750000Y-43050999D03*
X91500000Y-40500000D03*
%TO.N,I*%
X97006908Y-35468493D03*
X84500000Y-44500000D03*
%TO.N,OUT2*%
X81000000Y-50000000D03*
X95262299Y-49987701D03*
%TO.N,EN*%
X75500000Y-42500000D03*
X75011441Y-50586841D03*
X95237701Y-33737701D03*
%TO.N,BOOT*%
X96700000Y-34450000D03*
X83750000Y-48000000D03*
%TO.N,IN2*%
X92227991Y-46256131D03*
X100250000Y-39250000D03*
%TO.N,IN1*%
X98528748Y-37076845D03*
X92250000Y-45250000D03*
%TO.N,GPSTX*%
X75500000Y-46750000D03*
X67500000Y-52750000D03*
%TO.N,GPSTICK*%
X67750000Y-49500000D03*
X75500000Y-45250000D03*
%TO.N,GPSRX*%
X68500000Y-52750000D03*
X75500000Y-48000000D03*
%TD*%
D40*
%TO.N,+3V3*%
X96000000Y-34000000D02*
X95450000Y-34550000D01*
X92600000Y-38500000D02*
X92600000Y-35650000D01*
X87250000Y-39624500D02*
X87374500Y-39500000D01*
X63750000Y-53500000D02*
X68800000Y-53500000D01*
X105000000Y-41450000D02*
X105000000Y-40500000D01*
X105900000Y-40500000D02*
X105000000Y-40500000D01*
X62500000Y-47500000D02*
X62500000Y-52250000D01*
X75000000Y-52250000D02*
X76323224Y-50926776D01*
X87374500Y-39500000D02*
X91600000Y-39500000D01*
X73650000Y-52250000D02*
X73650000Y-59200000D01*
X106549520Y-34249520D02*
X106549520Y-39850480D01*
X94363604Y-35000000D02*
X93250000Y-35000000D01*
X96750000Y-37727817D02*
X96750000Y-40000000D01*
X76775000Y-41517462D02*
X76775000Y-49836092D01*
X97207106Y-33500000D02*
X105800000Y-33500000D01*
X87125500Y-39500000D02*
X87250000Y-39624500D01*
X74200000Y-59750000D02*
X75250000Y-59750000D01*
X97800000Y-33500000D02*
X97800000Y-35192894D01*
X105000000Y-40500000D02*
X105000000Y-39550000D01*
X77000000Y-39500000D02*
X87125500Y-39500000D01*
X75000000Y-52250000D02*
X73650000Y-52250000D01*
X96750001Y-37727817D02*
G75*
G02*
X97300001Y-36400001I1877809J3D01*
G01*
X106549520Y-34249520D02*
G75*
G03*
X105800000Y-33500000I-749519J1D01*
G01*
X74200000Y-59750000D02*
G75*
G02*
X73650000Y-59200000I-1J549999D01*
G01*
X94363604Y-34999999D02*
G75*
G03*
X95449999Y-34549999I-4J1536405D01*
G01*
X97300000Y-36400000D02*
G75*
G03*
X97800000Y-35192894I-1207108J1207107D01*
G01*
X77000000Y-39500000D02*
G75*
G03*
X76250000Y-40250000I0J-750000D01*
G01*
X68800000Y-53500000D02*
G75*
G03*
X69500000Y-52800000I1J699999D01*
G01*
X93250000Y-35000000D02*
G75*
G03*
X92600000Y-35650000I1J-650001D01*
G01*
X62500000Y-47500000D02*
G75*
G03*
X61500000Y-46500000I-999999J1D01*
G01*
X105900000Y-40500000D02*
G75*
G03*
X106549520Y-39850480I0J649520D01*
G01*
X76775000Y-41517462D02*
G75*
G03*
X76250000Y-40250000I-1792459J1D01*
G01*
X96000000Y-34000000D02*
G75*
G02*
X97207106Y-33500000I1207107J-1207108D01*
G01*
X76774999Y-49836092D02*
G75*
G02*
X76323223Y-50926775I-1542462J1D01*
G01*
X92600000Y-38500000D02*
G75*
G02*
X91600000Y-39500000I-999999J-1D01*
G01*
X63750000Y-53500000D02*
G75*
G02*
X62500000Y-52250000I2J1250002D01*
G01*
D41*
%TO.N,+12V*%
X97500000Y-53900000D02*
X97500000Y-57750000D01*
X95500000Y-59750000D02*
X81323982Y-59750000D01*
X97250000Y-45224500D02*
X97250000Y-48400000D01*
X91325000Y-48476426D02*
X97173574Y-48476426D01*
X97250000Y-48400000D02*
X97250000Y-50250000D01*
X97250000Y-50250000D02*
X97250000Y-53650000D01*
X97500000Y-53900000D02*
G75*
G02*
X97250000Y-53650000I-1J249999D01*
G01*
X95500000Y-59750000D02*
G75*
G03*
X97500000Y-57750000I1J1999999D01*
G01*
X97250000Y-48400000D02*
G75*
G02*
X97173574Y-48476426I-76427J1D01*
G01*
X97250000Y-45224500D02*
G75*
G02*
X97724500Y-44750000I474501J-1D01*
G01*
X81164138Y-59590156D02*
G75*
G03*
X81323982Y-59750000I159843J-1D01*
G01*
D42*
%TO.N,D-*%
X93452533Y-42700000D02*
X92600000Y-42700000D01*
X91661091Y-43088909D02*
X89175000Y-45575000D01*
X88500000Y-47204594D02*
X88500000Y-49646447D01*
X96138879Y-41607327D02*
X96373278Y-41372928D01*
X96373278Y-41372928D02*
X96373278Y-41190964D01*
X93452533Y-42699999D02*
G75*
G03*
X96173102Y-41573102I0J3847466D01*
G01*
X88750000Y-50250000D02*
G75*
G02*
X88500000Y-49646447I603556J603555D01*
G01*
X88500000Y-47204594D02*
G75*
G02*
X89175000Y-45575000I2304596J-1D01*
G01*
X91661091Y-43088909D02*
G75*
G02*
X92600000Y-42700000I938908J-938906D01*
G01*
%TO.N,D+*%
X88000000Y-46919238D02*
X88000000Y-50896447D01*
X91517157Y-42482843D02*
X88650000Y-45350000D01*
X93003572Y-42200000D02*
X92200000Y-42200000D01*
X93003572Y-42199999D02*
G75*
G03*
X95374143Y-41218077I3J3352486D01*
G01*
X91517157Y-42482843D02*
G75*
G02*
X92200000Y-42200000I682845J-682848D01*
G01*
X88000001Y-46919238D02*
G75*
G02*
X88650001Y-45350001I2219239J-1D01*
G01*
X88250000Y-51500000D02*
G75*
G02*
X88000000Y-50896447I603556J603555D01*
G01*
D40*
%TO.N,OUT1*%
X93207106Y-50500000D02*
X94042894Y-50500000D01*
X79750000Y-50000000D02*
X81146446Y-51396447D01*
X81146446Y-51396447D02*
X82328108Y-51396447D01*
X86801103Y-54948897D02*
X86948897Y-54948897D01*
X88830481Y-54169519D02*
X92000000Y-51000000D01*
X82328108Y-51396447D02*
X85229636Y-54297974D01*
X86801103Y-54948896D02*
G75*
G02*
X85229637Y-54297973I-2J2222384D01*
G01*
X88830481Y-54169519D02*
G75*
G02*
X86948897Y-54948897I-1881585J1881585D01*
G01*
X93207106Y-50500001D02*
G75*
G03*
X92000001Y-51000001I1J-1707107D01*
G01*
X95250000Y-51000000D02*
G75*
G03*
X94042894Y-50500000I-1207107J-1207108D01*
G01*
%TO.N,OUT3*%
X94541127Y-47709717D02*
X94348302Y-47748072D01*
X94886234Y-47525253D02*
X94722764Y-47634480D01*
X95250000Y-46750000D02*
X95248072Y-46848302D01*
X95250000Y-45750000D02*
X95250000Y-46750000D01*
X89689296Y-51789296D02*
X87993785Y-53484807D01*
X94250000Y-47750000D02*
X90900000Y-47750000D01*
X95248072Y-46848302D02*
X95209717Y-47041127D01*
X90087282Y-48562718D02*
X90087282Y-50828473D01*
X94348302Y-47748072D02*
X94250000Y-47750000D01*
X82250000Y-50000000D02*
X85896446Y-53646447D01*
X94722764Y-47634480D02*
X94541127Y-47709717D01*
X95134480Y-47222764D02*
X95025253Y-47386234D01*
X95025253Y-47386234D02*
X94886234Y-47525253D01*
X95209717Y-47041127D02*
X95134480Y-47222764D01*
X90087282Y-48562718D02*
G75*
G02*
X90900000Y-47750000I812719J-1D01*
G01*
X86750000Y-53999999D02*
G75*
G03*
X87993784Y-53484806I2J1758971D01*
G01*
X85896446Y-53646447D02*
G75*
G03*
X86750000Y-54000000I853557J853563D01*
G01*
X89689296Y-51789296D02*
G75*
G03*
X90087282Y-50828473I-960819J960821D01*
G01*
%TO.N,O*%
X84750000Y-43050999D02*
X88105738Y-43050999D01*
X88844849Y-42744849D02*
X90799570Y-40790127D01*
X88844849Y-42744849D02*
G75*
G02*
X88105738Y-43050999I-739112J739113D01*
G01*
X90799570Y-40790127D02*
G75*
G02*
X91500000Y-40500000I700432J-700437D01*
G01*
%TO.N,I*%
X95034315Y-40265685D02*
X94731371Y-40568629D01*
X84500000Y-44500000D02*
X87300432Y-44500000D01*
X96531507Y-35468493D02*
X97006908Y-35468493D01*
X96200000Y-37451472D02*
X96200000Y-35800000D01*
X89689644Y-43510356D02*
X91146446Y-42053553D01*
X91146446Y-42053553D02*
G75*
G02*
X92000000Y-41700000I853557J-853563D01*
G01*
X92000000Y-41699999D02*
G75*
G03*
X94731370Y-40568628I3J3862734D01*
G01*
X87300432Y-44500000D02*
G75*
G03*
X89689644Y-43510356I0J3378856D01*
G01*
X96200000Y-37451472D02*
G75*
G02*
X95034315Y-40265685I-3979903J2D01*
G01*
X96531507Y-35468493D02*
G75*
G03*
X96200000Y-35800000I-1J-331506D01*
G01*
%TO.N,OUT2*%
X81823224Y-50823223D02*
X81000000Y-50000000D01*
X82400580Y-50823223D02*
X81823224Y-50823223D01*
X82400580Y-50823223D02*
X85500169Y-53922812D01*
X91448828Y-50698828D02*
X88324462Y-53823194D01*
X95262299Y-49987701D02*
X93165640Y-49987701D01*
X86792067Y-54457932D02*
G75*
G03*
X88324461Y-53823193I1J2167130D01*
G01*
X91448828Y-50698828D02*
G75*
G02*
X93165640Y-49987701I1716813J-1716813D01*
G01*
X85500169Y-53922812D02*
G75*
G03*
X86792067Y-54457933I1291901J1291907D01*
G01*
%TO.N,EN*%
X95237701Y-33737701D02*
X93362299Y-33737701D01*
X92000000Y-35100000D02*
X92000000Y-38529651D01*
X75011441Y-50585146D02*
X75011441Y-50586841D01*
X76282288Y-43282288D02*
X76282288Y-47942712D01*
X75500000Y-42500000D02*
X75500000Y-40050998D01*
X75440034Y-50156553D02*
X75011441Y-50585146D01*
X91629651Y-38900000D02*
X76650998Y-38900000D01*
X92000000Y-35100000D02*
G75*
G02*
X93362299Y-33737701I1362299J0D01*
G01*
X75440034Y-50156553D02*
G75*
G03*
X76282288Y-47942712I-2498805J2217806D01*
G01*
X91629651Y-38900000D02*
G75*
G03*
X92000000Y-38529651I-1J370350D01*
G01*
X76282288Y-43282288D02*
G75*
G03*
X75500000Y-42500000I-782289J-1D01*
G01*
X76650998Y-38900000D02*
G75*
G03*
X75500000Y-40050998I2J-1151000D01*
G01*
%TO.N,BOOT*%
X90727774Y-41772226D02*
X89148765Y-43351235D01*
X96501578Y-34606144D02*
X96468009Y-34606144D01*
X95700000Y-35524264D02*
X95700000Y-37627208D01*
X88124501Y-43775499D02*
X84372833Y-43775499D01*
X83750000Y-44475400D02*
X83750000Y-48000000D01*
X94800000Y-39800000D02*
X94312699Y-40287301D01*
X83751610Y-44396722D02*
X83750000Y-44475400D01*
X95700000Y-35524264D02*
G75*
G02*
X96000000Y-34800000I1024258J2D01*
G01*
X83751610Y-44396722D02*
G75*
G02*
X84372833Y-43775499I621223J0D01*
G01*
X94800000Y-39800000D02*
G75*
G03*
X95700000Y-37627208I-2172797J2172794D01*
G01*
X92050099Y-41224501D02*
G75*
G03*
X94312699Y-40287301I1J3199796D01*
G01*
X88124501Y-43775498D02*
G75*
G03*
X89148764Y-43351234I-3J1448535D01*
G01*
X90727774Y-41772226D02*
G75*
G02*
X92050099Y-41224501I1322325J-1322324D01*
G01*
X96000000Y-34800000D02*
G75*
G02*
X96468009Y-34606144I468008J-468005D01*
G01*
%TO.N,IN2*%
X97400000Y-42300000D02*
X100108579Y-39591422D01*
X104350000Y-41450000D02*
X104350000Y-42875000D01*
X104350000Y-42875000D02*
X104225000Y-43000000D01*
X92227991Y-46256131D02*
X92343869Y-46256131D01*
X93000000Y-45600000D02*
X93000000Y-44500000D01*
X101904398Y-39250000D02*
X100250000Y-39250000D01*
X94230862Y-43612700D02*
X93887300Y-43612700D01*
X103836656Y-40210678D02*
X103562989Y-39937011D01*
X93000000Y-45600000D02*
G75*
G02*
X92343869Y-46256131I-656130J-1D01*
G01*
X93000000Y-44500000D02*
G75*
G02*
X93887300Y-43612700I887299J1D01*
G01*
X97400000Y-42300000D02*
G75*
G02*
X94230862Y-43612700I-3169140J3169143D01*
G01*
X103836656Y-40210678D02*
G75*
G02*
X104350000Y-41450000I-1239326J-1239324D01*
G01*
X100108579Y-39591422D02*
G75*
G03*
X100250000Y-39250000I-341424J341422D01*
G01*
X101904398Y-39250001D02*
G75*
G02*
X103562988Y-39937012I-3J-2345608D01*
G01*
%TO.N,IN1*%
X105775000Y-38000000D02*
X105775000Y-39425000D01*
X99256307Y-36775480D02*
X101549578Y-36775480D01*
X105775000Y-37275000D02*
X105775000Y-38000000D01*
X102818198Y-36250000D02*
X104750000Y-36250000D01*
X99146447Y-39853554D02*
X97100000Y-41900000D01*
X105775000Y-39425000D02*
X105650000Y-39550000D01*
X99500000Y-36836994D02*
X99500000Y-39000000D01*
X94050392Y-43163189D02*
X93436811Y-43163189D01*
X92250000Y-44350000D02*
X92250000Y-45250000D01*
X102275000Y-36475000D02*
G75*
G02*
X101549578Y-36775480I-725425J725428D01*
G01*
X94050392Y-43163188D02*
G75*
G03*
X97099999Y-41899999I-4J4312806D01*
G01*
X92250000Y-44350000D02*
G75*
G02*
X93436811Y-43163189I1186811J0D01*
G01*
X98528748Y-37076845D02*
G75*
G02*
X99256307Y-36775480I727558J-727557D01*
G01*
X102818198Y-36250000D02*
G75*
G03*
X102275000Y-36475000I3J-768205D01*
G01*
X105775000Y-37275000D02*
G75*
G03*
X104750000Y-36250000I-1025002J-2D01*
G01*
X99146447Y-39853554D02*
G75*
G03*
X99500000Y-39000000I-853563J853557D01*
G01*
X99474520Y-36775480D02*
G75*
G02*
X99500000Y-36836994I-61514J-61514D01*
G01*
%TO.N,GPSTX*%
X72800000Y-49400000D02*
X70850000Y-49400000D01*
X75500000Y-46750000D02*
X75450000Y-46750000D01*
X72800000Y-49400000D02*
G75*
G03*
X74600000Y-47600000I-1J1800001D01*
G01*
X74600000Y-47600000D02*
G75*
G02*
X75450000Y-46750000I849999J1D01*
G01*
X67500000Y-52750000D02*
G75*
G02*
X70850000Y-49400000I3349999J1D01*
G01*
%TO.N,GPSTICK*%
X72800000Y-48900000D02*
X69198528Y-48900000D01*
X74100000Y-46650000D02*
X74100000Y-47600000D01*
X74100000Y-46650000D02*
G75*
G02*
X75500000Y-45250000I1400002J-2D01*
G01*
X67750000Y-49500000D02*
G75*
G02*
X69198528Y-48900000I1448530J-1448532D01*
G01*
X72800000Y-48900000D02*
G75*
G03*
X74100000Y-47600000I1J1299999D01*
G01*
%TO.N,GPSRX*%
X73600000Y-49900000D02*
X71350000Y-49900000D01*
X68500000Y-52750000D02*
G75*
G02*
X71350000Y-49900000I2850001J-1D01*
G01*
X73600000Y-49900000D02*
G75*
G03*
X75500000Y-48000000I0J1900000D01*
G01*
%TD*%
%TA.AperFunction,Conductor*%
%TO.N,GND*%
G36*
X86633756Y-39899502D02*
G01*
X86670217Y-39935224D01*
X86674903Y-39942198D01*
X86742666Y-40043039D01*
X86750908Y-40055305D01*
X86756527Y-40060418D01*
X86756528Y-40060419D01*
X86813278Y-40112057D01*
X86868076Y-40161919D01*
X87007293Y-40237508D01*
X87160522Y-40277707D01*
X87244477Y-40279026D01*
X87311319Y-40280076D01*
X87311322Y-40280076D01*
X87318916Y-40280195D01*
X87473332Y-40244829D01*
X87552878Y-40204822D01*
X87608072Y-40177063D01*
X87608075Y-40177061D01*
X87614855Y-40173651D01*
X87620626Y-40168722D01*
X87620629Y-40168720D01*
X87729536Y-40075704D01*
X87729536Y-40075703D01*
X87735314Y-40070769D01*
X87819997Y-39952920D01*
X87823318Y-39948299D01*
X87823319Y-39948298D01*
X87827755Y-39942124D01*
X87827858Y-39942198D01*
X87875588Y-39894740D01*
X87935657Y-39879500D01*
X90893519Y-39879500D01*
X90961640Y-39899502D01*
X91008133Y-39953158D01*
X91018237Y-40023432D01*
X90996606Y-40077951D01*
X90923887Y-40181420D01*
X90918950Y-40188444D01*
X90916189Y-40195526D01*
X90907253Y-40218446D01*
X90863873Y-40274648D01*
X90845588Y-40285683D01*
X90817206Y-40299679D01*
X90817201Y-40299682D01*
X90813502Y-40301506D01*
X90664173Y-40401284D01*
X90661085Y-40403992D01*
X90661072Y-40404002D01*
X90585425Y-40470342D01*
X90579601Y-40474739D01*
X90578338Y-40475346D01*
X90574062Y-40478940D01*
X90565860Y-40487142D01*
X90559857Y-40492766D01*
X90548009Y-40503156D01*
X90539005Y-40510350D01*
X90535901Y-40512605D01*
X90535900Y-40512606D01*
X90527879Y-40518434D01*
X90522052Y-40526454D01*
X90522050Y-40526456D01*
X90515936Y-40534872D01*
X90503096Y-40549906D01*
X90027304Y-41025699D01*
X89076004Y-41977000D01*
X88604637Y-42448367D01*
X88589601Y-42461209D01*
X88573157Y-42473156D01*
X88567326Y-42481182D01*
X88560317Y-42488191D01*
X88559854Y-42487728D01*
X88549699Y-42498499D01*
X88485203Y-42551429D01*
X88464676Y-42565145D01*
X88409557Y-42594607D01*
X88371460Y-42614970D01*
X88348640Y-42624422D01*
X88247495Y-42655104D01*
X88223273Y-42659922D01*
X88140247Y-42668100D01*
X88125449Y-42667664D01*
X88125449Y-42668319D01*
X88115531Y-42668319D01*
X88105738Y-42666768D01*
X88085661Y-42669948D01*
X88065950Y-42671499D01*
X85349682Y-42671499D01*
X85281561Y-42651497D01*
X85255114Y-42625859D01*
X85253878Y-42626948D01*
X85248855Y-42621250D01*
X85244553Y-42614991D01*
X85126275Y-42509610D01*
X85118889Y-42505699D01*
X85019091Y-42452859D01*
X84986274Y-42435483D01*
X84832633Y-42396891D01*
X84825034Y-42396851D01*
X84825033Y-42396851D01*
X84759181Y-42396506D01*
X84674221Y-42396061D01*
X84666841Y-42397833D01*
X84666839Y-42397833D01*
X84527563Y-42431270D01*
X84527560Y-42431271D01*
X84520184Y-42433042D01*
X84379414Y-42505699D01*
X84260039Y-42609837D01*
X84168950Y-42739443D01*
X84166190Y-42746523D01*
X84132926Y-42831841D01*
X84111406Y-42887036D01*
X84110414Y-42894569D01*
X84110414Y-42894570D01*
X84092281Y-43032309D01*
X84090729Y-43044095D01*
X84098337Y-43113008D01*
X84102789Y-43153326D01*
X84108113Y-43201552D01*
X84136467Y-43279032D01*
X84137453Y-43281727D01*
X84142079Y-43352572D01*
X84107670Y-43414673D01*
X84051739Y-43446734D01*
X84029258Y-43452758D01*
X83975317Y-43477911D01*
X83875541Y-43524437D01*
X83875538Y-43524439D01*
X83870560Y-43526760D01*
X83727123Y-43627195D01*
X83603306Y-43751012D01*
X83502871Y-43894449D01*
X83500550Y-43899427D01*
X83500548Y-43899430D01*
X83479168Y-43945280D01*
X83428869Y-44053147D01*
X83427447Y-44058455D01*
X83427446Y-44058457D01*
X83409509Y-44125398D01*
X83383548Y-44222284D01*
X83383068Y-44227773D01*
X83375377Y-44315669D01*
X83374371Y-44321907D01*
X83374025Y-44322833D01*
X83373429Y-44328387D01*
X83373373Y-44331102D01*
X83373373Y-44331110D01*
X83373260Y-44336659D01*
X83372806Y-44345064D01*
X83371703Y-44357675D01*
X83369790Y-44379534D01*
X83368930Y-44386539D01*
X83368930Y-44386927D01*
X83367379Y-44396722D01*
X83368930Y-44406513D01*
X83368949Y-44406633D01*
X83370500Y-44426345D01*
X83370500Y-44470190D01*
X83370474Y-44472768D01*
X83369934Y-44499153D01*
X83370412Y-44502440D01*
X83370500Y-44505274D01*
X83370500Y-47405187D01*
X83350498Y-47473308D01*
X83327330Y-47500135D01*
X83260039Y-47558838D01*
X83168950Y-47688444D01*
X83161673Y-47707109D01*
X83114542Y-47827994D01*
X83111406Y-47836037D01*
X83110414Y-47843570D01*
X83110414Y-47843571D01*
X83099336Y-47927722D01*
X83090729Y-47993096D01*
X83093676Y-48019789D01*
X83102891Y-48103250D01*
X83108113Y-48150553D01*
X83110723Y-48157684D01*
X83110723Y-48157686D01*
X83152872Y-48272863D01*
X83162553Y-48299319D01*
X83166789Y-48305622D01*
X83166789Y-48305623D01*
X83238581Y-48412460D01*
X83250908Y-48430805D01*
X83256527Y-48435918D01*
X83256528Y-48435919D01*
X83349482Y-48520500D01*
X83368076Y-48537419D01*
X83507293Y-48613008D01*
X83660522Y-48653207D01*
X83742584Y-48654496D01*
X83811319Y-48655576D01*
X83811322Y-48655576D01*
X83818916Y-48655695D01*
X83973332Y-48620329D01*
X84057497Y-48577999D01*
X84108072Y-48552563D01*
X84108075Y-48552561D01*
X84114855Y-48549151D01*
X84120626Y-48544222D01*
X84120629Y-48544220D01*
X84229536Y-48451204D01*
X84229536Y-48451203D01*
X84235314Y-48446269D01*
X84327755Y-48317624D01*
X84386842Y-48170641D01*
X84397734Y-48094108D01*
X84408581Y-48017891D01*
X84408581Y-48017888D01*
X84409162Y-48013807D01*
X84409307Y-48000000D01*
X84390276Y-47842733D01*
X84334280Y-47694546D01*
X84301271Y-47646518D01*
X84248855Y-47570251D01*
X84248854Y-47570249D01*
X84244553Y-47563992D01*
X84171681Y-47499065D01*
X84134126Y-47438816D01*
X84129500Y-47404989D01*
X84129500Y-45242802D01*
X84149502Y-45174681D01*
X84203158Y-45128188D01*
X84273432Y-45118084D01*
X84287473Y-45120926D01*
X84403171Y-45151279D01*
X84403175Y-45151280D01*
X84410522Y-45153207D01*
X84494477Y-45154526D01*
X84561319Y-45155576D01*
X84561322Y-45155576D01*
X84568916Y-45155695D01*
X84723332Y-45120329D01*
X84793742Y-45084917D01*
X84858072Y-45052563D01*
X84858075Y-45052561D01*
X84864855Y-45049151D01*
X84870626Y-45044222D01*
X84870629Y-45044220D01*
X84979542Y-44951199D01*
X84979543Y-44951198D01*
X84985314Y-44946269D01*
X84994093Y-44934051D01*
X84995586Y-44931974D01*
X85051581Y-44888326D01*
X85097909Y-44879500D01*
X87260644Y-44879500D01*
X87280355Y-44881051D01*
X87290638Y-44882680D01*
X87290639Y-44882680D01*
X87300432Y-44884231D01*
X87310228Y-44882679D01*
X87314148Y-44882679D01*
X87317606Y-44882331D01*
X87392951Y-44879041D01*
X87628306Y-44868766D01*
X87790996Y-44847347D01*
X87950947Y-44826290D01*
X87950956Y-44826288D01*
X87953686Y-44825929D01*
X87956381Y-44825332D01*
X87956384Y-44825331D01*
X88271409Y-44755491D01*
X88271408Y-44755491D01*
X88274093Y-44754896D01*
X88276710Y-44754071D01*
X88276717Y-44754069D01*
X88468961Y-44693454D01*
X88539944Y-44692046D01*
X88600419Y-44729237D01*
X88631187Y-44793220D01*
X88622479Y-44863681D01*
X88595945Y-44902717D01*
X88426076Y-45072586D01*
X88411042Y-45085427D01*
X88410203Y-45086037D01*
X88396206Y-45096206D01*
X88394082Y-45099130D01*
X88203839Y-45312011D01*
X88036559Y-45547770D01*
X87896728Y-45800776D01*
X87786103Y-46067847D01*
X87706077Y-46345625D01*
X87657655Y-46630617D01*
X87641647Y-46915668D01*
X87641081Y-46919238D01*
X87642633Y-46929035D01*
X87643949Y-46937346D01*
X87645500Y-46957057D01*
X87645500Y-50858629D01*
X87643949Y-50878340D01*
X87641081Y-50896448D01*
X87642439Y-50905019D01*
X87642633Y-50907484D01*
X87642633Y-50908312D01*
X87642827Y-50909953D01*
X87656683Y-51086013D01*
X87667360Y-51130484D01*
X87662235Y-51205667D01*
X87646856Y-51245112D01*
X87615703Y-51325017D01*
X87611406Y-51336037D01*
X87610414Y-51343570D01*
X87610414Y-51343571D01*
X87592430Y-51480177D01*
X87590729Y-51493096D01*
X87597383Y-51553361D01*
X87606523Y-51636147D01*
X87608113Y-51650553D01*
X87610723Y-51657684D01*
X87610723Y-51657686D01*
X87654113Y-51776254D01*
X87662553Y-51799319D01*
X87666789Y-51805622D01*
X87666789Y-51805623D01*
X87725657Y-51893227D01*
X87750908Y-51930805D01*
X87756527Y-51935918D01*
X87756528Y-51935919D01*
X87780110Y-51957377D01*
X87868076Y-52037419D01*
X88007293Y-52113008D01*
X88160522Y-52153207D01*
X88244477Y-52154526D01*
X88311319Y-52155576D01*
X88311322Y-52155576D01*
X88318916Y-52155695D01*
X88473332Y-52120329D01*
X88480119Y-52116916D01*
X88487265Y-52114343D01*
X88488239Y-52117049D01*
X88544931Y-52106713D01*
X88610573Y-52133762D01*
X88651171Y-52192006D01*
X88653835Y-52262952D01*
X88620787Y-52321111D01*
X87753575Y-53188323D01*
X87738541Y-53201164D01*
X87722092Y-53213115D01*
X87716266Y-53221134D01*
X87711810Y-53225590D01*
X87698937Y-53239700D01*
X87607577Y-53319821D01*
X87595979Y-53329992D01*
X87582908Y-53340021D01*
X87455891Y-53424891D01*
X87446606Y-53431095D01*
X87432334Y-53439335D01*
X87285306Y-53511842D01*
X87270080Y-53518148D01*
X87114850Y-53570842D01*
X87098940Y-53575105D01*
X87028528Y-53589111D01*
X86938156Y-53607087D01*
X86921816Y-53609238D01*
X86785172Y-53618194D01*
X86757224Y-53616913D01*
X86756099Y-53616735D01*
X86750001Y-53615769D01*
X86750000Y-53615769D01*
X86745114Y-53616543D01*
X86745113Y-53616543D01*
X86745107Y-53616544D01*
X86744772Y-53616597D01*
X86744092Y-53616624D01*
X86740178Y-53616932D01*
X86740166Y-53616778D01*
X86715180Y-53617760D01*
X86630420Y-53611089D01*
X86610892Y-53607996D01*
X86582568Y-53601196D01*
X86503893Y-53582308D01*
X86485101Y-53576202D01*
X86383436Y-53534091D01*
X86365821Y-53525115D01*
X86271999Y-53467622D01*
X86256006Y-53456003D01*
X86191347Y-53400779D01*
X86181087Y-53389679D01*
X86180978Y-53389788D01*
X86173964Y-53382774D01*
X86168137Y-53374754D01*
X86151691Y-53362805D01*
X86136658Y-53349965D01*
X82940143Y-50153450D01*
X82906117Y-50091138D01*
X82904495Y-50046603D01*
X82908581Y-50017894D01*
X82908582Y-50017884D01*
X82909162Y-50013807D01*
X82909307Y-50000000D01*
X82890276Y-49842733D01*
X82834280Y-49694546D01*
X82808947Y-49657686D01*
X82748855Y-49570251D01*
X82748854Y-49570249D01*
X82744553Y-49563992D01*
X82738275Y-49558398D01*
X82661117Y-49489654D01*
X82626275Y-49458611D01*
X82618889Y-49454700D01*
X82522933Y-49403894D01*
X82486274Y-49384484D01*
X82332633Y-49345892D01*
X82325034Y-49345852D01*
X82325033Y-49345852D01*
X82259181Y-49345507D01*
X82174221Y-49345062D01*
X82166841Y-49346834D01*
X82166839Y-49346834D01*
X82027563Y-49380271D01*
X82027560Y-49380272D01*
X82020184Y-49382043D01*
X81879414Y-49454700D01*
X81760039Y-49558838D01*
X81755672Y-49565052D01*
X81755669Y-49565055D01*
X81728265Y-49604047D01*
X81672731Y-49648279D01*
X81602099Y-49655465D01*
X81538794Y-49623324D01*
X81521338Y-49602965D01*
X81520252Y-49601385D01*
X81494553Y-49563992D01*
X81488275Y-49558398D01*
X81411117Y-49489654D01*
X81376275Y-49458611D01*
X81368889Y-49454700D01*
X81272933Y-49403894D01*
X81236274Y-49384484D01*
X81082633Y-49345892D01*
X81075034Y-49345852D01*
X81075033Y-49345852D01*
X81009181Y-49345507D01*
X80924221Y-49345062D01*
X80916841Y-49346834D01*
X80916839Y-49346834D01*
X80777563Y-49380271D01*
X80777560Y-49380272D01*
X80770184Y-49382043D01*
X80629414Y-49454700D01*
X80510039Y-49558838D01*
X80505672Y-49565052D01*
X80505669Y-49565055D01*
X80478265Y-49604047D01*
X80422731Y-49648279D01*
X80352099Y-49655465D01*
X80288794Y-49623324D01*
X80271338Y-49602965D01*
X80270252Y-49601385D01*
X80244553Y-49563992D01*
X80238275Y-49558398D01*
X80161117Y-49489654D01*
X80126275Y-49458611D01*
X80118889Y-49454700D01*
X80022933Y-49403894D01*
X79986274Y-49384484D01*
X79832633Y-49345892D01*
X79825034Y-49345852D01*
X79825033Y-49345852D01*
X79759181Y-49345507D01*
X79674221Y-49345062D01*
X79666841Y-49346834D01*
X79666839Y-49346834D01*
X79527563Y-49380271D01*
X79527560Y-49380272D01*
X79520184Y-49382043D01*
X79379414Y-49454700D01*
X79260039Y-49558838D01*
X79168950Y-49688444D01*
X79159117Y-49713664D01*
X79117561Y-49820251D01*
X79111406Y-49836037D01*
X79110414Y-49843570D01*
X79110414Y-49843571D01*
X79093917Y-49968884D01*
X79090729Y-49993096D01*
X79096918Y-50049151D01*
X79103599Y-50109664D01*
X79108113Y-50150553D01*
X79110723Y-50157684D01*
X79110723Y-50157686D01*
X79157032Y-50284231D01*
X79162553Y-50299319D01*
X79166789Y-50305622D01*
X79166789Y-50305623D01*
X79243520Y-50419810D01*
X79250908Y-50430805D01*
X79256527Y-50435918D01*
X79256528Y-50435919D01*
X79361572Y-50531501D01*
X79368076Y-50537419D01*
X79507293Y-50613008D01*
X79660522Y-50653207D01*
X79755006Y-50654691D01*
X79818771Y-50655693D01*
X79886569Y-50676762D01*
X79905887Y-50692582D01*
X80839968Y-51626663D01*
X80855110Y-51645411D01*
X80856225Y-51646636D01*
X80861875Y-51655387D01*
X80870053Y-51661834D01*
X80870055Y-51661836D01*
X80888246Y-51676176D01*
X80892687Y-51680122D01*
X80892749Y-51680049D01*
X80896713Y-51683408D01*
X80900390Y-51687085D01*
X80916138Y-51698339D01*
X80920808Y-51701845D01*
X80961093Y-51733603D01*
X80969727Y-51736635D01*
X80977180Y-51741961D01*
X81026296Y-51756650D01*
X81031938Y-51758483D01*
X81072813Y-51772837D01*
X81080297Y-51775465D01*
X81085862Y-51775947D01*
X81088570Y-51775947D01*
X81091204Y-51776061D01*
X81091302Y-51776090D01*
X81091295Y-51776254D01*
X81091999Y-51776298D01*
X81098224Y-51778160D01*
X81152081Y-51776044D01*
X81157028Y-51775947D01*
X82118724Y-51775947D01*
X82186845Y-51795949D01*
X82207819Y-51812852D01*
X83147246Y-52752279D01*
X83181272Y-52814591D01*
X83176207Y-52885406D01*
X83133660Y-52942242D01*
X83069132Y-52966895D01*
X82966197Y-52975900D01*
X82955401Y-52977804D01*
X82753405Y-53031928D01*
X82743113Y-53035674D01*
X82553583Y-53124054D01*
X82544093Y-53129534D01*
X82502851Y-53158411D01*
X82494477Y-53168887D01*
X82501545Y-53182334D01*
X83180000Y-53860790D01*
X84218388Y-54899177D01*
X84230162Y-54905606D01*
X84242176Y-54896310D01*
X84270466Y-54855907D01*
X84275946Y-54846417D01*
X84364326Y-54656887D01*
X84368072Y-54646595D01*
X84422196Y-54444599D01*
X84424100Y-54433803D01*
X84433105Y-54330869D01*
X84458968Y-54264750D01*
X84516472Y-54223111D01*
X84587359Y-54219170D01*
X84647721Y-54252754D01*
X84933154Y-54538186D01*
X84945996Y-54553222D01*
X84957943Y-54569666D01*
X84963008Y-54573346D01*
X85176295Y-54763951D01*
X85414633Y-54933061D01*
X85670407Y-55074422D01*
X85940399Y-55186257D01*
X86221216Y-55267159D01*
X86509325Y-55316110D01*
X86701341Y-55326894D01*
X86787155Y-55331713D01*
X86787156Y-55331713D01*
X86794921Y-55332149D01*
X86801103Y-55333128D01*
X86821181Y-55329948D01*
X86840891Y-55328397D01*
X86909109Y-55328397D01*
X86928819Y-55329948D01*
X86948897Y-55333128D01*
X86958635Y-55331586D01*
X86958818Y-55331577D01*
X86962290Y-55331577D01*
X86965430Y-55331252D01*
X87049237Y-55327135D01*
X87244185Y-55317558D01*
X87244190Y-55317558D01*
X87247274Y-55317406D01*
X87542777Y-55273572D01*
X87556394Y-55270161D01*
X91134393Y-55270161D01*
X91143687Y-55282175D01*
X91184088Y-55310464D01*
X91193584Y-55315947D01*
X91383113Y-55404326D01*
X91393405Y-55408072D01*
X91595401Y-55462196D01*
X91606196Y-55464099D01*
X91814525Y-55482326D01*
X91825475Y-55482326D01*
X92033804Y-55464099D01*
X92044599Y-55462196D01*
X92246595Y-55408072D01*
X92256887Y-55404326D01*
X92446416Y-55315947D01*
X92455912Y-55310464D01*
X92497148Y-55281590D01*
X92505523Y-55271112D01*
X92498457Y-55257668D01*
X91832811Y-54592021D01*
X91818868Y-54584408D01*
X91817034Y-54584539D01*
X91810420Y-54588790D01*
X91140820Y-55258391D01*
X91134393Y-55270161D01*
X87556394Y-55270161D01*
X87832561Y-55200985D01*
X88113835Y-55100343D01*
X88131737Y-55091876D01*
X88381107Y-54973933D01*
X88381110Y-54973931D01*
X88383889Y-54972617D01*
X88443574Y-54936843D01*
X88637474Y-54820624D01*
X88637483Y-54820618D01*
X88640124Y-54819035D01*
X88711653Y-54765986D01*
X88877582Y-54642925D01*
X88877586Y-54642922D01*
X88880072Y-54641078D01*
X88977006Y-54553222D01*
X89089158Y-54451574D01*
X89091607Y-54449584D01*
X89094061Y-54447130D01*
X89094200Y-54447004D01*
X89102173Y-54441211D01*
X89114122Y-54424765D01*
X89126962Y-54409732D01*
X89311219Y-54225475D01*
X90557674Y-54225475D01*
X90575901Y-54433804D01*
X90577804Y-54444599D01*
X90631928Y-54646595D01*
X90635674Y-54656887D01*
X90724054Y-54846417D01*
X90729534Y-54855907D01*
X90758411Y-54897149D01*
X90768887Y-54905523D01*
X90782334Y-54898455D01*
X91447979Y-54232811D01*
X91454356Y-54221132D01*
X92184408Y-54221132D01*
X92184539Y-54222966D01*
X92188790Y-54229580D01*
X92858391Y-54899180D01*
X92870161Y-54905607D01*
X92882176Y-54896311D01*
X92910466Y-54855907D01*
X92915946Y-54846417D01*
X93004326Y-54656887D01*
X93008072Y-54646595D01*
X93014637Y-54622095D01*
X93642001Y-54622095D01*
X93642338Y-54628614D01*
X93652257Y-54724206D01*
X93655149Y-54737600D01*
X93706588Y-54891784D01*
X93712761Y-54904962D01*
X93798063Y-55042807D01*
X93807099Y-55054208D01*
X93921829Y-55168739D01*
X93933240Y-55177751D01*
X94071243Y-55262816D01*
X94084424Y-55268963D01*
X94238710Y-55320138D01*
X94252086Y-55323005D01*
X94346438Y-55332672D01*
X94352854Y-55333000D01*
X94727885Y-55333000D01*
X94743124Y-55328525D01*
X94744329Y-55327135D01*
X94746000Y-55319452D01*
X94746000Y-54172115D01*
X94741525Y-54156876D01*
X94740135Y-54155671D01*
X94732452Y-54154000D01*
X93660116Y-54154000D01*
X93644877Y-54158475D01*
X93643672Y-54159865D01*
X93642001Y-54167548D01*
X93642001Y-54622095D01*
X93014637Y-54622095D01*
X93062196Y-54444599D01*
X93064099Y-54433804D01*
X93082326Y-54225475D01*
X93082326Y-54214525D01*
X93064099Y-54006196D01*
X93062196Y-53995401D01*
X93008072Y-53793405D01*
X93004326Y-53783113D01*
X92931941Y-53627885D01*
X93642000Y-53627885D01*
X93646475Y-53643124D01*
X93647865Y-53644329D01*
X93655548Y-53646000D01*
X94727885Y-53646000D01*
X94743124Y-53641525D01*
X94744329Y-53640135D01*
X94746000Y-53632452D01*
X94746000Y-52485116D01*
X94741525Y-52469877D01*
X94740135Y-52468672D01*
X94732452Y-52467001D01*
X94352905Y-52467001D01*
X94346386Y-52467338D01*
X94250794Y-52477257D01*
X94237400Y-52480149D01*
X94083216Y-52531588D01*
X94070038Y-52537761D01*
X93932193Y-52623063D01*
X93920792Y-52632099D01*
X93806261Y-52746829D01*
X93797249Y-52758240D01*
X93712184Y-52896243D01*
X93706037Y-52909424D01*
X93654862Y-53063710D01*
X93651995Y-53077086D01*
X93642328Y-53171438D01*
X93642000Y-53177855D01*
X93642000Y-53627885D01*
X92931941Y-53627885D01*
X92915946Y-53593583D01*
X92910466Y-53584093D01*
X92881589Y-53542851D01*
X92871113Y-53534477D01*
X92857666Y-53541545D01*
X92192021Y-54207189D01*
X92184408Y-54221132D01*
X91454356Y-54221132D01*
X91455592Y-54218868D01*
X91455461Y-54217034D01*
X91451210Y-54210420D01*
X90781609Y-53540820D01*
X90769839Y-53534393D01*
X90757824Y-53543689D01*
X90729534Y-53584093D01*
X90724054Y-53593583D01*
X90635674Y-53783113D01*
X90631928Y-53793405D01*
X90577804Y-53995401D01*
X90575901Y-54006196D01*
X90557674Y-54214525D01*
X90557674Y-54225475D01*
X89311219Y-54225475D01*
X90367807Y-53168887D01*
X91134477Y-53168887D01*
X91141545Y-53182334D01*
X91807189Y-53847979D01*
X91821132Y-53855592D01*
X91822966Y-53855461D01*
X91829580Y-53851210D01*
X92499180Y-53181609D01*
X92505607Y-53169839D01*
X92496313Y-53157825D01*
X92455912Y-53129536D01*
X92446416Y-53124053D01*
X92256887Y-53035674D01*
X92246595Y-53031928D01*
X92044599Y-52977804D01*
X92033804Y-52975901D01*
X91825475Y-52957674D01*
X91814525Y-52957674D01*
X91606196Y-52975901D01*
X91595401Y-52977804D01*
X91393405Y-53031928D01*
X91383113Y-53035674D01*
X91193583Y-53124054D01*
X91184093Y-53129534D01*
X91142851Y-53158411D01*
X91134477Y-53168887D01*
X90367807Y-53168887D01*
X92240213Y-51296481D01*
X92255247Y-51283640D01*
X92258160Y-51281524D01*
X92271692Y-51271692D01*
X92277519Y-51263672D01*
X92281992Y-51259199D01*
X92294844Y-51245112D01*
X92392703Y-51159291D01*
X92405777Y-51149259D01*
X92490138Y-51092891D01*
X92536438Y-51061955D01*
X92550710Y-51053715D01*
X92691651Y-50984210D01*
X92706878Y-50977903D01*
X92724898Y-50971786D01*
X92855682Y-50927391D01*
X92871592Y-50923128D01*
X92948658Y-50907799D01*
X93025721Y-50892470D01*
X93042061Y-50890319D01*
X93171935Y-50881806D01*
X93190972Y-50882679D01*
X93197310Y-50882679D01*
X93207106Y-50884231D01*
X93216899Y-50882680D01*
X93216900Y-50882680D01*
X93227183Y-50881051D01*
X93246894Y-50879500D01*
X94003106Y-50879500D01*
X94022816Y-50881051D01*
X94042894Y-50884231D01*
X94052687Y-50882680D01*
X94058988Y-50882680D01*
X94078070Y-50881806D01*
X94207939Y-50890318D01*
X94224279Y-50892469D01*
X94287374Y-50905019D01*
X94378409Y-50923127D01*
X94394323Y-50927391D01*
X94514903Y-50968323D01*
X94572978Y-51009159D01*
X94599640Y-51073808D01*
X94606977Y-51140259D01*
X94608113Y-51150553D01*
X94610723Y-51157684D01*
X94610723Y-51157686D01*
X94658948Y-51289467D01*
X94662553Y-51299319D01*
X94666789Y-51305622D01*
X94666789Y-51305623D01*
X94744856Y-51421798D01*
X94750908Y-51430805D01*
X94756527Y-51435918D01*
X94756528Y-51435919D01*
X94854934Y-51525461D01*
X94868076Y-51537419D01*
X95007293Y-51613008D01*
X95160522Y-51653207D01*
X95244477Y-51654526D01*
X95311319Y-51655576D01*
X95311322Y-51655576D01*
X95318916Y-51655695D01*
X95473332Y-51620329D01*
X95554590Y-51579461D01*
X95608072Y-51552563D01*
X95608075Y-51552561D01*
X95614855Y-51549151D01*
X95620626Y-51544222D01*
X95620629Y-51544220D01*
X95729536Y-51451204D01*
X95729536Y-51451203D01*
X95735314Y-51446269D01*
X95827755Y-51317624D01*
X95886842Y-51170641D01*
X95903449Y-51053949D01*
X95908581Y-51017891D01*
X95908581Y-51017888D01*
X95909162Y-51013807D01*
X95909307Y-51000000D01*
X95908393Y-50992442D01*
X95900521Y-50927392D01*
X95890276Y-50842733D01*
X95834280Y-50694546D01*
X95778241Y-50613008D01*
X95750531Y-50572690D01*
X95728431Y-50505221D01*
X95746317Y-50436514D01*
X95752040Y-50427809D01*
X95840054Y-50305325D01*
X95899141Y-50158342D01*
X95917739Y-50027662D01*
X95920880Y-50005592D01*
X95920880Y-50005589D01*
X95921461Y-50001508D01*
X95921542Y-49993794D01*
X95921563Y-49991835D01*
X95921563Y-49991829D01*
X95921606Y-49987701D01*
X95902575Y-49830434D01*
X95846579Y-49682247D01*
X95822449Y-49647137D01*
X95761154Y-49557952D01*
X95761153Y-49557950D01*
X95756852Y-49551693D01*
X95748437Y-49544195D01*
X95699558Y-49500646D01*
X95638574Y-49446312D01*
X95631188Y-49442401D01*
X95519178Y-49383095D01*
X95498573Y-49372185D01*
X95344932Y-49333593D01*
X95337333Y-49333553D01*
X95337332Y-49333553D01*
X95271480Y-49333208D01*
X95186520Y-49332763D01*
X95179140Y-49334535D01*
X95179138Y-49334535D01*
X95039862Y-49367972D01*
X95039859Y-49367973D01*
X95032483Y-49369744D01*
X94891713Y-49442401D01*
X94772338Y-49546539D01*
X94767971Y-49552752D01*
X94767966Y-49552758D01*
X94766635Y-49554652D01*
X94765312Y-49555706D01*
X94762888Y-49558398D01*
X94762439Y-49557994D01*
X94711101Y-49598884D01*
X94663549Y-49608201D01*
X93205428Y-49608201D01*
X93185717Y-49606650D01*
X93175434Y-49605021D01*
X93175433Y-49605021D01*
X93165640Y-49603470D01*
X93155843Y-49605022D01*
X93153606Y-49605022D01*
X93146527Y-49605754D01*
X92893219Y-49618198D01*
X92893213Y-49618199D01*
X92890131Y-49618350D01*
X92757404Y-49638038D01*
X92620341Y-49658369D01*
X92620337Y-49658370D01*
X92617275Y-49658824D01*
X92614276Y-49659575D01*
X92614272Y-49659576D01*
X92352695Y-49725098D01*
X92349701Y-49725848D01*
X92346793Y-49726888D01*
X92346788Y-49726890D01*
X92300233Y-49743548D01*
X92089984Y-49818777D01*
X92087194Y-49820097D01*
X92087193Y-49820097D01*
X91850111Y-49932228D01*
X91840626Y-49936714D01*
X91604030Y-50078525D01*
X91601545Y-50080368D01*
X91446353Y-50195466D01*
X91382472Y-50242843D01*
X91194923Y-50412828D01*
X91192267Y-50415235D01*
X91186739Y-50419726D01*
X91185156Y-50421309D01*
X91177136Y-50427136D01*
X91171309Y-50435156D01*
X91171307Y-50435158D01*
X91165193Y-50443574D01*
X91152352Y-50458608D01*
X90685056Y-50925904D01*
X90622744Y-50959930D01*
X90551929Y-50954865D01*
X90495093Y-50912318D01*
X90470282Y-50845798D01*
X90470004Y-50837999D01*
X90471513Y-50828472D01*
X90469840Y-50817904D01*
X90468333Y-50808395D01*
X90466782Y-50788684D01*
X90466782Y-48746781D01*
X90486784Y-48678660D01*
X90540440Y-48632167D01*
X90610714Y-48622063D01*
X90675294Y-48651557D01*
X90711108Y-48703480D01*
X90731504Y-48759214D01*
X90737553Y-48775745D01*
X90741789Y-48782048D01*
X90741789Y-48782049D01*
X90810080Y-48883676D01*
X90825908Y-48907231D01*
X90831527Y-48912344D01*
X90831528Y-48912345D01*
X90908171Y-48982084D01*
X90943076Y-49013845D01*
X91082293Y-49089434D01*
X91235522Y-49129633D01*
X91319477Y-49130952D01*
X91386319Y-49132002D01*
X91386322Y-49132002D01*
X91393916Y-49132121D01*
X91548332Y-49096755D01*
X91623722Y-49058838D01*
X91683072Y-49028989D01*
X91683075Y-49028987D01*
X91689855Y-49025577D01*
X91706789Y-49011114D01*
X91771579Y-48982084D01*
X91788619Y-48980926D01*
X96619500Y-48980926D01*
X96687621Y-49000928D01*
X96734114Y-49054584D01*
X96745500Y-49106926D01*
X96745500Y-49789676D01*
X96722587Y-49862126D01*
X96668950Y-49938444D01*
X96644362Y-50001508D01*
X96614335Y-50078525D01*
X96611406Y-50086037D01*
X96610414Y-50093570D01*
X96610414Y-50093571D01*
X96594034Y-50217993D01*
X96590729Y-50243096D01*
X96599421Y-50321824D01*
X96606249Y-50383666D01*
X96608113Y-50400553D01*
X96610723Y-50407684D01*
X96610723Y-50407686D01*
X96656033Y-50531501D01*
X96662553Y-50549319D01*
X96666789Y-50555622D01*
X96666789Y-50555623D01*
X96724082Y-50640884D01*
X96745500Y-50711160D01*
X96745500Y-52965339D01*
X96725498Y-53033460D01*
X96710520Y-53052468D01*
X96629272Y-53137340D01*
X96626021Y-53142375D01*
X96586447Y-53203664D01*
X96532692Y-53250042D01*
X96462396Y-53259995D01*
X96397879Y-53230363D01*
X96359623Y-53170555D01*
X96355268Y-53148319D01*
X96347743Y-53075794D01*
X96344851Y-53062400D01*
X96293412Y-52908216D01*
X96287239Y-52895038D01*
X96201937Y-52757193D01*
X96192901Y-52745792D01*
X96078171Y-52631261D01*
X96066760Y-52622249D01*
X95928757Y-52537184D01*
X95915576Y-52531037D01*
X95761290Y-52479862D01*
X95747914Y-52476995D01*
X95653562Y-52467328D01*
X95647145Y-52467000D01*
X95272115Y-52467000D01*
X95256876Y-52471475D01*
X95255671Y-52472865D01*
X95254000Y-52480548D01*
X95254000Y-55314884D01*
X95258475Y-55330123D01*
X95259865Y-55331328D01*
X95267548Y-55332999D01*
X95647095Y-55332999D01*
X95653614Y-55332662D01*
X95749206Y-55322743D01*
X95762600Y-55319851D01*
X95916784Y-55268412D01*
X95929962Y-55262239D01*
X96067807Y-55176937D01*
X96079208Y-55167901D01*
X96193739Y-55053171D01*
X96202751Y-55041760D01*
X96287816Y-54903757D01*
X96293963Y-54890576D01*
X96345138Y-54736290D01*
X96348005Y-54722914D01*
X96354869Y-54655919D01*
X96381710Y-54590192D01*
X96439824Y-54549410D01*
X96510762Y-54546520D01*
X96572001Y-54582442D01*
X96579299Y-54590928D01*
X96620051Y-54642808D01*
X96696514Y-54740149D01*
X96701044Y-54744080D01*
X96701045Y-54744081D01*
X96851165Y-54874350D01*
X96851170Y-54874354D01*
X96855696Y-54878281D01*
X96886861Y-54896310D01*
X96932595Y-54922768D01*
X96981544Y-54974193D01*
X96995500Y-55031832D01*
X96995500Y-57700946D01*
X96994000Y-57720331D01*
X96992051Y-57732850D01*
X96990350Y-57743773D01*
X96992157Y-57757591D01*
X96992316Y-57758804D01*
X96993059Y-57784130D01*
X96984558Y-57902986D01*
X96980921Y-57953841D01*
X96978363Y-57971635D01*
X96936837Y-58162527D01*
X96931772Y-58179776D01*
X96863502Y-58362816D01*
X96856040Y-58379155D01*
X96762413Y-58550622D01*
X96752696Y-58565741D01*
X96707607Y-58625973D01*
X96635622Y-58722134D01*
X96623849Y-58735720D01*
X96485720Y-58873849D01*
X96472134Y-58885622D01*
X96315741Y-59002696D01*
X96300627Y-59012410D01*
X96129155Y-59106040D01*
X96112816Y-59113502D01*
X95987058Y-59160407D01*
X95929776Y-59181772D01*
X95912527Y-59186837D01*
X95721635Y-59228363D01*
X95703841Y-59230921D01*
X95541187Y-59242554D01*
X95523993Y-59241840D01*
X95515098Y-59241731D01*
X95506227Y-59240350D01*
X95497325Y-59241514D01*
X95497322Y-59241514D01*
X95474981Y-59244436D01*
X95458643Y-59245500D01*
X92850915Y-59245500D01*
X92782794Y-59225498D01*
X92736301Y-59171842D01*
X92726197Y-59101568D01*
X92751653Y-59044299D01*
X92750769Y-59043691D01*
X92754036Y-59038938D01*
X92754037Y-59038935D01*
X92754041Y-59038930D01*
X92760556Y-59029451D01*
X92856662Y-58857840D01*
X92861336Y-58847343D01*
X92924557Y-58661101D01*
X92927245Y-58649905D01*
X92955762Y-58453224D01*
X92956392Y-58445843D01*
X92957757Y-58393704D01*
X92957514Y-58386305D01*
X92939330Y-58188397D01*
X92937233Y-58177083D01*
X92883846Y-57987789D01*
X92879724Y-57977050D01*
X92792736Y-57800656D01*
X92791577Y-57798765D01*
X92782732Y-57792126D01*
X92770312Y-57798898D01*
X91909095Y-58660115D01*
X91846783Y-58694141D01*
X91775968Y-58689076D01*
X91730905Y-58660115D01*
X90870031Y-57799241D01*
X90857651Y-57792481D01*
X90851685Y-57796947D01*
X90771452Y-57949445D01*
X90767047Y-57960079D01*
X90708724Y-58147910D01*
X90706332Y-58159164D01*
X90683215Y-58354479D01*
X90682914Y-58365980D01*
X90695777Y-58562233D01*
X90697577Y-58573601D01*
X90745991Y-58764228D01*
X90749829Y-58775066D01*
X90832172Y-58953682D01*
X90837923Y-58963643D01*
X90896678Y-59046780D01*
X90919659Y-59113954D01*
X90902674Y-59182889D01*
X90851117Y-59231699D01*
X90793781Y-59245500D01*
X84210915Y-59245500D01*
X84142794Y-59225498D01*
X84096301Y-59171842D01*
X84086197Y-59101568D01*
X84111653Y-59044299D01*
X84110769Y-59043691D01*
X84114036Y-59038938D01*
X84114037Y-59038935D01*
X84114041Y-59038930D01*
X84120556Y-59029451D01*
X84216662Y-58857840D01*
X84221336Y-58847343D01*
X84284557Y-58661101D01*
X84287245Y-58649905D01*
X84315762Y-58453224D01*
X84316392Y-58445843D01*
X84317757Y-58393704D01*
X84317514Y-58386305D01*
X84299330Y-58188397D01*
X84297233Y-58177083D01*
X84243846Y-57987789D01*
X84239724Y-57977050D01*
X84152736Y-57800656D01*
X84151577Y-57798765D01*
X84142732Y-57792126D01*
X84130312Y-57798898D01*
X83269095Y-58660115D01*
X83206783Y-58694141D01*
X83135968Y-58689076D01*
X83090905Y-58660115D01*
X82230031Y-57799241D01*
X82217651Y-57792481D01*
X82211685Y-57796947D01*
X82131452Y-57949445D01*
X82127047Y-57960079D01*
X82068724Y-58147910D01*
X82066332Y-58159164D01*
X82043215Y-58354479D01*
X82042914Y-58365980D01*
X82055777Y-58562233D01*
X82057577Y-58573601D01*
X82105991Y-58764228D01*
X82109829Y-58775066D01*
X82192172Y-58953682D01*
X82197923Y-58963643D01*
X82256678Y-59046780D01*
X82279659Y-59113954D01*
X82262674Y-59182889D01*
X82211117Y-59231699D01*
X82153781Y-59245500D01*
X81787767Y-59245500D01*
X81719646Y-59225498D01*
X81683927Y-59190867D01*
X81662993Y-59160407D01*
X81662991Y-59160405D01*
X81658691Y-59154148D01*
X81636621Y-59134484D01*
X81557958Y-59064399D01*
X81540413Y-59048767D01*
X81533027Y-59044856D01*
X81481940Y-59017807D01*
X81400412Y-58974640D01*
X81246771Y-58936048D01*
X81239172Y-58936008D01*
X81239171Y-58936008D01*
X81173319Y-58935663D01*
X81088359Y-58935218D01*
X81080979Y-58936990D01*
X81080977Y-58936990D01*
X80941701Y-58970427D01*
X80941698Y-58970428D01*
X80934322Y-58972199D01*
X80793552Y-59044856D01*
X80674177Y-59148994D01*
X80583088Y-59278600D01*
X80571299Y-59308838D01*
X80529312Y-59416529D01*
X80525544Y-59426193D01*
X80504867Y-59583252D01*
X80522251Y-59740709D01*
X80524861Y-59747840D01*
X80524861Y-59747842D01*
X80548555Y-59812588D01*
X80576691Y-59889475D01*
X80580927Y-59895778D01*
X80580927Y-59895779D01*
X80658273Y-60010881D01*
X80665046Y-60020961D01*
X80670662Y-60026071D01*
X80670667Y-60026077D01*
X80671467Y-60026804D01*
X80671878Y-60027479D01*
X80675627Y-60031822D01*
X80674903Y-60032447D01*
X80708392Y-60087443D01*
X80706671Y-60158418D01*
X80666851Y-60217197D01*
X80601574Y-60245116D01*
X80586671Y-60246000D01*
X75941705Y-60246000D01*
X75873584Y-60225998D01*
X75827091Y-60172342D01*
X75816987Y-60102068D01*
X75828417Y-60067890D01*
X75827755Y-60067624D01*
X75852889Y-60005101D01*
X75886842Y-59920641D01*
X75892965Y-59877615D01*
X75908581Y-59767891D01*
X75908581Y-59767888D01*
X75909162Y-59763807D01*
X75909307Y-59750000D01*
X75890276Y-59592733D01*
X75834280Y-59444546D01*
X75815025Y-59416529D01*
X75748855Y-59320251D01*
X75748854Y-59320249D01*
X75744553Y-59313992D01*
X75726610Y-59298005D01*
X75689843Y-59265248D01*
X75626275Y-59208611D01*
X75618889Y-59204700D01*
X75513873Y-59149097D01*
X75486274Y-59134484D01*
X75332633Y-59095892D01*
X75325034Y-59095852D01*
X75325033Y-59095852D01*
X75259181Y-59095507D01*
X75174221Y-59095062D01*
X75166841Y-59096834D01*
X75166839Y-59096834D01*
X75027563Y-59130271D01*
X75027560Y-59130272D01*
X75020184Y-59132043D01*
X74879414Y-59204700D01*
X74760039Y-59308838D01*
X74755672Y-59315051D01*
X74755667Y-59315057D01*
X74754336Y-59316951D01*
X74753013Y-59318005D01*
X74750589Y-59320697D01*
X74750140Y-59320293D01*
X74698802Y-59361183D01*
X74651250Y-59370500D01*
X74239787Y-59370500D01*
X74220076Y-59368949D01*
X74199999Y-59365769D01*
X74192589Y-59366943D01*
X74171847Y-59364900D01*
X74159336Y-59362412D01*
X74113913Y-59343598D01*
X74100272Y-59334483D01*
X74065516Y-59299727D01*
X74056402Y-59286087D01*
X74037588Y-59240664D01*
X74035100Y-59228153D01*
X74033057Y-59207411D01*
X74034231Y-59200001D01*
X74031051Y-59179923D01*
X74029500Y-59160213D01*
X74029500Y-57430436D01*
X82584547Y-57430436D01*
X82588033Y-57438823D01*
X83167188Y-58017978D01*
X83181132Y-58025592D01*
X83182965Y-58025461D01*
X83189580Y-58021210D01*
X83768407Y-57442383D01*
X83774931Y-57430436D01*
X91224547Y-57430436D01*
X91228033Y-57438823D01*
X91807188Y-58017978D01*
X91821132Y-58025592D01*
X91822965Y-58025461D01*
X91829580Y-58021210D01*
X92408407Y-57442383D01*
X92415167Y-57430003D01*
X92409137Y-57421948D01*
X92341459Y-57379246D01*
X92331211Y-57374025D01*
X92148531Y-57301143D01*
X92137504Y-57297876D01*
X91944605Y-57259506D01*
X91933159Y-57258303D01*
X91736507Y-57255730D01*
X91725027Y-57256633D01*
X91531199Y-57289938D01*
X91520079Y-57292918D01*
X91335557Y-57360992D01*
X91325179Y-57365942D01*
X91234146Y-57420101D01*
X91224547Y-57430436D01*
X83774931Y-57430436D01*
X83775167Y-57430003D01*
X83769137Y-57421948D01*
X83701459Y-57379246D01*
X83691211Y-57374025D01*
X83508531Y-57301143D01*
X83497504Y-57297876D01*
X83304605Y-57259506D01*
X83293159Y-57258303D01*
X83096507Y-57255730D01*
X83085027Y-57256633D01*
X82891199Y-57289938D01*
X82880079Y-57292918D01*
X82695557Y-57360992D01*
X82685179Y-57365942D01*
X82594146Y-57420101D01*
X82584547Y-57430436D01*
X74029500Y-57430436D01*
X74029500Y-55270161D01*
X82494393Y-55270161D01*
X82503687Y-55282175D01*
X82544088Y-55310464D01*
X82553584Y-55315947D01*
X82743113Y-55404326D01*
X82753405Y-55408072D01*
X82955401Y-55462196D01*
X82966196Y-55464099D01*
X83174525Y-55482326D01*
X83185475Y-55482326D01*
X83393804Y-55464099D01*
X83404599Y-55462196D01*
X83606595Y-55408072D01*
X83616887Y-55404326D01*
X83806416Y-55315947D01*
X83815912Y-55310464D01*
X83857148Y-55281590D01*
X83865523Y-55271112D01*
X83858457Y-55257668D01*
X83192811Y-54592021D01*
X83178868Y-54584408D01*
X83177034Y-54584539D01*
X83170420Y-54588790D01*
X82500820Y-55258391D01*
X82494393Y-55270161D01*
X74029500Y-55270161D01*
X74029500Y-54225475D01*
X81917674Y-54225475D01*
X81935901Y-54433804D01*
X81937804Y-54444599D01*
X81991928Y-54646595D01*
X81995674Y-54656887D01*
X82084054Y-54846417D01*
X82089534Y-54855907D01*
X82118411Y-54897149D01*
X82128887Y-54905523D01*
X82142334Y-54898455D01*
X82807979Y-54232811D01*
X82815592Y-54218868D01*
X82815461Y-54217034D01*
X82811210Y-54210420D01*
X82141609Y-53540820D01*
X82129839Y-53534393D01*
X82117824Y-53543689D01*
X82089534Y-53584093D01*
X82084054Y-53593583D01*
X81995674Y-53783113D01*
X81991928Y-53793405D01*
X81937804Y-53995401D01*
X81935901Y-54006196D01*
X81917674Y-54214525D01*
X81917674Y-54225475D01*
X74029500Y-54225475D01*
X74029500Y-52755500D01*
X74049502Y-52687379D01*
X74103158Y-52640886D01*
X74155500Y-52629500D01*
X74400141Y-52629500D01*
X74468262Y-52649502D01*
X74495522Y-52673169D01*
X74496672Y-52674501D01*
X74500908Y-52680805D01*
X74506525Y-52685916D01*
X74569501Y-52743219D01*
X74618076Y-52787419D01*
X74757293Y-52863008D01*
X74910522Y-52903207D01*
X74994477Y-52904526D01*
X75061319Y-52905576D01*
X75061322Y-52905576D01*
X75068916Y-52905695D01*
X75223332Y-52870329D01*
X75293742Y-52834917D01*
X75358072Y-52802563D01*
X75358075Y-52802561D01*
X75364855Y-52799151D01*
X75370626Y-52794222D01*
X75370629Y-52794220D01*
X75479536Y-52701204D01*
X75479536Y-52701203D01*
X75485314Y-52696269D01*
X75577755Y-52567624D01*
X75636842Y-52420641D01*
X75652020Y-52313992D01*
X75658581Y-52267891D01*
X75658581Y-52267888D01*
X75659162Y-52263807D01*
X75659307Y-52250000D01*
X75653437Y-52201496D01*
X75665109Y-52131468D01*
X75689429Y-52097265D01*
X76563434Y-51223260D01*
X76578468Y-51210419D01*
X76586897Y-51204295D01*
X76586898Y-51204294D01*
X76594917Y-51198468D01*
X76598815Y-51193103D01*
X76674881Y-51106366D01*
X76757887Y-51011717D01*
X76757891Y-51011711D01*
X76760605Y-51008617D01*
X76880972Y-50828474D01*
X76898282Y-50802568D01*
X76898285Y-50802563D01*
X76900577Y-50799133D01*
X76928675Y-50742156D01*
X77010183Y-50576876D01*
X77010186Y-50576868D01*
X77012009Y-50573172D01*
X77036847Y-50500000D01*
X77091667Y-50338506D01*
X77091668Y-50338503D01*
X77092993Y-50334599D01*
X77098766Y-50305579D01*
X77141341Y-50091539D01*
X77141341Y-50091536D01*
X77142145Y-50087496D01*
X77142415Y-50083381D01*
X77157680Y-49850490D01*
X77157680Y-49850483D01*
X77158194Y-49842641D01*
X77159231Y-49836092D01*
X77156051Y-49816014D01*
X77154500Y-49796304D01*
X77154500Y-47076000D01*
X77174502Y-47007879D01*
X77228158Y-46961386D01*
X77280500Y-46950000D01*
X82950000Y-46950000D01*
X82950000Y-40005500D01*
X82970002Y-39937379D01*
X83023658Y-39890886D01*
X83076000Y-39879500D01*
X86565635Y-39879500D01*
X86633756Y-39899502D01*
G37*
%TD.AperFunction*%
%TA.AperFunction,Conductor*%
G36*
X70938121Y-38774002D02*
G01*
X70984614Y-38827658D01*
X70996000Y-38880000D01*
X70996000Y-47462575D01*
X70993579Y-47487153D01*
X70991024Y-47500000D01*
X70992186Y-47505843D01*
X70993131Y-47517248D01*
X70994177Y-47529870D01*
X71008864Y-47707109D01*
X71012342Y-47720842D01*
X71056009Y-47893281D01*
X71059880Y-47908569D01*
X71061971Y-47913336D01*
X71061972Y-47913339D01*
X71141265Y-48094108D01*
X71143360Y-48098884D01*
X71146210Y-48103246D01*
X71146212Y-48103250D01*
X71152032Y-48112158D01*
X71257026Y-48272863D01*
X71260551Y-48276692D01*
X71260554Y-48276696D01*
X71290442Y-48309162D01*
X71321863Y-48372827D01*
X71313876Y-48443373D01*
X71269018Y-48498402D01*
X71197741Y-48520500D01*
X69238316Y-48520500D01*
X69218605Y-48518949D01*
X69198528Y-48515769D01*
X69189675Y-48517171D01*
X69187022Y-48517320D01*
X69185266Y-48517320D01*
X69183328Y-48517527D01*
X68926247Y-48531965D01*
X68657390Y-48577646D01*
X68468144Y-48632167D01*
X68400840Y-48651557D01*
X68395338Y-48653142D01*
X68392070Y-48654496D01*
X68392069Y-48654496D01*
X68354398Y-48670100D01*
X68143386Y-48757504D01*
X68140292Y-48759214D01*
X67979802Y-48847913D01*
X67910506Y-48863358D01*
X67888159Y-48859839D01*
X67840004Y-48847743D01*
X67840000Y-48847743D01*
X67832633Y-48845892D01*
X67825033Y-48845852D01*
X67825032Y-48845852D01*
X67760232Y-48845513D01*
X67674221Y-48845062D01*
X67666841Y-48846834D01*
X67666839Y-48846834D01*
X67527563Y-48880271D01*
X67527560Y-48880272D01*
X67520184Y-48882043D01*
X67379414Y-48954700D01*
X67260039Y-49058838D01*
X67168950Y-49188444D01*
X67166190Y-49195524D01*
X67125365Y-49300235D01*
X67111406Y-49336037D01*
X67110414Y-49343570D01*
X67110414Y-49343571D01*
X67092209Y-49481855D01*
X67090729Y-49493096D01*
X67097758Y-49556764D01*
X67107258Y-49642808D01*
X67108113Y-49650553D01*
X67110723Y-49657684D01*
X67110723Y-49657686D01*
X67158902Y-49789341D01*
X67162553Y-49799319D01*
X67166789Y-49805622D01*
X67166789Y-49805623D01*
X67228136Y-49896916D01*
X67250908Y-49930805D01*
X67256527Y-49935918D01*
X67256528Y-49935919D01*
X67351225Y-50022086D01*
X67368076Y-50037419D01*
X67507293Y-50113008D01*
X67660522Y-50153207D01*
X67744477Y-50154526D01*
X67811319Y-50155576D01*
X67811322Y-50155576D01*
X67818916Y-50155695D01*
X67868800Y-50144270D01*
X67939667Y-50148559D01*
X67996965Y-50190481D01*
X68022503Y-50256726D01*
X68008172Y-50326261D01*
X67990290Y-50351706D01*
X67963580Y-50381176D01*
X67961736Y-50383662D01*
X67961733Y-50383666D01*
X67803808Y-50596605D01*
X67745294Y-50675502D01*
X67743705Y-50678152D01*
X67743705Y-50678153D01*
X67733879Y-50694546D01*
X67556907Y-50989805D01*
X67555593Y-50992584D01*
X67555591Y-50992587D01*
X67547753Y-51009159D01*
X67400235Y-51321061D01*
X67344286Y-51477427D01*
X67278304Y-51661836D01*
X67276786Y-51666078D01*
X67276037Y-51669068D01*
X67276034Y-51669078D01*
X67223827Y-51877504D01*
X67187750Y-52021533D01*
X67174718Y-52109385D01*
X67172000Y-52127709D01*
X67142219Y-52192158D01*
X67128820Y-52204019D01*
X67129414Y-52204700D01*
X67010039Y-52308838D01*
X66918950Y-52438444D01*
X66890178Y-52512240D01*
X66866178Y-52573798D01*
X66861406Y-52586037D01*
X66860414Y-52593570D01*
X66860414Y-52593571D01*
X66842147Y-52732328D01*
X66840729Y-52743096D01*
X66847468Y-52804134D01*
X66856441Y-52885406D01*
X66858113Y-52900553D01*
X66876647Y-52951201D01*
X66881274Y-53022044D01*
X66846864Y-53084145D01*
X66784342Y-53117784D01*
X66758321Y-53120500D01*
X63789789Y-53120500D01*
X63770078Y-53118949D01*
X63750001Y-53115769D01*
X63740208Y-53117320D01*
X63730290Y-53117320D01*
X63730290Y-53116665D01*
X63715492Y-53117101D01*
X63592526Y-53104990D01*
X63568305Y-53100173D01*
X63428745Y-53057838D01*
X63405931Y-53048387D01*
X63277316Y-52979641D01*
X63256789Y-52965925D01*
X63144050Y-52873403D01*
X63126597Y-52855950D01*
X63034075Y-52743211D01*
X63020357Y-52722681D01*
X63015971Y-52714474D01*
X62951613Y-52594069D01*
X62942161Y-52571252D01*
X62941061Y-52567624D01*
X62899827Y-52431695D01*
X62895010Y-52407472D01*
X62886644Y-52322526D01*
X62882899Y-52284508D01*
X62883335Y-52269710D01*
X62882680Y-52269710D01*
X62882680Y-52259792D01*
X62884231Y-52249999D01*
X62881051Y-52229921D01*
X62879500Y-52210211D01*
X62879500Y-47539788D01*
X62881051Y-47520077D01*
X62881499Y-47517248D01*
X62884231Y-47500000D01*
X62883307Y-47494165D01*
X62866730Y-47283532D01*
X62857282Y-47244176D01*
X62828704Y-47125143D01*
X62816040Y-47072393D01*
X62810772Y-47059674D01*
X62734840Y-46876357D01*
X62734838Y-46876353D01*
X62732945Y-46871783D01*
X62619491Y-46686643D01*
X62478471Y-46521529D01*
X62313357Y-46380509D01*
X62143476Y-46276406D01*
X62095846Y-46223759D01*
X62091445Y-46213508D01*
X62086965Y-46201651D01*
X62086964Y-46201649D01*
X62084280Y-46194546D01*
X62054884Y-46151774D01*
X61998855Y-46070251D01*
X61998854Y-46070249D01*
X61994553Y-46063992D01*
X61876275Y-45958611D01*
X61868889Y-45954700D01*
X61757946Y-45895959D01*
X61736274Y-45884484D01*
X61582633Y-45845892D01*
X61575034Y-45845852D01*
X61575033Y-45845852D01*
X61509181Y-45845507D01*
X61424221Y-45845062D01*
X61416841Y-45846834D01*
X61416839Y-45846834D01*
X61277563Y-45880271D01*
X61277560Y-45880272D01*
X61270184Y-45882043D01*
X61129414Y-45954700D01*
X61010039Y-46058838D01*
X60918950Y-46188444D01*
X60898188Y-46241696D01*
X60869588Y-46315052D01*
X60861406Y-46336037D01*
X60860414Y-46343570D01*
X60860414Y-46343571D01*
X60843402Y-46472793D01*
X60840729Y-46493096D01*
X60844620Y-46528335D01*
X60857264Y-46642861D01*
X60858113Y-46650553D01*
X60860723Y-46657684D01*
X60860723Y-46657686D01*
X60908888Y-46789303D01*
X60912553Y-46799319D01*
X60916789Y-46805622D01*
X60916789Y-46805623D01*
X60994905Y-46921871D01*
X61000908Y-46930805D01*
X61006527Y-46935918D01*
X61006528Y-46935919D01*
X61098963Y-47020028D01*
X61118076Y-47037419D01*
X61257293Y-47113008D01*
X61410522Y-47153207D01*
X61494477Y-47154526D01*
X61561319Y-47155576D01*
X61561322Y-47155576D01*
X61568916Y-47155695D01*
X61723332Y-47120329D01*
X61820981Y-47071217D01*
X61890826Y-47058479D01*
X61956469Y-47085523D01*
X61966690Y-47094687D01*
X61975086Y-47103083D01*
X61992679Y-47125143D01*
X62051499Y-47218756D01*
X62063740Y-47244176D01*
X62100253Y-47348524D01*
X62106532Y-47376032D01*
X62116622Y-47465589D01*
X62116297Y-47480292D01*
X62117320Y-47480292D01*
X62117320Y-47490206D01*
X62115769Y-47500000D01*
X62118501Y-47517248D01*
X62118949Y-47520077D01*
X62120500Y-47539788D01*
X62120500Y-52210213D01*
X62118949Y-52229922D01*
X62115769Y-52250001D01*
X62116807Y-52256552D01*
X62117322Y-52263753D01*
X62117322Y-52263754D01*
X62124051Y-52357834D01*
X62132967Y-52482495D01*
X62133923Y-52486889D01*
X62180544Y-52701204D01*
X62182513Y-52710256D01*
X62184085Y-52714471D01*
X62184086Y-52714474D01*
X62200410Y-52758240D01*
X62263969Y-52928648D01*
X62375677Y-53133224D01*
X62515361Y-53319821D01*
X62680179Y-53484639D01*
X62866776Y-53624323D01*
X63071352Y-53736031D01*
X63168703Y-53772341D01*
X63285526Y-53815914D01*
X63285529Y-53815915D01*
X63289744Y-53817487D01*
X63294134Y-53818442D01*
X63294141Y-53818444D01*
X63444767Y-53851210D01*
X63517505Y-53867033D01*
X63681459Y-53878759D01*
X63683844Y-53879100D01*
X63683851Y-53879018D01*
X63689416Y-53879500D01*
X63691506Y-53879500D01*
X63693067Y-53879590D01*
X63743448Y-53883193D01*
X63749999Y-53884231D01*
X63770077Y-53881051D01*
X63789787Y-53879500D01*
X68760211Y-53879500D01*
X68779921Y-53881051D01*
X68799999Y-53884231D01*
X68808560Y-53882875D01*
X68810789Y-53882680D01*
X68811407Y-53882680D01*
X68812934Y-53882492D01*
X68988169Y-53867162D01*
X69161463Y-53820728D01*
X69165311Y-53819697D01*
X69165313Y-53819696D01*
X69170621Y-53818274D01*
X69208118Y-53800789D01*
X69336825Y-53740772D01*
X69336830Y-53740769D01*
X69341812Y-53738446D01*
X69439420Y-53670100D01*
X69492029Y-53633263D01*
X69492032Y-53633261D01*
X69496540Y-53630104D01*
X69630104Y-53496540D01*
X69633262Y-53492030D01*
X69633267Y-53492024D01*
X69648039Y-53470927D01*
X69703496Y-53426598D01*
X69708886Y-53424891D01*
X69708781Y-53424598D01*
X69715928Y-53422025D01*
X69723332Y-53420329D01*
X69813949Y-53374754D01*
X69858072Y-53352563D01*
X69858075Y-53352561D01*
X69864855Y-53349151D01*
X69870626Y-53344222D01*
X69870629Y-53344220D01*
X69979536Y-53251204D01*
X69979536Y-53251203D01*
X69985314Y-53246269D01*
X70077755Y-53117624D01*
X70136842Y-52970641D01*
X70147891Y-52893003D01*
X70158581Y-52817891D01*
X70158581Y-52817888D01*
X70159162Y-52813807D01*
X70159307Y-52800000D01*
X70140276Y-52642733D01*
X70084280Y-52494546D01*
X69994553Y-52363992D01*
X69987642Y-52357834D01*
X69946424Y-52321111D01*
X69876275Y-52258611D01*
X69868889Y-52254700D01*
X69773169Y-52204019D01*
X69736274Y-52184484D01*
X69582633Y-52145892D01*
X69575034Y-52145852D01*
X69575033Y-52145852D01*
X69509181Y-52145507D01*
X69424221Y-52145062D01*
X69416841Y-52146834D01*
X69416839Y-52146834D01*
X69277563Y-52180271D01*
X69277560Y-52180272D01*
X69270184Y-52182043D01*
X69174206Y-52231581D01*
X69149240Y-52244467D01*
X69079533Y-52257936D01*
X69013609Y-52231581D01*
X68972400Y-52173768D01*
X68968988Y-52102854D01*
X68971155Y-52095015D01*
X68972945Y-52089273D01*
X69037778Y-51881216D01*
X69043166Y-51867011D01*
X69159362Y-51608831D01*
X69166418Y-51595389D01*
X69262821Y-51435919D01*
X69312878Y-51353116D01*
X69321521Y-51340595D01*
X69496104Y-51117755D01*
X69506194Y-51106366D01*
X69706366Y-50906194D01*
X69717755Y-50896104D01*
X69722394Y-50892470D01*
X69752928Y-50868548D01*
X69940595Y-50721521D01*
X69953116Y-50712878D01*
X70078712Y-50636952D01*
X70195389Y-50566418D01*
X70208831Y-50559362D01*
X70467011Y-50443166D01*
X70481216Y-50437778D01*
X70751504Y-50353553D01*
X70766266Y-50349915D01*
X71029923Y-50301598D01*
X71044717Y-50298887D01*
X71059821Y-50297053D01*
X71180930Y-50289727D01*
X71250134Y-50305579D01*
X71299782Y-50356330D01*
X71314111Y-50425865D01*
X71288571Y-50492109D01*
X71281239Y-50500835D01*
X71260554Y-50523304D01*
X71260551Y-50523308D01*
X71257026Y-50527137D01*
X71247195Y-50542185D01*
X71146527Y-50696269D01*
X71143360Y-50701116D01*
X71141265Y-50705892D01*
X71063719Y-50882680D01*
X71059880Y-50891431D01*
X71058604Y-50896471D01*
X71058602Y-50896476D01*
X71028095Y-51016947D01*
X71008864Y-51092891D01*
X70992186Y-51294157D01*
X70991024Y-51300000D01*
X70993579Y-51312844D01*
X70996000Y-51337425D01*
X70996000Y-60120000D01*
X70975998Y-60188121D01*
X70922342Y-60234614D01*
X70870000Y-60246000D01*
X55380000Y-60246000D01*
X55311879Y-60225998D01*
X55265386Y-60172342D01*
X55254000Y-60120000D01*
X55254000Y-53170434D01*
X55274002Y-53102313D01*
X55327658Y-53055820D01*
X55397932Y-53045716D01*
X55462512Y-53075210D01*
X55500000Y-53133542D01*
X55500000Y-53150000D01*
X60300000Y-53150000D01*
X60300000Y-50626000D01*
X60320002Y-50557879D01*
X60373658Y-50511386D01*
X60426000Y-50500000D01*
X61500000Y-50500000D01*
X61500000Y-48500000D01*
X60426000Y-48500000D01*
X60357879Y-48479998D01*
X60311386Y-48426342D01*
X60300000Y-48374000D01*
X60300000Y-45850000D01*
X55500000Y-45850000D01*
X55500000Y-45857794D01*
X55495751Y-45862698D01*
X55469096Y-45911513D01*
X55406784Y-45945538D01*
X55335968Y-45940474D01*
X55279132Y-45897928D01*
X55254321Y-45831408D01*
X55254000Y-45822418D01*
X55254000Y-38880000D01*
X55274002Y-38811879D01*
X55327658Y-38765386D01*
X55380000Y-38754000D01*
X70870000Y-38754000D01*
X70938121Y-38774002D01*
G37*
%TD.AperFunction*%
%TA.AperFunction,Conductor*%
G36*
X107688121Y-33274002D02*
G01*
X107734614Y-33327658D01*
X107746000Y-33380000D01*
X107746000Y-50664166D01*
X107725998Y-50732287D01*
X107672342Y-50778780D01*
X107602068Y-50788884D01*
X107537488Y-50759390D01*
X107517470Y-50737402D01*
X106215628Y-48914823D01*
X106212306Y-48909935D01*
X106195351Y-48883676D01*
X106184197Y-48866401D01*
X106178172Y-48861651D01*
X106173630Y-48856026D01*
X106167714Y-48847743D01*
X104726966Y-46830697D01*
X104718609Y-46817294D01*
X104708556Y-46798663D01*
X104703610Y-46789496D01*
X104664606Y-46753441D01*
X104661021Y-46749992D01*
X104630834Y-46719792D01*
X104630830Y-46719789D01*
X104623470Y-46712426D01*
X104616585Y-46709051D01*
X104610957Y-46703849D01*
X104562355Y-46682362D01*
X104557921Y-46680297D01*
X104510174Y-46656893D01*
X104502568Y-46655930D01*
X104495557Y-46652831D01*
X104450519Y-46648930D01*
X104442643Y-46648248D01*
X104437695Y-46647721D01*
X104433904Y-46647241D01*
X104384998Y-46641052D01*
X104377492Y-46642605D01*
X104369853Y-46641943D01*
X104359745Y-46644454D01*
X104359743Y-46644454D01*
X104318298Y-46654749D01*
X104313448Y-46655853D01*
X104261439Y-46666612D01*
X104254840Y-46670513D01*
X104247399Y-46672361D01*
X104202772Y-46701177D01*
X104198537Y-46703794D01*
X104161785Y-46725517D01*
X104161783Y-46725519D01*
X104152821Y-46730816D01*
X104147840Y-46736645D01*
X104141401Y-46740803D01*
X104134954Y-46748981D01*
X104134953Y-46748982D01*
X104125471Y-46761010D01*
X104114757Y-46774602D01*
X104108521Y-46782512D01*
X104105368Y-46786353D01*
X104070856Y-46826743D01*
X104068032Y-46833871D01*
X104063287Y-46839890D01*
X104059836Y-46849717D01*
X104045693Y-46889991D01*
X104043955Y-46894646D01*
X104024383Y-46944047D01*
X104024020Y-46951708D01*
X104021481Y-46958938D01*
X104021000Y-46964491D01*
X104021000Y-47012467D01*
X104020859Y-47018430D01*
X104018412Y-47070080D01*
X104020570Y-47077512D01*
X104021000Y-47084827D01*
X104021000Y-47808991D01*
X104000998Y-47877112D01*
X103947342Y-47923605D01*
X103877068Y-47933709D01*
X103812488Y-47904215D01*
X103801345Y-47893281D01*
X103758726Y-47845926D01*
X103429655Y-47480292D01*
X102864119Y-46851919D01*
X102864118Y-46851918D01*
X102860644Y-46848058D01*
X102855756Y-46844161D01*
X102795090Y-46795796D01*
X102795088Y-46795795D01*
X102786945Y-46789303D01*
X102668128Y-46746847D01*
X102657716Y-46746708D01*
X102657714Y-46746708D01*
X102605046Y-46746008D01*
X102541964Y-46745168D01*
X102422059Y-46784445D01*
X102413746Y-46790717D01*
X102413747Y-46790717D01*
X102329653Y-46854170D01*
X102329652Y-46854171D01*
X102321340Y-46860443D01*
X102250670Y-46964970D01*
X102249692Y-46968578D01*
X102205691Y-47019242D01*
X102137547Y-47039166D01*
X102069344Y-47019018D01*
X101990645Y-46968203D01*
X101990641Y-46968201D01*
X101985603Y-46964948D01*
X101975643Y-46960934D01*
X101960226Y-46954720D01*
X101904521Y-46910704D01*
X101881456Y-46843558D01*
X101898354Y-46774602D01*
X101955576Y-46722973D01*
X102132970Y-46643063D01*
X102142256Y-46637894D01*
X102324575Y-46515150D01*
X102332870Y-46508481D01*
X102491900Y-46356772D01*
X102498941Y-46348814D01*
X102630141Y-46172475D01*
X102635745Y-46163438D01*
X102735357Y-45967516D01*
X102739357Y-45957665D01*
X102804534Y-45747760D01*
X102806817Y-45737376D01*
X102808861Y-45721957D01*
X102806665Y-45707793D01*
X102793478Y-45704000D01*
X100008808Y-45704000D01*
X99995277Y-45707973D01*
X99993752Y-45718580D01*
X100018477Y-45836421D01*
X100021537Y-45846617D01*
X100102263Y-46051029D01*
X100106994Y-46060561D01*
X100221016Y-46248462D01*
X100227280Y-46257052D01*
X100371327Y-46423052D01*
X100378958Y-46430472D01*
X100548911Y-46569826D01*
X100557678Y-46575850D01*
X100748682Y-46684576D01*
X100758345Y-46689041D01*
X100840788Y-46718966D01*
X100897996Y-46761010D01*
X100923392Y-46827309D01*
X100908912Y-46896814D01*
X100855490Y-46949421D01*
X100725590Y-47016324D01*
X100678488Y-47053323D01*
X100564568Y-47142808D01*
X100564564Y-47142812D01*
X100559851Y-47146514D01*
X100555920Y-47151044D01*
X100555919Y-47151045D01*
X100425650Y-47301165D01*
X100425646Y-47301170D01*
X100421719Y-47305696D01*
X100316181Y-47488126D01*
X100247043Y-47687222D01*
X100246183Y-47693155D01*
X100246182Y-47693158D01*
X100218525Y-47883907D01*
X100216801Y-47895800D01*
X100226545Y-48106333D01*
X100236118Y-48146055D01*
X100266679Y-48272863D01*
X100275924Y-48311226D01*
X100278406Y-48316684D01*
X100278407Y-48316688D01*
X100324049Y-48417070D01*
X100363157Y-48503084D01*
X100485096Y-48674986D01*
X100637340Y-48820728D01*
X100642375Y-48823979D01*
X100809360Y-48931800D01*
X100809363Y-48931801D01*
X100814397Y-48935052D01*
X101009878Y-49013834D01*
X101132688Y-49037817D01*
X101212283Y-49053361D01*
X101212286Y-49053361D01*
X101216729Y-49054229D01*
X101222270Y-49054500D01*
X101527659Y-49054500D01*
X101684806Y-49039507D01*
X101720659Y-49028989D01*
X101881278Y-48981868D01*
X101887042Y-48980177D01*
X101970304Y-48937294D01*
X102069079Y-48886422D01*
X102069082Y-48886420D01*
X102074410Y-48883676D01*
X102152871Y-48822044D01*
X102235432Y-48757192D01*
X102235436Y-48757188D01*
X102240149Y-48753486D01*
X102244081Y-48748955D01*
X102374350Y-48598835D01*
X102374354Y-48598830D01*
X102378281Y-48594304D01*
X102483819Y-48411874D01*
X102552957Y-48212778D01*
X102555104Y-48197975D01*
X102575922Y-48054386D01*
X102583199Y-48004200D01*
X102582922Y-47998216D01*
X102583090Y-47994784D01*
X102606396Y-47927722D01*
X102662260Y-47883907D01*
X102732944Y-47877249D01*
X102796006Y-47909862D01*
X102802591Y-47916648D01*
X103821564Y-49048841D01*
X103852266Y-49112854D01*
X103843486Y-49183306D01*
X103823574Y-49215129D01*
X102796975Y-50412828D01*
X102737456Y-50451532D01*
X102666461Y-50451913D01*
X102606529Y-50413851D01*
X102576690Y-50349429D01*
X102575444Y-50336652D01*
X102574964Y-50326261D01*
X102573455Y-50293667D01*
X102571803Y-50286810D01*
X102525482Y-50094607D01*
X102525481Y-50094605D01*
X102524076Y-50088774D01*
X102519613Y-50078957D01*
X102461729Y-49951649D01*
X102436843Y-49896916D01*
X102314904Y-49725014D01*
X102162660Y-49579272D01*
X102112125Y-49546642D01*
X101990640Y-49468200D01*
X101990637Y-49468199D01*
X101985603Y-49464948D01*
X101970619Y-49458909D01*
X101795685Y-49388408D01*
X101790122Y-49386166D01*
X101655739Y-49359923D01*
X101587717Y-49346639D01*
X101587714Y-49346639D01*
X101583271Y-49345771D01*
X101577730Y-49345500D01*
X101272341Y-49345500D01*
X101115194Y-49360493D01*
X101109434Y-49362183D01*
X101109433Y-49362183D01*
X100958208Y-49406548D01*
X100912958Y-49419823D01*
X100856420Y-49448942D01*
X100730921Y-49513578D01*
X100730918Y-49513580D01*
X100725590Y-49516324D01*
X100693480Y-49541547D01*
X100564568Y-49642808D01*
X100564564Y-49642812D01*
X100559851Y-49646514D01*
X100555920Y-49651044D01*
X100555919Y-49651045D01*
X100425650Y-49801165D01*
X100425646Y-49801170D01*
X100421719Y-49805696D01*
X100316181Y-49988126D01*
X100247043Y-50187222D01*
X100246183Y-50193155D01*
X100246182Y-50193158D01*
X100221402Y-50364064D01*
X100216801Y-50395800D01*
X100226545Y-50606333D01*
X100239346Y-50659450D01*
X100273010Y-50799133D01*
X100275924Y-50811226D01*
X100278406Y-50816684D01*
X100278407Y-50816688D01*
X100320815Y-50909959D01*
X100363157Y-51003084D01*
X100485096Y-51174986D01*
X100637340Y-51320728D01*
X100654096Y-51331547D01*
X100809360Y-51431800D01*
X100809363Y-51431801D01*
X100814397Y-51435052D01*
X101009878Y-51513834D01*
X101132688Y-51537817D01*
X101212283Y-51553361D01*
X101212286Y-51553361D01*
X101216729Y-51554229D01*
X101222270Y-51554500D01*
X101527659Y-51554500D01*
X101684806Y-51539507D01*
X101691399Y-51537573D01*
X101881278Y-51481868D01*
X101887042Y-51480177D01*
X101972974Y-51435919D01*
X102069079Y-51386422D01*
X102069082Y-51386420D01*
X102074410Y-51383676D01*
X102082559Y-51377275D01*
X102148484Y-51350923D01*
X102218190Y-51364396D01*
X102269547Y-51413417D01*
X102274074Y-51422020D01*
X102280750Y-51435986D01*
X102280752Y-51435989D01*
X102285243Y-51445384D01*
X102373599Y-51535458D01*
X102486369Y-51592055D01*
X102611390Y-51609072D01*
X102621610Y-51607058D01*
X102621611Y-51607058D01*
X102724964Y-51586690D01*
X102735184Y-51584676D01*
X102744199Y-51579461D01*
X102837545Y-51525461D01*
X102837547Y-51525459D01*
X102844400Y-51521495D01*
X102848380Y-51517592D01*
X103799335Y-50408145D01*
X103858853Y-50369441D01*
X103929848Y-50369060D01*
X103989780Y-50407122D01*
X104019619Y-50471544D01*
X104021000Y-50490145D01*
X104021000Y-51185256D01*
X104019449Y-51204966D01*
X104016276Y-51225000D01*
X104017194Y-51230797D01*
X104033905Y-51421798D01*
X104061681Y-51525461D01*
X104079807Y-51593107D01*
X104085034Y-51612616D01*
X104087357Y-51617597D01*
X104087357Y-51617598D01*
X104166196Y-51786670D01*
X104166199Y-51786675D01*
X104168522Y-51791657D01*
X104206270Y-51845566D01*
X104276783Y-51946269D01*
X104281832Y-51953480D01*
X104421520Y-52093168D01*
X104583344Y-52206478D01*
X104588322Y-52208799D01*
X104588325Y-52208801D01*
X104695143Y-52258611D01*
X104762384Y-52289966D01*
X104767692Y-52291388D01*
X104767694Y-52291389D01*
X104947887Y-52339671D01*
X104947888Y-52339671D01*
X104953202Y-52341095D01*
X105150000Y-52358313D01*
X105346798Y-52341095D01*
X105352112Y-52339671D01*
X105352113Y-52339671D01*
X105532306Y-52291389D01*
X105532308Y-52291388D01*
X105537616Y-52289966D01*
X105549319Y-52284509D01*
X105711670Y-52208804D01*
X105711675Y-52208801D01*
X105716657Y-52206478D01*
X105823782Y-52131468D01*
X105873969Y-52096327D01*
X105873972Y-52096325D01*
X105878480Y-52093168D01*
X106018168Y-51953480D01*
X106023218Y-51946269D01*
X106093730Y-51845566D01*
X106131478Y-51791657D01*
X106133801Y-51786675D01*
X106133804Y-51786670D01*
X106212643Y-51617598D01*
X106212643Y-51617597D01*
X106214966Y-51612616D01*
X106220194Y-51593107D01*
X106238319Y-51525461D01*
X106266095Y-51421798D01*
X106282806Y-51230797D01*
X106283724Y-51225000D01*
X106276606Y-51180058D01*
X106266494Y-51116214D01*
X106266494Y-51116213D01*
X106264943Y-51106423D01*
X106210439Y-50999453D01*
X106125547Y-50914561D01*
X106018577Y-50860057D01*
X106008787Y-50858506D01*
X106008786Y-50858506D01*
X105909792Y-50842827D01*
X105900000Y-50841276D01*
X105890208Y-50842827D01*
X105791214Y-50858506D01*
X105791213Y-50858506D01*
X105781423Y-50860057D01*
X105766666Y-50867576D01*
X105696891Y-50880681D01*
X105631106Y-50853983D01*
X105609500Y-50832014D01*
X105598673Y-50817904D01*
X105598669Y-50817900D01*
X105593646Y-50811354D01*
X105585878Y-50805393D01*
X105503465Y-50742156D01*
X105469563Y-50716142D01*
X105325065Y-50656289D01*
X105170000Y-50635874D01*
X105014935Y-50656289D01*
X105007303Y-50659450D01*
X105007304Y-50659450D01*
X104953218Y-50681853D01*
X104882628Y-50689442D01*
X104819141Y-50657663D01*
X104782914Y-50596605D01*
X104779000Y-50565444D01*
X104779000Y-49630000D01*
X104799002Y-49561879D01*
X104852658Y-49515386D01*
X104905000Y-49504000D01*
X105640119Y-49504000D01*
X105708240Y-49524002D01*
X105742648Y-49556763D01*
X106424521Y-50511386D01*
X107096973Y-51452818D01*
X107109897Y-51470912D01*
X107176530Y-51537573D01*
X107289826Y-51593107D01*
X107343402Y-51599887D01*
X107404670Y-51607640D01*
X107404673Y-51607640D01*
X107415002Y-51608947D01*
X107425197Y-51606838D01*
X107425199Y-51606838D01*
X107528368Y-51585497D01*
X107528371Y-51585496D01*
X107538561Y-51583388D01*
X107547522Y-51578091D01*
X107547525Y-51578090D01*
X107555886Y-51573148D01*
X107624706Y-51555704D01*
X107692032Y-51578236D01*
X107736489Y-51633591D01*
X107746000Y-51681616D01*
X107746000Y-54893879D01*
X107725998Y-54962000D01*
X107672342Y-55008493D01*
X107602068Y-55018597D01*
X107537488Y-54989103D01*
X107512054Y-54958868D01*
X107425751Y-54815519D01*
X107425747Y-54815513D01*
X107423792Y-54812266D01*
X107421465Y-54809282D01*
X107421460Y-54809275D01*
X107221918Y-54553413D01*
X107221916Y-54553410D01*
X107219582Y-54550418D01*
X106985393Y-54315000D01*
X106958215Y-54293574D01*
X106727599Y-54111771D01*
X106724618Y-54109421D01*
X106441034Y-53936661D01*
X106314796Y-53879264D01*
X106142201Y-53800789D01*
X106142193Y-53800786D01*
X106138749Y-53799220D01*
X105822142Y-53699090D01*
X105667979Y-53670100D01*
X105499523Y-53638422D01*
X105499518Y-53638421D01*
X105495799Y-53637722D01*
X105176255Y-53616778D01*
X105168230Y-53616252D01*
X105164446Y-53616004D01*
X105160666Y-53616212D01*
X105160665Y-53616212D01*
X105070558Y-53621171D01*
X104832884Y-53634251D01*
X104829157Y-53634912D01*
X104829153Y-53634912D01*
X104603035Y-53674986D01*
X104505916Y-53692198D01*
X104502291Y-53693303D01*
X104502286Y-53693304D01*
X104254261Y-53768897D01*
X104188278Y-53789007D01*
X103884570Y-53923275D01*
X103858761Y-53938630D01*
X103602448Y-54091120D01*
X103602442Y-54091124D01*
X103599193Y-54093057D01*
X103596201Y-54095365D01*
X103596197Y-54095368D01*
X103433183Y-54221132D01*
X103336279Y-54295893D01*
X103333577Y-54298553D01*
X103333570Y-54298559D01*
X103102346Y-54526180D01*
X103099638Y-54528846D01*
X103097274Y-54531813D01*
X103097271Y-54531816D01*
X102943963Y-54724206D01*
X102892697Y-54788541D01*
X102736074Y-55042632D01*
X102726080Y-55058845D01*
X102673308Y-55106338D01*
X102603236Y-55117762D01*
X102538113Y-55089488D01*
X102504120Y-55044881D01*
X102439326Y-54902376D01*
X102439324Y-54902372D01*
X102436843Y-54896916D01*
X102314904Y-54725014D01*
X102162660Y-54579272D01*
X102116412Y-54549410D01*
X101990640Y-54468200D01*
X101990637Y-54468199D01*
X101985603Y-54464948D01*
X101790122Y-54386166D01*
X101655739Y-54359923D01*
X101587717Y-54346639D01*
X101587714Y-54346639D01*
X101583271Y-54345771D01*
X101577730Y-54345500D01*
X101272341Y-54345500D01*
X101115194Y-54360493D01*
X101109434Y-54362183D01*
X101109433Y-54362183D01*
X101031600Y-54385017D01*
X100912958Y-54419823D01*
X100861793Y-54446175D01*
X100730921Y-54513578D01*
X100730918Y-54513580D01*
X100725590Y-54516324D01*
X100680171Y-54552001D01*
X100564568Y-54642808D01*
X100564564Y-54642812D01*
X100559851Y-54646514D01*
X100555920Y-54651044D01*
X100555919Y-54651045D01*
X100425650Y-54801165D01*
X100425646Y-54801170D01*
X100421719Y-54805696D01*
X100316181Y-54988126D01*
X100247043Y-55187222D01*
X100246183Y-55193155D01*
X100246182Y-55193158D01*
X100225906Y-55333000D01*
X100216801Y-55395800D01*
X100226545Y-55606333D01*
X100275924Y-55811226D01*
X100278406Y-55816684D01*
X100278407Y-55816688D01*
X100309166Y-55884338D01*
X100363157Y-56003084D01*
X100485096Y-56174986D01*
X100637340Y-56320728D01*
X100642375Y-56323979D01*
X100703664Y-56363553D01*
X100750042Y-56417308D01*
X100759995Y-56487604D01*
X100730363Y-56552121D01*
X100670555Y-56590377D01*
X100648319Y-56594732D01*
X100575794Y-56602257D01*
X100562400Y-56605149D01*
X100408216Y-56656588D01*
X100395038Y-56662761D01*
X100257193Y-56748063D01*
X100245792Y-56757099D01*
X100131261Y-56871829D01*
X100122249Y-56883240D01*
X100037184Y-57021243D01*
X100031037Y-57034424D01*
X99979862Y-57188710D01*
X99976995Y-57202086D01*
X99967328Y-57296438D01*
X99967000Y-57302855D01*
X99967000Y-57677885D01*
X99971475Y-57693124D01*
X99972865Y-57694329D01*
X99980548Y-57696000D01*
X101528000Y-57696000D01*
X101596121Y-57716002D01*
X101642614Y-57769658D01*
X101654000Y-57822000D01*
X101654000Y-59289884D01*
X101658475Y-59305123D01*
X101659865Y-59306328D01*
X101667548Y-59307999D01*
X102122095Y-59307999D01*
X102128614Y-59307662D01*
X102224206Y-59297743D01*
X102237600Y-59294851D01*
X102391784Y-59243412D01*
X102404962Y-59237239D01*
X102542807Y-59151937D01*
X102554208Y-59142901D01*
X102668739Y-59028171D01*
X102677751Y-59016760D01*
X102762816Y-58878757D01*
X102768963Y-58865576D01*
X102820138Y-58711290D01*
X102823005Y-58697914D01*
X102832672Y-58603562D01*
X102833000Y-58597146D01*
X102833000Y-58251287D01*
X102853002Y-58183166D01*
X102906658Y-58136673D01*
X102976932Y-58126569D01*
X103041512Y-58156063D01*
X103056517Y-58172032D01*
X103056644Y-58171922D01*
X103059125Y-58174796D01*
X103061425Y-58177810D01*
X103086249Y-58203292D01*
X103271741Y-58393704D01*
X103293136Y-58415667D01*
X103367136Y-58475271D01*
X103548791Y-58621587D01*
X103548796Y-58621591D01*
X103551744Y-58623965D01*
X103833503Y-58799686D01*
X104134332Y-58940285D01*
X104137941Y-58941468D01*
X104406331Y-59029451D01*
X104449873Y-59043725D01*
X104453587Y-59044464D01*
X104453588Y-59044464D01*
X104475221Y-59048767D01*
X104775556Y-59108507D01*
X104779328Y-59108794D01*
X104779336Y-59108795D01*
X105102886Y-59133407D01*
X105102891Y-59133407D01*
X105106663Y-59133694D01*
X105438398Y-59118920D01*
X105442136Y-59118298D01*
X105442144Y-59118297D01*
X105762213Y-59065022D01*
X105762215Y-59065021D01*
X105765955Y-59064399D01*
X106084589Y-58970922D01*
X106088056Y-58969432D01*
X106088060Y-58969431D01*
X106386202Y-58841339D01*
X106386204Y-58841338D01*
X106389686Y-58839842D01*
X106676826Y-58673058D01*
X106707496Y-58649905D01*
X106938822Y-58475271D01*
X106941849Y-58472986D01*
X107180917Y-58242524D01*
X107206653Y-58210913D01*
X107358219Y-58024742D01*
X107390566Y-57985010D01*
X107513438Y-57790270D01*
X107566705Y-57743332D01*
X107636892Y-57732643D01*
X107701716Y-57761598D01*
X107740596Y-57821002D01*
X107746000Y-57857506D01*
X107746000Y-60120000D01*
X107725998Y-60188121D01*
X107672342Y-60234614D01*
X107620000Y-60246000D01*
X96643478Y-60246000D01*
X96575357Y-60225998D01*
X96528864Y-60172342D01*
X96518760Y-60102068D01*
X96548254Y-60037488D01*
X96591766Y-60005101D01*
X96597259Y-60002629D01*
X96666027Y-59971679D01*
X96669284Y-59969710D01*
X96669288Y-59969708D01*
X96858252Y-59855475D01*
X96925319Y-59814931D01*
X97163827Y-59628072D01*
X97378072Y-59413827D01*
X97513739Y-59240661D01*
X97562588Y-59178310D01*
X97562590Y-59178307D01*
X97564931Y-59175319D01*
X97609515Y-59101568D01*
X97719708Y-58919288D01*
X97719710Y-58919284D01*
X97721679Y-58916027D01*
X97823821Y-58689076D01*
X97844465Y-58643207D01*
X97844467Y-58643201D01*
X97846029Y-58639731D01*
X97859315Y-58597095D01*
X99967001Y-58597095D01*
X99967338Y-58603614D01*
X99977257Y-58699206D01*
X99980149Y-58712600D01*
X100031588Y-58866784D01*
X100037761Y-58879962D01*
X100123063Y-59017807D01*
X100132099Y-59029208D01*
X100246829Y-59143739D01*
X100258240Y-59152751D01*
X100396243Y-59237816D01*
X100409424Y-59243963D01*
X100563710Y-59295138D01*
X100577086Y-59298005D01*
X100671438Y-59307672D01*
X100677854Y-59308000D01*
X101127885Y-59308000D01*
X101143124Y-59303525D01*
X101144329Y-59302135D01*
X101146000Y-59294452D01*
X101146000Y-58222115D01*
X101141525Y-58206876D01*
X101140135Y-58205671D01*
X101132452Y-58204000D01*
X99985116Y-58204000D01*
X99969877Y-58208475D01*
X99968672Y-58209865D01*
X99967001Y-58217548D01*
X99967001Y-58597095D01*
X97859315Y-58597095D01*
X97936169Y-58350462D01*
X97990784Y-58052436D01*
X97992673Y-58021210D01*
X98007241Y-57780381D01*
X98008699Y-57767586D01*
X98008729Y-57767249D01*
X98009536Y-57762453D01*
X98009688Y-57750000D01*
X98005773Y-57722662D01*
X98004500Y-57704801D01*
X98004500Y-55036410D01*
X98024502Y-54968289D01*
X98057600Y-54933640D01*
X98220100Y-54818370D01*
X98220101Y-54818369D01*
X98224986Y-54814904D01*
X98370728Y-54662660D01*
X98421255Y-54584408D01*
X98481800Y-54490640D01*
X98481801Y-54490637D01*
X98485052Y-54485603D01*
X98563834Y-54290122D01*
X98590417Y-54154000D01*
X98603361Y-54087717D01*
X98603361Y-54087714D01*
X98604229Y-54083271D01*
X98604500Y-54077730D01*
X98604500Y-53772341D01*
X98589507Y-53615194D01*
X98583379Y-53594304D01*
X98531868Y-53418722D01*
X98530177Y-53412958D01*
X98446270Y-53250042D01*
X98436422Y-53230921D01*
X98436420Y-53230918D01*
X98433676Y-53225590D01*
X98362466Y-53134936D01*
X98307192Y-53064568D01*
X98307188Y-53064564D01*
X98303486Y-53059851D01*
X98298841Y-53055820D01*
X98148835Y-52925650D01*
X98148830Y-52925646D01*
X98144304Y-52921719D01*
X98099501Y-52895800D01*
X100216801Y-52895800D01*
X100226545Y-53106333D01*
X100241850Y-53169839D01*
X100258782Y-53240095D01*
X100275924Y-53311226D01*
X100278406Y-53316684D01*
X100278407Y-53316688D01*
X100311644Y-53389788D01*
X100363157Y-53503084D01*
X100485096Y-53674986D01*
X100637340Y-53820728D01*
X100642375Y-53823979D01*
X100809360Y-53931800D01*
X100809363Y-53931801D01*
X100814397Y-53935052D01*
X101009878Y-54013834D01*
X101132688Y-54037817D01*
X101212283Y-54053361D01*
X101212286Y-54053361D01*
X101216729Y-54054229D01*
X101222270Y-54054500D01*
X101527659Y-54054500D01*
X101684806Y-54039507D01*
X101887042Y-53980177D01*
X101974574Y-53935095D01*
X102069079Y-53886422D01*
X102069082Y-53886420D01*
X102074410Y-53883676D01*
X102150408Y-53823979D01*
X102235432Y-53757192D01*
X102235436Y-53757188D01*
X102240149Y-53753486D01*
X102255940Y-53735289D01*
X102374350Y-53598835D01*
X102374354Y-53598830D01*
X102378281Y-53594304D01*
X102483819Y-53411874D01*
X102552957Y-53212778D01*
X102554279Y-53203664D01*
X102582338Y-53010140D01*
X102582338Y-53010137D01*
X102583199Y-53004200D01*
X102573455Y-52793667D01*
X102571950Y-52787419D01*
X102525482Y-52594607D01*
X102525481Y-52594605D01*
X102524076Y-52588774D01*
X102519613Y-52578957D01*
X102447630Y-52420641D01*
X102436843Y-52396916D01*
X102318387Y-52229924D01*
X102318370Y-52229900D01*
X102318369Y-52229899D01*
X102314904Y-52225014D01*
X102162660Y-52079272D01*
X102060918Y-52013578D01*
X101990640Y-51968200D01*
X101990637Y-51968199D01*
X101985603Y-51964948D01*
X101790122Y-51886166D01*
X101655739Y-51859923D01*
X101587717Y-51846639D01*
X101587714Y-51846639D01*
X101583271Y-51845771D01*
X101577730Y-51845500D01*
X101272341Y-51845500D01*
X101115194Y-51860493D01*
X101109434Y-51862183D01*
X101109433Y-51862183D01*
X101031600Y-51885017D01*
X100912958Y-51919823D01*
X100881706Y-51935919D01*
X100730921Y-52013578D01*
X100730918Y-52013580D01*
X100725590Y-52016324D01*
X100674672Y-52056320D01*
X100564568Y-52142808D01*
X100564564Y-52142812D01*
X100559851Y-52146514D01*
X100555920Y-52151044D01*
X100555919Y-52151045D01*
X100425650Y-52301165D01*
X100425646Y-52301170D01*
X100421719Y-52305696D01*
X100316181Y-52488126D01*
X100247043Y-52687222D01*
X100246183Y-52693155D01*
X100246182Y-52693158D01*
X100218308Y-52885406D01*
X100216801Y-52895800D01*
X98099501Y-52895800D01*
X97961874Y-52816181D01*
X97839166Y-52773570D01*
X97781377Y-52732328D01*
X97755058Y-52666390D01*
X97754500Y-52654542D01*
X97754500Y-50710144D01*
X97778176Y-50636620D01*
X97827755Y-50567624D01*
X97886842Y-50420641D01*
X97895952Y-50356627D01*
X97908581Y-50267891D01*
X97908581Y-50267888D01*
X97909162Y-50263807D01*
X97909307Y-50250000D01*
X97908218Y-50240996D01*
X97902708Y-50195466D01*
X97890276Y-50092733D01*
X97834280Y-49944546D01*
X97776660Y-49860708D01*
X97754500Y-49789341D01*
X97754500Y-48452914D01*
X97756247Y-48432007D01*
X97758727Y-48417266D01*
X97759536Y-48412460D01*
X97759688Y-48400007D01*
X97755772Y-48372660D01*
X97754500Y-48354800D01*
X97754500Y-45515013D01*
X97774502Y-45446892D01*
X97828158Y-45400399D01*
X97852370Y-45392193D01*
X97940429Y-45372025D01*
X97940433Y-45372024D01*
X97947832Y-45370329D01*
X98047402Y-45320251D01*
X98082572Y-45302563D01*
X98082575Y-45302561D01*
X98089355Y-45299151D01*
X98095126Y-45294222D01*
X98095129Y-45294220D01*
X98204036Y-45201204D01*
X98204036Y-45201203D01*
X98209814Y-45196269D01*
X98302255Y-45067624D01*
X98361342Y-44920641D01*
X98376369Y-44815052D01*
X98383081Y-44767891D01*
X98383081Y-44767888D01*
X98383662Y-44763807D01*
X98383731Y-44757265D01*
X98383764Y-44754134D01*
X98383764Y-44754128D01*
X98383807Y-44750000D01*
X98381295Y-44729237D01*
X98372457Y-44656208D01*
X98364776Y-44592733D01*
X98308780Y-44444546D01*
X98257599Y-44370077D01*
X98223355Y-44320251D01*
X98223354Y-44320249D01*
X98219053Y-44313992D01*
X98100775Y-44208611D01*
X98093389Y-44204700D01*
X97967488Y-44138039D01*
X97967489Y-44138039D01*
X97960774Y-44134484D01*
X97807133Y-44095892D01*
X97799534Y-44095852D01*
X97799533Y-44095852D01*
X97733681Y-44095507D01*
X97648721Y-44095062D01*
X97641341Y-44096834D01*
X97641339Y-44096834D01*
X97502063Y-44130271D01*
X97502060Y-44130272D01*
X97494684Y-44132043D01*
X97353914Y-44204700D01*
X97234539Y-44308838D01*
X97230172Y-44315051D01*
X97230167Y-44315057D01*
X97159239Y-44415976D01*
X97128425Y-44446737D01*
X97101507Y-44465586D01*
X97092807Y-44471678D01*
X96971678Y-44592807D01*
X96968521Y-44597315D01*
X96968519Y-44597318D01*
X96876580Y-44728621D01*
X96873423Y-44733130D01*
X96871100Y-44738112D01*
X96871097Y-44738117D01*
X96803351Y-44883398D01*
X96803349Y-44883403D01*
X96801027Y-44888383D01*
X96756690Y-45053848D01*
X96750186Y-45128188D01*
X96745870Y-45177522D01*
X96744603Y-45187445D01*
X96740464Y-45212046D01*
X96740312Y-45224499D01*
X96744057Y-45250646D01*
X96744227Y-45251835D01*
X96745500Y-45269698D01*
X96745500Y-47845926D01*
X96725498Y-47914047D01*
X96671842Y-47960540D01*
X96619500Y-47971926D01*
X95281848Y-47971926D01*
X95213727Y-47951924D01*
X95167234Y-47898268D01*
X95157130Y-47827994D01*
X95181687Y-47769482D01*
X95184497Y-47765801D01*
X95192087Y-47758673D01*
X95194550Y-47754022D01*
X95197275Y-47750906D01*
X95268158Y-47680023D01*
X95281600Y-47668358D01*
X95297301Y-47656569D01*
X95303645Y-47651806D01*
X95307137Y-47647446D01*
X95335954Y-47604319D01*
X95338143Y-47601151D01*
X95370767Y-47555499D01*
X95372275Y-47550456D01*
X95374336Y-47546876D01*
X95430038Y-47463512D01*
X95440947Y-47449448D01*
X95454045Y-47434825D01*
X95454046Y-47434824D01*
X95459332Y-47428922D01*
X95461907Y-47423965D01*
X95481726Y-47376119D01*
X95483297Y-47372489D01*
X95502092Y-47330861D01*
X95502092Y-47330859D01*
X95506377Y-47321370D01*
X95506872Y-47316132D01*
X95508196Y-47312214D01*
X95516868Y-47291278D01*
X95546567Y-47219581D01*
X95554518Y-47203669D01*
X95564514Y-47186767D01*
X95564515Y-47186765D01*
X95568547Y-47179947D01*
X95570106Y-47174583D01*
X95580214Y-47123766D01*
X95581047Y-47119897D01*
X95590942Y-47077205D01*
X95593705Y-47065286D01*
X95593169Y-47060052D01*
X95593703Y-47055952D01*
X95612293Y-46962492D01*
X95617831Y-46943002D01*
X95622947Y-46929300D01*
X95622948Y-46929295D01*
X95625720Y-46921871D01*
X95626311Y-46916316D01*
X95627399Y-46860852D01*
X95627435Y-46859428D01*
X95627601Y-46854170D01*
X95628573Y-46823231D01*
X95629439Y-46816185D01*
X95629018Y-46816149D01*
X95629266Y-46813285D01*
X95629500Y-46810584D01*
X95629500Y-46754960D01*
X95629524Y-46752489D01*
X95629943Y-46731117D01*
X95630045Y-46725924D01*
X95629583Y-46722770D01*
X95629500Y-46720118D01*
X95629500Y-46344730D01*
X95649502Y-46276609D01*
X95673669Y-46248919D01*
X95729536Y-46201204D01*
X95735314Y-46196269D01*
X95827755Y-46067624D01*
X95886842Y-45920641D01*
X95895560Y-45859385D01*
X95908581Y-45767891D01*
X95908581Y-45767888D01*
X95909162Y-45763807D01*
X95909307Y-45750000D01*
X95907352Y-45733840D01*
X95904199Y-45707793D01*
X95890276Y-45592733D01*
X95834280Y-45444546D01*
X95744553Y-45313992D01*
X95626275Y-45208611D01*
X95618889Y-45204700D01*
X95492988Y-45138039D01*
X95492989Y-45138039D01*
X95486274Y-45134484D01*
X95332633Y-45095892D01*
X95325034Y-45095852D01*
X95325033Y-45095852D01*
X95259181Y-45095507D01*
X95174221Y-45095062D01*
X95166841Y-45096834D01*
X95166839Y-45096834D01*
X95027563Y-45130271D01*
X95027560Y-45130272D01*
X95020184Y-45132043D01*
X94879414Y-45204700D01*
X94760039Y-45308838D01*
X94668950Y-45438444D01*
X94640178Y-45512241D01*
X94626326Y-45547770D01*
X94611406Y-45586037D01*
X94610414Y-45593570D01*
X94610414Y-45593571D01*
X94591948Y-45733840D01*
X94590729Y-45743096D01*
X94598553Y-45813962D01*
X94606454Y-45885524D01*
X94608113Y-45900553D01*
X94610723Y-45907684D01*
X94610723Y-45907686D01*
X94653404Y-46024317D01*
X94662553Y-46049319D01*
X94666789Y-46055622D01*
X94666789Y-46055623D01*
X94728445Y-46147376D01*
X94750908Y-46180805D01*
X94756527Y-46185918D01*
X94756528Y-46185919D01*
X94829299Y-46252135D01*
X94866222Y-46312775D01*
X94870500Y-46345329D01*
X94870500Y-46745034D01*
X94870476Y-46747505D01*
X94869523Y-46796081D01*
X94867126Y-46818191D01*
X94847222Y-46918258D01*
X94840052Y-46941895D01*
X94802920Y-47031539D01*
X94791276Y-47053323D01*
X94737369Y-47134001D01*
X94721699Y-47153094D01*
X94653095Y-47221698D01*
X94634002Y-47237368D01*
X94553316Y-47291280D01*
X94531546Y-47302917D01*
X94441891Y-47340054D01*
X94418259Y-47347223D01*
X94318192Y-47367126D01*
X94296087Y-47369523D01*
X94250995Y-47370407D01*
X94247496Y-47370476D01*
X94245025Y-47370500D01*
X90939788Y-47370500D01*
X90920077Y-47368949D01*
X90900000Y-47365769D01*
X90890207Y-47367320D01*
X90889673Y-47367320D01*
X90881971Y-47368232D01*
X90712919Y-47381537D01*
X90708112Y-47382691D01*
X90708106Y-47382692D01*
X90615234Y-47404989D01*
X90530445Y-47425345D01*
X90525874Y-47427238D01*
X90525872Y-47427239D01*
X90361645Y-47495264D01*
X90361641Y-47495266D01*
X90357071Y-47497159D01*
X90197065Y-47595211D01*
X90054368Y-47717086D01*
X89932493Y-47859783D01*
X89834441Y-48019789D01*
X89832548Y-48024359D01*
X89832546Y-48024363D01*
X89777322Y-48157686D01*
X89762627Y-48193163D01*
X89750923Y-48241913D01*
X89723822Y-48354800D01*
X89718819Y-48375637D01*
X89714477Y-48430805D01*
X89709974Y-48488022D01*
X89709051Y-48494329D01*
X89708264Y-48496569D01*
X89707782Y-48502134D01*
X89707782Y-48510914D01*
X89707394Y-48520800D01*
X89705514Y-48544687D01*
X89704602Y-48552391D01*
X89704602Y-48552925D01*
X89703051Y-48562718D01*
X89704602Y-48572510D01*
X89706231Y-48582795D01*
X89707782Y-48602506D01*
X89707782Y-50788686D01*
X89706231Y-50808397D01*
X89704603Y-50818677D01*
X89703051Y-50828474D01*
X89704603Y-50838269D01*
X89704603Y-50848185D01*
X89704448Y-50848185D01*
X89705042Y-50863294D01*
X89701007Y-50914561D01*
X89696503Y-50971786D01*
X89693410Y-50991313D01*
X89662167Y-51121454D01*
X89656059Y-51140254D01*
X89604837Y-51263913D01*
X89595863Y-51281524D01*
X89525929Y-51395645D01*
X89514314Y-51411633D01*
X89443632Y-51494390D01*
X89432531Y-51504653D01*
X89432639Y-51504761D01*
X89425623Y-51511777D01*
X89417604Y-51517603D01*
X89411778Y-51525622D01*
X89411777Y-51525623D01*
X89405653Y-51534052D01*
X89392812Y-51549086D01*
X89064394Y-51877504D01*
X89002082Y-51911530D01*
X88931267Y-51906465D01*
X88874431Y-51863918D01*
X88849620Y-51797398D01*
X88858392Y-51741412D01*
X88859804Y-51737901D01*
X88875721Y-51698305D01*
X88884007Y-51677694D01*
X88884008Y-51677692D01*
X88886842Y-51670641D01*
X88899993Y-51578236D01*
X88908581Y-51517891D01*
X88908581Y-51517888D01*
X88909162Y-51513807D01*
X88909307Y-51500000D01*
X88890276Y-51342733D01*
X88834280Y-51194546D01*
X88829981Y-51188291D01*
X88829979Y-51188287D01*
X88765682Y-51094734D01*
X88743582Y-51027264D01*
X88761468Y-50958557D01*
X88813660Y-50910427D01*
X88841393Y-50900547D01*
X88859291Y-50896448D01*
X88938354Y-50878340D01*
X88965927Y-50872025D01*
X88973332Y-50870329D01*
X89076032Y-50818677D01*
X89108072Y-50802563D01*
X89108075Y-50802561D01*
X89114855Y-50799151D01*
X89120626Y-50794222D01*
X89120629Y-50794220D01*
X89229536Y-50701204D01*
X89229536Y-50701203D01*
X89235314Y-50696269D01*
X89327755Y-50567624D01*
X89386842Y-50420641D01*
X89395952Y-50356627D01*
X89408581Y-50267891D01*
X89408581Y-50267888D01*
X89409162Y-50263807D01*
X89409307Y-50250000D01*
X89408218Y-50240996D01*
X89402708Y-50195466D01*
X89390276Y-50092733D01*
X89334280Y-49944546D01*
X89273453Y-49856042D01*
X89248855Y-49820251D01*
X89248854Y-49820249D01*
X89244553Y-49813992D01*
X89126275Y-49708611D01*
X88986274Y-49634484D01*
X88949806Y-49625324D01*
X88888610Y-49589330D01*
X88856588Y-49525965D01*
X88854500Y-49503120D01*
X88854500Y-47242413D01*
X88856051Y-47222702D01*
X88857368Y-47214388D01*
X88857368Y-47214386D01*
X88858919Y-47204594D01*
X88857367Y-47194799D01*
X88857367Y-47185060D01*
X88856714Y-47170812D01*
X88870643Y-46958300D01*
X88872794Y-46941959D01*
X88919338Y-46707969D01*
X88923604Y-46692050D01*
X89000287Y-46466147D01*
X89006594Y-46450920D01*
X89112110Y-46236955D01*
X89120351Y-46222681D01*
X89252894Y-46024317D01*
X89262927Y-46011242D01*
X89291955Y-45978142D01*
X89403347Y-45851123D01*
X89413899Y-45841496D01*
X89420772Y-45834622D01*
X89428794Y-45828794D01*
X89439571Y-45813961D01*
X89452411Y-45798928D01*
X91885019Y-43366320D01*
X91900053Y-43353479D01*
X91900055Y-43353478D01*
X91914885Y-43342703D01*
X91920715Y-43334678D01*
X91927725Y-43327668D01*
X91927946Y-43327889D01*
X91937313Y-43317754D01*
X91950388Y-43306587D01*
X92015179Y-43277558D01*
X92085379Y-43288166D01*
X92138700Y-43335042D01*
X92158213Y-43403304D01*
X92137723Y-43471280D01*
X92133099Y-43477889D01*
X92115780Y-43501025D01*
X92113621Y-43504979D01*
X92015689Y-43684330D01*
X92008405Y-43697669D01*
X92006834Y-43701881D01*
X91937371Y-43888120D01*
X91930108Y-43907592D01*
X91929153Y-43911983D01*
X91929151Y-43911989D01*
X91898209Y-44054229D01*
X91882483Y-44126521D01*
X91871530Y-44279673D01*
X91871482Y-44280339D01*
X91870980Y-44283851D01*
X91870982Y-44283851D01*
X91870500Y-44289416D01*
X91870500Y-44292128D01*
X91870382Y-44294857D01*
X91870311Y-44294854D01*
X91870179Y-44298548D01*
X91867485Y-44336209D01*
X91867320Y-44337647D01*
X91867320Y-44338520D01*
X91867100Y-44341596D01*
X91865769Y-44350000D01*
X91867320Y-44359792D01*
X91868949Y-44370077D01*
X91870500Y-44389788D01*
X91870500Y-44655187D01*
X91850498Y-44723308D01*
X91827330Y-44750135D01*
X91760039Y-44808838D01*
X91668950Y-44938444D01*
X91651607Y-44982926D01*
X91616178Y-45073798D01*
X91611406Y-45086037D01*
X91610414Y-45093570D01*
X91610414Y-45093571D01*
X91594604Y-45213664D01*
X91590729Y-45243096D01*
X91608113Y-45400553D01*
X91610723Y-45407684D01*
X91610723Y-45407686D01*
X91639127Y-45485303D01*
X91662553Y-45549319D01*
X91666789Y-45555622D01*
X91666789Y-45555623D01*
X91742748Y-45668662D01*
X91764140Y-45736359D01*
X91745536Y-45804875D01*
X91738005Y-45814951D01*
X91738030Y-45814969D01*
X91646941Y-45944575D01*
X91618169Y-46018371D01*
X91597555Y-46071245D01*
X91589397Y-46092168D01*
X91588405Y-46099701D01*
X91588405Y-46099702D01*
X91570336Y-46236955D01*
X91568720Y-46249227D01*
X91575301Y-46308838D01*
X91584936Y-46396103D01*
X91586104Y-46406684D01*
X91588714Y-46413815D01*
X91588714Y-46413817D01*
X91628131Y-46521529D01*
X91640544Y-46555450D01*
X91644780Y-46561753D01*
X91644780Y-46561754D01*
X91724152Y-46679871D01*
X91728899Y-46686936D01*
X91734518Y-46692049D01*
X91734519Y-46692050D01*
X91837549Y-46785799D01*
X91846067Y-46793550D01*
X91985284Y-46869139D01*
X92138513Y-46909338D01*
X92222468Y-46910657D01*
X92289310Y-46911707D01*
X92289313Y-46911707D01*
X92296907Y-46911826D01*
X92451323Y-46876460D01*
X92539914Y-46831904D01*
X92586063Y-46808694D01*
X92586066Y-46808692D01*
X92592846Y-46805282D01*
X92598617Y-46800353D01*
X92598620Y-46800351D01*
X92707527Y-46707335D01*
X92707527Y-46707334D01*
X92713305Y-46702400D01*
X92805746Y-46573755D01*
X92808580Y-46566706D01*
X92808583Y-46566700D01*
X92810753Y-46561301D01*
X92854721Y-46505558D01*
X92860873Y-46501610D01*
X92863663Y-46500309D01*
X92868164Y-46497157D01*
X92868168Y-46497155D01*
X93007592Y-46399529D01*
X93007595Y-46399527D01*
X93012103Y-46396370D01*
X93140239Y-46268234D01*
X93148262Y-46256777D01*
X93187174Y-46201204D01*
X93244178Y-46119794D01*
X93246501Y-46114812D01*
X93246504Y-46114807D01*
X93318439Y-45960542D01*
X93318440Y-45960540D01*
X93320762Y-45955560D01*
X93323448Y-45945538D01*
X93340461Y-45882043D01*
X93367663Y-45780522D01*
X93376294Y-45681866D01*
X93376755Y-45676593D01*
X93377813Y-45669581D01*
X93379018Y-45666149D01*
X93379500Y-45660584D01*
X93379500Y-45650726D01*
X93379979Y-45639745D01*
X93382117Y-45615306D01*
X93382680Y-45610721D01*
X93382680Y-45609792D01*
X93384231Y-45599999D01*
X93381051Y-45579921D01*
X93379500Y-45560211D01*
X93379500Y-44539788D01*
X93381051Y-44520077D01*
X93382680Y-44509794D01*
X93382680Y-44509793D01*
X93384231Y-44500000D01*
X93382679Y-44490205D01*
X93382679Y-44480288D01*
X93383708Y-44480288D01*
X93383377Y-44465586D01*
X93385501Y-44446737D01*
X93390642Y-44401107D01*
X93396918Y-44373608D01*
X93425099Y-44293073D01*
X93437341Y-44267654D01*
X93482735Y-44195410D01*
X93500327Y-44173351D01*
X93560651Y-44113027D01*
X93582710Y-44095435D01*
X93654954Y-44050041D01*
X93680373Y-44037799D01*
X93760908Y-44009618D01*
X93788407Y-44003342D01*
X93845306Y-43996931D01*
X93852886Y-43996077D01*
X93867588Y-43996408D01*
X93867588Y-43995379D01*
X93877505Y-43995379D01*
X93887300Y-43996931D01*
X93897093Y-43995380D01*
X93897094Y-43995380D01*
X93907377Y-43993751D01*
X93927088Y-43992200D01*
X94191074Y-43992200D01*
X94210784Y-43993751D01*
X94230862Y-43996931D01*
X94239091Y-43995628D01*
X94244195Y-43995427D01*
X94244275Y-43995451D01*
X94245614Y-43995425D01*
X94246512Y-43995336D01*
X94612573Y-43980953D01*
X94615018Y-43980664D01*
X94615026Y-43980663D01*
X94869201Y-43950579D01*
X94991930Y-43936053D01*
X95176047Y-43899430D01*
X95364163Y-43862012D01*
X95364174Y-43862009D01*
X95366594Y-43861528D01*
X95368970Y-43860858D01*
X95368982Y-43860855D01*
X95731868Y-43758510D01*
X95731873Y-43758508D01*
X95734257Y-43757836D01*
X96053384Y-43640104D01*
X96090339Y-43626471D01*
X96090340Y-43626470D01*
X96092651Y-43625618D01*
X96114896Y-43615363D01*
X96437318Y-43466725D01*
X96437331Y-43466718D01*
X96439566Y-43465688D01*
X96772864Y-43279032D01*
X97031327Y-43106333D01*
X97088424Y-43068182D01*
X97088428Y-43068179D01*
X97090489Y-43066802D01*
X97390484Y-42830305D01*
X97436423Y-42787840D01*
X97538849Y-42693158D01*
X97659508Y-42581622D01*
X97660200Y-42581054D01*
X97661086Y-42580202D01*
X97661155Y-42580099D01*
X97664956Y-42576586D01*
X97671692Y-42571692D01*
X97683641Y-42555246D01*
X97696481Y-42540213D01*
X99000242Y-41236452D01*
X99755353Y-40481342D01*
X99817663Y-40447317D01*
X99888478Y-40452382D01*
X99945314Y-40494929D01*
X99970357Y-40565710D01*
X99972049Y-40610766D01*
X99973344Y-40621315D01*
X100018477Y-40836420D01*
X100021537Y-40846617D01*
X100102263Y-41051029D01*
X100106994Y-41060561D01*
X100221016Y-41248462D01*
X100227280Y-41257052D01*
X100371327Y-41423052D01*
X100378958Y-41430472D01*
X100548911Y-41569826D01*
X100557678Y-41575850D01*
X100748682Y-41684576D01*
X100758345Y-41689041D01*
X100840788Y-41718966D01*
X100897996Y-41761010D01*
X100923392Y-41827309D01*
X100908912Y-41896814D01*
X100855490Y-41949421D01*
X100725590Y-42016324D01*
X100694321Y-42040886D01*
X100564568Y-42142808D01*
X100564564Y-42142812D01*
X100559851Y-42146514D01*
X100555920Y-42151044D01*
X100555919Y-42151045D01*
X100425650Y-42301165D01*
X100425646Y-42301170D01*
X100421719Y-42305696D01*
X100316181Y-42488126D01*
X100247043Y-42687222D01*
X100246183Y-42693155D01*
X100246182Y-42693158D01*
X100217662Y-42889860D01*
X100216801Y-42895800D01*
X100226545Y-43106333D01*
X100238413Y-43155576D01*
X100273789Y-43302365D01*
X100275924Y-43311226D01*
X100278406Y-43316684D01*
X100278407Y-43316688D01*
X100319109Y-43406206D01*
X100363157Y-43503084D01*
X100485096Y-43674986D01*
X100637340Y-43820728D01*
X100642375Y-43823979D01*
X100809360Y-43931800D01*
X100809363Y-43931801D01*
X100814397Y-43935052D01*
X100819963Y-43937295D01*
X100839774Y-43945280D01*
X100895479Y-43989296D01*
X100918544Y-44056442D01*
X100901646Y-44125398D01*
X100844424Y-44177027D01*
X100667030Y-44256937D01*
X100657744Y-44262106D01*
X100475425Y-44384850D01*
X100467130Y-44391519D01*
X100308100Y-44543228D01*
X100301059Y-44551186D01*
X100169859Y-44727525D01*
X100164255Y-44736562D01*
X100064643Y-44932484D01*
X100060643Y-44942335D01*
X99995466Y-45152240D01*
X99993183Y-45162624D01*
X99991139Y-45178043D01*
X99993335Y-45192207D01*
X100006522Y-45196000D01*
X102791192Y-45196000D01*
X102804723Y-45192027D01*
X102806248Y-45181420D01*
X102781523Y-45063579D01*
X102778463Y-45053383D01*
X102697737Y-44848971D01*
X102693006Y-44839439D01*
X102578984Y-44651538D01*
X102572720Y-44642948D01*
X102428673Y-44476948D01*
X102421042Y-44469528D01*
X102251089Y-44330174D01*
X102242322Y-44324150D01*
X102051318Y-44215424D01*
X102041655Y-44210959D01*
X101959212Y-44181034D01*
X101902004Y-44138990D01*
X101876608Y-44072691D01*
X101891088Y-44003186D01*
X101944510Y-43950579D01*
X101945350Y-43950147D01*
X102074410Y-43883676D01*
X102150408Y-43823979D01*
X102235432Y-43757192D01*
X102235436Y-43757188D01*
X102240149Y-43753486D01*
X102262945Y-43727216D01*
X102374350Y-43598835D01*
X102374354Y-43598830D01*
X102378281Y-43594304D01*
X102483819Y-43411874D01*
X102552957Y-43212778D01*
X102555680Y-43194002D01*
X102582338Y-43010140D01*
X102582338Y-43010137D01*
X102583199Y-43004200D01*
X102573455Y-42793667D01*
X102562094Y-42746523D01*
X102525482Y-42594607D01*
X102525481Y-42594605D01*
X102524076Y-42588774D01*
X102520827Y-42581627D01*
X102453537Y-42433633D01*
X102436843Y-42396916D01*
X102314904Y-42225014D01*
X102162660Y-42079272D01*
X102116551Y-42049500D01*
X101990640Y-41968200D01*
X101990637Y-41968199D01*
X101985603Y-41964948D01*
X101970559Y-41958885D01*
X101960226Y-41954720D01*
X101904521Y-41910704D01*
X101881456Y-41843558D01*
X101898354Y-41774602D01*
X101955576Y-41722973D01*
X102132970Y-41643063D01*
X102142256Y-41637894D01*
X102324575Y-41515150D01*
X102332870Y-41508481D01*
X102491900Y-41356772D01*
X102498941Y-41348814D01*
X102630141Y-41172475D01*
X102635745Y-41163438D01*
X102735357Y-40967516D01*
X102739357Y-40957665D01*
X102804534Y-40747760D01*
X102806817Y-40737376D01*
X102808861Y-40721957D01*
X102806665Y-40707793D01*
X102793478Y-40704000D01*
X101272000Y-40704000D01*
X101203879Y-40683998D01*
X101157386Y-40630342D01*
X101146000Y-40578000D01*
X101146000Y-40322000D01*
X101166002Y-40253879D01*
X101219658Y-40207386D01*
X101272000Y-40196000D01*
X102791192Y-40196000D01*
X102804723Y-40192027D01*
X102806248Y-40181420D01*
X102785294Y-40081555D01*
X102790881Y-40010779D01*
X102833846Y-39954258D01*
X102900548Y-39929939D01*
X102969809Y-39945542D01*
X102981520Y-39952919D01*
X103116934Y-40049000D01*
X103124478Y-40054353D01*
X103135521Y-40063161D01*
X103267855Y-40181420D01*
X103268121Y-40181658D01*
X103283875Y-40199089D01*
X103285471Y-40200685D01*
X103291297Y-40208704D01*
X103299316Y-40214530D01*
X103307745Y-40220654D01*
X103322780Y-40233496D01*
X103540171Y-40450887D01*
X103553013Y-40465922D01*
X103564963Y-40482370D01*
X103572982Y-40488196D01*
X103577438Y-40492652D01*
X103591547Y-40505523D01*
X103681301Y-40607869D01*
X103691326Y-40620935D01*
X103781940Y-40756548D01*
X103790181Y-40770821D01*
X103862323Y-40917109D01*
X103868629Y-40932334D01*
X103895740Y-41012201D01*
X103900005Y-41077285D01*
X103896707Y-41093862D01*
X103896706Y-41093868D01*
X103895500Y-41099933D01*
X103895501Y-41800066D01*
X103897580Y-41810519D01*
X103907520Y-41860493D01*
X103910266Y-41874301D01*
X103949266Y-41932668D01*
X103970500Y-42002668D01*
X103970500Y-42173105D01*
X103950498Y-42241226D01*
X103896842Y-42287719D01*
X103886249Y-42291987D01*
X103869523Y-42297861D01*
X103809924Y-42318791D01*
X103699990Y-42399990D01*
X103618791Y-42509924D01*
X103573507Y-42638873D01*
X103572785Y-42646515D01*
X103572784Y-42646518D01*
X103571973Y-42655104D01*
X103570500Y-42670685D01*
X103570501Y-43329314D01*
X103570780Y-43332262D01*
X103570780Y-43332271D01*
X103572784Y-43353478D01*
X103573507Y-43361127D01*
X103618791Y-43490076D01*
X103699990Y-43600010D01*
X103809924Y-43681209D01*
X103938873Y-43726493D01*
X103946515Y-43727215D01*
X103946518Y-43727216D01*
X103961421Y-43728624D01*
X103970685Y-43729500D01*
X104224828Y-43729500D01*
X104479314Y-43729499D01*
X104482262Y-43729220D01*
X104482271Y-43729220D01*
X104503478Y-43727216D01*
X104503480Y-43727216D01*
X104511127Y-43726493D01*
X104640076Y-43681209D01*
X104750010Y-43600010D01*
X104755602Y-43592439D01*
X104756502Y-43591539D01*
X104818814Y-43557513D01*
X104889629Y-43562578D01*
X104946465Y-43605125D01*
X104953373Y-43615363D01*
X105009821Y-43708571D01*
X105019131Y-43720443D01*
X105129557Y-43830869D01*
X105141426Y-43840176D01*
X105275012Y-43921079D01*
X105288757Y-43927285D01*
X105438644Y-43974256D01*
X105451694Y-43976869D01*
X105506586Y-43981913D01*
X105518124Y-43978525D01*
X105519329Y-43977135D01*
X105521000Y-43969452D01*
X105521000Y-43964884D01*
X106029000Y-43964884D01*
X106033475Y-43980123D01*
X106034865Y-43981328D01*
X106039294Y-43982291D01*
X106098315Y-43976868D01*
X106111351Y-43974257D01*
X106261243Y-43927285D01*
X106274988Y-43921079D01*
X106408574Y-43840176D01*
X106420443Y-43830869D01*
X106530869Y-43720443D01*
X106540176Y-43708574D01*
X106621079Y-43574988D01*
X106627285Y-43561243D01*
X106674256Y-43411356D01*
X106676869Y-43398306D01*
X106682734Y-43334479D01*
X106683000Y-43328691D01*
X106683000Y-43272115D01*
X106678525Y-43256876D01*
X106677135Y-43255671D01*
X106669452Y-43254000D01*
X106047115Y-43254000D01*
X106031876Y-43258475D01*
X106030671Y-43259865D01*
X106029000Y-43267548D01*
X106029000Y-43964884D01*
X105521000Y-43964884D01*
X105521000Y-42341115D01*
X105516525Y-42325875D01*
X105493488Y-42305913D01*
X105455104Y-42246187D01*
X105450000Y-42210689D01*
X105450000Y-41958885D01*
X105850000Y-41958885D01*
X105854475Y-41974124D01*
X105855865Y-41975329D01*
X105863548Y-41977000D01*
X105903000Y-41977000D01*
X105971121Y-41997002D01*
X106017614Y-42050658D01*
X106029000Y-42103000D01*
X106029000Y-42727885D01*
X106033475Y-42743124D01*
X106034865Y-42744329D01*
X106042548Y-42746000D01*
X106664884Y-42746000D01*
X106680123Y-42741525D01*
X106681328Y-42740135D01*
X106682999Y-42732452D01*
X106682999Y-42671295D01*
X106682736Y-42665546D01*
X106676868Y-42601685D01*
X106674257Y-42588649D01*
X106627285Y-42438757D01*
X106621079Y-42425012D01*
X106540176Y-42291426D01*
X106530869Y-42279557D01*
X106420443Y-42169131D01*
X106408571Y-42159822D01*
X106367356Y-42134861D01*
X106319449Y-42082464D01*
X106307476Y-42012484D01*
X106314645Y-41982855D01*
X106348478Y-41892606D01*
X106352105Y-41877351D01*
X106357631Y-41826486D01*
X106358000Y-41819672D01*
X106358000Y-41668115D01*
X106353525Y-41652876D01*
X106352135Y-41651671D01*
X106344452Y-41650000D01*
X105868115Y-41650000D01*
X105852876Y-41654475D01*
X105851671Y-41655865D01*
X105850000Y-41663548D01*
X105850000Y-41958885D01*
X105450000Y-41958885D01*
X105450000Y-41835100D01*
X105452421Y-41810519D01*
X105453293Y-41806135D01*
X105454500Y-41800067D01*
X105454499Y-41375999D01*
X105474501Y-41307880D01*
X105528156Y-41261386D01*
X105580499Y-41250000D01*
X106339884Y-41250000D01*
X106355123Y-41245525D01*
X106356328Y-41244135D01*
X106357999Y-41236452D01*
X106357999Y-41080331D01*
X106357629Y-41073510D01*
X106352105Y-41022648D01*
X106348479Y-41007396D01*
X106315801Y-40920228D01*
X106310618Y-40849421D01*
X106344539Y-40787052D01*
X106380532Y-40761804D01*
X106411483Y-40747371D01*
X106411490Y-40747367D01*
X106416476Y-40745042D01*
X106522731Y-40670641D01*
X106559457Y-40644925D01*
X106559459Y-40644923D01*
X106563968Y-40641766D01*
X106691286Y-40514448D01*
X106694445Y-40509937D01*
X106791409Y-40371460D01*
X106791413Y-40371454D01*
X106794562Y-40366956D01*
X106819334Y-40313832D01*
X106868330Y-40208759D01*
X106868331Y-40208755D01*
X106870656Y-40203770D01*
X106917258Y-40029850D01*
X106921074Y-39986235D01*
X106926233Y-39927273D01*
X106927311Y-39920123D01*
X106928538Y-39916629D01*
X106929020Y-39911064D01*
X106929020Y-39900920D01*
X106929499Y-39889940D01*
X106930412Y-39879500D01*
X106931582Y-39866133D01*
X106932200Y-39861100D01*
X106932200Y-39860274D01*
X106933751Y-39850480D01*
X106930571Y-39830402D01*
X106929020Y-39810692D01*
X106929020Y-34289309D01*
X106930571Y-34269598D01*
X106932200Y-34259315D01*
X106932200Y-34259313D01*
X106933751Y-34249521D01*
X106932817Y-34243625D01*
X106923063Y-34132132D01*
X106916595Y-34058200D01*
X106916594Y-34058195D01*
X106916115Y-34052719D01*
X106891286Y-33960055D01*
X106866408Y-33867207D01*
X106866407Y-33867205D01*
X106864985Y-33861897D01*
X106825666Y-33777576D01*
X106783822Y-33687840D01*
X106783819Y-33687835D01*
X106781496Y-33682853D01*
X106668184Y-33521027D01*
X106616252Y-33469095D01*
X106582226Y-33406783D01*
X106587291Y-33335968D01*
X106629838Y-33279132D01*
X106696358Y-33254321D01*
X106705347Y-33254000D01*
X107620000Y-33254000D01*
X107688121Y-33274002D01*
G37*
%TD.AperFunction*%
%TA.AperFunction,Conductor*%
G36*
X75547478Y-38774002D02*
G01*
X75593971Y-38827658D01*
X75604075Y-38897932D01*
X75574581Y-38962512D01*
X75568452Y-38969095D01*
X75491371Y-39046176D01*
X75488673Y-39049779D01*
X75488673Y-39049780D01*
X75436421Y-39119580D01*
X75360173Y-39221435D01*
X75358014Y-39225389D01*
X75280178Y-39367936D01*
X75255253Y-39413582D01*
X75178746Y-39618705D01*
X75177789Y-39623106D01*
X75177788Y-39623108D01*
X75134824Y-39820610D01*
X75132209Y-39832629D01*
X75122077Y-39974301D01*
X75121619Y-39980699D01*
X75121057Y-39984634D01*
X75120982Y-39984849D01*
X75120500Y-39990414D01*
X75120500Y-39993126D01*
X75120382Y-39995855D01*
X75120357Y-39995854D01*
X75120179Y-40000832D01*
X75117653Y-40036151D01*
X75117321Y-40039046D01*
X75117321Y-40040794D01*
X75117268Y-40041534D01*
X75115769Y-40050997D01*
X75117320Y-40060790D01*
X75117320Y-40060791D01*
X75118949Y-40071074D01*
X75120500Y-40090785D01*
X75120500Y-41905187D01*
X75100498Y-41973308D01*
X75077330Y-42000135D01*
X75010039Y-42058838D01*
X74918950Y-42188444D01*
X74916190Y-42195524D01*
X74866218Y-42323696D01*
X74861406Y-42336037D01*
X74860414Y-42343570D01*
X74860414Y-42343571D01*
X74844122Y-42467327D01*
X74840729Y-42493096D01*
X74845931Y-42540213D01*
X74855387Y-42625859D01*
X74858113Y-42650553D01*
X74860723Y-42657684D01*
X74860723Y-42657686D01*
X74893233Y-42746523D01*
X74912553Y-42799319D01*
X74916789Y-42805622D01*
X74916789Y-42805623D01*
X74977386Y-42895800D01*
X75000908Y-42930805D01*
X75006527Y-42935918D01*
X75006528Y-42935919D01*
X75112460Y-43032309D01*
X75118076Y-43037419D01*
X75257293Y-43113008D01*
X75410522Y-43153207D01*
X75494477Y-43154526D01*
X75561319Y-43155576D01*
X75561322Y-43155576D01*
X75568916Y-43155695D01*
X75646124Y-43138012D01*
X75715928Y-43122025D01*
X75715930Y-43122024D01*
X75723332Y-43120329D01*
X75728009Y-43117977D01*
X75797874Y-43113783D01*
X75859793Y-43148519D01*
X75893103Y-43211216D01*
X75894606Y-43220140D01*
X75898531Y-43249948D01*
X75899609Y-43266401D01*
X75899609Y-43272493D01*
X75898057Y-43282288D01*
X75899608Y-43292081D01*
X75899608Y-43292082D01*
X75901237Y-43302365D01*
X75902788Y-43322076D01*
X75902788Y-44516049D01*
X75882786Y-44584170D01*
X75829130Y-44630663D01*
X75758856Y-44640767D01*
X75737774Y-44635278D01*
X75736274Y-44634484D01*
X75582633Y-44595892D01*
X75575034Y-44595852D01*
X75575033Y-44595852D01*
X75509181Y-44595507D01*
X75424221Y-44595062D01*
X75416841Y-44596834D01*
X75416839Y-44596834D01*
X75277563Y-44630271D01*
X75277560Y-44630272D01*
X75270184Y-44632043D01*
X75129414Y-44704700D01*
X75010039Y-44808838D01*
X74918950Y-44938444D01*
X74917944Y-44937737D01*
X74873444Y-44982926D01*
X74856245Y-44990860D01*
X74821907Y-45003667D01*
X74763092Y-45025604D01*
X74763088Y-45025606D01*
X74758881Y-45027175D01*
X74754938Y-45029328D01*
X74754936Y-45029329D01*
X74629646Y-45097743D01*
X74535472Y-45149166D01*
X74331699Y-45301709D01*
X74151709Y-45481699D01*
X73999166Y-45685472D01*
X73877175Y-45908881D01*
X73788221Y-46147376D01*
X73787265Y-46151771D01*
X73787264Y-46151774D01*
X73753120Y-46308730D01*
X73719095Y-46371042D01*
X73656783Y-46405067D01*
X73585967Y-46400002D01*
X73529132Y-46357455D01*
X73504321Y-46290934D01*
X73504000Y-46281946D01*
X73504000Y-38880000D01*
X73524002Y-38811879D01*
X73577658Y-38765386D01*
X73630000Y-38754000D01*
X75479357Y-38754000D01*
X75547478Y-38774002D01*
G37*
%TD.AperFunction*%
%TA.AperFunction,Conductor*%
G36*
X105779924Y-33881051D02*
G01*
X105790207Y-33882680D01*
X105790208Y-33882680D01*
X105800001Y-33884231D01*
X105809797Y-33882679D01*
X105815889Y-33882679D01*
X105832338Y-33883757D01*
X105863015Y-33887796D01*
X105879324Y-33889943D01*
X105911095Y-33898456D01*
X105969685Y-33922725D01*
X105998170Y-33939171D01*
X106048484Y-33977779D01*
X106071741Y-34001036D01*
X106110349Y-34051350D01*
X106126795Y-34079835D01*
X106142272Y-34117201D01*
X106151064Y-34138426D01*
X106159577Y-34170196D01*
X106165763Y-34217179D01*
X106166841Y-34233631D01*
X106166841Y-34239723D01*
X106165289Y-34249519D01*
X106166840Y-34259312D01*
X106166840Y-34259313D01*
X106168469Y-34269596D01*
X106170020Y-34289307D01*
X106170020Y-36457455D01*
X106150018Y-36525576D01*
X106096362Y-36572069D01*
X106026088Y-36582173D01*
X105961508Y-36552679D01*
X105936587Y-36523290D01*
X105899255Y-36462369D01*
X105889777Y-36446903D01*
X105886565Y-36443143D01*
X105886562Y-36443138D01*
X105749415Y-36282560D01*
X105746202Y-36278798D01*
X105701388Y-36240523D01*
X105581862Y-36138438D01*
X105581857Y-36138435D01*
X105578097Y-36135223D01*
X105389601Y-36019712D01*
X105385031Y-36017819D01*
X105385027Y-36017817D01*
X105189930Y-35937005D01*
X105189928Y-35937004D01*
X105185357Y-35935111D01*
X104970392Y-35883503D01*
X104965462Y-35883115D01*
X104965456Y-35883114D01*
X104880091Y-35876396D01*
X104819889Y-35871657D01*
X104816775Y-35871202D01*
X104816149Y-35870982D01*
X104810584Y-35870500D01*
X104807872Y-35870500D01*
X104805143Y-35870382D01*
X104805146Y-35870304D01*
X104800253Y-35870112D01*
X104764743Y-35867317D01*
X104754870Y-35866540D01*
X104750001Y-35865769D01*
X104729924Y-35868949D01*
X104710213Y-35870500D01*
X102857984Y-35870500D01*
X102838273Y-35868949D01*
X102827990Y-35867320D01*
X102827989Y-35867320D01*
X102818196Y-35865769D01*
X102808399Y-35867321D01*
X102808259Y-35867343D01*
X102798430Y-35868507D01*
X102682378Y-35877640D01*
X102612898Y-35863044D01*
X102562339Y-35813201D01*
X102546753Y-35743936D01*
X102550077Y-35722190D01*
X102550991Y-35718438D01*
X102552957Y-35712778D01*
X102576187Y-35552563D01*
X102582338Y-35510140D01*
X102582338Y-35510137D01*
X102583199Y-35504200D01*
X102573455Y-35293667D01*
X102571710Y-35286423D01*
X102525482Y-35094607D01*
X102525481Y-35094605D01*
X102524076Y-35088774D01*
X102521293Y-35082652D01*
X102439323Y-34902371D01*
X102436843Y-34896916D01*
X102314904Y-34725014D01*
X102162660Y-34579272D01*
X102052843Y-34508364D01*
X101990640Y-34468200D01*
X101990637Y-34468199D01*
X101985603Y-34464948D01*
X101790122Y-34386166D01*
X101655739Y-34359923D01*
X101587717Y-34346639D01*
X101587714Y-34346639D01*
X101583271Y-34345771D01*
X101577730Y-34345500D01*
X101272341Y-34345500D01*
X101115194Y-34360493D01*
X101109434Y-34362183D01*
X101109433Y-34362183D01*
X101067169Y-34374582D01*
X100912958Y-34419823D01*
X100907619Y-34422573D01*
X100730921Y-34513578D01*
X100730918Y-34513580D01*
X100725590Y-34516324D01*
X100720875Y-34520028D01*
X100564568Y-34642808D01*
X100564564Y-34642812D01*
X100559851Y-34646514D01*
X100555920Y-34651044D01*
X100555919Y-34651045D01*
X100425650Y-34801165D01*
X100425646Y-34801170D01*
X100421719Y-34805696D01*
X100316181Y-34988126D01*
X100247043Y-35187222D01*
X100246183Y-35193155D01*
X100246182Y-35193158D01*
X100217662Y-35389860D01*
X100216801Y-35395800D01*
X100226545Y-35606333D01*
X100275924Y-35811226D01*
X100278406Y-35816684D01*
X100278407Y-35816688D01*
X100309312Y-35884659D01*
X100363157Y-36003084D01*
X100485096Y-36174986D01*
X100489423Y-36179128D01*
X100493346Y-36183673D01*
X100492418Y-36184474D01*
X100524626Y-36240523D01*
X100521104Y-36311432D01*
X100479805Y-36369181D01*
X100413840Y-36395434D01*
X100402118Y-36395980D01*
X99296095Y-36395980D01*
X99276384Y-36394429D01*
X99269010Y-36393261D01*
X99256307Y-36391249D01*
X99243595Y-36393262D01*
X99232140Y-36394542D01*
X99168175Y-36398734D01*
X99076192Y-36404763D01*
X99076188Y-36404764D01*
X99072077Y-36405033D01*
X99068037Y-36405837D01*
X99068034Y-36405837D01*
X98895048Y-36440246D01*
X98895042Y-36440248D01*
X98890998Y-36441052D01*
X98837889Y-36459080D01*
X98766957Y-36462037D01*
X98765480Y-36461572D01*
X98765022Y-36461329D01*
X98611381Y-36422737D01*
X98603782Y-36422697D01*
X98603781Y-36422697D01*
X98537929Y-36422352D01*
X98452969Y-36421907D01*
X98445589Y-36423679D01*
X98445587Y-36423679D01*
X98306311Y-36457116D01*
X98306308Y-36457117D01*
X98298932Y-36458888D01*
X98158162Y-36531545D01*
X98038787Y-36635683D01*
X97947698Y-36765289D01*
X97890154Y-36912882D01*
X97889162Y-36920415D01*
X97889162Y-36920416D01*
X97871496Y-37054608D01*
X97869477Y-37069941D01*
X97872506Y-37097374D01*
X97885256Y-37212859D01*
X97886861Y-37227398D01*
X97889471Y-37234529D01*
X97889471Y-37234531D01*
X97935258Y-37359650D01*
X97941301Y-37376164D01*
X97945537Y-37382467D01*
X97945537Y-37382468D01*
X97974126Y-37425012D01*
X98029656Y-37507650D01*
X98035275Y-37512763D01*
X98035276Y-37512764D01*
X98118668Y-37588644D01*
X98146824Y-37614264D01*
X98286041Y-37689853D01*
X98439270Y-37730052D01*
X98523225Y-37731371D01*
X98590067Y-37732421D01*
X98590070Y-37732421D01*
X98597664Y-37732540D01*
X98752080Y-37697174D01*
X98822490Y-37661762D01*
X98886820Y-37629408D01*
X98886823Y-37629406D01*
X98893603Y-37625996D01*
X98912669Y-37609712D01*
X98977459Y-37580681D01*
X99047659Y-37591286D01*
X99100981Y-37638160D01*
X99120500Y-37705523D01*
X99120500Y-38960211D01*
X99118949Y-38979922D01*
X99118103Y-38985266D01*
X99115769Y-38999999D01*
X99117321Y-39009794D01*
X99117321Y-39019709D01*
X99117166Y-39019709D01*
X99117760Y-39034819D01*
X99111089Y-39119580D01*
X99107996Y-39139108D01*
X99083002Y-39243218D01*
X99082309Y-39246103D01*
X99076202Y-39264899D01*
X99042618Y-39345979D01*
X99034091Y-39366564D01*
X99025115Y-39384179D01*
X98967622Y-39478001D01*
X98956003Y-39493994D01*
X98900781Y-39558651D01*
X98889679Y-39568913D01*
X98889788Y-39569022D01*
X98882774Y-39576036D01*
X98874754Y-39581863D01*
X98862801Y-39598315D01*
X98849968Y-39613338D01*
X97241544Y-41221762D01*
X97179232Y-41255788D01*
X97108417Y-41250723D01*
X97051581Y-41208176D01*
X97027362Y-41147804D01*
X97021569Y-41099933D01*
X97013554Y-41033697D01*
X96957558Y-40885510D01*
X96906555Y-40811300D01*
X96884455Y-40743831D01*
X96902341Y-40675124D01*
X96954532Y-40626993D01*
X96966524Y-40621888D01*
X96973332Y-40620329D01*
X97008660Y-40602561D01*
X97108072Y-40552563D01*
X97108075Y-40552561D01*
X97114855Y-40549151D01*
X97120626Y-40544222D01*
X97120629Y-40544220D01*
X97229536Y-40451204D01*
X97229536Y-40451203D01*
X97235314Y-40446269D01*
X97327755Y-40317624D01*
X97386842Y-40170641D01*
X97401012Y-40071074D01*
X97408581Y-40017891D01*
X97408581Y-40017888D01*
X97409162Y-40013807D01*
X97409307Y-40000000D01*
X97408806Y-39995855D01*
X97399218Y-39916629D01*
X97390276Y-39842733D01*
X97334280Y-39694546D01*
X97292827Y-39634231D01*
X97248855Y-39570251D01*
X97248854Y-39570249D01*
X97244553Y-39563992D01*
X97238559Y-39558651D01*
X97189772Y-39515184D01*
X97171681Y-39499065D01*
X97134126Y-39438816D01*
X97129500Y-39404989D01*
X97129500Y-37767604D01*
X97131051Y-37747893D01*
X97132680Y-37737610D01*
X97132680Y-37737609D01*
X97134231Y-37727816D01*
X97132679Y-37718020D01*
X97132679Y-37711696D01*
X97131806Y-37692645D01*
X97141779Y-37540489D01*
X97143930Y-37524149D01*
X97178943Y-37348124D01*
X97183209Y-37332203D01*
X97240898Y-37162258D01*
X97247205Y-37147031D01*
X97326586Y-36986063D01*
X97334827Y-36971790D01*
X97434532Y-36822570D01*
X97444565Y-36809494D01*
X97545107Y-36694848D01*
X97559211Y-36681981D01*
X97563673Y-36677519D01*
X97571692Y-36671693D01*
X97577518Y-36663674D01*
X97578188Y-36663004D01*
X97584336Y-36655383D01*
X97690545Y-36536534D01*
X97726839Y-36495921D01*
X97862458Y-36304784D01*
X97975823Y-36099665D01*
X98065510Y-35883142D01*
X98068819Y-35871658D01*
X98098383Y-35769036D01*
X98130390Y-35657939D01*
X98169647Y-35426888D01*
X98179067Y-35259147D01*
X98179246Y-35256638D01*
X98179266Y-35256182D01*
X98179500Y-35253478D01*
X98179500Y-35252769D01*
X98179946Y-35251463D01*
X98179500Y-35251438D01*
X98181638Y-35213364D01*
X98182679Y-35203634D01*
X98182679Y-35202691D01*
X98184231Y-35192894D01*
X98181051Y-35172816D01*
X98179500Y-35153106D01*
X98179500Y-34005500D01*
X98199502Y-33937379D01*
X98253158Y-33890886D01*
X98305500Y-33879500D01*
X105760213Y-33879500D01*
X105779924Y-33881051D01*
G37*
%TD.AperFunction*%
%TA.AperFunction,Conductor*%
G36*
X95284344Y-35227866D02*
G01*
X95324487Y-35286423D01*
X95329504Y-35340642D01*
X95329523Y-35340643D01*
X95322600Y-35446269D01*
X95322352Y-35450050D01*
X95321386Y-35456963D01*
X95320982Y-35458115D01*
X95320500Y-35463680D01*
X95320500Y-35474181D01*
X95320230Y-35482420D01*
X95319079Y-35499985D01*
X95317799Y-35511443D01*
X95315769Y-35524265D01*
X95317320Y-35534057D01*
X95318949Y-35544342D01*
X95320500Y-35564053D01*
X95320500Y-37587420D01*
X95318949Y-37607130D01*
X95315769Y-37627208D01*
X95317321Y-37637005D01*
X95317321Y-37639263D01*
X95318506Y-37662718D01*
X95314850Y-37727816D01*
X95305080Y-37901797D01*
X95303962Y-37921696D01*
X95302380Y-37935737D01*
X95254158Y-38219546D01*
X95251014Y-38233321D01*
X95171319Y-38509948D01*
X95166652Y-38523285D01*
X95056488Y-38789246D01*
X95050359Y-38801973D01*
X94997839Y-38897000D01*
X94911107Y-39053930D01*
X94903590Y-39065894D01*
X94737001Y-39300679D01*
X94728191Y-39311726D01*
X94555352Y-39505133D01*
X94537928Y-39520880D01*
X94536328Y-39522480D01*
X94528307Y-39528308D01*
X94522479Y-39536330D01*
X94516357Y-39544756D01*
X94503515Y-39559791D01*
X94072489Y-39990817D01*
X94057455Y-40003658D01*
X94049836Y-40009194D01*
X94041006Y-40015609D01*
X94035180Y-40023628D01*
X94035179Y-40023629D01*
X94035097Y-40023742D01*
X94017778Y-40043039D01*
X93843864Y-40200665D01*
X93834306Y-40208509D01*
X93621948Y-40366005D01*
X93611667Y-40372875D01*
X93384889Y-40508801D01*
X93373984Y-40514630D01*
X93134977Y-40627672D01*
X93123553Y-40632404D01*
X92874615Y-40721475D01*
X92862783Y-40725064D01*
X92716110Y-40761804D01*
X92606310Y-40789308D01*
X92594188Y-40791718D01*
X92332655Y-40830514D01*
X92320359Y-40831724D01*
X92262318Y-40834576D01*
X92193299Y-40817941D01*
X92144230Y-40766631D01*
X92130690Y-40696937D01*
X92134260Y-40677063D01*
X92136842Y-40670641D01*
X92142577Y-40630342D01*
X92158581Y-40517891D01*
X92158581Y-40517888D01*
X92159162Y-40513807D01*
X92159307Y-40500000D01*
X92140276Y-40342733D01*
X92084280Y-40194546D01*
X92033390Y-40120500D01*
X91998855Y-40070251D01*
X91998854Y-40070249D01*
X91994553Y-40063992D01*
X91969347Y-40041534D01*
X91962298Y-40035254D01*
X91924742Y-39975003D01*
X91925722Y-39904014D01*
X91964927Y-39844823D01*
X92016701Y-39818659D01*
X92022788Y-39817198D01*
X92022800Y-39817194D01*
X92027607Y-39816040D01*
X92032180Y-39814146D01*
X92223643Y-39734840D01*
X92223647Y-39734838D01*
X92228217Y-39732945D01*
X92413357Y-39619491D01*
X92578471Y-39478471D01*
X92719491Y-39313357D01*
X92832945Y-39128217D01*
X92835252Y-39122649D01*
X92914146Y-38932180D01*
X92914147Y-38932178D01*
X92916040Y-38927607D01*
X92950203Y-38785308D01*
X92965575Y-38721281D01*
X92965576Y-38721275D01*
X92966730Y-38716468D01*
X92978222Y-38570452D01*
X92978733Y-38566961D01*
X92979018Y-38566149D01*
X92979500Y-38560584D01*
X92979500Y-38557872D01*
X92979618Y-38555143D01*
X92979658Y-38555145D01*
X92979888Y-38549280D01*
X92981797Y-38525017D01*
X92983307Y-38505835D01*
X92984231Y-38500000D01*
X92981051Y-38479922D01*
X92979500Y-38460212D01*
X92979500Y-35769036D01*
X92999502Y-35700915D01*
X93053158Y-35654422D01*
X93123432Y-35644318D01*
X93137476Y-35647161D01*
X93153170Y-35651279D01*
X93153176Y-35651280D01*
X93160522Y-35653207D01*
X93244477Y-35654526D01*
X93311319Y-35655576D01*
X93311322Y-35655576D01*
X93318916Y-35655695D01*
X93473332Y-35620329D01*
X93543742Y-35584917D01*
X93608072Y-35552563D01*
X93608075Y-35552561D01*
X93614855Y-35549151D01*
X93620626Y-35544222D01*
X93620629Y-35544220D01*
X93729542Y-35451199D01*
X93729543Y-35451198D01*
X93735314Y-35446269D01*
X93745586Y-35431974D01*
X93801581Y-35388326D01*
X93847909Y-35379500D01*
X94323817Y-35379500D01*
X94343527Y-35381051D01*
X94363605Y-35384231D01*
X94370294Y-35383172D01*
X94459876Y-35377300D01*
X94610104Y-35367454D01*
X94610111Y-35367453D01*
X94614216Y-35367184D01*
X94618249Y-35366382D01*
X94618255Y-35366381D01*
X94856488Y-35318993D01*
X94856494Y-35318991D01*
X94860538Y-35318187D01*
X94864447Y-35316860D01*
X94864451Y-35316859D01*
X95094452Y-35238784D01*
X95094453Y-35238783D01*
X95098358Y-35237458D01*
X95148975Y-35212496D01*
X95218914Y-35200307D01*
X95284344Y-35227866D01*
G37*
%TD.AperFunction*%
%TA.AperFunction,Conductor*%
G36*
X104729921Y-36631051D02*
G01*
X104749999Y-36634231D01*
X104759793Y-36632680D01*
X104769707Y-36632680D01*
X104769707Y-36633703D01*
X104784410Y-36633378D01*
X104879530Y-36644095D01*
X104907039Y-36650374D01*
X105016673Y-36688737D01*
X105042093Y-36700979D01*
X105140443Y-36762776D01*
X105162502Y-36780368D01*
X105244632Y-36862498D01*
X105262224Y-36884557D01*
X105324021Y-36982907D01*
X105336263Y-37008327D01*
X105374626Y-37117961D01*
X105380905Y-37145469D01*
X105389180Y-37218911D01*
X105376931Y-37288843D01*
X105338831Y-37334370D01*
X105257564Y-37394395D01*
X105257561Y-37394398D01*
X105249990Y-37399990D01*
X105244398Y-37407561D01*
X105243498Y-37408461D01*
X105181186Y-37442487D01*
X105110371Y-37437422D01*
X105053535Y-37394875D01*
X105046627Y-37384637D01*
X104990179Y-37291429D01*
X104980869Y-37279557D01*
X104870443Y-37169131D01*
X104858574Y-37159824D01*
X104724988Y-37078921D01*
X104711243Y-37072715D01*
X104561356Y-37025744D01*
X104548306Y-37023131D01*
X104493414Y-37018087D01*
X104481876Y-37021475D01*
X104480671Y-37022865D01*
X104479000Y-37030548D01*
X104479000Y-38658885D01*
X104483475Y-38674125D01*
X104506512Y-38694087D01*
X104544896Y-38753813D01*
X104550000Y-38789311D01*
X104550000Y-39164900D01*
X104547579Y-39189481D01*
X104545500Y-39199933D01*
X104545501Y-39544756D01*
X104545501Y-39624000D01*
X104525499Y-39692120D01*
X104471844Y-39738614D01*
X104419501Y-39750000D01*
X104276000Y-39750000D01*
X104207879Y-39729998D01*
X104161386Y-39676342D01*
X104150000Y-39624000D01*
X104150000Y-39041115D01*
X104145525Y-39025876D01*
X104144135Y-39024671D01*
X104136452Y-39023000D01*
X104097000Y-39023000D01*
X104028879Y-39002998D01*
X103982386Y-38949342D01*
X103971000Y-38897000D01*
X103971000Y-38272115D01*
X103966525Y-38256876D01*
X103965135Y-38255671D01*
X103957452Y-38254000D01*
X103335116Y-38254000D01*
X103319877Y-38258475D01*
X103318672Y-38259865D01*
X103317001Y-38267548D01*
X103317001Y-38328705D01*
X103317264Y-38334454D01*
X103323132Y-38398315D01*
X103325743Y-38411351D01*
X103372715Y-38561243D01*
X103378921Y-38574988D01*
X103459824Y-38708574D01*
X103469131Y-38720443D01*
X103579557Y-38830869D01*
X103591429Y-38840178D01*
X103632644Y-38865139D01*
X103680551Y-38917536D01*
X103692524Y-38987516D01*
X103685355Y-39017145D01*
X103651522Y-39107394D01*
X103647895Y-39122649D01*
X103642369Y-39173514D01*
X103642000Y-39180328D01*
X103642000Y-39243218D01*
X103621998Y-39311339D01*
X103568342Y-39357832D01*
X103498068Y-39367936D01*
X103443088Y-39345979D01*
X103359411Y-39286607D01*
X103359409Y-39286606D01*
X103356523Y-39284558D01*
X103155604Y-39173514D01*
X103091734Y-39138214D01*
X103091733Y-39138213D01*
X103088638Y-39136503D01*
X103085375Y-39135151D01*
X103085370Y-39135149D01*
X102947249Y-39077938D01*
X102805860Y-39019372D01*
X102511746Y-38934639D01*
X102414056Y-38918041D01*
X102358987Y-38908684D01*
X102295179Y-38877554D01*
X102258331Y-38816868D01*
X102260141Y-38745895D01*
X102284928Y-38701883D01*
X102374350Y-38598835D01*
X102374354Y-38598830D01*
X102378281Y-38594304D01*
X102483819Y-38411874D01*
X102552957Y-38212778D01*
X102583199Y-38004200D01*
X102573455Y-37793667D01*
X102561968Y-37746000D01*
X102557602Y-37727885D01*
X103317000Y-37727885D01*
X103321475Y-37743124D01*
X103322865Y-37744329D01*
X103330548Y-37746000D01*
X103952885Y-37746000D01*
X103968124Y-37741525D01*
X103969329Y-37740135D01*
X103971000Y-37732452D01*
X103971000Y-37035116D01*
X103966525Y-37019877D01*
X103965135Y-37018672D01*
X103960706Y-37017709D01*
X103901685Y-37023132D01*
X103888649Y-37025743D01*
X103738757Y-37072715D01*
X103725012Y-37078921D01*
X103591426Y-37159824D01*
X103579557Y-37169131D01*
X103469131Y-37279557D01*
X103459824Y-37291426D01*
X103378921Y-37425012D01*
X103372715Y-37438757D01*
X103325744Y-37588644D01*
X103323131Y-37601694D01*
X103317266Y-37665521D01*
X103317000Y-37671309D01*
X103317000Y-37727885D01*
X102557602Y-37727885D01*
X102525482Y-37594607D01*
X102525481Y-37594605D01*
X102524076Y-37588774D01*
X102520397Y-37580681D01*
X102455260Y-37437422D01*
X102436843Y-37396916D01*
X102314904Y-37225014D01*
X102310581Y-37220876D01*
X102310577Y-37220871D01*
X102245872Y-37158930D01*
X102210496Y-37097374D01*
X102214015Y-37026465D01*
X102255312Y-36968715D01*
X102263001Y-36963147D01*
X102403537Y-36869244D01*
X102403542Y-36869240D01*
X102406968Y-36866951D01*
X102410063Y-36864237D01*
X102410077Y-36864226D01*
X102527213Y-36761499D01*
X102536236Y-36754290D01*
X102538671Y-36752521D01*
X102538674Y-36752518D01*
X102546692Y-36746693D01*
X102552519Y-36738673D01*
X102556838Y-36734354D01*
X102569220Y-36723494D01*
X102610691Y-36691672D01*
X102639173Y-36675229D01*
X102702271Y-36649093D01*
X102734041Y-36640580D01*
X102754221Y-36637923D01*
X102785864Y-36633757D01*
X102802312Y-36632679D01*
X102808404Y-36632679D01*
X102818200Y-36634231D01*
X102827993Y-36632680D01*
X102827994Y-36632680D01*
X102838277Y-36631051D01*
X102857988Y-36629500D01*
X104710211Y-36629500D01*
X104729921Y-36631051D01*
G37*
%TD.AperFunction*%
%TD*%
M02*
