%TF.GenerationSoftware,KiCad,Pcbnew,(5.1.9-0-10_14)*%
%TF.CreationDate,2021-08-26T08:08:46+01:00*%
%TF.ProjectId,Bell,42656c6c-2e6b-4696-9361-645f70636258,2*%
%TF.SameCoordinates,Original*%
%TF.FileFunction,Paste,Top*%
%TF.FilePolarity,Positive*%
%FSLAX46Y46*%
G04 Gerber Fmt 4.6, Leading zero omitted, Abs format (unit mm)*
G04 Created by KiCad (PCBNEW (5.1.9-0-10_14)) date 2021-08-26 08:08:46*
%MOMM*%
%LPD*%
G01*
G04 APERTURE LIST*
%ADD10R,0.576000X1.056000*%
%ADD11R,0.624000X0.384000*%
%ADD12R,0.816000X0.480000*%
%ADD13R,0.420000X0.798000*%
%ADD14R,1.920000X0.864000*%
%ADD15R,0.864000X1.920000*%
G04 APERTURE END LIST*
%TO.C,U5*%
G36*
G01*
X94900000Y-64280000D02*
X94900000Y-63780000D01*
G75*
G02*
X95150000Y-63530000I250000J0D01*
G01*
X95850000Y-63530000D01*
G75*
G02*
X96100000Y-63780000I0J-250000D01*
G01*
X96100000Y-64280000D01*
G75*
G02*
X95850000Y-64530000I-250000J0D01*
G01*
X95150000Y-64530000D01*
G75*
G02*
X94900000Y-64280000I0J250000D01*
G01*
G37*
G36*
G01*
X94900000Y-63130000D02*
X94900000Y-62630000D01*
G75*
G02*
X95150000Y-62380000I250000J0D01*
G01*
X95850000Y-62380000D01*
G75*
G02*
X96100000Y-62630000I0J-250000D01*
G01*
X96100000Y-63130000D01*
G75*
G02*
X95850000Y-63380000I-250000J0D01*
G01*
X95150000Y-63380000D01*
G75*
G02*
X94900000Y-63130000I0J250000D01*
G01*
G37*
G36*
G01*
X94900000Y-61980000D02*
X94900000Y-61480000D01*
G75*
G02*
X95150000Y-61230000I250000J0D01*
G01*
X95850000Y-61230000D01*
G75*
G02*
X96100000Y-61480000I0J-250000D01*
G01*
X96100000Y-61980000D01*
G75*
G02*
X95850000Y-62230000I-250000J0D01*
G01*
X95150000Y-62230000D01*
G75*
G02*
X94900000Y-61980000I0J250000D01*
G01*
G37*
G36*
G01*
X91900000Y-63130000D02*
X91900000Y-62630000D01*
G75*
G02*
X92150000Y-62380000I250000J0D01*
G01*
X92850000Y-62380000D01*
G75*
G02*
X93100000Y-62630000I0J-250000D01*
G01*
X93100000Y-63130000D01*
G75*
G02*
X92850000Y-63380000I-250000J0D01*
G01*
X92150000Y-63380000D01*
G75*
G02*
X91900000Y-63130000I0J250000D01*
G01*
G37*
G36*
G01*
X91900000Y-64280000D02*
X91900000Y-63780000D01*
G75*
G02*
X92150000Y-63530000I250000J0D01*
G01*
X92850000Y-63530000D01*
G75*
G02*
X93100000Y-63780000I0J-250000D01*
G01*
X93100000Y-64280000D01*
G75*
G02*
X92850000Y-64530000I-250000J0D01*
G01*
X92150000Y-64530000D01*
G75*
G02*
X91900000Y-64280000I0J250000D01*
G01*
G37*
G36*
G01*
X91900000Y-61980000D02*
X91900000Y-61480000D01*
G75*
G02*
X92150000Y-61230000I250000J0D01*
G01*
X92850000Y-61230000D01*
G75*
G02*
X93100000Y-61480000I0J-250000D01*
G01*
X93100000Y-61980000D01*
G75*
G02*
X92850000Y-62230000I-250000J0D01*
G01*
X92150000Y-62230000D01*
G75*
G02*
X91900000Y-61980000I0J250000D01*
G01*
G37*
D10*
X91050000Y-61480000D03*
X89150000Y-61480000D03*
X90100000Y-61480000D03*
X89150000Y-64180000D03*
X90100000Y-64180000D03*
X91050000Y-64180000D03*
G36*
G01*
X95044000Y-64950000D02*
X95956000Y-64950000D01*
G75*
G02*
X96196000Y-65190000I0J-240000D01*
G01*
X96196000Y-65670000D01*
G75*
G02*
X95956000Y-65910000I-240000J0D01*
G01*
X95044000Y-65910000D01*
G75*
G02*
X94804000Y-65670000I0J240000D01*
G01*
X94804000Y-65190000D01*
G75*
G02*
X95044000Y-64950000I240000J0D01*
G01*
G37*
G36*
G01*
X95044000Y-66850000D02*
X95956000Y-66850000D01*
G75*
G02*
X96196000Y-67090000I0J-240000D01*
G01*
X96196000Y-67570000D01*
G75*
G02*
X95956000Y-67810000I-240000J0D01*
G01*
X95044000Y-67810000D01*
G75*
G02*
X94804000Y-67570000I0J240000D01*
G01*
X94804000Y-67090000D01*
G75*
G02*
X95044000Y-66850000I240000J0D01*
G01*
G37*
G36*
G01*
X88794000Y-66850000D02*
X89706000Y-66850000D01*
G75*
G02*
X89946000Y-67090000I0J-240000D01*
G01*
X89946000Y-67570000D01*
G75*
G02*
X89706000Y-67810000I-240000J0D01*
G01*
X88794000Y-67810000D01*
G75*
G02*
X88554000Y-67570000I0J240000D01*
G01*
X88554000Y-67090000D01*
G75*
G02*
X88794000Y-66850000I240000J0D01*
G01*
G37*
G36*
G01*
X88794000Y-64950000D02*
X89706000Y-64950000D01*
G75*
G02*
X89946000Y-65190000I0J-240000D01*
G01*
X89946000Y-65670000D01*
G75*
G02*
X89706000Y-65910000I-240000J0D01*
G01*
X88794000Y-65910000D01*
G75*
G02*
X88554000Y-65670000I0J240000D01*
G01*
X88554000Y-65190000D01*
G75*
G02*
X88794000Y-64950000I240000J0D01*
G01*
G37*
G36*
G01*
X88240000Y-62487000D02*
X87760000Y-62487000D01*
G75*
G02*
X87544000Y-62271000I0J216000D01*
G01*
X87544000Y-61839000D01*
G75*
G02*
X87760000Y-61623000I216000J0D01*
G01*
X88240000Y-61623000D01*
G75*
G02*
X88456000Y-61839000I0J-216000D01*
G01*
X88456000Y-62271000D01*
G75*
G02*
X88240000Y-62487000I-216000J0D01*
G01*
G37*
G36*
G01*
X88240000Y-64037000D02*
X87760000Y-64037000D01*
G75*
G02*
X87544000Y-63821000I0J216000D01*
G01*
X87544000Y-63389000D01*
G75*
G02*
X87760000Y-63173000I216000J0D01*
G01*
X88240000Y-63173000D01*
G75*
G02*
X88456000Y-63389000I0J-216000D01*
G01*
X88456000Y-63821000D01*
G75*
G02*
X88240000Y-64037000I-216000J0D01*
G01*
G37*
G36*
G01*
X90213500Y-66600601D02*
X90213500Y-65399399D01*
G75*
G02*
X90452899Y-65160000I239399J0D01*
G01*
X91342101Y-65160000D01*
G75*
G02*
X91581500Y-65399399I0J-239399D01*
G01*
X91581500Y-66600601D01*
G75*
G02*
X91342101Y-66840000I-239399J0D01*
G01*
X90452899Y-66840000D01*
G75*
G02*
X90213500Y-66600601I0J239399D01*
G01*
G37*
G36*
G01*
X93178500Y-66600601D02*
X93178500Y-65399399D01*
G75*
G02*
X93417899Y-65160000I239399J0D01*
G01*
X94307101Y-65160000D01*
G75*
G02*
X94546500Y-65399399I0J-239399D01*
G01*
X94546500Y-66600601D01*
G75*
G02*
X94307101Y-66840000I-239399J0D01*
G01*
X93417899Y-66840000D01*
G75*
G02*
X93178500Y-66600601I0J239399D01*
G01*
G37*
%TD*%
D11*
%TO.C,D1*%
X95250000Y-43150000D03*
X95250000Y-41850000D03*
X97150000Y-42500000D03*
X95250000Y-42500000D03*
X97150000Y-41850000D03*
X97150000Y-43150000D03*
%TD*%
%TO.C,R5*%
G36*
G01*
X98741000Y-36964000D02*
X98741000Y-36436000D01*
G75*
G02*
X98933000Y-36244000I192000J0D01*
G01*
X99317000Y-36244000D01*
G75*
G02*
X99509000Y-36436000I0J-192000D01*
G01*
X99509000Y-36964000D01*
G75*
G02*
X99317000Y-37156000I-192000J0D01*
G01*
X98933000Y-37156000D01*
G75*
G02*
X98741000Y-36964000I0J192000D01*
G01*
G37*
G36*
G01*
X97091000Y-36964000D02*
X97091000Y-36436000D01*
G75*
G02*
X97283000Y-36244000I192000J0D01*
G01*
X97667000Y-36244000D01*
G75*
G02*
X97859000Y-36436000I0J-192000D01*
G01*
X97859000Y-36964000D01*
G75*
G02*
X97667000Y-37156000I-192000J0D01*
G01*
X97283000Y-37156000D01*
G75*
G02*
X97091000Y-36964000I0J192000D01*
G01*
G37*
%TD*%
%TO.C,R6*%
G36*
G01*
X98741000Y-38164000D02*
X98741000Y-37636000D01*
G75*
G02*
X98933000Y-37444000I192000J0D01*
G01*
X99317000Y-37444000D01*
G75*
G02*
X99509000Y-37636000I0J-192000D01*
G01*
X99509000Y-38164000D01*
G75*
G02*
X99317000Y-38356000I-192000J0D01*
G01*
X98933000Y-38356000D01*
G75*
G02*
X98741000Y-38164000I0J192000D01*
G01*
G37*
G36*
G01*
X97091000Y-38164000D02*
X97091000Y-37636000D01*
G75*
G02*
X97283000Y-37444000I192000J0D01*
G01*
X97667000Y-37444000D01*
G75*
G02*
X97859000Y-37636000I0J-192000D01*
G01*
X97859000Y-38164000D01*
G75*
G02*
X97667000Y-38356000I-192000J0D01*
G01*
X97283000Y-38356000D01*
G75*
G02*
X97091000Y-38164000I0J192000D01*
G01*
G37*
%TD*%
D12*
%TO.C,D2*%
X99075000Y-34500000D03*
X97325000Y-34500000D03*
X97325000Y-35500000D03*
X99075000Y-35500000D03*
%TD*%
%TO.C,U2*%
G36*
G01*
X84689000Y-65075000D02*
X84311000Y-65075000D01*
G75*
G02*
X84125000Y-64889000I0J186000D01*
G01*
X84125000Y-64511000D01*
G75*
G02*
X84311000Y-64325000I186000J0D01*
G01*
X84689000Y-64325000D01*
G75*
G02*
X84875000Y-64511000I0J-186000D01*
G01*
X84875000Y-64889000D01*
G75*
G02*
X84689000Y-65075000I-186000J0D01*
G01*
G37*
G36*
G01*
X83689000Y-65075000D02*
X83311000Y-65075000D01*
G75*
G02*
X83125000Y-64889000I0J186000D01*
G01*
X83125000Y-64511000D01*
G75*
G02*
X83311000Y-64325000I186000J0D01*
G01*
X83689000Y-64325000D01*
G75*
G02*
X83875000Y-64511000I0J-186000D01*
G01*
X83875000Y-64889000D01*
G75*
G02*
X83689000Y-65075000I-186000J0D01*
G01*
G37*
G36*
G01*
X84689000Y-66075000D02*
X84311000Y-66075000D01*
G75*
G02*
X84125000Y-65889000I0J186000D01*
G01*
X84125000Y-65511000D01*
G75*
G02*
X84311000Y-65325000I186000J0D01*
G01*
X84689000Y-65325000D01*
G75*
G02*
X84875000Y-65511000I0J-186000D01*
G01*
X84875000Y-65889000D01*
G75*
G02*
X84689000Y-66075000I-186000J0D01*
G01*
G37*
G36*
G01*
X83689000Y-66075000D02*
X83311000Y-66075000D01*
G75*
G02*
X83125000Y-65889000I0J186000D01*
G01*
X83125000Y-65511000D01*
G75*
G02*
X83311000Y-65325000I186000J0D01*
G01*
X83689000Y-65325000D01*
G75*
G02*
X83875000Y-65511000I0J-186000D01*
G01*
X83875000Y-65889000D01*
G75*
G02*
X83689000Y-66075000I-186000J0D01*
G01*
G37*
G36*
G01*
X82376000Y-66320000D02*
X81824000Y-66320000D01*
G75*
G02*
X81764000Y-66260000I0J60000D01*
G01*
X81764000Y-66140000D01*
G75*
G02*
X81824000Y-66080000I60000J0D01*
G01*
X82376000Y-66080000D01*
G75*
G02*
X82436000Y-66140000I0J-60000D01*
G01*
X82436000Y-66260000D01*
G75*
G02*
X82376000Y-66320000I-60000J0D01*
G01*
G37*
G36*
G01*
X82376000Y-65820000D02*
X81824000Y-65820000D01*
G75*
G02*
X81764000Y-65760000I0J60000D01*
G01*
X81764000Y-65640000D01*
G75*
G02*
X81824000Y-65580000I60000J0D01*
G01*
X82376000Y-65580000D01*
G75*
G02*
X82436000Y-65640000I0J-60000D01*
G01*
X82436000Y-65760000D01*
G75*
G02*
X82376000Y-65820000I-60000J0D01*
G01*
G37*
G36*
G01*
X82376000Y-65320000D02*
X81824000Y-65320000D01*
G75*
G02*
X81764000Y-65260000I0J60000D01*
G01*
X81764000Y-65140000D01*
G75*
G02*
X81824000Y-65080000I60000J0D01*
G01*
X82376000Y-65080000D01*
G75*
G02*
X82436000Y-65140000I0J-60000D01*
G01*
X82436000Y-65260000D01*
G75*
G02*
X82376000Y-65320000I-60000J0D01*
G01*
G37*
G36*
G01*
X82376000Y-64820000D02*
X81824000Y-64820000D01*
G75*
G02*
X81764000Y-64760000I0J60000D01*
G01*
X81764000Y-64640000D01*
G75*
G02*
X81824000Y-64580000I60000J0D01*
G01*
X82376000Y-64580000D01*
G75*
G02*
X82436000Y-64640000I0J-60000D01*
G01*
X82436000Y-64760000D01*
G75*
G02*
X82376000Y-64820000I-60000J0D01*
G01*
G37*
G36*
G01*
X82376000Y-64320000D02*
X81824000Y-64320000D01*
G75*
G02*
X81764000Y-64260000I0J60000D01*
G01*
X81764000Y-64140000D01*
G75*
G02*
X81824000Y-64080000I60000J0D01*
G01*
X82376000Y-64080000D01*
G75*
G02*
X82436000Y-64140000I0J-60000D01*
G01*
X82436000Y-64260000D01*
G75*
G02*
X82376000Y-64320000I-60000J0D01*
G01*
G37*
G36*
G01*
X83060000Y-63636000D02*
X82940000Y-63636000D01*
G75*
G02*
X82880000Y-63576000I0J60000D01*
G01*
X82880000Y-63024000D01*
G75*
G02*
X82940000Y-62964000I60000J0D01*
G01*
X83060000Y-62964000D01*
G75*
G02*
X83120000Y-63024000I0J-60000D01*
G01*
X83120000Y-63576000D01*
G75*
G02*
X83060000Y-63636000I-60000J0D01*
G01*
G37*
G36*
G01*
X83560000Y-63636000D02*
X83440000Y-63636000D01*
G75*
G02*
X83380000Y-63576000I0J60000D01*
G01*
X83380000Y-63024000D01*
G75*
G02*
X83440000Y-62964000I60000J0D01*
G01*
X83560000Y-62964000D01*
G75*
G02*
X83620000Y-63024000I0J-60000D01*
G01*
X83620000Y-63576000D01*
G75*
G02*
X83560000Y-63636000I-60000J0D01*
G01*
G37*
G36*
G01*
X84060000Y-63636000D02*
X83940000Y-63636000D01*
G75*
G02*
X83880000Y-63576000I0J60000D01*
G01*
X83880000Y-63024000D01*
G75*
G02*
X83940000Y-62964000I60000J0D01*
G01*
X84060000Y-62964000D01*
G75*
G02*
X84120000Y-63024000I0J-60000D01*
G01*
X84120000Y-63576000D01*
G75*
G02*
X84060000Y-63636000I-60000J0D01*
G01*
G37*
G36*
G01*
X84560000Y-63636000D02*
X84440000Y-63636000D01*
G75*
G02*
X84380000Y-63576000I0J60000D01*
G01*
X84380000Y-63024000D01*
G75*
G02*
X84440000Y-62964000I60000J0D01*
G01*
X84560000Y-62964000D01*
G75*
G02*
X84620000Y-63024000I0J-60000D01*
G01*
X84620000Y-63576000D01*
G75*
G02*
X84560000Y-63636000I-60000J0D01*
G01*
G37*
G36*
G01*
X85060000Y-63636000D02*
X84940000Y-63636000D01*
G75*
G02*
X84880000Y-63576000I0J60000D01*
G01*
X84880000Y-63024000D01*
G75*
G02*
X84940000Y-62964000I60000J0D01*
G01*
X85060000Y-62964000D01*
G75*
G02*
X85120000Y-63024000I0J-60000D01*
G01*
X85120000Y-63576000D01*
G75*
G02*
X85060000Y-63636000I-60000J0D01*
G01*
G37*
G36*
G01*
X86176000Y-64320000D02*
X85624000Y-64320000D01*
G75*
G02*
X85564000Y-64260000I0J60000D01*
G01*
X85564000Y-64140000D01*
G75*
G02*
X85624000Y-64080000I60000J0D01*
G01*
X86176000Y-64080000D01*
G75*
G02*
X86236000Y-64140000I0J-60000D01*
G01*
X86236000Y-64260000D01*
G75*
G02*
X86176000Y-64320000I-60000J0D01*
G01*
G37*
G36*
G01*
X86176000Y-64820000D02*
X85624000Y-64820000D01*
G75*
G02*
X85564000Y-64760000I0J60000D01*
G01*
X85564000Y-64640000D01*
G75*
G02*
X85624000Y-64580000I60000J0D01*
G01*
X86176000Y-64580000D01*
G75*
G02*
X86236000Y-64640000I0J-60000D01*
G01*
X86236000Y-64760000D01*
G75*
G02*
X86176000Y-64820000I-60000J0D01*
G01*
G37*
G36*
G01*
X86176000Y-65320000D02*
X85624000Y-65320000D01*
G75*
G02*
X85564000Y-65260000I0J60000D01*
G01*
X85564000Y-65140000D01*
G75*
G02*
X85624000Y-65080000I60000J0D01*
G01*
X86176000Y-65080000D01*
G75*
G02*
X86236000Y-65140000I0J-60000D01*
G01*
X86236000Y-65260000D01*
G75*
G02*
X86176000Y-65320000I-60000J0D01*
G01*
G37*
G36*
G01*
X86176000Y-65820000D02*
X85624000Y-65820000D01*
G75*
G02*
X85564000Y-65760000I0J60000D01*
G01*
X85564000Y-65640000D01*
G75*
G02*
X85624000Y-65580000I60000J0D01*
G01*
X86176000Y-65580000D01*
G75*
G02*
X86236000Y-65640000I0J-60000D01*
G01*
X86236000Y-65760000D01*
G75*
G02*
X86176000Y-65820000I-60000J0D01*
G01*
G37*
G36*
G01*
X86176000Y-66320000D02*
X85624000Y-66320000D01*
G75*
G02*
X85564000Y-66260000I0J60000D01*
G01*
X85564000Y-66140000D01*
G75*
G02*
X85624000Y-66080000I60000J0D01*
G01*
X86176000Y-66080000D01*
G75*
G02*
X86236000Y-66140000I0J-60000D01*
G01*
X86236000Y-66260000D01*
G75*
G02*
X86176000Y-66320000I-60000J0D01*
G01*
G37*
G36*
G01*
X85060000Y-67436000D02*
X84940000Y-67436000D01*
G75*
G02*
X84880000Y-67376000I0J60000D01*
G01*
X84880000Y-66824000D01*
G75*
G02*
X84940000Y-66764000I60000J0D01*
G01*
X85060000Y-66764000D01*
G75*
G02*
X85120000Y-66824000I0J-60000D01*
G01*
X85120000Y-67376000D01*
G75*
G02*
X85060000Y-67436000I-60000J0D01*
G01*
G37*
G36*
G01*
X84560000Y-67436000D02*
X84440000Y-67436000D01*
G75*
G02*
X84380000Y-67376000I0J60000D01*
G01*
X84380000Y-66824000D01*
G75*
G02*
X84440000Y-66764000I60000J0D01*
G01*
X84560000Y-66764000D01*
G75*
G02*
X84620000Y-66824000I0J-60000D01*
G01*
X84620000Y-67376000D01*
G75*
G02*
X84560000Y-67436000I-60000J0D01*
G01*
G37*
G36*
G01*
X84060000Y-67436000D02*
X83940000Y-67436000D01*
G75*
G02*
X83880000Y-67376000I0J60000D01*
G01*
X83880000Y-66824000D01*
G75*
G02*
X83940000Y-66764000I60000J0D01*
G01*
X84060000Y-66764000D01*
G75*
G02*
X84120000Y-66824000I0J-60000D01*
G01*
X84120000Y-67376000D01*
G75*
G02*
X84060000Y-67436000I-60000J0D01*
G01*
G37*
G36*
G01*
X83560000Y-67436000D02*
X83440000Y-67436000D01*
G75*
G02*
X83380000Y-67376000I0J60000D01*
G01*
X83380000Y-66824000D01*
G75*
G02*
X83440000Y-66764000I60000J0D01*
G01*
X83560000Y-66764000D01*
G75*
G02*
X83620000Y-66824000I0J-60000D01*
G01*
X83620000Y-67376000D01*
G75*
G02*
X83560000Y-67436000I-60000J0D01*
G01*
G37*
G36*
G01*
X83060000Y-67436000D02*
X82940000Y-67436000D01*
G75*
G02*
X82880000Y-67376000I0J60000D01*
G01*
X82880000Y-66824000D01*
G75*
G02*
X82940000Y-66764000I60000J0D01*
G01*
X83060000Y-66764000D01*
G75*
G02*
X83120000Y-66824000I0J-60000D01*
G01*
X83120000Y-67376000D01*
G75*
G02*
X83060000Y-67436000I-60000J0D01*
G01*
G37*
%TD*%
%TO.C,U3*%
G36*
G01*
X97835000Y-51139000D02*
X97835000Y-50851000D01*
G75*
G02*
X97979000Y-50707000I144000J0D01*
G01*
X99371000Y-50707000D01*
G75*
G02*
X99515000Y-50851000I0J-144000D01*
G01*
X99515000Y-51139000D01*
G75*
G02*
X99371000Y-51283000I-144000J0D01*
G01*
X97979000Y-51283000D01*
G75*
G02*
X97835000Y-51139000I0J144000D01*
G01*
G37*
G36*
G01*
X97835000Y-52409000D02*
X97835000Y-52121000D01*
G75*
G02*
X97979000Y-51977000I144000J0D01*
G01*
X99371000Y-51977000D01*
G75*
G02*
X99515000Y-52121000I0J-144000D01*
G01*
X99515000Y-52409000D01*
G75*
G02*
X99371000Y-52553000I-144000J0D01*
G01*
X97979000Y-52553000D01*
G75*
G02*
X97835000Y-52409000I0J144000D01*
G01*
G37*
G36*
G01*
X97835000Y-53679000D02*
X97835000Y-53391000D01*
G75*
G02*
X97979000Y-53247000I144000J0D01*
G01*
X99371000Y-53247000D01*
G75*
G02*
X99515000Y-53391000I0J-144000D01*
G01*
X99515000Y-53679000D01*
G75*
G02*
X99371000Y-53823000I-144000J0D01*
G01*
X97979000Y-53823000D01*
G75*
G02*
X97835000Y-53679000I0J144000D01*
G01*
G37*
G36*
G01*
X97835000Y-54949000D02*
X97835000Y-54661000D01*
G75*
G02*
X97979000Y-54517000I144000J0D01*
G01*
X99371000Y-54517000D01*
G75*
G02*
X99515000Y-54661000I0J-144000D01*
G01*
X99515000Y-54949000D01*
G75*
G02*
X99371000Y-55093000I-144000J0D01*
G01*
X97979000Y-55093000D01*
G75*
G02*
X97835000Y-54949000I0J144000D01*
G01*
G37*
G36*
G01*
X92685000Y-54949000D02*
X92685000Y-54661000D01*
G75*
G02*
X92829000Y-54517000I144000J0D01*
G01*
X94221000Y-54517000D01*
G75*
G02*
X94365000Y-54661000I0J-144000D01*
G01*
X94365000Y-54949000D01*
G75*
G02*
X94221000Y-55093000I-144000J0D01*
G01*
X92829000Y-55093000D01*
G75*
G02*
X92685000Y-54949000I0J144000D01*
G01*
G37*
G36*
G01*
X92685000Y-53679000D02*
X92685000Y-53391000D01*
G75*
G02*
X92829000Y-53247000I144000J0D01*
G01*
X94221000Y-53247000D01*
G75*
G02*
X94365000Y-53391000I0J-144000D01*
G01*
X94365000Y-53679000D01*
G75*
G02*
X94221000Y-53823000I-144000J0D01*
G01*
X92829000Y-53823000D01*
G75*
G02*
X92685000Y-53679000I0J144000D01*
G01*
G37*
G36*
G01*
X92685000Y-52409000D02*
X92685000Y-52121000D01*
G75*
G02*
X92829000Y-51977000I144000J0D01*
G01*
X94221000Y-51977000D01*
G75*
G02*
X94365000Y-52121000I0J-144000D01*
G01*
X94365000Y-52409000D01*
G75*
G02*
X94221000Y-52553000I-144000J0D01*
G01*
X92829000Y-52553000D01*
G75*
G02*
X92685000Y-52409000I0J144000D01*
G01*
G37*
G36*
G01*
X92685000Y-51139000D02*
X92685000Y-50851000D01*
G75*
G02*
X92829000Y-50707000I144000J0D01*
G01*
X94221000Y-50707000D01*
G75*
G02*
X94365000Y-50851000I0J-144000D01*
G01*
X94365000Y-51139000D01*
G75*
G02*
X94221000Y-51283000I-144000J0D01*
G01*
X92829000Y-51283000D01*
G75*
G02*
X92685000Y-51139000I0J144000D01*
G01*
G37*
%TD*%
%TO.C,U4*%
G36*
G01*
X97835000Y-45539000D02*
X97835000Y-45251000D01*
G75*
G02*
X97979000Y-45107000I144000J0D01*
G01*
X99371000Y-45107000D01*
G75*
G02*
X99515000Y-45251000I0J-144000D01*
G01*
X99515000Y-45539000D01*
G75*
G02*
X99371000Y-45683000I-144000J0D01*
G01*
X97979000Y-45683000D01*
G75*
G02*
X97835000Y-45539000I0J144000D01*
G01*
G37*
G36*
G01*
X97835000Y-46809000D02*
X97835000Y-46521000D01*
G75*
G02*
X97979000Y-46377000I144000J0D01*
G01*
X99371000Y-46377000D01*
G75*
G02*
X99515000Y-46521000I0J-144000D01*
G01*
X99515000Y-46809000D01*
G75*
G02*
X99371000Y-46953000I-144000J0D01*
G01*
X97979000Y-46953000D01*
G75*
G02*
X97835000Y-46809000I0J144000D01*
G01*
G37*
G36*
G01*
X97835000Y-48079000D02*
X97835000Y-47791000D01*
G75*
G02*
X97979000Y-47647000I144000J0D01*
G01*
X99371000Y-47647000D01*
G75*
G02*
X99515000Y-47791000I0J-144000D01*
G01*
X99515000Y-48079000D01*
G75*
G02*
X99371000Y-48223000I-144000J0D01*
G01*
X97979000Y-48223000D01*
G75*
G02*
X97835000Y-48079000I0J144000D01*
G01*
G37*
G36*
G01*
X97835000Y-49349000D02*
X97835000Y-49061000D01*
G75*
G02*
X97979000Y-48917000I144000J0D01*
G01*
X99371000Y-48917000D01*
G75*
G02*
X99515000Y-49061000I0J-144000D01*
G01*
X99515000Y-49349000D01*
G75*
G02*
X99371000Y-49493000I-144000J0D01*
G01*
X97979000Y-49493000D01*
G75*
G02*
X97835000Y-49349000I0J144000D01*
G01*
G37*
G36*
G01*
X92685000Y-49349000D02*
X92685000Y-49061000D01*
G75*
G02*
X92829000Y-48917000I144000J0D01*
G01*
X94221000Y-48917000D01*
G75*
G02*
X94365000Y-49061000I0J-144000D01*
G01*
X94365000Y-49349000D01*
G75*
G02*
X94221000Y-49493000I-144000J0D01*
G01*
X92829000Y-49493000D01*
G75*
G02*
X92685000Y-49349000I0J144000D01*
G01*
G37*
G36*
G01*
X92685000Y-48079000D02*
X92685000Y-47791000D01*
G75*
G02*
X92829000Y-47647000I144000J0D01*
G01*
X94221000Y-47647000D01*
G75*
G02*
X94365000Y-47791000I0J-144000D01*
G01*
X94365000Y-48079000D01*
G75*
G02*
X94221000Y-48223000I-144000J0D01*
G01*
X92829000Y-48223000D01*
G75*
G02*
X92685000Y-48079000I0J144000D01*
G01*
G37*
G36*
G01*
X92685000Y-46809000D02*
X92685000Y-46521000D01*
G75*
G02*
X92829000Y-46377000I144000J0D01*
G01*
X94221000Y-46377000D01*
G75*
G02*
X94365000Y-46521000I0J-144000D01*
G01*
X94365000Y-46809000D01*
G75*
G02*
X94221000Y-46953000I-144000J0D01*
G01*
X92829000Y-46953000D01*
G75*
G02*
X92685000Y-46809000I0J144000D01*
G01*
G37*
G36*
G01*
X92685000Y-45539000D02*
X92685000Y-45251000D01*
G75*
G02*
X92829000Y-45107000I144000J0D01*
G01*
X94221000Y-45107000D01*
G75*
G02*
X94365000Y-45251000I0J-144000D01*
G01*
X94365000Y-45539000D01*
G75*
G02*
X94221000Y-45683000I-144000J0D01*
G01*
X92829000Y-45683000D01*
G75*
G02*
X92685000Y-45539000I0J144000D01*
G01*
G37*
%TD*%
%TO.C,J1*%
G36*
G01*
X100950000Y-64947500D02*
X100950000Y-64482500D01*
G75*
G02*
X101182500Y-64250000I232500J0D01*
G01*
X101647500Y-64250000D01*
G75*
G02*
X101880000Y-64482500I0J-232500D01*
G01*
X101880000Y-64947500D01*
G75*
G02*
X101647500Y-65180000I-232500J0D01*
G01*
X101182500Y-65180000D01*
G75*
G02*
X100950000Y-64947500I0J232500D01*
G01*
G37*
G36*
G01*
X100950000Y-66097500D02*
X100950000Y-65632500D01*
G75*
G02*
X101182500Y-65400000I232500J0D01*
G01*
X101647500Y-65400000D01*
G75*
G02*
X101880000Y-65632500I0J-232500D01*
G01*
X101880000Y-66097500D01*
G75*
G02*
X101647500Y-66330000I-232500J0D01*
G01*
X101182500Y-66330000D01*
G75*
G02*
X100950000Y-66097500I0J232500D01*
G01*
G37*
G36*
G01*
X102100000Y-63797500D02*
X102100000Y-63332500D01*
G75*
G02*
X102332500Y-63100000I232500J0D01*
G01*
X102797500Y-63100000D01*
G75*
G02*
X103030000Y-63332500I0J-232500D01*
G01*
X103030000Y-63797500D01*
G75*
G02*
X102797500Y-64030000I-232500J0D01*
G01*
X102332500Y-64030000D01*
G75*
G02*
X102100000Y-63797500I0J232500D01*
G01*
G37*
G36*
G01*
X102100000Y-64947500D02*
X102100000Y-64482500D01*
G75*
G02*
X102332500Y-64250000I232500J0D01*
G01*
X102797500Y-64250000D01*
G75*
G02*
X103030000Y-64482500I0J-232500D01*
G01*
X103030000Y-64947500D01*
G75*
G02*
X102797500Y-65180000I-232500J0D01*
G01*
X102332500Y-65180000D01*
G75*
G02*
X102100000Y-64947500I0J232500D01*
G01*
G37*
G36*
G01*
X102100000Y-66097500D02*
X102100000Y-65632500D01*
G75*
G02*
X102332500Y-65400000I232500J0D01*
G01*
X102797500Y-65400000D01*
G75*
G02*
X103030000Y-65632500I0J-232500D01*
G01*
X103030000Y-66097500D01*
G75*
G02*
X102797500Y-66330000I-232500J0D01*
G01*
X102332500Y-66330000D01*
G75*
G02*
X102100000Y-66097500I0J232500D01*
G01*
G37*
G36*
G01*
X103250000Y-63797500D02*
X103250000Y-63332500D01*
G75*
G02*
X103482500Y-63100000I232500J0D01*
G01*
X103947500Y-63100000D01*
G75*
G02*
X104180000Y-63332500I0J-232500D01*
G01*
X104180000Y-63797500D01*
G75*
G02*
X103947500Y-64030000I-232500J0D01*
G01*
X103482500Y-64030000D01*
G75*
G02*
X103250000Y-63797500I0J232500D01*
G01*
G37*
G36*
G01*
X103250000Y-64947500D02*
X103250000Y-64482500D01*
G75*
G02*
X103482500Y-64250000I232500J0D01*
G01*
X103947500Y-64250000D01*
G75*
G02*
X104180000Y-64482500I0J-232500D01*
G01*
X104180000Y-64947500D01*
G75*
G02*
X103947500Y-65180000I-232500J0D01*
G01*
X103482500Y-65180000D01*
G75*
G02*
X103250000Y-64947500I0J232500D01*
G01*
G37*
G36*
G01*
X103250000Y-66097500D02*
X103250000Y-65632500D01*
G75*
G02*
X103482500Y-65400000I232500J0D01*
G01*
X103947500Y-65400000D01*
G75*
G02*
X104180000Y-65632500I0J-232500D01*
G01*
X104180000Y-66097500D01*
G75*
G02*
X103947500Y-66330000I-232500J0D01*
G01*
X103482500Y-66330000D01*
G75*
G02*
X103250000Y-66097500I0J232500D01*
G01*
G37*
G36*
G01*
X99800000Y-63797500D02*
X99800000Y-63332500D01*
G75*
G02*
X100032500Y-63100000I232500J0D01*
G01*
X100497500Y-63100000D01*
G75*
G02*
X100730000Y-63332500I0J-232500D01*
G01*
X100730000Y-63797500D01*
G75*
G02*
X100497500Y-64030000I-232500J0D01*
G01*
X100032500Y-64030000D01*
G75*
G02*
X99800000Y-63797500I0J232500D01*
G01*
G37*
G36*
G01*
X99800000Y-64947500D02*
X99800000Y-64482500D01*
G75*
G02*
X100032500Y-64250000I232500J0D01*
G01*
X100497500Y-64250000D01*
G75*
G02*
X100730000Y-64482500I0J-232500D01*
G01*
X100730000Y-64947500D01*
G75*
G02*
X100497500Y-65180000I-232500J0D01*
G01*
X100032500Y-65180000D01*
G75*
G02*
X99800000Y-64947500I0J232500D01*
G01*
G37*
G36*
G01*
X99800000Y-66097500D02*
X99800000Y-65632500D01*
G75*
G02*
X100032500Y-65400000I232500J0D01*
G01*
X100497500Y-65400000D01*
G75*
G02*
X100730000Y-65632500I0J-232500D01*
G01*
X100730000Y-66097500D01*
G75*
G02*
X100497500Y-66330000I-232500J0D01*
G01*
X100032500Y-66330000D01*
G75*
G02*
X99800000Y-66097500I0J232500D01*
G01*
G37*
G36*
G01*
X100950000Y-63797500D02*
X100950000Y-63332500D01*
G75*
G02*
X101182500Y-63100000I232500J0D01*
G01*
X101647500Y-63100000D01*
G75*
G02*
X101880000Y-63332500I0J-232500D01*
G01*
X101880000Y-63797500D01*
G75*
G02*
X101647500Y-64030000I-232500J0D01*
G01*
X101182500Y-64030000D01*
G75*
G02*
X100950000Y-63797500I0J232500D01*
G01*
G37*
D13*
X99600000Y-61140000D03*
X104400000Y-61140000D03*
G36*
G01*
X102106000Y-61615200D02*
X102106000Y-60664800D01*
G75*
G02*
X102178000Y-60592800I72000J0D01*
G01*
X102322000Y-60592800D01*
G75*
G02*
X102394000Y-60664800I0J-72000D01*
G01*
X102394000Y-61615200D01*
G75*
G02*
X102322000Y-61687200I-72000J0D01*
G01*
X102178000Y-61687200D01*
G75*
G02*
X102106000Y-61615200I0J72000D01*
G01*
G37*
G36*
G01*
X101606000Y-61615200D02*
X101606000Y-60664800D01*
G75*
G02*
X101678000Y-60592800I72000J0D01*
G01*
X101822000Y-60592800D01*
G75*
G02*
X101894000Y-60664800I0J-72000D01*
G01*
X101894000Y-61615200D01*
G75*
G02*
X101822000Y-61687200I-72000J0D01*
G01*
X101678000Y-61687200D01*
G75*
G02*
X101606000Y-61615200I0J72000D01*
G01*
G37*
G36*
G01*
X102606000Y-61615200D02*
X102606000Y-60664800D01*
G75*
G02*
X102678000Y-60592800I72000J0D01*
G01*
X102822000Y-60592800D01*
G75*
G02*
X102894000Y-60664800I0J-72000D01*
G01*
X102894000Y-61615200D01*
G75*
G02*
X102822000Y-61687200I-72000J0D01*
G01*
X102678000Y-61687200D01*
G75*
G02*
X102606000Y-61615200I0J72000D01*
G01*
G37*
G36*
G01*
X101106000Y-61615200D02*
X101106000Y-60664800D01*
G75*
G02*
X101178000Y-60592800I72000J0D01*
G01*
X101322000Y-60592800D01*
G75*
G02*
X101394000Y-60664800I0J-72000D01*
G01*
X101394000Y-61615200D01*
G75*
G02*
X101322000Y-61687200I-72000J0D01*
G01*
X101178000Y-61687200D01*
G75*
G02*
X101106000Y-61615200I0J72000D01*
G01*
G37*
G36*
G01*
X103106000Y-61615200D02*
X103106000Y-60664800D01*
G75*
G02*
X103178000Y-60592800I72000J0D01*
G01*
X103322000Y-60592800D01*
G75*
G02*
X103394000Y-60664800I0J-72000D01*
G01*
X103394000Y-61615200D01*
G75*
G02*
X103322000Y-61687200I-72000J0D01*
G01*
X103178000Y-61687200D01*
G75*
G02*
X103106000Y-61615200I0J72000D01*
G01*
G37*
G36*
G01*
X100606000Y-61615200D02*
X100606000Y-60664800D01*
G75*
G02*
X100678000Y-60592800I72000J0D01*
G01*
X100822000Y-60592800D01*
G75*
G02*
X100894000Y-60664800I0J-72000D01*
G01*
X100894000Y-61615200D01*
G75*
G02*
X100822000Y-61687200I-72000J0D01*
G01*
X100678000Y-61687200D01*
G75*
G02*
X100606000Y-61615200I0J72000D01*
G01*
G37*
G36*
G01*
X103606000Y-61615200D02*
X103606000Y-60664800D01*
G75*
G02*
X103678000Y-60592800I72000J0D01*
G01*
X103822000Y-60592800D01*
G75*
G02*
X103894000Y-60664800I0J-72000D01*
G01*
X103894000Y-61615200D01*
G75*
G02*
X103822000Y-61687200I-72000J0D01*
G01*
X103678000Y-61687200D01*
G75*
G02*
X103606000Y-61615200I0J72000D01*
G01*
G37*
G36*
G01*
X100106000Y-61615200D02*
X100106000Y-60664800D01*
G75*
G02*
X100178000Y-60592800I72000J0D01*
G01*
X100322000Y-60592800D01*
G75*
G02*
X100394000Y-60664800I0J-72000D01*
G01*
X100394000Y-61615200D01*
G75*
G02*
X100322000Y-61687200I-72000J0D01*
G01*
X100178000Y-61687200D01*
G75*
G02*
X100106000Y-61615200I0J72000D01*
G01*
G37*
X105200000Y-61140000D03*
X98800000Y-61140000D03*
%TD*%
%TO.C,R4*%
G36*
G01*
X99764000Y-42059000D02*
X99236000Y-42059000D01*
G75*
G02*
X99044000Y-41867000I0J192000D01*
G01*
X99044000Y-41483000D01*
G75*
G02*
X99236000Y-41291000I192000J0D01*
G01*
X99764000Y-41291000D01*
G75*
G02*
X99956000Y-41483000I0J-192000D01*
G01*
X99956000Y-41867000D01*
G75*
G02*
X99764000Y-42059000I-192000J0D01*
G01*
G37*
G36*
G01*
X99764000Y-43709000D02*
X99236000Y-43709000D01*
G75*
G02*
X99044000Y-43517000I0J192000D01*
G01*
X99044000Y-43133000D01*
G75*
G02*
X99236000Y-42941000I192000J0D01*
G01*
X99764000Y-42941000D01*
G75*
G02*
X99956000Y-43133000I0J-192000D01*
G01*
X99956000Y-43517000D01*
G75*
G02*
X99764000Y-43709000I-192000J0D01*
G01*
G37*
%TD*%
%TO.C,C3*%
G36*
G01*
X98060000Y-42843000D02*
X98540000Y-42843000D01*
G75*
G02*
X98756000Y-43059000I0J-216000D01*
G01*
X98756000Y-43491000D01*
G75*
G02*
X98540000Y-43707000I-216000J0D01*
G01*
X98060000Y-43707000D01*
G75*
G02*
X97844000Y-43491000I0J216000D01*
G01*
X97844000Y-43059000D01*
G75*
G02*
X98060000Y-42843000I216000J0D01*
G01*
G37*
G36*
G01*
X98060000Y-41293000D02*
X98540000Y-41293000D01*
G75*
G02*
X98756000Y-41509000I0J-216000D01*
G01*
X98756000Y-41941000D01*
G75*
G02*
X98540000Y-42157000I-216000J0D01*
G01*
X98060000Y-42157000D01*
G75*
G02*
X97844000Y-41941000I0J216000D01*
G01*
X97844000Y-41509000D01*
G75*
G02*
X98060000Y-41293000I216000J0D01*
G01*
G37*
%TD*%
%TO.C,U1*%
G36*
G01*
X79450000Y-46447500D02*
X79450000Y-45982500D01*
G75*
G02*
X79682500Y-45750000I232500J0D01*
G01*
X80147500Y-45750000D01*
G75*
G02*
X80380000Y-45982500I0J-232500D01*
G01*
X80380000Y-46447500D01*
G75*
G02*
X80147500Y-46680000I-232500J0D01*
G01*
X79682500Y-46680000D01*
G75*
G02*
X79450000Y-46447500I0J232500D01*
G01*
G37*
G36*
G01*
X78300000Y-49897500D02*
X78300000Y-49432500D01*
G75*
G02*
X78532500Y-49200000I232500J0D01*
G01*
X78997500Y-49200000D01*
G75*
G02*
X79230000Y-49432500I0J-232500D01*
G01*
X79230000Y-49897500D01*
G75*
G02*
X78997500Y-50130000I-232500J0D01*
G01*
X78532500Y-50130000D01*
G75*
G02*
X78300000Y-49897500I0J232500D01*
G01*
G37*
G36*
G01*
X78300000Y-48747500D02*
X78300000Y-48282500D01*
G75*
G02*
X78532500Y-48050000I232500J0D01*
G01*
X78997500Y-48050000D01*
G75*
G02*
X79230000Y-48282500I0J-232500D01*
G01*
X79230000Y-48747500D01*
G75*
G02*
X78997500Y-48980000I-232500J0D01*
G01*
X78532500Y-48980000D01*
G75*
G02*
X78300000Y-48747500I0J232500D01*
G01*
G37*
G36*
G01*
X78300000Y-47597500D02*
X78300000Y-47132500D01*
G75*
G02*
X78532500Y-46900000I232500J0D01*
G01*
X78997500Y-46900000D01*
G75*
G02*
X79230000Y-47132500I0J-232500D01*
G01*
X79230000Y-47597500D01*
G75*
G02*
X78997500Y-47830000I-232500J0D01*
G01*
X78532500Y-47830000D01*
G75*
G02*
X78300000Y-47597500I0J232500D01*
G01*
G37*
G36*
G01*
X78300000Y-46447500D02*
X78300000Y-45982500D01*
G75*
G02*
X78532500Y-45750000I232500J0D01*
G01*
X78997500Y-45750000D01*
G75*
G02*
X79230000Y-45982500I0J-232500D01*
G01*
X79230000Y-46447500D01*
G75*
G02*
X78997500Y-46680000I-232500J0D01*
G01*
X78532500Y-46680000D01*
G75*
G02*
X78300000Y-46447500I0J232500D01*
G01*
G37*
G36*
G01*
X81750000Y-49897500D02*
X81750000Y-49432500D01*
G75*
G02*
X81982500Y-49200000I232500J0D01*
G01*
X82447500Y-49200000D01*
G75*
G02*
X82680000Y-49432500I0J-232500D01*
G01*
X82680000Y-49897500D01*
G75*
G02*
X82447500Y-50130000I-232500J0D01*
G01*
X81982500Y-50130000D01*
G75*
G02*
X81750000Y-49897500I0J232500D01*
G01*
G37*
G36*
G01*
X81750000Y-48747500D02*
X81750000Y-48282500D01*
G75*
G02*
X81982500Y-48050000I232500J0D01*
G01*
X82447500Y-48050000D01*
G75*
G02*
X82680000Y-48282500I0J-232500D01*
G01*
X82680000Y-48747500D01*
G75*
G02*
X82447500Y-48980000I-232500J0D01*
G01*
X81982500Y-48980000D01*
G75*
G02*
X81750000Y-48747500I0J232500D01*
G01*
G37*
G36*
G01*
X81750000Y-47597500D02*
X81750000Y-47132500D01*
G75*
G02*
X81982500Y-46900000I232500J0D01*
G01*
X82447500Y-46900000D01*
G75*
G02*
X82680000Y-47132500I0J-232500D01*
G01*
X82680000Y-47597500D01*
G75*
G02*
X82447500Y-47830000I-232500J0D01*
G01*
X81982500Y-47830000D01*
G75*
G02*
X81750000Y-47597500I0J232500D01*
G01*
G37*
G36*
G01*
X81750000Y-46447500D02*
X81750000Y-45982500D01*
G75*
G02*
X81982500Y-45750000I232500J0D01*
G01*
X82447500Y-45750000D01*
G75*
G02*
X82680000Y-45982500I0J-232500D01*
G01*
X82680000Y-46447500D01*
G75*
G02*
X82447500Y-46680000I-232500J0D01*
G01*
X81982500Y-46680000D01*
G75*
G02*
X81750000Y-46447500I0J232500D01*
G01*
G37*
G36*
G01*
X80600000Y-49897500D02*
X80600000Y-49432500D01*
G75*
G02*
X80832500Y-49200000I232500J0D01*
G01*
X81297500Y-49200000D01*
G75*
G02*
X81530000Y-49432500I0J-232500D01*
G01*
X81530000Y-49897500D01*
G75*
G02*
X81297500Y-50130000I-232500J0D01*
G01*
X80832500Y-50130000D01*
G75*
G02*
X80600000Y-49897500I0J232500D01*
G01*
G37*
G36*
G01*
X80600000Y-48747500D02*
X80600000Y-48282500D01*
G75*
G02*
X80832500Y-48050000I232500J0D01*
G01*
X81297500Y-48050000D01*
G75*
G02*
X81530000Y-48282500I0J-232500D01*
G01*
X81530000Y-48747500D01*
G75*
G02*
X81297500Y-48980000I-232500J0D01*
G01*
X80832500Y-48980000D01*
G75*
G02*
X80600000Y-48747500I0J232500D01*
G01*
G37*
G36*
G01*
X80600000Y-47597500D02*
X80600000Y-47132500D01*
G75*
G02*
X80832500Y-46900000I232500J0D01*
G01*
X81297500Y-46900000D01*
G75*
G02*
X81530000Y-47132500I0J-232500D01*
G01*
X81530000Y-47597500D01*
G75*
G02*
X81297500Y-47830000I-232500J0D01*
G01*
X80832500Y-47830000D01*
G75*
G02*
X80600000Y-47597500I0J232500D01*
G01*
G37*
G36*
G01*
X80600000Y-46447500D02*
X80600000Y-45982500D01*
G75*
G02*
X80832500Y-45750000I232500J0D01*
G01*
X81297500Y-45750000D01*
G75*
G02*
X81530000Y-45982500I0J-232500D01*
G01*
X81530000Y-46447500D01*
G75*
G02*
X81297500Y-46680000I-232500J0D01*
G01*
X80832500Y-46680000D01*
G75*
G02*
X80600000Y-46447500I0J232500D01*
G01*
G37*
G36*
G01*
X79450000Y-49897500D02*
X79450000Y-49432500D01*
G75*
G02*
X79682500Y-49200000I232500J0D01*
G01*
X80147500Y-49200000D01*
G75*
G02*
X80380000Y-49432500I0J-232500D01*
G01*
X80380000Y-49897500D01*
G75*
G02*
X80147500Y-50130000I-232500J0D01*
G01*
X79682500Y-50130000D01*
G75*
G02*
X79450000Y-49897500I0J232500D01*
G01*
G37*
G36*
G01*
X79450000Y-48747500D02*
X79450000Y-48282500D01*
G75*
G02*
X79682500Y-48050000I232500J0D01*
G01*
X80147500Y-48050000D01*
G75*
G02*
X80380000Y-48282500I0J-232500D01*
G01*
X80380000Y-48747500D01*
G75*
G02*
X80147500Y-48980000I-232500J0D01*
G01*
X79682500Y-48980000D01*
G75*
G02*
X79450000Y-48747500I0J232500D01*
G01*
G37*
G36*
G01*
X79450000Y-47597500D02*
X79450000Y-47132500D01*
G75*
G02*
X79682500Y-46900000I232500J0D01*
G01*
X80147500Y-46900000D01*
G75*
G02*
X80380000Y-47132500I0J-232500D01*
G01*
X80380000Y-47597500D01*
G75*
G02*
X80147500Y-47830000I-232500J0D01*
G01*
X79682500Y-47830000D01*
G75*
G02*
X79450000Y-47597500I0J232500D01*
G01*
G37*
D14*
X90000000Y-40445000D03*
X90000000Y-41715000D03*
X90000000Y-42985000D03*
X90000000Y-44255000D03*
X90000000Y-45525000D03*
X90000000Y-46795000D03*
X90000000Y-48065000D03*
X90000000Y-49335000D03*
X90000000Y-50605000D03*
X90000000Y-51875000D03*
X90000000Y-53145000D03*
X90000000Y-54415000D03*
X90000000Y-55685000D03*
X90000000Y-56955000D03*
D15*
X87215000Y-57955000D03*
X85945000Y-57955000D03*
X84675000Y-57955000D03*
X83405000Y-57955000D03*
X82135000Y-57955000D03*
X80865000Y-57955000D03*
X79595000Y-57955000D03*
X78325000Y-57955000D03*
X77055000Y-57955000D03*
X75785000Y-57955000D03*
D14*
X73000000Y-56955000D03*
X73000000Y-55685000D03*
X73000000Y-54415000D03*
X73000000Y-53145000D03*
X73000000Y-51875000D03*
X73000000Y-50605000D03*
X73000000Y-49335000D03*
X73000000Y-48065000D03*
X73000000Y-46795000D03*
X73000000Y-45525000D03*
X73000000Y-44255000D03*
X73000000Y-42985000D03*
X73000000Y-41715000D03*
X73000000Y-40445000D03*
%TD*%
%TO.C,R7*%
G36*
G01*
X97859000Y-38836000D02*
X97859000Y-39364000D01*
G75*
G02*
X97667000Y-39556000I-192000J0D01*
G01*
X97283000Y-39556000D01*
G75*
G02*
X97091000Y-39364000I0J192000D01*
G01*
X97091000Y-38836000D01*
G75*
G02*
X97283000Y-38644000I192000J0D01*
G01*
X97667000Y-38644000D01*
G75*
G02*
X97859000Y-38836000I0J-192000D01*
G01*
G37*
G36*
G01*
X99509000Y-38836000D02*
X99509000Y-39364000D01*
G75*
G02*
X99317000Y-39556000I-192000J0D01*
G01*
X98933000Y-39556000D01*
G75*
G02*
X98741000Y-39364000I0J192000D01*
G01*
X98741000Y-38836000D01*
G75*
G02*
X98933000Y-38644000I192000J0D01*
G01*
X99317000Y-38644000D01*
G75*
G02*
X99509000Y-38836000I0J-192000D01*
G01*
G37*
%TD*%
%TO.C,R3*%
G36*
G01*
X93559000Y-56236000D02*
X93559000Y-56764000D01*
G75*
G02*
X93367000Y-56956000I-192000J0D01*
G01*
X92983000Y-56956000D01*
G75*
G02*
X92791000Y-56764000I0J192000D01*
G01*
X92791000Y-56236000D01*
G75*
G02*
X92983000Y-56044000I192000J0D01*
G01*
X93367000Y-56044000D01*
G75*
G02*
X93559000Y-56236000I0J-192000D01*
G01*
G37*
G36*
G01*
X95209000Y-56236000D02*
X95209000Y-56764000D01*
G75*
G02*
X95017000Y-56956000I-192000J0D01*
G01*
X94633000Y-56956000D01*
G75*
G02*
X94441000Y-56764000I0J192000D01*
G01*
X94441000Y-56236000D01*
G75*
G02*
X94633000Y-56044000I192000J0D01*
G01*
X95017000Y-56044000D01*
G75*
G02*
X95209000Y-56236000I0J-192000D01*
G01*
G37*
%TD*%
%TO.C,R2*%
G36*
G01*
X97059000Y-56236000D02*
X97059000Y-56764000D01*
G75*
G02*
X96867000Y-56956000I-192000J0D01*
G01*
X96483000Y-56956000D01*
G75*
G02*
X96291000Y-56764000I0J192000D01*
G01*
X96291000Y-56236000D01*
G75*
G02*
X96483000Y-56044000I192000J0D01*
G01*
X96867000Y-56044000D01*
G75*
G02*
X97059000Y-56236000I0J-192000D01*
G01*
G37*
G36*
G01*
X98709000Y-56236000D02*
X98709000Y-56764000D01*
G75*
G02*
X98517000Y-56956000I-192000J0D01*
G01*
X98133000Y-56956000D01*
G75*
G02*
X97941000Y-56764000I0J192000D01*
G01*
X97941000Y-56236000D01*
G75*
G02*
X98133000Y-56044000I192000J0D01*
G01*
X98517000Y-56044000D01*
G75*
G02*
X98709000Y-56236000I0J-192000D01*
G01*
G37*
%TD*%
%TO.C,R1*%
G36*
G01*
X92636000Y-42941000D02*
X93164000Y-42941000D01*
G75*
G02*
X93356000Y-43133000I0J-192000D01*
G01*
X93356000Y-43517000D01*
G75*
G02*
X93164000Y-43709000I-192000J0D01*
G01*
X92636000Y-43709000D01*
G75*
G02*
X92444000Y-43517000I0J192000D01*
G01*
X92444000Y-43133000D01*
G75*
G02*
X92636000Y-42941000I192000J0D01*
G01*
G37*
G36*
G01*
X92636000Y-41291000D02*
X93164000Y-41291000D01*
G75*
G02*
X93356000Y-41483000I0J-192000D01*
G01*
X93356000Y-41867000D01*
G75*
G02*
X93164000Y-42059000I-192000J0D01*
G01*
X92636000Y-42059000D01*
G75*
G02*
X92444000Y-41867000I0J192000D01*
G01*
X92444000Y-41483000D01*
G75*
G02*
X92636000Y-41291000I192000J0D01*
G01*
G37*
%TD*%
%TO.C,D3*%
G36*
G01*
X97803500Y-59100000D02*
X97803500Y-57900000D01*
G75*
G02*
X98043500Y-57660000I240000J0D01*
G01*
X98931500Y-57660000D01*
G75*
G02*
X99171500Y-57900000I0J-240000D01*
G01*
X99171500Y-59100000D01*
G75*
G02*
X98931500Y-59340000I-240000J0D01*
G01*
X98043500Y-59340000D01*
G75*
G02*
X97803500Y-59100000I0J240000D01*
G01*
G37*
G36*
G01*
X94828500Y-59100000D02*
X94828500Y-57900000D01*
G75*
G02*
X95068500Y-57660000I240000J0D01*
G01*
X95956500Y-57660000D01*
G75*
G02*
X96196500Y-57900000I0J-240000D01*
G01*
X96196500Y-59100000D01*
G75*
G02*
X95956500Y-59340000I-240000J0D01*
G01*
X95068500Y-59340000D01*
G75*
G02*
X94828500Y-59100000I0J240000D01*
G01*
G37*
%TD*%
%TO.C,C2*%
G36*
G01*
X94340000Y-42157000D02*
X93860000Y-42157000D01*
G75*
G02*
X93644000Y-41941000I0J216000D01*
G01*
X93644000Y-41509000D01*
G75*
G02*
X93860000Y-41293000I216000J0D01*
G01*
X94340000Y-41293000D01*
G75*
G02*
X94556000Y-41509000I0J-216000D01*
G01*
X94556000Y-41941000D01*
G75*
G02*
X94340000Y-42157000I-216000J0D01*
G01*
G37*
G36*
G01*
X94340000Y-43707000D02*
X93860000Y-43707000D01*
G75*
G02*
X93644000Y-43491000I0J216000D01*
G01*
X93644000Y-43059000D01*
G75*
G02*
X93860000Y-42843000I216000J0D01*
G01*
X94340000Y-42843000D01*
G75*
G02*
X94556000Y-43059000I0J-216000D01*
G01*
X94556000Y-43491000D01*
G75*
G02*
X94340000Y-43707000I-216000J0D01*
G01*
G37*
%TD*%
%TO.C,C1*%
G36*
G01*
X83657000Y-61960000D02*
X83657000Y-62440000D01*
G75*
G02*
X83441000Y-62656000I-216000J0D01*
G01*
X83009000Y-62656000D01*
G75*
G02*
X82793000Y-62440000I0J216000D01*
G01*
X82793000Y-61960000D01*
G75*
G02*
X83009000Y-61744000I216000J0D01*
G01*
X83441000Y-61744000D01*
G75*
G02*
X83657000Y-61960000I0J-216000D01*
G01*
G37*
G36*
G01*
X85207000Y-61960000D02*
X85207000Y-62440000D01*
G75*
G02*
X84991000Y-62656000I-216000J0D01*
G01*
X84559000Y-62656000D01*
G75*
G02*
X84343000Y-62440000I0J216000D01*
G01*
X84343000Y-61960000D01*
G75*
G02*
X84559000Y-61744000I216000J0D01*
G01*
X84991000Y-61744000D01*
G75*
G02*
X85207000Y-61960000I0J-216000D01*
G01*
G37*
%TD*%
M02*
