%TF.GenerationSoftware,KiCad,Pcbnew,(5.1.9-0-10_14)*%
%TF.CreationDate,2021-06-19T10:39:41+01:00*%
%TF.ProjectId,Bell,42656c6c-2e6b-4696-9361-645f70636258,1*%
%TF.SameCoordinates,Original*%
%TF.FileFunction,Soldermask,Bot*%
%TF.FilePolarity,Negative*%
%FSLAX46Y46*%
G04 Gerber Fmt 4.6, Leading zero omitted, Abs format (unit mm)*
G04 Created by KiCad (PCBNEW (5.1.9-0-10_14)) date 2021-06-19 10:39:41*
%MOMM*%
%LPD*%
G01*
G04 APERTURE LIST*
%ADD10C,0.100000*%
%ADD11C,1.500000*%
%ADD12C,1.750000*%
%ADD13C,0.350000*%
%ADD14O,1.850000X1.700000*%
%ADD15C,5.500000*%
%ADD16O,1.700000X1.850000*%
G04 APERTURE END LIST*
D10*
%TO.C,U3*%
G36*
X72600000Y-45400000D02*
G01*
X72600000Y-39600000D01*
X78400000Y-39600000D01*
X78400000Y-45400000D01*
X72600000Y-45400000D01*
G37*
X72600000Y-45400000D02*
X72600000Y-39600000D01*
X78400000Y-39600000D01*
X78400000Y-45400000D01*
X72600000Y-45400000D01*
%TD*%
D11*
%TO.C,J1*%
X106320000Y-65890000D03*
X97680000Y-65890000D03*
D12*
X106320000Y-61720000D03*
X97680000Y-61720000D03*
%TD*%
D13*
%TO.C,U2*%
X83500000Y-63500000D03*
%TD*%
D14*
%TO.C,J2*%
X101400000Y-35500000D03*
X101400000Y-38000000D03*
X101400000Y-40500000D03*
X101400000Y-43000000D03*
X101400000Y-45500000D03*
X101400000Y-48000000D03*
X101400000Y-50500000D03*
X101400000Y-53000000D03*
X101400000Y-55500000D03*
G36*
G01*
X102075000Y-58850000D02*
X100725000Y-58850000D01*
G75*
G02*
X100475000Y-58600000I0J250000D01*
G01*
X100475000Y-57400000D01*
G75*
G02*
X100725000Y-57150000I250000J0D01*
G01*
X102075000Y-57150000D01*
G75*
G02*
X102325000Y-57400000I0J-250000D01*
G01*
X102325000Y-58600000D01*
G75*
G02*
X102075000Y-58850000I-250000J0D01*
G01*
G37*
%TD*%
D15*
%TO.C,U4*%
X80800000Y-56900000D03*
%TD*%
D16*
%TO.C,J4*%
X77250000Y-61000000D03*
G36*
G01*
X73900000Y-61675000D02*
X73900000Y-60325000D01*
G75*
G02*
X74150000Y-60075000I250000J0D01*
G01*
X75350000Y-60075000D01*
G75*
G02*
X75600000Y-60325000I0J-250000D01*
G01*
X75600000Y-61675000D01*
G75*
G02*
X75350000Y-61925000I-250000J0D01*
G01*
X74150000Y-61925000D01*
G75*
G02*
X73900000Y-61675000I0J250000D01*
G01*
G37*
%TD*%
M02*
