%TF.GenerationSoftware,KiCad,Pcbnew,(5.1.9-0-10_14)*%
%TF.CreationDate,2021-08-06T07:11:40+01:00*%
%TF.ProjectId,Bell,42656c6c-2e6b-4696-9361-645f70636258,2*%
%TF.SameCoordinates,Original*%
%TF.FileFunction,Copper,L1,Top*%
%TF.FilePolarity,Positive*%
%FSLAX46Y46*%
G04 Gerber Fmt 4.6, Leading zero omitted, Abs format (unit mm)*
G04 Created by KiCad (PCBNEW (5.1.9-0-10_14)) date 2021-08-06 07:11:40*
%MOMM*%
%LPD*%
G01*
G04 APERTURE LIST*
%TA.AperFunction,NonConductor*%
%ADD10C,0.300000*%
%TD*%
%TA.AperFunction,EtchedComponent*%
%ADD11C,0.250000*%
%TD*%
%TA.AperFunction,EtchedComponent*%
%ADD12C,0.500000*%
%TD*%
%TA.AperFunction,SMDPad,CuDef*%
%ADD13R,0.650000X0.400000*%
%TD*%
%TA.AperFunction,SMDPad,CuDef*%
%ADD14R,0.850000X0.500000*%
%TD*%
%TA.AperFunction,ComponentPad*%
%ADD15C,0.350000*%
%TD*%
%TA.AperFunction,SMDPad,CuDef*%
%ADD16C,0.100000*%
%TD*%
%TA.AperFunction,SMDPad,CuDef*%
%ADD17R,5.000000X5.490000*%
%TD*%
%TA.AperFunction,SMDPad,CuDef*%
%ADD18R,0.600000X1.140000*%
%TD*%
%TA.AperFunction,ComponentPad*%
%ADD19C,1.250000*%
%TD*%
%TA.AperFunction,ComponentPad*%
%ADD20C,1.500000*%
%TD*%
%TA.AperFunction,SMDPad,CuDef*%
%ADD21R,0.300000X1.140000*%
%TD*%
%TA.AperFunction,ComponentPad*%
%ADD22C,0.600000*%
%TD*%
%TA.AperFunction,ComponentPad*%
%ADD23O,1.850000X1.700000*%
%TD*%
%TA.AperFunction,SMDPad,CuDef*%
%ADD24R,2.000000X0.900000*%
%TD*%
%TA.AperFunction,SMDPad,CuDef*%
%ADD25R,0.900000X2.000000*%
%TD*%
%TA.AperFunction,SMDPad,CuDef*%
%ADD26R,5.000000X5.000000*%
%TD*%
%TA.AperFunction,SMDPad,CuDef*%
%ADD27R,0.500000X4.000000*%
%TD*%
%TA.AperFunction,SMDPad,CuDef*%
%ADD28R,0.600000X1.100000*%
%TD*%
%TA.AperFunction,SMDPad,CuDef*%
%ADD29R,1.425000X3.700000*%
%TD*%
%TA.AperFunction,ComponentPad*%
%ADD30O,1.700000X1.850000*%
%TD*%
%TA.AperFunction,ViaPad*%
%ADD31C,0.800000*%
%TD*%
%TA.AperFunction,Conductor*%
%ADD32C,0.250000*%
%TD*%
%TA.AperFunction,Conductor*%
%ADD33C,0.500000*%
%TD*%
%TA.AperFunction,Conductor*%
%ADD34C,0.300000*%
%TD*%
%TA.AperFunction,Conductor*%
%ADD35C,0.290000*%
%TD*%
%TA.AperFunction,Conductor*%
%ADD36C,0.254000*%
%TD*%
%TA.AperFunction,Conductor*%
%ADD37C,0.100000*%
%TD*%
G04 APERTURE END LIST*
D10*
X105378571Y-52685714D02*
X106378571Y-52400000D01*
X105664285Y-52114285D01*
X106378571Y-51828571D01*
X105378571Y-51542857D01*
X105378571Y-51114285D02*
X106378571Y-50828571D01*
X105664285Y-50542857D01*
X106378571Y-50257142D01*
X105378571Y-49971428D01*
X105378571Y-49542857D02*
X106378571Y-49257142D01*
X105664285Y-48971428D01*
X106378571Y-48685714D01*
X105378571Y-48400000D01*
X106235714Y-47828571D02*
X106307142Y-47757142D01*
X106378571Y-47828571D01*
X106307142Y-47900000D01*
X106235714Y-47828571D01*
X106378571Y-47828571D01*
X106378571Y-47114285D02*
X105378571Y-47114285D01*
X105521428Y-47114285D02*
X105450000Y-47042857D01*
X105378571Y-46900000D01*
X105378571Y-46685714D01*
X105450000Y-46542857D01*
X105592857Y-46471428D01*
X106378571Y-46471428D01*
X105592857Y-46471428D02*
X105450000Y-46400000D01*
X105378571Y-46257142D01*
X105378571Y-46042857D01*
X105450000Y-45900000D01*
X105592857Y-45828571D01*
X106378571Y-45828571D01*
X106307142Y-44542857D02*
X106378571Y-44685714D01*
X106378571Y-44971428D01*
X106307142Y-45114285D01*
X106164285Y-45185714D01*
X105592857Y-45185714D01*
X105450000Y-45114285D01*
X105378571Y-44971428D01*
X105378571Y-44685714D01*
X105450000Y-44542857D01*
X105592857Y-44471428D01*
X105735714Y-44471428D01*
X105878571Y-45185714D01*
X106235714Y-43828571D02*
X106307142Y-43757142D01*
X106378571Y-43828571D01*
X106307142Y-43900000D01*
X106235714Y-43828571D01*
X106378571Y-43828571D01*
X105378571Y-42471428D02*
X106378571Y-42471428D01*
X105378571Y-43114285D02*
X106164285Y-43114285D01*
X106307142Y-43042857D01*
X106378571Y-42900000D01*
X106378571Y-42685714D01*
X106307142Y-42542857D01*
X106235714Y-42471428D01*
X106378571Y-41757142D02*
X104878571Y-41757142D01*
X105807142Y-41614285D02*
X106378571Y-41185714D01*
X105378571Y-41185714D02*
X105950000Y-41757142D01*
D11*
%TO.C,Reg1*%
X90650000Y-63300000D02*
G75*
G02*
X91000000Y-63650000I0J-350000D01*
G01*
X91000000Y-62050000D02*
G75*
G02*
X90650000Y-62400000I-350000J0D01*
G01*
X88050000Y-62400000D02*
X90650000Y-62400000D01*
X88150000Y-63300000D02*
X90650000Y-63300000D01*
D12*
X91000000Y-64200000D02*
X92500000Y-64200000D01*
X91000000Y-65400000D02*
X91000000Y-64200000D01*
%TD*%
D13*
%TO.P,D1,6*%
%TO.N,IN1*%
X95250000Y-43150000D03*
%TO.P,D1,4*%
%TO.N,GND*%
X95250000Y-41850000D03*
%TO.P,D1,2*%
%TO.N,+3V3*%
X97150000Y-42500000D03*
%TO.P,D1,5*%
X95250000Y-42500000D03*
%TO.P,D1,3*%
%TO.N,IN2*%
X97150000Y-41850000D03*
%TO.P,D1,1*%
%TO.N,GND*%
X97150000Y-43150000D03*
%TD*%
%TO.P,R3,2*%
%TO.N,R*%
%TA.AperFunction,SMDPad,CuDef*%
G36*
G01*
X98725000Y-36975000D02*
X98725000Y-36425000D01*
G75*
G02*
X98925000Y-36225000I200000J0D01*
G01*
X99325000Y-36225000D01*
G75*
G02*
X99525000Y-36425000I0J-200000D01*
G01*
X99525000Y-36975000D01*
G75*
G02*
X99325000Y-37175000I-200000J0D01*
G01*
X98925000Y-37175000D01*
G75*
G02*
X98725000Y-36975000I0J200000D01*
G01*
G37*
%TD.AperFunction*%
%TO.P,R3,1*%
%TO.N,Net-(D2-Pad2)*%
%TA.AperFunction,SMDPad,CuDef*%
G36*
G01*
X97075000Y-36975000D02*
X97075000Y-36425000D01*
G75*
G02*
X97275000Y-36225000I200000J0D01*
G01*
X97675000Y-36225000D01*
G75*
G02*
X97875000Y-36425000I0J-200000D01*
G01*
X97875000Y-36975000D01*
G75*
G02*
X97675000Y-37175000I-200000J0D01*
G01*
X97275000Y-37175000D01*
G75*
G02*
X97075000Y-36975000I0J200000D01*
G01*
G37*
%TD.AperFunction*%
%TD*%
%TO.P,R2,2*%
%TO.N,G*%
%TA.AperFunction,SMDPad,CuDef*%
G36*
G01*
X98725000Y-38175000D02*
X98725000Y-37625000D01*
G75*
G02*
X98925000Y-37425000I200000J0D01*
G01*
X99325000Y-37425000D01*
G75*
G02*
X99525000Y-37625000I0J-200000D01*
G01*
X99525000Y-38175000D01*
G75*
G02*
X99325000Y-38375000I-200000J0D01*
G01*
X98925000Y-38375000D01*
G75*
G02*
X98725000Y-38175000I0J200000D01*
G01*
G37*
%TD.AperFunction*%
%TO.P,R2,1*%
%TO.N,Net-(D2-Pad3)*%
%TA.AperFunction,SMDPad,CuDef*%
G36*
G01*
X97075000Y-38175000D02*
X97075000Y-37625000D01*
G75*
G02*
X97275000Y-37425000I200000J0D01*
G01*
X97675000Y-37425000D01*
G75*
G02*
X97875000Y-37625000I0J-200000D01*
G01*
X97875000Y-38175000D01*
G75*
G02*
X97675000Y-38375000I-200000J0D01*
G01*
X97275000Y-38375000D01*
G75*
G02*
X97075000Y-38175000I0J200000D01*
G01*
G37*
%TD.AperFunction*%
%TD*%
D14*
%TO.P,D2,4*%
%TO.N,Net-(D2-Pad4)*%
X99075000Y-34500000D03*
%TO.P,D2,3*%
%TO.N,Net-(D2-Pad3)*%
X97325000Y-34500000D03*
%TO.P,D2,2*%
%TO.N,Net-(D2-Pad2)*%
X97325000Y-35500000D03*
%TO.P,D2,1*%
%TO.N,+3V3*%
X99075000Y-35500000D03*
%TD*%
D15*
%TO.P,U2,21*%
%TO.N,GND*%
X84000000Y-65200000D03*
%TA.AperFunction,SMDPad,CuDef*%
D16*
G36*
X85000000Y-64200000D02*
G01*
X85000000Y-66200000D01*
X83250000Y-66200000D01*
X83000000Y-65950000D01*
X83000000Y-64200000D01*
X85000000Y-64200000D01*
G37*
%TD.AperFunction*%
%TO.P,U2,20*%
%TO.N,+3V3*%
%TA.AperFunction,SMDPad,CuDef*%
G36*
G01*
X82387500Y-66325000D02*
X81812500Y-66325000D01*
G75*
G02*
X81750000Y-66262500I0J62500D01*
G01*
X81750000Y-66137500D01*
G75*
G02*
X81812500Y-66075000I62500J0D01*
G01*
X82387500Y-66075000D01*
G75*
G02*
X82450000Y-66137500I0J-62500D01*
G01*
X82450000Y-66262500D01*
G75*
G02*
X82387500Y-66325000I-62500J0D01*
G01*
G37*
%TD.AperFunction*%
%TO.P,U2,19*%
%TO.N,EN*%
%TA.AperFunction,SMDPad,CuDef*%
G36*
G01*
X82387500Y-65825000D02*
X81812500Y-65825000D01*
G75*
G02*
X81750000Y-65762500I0J62500D01*
G01*
X81750000Y-65637500D01*
G75*
G02*
X81812500Y-65575000I62500J0D01*
G01*
X82387500Y-65575000D01*
G75*
G02*
X82450000Y-65637500I0J-62500D01*
G01*
X82450000Y-65762500D01*
G75*
G02*
X82387500Y-65825000I-62500J0D01*
G01*
G37*
%TD.AperFunction*%
%TO.P,U2,18*%
%TO.N,BOOT*%
%TA.AperFunction,SMDPad,CuDef*%
G36*
G01*
X82387500Y-65325000D02*
X81812500Y-65325000D01*
G75*
G02*
X81750000Y-65262500I0J62500D01*
G01*
X81750000Y-65137500D01*
G75*
G02*
X81812500Y-65075000I62500J0D01*
G01*
X82387500Y-65075000D01*
G75*
G02*
X82450000Y-65137500I0J-62500D01*
G01*
X82450000Y-65262500D01*
G75*
G02*
X82387500Y-65325000I-62500J0D01*
G01*
G37*
%TD.AperFunction*%
%TO.P,U2,17*%
%TO.N,I*%
%TA.AperFunction,SMDPad,CuDef*%
G36*
G01*
X82387500Y-64825000D02*
X81812500Y-64825000D01*
G75*
G02*
X81750000Y-64762500I0J62500D01*
G01*
X81750000Y-64637500D01*
G75*
G02*
X81812500Y-64575000I62500J0D01*
G01*
X82387500Y-64575000D01*
G75*
G02*
X82450000Y-64637500I0J-62500D01*
G01*
X82450000Y-64762500D01*
G75*
G02*
X82387500Y-64825000I-62500J0D01*
G01*
G37*
%TD.AperFunction*%
%TO.P,U2,16*%
%TO.N,Net-(U2-Pad16)*%
%TA.AperFunction,SMDPad,CuDef*%
G36*
G01*
X82387500Y-64325000D02*
X81812500Y-64325000D01*
G75*
G02*
X81750000Y-64262500I0J62500D01*
G01*
X81750000Y-64137500D01*
G75*
G02*
X81812500Y-64075000I62500J0D01*
G01*
X82387500Y-64075000D01*
G75*
G02*
X82450000Y-64137500I0J-62500D01*
G01*
X82450000Y-64262500D01*
G75*
G02*
X82387500Y-64325000I-62500J0D01*
G01*
G37*
%TD.AperFunction*%
%TO.P,U2,15*%
%TO.N,Net-(U2-Pad15)*%
%TA.AperFunction,SMDPad,CuDef*%
G36*
G01*
X83062500Y-63650000D02*
X82937500Y-63650000D01*
G75*
G02*
X82875000Y-63587500I0J62500D01*
G01*
X82875000Y-63012500D01*
G75*
G02*
X82937500Y-62950000I62500J0D01*
G01*
X83062500Y-62950000D01*
G75*
G02*
X83125000Y-63012500I0J-62500D01*
G01*
X83125000Y-63587500D01*
G75*
G02*
X83062500Y-63650000I-62500J0D01*
G01*
G37*
%TD.AperFunction*%
%TO.P,U2,14*%
%TO.N,Net-(U2-Pad14)*%
%TA.AperFunction,SMDPad,CuDef*%
G36*
G01*
X83562500Y-63650000D02*
X83437500Y-63650000D01*
G75*
G02*
X83375000Y-63587500I0J62500D01*
G01*
X83375000Y-63012500D01*
G75*
G02*
X83437500Y-62950000I62500J0D01*
G01*
X83562500Y-62950000D01*
G75*
G02*
X83625000Y-63012500I0J-62500D01*
G01*
X83625000Y-63587500D01*
G75*
G02*
X83562500Y-63650000I-62500J0D01*
G01*
G37*
%TD.AperFunction*%
%TO.P,U2,13*%
%TO.N,GND*%
%TA.AperFunction,SMDPad,CuDef*%
G36*
G01*
X84062500Y-63650000D02*
X83937500Y-63650000D01*
G75*
G02*
X83875000Y-63587500I0J62500D01*
G01*
X83875000Y-63012500D01*
G75*
G02*
X83937500Y-62950000I62500J0D01*
G01*
X84062500Y-62950000D01*
G75*
G02*
X84125000Y-63012500I0J-62500D01*
G01*
X84125000Y-63587500D01*
G75*
G02*
X84062500Y-63650000I-62500J0D01*
G01*
G37*
%TD.AperFunction*%
%TO.P,U2,12*%
%TO.N,+3V3*%
%TA.AperFunction,SMDPad,CuDef*%
G36*
G01*
X84562500Y-63650000D02*
X84437500Y-63650000D01*
G75*
G02*
X84375000Y-63587500I0J62500D01*
G01*
X84375000Y-63012500D01*
G75*
G02*
X84437500Y-62950000I62500J0D01*
G01*
X84562500Y-62950000D01*
G75*
G02*
X84625000Y-63012500I0J-62500D01*
G01*
X84625000Y-63587500D01*
G75*
G02*
X84562500Y-63650000I-62500J0D01*
G01*
G37*
%TD.AperFunction*%
%TO.P,U2,11*%
%TA.AperFunction,SMDPad,CuDef*%
G36*
G01*
X85062500Y-63650000D02*
X84937500Y-63650000D01*
G75*
G02*
X84875000Y-63587500I0J62500D01*
G01*
X84875000Y-63012500D01*
G75*
G02*
X84937500Y-62950000I62500J0D01*
G01*
X85062500Y-62950000D01*
G75*
G02*
X85125000Y-63012500I0J-62500D01*
G01*
X85125000Y-63587500D01*
G75*
G02*
X85062500Y-63650000I-62500J0D01*
G01*
G37*
%TD.AperFunction*%
%TO.P,U2,10*%
%TA.AperFunction,SMDPad,CuDef*%
G36*
G01*
X86187500Y-64325000D02*
X85612500Y-64325000D01*
G75*
G02*
X85550000Y-64262500I0J62500D01*
G01*
X85550000Y-64137500D01*
G75*
G02*
X85612500Y-64075000I62500J0D01*
G01*
X86187500Y-64075000D01*
G75*
G02*
X86250000Y-64137500I0J-62500D01*
G01*
X86250000Y-64262500D01*
G75*
G02*
X86187500Y-64325000I-62500J0D01*
G01*
G37*
%TD.AperFunction*%
%TO.P,U2,9*%
%TO.N,D-*%
%TA.AperFunction,SMDPad,CuDef*%
G36*
G01*
X86187500Y-64825000D02*
X85612500Y-64825000D01*
G75*
G02*
X85550000Y-64762500I0J62500D01*
G01*
X85550000Y-64637500D01*
G75*
G02*
X85612500Y-64575000I62500J0D01*
G01*
X86187500Y-64575000D01*
G75*
G02*
X86250000Y-64637500I0J-62500D01*
G01*
X86250000Y-64762500D01*
G75*
G02*
X86187500Y-64825000I-62500J0D01*
G01*
G37*
%TD.AperFunction*%
%TO.P,U2,8*%
%TO.N,D+*%
%TA.AperFunction,SMDPad,CuDef*%
G36*
G01*
X86187500Y-65325000D02*
X85612500Y-65325000D01*
G75*
G02*
X85550000Y-65262500I0J62500D01*
G01*
X85550000Y-65137500D01*
G75*
G02*
X85612500Y-65075000I62500J0D01*
G01*
X86187500Y-65075000D01*
G75*
G02*
X86250000Y-65137500I0J-62500D01*
G01*
X86250000Y-65262500D01*
G75*
G02*
X86187500Y-65325000I-62500J0D01*
G01*
G37*
%TD.AperFunction*%
%TO.P,U2,7*%
%TO.N,Net-(U2-Pad7)*%
%TA.AperFunction,SMDPad,CuDef*%
G36*
G01*
X86187500Y-65825000D02*
X85612500Y-65825000D01*
G75*
G02*
X85550000Y-65762500I0J62500D01*
G01*
X85550000Y-65637500D01*
G75*
G02*
X85612500Y-65575000I62500J0D01*
G01*
X86187500Y-65575000D01*
G75*
G02*
X86250000Y-65637500I0J-62500D01*
G01*
X86250000Y-65762500D01*
G75*
G02*
X86187500Y-65825000I-62500J0D01*
G01*
G37*
%TD.AperFunction*%
%TO.P,U2,6*%
%TO.N,GND*%
%TA.AperFunction,SMDPad,CuDef*%
G36*
G01*
X86187500Y-66325000D02*
X85612500Y-66325000D01*
G75*
G02*
X85550000Y-66262500I0J62500D01*
G01*
X85550000Y-66137500D01*
G75*
G02*
X85612500Y-66075000I62500J0D01*
G01*
X86187500Y-66075000D01*
G75*
G02*
X86250000Y-66137500I0J-62500D01*
G01*
X86250000Y-66262500D01*
G75*
G02*
X86187500Y-66325000I-62500J0D01*
G01*
G37*
%TD.AperFunction*%
%TO.P,U2,5*%
%TA.AperFunction,SMDPad,CuDef*%
G36*
G01*
X85062500Y-67450000D02*
X84937500Y-67450000D01*
G75*
G02*
X84875000Y-67387500I0J62500D01*
G01*
X84875000Y-66812500D01*
G75*
G02*
X84937500Y-66750000I62500J0D01*
G01*
X85062500Y-66750000D01*
G75*
G02*
X85125000Y-66812500I0J-62500D01*
G01*
X85125000Y-67387500D01*
G75*
G02*
X85062500Y-67450000I-62500J0D01*
G01*
G37*
%TD.AperFunction*%
%TO.P,U2,4*%
%TA.AperFunction,SMDPad,CuDef*%
G36*
G01*
X84562500Y-67450000D02*
X84437500Y-67450000D01*
G75*
G02*
X84375000Y-67387500I0J62500D01*
G01*
X84375000Y-66812500D01*
G75*
G02*
X84437500Y-66750000I62500J0D01*
G01*
X84562500Y-66750000D01*
G75*
G02*
X84625000Y-66812500I0J-62500D01*
G01*
X84625000Y-67387500D01*
G75*
G02*
X84562500Y-67450000I-62500J0D01*
G01*
G37*
%TD.AperFunction*%
%TO.P,U2,3*%
%TA.AperFunction,SMDPad,CuDef*%
G36*
G01*
X84062500Y-67450000D02*
X83937500Y-67450000D01*
G75*
G02*
X83875000Y-67387500I0J62500D01*
G01*
X83875000Y-66812500D01*
G75*
G02*
X83937500Y-66750000I62500J0D01*
G01*
X84062500Y-66750000D01*
G75*
G02*
X84125000Y-66812500I0J-62500D01*
G01*
X84125000Y-67387500D01*
G75*
G02*
X84062500Y-67450000I-62500J0D01*
G01*
G37*
%TD.AperFunction*%
%TO.P,U2,2*%
%TA.AperFunction,SMDPad,CuDef*%
G36*
G01*
X83562500Y-67450000D02*
X83437500Y-67450000D01*
G75*
G02*
X83375000Y-67387500I0J62500D01*
G01*
X83375000Y-66812500D01*
G75*
G02*
X83437500Y-66750000I62500J0D01*
G01*
X83562500Y-66750000D01*
G75*
G02*
X83625000Y-66812500I0J-62500D01*
G01*
X83625000Y-67387500D01*
G75*
G02*
X83562500Y-67450000I-62500J0D01*
G01*
G37*
%TD.AperFunction*%
%TO.P,U2,1*%
%TO.N,O*%
%TA.AperFunction,SMDPad,CuDef*%
G36*
G01*
X83062500Y-67450000D02*
X82937500Y-67450000D01*
G75*
G02*
X82875000Y-67387500I0J62500D01*
G01*
X82875000Y-66812500D01*
G75*
G02*
X82937500Y-66750000I62500J0D01*
G01*
X83062500Y-66750000D01*
G75*
G02*
X83125000Y-66812500I0J-62500D01*
G01*
X83125000Y-67387500D01*
G75*
G02*
X83062500Y-67450000I-62500J0D01*
G01*
G37*
%TD.AperFunction*%
%TD*%
%TO.P,U5,8*%
%TO.N,Net-(U5-Pad8)*%
%TA.AperFunction,SMDPad,CuDef*%
G36*
G01*
X97800000Y-51145000D02*
X97800000Y-50845000D01*
G75*
G02*
X97950000Y-50695000I150000J0D01*
G01*
X99400000Y-50695000D01*
G75*
G02*
X99550000Y-50845000I0J-150000D01*
G01*
X99550000Y-51145000D01*
G75*
G02*
X99400000Y-51295000I-150000J0D01*
G01*
X97950000Y-51295000D01*
G75*
G02*
X97800000Y-51145000I0J150000D01*
G01*
G37*
%TD.AperFunction*%
%TO.P,U5,7*%
%TO.N,STB*%
%TA.AperFunction,SMDPad,CuDef*%
G36*
G01*
X97800000Y-52415000D02*
X97800000Y-52115000D01*
G75*
G02*
X97950000Y-51965000I150000J0D01*
G01*
X99400000Y-51965000D01*
G75*
G02*
X99550000Y-52115000I0J-150000D01*
G01*
X99550000Y-52415000D01*
G75*
G02*
X99400000Y-52565000I-150000J0D01*
G01*
X97950000Y-52565000D01*
G75*
G02*
X97800000Y-52415000I0J150000D01*
G01*
G37*
%TD.AperFunction*%
%TO.P,U5,6*%
%TO.N,+12V*%
%TA.AperFunction,SMDPad,CuDef*%
G36*
G01*
X97800000Y-53685000D02*
X97800000Y-53385000D01*
G75*
G02*
X97950000Y-53235000I150000J0D01*
G01*
X99400000Y-53235000D01*
G75*
G02*
X99550000Y-53385000I0J-150000D01*
G01*
X99550000Y-53685000D01*
G75*
G02*
X99400000Y-53835000I-150000J0D01*
G01*
X97950000Y-53835000D01*
G75*
G02*
X97800000Y-53685000I0J150000D01*
G01*
G37*
%TD.AperFunction*%
%TO.P,U5,5*%
%TO.N,BELL*%
%TA.AperFunction,SMDPad,CuDef*%
G36*
G01*
X97800000Y-54955000D02*
X97800000Y-54655000D01*
G75*
G02*
X97950000Y-54505000I150000J0D01*
G01*
X99400000Y-54505000D01*
G75*
G02*
X99550000Y-54655000I0J-150000D01*
G01*
X99550000Y-54955000D01*
G75*
G02*
X99400000Y-55105000I-150000J0D01*
G01*
X97950000Y-55105000D01*
G75*
G02*
X97800000Y-54955000I0J150000D01*
G01*
G37*
%TD.AperFunction*%
%TO.P,U5,4*%
%TO.N,OUT1*%
%TA.AperFunction,SMDPad,CuDef*%
G36*
G01*
X92650000Y-54955000D02*
X92650000Y-54655000D01*
G75*
G02*
X92800000Y-54505000I150000J0D01*
G01*
X94250000Y-54505000D01*
G75*
G02*
X94400000Y-54655000I0J-150000D01*
G01*
X94400000Y-54955000D01*
G75*
G02*
X94250000Y-55105000I-150000J0D01*
G01*
X92800000Y-55105000D01*
G75*
G02*
X92650000Y-54955000I0J150000D01*
G01*
G37*
%TD.AperFunction*%
%TO.P,U5,3*%
%TO.N,GND*%
%TA.AperFunction,SMDPad,CuDef*%
G36*
G01*
X92650000Y-53685000D02*
X92650000Y-53385000D01*
G75*
G02*
X92800000Y-53235000I150000J0D01*
G01*
X94250000Y-53235000D01*
G75*
G02*
X94400000Y-53385000I0J-150000D01*
G01*
X94400000Y-53685000D01*
G75*
G02*
X94250000Y-53835000I-150000J0D01*
G01*
X92800000Y-53835000D01*
G75*
G02*
X92650000Y-53685000I0J150000D01*
G01*
G37*
%TD.AperFunction*%
%TO.P,U5,2*%
%TO.N,OUT2*%
%TA.AperFunction,SMDPad,CuDef*%
G36*
G01*
X92650000Y-52415000D02*
X92650000Y-52115000D01*
G75*
G02*
X92800000Y-51965000I150000J0D01*
G01*
X94250000Y-51965000D01*
G75*
G02*
X94400000Y-52115000I0J-150000D01*
G01*
X94400000Y-52415000D01*
G75*
G02*
X94250000Y-52565000I-150000J0D01*
G01*
X92800000Y-52565000D01*
G75*
G02*
X92650000Y-52415000I0J150000D01*
G01*
G37*
%TD.AperFunction*%
%TO.P,U5,1*%
%TO.N,Net-(U5-Pad1)*%
%TA.AperFunction,SMDPad,CuDef*%
G36*
G01*
X92650000Y-51145000D02*
X92650000Y-50845000D01*
G75*
G02*
X92800000Y-50695000I150000J0D01*
G01*
X94250000Y-50695000D01*
G75*
G02*
X94400000Y-50845000I0J-150000D01*
G01*
X94400000Y-51145000D01*
G75*
G02*
X94250000Y-51295000I-150000J0D01*
G01*
X92800000Y-51295000D01*
G75*
G02*
X92650000Y-51145000I0J150000D01*
G01*
G37*
%TD.AperFunction*%
%TD*%
%TO.P,U6,8*%
%TO.N,Net-(U6-Pad8)*%
%TA.AperFunction,SMDPad,CuDef*%
G36*
G01*
X97800000Y-45545000D02*
X97800000Y-45245000D01*
G75*
G02*
X97950000Y-45095000I150000J0D01*
G01*
X99400000Y-45095000D01*
G75*
G02*
X99550000Y-45245000I0J-150000D01*
G01*
X99550000Y-45545000D01*
G75*
G02*
X99400000Y-45695000I-150000J0D01*
G01*
X97950000Y-45695000D01*
G75*
G02*
X97800000Y-45545000I0J150000D01*
G01*
G37*
%TD.AperFunction*%
%TO.P,U6,7*%
%TO.N,~BACKLIGHT*%
%TA.AperFunction,SMDPad,CuDef*%
G36*
G01*
X97800000Y-46815000D02*
X97800000Y-46515000D01*
G75*
G02*
X97950000Y-46365000I150000J0D01*
G01*
X99400000Y-46365000D01*
G75*
G02*
X99550000Y-46515000I0J-150000D01*
G01*
X99550000Y-46815000D01*
G75*
G02*
X99400000Y-46965000I-150000J0D01*
G01*
X97950000Y-46965000D01*
G75*
G02*
X97800000Y-46815000I0J150000D01*
G01*
G37*
%TD.AperFunction*%
%TO.P,U6,6*%
%TO.N,+12V*%
%TA.AperFunction,SMDPad,CuDef*%
G36*
G01*
X97800000Y-48085000D02*
X97800000Y-47785000D01*
G75*
G02*
X97950000Y-47635000I150000J0D01*
G01*
X99400000Y-47635000D01*
G75*
G02*
X99550000Y-47785000I0J-150000D01*
G01*
X99550000Y-48085000D01*
G75*
G02*
X99400000Y-48235000I-150000J0D01*
G01*
X97950000Y-48235000D01*
G75*
G02*
X97800000Y-48085000I0J150000D01*
G01*
G37*
%TD.AperFunction*%
%TO.P,U6,5*%
%TO.N,ENGHOLD*%
%TA.AperFunction,SMDPad,CuDef*%
G36*
G01*
X97800000Y-49355000D02*
X97800000Y-49055000D01*
G75*
G02*
X97950000Y-48905000I150000J0D01*
G01*
X99400000Y-48905000D01*
G75*
G02*
X99550000Y-49055000I0J-150000D01*
G01*
X99550000Y-49355000D01*
G75*
G02*
X99400000Y-49505000I-150000J0D01*
G01*
X97950000Y-49505000D01*
G75*
G02*
X97800000Y-49355000I0J150000D01*
G01*
G37*
%TD.AperFunction*%
%TO.P,U6,4*%
%TO.N,OUT3*%
%TA.AperFunction,SMDPad,CuDef*%
G36*
G01*
X92650000Y-49355000D02*
X92650000Y-49055000D01*
G75*
G02*
X92800000Y-48905000I150000J0D01*
G01*
X94250000Y-48905000D01*
G75*
G02*
X94400000Y-49055000I0J-150000D01*
G01*
X94400000Y-49355000D01*
G75*
G02*
X94250000Y-49505000I-150000J0D01*
G01*
X92800000Y-49505000D01*
G75*
G02*
X92650000Y-49355000I0J150000D01*
G01*
G37*
%TD.AperFunction*%
%TO.P,U6,3*%
%TO.N,GND*%
%TA.AperFunction,SMDPad,CuDef*%
G36*
G01*
X92650000Y-48085000D02*
X92650000Y-47785000D01*
G75*
G02*
X92800000Y-47635000I150000J0D01*
G01*
X94250000Y-47635000D01*
G75*
G02*
X94400000Y-47785000I0J-150000D01*
G01*
X94400000Y-48085000D01*
G75*
G02*
X94250000Y-48235000I-150000J0D01*
G01*
X92800000Y-48235000D01*
G75*
G02*
X92650000Y-48085000I0J150000D01*
G01*
G37*
%TD.AperFunction*%
%TO.P,U6,2*%
%TO.N,OUT4*%
%TA.AperFunction,SMDPad,CuDef*%
G36*
G01*
X92650000Y-46815000D02*
X92650000Y-46515000D01*
G75*
G02*
X92800000Y-46365000I150000J0D01*
G01*
X94250000Y-46365000D01*
G75*
G02*
X94400000Y-46515000I0J-150000D01*
G01*
X94400000Y-46815000D01*
G75*
G02*
X94250000Y-46965000I-150000J0D01*
G01*
X92800000Y-46965000D01*
G75*
G02*
X92650000Y-46815000I0J150000D01*
G01*
G37*
%TD.AperFunction*%
%TO.P,U6,1*%
%TO.N,Net-(U6-Pad1)*%
%TA.AperFunction,SMDPad,CuDef*%
G36*
G01*
X92650000Y-45545000D02*
X92650000Y-45245000D01*
G75*
G02*
X92800000Y-45095000I150000J0D01*
G01*
X94250000Y-45095000D01*
G75*
G02*
X94400000Y-45245000I0J-150000D01*
G01*
X94400000Y-45545000D01*
G75*
G02*
X94250000Y-45695000I-150000J0D01*
G01*
X92800000Y-45695000D01*
G75*
G02*
X92650000Y-45545000I0J150000D01*
G01*
G37*
%TD.AperFunction*%
%TD*%
D17*
%TO.P,J1,S1*%
%TO.N,GND*%
X102000000Y-65255000D03*
%TA.AperFunction,SMDPad,CuDef*%
D16*
G36*
X98813071Y-61015685D02*
G01*
X98825139Y-61017555D01*
X98836968Y-61020591D01*
X98848444Y-61024769D01*
X98859457Y-61030047D01*
X98869903Y-61036373D01*
X98879681Y-61043688D01*
X98888699Y-61051924D01*
X98896871Y-61061001D01*
X98904118Y-61070830D01*
X98910370Y-61081320D01*
X98915570Y-61092371D01*
X98919666Y-61103875D01*
X98922620Y-61115725D01*
X98924404Y-61127807D01*
X98925000Y-61140005D01*
X98924402Y-61152203D01*
X98922618Y-61164284D01*
X98919663Y-61176134D01*
X98915566Y-61187638D01*
X98910366Y-61198688D01*
X98904112Y-61209178D01*
X98896865Y-61219007D01*
X98888692Y-61228082D01*
X98879674Y-61236317D01*
X98869895Y-61243632D01*
X98859449Y-61249958D01*
X98848435Y-61255235D01*
X98836959Y-61259411D01*
X98825129Y-61262447D01*
X98813061Y-61264315D01*
X98800868Y-61264997D01*
X98792977Y-61265052D01*
X98723107Y-61269448D01*
X98656573Y-61280224D01*
X98591405Y-61297443D01*
X98528238Y-61320934D01*
X98467665Y-61350477D01*
X98410261Y-61385792D01*
X98356576Y-61426541D01*
X98307120Y-61472337D01*
X98262373Y-61522737D01*
X98222754Y-61577269D01*
X98188653Y-61635392D01*
X98160381Y-61696580D01*
X98138216Y-61760228D01*
X98122368Y-61825739D01*
X98112988Y-61892476D01*
X98110166Y-61959813D01*
X98113929Y-62027106D01*
X98124240Y-62093718D01*
X98141001Y-62158998D01*
X98162742Y-62218729D01*
X98164112Y-62220691D01*
X98411285Y-62510000D01*
X99001371Y-62510000D01*
X98985529Y-62258200D01*
X98985431Y-62256458D01*
X98985431Y-62253835D01*
X98985285Y-62251225D01*
X98985003Y-62210874D01*
X98985003Y-62209129D01*
X98985685Y-62196934D01*
X98987553Y-62184866D01*
X98990590Y-62173038D01*
X98994767Y-62161561D01*
X99000044Y-62150548D01*
X99006370Y-62140102D01*
X99013685Y-62130323D01*
X99021920Y-62121304D01*
X99030996Y-62113133D01*
X99040826Y-62105885D01*
X99051315Y-62099632D01*
X99062365Y-62094432D01*
X99073870Y-62090336D01*
X99085719Y-62087381D01*
X99097801Y-62085596D01*
X99109999Y-62085000D01*
X99122197Y-62085597D01*
X99134279Y-62087380D01*
X99146129Y-62090335D01*
X99157633Y-62094431D01*
X99168683Y-62099631D01*
X99179173Y-62105884D01*
X99189003Y-62113132D01*
X99198078Y-62121303D01*
X99206314Y-62130321D01*
X99213629Y-62140100D01*
X99219955Y-62150546D01*
X99225232Y-62161560D01*
X99229410Y-62173036D01*
X99232446Y-62184865D01*
X99234315Y-62196933D01*
X99234997Y-62209126D01*
X99235255Y-62245993D01*
X99251865Y-62510000D01*
X104747196Y-62510000D01*
X104751655Y-62479804D01*
X104765149Y-62203894D01*
X104765246Y-62202151D01*
X104766608Y-62190014D01*
X104769148Y-62178069D01*
X104772840Y-62166429D01*
X104777651Y-62155203D01*
X104783534Y-62144502D01*
X104790434Y-62134425D01*
X104798283Y-62125070D01*
X104807009Y-62116525D01*
X104816527Y-62108873D01*
X104826746Y-62102185D01*
X104837569Y-62096528D01*
X104848892Y-62091953D01*
X104860607Y-62088505D01*
X104872603Y-62086216D01*
X104884766Y-62085109D01*
X104896978Y-62085195D01*
X104909123Y-62086472D01*
X104921087Y-62088927D01*
X104932753Y-62092538D01*
X104944010Y-62097271D01*
X104954753Y-62103080D01*
X104964878Y-62109908D01*
X104974288Y-62117693D01*
X104982893Y-62126359D01*
X104990612Y-62135822D01*
X104997370Y-62145995D01*
X105003103Y-62156778D01*
X105007757Y-62168069D01*
X105011287Y-62179760D01*
X105013659Y-62191740D01*
X105014850Y-62203894D01*
X105014851Y-62216106D01*
X105001058Y-62498121D01*
X105000961Y-62499864D01*
X105000371Y-62505118D01*
X104999893Y-62510000D01*
X105590209Y-62510000D01*
X105631934Y-62467229D01*
X105843014Y-62203671D01*
X105861783Y-62149774D01*
X105877632Y-62084261D01*
X105887012Y-62017524D01*
X105889834Y-61950187D01*
X105886071Y-61882894D01*
X105875760Y-61816286D01*
X105858998Y-61751002D01*
X105835949Y-61687677D01*
X105806825Y-61626888D01*
X105771912Y-61569239D01*
X105731542Y-61515276D01*
X105686093Y-61465504D01*
X105636003Y-61420402D01*
X105581756Y-61380408D01*
X105523866Y-61345899D01*
X105462879Y-61317200D01*
X105399392Y-61294594D01*
X105333993Y-61278288D01*
X105267319Y-61268442D01*
X105193893Y-61264851D01*
X105192151Y-61264754D01*
X105180014Y-61263392D01*
X105168069Y-61260852D01*
X105156428Y-61257160D01*
X105145203Y-61252349D01*
X105134502Y-61246465D01*
X105124425Y-61239566D01*
X105115070Y-61231716D01*
X105106525Y-61222990D01*
X105098873Y-61213472D01*
X105092185Y-61203253D01*
X105086528Y-61192431D01*
X105081953Y-61181108D01*
X105078505Y-61169393D01*
X105076216Y-61157396D01*
X105075109Y-61145234D01*
X105075195Y-61133021D01*
X105076472Y-61120876D01*
X105078927Y-61108913D01*
X105082538Y-61097246D01*
X105087271Y-61085989D01*
X105093080Y-61075246D01*
X105099909Y-61065122D01*
X105107694Y-61055712D01*
X105116359Y-61047107D01*
X105125823Y-61039388D01*
X105135995Y-61032630D01*
X105146778Y-61026897D01*
X105158069Y-61022243D01*
X105169760Y-61018713D01*
X105181740Y-61016341D01*
X105193894Y-61015150D01*
X105206107Y-61015149D01*
X105285637Y-61019039D01*
X105287379Y-61019136D01*
X105292633Y-61019726D01*
X105297791Y-61020231D01*
X105376561Y-61031863D01*
X105378286Y-61032130D01*
X105383412Y-61033219D01*
X105388541Y-61034235D01*
X105465801Y-61053498D01*
X105467491Y-61053932D01*
X105472486Y-61055516D01*
X105477492Y-61057028D01*
X105552504Y-61083738D01*
X105554143Y-61084335D01*
X105558953Y-61086396D01*
X105563795Y-61088392D01*
X105635841Y-61122295D01*
X105637415Y-61123049D01*
X105642033Y-61125587D01*
X105646624Y-61128028D01*
X105715019Y-61168799D01*
X105716511Y-61169702D01*
X105720861Y-61172680D01*
X105725191Y-61175557D01*
X105789281Y-61222808D01*
X105790678Y-61223853D01*
X105794687Y-61227217D01*
X105798746Y-61230527D01*
X105857918Y-61283807D01*
X105859207Y-61284983D01*
X105862874Y-61288729D01*
X105866584Y-61292412D01*
X105920275Y-61351211D01*
X105921442Y-61352507D01*
X105924742Y-61356612D01*
X105928059Y-61360621D01*
X105975757Y-61424380D01*
X105976793Y-61425784D01*
X105979670Y-61430181D01*
X105982586Y-61434504D01*
X106023834Y-61502612D01*
X106024728Y-61504111D01*
X106027154Y-61508753D01*
X106029644Y-61513357D01*
X106064048Y-61585166D01*
X106064791Y-61586744D01*
X106066775Y-61591656D01*
X106068779Y-61596422D01*
X106096013Y-61671244D01*
X106096599Y-61672888D01*
X106098087Y-61677945D01*
X106099625Y-61682912D01*
X106119427Y-61760035D01*
X106119849Y-61761728D01*
X106120831Y-61766874D01*
X106121883Y-61771999D01*
X106125392Y-61794668D01*
X106190027Y-61695484D01*
X106190990Y-61694029D01*
X106198287Y-61684235D01*
X106206505Y-61675202D01*
X106215565Y-61667013D01*
X106225381Y-61659747D01*
X106235859Y-61653474D01*
X106246899Y-61648253D01*
X106258395Y-61644134D01*
X106270240Y-61641157D01*
X106282318Y-61639351D01*
X106294515Y-61638730D01*
X106306714Y-61639304D01*
X106318798Y-61641064D01*
X106330653Y-61643996D01*
X106342166Y-61648071D01*
X106353227Y-61653250D01*
X106363729Y-61659483D01*
X106373572Y-61666712D01*
X106382663Y-61674866D01*
X106390916Y-61683869D01*
X106398249Y-61693633D01*
X106404596Y-61704068D01*
X106409893Y-61715071D01*
X106414092Y-61726539D01*
X106417151Y-61738362D01*
X106419043Y-61750427D01*
X106419748Y-61762619D01*
X106419260Y-61774822D01*
X106417583Y-61786918D01*
X106414734Y-61798794D01*
X106410739Y-61810335D01*
X106405638Y-61821430D01*
X106399479Y-61831976D01*
X106134173Y-62239097D01*
X106133210Y-62240552D01*
X106130060Y-62244779D01*
X106127013Y-62248991D01*
X106059808Y-62332904D01*
X106035728Y-62385018D01*
X106034985Y-62386597D01*
X106032485Y-62391220D01*
X106030070Y-62395840D01*
X105989777Y-62464518D01*
X105988884Y-62466017D01*
X105985937Y-62470386D01*
X105983089Y-62474738D01*
X105936287Y-62539156D01*
X105935251Y-62540560D01*
X105931897Y-62544614D01*
X105928635Y-62548672D01*
X105875770Y-62608216D01*
X105874603Y-62609513D01*
X105870877Y-62613213D01*
X105867225Y-62616943D01*
X105808802Y-62671042D01*
X105807513Y-62672219D01*
X105803473Y-62675514D01*
X105799448Y-62678892D01*
X105750000Y-62716425D01*
X105750000Y-65237838D01*
X105918597Y-65361232D01*
X105919998Y-65362272D01*
X105924021Y-65365624D01*
X105928089Y-65368918D01*
X106373053Y-65766762D01*
X106374346Y-65767934D01*
X106376033Y-65769645D01*
X106377816Y-65771250D01*
X106408080Y-65801305D01*
X106409310Y-65802543D01*
X106417419Y-65811676D01*
X106424596Y-65821556D01*
X106430776Y-65832089D01*
X106435899Y-65843176D01*
X106439915Y-65854709D01*
X106442786Y-65866579D01*
X106444486Y-65878672D01*
X106444997Y-65890874D01*
X106444315Y-65903068D01*
X106442447Y-65915137D01*
X106439409Y-65926965D01*
X106435233Y-65938441D01*
X106429956Y-65949454D01*
X106423630Y-65959900D01*
X106416314Y-65969680D01*
X106408079Y-65978698D01*
X106399003Y-65986869D01*
X106389173Y-65994116D01*
X106378683Y-66000370D01*
X106367633Y-66005569D01*
X106356128Y-66009666D01*
X106344279Y-66012620D01*
X106332197Y-66014404D01*
X106319999Y-66015000D01*
X106307802Y-66014404D01*
X106295720Y-66012619D01*
X106283871Y-66009665D01*
X106272366Y-66005568D01*
X106261315Y-66000368D01*
X106250826Y-65994114D01*
X106240996Y-65986867D01*
X106231920Y-65978696D01*
X106203984Y-65950954D01*
X105766015Y-65559363D01*
X105466293Y-65340000D01*
X104500000Y-65340000D01*
X104500000Y-66440000D01*
X105750000Y-66440000D01*
X105750000Y-68000000D01*
X98250000Y-68000000D01*
X98250000Y-66440000D01*
X99500000Y-66440000D01*
X99500000Y-65340000D01*
X98532537Y-65340000D01*
X98201610Y-65585769D01*
X97763965Y-65982601D01*
X97762664Y-65983764D01*
X97753119Y-65991383D01*
X97742877Y-65998034D01*
X97732035Y-66003655D01*
X97720696Y-66008190D01*
X97708968Y-66011597D01*
X97696964Y-66013843D01*
X97684799Y-66014908D01*
X97672587Y-66014780D01*
X97660445Y-66013461D01*
X97648491Y-66010964D01*
X97636838Y-66007311D01*
X97625596Y-66002540D01*
X97614874Y-65996694D01*
X97604773Y-65989830D01*
X97595390Y-65982012D01*
X97586815Y-65973316D01*
X97579130Y-65963826D01*
X97572407Y-65953630D01*
X97566711Y-65942827D01*
X97562097Y-65931520D01*
X97558608Y-65919817D01*
X97556278Y-65907829D01*
X97555129Y-65895670D01*
X97555172Y-65883458D01*
X97556405Y-65871308D01*
X97558819Y-65859337D01*
X97562390Y-65847658D01*
X97567083Y-65836383D01*
X97572854Y-65825620D01*
X97579648Y-65815472D01*
X97587400Y-65806035D01*
X97596035Y-65797399D01*
X98038211Y-65396459D01*
X98039512Y-65395296D01*
X98043633Y-65392006D01*
X98047648Y-65388708D01*
X98250000Y-65238428D01*
X98250000Y-62716152D01*
X98210719Y-62687192D01*
X98209321Y-62686147D01*
X98205304Y-62682776D01*
X98201254Y-62679473D01*
X98142081Y-62626193D01*
X98140793Y-62625016D01*
X98137146Y-62621292D01*
X98133416Y-62617588D01*
X98079725Y-62558789D01*
X98078557Y-62557492D01*
X98075254Y-62553384D01*
X98071941Y-62549379D01*
X98024243Y-62485620D01*
X98023207Y-62484216D01*
X98020330Y-62479819D01*
X98017414Y-62475496D01*
X97976166Y-62407388D01*
X97975272Y-62405889D01*
X97972839Y-62401235D01*
X97970356Y-62396643D01*
X97944756Y-62343209D01*
X97684504Y-61970276D01*
X97683516Y-61968838D01*
X97681696Y-61965845D01*
X97679764Y-61962950D01*
X97572752Y-61784209D01*
X97571866Y-61782706D01*
X97566263Y-61771854D01*
X97561746Y-61760508D01*
X97558357Y-61748775D01*
X97556129Y-61736767D01*
X97555085Y-61724600D01*
X97555232Y-61712388D01*
X97556570Y-61700250D01*
X97559087Y-61688299D01*
X97562758Y-61676651D01*
X97567547Y-61665417D01*
X97573410Y-61654705D01*
X97580290Y-61644615D01*
X97588122Y-61635245D01*
X97596831Y-61626683D01*
X97606335Y-61619012D01*
X97616541Y-61612306D01*
X97627353Y-61606628D01*
X97638668Y-61602031D01*
X97650377Y-61598561D01*
X97662368Y-61596250D01*
X97674528Y-61595120D01*
X97686740Y-61595182D01*
X97698888Y-61596435D01*
X97710856Y-61598869D01*
X97722529Y-61602457D01*
X97733796Y-61607169D01*
X97744550Y-61612957D01*
X97754687Y-61619766D01*
X97764112Y-61627533D01*
X97772734Y-61636183D01*
X97780470Y-61645632D01*
X97787248Y-61655791D01*
X97873540Y-61799923D01*
X97875653Y-61784887D01*
X97875907Y-61783160D01*
X97876970Y-61777980D01*
X97877941Y-61772891D01*
X97896664Y-61695499D01*
X97897086Y-61693806D01*
X97898636Y-61688801D01*
X97900112Y-61683784D01*
X97926298Y-61608588D01*
X97926883Y-61606944D01*
X97928917Y-61602105D01*
X97930873Y-61597264D01*
X97964272Y-61524983D01*
X97965015Y-61523404D01*
X97967506Y-61518797D01*
X97969930Y-61514160D01*
X98010223Y-61445482D01*
X98011116Y-61443983D01*
X98014053Y-61439628D01*
X98016910Y-61435262D01*
X98063713Y-61370845D01*
X98064748Y-61369440D01*
X98068110Y-61365377D01*
X98071365Y-61361328D01*
X98124230Y-61301784D01*
X98125397Y-61300487D01*
X98129143Y-61296767D01*
X98132775Y-61293058D01*
X98191198Y-61238958D01*
X98192486Y-61237781D01*
X98196567Y-61234453D01*
X98200553Y-61231108D01*
X98263977Y-61182966D01*
X98265374Y-61181921D01*
X98269740Y-61179020D01*
X98274054Y-61176066D01*
X98341873Y-61134344D01*
X98343366Y-61133440D01*
X98348017Y-61130967D01*
X98352575Y-61128461D01*
X98424140Y-61093556D01*
X98425714Y-61092802D01*
X98430567Y-61090802D01*
X98435366Y-61088745D01*
X98509998Y-61060989D01*
X98511638Y-61060392D01*
X98516661Y-61058876D01*
X98521638Y-61057297D01*
X98598621Y-61036957D01*
X98600311Y-61036523D01*
X98605470Y-61035502D01*
X98610566Y-61034418D01*
X98689167Y-61021687D01*
X98690891Y-61021420D01*
X98696128Y-61020906D01*
X98701304Y-61020326D01*
X98780772Y-61015326D01*
X98782514Y-61015228D01*
X98785143Y-61015228D01*
X98787753Y-61015082D01*
X98799132Y-61015003D01*
X98800877Y-61015003D01*
X98813071Y-61015685D01*
G37*
%TD.AperFunction*%
D18*
%TO.P,J1,A12*%
X105200000Y-61140000D03*
%TO.P,J1,A4*%
%TO.N,VBUS*%
X99600000Y-61140000D03*
%TO.P,J1,B12*%
%TO.N,GND*%
X98800000Y-61140000D03*
%TO.P,J1,B4*%
%TO.N,VBUS*%
X104400000Y-61140000D03*
D19*
%TO.P,J1,S1*%
%TO.N,GND*%
X106320000Y-65890000D03*
X97680000Y-65890000D03*
D20*
X106320000Y-61720000D03*
X97680000Y-61720000D03*
D21*
%TO.P,J1,A7*%
%TO.N,D-*%
X102250000Y-61140000D03*
%TO.P,J1,A6*%
%TO.N,D+*%
X101750000Y-61140000D03*
%TO.P,J1,B6*%
X102750000Y-61140000D03*
%TO.P,J1,B7*%
%TO.N,D-*%
X101250000Y-61140000D03*
%TO.P,J1,A8*%
%TO.N,Net-(J1-PadA8)*%
X103250000Y-61140000D03*
%TO.P,J1,A5*%
%TO.N,Net-(J1-PadA5)*%
X100750000Y-61140000D03*
%TO.P,J1,B5*%
%TO.N,Net-(J1-PadB5)*%
X103750000Y-61140000D03*
%TO.P,J1,B8*%
%TO.N,Net-(J1-PadB8)*%
X100250000Y-61140000D03*
D18*
%TO.P,J1,A9*%
%TO.N,VBUS*%
X104400000Y-61140000D03*
%TO.P,J1,B9*%
X99600000Y-61140000D03*
%TO.P,J1,B1*%
%TO.N,GND*%
X105200000Y-61140000D03*
D22*
%TO.P,J1,S1*%
X104890000Y-62210000D03*
X99110000Y-62210000D03*
D18*
%TO.P,J1,A1*%
X98800000Y-61140000D03*
%TD*%
%TO.P,R1,2*%
%TO.N,IN2*%
%TA.AperFunction,SMDPad,CuDef*%
G36*
G01*
X99775000Y-42075000D02*
X99225000Y-42075000D01*
G75*
G02*
X99025000Y-41875000I0J200000D01*
G01*
X99025000Y-41475000D01*
G75*
G02*
X99225000Y-41275000I200000J0D01*
G01*
X99775000Y-41275000D01*
G75*
G02*
X99975000Y-41475000I0J-200000D01*
G01*
X99975000Y-41875000D01*
G75*
G02*
X99775000Y-42075000I-200000J0D01*
G01*
G37*
%TD.AperFunction*%
%TO.P,R1,1*%
%TO.N,FAULT*%
%TA.AperFunction,SMDPad,CuDef*%
G36*
G01*
X99775000Y-43725000D02*
X99225000Y-43725000D01*
G75*
G02*
X99025000Y-43525000I0J200000D01*
G01*
X99025000Y-43125000D01*
G75*
G02*
X99225000Y-42925000I200000J0D01*
G01*
X99775000Y-42925000D01*
G75*
G02*
X99975000Y-43125000I0J-200000D01*
G01*
X99975000Y-43525000D01*
G75*
G02*
X99775000Y-43725000I-200000J0D01*
G01*
G37*
%TD.AperFunction*%
%TD*%
D23*
%TO.P,J2,10*%
%TO.N,~BACKLIGHT*%
X101400000Y-35450000D03*
%TO.P,J2,9*%
%TO.N,T*%
X101400000Y-37950000D03*
%TO.P,J2,8*%
%TO.N,GND*%
X101400000Y-40450000D03*
%TO.P,J2,7*%
%TO.N,FAULT*%
X101400000Y-42950000D03*
%TO.P,J2,6*%
%TO.N,GND*%
X101400000Y-45450000D03*
%TO.P,J2,5*%
%TO.N,ENGHOLD*%
X101400000Y-47950000D03*
%TO.P,J2,4*%
%TO.N,STB*%
X101400000Y-50450000D03*
%TO.P,J2,3*%
%TO.N,BELL*%
X101400000Y-52950000D03*
%TO.P,J2,2*%
%TO.N,+12V*%
X101400000Y-55450000D03*
%TO.P,J2,1*%
%TO.N,GND*%
%TA.AperFunction,ComponentPad*%
G36*
G01*
X102075000Y-58800000D02*
X100725000Y-58800000D01*
G75*
G02*
X100475000Y-58550000I0J250000D01*
G01*
X100475000Y-57350000D01*
G75*
G02*
X100725000Y-57100000I250000J0D01*
G01*
X102075000Y-57100000D01*
G75*
G02*
X102325000Y-57350000I0J-250000D01*
G01*
X102325000Y-58550000D01*
G75*
G02*
X102075000Y-58800000I-250000J0D01*
G01*
G37*
%TD.AperFunction*%
%TD*%
%TO.P,C2,2*%
%TO.N,GND*%
%TA.AperFunction,SMDPad,CuDef*%
G36*
G01*
X98050000Y-42825000D02*
X98550000Y-42825000D01*
G75*
G02*
X98775000Y-43050000I0J-225000D01*
G01*
X98775000Y-43500000D01*
G75*
G02*
X98550000Y-43725000I-225000J0D01*
G01*
X98050000Y-43725000D01*
G75*
G02*
X97825000Y-43500000I0J225000D01*
G01*
X97825000Y-43050000D01*
G75*
G02*
X98050000Y-42825000I225000J0D01*
G01*
G37*
%TD.AperFunction*%
%TO.P,C2,1*%
%TO.N,IN2*%
%TA.AperFunction,SMDPad,CuDef*%
G36*
G01*
X98050000Y-41275000D02*
X98550000Y-41275000D01*
G75*
G02*
X98775000Y-41500000I0J-225000D01*
G01*
X98775000Y-41950000D01*
G75*
G02*
X98550000Y-42175000I-225000J0D01*
G01*
X98050000Y-42175000D01*
G75*
G02*
X97825000Y-41950000I0J225000D01*
G01*
X97825000Y-41500000D01*
G75*
G02*
X98050000Y-41275000I225000J0D01*
G01*
G37*
%TD.AperFunction*%
%TD*%
D24*
%TO.P,U1,38*%
%TO.N,GND*%
X90000000Y-40445000D03*
%TO.P,U1,37*%
%TO.N,OUT4*%
X90000000Y-41715000D03*
%TO.P,U1,36*%
%TO.N,OUT3*%
X90000000Y-42985000D03*
%TO.P,U1,35*%
%TO.N,O*%
X90000000Y-44255000D03*
%TO.P,U1,34*%
%TO.N,I*%
X90000000Y-45525000D03*
%TO.P,U1,33*%
%TO.N,OUT2*%
X90000000Y-46795000D03*
%TO.P,U1,32*%
%TO.N,Net-(U1-Pad32)*%
X90000000Y-48065000D03*
%TO.P,U1,31*%
%TO.N,OUT1*%
X90000000Y-49335000D03*
%TO.P,U1,30*%
%TO.N,Net-(U1-Pad30)*%
X90000000Y-50605000D03*
%TO.P,U1,29*%
%TO.N,Net-(U1-Pad29)*%
X90000000Y-51875000D03*
%TO.P,U1,28*%
%TO.N,Net-(U1-Pad28)*%
X90000000Y-53145000D03*
%TO.P,U1,27*%
%TO.N,Net-(U1-Pad27)*%
X90000000Y-54415000D03*
%TO.P,U1,26*%
%TO.N,Net-(U1-Pad26)*%
X90000000Y-55685000D03*
%TO.P,U1,25*%
%TO.N,BOOT*%
X90000000Y-56955000D03*
D25*
%TO.P,U1,24*%
%TO.N,Net-(U1-Pad24)*%
X87215000Y-57955000D03*
%TO.P,U1,23*%
%TO.N,Net-(U1-Pad23)*%
X85945000Y-57955000D03*
%TO.P,U1,22*%
%TO.N,Net-(U1-Pad22)*%
X84675000Y-57955000D03*
%TO.P,U1,21*%
%TO.N,Net-(U1-Pad21)*%
X83405000Y-57955000D03*
%TO.P,U1,20*%
%TO.N,Net-(U1-Pad20)*%
X82135000Y-57955000D03*
%TO.P,U1,19*%
%TO.N,Net-(U1-Pad19)*%
X80865000Y-57955000D03*
%TO.P,U1,18*%
%TO.N,Net-(U1-Pad18)*%
X79595000Y-57955000D03*
%TO.P,U1,17*%
%TO.N,Net-(U1-Pad17)*%
X78325000Y-57955000D03*
%TO.P,U1,16*%
%TO.N,IN2*%
X77055000Y-57955000D03*
%TO.P,U1,15*%
%TO.N,GND*%
X75785000Y-57955000D03*
D24*
%TO.P,U1,14*%
%TO.N,Net-(U1-Pad14)*%
X73000000Y-56955000D03*
%TO.P,U1,13*%
%TO.N,IN1*%
X73000000Y-55685000D03*
%TO.P,U1,12*%
%TO.N,G*%
X73000000Y-54415000D03*
%TO.P,U1,11*%
%TO.N,R*%
X73000000Y-53145000D03*
%TO.P,U1,10*%
%TO.N,B*%
X73000000Y-51875000D03*
%TO.P,U1,9*%
%TO.N,Net-(U1-Pad9)*%
X73000000Y-50605000D03*
%TO.P,U1,8*%
%TO.N,Net-(U1-Pad8)*%
X73000000Y-49335000D03*
%TO.P,U1,7*%
%TO.N,Net-(U1-Pad7)*%
X73000000Y-48065000D03*
%TO.P,U1,6*%
%TO.N,Net-(U1-Pad6)*%
X73000000Y-46795000D03*
%TO.P,U1,5*%
%TO.N,Net-(U1-Pad5)*%
X73000000Y-45525000D03*
%TO.P,U1,4*%
%TO.N,Net-(U1-Pad4)*%
X73000000Y-44255000D03*
%TO.P,U1,3*%
%TO.N,EN*%
X73000000Y-42985000D03*
%TO.P,U1,2*%
%TO.N,+3V3*%
X73000000Y-41715000D03*
%TO.P,U1,1*%
%TO.N,GND*%
X73000000Y-40445000D03*
D26*
%TO.P,U1,39*%
X80500000Y-47945000D03*
%TD*%
%TA.AperFunction,SMDPad,CuDef*%
D16*
%TO.P,Reg1,4*%
%TO.N,+3V3*%
G36*
X93741745Y-59800012D02*
G01*
X93743925Y-59800149D01*
X93746106Y-59800149D01*
X93855399Y-59805494D01*
X93857142Y-59805591D01*
X93862396Y-59806181D01*
X93867554Y-59806686D01*
X93975803Y-59822671D01*
X93977527Y-59822938D01*
X93982653Y-59824027D01*
X93987782Y-59825043D01*
X94093956Y-59851515D01*
X94095646Y-59851949D01*
X94100632Y-59853531D01*
X94105647Y-59855045D01*
X94208724Y-59891749D01*
X94208731Y-59891751D01*
X94208738Y-59891754D01*
X94210370Y-59892347D01*
X94215193Y-59894415D01*
X94220022Y-59896405D01*
X94319032Y-59942996D01*
X94320606Y-59943750D01*
X94325246Y-59946301D01*
X94329813Y-59948729D01*
X94423804Y-60004758D01*
X94425297Y-60005662D01*
X94429597Y-60008606D01*
X94433977Y-60011516D01*
X94522050Y-60076450D01*
X94523448Y-60077495D01*
X94527465Y-60080866D01*
X94531515Y-60084169D01*
X94612832Y-60157388D01*
X94614120Y-60158565D01*
X94617802Y-60162325D01*
X94621496Y-60165993D01*
X94695282Y-60246797D01*
X94696450Y-60248094D01*
X94699731Y-60252175D01*
X94703067Y-60256207D01*
X94768613Y-60343826D01*
X94769649Y-60345230D01*
X94772520Y-60349618D01*
X94775443Y-60353951D01*
X94832127Y-60447548D01*
X94833020Y-60449046D01*
X94835444Y-60453683D01*
X94837935Y-60458290D01*
X94885216Y-60556972D01*
X94885959Y-60558551D01*
X94887913Y-60563388D01*
X94889949Y-60568230D01*
X94927374Y-60671054D01*
X94927959Y-60672698D01*
X94929444Y-60677744D01*
X94930985Y-60682721D01*
X94958197Y-60788708D01*
X94958619Y-60790401D01*
X94959606Y-60795574D01*
X94960652Y-60800669D01*
X94977393Y-60908804D01*
X94977648Y-60910530D01*
X94978120Y-60915721D01*
X94978670Y-60920951D01*
X94984418Y-61023771D01*
X95569120Y-62862112D01*
X95569637Y-62863779D01*
X95572601Y-62875627D01*
X95574394Y-62887707D01*
X95575000Y-62899904D01*
X95574413Y-62912103D01*
X95572637Y-62924185D01*
X95569692Y-62936037D01*
X95565605Y-62947545D01*
X95560413Y-62958599D01*
X95554167Y-62969094D01*
X95546928Y-62978930D01*
X95538763Y-62988011D01*
X95529752Y-62996253D01*
X95519978Y-63003575D01*
X95509537Y-63009910D01*
X95498527Y-63015196D01*
X95487054Y-63019381D01*
X95475228Y-63022427D01*
X95463161Y-63024305D01*
X95450968Y-63024996D01*
X95438766Y-63024494D01*
X95426671Y-63022803D01*
X95414799Y-63019941D01*
X95403262Y-63015933D01*
X95392173Y-63010819D01*
X95381634Y-63004648D01*
X95371749Y-62997477D01*
X95362611Y-62989375D01*
X95354306Y-62980421D01*
X95346915Y-62970699D01*
X95340508Y-62960302D01*
X95335146Y-62949330D01*
X95330880Y-62937887D01*
X94740880Y-61082887D01*
X94740479Y-61081595D01*
X94740460Y-61081542D01*
X94740448Y-61081497D01*
X94740363Y-61081221D01*
X94738867Y-61075241D01*
X94737466Y-61069702D01*
X94737443Y-61069547D01*
X94737399Y-61069373D01*
X94736483Y-61063201D01*
X94735640Y-61057627D01*
X94735632Y-61057465D01*
X94735606Y-61057293D01*
X94735304Y-61051214D01*
X94735001Y-61045432D01*
X94734985Y-61040891D01*
X94729401Y-60941007D01*
X94714532Y-60844963D01*
X94690361Y-60750820D01*
X94657114Y-60659476D01*
X94615119Y-60571827D01*
X94564767Y-60488684D01*
X94506543Y-60410856D01*
X94441007Y-60339084D01*
X94368771Y-60274042D01*
X94290539Y-60216366D01*
X94207054Y-60166599D01*
X94119106Y-60125213D01*
X94027547Y-60092611D01*
X93933233Y-60069096D01*
X93837082Y-60054897D01*
X93736941Y-60050000D01*
X90395142Y-60050000D01*
X90390891Y-60050015D01*
X90291007Y-60055599D01*
X90194963Y-60070468D01*
X90100820Y-60094639D01*
X90009476Y-60127886D01*
X89921827Y-60169881D01*
X89838684Y-60220233D01*
X89760856Y-60278457D01*
X89689084Y-60343993D01*
X89624042Y-60416229D01*
X89566366Y-60494461D01*
X89516599Y-60577946D01*
X89475213Y-60665894D01*
X89442611Y-60757453D01*
X89419096Y-60851767D01*
X89404897Y-60947918D01*
X89400000Y-61048059D01*
X89400000Y-62050000D01*
X88800000Y-62050000D01*
X88800000Y-60950000D01*
X89154496Y-60950000D01*
X89155494Y-60929601D01*
X89155591Y-60927858D01*
X89156184Y-60922573D01*
X89156686Y-60917446D01*
X89172671Y-60809197D01*
X89172938Y-60807473D01*
X89174027Y-60802347D01*
X89175043Y-60797218D01*
X89201515Y-60691044D01*
X89201949Y-60689354D01*
X89203531Y-60684368D01*
X89205045Y-60679353D01*
X89241751Y-60576270D01*
X89242347Y-60574630D01*
X89244415Y-60569807D01*
X89246405Y-60564978D01*
X89292996Y-60465968D01*
X89293750Y-60464394D01*
X89296301Y-60459754D01*
X89298729Y-60455187D01*
X89354758Y-60361196D01*
X89355662Y-60359703D01*
X89358606Y-60355403D01*
X89361516Y-60351023D01*
X89426450Y-60262950D01*
X89427495Y-60261552D01*
X89430866Y-60257535D01*
X89434169Y-60253485D01*
X89507388Y-60172168D01*
X89508565Y-60170880D01*
X89512325Y-60167198D01*
X89515993Y-60163504D01*
X89596797Y-60089718D01*
X89598094Y-60088550D01*
X89602175Y-60085269D01*
X89606207Y-60081933D01*
X89693826Y-60016387D01*
X89695230Y-60015351D01*
X89699618Y-60012480D01*
X89703951Y-60009557D01*
X89797548Y-59952873D01*
X89799046Y-59951980D01*
X89803683Y-59949556D01*
X89808290Y-59947065D01*
X89906972Y-59899784D01*
X89908551Y-59899041D01*
X89913388Y-59897087D01*
X89918230Y-59895051D01*
X90021054Y-59857626D01*
X90022698Y-59857041D01*
X90027744Y-59855556D01*
X90032721Y-59854015D01*
X90138708Y-59826803D01*
X90140401Y-59826381D01*
X90145574Y-59825394D01*
X90150669Y-59824348D01*
X90258804Y-59807607D01*
X90260530Y-59807352D01*
X90265744Y-59806877D01*
X90270951Y-59806330D01*
X90380204Y-59800222D01*
X90381947Y-59800136D01*
X90384363Y-59800153D01*
X90386749Y-59800028D01*
X90394568Y-59800001D01*
X90394953Y-59800002D01*
X90395000Y-59800000D01*
X93740000Y-59800000D01*
X93741745Y-59800012D01*
G37*
%TD.AperFunction*%
%TA.AperFunction,SMDPad,CuDef*%
%TO.P,Reg1,2*%
%TO.N,+12V*%
G36*
X90003956Y-64150389D02*
G01*
X90028247Y-64152943D01*
X90052173Y-64157854D01*
X90075506Y-64165076D01*
X90098022Y-64174542D01*
X90119508Y-64186159D01*
X90139756Y-64199818D01*
X90158576Y-64215387D01*
X90175787Y-64232717D01*
X90191224Y-64251646D01*
X90204740Y-64271990D01*
X90216207Y-64293556D01*
X90225515Y-64316137D01*
X90232574Y-64339520D01*
X90237318Y-64363480D01*
X90239702Y-64387788D01*
X90239702Y-64412213D01*
X90234929Y-64509776D01*
X90234929Y-64509795D01*
X90234927Y-64509817D01*
X90234734Y-64513282D01*
X90233566Y-64523698D01*
X90232545Y-64534103D01*
X90218273Y-64630754D01*
X90217739Y-64634204D01*
X90215564Y-64644436D01*
X90213529Y-64654715D01*
X90189893Y-64749513D01*
X90189025Y-64752894D01*
X90185863Y-64762859D01*
X90182834Y-64772894D01*
X90150061Y-64864932D01*
X90148867Y-64868213D01*
X90144739Y-64877844D01*
X90140754Y-64887513D01*
X90099156Y-64975915D01*
X90097647Y-64979064D01*
X90092589Y-64988264D01*
X90087687Y-64997484D01*
X90037660Y-65081404D01*
X90035852Y-65084390D01*
X90029914Y-65093062D01*
X90024143Y-65101748D01*
X89966176Y-65180371D01*
X89966169Y-65180382D01*
X89966160Y-65180393D01*
X89964076Y-65183181D01*
X89957341Y-65191207D01*
X89950731Y-65199311D01*
X89885365Y-65271908D01*
X89885357Y-65271917D01*
X89885347Y-65271927D01*
X89883005Y-65274494D01*
X89875494Y-65281849D01*
X89868146Y-65289248D01*
X89796010Y-65355117D01*
X89796001Y-65355126D01*
X89795990Y-65355135D01*
X89793405Y-65357463D01*
X89785263Y-65364009D01*
X89777181Y-65370695D01*
X89698950Y-65429220D01*
X89696140Y-65431292D01*
X89687368Y-65437032D01*
X89678700Y-65442879D01*
X89595140Y-65493484D01*
X89595131Y-65493490D01*
X89595120Y-65493496D01*
X89592132Y-65495278D01*
X89582842Y-65500134D01*
X89573645Y-65505107D01*
X89485553Y-65547313D01*
X89485537Y-65547322D01*
X89485517Y-65547330D01*
X89482378Y-65548808D01*
X89472671Y-65552730D01*
X89463020Y-65556786D01*
X89371219Y-65590198D01*
X89371213Y-65590201D01*
X89371205Y-65590203D01*
X89367923Y-65591373D01*
X89357875Y-65594330D01*
X89347880Y-65597424D01*
X89253251Y-65621721D01*
X89249864Y-65622566D01*
X89239553Y-65624533D01*
X89229325Y-65626632D01*
X89132775Y-65641579D01*
X89129322Y-65642089D01*
X89118875Y-65643040D01*
X89108484Y-65644132D01*
X89010937Y-65649586D01*
X89007450Y-65649757D01*
X89002646Y-65649723D01*
X88997840Y-65649975D01*
X88990859Y-65649999D01*
X88987368Y-65649987D01*
X88962987Y-65648536D01*
X88938863Y-65644714D01*
X88915228Y-65638556D01*
X88892306Y-65630121D01*
X88870316Y-65619490D01*
X88849468Y-65606762D01*
X88829962Y-65592062D01*
X88811984Y-65575529D01*
X88795706Y-65557320D01*
X88781281Y-65537609D01*
X88768848Y-65516585D01*
X88758527Y-65494448D01*
X88750416Y-65471409D01*
X88744590Y-65447689D01*
X88741108Y-65423514D01*
X88740001Y-65399114D01*
X88741282Y-65374723D01*
X88744935Y-65350573D01*
X88750927Y-65326894D01*
X88759202Y-65303914D01*
X88769681Y-65281851D01*
X88782262Y-65260915D01*
X88796825Y-65241307D01*
X88813232Y-65223214D01*
X88831328Y-65206808D01*
X88850937Y-65192247D01*
X88871874Y-65179668D01*
X88893938Y-65169192D01*
X88916920Y-65160920D01*
X88940598Y-65154929D01*
X88964749Y-65151278D01*
X88989141Y-65150001D01*
X88989580Y-65149999D01*
X89068362Y-65145595D01*
X89140744Y-65134389D01*
X89211700Y-65116171D01*
X89280527Y-65091119D01*
X89346585Y-65059469D01*
X89409224Y-65021534D01*
X89467879Y-64977653D01*
X89521968Y-64928264D01*
X89570975Y-64873835D01*
X89614445Y-64814873D01*
X89651944Y-64751969D01*
X89683133Y-64685689D01*
X89707703Y-64616687D01*
X89725424Y-64545613D01*
X89736123Y-64473155D01*
X89740299Y-64387786D01*
X89740493Y-64384301D01*
X89743216Y-64360029D01*
X89748294Y-64336137D01*
X89755680Y-64312856D01*
X89765302Y-64290406D01*
X89777068Y-64269003D01*
X89790869Y-64248849D01*
X89806568Y-64230139D01*
X89824019Y-64213050D01*
X89843054Y-64197745D01*
X89863492Y-64184371D01*
X89885138Y-64173055D01*
X89907784Y-64163905D01*
X89931216Y-64157010D01*
X89955208Y-64152432D01*
X89979532Y-64150219D01*
X90003956Y-64150389D01*
G37*
%TD.AperFunction*%
%TA.AperFunction,SMDPad,CuDef*%
%TO.P,Reg1,3*%
%TO.N,GND*%
G36*
X93503491Y-60250024D02*
G01*
X93507858Y-60250299D01*
X93512214Y-60250299D01*
X93556107Y-60252446D01*
X93556121Y-60252446D01*
X93556137Y-60252448D01*
X93559613Y-60252641D01*
X93570056Y-60253813D01*
X93580430Y-60254830D01*
X93623919Y-60261251D01*
X93623925Y-60261252D01*
X93623932Y-60261253D01*
X93627374Y-60261785D01*
X93637668Y-60263973D01*
X93647885Y-60265996D01*
X93690528Y-60276628D01*
X93690543Y-60276631D01*
X93690559Y-60276636D01*
X93693926Y-60277500D01*
X93703902Y-60280665D01*
X93713925Y-60283691D01*
X93755343Y-60298439D01*
X93755349Y-60298441D01*
X93755353Y-60298443D01*
X93758624Y-60299633D01*
X93768236Y-60303753D01*
X93777931Y-60307749D01*
X93817712Y-60326469D01*
X93820860Y-60327978D01*
X93830028Y-60333018D01*
X93839269Y-60337932D01*
X93877033Y-60360443D01*
X93880019Y-60362251D01*
X93888676Y-60368178D01*
X93897382Y-60373963D01*
X93932751Y-60400039D01*
X93932768Y-60400051D01*
X93932786Y-60400066D01*
X93935565Y-60402144D01*
X93943575Y-60408865D01*
X93951696Y-60415489D01*
X93984368Y-60444907D01*
X93986946Y-60447261D01*
X93994260Y-60454730D01*
X94001698Y-60462116D01*
X94031333Y-60494571D01*
X94031345Y-60494583D01*
X94031357Y-60494598D01*
X94033680Y-60497176D01*
X94040243Y-60505339D01*
X94046914Y-60513403D01*
X94073250Y-60548607D01*
X94075322Y-60551417D01*
X94081058Y-60560184D01*
X94086908Y-60568856D01*
X94109683Y-60606462D01*
X94111471Y-60609461D01*
X94116307Y-60618712D01*
X94121302Y-60627950D01*
X94140298Y-60667600D01*
X94141784Y-60670758D01*
X94145704Y-60680461D01*
X94149761Y-60690111D01*
X94164791Y-60731406D01*
X94164798Y-60731424D01*
X94164805Y-60731445D01*
X94165969Y-60734713D01*
X94168932Y-60744782D01*
X94172020Y-60754757D01*
X94182951Y-60797328D01*
X94182955Y-60797342D01*
X94182958Y-60797359D01*
X94183799Y-60800728D01*
X94185761Y-60811014D01*
X94187866Y-60821268D01*
X94194592Y-60864716D01*
X94195102Y-60868169D01*
X94196053Y-60878620D01*
X94197145Y-60889008D01*
X94199599Y-60932904D01*
X94199770Y-60936391D01*
X94199736Y-60941199D01*
X94199987Y-60945983D01*
X94199998Y-60949125D01*
X94199996Y-60949909D01*
X94200000Y-60950000D01*
X94200000Y-65750000D01*
X94199976Y-65753491D01*
X94198442Y-65777867D01*
X94194537Y-65801978D01*
X94188298Y-65825592D01*
X94179784Y-65848485D01*
X94169077Y-65870438D01*
X94156278Y-65891242D01*
X94141511Y-65910697D01*
X94124916Y-65928618D01*
X94106651Y-65944834D01*
X94086891Y-65959191D01*
X94065824Y-65971551D01*
X94062500Y-65973087D01*
X94062500Y-67100000D01*
X95550000Y-67100000D01*
X95553491Y-67100024D01*
X95577867Y-67101558D01*
X95601978Y-67105463D01*
X95625592Y-67111702D01*
X95648485Y-67120216D01*
X95670438Y-67130923D01*
X95691242Y-67143722D01*
X95710697Y-67158489D01*
X95728618Y-67175084D01*
X95744834Y-67193349D01*
X95759191Y-67213109D01*
X95771551Y-67234176D01*
X95781796Y-67256348D01*
X95789828Y-67279415D01*
X95795572Y-67303155D01*
X95798971Y-67327342D01*
X95799994Y-67351745D01*
X95798630Y-67376132D01*
X95794894Y-67400269D01*
X95788820Y-67423927D01*
X95780466Y-67446879D01*
X95769912Y-67468906D01*
X95757259Y-67489798D01*
X95742628Y-67509356D01*
X95726159Y-67527393D01*
X95708007Y-67543736D01*
X95688348Y-67558230D01*
X95667368Y-67570737D01*
X95645268Y-67581137D01*
X95622258Y-67589330D01*
X95598559Y-67595239D01*
X95574396Y-67598807D01*
X95550000Y-67600000D01*
X88950000Y-67600000D01*
X88946509Y-67599976D01*
X88922133Y-67598442D01*
X88898022Y-67594537D01*
X88874408Y-67588298D01*
X88851515Y-67579784D01*
X88829562Y-67569077D01*
X88808758Y-67556278D01*
X88789303Y-67541511D01*
X88771382Y-67524916D01*
X88755166Y-67506651D01*
X88740809Y-67486891D01*
X88728449Y-67465824D01*
X88718204Y-67443652D01*
X88710172Y-67420585D01*
X88704428Y-67396845D01*
X88701029Y-67372658D01*
X88700006Y-67348255D01*
X88701370Y-67323868D01*
X88705106Y-67299731D01*
X88711180Y-67276073D01*
X88719534Y-67253121D01*
X88730088Y-67231094D01*
X88742741Y-67210202D01*
X88757372Y-67190644D01*
X88773841Y-67172607D01*
X88791993Y-67156264D01*
X88811652Y-67141770D01*
X88832632Y-67129263D01*
X88854732Y-67118863D01*
X88877742Y-67110670D01*
X88901441Y-67104761D01*
X88925604Y-67101193D01*
X88950000Y-67100000D01*
X93562500Y-67100000D01*
X93562500Y-65750000D01*
X93562524Y-65746509D01*
X93564058Y-65722133D01*
X93567963Y-65698022D01*
X93574202Y-65674408D01*
X93582716Y-65651515D01*
X93593423Y-65629562D01*
X93606222Y-65608758D01*
X93620989Y-65589303D01*
X93637584Y-65571382D01*
X93655849Y-65555166D01*
X93675609Y-65540809D01*
X93696676Y-65528449D01*
X93700000Y-65526913D01*
X93700000Y-60954033D01*
X93698608Y-60929127D01*
X93695622Y-60909842D01*
X93690772Y-60890954D01*
X93684095Y-60872608D01*
X93675664Y-60855013D01*
X93665560Y-60838329D01*
X93653874Y-60822708D01*
X93640715Y-60808297D01*
X93626212Y-60795239D01*
X93610516Y-60783666D01*
X93593757Y-60773676D01*
X93576099Y-60765367D01*
X93557720Y-60758822D01*
X93538793Y-60754103D01*
X93519485Y-60751252D01*
X93493899Y-60750000D01*
X90504033Y-60750000D01*
X90479127Y-60751392D01*
X90459842Y-60754378D01*
X90440954Y-60759228D01*
X90422608Y-60765905D01*
X90405013Y-60774336D01*
X90388329Y-60784440D01*
X90372708Y-60796126D01*
X90358297Y-60809285D01*
X90345239Y-60823788D01*
X90333666Y-60839484D01*
X90323676Y-60856243D01*
X90315367Y-60873901D01*
X90308822Y-60892280D01*
X90304103Y-60911207D01*
X90301252Y-60930515D01*
X90300000Y-60956101D01*
X90300000Y-61450000D01*
X90299976Y-61453491D01*
X90298442Y-61477867D01*
X90294537Y-61501978D01*
X90288298Y-61525592D01*
X90279784Y-61548485D01*
X90269077Y-61570438D01*
X90256278Y-61591242D01*
X90241511Y-61610697D01*
X90224916Y-61628618D01*
X90206651Y-61644834D01*
X90186891Y-61659191D01*
X90165824Y-61671551D01*
X90143652Y-61681796D01*
X90120585Y-61689828D01*
X90096845Y-61695572D01*
X90072658Y-61698971D01*
X90048255Y-61699994D01*
X90023868Y-61698630D01*
X89999731Y-61694894D01*
X89976073Y-61688820D01*
X89953121Y-61680466D01*
X89931094Y-61669912D01*
X89910202Y-61657259D01*
X89890644Y-61642628D01*
X89872607Y-61626159D01*
X89856264Y-61608007D01*
X89841770Y-61588348D01*
X89829263Y-61567368D01*
X89818863Y-61545268D01*
X89810670Y-61522258D01*
X89804761Y-61498559D01*
X89801193Y-61474396D01*
X89800000Y-61450000D01*
X89800000Y-60950000D01*
X89800024Y-60946509D01*
X89800299Y-60942142D01*
X89800299Y-60937786D01*
X89802446Y-60893893D01*
X89802446Y-60893879D01*
X89802448Y-60893863D01*
X89802641Y-60890387D01*
X89803813Y-60879944D01*
X89804830Y-60869570D01*
X89811252Y-60826077D01*
X89811785Y-60822626D01*
X89813973Y-60812332D01*
X89815996Y-60802115D01*
X89826628Y-60759472D01*
X89826631Y-60759457D01*
X89826636Y-60759441D01*
X89827500Y-60756074D01*
X89830665Y-60746098D01*
X89833691Y-60736075D01*
X89848439Y-60694657D01*
X89849633Y-60691376D01*
X89853753Y-60681764D01*
X89857749Y-60672069D01*
X89876469Y-60632288D01*
X89877978Y-60629140D01*
X89883018Y-60619972D01*
X89887932Y-60610731D01*
X89910443Y-60572967D01*
X89912251Y-60569981D01*
X89918178Y-60561324D01*
X89923963Y-60552618D01*
X89950039Y-60517249D01*
X89950051Y-60517232D01*
X89950066Y-60517214D01*
X89952144Y-60514435D01*
X89958865Y-60506425D01*
X89965489Y-60498304D01*
X89994907Y-60465632D01*
X89997261Y-60463054D01*
X90004730Y-60455740D01*
X90012116Y-60448302D01*
X90044571Y-60418667D01*
X90044583Y-60418655D01*
X90044598Y-60418643D01*
X90047176Y-60416320D01*
X90055339Y-60409757D01*
X90063403Y-60403086D01*
X90098607Y-60376750D01*
X90101417Y-60374678D01*
X90110184Y-60368942D01*
X90118856Y-60363092D01*
X90156462Y-60340317D01*
X90159461Y-60338529D01*
X90168712Y-60333693D01*
X90177950Y-60328698D01*
X90217600Y-60309702D01*
X90220758Y-60308216D01*
X90230461Y-60304296D01*
X90240111Y-60300239D01*
X90281406Y-60285209D01*
X90281424Y-60285202D01*
X90281445Y-60285195D01*
X90284713Y-60284031D01*
X90294782Y-60281068D01*
X90304757Y-60277980D01*
X90347328Y-60267049D01*
X90347342Y-60267045D01*
X90347359Y-60267042D01*
X90350728Y-60266201D01*
X90361014Y-60264239D01*
X90371268Y-60262134D01*
X90414716Y-60255408D01*
X90418169Y-60254898D01*
X90428620Y-60253947D01*
X90439008Y-60252855D01*
X90482904Y-60250401D01*
X90486391Y-60250230D01*
X90491199Y-60250264D01*
X90495983Y-60250013D01*
X90499125Y-60250002D01*
X90499909Y-60250004D01*
X90500000Y-60250000D01*
X93500000Y-60250000D01*
X93503491Y-60250024D01*
G37*
%TD.AperFunction*%
D27*
%TO.P,Reg1,4*%
%TO.N,+3V3*%
X95450000Y-63650000D03*
D28*
%TO.P,Reg1,~*%
%TO.N,N/C*%
X91000000Y-61500000D03*
%TO.P,Reg1,4*%
%TO.N,+3V3*%
X89100000Y-61500000D03*
%TO.P,Reg1,3*%
%TO.N,GND*%
X90050000Y-61500000D03*
%TO.P,Reg1,1*%
%TO.N,+12V*%
X89100000Y-64200000D03*
%TO.P,Reg1,2*%
X90050000Y-64200000D03*
%TO.P,Reg1,~*%
%TO.N,N/C*%
X91000000Y-64200000D03*
%TO.P,Reg1,4*%
%TO.N,+3V3*%
%TA.AperFunction,SMDPad,CuDef*%
G36*
G01*
X94975000Y-64950000D02*
X95925000Y-64950000D01*
G75*
G02*
X96175000Y-65200000I0J-250000D01*
G01*
X96175000Y-65700000D01*
G75*
G02*
X95925000Y-65950000I-250000J0D01*
G01*
X94975000Y-65950000D01*
G75*
G02*
X94725000Y-65700000I0J250000D01*
G01*
X94725000Y-65200000D01*
G75*
G02*
X94975000Y-64950000I250000J0D01*
G01*
G37*
%TD.AperFunction*%
%TO.P,Reg1,3*%
%TO.N,GND*%
%TA.AperFunction,SMDPad,CuDef*%
G36*
G01*
X94975000Y-66850000D02*
X95925000Y-66850000D01*
G75*
G02*
X96175000Y-67100000I0J-250000D01*
G01*
X96175000Y-67600000D01*
G75*
G02*
X95925000Y-67850000I-250000J0D01*
G01*
X94975000Y-67850000D01*
G75*
G02*
X94725000Y-67600000I0J250000D01*
G01*
X94725000Y-67100000D01*
G75*
G02*
X94975000Y-66850000I250000J0D01*
G01*
G37*
%TD.AperFunction*%
%TA.AperFunction,SMDPad,CuDef*%
G36*
G01*
X88725000Y-66850000D02*
X89675000Y-66850000D01*
G75*
G02*
X89925000Y-67100000I0J-250000D01*
G01*
X89925000Y-67600000D01*
G75*
G02*
X89675000Y-67850000I-250000J0D01*
G01*
X88725000Y-67850000D01*
G75*
G02*
X88475000Y-67600000I0J250000D01*
G01*
X88475000Y-67100000D01*
G75*
G02*
X88725000Y-66850000I250000J0D01*
G01*
G37*
%TD.AperFunction*%
%TO.P,Reg1,2*%
%TO.N,+12V*%
%TA.AperFunction,SMDPad,CuDef*%
G36*
G01*
X88725000Y-64950000D02*
X89675000Y-64950000D01*
G75*
G02*
X89925000Y-65200000I0J-250000D01*
G01*
X89925000Y-65700000D01*
G75*
G02*
X89675000Y-65950000I-250000J0D01*
G01*
X88725000Y-65950000D01*
G75*
G02*
X88475000Y-65700000I0J250000D01*
G01*
X88475000Y-65200000D01*
G75*
G02*
X88725000Y-64950000I250000J0D01*
G01*
G37*
%TD.AperFunction*%
%TO.P,Reg1,~*%
%TO.N,N/C*%
%TA.AperFunction,SMDPad,CuDef*%
G36*
G01*
X88200000Y-62525000D02*
X87700000Y-62525000D01*
G75*
G02*
X87475000Y-62300000I0J225000D01*
G01*
X87475000Y-61850000D01*
G75*
G02*
X87700000Y-61625000I225000J0D01*
G01*
X88200000Y-61625000D01*
G75*
G02*
X88425000Y-61850000I0J-225000D01*
G01*
X88425000Y-62300000D01*
G75*
G02*
X88200000Y-62525000I-225000J0D01*
G01*
G37*
%TD.AperFunction*%
%TA.AperFunction,SMDPad,CuDef*%
G36*
G01*
X88200000Y-64075000D02*
X87700000Y-64075000D01*
G75*
G02*
X87475000Y-63850000I0J225000D01*
G01*
X87475000Y-63400000D01*
G75*
G02*
X87700000Y-63175000I225000J0D01*
G01*
X88200000Y-63175000D01*
G75*
G02*
X88425000Y-63400000I0J-225000D01*
G01*
X88425000Y-63850000D01*
G75*
G02*
X88200000Y-64075000I-225000J0D01*
G01*
G37*
%TD.AperFunction*%
%TA.AperFunction,SMDPad,CuDef*%
G36*
G01*
X90125000Y-66645626D02*
X90125000Y-65394374D01*
G75*
G02*
X90374374Y-65145000I249374J0D01*
G01*
X91300626Y-65145000D01*
G75*
G02*
X91550000Y-65394374I0J-249374D01*
G01*
X91550000Y-66645626D01*
G75*
G02*
X91300626Y-66895000I-249374J0D01*
G01*
X90374374Y-66895000D01*
G75*
G02*
X90125000Y-66645626I0J249374D01*
G01*
G37*
%TD.AperFunction*%
%TO.P,Reg1,3*%
%TO.N,GND*%
%TA.AperFunction,SMDPad,CuDef*%
G36*
G01*
X93100000Y-66645626D02*
X93100000Y-65394374D01*
G75*
G02*
X93349374Y-65145000I249374J0D01*
G01*
X94275626Y-65145000D01*
G75*
G02*
X94525000Y-65394374I0J-249374D01*
G01*
X94525000Y-66645626D01*
G75*
G02*
X94275626Y-66895000I-249374J0D01*
G01*
X93349374Y-66895000D01*
G75*
G02*
X93100000Y-66645626I0J249374D01*
G01*
G37*
%TD.AperFunction*%
D29*
%TO.P,Reg1,4*%
%TO.N,+3V3*%
X95450000Y-62900000D03*
%TO.P,Reg1,~*%
%TO.N,N/C*%
X92450000Y-62900000D03*
%TD*%
%TO.P,R16,2*%
%TO.N,B*%
%TA.AperFunction,SMDPad,CuDef*%
G36*
G01*
X97875000Y-38825000D02*
X97875000Y-39375000D01*
G75*
G02*
X97675000Y-39575000I-200000J0D01*
G01*
X97275000Y-39575000D01*
G75*
G02*
X97075000Y-39375000I0J200000D01*
G01*
X97075000Y-38825000D01*
G75*
G02*
X97275000Y-38625000I200000J0D01*
G01*
X97675000Y-38625000D01*
G75*
G02*
X97875000Y-38825000I0J-200000D01*
G01*
G37*
%TD.AperFunction*%
%TO.P,R16,1*%
%TO.N,Net-(D2-Pad4)*%
%TA.AperFunction,SMDPad,CuDef*%
G36*
G01*
X99525000Y-38825000D02*
X99525000Y-39375000D01*
G75*
G02*
X99325000Y-39575000I-200000J0D01*
G01*
X98925000Y-39575000D01*
G75*
G02*
X98725000Y-39375000I0J200000D01*
G01*
X98725000Y-38825000D01*
G75*
G02*
X98925000Y-38625000I200000J0D01*
G01*
X99325000Y-38625000D01*
G75*
G02*
X99525000Y-38825000I0J-200000D01*
G01*
G37*
%TD.AperFunction*%
%TD*%
%TO.P,R10,2*%
%TO.N,Net-(J1-PadB5)*%
%TA.AperFunction,SMDPad,CuDef*%
G36*
G01*
X93575000Y-56225000D02*
X93575000Y-56775000D01*
G75*
G02*
X93375000Y-56975000I-200000J0D01*
G01*
X92975000Y-56975000D01*
G75*
G02*
X92775000Y-56775000I0J200000D01*
G01*
X92775000Y-56225000D01*
G75*
G02*
X92975000Y-56025000I200000J0D01*
G01*
X93375000Y-56025000D01*
G75*
G02*
X93575000Y-56225000I0J-200000D01*
G01*
G37*
%TD.AperFunction*%
%TO.P,R10,1*%
%TO.N,GND*%
%TA.AperFunction,SMDPad,CuDef*%
G36*
G01*
X95225000Y-56225000D02*
X95225000Y-56775000D01*
G75*
G02*
X95025000Y-56975000I-200000J0D01*
G01*
X94625000Y-56975000D01*
G75*
G02*
X94425000Y-56775000I0J200000D01*
G01*
X94425000Y-56225000D01*
G75*
G02*
X94625000Y-56025000I200000J0D01*
G01*
X95025000Y-56025000D01*
G75*
G02*
X95225000Y-56225000I0J-200000D01*
G01*
G37*
%TD.AperFunction*%
%TD*%
%TO.P,R9,2*%
%TO.N,GND*%
%TA.AperFunction,SMDPad,CuDef*%
G36*
G01*
X97075000Y-56225000D02*
X97075000Y-56775000D01*
G75*
G02*
X96875000Y-56975000I-200000J0D01*
G01*
X96475000Y-56975000D01*
G75*
G02*
X96275000Y-56775000I0J200000D01*
G01*
X96275000Y-56225000D01*
G75*
G02*
X96475000Y-56025000I200000J0D01*
G01*
X96875000Y-56025000D01*
G75*
G02*
X97075000Y-56225000I0J-200000D01*
G01*
G37*
%TD.AperFunction*%
%TO.P,R9,1*%
%TO.N,Net-(J1-PadA5)*%
%TA.AperFunction,SMDPad,CuDef*%
G36*
G01*
X98725000Y-56225000D02*
X98725000Y-56775000D01*
G75*
G02*
X98525000Y-56975000I-200000J0D01*
G01*
X98125000Y-56975000D01*
G75*
G02*
X97925000Y-56775000I0J200000D01*
G01*
X97925000Y-56225000D01*
G75*
G02*
X98125000Y-56025000I200000J0D01*
G01*
X98525000Y-56025000D01*
G75*
G02*
X98725000Y-56225000I0J-200000D01*
G01*
G37*
%TD.AperFunction*%
%TD*%
%TO.P,R8,2*%
%TO.N,IN1*%
%TA.AperFunction,SMDPad,CuDef*%
G36*
G01*
X92625000Y-42925000D02*
X93175000Y-42925000D01*
G75*
G02*
X93375000Y-43125000I0J-200000D01*
G01*
X93375000Y-43525000D01*
G75*
G02*
X93175000Y-43725000I-200000J0D01*
G01*
X92625000Y-43725000D01*
G75*
G02*
X92425000Y-43525000I0J200000D01*
G01*
X92425000Y-43125000D01*
G75*
G02*
X92625000Y-42925000I200000J0D01*
G01*
G37*
%TD.AperFunction*%
%TO.P,R8,1*%
%TO.N,T*%
%TA.AperFunction,SMDPad,CuDef*%
G36*
G01*
X92625000Y-41275000D02*
X93175000Y-41275000D01*
G75*
G02*
X93375000Y-41475000I0J-200000D01*
G01*
X93375000Y-41875000D01*
G75*
G02*
X93175000Y-42075000I-200000J0D01*
G01*
X92625000Y-42075000D01*
G75*
G02*
X92425000Y-41875000I0J200000D01*
G01*
X92425000Y-41475000D01*
G75*
G02*
X92625000Y-41275000I200000J0D01*
G01*
G37*
%TD.AperFunction*%
%TD*%
D30*
%TO.P,J4,2*%
%TO.N,+12V*%
X76950000Y-61400000D03*
%TO.P,J4,1*%
%TO.N,GND*%
%TA.AperFunction,ComponentPad*%
G36*
G01*
X73600000Y-62075000D02*
X73600000Y-60725000D01*
G75*
G02*
X73850000Y-60475000I250000J0D01*
G01*
X75050000Y-60475000D01*
G75*
G02*
X75300000Y-60725000I0J-250000D01*
G01*
X75300000Y-62075000D01*
G75*
G02*
X75050000Y-62325000I-250000J0D01*
G01*
X73850000Y-62325000D01*
G75*
G02*
X73600000Y-62075000I0J250000D01*
G01*
G37*
%TD.AperFunction*%
%TD*%
%TO.P,D6,2*%
%TO.N,VBUS*%
%TA.AperFunction,SMDPad,CuDef*%
G36*
G01*
X97775000Y-59125000D02*
X97775000Y-57875000D01*
G75*
G02*
X98025000Y-57625000I250000J0D01*
G01*
X98950000Y-57625000D01*
G75*
G02*
X99200000Y-57875000I0J-250000D01*
G01*
X99200000Y-59125000D01*
G75*
G02*
X98950000Y-59375000I-250000J0D01*
G01*
X98025000Y-59375000D01*
G75*
G02*
X97775000Y-59125000I0J250000D01*
G01*
G37*
%TD.AperFunction*%
%TO.P,D6,1*%
%TO.N,+12V*%
%TA.AperFunction,SMDPad,CuDef*%
G36*
G01*
X94800000Y-59125000D02*
X94800000Y-57875000D01*
G75*
G02*
X95050000Y-57625000I250000J0D01*
G01*
X95975000Y-57625000D01*
G75*
G02*
X96225000Y-57875000I0J-250000D01*
G01*
X96225000Y-59125000D01*
G75*
G02*
X95975000Y-59375000I-250000J0D01*
G01*
X95050000Y-59375000D01*
G75*
G02*
X94800000Y-59125000I0J250000D01*
G01*
G37*
%TD.AperFunction*%
%TD*%
%TO.P,C7,2*%
%TO.N,GND*%
%TA.AperFunction,SMDPad,CuDef*%
G36*
G01*
X94350000Y-42175000D02*
X93850000Y-42175000D01*
G75*
G02*
X93625000Y-41950000I0J225000D01*
G01*
X93625000Y-41500000D01*
G75*
G02*
X93850000Y-41275000I225000J0D01*
G01*
X94350000Y-41275000D01*
G75*
G02*
X94575000Y-41500000I0J-225000D01*
G01*
X94575000Y-41950000D01*
G75*
G02*
X94350000Y-42175000I-225000J0D01*
G01*
G37*
%TD.AperFunction*%
%TO.P,C7,1*%
%TO.N,IN1*%
%TA.AperFunction,SMDPad,CuDef*%
G36*
G01*
X94350000Y-43725000D02*
X93850000Y-43725000D01*
G75*
G02*
X93625000Y-43500000I0J225000D01*
G01*
X93625000Y-43050000D01*
G75*
G02*
X93850000Y-42825000I225000J0D01*
G01*
X94350000Y-42825000D01*
G75*
G02*
X94575000Y-43050000I0J-225000D01*
G01*
X94575000Y-43500000D01*
G75*
G02*
X94350000Y-43725000I-225000J0D01*
G01*
G37*
%TD.AperFunction*%
%TD*%
%TO.P,C1,2*%
%TO.N,GND*%
%TA.AperFunction,SMDPad,CuDef*%
G36*
G01*
X83675000Y-61950000D02*
X83675000Y-62450000D01*
G75*
G02*
X83450000Y-62675000I-225000J0D01*
G01*
X83000000Y-62675000D01*
G75*
G02*
X82775000Y-62450000I0J225000D01*
G01*
X82775000Y-61950000D01*
G75*
G02*
X83000000Y-61725000I225000J0D01*
G01*
X83450000Y-61725000D01*
G75*
G02*
X83675000Y-61950000I0J-225000D01*
G01*
G37*
%TD.AperFunction*%
%TO.P,C1,1*%
%TO.N,+3V3*%
%TA.AperFunction,SMDPad,CuDef*%
G36*
G01*
X85225000Y-61950000D02*
X85225000Y-62450000D01*
G75*
G02*
X85000000Y-62675000I-225000J0D01*
G01*
X84550000Y-62675000D01*
G75*
G02*
X84325000Y-62450000I0J225000D01*
G01*
X84325000Y-61950000D01*
G75*
G02*
X84550000Y-61725000I225000J0D01*
G01*
X85000000Y-61725000D01*
G75*
G02*
X85225000Y-61950000I0J-225000D01*
G01*
G37*
%TD.AperFunction*%
%TD*%
D31*
%TO.N,GND*%
X88100000Y-51300000D03*
X82400000Y-51300000D03*
X92600000Y-66000000D03*
X87600000Y-66900000D03*
X91200000Y-58800000D03*
%TO.N,+3V3*%
X85616025Y-63214348D03*
X80995895Y-66325586D03*
X96100000Y-44500000D03*
X84600000Y-46500000D03*
X100200000Y-34450000D03*
%TO.N,+12V*%
X87739960Y-65536979D03*
X95480000Y-59920000D03*
%TO.N,Net-(J1-PadB5)*%
X103550000Y-57350000D03*
X93054204Y-57720477D03*
%TO.N,D-*%
X100702978Y-59522728D03*
X103472953Y-58800011D03*
X86672692Y-62270418D03*
%TO.N,D+*%
X101700000Y-59600000D03*
X104475010Y-59519989D03*
X86786353Y-65235885D03*
%TO.N,O*%
X80049972Y-65450028D03*
X87074932Y-45323144D03*
%TO.N,I*%
X81276475Y-63475021D03*
X87602587Y-46172617D03*
%TO.N,IN2*%
X76635009Y-56163399D03*
X100406653Y-41696844D03*
%TO.N,IN1*%
X92500022Y-44425003D03*
X74484979Y-55499335D03*
%TO.N,T*%
X92100000Y-41800000D03*
%TO.N,G*%
X100163143Y-37082480D03*
X74484980Y-54198797D03*
%TO.N,B*%
X96700000Y-39774990D03*
X74484980Y-51687340D03*
%TO.N,R*%
X100022342Y-36086855D03*
X74484980Y-52900000D03*
%TD*%
D32*
%TO.N,GND*%
X88700000Y-67100000D02*
X88950000Y-67350000D01*
X101175000Y-40250000D02*
X101650000Y-40250000D01*
D33*
X92620000Y-66020000D02*
X92600000Y-66000000D01*
X93812500Y-66020000D02*
X92620000Y-66020000D01*
D32*
X95800000Y-56500000D02*
X96675000Y-56500000D01*
X94825000Y-56500000D02*
X95800000Y-56500000D01*
D33*
X96135000Y-53385000D02*
X96135000Y-47935000D01*
X95985000Y-53535000D02*
X96135000Y-53385000D01*
X95465000Y-47935000D02*
X96135000Y-47935000D01*
X93525000Y-47935000D02*
X95465000Y-47935000D01*
D32*
X95800000Y-53620000D02*
X95885000Y-53535000D01*
D33*
X95885000Y-53535000D02*
X95985000Y-53535000D01*
X93525000Y-53535000D02*
X95885000Y-53535000D01*
X106325000Y-61730000D02*
X106325000Y-56961812D01*
D32*
X95800000Y-56500000D02*
X95800000Y-55550000D01*
X95800000Y-55550000D02*
X95800000Y-53620000D01*
X98800000Y-60713190D02*
X98800000Y-61140000D01*
X83500000Y-65700000D02*
X84000000Y-65200000D01*
X83500000Y-67100000D02*
X83500000Y-65700000D01*
X84000000Y-67100000D02*
X84000000Y-65200000D01*
X84500000Y-65700000D02*
X84000000Y-65200000D01*
X84500000Y-67100000D02*
X84500000Y-65700000D01*
X85000000Y-67100000D02*
X85000000Y-66200000D01*
X85000000Y-66200000D02*
X84000000Y-65200000D01*
X85900000Y-66200000D02*
X85000000Y-66200000D01*
X84000000Y-63300000D02*
X84000000Y-65200000D01*
X83675000Y-62200000D02*
X83225000Y-62200000D01*
X84000000Y-62525000D02*
X83675000Y-62200000D01*
X84000000Y-63300000D02*
X84000000Y-62525000D01*
X92000000Y-55550000D02*
X95800000Y-55550000D01*
X91850000Y-55700000D02*
X92000000Y-55550000D01*
X91850000Y-57250000D02*
X91850000Y-55700000D01*
X90600000Y-58500000D02*
X91850000Y-57250000D01*
X90300000Y-58500000D02*
X90600000Y-58500000D01*
X88950000Y-59850000D02*
X90300000Y-58500000D01*
X88350000Y-59850000D02*
X88950000Y-59850000D01*
X86900000Y-66200000D02*
X87600000Y-66900000D01*
X85900000Y-66200000D02*
X86900000Y-66200000D01*
X94225000Y-41850000D02*
X94100000Y-41725000D01*
X95250000Y-41850000D02*
X94225000Y-41850000D01*
X98175000Y-43150000D02*
X98300000Y-43275000D01*
X97150000Y-43150000D02*
X98175000Y-43150000D01*
X102700000Y-33700000D02*
X96600000Y-33700000D01*
X105100000Y-36100000D02*
X102700000Y-33700000D01*
D33*
X103400000Y-55950000D02*
X101400000Y-57950000D01*
X103450000Y-55950000D02*
X103400000Y-55950000D01*
X103450000Y-55950000D02*
X101400000Y-58000000D01*
X105313188Y-55950000D02*
X105581594Y-56218406D01*
X103450000Y-55950000D02*
X105313188Y-55950000D01*
X106325000Y-56961812D02*
X105581594Y-56218406D01*
D32*
X96675000Y-60715000D02*
X97680000Y-61720000D01*
X96675000Y-56500000D02*
X96675000Y-60715000D01*
X80660000Y-50600000D02*
X82400000Y-50600000D01*
D33*
X75785000Y-55475000D02*
X79525000Y-51735000D01*
D32*
X79525000Y-51735000D02*
X80660000Y-50600000D01*
D33*
X75785000Y-57955000D02*
X75785000Y-55475000D01*
X73000000Y-40445000D02*
X90000000Y-40445000D01*
D32*
X101400000Y-45450000D02*
X103350000Y-45450000D01*
X103350000Y-45450000D02*
X103700000Y-45100000D01*
X103700000Y-39500000D02*
X105100000Y-38100000D01*
X103700000Y-45100000D02*
X103700000Y-39500000D01*
X105100000Y-38100000D02*
X105100000Y-36100000D01*
%TO.N,+3V3*%
X85000000Y-63300000D02*
X85000000Y-63700000D01*
X85500000Y-64200000D02*
X85900000Y-64200000D01*
X85000000Y-63700000D02*
X85500000Y-64200000D01*
X85000000Y-62425000D02*
X84775000Y-62200000D01*
X85000000Y-63300000D02*
X85000000Y-62425000D01*
X84500000Y-62475000D02*
X84775000Y-62200000D01*
X84500000Y-63300000D02*
X84500000Y-62475000D01*
X82100000Y-66200000D02*
X81121481Y-66200000D01*
X81121481Y-66200000D02*
X80995895Y-66325586D01*
X96300000Y-42500000D02*
X97150000Y-42500000D01*
X96200000Y-42500000D02*
X96300000Y-42500000D01*
X96100000Y-42600000D02*
X96000000Y-42500000D01*
X96100000Y-44500000D02*
X96100000Y-42600000D01*
X96000000Y-42500000D02*
X96200000Y-42500000D01*
X95250000Y-42500000D02*
X96000000Y-42500000D01*
X85570000Y-62200000D02*
X85616025Y-62153975D01*
X84775000Y-62200000D02*
X85570000Y-62200000D01*
X85616025Y-63214348D02*
X85616025Y-62153975D01*
X73000000Y-41715000D02*
X81701029Y-41715000D01*
X84593015Y-46493015D02*
X84600000Y-46500000D01*
X84593015Y-44606985D02*
X84593015Y-46493015D01*
X81701029Y-41715000D02*
X84593015Y-44606985D01*
X86570000Y-61200000D02*
X86335000Y-61435000D01*
X89100000Y-61500000D02*
X88800000Y-61200000D01*
X88800000Y-61200000D02*
X86570000Y-61200000D01*
X86335000Y-61435000D02*
X85616025Y-62153975D01*
X99250000Y-35500000D02*
X99075000Y-35500000D01*
X100200000Y-34550000D02*
X99250000Y-35500000D01*
X100200000Y-34450000D02*
X100200000Y-34550000D01*
D33*
%TO.N,VBUS*%
X98487500Y-59147498D02*
X99600000Y-60259998D01*
X98487500Y-58500000D02*
X98487500Y-59147498D01*
X99600000Y-60259998D02*
X99600000Y-61140000D01*
D34*
X99749999Y-61289999D02*
X99600000Y-61140000D01*
D35*
X99600000Y-61745398D02*
X99600000Y-61140000D01*
X99909603Y-62055001D02*
X99600000Y-61745398D01*
X104090397Y-62055001D02*
X99909603Y-62055001D01*
X104400000Y-61745398D02*
X104090397Y-62055001D01*
X104400000Y-61140000D02*
X104400000Y-61745398D01*
D32*
%TO.N,+12V*%
X89100000Y-64200000D02*
X90050000Y-64200000D01*
D33*
X97349990Y-53985010D02*
X97800000Y-53535000D01*
X97349990Y-55203534D02*
X97349990Y-53985010D01*
X97701466Y-55555010D02*
X97349990Y-55203534D01*
X101400000Y-55500000D02*
X101344990Y-55555010D01*
X97349990Y-48385010D02*
X97800000Y-47935000D01*
X97349990Y-53084990D02*
X97349990Y-48385010D01*
X97800000Y-53535000D02*
X97349990Y-53084990D01*
X97800000Y-47935000D02*
X98675000Y-47935000D01*
X98675000Y-53535000D02*
X97800000Y-53535000D01*
X87876939Y-65400000D02*
X87739960Y-65536979D01*
X88990000Y-65400000D02*
X87876939Y-65400000D01*
X98544990Y-55555010D02*
X101294990Y-55555010D01*
X101294990Y-55555010D02*
X101400000Y-55450000D01*
X101344990Y-55555010D02*
X98544990Y-55555010D01*
X98544990Y-55555010D02*
X97701466Y-55555010D01*
X95512500Y-59887500D02*
X95480000Y-59920000D01*
X95512500Y-58500000D02*
X95512500Y-59887500D01*
D32*
%TO.N,Net-(J1-PadA5)*%
X98725000Y-56500000D02*
X98325000Y-56500000D01*
X99674998Y-57449998D02*
X98725000Y-56500000D01*
X100398189Y-60244999D02*
X99674998Y-59521808D01*
X100750000Y-61140000D02*
X100750000Y-60434096D01*
X99674998Y-59521808D02*
X99674998Y-57449998D01*
X100560903Y-60244999D02*
X100398189Y-60244999D01*
X100750000Y-60434096D02*
X100560903Y-60244999D01*
%TO.N,Net-(J1-PadB5)*%
X105200011Y-59000011D02*
X103550000Y-57350000D01*
X105200011Y-59867990D02*
X105200011Y-59000011D01*
X104823011Y-60244990D02*
X105200011Y-59867990D01*
X103825010Y-60244990D02*
X104823011Y-60244990D01*
X103750000Y-60320000D02*
X103825010Y-60244990D01*
X103750000Y-61140000D02*
X103750000Y-60320000D01*
X93175000Y-57599681D02*
X93054204Y-57720477D01*
X93175000Y-56500000D02*
X93175000Y-57599681D01*
%TO.N,D-*%
X100702978Y-59750663D02*
X100702978Y-59522728D01*
X101250000Y-61140000D02*
X101250000Y-60297685D01*
X101250000Y-60297685D02*
X100702978Y-59750663D01*
X102250000Y-60097352D02*
X103472953Y-58874399D01*
X102250000Y-61140000D02*
X102250000Y-60097352D01*
X103472953Y-58874399D02*
X103472953Y-58800011D01*
X86298022Y-64700000D02*
X86672692Y-64325330D01*
X85900000Y-64700000D02*
X86298022Y-64700000D01*
X86672692Y-64325330D02*
X86672692Y-62270418D01*
%TO.N,D+*%
X101750000Y-59650000D02*
X101700000Y-59600000D01*
X101750000Y-61140000D02*
X101750000Y-59650000D01*
X103544987Y-59525013D02*
X104469986Y-59525013D01*
X102750000Y-60320000D02*
X103544987Y-59525013D01*
X102750000Y-61140000D02*
X102750000Y-60320000D01*
X104469986Y-59525013D02*
X104475010Y-59519989D01*
X86750468Y-65200000D02*
X86786353Y-65235885D01*
X85900000Y-65200000D02*
X86750468Y-65200000D01*
%TO.N,OUT1*%
X90000000Y-49335000D02*
X90965002Y-49335000D01*
X91325001Y-49694999D02*
X91325001Y-53480001D01*
X90965002Y-49335000D02*
X91325001Y-49694999D01*
X92650000Y-54805000D02*
X93525000Y-54805000D01*
X91325001Y-53480001D02*
X92650000Y-54805000D01*
%TO.N,OUT4*%
X91775012Y-45790012D02*
X91775012Y-43158599D01*
X93525000Y-46665000D02*
X92650000Y-46665000D01*
X91775012Y-43158599D02*
X91367500Y-42751087D01*
X92650000Y-46665000D02*
X91775012Y-45790012D01*
X90850000Y-41715000D02*
X91367500Y-42232500D01*
X90000000Y-41715000D02*
X90850000Y-41715000D01*
X91367500Y-42751087D02*
X91367500Y-42232500D01*
%TO.N,OUT3*%
X90965002Y-42985000D02*
X91325001Y-43344999D01*
X92650000Y-49205000D02*
X93525000Y-49205000D01*
X91325001Y-43344999D02*
X91325001Y-46518588D01*
X91325001Y-46518588D02*
X91775012Y-46968599D01*
X90000000Y-42985000D02*
X90965002Y-42985000D01*
X91775012Y-48330012D02*
X92650000Y-49205000D01*
X91775012Y-46968599D02*
X91775012Y-48330012D01*
%TO.N,O*%
X80049972Y-66649980D02*
X80049972Y-65450028D01*
X83000000Y-66750000D02*
X82910000Y-66660000D01*
X82020000Y-67100000D02*
X80499992Y-67100000D01*
X80499992Y-67100000D02*
X80049972Y-66649980D01*
X82460000Y-66660000D02*
X82020000Y-67100000D01*
X82910000Y-66660000D02*
X82460000Y-66660000D01*
X83000000Y-67100000D02*
X83000000Y-66750000D01*
X90000000Y-44255000D02*
X88143076Y-44255000D01*
X88143076Y-44255000D02*
X87074932Y-45323144D01*
%TO.N,I*%
X82100000Y-64700000D02*
X81701978Y-64700000D01*
X81276475Y-64274497D02*
X81276475Y-63475021D01*
X81701978Y-64700000D02*
X81276475Y-64274497D01*
X88250204Y-45525000D02*
X87602587Y-46172617D01*
X90000000Y-45525000D02*
X88250204Y-45525000D01*
%TO.N,OUT2*%
X92650000Y-52265000D02*
X93525000Y-52265000D01*
X90000000Y-46795000D02*
X90965002Y-46795000D01*
X90965002Y-46795000D02*
X91325001Y-47154999D01*
X91325001Y-49058589D02*
X91775012Y-49508599D01*
X91325001Y-47154999D02*
X91325001Y-49058589D01*
X91775012Y-49508599D02*
X91775012Y-51390012D01*
X91775012Y-51390012D02*
X92650000Y-52265000D01*
%TO.N,EN*%
X81362340Y-65700000D02*
X82100000Y-65700000D01*
X74417500Y-43317500D02*
X74417500Y-50387500D01*
X75009999Y-56694999D02*
X75009999Y-59215001D01*
X75074999Y-59280001D02*
X79580001Y-59280001D01*
X75209990Y-51179990D02*
X75209989Y-56495009D01*
X75009999Y-59215001D02*
X75074999Y-59280001D01*
X79774968Y-64112628D02*
X81362340Y-65700000D01*
X74085000Y-42985000D02*
X74417500Y-43317500D01*
X74417500Y-50387500D02*
X75209990Y-51179990D01*
X79580001Y-59280001D02*
X79774968Y-59474968D01*
X79774968Y-59474968D02*
X79774968Y-64112628D01*
X75209989Y-56495009D02*
X75009999Y-56694999D01*
X73000000Y-42985000D02*
X74085000Y-42985000D01*
%TO.N,BOOT*%
X87905002Y-59300000D02*
X88110000Y-59095002D01*
X80224979Y-63859412D02*
X80224979Y-59475021D01*
X80400000Y-59300000D02*
X87905002Y-59300000D01*
X80224979Y-59475021D02*
X80400000Y-59300000D01*
X81565568Y-65200000D02*
X80224979Y-63859412D01*
X82100000Y-65200000D02*
X81565568Y-65200000D01*
X88345000Y-56955000D02*
X88110000Y-57190000D01*
X90000000Y-56955000D02*
X88345000Y-56955000D01*
X88110000Y-59095002D02*
X88110000Y-57190000D01*
%TO.N,IN2*%
X100384809Y-41675000D02*
X100406653Y-41696844D01*
X98175000Y-41850000D02*
X98300000Y-41725000D01*
X97150000Y-41850000D02*
X98175000Y-41850000D01*
X99450000Y-41725000D02*
X99500000Y-41675000D01*
X98300000Y-41725000D02*
X99450000Y-41725000D01*
X99521844Y-41696844D02*
X99500000Y-41675000D01*
X100406653Y-41696844D02*
X99521844Y-41696844D01*
X76713399Y-56163399D02*
X76635009Y-56163399D01*
X77055000Y-56583390D02*
X76635009Y-56163399D01*
X77055000Y-57955000D02*
X77055000Y-56583390D01*
%TO.N,IN1*%
X94050000Y-43325000D02*
X94100000Y-43275000D01*
X92900000Y-43325000D02*
X94050000Y-43325000D01*
X94225000Y-43150000D02*
X94100000Y-43275000D01*
X95250000Y-43150000D02*
X94225000Y-43150000D01*
X92900000Y-44025025D02*
X92500022Y-44425003D01*
X92900000Y-43325000D02*
X92900000Y-44025025D01*
X74470644Y-55485000D02*
X74484979Y-55499335D01*
X74299314Y-55685000D02*
X74484979Y-55499335D01*
X73000000Y-55685000D02*
X74299314Y-55685000D01*
%TO.N,~BACKLIGHT*%
X101100000Y-35250000D02*
X101100000Y-35376874D01*
X99965000Y-44535000D02*
X99965000Y-46565000D01*
X99865000Y-46665000D02*
X98675000Y-46665000D01*
X101974990Y-44174990D02*
X100325010Y-44174990D01*
X102650010Y-43499970D02*
X101974990Y-44174990D01*
X99965000Y-46565000D02*
X99865000Y-46665000D01*
X102650010Y-36700010D02*
X102650010Y-43499970D01*
X100325010Y-44174990D02*
X99965000Y-44535000D01*
X101400000Y-35450000D02*
X102650010Y-36700010D01*
%TO.N,T*%
X92225000Y-41675000D02*
X92100000Y-41800000D01*
X92900000Y-41675000D02*
X92225000Y-41675000D01*
%TO.N,FAULT*%
X101025000Y-43325000D02*
X101400000Y-42950000D01*
X99500000Y-43325000D02*
X101025000Y-43325000D01*
D33*
%TO.N,ENGHOLD*%
X100195000Y-49205000D02*
X101400000Y-48000000D01*
X98675000Y-49205000D02*
X100195000Y-49205000D01*
X100195000Y-49155000D02*
X101400000Y-47950000D01*
X100195000Y-49205000D02*
X100195000Y-49155000D01*
%TO.N,STB*%
X99635000Y-52265000D02*
X101400000Y-50500000D01*
X98675000Y-52265000D02*
X99635000Y-52265000D01*
X99635000Y-52215000D02*
X101400000Y-50450000D01*
X99635000Y-52265000D02*
X99635000Y-52215000D01*
%TO.N,BELL*%
X98675000Y-54805000D02*
X98905000Y-54805000D01*
D32*
X99595000Y-54805000D02*
X98905000Y-54805000D01*
D33*
X99595000Y-54805000D02*
X101400000Y-53000000D01*
X98675000Y-54805000D02*
X99595000Y-54805000D01*
X99595000Y-54755000D02*
X101400000Y-52950000D01*
X99595000Y-54805000D02*
X99595000Y-54755000D01*
D32*
%TO.N,Net-(D2-Pad3)*%
X97075000Y-37900000D02*
X97475000Y-37900000D01*
X96574999Y-34575001D02*
X96574999Y-37399999D01*
X96574999Y-37399999D02*
X97075000Y-37900000D01*
X96650000Y-34500000D02*
X96574999Y-34575001D01*
X97325000Y-34500000D02*
X96650000Y-34500000D01*
%TO.N,Net-(D2-Pad2)*%
X97325000Y-36450000D02*
X97275000Y-36500000D01*
X97463589Y-36500000D02*
X97275000Y-36500000D01*
X97463589Y-36500000D02*
X97375000Y-36500000D01*
X97475000Y-35650000D02*
X97325000Y-35500000D01*
X97475000Y-36700000D02*
X97475000Y-35650000D01*
%TO.N,G*%
X99125000Y-37900000D02*
X99400000Y-37900000D01*
X99345623Y-37900000D02*
X100163143Y-37082480D01*
X99125000Y-37900000D02*
X99345623Y-37900000D01*
X74468777Y-54215000D02*
X74484980Y-54198797D01*
X74268777Y-54415000D02*
X74484980Y-54198797D01*
X73000000Y-54415000D02*
X74268777Y-54415000D01*
%TO.N,B*%
X97475000Y-39100000D02*
X97374990Y-39100000D01*
X97374990Y-39100000D02*
X96700000Y-39774990D01*
X74472640Y-51675000D02*
X74484980Y-51687340D01*
X74297320Y-51875000D02*
X74484980Y-51687340D01*
X73000000Y-51875000D02*
X74297320Y-51875000D01*
%TO.N,R*%
X99125000Y-36700000D02*
X99396031Y-36700000D01*
X99738145Y-36086855D02*
X99125000Y-36700000D01*
X100022342Y-36086855D02*
X99738145Y-36086855D01*
X74439980Y-52945000D02*
X74484980Y-52900000D01*
X74239980Y-53145000D02*
X74484980Y-52900000D01*
X73000000Y-53145000D02*
X74239980Y-53145000D01*
%TO.N,Net-(D2-Pad4)*%
X98725000Y-39100000D02*
X99125000Y-39100000D01*
X98324999Y-38699999D02*
X98725000Y-39100000D01*
X98400000Y-34500000D02*
X98324999Y-34575001D01*
X98324999Y-34575001D02*
X98324999Y-38699999D01*
X99075000Y-34500000D02*
X98400000Y-34500000D01*
%TD*%
D36*
%TO.N,GND*%
X74250000Y-59177669D02*
X74246323Y-59215001D01*
X74250000Y-59252334D01*
X74260997Y-59363987D01*
X74268737Y-59389502D01*
X74304453Y-59507247D01*
X74375025Y-59639277D01*
X74437309Y-59715169D01*
X74469999Y-59755002D01*
X74498997Y-59778800D01*
X74511195Y-59790998D01*
X74534998Y-59820002D01*
X74650723Y-59914975D01*
X74657274Y-59918476D01*
X74577000Y-59998750D01*
X74577000Y-61273000D01*
X74597000Y-61273000D01*
X74597000Y-61527000D01*
X74577000Y-61527000D01*
X74577000Y-62801250D01*
X74735750Y-62960000D01*
X75300000Y-62963072D01*
X75424482Y-62950812D01*
X75544180Y-62914502D01*
X75654494Y-62855537D01*
X75751185Y-62776185D01*
X75830537Y-62679494D01*
X75889502Y-62569180D01*
X75900055Y-62534392D01*
X76120987Y-62715706D01*
X76378967Y-62853599D01*
X76658890Y-62938513D01*
X76950000Y-62967185D01*
X77241111Y-62938513D01*
X77521034Y-62853599D01*
X77779014Y-62715706D01*
X78005134Y-62530134D01*
X78190706Y-62304013D01*
X78328599Y-62046033D01*
X78413513Y-61766110D01*
X78435000Y-61547949D01*
X78435000Y-61252050D01*
X78413513Y-61033889D01*
X78328599Y-60753966D01*
X78190706Y-60495986D01*
X78005134Y-60269866D01*
X77779013Y-60084294D01*
X77696147Y-60040001D01*
X79014968Y-60040001D01*
X79014969Y-64075296D01*
X79011292Y-64112628D01*
X79014969Y-64149961D01*
X79024888Y-64250663D01*
X79025966Y-64261613D01*
X79069422Y-64404874D01*
X79139994Y-64536904D01*
X79210725Y-64623089D01*
X79234968Y-64652629D01*
X79263966Y-64676427D01*
X79311914Y-64724375D01*
X79246035Y-64790254D01*
X79132767Y-64959772D01*
X79054746Y-65148130D01*
X79014972Y-65348089D01*
X79014972Y-65551967D01*
X79054746Y-65751926D01*
X79132767Y-65940284D01*
X79246035Y-66109802D01*
X79289972Y-66153739D01*
X79289972Y-66612657D01*
X79286296Y-66649980D01*
X79289972Y-66687302D01*
X79289972Y-66687312D01*
X79300969Y-66798965D01*
X79333653Y-66906712D01*
X79344426Y-66942226D01*
X79414998Y-67074256D01*
X79452183Y-67119565D01*
X79509971Y-67189981D01*
X79538974Y-67213783D01*
X79640191Y-67315000D01*
X72685000Y-67315000D01*
X72685000Y-62325000D01*
X72961928Y-62325000D01*
X72974188Y-62449482D01*
X73010498Y-62569180D01*
X73069463Y-62679494D01*
X73148815Y-62776185D01*
X73245506Y-62855537D01*
X73355820Y-62914502D01*
X73475518Y-62950812D01*
X73600000Y-62963072D01*
X74164250Y-62960000D01*
X74323000Y-62801250D01*
X74323000Y-61527000D01*
X73123750Y-61527000D01*
X72965000Y-61685750D01*
X72961928Y-62325000D01*
X72685000Y-62325000D01*
X72685000Y-60475000D01*
X72961928Y-60475000D01*
X72965000Y-61114250D01*
X73123750Y-61273000D01*
X74323000Y-61273000D01*
X74323000Y-59998750D01*
X74164250Y-59840000D01*
X73600000Y-59836928D01*
X73475518Y-59849188D01*
X73355820Y-59885498D01*
X73245506Y-59944463D01*
X73148815Y-60023815D01*
X73069463Y-60120506D01*
X73010498Y-60230820D01*
X72974188Y-60350518D01*
X72961928Y-60475000D01*
X72685000Y-60475000D01*
X72685000Y-58043072D01*
X74000000Y-58043072D01*
X74124482Y-58030812D01*
X74244180Y-57994502D01*
X74250000Y-57991391D01*
X74250000Y-59177669D01*
%TA.AperFunction,Conductor*%
D37*
G36*
X74250000Y-59177669D02*
G01*
X74246323Y-59215001D01*
X74250000Y-59252334D01*
X74260997Y-59363987D01*
X74268737Y-59389502D01*
X74304453Y-59507247D01*
X74375025Y-59639277D01*
X74437309Y-59715169D01*
X74469999Y-59755002D01*
X74498997Y-59778800D01*
X74511195Y-59790998D01*
X74534998Y-59820002D01*
X74650723Y-59914975D01*
X74657274Y-59918476D01*
X74577000Y-59998750D01*
X74577000Y-61273000D01*
X74597000Y-61273000D01*
X74597000Y-61527000D01*
X74577000Y-61527000D01*
X74577000Y-62801250D01*
X74735750Y-62960000D01*
X75300000Y-62963072D01*
X75424482Y-62950812D01*
X75544180Y-62914502D01*
X75654494Y-62855537D01*
X75751185Y-62776185D01*
X75830537Y-62679494D01*
X75889502Y-62569180D01*
X75900055Y-62534392D01*
X76120987Y-62715706D01*
X76378967Y-62853599D01*
X76658890Y-62938513D01*
X76950000Y-62967185D01*
X77241111Y-62938513D01*
X77521034Y-62853599D01*
X77779014Y-62715706D01*
X78005134Y-62530134D01*
X78190706Y-62304013D01*
X78328599Y-62046033D01*
X78413513Y-61766110D01*
X78435000Y-61547949D01*
X78435000Y-61252050D01*
X78413513Y-61033889D01*
X78328599Y-60753966D01*
X78190706Y-60495986D01*
X78005134Y-60269866D01*
X77779013Y-60084294D01*
X77696147Y-60040001D01*
X79014968Y-60040001D01*
X79014969Y-64075296D01*
X79011292Y-64112628D01*
X79014969Y-64149961D01*
X79024888Y-64250663D01*
X79025966Y-64261613D01*
X79069422Y-64404874D01*
X79139994Y-64536904D01*
X79210725Y-64623089D01*
X79234968Y-64652629D01*
X79263966Y-64676427D01*
X79311914Y-64724375D01*
X79246035Y-64790254D01*
X79132767Y-64959772D01*
X79054746Y-65148130D01*
X79014972Y-65348089D01*
X79014972Y-65551967D01*
X79054746Y-65751926D01*
X79132767Y-65940284D01*
X79246035Y-66109802D01*
X79289972Y-66153739D01*
X79289972Y-66612657D01*
X79286296Y-66649980D01*
X79289972Y-66687302D01*
X79289972Y-66687312D01*
X79300969Y-66798965D01*
X79333653Y-66906712D01*
X79344426Y-66942226D01*
X79414998Y-67074256D01*
X79452183Y-67119565D01*
X79509971Y-67189981D01*
X79538974Y-67213783D01*
X79640191Y-67315000D01*
X72685000Y-67315000D01*
X72685000Y-62325000D01*
X72961928Y-62325000D01*
X72974188Y-62449482D01*
X73010498Y-62569180D01*
X73069463Y-62679494D01*
X73148815Y-62776185D01*
X73245506Y-62855537D01*
X73355820Y-62914502D01*
X73475518Y-62950812D01*
X73600000Y-62963072D01*
X74164250Y-62960000D01*
X74323000Y-62801250D01*
X74323000Y-61527000D01*
X73123750Y-61527000D01*
X72965000Y-61685750D01*
X72961928Y-62325000D01*
X72685000Y-62325000D01*
X72685000Y-60475000D01*
X72961928Y-60475000D01*
X72965000Y-61114250D01*
X73123750Y-61273000D01*
X74323000Y-61273000D01*
X74323000Y-59998750D01*
X74164250Y-59840000D01*
X73600000Y-59836928D01*
X73475518Y-59849188D01*
X73355820Y-59885498D01*
X73245506Y-59944463D01*
X73148815Y-60023815D01*
X73069463Y-60120506D01*
X73010498Y-60230820D01*
X72974188Y-60350518D01*
X72961928Y-60475000D01*
X72685000Y-60475000D01*
X72685000Y-58043072D01*
X74000000Y-58043072D01*
X74124482Y-58030812D01*
X74244180Y-57994502D01*
X74250000Y-57991391D01*
X74250000Y-59177669D01*
G37*
%TD.AperFunction*%
D36*
X87080186Y-66340916D02*
X87249704Y-66454184D01*
X87438062Y-66532205D01*
X87638021Y-66571979D01*
X87841899Y-66571979D01*
X88041858Y-66532205D01*
X88050649Y-66528564D01*
X87986595Y-66606614D01*
X87904528Y-66760150D01*
X87853992Y-66926746D01*
X87836928Y-67100000D01*
X87836928Y-67315000D01*
X85689250Y-67315000D01*
X85601250Y-67227000D01*
X85327000Y-67227000D01*
X85327000Y-66973000D01*
X85601250Y-66973000D01*
X85773000Y-66801250D01*
X85773000Y-66527000D01*
X86027000Y-66527000D01*
X86027000Y-66801250D01*
X86185750Y-66960000D01*
X86233874Y-66962868D01*
X86358626Y-66953758D01*
X86479203Y-66920484D01*
X86590972Y-66864327D01*
X86689638Y-66787444D01*
X86771409Y-66692789D01*
X86833142Y-66584000D01*
X86872466Y-66465258D01*
X86885000Y-66358750D01*
X86853252Y-66327002D01*
X86885000Y-66327002D01*
X86885000Y-66270885D01*
X86888292Y-66270885D01*
X86989937Y-66250667D01*
X87080186Y-66340916D01*
%TA.AperFunction,Conductor*%
D37*
G36*
X87080186Y-66340916D02*
G01*
X87249704Y-66454184D01*
X87438062Y-66532205D01*
X87638021Y-66571979D01*
X87841899Y-66571979D01*
X88041858Y-66532205D01*
X88050649Y-66528564D01*
X87986595Y-66606614D01*
X87904528Y-66760150D01*
X87853992Y-66926746D01*
X87836928Y-67100000D01*
X87836928Y-67315000D01*
X85689250Y-67315000D01*
X85601250Y-67227000D01*
X85327000Y-67227000D01*
X85327000Y-66973000D01*
X85601250Y-66973000D01*
X85773000Y-66801250D01*
X85773000Y-66527000D01*
X86027000Y-66527000D01*
X86027000Y-66801250D01*
X86185750Y-66960000D01*
X86233874Y-66962868D01*
X86358626Y-66953758D01*
X86479203Y-66920484D01*
X86590972Y-66864327D01*
X86689638Y-66787444D01*
X86771409Y-66692789D01*
X86833142Y-66584000D01*
X86872466Y-66465258D01*
X86885000Y-66358750D01*
X86853252Y-66327002D01*
X86885000Y-66327002D01*
X86885000Y-66270885D01*
X86888292Y-66270885D01*
X86989937Y-66250667D01*
X87080186Y-66340916D01*
G37*
%TD.AperFunction*%
D36*
X107315001Y-40115000D02*
X103910000Y-40115000D01*
X103910000Y-53685000D01*
X107315000Y-53685000D01*
X107315000Y-60953038D01*
X107276993Y-60942612D01*
X106499605Y-61720000D01*
X107276993Y-62497388D01*
X107315000Y-62486962D01*
X107315000Y-65230313D01*
X107187648Y-65201957D01*
X106499605Y-65890000D01*
X107187648Y-66578043D01*
X107315000Y-66549687D01*
X107315000Y-67315000D01*
X96813072Y-67315000D01*
X96813072Y-67100000D01*
X96796008Y-66926746D01*
X96745472Y-66760150D01*
X96744135Y-66757648D01*
X96991957Y-66757648D01*
X97042306Y-66983777D01*
X97267944Y-67087168D01*
X97509418Y-67144553D01*
X97757447Y-67153726D01*
X98002499Y-67114335D01*
X98235158Y-67027893D01*
X98317694Y-66983777D01*
X98368043Y-66757648D01*
X105631957Y-66757648D01*
X105682306Y-66983777D01*
X105907944Y-67087168D01*
X106149418Y-67144553D01*
X106397447Y-67153726D01*
X106642499Y-67114335D01*
X106875158Y-67027893D01*
X106957694Y-66983777D01*
X107008043Y-66757648D01*
X106320000Y-66069605D01*
X105631957Y-66757648D01*
X98368043Y-66757648D01*
X97680000Y-66069605D01*
X96991957Y-66757648D01*
X96744135Y-66757648D01*
X96663405Y-66606614D01*
X96601413Y-66531076D01*
X96812352Y-66578043D01*
X97500395Y-65890000D01*
X97859605Y-65890000D01*
X98547648Y-66578043D01*
X98773777Y-66527694D01*
X98877168Y-66302056D01*
X98934553Y-66060582D01*
X98937997Y-65967447D01*
X105056274Y-65967447D01*
X105095665Y-66212499D01*
X105182107Y-66445158D01*
X105226223Y-66527694D01*
X105452352Y-66578043D01*
X106140395Y-65890000D01*
X105452352Y-65201957D01*
X105226223Y-65252306D01*
X105122832Y-65477944D01*
X105065447Y-65719418D01*
X105056274Y-65967447D01*
X98937997Y-65967447D01*
X98943726Y-65812553D01*
X98904335Y-65567501D01*
X98817893Y-65334842D01*
X98773777Y-65252306D01*
X98547648Y-65201957D01*
X97859605Y-65890000D01*
X97500395Y-65890000D01*
X97486253Y-65875858D01*
X97665858Y-65696253D01*
X97680000Y-65710395D01*
X98368043Y-65022352D01*
X105631957Y-65022352D01*
X106320000Y-65710395D01*
X107008043Y-65022352D01*
X106957694Y-64796223D01*
X106732056Y-64692832D01*
X106490582Y-64635447D01*
X106242553Y-64626274D01*
X105997501Y-64665665D01*
X105764842Y-64752107D01*
X105682306Y-64796223D01*
X105631957Y-65022352D01*
X98368043Y-65022352D01*
X98317694Y-64796223D01*
X98092056Y-64692832D01*
X97850582Y-64635447D01*
X97602553Y-64626274D01*
X97357501Y-64665665D01*
X97124842Y-64752107D01*
X97042306Y-64796223D01*
X96991958Y-65022350D01*
X96874973Y-64905365D01*
X96786136Y-64994202D01*
X96769066Y-64937929D01*
X96788312Y-64874482D01*
X96800572Y-64750000D01*
X96800572Y-62779036D01*
X96902613Y-62676995D01*
X96968137Y-62915860D01*
X97215116Y-63031760D01*
X97479960Y-63097250D01*
X97752492Y-63109812D01*
X98022238Y-63068965D01*
X98278832Y-62976277D01*
X98391863Y-62915860D01*
X98457388Y-62676993D01*
X97680000Y-61899605D01*
X97665858Y-61913748D01*
X97486253Y-61734143D01*
X97500395Y-61720000D01*
X97486253Y-61705858D01*
X97665858Y-61526253D01*
X97680000Y-61540395D01*
X97694143Y-61526253D01*
X97862099Y-61694209D01*
X97861928Y-61710000D01*
X97862616Y-61716989D01*
X97859605Y-61720000D01*
X97863274Y-61723669D01*
X97874188Y-61834482D01*
X97910498Y-61954180D01*
X97969463Y-62064494D01*
X98048815Y-62161185D01*
X98145506Y-62240537D01*
X98255820Y-62299502D01*
X98375518Y-62335812D01*
X98486331Y-62346726D01*
X98636993Y-62497388D01*
X98875860Y-62431863D01*
X98916622Y-62345000D01*
X98927002Y-62345000D01*
X98927002Y-62322880D01*
X98961605Y-62249142D01*
X99022375Y-62281625D01*
X99085750Y-62345000D01*
X99099475Y-62347959D01*
X99330961Y-62579445D01*
X99355391Y-62609213D01*
X99474161Y-62706685D01*
X99609666Y-62779114D01*
X99728781Y-62815247D01*
X99756696Y-62823715D01*
X99909603Y-62838775D01*
X99947921Y-62835001D01*
X104052079Y-62835001D01*
X104090397Y-62838775D01*
X104128715Y-62835001D01*
X104243304Y-62823715D01*
X104390334Y-62779114D01*
X104525839Y-62706685D01*
X104562018Y-62676993D01*
X105542612Y-62676993D01*
X105608137Y-62915860D01*
X105855116Y-63031760D01*
X106119960Y-63097250D01*
X106392492Y-63109812D01*
X106662238Y-63068965D01*
X106918832Y-62976277D01*
X107031863Y-62915860D01*
X107097388Y-62676993D01*
X106320000Y-61899605D01*
X105542612Y-62676993D01*
X104562018Y-62676993D01*
X104644609Y-62609213D01*
X104669039Y-62579445D01*
X104900525Y-62347959D01*
X104914250Y-62345000D01*
X104977625Y-62281625D01*
X105038524Y-62249073D01*
X105063723Y-62318832D01*
X105072998Y-62336184D01*
X105072998Y-62345000D01*
X105077710Y-62345000D01*
X105124140Y-62431863D01*
X105363007Y-62497388D01*
X105513669Y-62346726D01*
X105624482Y-62335812D01*
X105744180Y-62299502D01*
X105854494Y-62240537D01*
X105951185Y-62161185D01*
X106030537Y-62064494D01*
X106089502Y-61954180D01*
X106125812Y-61834482D01*
X106136726Y-61723669D01*
X106140395Y-61720000D01*
X106137384Y-61716989D01*
X106138072Y-61710000D01*
X106137901Y-61694209D01*
X106305858Y-61526253D01*
X106320000Y-61540395D01*
X107097388Y-60763007D01*
X107031863Y-60524140D01*
X106784884Y-60408240D01*
X106520040Y-60342750D01*
X106247508Y-60330188D01*
X106097708Y-60352872D01*
X106089502Y-60325820D01*
X106030537Y-60215506D01*
X105951185Y-60118815D01*
X105924712Y-60097089D01*
X105949014Y-60016976D01*
X105960011Y-59905323D01*
X105960011Y-59905322D01*
X105963688Y-59867990D01*
X105960011Y-59830657D01*
X105960011Y-59037334D01*
X105963687Y-59000011D01*
X105960011Y-58962688D01*
X105960011Y-58962678D01*
X105949014Y-58851025D01*
X105905557Y-58707764D01*
X105888044Y-58675000D01*
X105834985Y-58575734D01*
X105763810Y-58489008D01*
X105740012Y-58460010D01*
X105711014Y-58436212D01*
X104585000Y-57310199D01*
X104585000Y-57248061D01*
X104545226Y-57048102D01*
X104467205Y-56859744D01*
X104353937Y-56690226D01*
X104209774Y-56546063D01*
X104040256Y-56432795D01*
X103851898Y-56354774D01*
X103651939Y-56315000D01*
X103448061Y-56315000D01*
X103248102Y-56354774D01*
X103059744Y-56432795D01*
X102890226Y-56546063D01*
X102781274Y-56655015D01*
X102776185Y-56648815D01*
X102679494Y-56569463D01*
X102569180Y-56510498D01*
X102534392Y-56499945D01*
X102715706Y-56279014D01*
X102853599Y-56021034D01*
X102938513Y-55741111D01*
X102967185Y-55450000D01*
X102938513Y-55158889D01*
X102853599Y-54878966D01*
X102715706Y-54620986D01*
X102530134Y-54394866D01*
X102304014Y-54209294D01*
X102286626Y-54200000D01*
X102304014Y-54190706D01*
X102530134Y-54005134D01*
X102715706Y-53779014D01*
X102853599Y-53521034D01*
X102938513Y-53241111D01*
X102967185Y-52950000D01*
X102938513Y-52658889D01*
X102853599Y-52378966D01*
X102715706Y-52120986D01*
X102530134Y-51894866D01*
X102304014Y-51709294D01*
X102286626Y-51700000D01*
X102304014Y-51690706D01*
X102530134Y-51505134D01*
X102715706Y-51279014D01*
X102853599Y-51021034D01*
X102938513Y-50741111D01*
X102967185Y-50450000D01*
X102938513Y-50158889D01*
X102853599Y-49878966D01*
X102715706Y-49620986D01*
X102530134Y-49394866D01*
X102304014Y-49209294D01*
X102286626Y-49200000D01*
X102304014Y-49190706D01*
X102530134Y-49005134D01*
X102715706Y-48779014D01*
X102853599Y-48521034D01*
X102938513Y-48241111D01*
X102967185Y-47950000D01*
X102938513Y-47658889D01*
X102853599Y-47378966D01*
X102715706Y-47120986D01*
X102530134Y-46894866D01*
X102304014Y-46709294D01*
X102278214Y-46695504D01*
X102294086Y-46687106D01*
X102519695Y-46503540D01*
X102705157Y-46279487D01*
X102843345Y-46023557D01*
X102916476Y-45806890D01*
X102795155Y-45577000D01*
X101527000Y-45577000D01*
X101527000Y-45597000D01*
X101273000Y-45597000D01*
X101273000Y-45577000D01*
X101253000Y-45577000D01*
X101253000Y-45323000D01*
X101273000Y-45323000D01*
X101273000Y-45303000D01*
X101527000Y-45303000D01*
X101527000Y-45323000D01*
X102795155Y-45323000D01*
X102916476Y-45093110D01*
X102843345Y-44876443D01*
X102705157Y-44620513D01*
X102659466Y-44565315D01*
X103161018Y-44063765D01*
X103190011Y-44039971D01*
X103213805Y-44010978D01*
X103213809Y-44010974D01*
X103284983Y-43924247D01*
X103284984Y-43924246D01*
X103355556Y-43792217D01*
X103399013Y-43648956D01*
X103410010Y-43537303D01*
X103410010Y-43537294D01*
X103413686Y-43499971D01*
X103410010Y-43462648D01*
X103410010Y-36737332D01*
X103413686Y-36700009D01*
X103410010Y-36662686D01*
X103410010Y-36662677D01*
X103399013Y-36551024D01*
X103355556Y-36407763D01*
X103319069Y-36339502D01*
X103284984Y-36275733D01*
X103213809Y-36189007D01*
X103190011Y-36160009D01*
X103161014Y-36136212D01*
X102898341Y-35873539D01*
X102938513Y-35741111D01*
X102967185Y-35450000D01*
X102938513Y-35158889D01*
X102853599Y-34878966D01*
X102715706Y-34620986D01*
X102530134Y-34394866D01*
X102304014Y-34209294D01*
X102046034Y-34071401D01*
X101766111Y-33986487D01*
X101547950Y-33965000D01*
X101252050Y-33965000D01*
X101124582Y-33977554D01*
X101117205Y-33959744D01*
X101003937Y-33790226D01*
X100898711Y-33685000D01*
X107315001Y-33685000D01*
X107315001Y-40115000D01*
%TA.AperFunction,Conductor*%
D37*
G36*
X107315001Y-40115000D02*
G01*
X103910000Y-40115000D01*
X103910000Y-53685000D01*
X107315000Y-53685000D01*
X107315000Y-60953038D01*
X107276993Y-60942612D01*
X106499605Y-61720000D01*
X107276993Y-62497388D01*
X107315000Y-62486962D01*
X107315000Y-65230313D01*
X107187648Y-65201957D01*
X106499605Y-65890000D01*
X107187648Y-66578043D01*
X107315000Y-66549687D01*
X107315000Y-67315000D01*
X96813072Y-67315000D01*
X96813072Y-67100000D01*
X96796008Y-66926746D01*
X96745472Y-66760150D01*
X96744135Y-66757648D01*
X96991957Y-66757648D01*
X97042306Y-66983777D01*
X97267944Y-67087168D01*
X97509418Y-67144553D01*
X97757447Y-67153726D01*
X98002499Y-67114335D01*
X98235158Y-67027893D01*
X98317694Y-66983777D01*
X98368043Y-66757648D01*
X105631957Y-66757648D01*
X105682306Y-66983777D01*
X105907944Y-67087168D01*
X106149418Y-67144553D01*
X106397447Y-67153726D01*
X106642499Y-67114335D01*
X106875158Y-67027893D01*
X106957694Y-66983777D01*
X107008043Y-66757648D01*
X106320000Y-66069605D01*
X105631957Y-66757648D01*
X98368043Y-66757648D01*
X97680000Y-66069605D01*
X96991957Y-66757648D01*
X96744135Y-66757648D01*
X96663405Y-66606614D01*
X96601413Y-66531076D01*
X96812352Y-66578043D01*
X97500395Y-65890000D01*
X97859605Y-65890000D01*
X98547648Y-66578043D01*
X98773777Y-66527694D01*
X98877168Y-66302056D01*
X98934553Y-66060582D01*
X98937997Y-65967447D01*
X105056274Y-65967447D01*
X105095665Y-66212499D01*
X105182107Y-66445158D01*
X105226223Y-66527694D01*
X105452352Y-66578043D01*
X106140395Y-65890000D01*
X105452352Y-65201957D01*
X105226223Y-65252306D01*
X105122832Y-65477944D01*
X105065447Y-65719418D01*
X105056274Y-65967447D01*
X98937997Y-65967447D01*
X98943726Y-65812553D01*
X98904335Y-65567501D01*
X98817893Y-65334842D01*
X98773777Y-65252306D01*
X98547648Y-65201957D01*
X97859605Y-65890000D01*
X97500395Y-65890000D01*
X97486253Y-65875858D01*
X97665858Y-65696253D01*
X97680000Y-65710395D01*
X98368043Y-65022352D01*
X105631957Y-65022352D01*
X106320000Y-65710395D01*
X107008043Y-65022352D01*
X106957694Y-64796223D01*
X106732056Y-64692832D01*
X106490582Y-64635447D01*
X106242553Y-64626274D01*
X105997501Y-64665665D01*
X105764842Y-64752107D01*
X105682306Y-64796223D01*
X105631957Y-65022352D01*
X98368043Y-65022352D01*
X98317694Y-64796223D01*
X98092056Y-64692832D01*
X97850582Y-64635447D01*
X97602553Y-64626274D01*
X97357501Y-64665665D01*
X97124842Y-64752107D01*
X97042306Y-64796223D01*
X96991958Y-65022350D01*
X96874973Y-64905365D01*
X96786136Y-64994202D01*
X96769066Y-64937929D01*
X96788312Y-64874482D01*
X96800572Y-64750000D01*
X96800572Y-62779036D01*
X96902613Y-62676995D01*
X96968137Y-62915860D01*
X97215116Y-63031760D01*
X97479960Y-63097250D01*
X97752492Y-63109812D01*
X98022238Y-63068965D01*
X98278832Y-62976277D01*
X98391863Y-62915860D01*
X98457388Y-62676993D01*
X97680000Y-61899605D01*
X97665858Y-61913748D01*
X97486253Y-61734143D01*
X97500395Y-61720000D01*
X97486253Y-61705858D01*
X97665858Y-61526253D01*
X97680000Y-61540395D01*
X97694143Y-61526253D01*
X97862099Y-61694209D01*
X97861928Y-61710000D01*
X97862616Y-61716989D01*
X97859605Y-61720000D01*
X97863274Y-61723669D01*
X97874188Y-61834482D01*
X97910498Y-61954180D01*
X97969463Y-62064494D01*
X98048815Y-62161185D01*
X98145506Y-62240537D01*
X98255820Y-62299502D01*
X98375518Y-62335812D01*
X98486331Y-62346726D01*
X98636993Y-62497388D01*
X98875860Y-62431863D01*
X98916622Y-62345000D01*
X98927002Y-62345000D01*
X98927002Y-62322880D01*
X98961605Y-62249142D01*
X99022375Y-62281625D01*
X99085750Y-62345000D01*
X99099475Y-62347959D01*
X99330961Y-62579445D01*
X99355391Y-62609213D01*
X99474161Y-62706685D01*
X99609666Y-62779114D01*
X99728781Y-62815247D01*
X99756696Y-62823715D01*
X99909603Y-62838775D01*
X99947921Y-62835001D01*
X104052079Y-62835001D01*
X104090397Y-62838775D01*
X104128715Y-62835001D01*
X104243304Y-62823715D01*
X104390334Y-62779114D01*
X104525839Y-62706685D01*
X104562018Y-62676993D01*
X105542612Y-62676993D01*
X105608137Y-62915860D01*
X105855116Y-63031760D01*
X106119960Y-63097250D01*
X106392492Y-63109812D01*
X106662238Y-63068965D01*
X106918832Y-62976277D01*
X107031863Y-62915860D01*
X107097388Y-62676993D01*
X106320000Y-61899605D01*
X105542612Y-62676993D01*
X104562018Y-62676993D01*
X104644609Y-62609213D01*
X104669039Y-62579445D01*
X104900525Y-62347959D01*
X104914250Y-62345000D01*
X104977625Y-62281625D01*
X105038524Y-62249073D01*
X105063723Y-62318832D01*
X105072998Y-62336184D01*
X105072998Y-62345000D01*
X105077710Y-62345000D01*
X105124140Y-62431863D01*
X105363007Y-62497388D01*
X105513669Y-62346726D01*
X105624482Y-62335812D01*
X105744180Y-62299502D01*
X105854494Y-62240537D01*
X105951185Y-62161185D01*
X106030537Y-62064494D01*
X106089502Y-61954180D01*
X106125812Y-61834482D01*
X106136726Y-61723669D01*
X106140395Y-61720000D01*
X106137384Y-61716989D01*
X106138072Y-61710000D01*
X106137901Y-61694209D01*
X106305858Y-61526253D01*
X106320000Y-61540395D01*
X107097388Y-60763007D01*
X107031863Y-60524140D01*
X106784884Y-60408240D01*
X106520040Y-60342750D01*
X106247508Y-60330188D01*
X106097708Y-60352872D01*
X106089502Y-60325820D01*
X106030537Y-60215506D01*
X105951185Y-60118815D01*
X105924712Y-60097089D01*
X105949014Y-60016976D01*
X105960011Y-59905323D01*
X105960011Y-59905322D01*
X105963688Y-59867990D01*
X105960011Y-59830657D01*
X105960011Y-59037334D01*
X105963687Y-59000011D01*
X105960011Y-58962688D01*
X105960011Y-58962678D01*
X105949014Y-58851025D01*
X105905557Y-58707764D01*
X105888044Y-58675000D01*
X105834985Y-58575734D01*
X105763810Y-58489008D01*
X105740012Y-58460010D01*
X105711014Y-58436212D01*
X104585000Y-57310199D01*
X104585000Y-57248061D01*
X104545226Y-57048102D01*
X104467205Y-56859744D01*
X104353937Y-56690226D01*
X104209774Y-56546063D01*
X104040256Y-56432795D01*
X103851898Y-56354774D01*
X103651939Y-56315000D01*
X103448061Y-56315000D01*
X103248102Y-56354774D01*
X103059744Y-56432795D01*
X102890226Y-56546063D01*
X102781274Y-56655015D01*
X102776185Y-56648815D01*
X102679494Y-56569463D01*
X102569180Y-56510498D01*
X102534392Y-56499945D01*
X102715706Y-56279014D01*
X102853599Y-56021034D01*
X102938513Y-55741111D01*
X102967185Y-55450000D01*
X102938513Y-55158889D01*
X102853599Y-54878966D01*
X102715706Y-54620986D01*
X102530134Y-54394866D01*
X102304014Y-54209294D01*
X102286626Y-54200000D01*
X102304014Y-54190706D01*
X102530134Y-54005134D01*
X102715706Y-53779014D01*
X102853599Y-53521034D01*
X102938513Y-53241111D01*
X102967185Y-52950000D01*
X102938513Y-52658889D01*
X102853599Y-52378966D01*
X102715706Y-52120986D01*
X102530134Y-51894866D01*
X102304014Y-51709294D01*
X102286626Y-51700000D01*
X102304014Y-51690706D01*
X102530134Y-51505134D01*
X102715706Y-51279014D01*
X102853599Y-51021034D01*
X102938513Y-50741111D01*
X102967185Y-50450000D01*
X102938513Y-50158889D01*
X102853599Y-49878966D01*
X102715706Y-49620986D01*
X102530134Y-49394866D01*
X102304014Y-49209294D01*
X102286626Y-49200000D01*
X102304014Y-49190706D01*
X102530134Y-49005134D01*
X102715706Y-48779014D01*
X102853599Y-48521034D01*
X102938513Y-48241111D01*
X102967185Y-47950000D01*
X102938513Y-47658889D01*
X102853599Y-47378966D01*
X102715706Y-47120986D01*
X102530134Y-46894866D01*
X102304014Y-46709294D01*
X102278214Y-46695504D01*
X102294086Y-46687106D01*
X102519695Y-46503540D01*
X102705157Y-46279487D01*
X102843345Y-46023557D01*
X102916476Y-45806890D01*
X102795155Y-45577000D01*
X101527000Y-45577000D01*
X101527000Y-45597000D01*
X101273000Y-45597000D01*
X101273000Y-45577000D01*
X101253000Y-45577000D01*
X101253000Y-45323000D01*
X101273000Y-45323000D01*
X101273000Y-45303000D01*
X101527000Y-45303000D01*
X101527000Y-45323000D01*
X102795155Y-45323000D01*
X102916476Y-45093110D01*
X102843345Y-44876443D01*
X102705157Y-44620513D01*
X102659466Y-44565315D01*
X103161018Y-44063765D01*
X103190011Y-44039971D01*
X103213805Y-44010978D01*
X103213809Y-44010974D01*
X103284983Y-43924247D01*
X103284984Y-43924246D01*
X103355556Y-43792217D01*
X103399013Y-43648956D01*
X103410010Y-43537303D01*
X103410010Y-43537294D01*
X103413686Y-43499971D01*
X103410010Y-43462648D01*
X103410010Y-36737332D01*
X103413686Y-36700009D01*
X103410010Y-36662686D01*
X103410010Y-36662677D01*
X103399013Y-36551024D01*
X103355556Y-36407763D01*
X103319069Y-36339502D01*
X103284984Y-36275733D01*
X103213809Y-36189007D01*
X103190011Y-36160009D01*
X103161014Y-36136212D01*
X102898341Y-35873539D01*
X102938513Y-35741111D01*
X102967185Y-35450000D01*
X102938513Y-35158889D01*
X102853599Y-34878966D01*
X102715706Y-34620986D01*
X102530134Y-34394866D01*
X102304014Y-34209294D01*
X102046034Y-34071401D01*
X101766111Y-33986487D01*
X101547950Y-33965000D01*
X101252050Y-33965000D01*
X101124582Y-33977554D01*
X101117205Y-33959744D01*
X101003937Y-33790226D01*
X100898711Y-33685000D01*
X107315001Y-33685000D01*
X107315001Y-40115000D01*
G37*
%TD.AperFunction*%
D36*
X92086201Y-55316003D02*
X92109999Y-55345001D01*
X92126350Y-55358420D01*
X92144742Y-55392829D01*
X92242749Y-55512251D01*
X92362171Y-55610258D01*
X92390752Y-55625535D01*
X92382394Y-55632394D01*
X92278169Y-55759392D01*
X92200722Y-55904284D01*
X92153031Y-56061500D01*
X92136928Y-56225000D01*
X92136928Y-56775000D01*
X92153031Y-56938500D01*
X92200722Y-57095716D01*
X92212344Y-57117459D01*
X92136999Y-57230221D01*
X92058978Y-57418579D01*
X92019204Y-57618538D01*
X92019204Y-57822416D01*
X92058978Y-58022375D01*
X92136999Y-58210733D01*
X92250267Y-58380251D01*
X92394430Y-58524414D01*
X92563948Y-58637682D01*
X92752306Y-58715703D01*
X92952265Y-58755477D01*
X93156143Y-58755477D01*
X93356102Y-58715703D01*
X93544460Y-58637682D01*
X93713978Y-58524414D01*
X93858141Y-58380251D01*
X93971409Y-58210733D01*
X94049430Y-58022375D01*
X94089204Y-57822416D01*
X94089204Y-57618538D01*
X94065990Y-57501831D01*
X94070506Y-57505537D01*
X94180820Y-57564502D01*
X94217270Y-57575559D01*
X94178992Y-57701746D01*
X94161928Y-57875000D01*
X94161928Y-59125000D01*
X94170692Y-59213981D01*
X94117607Y-59200745D01*
X94110822Y-59199402D01*
X94104144Y-59197982D01*
X94038043Y-59187519D01*
X94036308Y-59187337D01*
X94032004Y-59186900D01*
X93814462Y-59165570D01*
X93772231Y-59163505D01*
X93746133Y-59161955D01*
X93744388Y-59161943D01*
X93740000Y-59161928D01*
X90395000Y-59161928D01*
X90394912Y-59161932D01*
X90392365Y-59161933D01*
X90384546Y-59161960D01*
X90347091Y-59163921D01*
X90342011Y-59164132D01*
X90341987Y-59164134D01*
X90341991Y-59164188D01*
X90335472Y-59164529D01*
X90313338Y-59165539D01*
X90311601Y-59165710D01*
X90307415Y-59166136D01*
X90090028Y-59188985D01*
X90028394Y-59198528D01*
X90021734Y-59199895D01*
X90014962Y-59201187D01*
X89950246Y-59217072D01*
X89948575Y-59217576D01*
X89944146Y-59218929D01*
X89735337Y-59283566D01*
X89676732Y-59304899D01*
X89670484Y-59307526D01*
X89664060Y-59310121D01*
X89603466Y-59338379D01*
X89601926Y-59339198D01*
X89598047Y-59341278D01*
X89405768Y-59445243D01*
X89352420Y-59477554D01*
X89346785Y-59481355D01*
X89341028Y-59485122D01*
X89287024Y-59524651D01*
X89285672Y-59525754D01*
X89282303Y-59528522D01*
X89113880Y-59667854D01*
X89067843Y-59709891D01*
X89062971Y-59714797D01*
X89058094Y-59719573D01*
X89012908Y-59768708D01*
X89011796Y-59770052D01*
X89008944Y-59773524D01*
X88870791Y-59942915D01*
X88833781Y-59993116D01*
X88829981Y-59998836D01*
X88826133Y-60004455D01*
X88791161Y-60061774D01*
X88790332Y-60063309D01*
X88788376Y-60066960D01*
X88685756Y-60259960D01*
X88659219Y-60316352D01*
X88656612Y-60322678D01*
X88653878Y-60329056D01*
X88653175Y-60330966D01*
X88555820Y-60360498D01*
X88445506Y-60419463D01*
X88420482Y-60440000D01*
X86607322Y-60440000D01*
X86569999Y-60436324D01*
X86532676Y-60440000D01*
X86532667Y-60440000D01*
X86421014Y-60450997D01*
X86277753Y-60494454D01*
X86145724Y-60565026D01*
X86029999Y-60659999D01*
X86006196Y-60689003D01*
X85824003Y-60871196D01*
X85823997Y-60871201D01*
X85468627Y-61226572D01*
X85330283Y-61152625D01*
X85168377Y-61103512D01*
X85000000Y-61086928D01*
X84550000Y-61086928D01*
X84381623Y-61103512D01*
X84219717Y-61152625D01*
X84073649Y-61230700D01*
X84029494Y-61194463D01*
X83919180Y-61135498D01*
X83799482Y-61099188D01*
X83675000Y-61086928D01*
X83510750Y-61090000D01*
X83352000Y-61248750D01*
X83352000Y-62073000D01*
X83372000Y-62073000D01*
X83372000Y-62318379D01*
X83300825Y-62325389D01*
X83250000Y-62340807D01*
X83199175Y-62325389D01*
X83062500Y-62311928D01*
X82937500Y-62311928D01*
X82800825Y-62325389D01*
X82795514Y-62327000D01*
X82298750Y-62327000D01*
X82140000Y-62485750D01*
X82136928Y-62675000D01*
X82149188Y-62799482D01*
X82185498Y-62919180D01*
X82236928Y-63015397D01*
X82236928Y-63089174D01*
X82193680Y-62984765D01*
X82080412Y-62815247D01*
X81936249Y-62671084D01*
X81766731Y-62557816D01*
X81578373Y-62479795D01*
X81378414Y-62440021D01*
X81174536Y-62440021D01*
X80984979Y-62477726D01*
X80984979Y-61725000D01*
X82136928Y-61725000D01*
X82140000Y-61914250D01*
X82298750Y-62073000D01*
X83098000Y-62073000D01*
X83098000Y-61248750D01*
X82939250Y-61090000D01*
X82775000Y-61086928D01*
X82650518Y-61099188D01*
X82530820Y-61135498D01*
X82420506Y-61194463D01*
X82323815Y-61273815D01*
X82244463Y-61370506D01*
X82185498Y-61480820D01*
X82149188Y-61600518D01*
X82136928Y-61725000D01*
X80984979Y-61725000D01*
X80984979Y-60060000D01*
X87867680Y-60060000D01*
X87905002Y-60063676D01*
X87942324Y-60060000D01*
X87942335Y-60060000D01*
X88053988Y-60049003D01*
X88197249Y-60005546D01*
X88329278Y-59934974D01*
X88445003Y-59840001D01*
X88468806Y-59810997D01*
X88620998Y-59658805D01*
X88650001Y-59635003D01*
X88744974Y-59519278D01*
X88815546Y-59387249D01*
X88859003Y-59243988D01*
X88870000Y-59132335D01*
X88870000Y-59132325D01*
X88873676Y-59095002D01*
X88870000Y-59057679D01*
X88870000Y-58029138D01*
X88875518Y-58030812D01*
X89000000Y-58043072D01*
X91000000Y-58043072D01*
X91124482Y-58030812D01*
X91244180Y-57994502D01*
X91354494Y-57935537D01*
X91451185Y-57856185D01*
X91530537Y-57759494D01*
X91589502Y-57649180D01*
X91625812Y-57529482D01*
X91638072Y-57405000D01*
X91638072Y-56505000D01*
X91625812Y-56380518D01*
X91607454Y-56320000D01*
X91625812Y-56259482D01*
X91638072Y-56135000D01*
X91638072Y-55235000D01*
X91625812Y-55110518D01*
X91607454Y-55050000D01*
X91625812Y-54989482D01*
X91637814Y-54867616D01*
X92086201Y-55316003D01*
%TA.AperFunction,Conductor*%
D37*
G36*
X92086201Y-55316003D02*
G01*
X92109999Y-55345001D01*
X92126350Y-55358420D01*
X92144742Y-55392829D01*
X92242749Y-55512251D01*
X92362171Y-55610258D01*
X92390752Y-55625535D01*
X92382394Y-55632394D01*
X92278169Y-55759392D01*
X92200722Y-55904284D01*
X92153031Y-56061500D01*
X92136928Y-56225000D01*
X92136928Y-56775000D01*
X92153031Y-56938500D01*
X92200722Y-57095716D01*
X92212344Y-57117459D01*
X92136999Y-57230221D01*
X92058978Y-57418579D01*
X92019204Y-57618538D01*
X92019204Y-57822416D01*
X92058978Y-58022375D01*
X92136999Y-58210733D01*
X92250267Y-58380251D01*
X92394430Y-58524414D01*
X92563948Y-58637682D01*
X92752306Y-58715703D01*
X92952265Y-58755477D01*
X93156143Y-58755477D01*
X93356102Y-58715703D01*
X93544460Y-58637682D01*
X93713978Y-58524414D01*
X93858141Y-58380251D01*
X93971409Y-58210733D01*
X94049430Y-58022375D01*
X94089204Y-57822416D01*
X94089204Y-57618538D01*
X94065990Y-57501831D01*
X94070506Y-57505537D01*
X94180820Y-57564502D01*
X94217270Y-57575559D01*
X94178992Y-57701746D01*
X94161928Y-57875000D01*
X94161928Y-59125000D01*
X94170692Y-59213981D01*
X94117607Y-59200745D01*
X94110822Y-59199402D01*
X94104144Y-59197982D01*
X94038043Y-59187519D01*
X94036308Y-59187337D01*
X94032004Y-59186900D01*
X93814462Y-59165570D01*
X93772231Y-59163505D01*
X93746133Y-59161955D01*
X93744388Y-59161943D01*
X93740000Y-59161928D01*
X90395000Y-59161928D01*
X90394912Y-59161932D01*
X90392365Y-59161933D01*
X90384546Y-59161960D01*
X90347091Y-59163921D01*
X90342011Y-59164132D01*
X90341987Y-59164134D01*
X90341991Y-59164188D01*
X90335472Y-59164529D01*
X90313338Y-59165539D01*
X90311601Y-59165710D01*
X90307415Y-59166136D01*
X90090028Y-59188985D01*
X90028394Y-59198528D01*
X90021734Y-59199895D01*
X90014962Y-59201187D01*
X89950246Y-59217072D01*
X89948575Y-59217576D01*
X89944146Y-59218929D01*
X89735337Y-59283566D01*
X89676732Y-59304899D01*
X89670484Y-59307526D01*
X89664060Y-59310121D01*
X89603466Y-59338379D01*
X89601926Y-59339198D01*
X89598047Y-59341278D01*
X89405768Y-59445243D01*
X89352420Y-59477554D01*
X89346785Y-59481355D01*
X89341028Y-59485122D01*
X89287024Y-59524651D01*
X89285672Y-59525754D01*
X89282303Y-59528522D01*
X89113880Y-59667854D01*
X89067843Y-59709891D01*
X89062971Y-59714797D01*
X89058094Y-59719573D01*
X89012908Y-59768708D01*
X89011796Y-59770052D01*
X89008944Y-59773524D01*
X88870791Y-59942915D01*
X88833781Y-59993116D01*
X88829981Y-59998836D01*
X88826133Y-60004455D01*
X88791161Y-60061774D01*
X88790332Y-60063309D01*
X88788376Y-60066960D01*
X88685756Y-60259960D01*
X88659219Y-60316352D01*
X88656612Y-60322678D01*
X88653878Y-60329056D01*
X88653175Y-60330966D01*
X88555820Y-60360498D01*
X88445506Y-60419463D01*
X88420482Y-60440000D01*
X86607322Y-60440000D01*
X86569999Y-60436324D01*
X86532676Y-60440000D01*
X86532667Y-60440000D01*
X86421014Y-60450997D01*
X86277753Y-60494454D01*
X86145724Y-60565026D01*
X86029999Y-60659999D01*
X86006196Y-60689003D01*
X85824003Y-60871196D01*
X85823997Y-60871201D01*
X85468627Y-61226572D01*
X85330283Y-61152625D01*
X85168377Y-61103512D01*
X85000000Y-61086928D01*
X84550000Y-61086928D01*
X84381623Y-61103512D01*
X84219717Y-61152625D01*
X84073649Y-61230700D01*
X84029494Y-61194463D01*
X83919180Y-61135498D01*
X83799482Y-61099188D01*
X83675000Y-61086928D01*
X83510750Y-61090000D01*
X83352000Y-61248750D01*
X83352000Y-62073000D01*
X83372000Y-62073000D01*
X83372000Y-62318379D01*
X83300825Y-62325389D01*
X83250000Y-62340807D01*
X83199175Y-62325389D01*
X83062500Y-62311928D01*
X82937500Y-62311928D01*
X82800825Y-62325389D01*
X82795514Y-62327000D01*
X82298750Y-62327000D01*
X82140000Y-62485750D01*
X82136928Y-62675000D01*
X82149188Y-62799482D01*
X82185498Y-62919180D01*
X82236928Y-63015397D01*
X82236928Y-63089174D01*
X82193680Y-62984765D01*
X82080412Y-62815247D01*
X81936249Y-62671084D01*
X81766731Y-62557816D01*
X81578373Y-62479795D01*
X81378414Y-62440021D01*
X81174536Y-62440021D01*
X80984979Y-62477726D01*
X80984979Y-61725000D01*
X82136928Y-61725000D01*
X82140000Y-61914250D01*
X82298750Y-62073000D01*
X83098000Y-62073000D01*
X83098000Y-61248750D01*
X82939250Y-61090000D01*
X82775000Y-61086928D01*
X82650518Y-61099188D01*
X82530820Y-61135498D01*
X82420506Y-61194463D01*
X82323815Y-61273815D01*
X82244463Y-61370506D01*
X82185498Y-61480820D01*
X82149188Y-61600518D01*
X82136928Y-61725000D01*
X80984979Y-61725000D01*
X80984979Y-60060000D01*
X87867680Y-60060000D01*
X87905002Y-60063676D01*
X87942324Y-60060000D01*
X87942335Y-60060000D01*
X88053988Y-60049003D01*
X88197249Y-60005546D01*
X88329278Y-59934974D01*
X88445003Y-59840001D01*
X88468806Y-59810997D01*
X88620998Y-59658805D01*
X88650001Y-59635003D01*
X88744974Y-59519278D01*
X88815546Y-59387249D01*
X88859003Y-59243988D01*
X88870000Y-59132335D01*
X88870000Y-59132325D01*
X88873676Y-59095002D01*
X88870000Y-59057679D01*
X88870000Y-58029138D01*
X88875518Y-58030812D01*
X89000000Y-58043072D01*
X91000000Y-58043072D01*
X91124482Y-58030812D01*
X91244180Y-57994502D01*
X91354494Y-57935537D01*
X91451185Y-57856185D01*
X91530537Y-57759494D01*
X91589502Y-57649180D01*
X91625812Y-57529482D01*
X91638072Y-57405000D01*
X91638072Y-56505000D01*
X91625812Y-56380518D01*
X91607454Y-56320000D01*
X91625812Y-56259482D01*
X91638072Y-56135000D01*
X91638072Y-55235000D01*
X91625812Y-55110518D01*
X91607454Y-55050000D01*
X91625812Y-54989482D01*
X91637814Y-54867616D01*
X92086201Y-55316003D01*
G37*
%TD.AperFunction*%
D36*
X96960750Y-57610000D02*
X97075000Y-57613072D01*
X97184152Y-57602322D01*
X97153992Y-57701746D01*
X97136928Y-57875000D01*
X97136928Y-59125000D01*
X97153992Y-59298254D01*
X97204528Y-59464850D01*
X97286595Y-59618386D01*
X97397038Y-59752962D01*
X97531614Y-59863405D01*
X97685150Y-59945472D01*
X97851746Y-59996008D01*
X98025000Y-60013072D01*
X98101496Y-60013072D01*
X98135829Y-60047405D01*
X98048815Y-60118815D01*
X97969463Y-60215506D01*
X97910498Y-60325820D01*
X97903595Y-60348575D01*
X97880040Y-60342750D01*
X97607508Y-60330188D01*
X97337762Y-60371035D01*
X97081168Y-60463723D01*
X96968137Y-60524140D01*
X96902613Y-60763005D01*
X96786157Y-60646549D01*
X96708420Y-60724286D01*
X96693037Y-60695506D01*
X96613685Y-60598815D01*
X96516994Y-60519463D01*
X96406680Y-60460498D01*
X96370889Y-60449641D01*
X96397205Y-60410256D01*
X96475226Y-60221898D01*
X96515000Y-60021939D01*
X96515000Y-59825150D01*
X96602962Y-59752962D01*
X96713405Y-59618386D01*
X96795472Y-59464850D01*
X96846008Y-59298254D01*
X96863072Y-59125000D01*
X96863072Y-57875000D01*
X96846008Y-57701746D01*
X96802002Y-57556677D01*
X96802002Y-57451252D01*
X96960750Y-57610000D01*
%TA.AperFunction,Conductor*%
D37*
G36*
X96960750Y-57610000D02*
G01*
X97075000Y-57613072D01*
X97184152Y-57602322D01*
X97153992Y-57701746D01*
X97136928Y-57875000D01*
X97136928Y-59125000D01*
X97153992Y-59298254D01*
X97204528Y-59464850D01*
X97286595Y-59618386D01*
X97397038Y-59752962D01*
X97531614Y-59863405D01*
X97685150Y-59945472D01*
X97851746Y-59996008D01*
X98025000Y-60013072D01*
X98101496Y-60013072D01*
X98135829Y-60047405D01*
X98048815Y-60118815D01*
X97969463Y-60215506D01*
X97910498Y-60325820D01*
X97903595Y-60348575D01*
X97880040Y-60342750D01*
X97607508Y-60330188D01*
X97337762Y-60371035D01*
X97081168Y-60463723D01*
X96968137Y-60524140D01*
X96902613Y-60763005D01*
X96786157Y-60646549D01*
X96708420Y-60724286D01*
X96693037Y-60695506D01*
X96613685Y-60598815D01*
X96516994Y-60519463D01*
X96406680Y-60460498D01*
X96370889Y-60449641D01*
X96397205Y-60410256D01*
X96475226Y-60221898D01*
X96515000Y-60021939D01*
X96515000Y-59825150D01*
X96602962Y-59752962D01*
X96713405Y-59618386D01*
X96795472Y-59464850D01*
X96846008Y-59298254D01*
X96863072Y-59125000D01*
X96863072Y-57875000D01*
X96846008Y-57701746D01*
X96802002Y-57556677D01*
X96802002Y-57451252D01*
X96960750Y-57610000D01*
G37*
%TD.AperFunction*%
D36*
X75912000Y-57828000D02*
X75932000Y-57828000D01*
X75932000Y-58082000D01*
X75912000Y-58082000D01*
X75912000Y-58102000D01*
X75769999Y-58102000D01*
X75769999Y-57808000D01*
X75912000Y-57808000D01*
X75912000Y-57828000D01*
%TA.AperFunction,Conductor*%
D37*
G36*
X75912000Y-57828000D02*
G01*
X75932000Y-57828000D01*
X75932000Y-58082000D01*
X75912000Y-58082000D01*
X75912000Y-58102000D01*
X75769999Y-58102000D01*
X75769999Y-57808000D01*
X75912000Y-57808000D01*
X75912000Y-57828000D01*
G37*
%TD.AperFunction*%
D36*
X101527000Y-57823000D02*
X101547000Y-57823000D01*
X101547000Y-58077000D01*
X101527000Y-58077000D01*
X101527000Y-58097000D01*
X101273000Y-58097000D01*
X101273000Y-58077000D01*
X101253000Y-58077000D01*
X101253000Y-57823000D01*
X101273000Y-57823000D01*
X101273000Y-57803000D01*
X101527000Y-57803000D01*
X101527000Y-57823000D01*
%TA.AperFunction,Conductor*%
D37*
G36*
X101527000Y-57823000D02*
G01*
X101547000Y-57823000D01*
X101547000Y-58077000D01*
X101527000Y-58077000D01*
X101527000Y-58097000D01*
X101273000Y-58097000D01*
X101273000Y-58077000D01*
X101253000Y-58077000D01*
X101253000Y-57823000D01*
X101273000Y-57823000D01*
X101273000Y-57803000D01*
X101527000Y-57803000D01*
X101527000Y-57823000D01*
G37*
%TD.AperFunction*%
D36*
X95798750Y-56373000D02*
X96548000Y-56373000D01*
X96548000Y-56353000D01*
X96802000Y-56353000D01*
X96802000Y-56373000D01*
X96822000Y-56373000D01*
X96822000Y-56627000D01*
X96802000Y-56627000D01*
X96802000Y-56647000D01*
X96548000Y-56647000D01*
X96548000Y-56627000D01*
X95798750Y-56627000D01*
X95750000Y-56675750D01*
X95701250Y-56627000D01*
X94952000Y-56627000D01*
X94952000Y-56647000D01*
X94698000Y-56647000D01*
X94698000Y-56627000D01*
X94678000Y-56627000D01*
X94678000Y-56373000D01*
X94698000Y-56373000D01*
X94698000Y-56353000D01*
X94952000Y-56353000D01*
X94952000Y-56373000D01*
X95701250Y-56373000D01*
X95750000Y-56324250D01*
X95798750Y-56373000D01*
%TA.AperFunction,Conductor*%
D37*
G36*
X95798750Y-56373000D02*
G01*
X96548000Y-56373000D01*
X96548000Y-56353000D01*
X96802000Y-56353000D01*
X96802000Y-56373000D01*
X96822000Y-56373000D01*
X96822000Y-56627000D01*
X96802000Y-56627000D01*
X96802000Y-56647000D01*
X96548000Y-56647000D01*
X96548000Y-56627000D01*
X95798750Y-56627000D01*
X95750000Y-56675750D01*
X95701250Y-56627000D01*
X94952000Y-56627000D01*
X94952000Y-56647000D01*
X94698000Y-56647000D01*
X94698000Y-56627000D01*
X94678000Y-56627000D01*
X94678000Y-56373000D01*
X94698000Y-56373000D01*
X94698000Y-56353000D01*
X94952000Y-56353000D01*
X94952000Y-56373000D01*
X95701250Y-56373000D01*
X95750000Y-56324250D01*
X95798750Y-56373000D01*
G37*
%TD.AperFunction*%
D36*
X88410498Y-39750820D02*
X88374188Y-39870518D01*
X88361928Y-39995000D01*
X88365000Y-40159250D01*
X88523750Y-40318000D01*
X89873000Y-40318000D01*
X89873000Y-40298000D01*
X90127000Y-40298000D01*
X90127000Y-40318000D01*
X91476250Y-40318000D01*
X91635000Y-40159250D01*
X91638072Y-39995000D01*
X91625812Y-39870518D01*
X91589502Y-39750820D01*
X91554320Y-39685000D01*
X95665000Y-39685000D01*
X95665000Y-39876929D01*
X95704774Y-40076888D01*
X95782795Y-40265246D01*
X95896063Y-40434764D01*
X96040226Y-40578927D01*
X96209744Y-40692195D01*
X96398102Y-40770216D01*
X96598061Y-40809990D01*
X96801939Y-40809990D01*
X97001898Y-40770216D01*
X97190256Y-40692195D01*
X97359774Y-40578927D01*
X97503937Y-40434764D01*
X97617205Y-40265246D01*
X97638816Y-40213072D01*
X97675000Y-40213072D01*
X97838500Y-40196969D01*
X97995716Y-40149278D01*
X98140608Y-40071831D01*
X98267606Y-39967606D01*
X98300000Y-39928134D01*
X98332394Y-39967606D01*
X98459392Y-40071831D01*
X98604284Y-40149278D01*
X98761500Y-40196969D01*
X98925000Y-40213072D01*
X99325000Y-40213072D01*
X99488500Y-40196969D01*
X99645716Y-40149278D01*
X99790608Y-40071831D01*
X99917606Y-39967606D01*
X99931669Y-39950471D01*
X99883524Y-40093110D01*
X100004845Y-40323000D01*
X101273000Y-40323000D01*
X101273000Y-40303000D01*
X101527000Y-40303000D01*
X101527000Y-40323000D01*
X101547000Y-40323000D01*
X101547000Y-40577000D01*
X101527000Y-40577000D01*
X101527000Y-40597000D01*
X101273000Y-40597000D01*
X101273000Y-40577000D01*
X100004845Y-40577000D01*
X99961102Y-40659887D01*
X99938500Y-40653031D01*
X99775000Y-40636928D01*
X99225000Y-40636928D01*
X99061500Y-40653031D01*
X98904284Y-40700722D01*
X98890503Y-40708088D01*
X98880283Y-40702625D01*
X98718377Y-40653512D01*
X98550000Y-40636928D01*
X98050000Y-40636928D01*
X97881623Y-40653512D01*
X97719717Y-40702625D01*
X97570503Y-40782382D01*
X97439716Y-40889716D01*
X97339419Y-41011928D01*
X96825000Y-41011928D01*
X96700518Y-41024188D01*
X96580820Y-41060498D01*
X96470506Y-41119463D01*
X96373815Y-41198815D01*
X96294463Y-41295506D01*
X96235498Y-41405820D01*
X96199285Y-41525199D01*
X96197546Y-41510098D01*
X96158290Y-41391334D01*
X96096619Y-41282510D01*
X96014903Y-41187808D01*
X95916281Y-41110868D01*
X95804544Y-41054647D01*
X95683986Y-41021305D01*
X95559239Y-41012123D01*
X95535750Y-41015000D01*
X95377000Y-41173750D01*
X95377000Y-41661928D01*
X95210000Y-41661928D01*
X95210000Y-41597998D01*
X95123000Y-41597998D01*
X95123000Y-41526250D01*
X95210000Y-41439250D01*
X95213072Y-41275000D01*
X95200812Y-41150518D01*
X95164502Y-41030820D01*
X95105537Y-40920506D01*
X95026185Y-40823815D01*
X94929494Y-40744463D01*
X94819180Y-40685498D01*
X94699482Y-40649188D01*
X94575000Y-40636928D01*
X94385750Y-40640000D01*
X94227000Y-40798750D01*
X94227000Y-41598000D01*
X94247000Y-41598000D01*
X94247000Y-41852000D01*
X94227000Y-41852000D01*
X94227000Y-41872000D01*
X94013072Y-41872000D01*
X94013072Y-41475000D01*
X93996969Y-41311500D01*
X93973000Y-41232485D01*
X93973000Y-40798750D01*
X93814250Y-40640000D01*
X93625000Y-40636928D01*
X93500518Y-40649188D01*
X93413175Y-40675683D01*
X93338500Y-40653031D01*
X93175000Y-40636928D01*
X92625000Y-40636928D01*
X92461500Y-40653031D01*
X92304284Y-40700722D01*
X92184029Y-40765000D01*
X91998061Y-40765000D01*
X91798102Y-40804774D01*
X91637628Y-40871245D01*
X91635000Y-40730750D01*
X91476250Y-40572000D01*
X90127000Y-40572000D01*
X90127000Y-40592000D01*
X89873000Y-40592000D01*
X89873000Y-40572000D01*
X88523750Y-40572000D01*
X88365000Y-40730750D01*
X88361928Y-40895000D01*
X88374188Y-41019482D01*
X88392546Y-41080000D01*
X88374188Y-41140518D01*
X88361928Y-41265000D01*
X88361928Y-42165000D01*
X88374188Y-42289482D01*
X88392546Y-42350000D01*
X88374188Y-42410518D01*
X88361928Y-42535000D01*
X88361928Y-43435000D01*
X88367837Y-43495000D01*
X88180401Y-43495000D01*
X88143076Y-43491324D01*
X88105751Y-43495000D01*
X88105743Y-43495000D01*
X87994090Y-43505997D01*
X87850829Y-43549454D01*
X87718800Y-43620026D01*
X87603075Y-43714999D01*
X87579277Y-43743997D01*
X87035131Y-44288144D01*
X86972993Y-44288144D01*
X86773034Y-44327918D01*
X86584676Y-44405939D01*
X86415158Y-44519207D01*
X86270995Y-44663370D01*
X86157727Y-44832888D01*
X86079706Y-45021246D01*
X86039932Y-45221205D01*
X86039932Y-45425083D01*
X86079706Y-45625042D01*
X86157727Y-45813400D01*
X86270995Y-45982918D01*
X86415158Y-46127081D01*
X86567587Y-46228931D01*
X86567587Y-46274556D01*
X86607361Y-46474515D01*
X86685382Y-46662873D01*
X86798650Y-46832391D01*
X86942813Y-46976554D01*
X87112331Y-47089822D01*
X87300689Y-47167843D01*
X87500648Y-47207617D01*
X87704526Y-47207617D01*
X87904485Y-47167843D01*
X88092843Y-47089822D01*
X88262361Y-46976554D01*
X88361928Y-46876987D01*
X88361928Y-47245000D01*
X88374188Y-47369482D01*
X88392546Y-47430000D01*
X88374188Y-47490518D01*
X88361928Y-47615000D01*
X88361928Y-48515000D01*
X88374188Y-48639482D01*
X88392546Y-48700000D01*
X88374188Y-48760518D01*
X88361928Y-48885000D01*
X88361928Y-49785000D01*
X88374188Y-49909482D01*
X88392546Y-49970000D01*
X88374188Y-50030518D01*
X88361928Y-50155000D01*
X88361928Y-51055000D01*
X88374188Y-51179482D01*
X88392546Y-51240000D01*
X88374188Y-51300518D01*
X88361928Y-51425000D01*
X88361928Y-52325000D01*
X88374188Y-52449482D01*
X88392546Y-52510000D01*
X88374188Y-52570518D01*
X88361928Y-52695000D01*
X88361928Y-53595000D01*
X88374188Y-53719482D01*
X88392546Y-53780000D01*
X88374188Y-53840518D01*
X88361928Y-53965000D01*
X88361928Y-54865000D01*
X88374188Y-54989482D01*
X88392546Y-55050000D01*
X88374188Y-55110518D01*
X88361928Y-55235000D01*
X88361928Y-56135000D01*
X88367695Y-56193559D01*
X88344999Y-56191324D01*
X88307676Y-56195000D01*
X88307667Y-56195000D01*
X88196014Y-56205997D01*
X88052753Y-56249454D01*
X87920724Y-56320026D01*
X87877154Y-56355783D01*
X87789482Y-56329188D01*
X87665000Y-56316928D01*
X86765000Y-56316928D01*
X86640518Y-56329188D01*
X86580000Y-56347546D01*
X86519482Y-56329188D01*
X86395000Y-56316928D01*
X85495000Y-56316928D01*
X85370518Y-56329188D01*
X85310000Y-56347546D01*
X85249482Y-56329188D01*
X85125000Y-56316928D01*
X84225000Y-56316928D01*
X84100518Y-56329188D01*
X84040000Y-56347546D01*
X83979482Y-56329188D01*
X83855000Y-56316928D01*
X82955000Y-56316928D01*
X82830518Y-56329188D01*
X82770000Y-56347546D01*
X82709482Y-56329188D01*
X82585000Y-56316928D01*
X81685000Y-56316928D01*
X81560518Y-56329188D01*
X81500000Y-56347546D01*
X81439482Y-56329188D01*
X81315000Y-56316928D01*
X80415000Y-56316928D01*
X80290518Y-56329188D01*
X80230000Y-56347546D01*
X80169482Y-56329188D01*
X80045000Y-56316928D01*
X79145000Y-56316928D01*
X79020518Y-56329188D01*
X78960000Y-56347546D01*
X78899482Y-56329188D01*
X78775000Y-56316928D01*
X77875000Y-56316928D01*
X77771461Y-56327125D01*
X77760546Y-56291143D01*
X77689974Y-56159114D01*
X77670009Y-56134787D01*
X77670009Y-56061460D01*
X77630235Y-55861501D01*
X77552214Y-55673143D01*
X77438946Y-55503625D01*
X77294783Y-55359462D01*
X77125265Y-55246194D01*
X76936907Y-55168173D01*
X76736948Y-55128399D01*
X76533070Y-55128399D01*
X76333111Y-55168173D01*
X76144753Y-55246194D01*
X75975235Y-55359462D01*
X75969988Y-55364709D01*
X75969990Y-51217312D01*
X75973666Y-51179989D01*
X75969990Y-51142666D01*
X75969990Y-51142658D01*
X75958993Y-51031005D01*
X75922689Y-50911324D01*
X75915536Y-50887743D01*
X75844964Y-50755713D01*
X75773789Y-50668987D01*
X75773785Y-50668983D01*
X75749991Y-50639990D01*
X75720998Y-50616196D01*
X75177500Y-50072699D01*
X75177500Y-43354822D01*
X75181176Y-43317499D01*
X75177500Y-43280177D01*
X75177500Y-43280167D01*
X75166503Y-43168514D01*
X75123046Y-43025253D01*
X75052474Y-42893224D01*
X74957501Y-42777499D01*
X74928498Y-42753697D01*
X74649801Y-42475000D01*
X81386228Y-42475000D01*
X83833015Y-44921787D01*
X83833016Y-45803273D01*
X83796063Y-45840226D01*
X83682795Y-46009744D01*
X83604774Y-46198102D01*
X83565000Y-46398061D01*
X83565000Y-46601939D01*
X83604774Y-46801898D01*
X83682795Y-46990256D01*
X83796063Y-47159774D01*
X83940226Y-47303937D01*
X84109744Y-47417205D01*
X84298102Y-47495226D01*
X84498061Y-47535000D01*
X84701939Y-47535000D01*
X84901898Y-47495226D01*
X85090256Y-47417205D01*
X85259774Y-47303937D01*
X85403937Y-47159774D01*
X85517205Y-46990256D01*
X85595226Y-46801898D01*
X85635000Y-46601939D01*
X85635000Y-46398061D01*
X85595226Y-46198102D01*
X85517205Y-46009744D01*
X85403937Y-45840226D01*
X85353015Y-45789304D01*
X85353015Y-44644307D01*
X85356691Y-44606984D01*
X85353015Y-44569661D01*
X85353015Y-44569652D01*
X85342018Y-44457999D01*
X85298561Y-44314738D01*
X85227989Y-44182709D01*
X85133016Y-44066984D01*
X85104019Y-44043187D01*
X82264833Y-41204003D01*
X82241030Y-41174999D01*
X82125305Y-41080026D01*
X81993276Y-41009454D01*
X81850015Y-40965997D01*
X81738362Y-40955000D01*
X81738351Y-40955000D01*
X81701029Y-40951324D01*
X81663706Y-40955000D01*
X74632163Y-40955000D01*
X74638072Y-40895000D01*
X74635000Y-40730750D01*
X74476250Y-40572000D01*
X73127000Y-40572000D01*
X73127000Y-40592000D01*
X72873000Y-40592000D01*
X72873000Y-40572000D01*
X72853000Y-40572000D01*
X72853000Y-40318000D01*
X72873000Y-40318000D01*
X72873000Y-40298000D01*
X73127000Y-40298000D01*
X73127000Y-40318000D01*
X74476250Y-40318000D01*
X74635000Y-40159250D01*
X74638072Y-39995000D01*
X74625812Y-39870518D01*
X74589502Y-39750820D01*
X74554320Y-39685000D01*
X88445680Y-39685000D01*
X88410498Y-39750820D01*
%TA.AperFunction,Conductor*%
D37*
G36*
X88410498Y-39750820D02*
G01*
X88374188Y-39870518D01*
X88361928Y-39995000D01*
X88365000Y-40159250D01*
X88523750Y-40318000D01*
X89873000Y-40318000D01*
X89873000Y-40298000D01*
X90127000Y-40298000D01*
X90127000Y-40318000D01*
X91476250Y-40318000D01*
X91635000Y-40159250D01*
X91638072Y-39995000D01*
X91625812Y-39870518D01*
X91589502Y-39750820D01*
X91554320Y-39685000D01*
X95665000Y-39685000D01*
X95665000Y-39876929D01*
X95704774Y-40076888D01*
X95782795Y-40265246D01*
X95896063Y-40434764D01*
X96040226Y-40578927D01*
X96209744Y-40692195D01*
X96398102Y-40770216D01*
X96598061Y-40809990D01*
X96801939Y-40809990D01*
X97001898Y-40770216D01*
X97190256Y-40692195D01*
X97359774Y-40578927D01*
X97503937Y-40434764D01*
X97617205Y-40265246D01*
X97638816Y-40213072D01*
X97675000Y-40213072D01*
X97838500Y-40196969D01*
X97995716Y-40149278D01*
X98140608Y-40071831D01*
X98267606Y-39967606D01*
X98300000Y-39928134D01*
X98332394Y-39967606D01*
X98459392Y-40071831D01*
X98604284Y-40149278D01*
X98761500Y-40196969D01*
X98925000Y-40213072D01*
X99325000Y-40213072D01*
X99488500Y-40196969D01*
X99645716Y-40149278D01*
X99790608Y-40071831D01*
X99917606Y-39967606D01*
X99931669Y-39950471D01*
X99883524Y-40093110D01*
X100004845Y-40323000D01*
X101273000Y-40323000D01*
X101273000Y-40303000D01*
X101527000Y-40303000D01*
X101527000Y-40323000D01*
X101547000Y-40323000D01*
X101547000Y-40577000D01*
X101527000Y-40577000D01*
X101527000Y-40597000D01*
X101273000Y-40597000D01*
X101273000Y-40577000D01*
X100004845Y-40577000D01*
X99961102Y-40659887D01*
X99938500Y-40653031D01*
X99775000Y-40636928D01*
X99225000Y-40636928D01*
X99061500Y-40653031D01*
X98904284Y-40700722D01*
X98890503Y-40708088D01*
X98880283Y-40702625D01*
X98718377Y-40653512D01*
X98550000Y-40636928D01*
X98050000Y-40636928D01*
X97881623Y-40653512D01*
X97719717Y-40702625D01*
X97570503Y-40782382D01*
X97439716Y-40889716D01*
X97339419Y-41011928D01*
X96825000Y-41011928D01*
X96700518Y-41024188D01*
X96580820Y-41060498D01*
X96470506Y-41119463D01*
X96373815Y-41198815D01*
X96294463Y-41295506D01*
X96235498Y-41405820D01*
X96199285Y-41525199D01*
X96197546Y-41510098D01*
X96158290Y-41391334D01*
X96096619Y-41282510D01*
X96014903Y-41187808D01*
X95916281Y-41110868D01*
X95804544Y-41054647D01*
X95683986Y-41021305D01*
X95559239Y-41012123D01*
X95535750Y-41015000D01*
X95377000Y-41173750D01*
X95377000Y-41661928D01*
X95210000Y-41661928D01*
X95210000Y-41597998D01*
X95123000Y-41597998D01*
X95123000Y-41526250D01*
X95210000Y-41439250D01*
X95213072Y-41275000D01*
X95200812Y-41150518D01*
X95164502Y-41030820D01*
X95105537Y-40920506D01*
X95026185Y-40823815D01*
X94929494Y-40744463D01*
X94819180Y-40685498D01*
X94699482Y-40649188D01*
X94575000Y-40636928D01*
X94385750Y-40640000D01*
X94227000Y-40798750D01*
X94227000Y-41598000D01*
X94247000Y-41598000D01*
X94247000Y-41852000D01*
X94227000Y-41852000D01*
X94227000Y-41872000D01*
X94013072Y-41872000D01*
X94013072Y-41475000D01*
X93996969Y-41311500D01*
X93973000Y-41232485D01*
X93973000Y-40798750D01*
X93814250Y-40640000D01*
X93625000Y-40636928D01*
X93500518Y-40649188D01*
X93413175Y-40675683D01*
X93338500Y-40653031D01*
X93175000Y-40636928D01*
X92625000Y-40636928D01*
X92461500Y-40653031D01*
X92304284Y-40700722D01*
X92184029Y-40765000D01*
X91998061Y-40765000D01*
X91798102Y-40804774D01*
X91637628Y-40871245D01*
X91635000Y-40730750D01*
X91476250Y-40572000D01*
X90127000Y-40572000D01*
X90127000Y-40592000D01*
X89873000Y-40592000D01*
X89873000Y-40572000D01*
X88523750Y-40572000D01*
X88365000Y-40730750D01*
X88361928Y-40895000D01*
X88374188Y-41019482D01*
X88392546Y-41080000D01*
X88374188Y-41140518D01*
X88361928Y-41265000D01*
X88361928Y-42165000D01*
X88374188Y-42289482D01*
X88392546Y-42350000D01*
X88374188Y-42410518D01*
X88361928Y-42535000D01*
X88361928Y-43435000D01*
X88367837Y-43495000D01*
X88180401Y-43495000D01*
X88143076Y-43491324D01*
X88105751Y-43495000D01*
X88105743Y-43495000D01*
X87994090Y-43505997D01*
X87850829Y-43549454D01*
X87718800Y-43620026D01*
X87603075Y-43714999D01*
X87579277Y-43743997D01*
X87035131Y-44288144D01*
X86972993Y-44288144D01*
X86773034Y-44327918D01*
X86584676Y-44405939D01*
X86415158Y-44519207D01*
X86270995Y-44663370D01*
X86157727Y-44832888D01*
X86079706Y-45021246D01*
X86039932Y-45221205D01*
X86039932Y-45425083D01*
X86079706Y-45625042D01*
X86157727Y-45813400D01*
X86270995Y-45982918D01*
X86415158Y-46127081D01*
X86567587Y-46228931D01*
X86567587Y-46274556D01*
X86607361Y-46474515D01*
X86685382Y-46662873D01*
X86798650Y-46832391D01*
X86942813Y-46976554D01*
X87112331Y-47089822D01*
X87300689Y-47167843D01*
X87500648Y-47207617D01*
X87704526Y-47207617D01*
X87904485Y-47167843D01*
X88092843Y-47089822D01*
X88262361Y-46976554D01*
X88361928Y-46876987D01*
X88361928Y-47245000D01*
X88374188Y-47369482D01*
X88392546Y-47430000D01*
X88374188Y-47490518D01*
X88361928Y-47615000D01*
X88361928Y-48515000D01*
X88374188Y-48639482D01*
X88392546Y-48700000D01*
X88374188Y-48760518D01*
X88361928Y-48885000D01*
X88361928Y-49785000D01*
X88374188Y-49909482D01*
X88392546Y-49970000D01*
X88374188Y-50030518D01*
X88361928Y-50155000D01*
X88361928Y-51055000D01*
X88374188Y-51179482D01*
X88392546Y-51240000D01*
X88374188Y-51300518D01*
X88361928Y-51425000D01*
X88361928Y-52325000D01*
X88374188Y-52449482D01*
X88392546Y-52510000D01*
X88374188Y-52570518D01*
X88361928Y-52695000D01*
X88361928Y-53595000D01*
X88374188Y-53719482D01*
X88392546Y-53780000D01*
X88374188Y-53840518D01*
X88361928Y-53965000D01*
X88361928Y-54865000D01*
X88374188Y-54989482D01*
X88392546Y-55050000D01*
X88374188Y-55110518D01*
X88361928Y-55235000D01*
X88361928Y-56135000D01*
X88367695Y-56193559D01*
X88344999Y-56191324D01*
X88307676Y-56195000D01*
X88307667Y-56195000D01*
X88196014Y-56205997D01*
X88052753Y-56249454D01*
X87920724Y-56320026D01*
X87877154Y-56355783D01*
X87789482Y-56329188D01*
X87665000Y-56316928D01*
X86765000Y-56316928D01*
X86640518Y-56329188D01*
X86580000Y-56347546D01*
X86519482Y-56329188D01*
X86395000Y-56316928D01*
X85495000Y-56316928D01*
X85370518Y-56329188D01*
X85310000Y-56347546D01*
X85249482Y-56329188D01*
X85125000Y-56316928D01*
X84225000Y-56316928D01*
X84100518Y-56329188D01*
X84040000Y-56347546D01*
X83979482Y-56329188D01*
X83855000Y-56316928D01*
X82955000Y-56316928D01*
X82830518Y-56329188D01*
X82770000Y-56347546D01*
X82709482Y-56329188D01*
X82585000Y-56316928D01*
X81685000Y-56316928D01*
X81560518Y-56329188D01*
X81500000Y-56347546D01*
X81439482Y-56329188D01*
X81315000Y-56316928D01*
X80415000Y-56316928D01*
X80290518Y-56329188D01*
X80230000Y-56347546D01*
X80169482Y-56329188D01*
X80045000Y-56316928D01*
X79145000Y-56316928D01*
X79020518Y-56329188D01*
X78960000Y-56347546D01*
X78899482Y-56329188D01*
X78775000Y-56316928D01*
X77875000Y-56316928D01*
X77771461Y-56327125D01*
X77760546Y-56291143D01*
X77689974Y-56159114D01*
X77670009Y-56134787D01*
X77670009Y-56061460D01*
X77630235Y-55861501D01*
X77552214Y-55673143D01*
X77438946Y-55503625D01*
X77294783Y-55359462D01*
X77125265Y-55246194D01*
X76936907Y-55168173D01*
X76736948Y-55128399D01*
X76533070Y-55128399D01*
X76333111Y-55168173D01*
X76144753Y-55246194D01*
X75975235Y-55359462D01*
X75969988Y-55364709D01*
X75969990Y-51217312D01*
X75973666Y-51179989D01*
X75969990Y-51142666D01*
X75969990Y-51142658D01*
X75958993Y-51031005D01*
X75922689Y-50911324D01*
X75915536Y-50887743D01*
X75844964Y-50755713D01*
X75773789Y-50668987D01*
X75773785Y-50668983D01*
X75749991Y-50639990D01*
X75720998Y-50616196D01*
X75177500Y-50072699D01*
X75177500Y-43354822D01*
X75181176Y-43317499D01*
X75177500Y-43280177D01*
X75177500Y-43280167D01*
X75166503Y-43168514D01*
X75123046Y-43025253D01*
X75052474Y-42893224D01*
X74957501Y-42777499D01*
X74928498Y-42753697D01*
X74649801Y-42475000D01*
X81386228Y-42475000D01*
X83833015Y-44921787D01*
X83833016Y-45803273D01*
X83796063Y-45840226D01*
X83682795Y-46009744D01*
X83604774Y-46198102D01*
X83565000Y-46398061D01*
X83565000Y-46601939D01*
X83604774Y-46801898D01*
X83682795Y-46990256D01*
X83796063Y-47159774D01*
X83940226Y-47303937D01*
X84109744Y-47417205D01*
X84298102Y-47495226D01*
X84498061Y-47535000D01*
X84701939Y-47535000D01*
X84901898Y-47495226D01*
X85090256Y-47417205D01*
X85259774Y-47303937D01*
X85403937Y-47159774D01*
X85517205Y-46990256D01*
X85595226Y-46801898D01*
X85635000Y-46601939D01*
X85635000Y-46398061D01*
X85595226Y-46198102D01*
X85517205Y-46009744D01*
X85403937Y-45840226D01*
X85353015Y-45789304D01*
X85353015Y-44644307D01*
X85356691Y-44606984D01*
X85353015Y-44569661D01*
X85353015Y-44569652D01*
X85342018Y-44457999D01*
X85298561Y-44314738D01*
X85227989Y-44182709D01*
X85133016Y-44066984D01*
X85104019Y-44043187D01*
X82264833Y-41204003D01*
X82241030Y-41174999D01*
X82125305Y-41080026D01*
X81993276Y-41009454D01*
X81850015Y-40965997D01*
X81738362Y-40955000D01*
X81738351Y-40955000D01*
X81701029Y-40951324D01*
X81663706Y-40955000D01*
X74632163Y-40955000D01*
X74638072Y-40895000D01*
X74635000Y-40730750D01*
X74476250Y-40572000D01*
X73127000Y-40572000D01*
X73127000Y-40592000D01*
X72873000Y-40592000D01*
X72873000Y-40572000D01*
X72853000Y-40572000D01*
X72853000Y-40318000D01*
X72873000Y-40318000D01*
X72873000Y-40298000D01*
X73127000Y-40298000D01*
X73127000Y-40318000D01*
X74476250Y-40318000D01*
X74635000Y-40159250D01*
X74638072Y-39995000D01*
X74625812Y-39870518D01*
X74589502Y-39750820D01*
X74554320Y-39685000D01*
X88445680Y-39685000D01*
X88410498Y-39750820D01*
G37*
%TD.AperFunction*%
D36*
X98386928Y-43525000D02*
X98403031Y-43688500D01*
X98427000Y-43767515D01*
X98427000Y-44201250D01*
X98585750Y-44360000D01*
X98775000Y-44363072D01*
X98899482Y-44350812D01*
X98986825Y-44324317D01*
X99061500Y-44346969D01*
X99223016Y-44362877D01*
X99215997Y-44386015D01*
X99209013Y-44456928D01*
X97950000Y-44456928D01*
X97796255Y-44472071D01*
X97648418Y-44516916D01*
X97512171Y-44589742D01*
X97392749Y-44687749D01*
X97294742Y-44807171D01*
X97221916Y-44943418D01*
X97177071Y-45091255D01*
X97161928Y-45245000D01*
X97161928Y-45545000D01*
X97177071Y-45698745D01*
X97221916Y-45846582D01*
X97294742Y-45982829D01*
X97333454Y-46030000D01*
X97294742Y-46077171D01*
X97221916Y-46213418D01*
X97177071Y-46361255D01*
X97161928Y-46515000D01*
X97161928Y-46815000D01*
X97177071Y-46968745D01*
X97221916Y-47116582D01*
X97276890Y-47219431D01*
X97171183Y-47306183D01*
X97143466Y-47339956D01*
X96754942Y-47728480D01*
X96721174Y-47756193D01*
X96693461Y-47789961D01*
X96693458Y-47789964D01*
X96610580Y-47890951D01*
X96528402Y-48044697D01*
X96477795Y-48211520D01*
X96460709Y-48385010D01*
X96464991Y-48428489D01*
X96464990Y-53041521D01*
X96460709Y-53084990D01*
X96464990Y-53128459D01*
X96464990Y-53128466D01*
X96477795Y-53258479D01*
X96528401Y-53425302D01*
X96587035Y-53535000D01*
X96528402Y-53644697D01*
X96477795Y-53811520D01*
X96460709Y-53985010D01*
X96464991Y-54028488D01*
X96464990Y-55160064D01*
X96460709Y-55203534D01*
X96464990Y-55247003D01*
X96464990Y-55247010D01*
X96471803Y-55316185D01*
X96477795Y-55377024D01*
X96485796Y-55403399D01*
X96522002Y-55522752D01*
X96389250Y-55390000D01*
X96275000Y-55386928D01*
X96150518Y-55399188D01*
X96030820Y-55435498D01*
X95920506Y-55494463D01*
X95823815Y-55573815D01*
X95750000Y-55663759D01*
X95676185Y-55573815D01*
X95579494Y-55494463D01*
X95469180Y-55435498D01*
X95349482Y-55399188D01*
X95225000Y-55386928D01*
X95110750Y-55390000D01*
X94952002Y-55548748D01*
X94952002Y-55390000D01*
X94906770Y-55390000D01*
X94978084Y-55256582D01*
X95022929Y-55108745D01*
X95038072Y-54955000D01*
X95038072Y-54655000D01*
X95022929Y-54501255D01*
X94978084Y-54353418D01*
X94906270Y-54219064D01*
X94930537Y-54189494D01*
X94989502Y-54079180D01*
X95025812Y-53959482D01*
X95038072Y-53835000D01*
X95035000Y-53820750D01*
X94876250Y-53662000D01*
X93652000Y-53662000D01*
X93652000Y-53682000D01*
X93398000Y-53682000D01*
X93398000Y-53662000D01*
X93378000Y-53662000D01*
X93378000Y-53408000D01*
X93398000Y-53408000D01*
X93398000Y-53388000D01*
X93652000Y-53388000D01*
X93652000Y-53408000D01*
X94876250Y-53408000D01*
X95035000Y-53249250D01*
X95038072Y-53235000D01*
X95025812Y-53110518D01*
X94989502Y-52990820D01*
X94930537Y-52880506D01*
X94906270Y-52850936D01*
X94978084Y-52716582D01*
X95022929Y-52568745D01*
X95038072Y-52415000D01*
X95038072Y-52115000D01*
X95022929Y-51961255D01*
X94978084Y-51813418D01*
X94905258Y-51677171D01*
X94866546Y-51630000D01*
X94905258Y-51582829D01*
X94978084Y-51446582D01*
X95022929Y-51298745D01*
X95038072Y-51145000D01*
X95038072Y-50845000D01*
X95022929Y-50691255D01*
X94978084Y-50543418D01*
X94905258Y-50407171D01*
X94807251Y-50287749D01*
X94687829Y-50189742D01*
X94551582Y-50116916D01*
X94495816Y-50100000D01*
X94551582Y-50083084D01*
X94687829Y-50010258D01*
X94807251Y-49912251D01*
X94905258Y-49792829D01*
X94978084Y-49656582D01*
X95022929Y-49508745D01*
X95038072Y-49355000D01*
X95038072Y-49055000D01*
X95022929Y-48901255D01*
X94978084Y-48753418D01*
X94906270Y-48619064D01*
X94930537Y-48589494D01*
X94989502Y-48479180D01*
X95025812Y-48359482D01*
X95038072Y-48235000D01*
X95035000Y-48220750D01*
X94876250Y-48062000D01*
X93652000Y-48062000D01*
X93652000Y-48082000D01*
X93398000Y-48082000D01*
X93398000Y-48062000D01*
X93378000Y-48062000D01*
X93378000Y-47808000D01*
X93398000Y-47808000D01*
X93398000Y-47788000D01*
X93652000Y-47788000D01*
X93652000Y-47808000D01*
X94876250Y-47808000D01*
X95035000Y-47649250D01*
X95038072Y-47635000D01*
X95025812Y-47510518D01*
X94989502Y-47390820D01*
X94930537Y-47280506D01*
X94906270Y-47250936D01*
X94978084Y-47116582D01*
X95022929Y-46968745D01*
X95038072Y-46815000D01*
X95038072Y-46515000D01*
X95022929Y-46361255D01*
X94978084Y-46213418D01*
X94905258Y-46077171D01*
X94866546Y-46030000D01*
X94905258Y-45982829D01*
X94978084Y-45846582D01*
X95022929Y-45698745D01*
X95038072Y-45545000D01*
X95038072Y-45245000D01*
X95022929Y-45091255D01*
X94978084Y-44943418D01*
X94905258Y-44807171D01*
X94807251Y-44687749D01*
X94687829Y-44589742D01*
X94551582Y-44516916D01*
X94403745Y-44472071D01*
X94250000Y-44456928D01*
X93535022Y-44456928D01*
X93535022Y-44449211D01*
X93602723Y-44322554D01*
X93681623Y-44346488D01*
X93850000Y-44363072D01*
X94350000Y-44363072D01*
X94518377Y-44346488D01*
X94680283Y-44297375D01*
X94829497Y-44217618D01*
X94960284Y-44110284D01*
X95060581Y-43988072D01*
X95197276Y-43988072D01*
X95182795Y-44009744D01*
X95104774Y-44198102D01*
X95065000Y-44398061D01*
X95065000Y-44601939D01*
X95104774Y-44801898D01*
X95182795Y-44990256D01*
X95296063Y-45159774D01*
X95440226Y-45303937D01*
X95609744Y-45417205D01*
X95798102Y-45495226D01*
X95998061Y-45535000D01*
X96201939Y-45535000D01*
X96401898Y-45495226D01*
X96590256Y-45417205D01*
X96759774Y-45303937D01*
X96903937Y-45159774D01*
X97017205Y-44990256D01*
X97095226Y-44801898D01*
X97135000Y-44601939D01*
X97135000Y-44398061D01*
X97095226Y-44198102D01*
X97017205Y-44009744D01*
X96946029Y-43903221D01*
X97023000Y-43826250D01*
X97023000Y-43338072D01*
X97190000Y-43338072D01*
X97190000Y-43402002D01*
X97277000Y-43402002D01*
X97277000Y-43473750D01*
X97190000Y-43560750D01*
X97186928Y-43725000D01*
X97199188Y-43849482D01*
X97235498Y-43969180D01*
X97294463Y-44079494D01*
X97373815Y-44176185D01*
X97470506Y-44255537D01*
X97580820Y-44314502D01*
X97700518Y-44350812D01*
X97825000Y-44363072D01*
X98014250Y-44360000D01*
X98173000Y-44201250D01*
X98173000Y-43402000D01*
X98153000Y-43402000D01*
X98153000Y-43148000D01*
X98173000Y-43148000D01*
X98173000Y-43128000D01*
X98386928Y-43128000D01*
X98386928Y-43525000D01*
%TA.AperFunction,Conductor*%
D37*
G36*
X98386928Y-43525000D02*
G01*
X98403031Y-43688500D01*
X98427000Y-43767515D01*
X98427000Y-44201250D01*
X98585750Y-44360000D01*
X98775000Y-44363072D01*
X98899482Y-44350812D01*
X98986825Y-44324317D01*
X99061500Y-44346969D01*
X99223016Y-44362877D01*
X99215997Y-44386015D01*
X99209013Y-44456928D01*
X97950000Y-44456928D01*
X97796255Y-44472071D01*
X97648418Y-44516916D01*
X97512171Y-44589742D01*
X97392749Y-44687749D01*
X97294742Y-44807171D01*
X97221916Y-44943418D01*
X97177071Y-45091255D01*
X97161928Y-45245000D01*
X97161928Y-45545000D01*
X97177071Y-45698745D01*
X97221916Y-45846582D01*
X97294742Y-45982829D01*
X97333454Y-46030000D01*
X97294742Y-46077171D01*
X97221916Y-46213418D01*
X97177071Y-46361255D01*
X97161928Y-46515000D01*
X97161928Y-46815000D01*
X97177071Y-46968745D01*
X97221916Y-47116582D01*
X97276890Y-47219431D01*
X97171183Y-47306183D01*
X97143466Y-47339956D01*
X96754942Y-47728480D01*
X96721174Y-47756193D01*
X96693461Y-47789961D01*
X96693458Y-47789964D01*
X96610580Y-47890951D01*
X96528402Y-48044697D01*
X96477795Y-48211520D01*
X96460709Y-48385010D01*
X96464991Y-48428489D01*
X96464990Y-53041521D01*
X96460709Y-53084990D01*
X96464990Y-53128459D01*
X96464990Y-53128466D01*
X96477795Y-53258479D01*
X96528401Y-53425302D01*
X96587035Y-53535000D01*
X96528402Y-53644697D01*
X96477795Y-53811520D01*
X96460709Y-53985010D01*
X96464991Y-54028488D01*
X96464990Y-55160064D01*
X96460709Y-55203534D01*
X96464990Y-55247003D01*
X96464990Y-55247010D01*
X96471803Y-55316185D01*
X96477795Y-55377024D01*
X96485796Y-55403399D01*
X96522002Y-55522752D01*
X96389250Y-55390000D01*
X96275000Y-55386928D01*
X96150518Y-55399188D01*
X96030820Y-55435498D01*
X95920506Y-55494463D01*
X95823815Y-55573815D01*
X95750000Y-55663759D01*
X95676185Y-55573815D01*
X95579494Y-55494463D01*
X95469180Y-55435498D01*
X95349482Y-55399188D01*
X95225000Y-55386928D01*
X95110750Y-55390000D01*
X94952002Y-55548748D01*
X94952002Y-55390000D01*
X94906770Y-55390000D01*
X94978084Y-55256582D01*
X95022929Y-55108745D01*
X95038072Y-54955000D01*
X95038072Y-54655000D01*
X95022929Y-54501255D01*
X94978084Y-54353418D01*
X94906270Y-54219064D01*
X94930537Y-54189494D01*
X94989502Y-54079180D01*
X95025812Y-53959482D01*
X95038072Y-53835000D01*
X95035000Y-53820750D01*
X94876250Y-53662000D01*
X93652000Y-53662000D01*
X93652000Y-53682000D01*
X93398000Y-53682000D01*
X93398000Y-53662000D01*
X93378000Y-53662000D01*
X93378000Y-53408000D01*
X93398000Y-53408000D01*
X93398000Y-53388000D01*
X93652000Y-53388000D01*
X93652000Y-53408000D01*
X94876250Y-53408000D01*
X95035000Y-53249250D01*
X95038072Y-53235000D01*
X95025812Y-53110518D01*
X94989502Y-52990820D01*
X94930537Y-52880506D01*
X94906270Y-52850936D01*
X94978084Y-52716582D01*
X95022929Y-52568745D01*
X95038072Y-52415000D01*
X95038072Y-52115000D01*
X95022929Y-51961255D01*
X94978084Y-51813418D01*
X94905258Y-51677171D01*
X94866546Y-51630000D01*
X94905258Y-51582829D01*
X94978084Y-51446582D01*
X95022929Y-51298745D01*
X95038072Y-51145000D01*
X95038072Y-50845000D01*
X95022929Y-50691255D01*
X94978084Y-50543418D01*
X94905258Y-50407171D01*
X94807251Y-50287749D01*
X94687829Y-50189742D01*
X94551582Y-50116916D01*
X94495816Y-50100000D01*
X94551582Y-50083084D01*
X94687829Y-50010258D01*
X94807251Y-49912251D01*
X94905258Y-49792829D01*
X94978084Y-49656582D01*
X95022929Y-49508745D01*
X95038072Y-49355000D01*
X95038072Y-49055000D01*
X95022929Y-48901255D01*
X94978084Y-48753418D01*
X94906270Y-48619064D01*
X94930537Y-48589494D01*
X94989502Y-48479180D01*
X95025812Y-48359482D01*
X95038072Y-48235000D01*
X95035000Y-48220750D01*
X94876250Y-48062000D01*
X93652000Y-48062000D01*
X93652000Y-48082000D01*
X93398000Y-48082000D01*
X93398000Y-48062000D01*
X93378000Y-48062000D01*
X93378000Y-47808000D01*
X93398000Y-47808000D01*
X93398000Y-47788000D01*
X93652000Y-47788000D01*
X93652000Y-47808000D01*
X94876250Y-47808000D01*
X95035000Y-47649250D01*
X95038072Y-47635000D01*
X95025812Y-47510518D01*
X94989502Y-47390820D01*
X94930537Y-47280506D01*
X94906270Y-47250936D01*
X94978084Y-47116582D01*
X95022929Y-46968745D01*
X95038072Y-46815000D01*
X95038072Y-46515000D01*
X95022929Y-46361255D01*
X94978084Y-46213418D01*
X94905258Y-46077171D01*
X94866546Y-46030000D01*
X94905258Y-45982829D01*
X94978084Y-45846582D01*
X95022929Y-45698745D01*
X95038072Y-45545000D01*
X95038072Y-45245000D01*
X95022929Y-45091255D01*
X94978084Y-44943418D01*
X94905258Y-44807171D01*
X94807251Y-44687749D01*
X94687829Y-44589742D01*
X94551582Y-44516916D01*
X94403745Y-44472071D01*
X94250000Y-44456928D01*
X93535022Y-44456928D01*
X93535022Y-44449211D01*
X93602723Y-44322554D01*
X93681623Y-44346488D01*
X93850000Y-44363072D01*
X94350000Y-44363072D01*
X94518377Y-44346488D01*
X94680283Y-44297375D01*
X94829497Y-44217618D01*
X94960284Y-44110284D01*
X95060581Y-43988072D01*
X95197276Y-43988072D01*
X95182795Y-44009744D01*
X95104774Y-44198102D01*
X95065000Y-44398061D01*
X95065000Y-44601939D01*
X95104774Y-44801898D01*
X95182795Y-44990256D01*
X95296063Y-45159774D01*
X95440226Y-45303937D01*
X95609744Y-45417205D01*
X95798102Y-45495226D01*
X95998061Y-45535000D01*
X96201939Y-45535000D01*
X96401898Y-45495226D01*
X96590256Y-45417205D01*
X96759774Y-45303937D01*
X96903937Y-45159774D01*
X97017205Y-44990256D01*
X97095226Y-44801898D01*
X97135000Y-44601939D01*
X97135000Y-44398061D01*
X97095226Y-44198102D01*
X97017205Y-44009744D01*
X96946029Y-43903221D01*
X97023000Y-43826250D01*
X97023000Y-43338072D01*
X97190000Y-43338072D01*
X97190000Y-43402002D01*
X97277000Y-43402002D01*
X97277000Y-43473750D01*
X97190000Y-43560750D01*
X97186928Y-43725000D01*
X97199188Y-43849482D01*
X97235498Y-43969180D01*
X97294463Y-44079494D01*
X97373815Y-44176185D01*
X97470506Y-44255537D01*
X97580820Y-44314502D01*
X97700518Y-44350812D01*
X97825000Y-44363072D01*
X98014250Y-44360000D01*
X98173000Y-44201250D01*
X98173000Y-43402000D01*
X98153000Y-43402000D01*
X98153000Y-43148000D01*
X98173000Y-43148000D01*
X98173000Y-43128000D01*
X98386928Y-43128000D01*
X98386928Y-43525000D01*
G37*
%TD.AperFunction*%
%TD*%
M02*
