%TF.GenerationSoftware,KiCad,Pcbnew,(6.0.2-0)*%
%TF.CreationDate,2022-03-10T13:14:26+00:00*%
%TF.ProjectId,Bell2,42656c6c-322e-46b6-9963-61645f706362,2*%
%TF.SameCoordinates,Original*%
%TF.FileFunction,Soldermask,Top*%
%TF.FilePolarity,Negative*%
%FSLAX46Y46*%
G04 Gerber Fmt 4.6, Leading zero omitted, Abs format (unit mm)*
G04 Created by KiCad (PCBNEW (6.0.2-0)) date 2022-03-10 13:14:26*
%MOMM*%
%LPD*%
G01*
G04 APERTURE LIST*
G04 Aperture macros list*
%AMRoundRect*
0 Rectangle with rounded corners*
0 $1 Rounding radius*
0 $2 $3 $4 $5 $6 $7 $8 $9 X,Y pos of 4 corners*
0 Add a 4 corners polygon primitive as box body*
4,1,4,$2,$3,$4,$5,$6,$7,$8,$9,$2,$3,0*
0 Add four circle primitives for the rounded corners*
1,1,$1+$1,$2,$3*
1,1,$1+$1,$4,$5*
1,1,$1+$1,$6,$7*
1,1,$1+$1,$8,$9*
0 Add four rect primitives between the rounded corners*
20,1,$1+$1,$2,$3,$4,$5,0*
20,1,$1+$1,$4,$5,$6,$7,0*
20,1,$1+$1,$6,$7,$8,$9,0*
20,1,$1+$1,$8,$9,$2,$3,0*%
%AMFreePoly0*
4,1,19,0.792580,0.830157,0.838704,0.776927,0.850000,0.725000,0.850000,-0.725000,0.830157,-0.792580,0.776927,-0.838704,0.725000,-0.850000,-0.725000,-0.850000,-0.792580,-0.830157,-0.838704,-0.776927,-0.850000,-0.725000,-0.850000,0.130500,-0.830157,0.198080,-0.813388,0.218888,-0.218888,0.813388,-0.157071,0.847143,-0.130500,0.850000,0.725000,0.850000,0.792580,0.830157,0.792580,0.830157,
$1*%
%AMFreePoly1*
4,1,19,1.067580,1.105157,1.113704,1.051927,1.125000,1.000000,1.125000,-1.000000,1.105157,-1.067580,1.051927,-1.113704,1.000000,-1.125000,-1.000000,-1.125000,-1.067580,-1.105157,-1.113704,-1.051927,-1.125000,-1.000000,-1.125000,0.750000,-1.105157,0.817580,-1.088388,0.838388,-0.838388,1.088388,-0.776571,1.122143,-0.750000,1.125000,1.000000,1.125000,1.067580,1.105157,1.067580,1.105157,
$1*%
G04 Aperture macros list end*
%ADD10C,0.200000*%
%ADD11RoundRect,0.375001X0.462499X0.624999X-0.462499X0.624999X-0.462499X-0.624999X0.462499X-0.624999X0*%
%ADD12RoundRect,0.125000X-0.400000X-0.200000X0.400000X-0.200000X0.400000X0.200000X-0.400000X0.200000X0*%
%ADD13RoundRect,0.125000X-0.200000X-0.400000X0.200000X-0.400000X0.200000X0.400000X-0.200000X0.400000X0*%
%ADD14FreePoly0,0.000000*%
%ADD15RoundRect,0.125000X-0.725000X-0.725000X0.725000X-0.725000X0.725000X0.725000X-0.725000X0.725000X0*%
%ADD16RoundRect,0.125000X-0.350000X-0.350000X0.350000X-0.350000X0.350000X0.350000X-0.350000X0.350000X0*%
%ADD17RoundRect,0.375000X-0.600000X-0.675000X0.600000X-0.675000X0.600000X0.675000X-0.600000X0.675000X0*%
%ADD18O,1.950000X2.100000*%
%ADD19RoundRect,0.375000X0.675000X-0.600000X0.675000X0.600000X-0.675000X0.600000X-0.675000X-0.600000X0*%
%ADD20O,2.100000X1.950000*%
%ADD21RoundRect,0.325000X-0.200000X-0.275000X0.200000X-0.275000X0.200000X0.275000X-0.200000X0.275000X0*%
%ADD22RoundRect,0.325000X0.200000X0.275000X-0.200000X0.275000X-0.200000X-0.275000X0.200000X-0.275000X0*%
%ADD23RoundRect,0.325000X-0.275000X0.200000X-0.275000X-0.200000X0.275000X-0.200000X0.275000X0.200000X0*%
%ADD24RoundRect,0.325000X0.275000X-0.200000X0.275000X0.200000X-0.275000X0.200000X-0.275000X-0.200000X0*%
%ADD25RoundRect,0.275000X-0.725000X-0.150000X0.725000X-0.150000X0.725000X0.150000X-0.725000X0.150000X0*%
%ADD26RoundRect,0.125000X-0.350000X0.750000X-0.350000X-0.750000X0.350000X-0.750000X0.350000X0.750000X0*%
%ADD27RoundRect,0.125000X-0.750000X-0.350000X0.750000X-0.350000X0.750000X0.350000X-0.750000X0.350000X0*%
%ADD28RoundRect,0.350000X0.225000X0.250000X-0.225000X0.250000X-0.225000X-0.250000X0.225000X-0.250000X0*%
%ADD29RoundRect,0.374375X0.625625X-0.463125X0.625625X0.463125X-0.625625X0.463125X-0.625625X-0.463125X0*%
%ADD30RoundRect,0.125000X1.850000X0.712500X-1.850000X0.712500X-1.850000X-0.712500X1.850000X-0.712500X0*%
%ADD31RoundRect,0.125000X0.550000X0.300000X-0.550000X0.300000X-0.550000X-0.300000X0.550000X-0.300000X0*%
%ADD32RoundRect,0.375000X-0.250000X-0.475000X0.250000X-0.475000X0.250000X0.475000X-0.250000X0.475000X0*%
%ADD33RoundRect,0.125000X0.425000X0.250000X-0.425000X0.250000X-0.425000X-0.250000X0.425000X-0.250000X0*%
%ADD34RoundRect,0.125000X-0.300000X-0.570000X0.300000X-0.570000X0.300000X0.570000X-0.300000X0.570000X0*%
%ADD35RoundRect,0.200000X-0.075000X-0.495000X0.075000X-0.495000X0.075000X0.495000X-0.075000X0.495000X0*%
%ADD36C,0.870000*%
%ADD37C,1.500000*%
%ADD38C,1.750000*%
%ADD39RoundRect,0.125000X-3.750000X-2.625000X3.750000X-2.625000X3.750000X2.625000X-3.750000X2.625000X0*%
%ADD40RoundRect,0.187500X-0.287500X-0.062500X0.287500X-0.062500X0.287500X0.062500X-0.287500X0.062500X0*%
%ADD41RoundRect,0.187500X-0.062500X-0.287500X0.062500X-0.287500X0.062500X0.287500X-0.062500X0.287500X0*%
%ADD42FreePoly1,0.000000*%
G04 APERTURE END LIST*
D10*
%TO.C,U5*%
X69500000Y-54300000D02*
X70000000Y-54300000D01*
X69500000Y-54300000D02*
X69500000Y-54800000D01*
X69500000Y-44700000D02*
X69500000Y-44200000D01*
X69500000Y-44700000D02*
X70000000Y-44700000D01*
%TD*%
D11*
%TO.C,D3*%
X90487500Y-47500000D03*
X87512500Y-47500000D03*
%TD*%
D12*
%TO.C,U1*%
X73900000Y-40100000D03*
X73900000Y-40900000D03*
X73900000Y-41700000D03*
X73900000Y-42500000D03*
X73900000Y-43300000D03*
X73900000Y-44100000D03*
X73900000Y-44900000D03*
X73900000Y-45700000D03*
X73900000Y-46500000D03*
X73900000Y-47300000D03*
X73900000Y-48100000D03*
D13*
X75000000Y-49000000D03*
X75800000Y-49000000D03*
X76600000Y-49000000D03*
X77400000Y-49000000D03*
X78200000Y-49000000D03*
X79000000Y-49000000D03*
X79800000Y-49000000D03*
X80600000Y-49000000D03*
X81400000Y-49000000D03*
X82200000Y-49000000D03*
X83000000Y-49000000D03*
X83800000Y-49000000D03*
X84600000Y-49000000D03*
D12*
X85700000Y-48100000D03*
X85700000Y-47300000D03*
X85700000Y-46500000D03*
X85700000Y-45700000D03*
X85700000Y-44900000D03*
X85700000Y-44100000D03*
X85700000Y-43300000D03*
X85700000Y-42500000D03*
X85700000Y-41700000D03*
X85700000Y-40900000D03*
X85700000Y-40100000D03*
D13*
X84600000Y-39200000D03*
X83800000Y-39200000D03*
X83000000Y-39200000D03*
X82200000Y-39200000D03*
X81400000Y-39200000D03*
X80600000Y-39200000D03*
X79800000Y-39200000D03*
X79000000Y-39200000D03*
X78200000Y-39200000D03*
X77400000Y-39200000D03*
X76600000Y-39200000D03*
X75800000Y-39200000D03*
X75000000Y-39200000D03*
D14*
X77825000Y-42125000D03*
D15*
X77825000Y-46075000D03*
X81775000Y-46075000D03*
X77825000Y-44100000D03*
X79800000Y-42125000D03*
X79800000Y-46075000D03*
X81775000Y-42125000D03*
X81775000Y-44100000D03*
X79800000Y-44100000D03*
D16*
X85750000Y-39150000D03*
X85750000Y-49050000D03*
X73850000Y-49050000D03*
X73850000Y-39150000D03*
%TD*%
D17*
%TO.C,J2*%
X95000000Y-53900000D03*
D18*
X97500000Y-53900000D03*
%TD*%
D19*
%TO.C,J3*%
X101400000Y-57950000D03*
D20*
X101400000Y-55450000D03*
X101400000Y-52950000D03*
X101400000Y-50450000D03*
X101400000Y-47950000D03*
X101400000Y-45450000D03*
X101400000Y-42950000D03*
X101400000Y-40450000D03*
X101400000Y-37950000D03*
X101400000Y-35450000D03*
%TD*%
D21*
%TO.C,R3*%
X90425000Y-50750000D03*
X92075000Y-50750000D03*
%TD*%
%TO.C,R2*%
X90500000Y-49250000D03*
X92150000Y-49250000D03*
%TD*%
D22*
%TO.C,R10*%
X89825000Y-42750000D03*
X88175000Y-42750000D03*
%TD*%
D23*
%TO.C,R4*%
X99300000Y-36250000D03*
X99300000Y-37900000D03*
%TD*%
D22*
%TO.C,R9*%
X89825000Y-41500000D03*
X88175000Y-41500000D03*
%TD*%
D24*
%TO.C,R7*%
X99300000Y-40575000D03*
X99300000Y-38925000D03*
%TD*%
D22*
%TO.C,C1*%
X94025000Y-34000000D03*
X92475000Y-34000000D03*
%TD*%
D21*
%TO.C,R1*%
X73925000Y-50750000D03*
X75575000Y-50750000D03*
%TD*%
D25*
%TO.C,U4*%
X93675000Y-42095000D03*
X93675000Y-43365000D03*
X93675000Y-44635000D03*
X93675000Y-45905000D03*
X98825000Y-45905000D03*
X98825000Y-44635000D03*
X98825000Y-43365000D03*
X98825000Y-42095000D03*
%TD*%
%TO.C,U3*%
X93675000Y-47595000D03*
X93675000Y-48865000D03*
X93675000Y-50135000D03*
X93675000Y-51405000D03*
X98825000Y-51405000D03*
X98825000Y-50135000D03*
X98825000Y-48865000D03*
X98825000Y-47595000D03*
%TD*%
D22*
%TO.C,R5*%
X85825000Y-52250000D03*
X84175000Y-52250000D03*
%TD*%
D26*
%TO.C,U5*%
X68550000Y-44900000D03*
X67550000Y-44900000D03*
X66550000Y-44900000D03*
X65550000Y-44900000D03*
X64550000Y-44900000D03*
X63550000Y-44900000D03*
X62550000Y-44900000D03*
X61550000Y-44900000D03*
X60550000Y-44900000D03*
X59550000Y-44900000D03*
X58550000Y-44900000D03*
X57550000Y-44900000D03*
X56400000Y-44900000D03*
X56400000Y-54100000D03*
X57550000Y-54100000D03*
X58550000Y-54100000D03*
X59550000Y-54100000D03*
X60550000Y-54100000D03*
X61550000Y-54100000D03*
X62550000Y-54100000D03*
X63550000Y-54100000D03*
X64550000Y-54100000D03*
X65550000Y-54100000D03*
X66550000Y-54100000D03*
X67550000Y-54100000D03*
X68550000Y-54100000D03*
D27*
X69150000Y-51500000D03*
X69150000Y-50500000D03*
X69150000Y-49500000D03*
X69150000Y-48500000D03*
X69150000Y-47500000D03*
%TD*%
D23*
%TO.C,R12*%
X74000000Y-55175000D03*
X74000000Y-56825000D03*
%TD*%
D22*
%TO.C,R6*%
X90825000Y-52250000D03*
X89175000Y-52250000D03*
%TD*%
D24*
%TO.C,R11*%
X74000000Y-59575000D03*
X74000000Y-57925000D03*
%TD*%
D28*
%TO.C,U6*%
X78525000Y-59750000D03*
D29*
X80670000Y-56852500D03*
D30*
X77550000Y-55250000D03*
D31*
X78850000Y-56700000D03*
D28*
X76975000Y-59750000D03*
D31*
X76150000Y-56700000D03*
X78850000Y-58600000D03*
D32*
X80100000Y-58500000D03*
D31*
X78850000Y-57650000D03*
D32*
X82000000Y-52250000D03*
X82000000Y-58500000D03*
D29*
X80670000Y-53887500D03*
D31*
X76150000Y-57650000D03*
D32*
X80100000Y-52250000D03*
D30*
X77550000Y-52250000D03*
D31*
X76150000Y-58600000D03*
%TD*%
D22*
%TO.C,R8*%
X89825000Y-44000000D03*
X88175000Y-44000000D03*
%TD*%
D33*
%TO.C,D2*%
X88250000Y-39250000D03*
X90000000Y-39250000D03*
X90000000Y-40250000D03*
X88250000Y-40250000D03*
%TD*%
D34*
%TO.C,J1*%
X84300000Y-53640000D03*
X85100000Y-53640000D03*
D35*
X86250000Y-53640000D03*
X87250000Y-53640000D03*
X87750000Y-53640000D03*
X88750000Y-53640000D03*
D34*
X90700000Y-53640000D03*
X89900000Y-53640000D03*
D35*
X89250000Y-53640000D03*
X88250000Y-53640000D03*
X86750000Y-53640000D03*
X85750000Y-53640000D03*
D36*
X90390000Y-54710000D03*
D37*
X91820000Y-58390000D03*
D38*
X83180000Y-54220000D03*
D39*
X87500000Y-57625000D03*
D38*
X91820000Y-54220000D03*
D36*
X84610000Y-54710000D03*
D37*
X83180000Y-58390000D03*
%TD*%
D40*
%TO.C,U2*%
X93200000Y-37000000D03*
X93200000Y-37500000D03*
X93200000Y-38000000D03*
X93200000Y-38500000D03*
X93200000Y-39000000D03*
D41*
X94100000Y-39900000D03*
X94600000Y-39900000D03*
X95100000Y-39900000D03*
X95600000Y-39900000D03*
X96100000Y-39900000D03*
D40*
X97000000Y-39000000D03*
X97000000Y-38500000D03*
X97000000Y-38000000D03*
X97000000Y-37500000D03*
X97000000Y-37000000D03*
D41*
X96100000Y-36100000D03*
X95600000Y-36100000D03*
X95100000Y-36100000D03*
X94600000Y-36100000D03*
X94100000Y-36100000D03*
D42*
X95100000Y-38000000D03*
%TD*%
M02*
