%TF.GenerationSoftware,KiCad,Pcbnew,(5.1.9-0-10_14)*%
%TF.CreationDate,2021-04-23T16:54:36+01:00*%
%TF.ProjectId,Controller,436f6e74-726f-46c6-9c65-722e6b696361,6*%
%TF.SameCoordinates,Original*%
%TF.FileFunction,Copper,L1,Top*%
%TF.FilePolarity,Positive*%
%FSLAX46Y46*%
G04 Gerber Fmt 4.6, Leading zero omitted, Abs format (unit mm)*
G04 Created by KiCad (PCBNEW (5.1.9-0-10_14)) date 2021-04-23 16:54:36*
%MOMM*%
%LPD*%
G01*
G04 APERTURE LIST*
%TA.AperFunction,ComponentPad*%
%ADD10C,1.524000*%
%TD*%
%TA.AperFunction,SMDPad,CuDef*%
%ADD11R,0.200000X0.200000*%
%TD*%
%TA.AperFunction,SMDPad,CuDef*%
%ADD12C,0.500000*%
%TD*%
%TA.AperFunction,SMDPad,CuDef*%
%ADD13R,2.500000X2.500000*%
%TD*%
%TA.AperFunction,ComponentPad*%
%ADD14O,1.600000X1.600000*%
%TD*%
%TA.AperFunction,ComponentPad*%
%ADD15R,1.600000X1.600000*%
%TD*%
%TA.AperFunction,SMDPad,CuDef*%
%ADD16R,0.900000X0.800000*%
%TD*%
%TA.AperFunction,SMDPad,CuDef*%
%ADD17C,1.700000*%
%TD*%
%TA.AperFunction,ComponentPad*%
%ADD18R,1.524000X1.524000*%
%TD*%
%TA.AperFunction,SMDPad,CuDef*%
%ADD19R,5.490000X8.340000*%
%TD*%
%TA.AperFunction,SMDPad,CuDef*%
%ADD20R,1.140000X0.600000*%
%TD*%
%TA.AperFunction,ComponentPad*%
%ADD21C,1.700000*%
%TD*%
%TA.AperFunction,ComponentPad*%
%ADD22C,2.000000*%
%TD*%
%TA.AperFunction,SMDPad,CuDef*%
%ADD23R,1.140000X0.300000*%
%TD*%
%TA.AperFunction,ComponentPad*%
%ADD24C,0.600000*%
%TD*%
%TA.AperFunction,ComponentPad*%
%ADD25O,1.850000X1.700000*%
%TD*%
%TA.AperFunction,ComponentPad*%
%ADD26O,1.700000X1.850000*%
%TD*%
%TA.AperFunction,ViaPad*%
%ADD27C,0.800000*%
%TD*%
%TA.AperFunction,Conductor*%
%ADD28C,0.250000*%
%TD*%
%TA.AperFunction,Conductor*%
%ADD29C,0.254000*%
%TD*%
%TA.AperFunction,Conductor*%
%ADD30C,0.100000*%
%TD*%
G04 APERTURE END LIST*
D10*
%TO.P,U6,21*%
%TO.N,GND*%
X77475000Y-116325000D03*
D11*
%TO.P,U6,~*%
%TO.N,N/C*%
X75475000Y-118325000D03*
X79475000Y-114325000D03*
X79475000Y-118325000D03*
X75475000Y-114325000D03*
D12*
X75475000Y-118325000D03*
D13*
%TO.P,U6,21*%
%TO.N,GND*%
X77475000Y-116325000D03*
%TO.P,U6,20*%
%TO.N,+3V3*%
%TA.AperFunction,SMDPad,CuDef*%
G36*
G01*
X75887500Y-117450000D02*
X75012500Y-117450000D01*
G75*
G02*
X74950000Y-117387500I0J62500D01*
G01*
X74950000Y-117262500D01*
G75*
G02*
X75012500Y-117200000I62500J0D01*
G01*
X75887500Y-117200000D01*
G75*
G02*
X75950000Y-117262500I0J-62500D01*
G01*
X75950000Y-117387500D01*
G75*
G02*
X75887500Y-117450000I-62500J0D01*
G01*
G37*
%TD.AperFunction*%
%TO.P,U6,19*%
%TO.N,EN*%
%TA.AperFunction,SMDPad,CuDef*%
G36*
G01*
X75887500Y-116950000D02*
X75012500Y-116950000D01*
G75*
G02*
X74950000Y-116887500I0J62500D01*
G01*
X74950000Y-116762500D01*
G75*
G02*
X75012500Y-116700000I62500J0D01*
G01*
X75887500Y-116700000D01*
G75*
G02*
X75950000Y-116762500I0J-62500D01*
G01*
X75950000Y-116887500D01*
G75*
G02*
X75887500Y-116950000I-62500J0D01*
G01*
G37*
%TD.AperFunction*%
%TO.P,U6,18*%
%TO.N,CBUS0*%
%TA.AperFunction,SMDPad,CuDef*%
G36*
G01*
X75887500Y-116450000D02*
X75012500Y-116450000D01*
G75*
G02*
X74950000Y-116387500I0J62500D01*
G01*
X74950000Y-116262500D01*
G75*
G02*
X75012500Y-116200000I62500J0D01*
G01*
X75887500Y-116200000D01*
G75*
G02*
X75950000Y-116262500I0J-62500D01*
G01*
X75950000Y-116387500D01*
G75*
G02*
X75887500Y-116450000I-62500J0D01*
G01*
G37*
%TD.AperFunction*%
%TO.P,U6,17*%
%TO.N,I*%
%TA.AperFunction,SMDPad,CuDef*%
G36*
G01*
X75887500Y-115950000D02*
X75012500Y-115950000D01*
G75*
G02*
X74950000Y-115887500I0J62500D01*
G01*
X74950000Y-115762500D01*
G75*
G02*
X75012500Y-115700000I62500J0D01*
G01*
X75887500Y-115700000D01*
G75*
G02*
X75950000Y-115762500I0J-62500D01*
G01*
X75950000Y-115887500D01*
G75*
G02*
X75887500Y-115950000I-62500J0D01*
G01*
G37*
%TD.AperFunction*%
%TO.P,U6,16*%
%TO.N,Net-(U6-Pad16)*%
%TA.AperFunction,SMDPad,CuDef*%
G36*
G01*
X75887500Y-115450000D02*
X75012500Y-115450000D01*
G75*
G02*
X74950000Y-115387500I0J62500D01*
G01*
X74950000Y-115262500D01*
G75*
G02*
X75012500Y-115200000I62500J0D01*
G01*
X75887500Y-115200000D01*
G75*
G02*
X75950000Y-115262500I0J-62500D01*
G01*
X75950000Y-115387500D01*
G75*
G02*
X75887500Y-115450000I-62500J0D01*
G01*
G37*
%TD.AperFunction*%
%TO.P,U6,15*%
%TO.N,Net-(U6-Pad15)*%
%TA.AperFunction,SMDPad,CuDef*%
G36*
G01*
X76537500Y-114800000D02*
X76412500Y-114800000D01*
G75*
G02*
X76350000Y-114737500I0J62500D01*
G01*
X76350000Y-113862500D01*
G75*
G02*
X76412500Y-113800000I62500J0D01*
G01*
X76537500Y-113800000D01*
G75*
G02*
X76600000Y-113862500I0J-62500D01*
G01*
X76600000Y-114737500D01*
G75*
G02*
X76537500Y-114800000I-62500J0D01*
G01*
G37*
%TD.AperFunction*%
%TO.P,U6,14*%
%TO.N,Net-(U6-Pad14)*%
%TA.AperFunction,SMDPad,CuDef*%
G36*
G01*
X77037500Y-114800000D02*
X76912500Y-114800000D01*
G75*
G02*
X76850000Y-114737500I0J62500D01*
G01*
X76850000Y-113862500D01*
G75*
G02*
X76912500Y-113800000I62500J0D01*
G01*
X77037500Y-113800000D01*
G75*
G02*
X77100000Y-113862500I0J-62500D01*
G01*
X77100000Y-114737500D01*
G75*
G02*
X77037500Y-114800000I-62500J0D01*
G01*
G37*
%TD.AperFunction*%
%TO.P,U6,13*%
%TO.N,GND*%
%TA.AperFunction,SMDPad,CuDef*%
G36*
G01*
X77537500Y-114800000D02*
X77412500Y-114800000D01*
G75*
G02*
X77350000Y-114737500I0J62500D01*
G01*
X77350000Y-113862500D01*
G75*
G02*
X77412500Y-113800000I62500J0D01*
G01*
X77537500Y-113800000D01*
G75*
G02*
X77600000Y-113862500I0J-62500D01*
G01*
X77600000Y-114737500D01*
G75*
G02*
X77537500Y-114800000I-62500J0D01*
G01*
G37*
%TD.AperFunction*%
%TO.P,U6,12*%
%TO.N,+3V3*%
%TA.AperFunction,SMDPad,CuDef*%
G36*
G01*
X78037500Y-114800000D02*
X77912500Y-114800000D01*
G75*
G02*
X77850000Y-114737500I0J62500D01*
G01*
X77850000Y-113862500D01*
G75*
G02*
X77912500Y-113800000I62500J0D01*
G01*
X78037500Y-113800000D01*
G75*
G02*
X78100000Y-113862500I0J-62500D01*
G01*
X78100000Y-114737500D01*
G75*
G02*
X78037500Y-114800000I-62500J0D01*
G01*
G37*
%TD.AperFunction*%
%TO.P,U6,11*%
%TA.AperFunction,SMDPad,CuDef*%
G36*
G01*
X78537500Y-114800000D02*
X78412500Y-114800000D01*
G75*
G02*
X78350000Y-114737500I0J62500D01*
G01*
X78350000Y-113862500D01*
G75*
G02*
X78412500Y-113800000I62500J0D01*
G01*
X78537500Y-113800000D01*
G75*
G02*
X78600000Y-113862500I0J-62500D01*
G01*
X78600000Y-114737500D01*
G75*
G02*
X78537500Y-114800000I-62500J0D01*
G01*
G37*
%TD.AperFunction*%
%TO.P,U6,10*%
%TA.AperFunction,SMDPad,CuDef*%
G36*
G01*
X79937500Y-115450000D02*
X79062500Y-115450000D01*
G75*
G02*
X79000000Y-115387500I0J62500D01*
G01*
X79000000Y-115262500D01*
G75*
G02*
X79062500Y-115200000I62500J0D01*
G01*
X79937500Y-115200000D01*
G75*
G02*
X80000000Y-115262500I0J-62500D01*
G01*
X80000000Y-115387500D01*
G75*
G02*
X79937500Y-115450000I-62500J0D01*
G01*
G37*
%TD.AperFunction*%
%TO.P,U6,9*%
%TO.N,D-*%
%TA.AperFunction,SMDPad,CuDef*%
G36*
G01*
X79937500Y-115950000D02*
X79062500Y-115950000D01*
G75*
G02*
X79000000Y-115887500I0J62500D01*
G01*
X79000000Y-115762500D01*
G75*
G02*
X79062500Y-115700000I62500J0D01*
G01*
X79937500Y-115700000D01*
G75*
G02*
X80000000Y-115762500I0J-62500D01*
G01*
X80000000Y-115887500D01*
G75*
G02*
X79937500Y-115950000I-62500J0D01*
G01*
G37*
%TD.AperFunction*%
%TO.P,U6,8*%
%TO.N,D+*%
%TA.AperFunction,SMDPad,CuDef*%
G36*
G01*
X79937500Y-116450000D02*
X79062500Y-116450000D01*
G75*
G02*
X79000000Y-116387500I0J62500D01*
G01*
X79000000Y-116262500D01*
G75*
G02*
X79062500Y-116200000I62500J0D01*
G01*
X79937500Y-116200000D01*
G75*
G02*
X80000000Y-116262500I0J-62500D01*
G01*
X80000000Y-116387500D01*
G75*
G02*
X79937500Y-116450000I-62500J0D01*
G01*
G37*
%TD.AperFunction*%
%TO.P,U6,7*%
%TO.N,Net-(U6-Pad7)*%
%TA.AperFunction,SMDPad,CuDef*%
G36*
G01*
X79937500Y-116950000D02*
X79062500Y-116950000D01*
G75*
G02*
X79000000Y-116887500I0J62500D01*
G01*
X79000000Y-116762500D01*
G75*
G02*
X79062500Y-116700000I62500J0D01*
G01*
X79937500Y-116700000D01*
G75*
G02*
X80000000Y-116762500I0J-62500D01*
G01*
X80000000Y-116887500D01*
G75*
G02*
X79937500Y-116950000I-62500J0D01*
G01*
G37*
%TD.AperFunction*%
%TO.P,U6,6*%
%TO.N,GND*%
%TA.AperFunction,SMDPad,CuDef*%
G36*
G01*
X79937500Y-117450000D02*
X79062500Y-117450000D01*
G75*
G02*
X79000000Y-117387500I0J62500D01*
G01*
X79000000Y-117262500D01*
G75*
G02*
X79062500Y-117200000I62500J0D01*
G01*
X79937500Y-117200000D01*
G75*
G02*
X80000000Y-117262500I0J-62500D01*
G01*
X80000000Y-117387500D01*
G75*
G02*
X79937500Y-117450000I-62500J0D01*
G01*
G37*
%TD.AperFunction*%
%TO.P,U6,5*%
%TA.AperFunction,SMDPad,CuDef*%
G36*
G01*
X78537500Y-118850000D02*
X78412500Y-118850000D01*
G75*
G02*
X78350000Y-118787500I0J62500D01*
G01*
X78350000Y-117912500D01*
G75*
G02*
X78412500Y-117850000I62500J0D01*
G01*
X78537500Y-117850000D01*
G75*
G02*
X78600000Y-117912500I0J-62500D01*
G01*
X78600000Y-118787500D01*
G75*
G02*
X78537500Y-118850000I-62500J0D01*
G01*
G37*
%TD.AperFunction*%
%TO.P,U6,4*%
%TA.AperFunction,SMDPad,CuDef*%
G36*
G01*
X78037500Y-118850000D02*
X77912500Y-118850000D01*
G75*
G02*
X77850000Y-118787500I0J62500D01*
G01*
X77850000Y-117912500D01*
G75*
G02*
X77912500Y-117850000I62500J0D01*
G01*
X78037500Y-117850000D01*
G75*
G02*
X78100000Y-117912500I0J-62500D01*
G01*
X78100000Y-118787500D01*
G75*
G02*
X78037500Y-118850000I-62500J0D01*
G01*
G37*
%TD.AperFunction*%
%TO.P,U6,3*%
%TA.AperFunction,SMDPad,CuDef*%
G36*
G01*
X77537500Y-118850000D02*
X77412500Y-118850000D01*
G75*
G02*
X77350000Y-118787500I0J62500D01*
G01*
X77350000Y-117912500D01*
G75*
G02*
X77412500Y-117850000I62500J0D01*
G01*
X77537500Y-117850000D01*
G75*
G02*
X77600000Y-117912500I0J-62500D01*
G01*
X77600000Y-118787500D01*
G75*
G02*
X77537500Y-118850000I-62500J0D01*
G01*
G37*
%TD.AperFunction*%
%TO.P,U6,2*%
%TA.AperFunction,SMDPad,CuDef*%
G36*
G01*
X77037500Y-118850000D02*
X76912500Y-118850000D01*
G75*
G02*
X76850000Y-118787500I0J62500D01*
G01*
X76850000Y-117912500D01*
G75*
G02*
X76912500Y-117850000I62500J0D01*
G01*
X77037500Y-117850000D01*
G75*
G02*
X77100000Y-117912500I0J-62500D01*
G01*
X77100000Y-118787500D01*
G75*
G02*
X77037500Y-118850000I-62500J0D01*
G01*
G37*
%TD.AperFunction*%
%TO.P,U6,1*%
%TO.N,O*%
%TA.AperFunction,SMDPad,CuDef*%
G36*
G01*
X76537500Y-118850000D02*
X76412500Y-118850000D01*
G75*
G02*
X76350000Y-118787500I0J62500D01*
G01*
X76350000Y-117912500D01*
G75*
G02*
X76412500Y-117850000I62500J0D01*
G01*
X76537500Y-117850000D01*
G75*
G02*
X76600000Y-117912500I0J-62500D01*
G01*
X76600000Y-118787500D01*
G75*
G02*
X76537500Y-118850000I-62500J0D01*
G01*
G37*
%TD.AperFunction*%
%TD*%
%TO.P,R16,2*%
%TO.N,LED*%
%TA.AperFunction,SMDPad,CuDef*%
G36*
G01*
X67910001Y-116570000D02*
X66659999Y-116570000D01*
G75*
G02*
X66410000Y-116320001I0J249999D01*
G01*
X66410000Y-115519999D01*
G75*
G02*
X66659999Y-115270000I249999J0D01*
G01*
X67910001Y-115270000D01*
G75*
G02*
X68160000Y-115519999I0J-249999D01*
G01*
X68160000Y-116320001D01*
G75*
G02*
X67910001Y-116570000I-249999J0D01*
G01*
G37*
%TD.AperFunction*%
%TO.P,R16,1*%
%TO.N,Net-(D1-Pad1)*%
%TA.AperFunction,SMDPad,CuDef*%
G36*
G01*
X67910001Y-119670000D02*
X66659999Y-119670000D01*
G75*
G02*
X66410000Y-119420001I0J249999D01*
G01*
X66410000Y-118619999D01*
G75*
G02*
X66659999Y-118370000I249999J0D01*
G01*
X67910001Y-118370000D01*
G75*
G02*
X68160000Y-118619999I0J-249999D01*
G01*
X68160000Y-119420001D01*
G75*
G02*
X67910001Y-119670000I-249999J0D01*
G01*
G37*
%TD.AperFunction*%
%TD*%
%TO.P,D1,2*%
%TO.N,+3V3*%
%TA.AperFunction,SMDPad,CuDef*%
G36*
G01*
X70800001Y-117700000D02*
X69999999Y-117700000D01*
G75*
G02*
X69750000Y-117450001I0J249999D01*
G01*
X69750000Y-116624999D01*
G75*
G02*
X69999999Y-116375000I249999J0D01*
G01*
X70800001Y-116375000D01*
G75*
G02*
X71050000Y-116624999I0J-249999D01*
G01*
X71050000Y-117450001D01*
G75*
G02*
X70800001Y-117700000I-249999J0D01*
G01*
G37*
%TD.AperFunction*%
%TO.P,D1,1*%
%TO.N,Net-(D1-Pad1)*%
%TA.AperFunction,SMDPad,CuDef*%
G36*
G01*
X70800001Y-119625000D02*
X69999999Y-119625000D01*
G75*
G02*
X69750000Y-119375001I0J249999D01*
G01*
X69750000Y-118549999D01*
G75*
G02*
X69999999Y-118300000I249999J0D01*
G01*
X70800001Y-118300000D01*
G75*
G02*
X71050000Y-118549999I0J-249999D01*
G01*
X71050000Y-119375001D01*
G75*
G02*
X70800001Y-119625000I-249999J0D01*
G01*
G37*
%TD.AperFunction*%
%TD*%
D14*
%TO.P,U5,6*%
%TO.N,Net-(J8-Pad2)*%
X82250000Y-130100000D03*
%TO.P,U5,3*%
%TO.N,Net-(U5-Pad3)*%
X77170000Y-122480000D03*
%TO.P,U5,2*%
%TO.N,GND*%
X79710000Y-122480000D03*
%TO.P,U5,4*%
%TO.N,Net-(J8-Pad1)*%
X77170000Y-130100000D03*
D15*
%TO.P,U5,1*%
%TO.N,Net-(R6-Pad1)*%
X82250000Y-122480000D03*
%TD*%
%TO.P,R15,2*%
%TO.N,SHDN*%
%TA.AperFunction,SMDPad,CuDef*%
G36*
G01*
X61325001Y-113250000D02*
X60074999Y-113250000D01*
G75*
G02*
X59825000Y-113000001I0J249999D01*
G01*
X59825000Y-112199999D01*
G75*
G02*
X60074999Y-111950000I249999J0D01*
G01*
X61325001Y-111950000D01*
G75*
G02*
X61575000Y-112199999I0J-249999D01*
G01*
X61575000Y-113000001D01*
G75*
G02*
X61325001Y-113250000I-249999J0D01*
G01*
G37*
%TD.AperFunction*%
%TO.P,R15,1*%
%TO.N,Net-(Q1-Pad1)*%
%TA.AperFunction,SMDPad,CuDef*%
G36*
G01*
X61325001Y-116350000D02*
X60074999Y-116350000D01*
G75*
G02*
X59825000Y-116100001I0J249999D01*
G01*
X59825000Y-115299999D01*
G75*
G02*
X60074999Y-115050000I249999J0D01*
G01*
X61325001Y-115050000D01*
G75*
G02*
X61575000Y-115299999I0J-249999D01*
G01*
X61575000Y-116100001D01*
G75*
G02*
X61325001Y-116350000I-249999J0D01*
G01*
G37*
%TD.AperFunction*%
%TD*%
D16*
%TO.P,Q1,3*%
%TO.N,Net-(M2-Pad1)*%
X62200000Y-118900000D03*
%TO.P,Q1,2*%
%TO.N,GND*%
X60200000Y-119850000D03*
%TO.P,Q1,1*%
%TO.N,Net-(Q1-Pad1)*%
X60200000Y-117950000D03*
%TD*%
D17*
%TO.P,M2,1*%
%TO.N,Net-(M2-Pad1)*%
X74750000Y-102500000D03*
%TO.P,M2,4*%
%TO.N,+5V*%
X74750000Y-110120000D03*
D18*
%TO.P,M2,3*%
%TO.N,GND*%
X74750000Y-107580000D03*
D17*
%TO.P,M2,2*%
%TO.N,VBUS*%
X74750000Y-105040000D03*
%TD*%
%TO.P,M1,1*%
%TO.N,Net-(M1-Pad1)*%
X70250000Y-110120000D03*
%TO.P,M1,4*%
%TO.N,+3V3*%
X70250000Y-102500000D03*
D18*
%TO.P,M1,3*%
%TO.N,GND*%
X70250000Y-105040000D03*
D17*
%TO.P,M1,2*%
%TO.N,VBUS*%
X70250000Y-107580000D03*
%TD*%
D19*
%TO.P,J9,S1*%
%TO.N,GND*%
X92255000Y-113000000D03*
D20*
%TO.P,J9,A12*%
X88140000Y-109800000D03*
%TO.P,J9,A4*%
%TO.N,VBUS*%
X88140000Y-115400000D03*
%TO.P,J9,B12*%
%TO.N,GND*%
X88140000Y-116200000D03*
%TO.P,J9,B4*%
%TO.N,VBUS*%
X88140000Y-110600000D03*
D21*
%TO.P,J9,S1*%
%TO.N,GND*%
X92910000Y-108675000D03*
X92910000Y-117325000D03*
D22*
X88730000Y-108675000D03*
X88730000Y-117325000D03*
D23*
%TO.P,J9,A7*%
%TO.N,D-*%
X88140000Y-112750000D03*
%TO.P,J9,A6*%
%TO.N,D+*%
X88140000Y-113250000D03*
%TO.P,J9,B6*%
X88140000Y-112250000D03*
%TO.P,J9,B7*%
%TO.N,D-*%
X88140000Y-113750000D03*
%TO.P,J9,A8*%
%TO.N,Net-(J9-PadA8)*%
X88140000Y-111750000D03*
%TO.P,J9,A5*%
%TO.N,Net-(J9-PadA5)*%
X88140000Y-114250000D03*
%TO.P,J9,B5*%
%TO.N,Net-(J9-PadB5)*%
X88140000Y-111250000D03*
%TO.P,J9,B8*%
%TO.N,Net-(J9-PadB8)*%
X88140000Y-114750000D03*
D20*
%TO.P,J9,A9*%
%TO.N,VBUS*%
X88140000Y-110600000D03*
%TO.P,J9,B9*%
X88140000Y-115400000D03*
%TO.P,J9,B1*%
%TO.N,GND*%
X88140000Y-109800000D03*
D24*
%TO.P,J9,S1*%
X89210000Y-110110000D03*
X89210000Y-115890000D03*
D20*
%TO.P,J9,A1*%
X88140000Y-116200000D03*
%TD*%
D14*
%TO.P,U4,6*%
%TO.N,Net-(J7-Pad2)*%
X73750000Y-130120000D03*
%TO.P,U4,3*%
%TO.N,Net-(U4-Pad3)*%
X68670000Y-122500000D03*
%TO.P,U4,2*%
%TO.N,GND*%
X71210000Y-122500000D03*
%TO.P,U4,4*%
%TO.N,Net-(J7-Pad1)*%
X68670000Y-130120000D03*
D15*
%TO.P,U4,1*%
%TO.N,Net-(R5-Pad1)*%
X73750000Y-122500000D03*
%TD*%
D14*
%TO.P,U3,6*%
%TO.N,Net-(J6-Pad2)*%
X65250000Y-130120000D03*
%TO.P,U3,3*%
%TO.N,Net-(U3-Pad3)*%
X60170000Y-122500000D03*
%TO.P,U3,2*%
%TO.N,GND*%
X62710000Y-122500000D03*
%TO.P,U3,4*%
%TO.N,Net-(J6-Pad1)*%
X60170000Y-130120000D03*
D15*
%TO.P,U3,1*%
%TO.N,Net-(R4-Pad1)*%
X65250000Y-122500000D03*
%TD*%
D14*
%TO.P,U2,6*%
%TO.N,Net-(J5-Pad2)*%
X56750000Y-130120000D03*
%TO.P,U2,3*%
%TO.N,Net-(U2-Pad3)*%
X51670000Y-122500000D03*
%TO.P,U2,2*%
%TO.N,GND*%
X54210000Y-122500000D03*
%TO.P,U2,4*%
%TO.N,Net-(J5-Pad1)*%
X51670000Y-130120000D03*
D15*
%TO.P,U2,1*%
%TO.N,Net-(R3-Pad1)*%
X56750000Y-122500000D03*
%TD*%
D25*
%TO.P,J2,2*%
%TO.N,VBUS*%
X88000000Y-134500000D03*
%TO.P,J2,1*%
%TO.N,GND*%
%TA.AperFunction,ComponentPad*%
G36*
G01*
X88675000Y-137850000D02*
X87325000Y-137850000D01*
G75*
G02*
X87075000Y-137600000I0J250000D01*
G01*
X87075000Y-136400000D01*
G75*
G02*
X87325000Y-136150000I250000J0D01*
G01*
X88675000Y-136150000D01*
G75*
G02*
X88925000Y-136400000I0J-250000D01*
G01*
X88925000Y-137600000D01*
G75*
G02*
X88675000Y-137850000I-250000J0D01*
G01*
G37*
%TD.AperFunction*%
%TD*%
%TO.P,J4,4*%
%TO.N,RFTX*%
X88000000Y-97500000D03*
%TO.P,J4,3*%
%TO.N,RFRX*%
X88000000Y-100000000D03*
%TO.P,J4,2*%
%TO.N,+5V*%
X88000000Y-102500000D03*
%TO.P,J4,1*%
%TO.N,GND*%
%TA.AperFunction,ComponentPad*%
G36*
G01*
X88675000Y-105850000D02*
X87325000Y-105850000D01*
G75*
G02*
X87075000Y-105600000I0J250000D01*
G01*
X87075000Y-104400000D01*
G75*
G02*
X87325000Y-104150000I250000J0D01*
G01*
X88675000Y-104150000D01*
G75*
G02*
X88925000Y-104400000I0J-250000D01*
G01*
X88925000Y-105600000D01*
G75*
G02*
X88675000Y-105850000I-250000J0D01*
G01*
G37*
%TD.AperFunction*%
%TD*%
%TO.P,J3,4*%
%TO.N,SDA*%
X88000000Y-121000000D03*
%TO.P,J3,3*%
%TO.N,SCL*%
X88000000Y-123500000D03*
%TO.P,J3,2*%
%TO.N,+3V3*%
X88000000Y-126000000D03*
%TO.P,J3,1*%
%TO.N,GND*%
%TA.AperFunction,ComponentPad*%
G36*
G01*
X88675000Y-129350000D02*
X87325000Y-129350000D01*
G75*
G02*
X87075000Y-129100000I0J250000D01*
G01*
X87075000Y-127900000D01*
G75*
G02*
X87325000Y-127650000I250000J0D01*
G01*
X88675000Y-127650000D01*
G75*
G02*
X88925000Y-127900000I0J-250000D01*
G01*
X88925000Y-129100000D01*
G75*
G02*
X88675000Y-129350000I-250000J0D01*
G01*
G37*
%TD.AperFunction*%
%TD*%
D26*
%TO.P,J8,2*%
%TO.N,Net-(J8-Pad2)*%
X81000000Y-133000000D03*
%TO.P,J8,1*%
%TO.N,Net-(J8-Pad1)*%
%TA.AperFunction,ComponentPad*%
G36*
G01*
X77650000Y-133675000D02*
X77650000Y-132325000D01*
G75*
G02*
X77900000Y-132075000I250000J0D01*
G01*
X79100000Y-132075000D01*
G75*
G02*
X79350000Y-132325000I0J-250000D01*
G01*
X79350000Y-133675000D01*
G75*
G02*
X79100000Y-133925000I-250000J0D01*
G01*
X77900000Y-133925000D01*
G75*
G02*
X77650000Y-133675000I0J250000D01*
G01*
G37*
%TD.AperFunction*%
%TD*%
%TO.P,J7,2*%
%TO.N,Net-(J7-Pad2)*%
X72500000Y-133000000D03*
%TO.P,J7,1*%
%TO.N,Net-(J7-Pad1)*%
%TA.AperFunction,ComponentPad*%
G36*
G01*
X69150000Y-133675000D02*
X69150000Y-132325000D01*
G75*
G02*
X69400000Y-132075000I250000J0D01*
G01*
X70600000Y-132075000D01*
G75*
G02*
X70850000Y-132325000I0J-250000D01*
G01*
X70850000Y-133675000D01*
G75*
G02*
X70600000Y-133925000I-250000J0D01*
G01*
X69400000Y-133925000D01*
G75*
G02*
X69150000Y-133675000I0J250000D01*
G01*
G37*
%TD.AperFunction*%
%TD*%
%TO.P,J6,2*%
%TO.N,Net-(J6-Pad2)*%
X64000000Y-133000000D03*
%TO.P,J6,1*%
%TO.N,Net-(J6-Pad1)*%
%TA.AperFunction,ComponentPad*%
G36*
G01*
X60650000Y-133675000D02*
X60650000Y-132325000D01*
G75*
G02*
X60900000Y-132075000I250000J0D01*
G01*
X62100000Y-132075000D01*
G75*
G02*
X62350000Y-132325000I0J-250000D01*
G01*
X62350000Y-133675000D01*
G75*
G02*
X62100000Y-133925000I-250000J0D01*
G01*
X60900000Y-133925000D01*
G75*
G02*
X60650000Y-133675000I0J250000D01*
G01*
G37*
%TD.AperFunction*%
%TD*%
%TO.P,J5,2*%
%TO.N,Net-(J5-Pad2)*%
X55500000Y-133000000D03*
%TO.P,J5,1*%
%TO.N,Net-(J5-Pad1)*%
%TA.AperFunction,ComponentPad*%
G36*
G01*
X52150000Y-133675000D02*
X52150000Y-132325000D01*
G75*
G02*
X52400000Y-132075000I250000J0D01*
G01*
X53600000Y-132075000D01*
G75*
G02*
X53850000Y-132325000I0J-250000D01*
G01*
X53850000Y-133675000D01*
G75*
G02*
X53600000Y-133925000I-250000J0D01*
G01*
X52400000Y-133925000D01*
G75*
G02*
X52150000Y-133675000I0J250000D01*
G01*
G37*
%TD.AperFunction*%
%TD*%
D25*
%TO.P,J1,9*%
%TO.N,IN8*%
X57000000Y-117500000D03*
%TO.P,J1,8*%
%TO.N,IN7*%
X57000000Y-115000000D03*
%TO.P,J1,7*%
%TO.N,IN6*%
X57000000Y-112500000D03*
%TO.P,J1,6*%
%TO.N,IN5*%
X57000000Y-110000000D03*
%TO.P,J1,5*%
%TO.N,IN4*%
X57000000Y-107500000D03*
%TO.P,J1,4*%
%TO.N,IN3*%
X57000000Y-105000000D03*
%TO.P,J1,3*%
%TO.N,IN2*%
X57000000Y-102500000D03*
%TO.P,J1,2*%
%TO.N,IN1*%
X57000000Y-100000000D03*
%TO.P,J1,1*%
%TO.N,GND*%
%TA.AperFunction,ComponentPad*%
G36*
G01*
X56325000Y-96650000D02*
X57675000Y-96650000D01*
G75*
G02*
X57925000Y-96900000I0J-250000D01*
G01*
X57925000Y-98100000D01*
G75*
G02*
X57675000Y-98350000I-250000J0D01*
G01*
X56325000Y-98350000D01*
G75*
G02*
X56075000Y-98100000I0J250000D01*
G01*
X56075000Y-96900000D01*
G75*
G02*
X56325000Y-96650000I250000J0D01*
G01*
G37*
%TD.AperFunction*%
%TD*%
D27*
%TO.N,GND*%
X81000000Y-102500000D03*
X61800000Y-104200000D03*
X79428910Y-106267179D03*
%TO.N,SDA*%
X66900000Y-113200000D03*
%TO.N,SCL*%
X68200000Y-113400000D03*
%TO.N,+3V3*%
X51700000Y-100000000D03*
X72500000Y-102500000D03*
X78949989Y-113100000D03*
X83500000Y-113100000D03*
X73554566Y-116898675D03*
%TO.N,RFRX*%
X89800000Y-101600000D03*
X77975007Y-104322228D03*
%TO.N,RFTX*%
X77000000Y-104100000D03*
%TO.N,+5V*%
X83761866Y-103875021D03*
%TO.N,OUT1*%
X52450000Y-125900000D03*
X64909969Y-108808667D03*
%TO.N,OUT2*%
X61800000Y-106300000D03*
X60975000Y-125875000D03*
%TO.N,OUT3*%
X65900000Y-104200000D03*
X69475000Y-125875000D03*
%TO.N,OUT4*%
X82500000Y-127900000D03*
X77950000Y-125900000D03*
%TO.N,Net-(J9-PadA5)*%
X86588157Y-115333080D03*
%TO.N,Net-(J9-PadB5)*%
X87023432Y-111147818D03*
%TO.N,O*%
X71910963Y-113677306D03*
%TO.N,I*%
X71035471Y-114160562D03*
%TO.N,CBUS0*%
X73456153Y-114903132D03*
%TO.N,EN*%
X73460099Y-115903136D03*
%TO.N,D-*%
X86507810Y-114336301D03*
X84874990Y-113490644D03*
%TO.N,D+*%
X86469588Y-113337019D03*
X86325010Y-111887008D03*
%TO.N,Net-(M2-Pad1)*%
X74750000Y-102500000D03*
X68137989Y-105700000D03*
%TO.N,SHDN*%
X62100000Y-111000000D03*
%TO.N,LED*%
X81700000Y-120500000D03*
%TD*%
D28*
%TO.N,GND*%
X62710000Y-122500000D02*
X62710000Y-125790000D01*
X62710000Y-125790000D02*
X61200000Y-127300000D01*
X59010000Y-127300000D02*
X54210000Y-122500000D01*
X61200000Y-127300000D02*
X59010000Y-127300000D01*
X92910000Y-112345000D02*
X92255000Y-113000000D01*
X92910000Y-108675000D02*
X92910000Y-112345000D01*
X92910000Y-113655000D02*
X92255000Y-113000000D01*
X92910000Y-117325000D02*
X92910000Y-113655000D01*
X92255000Y-113800000D02*
X92255000Y-113000000D01*
X88730000Y-117325000D02*
X92255000Y-113800000D01*
X92255000Y-112200000D02*
X92255000Y-113000000D01*
X88730000Y-108675000D02*
X92255000Y-112200000D01*
X89210000Y-110110000D02*
X92100000Y-113000000D01*
X88140000Y-109265000D02*
X88730000Y-108675000D01*
X88140000Y-109800000D02*
X88140000Y-109265000D01*
X88140000Y-116735000D02*
X88730000Y-117325000D01*
X88140000Y-116200000D02*
X88140000Y-116735000D01*
X92100000Y-113000000D02*
X92255000Y-113000000D01*
X89210000Y-115890000D02*
X92100000Y-113000000D01*
X77475000Y-114300000D02*
X77475000Y-116325000D01*
X78475000Y-118350000D02*
X78475000Y-117325000D01*
X77975000Y-116825000D02*
X77475000Y-116325000D01*
X77975000Y-118350000D02*
X77975000Y-116825000D01*
X78475000Y-117325000D02*
X77475000Y-116325000D01*
X79500000Y-117325000D02*
X78475000Y-117325000D01*
X77475000Y-118350000D02*
X77475000Y-116325000D01*
X76975000Y-116825000D02*
X77475000Y-116325000D01*
X76975000Y-118350000D02*
X76975000Y-116825000D01*
%TO.N,SDA*%
X81100000Y-117900000D02*
X81300000Y-117700000D01*
X71094590Y-115469989D02*
X71825021Y-116200420D01*
X71825021Y-116200420D02*
X71825021Y-118270847D01*
X71825021Y-118270847D02*
X73554196Y-120000022D01*
X76297823Y-119674998D02*
X80325002Y-119674998D01*
X80325002Y-119674998D02*
X81100000Y-118900000D01*
X69169989Y-115469989D02*
X71094590Y-115469989D01*
X88000000Y-119900000D02*
X88000000Y-121000000D01*
X81100000Y-118900000D02*
X81100000Y-117900000D01*
X73554196Y-120000022D02*
X75972799Y-120000022D01*
X81300000Y-117700000D02*
X85800000Y-117700000D01*
X66900000Y-113200000D02*
X69169989Y-115469989D01*
X85800000Y-117700000D02*
X88000000Y-119900000D01*
X75972799Y-120000022D02*
X76297823Y-119674998D01*
%TO.N,SCL*%
X85836715Y-117100000D02*
X89250010Y-120513295D01*
X89250010Y-122249990D02*
X88000000Y-123500000D01*
X72275032Y-116014020D02*
X72275032Y-118084447D01*
X72275032Y-118084447D02*
X73740596Y-119550011D01*
X73740596Y-119550011D02*
X75786399Y-119550011D01*
X68200000Y-113400000D02*
X69685563Y-114885563D01*
X71146575Y-114885563D02*
X72275032Y-116014020D01*
X76111423Y-119224987D02*
X79775013Y-119224987D01*
X75786399Y-119550011D02*
X76111423Y-119224987D01*
X69685563Y-114885563D02*
X71146575Y-114885563D01*
X80500000Y-117600000D02*
X81000000Y-117100000D01*
X79775013Y-119224987D02*
X80500000Y-118500000D01*
X89250010Y-120513295D02*
X89250010Y-122249990D01*
X81000000Y-117100000D02*
X85836715Y-117100000D01*
X80500000Y-118500000D02*
X80500000Y-117600000D01*
%TO.N,+3V3*%
X70250000Y-102500000D02*
X72500000Y-102500000D01*
X78949989Y-113825011D02*
X78475000Y-114300000D01*
X78949989Y-113100000D02*
X78949989Y-113825011D01*
X78475000Y-114300000D02*
X79500000Y-115325000D01*
X68862999Y-106262999D02*
X68862999Y-103887001D01*
X68862999Y-103887001D02*
X70250000Y-102500000D01*
X66300000Y-106600000D02*
X68525998Y-106600000D01*
X66084990Y-106815010D02*
X66300000Y-106600000D01*
X66084990Y-117184990D02*
X66084990Y-106815010D01*
X68525998Y-106600000D02*
X68862999Y-106262999D01*
X66174999Y-117274999D02*
X66084990Y-117184990D01*
X70162501Y-117274999D02*
X66174999Y-117274999D01*
X70400000Y-117037500D02*
X70162501Y-117274999D01*
X57411725Y-101175010D02*
X52875010Y-101175010D01*
X52875010Y-101175010D02*
X51700000Y-100000000D01*
X57636715Y-101400000D02*
X57411725Y-101175010D01*
X69150000Y-101400000D02*
X57636715Y-101400000D01*
X70250000Y-102500000D02*
X69150000Y-101400000D01*
X78949989Y-113100000D02*
X78200000Y-113100000D01*
X77975000Y-113325000D02*
X77975000Y-114300000D01*
X78200000Y-113100000D02*
X77975000Y-113325000D01*
X81275000Y-115325000D02*
X83500000Y-113100000D01*
X79500000Y-115325000D02*
X81275000Y-115325000D01*
X73980891Y-117325000D02*
X73554566Y-116898675D01*
X75450000Y-117325000D02*
X73980891Y-117325000D01*
%TO.N,RFRX*%
X88411725Y-103824990D02*
X87588275Y-103824990D01*
X87588275Y-103824990D02*
X86463285Y-102700000D01*
X89800000Y-102436715D02*
X88411725Y-103824990D01*
X89800000Y-101600000D02*
X89800000Y-102436715D01*
X77975007Y-104322228D02*
X80977772Y-104322228D01*
X80977772Y-104322228D02*
X82600000Y-102700000D01*
X86463285Y-102700000D02*
X82600000Y-102700000D01*
%TO.N,RFTX*%
X89250010Y-100486705D02*
X89250010Y-98750010D01*
X89250010Y-98750010D02*
X88000000Y-97500000D01*
X87588275Y-101175010D02*
X88561705Y-101175010D01*
X86563285Y-102200000D02*
X87588275Y-101175010D01*
X88561705Y-101175010D02*
X89250010Y-100486705D01*
X81100000Y-103500000D02*
X82400000Y-102200000D01*
X82400000Y-102200000D02*
X86563285Y-102200000D01*
X77600000Y-103500000D02*
X81100000Y-103500000D01*
X77000000Y-104100000D02*
X77600000Y-103500000D01*
%TO.N,+5V*%
X74750000Y-110120000D02*
X77200000Y-107670000D01*
X79966886Y-107670000D02*
X80418443Y-107218443D01*
X77200000Y-107670000D02*
X79966886Y-107670000D01*
X80418443Y-107218443D02*
X83761866Y-103875021D01*
%TO.N,VBUS*%
X88795002Y-115400000D02*
X88140000Y-115400000D01*
X89035001Y-110839999D02*
X89035001Y-115160001D01*
X89035001Y-115160001D02*
X88795002Y-115400000D01*
X88795002Y-110600000D02*
X89035001Y-110839999D01*
X88140000Y-110600000D02*
X88795002Y-110600000D01*
X72210000Y-107580000D02*
X74750000Y-105040000D01*
X70250000Y-107580000D02*
X72210000Y-107580000D01*
X87309999Y-115574999D02*
X87244999Y-115639999D01*
X89350011Y-122786399D02*
X89350011Y-134324989D01*
X88140000Y-115400000D02*
X87965001Y-115574999D01*
X87965001Y-115574999D02*
X87309999Y-115574999D01*
X89175000Y-134500000D02*
X88000000Y-134500000D01*
X87244999Y-115639999D02*
X87244999Y-117808588D01*
X89700021Y-120263610D02*
X89700021Y-122436390D01*
X87244999Y-117808588D02*
X89700021Y-120263610D01*
X89700021Y-122436390D02*
X89350011Y-122786399D01*
X89350011Y-134324989D02*
X89175000Y-134500000D01*
X74757230Y-105047230D02*
X74750000Y-105040000D01*
X82986399Y-103150011D02*
X81089180Y-105047230D01*
X81089180Y-105047230D02*
X74757230Y-105047230D01*
X84150011Y-103150011D02*
X82986399Y-103150011D01*
X84625002Y-103625002D02*
X84150011Y-103150011D01*
X84625002Y-107648002D02*
X84625002Y-103625002D01*
X87577000Y-110600000D02*
X84625002Y-107648002D01*
X88140000Y-110600000D02*
X87577000Y-110600000D01*
%TO.N,OUT1*%
X52450000Y-125900000D02*
X52450000Y-125900000D01*
X63835001Y-118201409D02*
X64909969Y-117126441D01*
X61500000Y-128000000D02*
X63835001Y-125664999D01*
X52450000Y-125900000D02*
X54550000Y-128000000D01*
X64909969Y-117126441D02*
X64909969Y-108808667D01*
X63835001Y-125664999D02*
X63835001Y-118201409D01*
X54550000Y-128000000D02*
X61500000Y-128000000D01*
%TO.N,OUT2*%
X60975000Y-125875000D02*
X60950000Y-125900000D01*
X61800000Y-109300000D02*
X61800000Y-106300000D01*
X62825001Y-110325001D02*
X61800000Y-109300000D01*
X62825001Y-112248001D02*
X62825001Y-110325001D01*
X62199999Y-112873003D02*
X62825001Y-112248001D01*
X61295001Y-116943190D02*
X62199999Y-116038192D01*
X61295001Y-125554999D02*
X61295001Y-116943190D01*
X62199999Y-116038192D02*
X62199999Y-112873003D01*
X60975000Y-125875000D02*
X61295001Y-125554999D01*
%TO.N,OUT3*%
X69475000Y-125875000D02*
X69450000Y-125900000D01*
X65900000Y-104200000D02*
X65634979Y-104465021D01*
X65634979Y-104465021D02*
X65634979Y-117371390D01*
X65900000Y-117636410D02*
X65900000Y-120400000D01*
X65634979Y-117371390D02*
X65900000Y-117636410D01*
X65900000Y-120400000D02*
X66682499Y-121182499D01*
X69874999Y-125475001D02*
X69475000Y-125875000D01*
X69017501Y-121182499D02*
X69874999Y-122039997D01*
X66682499Y-121182499D02*
X69017501Y-121182499D01*
X69874999Y-122039997D02*
X69874999Y-125475001D01*
%TO.N,OUT4*%
X79700000Y-125900000D02*
X80500000Y-125900000D01*
X80500000Y-125900000D02*
X82500000Y-127900000D01*
X77950000Y-125900000D02*
X77950000Y-125900000D01*
X77950000Y-125900000D02*
X79700000Y-125900000D01*
%TO.N,Net-(J9-PadA5)*%
X88140000Y-114250000D02*
X87320000Y-114250000D01*
X87244999Y-114676238D02*
X86588157Y-115333080D01*
X87244999Y-114325001D02*
X87244999Y-114676238D01*
X87320000Y-114250000D02*
X87244999Y-114325001D01*
%TO.N,Net-(J9-PadB5)*%
X87125614Y-111250000D02*
X87023432Y-111147818D01*
X88140000Y-111250000D02*
X87125614Y-111250000D01*
%TO.N,O*%
X73926996Y-119100000D02*
X72725043Y-117898047D01*
X72725043Y-114491386D02*
X71910963Y-113677306D01*
X75551002Y-119100000D02*
X73926996Y-119100000D01*
X76475000Y-118350000D02*
X76301002Y-118350000D01*
X76301002Y-118350000D02*
X75551002Y-119100000D01*
X72725043Y-117898047D02*
X72725043Y-114491386D01*
%TO.N,I*%
X72643178Y-112952304D02*
X71562961Y-112952304D01*
X71562961Y-112952304D02*
X71035471Y-113479794D01*
X74624990Y-114934116D02*
X72643178Y-112952304D01*
X75450000Y-115825000D02*
X74901978Y-115825000D01*
X74901978Y-115825000D02*
X74624990Y-115548012D01*
X71035471Y-113479794D02*
X71035471Y-114160562D01*
X74624990Y-115548012D02*
X74624990Y-114934116D01*
%TO.N,CBUS0*%
X73547696Y-114903132D02*
X73456153Y-114903132D01*
X74174979Y-115530415D02*
X73547696Y-114903132D01*
X75450000Y-116325000D02*
X74765567Y-116325000D01*
X74765567Y-116325000D02*
X74174979Y-115734412D01*
X74174979Y-115734412D02*
X74174979Y-115530415D01*
%TO.N,EN*%
X75450000Y-116825000D02*
X74629156Y-116825000D01*
X74629156Y-116825000D02*
X73707292Y-115903136D01*
X73707292Y-115903136D02*
X73460099Y-115903136D01*
%TO.N,D-*%
X87094111Y-113750000D02*
X86507810Y-114336301D01*
X88140000Y-113750000D02*
X87094111Y-113750000D01*
X85753616Y-112612018D02*
X84874990Y-113490644D01*
X88140000Y-112750000D02*
X86955571Y-112750000D01*
X86955571Y-112750000D02*
X86817589Y-112612018D01*
X86817589Y-112612018D02*
X85753616Y-112612018D01*
X82540634Y-115825000D02*
X84874990Y-113490644D01*
X79500000Y-115825000D02*
X82540634Y-115825000D01*
%TO.N,D+*%
X88140000Y-113250000D02*
X86556607Y-113250000D01*
X86556607Y-113250000D02*
X86469588Y-113337019D01*
X88140000Y-112250000D02*
X87091982Y-112250000D01*
X87091982Y-112250000D02*
X86728990Y-111887008D01*
X86728990Y-111887008D02*
X86325010Y-111887008D01*
X83481607Y-116325000D02*
X86469588Y-113337019D01*
X79500000Y-116325000D02*
X83481607Y-116325000D01*
%TO.N,Net-(M2-Pad1)*%
X62250000Y-118900000D02*
X62200000Y-118900000D01*
X64100000Y-109900000D02*
X64400000Y-110200000D01*
X64400000Y-116750000D02*
X62250000Y-118900000D01*
X64900000Y-107500000D02*
X64100000Y-108300000D01*
X64900000Y-104100000D02*
X64900000Y-107500000D01*
X68137989Y-105700000D02*
X68137989Y-105134315D01*
X65400000Y-103600000D02*
X64900000Y-104100000D01*
X65400000Y-103300000D02*
X65400000Y-103600000D01*
X66303674Y-103300000D02*
X65400000Y-103300000D01*
X68137989Y-105134315D02*
X66303674Y-103300000D01*
X64400000Y-110200000D02*
X64400000Y-116750000D01*
X64100000Y-108300000D02*
X64100000Y-109900000D01*
%TO.N,Net-(Q1-Pad1)*%
X60700000Y-117450000D02*
X60200000Y-117950000D01*
X60700000Y-115700000D02*
X60700000Y-117450000D01*
%TO.N,SHDN*%
X62100000Y-111200000D02*
X60700000Y-112600000D01*
X62100000Y-111000000D02*
X62100000Y-111200000D01*
%TO.N,Net-(D1-Pad1)*%
X70342500Y-119020000D02*
X70400000Y-118962500D01*
X67285000Y-119020000D02*
X70342500Y-119020000D01*
%TO.N,LED*%
X71375010Y-118875010D02*
X73000000Y-120500000D01*
X73000000Y-120500000D02*
X81700000Y-120500000D01*
X67285000Y-115920000D02*
X70908190Y-115920000D01*
X71375010Y-116386820D02*
X71375010Y-118875010D01*
X70908190Y-115920000D02*
X71375010Y-116386820D01*
%TD*%
D29*
%TO.N,GND*%
X50704774Y-100301898D02*
X50782795Y-100490256D01*
X50896063Y-100659774D01*
X51040226Y-100803937D01*
X51209744Y-100917205D01*
X51398102Y-100995226D01*
X51598061Y-101035000D01*
X51660199Y-101035000D01*
X52311210Y-101686012D01*
X52335009Y-101715011D01*
X52364007Y-101738809D01*
X52450733Y-101809984D01*
X52553709Y-101865026D01*
X52582763Y-101880556D01*
X52726024Y-101924013D01*
X52837677Y-101935010D01*
X52837686Y-101935010D01*
X52875009Y-101938686D01*
X52912332Y-101935010D01*
X55544568Y-101935010D01*
X55461487Y-102208889D01*
X55432815Y-102500000D01*
X55461487Y-102791111D01*
X55546401Y-103071034D01*
X55684294Y-103329014D01*
X55869866Y-103555134D01*
X56095986Y-103740706D01*
X56113374Y-103750000D01*
X56095986Y-103759294D01*
X55869866Y-103944866D01*
X55684294Y-104170986D01*
X55546401Y-104428966D01*
X55461487Y-104708889D01*
X55432815Y-105000000D01*
X55461487Y-105291111D01*
X55546401Y-105571034D01*
X55684294Y-105829014D01*
X55869866Y-106055134D01*
X56095986Y-106240706D01*
X56113374Y-106250000D01*
X56095986Y-106259294D01*
X55869866Y-106444866D01*
X55684294Y-106670986D01*
X55546401Y-106928966D01*
X55461487Y-107208889D01*
X55432815Y-107500000D01*
X55461487Y-107791111D01*
X55546401Y-108071034D01*
X55684294Y-108329014D01*
X55869866Y-108555134D01*
X56095986Y-108740706D01*
X56113374Y-108750000D01*
X56095986Y-108759294D01*
X55869866Y-108944866D01*
X55684294Y-109170986D01*
X55546401Y-109428966D01*
X55461487Y-109708889D01*
X55432815Y-110000000D01*
X55461487Y-110291111D01*
X55546401Y-110571034D01*
X55684294Y-110829014D01*
X55869866Y-111055134D01*
X56095986Y-111240706D01*
X56113374Y-111250000D01*
X56095986Y-111259294D01*
X55869866Y-111444866D01*
X55684294Y-111670986D01*
X55546401Y-111928966D01*
X55461487Y-112208889D01*
X55432815Y-112500000D01*
X55461487Y-112791111D01*
X55546401Y-113071034D01*
X55684294Y-113329014D01*
X55869866Y-113555134D01*
X56095986Y-113740706D01*
X56113374Y-113750000D01*
X56095986Y-113759294D01*
X55869866Y-113944866D01*
X55684294Y-114170986D01*
X55546401Y-114428966D01*
X55461487Y-114708889D01*
X55432815Y-115000000D01*
X55461487Y-115291111D01*
X55546401Y-115571034D01*
X55684294Y-115829014D01*
X55869866Y-116055134D01*
X56095986Y-116240706D01*
X56113374Y-116250000D01*
X56095986Y-116259294D01*
X55869866Y-116444866D01*
X55684294Y-116670986D01*
X55546401Y-116928966D01*
X55461487Y-117208889D01*
X55432815Y-117500000D01*
X55461487Y-117791111D01*
X55546401Y-118071034D01*
X55684294Y-118329014D01*
X55869866Y-118555134D01*
X56095986Y-118740706D01*
X56353966Y-118878599D01*
X56633889Y-118963513D01*
X56852050Y-118985000D01*
X57147950Y-118985000D01*
X57366111Y-118963513D01*
X57646034Y-118878599D01*
X57904014Y-118740706D01*
X58130134Y-118555134D01*
X58315706Y-118329014D01*
X58453599Y-118071034D01*
X58538513Y-117791111D01*
X58567185Y-117500000D01*
X58538513Y-117208889D01*
X58453599Y-116928966D01*
X58315706Y-116670986D01*
X58130134Y-116444866D01*
X57904014Y-116259294D01*
X57886626Y-116250000D01*
X57904014Y-116240706D01*
X58130134Y-116055134D01*
X58315706Y-115829014D01*
X58453599Y-115571034D01*
X58538513Y-115291111D01*
X58567185Y-115000000D01*
X58538513Y-114708889D01*
X58453599Y-114428966D01*
X58315706Y-114170986D01*
X58130134Y-113944866D01*
X57904014Y-113759294D01*
X57886626Y-113750000D01*
X57904014Y-113740706D01*
X58130134Y-113555134D01*
X58315706Y-113329014D01*
X58453599Y-113071034D01*
X58538513Y-112791111D01*
X58567185Y-112500000D01*
X58538513Y-112208889D01*
X58453599Y-111928966D01*
X58315706Y-111670986D01*
X58130134Y-111444866D01*
X57904014Y-111259294D01*
X57886626Y-111250000D01*
X57904014Y-111240706D01*
X58130134Y-111055134D01*
X58315706Y-110829014D01*
X58453599Y-110571034D01*
X58538513Y-110291111D01*
X58567185Y-110000000D01*
X58538513Y-109708889D01*
X58453599Y-109428966D01*
X58315706Y-109170986D01*
X58130134Y-108944866D01*
X57904014Y-108759294D01*
X57886626Y-108750000D01*
X57904014Y-108740706D01*
X58130134Y-108555134D01*
X58315706Y-108329014D01*
X58453599Y-108071034D01*
X58538513Y-107791111D01*
X58567185Y-107500000D01*
X58538513Y-107208889D01*
X58453599Y-106928966D01*
X58315706Y-106670986D01*
X58130134Y-106444866D01*
X57904014Y-106259294D01*
X57886626Y-106250000D01*
X57904014Y-106240706D01*
X58130134Y-106055134D01*
X58315706Y-105829014D01*
X58453599Y-105571034D01*
X58538513Y-105291111D01*
X58567185Y-105000000D01*
X58538513Y-104708889D01*
X58453599Y-104428966D01*
X58315706Y-104170986D01*
X58130134Y-103944866D01*
X57904014Y-103759294D01*
X57886626Y-103750000D01*
X57904014Y-103740706D01*
X58130134Y-103555134D01*
X58315706Y-103329014D01*
X58453599Y-103071034D01*
X58538513Y-102791111D01*
X58567185Y-102500000D01*
X58538513Y-102208889D01*
X58523683Y-102160000D01*
X68803538Y-102160000D01*
X68765000Y-102353740D01*
X68765000Y-102646260D01*
X68808791Y-102866408D01*
X68351997Y-103323202D01*
X68322999Y-103347000D01*
X68299201Y-103375998D01*
X68299200Y-103375999D01*
X68228025Y-103462725D01*
X68157453Y-103594755D01*
X68132807Y-103676005D01*
X68113997Y-103738015D01*
X68109371Y-103784985D01*
X68099323Y-103887001D01*
X68103000Y-103924333D01*
X68103000Y-104024524D01*
X66867478Y-102789003D01*
X66843675Y-102759999D01*
X66727950Y-102665026D01*
X66595921Y-102594454D01*
X66452660Y-102550997D01*
X66341007Y-102540000D01*
X66340996Y-102540000D01*
X66303674Y-102536324D01*
X66266352Y-102540000D01*
X65437333Y-102540000D01*
X65400000Y-102536323D01*
X65362667Y-102540000D01*
X65251014Y-102550997D01*
X65107753Y-102594454D01*
X64975724Y-102665026D01*
X64859999Y-102759999D01*
X64765026Y-102875724D01*
X64694454Y-103007753D01*
X64650997Y-103151014D01*
X64637538Y-103287661D01*
X64389003Y-103536196D01*
X64359999Y-103559999D01*
X64313481Y-103616682D01*
X64265026Y-103675724D01*
X64211574Y-103775725D01*
X64194454Y-103807754D01*
X64150997Y-103951015D01*
X64140000Y-104062668D01*
X64140000Y-104062678D01*
X64136324Y-104100000D01*
X64140000Y-104137323D01*
X64140001Y-107185197D01*
X63589002Y-107736197D01*
X63559999Y-107759999D01*
X63511591Y-107818985D01*
X63465026Y-107875724D01*
X63418779Y-107962246D01*
X63394454Y-108007754D01*
X63350997Y-108151015D01*
X63340000Y-108262668D01*
X63340000Y-108262678D01*
X63336324Y-108300000D01*
X63340000Y-108337323D01*
X63340001Y-109764482D01*
X63336004Y-109761202D01*
X62560000Y-108985199D01*
X62560000Y-107003711D01*
X62603937Y-106959774D01*
X62717205Y-106790256D01*
X62795226Y-106601898D01*
X62835000Y-106401939D01*
X62835000Y-106198061D01*
X62795226Y-105998102D01*
X62717205Y-105809744D01*
X62603937Y-105640226D01*
X62459774Y-105496063D01*
X62290256Y-105382795D01*
X62101898Y-105304774D01*
X61901939Y-105265000D01*
X61698061Y-105265000D01*
X61498102Y-105304774D01*
X61309744Y-105382795D01*
X61140226Y-105496063D01*
X60996063Y-105640226D01*
X60882795Y-105809744D01*
X60804774Y-105998102D01*
X60765000Y-106198061D01*
X60765000Y-106401939D01*
X60804774Y-106601898D01*
X60882795Y-106790256D01*
X60996063Y-106959774D01*
X61040001Y-107003712D01*
X61040000Y-109262677D01*
X61036324Y-109300000D01*
X61040000Y-109337322D01*
X61040000Y-109337332D01*
X61050997Y-109448985D01*
X61085074Y-109561324D01*
X61094454Y-109592246D01*
X61165026Y-109724276D01*
X61202110Y-109769463D01*
X61259999Y-109840001D01*
X61289002Y-109863804D01*
X61548749Y-110123550D01*
X61440226Y-110196063D01*
X61296063Y-110340226D01*
X61182795Y-110509744D01*
X61104774Y-110698102D01*
X61065000Y-110898061D01*
X61065000Y-111101939D01*
X61074666Y-111150533D01*
X60913270Y-111311928D01*
X60074999Y-111311928D01*
X59901745Y-111328992D01*
X59735149Y-111379528D01*
X59581613Y-111461595D01*
X59447038Y-111572038D01*
X59336595Y-111706613D01*
X59254528Y-111860149D01*
X59203992Y-112026745D01*
X59186928Y-112199999D01*
X59186928Y-113000001D01*
X59203992Y-113173255D01*
X59254528Y-113339851D01*
X59336595Y-113493387D01*
X59447038Y-113627962D01*
X59581613Y-113738405D01*
X59735149Y-113820472D01*
X59901745Y-113871008D01*
X60074999Y-113888072D01*
X61325001Y-113888072D01*
X61440000Y-113876746D01*
X61440000Y-114423254D01*
X61325001Y-114411928D01*
X60074999Y-114411928D01*
X59901745Y-114428992D01*
X59735149Y-114479528D01*
X59581613Y-114561595D01*
X59447038Y-114672038D01*
X59336595Y-114806613D01*
X59254528Y-114960149D01*
X59203992Y-115126745D01*
X59186928Y-115299999D01*
X59186928Y-116100001D01*
X59203992Y-116273255D01*
X59254528Y-116439851D01*
X59336595Y-116593387D01*
X59447038Y-116727962D01*
X59581613Y-116838405D01*
X59723962Y-116914492D01*
X59625518Y-116924188D01*
X59505820Y-116960498D01*
X59395506Y-117019463D01*
X59298815Y-117098815D01*
X59219463Y-117195506D01*
X59160498Y-117305820D01*
X59124188Y-117425518D01*
X59111928Y-117550000D01*
X59111928Y-118350000D01*
X59124188Y-118474482D01*
X59160498Y-118594180D01*
X59219463Y-118704494D01*
X59298815Y-118801185D01*
X59395506Y-118880537D01*
X59431918Y-118900000D01*
X59395506Y-118919463D01*
X59298815Y-118998815D01*
X59219463Y-119095506D01*
X59160498Y-119205820D01*
X59124188Y-119325518D01*
X59111928Y-119450000D01*
X59115000Y-119564250D01*
X59273750Y-119723000D01*
X60073000Y-119723000D01*
X60073000Y-119703000D01*
X60327000Y-119703000D01*
X60327000Y-119723000D01*
X60347000Y-119723000D01*
X60347000Y-119977000D01*
X60327000Y-119977000D01*
X60327000Y-120726250D01*
X60485750Y-120885000D01*
X60535002Y-120885921D01*
X60535002Y-121109491D01*
X60311335Y-121065000D01*
X60028665Y-121065000D01*
X59751426Y-121120147D01*
X59490273Y-121228320D01*
X59255241Y-121385363D01*
X59055363Y-121585241D01*
X58898320Y-121820273D01*
X58790147Y-122081426D01*
X58735000Y-122358665D01*
X58735000Y-122641335D01*
X58790147Y-122918574D01*
X58898320Y-123179727D01*
X59055363Y-123414759D01*
X59255241Y-123614637D01*
X59490273Y-123771680D01*
X59751426Y-123879853D01*
X60028665Y-123935000D01*
X60311335Y-123935000D01*
X60535001Y-123890509D01*
X60535001Y-124936978D01*
X60484744Y-124957795D01*
X60315226Y-125071063D01*
X60171063Y-125215226D01*
X60057795Y-125384744D01*
X59979774Y-125573102D01*
X59940000Y-125773061D01*
X59940000Y-125976939D01*
X59979774Y-126176898D01*
X60057795Y-126365256D01*
X60171063Y-126534774D01*
X60315226Y-126678937D01*
X60484744Y-126792205D01*
X60673102Y-126870226D01*
X60873061Y-126910000D01*
X61076939Y-126910000D01*
X61276898Y-126870226D01*
X61465256Y-126792205D01*
X61634774Y-126678937D01*
X61778937Y-126534774D01*
X61892205Y-126365256D01*
X61970226Y-126176898D01*
X62010000Y-125976939D01*
X62010000Y-125816083D01*
X62044004Y-125703985D01*
X62055001Y-125592332D01*
X62055001Y-125592324D01*
X62058677Y-125554999D01*
X62055001Y-125517674D01*
X62055001Y-123769993D01*
X62226913Y-123851246D01*
X62360961Y-123891904D01*
X62583000Y-123769915D01*
X62583000Y-122627000D01*
X62563000Y-122627000D01*
X62563000Y-122373000D01*
X62583000Y-122373000D01*
X62583000Y-121230085D01*
X62360961Y-121108096D01*
X62226913Y-121148754D01*
X62055001Y-121230007D01*
X62055001Y-119938072D01*
X62650000Y-119938072D01*
X62774482Y-119925812D01*
X62894180Y-119889502D01*
X63004494Y-119830537D01*
X63075002Y-119772673D01*
X63075002Y-121112938D01*
X63059039Y-121108096D01*
X62837000Y-121230085D01*
X62837000Y-122373000D01*
X62857000Y-122373000D01*
X62857000Y-122627000D01*
X62837000Y-122627000D01*
X62837000Y-123769915D01*
X63059039Y-123891904D01*
X63075001Y-123887063D01*
X63075001Y-125350197D01*
X61185199Y-127240000D01*
X54864803Y-127240000D01*
X53485000Y-125860199D01*
X53485000Y-125798061D01*
X53445226Y-125598102D01*
X53367205Y-125409744D01*
X53253937Y-125240226D01*
X53109774Y-125096063D01*
X52940256Y-124982795D01*
X52751898Y-124904774D01*
X52551939Y-124865000D01*
X52348061Y-124865000D01*
X52148102Y-124904774D01*
X51959744Y-124982795D01*
X51790226Y-125096063D01*
X51646063Y-125240226D01*
X51532795Y-125409744D01*
X51454774Y-125598102D01*
X51415000Y-125798061D01*
X51415000Y-126001939D01*
X51454774Y-126201898D01*
X51532795Y-126390256D01*
X51646063Y-126559774D01*
X51790226Y-126703937D01*
X51959744Y-126817205D01*
X52148102Y-126895226D01*
X52348061Y-126935000D01*
X52410199Y-126935000D01*
X53986205Y-128511008D01*
X54009999Y-128540001D01*
X54038992Y-128563795D01*
X54038996Y-128563799D01*
X54089866Y-128605546D01*
X54125724Y-128634974D01*
X54257753Y-128705546D01*
X54401014Y-128749003D01*
X54512667Y-128760000D01*
X54512676Y-128760000D01*
X54549999Y-128763676D01*
X54587322Y-128760000D01*
X56283497Y-128760000D01*
X56070273Y-128848320D01*
X55835241Y-129005363D01*
X55635363Y-129205241D01*
X55478320Y-129440273D01*
X55370147Y-129701426D01*
X55315000Y-129978665D01*
X55315000Y-130261335D01*
X55370147Y-130538574D01*
X55478320Y-130799727D01*
X55635363Y-131034759D01*
X55835241Y-131234637D01*
X56070273Y-131391680D01*
X56331426Y-131499853D01*
X56608665Y-131555000D01*
X56891335Y-131555000D01*
X57168574Y-131499853D01*
X57429727Y-131391680D01*
X57664759Y-131234637D01*
X57864637Y-131034759D01*
X58021680Y-130799727D01*
X58129853Y-130538574D01*
X58185000Y-130261335D01*
X58185000Y-129978665D01*
X58129853Y-129701426D01*
X58021680Y-129440273D01*
X57864637Y-129205241D01*
X57664759Y-129005363D01*
X57429727Y-128848320D01*
X57216503Y-128760000D01*
X59703497Y-128760000D01*
X59490273Y-128848320D01*
X59255241Y-129005363D01*
X59055363Y-129205241D01*
X58898320Y-129440273D01*
X58790147Y-129701426D01*
X58735000Y-129978665D01*
X58735000Y-130261335D01*
X58790147Y-130538574D01*
X58898320Y-130799727D01*
X59055363Y-131034759D01*
X59255241Y-131234637D01*
X59490273Y-131391680D01*
X59751426Y-131499853D01*
X60028665Y-131555000D01*
X60311335Y-131555000D01*
X60557233Y-131506087D01*
X60406614Y-131586595D01*
X60272038Y-131697038D01*
X60161595Y-131831614D01*
X60079528Y-131985150D01*
X60028992Y-132151746D01*
X60011928Y-132325000D01*
X60011928Y-133675000D01*
X60028992Y-133848254D01*
X60079528Y-134014850D01*
X60161595Y-134168386D01*
X60272038Y-134302962D01*
X60406614Y-134413405D01*
X60560150Y-134495472D01*
X60726746Y-134546008D01*
X60900000Y-134563072D01*
X62100000Y-134563072D01*
X62273254Y-134546008D01*
X62439850Y-134495472D01*
X62593386Y-134413405D01*
X62727962Y-134302962D01*
X62838405Y-134168386D01*
X62892777Y-134066663D01*
X62944866Y-134130134D01*
X63170987Y-134315706D01*
X63428967Y-134453599D01*
X63708890Y-134538513D01*
X64000000Y-134567185D01*
X64291111Y-134538513D01*
X64571034Y-134453599D01*
X64829014Y-134315706D01*
X65055134Y-134130134D01*
X65240706Y-133904013D01*
X65378599Y-133646033D01*
X65463513Y-133366110D01*
X65485000Y-133147949D01*
X65485000Y-132852050D01*
X65463513Y-132633889D01*
X65378599Y-132353966D01*
X65240706Y-132095986D01*
X65055134Y-131869866D01*
X64829013Y-131684294D01*
X64571033Y-131546401D01*
X64291110Y-131461487D01*
X64000000Y-131432815D01*
X63708889Y-131461487D01*
X63428966Y-131546401D01*
X63170986Y-131684294D01*
X62944866Y-131869866D01*
X62892777Y-131933337D01*
X62838405Y-131831614D01*
X62727962Y-131697038D01*
X62593386Y-131586595D01*
X62439850Y-131504528D01*
X62273254Y-131453992D01*
X62100000Y-131436928D01*
X60900000Y-131436928D01*
X60726746Y-131453992D01*
X60624177Y-131485106D01*
X60849727Y-131391680D01*
X61084759Y-131234637D01*
X61284637Y-131034759D01*
X61441680Y-130799727D01*
X61549853Y-130538574D01*
X61605000Y-130261335D01*
X61605000Y-129978665D01*
X63815000Y-129978665D01*
X63815000Y-130261335D01*
X63870147Y-130538574D01*
X63978320Y-130799727D01*
X64135363Y-131034759D01*
X64335241Y-131234637D01*
X64570273Y-131391680D01*
X64831426Y-131499853D01*
X65108665Y-131555000D01*
X65391335Y-131555000D01*
X65668574Y-131499853D01*
X65929727Y-131391680D01*
X66164759Y-131234637D01*
X66364637Y-131034759D01*
X66521680Y-130799727D01*
X66629853Y-130538574D01*
X66685000Y-130261335D01*
X66685000Y-129978665D01*
X67235000Y-129978665D01*
X67235000Y-130261335D01*
X67290147Y-130538574D01*
X67398320Y-130799727D01*
X67555363Y-131034759D01*
X67755241Y-131234637D01*
X67990273Y-131391680D01*
X68251426Y-131499853D01*
X68528665Y-131555000D01*
X68811335Y-131555000D01*
X69057233Y-131506087D01*
X68906614Y-131586595D01*
X68772038Y-131697038D01*
X68661595Y-131831614D01*
X68579528Y-131985150D01*
X68528992Y-132151746D01*
X68511928Y-132325000D01*
X68511928Y-133675000D01*
X68528992Y-133848254D01*
X68579528Y-134014850D01*
X68661595Y-134168386D01*
X68772038Y-134302962D01*
X68906614Y-134413405D01*
X69060150Y-134495472D01*
X69226746Y-134546008D01*
X69400000Y-134563072D01*
X70600000Y-134563072D01*
X70773254Y-134546008D01*
X70939850Y-134495472D01*
X71093386Y-134413405D01*
X71227962Y-134302962D01*
X71338405Y-134168386D01*
X71392777Y-134066663D01*
X71444866Y-134130134D01*
X71670987Y-134315706D01*
X71928967Y-134453599D01*
X72208890Y-134538513D01*
X72500000Y-134567185D01*
X72791111Y-134538513D01*
X73071034Y-134453599D01*
X73329014Y-134315706D01*
X73555134Y-134130134D01*
X73740706Y-133904013D01*
X73878599Y-133646033D01*
X73963513Y-133366110D01*
X73985000Y-133147949D01*
X73985000Y-132852050D01*
X73963513Y-132633889D01*
X73878599Y-132353966D01*
X73863117Y-132325000D01*
X77011928Y-132325000D01*
X77011928Y-133675000D01*
X77028992Y-133848254D01*
X77079528Y-134014850D01*
X77161595Y-134168386D01*
X77272038Y-134302962D01*
X77406614Y-134413405D01*
X77560150Y-134495472D01*
X77726746Y-134546008D01*
X77900000Y-134563072D01*
X79100000Y-134563072D01*
X79273254Y-134546008D01*
X79439850Y-134495472D01*
X79593386Y-134413405D01*
X79727962Y-134302962D01*
X79838405Y-134168386D01*
X79892777Y-134066663D01*
X79944866Y-134130134D01*
X80170987Y-134315706D01*
X80428967Y-134453599D01*
X80708890Y-134538513D01*
X81000000Y-134567185D01*
X81291111Y-134538513D01*
X81571034Y-134453599D01*
X81829014Y-134315706D01*
X82055134Y-134130134D01*
X82240706Y-133904013D01*
X82378599Y-133646033D01*
X82463513Y-133366110D01*
X82485000Y-133147949D01*
X82485000Y-132852050D01*
X82463513Y-132633889D01*
X82378599Y-132353966D01*
X82240706Y-132095986D01*
X82055134Y-131869866D01*
X81829013Y-131684294D01*
X81571033Y-131546401D01*
X81291110Y-131461487D01*
X81000000Y-131432815D01*
X80708889Y-131461487D01*
X80428966Y-131546401D01*
X80170986Y-131684294D01*
X79944866Y-131869866D01*
X79892777Y-131933337D01*
X79838405Y-131831614D01*
X79727962Y-131697038D01*
X79593386Y-131586595D01*
X79439850Y-131504528D01*
X79273254Y-131453992D01*
X79100000Y-131436928D01*
X77900000Y-131436928D01*
X77726746Y-131453992D01*
X77560150Y-131504528D01*
X77406614Y-131586595D01*
X77272038Y-131697038D01*
X77161595Y-131831614D01*
X77079528Y-131985150D01*
X77028992Y-132151746D01*
X77011928Y-132325000D01*
X73863117Y-132325000D01*
X73740706Y-132095986D01*
X73555134Y-131869866D01*
X73329013Y-131684294D01*
X73071033Y-131546401D01*
X72791110Y-131461487D01*
X72500000Y-131432815D01*
X72208889Y-131461487D01*
X71928966Y-131546401D01*
X71670986Y-131684294D01*
X71444866Y-131869866D01*
X71392777Y-131933337D01*
X71338405Y-131831614D01*
X71227962Y-131697038D01*
X71093386Y-131586595D01*
X70939850Y-131504528D01*
X70773254Y-131453992D01*
X70600000Y-131436928D01*
X69400000Y-131436928D01*
X69226746Y-131453992D01*
X69124177Y-131485106D01*
X69349727Y-131391680D01*
X69584759Y-131234637D01*
X69784637Y-131034759D01*
X69941680Y-130799727D01*
X70049853Y-130538574D01*
X70105000Y-130261335D01*
X70105000Y-129978665D01*
X72315000Y-129978665D01*
X72315000Y-130261335D01*
X72370147Y-130538574D01*
X72478320Y-130799727D01*
X72635363Y-131034759D01*
X72835241Y-131234637D01*
X73070273Y-131391680D01*
X73331426Y-131499853D01*
X73608665Y-131555000D01*
X73891335Y-131555000D01*
X74168574Y-131499853D01*
X74429727Y-131391680D01*
X74664759Y-131234637D01*
X74864637Y-131034759D01*
X75021680Y-130799727D01*
X75129853Y-130538574D01*
X75185000Y-130261335D01*
X75185000Y-129978665D01*
X75181022Y-129958665D01*
X75735000Y-129958665D01*
X75735000Y-130241335D01*
X75790147Y-130518574D01*
X75898320Y-130779727D01*
X76055363Y-131014759D01*
X76255241Y-131214637D01*
X76490273Y-131371680D01*
X76751426Y-131479853D01*
X77028665Y-131535000D01*
X77311335Y-131535000D01*
X77588574Y-131479853D01*
X77849727Y-131371680D01*
X78084759Y-131214637D01*
X78284637Y-131014759D01*
X78441680Y-130779727D01*
X78549853Y-130518574D01*
X78605000Y-130241335D01*
X78605000Y-129958665D01*
X78549853Y-129681426D01*
X78441680Y-129420273D01*
X78284637Y-129185241D01*
X78084759Y-128985363D01*
X77849727Y-128828320D01*
X77588574Y-128720147D01*
X77311335Y-128665000D01*
X77028665Y-128665000D01*
X76751426Y-128720147D01*
X76490273Y-128828320D01*
X76255241Y-128985363D01*
X76055363Y-129185241D01*
X75898320Y-129420273D01*
X75790147Y-129681426D01*
X75735000Y-129958665D01*
X75181022Y-129958665D01*
X75129853Y-129701426D01*
X75021680Y-129440273D01*
X74864637Y-129205241D01*
X74664759Y-129005363D01*
X74429727Y-128848320D01*
X74168574Y-128740147D01*
X73891335Y-128685000D01*
X73608665Y-128685000D01*
X73331426Y-128740147D01*
X73070273Y-128848320D01*
X72835241Y-129005363D01*
X72635363Y-129205241D01*
X72478320Y-129440273D01*
X72370147Y-129701426D01*
X72315000Y-129978665D01*
X70105000Y-129978665D01*
X70049853Y-129701426D01*
X69941680Y-129440273D01*
X69784637Y-129205241D01*
X69584759Y-129005363D01*
X69349727Y-128848320D01*
X69088574Y-128740147D01*
X68811335Y-128685000D01*
X68528665Y-128685000D01*
X68251426Y-128740147D01*
X67990273Y-128848320D01*
X67755241Y-129005363D01*
X67555363Y-129205241D01*
X67398320Y-129440273D01*
X67290147Y-129701426D01*
X67235000Y-129978665D01*
X66685000Y-129978665D01*
X66629853Y-129701426D01*
X66521680Y-129440273D01*
X66364637Y-129205241D01*
X66164759Y-129005363D01*
X65929727Y-128848320D01*
X65668574Y-128740147D01*
X65391335Y-128685000D01*
X65108665Y-128685000D01*
X64831426Y-128740147D01*
X64570273Y-128848320D01*
X64335241Y-129005363D01*
X64135363Y-129205241D01*
X63978320Y-129440273D01*
X63870147Y-129701426D01*
X63815000Y-129978665D01*
X61605000Y-129978665D01*
X61549853Y-129701426D01*
X61441680Y-129440273D01*
X61284637Y-129205241D01*
X61084759Y-129005363D01*
X60849727Y-128848320D01*
X60636503Y-128760000D01*
X61462678Y-128760000D01*
X61500000Y-128763676D01*
X61537322Y-128760000D01*
X61537333Y-128760000D01*
X61648986Y-128749003D01*
X61792247Y-128705546D01*
X61924276Y-128634974D01*
X62040001Y-128540001D01*
X62063804Y-128510997D01*
X64346005Y-126228797D01*
X64375002Y-126205000D01*
X64405986Y-126167246D01*
X64469975Y-126089276D01*
X64540547Y-125957246D01*
X64565495Y-125875001D01*
X64584004Y-125813985D01*
X64595001Y-125702332D01*
X64595001Y-125702323D01*
X64598677Y-125665000D01*
X64595001Y-125627677D01*
X64595001Y-123938072D01*
X66050000Y-123938072D01*
X66174482Y-123925812D01*
X66294180Y-123889502D01*
X66404494Y-123830537D01*
X66501185Y-123751185D01*
X66580537Y-123654494D01*
X66639502Y-123544180D01*
X66675812Y-123424482D01*
X66688072Y-123300000D01*
X66688072Y-121945626D01*
X66719824Y-121942499D01*
X67347692Y-121942499D01*
X67290147Y-122081426D01*
X67235000Y-122358665D01*
X67235000Y-122641335D01*
X67290147Y-122918574D01*
X67398320Y-123179727D01*
X67555363Y-123414759D01*
X67755241Y-123614637D01*
X67990273Y-123771680D01*
X68251426Y-123879853D01*
X68528665Y-123935000D01*
X68811335Y-123935000D01*
X69088574Y-123879853D01*
X69115000Y-123868907D01*
X69115000Y-124903841D01*
X68984744Y-124957795D01*
X68815226Y-125071063D01*
X68671063Y-125215226D01*
X68557795Y-125384744D01*
X68479774Y-125573102D01*
X68440000Y-125773061D01*
X68440000Y-125976939D01*
X68479774Y-126176898D01*
X68557795Y-126365256D01*
X68671063Y-126534774D01*
X68815226Y-126678937D01*
X68984744Y-126792205D01*
X69173102Y-126870226D01*
X69373061Y-126910000D01*
X69576939Y-126910000D01*
X69776898Y-126870226D01*
X69965256Y-126792205D01*
X70134774Y-126678937D01*
X70278937Y-126534774D01*
X70392205Y-126365256D01*
X70470226Y-126176898D01*
X70510000Y-125976939D01*
X70510000Y-125899226D01*
X70564074Y-125798061D01*
X76915000Y-125798061D01*
X76915000Y-126001939D01*
X76954774Y-126201898D01*
X77032795Y-126390256D01*
X77146063Y-126559774D01*
X77290226Y-126703937D01*
X77459744Y-126817205D01*
X77648102Y-126895226D01*
X77848061Y-126935000D01*
X78051939Y-126935000D01*
X78251898Y-126895226D01*
X78440256Y-126817205D01*
X78609774Y-126703937D01*
X78653711Y-126660000D01*
X80185199Y-126660000D01*
X81465000Y-127939802D01*
X81465000Y-128001939D01*
X81504774Y-128201898D01*
X81582795Y-128390256D01*
X81696063Y-128559774D01*
X81840226Y-128703937D01*
X81856902Y-128715079D01*
X81831426Y-128720147D01*
X81570273Y-128828320D01*
X81335241Y-128985363D01*
X81135363Y-129185241D01*
X80978320Y-129420273D01*
X80870147Y-129681426D01*
X80815000Y-129958665D01*
X80815000Y-130241335D01*
X80870147Y-130518574D01*
X80978320Y-130779727D01*
X81135363Y-131014759D01*
X81335241Y-131214637D01*
X81570273Y-131371680D01*
X81831426Y-131479853D01*
X82108665Y-131535000D01*
X82391335Y-131535000D01*
X82668574Y-131479853D01*
X82929727Y-131371680D01*
X83164759Y-131214637D01*
X83364637Y-131014759D01*
X83521680Y-130779727D01*
X83629853Y-130518574D01*
X83685000Y-130241335D01*
X83685000Y-129958665D01*
X83629853Y-129681426D01*
X83521680Y-129420273D01*
X83474726Y-129350000D01*
X86436928Y-129350000D01*
X86449188Y-129474482D01*
X86485498Y-129594180D01*
X86544463Y-129704494D01*
X86623815Y-129801185D01*
X86720506Y-129880537D01*
X86830820Y-129939502D01*
X86950518Y-129975812D01*
X87075000Y-129988072D01*
X87714250Y-129985000D01*
X87873000Y-129826250D01*
X87873000Y-128627000D01*
X86598750Y-128627000D01*
X86440000Y-128785750D01*
X86436928Y-129350000D01*
X83474726Y-129350000D01*
X83364637Y-129185241D01*
X83164759Y-128985363D01*
X82942622Y-128836936D01*
X82990256Y-128817205D01*
X83159774Y-128703937D01*
X83303937Y-128559774D01*
X83417205Y-128390256D01*
X83495226Y-128201898D01*
X83535000Y-128001939D01*
X83535000Y-127798061D01*
X83495226Y-127598102D01*
X83417205Y-127409744D01*
X83303937Y-127240226D01*
X83159774Y-127096063D01*
X82990256Y-126982795D01*
X82801898Y-126904774D01*
X82601939Y-126865000D01*
X82539802Y-126865000D01*
X81063804Y-125389003D01*
X81040001Y-125359999D01*
X80924276Y-125265026D01*
X80792247Y-125194454D01*
X80648986Y-125150997D01*
X80537333Y-125140000D01*
X80537322Y-125140000D01*
X80500000Y-125136324D01*
X80462678Y-125140000D01*
X78653711Y-125140000D01*
X78609774Y-125096063D01*
X78440256Y-124982795D01*
X78251898Y-124904774D01*
X78051939Y-124865000D01*
X77848061Y-124865000D01*
X77648102Y-124904774D01*
X77459744Y-124982795D01*
X77290226Y-125096063D01*
X77146063Y-125240226D01*
X77032795Y-125409744D01*
X76954774Y-125598102D01*
X76915000Y-125798061D01*
X70564074Y-125798061D01*
X70580545Y-125767248D01*
X70624002Y-125623987D01*
X70634999Y-125512334D01*
X70634999Y-125512324D01*
X70638675Y-125475002D01*
X70634999Y-125437679D01*
X70634999Y-123807803D01*
X70726913Y-123851246D01*
X70860961Y-123891904D01*
X71083000Y-123769915D01*
X71083000Y-122627000D01*
X71063000Y-122627000D01*
X71063000Y-122373000D01*
X71083000Y-122373000D01*
X71083000Y-121230085D01*
X70860961Y-121108096D01*
X70726913Y-121148754D01*
X70472580Y-121268963D01*
X70303843Y-121394039D01*
X69581304Y-120671501D01*
X69557502Y-120642498D01*
X69441777Y-120547525D01*
X69309748Y-120476953D01*
X69166487Y-120433496D01*
X69054834Y-120422499D01*
X69054823Y-120422499D01*
X69017501Y-120418823D01*
X68980179Y-120422499D01*
X66997301Y-120422499D01*
X66882874Y-120308072D01*
X67910001Y-120308072D01*
X68083255Y-120291008D01*
X68249851Y-120240472D01*
X68403387Y-120158405D01*
X68537962Y-120047962D01*
X68648405Y-119913387D01*
X68719702Y-119780000D01*
X69214351Y-119780000D01*
X69261595Y-119868387D01*
X69372038Y-120002962D01*
X69506613Y-120113405D01*
X69660149Y-120195472D01*
X69826745Y-120246008D01*
X69999999Y-120263072D01*
X70800001Y-120263072D01*
X70973255Y-120246008D01*
X71139851Y-120195472D01*
X71293387Y-120113405D01*
X71427962Y-120002962D01*
X71428052Y-120002853D01*
X72436201Y-121011003D01*
X72459999Y-121040001D01*
X72488997Y-121063799D01*
X72575723Y-121134974D01*
X72617876Y-121157506D01*
X72595506Y-121169463D01*
X72498815Y-121248815D01*
X72419463Y-121345506D01*
X72360498Y-121455820D01*
X72324188Y-121575518D01*
X72321769Y-121600080D01*
X72173414Y-121436481D01*
X71947420Y-121268963D01*
X71693087Y-121148754D01*
X71559039Y-121108096D01*
X71337000Y-121230085D01*
X71337000Y-122373000D01*
X71357000Y-122373000D01*
X71357000Y-122627000D01*
X71337000Y-122627000D01*
X71337000Y-123769915D01*
X71559039Y-123891904D01*
X71693087Y-123851246D01*
X71947420Y-123731037D01*
X72173414Y-123563519D01*
X72321769Y-123399920D01*
X72324188Y-123424482D01*
X72360498Y-123544180D01*
X72419463Y-123654494D01*
X72498815Y-123751185D01*
X72595506Y-123830537D01*
X72705820Y-123889502D01*
X72825518Y-123925812D01*
X72950000Y-123938072D01*
X74550000Y-123938072D01*
X74674482Y-123925812D01*
X74794180Y-123889502D01*
X74904494Y-123830537D01*
X75001185Y-123751185D01*
X75080537Y-123654494D01*
X75139502Y-123544180D01*
X75175812Y-123424482D01*
X75188072Y-123300000D01*
X75188072Y-121700000D01*
X75175812Y-121575518D01*
X75139502Y-121455820D01*
X75080537Y-121345506D01*
X75010364Y-121260000D01*
X76412928Y-121260000D01*
X76255241Y-121365363D01*
X76055363Y-121565241D01*
X75898320Y-121800273D01*
X75790147Y-122061426D01*
X75735000Y-122338665D01*
X75735000Y-122621335D01*
X75790147Y-122898574D01*
X75898320Y-123159727D01*
X76055363Y-123394759D01*
X76255241Y-123594637D01*
X76490273Y-123751680D01*
X76751426Y-123859853D01*
X77028665Y-123915000D01*
X77311335Y-123915000D01*
X77588574Y-123859853D01*
X77849727Y-123751680D01*
X78084759Y-123594637D01*
X78284637Y-123394759D01*
X78441680Y-123159727D01*
X78446067Y-123149135D01*
X78557615Y-123335131D01*
X78746586Y-123543519D01*
X78972580Y-123711037D01*
X79226913Y-123831246D01*
X79360961Y-123871904D01*
X79583000Y-123749915D01*
X79583000Y-122607000D01*
X79563000Y-122607000D01*
X79563000Y-122353000D01*
X79583000Y-122353000D01*
X79583000Y-122333000D01*
X79837000Y-122333000D01*
X79837000Y-122353000D01*
X79857000Y-122353000D01*
X79857000Y-122607000D01*
X79837000Y-122607000D01*
X79837000Y-123749915D01*
X80059039Y-123871904D01*
X80193087Y-123831246D01*
X80447420Y-123711037D01*
X80673414Y-123543519D01*
X80821769Y-123379920D01*
X80824188Y-123404482D01*
X80860498Y-123524180D01*
X80919463Y-123634494D01*
X80998815Y-123731185D01*
X81095506Y-123810537D01*
X81205820Y-123869502D01*
X81325518Y-123905812D01*
X81450000Y-123918072D01*
X83050000Y-123918072D01*
X83174482Y-123905812D01*
X83294180Y-123869502D01*
X83404494Y-123810537D01*
X83501185Y-123731185D01*
X83580537Y-123634494D01*
X83639502Y-123524180D01*
X83675812Y-123404482D01*
X83688072Y-123280000D01*
X83688072Y-121680000D01*
X83675812Y-121555518D01*
X83639502Y-121435820D01*
X83580537Y-121325506D01*
X83501185Y-121228815D01*
X83404494Y-121149463D01*
X83294180Y-121090498D01*
X83174482Y-121054188D01*
X83050000Y-121041928D01*
X82582679Y-121041928D01*
X82617205Y-120990256D01*
X82695226Y-120801898D01*
X82735000Y-120601939D01*
X82735000Y-120398061D01*
X82695226Y-120198102D01*
X82617205Y-120009744D01*
X82503937Y-119840226D01*
X82359774Y-119696063D01*
X82190256Y-119582795D01*
X82001898Y-119504774D01*
X81801939Y-119465000D01*
X81609802Y-119465000D01*
X81611004Y-119463798D01*
X81640001Y-119440001D01*
X81734974Y-119324276D01*
X81805546Y-119192247D01*
X81849003Y-119048986D01*
X81860000Y-118937333D01*
X81860000Y-118937325D01*
X81863676Y-118900000D01*
X81860000Y-118862675D01*
X81860000Y-118460000D01*
X85485199Y-118460000D01*
X86924899Y-119899701D01*
X86869866Y-119944866D01*
X86684294Y-120170986D01*
X86546401Y-120428966D01*
X86461487Y-120708889D01*
X86432815Y-121000000D01*
X86461487Y-121291111D01*
X86546401Y-121571034D01*
X86684294Y-121829014D01*
X86869866Y-122055134D01*
X87095986Y-122240706D01*
X87113374Y-122250000D01*
X87095986Y-122259294D01*
X86869866Y-122444866D01*
X86684294Y-122670986D01*
X86546401Y-122928966D01*
X86461487Y-123208889D01*
X86432815Y-123500000D01*
X86461487Y-123791111D01*
X86546401Y-124071034D01*
X86684294Y-124329014D01*
X86869866Y-124555134D01*
X87095986Y-124740706D01*
X87113374Y-124750000D01*
X87095986Y-124759294D01*
X86869866Y-124944866D01*
X86684294Y-125170986D01*
X86546401Y-125428966D01*
X86461487Y-125708889D01*
X86432815Y-126000000D01*
X86461487Y-126291111D01*
X86546401Y-126571034D01*
X86684294Y-126829014D01*
X86865608Y-127049945D01*
X86830820Y-127060498D01*
X86720506Y-127119463D01*
X86623815Y-127198815D01*
X86544463Y-127295506D01*
X86485498Y-127405820D01*
X86449188Y-127525518D01*
X86436928Y-127650000D01*
X86440000Y-128214250D01*
X86598750Y-128373000D01*
X87873000Y-128373000D01*
X87873000Y-128353000D01*
X88127000Y-128353000D01*
X88127000Y-128373000D01*
X88147000Y-128373000D01*
X88147000Y-128627000D01*
X88127000Y-128627000D01*
X88127000Y-129826250D01*
X88285750Y-129985000D01*
X88590012Y-129986462D01*
X88590012Y-133104407D01*
X88366111Y-133036487D01*
X88147950Y-133015000D01*
X87852050Y-133015000D01*
X87633889Y-133036487D01*
X87353966Y-133121401D01*
X87095986Y-133259294D01*
X86869866Y-133444866D01*
X86684294Y-133670986D01*
X86546401Y-133928966D01*
X86461487Y-134208889D01*
X86432815Y-134500000D01*
X86461487Y-134791111D01*
X86546401Y-135071034D01*
X86684294Y-135329014D01*
X86865608Y-135549945D01*
X86830820Y-135560498D01*
X86720506Y-135619463D01*
X86623815Y-135698815D01*
X86544463Y-135795506D01*
X86485498Y-135905820D01*
X86449188Y-136025518D01*
X86436928Y-136150000D01*
X86440000Y-136714250D01*
X86598750Y-136873000D01*
X87873000Y-136873000D01*
X87873000Y-136853000D01*
X88127000Y-136853000D01*
X88127000Y-136873000D01*
X89401250Y-136873000D01*
X89560000Y-136714250D01*
X89563072Y-136150000D01*
X89550812Y-136025518D01*
X89514502Y-135905820D01*
X89455537Y-135795506D01*
X89376185Y-135698815D01*
X89279494Y-135619463D01*
X89169180Y-135560498D01*
X89134392Y-135549945D01*
X89315706Y-135329014D01*
X89365146Y-135236517D01*
X89467247Y-135205546D01*
X89599276Y-135134974D01*
X89715001Y-135040001D01*
X89738804Y-135010997D01*
X89861008Y-134888793D01*
X89890012Y-134864990D01*
X89984985Y-134749265D01*
X90055557Y-134617236D01*
X90099014Y-134473975D01*
X90110011Y-134362322D01*
X90110011Y-134362312D01*
X90113687Y-134324989D01*
X90110011Y-134287666D01*
X90110011Y-123101201D01*
X90211018Y-123000194D01*
X90240022Y-122976391D01*
X90334995Y-122860666D01*
X90405567Y-122728637D01*
X90449024Y-122585376D01*
X90460021Y-122473723D01*
X90460021Y-122473715D01*
X90463697Y-122436392D01*
X90460021Y-122399069D01*
X90460021Y-120300932D01*
X90463697Y-120263609D01*
X90460021Y-120226286D01*
X90460021Y-120226277D01*
X90449024Y-120114624D01*
X90405567Y-119971363D01*
X90334995Y-119839334D01*
X90298163Y-119794454D01*
X90263820Y-119752606D01*
X90263816Y-119752602D01*
X90240022Y-119723609D01*
X90211030Y-119699816D01*
X89351367Y-118840154D01*
X89416088Y-118817795D01*
X89590044Y-118724814D01*
X89685808Y-118460413D01*
X88730000Y-117504605D01*
X88715858Y-117518748D01*
X88536253Y-117339143D01*
X88550395Y-117325000D01*
X88536253Y-117310858D01*
X88709048Y-117138062D01*
X88710000Y-117138072D01*
X88721540Y-117136935D01*
X88730000Y-117145395D01*
X88740308Y-117135087D01*
X88747289Y-117134399D01*
X88881655Y-117268765D01*
X88884188Y-117294482D01*
X88920498Y-117414180D01*
X88979463Y-117524494D01*
X89058815Y-117621185D01*
X89155506Y-117700537D01*
X89265820Y-117759502D01*
X89378196Y-117793591D01*
X89865413Y-118280808D01*
X90129814Y-118185044D01*
X90270704Y-117895429D01*
X90293864Y-117807093D01*
X91504820Y-117805580D01*
X91559081Y-117958747D01*
X91632528Y-118096157D01*
X91881603Y-118173792D01*
X92395573Y-117659823D01*
X92540750Y-117805000D01*
X92609519Y-117805086D01*
X92061208Y-118353397D01*
X92138843Y-118602472D01*
X92402883Y-118728371D01*
X92686411Y-118800339D01*
X92978531Y-118815611D01*
X93268019Y-118773599D01*
X93543747Y-118675919D01*
X93681157Y-118602472D01*
X93758792Y-118353397D01*
X93211233Y-117805838D01*
X93570892Y-117806287D01*
X93938397Y-118173792D01*
X94187472Y-118096157D01*
X94313371Y-117832117D01*
X94315001Y-117825697D01*
X94315001Y-138966485D01*
X94305778Y-139060546D01*
X94288194Y-139118787D01*
X94259635Y-139172500D01*
X94221183Y-139219646D01*
X94174310Y-139258423D01*
X94120796Y-139287358D01*
X94062677Y-139305349D01*
X93970855Y-139315000D01*
X51033505Y-139315000D01*
X50939454Y-139305778D01*
X50881213Y-139288194D01*
X50827500Y-139259635D01*
X50780354Y-139221183D01*
X50741577Y-139174310D01*
X50712642Y-139120796D01*
X50694651Y-139062677D01*
X50685000Y-138970855D01*
X50685000Y-137850000D01*
X86436928Y-137850000D01*
X86449188Y-137974482D01*
X86485498Y-138094180D01*
X86544463Y-138204494D01*
X86623815Y-138301185D01*
X86720506Y-138380537D01*
X86830820Y-138439502D01*
X86950518Y-138475812D01*
X87075000Y-138488072D01*
X87714250Y-138485000D01*
X87873000Y-138326250D01*
X87873000Y-137127000D01*
X88127000Y-137127000D01*
X88127000Y-138326250D01*
X88285750Y-138485000D01*
X88925000Y-138488072D01*
X89049482Y-138475812D01*
X89169180Y-138439502D01*
X89279494Y-138380537D01*
X89376185Y-138301185D01*
X89455537Y-138204494D01*
X89514502Y-138094180D01*
X89550812Y-137974482D01*
X89563072Y-137850000D01*
X89560000Y-137285750D01*
X89401250Y-137127000D01*
X88127000Y-137127000D01*
X87873000Y-137127000D01*
X86598750Y-137127000D01*
X86440000Y-137285750D01*
X86436928Y-137850000D01*
X50685000Y-137850000D01*
X50685000Y-131164396D01*
X50755241Y-131234637D01*
X50990273Y-131391680D01*
X51251426Y-131499853D01*
X51528665Y-131555000D01*
X51811335Y-131555000D01*
X52057233Y-131506087D01*
X51906614Y-131586595D01*
X51772038Y-131697038D01*
X51661595Y-131831614D01*
X51579528Y-131985150D01*
X51528992Y-132151746D01*
X51511928Y-132325000D01*
X51511928Y-133675000D01*
X51528992Y-133848254D01*
X51579528Y-134014850D01*
X51661595Y-134168386D01*
X51772038Y-134302962D01*
X51906614Y-134413405D01*
X52060150Y-134495472D01*
X52226746Y-134546008D01*
X52400000Y-134563072D01*
X53600000Y-134563072D01*
X53773254Y-134546008D01*
X53939850Y-134495472D01*
X54093386Y-134413405D01*
X54227962Y-134302962D01*
X54338405Y-134168386D01*
X54392777Y-134066663D01*
X54444866Y-134130134D01*
X54670987Y-134315706D01*
X54928967Y-134453599D01*
X55208890Y-134538513D01*
X55500000Y-134567185D01*
X55791111Y-134538513D01*
X56071034Y-134453599D01*
X56329014Y-134315706D01*
X56555134Y-134130134D01*
X56740706Y-133904013D01*
X56878599Y-133646033D01*
X56963513Y-133366110D01*
X56985000Y-133147949D01*
X56985000Y-132852050D01*
X56963513Y-132633889D01*
X56878599Y-132353966D01*
X56740706Y-132095986D01*
X56555134Y-131869866D01*
X56329013Y-131684294D01*
X56071033Y-131546401D01*
X55791110Y-131461487D01*
X55500000Y-131432815D01*
X55208889Y-131461487D01*
X54928966Y-131546401D01*
X54670986Y-131684294D01*
X54444866Y-131869866D01*
X54392777Y-131933337D01*
X54338405Y-131831614D01*
X54227962Y-131697038D01*
X54093386Y-131586595D01*
X53939850Y-131504528D01*
X53773254Y-131453992D01*
X53600000Y-131436928D01*
X52400000Y-131436928D01*
X52226746Y-131453992D01*
X52124177Y-131485106D01*
X52349727Y-131391680D01*
X52584759Y-131234637D01*
X52784637Y-131034759D01*
X52941680Y-130799727D01*
X53049853Y-130538574D01*
X53105000Y-130261335D01*
X53105000Y-129978665D01*
X53049853Y-129701426D01*
X52941680Y-129440273D01*
X52784637Y-129205241D01*
X52584759Y-129005363D01*
X52349727Y-128848320D01*
X52088574Y-128740147D01*
X51811335Y-128685000D01*
X51528665Y-128685000D01*
X51251426Y-128740147D01*
X50990273Y-128848320D01*
X50755241Y-129005363D01*
X50685000Y-129075604D01*
X50685000Y-123544396D01*
X50755241Y-123614637D01*
X50990273Y-123771680D01*
X51251426Y-123879853D01*
X51528665Y-123935000D01*
X51811335Y-123935000D01*
X52088574Y-123879853D01*
X52349727Y-123771680D01*
X52584759Y-123614637D01*
X52784637Y-123414759D01*
X52941680Y-123179727D01*
X52946067Y-123169135D01*
X53057615Y-123355131D01*
X53246586Y-123563519D01*
X53472580Y-123731037D01*
X53726913Y-123851246D01*
X53860961Y-123891904D01*
X54083000Y-123769915D01*
X54083000Y-122627000D01*
X54063000Y-122627000D01*
X54063000Y-122373000D01*
X54083000Y-122373000D01*
X54083000Y-121230085D01*
X54337000Y-121230085D01*
X54337000Y-122373000D01*
X54357000Y-122373000D01*
X54357000Y-122627000D01*
X54337000Y-122627000D01*
X54337000Y-123769915D01*
X54559039Y-123891904D01*
X54693087Y-123851246D01*
X54947420Y-123731037D01*
X55173414Y-123563519D01*
X55321769Y-123399920D01*
X55324188Y-123424482D01*
X55360498Y-123544180D01*
X55419463Y-123654494D01*
X55498815Y-123751185D01*
X55595506Y-123830537D01*
X55705820Y-123889502D01*
X55825518Y-123925812D01*
X55950000Y-123938072D01*
X57550000Y-123938072D01*
X57674482Y-123925812D01*
X57794180Y-123889502D01*
X57904494Y-123830537D01*
X58001185Y-123751185D01*
X58080537Y-123654494D01*
X58139502Y-123544180D01*
X58175812Y-123424482D01*
X58188072Y-123300000D01*
X58188072Y-121700000D01*
X58175812Y-121575518D01*
X58139502Y-121455820D01*
X58080537Y-121345506D01*
X58001185Y-121248815D01*
X57904494Y-121169463D01*
X57794180Y-121110498D01*
X57674482Y-121074188D01*
X57550000Y-121061928D01*
X55950000Y-121061928D01*
X55825518Y-121074188D01*
X55705820Y-121110498D01*
X55595506Y-121169463D01*
X55498815Y-121248815D01*
X55419463Y-121345506D01*
X55360498Y-121455820D01*
X55324188Y-121575518D01*
X55321769Y-121600080D01*
X55173414Y-121436481D01*
X54947420Y-121268963D01*
X54693087Y-121148754D01*
X54559039Y-121108096D01*
X54337000Y-121230085D01*
X54083000Y-121230085D01*
X53860961Y-121108096D01*
X53726913Y-121148754D01*
X53472580Y-121268963D01*
X53246586Y-121436481D01*
X53057615Y-121644869D01*
X52946067Y-121830865D01*
X52941680Y-121820273D01*
X52784637Y-121585241D01*
X52584759Y-121385363D01*
X52349727Y-121228320D01*
X52088574Y-121120147D01*
X51811335Y-121065000D01*
X51528665Y-121065000D01*
X51251426Y-121120147D01*
X50990273Y-121228320D01*
X50755241Y-121385363D01*
X50685000Y-121455604D01*
X50685000Y-120250000D01*
X59111928Y-120250000D01*
X59124188Y-120374482D01*
X59160498Y-120494180D01*
X59219463Y-120604494D01*
X59298815Y-120701185D01*
X59395506Y-120780537D01*
X59505820Y-120839502D01*
X59625518Y-120875812D01*
X59750000Y-120888072D01*
X59914250Y-120885000D01*
X60073000Y-120726250D01*
X60073000Y-119977000D01*
X59273750Y-119977000D01*
X59115000Y-120135750D01*
X59111928Y-120250000D01*
X50685000Y-120250000D01*
X50685000Y-100202487D01*
X50704774Y-100301898D01*
%TA.AperFunction,Conductor*%
D30*
G36*
X50704774Y-100301898D02*
G01*
X50782795Y-100490256D01*
X50896063Y-100659774D01*
X51040226Y-100803937D01*
X51209744Y-100917205D01*
X51398102Y-100995226D01*
X51598061Y-101035000D01*
X51660199Y-101035000D01*
X52311210Y-101686012D01*
X52335009Y-101715011D01*
X52364007Y-101738809D01*
X52450733Y-101809984D01*
X52553709Y-101865026D01*
X52582763Y-101880556D01*
X52726024Y-101924013D01*
X52837677Y-101935010D01*
X52837686Y-101935010D01*
X52875009Y-101938686D01*
X52912332Y-101935010D01*
X55544568Y-101935010D01*
X55461487Y-102208889D01*
X55432815Y-102500000D01*
X55461487Y-102791111D01*
X55546401Y-103071034D01*
X55684294Y-103329014D01*
X55869866Y-103555134D01*
X56095986Y-103740706D01*
X56113374Y-103750000D01*
X56095986Y-103759294D01*
X55869866Y-103944866D01*
X55684294Y-104170986D01*
X55546401Y-104428966D01*
X55461487Y-104708889D01*
X55432815Y-105000000D01*
X55461487Y-105291111D01*
X55546401Y-105571034D01*
X55684294Y-105829014D01*
X55869866Y-106055134D01*
X56095986Y-106240706D01*
X56113374Y-106250000D01*
X56095986Y-106259294D01*
X55869866Y-106444866D01*
X55684294Y-106670986D01*
X55546401Y-106928966D01*
X55461487Y-107208889D01*
X55432815Y-107500000D01*
X55461487Y-107791111D01*
X55546401Y-108071034D01*
X55684294Y-108329014D01*
X55869866Y-108555134D01*
X56095986Y-108740706D01*
X56113374Y-108750000D01*
X56095986Y-108759294D01*
X55869866Y-108944866D01*
X55684294Y-109170986D01*
X55546401Y-109428966D01*
X55461487Y-109708889D01*
X55432815Y-110000000D01*
X55461487Y-110291111D01*
X55546401Y-110571034D01*
X55684294Y-110829014D01*
X55869866Y-111055134D01*
X56095986Y-111240706D01*
X56113374Y-111250000D01*
X56095986Y-111259294D01*
X55869866Y-111444866D01*
X55684294Y-111670986D01*
X55546401Y-111928966D01*
X55461487Y-112208889D01*
X55432815Y-112500000D01*
X55461487Y-112791111D01*
X55546401Y-113071034D01*
X55684294Y-113329014D01*
X55869866Y-113555134D01*
X56095986Y-113740706D01*
X56113374Y-113750000D01*
X56095986Y-113759294D01*
X55869866Y-113944866D01*
X55684294Y-114170986D01*
X55546401Y-114428966D01*
X55461487Y-114708889D01*
X55432815Y-115000000D01*
X55461487Y-115291111D01*
X55546401Y-115571034D01*
X55684294Y-115829014D01*
X55869866Y-116055134D01*
X56095986Y-116240706D01*
X56113374Y-116250000D01*
X56095986Y-116259294D01*
X55869866Y-116444866D01*
X55684294Y-116670986D01*
X55546401Y-116928966D01*
X55461487Y-117208889D01*
X55432815Y-117500000D01*
X55461487Y-117791111D01*
X55546401Y-118071034D01*
X55684294Y-118329014D01*
X55869866Y-118555134D01*
X56095986Y-118740706D01*
X56353966Y-118878599D01*
X56633889Y-118963513D01*
X56852050Y-118985000D01*
X57147950Y-118985000D01*
X57366111Y-118963513D01*
X57646034Y-118878599D01*
X57904014Y-118740706D01*
X58130134Y-118555134D01*
X58315706Y-118329014D01*
X58453599Y-118071034D01*
X58538513Y-117791111D01*
X58567185Y-117500000D01*
X58538513Y-117208889D01*
X58453599Y-116928966D01*
X58315706Y-116670986D01*
X58130134Y-116444866D01*
X57904014Y-116259294D01*
X57886626Y-116250000D01*
X57904014Y-116240706D01*
X58130134Y-116055134D01*
X58315706Y-115829014D01*
X58453599Y-115571034D01*
X58538513Y-115291111D01*
X58567185Y-115000000D01*
X58538513Y-114708889D01*
X58453599Y-114428966D01*
X58315706Y-114170986D01*
X58130134Y-113944866D01*
X57904014Y-113759294D01*
X57886626Y-113750000D01*
X57904014Y-113740706D01*
X58130134Y-113555134D01*
X58315706Y-113329014D01*
X58453599Y-113071034D01*
X58538513Y-112791111D01*
X58567185Y-112500000D01*
X58538513Y-112208889D01*
X58453599Y-111928966D01*
X58315706Y-111670986D01*
X58130134Y-111444866D01*
X57904014Y-111259294D01*
X57886626Y-111250000D01*
X57904014Y-111240706D01*
X58130134Y-111055134D01*
X58315706Y-110829014D01*
X58453599Y-110571034D01*
X58538513Y-110291111D01*
X58567185Y-110000000D01*
X58538513Y-109708889D01*
X58453599Y-109428966D01*
X58315706Y-109170986D01*
X58130134Y-108944866D01*
X57904014Y-108759294D01*
X57886626Y-108750000D01*
X57904014Y-108740706D01*
X58130134Y-108555134D01*
X58315706Y-108329014D01*
X58453599Y-108071034D01*
X58538513Y-107791111D01*
X58567185Y-107500000D01*
X58538513Y-107208889D01*
X58453599Y-106928966D01*
X58315706Y-106670986D01*
X58130134Y-106444866D01*
X57904014Y-106259294D01*
X57886626Y-106250000D01*
X57904014Y-106240706D01*
X58130134Y-106055134D01*
X58315706Y-105829014D01*
X58453599Y-105571034D01*
X58538513Y-105291111D01*
X58567185Y-105000000D01*
X58538513Y-104708889D01*
X58453599Y-104428966D01*
X58315706Y-104170986D01*
X58130134Y-103944866D01*
X57904014Y-103759294D01*
X57886626Y-103750000D01*
X57904014Y-103740706D01*
X58130134Y-103555134D01*
X58315706Y-103329014D01*
X58453599Y-103071034D01*
X58538513Y-102791111D01*
X58567185Y-102500000D01*
X58538513Y-102208889D01*
X58523683Y-102160000D01*
X68803538Y-102160000D01*
X68765000Y-102353740D01*
X68765000Y-102646260D01*
X68808791Y-102866408D01*
X68351997Y-103323202D01*
X68322999Y-103347000D01*
X68299201Y-103375998D01*
X68299200Y-103375999D01*
X68228025Y-103462725D01*
X68157453Y-103594755D01*
X68132807Y-103676005D01*
X68113997Y-103738015D01*
X68109371Y-103784985D01*
X68099323Y-103887001D01*
X68103000Y-103924333D01*
X68103000Y-104024524D01*
X66867478Y-102789003D01*
X66843675Y-102759999D01*
X66727950Y-102665026D01*
X66595921Y-102594454D01*
X66452660Y-102550997D01*
X66341007Y-102540000D01*
X66340996Y-102540000D01*
X66303674Y-102536324D01*
X66266352Y-102540000D01*
X65437333Y-102540000D01*
X65400000Y-102536323D01*
X65362667Y-102540000D01*
X65251014Y-102550997D01*
X65107753Y-102594454D01*
X64975724Y-102665026D01*
X64859999Y-102759999D01*
X64765026Y-102875724D01*
X64694454Y-103007753D01*
X64650997Y-103151014D01*
X64637538Y-103287661D01*
X64389003Y-103536196D01*
X64359999Y-103559999D01*
X64313481Y-103616682D01*
X64265026Y-103675724D01*
X64211574Y-103775725D01*
X64194454Y-103807754D01*
X64150997Y-103951015D01*
X64140000Y-104062668D01*
X64140000Y-104062678D01*
X64136324Y-104100000D01*
X64140000Y-104137323D01*
X64140001Y-107185197D01*
X63589002Y-107736197D01*
X63559999Y-107759999D01*
X63511591Y-107818985D01*
X63465026Y-107875724D01*
X63418779Y-107962246D01*
X63394454Y-108007754D01*
X63350997Y-108151015D01*
X63340000Y-108262668D01*
X63340000Y-108262678D01*
X63336324Y-108300000D01*
X63340000Y-108337323D01*
X63340001Y-109764482D01*
X63336004Y-109761202D01*
X62560000Y-108985199D01*
X62560000Y-107003711D01*
X62603937Y-106959774D01*
X62717205Y-106790256D01*
X62795226Y-106601898D01*
X62835000Y-106401939D01*
X62835000Y-106198061D01*
X62795226Y-105998102D01*
X62717205Y-105809744D01*
X62603937Y-105640226D01*
X62459774Y-105496063D01*
X62290256Y-105382795D01*
X62101898Y-105304774D01*
X61901939Y-105265000D01*
X61698061Y-105265000D01*
X61498102Y-105304774D01*
X61309744Y-105382795D01*
X61140226Y-105496063D01*
X60996063Y-105640226D01*
X60882795Y-105809744D01*
X60804774Y-105998102D01*
X60765000Y-106198061D01*
X60765000Y-106401939D01*
X60804774Y-106601898D01*
X60882795Y-106790256D01*
X60996063Y-106959774D01*
X61040001Y-107003712D01*
X61040000Y-109262677D01*
X61036324Y-109300000D01*
X61040000Y-109337322D01*
X61040000Y-109337332D01*
X61050997Y-109448985D01*
X61085074Y-109561324D01*
X61094454Y-109592246D01*
X61165026Y-109724276D01*
X61202110Y-109769463D01*
X61259999Y-109840001D01*
X61289002Y-109863804D01*
X61548749Y-110123550D01*
X61440226Y-110196063D01*
X61296063Y-110340226D01*
X61182795Y-110509744D01*
X61104774Y-110698102D01*
X61065000Y-110898061D01*
X61065000Y-111101939D01*
X61074666Y-111150533D01*
X60913270Y-111311928D01*
X60074999Y-111311928D01*
X59901745Y-111328992D01*
X59735149Y-111379528D01*
X59581613Y-111461595D01*
X59447038Y-111572038D01*
X59336595Y-111706613D01*
X59254528Y-111860149D01*
X59203992Y-112026745D01*
X59186928Y-112199999D01*
X59186928Y-113000001D01*
X59203992Y-113173255D01*
X59254528Y-113339851D01*
X59336595Y-113493387D01*
X59447038Y-113627962D01*
X59581613Y-113738405D01*
X59735149Y-113820472D01*
X59901745Y-113871008D01*
X60074999Y-113888072D01*
X61325001Y-113888072D01*
X61440000Y-113876746D01*
X61440000Y-114423254D01*
X61325001Y-114411928D01*
X60074999Y-114411928D01*
X59901745Y-114428992D01*
X59735149Y-114479528D01*
X59581613Y-114561595D01*
X59447038Y-114672038D01*
X59336595Y-114806613D01*
X59254528Y-114960149D01*
X59203992Y-115126745D01*
X59186928Y-115299999D01*
X59186928Y-116100001D01*
X59203992Y-116273255D01*
X59254528Y-116439851D01*
X59336595Y-116593387D01*
X59447038Y-116727962D01*
X59581613Y-116838405D01*
X59723962Y-116914492D01*
X59625518Y-116924188D01*
X59505820Y-116960498D01*
X59395506Y-117019463D01*
X59298815Y-117098815D01*
X59219463Y-117195506D01*
X59160498Y-117305820D01*
X59124188Y-117425518D01*
X59111928Y-117550000D01*
X59111928Y-118350000D01*
X59124188Y-118474482D01*
X59160498Y-118594180D01*
X59219463Y-118704494D01*
X59298815Y-118801185D01*
X59395506Y-118880537D01*
X59431918Y-118900000D01*
X59395506Y-118919463D01*
X59298815Y-118998815D01*
X59219463Y-119095506D01*
X59160498Y-119205820D01*
X59124188Y-119325518D01*
X59111928Y-119450000D01*
X59115000Y-119564250D01*
X59273750Y-119723000D01*
X60073000Y-119723000D01*
X60073000Y-119703000D01*
X60327000Y-119703000D01*
X60327000Y-119723000D01*
X60347000Y-119723000D01*
X60347000Y-119977000D01*
X60327000Y-119977000D01*
X60327000Y-120726250D01*
X60485750Y-120885000D01*
X60535002Y-120885921D01*
X60535002Y-121109491D01*
X60311335Y-121065000D01*
X60028665Y-121065000D01*
X59751426Y-121120147D01*
X59490273Y-121228320D01*
X59255241Y-121385363D01*
X59055363Y-121585241D01*
X58898320Y-121820273D01*
X58790147Y-122081426D01*
X58735000Y-122358665D01*
X58735000Y-122641335D01*
X58790147Y-122918574D01*
X58898320Y-123179727D01*
X59055363Y-123414759D01*
X59255241Y-123614637D01*
X59490273Y-123771680D01*
X59751426Y-123879853D01*
X60028665Y-123935000D01*
X60311335Y-123935000D01*
X60535001Y-123890509D01*
X60535001Y-124936978D01*
X60484744Y-124957795D01*
X60315226Y-125071063D01*
X60171063Y-125215226D01*
X60057795Y-125384744D01*
X59979774Y-125573102D01*
X59940000Y-125773061D01*
X59940000Y-125976939D01*
X59979774Y-126176898D01*
X60057795Y-126365256D01*
X60171063Y-126534774D01*
X60315226Y-126678937D01*
X60484744Y-126792205D01*
X60673102Y-126870226D01*
X60873061Y-126910000D01*
X61076939Y-126910000D01*
X61276898Y-126870226D01*
X61465256Y-126792205D01*
X61634774Y-126678937D01*
X61778937Y-126534774D01*
X61892205Y-126365256D01*
X61970226Y-126176898D01*
X62010000Y-125976939D01*
X62010000Y-125816083D01*
X62044004Y-125703985D01*
X62055001Y-125592332D01*
X62055001Y-125592324D01*
X62058677Y-125554999D01*
X62055001Y-125517674D01*
X62055001Y-123769993D01*
X62226913Y-123851246D01*
X62360961Y-123891904D01*
X62583000Y-123769915D01*
X62583000Y-122627000D01*
X62563000Y-122627000D01*
X62563000Y-122373000D01*
X62583000Y-122373000D01*
X62583000Y-121230085D01*
X62360961Y-121108096D01*
X62226913Y-121148754D01*
X62055001Y-121230007D01*
X62055001Y-119938072D01*
X62650000Y-119938072D01*
X62774482Y-119925812D01*
X62894180Y-119889502D01*
X63004494Y-119830537D01*
X63075002Y-119772673D01*
X63075002Y-121112938D01*
X63059039Y-121108096D01*
X62837000Y-121230085D01*
X62837000Y-122373000D01*
X62857000Y-122373000D01*
X62857000Y-122627000D01*
X62837000Y-122627000D01*
X62837000Y-123769915D01*
X63059039Y-123891904D01*
X63075001Y-123887063D01*
X63075001Y-125350197D01*
X61185199Y-127240000D01*
X54864803Y-127240000D01*
X53485000Y-125860199D01*
X53485000Y-125798061D01*
X53445226Y-125598102D01*
X53367205Y-125409744D01*
X53253937Y-125240226D01*
X53109774Y-125096063D01*
X52940256Y-124982795D01*
X52751898Y-124904774D01*
X52551939Y-124865000D01*
X52348061Y-124865000D01*
X52148102Y-124904774D01*
X51959744Y-124982795D01*
X51790226Y-125096063D01*
X51646063Y-125240226D01*
X51532795Y-125409744D01*
X51454774Y-125598102D01*
X51415000Y-125798061D01*
X51415000Y-126001939D01*
X51454774Y-126201898D01*
X51532795Y-126390256D01*
X51646063Y-126559774D01*
X51790226Y-126703937D01*
X51959744Y-126817205D01*
X52148102Y-126895226D01*
X52348061Y-126935000D01*
X52410199Y-126935000D01*
X53986205Y-128511008D01*
X54009999Y-128540001D01*
X54038992Y-128563795D01*
X54038996Y-128563799D01*
X54089866Y-128605546D01*
X54125724Y-128634974D01*
X54257753Y-128705546D01*
X54401014Y-128749003D01*
X54512667Y-128760000D01*
X54512676Y-128760000D01*
X54549999Y-128763676D01*
X54587322Y-128760000D01*
X56283497Y-128760000D01*
X56070273Y-128848320D01*
X55835241Y-129005363D01*
X55635363Y-129205241D01*
X55478320Y-129440273D01*
X55370147Y-129701426D01*
X55315000Y-129978665D01*
X55315000Y-130261335D01*
X55370147Y-130538574D01*
X55478320Y-130799727D01*
X55635363Y-131034759D01*
X55835241Y-131234637D01*
X56070273Y-131391680D01*
X56331426Y-131499853D01*
X56608665Y-131555000D01*
X56891335Y-131555000D01*
X57168574Y-131499853D01*
X57429727Y-131391680D01*
X57664759Y-131234637D01*
X57864637Y-131034759D01*
X58021680Y-130799727D01*
X58129853Y-130538574D01*
X58185000Y-130261335D01*
X58185000Y-129978665D01*
X58129853Y-129701426D01*
X58021680Y-129440273D01*
X57864637Y-129205241D01*
X57664759Y-129005363D01*
X57429727Y-128848320D01*
X57216503Y-128760000D01*
X59703497Y-128760000D01*
X59490273Y-128848320D01*
X59255241Y-129005363D01*
X59055363Y-129205241D01*
X58898320Y-129440273D01*
X58790147Y-129701426D01*
X58735000Y-129978665D01*
X58735000Y-130261335D01*
X58790147Y-130538574D01*
X58898320Y-130799727D01*
X59055363Y-131034759D01*
X59255241Y-131234637D01*
X59490273Y-131391680D01*
X59751426Y-131499853D01*
X60028665Y-131555000D01*
X60311335Y-131555000D01*
X60557233Y-131506087D01*
X60406614Y-131586595D01*
X60272038Y-131697038D01*
X60161595Y-131831614D01*
X60079528Y-131985150D01*
X60028992Y-132151746D01*
X60011928Y-132325000D01*
X60011928Y-133675000D01*
X60028992Y-133848254D01*
X60079528Y-134014850D01*
X60161595Y-134168386D01*
X60272038Y-134302962D01*
X60406614Y-134413405D01*
X60560150Y-134495472D01*
X60726746Y-134546008D01*
X60900000Y-134563072D01*
X62100000Y-134563072D01*
X62273254Y-134546008D01*
X62439850Y-134495472D01*
X62593386Y-134413405D01*
X62727962Y-134302962D01*
X62838405Y-134168386D01*
X62892777Y-134066663D01*
X62944866Y-134130134D01*
X63170987Y-134315706D01*
X63428967Y-134453599D01*
X63708890Y-134538513D01*
X64000000Y-134567185D01*
X64291111Y-134538513D01*
X64571034Y-134453599D01*
X64829014Y-134315706D01*
X65055134Y-134130134D01*
X65240706Y-133904013D01*
X65378599Y-133646033D01*
X65463513Y-133366110D01*
X65485000Y-133147949D01*
X65485000Y-132852050D01*
X65463513Y-132633889D01*
X65378599Y-132353966D01*
X65240706Y-132095986D01*
X65055134Y-131869866D01*
X64829013Y-131684294D01*
X64571033Y-131546401D01*
X64291110Y-131461487D01*
X64000000Y-131432815D01*
X63708889Y-131461487D01*
X63428966Y-131546401D01*
X63170986Y-131684294D01*
X62944866Y-131869866D01*
X62892777Y-131933337D01*
X62838405Y-131831614D01*
X62727962Y-131697038D01*
X62593386Y-131586595D01*
X62439850Y-131504528D01*
X62273254Y-131453992D01*
X62100000Y-131436928D01*
X60900000Y-131436928D01*
X60726746Y-131453992D01*
X60624177Y-131485106D01*
X60849727Y-131391680D01*
X61084759Y-131234637D01*
X61284637Y-131034759D01*
X61441680Y-130799727D01*
X61549853Y-130538574D01*
X61605000Y-130261335D01*
X61605000Y-129978665D01*
X63815000Y-129978665D01*
X63815000Y-130261335D01*
X63870147Y-130538574D01*
X63978320Y-130799727D01*
X64135363Y-131034759D01*
X64335241Y-131234637D01*
X64570273Y-131391680D01*
X64831426Y-131499853D01*
X65108665Y-131555000D01*
X65391335Y-131555000D01*
X65668574Y-131499853D01*
X65929727Y-131391680D01*
X66164759Y-131234637D01*
X66364637Y-131034759D01*
X66521680Y-130799727D01*
X66629853Y-130538574D01*
X66685000Y-130261335D01*
X66685000Y-129978665D01*
X67235000Y-129978665D01*
X67235000Y-130261335D01*
X67290147Y-130538574D01*
X67398320Y-130799727D01*
X67555363Y-131034759D01*
X67755241Y-131234637D01*
X67990273Y-131391680D01*
X68251426Y-131499853D01*
X68528665Y-131555000D01*
X68811335Y-131555000D01*
X69057233Y-131506087D01*
X68906614Y-131586595D01*
X68772038Y-131697038D01*
X68661595Y-131831614D01*
X68579528Y-131985150D01*
X68528992Y-132151746D01*
X68511928Y-132325000D01*
X68511928Y-133675000D01*
X68528992Y-133848254D01*
X68579528Y-134014850D01*
X68661595Y-134168386D01*
X68772038Y-134302962D01*
X68906614Y-134413405D01*
X69060150Y-134495472D01*
X69226746Y-134546008D01*
X69400000Y-134563072D01*
X70600000Y-134563072D01*
X70773254Y-134546008D01*
X70939850Y-134495472D01*
X71093386Y-134413405D01*
X71227962Y-134302962D01*
X71338405Y-134168386D01*
X71392777Y-134066663D01*
X71444866Y-134130134D01*
X71670987Y-134315706D01*
X71928967Y-134453599D01*
X72208890Y-134538513D01*
X72500000Y-134567185D01*
X72791111Y-134538513D01*
X73071034Y-134453599D01*
X73329014Y-134315706D01*
X73555134Y-134130134D01*
X73740706Y-133904013D01*
X73878599Y-133646033D01*
X73963513Y-133366110D01*
X73985000Y-133147949D01*
X73985000Y-132852050D01*
X73963513Y-132633889D01*
X73878599Y-132353966D01*
X73863117Y-132325000D01*
X77011928Y-132325000D01*
X77011928Y-133675000D01*
X77028992Y-133848254D01*
X77079528Y-134014850D01*
X77161595Y-134168386D01*
X77272038Y-134302962D01*
X77406614Y-134413405D01*
X77560150Y-134495472D01*
X77726746Y-134546008D01*
X77900000Y-134563072D01*
X79100000Y-134563072D01*
X79273254Y-134546008D01*
X79439850Y-134495472D01*
X79593386Y-134413405D01*
X79727962Y-134302962D01*
X79838405Y-134168386D01*
X79892777Y-134066663D01*
X79944866Y-134130134D01*
X80170987Y-134315706D01*
X80428967Y-134453599D01*
X80708890Y-134538513D01*
X81000000Y-134567185D01*
X81291111Y-134538513D01*
X81571034Y-134453599D01*
X81829014Y-134315706D01*
X82055134Y-134130134D01*
X82240706Y-133904013D01*
X82378599Y-133646033D01*
X82463513Y-133366110D01*
X82485000Y-133147949D01*
X82485000Y-132852050D01*
X82463513Y-132633889D01*
X82378599Y-132353966D01*
X82240706Y-132095986D01*
X82055134Y-131869866D01*
X81829013Y-131684294D01*
X81571033Y-131546401D01*
X81291110Y-131461487D01*
X81000000Y-131432815D01*
X80708889Y-131461487D01*
X80428966Y-131546401D01*
X80170986Y-131684294D01*
X79944866Y-131869866D01*
X79892777Y-131933337D01*
X79838405Y-131831614D01*
X79727962Y-131697038D01*
X79593386Y-131586595D01*
X79439850Y-131504528D01*
X79273254Y-131453992D01*
X79100000Y-131436928D01*
X77900000Y-131436928D01*
X77726746Y-131453992D01*
X77560150Y-131504528D01*
X77406614Y-131586595D01*
X77272038Y-131697038D01*
X77161595Y-131831614D01*
X77079528Y-131985150D01*
X77028992Y-132151746D01*
X77011928Y-132325000D01*
X73863117Y-132325000D01*
X73740706Y-132095986D01*
X73555134Y-131869866D01*
X73329013Y-131684294D01*
X73071033Y-131546401D01*
X72791110Y-131461487D01*
X72500000Y-131432815D01*
X72208889Y-131461487D01*
X71928966Y-131546401D01*
X71670986Y-131684294D01*
X71444866Y-131869866D01*
X71392777Y-131933337D01*
X71338405Y-131831614D01*
X71227962Y-131697038D01*
X71093386Y-131586595D01*
X70939850Y-131504528D01*
X70773254Y-131453992D01*
X70600000Y-131436928D01*
X69400000Y-131436928D01*
X69226746Y-131453992D01*
X69124177Y-131485106D01*
X69349727Y-131391680D01*
X69584759Y-131234637D01*
X69784637Y-131034759D01*
X69941680Y-130799727D01*
X70049853Y-130538574D01*
X70105000Y-130261335D01*
X70105000Y-129978665D01*
X72315000Y-129978665D01*
X72315000Y-130261335D01*
X72370147Y-130538574D01*
X72478320Y-130799727D01*
X72635363Y-131034759D01*
X72835241Y-131234637D01*
X73070273Y-131391680D01*
X73331426Y-131499853D01*
X73608665Y-131555000D01*
X73891335Y-131555000D01*
X74168574Y-131499853D01*
X74429727Y-131391680D01*
X74664759Y-131234637D01*
X74864637Y-131034759D01*
X75021680Y-130799727D01*
X75129853Y-130538574D01*
X75185000Y-130261335D01*
X75185000Y-129978665D01*
X75181022Y-129958665D01*
X75735000Y-129958665D01*
X75735000Y-130241335D01*
X75790147Y-130518574D01*
X75898320Y-130779727D01*
X76055363Y-131014759D01*
X76255241Y-131214637D01*
X76490273Y-131371680D01*
X76751426Y-131479853D01*
X77028665Y-131535000D01*
X77311335Y-131535000D01*
X77588574Y-131479853D01*
X77849727Y-131371680D01*
X78084759Y-131214637D01*
X78284637Y-131014759D01*
X78441680Y-130779727D01*
X78549853Y-130518574D01*
X78605000Y-130241335D01*
X78605000Y-129958665D01*
X78549853Y-129681426D01*
X78441680Y-129420273D01*
X78284637Y-129185241D01*
X78084759Y-128985363D01*
X77849727Y-128828320D01*
X77588574Y-128720147D01*
X77311335Y-128665000D01*
X77028665Y-128665000D01*
X76751426Y-128720147D01*
X76490273Y-128828320D01*
X76255241Y-128985363D01*
X76055363Y-129185241D01*
X75898320Y-129420273D01*
X75790147Y-129681426D01*
X75735000Y-129958665D01*
X75181022Y-129958665D01*
X75129853Y-129701426D01*
X75021680Y-129440273D01*
X74864637Y-129205241D01*
X74664759Y-129005363D01*
X74429727Y-128848320D01*
X74168574Y-128740147D01*
X73891335Y-128685000D01*
X73608665Y-128685000D01*
X73331426Y-128740147D01*
X73070273Y-128848320D01*
X72835241Y-129005363D01*
X72635363Y-129205241D01*
X72478320Y-129440273D01*
X72370147Y-129701426D01*
X72315000Y-129978665D01*
X70105000Y-129978665D01*
X70049853Y-129701426D01*
X69941680Y-129440273D01*
X69784637Y-129205241D01*
X69584759Y-129005363D01*
X69349727Y-128848320D01*
X69088574Y-128740147D01*
X68811335Y-128685000D01*
X68528665Y-128685000D01*
X68251426Y-128740147D01*
X67990273Y-128848320D01*
X67755241Y-129005363D01*
X67555363Y-129205241D01*
X67398320Y-129440273D01*
X67290147Y-129701426D01*
X67235000Y-129978665D01*
X66685000Y-129978665D01*
X66629853Y-129701426D01*
X66521680Y-129440273D01*
X66364637Y-129205241D01*
X66164759Y-129005363D01*
X65929727Y-128848320D01*
X65668574Y-128740147D01*
X65391335Y-128685000D01*
X65108665Y-128685000D01*
X64831426Y-128740147D01*
X64570273Y-128848320D01*
X64335241Y-129005363D01*
X64135363Y-129205241D01*
X63978320Y-129440273D01*
X63870147Y-129701426D01*
X63815000Y-129978665D01*
X61605000Y-129978665D01*
X61549853Y-129701426D01*
X61441680Y-129440273D01*
X61284637Y-129205241D01*
X61084759Y-129005363D01*
X60849727Y-128848320D01*
X60636503Y-128760000D01*
X61462678Y-128760000D01*
X61500000Y-128763676D01*
X61537322Y-128760000D01*
X61537333Y-128760000D01*
X61648986Y-128749003D01*
X61792247Y-128705546D01*
X61924276Y-128634974D01*
X62040001Y-128540001D01*
X62063804Y-128510997D01*
X64346005Y-126228797D01*
X64375002Y-126205000D01*
X64405986Y-126167246D01*
X64469975Y-126089276D01*
X64540547Y-125957246D01*
X64565495Y-125875001D01*
X64584004Y-125813985D01*
X64595001Y-125702332D01*
X64595001Y-125702323D01*
X64598677Y-125665000D01*
X64595001Y-125627677D01*
X64595001Y-123938072D01*
X66050000Y-123938072D01*
X66174482Y-123925812D01*
X66294180Y-123889502D01*
X66404494Y-123830537D01*
X66501185Y-123751185D01*
X66580537Y-123654494D01*
X66639502Y-123544180D01*
X66675812Y-123424482D01*
X66688072Y-123300000D01*
X66688072Y-121945626D01*
X66719824Y-121942499D01*
X67347692Y-121942499D01*
X67290147Y-122081426D01*
X67235000Y-122358665D01*
X67235000Y-122641335D01*
X67290147Y-122918574D01*
X67398320Y-123179727D01*
X67555363Y-123414759D01*
X67755241Y-123614637D01*
X67990273Y-123771680D01*
X68251426Y-123879853D01*
X68528665Y-123935000D01*
X68811335Y-123935000D01*
X69088574Y-123879853D01*
X69115000Y-123868907D01*
X69115000Y-124903841D01*
X68984744Y-124957795D01*
X68815226Y-125071063D01*
X68671063Y-125215226D01*
X68557795Y-125384744D01*
X68479774Y-125573102D01*
X68440000Y-125773061D01*
X68440000Y-125976939D01*
X68479774Y-126176898D01*
X68557795Y-126365256D01*
X68671063Y-126534774D01*
X68815226Y-126678937D01*
X68984744Y-126792205D01*
X69173102Y-126870226D01*
X69373061Y-126910000D01*
X69576939Y-126910000D01*
X69776898Y-126870226D01*
X69965256Y-126792205D01*
X70134774Y-126678937D01*
X70278937Y-126534774D01*
X70392205Y-126365256D01*
X70470226Y-126176898D01*
X70510000Y-125976939D01*
X70510000Y-125899226D01*
X70564074Y-125798061D01*
X76915000Y-125798061D01*
X76915000Y-126001939D01*
X76954774Y-126201898D01*
X77032795Y-126390256D01*
X77146063Y-126559774D01*
X77290226Y-126703937D01*
X77459744Y-126817205D01*
X77648102Y-126895226D01*
X77848061Y-126935000D01*
X78051939Y-126935000D01*
X78251898Y-126895226D01*
X78440256Y-126817205D01*
X78609774Y-126703937D01*
X78653711Y-126660000D01*
X80185199Y-126660000D01*
X81465000Y-127939802D01*
X81465000Y-128001939D01*
X81504774Y-128201898D01*
X81582795Y-128390256D01*
X81696063Y-128559774D01*
X81840226Y-128703937D01*
X81856902Y-128715079D01*
X81831426Y-128720147D01*
X81570273Y-128828320D01*
X81335241Y-128985363D01*
X81135363Y-129185241D01*
X80978320Y-129420273D01*
X80870147Y-129681426D01*
X80815000Y-129958665D01*
X80815000Y-130241335D01*
X80870147Y-130518574D01*
X80978320Y-130779727D01*
X81135363Y-131014759D01*
X81335241Y-131214637D01*
X81570273Y-131371680D01*
X81831426Y-131479853D01*
X82108665Y-131535000D01*
X82391335Y-131535000D01*
X82668574Y-131479853D01*
X82929727Y-131371680D01*
X83164759Y-131214637D01*
X83364637Y-131014759D01*
X83521680Y-130779727D01*
X83629853Y-130518574D01*
X83685000Y-130241335D01*
X83685000Y-129958665D01*
X83629853Y-129681426D01*
X83521680Y-129420273D01*
X83474726Y-129350000D01*
X86436928Y-129350000D01*
X86449188Y-129474482D01*
X86485498Y-129594180D01*
X86544463Y-129704494D01*
X86623815Y-129801185D01*
X86720506Y-129880537D01*
X86830820Y-129939502D01*
X86950518Y-129975812D01*
X87075000Y-129988072D01*
X87714250Y-129985000D01*
X87873000Y-129826250D01*
X87873000Y-128627000D01*
X86598750Y-128627000D01*
X86440000Y-128785750D01*
X86436928Y-129350000D01*
X83474726Y-129350000D01*
X83364637Y-129185241D01*
X83164759Y-128985363D01*
X82942622Y-128836936D01*
X82990256Y-128817205D01*
X83159774Y-128703937D01*
X83303937Y-128559774D01*
X83417205Y-128390256D01*
X83495226Y-128201898D01*
X83535000Y-128001939D01*
X83535000Y-127798061D01*
X83495226Y-127598102D01*
X83417205Y-127409744D01*
X83303937Y-127240226D01*
X83159774Y-127096063D01*
X82990256Y-126982795D01*
X82801898Y-126904774D01*
X82601939Y-126865000D01*
X82539802Y-126865000D01*
X81063804Y-125389003D01*
X81040001Y-125359999D01*
X80924276Y-125265026D01*
X80792247Y-125194454D01*
X80648986Y-125150997D01*
X80537333Y-125140000D01*
X80537322Y-125140000D01*
X80500000Y-125136324D01*
X80462678Y-125140000D01*
X78653711Y-125140000D01*
X78609774Y-125096063D01*
X78440256Y-124982795D01*
X78251898Y-124904774D01*
X78051939Y-124865000D01*
X77848061Y-124865000D01*
X77648102Y-124904774D01*
X77459744Y-124982795D01*
X77290226Y-125096063D01*
X77146063Y-125240226D01*
X77032795Y-125409744D01*
X76954774Y-125598102D01*
X76915000Y-125798061D01*
X70564074Y-125798061D01*
X70580545Y-125767248D01*
X70624002Y-125623987D01*
X70634999Y-125512334D01*
X70634999Y-125512324D01*
X70638675Y-125475002D01*
X70634999Y-125437679D01*
X70634999Y-123807803D01*
X70726913Y-123851246D01*
X70860961Y-123891904D01*
X71083000Y-123769915D01*
X71083000Y-122627000D01*
X71063000Y-122627000D01*
X71063000Y-122373000D01*
X71083000Y-122373000D01*
X71083000Y-121230085D01*
X70860961Y-121108096D01*
X70726913Y-121148754D01*
X70472580Y-121268963D01*
X70303843Y-121394039D01*
X69581304Y-120671501D01*
X69557502Y-120642498D01*
X69441777Y-120547525D01*
X69309748Y-120476953D01*
X69166487Y-120433496D01*
X69054834Y-120422499D01*
X69054823Y-120422499D01*
X69017501Y-120418823D01*
X68980179Y-120422499D01*
X66997301Y-120422499D01*
X66882874Y-120308072D01*
X67910001Y-120308072D01*
X68083255Y-120291008D01*
X68249851Y-120240472D01*
X68403387Y-120158405D01*
X68537962Y-120047962D01*
X68648405Y-119913387D01*
X68719702Y-119780000D01*
X69214351Y-119780000D01*
X69261595Y-119868387D01*
X69372038Y-120002962D01*
X69506613Y-120113405D01*
X69660149Y-120195472D01*
X69826745Y-120246008D01*
X69999999Y-120263072D01*
X70800001Y-120263072D01*
X70973255Y-120246008D01*
X71139851Y-120195472D01*
X71293387Y-120113405D01*
X71427962Y-120002962D01*
X71428052Y-120002853D01*
X72436201Y-121011003D01*
X72459999Y-121040001D01*
X72488997Y-121063799D01*
X72575723Y-121134974D01*
X72617876Y-121157506D01*
X72595506Y-121169463D01*
X72498815Y-121248815D01*
X72419463Y-121345506D01*
X72360498Y-121455820D01*
X72324188Y-121575518D01*
X72321769Y-121600080D01*
X72173414Y-121436481D01*
X71947420Y-121268963D01*
X71693087Y-121148754D01*
X71559039Y-121108096D01*
X71337000Y-121230085D01*
X71337000Y-122373000D01*
X71357000Y-122373000D01*
X71357000Y-122627000D01*
X71337000Y-122627000D01*
X71337000Y-123769915D01*
X71559039Y-123891904D01*
X71693087Y-123851246D01*
X71947420Y-123731037D01*
X72173414Y-123563519D01*
X72321769Y-123399920D01*
X72324188Y-123424482D01*
X72360498Y-123544180D01*
X72419463Y-123654494D01*
X72498815Y-123751185D01*
X72595506Y-123830537D01*
X72705820Y-123889502D01*
X72825518Y-123925812D01*
X72950000Y-123938072D01*
X74550000Y-123938072D01*
X74674482Y-123925812D01*
X74794180Y-123889502D01*
X74904494Y-123830537D01*
X75001185Y-123751185D01*
X75080537Y-123654494D01*
X75139502Y-123544180D01*
X75175812Y-123424482D01*
X75188072Y-123300000D01*
X75188072Y-121700000D01*
X75175812Y-121575518D01*
X75139502Y-121455820D01*
X75080537Y-121345506D01*
X75010364Y-121260000D01*
X76412928Y-121260000D01*
X76255241Y-121365363D01*
X76055363Y-121565241D01*
X75898320Y-121800273D01*
X75790147Y-122061426D01*
X75735000Y-122338665D01*
X75735000Y-122621335D01*
X75790147Y-122898574D01*
X75898320Y-123159727D01*
X76055363Y-123394759D01*
X76255241Y-123594637D01*
X76490273Y-123751680D01*
X76751426Y-123859853D01*
X77028665Y-123915000D01*
X77311335Y-123915000D01*
X77588574Y-123859853D01*
X77849727Y-123751680D01*
X78084759Y-123594637D01*
X78284637Y-123394759D01*
X78441680Y-123159727D01*
X78446067Y-123149135D01*
X78557615Y-123335131D01*
X78746586Y-123543519D01*
X78972580Y-123711037D01*
X79226913Y-123831246D01*
X79360961Y-123871904D01*
X79583000Y-123749915D01*
X79583000Y-122607000D01*
X79563000Y-122607000D01*
X79563000Y-122353000D01*
X79583000Y-122353000D01*
X79583000Y-122333000D01*
X79837000Y-122333000D01*
X79837000Y-122353000D01*
X79857000Y-122353000D01*
X79857000Y-122607000D01*
X79837000Y-122607000D01*
X79837000Y-123749915D01*
X80059039Y-123871904D01*
X80193087Y-123831246D01*
X80447420Y-123711037D01*
X80673414Y-123543519D01*
X80821769Y-123379920D01*
X80824188Y-123404482D01*
X80860498Y-123524180D01*
X80919463Y-123634494D01*
X80998815Y-123731185D01*
X81095506Y-123810537D01*
X81205820Y-123869502D01*
X81325518Y-123905812D01*
X81450000Y-123918072D01*
X83050000Y-123918072D01*
X83174482Y-123905812D01*
X83294180Y-123869502D01*
X83404494Y-123810537D01*
X83501185Y-123731185D01*
X83580537Y-123634494D01*
X83639502Y-123524180D01*
X83675812Y-123404482D01*
X83688072Y-123280000D01*
X83688072Y-121680000D01*
X83675812Y-121555518D01*
X83639502Y-121435820D01*
X83580537Y-121325506D01*
X83501185Y-121228815D01*
X83404494Y-121149463D01*
X83294180Y-121090498D01*
X83174482Y-121054188D01*
X83050000Y-121041928D01*
X82582679Y-121041928D01*
X82617205Y-120990256D01*
X82695226Y-120801898D01*
X82735000Y-120601939D01*
X82735000Y-120398061D01*
X82695226Y-120198102D01*
X82617205Y-120009744D01*
X82503937Y-119840226D01*
X82359774Y-119696063D01*
X82190256Y-119582795D01*
X82001898Y-119504774D01*
X81801939Y-119465000D01*
X81609802Y-119465000D01*
X81611004Y-119463798D01*
X81640001Y-119440001D01*
X81734974Y-119324276D01*
X81805546Y-119192247D01*
X81849003Y-119048986D01*
X81860000Y-118937333D01*
X81860000Y-118937325D01*
X81863676Y-118900000D01*
X81860000Y-118862675D01*
X81860000Y-118460000D01*
X85485199Y-118460000D01*
X86924899Y-119899701D01*
X86869866Y-119944866D01*
X86684294Y-120170986D01*
X86546401Y-120428966D01*
X86461487Y-120708889D01*
X86432815Y-121000000D01*
X86461487Y-121291111D01*
X86546401Y-121571034D01*
X86684294Y-121829014D01*
X86869866Y-122055134D01*
X87095986Y-122240706D01*
X87113374Y-122250000D01*
X87095986Y-122259294D01*
X86869866Y-122444866D01*
X86684294Y-122670986D01*
X86546401Y-122928966D01*
X86461487Y-123208889D01*
X86432815Y-123500000D01*
X86461487Y-123791111D01*
X86546401Y-124071034D01*
X86684294Y-124329014D01*
X86869866Y-124555134D01*
X87095986Y-124740706D01*
X87113374Y-124750000D01*
X87095986Y-124759294D01*
X86869866Y-124944866D01*
X86684294Y-125170986D01*
X86546401Y-125428966D01*
X86461487Y-125708889D01*
X86432815Y-126000000D01*
X86461487Y-126291111D01*
X86546401Y-126571034D01*
X86684294Y-126829014D01*
X86865608Y-127049945D01*
X86830820Y-127060498D01*
X86720506Y-127119463D01*
X86623815Y-127198815D01*
X86544463Y-127295506D01*
X86485498Y-127405820D01*
X86449188Y-127525518D01*
X86436928Y-127650000D01*
X86440000Y-128214250D01*
X86598750Y-128373000D01*
X87873000Y-128373000D01*
X87873000Y-128353000D01*
X88127000Y-128353000D01*
X88127000Y-128373000D01*
X88147000Y-128373000D01*
X88147000Y-128627000D01*
X88127000Y-128627000D01*
X88127000Y-129826250D01*
X88285750Y-129985000D01*
X88590012Y-129986462D01*
X88590012Y-133104407D01*
X88366111Y-133036487D01*
X88147950Y-133015000D01*
X87852050Y-133015000D01*
X87633889Y-133036487D01*
X87353966Y-133121401D01*
X87095986Y-133259294D01*
X86869866Y-133444866D01*
X86684294Y-133670986D01*
X86546401Y-133928966D01*
X86461487Y-134208889D01*
X86432815Y-134500000D01*
X86461487Y-134791111D01*
X86546401Y-135071034D01*
X86684294Y-135329014D01*
X86865608Y-135549945D01*
X86830820Y-135560498D01*
X86720506Y-135619463D01*
X86623815Y-135698815D01*
X86544463Y-135795506D01*
X86485498Y-135905820D01*
X86449188Y-136025518D01*
X86436928Y-136150000D01*
X86440000Y-136714250D01*
X86598750Y-136873000D01*
X87873000Y-136873000D01*
X87873000Y-136853000D01*
X88127000Y-136853000D01*
X88127000Y-136873000D01*
X89401250Y-136873000D01*
X89560000Y-136714250D01*
X89563072Y-136150000D01*
X89550812Y-136025518D01*
X89514502Y-135905820D01*
X89455537Y-135795506D01*
X89376185Y-135698815D01*
X89279494Y-135619463D01*
X89169180Y-135560498D01*
X89134392Y-135549945D01*
X89315706Y-135329014D01*
X89365146Y-135236517D01*
X89467247Y-135205546D01*
X89599276Y-135134974D01*
X89715001Y-135040001D01*
X89738804Y-135010997D01*
X89861008Y-134888793D01*
X89890012Y-134864990D01*
X89984985Y-134749265D01*
X90055557Y-134617236D01*
X90099014Y-134473975D01*
X90110011Y-134362322D01*
X90110011Y-134362312D01*
X90113687Y-134324989D01*
X90110011Y-134287666D01*
X90110011Y-123101201D01*
X90211018Y-123000194D01*
X90240022Y-122976391D01*
X90334995Y-122860666D01*
X90405567Y-122728637D01*
X90449024Y-122585376D01*
X90460021Y-122473723D01*
X90460021Y-122473715D01*
X90463697Y-122436392D01*
X90460021Y-122399069D01*
X90460021Y-120300932D01*
X90463697Y-120263609D01*
X90460021Y-120226286D01*
X90460021Y-120226277D01*
X90449024Y-120114624D01*
X90405567Y-119971363D01*
X90334995Y-119839334D01*
X90298163Y-119794454D01*
X90263820Y-119752606D01*
X90263816Y-119752602D01*
X90240022Y-119723609D01*
X90211030Y-119699816D01*
X89351367Y-118840154D01*
X89416088Y-118817795D01*
X89590044Y-118724814D01*
X89685808Y-118460413D01*
X88730000Y-117504605D01*
X88715858Y-117518748D01*
X88536253Y-117339143D01*
X88550395Y-117325000D01*
X88536253Y-117310858D01*
X88709048Y-117138062D01*
X88710000Y-117138072D01*
X88721540Y-117136935D01*
X88730000Y-117145395D01*
X88740308Y-117135087D01*
X88747289Y-117134399D01*
X88881655Y-117268765D01*
X88884188Y-117294482D01*
X88920498Y-117414180D01*
X88979463Y-117524494D01*
X89058815Y-117621185D01*
X89155506Y-117700537D01*
X89265820Y-117759502D01*
X89378196Y-117793591D01*
X89865413Y-118280808D01*
X90129814Y-118185044D01*
X90270704Y-117895429D01*
X90293864Y-117807093D01*
X91504820Y-117805580D01*
X91559081Y-117958747D01*
X91632528Y-118096157D01*
X91881603Y-118173792D01*
X92395573Y-117659823D01*
X92540750Y-117805000D01*
X92609519Y-117805086D01*
X92061208Y-118353397D01*
X92138843Y-118602472D01*
X92402883Y-118728371D01*
X92686411Y-118800339D01*
X92978531Y-118815611D01*
X93268019Y-118773599D01*
X93543747Y-118675919D01*
X93681157Y-118602472D01*
X93758792Y-118353397D01*
X93211233Y-117805838D01*
X93570892Y-117806287D01*
X93938397Y-118173792D01*
X94187472Y-118096157D01*
X94313371Y-117832117D01*
X94315001Y-117825697D01*
X94315001Y-138966485D01*
X94305778Y-139060546D01*
X94288194Y-139118787D01*
X94259635Y-139172500D01*
X94221183Y-139219646D01*
X94174310Y-139258423D01*
X94120796Y-139287358D01*
X94062677Y-139305349D01*
X93970855Y-139315000D01*
X51033505Y-139315000D01*
X50939454Y-139305778D01*
X50881213Y-139288194D01*
X50827500Y-139259635D01*
X50780354Y-139221183D01*
X50741577Y-139174310D01*
X50712642Y-139120796D01*
X50694651Y-139062677D01*
X50685000Y-138970855D01*
X50685000Y-137850000D01*
X86436928Y-137850000D01*
X86449188Y-137974482D01*
X86485498Y-138094180D01*
X86544463Y-138204494D01*
X86623815Y-138301185D01*
X86720506Y-138380537D01*
X86830820Y-138439502D01*
X86950518Y-138475812D01*
X87075000Y-138488072D01*
X87714250Y-138485000D01*
X87873000Y-138326250D01*
X87873000Y-137127000D01*
X88127000Y-137127000D01*
X88127000Y-138326250D01*
X88285750Y-138485000D01*
X88925000Y-138488072D01*
X89049482Y-138475812D01*
X89169180Y-138439502D01*
X89279494Y-138380537D01*
X89376185Y-138301185D01*
X89455537Y-138204494D01*
X89514502Y-138094180D01*
X89550812Y-137974482D01*
X89563072Y-137850000D01*
X89560000Y-137285750D01*
X89401250Y-137127000D01*
X88127000Y-137127000D01*
X87873000Y-137127000D01*
X86598750Y-137127000D01*
X86440000Y-137285750D01*
X86436928Y-137850000D01*
X50685000Y-137850000D01*
X50685000Y-131164396D01*
X50755241Y-131234637D01*
X50990273Y-131391680D01*
X51251426Y-131499853D01*
X51528665Y-131555000D01*
X51811335Y-131555000D01*
X52057233Y-131506087D01*
X51906614Y-131586595D01*
X51772038Y-131697038D01*
X51661595Y-131831614D01*
X51579528Y-131985150D01*
X51528992Y-132151746D01*
X51511928Y-132325000D01*
X51511928Y-133675000D01*
X51528992Y-133848254D01*
X51579528Y-134014850D01*
X51661595Y-134168386D01*
X51772038Y-134302962D01*
X51906614Y-134413405D01*
X52060150Y-134495472D01*
X52226746Y-134546008D01*
X52400000Y-134563072D01*
X53600000Y-134563072D01*
X53773254Y-134546008D01*
X53939850Y-134495472D01*
X54093386Y-134413405D01*
X54227962Y-134302962D01*
X54338405Y-134168386D01*
X54392777Y-134066663D01*
X54444866Y-134130134D01*
X54670987Y-134315706D01*
X54928967Y-134453599D01*
X55208890Y-134538513D01*
X55500000Y-134567185D01*
X55791111Y-134538513D01*
X56071034Y-134453599D01*
X56329014Y-134315706D01*
X56555134Y-134130134D01*
X56740706Y-133904013D01*
X56878599Y-133646033D01*
X56963513Y-133366110D01*
X56985000Y-133147949D01*
X56985000Y-132852050D01*
X56963513Y-132633889D01*
X56878599Y-132353966D01*
X56740706Y-132095986D01*
X56555134Y-131869866D01*
X56329013Y-131684294D01*
X56071033Y-131546401D01*
X55791110Y-131461487D01*
X55500000Y-131432815D01*
X55208889Y-131461487D01*
X54928966Y-131546401D01*
X54670986Y-131684294D01*
X54444866Y-131869866D01*
X54392777Y-131933337D01*
X54338405Y-131831614D01*
X54227962Y-131697038D01*
X54093386Y-131586595D01*
X53939850Y-131504528D01*
X53773254Y-131453992D01*
X53600000Y-131436928D01*
X52400000Y-131436928D01*
X52226746Y-131453992D01*
X52124177Y-131485106D01*
X52349727Y-131391680D01*
X52584759Y-131234637D01*
X52784637Y-131034759D01*
X52941680Y-130799727D01*
X53049853Y-130538574D01*
X53105000Y-130261335D01*
X53105000Y-129978665D01*
X53049853Y-129701426D01*
X52941680Y-129440273D01*
X52784637Y-129205241D01*
X52584759Y-129005363D01*
X52349727Y-128848320D01*
X52088574Y-128740147D01*
X51811335Y-128685000D01*
X51528665Y-128685000D01*
X51251426Y-128740147D01*
X50990273Y-128848320D01*
X50755241Y-129005363D01*
X50685000Y-129075604D01*
X50685000Y-123544396D01*
X50755241Y-123614637D01*
X50990273Y-123771680D01*
X51251426Y-123879853D01*
X51528665Y-123935000D01*
X51811335Y-123935000D01*
X52088574Y-123879853D01*
X52349727Y-123771680D01*
X52584759Y-123614637D01*
X52784637Y-123414759D01*
X52941680Y-123179727D01*
X52946067Y-123169135D01*
X53057615Y-123355131D01*
X53246586Y-123563519D01*
X53472580Y-123731037D01*
X53726913Y-123851246D01*
X53860961Y-123891904D01*
X54083000Y-123769915D01*
X54083000Y-122627000D01*
X54063000Y-122627000D01*
X54063000Y-122373000D01*
X54083000Y-122373000D01*
X54083000Y-121230085D01*
X54337000Y-121230085D01*
X54337000Y-122373000D01*
X54357000Y-122373000D01*
X54357000Y-122627000D01*
X54337000Y-122627000D01*
X54337000Y-123769915D01*
X54559039Y-123891904D01*
X54693087Y-123851246D01*
X54947420Y-123731037D01*
X55173414Y-123563519D01*
X55321769Y-123399920D01*
X55324188Y-123424482D01*
X55360498Y-123544180D01*
X55419463Y-123654494D01*
X55498815Y-123751185D01*
X55595506Y-123830537D01*
X55705820Y-123889502D01*
X55825518Y-123925812D01*
X55950000Y-123938072D01*
X57550000Y-123938072D01*
X57674482Y-123925812D01*
X57794180Y-123889502D01*
X57904494Y-123830537D01*
X58001185Y-123751185D01*
X58080537Y-123654494D01*
X58139502Y-123544180D01*
X58175812Y-123424482D01*
X58188072Y-123300000D01*
X58188072Y-121700000D01*
X58175812Y-121575518D01*
X58139502Y-121455820D01*
X58080537Y-121345506D01*
X58001185Y-121248815D01*
X57904494Y-121169463D01*
X57794180Y-121110498D01*
X57674482Y-121074188D01*
X57550000Y-121061928D01*
X55950000Y-121061928D01*
X55825518Y-121074188D01*
X55705820Y-121110498D01*
X55595506Y-121169463D01*
X55498815Y-121248815D01*
X55419463Y-121345506D01*
X55360498Y-121455820D01*
X55324188Y-121575518D01*
X55321769Y-121600080D01*
X55173414Y-121436481D01*
X54947420Y-121268963D01*
X54693087Y-121148754D01*
X54559039Y-121108096D01*
X54337000Y-121230085D01*
X54083000Y-121230085D01*
X53860961Y-121108096D01*
X53726913Y-121148754D01*
X53472580Y-121268963D01*
X53246586Y-121436481D01*
X53057615Y-121644869D01*
X52946067Y-121830865D01*
X52941680Y-121820273D01*
X52784637Y-121585241D01*
X52584759Y-121385363D01*
X52349727Y-121228320D01*
X52088574Y-121120147D01*
X51811335Y-121065000D01*
X51528665Y-121065000D01*
X51251426Y-121120147D01*
X50990273Y-121228320D01*
X50755241Y-121385363D01*
X50685000Y-121455604D01*
X50685000Y-120250000D01*
X59111928Y-120250000D01*
X59124188Y-120374482D01*
X59160498Y-120494180D01*
X59219463Y-120604494D01*
X59298815Y-120701185D01*
X59395506Y-120780537D01*
X59505820Y-120839502D01*
X59625518Y-120875812D01*
X59750000Y-120888072D01*
X59914250Y-120885000D01*
X60073000Y-120726250D01*
X60073000Y-119977000D01*
X59273750Y-119977000D01*
X59115000Y-120135750D01*
X59111928Y-120250000D01*
X50685000Y-120250000D01*
X50685000Y-100202487D01*
X50704774Y-100301898D01*
G37*
%TD.AperFunction*%
D29*
X92138843Y-109952472D02*
X92382000Y-110068414D01*
X92382000Y-112873000D01*
X92402000Y-112873000D01*
X92402000Y-113127000D01*
X92382000Y-113127000D01*
X92382000Y-115936619D01*
X92276253Y-115974081D01*
X92138843Y-116047528D01*
X92128000Y-116082315D01*
X92128000Y-113127000D01*
X92108000Y-113127000D01*
X92108000Y-112873000D01*
X92128000Y-112873000D01*
X92128000Y-109917685D01*
X92138843Y-109952472D01*
%TA.AperFunction,Conductor*%
D30*
G36*
X92138843Y-109952472D02*
G01*
X92382000Y-110068414D01*
X92382000Y-112873000D01*
X92402000Y-112873000D01*
X92402000Y-113127000D01*
X92382000Y-113127000D01*
X92382000Y-115936619D01*
X92276253Y-115974081D01*
X92138843Y-116047528D01*
X92128000Y-116082315D01*
X92128000Y-113127000D01*
X92108000Y-113127000D01*
X92108000Y-112873000D01*
X92128000Y-112873000D01*
X92128000Y-109917685D01*
X92138843Y-109952472D01*
G37*
%TD.AperFunction*%
D29*
X83865002Y-107610679D02*
X83861326Y-107648002D01*
X83865002Y-107685324D01*
X83865002Y-107685334D01*
X83875999Y-107796987D01*
X83908413Y-107903843D01*
X83919456Y-107940248D01*
X83990028Y-108072278D01*
X84029194Y-108120001D01*
X84085001Y-108188003D01*
X84114005Y-108211806D01*
X86304869Y-110402670D01*
X86219495Y-110488044D01*
X86106227Y-110657562D01*
X86028206Y-110845920D01*
X86018722Y-110893600D01*
X85834754Y-110969803D01*
X85665236Y-111083071D01*
X85521073Y-111227234D01*
X85407805Y-111396752D01*
X85329784Y-111585110D01*
X85290010Y-111785069D01*
X85290010Y-111988947D01*
X85293494Y-112006462D01*
X85213615Y-112072017D01*
X85189819Y-112101013D01*
X84835188Y-112455644D01*
X84773051Y-112455644D01*
X84573092Y-112495418D01*
X84391167Y-112570775D01*
X84303937Y-112440226D01*
X84159774Y-112296063D01*
X83990256Y-112182795D01*
X83801898Y-112104774D01*
X83601939Y-112065000D01*
X83398061Y-112065000D01*
X83198102Y-112104774D01*
X83009744Y-112182795D01*
X82840226Y-112296063D01*
X82696063Y-112440226D01*
X82582795Y-112609744D01*
X82504774Y-112798102D01*
X82465000Y-112998061D01*
X82465000Y-113060198D01*
X80960199Y-114565000D01*
X80196105Y-114565000D01*
X80200812Y-114549482D01*
X80213072Y-114425000D01*
X80213072Y-114225000D01*
X80200812Y-114100518D01*
X80177000Y-114022020D01*
X80177000Y-113750000D01*
X80174560Y-113725224D01*
X80167333Y-113701399D01*
X80155597Y-113679443D01*
X80139803Y-113660197D01*
X80120557Y-113644403D01*
X80098601Y-113632667D01*
X80074776Y-113625440D01*
X80050000Y-113623000D01*
X79845315Y-113623000D01*
X79867194Y-113590256D01*
X79945215Y-113401898D01*
X79984989Y-113201939D01*
X79984989Y-112998061D01*
X79945215Y-112798102D01*
X79867194Y-112609744D01*
X79753926Y-112440226D01*
X79609763Y-112296063D01*
X79440245Y-112182795D01*
X79251887Y-112104774D01*
X79051928Y-112065000D01*
X78848050Y-112065000D01*
X78648091Y-112104774D01*
X78459733Y-112182795D01*
X78290215Y-112296063D01*
X78246278Y-112340000D01*
X78237322Y-112340000D01*
X78199999Y-112336324D01*
X78162676Y-112340000D01*
X78162667Y-112340000D01*
X78051014Y-112350997D01*
X77907753Y-112394454D01*
X77775724Y-112465026D01*
X77659999Y-112559999D01*
X77636196Y-112589003D01*
X77464003Y-112761196D01*
X77434999Y-112784999D01*
X77401337Y-112826017D01*
X77340026Y-112900724D01*
X77277590Y-113017532D01*
X77269454Y-113032754D01*
X77226204Y-113175333D01*
X77212629Y-113176891D01*
X77196481Y-113182156D01*
X77174175Y-113175389D01*
X77037500Y-113161928D01*
X76912500Y-113161928D01*
X76775825Y-113175389D01*
X76725000Y-113190807D01*
X76674175Y-113175389D01*
X76537500Y-113161928D01*
X76412500Y-113161928D01*
X76275825Y-113175389D01*
X76144403Y-113215256D01*
X76023283Y-113279996D01*
X75917121Y-113367121D01*
X75829996Y-113473283D01*
X75765256Y-113594403D01*
X75758384Y-113617056D01*
X75699482Y-113599188D01*
X75575000Y-113586928D01*
X75375000Y-113586928D01*
X75250518Y-113599188D01*
X75172020Y-113623000D01*
X74900000Y-113623000D01*
X74875224Y-113625440D01*
X74851399Y-113632667D01*
X74829443Y-113644403D01*
X74810197Y-113660197D01*
X74794403Y-113679443D01*
X74782667Y-113701399D01*
X74775440Y-113725224D01*
X74773000Y-113750000D01*
X74773000Y-114007323D01*
X73206982Y-112441306D01*
X73183179Y-112412303D01*
X73067454Y-112317330D01*
X72935425Y-112246758D01*
X72792164Y-112203301D01*
X72680511Y-112192304D01*
X72680500Y-112192304D01*
X72643178Y-112188628D01*
X72605856Y-112192304D01*
X71600294Y-112192304D01*
X71562961Y-112188627D01*
X71525628Y-112192304D01*
X71413975Y-112203301D01*
X71270714Y-112246758D01*
X71138685Y-112317330D01*
X71022960Y-112412303D01*
X70999161Y-112441302D01*
X70524473Y-112915991D01*
X70495470Y-112939793D01*
X70445242Y-113000997D01*
X70400497Y-113055518D01*
X70348916Y-113152019D01*
X70329925Y-113187548D01*
X70286468Y-113330809D01*
X70275471Y-113442462D01*
X70275471Y-113442472D01*
X70273900Y-113458422D01*
X70231534Y-113500788D01*
X70118266Y-113670306D01*
X70040245Y-113858664D01*
X70000471Y-114058623D01*
X70000471Y-114125563D01*
X70000365Y-114125563D01*
X69235000Y-113360199D01*
X69235000Y-113298061D01*
X69195226Y-113098102D01*
X69117205Y-112909744D01*
X69003937Y-112740226D01*
X68859774Y-112596063D01*
X68690256Y-112482795D01*
X68501898Y-112404774D01*
X68301939Y-112365000D01*
X68098061Y-112365000D01*
X67898102Y-112404774D01*
X67709744Y-112482795D01*
X67671836Y-112508125D01*
X67559774Y-112396063D01*
X67390256Y-112282795D01*
X67201898Y-112204774D01*
X67001939Y-112165000D01*
X66844990Y-112165000D01*
X66844990Y-107360000D01*
X68488676Y-107360000D01*
X68525998Y-107363676D01*
X68563320Y-107360000D01*
X68563331Y-107360000D01*
X68674984Y-107349003D01*
X68788718Y-107314503D01*
X68765000Y-107433740D01*
X68765000Y-107726260D01*
X68822068Y-108013158D01*
X68934010Y-108283411D01*
X69096525Y-108526632D01*
X69303368Y-108733475D01*
X69477760Y-108850000D01*
X69303368Y-108966525D01*
X69096525Y-109173368D01*
X68934010Y-109416589D01*
X68822068Y-109686842D01*
X68765000Y-109973740D01*
X68765000Y-110266260D01*
X68822068Y-110553158D01*
X68934010Y-110823411D01*
X69096525Y-111066632D01*
X69303368Y-111273475D01*
X69546589Y-111435990D01*
X69816842Y-111547932D01*
X70103740Y-111605000D01*
X70396260Y-111605000D01*
X70683158Y-111547932D01*
X70953411Y-111435990D01*
X71196632Y-111273475D01*
X71403475Y-111066632D01*
X71565990Y-110823411D01*
X71677932Y-110553158D01*
X71735000Y-110266260D01*
X71735000Y-109973740D01*
X71677932Y-109686842D01*
X71565990Y-109416589D01*
X71403475Y-109173368D01*
X71196632Y-108966525D01*
X71022240Y-108850000D01*
X71196632Y-108733475D01*
X71403475Y-108526632D01*
X71528178Y-108340000D01*
X72172678Y-108340000D01*
X72210000Y-108343676D01*
X72247322Y-108340000D01*
X72247333Y-108340000D01*
X72358986Y-108329003D01*
X72502247Y-108285546D01*
X72634276Y-108214974D01*
X72750001Y-108120001D01*
X72773804Y-108090997D01*
X73461776Y-107403026D01*
X73511750Y-107453000D01*
X74623000Y-107453000D01*
X74623000Y-107433000D01*
X74877000Y-107433000D01*
X74877000Y-107453000D01*
X75988250Y-107453000D01*
X76147000Y-107294250D01*
X76150072Y-106818000D01*
X76137812Y-106693518D01*
X76101502Y-106573820D01*
X76042537Y-106463506D01*
X75963185Y-106366815D01*
X75866494Y-106287463D01*
X75756180Y-106228498D01*
X75679176Y-106205139D01*
X75696632Y-106193475D01*
X75903475Y-105986632D01*
X76023348Y-105807230D01*
X80754855Y-105807230D01*
X79652085Y-106910000D01*
X77237322Y-106910000D01*
X77199999Y-106906324D01*
X77162676Y-106910000D01*
X77162667Y-106910000D01*
X77051014Y-106920997D01*
X76907753Y-106964454D01*
X76775724Y-107035026D01*
X76659999Y-107129999D01*
X76636201Y-107158997D01*
X76038224Y-107756974D01*
X75988250Y-107707000D01*
X74877000Y-107707000D01*
X74877000Y-107727000D01*
X74623000Y-107727000D01*
X74623000Y-107707000D01*
X73511750Y-107707000D01*
X73353000Y-107865750D01*
X73349928Y-108342000D01*
X73362188Y-108466482D01*
X73398498Y-108586180D01*
X73457463Y-108696494D01*
X73536815Y-108793185D01*
X73633506Y-108872537D01*
X73743820Y-108931502D01*
X73820824Y-108954861D01*
X73803368Y-108966525D01*
X73596525Y-109173368D01*
X73434010Y-109416589D01*
X73322068Y-109686842D01*
X73265000Y-109973740D01*
X73265000Y-110266260D01*
X73322068Y-110553158D01*
X73434010Y-110823411D01*
X73596525Y-111066632D01*
X73803368Y-111273475D01*
X74046589Y-111435990D01*
X74316842Y-111547932D01*
X74603740Y-111605000D01*
X74896260Y-111605000D01*
X75183158Y-111547932D01*
X75453411Y-111435990D01*
X75696632Y-111273475D01*
X75903475Y-111066632D01*
X76065990Y-110823411D01*
X76177932Y-110553158D01*
X76235000Y-110266260D01*
X76235000Y-109973740D01*
X76191209Y-109753592D01*
X77514802Y-108430000D01*
X79929564Y-108430000D01*
X79966886Y-108433676D01*
X80004208Y-108430000D01*
X80004219Y-108430000D01*
X80115872Y-108419003D01*
X80259133Y-108375546D01*
X80391162Y-108304974D01*
X80506887Y-108210001D01*
X80530690Y-108180997D01*
X80982242Y-107729445D01*
X83801669Y-104910021D01*
X83863805Y-104910021D01*
X83865003Y-104909783D01*
X83865002Y-107610679D01*
%TA.AperFunction,Conductor*%
D30*
G36*
X83865002Y-107610679D02*
G01*
X83861326Y-107648002D01*
X83865002Y-107685324D01*
X83865002Y-107685334D01*
X83875999Y-107796987D01*
X83908413Y-107903843D01*
X83919456Y-107940248D01*
X83990028Y-108072278D01*
X84029194Y-108120001D01*
X84085001Y-108188003D01*
X84114005Y-108211806D01*
X86304869Y-110402670D01*
X86219495Y-110488044D01*
X86106227Y-110657562D01*
X86028206Y-110845920D01*
X86018722Y-110893600D01*
X85834754Y-110969803D01*
X85665236Y-111083071D01*
X85521073Y-111227234D01*
X85407805Y-111396752D01*
X85329784Y-111585110D01*
X85290010Y-111785069D01*
X85290010Y-111988947D01*
X85293494Y-112006462D01*
X85213615Y-112072017D01*
X85189819Y-112101013D01*
X84835188Y-112455644D01*
X84773051Y-112455644D01*
X84573092Y-112495418D01*
X84391167Y-112570775D01*
X84303937Y-112440226D01*
X84159774Y-112296063D01*
X83990256Y-112182795D01*
X83801898Y-112104774D01*
X83601939Y-112065000D01*
X83398061Y-112065000D01*
X83198102Y-112104774D01*
X83009744Y-112182795D01*
X82840226Y-112296063D01*
X82696063Y-112440226D01*
X82582795Y-112609744D01*
X82504774Y-112798102D01*
X82465000Y-112998061D01*
X82465000Y-113060198D01*
X80960199Y-114565000D01*
X80196105Y-114565000D01*
X80200812Y-114549482D01*
X80213072Y-114425000D01*
X80213072Y-114225000D01*
X80200812Y-114100518D01*
X80177000Y-114022020D01*
X80177000Y-113750000D01*
X80174560Y-113725224D01*
X80167333Y-113701399D01*
X80155597Y-113679443D01*
X80139803Y-113660197D01*
X80120557Y-113644403D01*
X80098601Y-113632667D01*
X80074776Y-113625440D01*
X80050000Y-113623000D01*
X79845315Y-113623000D01*
X79867194Y-113590256D01*
X79945215Y-113401898D01*
X79984989Y-113201939D01*
X79984989Y-112998061D01*
X79945215Y-112798102D01*
X79867194Y-112609744D01*
X79753926Y-112440226D01*
X79609763Y-112296063D01*
X79440245Y-112182795D01*
X79251887Y-112104774D01*
X79051928Y-112065000D01*
X78848050Y-112065000D01*
X78648091Y-112104774D01*
X78459733Y-112182795D01*
X78290215Y-112296063D01*
X78246278Y-112340000D01*
X78237322Y-112340000D01*
X78199999Y-112336324D01*
X78162676Y-112340000D01*
X78162667Y-112340000D01*
X78051014Y-112350997D01*
X77907753Y-112394454D01*
X77775724Y-112465026D01*
X77659999Y-112559999D01*
X77636196Y-112589003D01*
X77464003Y-112761196D01*
X77434999Y-112784999D01*
X77401337Y-112826017D01*
X77340026Y-112900724D01*
X77277590Y-113017532D01*
X77269454Y-113032754D01*
X77226204Y-113175333D01*
X77212629Y-113176891D01*
X77196481Y-113182156D01*
X77174175Y-113175389D01*
X77037500Y-113161928D01*
X76912500Y-113161928D01*
X76775825Y-113175389D01*
X76725000Y-113190807D01*
X76674175Y-113175389D01*
X76537500Y-113161928D01*
X76412500Y-113161928D01*
X76275825Y-113175389D01*
X76144403Y-113215256D01*
X76023283Y-113279996D01*
X75917121Y-113367121D01*
X75829996Y-113473283D01*
X75765256Y-113594403D01*
X75758384Y-113617056D01*
X75699482Y-113599188D01*
X75575000Y-113586928D01*
X75375000Y-113586928D01*
X75250518Y-113599188D01*
X75172020Y-113623000D01*
X74900000Y-113623000D01*
X74875224Y-113625440D01*
X74851399Y-113632667D01*
X74829443Y-113644403D01*
X74810197Y-113660197D01*
X74794403Y-113679443D01*
X74782667Y-113701399D01*
X74775440Y-113725224D01*
X74773000Y-113750000D01*
X74773000Y-114007323D01*
X73206982Y-112441306D01*
X73183179Y-112412303D01*
X73067454Y-112317330D01*
X72935425Y-112246758D01*
X72792164Y-112203301D01*
X72680511Y-112192304D01*
X72680500Y-112192304D01*
X72643178Y-112188628D01*
X72605856Y-112192304D01*
X71600294Y-112192304D01*
X71562961Y-112188627D01*
X71525628Y-112192304D01*
X71413975Y-112203301D01*
X71270714Y-112246758D01*
X71138685Y-112317330D01*
X71022960Y-112412303D01*
X70999161Y-112441302D01*
X70524473Y-112915991D01*
X70495470Y-112939793D01*
X70445242Y-113000997D01*
X70400497Y-113055518D01*
X70348916Y-113152019D01*
X70329925Y-113187548D01*
X70286468Y-113330809D01*
X70275471Y-113442462D01*
X70275471Y-113442472D01*
X70273900Y-113458422D01*
X70231534Y-113500788D01*
X70118266Y-113670306D01*
X70040245Y-113858664D01*
X70000471Y-114058623D01*
X70000471Y-114125563D01*
X70000365Y-114125563D01*
X69235000Y-113360199D01*
X69235000Y-113298061D01*
X69195226Y-113098102D01*
X69117205Y-112909744D01*
X69003937Y-112740226D01*
X68859774Y-112596063D01*
X68690256Y-112482795D01*
X68501898Y-112404774D01*
X68301939Y-112365000D01*
X68098061Y-112365000D01*
X67898102Y-112404774D01*
X67709744Y-112482795D01*
X67671836Y-112508125D01*
X67559774Y-112396063D01*
X67390256Y-112282795D01*
X67201898Y-112204774D01*
X67001939Y-112165000D01*
X66844990Y-112165000D01*
X66844990Y-107360000D01*
X68488676Y-107360000D01*
X68525998Y-107363676D01*
X68563320Y-107360000D01*
X68563331Y-107360000D01*
X68674984Y-107349003D01*
X68788718Y-107314503D01*
X68765000Y-107433740D01*
X68765000Y-107726260D01*
X68822068Y-108013158D01*
X68934010Y-108283411D01*
X69096525Y-108526632D01*
X69303368Y-108733475D01*
X69477760Y-108850000D01*
X69303368Y-108966525D01*
X69096525Y-109173368D01*
X68934010Y-109416589D01*
X68822068Y-109686842D01*
X68765000Y-109973740D01*
X68765000Y-110266260D01*
X68822068Y-110553158D01*
X68934010Y-110823411D01*
X69096525Y-111066632D01*
X69303368Y-111273475D01*
X69546589Y-111435990D01*
X69816842Y-111547932D01*
X70103740Y-111605000D01*
X70396260Y-111605000D01*
X70683158Y-111547932D01*
X70953411Y-111435990D01*
X71196632Y-111273475D01*
X71403475Y-111066632D01*
X71565990Y-110823411D01*
X71677932Y-110553158D01*
X71735000Y-110266260D01*
X71735000Y-109973740D01*
X71677932Y-109686842D01*
X71565990Y-109416589D01*
X71403475Y-109173368D01*
X71196632Y-108966525D01*
X71022240Y-108850000D01*
X71196632Y-108733475D01*
X71403475Y-108526632D01*
X71528178Y-108340000D01*
X72172678Y-108340000D01*
X72210000Y-108343676D01*
X72247322Y-108340000D01*
X72247333Y-108340000D01*
X72358986Y-108329003D01*
X72502247Y-108285546D01*
X72634276Y-108214974D01*
X72750001Y-108120001D01*
X72773804Y-108090997D01*
X73461776Y-107403026D01*
X73511750Y-107453000D01*
X74623000Y-107453000D01*
X74623000Y-107433000D01*
X74877000Y-107433000D01*
X74877000Y-107453000D01*
X75988250Y-107453000D01*
X76147000Y-107294250D01*
X76150072Y-106818000D01*
X76137812Y-106693518D01*
X76101502Y-106573820D01*
X76042537Y-106463506D01*
X75963185Y-106366815D01*
X75866494Y-106287463D01*
X75756180Y-106228498D01*
X75679176Y-106205139D01*
X75696632Y-106193475D01*
X75903475Y-105986632D01*
X76023348Y-105807230D01*
X80754855Y-105807230D01*
X79652085Y-106910000D01*
X77237322Y-106910000D01*
X77199999Y-106906324D01*
X77162676Y-106910000D01*
X77162667Y-106910000D01*
X77051014Y-106920997D01*
X76907753Y-106964454D01*
X76775724Y-107035026D01*
X76659999Y-107129999D01*
X76636201Y-107158997D01*
X76038224Y-107756974D01*
X75988250Y-107707000D01*
X74877000Y-107707000D01*
X74877000Y-107727000D01*
X74623000Y-107727000D01*
X74623000Y-107707000D01*
X73511750Y-107707000D01*
X73353000Y-107865750D01*
X73349928Y-108342000D01*
X73362188Y-108466482D01*
X73398498Y-108586180D01*
X73457463Y-108696494D01*
X73536815Y-108793185D01*
X73633506Y-108872537D01*
X73743820Y-108931502D01*
X73820824Y-108954861D01*
X73803368Y-108966525D01*
X73596525Y-109173368D01*
X73434010Y-109416589D01*
X73322068Y-109686842D01*
X73265000Y-109973740D01*
X73265000Y-110266260D01*
X73322068Y-110553158D01*
X73434010Y-110823411D01*
X73596525Y-111066632D01*
X73803368Y-111273475D01*
X74046589Y-111435990D01*
X74316842Y-111547932D01*
X74603740Y-111605000D01*
X74896260Y-111605000D01*
X75183158Y-111547932D01*
X75453411Y-111435990D01*
X75696632Y-111273475D01*
X75903475Y-111066632D01*
X76065990Y-110823411D01*
X76177932Y-110553158D01*
X76235000Y-110266260D01*
X76235000Y-109973740D01*
X76191209Y-109753592D01*
X77514802Y-108430000D01*
X79929564Y-108430000D01*
X79966886Y-108433676D01*
X80004208Y-108430000D01*
X80004219Y-108430000D01*
X80115872Y-108419003D01*
X80259133Y-108375546D01*
X80391162Y-108304974D01*
X80506887Y-108210001D01*
X80530690Y-108180997D01*
X80982242Y-107729445D01*
X83801669Y-104910021D01*
X83863805Y-104910021D01*
X83865003Y-104909783D01*
X83865002Y-107610679D01*
G37*
%TD.AperFunction*%
D29*
X94060547Y-95694222D02*
X94118786Y-95711805D01*
X94172501Y-95740366D01*
X94219646Y-95778816D01*
X94258424Y-95825691D01*
X94287358Y-95879204D01*
X94305349Y-95937323D01*
X94315000Y-96029145D01*
X94315000Y-108192784D01*
X94314601Y-108192784D01*
X94260919Y-108041253D01*
X94187472Y-107903843D01*
X93938397Y-107826208D01*
X93570892Y-108193713D01*
X93211233Y-108194162D01*
X93758792Y-107646603D01*
X93681157Y-107397528D01*
X93417117Y-107271629D01*
X93133589Y-107199661D01*
X92841469Y-107184389D01*
X92551981Y-107226401D01*
X92276253Y-107324081D01*
X92138843Y-107397528D01*
X92061208Y-107646603D01*
X92609519Y-108194914D01*
X92540750Y-108195000D01*
X92395573Y-108340178D01*
X91881603Y-107826208D01*
X91632528Y-107903843D01*
X91506629Y-108167883D01*
X91499895Y-108194414D01*
X90293269Y-108192906D01*
X90222795Y-107988912D01*
X90129814Y-107814956D01*
X89865413Y-107719192D01*
X89378196Y-108206409D01*
X89265820Y-108240498D01*
X89155506Y-108299463D01*
X89058815Y-108378815D01*
X88979463Y-108475506D01*
X88920498Y-108585820D01*
X88884188Y-108705518D01*
X88881655Y-108731235D01*
X88747289Y-108865601D01*
X88740308Y-108864913D01*
X88730000Y-108854605D01*
X88721540Y-108863065D01*
X88710000Y-108861928D01*
X88709048Y-108861938D01*
X88536253Y-108689143D01*
X88550395Y-108675000D01*
X87594587Y-107719192D01*
X87330186Y-107814956D01*
X87189296Y-108104571D01*
X87107616Y-108416108D01*
X87088282Y-108737595D01*
X87129732Y-109039855D01*
X87118815Y-109048815D01*
X87110612Y-109058810D01*
X85591389Y-107539587D01*
X87774192Y-107539587D01*
X88730000Y-108495395D01*
X89685808Y-107539587D01*
X89590044Y-107275186D01*
X89300429Y-107134296D01*
X88988892Y-107052616D01*
X88667405Y-107033282D01*
X88348325Y-107077039D01*
X88043912Y-107182205D01*
X87869956Y-107275186D01*
X87774192Y-107539587D01*
X85591389Y-107539587D01*
X85385002Y-107333201D01*
X85385002Y-105850000D01*
X86436928Y-105850000D01*
X86449188Y-105974482D01*
X86485498Y-106094180D01*
X86544463Y-106204494D01*
X86623815Y-106301185D01*
X86720506Y-106380537D01*
X86830820Y-106439502D01*
X86950518Y-106475812D01*
X87075000Y-106488072D01*
X87714250Y-106485000D01*
X87873000Y-106326250D01*
X87873000Y-105127000D01*
X88127000Y-105127000D01*
X88127000Y-106326250D01*
X88285750Y-106485000D01*
X88925000Y-106488072D01*
X89049482Y-106475812D01*
X89169180Y-106439502D01*
X89279494Y-106380537D01*
X89376185Y-106301185D01*
X89455537Y-106204494D01*
X89514502Y-106094180D01*
X89550812Y-105974482D01*
X89563072Y-105850000D01*
X89560000Y-105285750D01*
X89401250Y-105127000D01*
X88127000Y-105127000D01*
X87873000Y-105127000D01*
X86598750Y-105127000D01*
X86440000Y-105285750D01*
X86436928Y-105850000D01*
X85385002Y-105850000D01*
X85385002Y-103662327D01*
X85388678Y-103625002D01*
X85385002Y-103587677D01*
X85385002Y-103587669D01*
X85374005Y-103476016D01*
X85369147Y-103460000D01*
X86148484Y-103460000D01*
X86523398Y-103834915D01*
X86485498Y-103905820D01*
X86449188Y-104025518D01*
X86436928Y-104150000D01*
X86440000Y-104714250D01*
X86598750Y-104873000D01*
X87873000Y-104873000D01*
X87873000Y-104853000D01*
X88127000Y-104853000D01*
X88127000Y-104873000D01*
X89401250Y-104873000D01*
X89560000Y-104714250D01*
X89563072Y-104150000D01*
X89550812Y-104025518D01*
X89514502Y-103905820D01*
X89476602Y-103834915D01*
X90311003Y-103000514D01*
X90340001Y-102976716D01*
X90434974Y-102860991D01*
X90505546Y-102728962D01*
X90549003Y-102585701D01*
X90560000Y-102474048D01*
X90560000Y-102474039D01*
X90563676Y-102436716D01*
X90560000Y-102399393D01*
X90560000Y-102303711D01*
X90603937Y-102259774D01*
X90717205Y-102090256D01*
X90795226Y-101901898D01*
X90835000Y-101701939D01*
X90835000Y-101498061D01*
X90795226Y-101298102D01*
X90717205Y-101109744D01*
X90603937Y-100940226D01*
X90459774Y-100796063D01*
X90290256Y-100682795D01*
X90101898Y-100604774D01*
X90003977Y-100585296D01*
X90010010Y-100524038D01*
X90010010Y-100524029D01*
X90013686Y-100486706D01*
X90010010Y-100449383D01*
X90010010Y-98787332D01*
X90013686Y-98750009D01*
X90010010Y-98712686D01*
X90010010Y-98712677D01*
X89999013Y-98601024D01*
X89955556Y-98457763D01*
X89897955Y-98350000D01*
X89884984Y-98325733D01*
X89813809Y-98239007D01*
X89790011Y-98210009D01*
X89761013Y-98186211D01*
X89498341Y-97923539D01*
X89538513Y-97791111D01*
X89567185Y-97500000D01*
X89538513Y-97208889D01*
X89453599Y-96928966D01*
X89315706Y-96670986D01*
X89130134Y-96444866D01*
X88904014Y-96259294D01*
X88646034Y-96121401D01*
X88366111Y-96036487D01*
X88147950Y-96015000D01*
X87852050Y-96015000D01*
X87633889Y-96036487D01*
X87353966Y-96121401D01*
X87185000Y-96211715D01*
X87185000Y-95685000D01*
X93966495Y-95685000D01*
X94060547Y-95694222D01*
%TA.AperFunction,Conductor*%
D30*
G36*
X94060547Y-95694222D02*
G01*
X94118786Y-95711805D01*
X94172501Y-95740366D01*
X94219646Y-95778816D01*
X94258424Y-95825691D01*
X94287358Y-95879204D01*
X94305349Y-95937323D01*
X94315000Y-96029145D01*
X94315000Y-108192784D01*
X94314601Y-108192784D01*
X94260919Y-108041253D01*
X94187472Y-107903843D01*
X93938397Y-107826208D01*
X93570892Y-108193713D01*
X93211233Y-108194162D01*
X93758792Y-107646603D01*
X93681157Y-107397528D01*
X93417117Y-107271629D01*
X93133589Y-107199661D01*
X92841469Y-107184389D01*
X92551981Y-107226401D01*
X92276253Y-107324081D01*
X92138843Y-107397528D01*
X92061208Y-107646603D01*
X92609519Y-108194914D01*
X92540750Y-108195000D01*
X92395573Y-108340178D01*
X91881603Y-107826208D01*
X91632528Y-107903843D01*
X91506629Y-108167883D01*
X91499895Y-108194414D01*
X90293269Y-108192906D01*
X90222795Y-107988912D01*
X90129814Y-107814956D01*
X89865413Y-107719192D01*
X89378196Y-108206409D01*
X89265820Y-108240498D01*
X89155506Y-108299463D01*
X89058815Y-108378815D01*
X88979463Y-108475506D01*
X88920498Y-108585820D01*
X88884188Y-108705518D01*
X88881655Y-108731235D01*
X88747289Y-108865601D01*
X88740308Y-108864913D01*
X88730000Y-108854605D01*
X88721540Y-108863065D01*
X88710000Y-108861928D01*
X88709048Y-108861938D01*
X88536253Y-108689143D01*
X88550395Y-108675000D01*
X87594587Y-107719192D01*
X87330186Y-107814956D01*
X87189296Y-108104571D01*
X87107616Y-108416108D01*
X87088282Y-108737595D01*
X87129732Y-109039855D01*
X87118815Y-109048815D01*
X87110612Y-109058810D01*
X85591389Y-107539587D01*
X87774192Y-107539587D01*
X88730000Y-108495395D01*
X89685808Y-107539587D01*
X89590044Y-107275186D01*
X89300429Y-107134296D01*
X88988892Y-107052616D01*
X88667405Y-107033282D01*
X88348325Y-107077039D01*
X88043912Y-107182205D01*
X87869956Y-107275186D01*
X87774192Y-107539587D01*
X85591389Y-107539587D01*
X85385002Y-107333201D01*
X85385002Y-105850000D01*
X86436928Y-105850000D01*
X86449188Y-105974482D01*
X86485498Y-106094180D01*
X86544463Y-106204494D01*
X86623815Y-106301185D01*
X86720506Y-106380537D01*
X86830820Y-106439502D01*
X86950518Y-106475812D01*
X87075000Y-106488072D01*
X87714250Y-106485000D01*
X87873000Y-106326250D01*
X87873000Y-105127000D01*
X88127000Y-105127000D01*
X88127000Y-106326250D01*
X88285750Y-106485000D01*
X88925000Y-106488072D01*
X89049482Y-106475812D01*
X89169180Y-106439502D01*
X89279494Y-106380537D01*
X89376185Y-106301185D01*
X89455537Y-106204494D01*
X89514502Y-106094180D01*
X89550812Y-105974482D01*
X89563072Y-105850000D01*
X89560000Y-105285750D01*
X89401250Y-105127000D01*
X88127000Y-105127000D01*
X87873000Y-105127000D01*
X86598750Y-105127000D01*
X86440000Y-105285750D01*
X86436928Y-105850000D01*
X85385002Y-105850000D01*
X85385002Y-103662327D01*
X85388678Y-103625002D01*
X85385002Y-103587677D01*
X85385002Y-103587669D01*
X85374005Y-103476016D01*
X85369147Y-103460000D01*
X86148484Y-103460000D01*
X86523398Y-103834915D01*
X86485498Y-103905820D01*
X86449188Y-104025518D01*
X86436928Y-104150000D01*
X86440000Y-104714250D01*
X86598750Y-104873000D01*
X87873000Y-104873000D01*
X87873000Y-104853000D01*
X88127000Y-104853000D01*
X88127000Y-104873000D01*
X89401250Y-104873000D01*
X89560000Y-104714250D01*
X89563072Y-104150000D01*
X89550812Y-104025518D01*
X89514502Y-103905820D01*
X89476602Y-103834915D01*
X90311003Y-103000514D01*
X90340001Y-102976716D01*
X90434974Y-102860991D01*
X90505546Y-102728962D01*
X90549003Y-102585701D01*
X90560000Y-102474048D01*
X90560000Y-102474039D01*
X90563676Y-102436716D01*
X90560000Y-102399393D01*
X90560000Y-102303711D01*
X90603937Y-102259774D01*
X90717205Y-102090256D01*
X90795226Y-101901898D01*
X90835000Y-101701939D01*
X90835000Y-101498061D01*
X90795226Y-101298102D01*
X90717205Y-101109744D01*
X90603937Y-100940226D01*
X90459774Y-100796063D01*
X90290256Y-100682795D01*
X90101898Y-100604774D01*
X90003977Y-100585296D01*
X90010010Y-100524038D01*
X90010010Y-100524029D01*
X90013686Y-100486706D01*
X90010010Y-100449383D01*
X90010010Y-98787332D01*
X90013686Y-98750009D01*
X90010010Y-98712686D01*
X90010010Y-98712677D01*
X89999013Y-98601024D01*
X89955556Y-98457763D01*
X89897955Y-98350000D01*
X89884984Y-98325733D01*
X89813809Y-98239007D01*
X89790011Y-98210009D01*
X89761013Y-98186211D01*
X89498341Y-97923539D01*
X89538513Y-97791111D01*
X89567185Y-97500000D01*
X89538513Y-97208889D01*
X89453599Y-96928966D01*
X89315706Y-96670986D01*
X89130134Y-96444866D01*
X88904014Y-96259294D01*
X88646034Y-96121401D01*
X88366111Y-96036487D01*
X88147950Y-96015000D01*
X87852050Y-96015000D01*
X87633889Y-96036487D01*
X87353966Y-96121401D01*
X87185000Y-96211715D01*
X87185000Y-95685000D01*
X93966495Y-95685000D01*
X94060547Y-95694222D01*
G37*
%TD.AperFunction*%
D29*
X73434010Y-103203411D02*
X73596525Y-103446632D01*
X73803368Y-103653475D01*
X73977760Y-103770000D01*
X73803368Y-103886525D01*
X73596525Y-104093368D01*
X73434010Y-104336589D01*
X73322068Y-104606842D01*
X73265000Y-104893740D01*
X73265000Y-105186260D01*
X73308790Y-105406407D01*
X71895199Y-106820000D01*
X71528178Y-106820000D01*
X71403475Y-106633368D01*
X71196632Y-106426525D01*
X71179176Y-106414861D01*
X71256180Y-106391502D01*
X71366494Y-106332537D01*
X71463185Y-106253185D01*
X71542537Y-106156494D01*
X71601502Y-106046180D01*
X71637812Y-105926482D01*
X71650072Y-105802000D01*
X71647000Y-105325750D01*
X71488250Y-105167000D01*
X70377000Y-105167000D01*
X70377000Y-105187000D01*
X70123000Y-105187000D01*
X70123000Y-105167000D01*
X70103000Y-105167000D01*
X70103000Y-104913000D01*
X70123000Y-104913000D01*
X70123000Y-104893000D01*
X70377000Y-104893000D01*
X70377000Y-104913000D01*
X71488250Y-104913000D01*
X71647000Y-104754250D01*
X71650072Y-104278000D01*
X71637812Y-104153518D01*
X71601502Y-104033820D01*
X71542537Y-103923506D01*
X71463185Y-103826815D01*
X71366494Y-103747463D01*
X71256180Y-103688498D01*
X71179176Y-103665139D01*
X71196632Y-103653475D01*
X71403475Y-103446632D01*
X71528178Y-103260000D01*
X71796289Y-103260000D01*
X71840226Y-103303937D01*
X72009744Y-103417205D01*
X72198102Y-103495226D01*
X72398061Y-103535000D01*
X72601939Y-103535000D01*
X72801898Y-103495226D01*
X72990256Y-103417205D01*
X73159774Y-103303937D01*
X73303937Y-103159774D01*
X73373075Y-103056301D01*
X73434010Y-103203411D01*
%TA.AperFunction,Conductor*%
D30*
G36*
X73434010Y-103203411D02*
G01*
X73596525Y-103446632D01*
X73803368Y-103653475D01*
X73977760Y-103770000D01*
X73803368Y-103886525D01*
X73596525Y-104093368D01*
X73434010Y-104336589D01*
X73322068Y-104606842D01*
X73265000Y-104893740D01*
X73265000Y-105186260D01*
X73308790Y-105406407D01*
X71895199Y-106820000D01*
X71528178Y-106820000D01*
X71403475Y-106633368D01*
X71196632Y-106426525D01*
X71179176Y-106414861D01*
X71256180Y-106391502D01*
X71366494Y-106332537D01*
X71463185Y-106253185D01*
X71542537Y-106156494D01*
X71601502Y-106046180D01*
X71637812Y-105926482D01*
X71650072Y-105802000D01*
X71647000Y-105325750D01*
X71488250Y-105167000D01*
X70377000Y-105167000D01*
X70377000Y-105187000D01*
X70123000Y-105187000D01*
X70123000Y-105167000D01*
X70103000Y-105167000D01*
X70103000Y-104913000D01*
X70123000Y-104913000D01*
X70123000Y-104893000D01*
X70377000Y-104893000D01*
X70377000Y-104913000D01*
X71488250Y-104913000D01*
X71647000Y-104754250D01*
X71650072Y-104278000D01*
X71637812Y-104153518D01*
X71601502Y-104033820D01*
X71542537Y-103923506D01*
X71463185Y-103826815D01*
X71366494Y-103747463D01*
X71256180Y-103688498D01*
X71179176Y-103665139D01*
X71196632Y-103653475D01*
X71403475Y-103446632D01*
X71528178Y-103260000D01*
X71796289Y-103260000D01*
X71840226Y-103303937D01*
X72009744Y-103417205D01*
X72198102Y-103495226D01*
X72398061Y-103535000D01*
X72601939Y-103535000D01*
X72801898Y-103495226D01*
X72990256Y-103417205D01*
X73159774Y-103303937D01*
X73303937Y-103159774D01*
X73373075Y-103056301D01*
X73434010Y-103203411D01*
G37*
%TD.AperFunction*%
D29*
X81836201Y-101688997D02*
X80785199Y-102740000D01*
X77637322Y-102740000D01*
X77599999Y-102736324D01*
X77562676Y-102740000D01*
X77562667Y-102740000D01*
X77451014Y-102750997D01*
X77318774Y-102791111D01*
X77307753Y-102794454D01*
X77175723Y-102865026D01*
X77092705Y-102933158D01*
X77059999Y-102959999D01*
X77036200Y-102988998D01*
X76960198Y-103065000D01*
X76898061Y-103065000D01*
X76698102Y-103104774D01*
X76509744Y-103182795D01*
X76340226Y-103296063D01*
X76196063Y-103440226D01*
X76082795Y-103609744D01*
X76004774Y-103798102D01*
X75965000Y-103998061D01*
X75965000Y-104185447D01*
X75903475Y-104093368D01*
X75696632Y-103886525D01*
X75522240Y-103770000D01*
X75696632Y-103653475D01*
X75903475Y-103446632D01*
X76065990Y-103203411D01*
X76177932Y-102933158D01*
X76235000Y-102646260D01*
X76235000Y-102353740D01*
X76177932Y-102066842D01*
X76065990Y-101796589D01*
X75991429Y-101685000D01*
X81839481Y-101685000D01*
X81836201Y-101688997D01*
%TA.AperFunction,Conductor*%
D30*
G36*
X81836201Y-101688997D02*
G01*
X80785199Y-102740000D01*
X77637322Y-102740000D01*
X77599999Y-102736324D01*
X77562676Y-102740000D01*
X77562667Y-102740000D01*
X77451014Y-102750997D01*
X77318774Y-102791111D01*
X77307753Y-102794454D01*
X77175723Y-102865026D01*
X77092705Y-102933158D01*
X77059999Y-102959999D01*
X77036200Y-102988998D01*
X76960198Y-103065000D01*
X76898061Y-103065000D01*
X76698102Y-103104774D01*
X76509744Y-103182795D01*
X76340226Y-103296063D01*
X76196063Y-103440226D01*
X76082795Y-103609744D01*
X76004774Y-103798102D01*
X75965000Y-103998061D01*
X75965000Y-104185447D01*
X75903475Y-104093368D01*
X75696632Y-103886525D01*
X75522240Y-103770000D01*
X75696632Y-103653475D01*
X75903475Y-103446632D01*
X76065990Y-103203411D01*
X76177932Y-102933158D01*
X76235000Y-102646260D01*
X76235000Y-102353740D01*
X76177932Y-102066842D01*
X76065990Y-101796589D01*
X75991429Y-101685000D01*
X81839481Y-101685000D01*
X81836201Y-101688997D01*
G37*
%TD.AperFunction*%
D29*
X57815000Y-96012457D02*
X57285750Y-96015000D01*
X57127000Y-96173750D01*
X57127000Y-97373000D01*
X57147000Y-97373000D01*
X57147000Y-97627000D01*
X57127000Y-97627000D01*
X57127000Y-97647000D01*
X56873000Y-97647000D01*
X56873000Y-97627000D01*
X55598750Y-97627000D01*
X55440000Y-97785750D01*
X55436928Y-98350000D01*
X55449188Y-98474482D01*
X55485498Y-98594180D01*
X55544463Y-98704494D01*
X55623815Y-98801185D01*
X55720506Y-98880537D01*
X55830820Y-98939502D01*
X55865608Y-98950055D01*
X55684294Y-99170986D01*
X55546401Y-99428966D01*
X55461487Y-99708889D01*
X55432815Y-100000000D01*
X55461487Y-100291111D01*
X55499071Y-100415010D01*
X53189812Y-100415010D01*
X52735000Y-99960199D01*
X52735000Y-99898061D01*
X52695226Y-99698102D01*
X52617205Y-99509744D01*
X52503937Y-99340226D01*
X52359774Y-99196063D01*
X52190256Y-99082795D01*
X52001898Y-99004774D01*
X51801939Y-98965000D01*
X51598061Y-98965000D01*
X51398102Y-99004774D01*
X51209744Y-99082795D01*
X51040226Y-99196063D01*
X50896063Y-99340226D01*
X50782795Y-99509744D01*
X50704774Y-99698102D01*
X50685000Y-99797513D01*
X50685000Y-96650000D01*
X55436928Y-96650000D01*
X55440000Y-97214250D01*
X55598750Y-97373000D01*
X56873000Y-97373000D01*
X56873000Y-96173750D01*
X56714250Y-96015000D01*
X56075000Y-96011928D01*
X55950518Y-96024188D01*
X55830820Y-96060498D01*
X55720506Y-96119463D01*
X55623815Y-96198815D01*
X55544463Y-96295506D01*
X55485498Y-96405820D01*
X55449188Y-96525518D01*
X55436928Y-96650000D01*
X50685000Y-96650000D01*
X50685000Y-96033505D01*
X50694222Y-95939453D01*
X50711805Y-95881214D01*
X50740366Y-95827499D01*
X50778816Y-95780354D01*
X50825691Y-95741576D01*
X50879204Y-95712642D01*
X50937323Y-95694651D01*
X51029145Y-95685000D01*
X57815000Y-95685000D01*
X57815000Y-96012457D01*
%TA.AperFunction,Conductor*%
D30*
G36*
X57815000Y-96012457D02*
G01*
X57285750Y-96015000D01*
X57127000Y-96173750D01*
X57127000Y-97373000D01*
X57147000Y-97373000D01*
X57147000Y-97627000D01*
X57127000Y-97627000D01*
X57127000Y-97647000D01*
X56873000Y-97647000D01*
X56873000Y-97627000D01*
X55598750Y-97627000D01*
X55440000Y-97785750D01*
X55436928Y-98350000D01*
X55449188Y-98474482D01*
X55485498Y-98594180D01*
X55544463Y-98704494D01*
X55623815Y-98801185D01*
X55720506Y-98880537D01*
X55830820Y-98939502D01*
X55865608Y-98950055D01*
X55684294Y-99170986D01*
X55546401Y-99428966D01*
X55461487Y-99708889D01*
X55432815Y-100000000D01*
X55461487Y-100291111D01*
X55499071Y-100415010D01*
X53189812Y-100415010D01*
X52735000Y-99960199D01*
X52735000Y-99898061D01*
X52695226Y-99698102D01*
X52617205Y-99509744D01*
X52503937Y-99340226D01*
X52359774Y-99196063D01*
X52190256Y-99082795D01*
X52001898Y-99004774D01*
X51801939Y-98965000D01*
X51598061Y-98965000D01*
X51398102Y-99004774D01*
X51209744Y-99082795D01*
X51040226Y-99196063D01*
X50896063Y-99340226D01*
X50782795Y-99509744D01*
X50704774Y-99698102D01*
X50685000Y-99797513D01*
X50685000Y-96650000D01*
X55436928Y-96650000D01*
X55440000Y-97214250D01*
X55598750Y-97373000D01*
X56873000Y-97373000D01*
X56873000Y-96173750D01*
X56714250Y-96015000D01*
X56075000Y-96011928D01*
X55950518Y-96024188D01*
X55830820Y-96060498D01*
X55720506Y-96119463D01*
X55623815Y-96198815D01*
X55544463Y-96295506D01*
X55485498Y-96405820D01*
X55449188Y-96525518D01*
X55436928Y-96650000D01*
X50685000Y-96650000D01*
X50685000Y-96033505D01*
X50694222Y-95939453D01*
X50711805Y-95881214D01*
X50740366Y-95827499D01*
X50778816Y-95780354D01*
X50825691Y-95741576D01*
X50879204Y-95712642D01*
X50937323Y-95694651D01*
X51029145Y-95685000D01*
X57815000Y-95685000D01*
X57815000Y-96012457D01*
G37*
%TD.AperFunction*%
%TD*%
M02*
