%TF.GenerationSoftware,KiCad,Pcbnew,(5.1.9-0-10_14)*%
%TF.CreationDate,2021-04-22T10:06:02+01:00*%
%TF.ProjectId,Controller,436f6e74-726f-46c6-9c65-722e6b696361,rev?*%
%TF.SameCoordinates,Original*%
%TF.FileFunction,Copper,L2,Bot*%
%TF.FilePolarity,Positive*%
%FSLAX46Y46*%
G04 Gerber Fmt 4.6, Leading zero omitted, Abs format (unit mm)*
G04 Created by KiCad (PCBNEW (5.1.9-0-10_14)) date 2021-04-22 10:06:02*
%MOMM*%
%LPD*%
G01*
G04 APERTURE LIST*
%TA.AperFunction,NonConductor*%
%ADD10C,0.300000*%
%TD*%
%TA.AperFunction,EtchedComponent*%
%ADD11C,0.200000*%
%TD*%
%TA.AperFunction,ComponentPad*%
%ADD12C,1.524000*%
%TD*%
%TA.AperFunction,ComponentPad*%
%ADD13O,1.600000X1.600000*%
%TD*%
%TA.AperFunction,ComponentPad*%
%ADD14R,1.600000X1.600000*%
%TD*%
%TA.AperFunction,ComponentPad*%
%ADD15R,1.524000X1.524000*%
%TD*%
%TA.AperFunction,ComponentPad*%
%ADD16C,1.700000*%
%TD*%
%TA.AperFunction,ComponentPad*%
%ADD17C,2.000000*%
%TD*%
%TA.AperFunction,ComponentPad*%
%ADD18C,0.600000*%
%TD*%
%TA.AperFunction,SMDPad,CuDef*%
%ADD19R,2.000000X0.900000*%
%TD*%
%TA.AperFunction,SMDPad,CuDef*%
%ADD20R,0.900000X2.000000*%
%TD*%
%TA.AperFunction,SMDPad,CuDef*%
%ADD21R,5.000000X5.000000*%
%TD*%
%TA.AperFunction,ComponentPad*%
%ADD22O,1.850000X1.700000*%
%TD*%
%TA.AperFunction,ComponentPad*%
%ADD23O,1.700000X1.850000*%
%TD*%
%TA.AperFunction,ViaPad*%
%ADD24C,0.800000*%
%TD*%
%TA.AperFunction,Conductor*%
%ADD25C,0.250000*%
%TD*%
%TA.AperFunction,Conductor*%
%ADD26C,1.000000*%
%TD*%
%TA.AperFunction,Conductor*%
%ADD27C,0.254000*%
%TD*%
%TA.AperFunction,Conductor*%
%ADD28C,0.100000*%
%TD*%
G04 APERTURE END LIST*
D10*
X94214285Y-137678571D02*
X93714285Y-139178571D01*
X93214285Y-137678571D01*
X92071428Y-137678571D02*
X92357142Y-137678571D01*
X92500000Y-137750000D01*
X92571428Y-137821428D01*
X92714285Y-138035714D01*
X92785714Y-138321428D01*
X92785714Y-138892857D01*
X92714285Y-139035714D01*
X92642857Y-139107142D01*
X92500000Y-139178571D01*
X92214285Y-139178571D01*
X92071428Y-139107142D01*
X92000000Y-139035714D01*
X91928571Y-138892857D01*
X91928571Y-138535714D01*
X92000000Y-138392857D01*
X92071428Y-138321428D01*
X92214285Y-138250000D01*
X92500000Y-138250000D01*
X92642857Y-138321428D01*
X92714285Y-138392857D01*
X92785714Y-138535714D01*
X78285714Y-138178571D02*
X78000000Y-139178571D01*
X77714285Y-138464285D01*
X77428571Y-139178571D01*
X77142857Y-138178571D01*
X76714285Y-138178571D02*
X76428571Y-139178571D01*
X76142857Y-138464285D01*
X75857142Y-139178571D01*
X75571428Y-138178571D01*
X75142857Y-138178571D02*
X74857142Y-139178571D01*
X74571428Y-138464285D01*
X74285714Y-139178571D01*
X74000000Y-138178571D01*
X73428571Y-139035714D02*
X73357142Y-139107142D01*
X73428571Y-139178571D01*
X73500000Y-139107142D01*
X73428571Y-139035714D01*
X73428571Y-139178571D01*
X72714285Y-139178571D02*
X72714285Y-138178571D01*
X72714285Y-138321428D02*
X72642857Y-138250000D01*
X72500000Y-138178571D01*
X72285714Y-138178571D01*
X72142857Y-138250000D01*
X72071428Y-138392857D01*
X72071428Y-139178571D01*
X72071428Y-138392857D02*
X72000000Y-138250000D01*
X71857142Y-138178571D01*
X71642857Y-138178571D01*
X71500000Y-138250000D01*
X71428571Y-138392857D01*
X71428571Y-139178571D01*
X70142857Y-139107142D02*
X70285714Y-139178571D01*
X70571428Y-139178571D01*
X70714285Y-139107142D01*
X70785714Y-138964285D01*
X70785714Y-138392857D01*
X70714285Y-138250000D01*
X70571428Y-138178571D01*
X70285714Y-138178571D01*
X70142857Y-138250000D01*
X70071428Y-138392857D01*
X70071428Y-138535714D01*
X70785714Y-138678571D01*
X69428571Y-139035714D02*
X69357142Y-139107142D01*
X69428571Y-139178571D01*
X69500000Y-139107142D01*
X69428571Y-139035714D01*
X69428571Y-139178571D01*
X68071428Y-138178571D02*
X68071428Y-139178571D01*
X68714285Y-138178571D02*
X68714285Y-138964285D01*
X68642857Y-139107142D01*
X68500000Y-139178571D01*
X68285714Y-139178571D01*
X68142857Y-139107142D01*
X68071428Y-139035714D01*
X67357142Y-139178571D02*
X67357142Y-137678571D01*
X67214285Y-138607142D02*
X66785714Y-139178571D01*
X66785714Y-138178571D02*
X67357142Y-138750000D01*
D11*
%TO.C,AJK1*%
X93767650Y-128064120D02*
X89650000Y-131005300D01*
X93767650Y-131005300D02*
X94287579Y-130789938D01*
X89650000Y-131005300D02*
X93767650Y-131005300D01*
X94502940Y-130270006D02*
X94287579Y-129750074D01*
X94287579Y-130789938D02*
X94502940Y-130270006D01*
X94287579Y-129750074D02*
X93767650Y-129534712D01*
X91708820Y-131005290D02*
X93767650Y-132770000D01*
X91709000Y-131005300D02*
X91709000Y-129534700D01*
X89650000Y-132770000D02*
X91708820Y-131005290D01*
%TD*%
D12*
%TO.P,U6,21*%
%TO.N,GND*%
X77475000Y-116325000D03*
%TD*%
D13*
%TO.P,U5,6*%
%TO.N,Net-(J8-Pad2)*%
X82250000Y-130100000D03*
%TO.P,U5,3*%
%TO.N,Net-(U5-Pad3)*%
X77170000Y-122480000D03*
%TO.P,U5,2*%
%TO.N,GND*%
X79710000Y-122480000D03*
%TO.P,U5,4*%
%TO.N,Net-(J8-Pad1)*%
X77170000Y-130100000D03*
D14*
%TO.P,U5,1*%
%TO.N,Net-(R6-Pad1)*%
X82250000Y-122480000D03*
%TD*%
%TO.P,R12,2*%
%TO.N,IN8*%
%TA.AperFunction,SMDPad,CuDef*%
G36*
G01*
X54150000Y-118125001D02*
X54150000Y-116874999D01*
G75*
G02*
X54399999Y-116625000I249999J0D01*
G01*
X55200001Y-116625000D01*
G75*
G02*
X55450000Y-116874999I0J-249999D01*
G01*
X55450000Y-118125001D01*
G75*
G02*
X55200001Y-118375000I-249999J0D01*
G01*
X54399999Y-118375000D01*
G75*
G02*
X54150000Y-118125001I0J249999D01*
G01*
G37*
%TD.AperFunction*%
%TO.P,R12,1*%
%TO.N,+3V3*%
%TA.AperFunction,SMDPad,CuDef*%
G36*
G01*
X51050000Y-118125001D02*
X51050000Y-116874999D01*
G75*
G02*
X51299999Y-116625000I249999J0D01*
G01*
X52100001Y-116625000D01*
G75*
G02*
X52350000Y-116874999I0J-249999D01*
G01*
X52350000Y-118125001D01*
G75*
G02*
X52100001Y-118375000I-249999J0D01*
G01*
X51299999Y-118375000D01*
G75*
G02*
X51050000Y-118125001I0J249999D01*
G01*
G37*
%TD.AperFunction*%
%TD*%
%TO.P,R11,2*%
%TO.N,IN7*%
%TA.AperFunction,SMDPad,CuDef*%
G36*
G01*
X54150000Y-115625001D02*
X54150000Y-114374999D01*
G75*
G02*
X54399999Y-114125000I249999J0D01*
G01*
X55200001Y-114125000D01*
G75*
G02*
X55450000Y-114374999I0J-249999D01*
G01*
X55450000Y-115625001D01*
G75*
G02*
X55200001Y-115875000I-249999J0D01*
G01*
X54399999Y-115875000D01*
G75*
G02*
X54150000Y-115625001I0J249999D01*
G01*
G37*
%TD.AperFunction*%
%TO.P,R11,1*%
%TO.N,+3V3*%
%TA.AperFunction,SMDPad,CuDef*%
G36*
G01*
X51050000Y-115625001D02*
X51050000Y-114374999D01*
G75*
G02*
X51299999Y-114125000I249999J0D01*
G01*
X52100001Y-114125000D01*
G75*
G02*
X52350000Y-114374999I0J-249999D01*
G01*
X52350000Y-115625001D01*
G75*
G02*
X52100001Y-115875000I-249999J0D01*
G01*
X51299999Y-115875000D01*
G75*
G02*
X51050000Y-115625001I0J249999D01*
G01*
G37*
%TD.AperFunction*%
%TD*%
%TO.P,R10,2*%
%TO.N,IN6*%
%TA.AperFunction,SMDPad,CuDef*%
G36*
G01*
X54150000Y-113125001D02*
X54150000Y-111874999D01*
G75*
G02*
X54399999Y-111625000I249999J0D01*
G01*
X55200001Y-111625000D01*
G75*
G02*
X55450000Y-111874999I0J-249999D01*
G01*
X55450000Y-113125001D01*
G75*
G02*
X55200001Y-113375000I-249999J0D01*
G01*
X54399999Y-113375000D01*
G75*
G02*
X54150000Y-113125001I0J249999D01*
G01*
G37*
%TD.AperFunction*%
%TO.P,R10,1*%
%TO.N,+3V3*%
%TA.AperFunction,SMDPad,CuDef*%
G36*
G01*
X51050000Y-113125001D02*
X51050000Y-111874999D01*
G75*
G02*
X51299999Y-111625000I249999J0D01*
G01*
X52100001Y-111625000D01*
G75*
G02*
X52350000Y-111874999I0J-249999D01*
G01*
X52350000Y-113125001D01*
G75*
G02*
X52100001Y-113375000I-249999J0D01*
G01*
X51299999Y-113375000D01*
G75*
G02*
X51050000Y-113125001I0J249999D01*
G01*
G37*
%TD.AperFunction*%
%TD*%
%TO.P,R9,2*%
%TO.N,IN5*%
%TA.AperFunction,SMDPad,CuDef*%
G36*
G01*
X54150000Y-110625001D02*
X54150000Y-109374999D01*
G75*
G02*
X54399999Y-109125000I249999J0D01*
G01*
X55200001Y-109125000D01*
G75*
G02*
X55450000Y-109374999I0J-249999D01*
G01*
X55450000Y-110625001D01*
G75*
G02*
X55200001Y-110875000I-249999J0D01*
G01*
X54399999Y-110875000D01*
G75*
G02*
X54150000Y-110625001I0J249999D01*
G01*
G37*
%TD.AperFunction*%
%TO.P,R9,1*%
%TO.N,+3V3*%
%TA.AperFunction,SMDPad,CuDef*%
G36*
G01*
X51050000Y-110625001D02*
X51050000Y-109374999D01*
G75*
G02*
X51299999Y-109125000I249999J0D01*
G01*
X52100001Y-109125000D01*
G75*
G02*
X52350000Y-109374999I0J-249999D01*
G01*
X52350000Y-110625001D01*
G75*
G02*
X52100001Y-110875000I-249999J0D01*
G01*
X51299999Y-110875000D01*
G75*
G02*
X51050000Y-110625001I0J249999D01*
G01*
G37*
%TD.AperFunction*%
%TD*%
%TO.P,R8,2*%
%TO.N,IN4*%
%TA.AperFunction,SMDPad,CuDef*%
G36*
G01*
X54150000Y-108125001D02*
X54150000Y-106874999D01*
G75*
G02*
X54399999Y-106625000I249999J0D01*
G01*
X55200001Y-106625000D01*
G75*
G02*
X55450000Y-106874999I0J-249999D01*
G01*
X55450000Y-108125001D01*
G75*
G02*
X55200001Y-108375000I-249999J0D01*
G01*
X54399999Y-108375000D01*
G75*
G02*
X54150000Y-108125001I0J249999D01*
G01*
G37*
%TD.AperFunction*%
%TO.P,R8,1*%
%TO.N,+3V3*%
%TA.AperFunction,SMDPad,CuDef*%
G36*
G01*
X51050000Y-108125001D02*
X51050000Y-106874999D01*
G75*
G02*
X51299999Y-106625000I249999J0D01*
G01*
X52100001Y-106625000D01*
G75*
G02*
X52350000Y-106874999I0J-249999D01*
G01*
X52350000Y-108125001D01*
G75*
G02*
X52100001Y-108375000I-249999J0D01*
G01*
X51299999Y-108375000D01*
G75*
G02*
X51050000Y-108125001I0J249999D01*
G01*
G37*
%TD.AperFunction*%
%TD*%
%TO.P,R7,2*%
%TO.N,IN3*%
%TA.AperFunction,SMDPad,CuDef*%
G36*
G01*
X54150000Y-105625001D02*
X54150000Y-104374999D01*
G75*
G02*
X54399999Y-104125000I249999J0D01*
G01*
X55200001Y-104125000D01*
G75*
G02*
X55450000Y-104374999I0J-249999D01*
G01*
X55450000Y-105625001D01*
G75*
G02*
X55200001Y-105875000I-249999J0D01*
G01*
X54399999Y-105875000D01*
G75*
G02*
X54150000Y-105625001I0J249999D01*
G01*
G37*
%TD.AperFunction*%
%TO.P,R7,1*%
%TO.N,+3V3*%
%TA.AperFunction,SMDPad,CuDef*%
G36*
G01*
X51050000Y-105625001D02*
X51050000Y-104374999D01*
G75*
G02*
X51299999Y-104125000I249999J0D01*
G01*
X52100001Y-104125000D01*
G75*
G02*
X52350000Y-104374999I0J-249999D01*
G01*
X52350000Y-105625001D01*
G75*
G02*
X52100001Y-105875000I-249999J0D01*
G01*
X51299999Y-105875000D01*
G75*
G02*
X51050000Y-105625001I0J249999D01*
G01*
G37*
%TD.AperFunction*%
%TD*%
%TO.P,R2,2*%
%TO.N,IN2*%
%TA.AperFunction,SMDPad,CuDef*%
G36*
G01*
X54150000Y-103125001D02*
X54150000Y-101874999D01*
G75*
G02*
X54399999Y-101625000I249999J0D01*
G01*
X55200001Y-101625000D01*
G75*
G02*
X55450000Y-101874999I0J-249999D01*
G01*
X55450000Y-103125001D01*
G75*
G02*
X55200001Y-103375000I-249999J0D01*
G01*
X54399999Y-103375000D01*
G75*
G02*
X54150000Y-103125001I0J249999D01*
G01*
G37*
%TD.AperFunction*%
%TO.P,R2,1*%
%TO.N,+3V3*%
%TA.AperFunction,SMDPad,CuDef*%
G36*
G01*
X51050000Y-103125001D02*
X51050000Y-101874999D01*
G75*
G02*
X51299999Y-101625000I249999J0D01*
G01*
X52100001Y-101625000D01*
G75*
G02*
X52350000Y-101874999I0J-249999D01*
G01*
X52350000Y-103125001D01*
G75*
G02*
X52100001Y-103375000I-249999J0D01*
G01*
X51299999Y-103375000D01*
G75*
G02*
X51050000Y-103125001I0J249999D01*
G01*
G37*
%TD.AperFunction*%
%TD*%
%TO.P,R1,2*%
%TO.N,IN1*%
%TA.AperFunction,SMDPad,CuDef*%
G36*
G01*
X54150000Y-100625001D02*
X54150000Y-99374999D01*
G75*
G02*
X54399999Y-99125000I249999J0D01*
G01*
X55200001Y-99125000D01*
G75*
G02*
X55450000Y-99374999I0J-249999D01*
G01*
X55450000Y-100625001D01*
G75*
G02*
X55200001Y-100875000I-249999J0D01*
G01*
X54399999Y-100875000D01*
G75*
G02*
X54150000Y-100625001I0J249999D01*
G01*
G37*
%TD.AperFunction*%
%TO.P,R1,1*%
%TO.N,+3V3*%
%TA.AperFunction,SMDPad,CuDef*%
G36*
G01*
X51050000Y-100625001D02*
X51050000Y-99374999D01*
G75*
G02*
X51299999Y-99125000I249999J0D01*
G01*
X52100001Y-99125000D01*
G75*
G02*
X52350000Y-99374999I0J-249999D01*
G01*
X52350000Y-100625001D01*
G75*
G02*
X52100001Y-100875000I-249999J0D01*
G01*
X51299999Y-100875000D01*
G75*
G02*
X51050000Y-100625001I0J249999D01*
G01*
G37*
%TD.AperFunction*%
%TD*%
D15*
%TO.P,M2,3*%
%TO.N,GND*%
X74750000Y-107580000D03*
%TD*%
%TO.P,M1,3*%
%TO.N,GND*%
X70250000Y-105040000D03*
%TD*%
D16*
%TO.P,J9,S1*%
%TO.N,GND*%
X92910000Y-108675000D03*
X92910000Y-117325000D03*
D17*
X88730000Y-108675000D03*
X88730000Y-117325000D03*
D18*
X89210000Y-110110000D03*
X89210000Y-115890000D03*
%TD*%
D13*
%TO.P,U4,6*%
%TO.N,Net-(J7-Pad2)*%
X73750000Y-130120000D03*
%TO.P,U4,3*%
%TO.N,Net-(U4-Pad3)*%
X68670000Y-122500000D03*
%TO.P,U4,2*%
%TO.N,GND*%
X71210000Y-122500000D03*
%TO.P,U4,4*%
%TO.N,Net-(J7-Pad1)*%
X68670000Y-130120000D03*
D14*
%TO.P,U4,1*%
%TO.N,Net-(R5-Pad1)*%
X73750000Y-122500000D03*
%TD*%
D13*
%TO.P,U3,6*%
%TO.N,Net-(J6-Pad2)*%
X65250000Y-130120000D03*
%TO.P,U3,3*%
%TO.N,Net-(U3-Pad3)*%
X60170000Y-122500000D03*
%TO.P,U3,2*%
%TO.N,GND*%
X62710000Y-122500000D03*
%TO.P,U3,4*%
%TO.N,Net-(J6-Pad1)*%
X60170000Y-130120000D03*
D14*
%TO.P,U3,1*%
%TO.N,Net-(R4-Pad1)*%
X65250000Y-122500000D03*
%TD*%
D13*
%TO.P,U2,6*%
%TO.N,Net-(J5-Pad2)*%
X56750000Y-130120000D03*
%TO.P,U2,3*%
%TO.N,Net-(U2-Pad3)*%
X51670000Y-122500000D03*
%TO.P,U2,2*%
%TO.N,GND*%
X54210000Y-122500000D03*
%TO.P,U2,4*%
%TO.N,Net-(J5-Pad1)*%
X51670000Y-130120000D03*
D14*
%TO.P,U2,1*%
%TO.N,Net-(R3-Pad1)*%
X56750000Y-122500000D03*
%TD*%
D19*
%TO.P,U1,38*%
%TO.N,GND*%
X64000000Y-102500000D03*
%TO.P,U1,37*%
%TO.N,OUT3*%
X64000000Y-103770000D03*
%TO.P,U1,36*%
%TO.N,OUT2*%
X64000000Y-105040000D03*
%TO.P,U1,35*%
%TO.N,O*%
X64000000Y-106310000D03*
%TO.P,U1,34*%
%TO.N,I*%
X64000000Y-107580000D03*
%TO.P,U1,33*%
%TO.N,OUT1*%
X64000000Y-108850000D03*
%TO.P,U1,32*%
%TO.N,Net-(U1-Pad32)*%
X64000000Y-110120000D03*
%TO.P,U1,31*%
%TO.N,SCL*%
X64000000Y-111390000D03*
%TO.P,U1,30*%
%TO.N,SDA*%
X64000000Y-112660000D03*
%TO.P,U1,29*%
%TO.N,SHDN*%
X64000000Y-113930000D03*
%TO.P,U1,28*%
%TO.N,RFTX*%
X64000000Y-115200000D03*
%TO.P,U1,27*%
%TO.N,RFRX*%
X64000000Y-116470000D03*
%TO.P,U1,26*%
%TO.N,IN1*%
X64000000Y-117740000D03*
%TO.P,U1,25*%
%TO.N,CBUS0*%
X64000000Y-119010000D03*
D20*
%TO.P,U1,24*%
%TO.N,IN2*%
X66785000Y-120010000D03*
%TO.P,U1,23*%
%TO.N,IN3*%
X68055000Y-120010000D03*
%TO.P,U1,22*%
%TO.N,Net-(U1-Pad22)*%
X69325000Y-120010000D03*
%TO.P,U1,21*%
%TO.N,Net-(U1-Pad21)*%
X70595000Y-120010000D03*
%TO.P,U1,20*%
%TO.N,Net-(U1-Pad20)*%
X71865000Y-120010000D03*
%TO.P,U1,19*%
%TO.N,Net-(U1-Pad19)*%
X73135000Y-120010000D03*
%TO.P,U1,18*%
%TO.N,Net-(U1-Pad18)*%
X74405000Y-120010000D03*
%TO.P,U1,17*%
%TO.N,Net-(U1-Pad17)*%
X75675000Y-120010000D03*
%TO.P,U1,16*%
%TO.N,IN4*%
X76945000Y-120010000D03*
%TO.P,U1,15*%
%TO.N,GND*%
X78215000Y-120010000D03*
D19*
%TO.P,U1,14*%
%TO.N,LED*%
X81000000Y-119010000D03*
%TO.P,U1,13*%
%TO.N,IN6*%
X81000000Y-117740000D03*
%TO.P,U1,12*%
%TO.N,IN7*%
X81000000Y-116470000D03*
%TO.P,U1,11*%
%TO.N,Net-(U1-Pad11)*%
X81000000Y-115200000D03*
%TO.P,U1,10*%
%TO.N,OUT4*%
X81000000Y-113930000D03*
%TO.P,U1,9*%
%TO.N,IN8*%
X81000000Y-112660000D03*
%TO.P,U1,8*%
%TO.N,IN5*%
X81000000Y-111390000D03*
%TO.P,U1,7*%
%TO.N,Net-(U1-Pad7)*%
X81000000Y-110120000D03*
%TO.P,U1,6*%
%TO.N,Net-(U1-Pad6)*%
X81000000Y-108850000D03*
%TO.P,U1,5*%
%TO.N,GND*%
X81000000Y-107580000D03*
%TO.P,U1,4*%
X81000000Y-106310000D03*
%TO.P,U1,3*%
%TO.N,EN*%
X81000000Y-105040000D03*
%TO.P,U1,2*%
%TO.N,+3V3*%
X81000000Y-103770000D03*
%TO.P,U1,1*%
%TO.N,GND*%
X81000000Y-102500000D03*
D21*
%TO.P,U1,39*%
X73500000Y-110000000D03*
%TD*%
%TO.P,R14,2*%
%TO.N,Net-(J9-PadB5)*%
%TA.AperFunction,SMDPad,CuDef*%
G36*
G01*
X91400000Y-111124999D02*
X91400000Y-112375001D01*
G75*
G02*
X91150001Y-112625000I-249999J0D01*
G01*
X90349999Y-112625000D01*
G75*
G02*
X90100000Y-112375001I0J249999D01*
G01*
X90100000Y-111124999D01*
G75*
G02*
X90349999Y-110875000I249999J0D01*
G01*
X91150001Y-110875000D01*
G75*
G02*
X91400000Y-111124999I0J-249999D01*
G01*
G37*
%TD.AperFunction*%
%TO.P,R14,1*%
%TO.N,GND*%
%TA.AperFunction,SMDPad,CuDef*%
G36*
G01*
X94500000Y-111124999D02*
X94500000Y-112375001D01*
G75*
G02*
X94250001Y-112625000I-249999J0D01*
G01*
X93449999Y-112625000D01*
G75*
G02*
X93200000Y-112375001I0J249999D01*
G01*
X93200000Y-111124999D01*
G75*
G02*
X93449999Y-110875000I249999J0D01*
G01*
X94250001Y-110875000D01*
G75*
G02*
X94500000Y-111124999I0J-249999D01*
G01*
G37*
%TD.AperFunction*%
%TD*%
%TO.P,R13,2*%
%TO.N,GND*%
%TA.AperFunction,SMDPad,CuDef*%
G36*
G01*
X93200000Y-114875001D02*
X93200000Y-113624999D01*
G75*
G02*
X93449999Y-113375000I249999J0D01*
G01*
X94250001Y-113375000D01*
G75*
G02*
X94500000Y-113624999I0J-249999D01*
G01*
X94500000Y-114875001D01*
G75*
G02*
X94250001Y-115125000I-249999J0D01*
G01*
X93449999Y-115125000D01*
G75*
G02*
X93200000Y-114875001I0J249999D01*
G01*
G37*
%TD.AperFunction*%
%TO.P,R13,1*%
%TO.N,Net-(J9-PadA5)*%
%TA.AperFunction,SMDPad,CuDef*%
G36*
G01*
X90100000Y-114875001D02*
X90100000Y-113624999D01*
G75*
G02*
X90349999Y-113375000I249999J0D01*
G01*
X91150001Y-113375000D01*
G75*
G02*
X91400000Y-113624999I0J-249999D01*
G01*
X91400000Y-114875001D01*
G75*
G02*
X91150001Y-115125000I-249999J0D01*
G01*
X90349999Y-115125000D01*
G75*
G02*
X90100000Y-114875001I0J249999D01*
G01*
G37*
%TD.AperFunction*%
%TD*%
%TO.P,R6,2*%
%TO.N,OUT4*%
%TA.AperFunction,SMDPad,CuDef*%
G36*
G01*
X78600000Y-125224999D02*
X78600000Y-126475001D01*
G75*
G02*
X78350001Y-126725000I-249999J0D01*
G01*
X77549999Y-126725000D01*
G75*
G02*
X77300000Y-126475001I0J249999D01*
G01*
X77300000Y-125224999D01*
G75*
G02*
X77549999Y-124975000I249999J0D01*
G01*
X78350001Y-124975000D01*
G75*
G02*
X78600000Y-125224999I0J-249999D01*
G01*
G37*
%TD.AperFunction*%
%TO.P,R6,1*%
%TO.N,Net-(R6-Pad1)*%
%TA.AperFunction,SMDPad,CuDef*%
G36*
G01*
X81700000Y-125224999D02*
X81700000Y-126475001D01*
G75*
G02*
X81450001Y-126725000I-249999J0D01*
G01*
X80649999Y-126725000D01*
G75*
G02*
X80400000Y-126475001I0J249999D01*
G01*
X80400000Y-125224999D01*
G75*
G02*
X80649999Y-124975000I249999J0D01*
G01*
X81450001Y-124975000D01*
G75*
G02*
X81700000Y-125224999I0J-249999D01*
G01*
G37*
%TD.AperFunction*%
%TD*%
%TO.P,R5,2*%
%TO.N,OUT3*%
%TA.AperFunction,SMDPad,CuDef*%
G36*
G01*
X70100000Y-125224999D02*
X70100000Y-126475001D01*
G75*
G02*
X69850001Y-126725000I-249999J0D01*
G01*
X69049999Y-126725000D01*
G75*
G02*
X68800000Y-126475001I0J249999D01*
G01*
X68800000Y-125224999D01*
G75*
G02*
X69049999Y-124975000I249999J0D01*
G01*
X69850001Y-124975000D01*
G75*
G02*
X70100000Y-125224999I0J-249999D01*
G01*
G37*
%TD.AperFunction*%
%TO.P,R5,1*%
%TO.N,Net-(R5-Pad1)*%
%TA.AperFunction,SMDPad,CuDef*%
G36*
G01*
X73200000Y-125224999D02*
X73200000Y-126475001D01*
G75*
G02*
X72950001Y-126725000I-249999J0D01*
G01*
X72149999Y-126725000D01*
G75*
G02*
X71900000Y-126475001I0J249999D01*
G01*
X71900000Y-125224999D01*
G75*
G02*
X72149999Y-124975000I249999J0D01*
G01*
X72950001Y-124975000D01*
G75*
G02*
X73200000Y-125224999I0J-249999D01*
G01*
G37*
%TD.AperFunction*%
%TD*%
%TO.P,R4,2*%
%TO.N,OUT2*%
%TA.AperFunction,SMDPad,CuDef*%
G36*
G01*
X61600000Y-125224999D02*
X61600000Y-126475001D01*
G75*
G02*
X61350001Y-126725000I-249999J0D01*
G01*
X60549999Y-126725000D01*
G75*
G02*
X60300000Y-126475001I0J249999D01*
G01*
X60300000Y-125224999D01*
G75*
G02*
X60549999Y-124975000I249999J0D01*
G01*
X61350001Y-124975000D01*
G75*
G02*
X61600000Y-125224999I0J-249999D01*
G01*
G37*
%TD.AperFunction*%
%TO.P,R4,1*%
%TO.N,Net-(R4-Pad1)*%
%TA.AperFunction,SMDPad,CuDef*%
G36*
G01*
X64700000Y-125224999D02*
X64700000Y-126475001D01*
G75*
G02*
X64450001Y-126725000I-249999J0D01*
G01*
X63649999Y-126725000D01*
G75*
G02*
X63400000Y-126475001I0J249999D01*
G01*
X63400000Y-125224999D01*
G75*
G02*
X63649999Y-124975000I249999J0D01*
G01*
X64450001Y-124975000D01*
G75*
G02*
X64700000Y-125224999I0J-249999D01*
G01*
G37*
%TD.AperFunction*%
%TD*%
%TO.P,R3,2*%
%TO.N,OUT1*%
%TA.AperFunction,SMDPad,CuDef*%
G36*
G01*
X53100000Y-125224999D02*
X53100000Y-126475001D01*
G75*
G02*
X52850001Y-126725000I-249999J0D01*
G01*
X52049999Y-126725000D01*
G75*
G02*
X51800000Y-126475001I0J249999D01*
G01*
X51800000Y-125224999D01*
G75*
G02*
X52049999Y-124975000I249999J0D01*
G01*
X52850001Y-124975000D01*
G75*
G02*
X53100000Y-125224999I0J-249999D01*
G01*
G37*
%TD.AperFunction*%
%TO.P,R3,1*%
%TO.N,Net-(R3-Pad1)*%
%TA.AperFunction,SMDPad,CuDef*%
G36*
G01*
X56200000Y-125224999D02*
X56200000Y-126475001D01*
G75*
G02*
X55950001Y-126725000I-249999J0D01*
G01*
X55149999Y-126725000D01*
G75*
G02*
X54900000Y-126475001I0J249999D01*
G01*
X54900000Y-125224999D01*
G75*
G02*
X55149999Y-124975000I249999J0D01*
G01*
X55950001Y-124975000D01*
G75*
G02*
X56200000Y-125224999I0J-249999D01*
G01*
G37*
%TD.AperFunction*%
%TD*%
D22*
%TO.P,J2,2*%
%TO.N,VBUS*%
X88000000Y-134500000D03*
%TO.P,J2,1*%
%TO.N,GND*%
%TA.AperFunction,ComponentPad*%
G36*
G01*
X88675000Y-137850000D02*
X87325000Y-137850000D01*
G75*
G02*
X87075000Y-137600000I0J250000D01*
G01*
X87075000Y-136400000D01*
G75*
G02*
X87325000Y-136150000I250000J0D01*
G01*
X88675000Y-136150000D01*
G75*
G02*
X88925000Y-136400000I0J-250000D01*
G01*
X88925000Y-137600000D01*
G75*
G02*
X88675000Y-137850000I-250000J0D01*
G01*
G37*
%TD.AperFunction*%
%TD*%
%TO.P,J4,4*%
%TO.N,RFTX*%
X88000000Y-97500000D03*
%TO.P,J4,3*%
%TO.N,RFRX*%
X88000000Y-100000000D03*
%TO.P,J4,2*%
%TO.N,+5V*%
X88000000Y-102500000D03*
%TO.P,J4,1*%
%TO.N,GND*%
%TA.AperFunction,ComponentPad*%
G36*
G01*
X88675000Y-105850000D02*
X87325000Y-105850000D01*
G75*
G02*
X87075000Y-105600000I0J250000D01*
G01*
X87075000Y-104400000D01*
G75*
G02*
X87325000Y-104150000I250000J0D01*
G01*
X88675000Y-104150000D01*
G75*
G02*
X88925000Y-104400000I0J-250000D01*
G01*
X88925000Y-105600000D01*
G75*
G02*
X88675000Y-105850000I-250000J0D01*
G01*
G37*
%TD.AperFunction*%
%TD*%
%TO.P,J3,4*%
%TO.N,SDA*%
X88000000Y-121000000D03*
%TO.P,J3,3*%
%TO.N,SCL*%
X88000000Y-123500000D03*
%TO.P,J3,2*%
%TO.N,+3V3*%
X88000000Y-126000000D03*
%TO.P,J3,1*%
%TO.N,GND*%
%TA.AperFunction,ComponentPad*%
G36*
G01*
X88675000Y-129350000D02*
X87325000Y-129350000D01*
G75*
G02*
X87075000Y-129100000I0J250000D01*
G01*
X87075000Y-127900000D01*
G75*
G02*
X87325000Y-127650000I250000J0D01*
G01*
X88675000Y-127650000D01*
G75*
G02*
X88925000Y-127900000I0J-250000D01*
G01*
X88925000Y-129100000D01*
G75*
G02*
X88675000Y-129350000I-250000J0D01*
G01*
G37*
%TD.AperFunction*%
%TD*%
D23*
%TO.P,J8,2*%
%TO.N,Net-(J8-Pad2)*%
X81000000Y-133000000D03*
%TO.P,J8,1*%
%TO.N,Net-(J8-Pad1)*%
%TA.AperFunction,ComponentPad*%
G36*
G01*
X77650000Y-133675000D02*
X77650000Y-132325000D01*
G75*
G02*
X77900000Y-132075000I250000J0D01*
G01*
X79100000Y-132075000D01*
G75*
G02*
X79350000Y-132325000I0J-250000D01*
G01*
X79350000Y-133675000D01*
G75*
G02*
X79100000Y-133925000I-250000J0D01*
G01*
X77900000Y-133925000D01*
G75*
G02*
X77650000Y-133675000I0J250000D01*
G01*
G37*
%TD.AperFunction*%
%TD*%
%TO.P,J7,2*%
%TO.N,Net-(J7-Pad2)*%
X72500000Y-133000000D03*
%TO.P,J7,1*%
%TO.N,Net-(J7-Pad1)*%
%TA.AperFunction,ComponentPad*%
G36*
G01*
X69150000Y-133675000D02*
X69150000Y-132325000D01*
G75*
G02*
X69400000Y-132075000I250000J0D01*
G01*
X70600000Y-132075000D01*
G75*
G02*
X70850000Y-132325000I0J-250000D01*
G01*
X70850000Y-133675000D01*
G75*
G02*
X70600000Y-133925000I-250000J0D01*
G01*
X69400000Y-133925000D01*
G75*
G02*
X69150000Y-133675000I0J250000D01*
G01*
G37*
%TD.AperFunction*%
%TD*%
%TO.P,J6,2*%
%TO.N,Net-(J6-Pad2)*%
X64000000Y-133000000D03*
%TO.P,J6,1*%
%TO.N,Net-(J6-Pad1)*%
%TA.AperFunction,ComponentPad*%
G36*
G01*
X60650000Y-133675000D02*
X60650000Y-132325000D01*
G75*
G02*
X60900000Y-132075000I250000J0D01*
G01*
X62100000Y-132075000D01*
G75*
G02*
X62350000Y-132325000I0J-250000D01*
G01*
X62350000Y-133675000D01*
G75*
G02*
X62100000Y-133925000I-250000J0D01*
G01*
X60900000Y-133925000D01*
G75*
G02*
X60650000Y-133675000I0J250000D01*
G01*
G37*
%TD.AperFunction*%
%TD*%
%TO.P,J5,2*%
%TO.N,Net-(J5-Pad2)*%
X55500000Y-133000000D03*
%TO.P,J5,1*%
%TO.N,Net-(J5-Pad1)*%
%TA.AperFunction,ComponentPad*%
G36*
G01*
X52150000Y-133675000D02*
X52150000Y-132325000D01*
G75*
G02*
X52400000Y-132075000I250000J0D01*
G01*
X53600000Y-132075000D01*
G75*
G02*
X53850000Y-132325000I0J-250000D01*
G01*
X53850000Y-133675000D01*
G75*
G02*
X53600000Y-133925000I-250000J0D01*
G01*
X52400000Y-133925000D01*
G75*
G02*
X52150000Y-133675000I0J250000D01*
G01*
G37*
%TD.AperFunction*%
%TD*%
D22*
%TO.P,J1,9*%
%TO.N,IN8*%
X57000000Y-117500000D03*
%TO.P,J1,8*%
%TO.N,IN7*%
X57000000Y-115000000D03*
%TO.P,J1,7*%
%TO.N,IN6*%
X57000000Y-112500000D03*
%TO.P,J1,6*%
%TO.N,IN5*%
X57000000Y-110000000D03*
%TO.P,J1,5*%
%TO.N,IN4*%
X57000000Y-107500000D03*
%TO.P,J1,4*%
%TO.N,IN3*%
X57000000Y-105000000D03*
%TO.P,J1,3*%
%TO.N,IN2*%
X57000000Y-102500000D03*
%TO.P,J1,2*%
%TO.N,IN1*%
X57000000Y-100000000D03*
%TO.P,J1,1*%
%TO.N,GND*%
%TA.AperFunction,ComponentPad*%
G36*
G01*
X56325000Y-96650000D02*
X57675000Y-96650000D01*
G75*
G02*
X57925000Y-96900000I0J-250000D01*
G01*
X57925000Y-98100000D01*
G75*
G02*
X57675000Y-98350000I-250000J0D01*
G01*
X56325000Y-98350000D01*
G75*
G02*
X56075000Y-98100000I0J250000D01*
G01*
X56075000Y-96900000D01*
G75*
G02*
X56325000Y-96650000I250000J0D01*
G01*
G37*
%TD.AperFunction*%
%TD*%
D24*
%TO.N,GND*%
X81000000Y-102500000D03*
X61800000Y-104200000D03*
X79428910Y-106267179D03*
%TO.N,SDA*%
X66900000Y-113200000D03*
%TO.N,SCL*%
X68200000Y-113400000D03*
%TO.N,+3V3*%
X51700000Y-100000000D03*
X72500000Y-102500000D03*
X78949989Y-113100000D03*
X83500000Y-113100000D03*
X74448259Y-118022859D03*
%TO.N,RFRX*%
X89800000Y-101600000D03*
X77975007Y-104322228D03*
%TO.N,RFTX*%
X77000000Y-104100000D03*
%TO.N,+5V*%
X83761866Y-103875021D03*
%TO.N,OUT1*%
X52450000Y-125900000D03*
X64909969Y-108808667D03*
%TO.N,OUT2*%
X61800000Y-106300000D03*
X60975000Y-125875000D03*
%TO.N,OUT3*%
X65900000Y-104200000D03*
X69475000Y-125875000D03*
%TO.N,OUT4*%
X82500000Y-127900000D03*
X77950000Y-125900000D03*
%TO.N,Net-(J9-PadA5)*%
X86588157Y-115333080D03*
%TO.N,Net-(J9-PadB5)*%
X87023432Y-111147818D03*
%TO.N,O*%
X72442474Y-114216299D03*
%TO.N,I*%
X71295956Y-114095100D03*
%TO.N,CBUS0*%
X73450053Y-116375021D03*
%TO.N,EN*%
X74178781Y-117059841D03*
%TO.N,D-*%
X86507810Y-114336301D03*
X84874990Y-113490644D03*
%TO.N,D+*%
X86469588Y-113337019D03*
X86325010Y-111887008D03*
%TO.N,Net-(M2-Pad1)*%
X74750000Y-102500000D03*
X68137989Y-105700000D03*
%TO.N,SHDN*%
X62100000Y-111000000D03*
%TO.N,LED*%
X81700000Y-120500000D03*
%TD*%
D25*
%TO.N,IN8*%
X54800000Y-117500000D02*
X57000000Y-117500000D01*
X82250000Y-112660000D02*
X81000000Y-112660000D01*
X82325001Y-112735001D02*
X82250000Y-112660000D01*
X82325001Y-113853588D02*
X82325001Y-112735001D01*
X84800022Y-116328609D02*
X82325001Y-113853588D01*
X57000000Y-117500000D02*
X55624999Y-118875001D01*
X82622948Y-128850054D02*
X84800022Y-126672980D01*
X84800022Y-126672980D02*
X84800022Y-116328609D01*
X55624999Y-123936811D02*
X54574990Y-124986820D01*
X55624999Y-118875001D02*
X55624999Y-123936811D01*
X58449946Y-128850054D02*
X58449946Y-128749946D01*
X58449946Y-128850054D02*
X82622948Y-128850054D01*
X58449946Y-128749946D02*
X56800000Y-127100000D01*
X54900000Y-127100000D02*
X54574990Y-126774990D01*
X56800000Y-127100000D02*
X54900000Y-127100000D01*
X54574990Y-124986820D02*
X54574990Y-126774990D01*
%TO.N,IN7*%
X54800000Y-115000000D02*
X57000000Y-115000000D01*
X82250000Y-116470000D02*
X81000000Y-116470000D01*
X83825012Y-118045012D02*
X82250000Y-116470000D01*
X83825012Y-125549589D02*
X83825012Y-118045012D01*
X80974558Y-128400043D02*
X83825012Y-125549589D01*
X58827221Y-128400043D02*
X80974558Y-128400043D01*
X57875005Y-127447827D02*
X58827221Y-128400043D01*
X58250010Y-117986708D02*
X57875005Y-118361712D01*
X57000000Y-115000000D02*
X58250010Y-116250010D01*
X57875005Y-118361712D02*
X57875005Y-127447827D01*
X58250010Y-116250010D02*
X58250010Y-117986708D01*
%TO.N,IN6*%
X54800000Y-112500000D02*
X57000000Y-112500000D01*
X83375001Y-125363189D02*
X83375001Y-118865001D01*
X59013621Y-127950032D02*
X80788158Y-127950032D01*
X58325016Y-127261427D02*
X59013621Y-127950032D01*
X82250000Y-117740000D02*
X81000000Y-117740000D01*
X80788158Y-127950032D02*
X83375001Y-125363189D01*
X58325016Y-118548112D02*
X58325016Y-127261427D01*
X83375001Y-118865001D02*
X82250000Y-117740000D01*
X58700020Y-118173109D02*
X58325016Y-118548112D01*
X58700021Y-114200021D02*
X58700020Y-118173109D01*
X57000000Y-112500000D02*
X58700021Y-114200021D01*
%TO.N,IN5*%
X54800000Y-110000000D02*
X57000000Y-110000000D01*
X58775026Y-127075026D02*
X59200021Y-127500021D01*
X81124999Y-124224999D02*
X81124999Y-121170001D01*
X79399979Y-127500021D02*
X80000000Y-126900000D01*
X81124999Y-121170001D02*
X79674999Y-119720001D01*
X79674999Y-112034234D02*
X80319233Y-111390000D01*
X58775026Y-118734513D02*
X58775026Y-127075026D01*
X79674999Y-119720001D02*
X79674999Y-112034234D01*
X59150032Y-118359508D02*
X58775026Y-118734513D01*
X80000000Y-126900000D02*
X80000000Y-124900000D01*
X80700008Y-124649990D02*
X81124999Y-124224999D01*
X58175000Y-110000000D02*
X59150032Y-110975032D01*
X57000000Y-110000000D02*
X58175000Y-110000000D01*
X59150032Y-110975032D02*
X59150032Y-118359508D01*
X80319233Y-111390000D02*
X81000000Y-111390000D01*
X80250010Y-124649990D02*
X80700008Y-124649990D01*
X59200021Y-127500021D02*
X79399979Y-127500021D01*
X80000000Y-124900000D02*
X80250010Y-124649990D01*
%TO.N,IN4*%
X54800000Y-107500000D02*
X57000000Y-107500000D01*
X65600000Y-123900000D02*
X66035002Y-123900000D01*
X65269095Y-126469095D02*
X65269095Y-124230905D01*
X59582193Y-123717807D02*
X59300000Y-124000000D01*
X66900000Y-121900000D02*
X67566413Y-121900000D01*
X66900000Y-123035002D02*
X66900000Y-121900000D01*
X64688180Y-127050010D02*
X65269095Y-126469095D01*
X57000000Y-107500000D02*
X58175000Y-107500000D01*
X59550010Y-127050010D02*
X64688180Y-127050010D01*
X59599980Y-119327199D02*
X59599980Y-120264978D01*
X59300000Y-124000000D02*
X59300000Y-126800000D01*
X76830001Y-121374999D02*
X76945000Y-121260000D01*
X68091414Y-121374999D02*
X76830001Y-121374999D01*
X59600043Y-108925043D02*
X59600043Y-119327136D01*
X59599980Y-120264978D02*
X61436013Y-122101011D01*
X67566413Y-121900000D02*
X68091414Y-121374999D01*
X59300000Y-126800000D02*
X59550010Y-127050010D01*
X60617807Y-123717807D02*
X59582193Y-123717807D01*
X61436013Y-122101011D02*
X61436013Y-122899602D01*
X65269095Y-124230905D02*
X65600000Y-123900000D01*
X61436013Y-122899602D02*
X60617807Y-123717807D01*
X76945000Y-121260000D02*
X76945000Y-120010000D01*
X66035002Y-123900000D02*
X66900000Y-123035002D01*
X59600043Y-119327136D02*
X59599980Y-119327199D01*
X58175000Y-107500000D02*
X59600043Y-108925043D01*
%TO.N,IN3*%
X54800000Y-105000000D02*
X57000000Y-105000000D01*
X67455004Y-121374999D02*
X61538589Y-121374999D01*
X68055000Y-120775003D02*
X67455004Y-121374999D01*
X68055000Y-120010000D02*
X68055000Y-120775003D01*
X61538589Y-121374999D02*
X60049991Y-119886401D01*
X60050054Y-108450054D02*
X58250010Y-106650010D01*
X58250010Y-106250010D02*
X57000000Y-105000000D01*
X60050054Y-119513536D02*
X60050054Y-108450054D01*
X60049991Y-119513599D02*
X60050054Y-119513536D01*
X60049991Y-119886401D02*
X60049991Y-119513599D01*
X58250010Y-106650010D02*
X58250010Y-106250010D01*
%TO.N,IN2*%
X54800000Y-102500000D02*
X57000000Y-102500000D01*
X59900000Y-105400000D02*
X57000000Y-102500000D01*
X59900000Y-107663589D02*
X59900000Y-105400000D01*
X60500065Y-119700064D02*
X60500065Y-108263653D01*
X60500065Y-108263653D02*
X59900000Y-107663589D01*
X61700000Y-120900000D02*
X60500065Y-119700064D01*
X65400000Y-120900000D02*
X61700000Y-120900000D01*
X66290000Y-120010000D02*
X65400000Y-120900000D01*
X66785000Y-120010000D02*
X66290000Y-120010000D01*
%TO.N,IN1*%
X54800000Y-100000000D02*
X57000000Y-100000000D01*
X57000000Y-100030344D02*
X57000000Y-100000000D01*
X60350011Y-103380355D02*
X57000000Y-100030344D01*
X60350011Y-107477189D02*
X60350011Y-103380355D01*
X64000000Y-117740000D02*
X61540000Y-117740000D01*
X60950076Y-108077254D02*
X60350011Y-107477189D01*
X60950076Y-117150076D02*
X60950076Y-108077254D01*
X61540000Y-117740000D02*
X60950076Y-117150076D01*
%TO.N,GND*%
X79710000Y-122480000D02*
X79710000Y-121110000D01*
X78610000Y-120010000D02*
X78215000Y-120010000D01*
X79710000Y-121110000D02*
X78610000Y-120010000D01*
X81000000Y-106310000D02*
X79471731Y-106310000D01*
X79471731Y-106310000D02*
X79428910Y-106267179D01*
D26*
%TO.N,Net-(J5-Pad2)*%
X56750000Y-131750000D02*
X55500000Y-133000000D01*
X56750000Y-130120000D02*
X56750000Y-131750000D01*
%TO.N,Net-(J5-Pad1)*%
X51670000Y-131670000D02*
X53000000Y-133000000D01*
X51670000Y-130120000D02*
X51670000Y-131670000D01*
D25*
%TO.N,SDA*%
X66360000Y-112660000D02*
X66900000Y-113200000D01*
X64000000Y-112660000D02*
X66360000Y-112660000D01*
%TO.N,SCL*%
X68127178Y-113400000D02*
X68200000Y-113400000D01*
X66117178Y-111390000D02*
X68127178Y-113400000D01*
X64000000Y-111390000D02*
X66117178Y-111390000D01*
%TO.N,+3V3*%
X51700000Y-100000000D02*
X51700000Y-102500000D01*
X51700000Y-102500000D02*
X51700000Y-105000000D01*
X51700000Y-105000000D02*
X51700000Y-107500000D01*
X51700000Y-107500000D02*
X51700000Y-110000000D01*
X51700000Y-110000000D02*
X51700000Y-112500000D01*
X51700000Y-112500000D02*
X51700000Y-115000000D01*
X51700000Y-115000000D02*
X51700000Y-117500000D01*
X86749990Y-117642166D02*
X86749990Y-124749990D01*
X82250000Y-103770000D02*
X82775012Y-104295012D01*
X86749990Y-124749990D02*
X88000000Y-126000000D01*
X82775012Y-113667188D02*
X86749990Y-117642166D01*
X82250000Y-103770000D02*
X81000000Y-103770000D01*
X72500000Y-102500000D02*
X73624990Y-101375010D01*
X73624990Y-101375010D02*
X81910012Y-101375010D01*
X81910012Y-101375010D02*
X82325001Y-101789999D01*
X82325001Y-103694999D02*
X82250000Y-103770000D01*
X82325001Y-101789999D02*
X82325001Y-103694999D01*
X82800000Y-113100000D02*
X82775012Y-113075012D01*
X83500000Y-113100000D02*
X82800000Y-113100000D01*
X82775012Y-113075012D02*
X82775012Y-113667188D01*
X82775012Y-104295012D02*
X82775012Y-113075012D01*
X78949989Y-113100000D02*
X74903783Y-117146206D01*
X74903783Y-117567335D02*
X74448259Y-118022859D01*
X74903783Y-117146206D02*
X74903783Y-117567335D01*
%TO.N,RFRX*%
X89600000Y-101600000D02*
X88000000Y-100000000D01*
X89800000Y-101600000D02*
X89600000Y-101600000D01*
X64000000Y-116470000D02*
X72239413Y-116470000D01*
X72239413Y-116470000D02*
X73059402Y-115650011D01*
X77975007Y-106475007D02*
X77975007Y-104322228D01*
X73059402Y-115650011D02*
X74686400Y-115650011D01*
X78850011Y-107350011D02*
X77975007Y-106475007D01*
X74686400Y-115650011D02*
X78850011Y-111486399D01*
X78850011Y-111486399D02*
X78850011Y-107350011D01*
%TO.N,RFTX*%
X72873002Y-115200000D02*
X64000000Y-115200000D01*
X77000000Y-104100000D02*
X77000000Y-104400000D01*
X77000000Y-104400000D02*
X77500000Y-104900000D01*
X77500000Y-104900000D02*
X77500000Y-106800000D01*
X77500000Y-106800000D02*
X78400000Y-107700000D01*
X78400000Y-107700000D02*
X78400000Y-111300000D01*
X78400000Y-111300000D02*
X74500000Y-115200000D01*
X74500000Y-115200000D02*
X72873002Y-115200000D01*
%TO.N,+5V*%
X85136887Y-102500000D02*
X83761866Y-103875021D01*
X88000000Y-102500000D02*
X85136887Y-102500000D01*
%TO.N,OUT1*%
X64000000Y-108850000D02*
X64868636Y-108850000D01*
X64868636Y-108850000D02*
X64909969Y-108808667D01*
%TO.N,OUT2*%
X63060000Y-105040000D02*
X61800000Y-106300000D01*
X64000000Y-105040000D02*
X63060000Y-105040000D01*
%TO.N,OUT3*%
X65470000Y-103770000D02*
X65900000Y-104200000D01*
X64000000Y-103770000D02*
X65470000Y-103770000D01*
%TO.N,Net-(R3-Pad1)*%
X56750000Y-125050000D02*
X55550000Y-126250000D01*
X56750000Y-122500000D02*
X56750000Y-125050000D01*
%TO.N,OUT4*%
X84350011Y-116515009D02*
X84350011Y-126049910D01*
X81765002Y-113930000D02*
X84350011Y-116515009D01*
X81000000Y-113930000D02*
X81765002Y-113930000D01*
X84350011Y-126049989D02*
X82500000Y-127900000D01*
X84350011Y-126049910D02*
X84350011Y-126049989D01*
%TO.N,Net-(R4-Pad1)*%
X64050000Y-123700000D02*
X64050000Y-126250000D01*
X65250000Y-122500000D02*
X64050000Y-123700000D01*
%TO.N,Net-(J9-PadA5)*%
X90750000Y-114250000D02*
X87671237Y-114250000D01*
X87671237Y-114250000D02*
X86588157Y-115333080D01*
%TO.N,Net-(J9-PadB5)*%
X87625614Y-111750000D02*
X87023432Y-111147818D01*
X90750000Y-111750000D02*
X87625614Y-111750000D01*
%TO.N,O*%
X64000000Y-106310000D02*
X65250000Y-106310000D01*
X71463088Y-113236912D02*
X69736912Y-113236912D01*
X71463088Y-113236912D02*
X72442474Y-114216299D01*
X66220000Y-109720000D02*
X66220000Y-107280000D01*
X69736912Y-113236912D02*
X66220000Y-109720000D01*
X65250000Y-106310000D02*
X66220000Y-107280000D01*
%TO.N,I*%
X65769989Y-109906400D02*
X69958690Y-114095100D01*
X65769989Y-108099989D02*
X65769989Y-109906400D01*
X64000000Y-107580000D02*
X65250000Y-107580000D01*
X65250000Y-107580000D02*
X65769989Y-108099989D01*
X69958690Y-114095100D02*
X71295956Y-114095100D01*
%TO.N,CBUS0*%
X64325001Y-118684999D02*
X71140075Y-118684999D01*
X71140075Y-118684999D02*
X73450053Y-116375021D01*
X64000000Y-119010000D02*
X64325001Y-118684999D01*
%TO.N,EN*%
X78600000Y-105900000D02*
X79460000Y-105040000D01*
X79300022Y-111672799D02*
X79300022Y-107163611D01*
X79300022Y-107163611D02*
X78600000Y-106463590D01*
X79460000Y-105040000D02*
X81000000Y-105040000D01*
X78600000Y-106463590D02*
X78600000Y-105900000D01*
X74178781Y-116794040D02*
X79300022Y-111672799D01*
X74178781Y-117059841D02*
X74178781Y-116794040D01*
%TO.N,D-*%
X85720647Y-114336301D02*
X84874990Y-113490644D01*
X86507810Y-114336301D02*
X85720647Y-114336301D01*
%TO.N,D+*%
X86469588Y-113337019D02*
X86469588Y-112031586D01*
X86469588Y-112031586D02*
X86325010Y-111887008D01*
%TO.N,Net-(M2-Pad1)*%
X68137989Y-104162011D02*
X68137989Y-105700000D01*
X73900001Y-103349999D02*
X68950001Y-103349999D01*
X74750000Y-102500000D02*
X73900001Y-103349999D01*
X68950001Y-103349999D02*
X68137989Y-104162011D01*
D26*
%TO.N,Net-(J6-Pad2)*%
X65250000Y-131750000D02*
X64000000Y-133000000D01*
X65250000Y-130120000D02*
X65250000Y-131750000D01*
%TO.N,Net-(J6-Pad1)*%
X60170000Y-130120000D02*
X61500000Y-131450000D01*
X61500000Y-131450000D02*
X61500000Y-133000000D01*
%TO.N,Net-(J7-Pad2)*%
X73750000Y-131750000D02*
X72500000Y-133000000D01*
X73750000Y-130120000D02*
X73750000Y-131750000D01*
%TO.N,Net-(J7-Pad1)*%
X68670000Y-131670000D02*
X70000000Y-133000000D01*
X68670000Y-130120000D02*
X68670000Y-131670000D01*
%TO.N,Net-(J8-Pad2)*%
X82250000Y-131750000D02*
X81000000Y-133000000D01*
X82250000Y-130100000D02*
X82250000Y-131750000D01*
%TO.N,Net-(J8-Pad1)*%
X77170000Y-131670000D02*
X78500000Y-133000000D01*
X77170000Y-130100000D02*
X77170000Y-131670000D01*
D25*
%TO.N,Net-(R5-Pad1)*%
X73750000Y-125050000D02*
X72550000Y-126250000D01*
X73750000Y-122500000D02*
X73750000Y-125050000D01*
%TO.N,Net-(R6-Pad1)*%
X82250000Y-125050000D02*
X81050000Y-126250000D01*
X82250000Y-122480000D02*
X82250000Y-125050000D01*
%TO.N,SHDN*%
X63234998Y-113930000D02*
X62100000Y-112795002D01*
X64000000Y-113930000D02*
X63234998Y-113930000D01*
X62100000Y-112795002D02*
X62100000Y-111000000D01*
%TO.N,LED*%
X81700000Y-119710000D02*
X81000000Y-119010000D01*
X81700000Y-120500000D02*
X81700000Y-119710000D01*
%TD*%
D27*
%TO.N,GND*%
X94060547Y-95694222D02*
X94118786Y-95711805D01*
X94172501Y-95740366D01*
X94219646Y-95778816D01*
X94258424Y-95825691D01*
X94287358Y-95879204D01*
X94305349Y-95937323D01*
X94315000Y-96029145D01*
X94315000Y-108193912D01*
X94260919Y-108041253D01*
X94187472Y-107903843D01*
X93938397Y-107826208D01*
X93089605Y-108675000D01*
X93938397Y-109523792D01*
X94187472Y-109446157D01*
X94313371Y-109182117D01*
X94315000Y-109175698D01*
X94315000Y-110238488D01*
X94135750Y-110240000D01*
X93977000Y-110398750D01*
X93977000Y-111623000D01*
X93997000Y-111623000D01*
X93997000Y-111877000D01*
X93977000Y-111877000D01*
X93977000Y-114123000D01*
X93997000Y-114123000D01*
X93997000Y-114377000D01*
X93977000Y-114377000D01*
X93977000Y-115601250D01*
X94135750Y-115760000D01*
X94315000Y-115761512D01*
X94315000Y-116843912D01*
X94260919Y-116691253D01*
X94187472Y-116553843D01*
X93938397Y-116476208D01*
X93089605Y-117325000D01*
X93938397Y-118173792D01*
X94187472Y-118096157D01*
X94313371Y-117832117D01*
X94315001Y-117825697D01*
X94315001Y-127573494D01*
X94273342Y-127525845D01*
X94158613Y-127437532D01*
X94028859Y-127373298D01*
X93889067Y-127335613D01*
X93744610Y-127325924D01*
X93601037Y-127344603D01*
X93463868Y-127390933D01*
X93369819Y-127445041D01*
X91319891Y-128909276D01*
X91298681Y-128920613D01*
X91262842Y-128950026D01*
X89261535Y-130379531D01*
X89239680Y-130391213D01*
X89202752Y-130421519D01*
X89193410Y-130428192D01*
X89174868Y-130444403D01*
X89127762Y-130483062D01*
X89120426Y-130492001D01*
X89111725Y-130499608D01*
X89074573Y-130547872D01*
X89035913Y-130594980D01*
X89030462Y-130605178D01*
X89023412Y-130614337D01*
X88996393Y-130668918D01*
X88967663Y-130722667D01*
X88964306Y-130733735D01*
X88959179Y-130744091D01*
X88943327Y-130802892D01*
X88925635Y-130861215D01*
X88924502Y-130872723D01*
X88921493Y-130883883D01*
X88917417Y-130944657D01*
X88911444Y-131005300D01*
X88912577Y-131016808D01*
X88911804Y-131028339D01*
X88919661Y-131088734D01*
X88925635Y-131149385D01*
X88928992Y-131160451D01*
X88930483Y-131171912D01*
X88949971Y-131229609D01*
X88967663Y-131287933D01*
X88973116Y-131298134D01*
X88976813Y-131309081D01*
X89007179Y-131361862D01*
X89035913Y-131415620D01*
X89043250Y-131424561D01*
X89049013Y-131434577D01*
X89089100Y-131480428D01*
X89127762Y-131527538D01*
X89136701Y-131534874D01*
X89144308Y-131543575D01*
X89192572Y-131580727D01*
X89239680Y-131619387D01*
X89249878Y-131624838D01*
X89259037Y-131631888D01*
X89313618Y-131658907D01*
X89367367Y-131687637D01*
X89378435Y-131690994D01*
X89388791Y-131696121D01*
X89447592Y-131711973D01*
X89505915Y-131729665D01*
X89517423Y-131730798D01*
X89528583Y-131733807D01*
X89589357Y-131737883D01*
X89613895Y-131740300D01*
X89625389Y-131740300D01*
X89673039Y-131743496D01*
X89697605Y-131740300D01*
X89721922Y-131740300D01*
X89144255Y-132235445D01*
X89069192Y-132313792D01*
X88991350Y-132435868D01*
X88938819Y-132570785D01*
X88913620Y-132713357D01*
X88916718Y-132858105D01*
X88947997Y-132999469D01*
X89006253Y-133132014D01*
X89089248Y-133250646D01*
X89193792Y-133350808D01*
X89315868Y-133428650D01*
X89450785Y-133481181D01*
X89593357Y-133506380D01*
X89738105Y-133503282D01*
X89879469Y-133472003D01*
X90012014Y-133413747D01*
X90100919Y-133351549D01*
X91708821Y-131973342D01*
X93316731Y-133351550D01*
X93405637Y-133413748D01*
X93538181Y-133472003D01*
X93679545Y-133503282D01*
X93824294Y-133506380D01*
X93966866Y-133481180D01*
X94101783Y-133428649D01*
X94223859Y-133350807D01*
X94315001Y-133263485D01*
X94315001Y-136710000D01*
X90857857Y-136710000D01*
X90857857Y-139315000D01*
X79285000Y-139315000D01*
X79285000Y-137850000D01*
X86436928Y-137850000D01*
X86449188Y-137974482D01*
X86485498Y-138094180D01*
X86544463Y-138204494D01*
X86623815Y-138301185D01*
X86720506Y-138380537D01*
X86830820Y-138439502D01*
X86950518Y-138475812D01*
X87075000Y-138488072D01*
X87714250Y-138485000D01*
X87873000Y-138326250D01*
X87873000Y-137127000D01*
X88127000Y-137127000D01*
X88127000Y-138326250D01*
X88285750Y-138485000D01*
X88925000Y-138488072D01*
X89049482Y-138475812D01*
X89169180Y-138439502D01*
X89279494Y-138380537D01*
X89376185Y-138301185D01*
X89455537Y-138204494D01*
X89514502Y-138094180D01*
X89550812Y-137974482D01*
X89563072Y-137850000D01*
X89560000Y-137285750D01*
X89401250Y-137127000D01*
X88127000Y-137127000D01*
X87873000Y-137127000D01*
X86598750Y-137127000D01*
X86440000Y-137285750D01*
X86436928Y-137850000D01*
X79285000Y-137850000D01*
X79285000Y-136710000D01*
X65715000Y-136710000D01*
X65715000Y-139315000D01*
X51033505Y-139315000D01*
X50939454Y-139305778D01*
X50881213Y-139288194D01*
X50827500Y-139259635D01*
X50780354Y-139221183D01*
X50741577Y-139174310D01*
X50712642Y-139120796D01*
X50694651Y-139062677D01*
X50685000Y-138970855D01*
X50685000Y-132234930D01*
X50721717Y-132303623D01*
X50863552Y-132476449D01*
X50906860Y-132511991D01*
X51511928Y-133117059D01*
X51511928Y-133675000D01*
X51528992Y-133848254D01*
X51579528Y-134014850D01*
X51661595Y-134168386D01*
X51772038Y-134302962D01*
X51906614Y-134413405D01*
X52060150Y-134495472D01*
X52226746Y-134546008D01*
X52400000Y-134563072D01*
X53600000Y-134563072D01*
X53773254Y-134546008D01*
X53939850Y-134495472D01*
X54093386Y-134413405D01*
X54227962Y-134302962D01*
X54338405Y-134168386D01*
X54392777Y-134066663D01*
X54444866Y-134130134D01*
X54670987Y-134315706D01*
X54928967Y-134453599D01*
X55208890Y-134538513D01*
X55500000Y-134567185D01*
X55791111Y-134538513D01*
X56071034Y-134453599D01*
X56329014Y-134315706D01*
X56555134Y-134130134D01*
X56740706Y-133904013D01*
X56878599Y-133646033D01*
X56963513Y-133366110D01*
X56985000Y-133147949D01*
X56985000Y-133120132D01*
X57513140Y-132591992D01*
X57556449Y-132556449D01*
X57698284Y-132383623D01*
X57803676Y-132186447D01*
X57868577Y-131972499D01*
X57885000Y-131805752D01*
X57890491Y-131750000D01*
X57885000Y-131694249D01*
X57885000Y-131004284D01*
X58021680Y-130799727D01*
X58129853Y-130538574D01*
X58185000Y-130261335D01*
X58185000Y-129978665D01*
X58129853Y-129701426D01*
X58044355Y-129495016D01*
X58157699Y-129555600D01*
X58300960Y-129599057D01*
X58449946Y-129613731D01*
X58487279Y-129610054D01*
X58827994Y-129610054D01*
X58790147Y-129701426D01*
X58735000Y-129978665D01*
X58735000Y-130261335D01*
X58790147Y-130538574D01*
X58898320Y-130799727D01*
X59055363Y-131034759D01*
X59255241Y-131234637D01*
X59490273Y-131391680D01*
X59751426Y-131499853D01*
X59992718Y-131547850D01*
X60213381Y-131768512D01*
X60161595Y-131831614D01*
X60079528Y-131985150D01*
X60028992Y-132151746D01*
X60011928Y-132325000D01*
X60011928Y-133675000D01*
X60028992Y-133848254D01*
X60079528Y-134014850D01*
X60161595Y-134168386D01*
X60272038Y-134302962D01*
X60406614Y-134413405D01*
X60560150Y-134495472D01*
X60726746Y-134546008D01*
X60900000Y-134563072D01*
X62100000Y-134563072D01*
X62273254Y-134546008D01*
X62439850Y-134495472D01*
X62593386Y-134413405D01*
X62727962Y-134302962D01*
X62838405Y-134168386D01*
X62892777Y-134066663D01*
X62944866Y-134130134D01*
X63170987Y-134315706D01*
X63428967Y-134453599D01*
X63708890Y-134538513D01*
X64000000Y-134567185D01*
X64291111Y-134538513D01*
X64571034Y-134453599D01*
X64829014Y-134315706D01*
X65055134Y-134130134D01*
X65240706Y-133904013D01*
X65378599Y-133646033D01*
X65463513Y-133366110D01*
X65485000Y-133147949D01*
X65485000Y-133120132D01*
X66013140Y-132591992D01*
X66056449Y-132556449D01*
X66198284Y-132383623D01*
X66303676Y-132186447D01*
X66368577Y-131972499D01*
X66385000Y-131805752D01*
X66390491Y-131750000D01*
X66385000Y-131694249D01*
X66385000Y-131004284D01*
X66521680Y-130799727D01*
X66629853Y-130538574D01*
X66685000Y-130261335D01*
X66685000Y-129978665D01*
X66629853Y-129701426D01*
X66592006Y-129610054D01*
X67327994Y-129610054D01*
X67290147Y-129701426D01*
X67235000Y-129978665D01*
X67235000Y-130261335D01*
X67290147Y-130538574D01*
X67398320Y-130799727D01*
X67535000Y-131004284D01*
X67535000Y-131614249D01*
X67529509Y-131670000D01*
X67551423Y-131892498D01*
X67616324Y-132106446D01*
X67659086Y-132186447D01*
X67721717Y-132303623D01*
X67863552Y-132476449D01*
X67906860Y-132511991D01*
X68511928Y-133117059D01*
X68511928Y-133675000D01*
X68528992Y-133848254D01*
X68579528Y-134014850D01*
X68661595Y-134168386D01*
X68772038Y-134302962D01*
X68906614Y-134413405D01*
X69060150Y-134495472D01*
X69226746Y-134546008D01*
X69400000Y-134563072D01*
X70600000Y-134563072D01*
X70773254Y-134546008D01*
X70939850Y-134495472D01*
X71093386Y-134413405D01*
X71227962Y-134302962D01*
X71338405Y-134168386D01*
X71392777Y-134066663D01*
X71444866Y-134130134D01*
X71670987Y-134315706D01*
X71928967Y-134453599D01*
X72208890Y-134538513D01*
X72500000Y-134567185D01*
X72791111Y-134538513D01*
X73071034Y-134453599D01*
X73329014Y-134315706D01*
X73555134Y-134130134D01*
X73740706Y-133904013D01*
X73878599Y-133646033D01*
X73963513Y-133366110D01*
X73985000Y-133147949D01*
X73985000Y-133120132D01*
X74513140Y-132591992D01*
X74556449Y-132556449D01*
X74698284Y-132383623D01*
X74803676Y-132186447D01*
X74868577Y-131972499D01*
X74885000Y-131805752D01*
X74890491Y-131750000D01*
X74885000Y-131694249D01*
X74885000Y-131004284D01*
X75021680Y-130799727D01*
X75129853Y-130538574D01*
X75185000Y-130261335D01*
X75185000Y-129978665D01*
X75129853Y-129701426D01*
X75092006Y-129610054D01*
X75819710Y-129610054D01*
X75790147Y-129681426D01*
X75735000Y-129958665D01*
X75735000Y-130241335D01*
X75790147Y-130518574D01*
X75898320Y-130779727D01*
X76035000Y-130984284D01*
X76035000Y-131614249D01*
X76029509Y-131670000D01*
X76051423Y-131892498D01*
X76116324Y-132106446D01*
X76159086Y-132186447D01*
X76221717Y-132303623D01*
X76363552Y-132476449D01*
X76406860Y-132511991D01*
X77011928Y-133117059D01*
X77011928Y-133675000D01*
X77028992Y-133848254D01*
X77079528Y-134014850D01*
X77161595Y-134168386D01*
X77272038Y-134302962D01*
X77406614Y-134413405D01*
X77560150Y-134495472D01*
X77726746Y-134546008D01*
X77900000Y-134563072D01*
X79100000Y-134563072D01*
X79273254Y-134546008D01*
X79439850Y-134495472D01*
X79593386Y-134413405D01*
X79727962Y-134302962D01*
X79838405Y-134168386D01*
X79892777Y-134066663D01*
X79944866Y-134130134D01*
X80170987Y-134315706D01*
X80428967Y-134453599D01*
X80708890Y-134538513D01*
X81000000Y-134567185D01*
X81291111Y-134538513D01*
X81418070Y-134500000D01*
X86432815Y-134500000D01*
X86461487Y-134791111D01*
X86546401Y-135071034D01*
X86684294Y-135329014D01*
X86865608Y-135549945D01*
X86830820Y-135560498D01*
X86720506Y-135619463D01*
X86623815Y-135698815D01*
X86544463Y-135795506D01*
X86485498Y-135905820D01*
X86449188Y-136025518D01*
X86436928Y-136150000D01*
X86440000Y-136714250D01*
X86598750Y-136873000D01*
X87873000Y-136873000D01*
X87873000Y-136853000D01*
X88127000Y-136853000D01*
X88127000Y-136873000D01*
X89401250Y-136873000D01*
X89560000Y-136714250D01*
X89563072Y-136150000D01*
X89550812Y-136025518D01*
X89514502Y-135905820D01*
X89455537Y-135795506D01*
X89376185Y-135698815D01*
X89279494Y-135619463D01*
X89169180Y-135560498D01*
X89134392Y-135549945D01*
X89315706Y-135329014D01*
X89453599Y-135071034D01*
X89538513Y-134791111D01*
X89567185Y-134500000D01*
X89538513Y-134208889D01*
X89453599Y-133928966D01*
X89315706Y-133670986D01*
X89130134Y-133444866D01*
X88904014Y-133259294D01*
X88646034Y-133121401D01*
X88366111Y-133036487D01*
X88147950Y-133015000D01*
X87852050Y-133015000D01*
X87633889Y-133036487D01*
X87353966Y-133121401D01*
X87095986Y-133259294D01*
X86869866Y-133444866D01*
X86684294Y-133670986D01*
X86546401Y-133928966D01*
X86461487Y-134208889D01*
X86432815Y-134500000D01*
X81418070Y-134500000D01*
X81571034Y-134453599D01*
X81829014Y-134315706D01*
X82055134Y-134130134D01*
X82240706Y-133904013D01*
X82378599Y-133646033D01*
X82463513Y-133366110D01*
X82485000Y-133147949D01*
X82485000Y-133120132D01*
X83013140Y-132591992D01*
X83056449Y-132556449D01*
X83198284Y-132383623D01*
X83303676Y-132186447D01*
X83368577Y-131972499D01*
X83385000Y-131805752D01*
X83390491Y-131750000D01*
X83385000Y-131694249D01*
X83385000Y-130984284D01*
X83521680Y-130779727D01*
X83629853Y-130518574D01*
X83685000Y-130241335D01*
X83685000Y-129958665D01*
X83629853Y-129681426D01*
X83521680Y-129420273D01*
X83474726Y-129350000D01*
X86436928Y-129350000D01*
X86449188Y-129474482D01*
X86485498Y-129594180D01*
X86544463Y-129704494D01*
X86623815Y-129801185D01*
X86720506Y-129880537D01*
X86830820Y-129939502D01*
X86950518Y-129975812D01*
X87075000Y-129988072D01*
X87714250Y-129985000D01*
X87873000Y-129826250D01*
X87873000Y-128627000D01*
X88127000Y-128627000D01*
X88127000Y-129826250D01*
X88285750Y-129985000D01*
X88925000Y-129988072D01*
X89049482Y-129975812D01*
X89169180Y-129939502D01*
X89279494Y-129880537D01*
X89376185Y-129801185D01*
X89455537Y-129704494D01*
X89514502Y-129594180D01*
X89550812Y-129474482D01*
X89563072Y-129350000D01*
X89560000Y-128785750D01*
X89401250Y-128627000D01*
X88127000Y-128627000D01*
X87873000Y-128627000D01*
X86598750Y-128627000D01*
X86440000Y-128785750D01*
X86436928Y-129350000D01*
X83474726Y-129350000D01*
X83364637Y-129185241D01*
X83363600Y-129184204D01*
X85311026Y-127236778D01*
X85340023Y-127212981D01*
X85434996Y-127097256D01*
X85505568Y-126965227D01*
X85549025Y-126821966D01*
X85560022Y-126710313D01*
X85560022Y-126710312D01*
X85563699Y-126672980D01*
X85560022Y-126635647D01*
X85560022Y-117527000D01*
X85989990Y-117956968D01*
X85989991Y-124712658D01*
X85986314Y-124749990D01*
X85989991Y-124787323D01*
X85997147Y-124859973D01*
X86000988Y-124898975D01*
X86044444Y-125042236D01*
X86115016Y-125174266D01*
X86156652Y-125224999D01*
X86209990Y-125289991D01*
X86238988Y-125313789D01*
X86501659Y-125576460D01*
X86461487Y-125708889D01*
X86432815Y-126000000D01*
X86461487Y-126291111D01*
X86546401Y-126571034D01*
X86684294Y-126829014D01*
X86865608Y-127049945D01*
X86830820Y-127060498D01*
X86720506Y-127119463D01*
X86623815Y-127198815D01*
X86544463Y-127295506D01*
X86485498Y-127405820D01*
X86449188Y-127525518D01*
X86436928Y-127650000D01*
X86440000Y-128214250D01*
X86598750Y-128373000D01*
X87873000Y-128373000D01*
X87873000Y-128353000D01*
X88127000Y-128353000D01*
X88127000Y-128373000D01*
X89401250Y-128373000D01*
X89560000Y-128214250D01*
X89563072Y-127650000D01*
X89550812Y-127525518D01*
X89514502Y-127405820D01*
X89455537Y-127295506D01*
X89376185Y-127198815D01*
X89279494Y-127119463D01*
X89169180Y-127060498D01*
X89134392Y-127049945D01*
X89315706Y-126829014D01*
X89453599Y-126571034D01*
X89538513Y-126291111D01*
X89567185Y-126000000D01*
X89538513Y-125708889D01*
X89453599Y-125428966D01*
X89315706Y-125170986D01*
X89130134Y-124944866D01*
X88904014Y-124759294D01*
X88886626Y-124750000D01*
X88904014Y-124740706D01*
X89130134Y-124555134D01*
X89315706Y-124329014D01*
X89453599Y-124071034D01*
X89538513Y-123791111D01*
X89567185Y-123500000D01*
X89538513Y-123208889D01*
X89453599Y-122928966D01*
X89315706Y-122670986D01*
X89130134Y-122444866D01*
X88904014Y-122259294D01*
X88886626Y-122250000D01*
X88904014Y-122240706D01*
X89130134Y-122055134D01*
X89315706Y-121829014D01*
X89453599Y-121571034D01*
X89538513Y-121291111D01*
X89567185Y-121000000D01*
X89538513Y-120708889D01*
X89453599Y-120428966D01*
X89315706Y-120170986D01*
X89130134Y-119944866D01*
X88904014Y-119759294D01*
X88646034Y-119621401D01*
X88366111Y-119536487D01*
X88147950Y-119515000D01*
X87852050Y-119515000D01*
X87633889Y-119536487D01*
X87509990Y-119574071D01*
X87509990Y-118460413D01*
X87774192Y-118460413D01*
X87869956Y-118724814D01*
X88159571Y-118865704D01*
X88471108Y-118947384D01*
X88792595Y-118966718D01*
X89111675Y-118922961D01*
X89416088Y-118817795D01*
X89590044Y-118724814D01*
X89685808Y-118460413D01*
X89578792Y-118353397D01*
X92061208Y-118353397D01*
X92138843Y-118602472D01*
X92402883Y-118728371D01*
X92686411Y-118800339D01*
X92978531Y-118815611D01*
X93268019Y-118773599D01*
X93543747Y-118675919D01*
X93681157Y-118602472D01*
X93758792Y-118353397D01*
X92910000Y-117504605D01*
X92061208Y-118353397D01*
X89578792Y-118353397D01*
X88730000Y-117504605D01*
X87774192Y-118460413D01*
X87509990Y-118460413D01*
X87509990Y-118250168D01*
X87594587Y-118280808D01*
X88550395Y-117325000D01*
X87594587Y-116369192D01*
X87330186Y-116464956D01*
X87189296Y-116754571D01*
X87136929Y-116954303D01*
X86550706Y-116368080D01*
X86690096Y-116368080D01*
X86890055Y-116328306D01*
X87078413Y-116250285D01*
X87247931Y-116137017D01*
X87392094Y-115992854D01*
X87505362Y-115823336D01*
X87583383Y-115634978D01*
X87623157Y-115435019D01*
X87623157Y-115372882D01*
X87986040Y-115010000D01*
X88891434Y-115010000D01*
X88768649Y-115060592D01*
X88765575Y-115062237D01*
X88755064Y-115255459D01*
X89210000Y-115710395D01*
X89224143Y-115696253D01*
X89323324Y-115795434D01*
X89300429Y-115784296D01*
X88988892Y-115702616D01*
X88833676Y-115693281D01*
X88575459Y-115435064D01*
X88382237Y-115445575D01*
X88311438Y-115615603D01*
X88284639Y-115749041D01*
X88043912Y-115832205D01*
X87869956Y-115925186D01*
X87774192Y-116189587D01*
X88730000Y-117145395D01*
X88744143Y-117131253D01*
X88923748Y-117310858D01*
X88909605Y-117325000D01*
X89865413Y-118280808D01*
X90129814Y-118185044D01*
X90270704Y-117895429D01*
X90352384Y-117583892D01*
X90363832Y-117393531D01*
X91419389Y-117393531D01*
X91461401Y-117683019D01*
X91559081Y-117958747D01*
X91632528Y-118096157D01*
X91881603Y-118173792D01*
X92730395Y-117325000D01*
X91881603Y-116476208D01*
X91632528Y-116553843D01*
X91506629Y-116817883D01*
X91434661Y-117101411D01*
X91419389Y-117393531D01*
X90363832Y-117393531D01*
X90371718Y-117262405D01*
X90327961Y-116943325D01*
X90222795Y-116638912D01*
X90129814Y-116464956D01*
X89870723Y-116371115D01*
X89867108Y-116367500D01*
X89892268Y-116342340D01*
X90037763Y-116334425D01*
X90053511Y-116296603D01*
X92061208Y-116296603D01*
X92910000Y-117145395D01*
X93758792Y-116296603D01*
X93681157Y-116047528D01*
X93417117Y-115921629D01*
X93133589Y-115849661D01*
X92841469Y-115834389D01*
X92551981Y-115876401D01*
X92276253Y-115974081D01*
X92138843Y-116047528D01*
X92061208Y-116296603D01*
X90053511Y-116296603D01*
X90108562Y-116164397D01*
X90144828Y-115983824D01*
X90145171Y-115799645D01*
X90131927Y-115732413D01*
X90176745Y-115746008D01*
X90349999Y-115763072D01*
X91150001Y-115763072D01*
X91323255Y-115746008D01*
X91489851Y-115695472D01*
X91643387Y-115613405D01*
X91777962Y-115502962D01*
X91888405Y-115368387D01*
X91970472Y-115214851D01*
X91997727Y-115125000D01*
X92561928Y-115125000D01*
X92574188Y-115249482D01*
X92610498Y-115369180D01*
X92669463Y-115479494D01*
X92748815Y-115576185D01*
X92845506Y-115655537D01*
X92955820Y-115714502D01*
X93075518Y-115750812D01*
X93200000Y-115763072D01*
X93564250Y-115760000D01*
X93723000Y-115601250D01*
X93723000Y-114377000D01*
X92723750Y-114377000D01*
X92565000Y-114535750D01*
X92561928Y-115125000D01*
X91997727Y-115125000D01*
X92021008Y-115048255D01*
X92038072Y-114875001D01*
X92038072Y-113624999D01*
X92021008Y-113451745D01*
X91970472Y-113285149D01*
X91888405Y-113131613D01*
X91780393Y-113000000D01*
X91888405Y-112868387D01*
X91970472Y-112714851D01*
X91997727Y-112625000D01*
X92561928Y-112625000D01*
X92574188Y-112749482D01*
X92610498Y-112869180D01*
X92669463Y-112979494D01*
X92686292Y-113000000D01*
X92669463Y-113020506D01*
X92610498Y-113130820D01*
X92574188Y-113250518D01*
X92561928Y-113375000D01*
X92565000Y-113964250D01*
X92723750Y-114123000D01*
X93723000Y-114123000D01*
X93723000Y-111877000D01*
X92723750Y-111877000D01*
X92565000Y-112035750D01*
X92561928Y-112625000D01*
X91997727Y-112625000D01*
X92021008Y-112548255D01*
X92038072Y-112375001D01*
X92038072Y-111124999D01*
X92021008Y-110951745D01*
X91997728Y-110875000D01*
X92561928Y-110875000D01*
X92565000Y-111464250D01*
X92723750Y-111623000D01*
X93723000Y-111623000D01*
X93723000Y-110398750D01*
X93564250Y-110240000D01*
X93200000Y-110236928D01*
X93075518Y-110249188D01*
X92955820Y-110285498D01*
X92845506Y-110344463D01*
X92748815Y-110423815D01*
X92669463Y-110520506D01*
X92610498Y-110630820D01*
X92574188Y-110750518D01*
X92561928Y-110875000D01*
X91997728Y-110875000D01*
X91970472Y-110785149D01*
X91888405Y-110631613D01*
X91777962Y-110497038D01*
X91643387Y-110386595D01*
X91489851Y-110304528D01*
X91323255Y-110253992D01*
X91150001Y-110236928D01*
X90349999Y-110236928D01*
X90176745Y-110253992D01*
X90132028Y-110267557D01*
X90144828Y-110203824D01*
X90145171Y-110019645D01*
X90109574Y-109838939D01*
X90053726Y-109703397D01*
X92061208Y-109703397D01*
X92138843Y-109952472D01*
X92402883Y-110078371D01*
X92686411Y-110150339D01*
X92978531Y-110165611D01*
X93268019Y-110123599D01*
X93543747Y-110025919D01*
X93681157Y-109952472D01*
X93758792Y-109703397D01*
X92910000Y-108854605D01*
X92061208Y-109703397D01*
X90053726Y-109703397D01*
X90039408Y-109668649D01*
X90037763Y-109665575D01*
X89892268Y-109657660D01*
X89867108Y-109632500D01*
X89870723Y-109628885D01*
X90129814Y-109535044D01*
X90270704Y-109245429D01*
X90352384Y-108933892D01*
X90363832Y-108743531D01*
X91419389Y-108743531D01*
X91461401Y-109033019D01*
X91559081Y-109308747D01*
X91632528Y-109446157D01*
X91881603Y-109523792D01*
X92730395Y-108675000D01*
X91881603Y-107826208D01*
X91632528Y-107903843D01*
X91506629Y-108167883D01*
X91434661Y-108451411D01*
X91419389Y-108743531D01*
X90363832Y-108743531D01*
X90371718Y-108612405D01*
X90327961Y-108293325D01*
X90222795Y-107988912D01*
X90129814Y-107814956D01*
X89865413Y-107719192D01*
X88909605Y-108675000D01*
X88923748Y-108689143D01*
X88744143Y-108868748D01*
X88730000Y-108854605D01*
X87774192Y-109810413D01*
X87869956Y-110074814D01*
X88159571Y-110215704D01*
X88284294Y-110248404D01*
X88310426Y-110381061D01*
X88380592Y-110551351D01*
X88382237Y-110554425D01*
X88575459Y-110564936D01*
X88828617Y-110311778D01*
X89111675Y-110272961D01*
X89330541Y-110197349D01*
X89224143Y-110303748D01*
X89210000Y-110289605D01*
X88755064Y-110744541D01*
X88765575Y-110937763D01*
X88891025Y-110990000D01*
X88047317Y-110990000D01*
X88018658Y-110845920D01*
X87940637Y-110657562D01*
X87827369Y-110488044D01*
X87683206Y-110343881D01*
X87513688Y-110230613D01*
X87325330Y-110152592D01*
X87125371Y-110112818D01*
X86921493Y-110112818D01*
X86721534Y-110152592D01*
X86533176Y-110230613D01*
X86363658Y-110343881D01*
X86219495Y-110488044D01*
X86106227Y-110657562D01*
X86028206Y-110845920D01*
X86018722Y-110893600D01*
X85834754Y-110969803D01*
X85665236Y-111083071D01*
X85521073Y-111227234D01*
X85407805Y-111396752D01*
X85329784Y-111585110D01*
X85290010Y-111785069D01*
X85290010Y-111988947D01*
X85329784Y-112188906D01*
X85407805Y-112377264D01*
X85521073Y-112546782D01*
X85659997Y-112685706D01*
X85609435Y-112761378D01*
X85534764Y-112686707D01*
X85365246Y-112573439D01*
X85176888Y-112495418D01*
X84976929Y-112455644D01*
X84773051Y-112455644D01*
X84573092Y-112495418D01*
X84391167Y-112570775D01*
X84303937Y-112440226D01*
X84159774Y-112296063D01*
X83990256Y-112182795D01*
X83801898Y-112104774D01*
X83601939Y-112065000D01*
X83535012Y-112065000D01*
X83535012Y-108737595D01*
X87088282Y-108737595D01*
X87132039Y-109056675D01*
X87237205Y-109361088D01*
X87330186Y-109535044D01*
X87594587Y-109630808D01*
X88550395Y-108675000D01*
X87594587Y-107719192D01*
X87330186Y-107814956D01*
X87189296Y-108104571D01*
X87107616Y-108416108D01*
X87088282Y-108737595D01*
X83535012Y-108737595D01*
X83535012Y-107539587D01*
X87774192Y-107539587D01*
X88730000Y-108495395D01*
X89578792Y-107646603D01*
X92061208Y-107646603D01*
X92910000Y-108495395D01*
X93758792Y-107646603D01*
X93681157Y-107397528D01*
X93417117Y-107271629D01*
X93133589Y-107199661D01*
X92841469Y-107184389D01*
X92551981Y-107226401D01*
X92276253Y-107324081D01*
X92138843Y-107397528D01*
X92061208Y-107646603D01*
X89578792Y-107646603D01*
X89685808Y-107539587D01*
X89590044Y-107275186D01*
X89300429Y-107134296D01*
X88988892Y-107052616D01*
X88667405Y-107033282D01*
X88348325Y-107077039D01*
X88043912Y-107182205D01*
X87869956Y-107275186D01*
X87774192Y-107539587D01*
X83535012Y-107539587D01*
X83535012Y-105850000D01*
X86436928Y-105850000D01*
X86449188Y-105974482D01*
X86485498Y-106094180D01*
X86544463Y-106204494D01*
X86623815Y-106301185D01*
X86720506Y-106380537D01*
X86830820Y-106439502D01*
X86950518Y-106475812D01*
X87075000Y-106488072D01*
X87714250Y-106485000D01*
X87873000Y-106326250D01*
X87873000Y-105127000D01*
X88127000Y-105127000D01*
X88127000Y-106326250D01*
X88285750Y-106485000D01*
X88925000Y-106488072D01*
X89049482Y-106475812D01*
X89169180Y-106439502D01*
X89279494Y-106380537D01*
X89376185Y-106301185D01*
X89455537Y-106204494D01*
X89514502Y-106094180D01*
X89550812Y-105974482D01*
X89563072Y-105850000D01*
X89560000Y-105285750D01*
X89401250Y-105127000D01*
X88127000Y-105127000D01*
X87873000Y-105127000D01*
X86598750Y-105127000D01*
X86440000Y-105285750D01*
X86436928Y-105850000D01*
X83535012Y-105850000D01*
X83535012Y-104885174D01*
X83659927Y-104910021D01*
X83863805Y-104910021D01*
X84063764Y-104870247D01*
X84252122Y-104792226D01*
X84421640Y-104678958D01*
X84565803Y-104534795D01*
X84679071Y-104365277D01*
X84757092Y-104176919D01*
X84796866Y-103976960D01*
X84796866Y-103914822D01*
X85451689Y-103260000D01*
X86647405Y-103260000D01*
X86684294Y-103329014D01*
X86865608Y-103549945D01*
X86830820Y-103560498D01*
X86720506Y-103619463D01*
X86623815Y-103698815D01*
X86544463Y-103795506D01*
X86485498Y-103905820D01*
X86449188Y-104025518D01*
X86436928Y-104150000D01*
X86440000Y-104714250D01*
X86598750Y-104873000D01*
X87873000Y-104873000D01*
X87873000Y-104853000D01*
X88127000Y-104853000D01*
X88127000Y-104873000D01*
X89401250Y-104873000D01*
X89560000Y-104714250D01*
X89563072Y-104150000D01*
X89550812Y-104025518D01*
X89514502Y-103905820D01*
X89455537Y-103795506D01*
X89376185Y-103698815D01*
X89279494Y-103619463D01*
X89169180Y-103560498D01*
X89134392Y-103549945D01*
X89315706Y-103329014D01*
X89453599Y-103071034D01*
X89538513Y-102791111D01*
X89556659Y-102606874D01*
X89698061Y-102635000D01*
X89901939Y-102635000D01*
X90101898Y-102595226D01*
X90290256Y-102517205D01*
X90459774Y-102403937D01*
X90603937Y-102259774D01*
X90717205Y-102090256D01*
X90795226Y-101901898D01*
X90835000Y-101701939D01*
X90835000Y-101498061D01*
X90795226Y-101298102D01*
X90717205Y-101109744D01*
X90603937Y-100940226D01*
X90459774Y-100796063D01*
X90290256Y-100682795D01*
X90101898Y-100604774D01*
X89901939Y-100565000D01*
X89698061Y-100565000D01*
X89649467Y-100574666D01*
X89498341Y-100423540D01*
X89538513Y-100291111D01*
X89567185Y-100000000D01*
X89538513Y-99708889D01*
X89453599Y-99428966D01*
X89315706Y-99170986D01*
X89130134Y-98944866D01*
X88904014Y-98759294D01*
X88886626Y-98750000D01*
X88904014Y-98740706D01*
X89130134Y-98555134D01*
X89315706Y-98329014D01*
X89453599Y-98071034D01*
X89538513Y-97791111D01*
X89567185Y-97500000D01*
X89538513Y-97208889D01*
X89453599Y-96928966D01*
X89315706Y-96670986D01*
X89130134Y-96444866D01*
X88904014Y-96259294D01*
X88646034Y-96121401D01*
X88366111Y-96036487D01*
X88147950Y-96015000D01*
X87852050Y-96015000D01*
X87633889Y-96036487D01*
X87353966Y-96121401D01*
X87185000Y-96211715D01*
X87185000Y-95685000D01*
X93966495Y-95685000D01*
X94060547Y-95694222D01*
%TA.AperFunction,Conductor*%
D28*
G36*
X94060547Y-95694222D02*
G01*
X94118786Y-95711805D01*
X94172501Y-95740366D01*
X94219646Y-95778816D01*
X94258424Y-95825691D01*
X94287358Y-95879204D01*
X94305349Y-95937323D01*
X94315000Y-96029145D01*
X94315000Y-108193912D01*
X94260919Y-108041253D01*
X94187472Y-107903843D01*
X93938397Y-107826208D01*
X93089605Y-108675000D01*
X93938397Y-109523792D01*
X94187472Y-109446157D01*
X94313371Y-109182117D01*
X94315000Y-109175698D01*
X94315000Y-110238488D01*
X94135750Y-110240000D01*
X93977000Y-110398750D01*
X93977000Y-111623000D01*
X93997000Y-111623000D01*
X93997000Y-111877000D01*
X93977000Y-111877000D01*
X93977000Y-114123000D01*
X93997000Y-114123000D01*
X93997000Y-114377000D01*
X93977000Y-114377000D01*
X93977000Y-115601250D01*
X94135750Y-115760000D01*
X94315000Y-115761512D01*
X94315000Y-116843912D01*
X94260919Y-116691253D01*
X94187472Y-116553843D01*
X93938397Y-116476208D01*
X93089605Y-117325000D01*
X93938397Y-118173792D01*
X94187472Y-118096157D01*
X94313371Y-117832117D01*
X94315001Y-117825697D01*
X94315001Y-127573494D01*
X94273342Y-127525845D01*
X94158613Y-127437532D01*
X94028859Y-127373298D01*
X93889067Y-127335613D01*
X93744610Y-127325924D01*
X93601037Y-127344603D01*
X93463868Y-127390933D01*
X93369819Y-127445041D01*
X91319891Y-128909276D01*
X91298681Y-128920613D01*
X91262842Y-128950026D01*
X89261535Y-130379531D01*
X89239680Y-130391213D01*
X89202752Y-130421519D01*
X89193410Y-130428192D01*
X89174868Y-130444403D01*
X89127762Y-130483062D01*
X89120426Y-130492001D01*
X89111725Y-130499608D01*
X89074573Y-130547872D01*
X89035913Y-130594980D01*
X89030462Y-130605178D01*
X89023412Y-130614337D01*
X88996393Y-130668918D01*
X88967663Y-130722667D01*
X88964306Y-130733735D01*
X88959179Y-130744091D01*
X88943327Y-130802892D01*
X88925635Y-130861215D01*
X88924502Y-130872723D01*
X88921493Y-130883883D01*
X88917417Y-130944657D01*
X88911444Y-131005300D01*
X88912577Y-131016808D01*
X88911804Y-131028339D01*
X88919661Y-131088734D01*
X88925635Y-131149385D01*
X88928992Y-131160451D01*
X88930483Y-131171912D01*
X88949971Y-131229609D01*
X88967663Y-131287933D01*
X88973116Y-131298134D01*
X88976813Y-131309081D01*
X89007179Y-131361862D01*
X89035913Y-131415620D01*
X89043250Y-131424561D01*
X89049013Y-131434577D01*
X89089100Y-131480428D01*
X89127762Y-131527538D01*
X89136701Y-131534874D01*
X89144308Y-131543575D01*
X89192572Y-131580727D01*
X89239680Y-131619387D01*
X89249878Y-131624838D01*
X89259037Y-131631888D01*
X89313618Y-131658907D01*
X89367367Y-131687637D01*
X89378435Y-131690994D01*
X89388791Y-131696121D01*
X89447592Y-131711973D01*
X89505915Y-131729665D01*
X89517423Y-131730798D01*
X89528583Y-131733807D01*
X89589357Y-131737883D01*
X89613895Y-131740300D01*
X89625389Y-131740300D01*
X89673039Y-131743496D01*
X89697605Y-131740300D01*
X89721922Y-131740300D01*
X89144255Y-132235445D01*
X89069192Y-132313792D01*
X88991350Y-132435868D01*
X88938819Y-132570785D01*
X88913620Y-132713357D01*
X88916718Y-132858105D01*
X88947997Y-132999469D01*
X89006253Y-133132014D01*
X89089248Y-133250646D01*
X89193792Y-133350808D01*
X89315868Y-133428650D01*
X89450785Y-133481181D01*
X89593357Y-133506380D01*
X89738105Y-133503282D01*
X89879469Y-133472003D01*
X90012014Y-133413747D01*
X90100919Y-133351549D01*
X91708821Y-131973342D01*
X93316731Y-133351550D01*
X93405637Y-133413748D01*
X93538181Y-133472003D01*
X93679545Y-133503282D01*
X93824294Y-133506380D01*
X93966866Y-133481180D01*
X94101783Y-133428649D01*
X94223859Y-133350807D01*
X94315001Y-133263485D01*
X94315001Y-136710000D01*
X90857857Y-136710000D01*
X90857857Y-139315000D01*
X79285000Y-139315000D01*
X79285000Y-137850000D01*
X86436928Y-137850000D01*
X86449188Y-137974482D01*
X86485498Y-138094180D01*
X86544463Y-138204494D01*
X86623815Y-138301185D01*
X86720506Y-138380537D01*
X86830820Y-138439502D01*
X86950518Y-138475812D01*
X87075000Y-138488072D01*
X87714250Y-138485000D01*
X87873000Y-138326250D01*
X87873000Y-137127000D01*
X88127000Y-137127000D01*
X88127000Y-138326250D01*
X88285750Y-138485000D01*
X88925000Y-138488072D01*
X89049482Y-138475812D01*
X89169180Y-138439502D01*
X89279494Y-138380537D01*
X89376185Y-138301185D01*
X89455537Y-138204494D01*
X89514502Y-138094180D01*
X89550812Y-137974482D01*
X89563072Y-137850000D01*
X89560000Y-137285750D01*
X89401250Y-137127000D01*
X88127000Y-137127000D01*
X87873000Y-137127000D01*
X86598750Y-137127000D01*
X86440000Y-137285750D01*
X86436928Y-137850000D01*
X79285000Y-137850000D01*
X79285000Y-136710000D01*
X65715000Y-136710000D01*
X65715000Y-139315000D01*
X51033505Y-139315000D01*
X50939454Y-139305778D01*
X50881213Y-139288194D01*
X50827500Y-139259635D01*
X50780354Y-139221183D01*
X50741577Y-139174310D01*
X50712642Y-139120796D01*
X50694651Y-139062677D01*
X50685000Y-138970855D01*
X50685000Y-132234930D01*
X50721717Y-132303623D01*
X50863552Y-132476449D01*
X50906860Y-132511991D01*
X51511928Y-133117059D01*
X51511928Y-133675000D01*
X51528992Y-133848254D01*
X51579528Y-134014850D01*
X51661595Y-134168386D01*
X51772038Y-134302962D01*
X51906614Y-134413405D01*
X52060150Y-134495472D01*
X52226746Y-134546008D01*
X52400000Y-134563072D01*
X53600000Y-134563072D01*
X53773254Y-134546008D01*
X53939850Y-134495472D01*
X54093386Y-134413405D01*
X54227962Y-134302962D01*
X54338405Y-134168386D01*
X54392777Y-134066663D01*
X54444866Y-134130134D01*
X54670987Y-134315706D01*
X54928967Y-134453599D01*
X55208890Y-134538513D01*
X55500000Y-134567185D01*
X55791111Y-134538513D01*
X56071034Y-134453599D01*
X56329014Y-134315706D01*
X56555134Y-134130134D01*
X56740706Y-133904013D01*
X56878599Y-133646033D01*
X56963513Y-133366110D01*
X56985000Y-133147949D01*
X56985000Y-133120132D01*
X57513140Y-132591992D01*
X57556449Y-132556449D01*
X57698284Y-132383623D01*
X57803676Y-132186447D01*
X57868577Y-131972499D01*
X57885000Y-131805752D01*
X57890491Y-131750000D01*
X57885000Y-131694249D01*
X57885000Y-131004284D01*
X58021680Y-130799727D01*
X58129853Y-130538574D01*
X58185000Y-130261335D01*
X58185000Y-129978665D01*
X58129853Y-129701426D01*
X58044355Y-129495016D01*
X58157699Y-129555600D01*
X58300960Y-129599057D01*
X58449946Y-129613731D01*
X58487279Y-129610054D01*
X58827994Y-129610054D01*
X58790147Y-129701426D01*
X58735000Y-129978665D01*
X58735000Y-130261335D01*
X58790147Y-130538574D01*
X58898320Y-130799727D01*
X59055363Y-131034759D01*
X59255241Y-131234637D01*
X59490273Y-131391680D01*
X59751426Y-131499853D01*
X59992718Y-131547850D01*
X60213381Y-131768512D01*
X60161595Y-131831614D01*
X60079528Y-131985150D01*
X60028992Y-132151746D01*
X60011928Y-132325000D01*
X60011928Y-133675000D01*
X60028992Y-133848254D01*
X60079528Y-134014850D01*
X60161595Y-134168386D01*
X60272038Y-134302962D01*
X60406614Y-134413405D01*
X60560150Y-134495472D01*
X60726746Y-134546008D01*
X60900000Y-134563072D01*
X62100000Y-134563072D01*
X62273254Y-134546008D01*
X62439850Y-134495472D01*
X62593386Y-134413405D01*
X62727962Y-134302962D01*
X62838405Y-134168386D01*
X62892777Y-134066663D01*
X62944866Y-134130134D01*
X63170987Y-134315706D01*
X63428967Y-134453599D01*
X63708890Y-134538513D01*
X64000000Y-134567185D01*
X64291111Y-134538513D01*
X64571034Y-134453599D01*
X64829014Y-134315706D01*
X65055134Y-134130134D01*
X65240706Y-133904013D01*
X65378599Y-133646033D01*
X65463513Y-133366110D01*
X65485000Y-133147949D01*
X65485000Y-133120132D01*
X66013140Y-132591992D01*
X66056449Y-132556449D01*
X66198284Y-132383623D01*
X66303676Y-132186447D01*
X66368577Y-131972499D01*
X66385000Y-131805752D01*
X66390491Y-131750000D01*
X66385000Y-131694249D01*
X66385000Y-131004284D01*
X66521680Y-130799727D01*
X66629853Y-130538574D01*
X66685000Y-130261335D01*
X66685000Y-129978665D01*
X66629853Y-129701426D01*
X66592006Y-129610054D01*
X67327994Y-129610054D01*
X67290147Y-129701426D01*
X67235000Y-129978665D01*
X67235000Y-130261335D01*
X67290147Y-130538574D01*
X67398320Y-130799727D01*
X67535000Y-131004284D01*
X67535000Y-131614249D01*
X67529509Y-131670000D01*
X67551423Y-131892498D01*
X67616324Y-132106446D01*
X67659086Y-132186447D01*
X67721717Y-132303623D01*
X67863552Y-132476449D01*
X67906860Y-132511991D01*
X68511928Y-133117059D01*
X68511928Y-133675000D01*
X68528992Y-133848254D01*
X68579528Y-134014850D01*
X68661595Y-134168386D01*
X68772038Y-134302962D01*
X68906614Y-134413405D01*
X69060150Y-134495472D01*
X69226746Y-134546008D01*
X69400000Y-134563072D01*
X70600000Y-134563072D01*
X70773254Y-134546008D01*
X70939850Y-134495472D01*
X71093386Y-134413405D01*
X71227962Y-134302962D01*
X71338405Y-134168386D01*
X71392777Y-134066663D01*
X71444866Y-134130134D01*
X71670987Y-134315706D01*
X71928967Y-134453599D01*
X72208890Y-134538513D01*
X72500000Y-134567185D01*
X72791111Y-134538513D01*
X73071034Y-134453599D01*
X73329014Y-134315706D01*
X73555134Y-134130134D01*
X73740706Y-133904013D01*
X73878599Y-133646033D01*
X73963513Y-133366110D01*
X73985000Y-133147949D01*
X73985000Y-133120132D01*
X74513140Y-132591992D01*
X74556449Y-132556449D01*
X74698284Y-132383623D01*
X74803676Y-132186447D01*
X74868577Y-131972499D01*
X74885000Y-131805752D01*
X74890491Y-131750000D01*
X74885000Y-131694249D01*
X74885000Y-131004284D01*
X75021680Y-130799727D01*
X75129853Y-130538574D01*
X75185000Y-130261335D01*
X75185000Y-129978665D01*
X75129853Y-129701426D01*
X75092006Y-129610054D01*
X75819710Y-129610054D01*
X75790147Y-129681426D01*
X75735000Y-129958665D01*
X75735000Y-130241335D01*
X75790147Y-130518574D01*
X75898320Y-130779727D01*
X76035000Y-130984284D01*
X76035000Y-131614249D01*
X76029509Y-131670000D01*
X76051423Y-131892498D01*
X76116324Y-132106446D01*
X76159086Y-132186447D01*
X76221717Y-132303623D01*
X76363552Y-132476449D01*
X76406860Y-132511991D01*
X77011928Y-133117059D01*
X77011928Y-133675000D01*
X77028992Y-133848254D01*
X77079528Y-134014850D01*
X77161595Y-134168386D01*
X77272038Y-134302962D01*
X77406614Y-134413405D01*
X77560150Y-134495472D01*
X77726746Y-134546008D01*
X77900000Y-134563072D01*
X79100000Y-134563072D01*
X79273254Y-134546008D01*
X79439850Y-134495472D01*
X79593386Y-134413405D01*
X79727962Y-134302962D01*
X79838405Y-134168386D01*
X79892777Y-134066663D01*
X79944866Y-134130134D01*
X80170987Y-134315706D01*
X80428967Y-134453599D01*
X80708890Y-134538513D01*
X81000000Y-134567185D01*
X81291111Y-134538513D01*
X81418070Y-134500000D01*
X86432815Y-134500000D01*
X86461487Y-134791111D01*
X86546401Y-135071034D01*
X86684294Y-135329014D01*
X86865608Y-135549945D01*
X86830820Y-135560498D01*
X86720506Y-135619463D01*
X86623815Y-135698815D01*
X86544463Y-135795506D01*
X86485498Y-135905820D01*
X86449188Y-136025518D01*
X86436928Y-136150000D01*
X86440000Y-136714250D01*
X86598750Y-136873000D01*
X87873000Y-136873000D01*
X87873000Y-136853000D01*
X88127000Y-136853000D01*
X88127000Y-136873000D01*
X89401250Y-136873000D01*
X89560000Y-136714250D01*
X89563072Y-136150000D01*
X89550812Y-136025518D01*
X89514502Y-135905820D01*
X89455537Y-135795506D01*
X89376185Y-135698815D01*
X89279494Y-135619463D01*
X89169180Y-135560498D01*
X89134392Y-135549945D01*
X89315706Y-135329014D01*
X89453599Y-135071034D01*
X89538513Y-134791111D01*
X89567185Y-134500000D01*
X89538513Y-134208889D01*
X89453599Y-133928966D01*
X89315706Y-133670986D01*
X89130134Y-133444866D01*
X88904014Y-133259294D01*
X88646034Y-133121401D01*
X88366111Y-133036487D01*
X88147950Y-133015000D01*
X87852050Y-133015000D01*
X87633889Y-133036487D01*
X87353966Y-133121401D01*
X87095986Y-133259294D01*
X86869866Y-133444866D01*
X86684294Y-133670986D01*
X86546401Y-133928966D01*
X86461487Y-134208889D01*
X86432815Y-134500000D01*
X81418070Y-134500000D01*
X81571034Y-134453599D01*
X81829014Y-134315706D01*
X82055134Y-134130134D01*
X82240706Y-133904013D01*
X82378599Y-133646033D01*
X82463513Y-133366110D01*
X82485000Y-133147949D01*
X82485000Y-133120132D01*
X83013140Y-132591992D01*
X83056449Y-132556449D01*
X83198284Y-132383623D01*
X83303676Y-132186447D01*
X83368577Y-131972499D01*
X83385000Y-131805752D01*
X83390491Y-131750000D01*
X83385000Y-131694249D01*
X83385000Y-130984284D01*
X83521680Y-130779727D01*
X83629853Y-130518574D01*
X83685000Y-130241335D01*
X83685000Y-129958665D01*
X83629853Y-129681426D01*
X83521680Y-129420273D01*
X83474726Y-129350000D01*
X86436928Y-129350000D01*
X86449188Y-129474482D01*
X86485498Y-129594180D01*
X86544463Y-129704494D01*
X86623815Y-129801185D01*
X86720506Y-129880537D01*
X86830820Y-129939502D01*
X86950518Y-129975812D01*
X87075000Y-129988072D01*
X87714250Y-129985000D01*
X87873000Y-129826250D01*
X87873000Y-128627000D01*
X88127000Y-128627000D01*
X88127000Y-129826250D01*
X88285750Y-129985000D01*
X88925000Y-129988072D01*
X89049482Y-129975812D01*
X89169180Y-129939502D01*
X89279494Y-129880537D01*
X89376185Y-129801185D01*
X89455537Y-129704494D01*
X89514502Y-129594180D01*
X89550812Y-129474482D01*
X89563072Y-129350000D01*
X89560000Y-128785750D01*
X89401250Y-128627000D01*
X88127000Y-128627000D01*
X87873000Y-128627000D01*
X86598750Y-128627000D01*
X86440000Y-128785750D01*
X86436928Y-129350000D01*
X83474726Y-129350000D01*
X83364637Y-129185241D01*
X83363600Y-129184204D01*
X85311026Y-127236778D01*
X85340023Y-127212981D01*
X85434996Y-127097256D01*
X85505568Y-126965227D01*
X85549025Y-126821966D01*
X85560022Y-126710313D01*
X85560022Y-126710312D01*
X85563699Y-126672980D01*
X85560022Y-126635647D01*
X85560022Y-117527000D01*
X85989990Y-117956968D01*
X85989991Y-124712658D01*
X85986314Y-124749990D01*
X85989991Y-124787323D01*
X85997147Y-124859973D01*
X86000988Y-124898975D01*
X86044444Y-125042236D01*
X86115016Y-125174266D01*
X86156652Y-125224999D01*
X86209990Y-125289991D01*
X86238988Y-125313789D01*
X86501659Y-125576460D01*
X86461487Y-125708889D01*
X86432815Y-126000000D01*
X86461487Y-126291111D01*
X86546401Y-126571034D01*
X86684294Y-126829014D01*
X86865608Y-127049945D01*
X86830820Y-127060498D01*
X86720506Y-127119463D01*
X86623815Y-127198815D01*
X86544463Y-127295506D01*
X86485498Y-127405820D01*
X86449188Y-127525518D01*
X86436928Y-127650000D01*
X86440000Y-128214250D01*
X86598750Y-128373000D01*
X87873000Y-128373000D01*
X87873000Y-128353000D01*
X88127000Y-128353000D01*
X88127000Y-128373000D01*
X89401250Y-128373000D01*
X89560000Y-128214250D01*
X89563072Y-127650000D01*
X89550812Y-127525518D01*
X89514502Y-127405820D01*
X89455537Y-127295506D01*
X89376185Y-127198815D01*
X89279494Y-127119463D01*
X89169180Y-127060498D01*
X89134392Y-127049945D01*
X89315706Y-126829014D01*
X89453599Y-126571034D01*
X89538513Y-126291111D01*
X89567185Y-126000000D01*
X89538513Y-125708889D01*
X89453599Y-125428966D01*
X89315706Y-125170986D01*
X89130134Y-124944866D01*
X88904014Y-124759294D01*
X88886626Y-124750000D01*
X88904014Y-124740706D01*
X89130134Y-124555134D01*
X89315706Y-124329014D01*
X89453599Y-124071034D01*
X89538513Y-123791111D01*
X89567185Y-123500000D01*
X89538513Y-123208889D01*
X89453599Y-122928966D01*
X89315706Y-122670986D01*
X89130134Y-122444866D01*
X88904014Y-122259294D01*
X88886626Y-122250000D01*
X88904014Y-122240706D01*
X89130134Y-122055134D01*
X89315706Y-121829014D01*
X89453599Y-121571034D01*
X89538513Y-121291111D01*
X89567185Y-121000000D01*
X89538513Y-120708889D01*
X89453599Y-120428966D01*
X89315706Y-120170986D01*
X89130134Y-119944866D01*
X88904014Y-119759294D01*
X88646034Y-119621401D01*
X88366111Y-119536487D01*
X88147950Y-119515000D01*
X87852050Y-119515000D01*
X87633889Y-119536487D01*
X87509990Y-119574071D01*
X87509990Y-118460413D01*
X87774192Y-118460413D01*
X87869956Y-118724814D01*
X88159571Y-118865704D01*
X88471108Y-118947384D01*
X88792595Y-118966718D01*
X89111675Y-118922961D01*
X89416088Y-118817795D01*
X89590044Y-118724814D01*
X89685808Y-118460413D01*
X89578792Y-118353397D01*
X92061208Y-118353397D01*
X92138843Y-118602472D01*
X92402883Y-118728371D01*
X92686411Y-118800339D01*
X92978531Y-118815611D01*
X93268019Y-118773599D01*
X93543747Y-118675919D01*
X93681157Y-118602472D01*
X93758792Y-118353397D01*
X92910000Y-117504605D01*
X92061208Y-118353397D01*
X89578792Y-118353397D01*
X88730000Y-117504605D01*
X87774192Y-118460413D01*
X87509990Y-118460413D01*
X87509990Y-118250168D01*
X87594587Y-118280808D01*
X88550395Y-117325000D01*
X87594587Y-116369192D01*
X87330186Y-116464956D01*
X87189296Y-116754571D01*
X87136929Y-116954303D01*
X86550706Y-116368080D01*
X86690096Y-116368080D01*
X86890055Y-116328306D01*
X87078413Y-116250285D01*
X87247931Y-116137017D01*
X87392094Y-115992854D01*
X87505362Y-115823336D01*
X87583383Y-115634978D01*
X87623157Y-115435019D01*
X87623157Y-115372882D01*
X87986040Y-115010000D01*
X88891434Y-115010000D01*
X88768649Y-115060592D01*
X88765575Y-115062237D01*
X88755064Y-115255459D01*
X89210000Y-115710395D01*
X89224143Y-115696253D01*
X89323324Y-115795434D01*
X89300429Y-115784296D01*
X88988892Y-115702616D01*
X88833676Y-115693281D01*
X88575459Y-115435064D01*
X88382237Y-115445575D01*
X88311438Y-115615603D01*
X88284639Y-115749041D01*
X88043912Y-115832205D01*
X87869956Y-115925186D01*
X87774192Y-116189587D01*
X88730000Y-117145395D01*
X88744143Y-117131253D01*
X88923748Y-117310858D01*
X88909605Y-117325000D01*
X89865413Y-118280808D01*
X90129814Y-118185044D01*
X90270704Y-117895429D01*
X90352384Y-117583892D01*
X90363832Y-117393531D01*
X91419389Y-117393531D01*
X91461401Y-117683019D01*
X91559081Y-117958747D01*
X91632528Y-118096157D01*
X91881603Y-118173792D01*
X92730395Y-117325000D01*
X91881603Y-116476208D01*
X91632528Y-116553843D01*
X91506629Y-116817883D01*
X91434661Y-117101411D01*
X91419389Y-117393531D01*
X90363832Y-117393531D01*
X90371718Y-117262405D01*
X90327961Y-116943325D01*
X90222795Y-116638912D01*
X90129814Y-116464956D01*
X89870723Y-116371115D01*
X89867108Y-116367500D01*
X89892268Y-116342340D01*
X90037763Y-116334425D01*
X90053511Y-116296603D01*
X92061208Y-116296603D01*
X92910000Y-117145395D01*
X93758792Y-116296603D01*
X93681157Y-116047528D01*
X93417117Y-115921629D01*
X93133589Y-115849661D01*
X92841469Y-115834389D01*
X92551981Y-115876401D01*
X92276253Y-115974081D01*
X92138843Y-116047528D01*
X92061208Y-116296603D01*
X90053511Y-116296603D01*
X90108562Y-116164397D01*
X90144828Y-115983824D01*
X90145171Y-115799645D01*
X90131927Y-115732413D01*
X90176745Y-115746008D01*
X90349999Y-115763072D01*
X91150001Y-115763072D01*
X91323255Y-115746008D01*
X91489851Y-115695472D01*
X91643387Y-115613405D01*
X91777962Y-115502962D01*
X91888405Y-115368387D01*
X91970472Y-115214851D01*
X91997727Y-115125000D01*
X92561928Y-115125000D01*
X92574188Y-115249482D01*
X92610498Y-115369180D01*
X92669463Y-115479494D01*
X92748815Y-115576185D01*
X92845506Y-115655537D01*
X92955820Y-115714502D01*
X93075518Y-115750812D01*
X93200000Y-115763072D01*
X93564250Y-115760000D01*
X93723000Y-115601250D01*
X93723000Y-114377000D01*
X92723750Y-114377000D01*
X92565000Y-114535750D01*
X92561928Y-115125000D01*
X91997727Y-115125000D01*
X92021008Y-115048255D01*
X92038072Y-114875001D01*
X92038072Y-113624999D01*
X92021008Y-113451745D01*
X91970472Y-113285149D01*
X91888405Y-113131613D01*
X91780393Y-113000000D01*
X91888405Y-112868387D01*
X91970472Y-112714851D01*
X91997727Y-112625000D01*
X92561928Y-112625000D01*
X92574188Y-112749482D01*
X92610498Y-112869180D01*
X92669463Y-112979494D01*
X92686292Y-113000000D01*
X92669463Y-113020506D01*
X92610498Y-113130820D01*
X92574188Y-113250518D01*
X92561928Y-113375000D01*
X92565000Y-113964250D01*
X92723750Y-114123000D01*
X93723000Y-114123000D01*
X93723000Y-111877000D01*
X92723750Y-111877000D01*
X92565000Y-112035750D01*
X92561928Y-112625000D01*
X91997727Y-112625000D01*
X92021008Y-112548255D01*
X92038072Y-112375001D01*
X92038072Y-111124999D01*
X92021008Y-110951745D01*
X91997728Y-110875000D01*
X92561928Y-110875000D01*
X92565000Y-111464250D01*
X92723750Y-111623000D01*
X93723000Y-111623000D01*
X93723000Y-110398750D01*
X93564250Y-110240000D01*
X93200000Y-110236928D01*
X93075518Y-110249188D01*
X92955820Y-110285498D01*
X92845506Y-110344463D01*
X92748815Y-110423815D01*
X92669463Y-110520506D01*
X92610498Y-110630820D01*
X92574188Y-110750518D01*
X92561928Y-110875000D01*
X91997728Y-110875000D01*
X91970472Y-110785149D01*
X91888405Y-110631613D01*
X91777962Y-110497038D01*
X91643387Y-110386595D01*
X91489851Y-110304528D01*
X91323255Y-110253992D01*
X91150001Y-110236928D01*
X90349999Y-110236928D01*
X90176745Y-110253992D01*
X90132028Y-110267557D01*
X90144828Y-110203824D01*
X90145171Y-110019645D01*
X90109574Y-109838939D01*
X90053726Y-109703397D01*
X92061208Y-109703397D01*
X92138843Y-109952472D01*
X92402883Y-110078371D01*
X92686411Y-110150339D01*
X92978531Y-110165611D01*
X93268019Y-110123599D01*
X93543747Y-110025919D01*
X93681157Y-109952472D01*
X93758792Y-109703397D01*
X92910000Y-108854605D01*
X92061208Y-109703397D01*
X90053726Y-109703397D01*
X90039408Y-109668649D01*
X90037763Y-109665575D01*
X89892268Y-109657660D01*
X89867108Y-109632500D01*
X89870723Y-109628885D01*
X90129814Y-109535044D01*
X90270704Y-109245429D01*
X90352384Y-108933892D01*
X90363832Y-108743531D01*
X91419389Y-108743531D01*
X91461401Y-109033019D01*
X91559081Y-109308747D01*
X91632528Y-109446157D01*
X91881603Y-109523792D01*
X92730395Y-108675000D01*
X91881603Y-107826208D01*
X91632528Y-107903843D01*
X91506629Y-108167883D01*
X91434661Y-108451411D01*
X91419389Y-108743531D01*
X90363832Y-108743531D01*
X90371718Y-108612405D01*
X90327961Y-108293325D01*
X90222795Y-107988912D01*
X90129814Y-107814956D01*
X89865413Y-107719192D01*
X88909605Y-108675000D01*
X88923748Y-108689143D01*
X88744143Y-108868748D01*
X88730000Y-108854605D01*
X87774192Y-109810413D01*
X87869956Y-110074814D01*
X88159571Y-110215704D01*
X88284294Y-110248404D01*
X88310426Y-110381061D01*
X88380592Y-110551351D01*
X88382237Y-110554425D01*
X88575459Y-110564936D01*
X88828617Y-110311778D01*
X89111675Y-110272961D01*
X89330541Y-110197349D01*
X89224143Y-110303748D01*
X89210000Y-110289605D01*
X88755064Y-110744541D01*
X88765575Y-110937763D01*
X88891025Y-110990000D01*
X88047317Y-110990000D01*
X88018658Y-110845920D01*
X87940637Y-110657562D01*
X87827369Y-110488044D01*
X87683206Y-110343881D01*
X87513688Y-110230613D01*
X87325330Y-110152592D01*
X87125371Y-110112818D01*
X86921493Y-110112818D01*
X86721534Y-110152592D01*
X86533176Y-110230613D01*
X86363658Y-110343881D01*
X86219495Y-110488044D01*
X86106227Y-110657562D01*
X86028206Y-110845920D01*
X86018722Y-110893600D01*
X85834754Y-110969803D01*
X85665236Y-111083071D01*
X85521073Y-111227234D01*
X85407805Y-111396752D01*
X85329784Y-111585110D01*
X85290010Y-111785069D01*
X85290010Y-111988947D01*
X85329784Y-112188906D01*
X85407805Y-112377264D01*
X85521073Y-112546782D01*
X85659997Y-112685706D01*
X85609435Y-112761378D01*
X85534764Y-112686707D01*
X85365246Y-112573439D01*
X85176888Y-112495418D01*
X84976929Y-112455644D01*
X84773051Y-112455644D01*
X84573092Y-112495418D01*
X84391167Y-112570775D01*
X84303937Y-112440226D01*
X84159774Y-112296063D01*
X83990256Y-112182795D01*
X83801898Y-112104774D01*
X83601939Y-112065000D01*
X83535012Y-112065000D01*
X83535012Y-108737595D01*
X87088282Y-108737595D01*
X87132039Y-109056675D01*
X87237205Y-109361088D01*
X87330186Y-109535044D01*
X87594587Y-109630808D01*
X88550395Y-108675000D01*
X87594587Y-107719192D01*
X87330186Y-107814956D01*
X87189296Y-108104571D01*
X87107616Y-108416108D01*
X87088282Y-108737595D01*
X83535012Y-108737595D01*
X83535012Y-107539587D01*
X87774192Y-107539587D01*
X88730000Y-108495395D01*
X89578792Y-107646603D01*
X92061208Y-107646603D01*
X92910000Y-108495395D01*
X93758792Y-107646603D01*
X93681157Y-107397528D01*
X93417117Y-107271629D01*
X93133589Y-107199661D01*
X92841469Y-107184389D01*
X92551981Y-107226401D01*
X92276253Y-107324081D01*
X92138843Y-107397528D01*
X92061208Y-107646603D01*
X89578792Y-107646603D01*
X89685808Y-107539587D01*
X89590044Y-107275186D01*
X89300429Y-107134296D01*
X88988892Y-107052616D01*
X88667405Y-107033282D01*
X88348325Y-107077039D01*
X88043912Y-107182205D01*
X87869956Y-107275186D01*
X87774192Y-107539587D01*
X83535012Y-107539587D01*
X83535012Y-105850000D01*
X86436928Y-105850000D01*
X86449188Y-105974482D01*
X86485498Y-106094180D01*
X86544463Y-106204494D01*
X86623815Y-106301185D01*
X86720506Y-106380537D01*
X86830820Y-106439502D01*
X86950518Y-106475812D01*
X87075000Y-106488072D01*
X87714250Y-106485000D01*
X87873000Y-106326250D01*
X87873000Y-105127000D01*
X88127000Y-105127000D01*
X88127000Y-106326250D01*
X88285750Y-106485000D01*
X88925000Y-106488072D01*
X89049482Y-106475812D01*
X89169180Y-106439502D01*
X89279494Y-106380537D01*
X89376185Y-106301185D01*
X89455537Y-106204494D01*
X89514502Y-106094180D01*
X89550812Y-105974482D01*
X89563072Y-105850000D01*
X89560000Y-105285750D01*
X89401250Y-105127000D01*
X88127000Y-105127000D01*
X87873000Y-105127000D01*
X86598750Y-105127000D01*
X86440000Y-105285750D01*
X86436928Y-105850000D01*
X83535012Y-105850000D01*
X83535012Y-104885174D01*
X83659927Y-104910021D01*
X83863805Y-104910021D01*
X84063764Y-104870247D01*
X84252122Y-104792226D01*
X84421640Y-104678958D01*
X84565803Y-104534795D01*
X84679071Y-104365277D01*
X84757092Y-104176919D01*
X84796866Y-103976960D01*
X84796866Y-103914822D01*
X85451689Y-103260000D01*
X86647405Y-103260000D01*
X86684294Y-103329014D01*
X86865608Y-103549945D01*
X86830820Y-103560498D01*
X86720506Y-103619463D01*
X86623815Y-103698815D01*
X86544463Y-103795506D01*
X86485498Y-103905820D01*
X86449188Y-104025518D01*
X86436928Y-104150000D01*
X86440000Y-104714250D01*
X86598750Y-104873000D01*
X87873000Y-104873000D01*
X87873000Y-104853000D01*
X88127000Y-104853000D01*
X88127000Y-104873000D01*
X89401250Y-104873000D01*
X89560000Y-104714250D01*
X89563072Y-104150000D01*
X89550812Y-104025518D01*
X89514502Y-103905820D01*
X89455537Y-103795506D01*
X89376185Y-103698815D01*
X89279494Y-103619463D01*
X89169180Y-103560498D01*
X89134392Y-103549945D01*
X89315706Y-103329014D01*
X89453599Y-103071034D01*
X89538513Y-102791111D01*
X89556659Y-102606874D01*
X89698061Y-102635000D01*
X89901939Y-102635000D01*
X90101898Y-102595226D01*
X90290256Y-102517205D01*
X90459774Y-102403937D01*
X90603937Y-102259774D01*
X90717205Y-102090256D01*
X90795226Y-101901898D01*
X90835000Y-101701939D01*
X90835000Y-101498061D01*
X90795226Y-101298102D01*
X90717205Y-101109744D01*
X90603937Y-100940226D01*
X90459774Y-100796063D01*
X90290256Y-100682795D01*
X90101898Y-100604774D01*
X89901939Y-100565000D01*
X89698061Y-100565000D01*
X89649467Y-100574666D01*
X89498341Y-100423540D01*
X89538513Y-100291111D01*
X89567185Y-100000000D01*
X89538513Y-99708889D01*
X89453599Y-99428966D01*
X89315706Y-99170986D01*
X89130134Y-98944866D01*
X88904014Y-98759294D01*
X88886626Y-98750000D01*
X88904014Y-98740706D01*
X89130134Y-98555134D01*
X89315706Y-98329014D01*
X89453599Y-98071034D01*
X89538513Y-97791111D01*
X89567185Y-97500000D01*
X89538513Y-97208889D01*
X89453599Y-96928966D01*
X89315706Y-96670986D01*
X89130134Y-96444866D01*
X88904014Y-96259294D01*
X88646034Y-96121401D01*
X88366111Y-96036487D01*
X88147950Y-96015000D01*
X87852050Y-96015000D01*
X87633889Y-96036487D01*
X87353966Y-96121401D01*
X87185000Y-96211715D01*
X87185000Y-95685000D01*
X93966495Y-95685000D01*
X94060547Y-95694222D01*
G37*
%TD.AperFunction*%
D27*
X57815000Y-96012457D02*
X57285750Y-96015000D01*
X57127000Y-96173750D01*
X57127000Y-97373000D01*
X57147000Y-97373000D01*
X57147000Y-97627000D01*
X57127000Y-97627000D01*
X57127000Y-97647000D01*
X56873000Y-97647000D01*
X56873000Y-97627000D01*
X55598750Y-97627000D01*
X55440000Y-97785750D01*
X55436928Y-98350000D01*
X55449188Y-98474482D01*
X55466742Y-98532351D01*
X55373255Y-98503992D01*
X55200001Y-98486928D01*
X54399999Y-98486928D01*
X54226745Y-98503992D01*
X54060149Y-98554528D01*
X53906613Y-98636595D01*
X53772038Y-98747038D01*
X53661595Y-98881613D01*
X53579528Y-99035149D01*
X53528992Y-99201745D01*
X53511928Y-99374999D01*
X53511928Y-100625001D01*
X53528992Y-100798255D01*
X53579528Y-100964851D01*
X53661595Y-101118387D01*
X53769607Y-101250000D01*
X53661595Y-101381613D01*
X53579528Y-101535149D01*
X53528992Y-101701745D01*
X53511928Y-101874999D01*
X53511928Y-103125001D01*
X53528992Y-103298255D01*
X53579528Y-103464851D01*
X53661595Y-103618387D01*
X53769607Y-103750000D01*
X53661595Y-103881613D01*
X53579528Y-104035149D01*
X53528992Y-104201745D01*
X53511928Y-104374999D01*
X53511928Y-105625001D01*
X53528992Y-105798255D01*
X53579528Y-105964851D01*
X53661595Y-106118387D01*
X53769607Y-106250000D01*
X53661595Y-106381613D01*
X53579528Y-106535149D01*
X53528992Y-106701745D01*
X53511928Y-106874999D01*
X53511928Y-108125001D01*
X53528992Y-108298255D01*
X53579528Y-108464851D01*
X53661595Y-108618387D01*
X53769607Y-108750000D01*
X53661595Y-108881613D01*
X53579528Y-109035149D01*
X53528992Y-109201745D01*
X53511928Y-109374999D01*
X53511928Y-110625001D01*
X53528992Y-110798255D01*
X53579528Y-110964851D01*
X53661595Y-111118387D01*
X53769607Y-111250000D01*
X53661595Y-111381613D01*
X53579528Y-111535149D01*
X53528992Y-111701745D01*
X53511928Y-111874999D01*
X53511928Y-113125001D01*
X53528992Y-113298255D01*
X53579528Y-113464851D01*
X53661595Y-113618387D01*
X53769607Y-113750000D01*
X53661595Y-113881613D01*
X53579528Y-114035149D01*
X53528992Y-114201745D01*
X53511928Y-114374999D01*
X53511928Y-115625001D01*
X53528992Y-115798255D01*
X53579528Y-115964851D01*
X53661595Y-116118387D01*
X53769607Y-116250000D01*
X53661595Y-116381613D01*
X53579528Y-116535149D01*
X53528992Y-116701745D01*
X53511928Y-116874999D01*
X53511928Y-118125001D01*
X53528992Y-118298255D01*
X53579528Y-118464851D01*
X53661595Y-118618387D01*
X53772038Y-118752962D01*
X53906613Y-118863405D01*
X54060149Y-118945472D01*
X54226745Y-118996008D01*
X54399999Y-119013072D01*
X54864999Y-119013072D01*
X54864999Y-121230007D01*
X54693087Y-121148754D01*
X54559039Y-121108096D01*
X54337000Y-121230085D01*
X54337000Y-122373000D01*
X54357000Y-122373000D01*
X54357000Y-122627000D01*
X54337000Y-122627000D01*
X54337000Y-123769915D01*
X54559039Y-123891904D01*
X54610806Y-123876203D01*
X54063992Y-124423016D01*
X54034989Y-124446819D01*
X54002346Y-124486595D01*
X53940016Y-124562544D01*
X53874126Y-124685814D01*
X53869444Y-124694574D01*
X53825987Y-124837835D01*
X53814990Y-124949488D01*
X53814990Y-124949498D01*
X53811314Y-124986820D01*
X53814990Y-125024143D01*
X53814991Y-126737658D01*
X53811314Y-126774990D01*
X53814991Y-126812323D01*
X53825988Y-126923976D01*
X53836922Y-126960020D01*
X53869444Y-127067236D01*
X53940016Y-127199266D01*
X53977128Y-127244486D01*
X54034990Y-127314991D01*
X54063988Y-127338789D01*
X54336196Y-127610997D01*
X54359999Y-127640001D01*
X54475724Y-127734974D01*
X54561031Y-127780572D01*
X54607753Y-127805546D01*
X54751014Y-127849003D01*
X54900000Y-127863677D01*
X54937333Y-127860000D01*
X56485199Y-127860000D01*
X57561699Y-128936500D01*
X57429727Y-128848320D01*
X57168574Y-128740147D01*
X56891335Y-128685000D01*
X56608665Y-128685000D01*
X56331426Y-128740147D01*
X56070273Y-128848320D01*
X55835241Y-129005363D01*
X55635363Y-129205241D01*
X55478320Y-129440273D01*
X55370147Y-129701426D01*
X55315000Y-129978665D01*
X55315000Y-130261335D01*
X55370147Y-130538574D01*
X55478320Y-130799727D01*
X55615000Y-131004284D01*
X55615000Y-131279868D01*
X55457908Y-131436961D01*
X55208889Y-131461487D01*
X54928966Y-131546401D01*
X54670986Y-131684294D01*
X54444866Y-131869866D01*
X54392777Y-131933337D01*
X54338405Y-131831614D01*
X54227962Y-131697038D01*
X54093386Y-131586595D01*
X53939850Y-131504528D01*
X53773254Y-131453992D01*
X53600000Y-131436928D01*
X53042059Y-131436928D01*
X52805000Y-131199869D01*
X52805000Y-131004284D01*
X52941680Y-130799727D01*
X53049853Y-130538574D01*
X53105000Y-130261335D01*
X53105000Y-129978665D01*
X53049853Y-129701426D01*
X52941680Y-129440273D01*
X52784637Y-129205241D01*
X52584759Y-129005363D01*
X52349727Y-128848320D01*
X52088574Y-128740147D01*
X51811335Y-128685000D01*
X51528665Y-128685000D01*
X51251426Y-128740147D01*
X50990273Y-128848320D01*
X50755241Y-129005363D01*
X50685000Y-129075604D01*
X50685000Y-125224999D01*
X51161928Y-125224999D01*
X51161928Y-126475001D01*
X51178992Y-126648255D01*
X51229528Y-126814851D01*
X51311595Y-126968387D01*
X51422038Y-127102962D01*
X51556613Y-127213405D01*
X51710149Y-127295472D01*
X51876745Y-127346008D01*
X52049999Y-127363072D01*
X52850001Y-127363072D01*
X53023255Y-127346008D01*
X53189851Y-127295472D01*
X53343387Y-127213405D01*
X53477962Y-127102962D01*
X53588405Y-126968387D01*
X53670472Y-126814851D01*
X53721008Y-126648255D01*
X53738072Y-126475001D01*
X53738072Y-125224999D01*
X53721008Y-125051745D01*
X53670472Y-124885149D01*
X53588405Y-124731613D01*
X53477962Y-124597038D01*
X53343387Y-124486595D01*
X53189851Y-124404528D01*
X53023255Y-124353992D01*
X52850001Y-124336928D01*
X52049999Y-124336928D01*
X51876745Y-124353992D01*
X51710149Y-124404528D01*
X51556613Y-124486595D01*
X51422038Y-124597038D01*
X51311595Y-124731613D01*
X51229528Y-124885149D01*
X51178992Y-125051745D01*
X51161928Y-125224999D01*
X50685000Y-125224999D01*
X50685000Y-123544396D01*
X50755241Y-123614637D01*
X50990273Y-123771680D01*
X51251426Y-123879853D01*
X51528665Y-123935000D01*
X51811335Y-123935000D01*
X52088574Y-123879853D01*
X52349727Y-123771680D01*
X52584759Y-123614637D01*
X52784637Y-123414759D01*
X52941680Y-123179727D01*
X52946067Y-123169135D01*
X53057615Y-123355131D01*
X53246586Y-123563519D01*
X53472580Y-123731037D01*
X53726913Y-123851246D01*
X53860961Y-123891904D01*
X54083000Y-123769915D01*
X54083000Y-122627000D01*
X54063000Y-122627000D01*
X54063000Y-122373000D01*
X54083000Y-122373000D01*
X54083000Y-121230085D01*
X53860961Y-121108096D01*
X53726913Y-121148754D01*
X53472580Y-121268963D01*
X53246586Y-121436481D01*
X53057615Y-121644869D01*
X52946067Y-121830865D01*
X52941680Y-121820273D01*
X52784637Y-121585241D01*
X52584759Y-121385363D01*
X52349727Y-121228320D01*
X52088574Y-121120147D01*
X51811335Y-121065000D01*
X51528665Y-121065000D01*
X51251426Y-121120147D01*
X50990273Y-121228320D01*
X50755241Y-121385363D01*
X50685000Y-121455604D01*
X50685000Y-118763600D01*
X50806613Y-118863405D01*
X50960149Y-118945472D01*
X51126745Y-118996008D01*
X51299999Y-119013072D01*
X52100001Y-119013072D01*
X52273255Y-118996008D01*
X52439851Y-118945472D01*
X52593387Y-118863405D01*
X52727962Y-118752962D01*
X52838405Y-118618387D01*
X52920472Y-118464851D01*
X52971008Y-118298255D01*
X52988072Y-118125001D01*
X52988072Y-116874999D01*
X52971008Y-116701745D01*
X52920472Y-116535149D01*
X52838405Y-116381613D01*
X52730393Y-116250000D01*
X52838405Y-116118387D01*
X52920472Y-115964851D01*
X52971008Y-115798255D01*
X52988072Y-115625001D01*
X52988072Y-114374999D01*
X52971008Y-114201745D01*
X52920472Y-114035149D01*
X52838405Y-113881613D01*
X52730393Y-113750000D01*
X52838405Y-113618387D01*
X52920472Y-113464851D01*
X52971008Y-113298255D01*
X52988072Y-113125001D01*
X52988072Y-111874999D01*
X52971008Y-111701745D01*
X52920472Y-111535149D01*
X52838405Y-111381613D01*
X52730393Y-111250000D01*
X52838405Y-111118387D01*
X52920472Y-110964851D01*
X52971008Y-110798255D01*
X52988072Y-110625001D01*
X52988072Y-109374999D01*
X52971008Y-109201745D01*
X52920472Y-109035149D01*
X52838405Y-108881613D01*
X52730393Y-108750000D01*
X52838405Y-108618387D01*
X52920472Y-108464851D01*
X52971008Y-108298255D01*
X52988072Y-108125001D01*
X52988072Y-106874999D01*
X52971008Y-106701745D01*
X52920472Y-106535149D01*
X52838405Y-106381613D01*
X52730393Y-106250000D01*
X52838405Y-106118387D01*
X52920472Y-105964851D01*
X52971008Y-105798255D01*
X52988072Y-105625001D01*
X52988072Y-104374999D01*
X52971008Y-104201745D01*
X52920472Y-104035149D01*
X52838405Y-103881613D01*
X52730393Y-103750000D01*
X52838405Y-103618387D01*
X52920472Y-103464851D01*
X52971008Y-103298255D01*
X52988072Y-103125001D01*
X52988072Y-101874999D01*
X52971008Y-101701745D01*
X52920472Y-101535149D01*
X52838405Y-101381613D01*
X52730393Y-101250000D01*
X52838405Y-101118387D01*
X52920472Y-100964851D01*
X52971008Y-100798255D01*
X52988072Y-100625001D01*
X52988072Y-99374999D01*
X52971008Y-99201745D01*
X52920472Y-99035149D01*
X52838405Y-98881613D01*
X52727962Y-98747038D01*
X52593387Y-98636595D01*
X52439851Y-98554528D01*
X52273255Y-98503992D01*
X52100001Y-98486928D01*
X51299999Y-98486928D01*
X51126745Y-98503992D01*
X50960149Y-98554528D01*
X50806613Y-98636595D01*
X50685000Y-98736400D01*
X50685000Y-96650000D01*
X55436928Y-96650000D01*
X55440000Y-97214250D01*
X55598750Y-97373000D01*
X56873000Y-97373000D01*
X56873000Y-96173750D01*
X56714250Y-96015000D01*
X56075000Y-96011928D01*
X55950518Y-96024188D01*
X55830820Y-96060498D01*
X55720506Y-96119463D01*
X55623815Y-96198815D01*
X55544463Y-96295506D01*
X55485498Y-96405820D01*
X55449188Y-96525518D01*
X55436928Y-96650000D01*
X50685000Y-96650000D01*
X50685000Y-96033505D01*
X50694222Y-95939453D01*
X50711805Y-95881214D01*
X50740366Y-95827499D01*
X50778816Y-95780354D01*
X50825691Y-95741576D01*
X50879204Y-95712642D01*
X50937323Y-95694651D01*
X51029145Y-95685000D01*
X57815000Y-95685000D01*
X57815000Y-96012457D01*
%TA.AperFunction,Conductor*%
D28*
G36*
X57815000Y-96012457D02*
G01*
X57285750Y-96015000D01*
X57127000Y-96173750D01*
X57127000Y-97373000D01*
X57147000Y-97373000D01*
X57147000Y-97627000D01*
X57127000Y-97627000D01*
X57127000Y-97647000D01*
X56873000Y-97647000D01*
X56873000Y-97627000D01*
X55598750Y-97627000D01*
X55440000Y-97785750D01*
X55436928Y-98350000D01*
X55449188Y-98474482D01*
X55466742Y-98532351D01*
X55373255Y-98503992D01*
X55200001Y-98486928D01*
X54399999Y-98486928D01*
X54226745Y-98503992D01*
X54060149Y-98554528D01*
X53906613Y-98636595D01*
X53772038Y-98747038D01*
X53661595Y-98881613D01*
X53579528Y-99035149D01*
X53528992Y-99201745D01*
X53511928Y-99374999D01*
X53511928Y-100625001D01*
X53528992Y-100798255D01*
X53579528Y-100964851D01*
X53661595Y-101118387D01*
X53769607Y-101250000D01*
X53661595Y-101381613D01*
X53579528Y-101535149D01*
X53528992Y-101701745D01*
X53511928Y-101874999D01*
X53511928Y-103125001D01*
X53528992Y-103298255D01*
X53579528Y-103464851D01*
X53661595Y-103618387D01*
X53769607Y-103750000D01*
X53661595Y-103881613D01*
X53579528Y-104035149D01*
X53528992Y-104201745D01*
X53511928Y-104374999D01*
X53511928Y-105625001D01*
X53528992Y-105798255D01*
X53579528Y-105964851D01*
X53661595Y-106118387D01*
X53769607Y-106250000D01*
X53661595Y-106381613D01*
X53579528Y-106535149D01*
X53528992Y-106701745D01*
X53511928Y-106874999D01*
X53511928Y-108125001D01*
X53528992Y-108298255D01*
X53579528Y-108464851D01*
X53661595Y-108618387D01*
X53769607Y-108750000D01*
X53661595Y-108881613D01*
X53579528Y-109035149D01*
X53528992Y-109201745D01*
X53511928Y-109374999D01*
X53511928Y-110625001D01*
X53528992Y-110798255D01*
X53579528Y-110964851D01*
X53661595Y-111118387D01*
X53769607Y-111250000D01*
X53661595Y-111381613D01*
X53579528Y-111535149D01*
X53528992Y-111701745D01*
X53511928Y-111874999D01*
X53511928Y-113125001D01*
X53528992Y-113298255D01*
X53579528Y-113464851D01*
X53661595Y-113618387D01*
X53769607Y-113750000D01*
X53661595Y-113881613D01*
X53579528Y-114035149D01*
X53528992Y-114201745D01*
X53511928Y-114374999D01*
X53511928Y-115625001D01*
X53528992Y-115798255D01*
X53579528Y-115964851D01*
X53661595Y-116118387D01*
X53769607Y-116250000D01*
X53661595Y-116381613D01*
X53579528Y-116535149D01*
X53528992Y-116701745D01*
X53511928Y-116874999D01*
X53511928Y-118125001D01*
X53528992Y-118298255D01*
X53579528Y-118464851D01*
X53661595Y-118618387D01*
X53772038Y-118752962D01*
X53906613Y-118863405D01*
X54060149Y-118945472D01*
X54226745Y-118996008D01*
X54399999Y-119013072D01*
X54864999Y-119013072D01*
X54864999Y-121230007D01*
X54693087Y-121148754D01*
X54559039Y-121108096D01*
X54337000Y-121230085D01*
X54337000Y-122373000D01*
X54357000Y-122373000D01*
X54357000Y-122627000D01*
X54337000Y-122627000D01*
X54337000Y-123769915D01*
X54559039Y-123891904D01*
X54610806Y-123876203D01*
X54063992Y-124423016D01*
X54034989Y-124446819D01*
X54002346Y-124486595D01*
X53940016Y-124562544D01*
X53874126Y-124685814D01*
X53869444Y-124694574D01*
X53825987Y-124837835D01*
X53814990Y-124949488D01*
X53814990Y-124949498D01*
X53811314Y-124986820D01*
X53814990Y-125024143D01*
X53814991Y-126737658D01*
X53811314Y-126774990D01*
X53814991Y-126812323D01*
X53825988Y-126923976D01*
X53836922Y-126960020D01*
X53869444Y-127067236D01*
X53940016Y-127199266D01*
X53977128Y-127244486D01*
X54034990Y-127314991D01*
X54063988Y-127338789D01*
X54336196Y-127610997D01*
X54359999Y-127640001D01*
X54475724Y-127734974D01*
X54561031Y-127780572D01*
X54607753Y-127805546D01*
X54751014Y-127849003D01*
X54900000Y-127863677D01*
X54937333Y-127860000D01*
X56485199Y-127860000D01*
X57561699Y-128936500D01*
X57429727Y-128848320D01*
X57168574Y-128740147D01*
X56891335Y-128685000D01*
X56608665Y-128685000D01*
X56331426Y-128740147D01*
X56070273Y-128848320D01*
X55835241Y-129005363D01*
X55635363Y-129205241D01*
X55478320Y-129440273D01*
X55370147Y-129701426D01*
X55315000Y-129978665D01*
X55315000Y-130261335D01*
X55370147Y-130538574D01*
X55478320Y-130799727D01*
X55615000Y-131004284D01*
X55615000Y-131279868D01*
X55457908Y-131436961D01*
X55208889Y-131461487D01*
X54928966Y-131546401D01*
X54670986Y-131684294D01*
X54444866Y-131869866D01*
X54392777Y-131933337D01*
X54338405Y-131831614D01*
X54227962Y-131697038D01*
X54093386Y-131586595D01*
X53939850Y-131504528D01*
X53773254Y-131453992D01*
X53600000Y-131436928D01*
X53042059Y-131436928D01*
X52805000Y-131199869D01*
X52805000Y-131004284D01*
X52941680Y-130799727D01*
X53049853Y-130538574D01*
X53105000Y-130261335D01*
X53105000Y-129978665D01*
X53049853Y-129701426D01*
X52941680Y-129440273D01*
X52784637Y-129205241D01*
X52584759Y-129005363D01*
X52349727Y-128848320D01*
X52088574Y-128740147D01*
X51811335Y-128685000D01*
X51528665Y-128685000D01*
X51251426Y-128740147D01*
X50990273Y-128848320D01*
X50755241Y-129005363D01*
X50685000Y-129075604D01*
X50685000Y-125224999D01*
X51161928Y-125224999D01*
X51161928Y-126475001D01*
X51178992Y-126648255D01*
X51229528Y-126814851D01*
X51311595Y-126968387D01*
X51422038Y-127102962D01*
X51556613Y-127213405D01*
X51710149Y-127295472D01*
X51876745Y-127346008D01*
X52049999Y-127363072D01*
X52850001Y-127363072D01*
X53023255Y-127346008D01*
X53189851Y-127295472D01*
X53343387Y-127213405D01*
X53477962Y-127102962D01*
X53588405Y-126968387D01*
X53670472Y-126814851D01*
X53721008Y-126648255D01*
X53738072Y-126475001D01*
X53738072Y-125224999D01*
X53721008Y-125051745D01*
X53670472Y-124885149D01*
X53588405Y-124731613D01*
X53477962Y-124597038D01*
X53343387Y-124486595D01*
X53189851Y-124404528D01*
X53023255Y-124353992D01*
X52850001Y-124336928D01*
X52049999Y-124336928D01*
X51876745Y-124353992D01*
X51710149Y-124404528D01*
X51556613Y-124486595D01*
X51422038Y-124597038D01*
X51311595Y-124731613D01*
X51229528Y-124885149D01*
X51178992Y-125051745D01*
X51161928Y-125224999D01*
X50685000Y-125224999D01*
X50685000Y-123544396D01*
X50755241Y-123614637D01*
X50990273Y-123771680D01*
X51251426Y-123879853D01*
X51528665Y-123935000D01*
X51811335Y-123935000D01*
X52088574Y-123879853D01*
X52349727Y-123771680D01*
X52584759Y-123614637D01*
X52784637Y-123414759D01*
X52941680Y-123179727D01*
X52946067Y-123169135D01*
X53057615Y-123355131D01*
X53246586Y-123563519D01*
X53472580Y-123731037D01*
X53726913Y-123851246D01*
X53860961Y-123891904D01*
X54083000Y-123769915D01*
X54083000Y-122627000D01*
X54063000Y-122627000D01*
X54063000Y-122373000D01*
X54083000Y-122373000D01*
X54083000Y-121230085D01*
X53860961Y-121108096D01*
X53726913Y-121148754D01*
X53472580Y-121268963D01*
X53246586Y-121436481D01*
X53057615Y-121644869D01*
X52946067Y-121830865D01*
X52941680Y-121820273D01*
X52784637Y-121585241D01*
X52584759Y-121385363D01*
X52349727Y-121228320D01*
X52088574Y-121120147D01*
X51811335Y-121065000D01*
X51528665Y-121065000D01*
X51251426Y-121120147D01*
X50990273Y-121228320D01*
X50755241Y-121385363D01*
X50685000Y-121455604D01*
X50685000Y-118763600D01*
X50806613Y-118863405D01*
X50960149Y-118945472D01*
X51126745Y-118996008D01*
X51299999Y-119013072D01*
X52100001Y-119013072D01*
X52273255Y-118996008D01*
X52439851Y-118945472D01*
X52593387Y-118863405D01*
X52727962Y-118752962D01*
X52838405Y-118618387D01*
X52920472Y-118464851D01*
X52971008Y-118298255D01*
X52988072Y-118125001D01*
X52988072Y-116874999D01*
X52971008Y-116701745D01*
X52920472Y-116535149D01*
X52838405Y-116381613D01*
X52730393Y-116250000D01*
X52838405Y-116118387D01*
X52920472Y-115964851D01*
X52971008Y-115798255D01*
X52988072Y-115625001D01*
X52988072Y-114374999D01*
X52971008Y-114201745D01*
X52920472Y-114035149D01*
X52838405Y-113881613D01*
X52730393Y-113750000D01*
X52838405Y-113618387D01*
X52920472Y-113464851D01*
X52971008Y-113298255D01*
X52988072Y-113125001D01*
X52988072Y-111874999D01*
X52971008Y-111701745D01*
X52920472Y-111535149D01*
X52838405Y-111381613D01*
X52730393Y-111250000D01*
X52838405Y-111118387D01*
X52920472Y-110964851D01*
X52971008Y-110798255D01*
X52988072Y-110625001D01*
X52988072Y-109374999D01*
X52971008Y-109201745D01*
X52920472Y-109035149D01*
X52838405Y-108881613D01*
X52730393Y-108750000D01*
X52838405Y-108618387D01*
X52920472Y-108464851D01*
X52971008Y-108298255D01*
X52988072Y-108125001D01*
X52988072Y-106874999D01*
X52971008Y-106701745D01*
X52920472Y-106535149D01*
X52838405Y-106381613D01*
X52730393Y-106250000D01*
X52838405Y-106118387D01*
X52920472Y-105964851D01*
X52971008Y-105798255D01*
X52988072Y-105625001D01*
X52988072Y-104374999D01*
X52971008Y-104201745D01*
X52920472Y-104035149D01*
X52838405Y-103881613D01*
X52730393Y-103750000D01*
X52838405Y-103618387D01*
X52920472Y-103464851D01*
X52971008Y-103298255D01*
X52988072Y-103125001D01*
X52988072Y-101874999D01*
X52971008Y-101701745D01*
X52920472Y-101535149D01*
X52838405Y-101381613D01*
X52730393Y-101250000D01*
X52838405Y-101118387D01*
X52920472Y-100964851D01*
X52971008Y-100798255D01*
X52988072Y-100625001D01*
X52988072Y-99374999D01*
X52971008Y-99201745D01*
X52920472Y-99035149D01*
X52838405Y-98881613D01*
X52727962Y-98747038D01*
X52593387Y-98636595D01*
X52439851Y-98554528D01*
X52273255Y-98503992D01*
X52100001Y-98486928D01*
X51299999Y-98486928D01*
X51126745Y-98503992D01*
X50960149Y-98554528D01*
X50806613Y-98636595D01*
X50685000Y-98736400D01*
X50685000Y-96650000D01*
X55436928Y-96650000D01*
X55440000Y-97214250D01*
X55598750Y-97373000D01*
X56873000Y-97373000D01*
X56873000Y-96173750D01*
X56714250Y-96015000D01*
X56075000Y-96011928D01*
X55950518Y-96024188D01*
X55830820Y-96060498D01*
X55720506Y-96119463D01*
X55623815Y-96198815D01*
X55544463Y-96295506D01*
X55485498Y-96405820D01*
X55449188Y-96525518D01*
X55436928Y-96650000D01*
X50685000Y-96650000D01*
X50685000Y-96033505D01*
X50694222Y-95939453D01*
X50711805Y-95881214D01*
X50740366Y-95827499D01*
X50778816Y-95780354D01*
X50825691Y-95741576D01*
X50879204Y-95712642D01*
X50937323Y-95694651D01*
X51029145Y-95685000D01*
X57815000Y-95685000D01*
X57815000Y-96012457D01*
G37*
%TD.AperFunction*%
D27*
X71337000Y-122373000D02*
X71357000Y-122373000D01*
X71357000Y-122627000D01*
X71337000Y-122627000D01*
X71337000Y-123769915D01*
X71559039Y-123891904D01*
X71693087Y-123851246D01*
X71947420Y-123731037D01*
X72173414Y-123563519D01*
X72321769Y-123399920D01*
X72324188Y-123424482D01*
X72360498Y-123544180D01*
X72419463Y-123654494D01*
X72498815Y-123751185D01*
X72595506Y-123830537D01*
X72705820Y-123889502D01*
X72825518Y-123925812D01*
X72950000Y-123938072D01*
X72990001Y-123938072D01*
X72990001Y-124340868D01*
X72950001Y-124336928D01*
X72149999Y-124336928D01*
X71976745Y-124353992D01*
X71810149Y-124404528D01*
X71656613Y-124486595D01*
X71522038Y-124597038D01*
X71411595Y-124731613D01*
X71329528Y-124885149D01*
X71278992Y-125051745D01*
X71261928Y-125224999D01*
X71261928Y-126475001D01*
X71278992Y-126648255D01*
X71306829Y-126740021D01*
X70693171Y-126740021D01*
X70721008Y-126648255D01*
X70738072Y-126475001D01*
X70738072Y-125224999D01*
X70721008Y-125051745D01*
X70670472Y-124885149D01*
X70588405Y-124731613D01*
X70477962Y-124597038D01*
X70343387Y-124486595D01*
X70189851Y-124404528D01*
X70023255Y-124353992D01*
X69850001Y-124336928D01*
X69049999Y-124336928D01*
X68876745Y-124353992D01*
X68710149Y-124404528D01*
X68556613Y-124486595D01*
X68422038Y-124597038D01*
X68311595Y-124731613D01*
X68229528Y-124885149D01*
X68178992Y-125051745D01*
X68161928Y-125224999D01*
X68161928Y-126475001D01*
X68178992Y-126648255D01*
X68206829Y-126740021D01*
X65981109Y-126740021D01*
X66018098Y-126618081D01*
X66029095Y-126506428D01*
X66029095Y-126506418D01*
X66032771Y-126469095D01*
X66029095Y-126431772D01*
X66029095Y-124663094D01*
X66035002Y-124663676D01*
X66072324Y-124660000D01*
X66072335Y-124660000D01*
X66183988Y-124649003D01*
X66327249Y-124605546D01*
X66459278Y-124534974D01*
X66575003Y-124440001D01*
X66598805Y-124410998D01*
X67411004Y-123598800D01*
X67440001Y-123575003D01*
X67480743Y-123525359D01*
X67534974Y-123459279D01*
X67557584Y-123416980D01*
X67755241Y-123614637D01*
X67990273Y-123771680D01*
X68251426Y-123879853D01*
X68528665Y-123935000D01*
X68811335Y-123935000D01*
X69088574Y-123879853D01*
X69349727Y-123771680D01*
X69584759Y-123614637D01*
X69784637Y-123414759D01*
X69941680Y-123179727D01*
X69946067Y-123169135D01*
X70057615Y-123355131D01*
X70246586Y-123563519D01*
X70472580Y-123731037D01*
X70726913Y-123851246D01*
X70860961Y-123891904D01*
X71083000Y-123769915D01*
X71083000Y-122627000D01*
X71063000Y-122627000D01*
X71063000Y-122373000D01*
X71083000Y-122373000D01*
X71083000Y-122353000D01*
X71337000Y-122353000D01*
X71337000Y-122373000D01*
%TA.AperFunction,Conductor*%
D28*
G36*
X71337000Y-122373000D02*
G01*
X71357000Y-122373000D01*
X71357000Y-122627000D01*
X71337000Y-122627000D01*
X71337000Y-123769915D01*
X71559039Y-123891904D01*
X71693087Y-123851246D01*
X71947420Y-123731037D01*
X72173414Y-123563519D01*
X72321769Y-123399920D01*
X72324188Y-123424482D01*
X72360498Y-123544180D01*
X72419463Y-123654494D01*
X72498815Y-123751185D01*
X72595506Y-123830537D01*
X72705820Y-123889502D01*
X72825518Y-123925812D01*
X72950000Y-123938072D01*
X72990001Y-123938072D01*
X72990001Y-124340868D01*
X72950001Y-124336928D01*
X72149999Y-124336928D01*
X71976745Y-124353992D01*
X71810149Y-124404528D01*
X71656613Y-124486595D01*
X71522038Y-124597038D01*
X71411595Y-124731613D01*
X71329528Y-124885149D01*
X71278992Y-125051745D01*
X71261928Y-125224999D01*
X71261928Y-126475001D01*
X71278992Y-126648255D01*
X71306829Y-126740021D01*
X70693171Y-126740021D01*
X70721008Y-126648255D01*
X70738072Y-126475001D01*
X70738072Y-125224999D01*
X70721008Y-125051745D01*
X70670472Y-124885149D01*
X70588405Y-124731613D01*
X70477962Y-124597038D01*
X70343387Y-124486595D01*
X70189851Y-124404528D01*
X70023255Y-124353992D01*
X69850001Y-124336928D01*
X69049999Y-124336928D01*
X68876745Y-124353992D01*
X68710149Y-124404528D01*
X68556613Y-124486595D01*
X68422038Y-124597038D01*
X68311595Y-124731613D01*
X68229528Y-124885149D01*
X68178992Y-125051745D01*
X68161928Y-125224999D01*
X68161928Y-126475001D01*
X68178992Y-126648255D01*
X68206829Y-126740021D01*
X65981109Y-126740021D01*
X66018098Y-126618081D01*
X66029095Y-126506428D01*
X66029095Y-126506418D01*
X66032771Y-126469095D01*
X66029095Y-126431772D01*
X66029095Y-124663094D01*
X66035002Y-124663676D01*
X66072324Y-124660000D01*
X66072335Y-124660000D01*
X66183988Y-124649003D01*
X66327249Y-124605546D01*
X66459278Y-124534974D01*
X66575003Y-124440001D01*
X66598805Y-124410998D01*
X67411004Y-123598800D01*
X67440001Y-123575003D01*
X67480743Y-123525359D01*
X67534974Y-123459279D01*
X67557584Y-123416980D01*
X67755241Y-123614637D01*
X67990273Y-123771680D01*
X68251426Y-123879853D01*
X68528665Y-123935000D01*
X68811335Y-123935000D01*
X69088574Y-123879853D01*
X69349727Y-123771680D01*
X69584759Y-123614637D01*
X69784637Y-123414759D01*
X69941680Y-123179727D01*
X69946067Y-123169135D01*
X70057615Y-123355131D01*
X70246586Y-123563519D01*
X70472580Y-123731037D01*
X70726913Y-123851246D01*
X70860961Y-123891904D01*
X71083000Y-123769915D01*
X71083000Y-122627000D01*
X71063000Y-122627000D01*
X71063000Y-122373000D01*
X71083000Y-122373000D01*
X71083000Y-122353000D01*
X71337000Y-122353000D01*
X71337000Y-122373000D01*
G37*
%TD.AperFunction*%
D27*
X80000470Y-121120274D02*
X79837000Y-121210085D01*
X79837000Y-122353000D01*
X79857000Y-122353000D01*
X79857000Y-122607000D01*
X79837000Y-122607000D01*
X79837000Y-123749915D01*
X80059039Y-123871904D01*
X80193087Y-123831246D01*
X80364999Y-123749993D01*
X80364999Y-123889990D01*
X80287343Y-123889990D01*
X80250010Y-123886313D01*
X80212677Y-123889990D01*
X80101024Y-123900987D01*
X79957763Y-123944444D01*
X79825734Y-124015016D01*
X79710009Y-124109989D01*
X79686206Y-124138993D01*
X79488998Y-124336201D01*
X79460000Y-124359999D01*
X79436202Y-124388997D01*
X79436201Y-124388998D01*
X79365026Y-124475724D01*
X79294454Y-124607754D01*
X79280068Y-124655181D01*
X79250998Y-124751014D01*
X79249039Y-124770906D01*
X79236324Y-124900000D01*
X79240001Y-124937332D01*
X79240000Y-126585198D01*
X79225822Y-126599376D01*
X79238072Y-126475001D01*
X79238072Y-125224999D01*
X79221008Y-125051745D01*
X79170472Y-124885149D01*
X79088405Y-124731613D01*
X78977962Y-124597038D01*
X78843387Y-124486595D01*
X78689851Y-124404528D01*
X78523255Y-124353992D01*
X78350001Y-124336928D01*
X77549999Y-124336928D01*
X77376745Y-124353992D01*
X77210149Y-124404528D01*
X77056613Y-124486595D01*
X76922038Y-124597038D01*
X76811595Y-124731613D01*
X76729528Y-124885149D01*
X76678992Y-125051745D01*
X76661928Y-125224999D01*
X76661928Y-126475001D01*
X76678992Y-126648255D01*
X76706829Y-126740021D01*
X73793171Y-126740021D01*
X73821008Y-126648255D01*
X73838072Y-126475001D01*
X73838072Y-126036730D01*
X74261003Y-125613799D01*
X74290001Y-125590001D01*
X74384974Y-125474276D01*
X74455546Y-125342247D01*
X74499003Y-125198986D01*
X74510000Y-125087333D01*
X74510000Y-125087324D01*
X74513676Y-125050001D01*
X74510000Y-125012678D01*
X74510000Y-123938072D01*
X74550000Y-123938072D01*
X74674482Y-123925812D01*
X74794180Y-123889502D01*
X74904494Y-123830537D01*
X75001185Y-123751185D01*
X75080537Y-123654494D01*
X75139502Y-123544180D01*
X75175812Y-123424482D01*
X75188072Y-123300000D01*
X75188072Y-122134999D01*
X75775512Y-122134999D01*
X75735000Y-122338665D01*
X75735000Y-122621335D01*
X75790147Y-122898574D01*
X75898320Y-123159727D01*
X76055363Y-123394759D01*
X76255241Y-123594637D01*
X76490273Y-123751680D01*
X76751426Y-123859853D01*
X77028665Y-123915000D01*
X77311335Y-123915000D01*
X77588574Y-123859853D01*
X77849727Y-123751680D01*
X78084759Y-123594637D01*
X78284637Y-123394759D01*
X78441680Y-123159727D01*
X78446067Y-123149135D01*
X78557615Y-123335131D01*
X78746586Y-123543519D01*
X78972580Y-123711037D01*
X79226913Y-123831246D01*
X79360961Y-123871904D01*
X79583000Y-123749915D01*
X79583000Y-122607000D01*
X79563000Y-122607000D01*
X79563000Y-122353000D01*
X79583000Y-122353000D01*
X79583000Y-121210085D01*
X79360961Y-121088096D01*
X79293361Y-121108600D01*
X79303072Y-121010000D01*
X79300536Y-120420339D01*
X80000470Y-121120274D01*
%TA.AperFunction,Conductor*%
D28*
G36*
X80000470Y-121120274D02*
G01*
X79837000Y-121210085D01*
X79837000Y-122353000D01*
X79857000Y-122353000D01*
X79857000Y-122607000D01*
X79837000Y-122607000D01*
X79837000Y-123749915D01*
X80059039Y-123871904D01*
X80193087Y-123831246D01*
X80364999Y-123749993D01*
X80364999Y-123889990D01*
X80287343Y-123889990D01*
X80250010Y-123886313D01*
X80212677Y-123889990D01*
X80101024Y-123900987D01*
X79957763Y-123944444D01*
X79825734Y-124015016D01*
X79710009Y-124109989D01*
X79686206Y-124138993D01*
X79488998Y-124336201D01*
X79460000Y-124359999D01*
X79436202Y-124388997D01*
X79436201Y-124388998D01*
X79365026Y-124475724D01*
X79294454Y-124607754D01*
X79280068Y-124655181D01*
X79250998Y-124751014D01*
X79249039Y-124770906D01*
X79236324Y-124900000D01*
X79240001Y-124937332D01*
X79240000Y-126585198D01*
X79225822Y-126599376D01*
X79238072Y-126475001D01*
X79238072Y-125224999D01*
X79221008Y-125051745D01*
X79170472Y-124885149D01*
X79088405Y-124731613D01*
X78977962Y-124597038D01*
X78843387Y-124486595D01*
X78689851Y-124404528D01*
X78523255Y-124353992D01*
X78350001Y-124336928D01*
X77549999Y-124336928D01*
X77376745Y-124353992D01*
X77210149Y-124404528D01*
X77056613Y-124486595D01*
X76922038Y-124597038D01*
X76811595Y-124731613D01*
X76729528Y-124885149D01*
X76678992Y-125051745D01*
X76661928Y-125224999D01*
X76661928Y-126475001D01*
X76678992Y-126648255D01*
X76706829Y-126740021D01*
X73793171Y-126740021D01*
X73821008Y-126648255D01*
X73838072Y-126475001D01*
X73838072Y-126036730D01*
X74261003Y-125613799D01*
X74290001Y-125590001D01*
X74384974Y-125474276D01*
X74455546Y-125342247D01*
X74499003Y-125198986D01*
X74510000Y-125087333D01*
X74510000Y-125087324D01*
X74513676Y-125050001D01*
X74510000Y-125012678D01*
X74510000Y-123938072D01*
X74550000Y-123938072D01*
X74674482Y-123925812D01*
X74794180Y-123889502D01*
X74904494Y-123830537D01*
X75001185Y-123751185D01*
X75080537Y-123654494D01*
X75139502Y-123544180D01*
X75175812Y-123424482D01*
X75188072Y-123300000D01*
X75188072Y-122134999D01*
X75775512Y-122134999D01*
X75735000Y-122338665D01*
X75735000Y-122621335D01*
X75790147Y-122898574D01*
X75898320Y-123159727D01*
X76055363Y-123394759D01*
X76255241Y-123594637D01*
X76490273Y-123751680D01*
X76751426Y-123859853D01*
X77028665Y-123915000D01*
X77311335Y-123915000D01*
X77588574Y-123859853D01*
X77849727Y-123751680D01*
X78084759Y-123594637D01*
X78284637Y-123394759D01*
X78441680Y-123159727D01*
X78446067Y-123149135D01*
X78557615Y-123335131D01*
X78746586Y-123543519D01*
X78972580Y-123711037D01*
X79226913Y-123831246D01*
X79360961Y-123871904D01*
X79583000Y-123749915D01*
X79583000Y-122607000D01*
X79563000Y-122607000D01*
X79563000Y-122353000D01*
X79583000Y-122353000D01*
X79583000Y-121210085D01*
X79360961Y-121088096D01*
X79293361Y-121108600D01*
X79303072Y-121010000D01*
X79300536Y-120420339D01*
X80000470Y-121120274D01*
G37*
%TD.AperFunction*%
D27*
X62837000Y-122373000D02*
X62857000Y-122373000D01*
X62857000Y-122627000D01*
X62837000Y-122627000D01*
X62837000Y-123769915D01*
X63059039Y-123891904D01*
X63193087Y-123851246D01*
X63290000Y-123805441D01*
X63290000Y-124415298D01*
X63156613Y-124486595D01*
X63022038Y-124597038D01*
X62911595Y-124731613D01*
X62829528Y-124885149D01*
X62778992Y-125051745D01*
X62761928Y-125224999D01*
X62761928Y-126290010D01*
X62238072Y-126290010D01*
X62238072Y-125224999D01*
X62221008Y-125051745D01*
X62170472Y-124885149D01*
X62088405Y-124731613D01*
X61977962Y-124597038D01*
X61843387Y-124486595D01*
X61689851Y-124404528D01*
X61523255Y-124353992D01*
X61350001Y-124336928D01*
X61061400Y-124336928D01*
X61157808Y-124257808D01*
X61181610Y-124228805D01*
X61804195Y-123606222D01*
X61972580Y-123731037D01*
X62226913Y-123851246D01*
X62360961Y-123891904D01*
X62583000Y-123769915D01*
X62583000Y-122627000D01*
X62563000Y-122627000D01*
X62563000Y-122373000D01*
X62583000Y-122373000D01*
X62583000Y-122353000D01*
X62837000Y-122353000D01*
X62837000Y-122373000D01*
%TA.AperFunction,Conductor*%
D28*
G36*
X62837000Y-122373000D02*
G01*
X62857000Y-122373000D01*
X62857000Y-122627000D01*
X62837000Y-122627000D01*
X62837000Y-123769915D01*
X63059039Y-123891904D01*
X63193087Y-123851246D01*
X63290000Y-123805441D01*
X63290000Y-124415298D01*
X63156613Y-124486595D01*
X63022038Y-124597038D01*
X62911595Y-124731613D01*
X62829528Y-124885149D01*
X62778992Y-125051745D01*
X62761928Y-125224999D01*
X62761928Y-126290010D01*
X62238072Y-126290010D01*
X62238072Y-125224999D01*
X62221008Y-125051745D01*
X62170472Y-124885149D01*
X62088405Y-124731613D01*
X61977962Y-124597038D01*
X61843387Y-124486595D01*
X61689851Y-124404528D01*
X61523255Y-124353992D01*
X61350001Y-124336928D01*
X61061400Y-124336928D01*
X61157808Y-124257808D01*
X61181610Y-124228805D01*
X61804195Y-123606222D01*
X61972580Y-123731037D01*
X62226913Y-123851246D01*
X62360961Y-123891904D01*
X62583000Y-123769915D01*
X62583000Y-122627000D01*
X62563000Y-122627000D01*
X62563000Y-122373000D01*
X62583000Y-122373000D01*
X62583000Y-122353000D01*
X62837000Y-122353000D01*
X62837000Y-122373000D01*
G37*
%TD.AperFunction*%
D27*
X78914999Y-118423608D02*
X78909180Y-118420498D01*
X78789482Y-118384188D01*
X78665000Y-118371928D01*
X78500750Y-118375000D01*
X78342000Y-118533750D01*
X78342000Y-119883000D01*
X78362000Y-119883000D01*
X78362000Y-120137000D01*
X78342000Y-120137000D01*
X78342000Y-120157000D01*
X78088000Y-120157000D01*
X78088000Y-120137000D01*
X78068000Y-120137000D01*
X78068000Y-119883000D01*
X78088000Y-119883000D01*
X78088000Y-118533750D01*
X77929250Y-118375000D01*
X77765000Y-118371928D01*
X77640518Y-118384188D01*
X77580000Y-118402546D01*
X77519482Y-118384188D01*
X77395000Y-118371928D01*
X76495000Y-118371928D01*
X76370518Y-118384188D01*
X76310000Y-118402546D01*
X76249482Y-118384188D01*
X76125000Y-118371928D01*
X75423946Y-118371928D01*
X75443485Y-118324757D01*
X75483259Y-118124798D01*
X75483259Y-118059236D01*
X75538757Y-117991611D01*
X75609329Y-117859582D01*
X75652786Y-117716321D01*
X75663783Y-117604667D01*
X75663783Y-117604659D01*
X75667459Y-117567336D01*
X75663783Y-117530013D01*
X75663783Y-117461007D01*
X75834225Y-117290565D01*
X76689040Y-117290565D01*
X76756020Y-117530656D01*
X77005048Y-117647756D01*
X77272135Y-117714023D01*
X77547017Y-117726910D01*
X77819133Y-117685922D01*
X78078023Y-117592636D01*
X78193980Y-117530656D01*
X78260960Y-117290565D01*
X77475000Y-116504605D01*
X76689040Y-117290565D01*
X75834225Y-117290565D01*
X76204557Y-116920233D01*
X76207364Y-116928023D01*
X76269344Y-117043980D01*
X76509435Y-117110960D01*
X77295395Y-116325000D01*
X77654605Y-116325000D01*
X78440565Y-117110960D01*
X78680656Y-117043980D01*
X78797756Y-116794952D01*
X78864023Y-116527865D01*
X78876910Y-116252983D01*
X78835922Y-115980867D01*
X78742636Y-115721977D01*
X78680656Y-115606020D01*
X78440565Y-115539040D01*
X77654605Y-116325000D01*
X77295395Y-116325000D01*
X77281253Y-116310858D01*
X77460858Y-116131253D01*
X77475000Y-116145395D01*
X78260960Y-115359435D01*
X78193980Y-115119344D01*
X78065746Y-115059045D01*
X78915000Y-114209792D01*
X78914999Y-118423608D01*
%TA.AperFunction,Conductor*%
D28*
G36*
X78914999Y-118423608D02*
G01*
X78909180Y-118420498D01*
X78789482Y-118384188D01*
X78665000Y-118371928D01*
X78500750Y-118375000D01*
X78342000Y-118533750D01*
X78342000Y-119883000D01*
X78362000Y-119883000D01*
X78362000Y-120137000D01*
X78342000Y-120137000D01*
X78342000Y-120157000D01*
X78088000Y-120157000D01*
X78088000Y-120137000D01*
X78068000Y-120137000D01*
X78068000Y-119883000D01*
X78088000Y-119883000D01*
X78088000Y-118533750D01*
X77929250Y-118375000D01*
X77765000Y-118371928D01*
X77640518Y-118384188D01*
X77580000Y-118402546D01*
X77519482Y-118384188D01*
X77395000Y-118371928D01*
X76495000Y-118371928D01*
X76370518Y-118384188D01*
X76310000Y-118402546D01*
X76249482Y-118384188D01*
X76125000Y-118371928D01*
X75423946Y-118371928D01*
X75443485Y-118324757D01*
X75483259Y-118124798D01*
X75483259Y-118059236D01*
X75538757Y-117991611D01*
X75609329Y-117859582D01*
X75652786Y-117716321D01*
X75663783Y-117604667D01*
X75663783Y-117604659D01*
X75667459Y-117567336D01*
X75663783Y-117530013D01*
X75663783Y-117461007D01*
X75834225Y-117290565D01*
X76689040Y-117290565D01*
X76756020Y-117530656D01*
X77005048Y-117647756D01*
X77272135Y-117714023D01*
X77547017Y-117726910D01*
X77819133Y-117685922D01*
X78078023Y-117592636D01*
X78193980Y-117530656D01*
X78260960Y-117290565D01*
X77475000Y-116504605D01*
X76689040Y-117290565D01*
X75834225Y-117290565D01*
X76204557Y-116920233D01*
X76207364Y-116928023D01*
X76269344Y-117043980D01*
X76509435Y-117110960D01*
X77295395Y-116325000D01*
X77654605Y-116325000D01*
X78440565Y-117110960D01*
X78680656Y-117043980D01*
X78797756Y-116794952D01*
X78864023Y-116527865D01*
X78876910Y-116252983D01*
X78835922Y-115980867D01*
X78742636Y-115721977D01*
X78680656Y-115606020D01*
X78440565Y-115539040D01*
X77654605Y-116325000D01*
X77295395Y-116325000D01*
X77281253Y-116310858D01*
X77460858Y-116131253D01*
X77475000Y-116145395D01*
X78260960Y-115359435D01*
X78193980Y-115119344D01*
X78065746Y-115059045D01*
X78915000Y-114209792D01*
X78914999Y-118423608D01*
G37*
%TD.AperFunction*%
D27*
X62469463Y-101695506D02*
X62410498Y-101805820D01*
X62374188Y-101925518D01*
X62361928Y-102050000D01*
X62365000Y-102214250D01*
X62523750Y-102373000D01*
X63873000Y-102373000D01*
X63873000Y-102353000D01*
X64127000Y-102353000D01*
X64127000Y-102373000D01*
X65476250Y-102373000D01*
X65635000Y-102214250D01*
X65638072Y-102050000D01*
X65625812Y-101925518D01*
X65589502Y-101805820D01*
X65530537Y-101695506D01*
X65521915Y-101685000D01*
X71856783Y-101685000D01*
X71840226Y-101696063D01*
X71696063Y-101840226D01*
X71582795Y-102009744D01*
X71504774Y-102198102D01*
X71465000Y-102398061D01*
X71465000Y-102589999D01*
X68987323Y-102589999D01*
X68950000Y-102586323D01*
X68912677Y-102589999D01*
X68912668Y-102589999D01*
X68801015Y-102600996D01*
X68657754Y-102644453D01*
X68525725Y-102715025D01*
X68525723Y-102715026D01*
X68525724Y-102715026D01*
X68438997Y-102786200D01*
X68438993Y-102786204D01*
X68410000Y-102809998D01*
X68386206Y-102838991D01*
X67626991Y-103598208D01*
X67597988Y-103622010D01*
X67553906Y-103675725D01*
X67503015Y-103737735D01*
X67446223Y-103843985D01*
X67432443Y-103869765D01*
X67388986Y-104013026D01*
X67377989Y-104124679D01*
X67377989Y-104124689D01*
X67374313Y-104162011D01*
X67377989Y-104199334D01*
X67377990Y-104996288D01*
X67334052Y-105040226D01*
X67220784Y-105209744D01*
X67142763Y-105398102D01*
X67102989Y-105598061D01*
X67102989Y-105801939D01*
X67142763Y-106001898D01*
X67220784Y-106190256D01*
X67334052Y-106359774D01*
X67478215Y-106503937D01*
X67647733Y-106617205D01*
X67836091Y-106695226D01*
X68036050Y-106735000D01*
X68239928Y-106735000D01*
X68439887Y-106695226D01*
X68628245Y-106617205D01*
X68797763Y-106503937D01*
X68941926Y-106359774D01*
X69023768Y-106237288D01*
X69036815Y-106253185D01*
X69133506Y-106332537D01*
X69243820Y-106391502D01*
X69363518Y-106427812D01*
X69488000Y-106440072D01*
X69964250Y-106437000D01*
X70123000Y-106278250D01*
X70123000Y-105167000D01*
X70377000Y-105167000D01*
X70377000Y-106278250D01*
X70535750Y-106437000D01*
X71012000Y-106440072D01*
X71136482Y-106427812D01*
X71256180Y-106391502D01*
X71366494Y-106332537D01*
X71463185Y-106253185D01*
X71542537Y-106156494D01*
X71601502Y-106046180D01*
X71637812Y-105926482D01*
X71650072Y-105802000D01*
X71647000Y-105325750D01*
X71488250Y-105167000D01*
X70377000Y-105167000D01*
X70123000Y-105167000D01*
X70103000Y-105167000D01*
X70103000Y-104913000D01*
X70123000Y-104913000D01*
X70123000Y-104893000D01*
X70377000Y-104893000D01*
X70377000Y-104913000D01*
X71488250Y-104913000D01*
X71647000Y-104754250D01*
X71650072Y-104278000D01*
X71637812Y-104153518D01*
X71624611Y-104109999D01*
X73862679Y-104109999D01*
X73900001Y-104113675D01*
X73937323Y-104109999D01*
X73937334Y-104109999D01*
X74048987Y-104099002D01*
X74192248Y-104055545D01*
X74324277Y-103984973D01*
X74440002Y-103890000D01*
X74463804Y-103860997D01*
X74789801Y-103535000D01*
X74851939Y-103535000D01*
X75051898Y-103495226D01*
X75240256Y-103417205D01*
X75409774Y-103303937D01*
X75553937Y-103159774D01*
X75667205Y-102990256D01*
X75745226Y-102801898D01*
X75785000Y-102601939D01*
X75785000Y-102398061D01*
X75745226Y-102198102D01*
X75719092Y-102135010D01*
X79363518Y-102135010D01*
X79365000Y-102214250D01*
X79523750Y-102373000D01*
X80873000Y-102373000D01*
X80873000Y-102353000D01*
X81127000Y-102353000D01*
X81127000Y-102373000D01*
X81147000Y-102373000D01*
X81147000Y-102627000D01*
X81127000Y-102627000D01*
X81127000Y-102647000D01*
X80873000Y-102647000D01*
X80873000Y-102627000D01*
X79523750Y-102627000D01*
X79365000Y-102785750D01*
X79361928Y-102950000D01*
X79374188Y-103074482D01*
X79392546Y-103135000D01*
X79374188Y-103195518D01*
X79361928Y-103320000D01*
X79361928Y-104220000D01*
X79368364Y-104285348D01*
X79311014Y-104290997D01*
X79167753Y-104334454D01*
X79035724Y-104405026D01*
X79009540Y-104426515D01*
X79010007Y-104424167D01*
X79010007Y-104220289D01*
X78970233Y-104020330D01*
X78892212Y-103831972D01*
X78778944Y-103662454D01*
X78634781Y-103518291D01*
X78465263Y-103405023D01*
X78276905Y-103327002D01*
X78076946Y-103287228D01*
X77873068Y-103287228D01*
X77687792Y-103324081D01*
X77659774Y-103296063D01*
X77490256Y-103182795D01*
X77301898Y-103104774D01*
X77101939Y-103065000D01*
X76898061Y-103065000D01*
X76698102Y-103104774D01*
X76509744Y-103182795D01*
X76340226Y-103296063D01*
X76196063Y-103440226D01*
X76082795Y-103609744D01*
X76004774Y-103798102D01*
X75965000Y-103998061D01*
X75965000Y-104201939D01*
X76004774Y-104401898D01*
X76082795Y-104590256D01*
X76196063Y-104759774D01*
X76340226Y-104903937D01*
X76509744Y-105017205D01*
X76565498Y-105040299D01*
X76740000Y-105214801D01*
X76740001Y-106762668D01*
X76736324Y-106800000D01*
X76740001Y-106837333D01*
X76750998Y-106948986D01*
X76754339Y-106959999D01*
X76794454Y-107092246D01*
X76865026Y-107224276D01*
X76917121Y-107287753D01*
X76960000Y-107340001D01*
X76988998Y-107363799D01*
X77640000Y-108014802D01*
X77640001Y-110985197D01*
X76637361Y-111987837D01*
X76635000Y-110285750D01*
X76476250Y-110127000D01*
X73627000Y-110127000D01*
X73627000Y-112976250D01*
X73785750Y-113135000D01*
X75487837Y-113137361D01*
X74185199Y-114440000D01*
X73453254Y-114440000D01*
X73477474Y-114318238D01*
X73477474Y-114114360D01*
X73437700Y-113914401D01*
X73359679Y-113726043D01*
X73246411Y-113556525D01*
X73102248Y-113412362D01*
X72932730Y-113299094D01*
X72744372Y-113221073D01*
X72544413Y-113181299D01*
X72482277Y-113181299D01*
X72437056Y-113136078D01*
X73214250Y-113135000D01*
X73373000Y-112976250D01*
X73373000Y-110127000D01*
X70523750Y-110127000D01*
X70365000Y-110285750D01*
X70361960Y-112476912D01*
X70051714Y-112476912D01*
X66980000Y-109405199D01*
X66980000Y-107500000D01*
X70361928Y-107500000D01*
X70365000Y-109714250D01*
X70523750Y-109873000D01*
X73373000Y-109873000D01*
X73373000Y-109853000D01*
X73627000Y-109853000D01*
X73627000Y-109873000D01*
X76476250Y-109873000D01*
X76635000Y-109714250D01*
X76638072Y-107500000D01*
X76625812Y-107375518D01*
X76589502Y-107255820D01*
X76530537Y-107145506D01*
X76451185Y-107048815D01*
X76354494Y-106969463D01*
X76244180Y-106910498D01*
X76149660Y-106881826D01*
X76150072Y-106818000D01*
X76137812Y-106693518D01*
X76101502Y-106573820D01*
X76042537Y-106463506D01*
X75963185Y-106366815D01*
X75866494Y-106287463D01*
X75756180Y-106228498D01*
X75636482Y-106192188D01*
X75512000Y-106179928D01*
X75035750Y-106183000D01*
X74877000Y-106341750D01*
X74877000Y-106863486D01*
X74623000Y-106863838D01*
X74623000Y-106341750D01*
X74464250Y-106183000D01*
X73988000Y-106179928D01*
X73863518Y-106192188D01*
X73743820Y-106228498D01*
X73633506Y-106287463D01*
X73536815Y-106366815D01*
X73457463Y-106463506D01*
X73398498Y-106573820D01*
X73362188Y-106693518D01*
X73349928Y-106818000D01*
X73351114Y-107001864D01*
X73214250Y-106865000D01*
X71000000Y-106861928D01*
X70875518Y-106874188D01*
X70755820Y-106910498D01*
X70645506Y-106969463D01*
X70548815Y-107048815D01*
X70469463Y-107145506D01*
X70410498Y-107255820D01*
X70374188Y-107375518D01*
X70361928Y-107500000D01*
X66980000Y-107500000D01*
X66980000Y-107317322D01*
X66983676Y-107279999D01*
X66980000Y-107242676D01*
X66980000Y-107242667D01*
X66969003Y-107131014D01*
X66925546Y-106987753D01*
X66909666Y-106958044D01*
X66854974Y-106855723D01*
X66783799Y-106768997D01*
X66760001Y-106739999D01*
X66731003Y-106716201D01*
X65813804Y-105799002D01*
X65790001Y-105769999D01*
X65674276Y-105675026D01*
X65616770Y-105644288D01*
X65625812Y-105614482D01*
X65638072Y-105490000D01*
X65638072Y-105203176D01*
X65798061Y-105235000D01*
X66001939Y-105235000D01*
X66201898Y-105195226D01*
X66390256Y-105117205D01*
X66559774Y-105003937D01*
X66703937Y-104859774D01*
X66817205Y-104690256D01*
X66895226Y-104501898D01*
X66935000Y-104301939D01*
X66935000Y-104098061D01*
X66895226Y-103898102D01*
X66817205Y-103709744D01*
X66703937Y-103540226D01*
X66559774Y-103396063D01*
X66390256Y-103282795D01*
X66201898Y-103204774D01*
X66001939Y-103165000D01*
X65930799Y-103165000D01*
X65894276Y-103135026D01*
X65762247Y-103064454D01*
X65630729Y-103024559D01*
X65638072Y-102950000D01*
X65635000Y-102785750D01*
X65476250Y-102627000D01*
X64127000Y-102627000D01*
X64127000Y-102647000D01*
X63873000Y-102647000D01*
X63873000Y-102627000D01*
X62523750Y-102627000D01*
X62365000Y-102785750D01*
X62361928Y-102950000D01*
X62374188Y-103074482D01*
X62392546Y-103135000D01*
X62374188Y-103195518D01*
X62361928Y-103320000D01*
X62361928Y-104220000D01*
X62374188Y-104344482D01*
X62392546Y-104405000D01*
X62374188Y-104465518D01*
X62361928Y-104590000D01*
X62361928Y-104663270D01*
X61760199Y-105265000D01*
X61698061Y-105265000D01*
X61498102Y-105304774D01*
X61309744Y-105382795D01*
X61140226Y-105496063D01*
X61110011Y-105526278D01*
X61110011Y-103417677D01*
X61113687Y-103380355D01*
X61110011Y-103343032D01*
X61110011Y-103343022D01*
X61099014Y-103231369D01*
X61055557Y-103088108D01*
X61043205Y-103065000D01*
X60984985Y-102956078D01*
X60913810Y-102869352D01*
X60890012Y-102840354D01*
X60861014Y-102816556D01*
X59729458Y-101685000D01*
X62478085Y-101685000D01*
X62469463Y-101695506D01*
%TA.AperFunction,Conductor*%
D28*
G36*
X62469463Y-101695506D02*
G01*
X62410498Y-101805820D01*
X62374188Y-101925518D01*
X62361928Y-102050000D01*
X62365000Y-102214250D01*
X62523750Y-102373000D01*
X63873000Y-102373000D01*
X63873000Y-102353000D01*
X64127000Y-102353000D01*
X64127000Y-102373000D01*
X65476250Y-102373000D01*
X65635000Y-102214250D01*
X65638072Y-102050000D01*
X65625812Y-101925518D01*
X65589502Y-101805820D01*
X65530537Y-101695506D01*
X65521915Y-101685000D01*
X71856783Y-101685000D01*
X71840226Y-101696063D01*
X71696063Y-101840226D01*
X71582795Y-102009744D01*
X71504774Y-102198102D01*
X71465000Y-102398061D01*
X71465000Y-102589999D01*
X68987323Y-102589999D01*
X68950000Y-102586323D01*
X68912677Y-102589999D01*
X68912668Y-102589999D01*
X68801015Y-102600996D01*
X68657754Y-102644453D01*
X68525725Y-102715025D01*
X68525723Y-102715026D01*
X68525724Y-102715026D01*
X68438997Y-102786200D01*
X68438993Y-102786204D01*
X68410000Y-102809998D01*
X68386206Y-102838991D01*
X67626991Y-103598208D01*
X67597988Y-103622010D01*
X67553906Y-103675725D01*
X67503015Y-103737735D01*
X67446223Y-103843985D01*
X67432443Y-103869765D01*
X67388986Y-104013026D01*
X67377989Y-104124679D01*
X67377989Y-104124689D01*
X67374313Y-104162011D01*
X67377989Y-104199334D01*
X67377990Y-104996288D01*
X67334052Y-105040226D01*
X67220784Y-105209744D01*
X67142763Y-105398102D01*
X67102989Y-105598061D01*
X67102989Y-105801939D01*
X67142763Y-106001898D01*
X67220784Y-106190256D01*
X67334052Y-106359774D01*
X67478215Y-106503937D01*
X67647733Y-106617205D01*
X67836091Y-106695226D01*
X68036050Y-106735000D01*
X68239928Y-106735000D01*
X68439887Y-106695226D01*
X68628245Y-106617205D01*
X68797763Y-106503937D01*
X68941926Y-106359774D01*
X69023768Y-106237288D01*
X69036815Y-106253185D01*
X69133506Y-106332537D01*
X69243820Y-106391502D01*
X69363518Y-106427812D01*
X69488000Y-106440072D01*
X69964250Y-106437000D01*
X70123000Y-106278250D01*
X70123000Y-105167000D01*
X70377000Y-105167000D01*
X70377000Y-106278250D01*
X70535750Y-106437000D01*
X71012000Y-106440072D01*
X71136482Y-106427812D01*
X71256180Y-106391502D01*
X71366494Y-106332537D01*
X71463185Y-106253185D01*
X71542537Y-106156494D01*
X71601502Y-106046180D01*
X71637812Y-105926482D01*
X71650072Y-105802000D01*
X71647000Y-105325750D01*
X71488250Y-105167000D01*
X70377000Y-105167000D01*
X70123000Y-105167000D01*
X70103000Y-105167000D01*
X70103000Y-104913000D01*
X70123000Y-104913000D01*
X70123000Y-104893000D01*
X70377000Y-104893000D01*
X70377000Y-104913000D01*
X71488250Y-104913000D01*
X71647000Y-104754250D01*
X71650072Y-104278000D01*
X71637812Y-104153518D01*
X71624611Y-104109999D01*
X73862679Y-104109999D01*
X73900001Y-104113675D01*
X73937323Y-104109999D01*
X73937334Y-104109999D01*
X74048987Y-104099002D01*
X74192248Y-104055545D01*
X74324277Y-103984973D01*
X74440002Y-103890000D01*
X74463804Y-103860997D01*
X74789801Y-103535000D01*
X74851939Y-103535000D01*
X75051898Y-103495226D01*
X75240256Y-103417205D01*
X75409774Y-103303937D01*
X75553937Y-103159774D01*
X75667205Y-102990256D01*
X75745226Y-102801898D01*
X75785000Y-102601939D01*
X75785000Y-102398061D01*
X75745226Y-102198102D01*
X75719092Y-102135010D01*
X79363518Y-102135010D01*
X79365000Y-102214250D01*
X79523750Y-102373000D01*
X80873000Y-102373000D01*
X80873000Y-102353000D01*
X81127000Y-102353000D01*
X81127000Y-102373000D01*
X81147000Y-102373000D01*
X81147000Y-102627000D01*
X81127000Y-102627000D01*
X81127000Y-102647000D01*
X80873000Y-102647000D01*
X80873000Y-102627000D01*
X79523750Y-102627000D01*
X79365000Y-102785750D01*
X79361928Y-102950000D01*
X79374188Y-103074482D01*
X79392546Y-103135000D01*
X79374188Y-103195518D01*
X79361928Y-103320000D01*
X79361928Y-104220000D01*
X79368364Y-104285348D01*
X79311014Y-104290997D01*
X79167753Y-104334454D01*
X79035724Y-104405026D01*
X79009540Y-104426515D01*
X79010007Y-104424167D01*
X79010007Y-104220289D01*
X78970233Y-104020330D01*
X78892212Y-103831972D01*
X78778944Y-103662454D01*
X78634781Y-103518291D01*
X78465263Y-103405023D01*
X78276905Y-103327002D01*
X78076946Y-103287228D01*
X77873068Y-103287228D01*
X77687792Y-103324081D01*
X77659774Y-103296063D01*
X77490256Y-103182795D01*
X77301898Y-103104774D01*
X77101939Y-103065000D01*
X76898061Y-103065000D01*
X76698102Y-103104774D01*
X76509744Y-103182795D01*
X76340226Y-103296063D01*
X76196063Y-103440226D01*
X76082795Y-103609744D01*
X76004774Y-103798102D01*
X75965000Y-103998061D01*
X75965000Y-104201939D01*
X76004774Y-104401898D01*
X76082795Y-104590256D01*
X76196063Y-104759774D01*
X76340226Y-104903937D01*
X76509744Y-105017205D01*
X76565498Y-105040299D01*
X76740000Y-105214801D01*
X76740001Y-106762668D01*
X76736324Y-106800000D01*
X76740001Y-106837333D01*
X76750998Y-106948986D01*
X76754339Y-106959999D01*
X76794454Y-107092246D01*
X76865026Y-107224276D01*
X76917121Y-107287753D01*
X76960000Y-107340001D01*
X76988998Y-107363799D01*
X77640000Y-108014802D01*
X77640001Y-110985197D01*
X76637361Y-111987837D01*
X76635000Y-110285750D01*
X76476250Y-110127000D01*
X73627000Y-110127000D01*
X73627000Y-112976250D01*
X73785750Y-113135000D01*
X75487837Y-113137361D01*
X74185199Y-114440000D01*
X73453254Y-114440000D01*
X73477474Y-114318238D01*
X73477474Y-114114360D01*
X73437700Y-113914401D01*
X73359679Y-113726043D01*
X73246411Y-113556525D01*
X73102248Y-113412362D01*
X72932730Y-113299094D01*
X72744372Y-113221073D01*
X72544413Y-113181299D01*
X72482277Y-113181299D01*
X72437056Y-113136078D01*
X73214250Y-113135000D01*
X73373000Y-112976250D01*
X73373000Y-110127000D01*
X70523750Y-110127000D01*
X70365000Y-110285750D01*
X70361960Y-112476912D01*
X70051714Y-112476912D01*
X66980000Y-109405199D01*
X66980000Y-107500000D01*
X70361928Y-107500000D01*
X70365000Y-109714250D01*
X70523750Y-109873000D01*
X73373000Y-109873000D01*
X73373000Y-109853000D01*
X73627000Y-109853000D01*
X73627000Y-109873000D01*
X76476250Y-109873000D01*
X76635000Y-109714250D01*
X76638072Y-107500000D01*
X76625812Y-107375518D01*
X76589502Y-107255820D01*
X76530537Y-107145506D01*
X76451185Y-107048815D01*
X76354494Y-106969463D01*
X76244180Y-106910498D01*
X76149660Y-106881826D01*
X76150072Y-106818000D01*
X76137812Y-106693518D01*
X76101502Y-106573820D01*
X76042537Y-106463506D01*
X75963185Y-106366815D01*
X75866494Y-106287463D01*
X75756180Y-106228498D01*
X75636482Y-106192188D01*
X75512000Y-106179928D01*
X75035750Y-106183000D01*
X74877000Y-106341750D01*
X74877000Y-106863486D01*
X74623000Y-106863838D01*
X74623000Y-106341750D01*
X74464250Y-106183000D01*
X73988000Y-106179928D01*
X73863518Y-106192188D01*
X73743820Y-106228498D01*
X73633506Y-106287463D01*
X73536815Y-106366815D01*
X73457463Y-106463506D01*
X73398498Y-106573820D01*
X73362188Y-106693518D01*
X73349928Y-106818000D01*
X73351114Y-107001864D01*
X73214250Y-106865000D01*
X71000000Y-106861928D01*
X70875518Y-106874188D01*
X70755820Y-106910498D01*
X70645506Y-106969463D01*
X70548815Y-107048815D01*
X70469463Y-107145506D01*
X70410498Y-107255820D01*
X70374188Y-107375518D01*
X70361928Y-107500000D01*
X66980000Y-107500000D01*
X66980000Y-107317322D01*
X66983676Y-107279999D01*
X66980000Y-107242676D01*
X66980000Y-107242667D01*
X66969003Y-107131014D01*
X66925546Y-106987753D01*
X66909666Y-106958044D01*
X66854974Y-106855723D01*
X66783799Y-106768997D01*
X66760001Y-106739999D01*
X66731003Y-106716201D01*
X65813804Y-105799002D01*
X65790001Y-105769999D01*
X65674276Y-105675026D01*
X65616770Y-105644288D01*
X65625812Y-105614482D01*
X65638072Y-105490000D01*
X65638072Y-105203176D01*
X65798061Y-105235000D01*
X66001939Y-105235000D01*
X66201898Y-105195226D01*
X66390256Y-105117205D01*
X66559774Y-105003937D01*
X66703937Y-104859774D01*
X66817205Y-104690256D01*
X66895226Y-104501898D01*
X66935000Y-104301939D01*
X66935000Y-104098061D01*
X66895226Y-103898102D01*
X66817205Y-103709744D01*
X66703937Y-103540226D01*
X66559774Y-103396063D01*
X66390256Y-103282795D01*
X66201898Y-103204774D01*
X66001939Y-103165000D01*
X65930799Y-103165000D01*
X65894276Y-103135026D01*
X65762247Y-103064454D01*
X65630729Y-103024559D01*
X65638072Y-102950000D01*
X65635000Y-102785750D01*
X65476250Y-102627000D01*
X64127000Y-102627000D01*
X64127000Y-102647000D01*
X63873000Y-102647000D01*
X63873000Y-102627000D01*
X62523750Y-102627000D01*
X62365000Y-102785750D01*
X62361928Y-102950000D01*
X62374188Y-103074482D01*
X62392546Y-103135000D01*
X62374188Y-103195518D01*
X62361928Y-103320000D01*
X62361928Y-104220000D01*
X62374188Y-104344482D01*
X62392546Y-104405000D01*
X62374188Y-104465518D01*
X62361928Y-104590000D01*
X62361928Y-104663270D01*
X61760199Y-105265000D01*
X61698061Y-105265000D01*
X61498102Y-105304774D01*
X61309744Y-105382795D01*
X61140226Y-105496063D01*
X61110011Y-105526278D01*
X61110011Y-103417677D01*
X61113687Y-103380355D01*
X61110011Y-103343032D01*
X61110011Y-103343022D01*
X61099014Y-103231369D01*
X61055557Y-103088108D01*
X61043205Y-103065000D01*
X60984985Y-102956078D01*
X60913810Y-102869352D01*
X60890012Y-102840354D01*
X60861014Y-102816556D01*
X59729458Y-101685000D01*
X62478085Y-101685000D01*
X62469463Y-101695506D01*
G37*
%TD.AperFunction*%
D27*
X81127000Y-106183000D02*
X81147000Y-106183000D01*
X81147000Y-106437000D01*
X81127000Y-106437000D01*
X81127000Y-107453000D01*
X81147000Y-107453000D01*
X81147000Y-107707000D01*
X81127000Y-107707000D01*
X81127000Y-107727000D01*
X80873000Y-107727000D01*
X80873000Y-107707000D01*
X80853000Y-107707000D01*
X80853000Y-107453000D01*
X80873000Y-107453000D01*
X80873000Y-106437000D01*
X80853000Y-106437000D01*
X80853000Y-106183000D01*
X80873000Y-106183000D01*
X80873000Y-106163000D01*
X81127000Y-106163000D01*
X81127000Y-106183000D01*
%TA.AperFunction,Conductor*%
D28*
G36*
X81127000Y-106183000D02*
G01*
X81147000Y-106183000D01*
X81147000Y-106437000D01*
X81127000Y-106437000D01*
X81127000Y-107453000D01*
X81147000Y-107453000D01*
X81147000Y-107707000D01*
X81127000Y-107707000D01*
X81127000Y-107727000D01*
X80873000Y-107727000D01*
X80873000Y-107707000D01*
X80853000Y-107707000D01*
X80853000Y-107453000D01*
X80873000Y-107453000D01*
X80873000Y-106437000D01*
X80853000Y-106437000D01*
X80853000Y-106183000D01*
X80873000Y-106183000D01*
X80873000Y-106163000D01*
X81127000Y-106163000D01*
X81127000Y-106183000D01*
G37*
%TD.AperFunction*%
D27*
X79523748Y-106182998D02*
X79394210Y-106182998D01*
X79393007Y-106181795D01*
X79457776Y-106117026D01*
X79523748Y-106182998D01*
%TA.AperFunction,Conductor*%
D28*
G36*
X79523748Y-106182998D02*
G01*
X79394210Y-106182998D01*
X79393007Y-106181795D01*
X79457776Y-106117026D01*
X79523748Y-106182998D01*
G37*
%TD.AperFunction*%
%TD*%
M02*
