%TF.GenerationSoftware,KiCad,Pcbnew,(5.1.9-0-10_14)*%
%TF.CreationDate,2021-04-23T16:54:36+01:00*%
%TF.ProjectId,Controller,436f6e74-726f-46c6-9c65-722e6b696361,6*%
%TF.SameCoordinates,Original*%
%TF.FileFunction,Legend,Bot*%
%TF.FilePolarity,Positive*%
%FSLAX46Y46*%
G04 Gerber Fmt 4.6, Leading zero omitted, Abs format (unit mm)*
G04 Created by KiCad (PCBNEW (5.1.9-0-10_14)) date 2021-04-23 16:54:36*
%MOMM*%
%LPD*%
G01*
G04 APERTURE LIST*
%ADD10C,0.120000*%
%ADD11C,0.150000*%
G04 APERTURE END LIST*
D10*
%TO.C,R12*%
X52522936Y-118410000D02*
X53977064Y-118410000D01*
X52522936Y-116590000D02*
X53977064Y-116590000D01*
%TO.C,R11*%
X52522936Y-115910000D02*
X53977064Y-115910000D01*
X52522936Y-114090000D02*
X53977064Y-114090000D01*
%TO.C,R10*%
X52522936Y-113410000D02*
X53977064Y-113410000D01*
X52522936Y-111590000D02*
X53977064Y-111590000D01*
%TO.C,R9*%
X52522936Y-110910000D02*
X53977064Y-110910000D01*
X52522936Y-109090000D02*
X53977064Y-109090000D01*
%TO.C,R8*%
X52522936Y-108410000D02*
X53977064Y-108410000D01*
X52522936Y-106590000D02*
X53977064Y-106590000D01*
%TO.C,R7*%
X52522936Y-105910000D02*
X53977064Y-105910000D01*
X52522936Y-104090000D02*
X53977064Y-104090000D01*
%TO.C,R2*%
X52522936Y-103410000D02*
X53977064Y-103410000D01*
X52522936Y-101590000D02*
X53977064Y-101590000D01*
%TO.C,R1*%
X52522936Y-100910000D02*
X53977064Y-100910000D01*
X52522936Y-99090000D02*
X53977064Y-99090000D01*
%TO.C,U1*%
X81620000Y-119855000D02*
X81620000Y-120635000D01*
X81620000Y-120635000D02*
X80620000Y-120635000D01*
X63380000Y-119855000D02*
X63380000Y-120635000D01*
X63380000Y-120635000D02*
X64380000Y-120635000D01*
X81620000Y-94890000D02*
X63380000Y-94890000D01*
X63380000Y-94890000D02*
X63380000Y-101310000D01*
X81620000Y-94890000D02*
X81620000Y-101310000D01*
X81620000Y-101310000D02*
X82000000Y-101310000D01*
%TO.C,R14*%
X93027064Y-110840000D02*
X91572936Y-110840000D01*
X93027064Y-112660000D02*
X91572936Y-112660000D01*
%TO.C,R13*%
X91572936Y-115160000D02*
X93027064Y-115160000D01*
X91572936Y-113340000D02*
X93027064Y-113340000D01*
%TO.C,R6*%
X80227064Y-124940000D02*
X78772936Y-124940000D01*
X80227064Y-126760000D02*
X78772936Y-126760000D01*
%TO.C,R5*%
X71727064Y-124940000D02*
X70272936Y-124940000D01*
X71727064Y-126760000D02*
X70272936Y-126760000D01*
%TO.C,R4*%
X63227064Y-124940000D02*
X61772936Y-124940000D01*
X63227064Y-126760000D02*
X61772936Y-126760000D01*
%TO.C,R3*%
X54727064Y-124940000D02*
X53272936Y-124940000D01*
X54727064Y-126760000D02*
X53272936Y-126760000D01*
%TO.C,R12*%
D11*
X53842857Y-117952380D02*
X54176190Y-117476190D01*
X54414285Y-117952380D02*
X54414285Y-116952380D01*
X54033333Y-116952380D01*
X53938095Y-117000000D01*
X53890476Y-117047619D01*
X53842857Y-117142857D01*
X53842857Y-117285714D01*
X53890476Y-117380952D01*
X53938095Y-117428571D01*
X54033333Y-117476190D01*
X54414285Y-117476190D01*
X52890476Y-117952380D02*
X53461904Y-117952380D01*
X53176190Y-117952380D02*
X53176190Y-116952380D01*
X53271428Y-117095238D01*
X53366666Y-117190476D01*
X53461904Y-117238095D01*
X52509523Y-117047619D02*
X52461904Y-117000000D01*
X52366666Y-116952380D01*
X52128571Y-116952380D01*
X52033333Y-117000000D01*
X51985714Y-117047619D01*
X51938095Y-117142857D01*
X51938095Y-117238095D01*
X51985714Y-117380952D01*
X52557142Y-117952380D01*
X51938095Y-117952380D01*
%TO.C,R11*%
X53842857Y-115452380D02*
X54176190Y-114976190D01*
X54414285Y-115452380D02*
X54414285Y-114452380D01*
X54033333Y-114452380D01*
X53938095Y-114500000D01*
X53890476Y-114547619D01*
X53842857Y-114642857D01*
X53842857Y-114785714D01*
X53890476Y-114880952D01*
X53938095Y-114928571D01*
X54033333Y-114976190D01*
X54414285Y-114976190D01*
X52890476Y-115452380D02*
X53461904Y-115452380D01*
X53176190Y-115452380D02*
X53176190Y-114452380D01*
X53271428Y-114595238D01*
X53366666Y-114690476D01*
X53461904Y-114738095D01*
X51938095Y-115452380D02*
X52509523Y-115452380D01*
X52223809Y-115452380D02*
X52223809Y-114452380D01*
X52319047Y-114595238D01*
X52414285Y-114690476D01*
X52509523Y-114738095D01*
%TO.C,R10*%
X53942857Y-112952380D02*
X54276190Y-112476190D01*
X54514285Y-112952380D02*
X54514285Y-111952380D01*
X54133333Y-111952380D01*
X54038095Y-112000000D01*
X53990476Y-112047619D01*
X53942857Y-112142857D01*
X53942857Y-112285714D01*
X53990476Y-112380952D01*
X54038095Y-112428571D01*
X54133333Y-112476190D01*
X54514285Y-112476190D01*
X52990476Y-112952380D02*
X53561904Y-112952380D01*
X53276190Y-112952380D02*
X53276190Y-111952380D01*
X53371428Y-112095238D01*
X53466666Y-112190476D01*
X53561904Y-112238095D01*
X52371428Y-111952380D02*
X52276190Y-111952380D01*
X52180952Y-112000000D01*
X52133333Y-112047619D01*
X52085714Y-112142857D01*
X52038095Y-112333333D01*
X52038095Y-112571428D01*
X52085714Y-112761904D01*
X52133333Y-112857142D01*
X52180952Y-112904761D01*
X52276190Y-112952380D01*
X52371428Y-112952380D01*
X52466666Y-112904761D01*
X52514285Y-112857142D01*
X52561904Y-112761904D01*
X52609523Y-112571428D01*
X52609523Y-112333333D01*
X52561904Y-112142857D01*
X52514285Y-112047619D01*
X52466666Y-112000000D01*
X52371428Y-111952380D01*
%TO.C,R9*%
X53416666Y-110452380D02*
X53750000Y-109976190D01*
X53988095Y-110452380D02*
X53988095Y-109452380D01*
X53607142Y-109452380D01*
X53511904Y-109500000D01*
X53464285Y-109547619D01*
X53416666Y-109642857D01*
X53416666Y-109785714D01*
X53464285Y-109880952D01*
X53511904Y-109928571D01*
X53607142Y-109976190D01*
X53988095Y-109976190D01*
X52940476Y-110452380D02*
X52750000Y-110452380D01*
X52654761Y-110404761D01*
X52607142Y-110357142D01*
X52511904Y-110214285D01*
X52464285Y-110023809D01*
X52464285Y-109642857D01*
X52511904Y-109547619D01*
X52559523Y-109500000D01*
X52654761Y-109452380D01*
X52845238Y-109452380D01*
X52940476Y-109500000D01*
X52988095Y-109547619D01*
X53035714Y-109642857D01*
X53035714Y-109880952D01*
X52988095Y-109976190D01*
X52940476Y-110023809D01*
X52845238Y-110071428D01*
X52654761Y-110071428D01*
X52559523Y-110023809D01*
X52511904Y-109976190D01*
X52464285Y-109880952D01*
%TO.C,R8*%
X53416666Y-107952380D02*
X53750000Y-107476190D01*
X53988095Y-107952380D02*
X53988095Y-106952380D01*
X53607142Y-106952380D01*
X53511904Y-107000000D01*
X53464285Y-107047619D01*
X53416666Y-107142857D01*
X53416666Y-107285714D01*
X53464285Y-107380952D01*
X53511904Y-107428571D01*
X53607142Y-107476190D01*
X53988095Y-107476190D01*
X52845238Y-107380952D02*
X52940476Y-107333333D01*
X52988095Y-107285714D01*
X53035714Y-107190476D01*
X53035714Y-107142857D01*
X52988095Y-107047619D01*
X52940476Y-107000000D01*
X52845238Y-106952380D01*
X52654761Y-106952380D01*
X52559523Y-107000000D01*
X52511904Y-107047619D01*
X52464285Y-107142857D01*
X52464285Y-107190476D01*
X52511904Y-107285714D01*
X52559523Y-107333333D01*
X52654761Y-107380952D01*
X52845238Y-107380952D01*
X52940476Y-107428571D01*
X52988095Y-107476190D01*
X53035714Y-107571428D01*
X53035714Y-107761904D01*
X52988095Y-107857142D01*
X52940476Y-107904761D01*
X52845238Y-107952380D01*
X52654761Y-107952380D01*
X52559523Y-107904761D01*
X52511904Y-107857142D01*
X52464285Y-107761904D01*
X52464285Y-107571428D01*
X52511904Y-107476190D01*
X52559523Y-107428571D01*
X52654761Y-107380952D01*
%TO.C,R7*%
X53416666Y-105452380D02*
X53750000Y-104976190D01*
X53988095Y-105452380D02*
X53988095Y-104452380D01*
X53607142Y-104452380D01*
X53511904Y-104500000D01*
X53464285Y-104547619D01*
X53416666Y-104642857D01*
X53416666Y-104785714D01*
X53464285Y-104880952D01*
X53511904Y-104928571D01*
X53607142Y-104976190D01*
X53988095Y-104976190D01*
X53083333Y-104452380D02*
X52416666Y-104452380D01*
X52845238Y-105452380D01*
%TO.C,R2*%
X53466666Y-102952380D02*
X53800000Y-102476190D01*
X54038095Y-102952380D02*
X54038095Y-101952380D01*
X53657142Y-101952380D01*
X53561904Y-102000000D01*
X53514285Y-102047619D01*
X53466666Y-102142857D01*
X53466666Y-102285714D01*
X53514285Y-102380952D01*
X53561904Y-102428571D01*
X53657142Y-102476190D01*
X54038095Y-102476190D01*
X53085714Y-102047619D02*
X53038095Y-102000000D01*
X52942857Y-101952380D01*
X52704761Y-101952380D01*
X52609523Y-102000000D01*
X52561904Y-102047619D01*
X52514285Y-102142857D01*
X52514285Y-102238095D01*
X52561904Y-102380952D01*
X53133333Y-102952380D01*
X52514285Y-102952380D01*
%TO.C,R1*%
X53466666Y-100452380D02*
X53800000Y-99976190D01*
X54038095Y-100452380D02*
X54038095Y-99452380D01*
X53657142Y-99452380D01*
X53561904Y-99500000D01*
X53514285Y-99547619D01*
X53466666Y-99642857D01*
X53466666Y-99785714D01*
X53514285Y-99880952D01*
X53561904Y-99928571D01*
X53657142Y-99976190D01*
X54038095Y-99976190D01*
X52514285Y-100452380D02*
X53085714Y-100452380D01*
X52800000Y-100452380D02*
X52800000Y-99452380D01*
X52895238Y-99595238D01*
X52990476Y-99690476D01*
X53085714Y-99738095D01*
%TO.C,U1*%
X82562380Y-118423095D02*
X83371904Y-118423095D01*
X83467142Y-118470714D01*
X83514761Y-118518333D01*
X83562380Y-118613571D01*
X83562380Y-118804047D01*
X83514761Y-118899285D01*
X83467142Y-118946904D01*
X83371904Y-118994523D01*
X82562380Y-118994523D01*
X83562380Y-119994523D02*
X83562380Y-119423095D01*
X83562380Y-119708809D02*
X82562380Y-119708809D01*
X82705238Y-119613571D01*
X82800476Y-119518333D01*
X82848095Y-119423095D01*
%TO.C,R14*%
X92992857Y-112302380D02*
X93326190Y-111826190D01*
X93564285Y-112302380D02*
X93564285Y-111302380D01*
X93183333Y-111302380D01*
X93088095Y-111350000D01*
X93040476Y-111397619D01*
X92992857Y-111492857D01*
X92992857Y-111635714D01*
X93040476Y-111730952D01*
X93088095Y-111778571D01*
X93183333Y-111826190D01*
X93564285Y-111826190D01*
X92040476Y-112302380D02*
X92611904Y-112302380D01*
X92326190Y-112302380D02*
X92326190Y-111302380D01*
X92421428Y-111445238D01*
X92516666Y-111540476D01*
X92611904Y-111588095D01*
X91183333Y-111635714D02*
X91183333Y-112302380D01*
X91421428Y-111254761D02*
X91659523Y-111969047D01*
X91040476Y-111969047D01*
%TO.C,R13*%
X93092857Y-114902380D02*
X93426190Y-114426190D01*
X93664285Y-114902380D02*
X93664285Y-113902380D01*
X93283333Y-113902380D01*
X93188095Y-113950000D01*
X93140476Y-113997619D01*
X93092857Y-114092857D01*
X93092857Y-114235714D01*
X93140476Y-114330952D01*
X93188095Y-114378571D01*
X93283333Y-114426190D01*
X93664285Y-114426190D01*
X92140476Y-114902380D02*
X92711904Y-114902380D01*
X92426190Y-114902380D02*
X92426190Y-113902380D01*
X92521428Y-114045238D01*
X92616666Y-114140476D01*
X92711904Y-114188095D01*
X91807142Y-113902380D02*
X91188095Y-113902380D01*
X91521428Y-114283333D01*
X91378571Y-114283333D01*
X91283333Y-114330952D01*
X91235714Y-114378571D01*
X91188095Y-114473809D01*
X91188095Y-114711904D01*
X91235714Y-114807142D01*
X91283333Y-114854761D01*
X91378571Y-114902380D01*
X91664285Y-114902380D01*
X91759523Y-114854761D01*
X91807142Y-114807142D01*
%TO.C,R6*%
X79666666Y-124482380D02*
X80000000Y-124006190D01*
X80238095Y-124482380D02*
X80238095Y-123482380D01*
X79857142Y-123482380D01*
X79761904Y-123530000D01*
X79714285Y-123577619D01*
X79666666Y-123672857D01*
X79666666Y-123815714D01*
X79714285Y-123910952D01*
X79761904Y-123958571D01*
X79857142Y-124006190D01*
X80238095Y-124006190D01*
X78809523Y-123482380D02*
X79000000Y-123482380D01*
X79095238Y-123530000D01*
X79142857Y-123577619D01*
X79238095Y-123720476D01*
X79285714Y-123910952D01*
X79285714Y-124291904D01*
X79238095Y-124387142D01*
X79190476Y-124434761D01*
X79095238Y-124482380D01*
X78904761Y-124482380D01*
X78809523Y-124434761D01*
X78761904Y-124387142D01*
X78714285Y-124291904D01*
X78714285Y-124053809D01*
X78761904Y-123958571D01*
X78809523Y-123910952D01*
X78904761Y-123863333D01*
X79095238Y-123863333D01*
X79190476Y-123910952D01*
X79238095Y-123958571D01*
X79285714Y-124053809D01*
%TO.C,R5*%
X71166666Y-124482380D02*
X71500000Y-124006190D01*
X71738095Y-124482380D02*
X71738095Y-123482380D01*
X71357142Y-123482380D01*
X71261904Y-123530000D01*
X71214285Y-123577619D01*
X71166666Y-123672857D01*
X71166666Y-123815714D01*
X71214285Y-123910952D01*
X71261904Y-123958571D01*
X71357142Y-124006190D01*
X71738095Y-124006190D01*
X70261904Y-123482380D02*
X70738095Y-123482380D01*
X70785714Y-123958571D01*
X70738095Y-123910952D01*
X70642857Y-123863333D01*
X70404761Y-123863333D01*
X70309523Y-123910952D01*
X70261904Y-123958571D01*
X70214285Y-124053809D01*
X70214285Y-124291904D01*
X70261904Y-124387142D01*
X70309523Y-124434761D01*
X70404761Y-124482380D01*
X70642857Y-124482380D01*
X70738095Y-124434761D01*
X70785714Y-124387142D01*
%TO.C,R4*%
X62666666Y-124482380D02*
X63000000Y-124006190D01*
X63238095Y-124482380D02*
X63238095Y-123482380D01*
X62857142Y-123482380D01*
X62761904Y-123530000D01*
X62714285Y-123577619D01*
X62666666Y-123672857D01*
X62666666Y-123815714D01*
X62714285Y-123910952D01*
X62761904Y-123958571D01*
X62857142Y-124006190D01*
X63238095Y-124006190D01*
X61809523Y-123815714D02*
X61809523Y-124482380D01*
X62047619Y-123434761D02*
X62285714Y-124149047D01*
X61666666Y-124149047D01*
%TO.C,R3*%
X54166666Y-124482380D02*
X54500000Y-124006190D01*
X54738095Y-124482380D02*
X54738095Y-123482380D01*
X54357142Y-123482380D01*
X54261904Y-123530000D01*
X54214285Y-123577619D01*
X54166666Y-123672857D01*
X54166666Y-123815714D01*
X54214285Y-123910952D01*
X54261904Y-123958571D01*
X54357142Y-124006190D01*
X54738095Y-124006190D01*
X53833333Y-123482380D02*
X53214285Y-123482380D01*
X53547619Y-123863333D01*
X53404761Y-123863333D01*
X53309523Y-123910952D01*
X53261904Y-123958571D01*
X53214285Y-124053809D01*
X53214285Y-124291904D01*
X53261904Y-124387142D01*
X53309523Y-124434761D01*
X53404761Y-124482380D01*
X53690476Y-124482380D01*
X53785714Y-124434761D01*
X53833333Y-124387142D01*
%TD*%
M02*
