%TF.GenerationSoftware,KiCad,Pcbnew,(5.1.9-0-10_14)*%
%TF.CreationDate,2021-04-30T08:45:58+01:00*%
%TF.ProjectId,Controller,436f6e74-726f-46c6-9c65-722e6b696361,6*%
%TF.SameCoordinates,Original*%
%TF.FileFunction,Paste,Bot*%
%TF.FilePolarity,Positive*%
%FSLAX46Y46*%
G04 Gerber Fmt 4.6, Leading zero omitted, Abs format (unit mm)*
G04 Created by KiCad (PCBNEW (5.1.9-0-10_14)) date 2021-04-30 08:45:58*
%MOMM*%
%LPD*%
G01*
G04 APERTURE LIST*
%ADD10R,2.000000X0.900000*%
%ADD11R,0.900000X2.000000*%
%ADD12R,5.000000X5.000000*%
G04 APERTURE END LIST*
D10*
%TO.C,U1*%
X64000000Y-102500000D03*
X64000000Y-103770000D03*
X64000000Y-105040000D03*
X64000000Y-106310000D03*
X64000000Y-107580000D03*
X64000000Y-108850000D03*
X64000000Y-110120000D03*
X64000000Y-111390000D03*
X64000000Y-112660000D03*
X64000000Y-113930000D03*
X64000000Y-115200000D03*
X64000000Y-116470000D03*
X64000000Y-117740000D03*
X64000000Y-119010000D03*
D11*
X66785000Y-120010000D03*
X68055000Y-120010000D03*
X69325000Y-120010000D03*
X70595000Y-120010000D03*
X71865000Y-120010000D03*
X73135000Y-120010000D03*
X74405000Y-120010000D03*
X75675000Y-120010000D03*
X76945000Y-120010000D03*
X78215000Y-120010000D03*
D10*
X81000000Y-119010000D03*
X81000000Y-117740000D03*
X81000000Y-116470000D03*
X81000000Y-115200000D03*
X81000000Y-113930000D03*
X81000000Y-112660000D03*
X81000000Y-111390000D03*
X81000000Y-110120000D03*
X81000000Y-108850000D03*
X81000000Y-107580000D03*
X81000000Y-106310000D03*
X81000000Y-105040000D03*
X81000000Y-103770000D03*
X81000000Y-102500000D03*
D12*
X73500000Y-110000000D03*
%TD*%
%TO.C,R16*%
G36*
G01*
X54150000Y-104625001D02*
X54150000Y-103374999D01*
G75*
G02*
X54399999Y-103125000I249999J0D01*
G01*
X55200001Y-103125000D01*
G75*
G02*
X55450000Y-103374999I0J-249999D01*
G01*
X55450000Y-104625001D01*
G75*
G02*
X55200001Y-104875000I-249999J0D01*
G01*
X54399999Y-104875000D01*
G75*
G02*
X54150000Y-104625001I0J249999D01*
G01*
G37*
G36*
G01*
X51050000Y-104625001D02*
X51050000Y-103374999D01*
G75*
G02*
X51299999Y-103125000I249999J0D01*
G01*
X52100001Y-103125000D01*
G75*
G02*
X52350000Y-103374999I0J-249999D01*
G01*
X52350000Y-104625001D01*
G75*
G02*
X52100001Y-104875000I-249999J0D01*
G01*
X51299999Y-104875000D01*
G75*
G02*
X51050000Y-104625001I0J249999D01*
G01*
G37*
%TD*%
%TO.C,R12*%
G36*
G01*
X54150000Y-124625001D02*
X54150000Y-123374999D01*
G75*
G02*
X54399999Y-123125000I249999J0D01*
G01*
X55200001Y-123125000D01*
G75*
G02*
X55450000Y-123374999I0J-249999D01*
G01*
X55450000Y-124625001D01*
G75*
G02*
X55200001Y-124875000I-249999J0D01*
G01*
X54399999Y-124875000D01*
G75*
G02*
X54150000Y-124625001I0J249999D01*
G01*
G37*
G36*
G01*
X51050000Y-124625001D02*
X51050000Y-123374999D01*
G75*
G02*
X51299999Y-123125000I249999J0D01*
G01*
X52100001Y-123125000D01*
G75*
G02*
X52350000Y-123374999I0J-249999D01*
G01*
X52350000Y-124625001D01*
G75*
G02*
X52100001Y-124875000I-249999J0D01*
G01*
X51299999Y-124875000D01*
G75*
G02*
X51050000Y-124625001I0J249999D01*
G01*
G37*
%TD*%
%TO.C,R11*%
G36*
G01*
X54150000Y-122125001D02*
X54150000Y-120874999D01*
G75*
G02*
X54399999Y-120625000I249999J0D01*
G01*
X55200001Y-120625000D01*
G75*
G02*
X55450000Y-120874999I0J-249999D01*
G01*
X55450000Y-122125001D01*
G75*
G02*
X55200001Y-122375000I-249999J0D01*
G01*
X54399999Y-122375000D01*
G75*
G02*
X54150000Y-122125001I0J249999D01*
G01*
G37*
G36*
G01*
X51050000Y-122125001D02*
X51050000Y-120874999D01*
G75*
G02*
X51299999Y-120625000I249999J0D01*
G01*
X52100001Y-120625000D01*
G75*
G02*
X52350000Y-120874999I0J-249999D01*
G01*
X52350000Y-122125001D01*
G75*
G02*
X52100001Y-122375000I-249999J0D01*
G01*
X51299999Y-122375000D01*
G75*
G02*
X51050000Y-122125001I0J249999D01*
G01*
G37*
%TD*%
%TO.C,R10*%
G36*
G01*
X54150000Y-119625001D02*
X54150000Y-118374999D01*
G75*
G02*
X54399999Y-118125000I249999J0D01*
G01*
X55200001Y-118125000D01*
G75*
G02*
X55450000Y-118374999I0J-249999D01*
G01*
X55450000Y-119625001D01*
G75*
G02*
X55200001Y-119875000I-249999J0D01*
G01*
X54399999Y-119875000D01*
G75*
G02*
X54150000Y-119625001I0J249999D01*
G01*
G37*
G36*
G01*
X51050000Y-119625001D02*
X51050000Y-118374999D01*
G75*
G02*
X51299999Y-118125000I249999J0D01*
G01*
X52100001Y-118125000D01*
G75*
G02*
X52350000Y-118374999I0J-249999D01*
G01*
X52350000Y-119625001D01*
G75*
G02*
X52100001Y-119875000I-249999J0D01*
G01*
X51299999Y-119875000D01*
G75*
G02*
X51050000Y-119625001I0J249999D01*
G01*
G37*
%TD*%
%TO.C,R9*%
G36*
G01*
X54150000Y-117125001D02*
X54150000Y-115874999D01*
G75*
G02*
X54399999Y-115625000I249999J0D01*
G01*
X55200001Y-115625000D01*
G75*
G02*
X55450000Y-115874999I0J-249999D01*
G01*
X55450000Y-117125001D01*
G75*
G02*
X55200001Y-117375000I-249999J0D01*
G01*
X54399999Y-117375000D01*
G75*
G02*
X54150000Y-117125001I0J249999D01*
G01*
G37*
G36*
G01*
X51050000Y-117125001D02*
X51050000Y-115874999D01*
G75*
G02*
X51299999Y-115625000I249999J0D01*
G01*
X52100001Y-115625000D01*
G75*
G02*
X52350000Y-115874999I0J-249999D01*
G01*
X52350000Y-117125001D01*
G75*
G02*
X52100001Y-117375000I-249999J0D01*
G01*
X51299999Y-117375000D01*
G75*
G02*
X51050000Y-117125001I0J249999D01*
G01*
G37*
%TD*%
%TO.C,R8*%
G36*
G01*
X54150000Y-114625001D02*
X54150000Y-113374999D01*
G75*
G02*
X54399999Y-113125000I249999J0D01*
G01*
X55200001Y-113125000D01*
G75*
G02*
X55450000Y-113374999I0J-249999D01*
G01*
X55450000Y-114625001D01*
G75*
G02*
X55200001Y-114875000I-249999J0D01*
G01*
X54399999Y-114875000D01*
G75*
G02*
X54150000Y-114625001I0J249999D01*
G01*
G37*
G36*
G01*
X51050000Y-114625001D02*
X51050000Y-113374999D01*
G75*
G02*
X51299999Y-113125000I249999J0D01*
G01*
X52100001Y-113125000D01*
G75*
G02*
X52350000Y-113374999I0J-249999D01*
G01*
X52350000Y-114625001D01*
G75*
G02*
X52100001Y-114875000I-249999J0D01*
G01*
X51299999Y-114875000D01*
G75*
G02*
X51050000Y-114625001I0J249999D01*
G01*
G37*
%TD*%
%TO.C,R7*%
G36*
G01*
X54150000Y-112125001D02*
X54150000Y-110874999D01*
G75*
G02*
X54399999Y-110625000I249999J0D01*
G01*
X55200001Y-110625000D01*
G75*
G02*
X55450000Y-110874999I0J-249999D01*
G01*
X55450000Y-112125001D01*
G75*
G02*
X55200001Y-112375000I-249999J0D01*
G01*
X54399999Y-112375000D01*
G75*
G02*
X54150000Y-112125001I0J249999D01*
G01*
G37*
G36*
G01*
X51050000Y-112125001D02*
X51050000Y-110874999D01*
G75*
G02*
X51299999Y-110625000I249999J0D01*
G01*
X52100001Y-110625000D01*
G75*
G02*
X52350000Y-110874999I0J-249999D01*
G01*
X52350000Y-112125001D01*
G75*
G02*
X52100001Y-112375000I-249999J0D01*
G01*
X51299999Y-112375000D01*
G75*
G02*
X51050000Y-112125001I0J249999D01*
G01*
G37*
%TD*%
%TO.C,R2*%
G36*
G01*
X54150000Y-109625001D02*
X54150000Y-108374999D01*
G75*
G02*
X54399999Y-108125000I249999J0D01*
G01*
X55200001Y-108125000D01*
G75*
G02*
X55450000Y-108374999I0J-249999D01*
G01*
X55450000Y-109625001D01*
G75*
G02*
X55200001Y-109875000I-249999J0D01*
G01*
X54399999Y-109875000D01*
G75*
G02*
X54150000Y-109625001I0J249999D01*
G01*
G37*
G36*
G01*
X51050000Y-109625001D02*
X51050000Y-108374999D01*
G75*
G02*
X51299999Y-108125000I249999J0D01*
G01*
X52100001Y-108125000D01*
G75*
G02*
X52350000Y-108374999I0J-249999D01*
G01*
X52350000Y-109625001D01*
G75*
G02*
X52100001Y-109875000I-249999J0D01*
G01*
X51299999Y-109875000D01*
G75*
G02*
X51050000Y-109625001I0J249999D01*
G01*
G37*
%TD*%
%TO.C,R1*%
G36*
G01*
X54150000Y-107125001D02*
X54150000Y-105874999D01*
G75*
G02*
X54399999Y-105625000I249999J0D01*
G01*
X55200001Y-105625000D01*
G75*
G02*
X55450000Y-105874999I0J-249999D01*
G01*
X55450000Y-107125001D01*
G75*
G02*
X55200001Y-107375000I-249999J0D01*
G01*
X54399999Y-107375000D01*
G75*
G02*
X54150000Y-107125001I0J249999D01*
G01*
G37*
G36*
G01*
X51050000Y-107125001D02*
X51050000Y-105874999D01*
G75*
G02*
X51299999Y-105625000I249999J0D01*
G01*
X52100001Y-105625000D01*
G75*
G02*
X52350000Y-105874999I0J-249999D01*
G01*
X52350000Y-107125001D01*
G75*
G02*
X52100001Y-107375000I-249999J0D01*
G01*
X51299999Y-107375000D01*
G75*
G02*
X51050000Y-107125001I0J249999D01*
G01*
G37*
%TD*%
%TO.C,R14*%
G36*
G01*
X91400000Y-111124999D02*
X91400000Y-112375001D01*
G75*
G02*
X91150001Y-112625000I-249999J0D01*
G01*
X90349999Y-112625000D01*
G75*
G02*
X90100000Y-112375001I0J249999D01*
G01*
X90100000Y-111124999D01*
G75*
G02*
X90349999Y-110875000I249999J0D01*
G01*
X91150001Y-110875000D01*
G75*
G02*
X91400000Y-111124999I0J-249999D01*
G01*
G37*
G36*
G01*
X94500000Y-111124999D02*
X94500000Y-112375001D01*
G75*
G02*
X94250001Y-112625000I-249999J0D01*
G01*
X93449999Y-112625000D01*
G75*
G02*
X93200000Y-112375001I0J249999D01*
G01*
X93200000Y-111124999D01*
G75*
G02*
X93449999Y-110875000I249999J0D01*
G01*
X94250001Y-110875000D01*
G75*
G02*
X94500000Y-111124999I0J-249999D01*
G01*
G37*
%TD*%
%TO.C,R13*%
G36*
G01*
X93200000Y-114875001D02*
X93200000Y-113624999D01*
G75*
G02*
X93449999Y-113375000I249999J0D01*
G01*
X94250001Y-113375000D01*
G75*
G02*
X94500000Y-113624999I0J-249999D01*
G01*
X94500000Y-114875001D01*
G75*
G02*
X94250001Y-115125000I-249999J0D01*
G01*
X93449999Y-115125000D01*
G75*
G02*
X93200000Y-114875001I0J249999D01*
G01*
G37*
G36*
G01*
X90100000Y-114875001D02*
X90100000Y-113624999D01*
G75*
G02*
X90349999Y-113375000I249999J0D01*
G01*
X91150001Y-113375000D01*
G75*
G02*
X91400000Y-113624999I0J-249999D01*
G01*
X91400000Y-114875001D01*
G75*
G02*
X91150001Y-115125000I-249999J0D01*
G01*
X90349999Y-115125000D01*
G75*
G02*
X90100000Y-114875001I0J249999D01*
G01*
G37*
%TD*%
%TO.C,R6*%
G36*
G01*
X80395001Y-128100000D02*
X79144999Y-128100000D01*
G75*
G02*
X78895000Y-127850001I0J249999D01*
G01*
X78895000Y-127049999D01*
G75*
G02*
X79144999Y-126800000I249999J0D01*
G01*
X80395001Y-126800000D01*
G75*
G02*
X80645000Y-127049999I0J-249999D01*
G01*
X80645000Y-127850001D01*
G75*
G02*
X80395001Y-128100000I-249999J0D01*
G01*
G37*
G36*
G01*
X80395001Y-131200000D02*
X79144999Y-131200000D01*
G75*
G02*
X78895000Y-130950001I0J249999D01*
G01*
X78895000Y-130149999D01*
G75*
G02*
X79144999Y-129900000I249999J0D01*
G01*
X80395001Y-129900000D01*
G75*
G02*
X80645000Y-130149999I0J-249999D01*
G01*
X80645000Y-130950001D01*
G75*
G02*
X80395001Y-131200000I-249999J0D01*
G01*
G37*
%TD*%
%TO.C,R5*%
G36*
G01*
X71895001Y-128100000D02*
X70644999Y-128100000D01*
G75*
G02*
X70395000Y-127850001I0J249999D01*
G01*
X70395000Y-127049999D01*
G75*
G02*
X70644999Y-126800000I249999J0D01*
G01*
X71895001Y-126800000D01*
G75*
G02*
X72145000Y-127049999I0J-249999D01*
G01*
X72145000Y-127850001D01*
G75*
G02*
X71895001Y-128100000I-249999J0D01*
G01*
G37*
G36*
G01*
X71895001Y-131200000D02*
X70644999Y-131200000D01*
G75*
G02*
X70395000Y-130950001I0J249999D01*
G01*
X70395000Y-130149999D01*
G75*
G02*
X70644999Y-129900000I249999J0D01*
G01*
X71895001Y-129900000D01*
G75*
G02*
X72145000Y-130149999I0J-249999D01*
G01*
X72145000Y-130950001D01*
G75*
G02*
X71895001Y-131200000I-249999J0D01*
G01*
G37*
%TD*%
%TO.C,R4*%
G36*
G01*
X63395001Y-128050000D02*
X62144999Y-128050000D01*
G75*
G02*
X61895000Y-127800001I0J249999D01*
G01*
X61895000Y-126999999D01*
G75*
G02*
X62144999Y-126750000I249999J0D01*
G01*
X63395001Y-126750000D01*
G75*
G02*
X63645000Y-126999999I0J-249999D01*
G01*
X63645000Y-127800001D01*
G75*
G02*
X63395001Y-128050000I-249999J0D01*
G01*
G37*
G36*
G01*
X63395001Y-131150000D02*
X62144999Y-131150000D01*
G75*
G02*
X61895000Y-130900001I0J249999D01*
G01*
X61895000Y-130099999D01*
G75*
G02*
X62144999Y-129850000I249999J0D01*
G01*
X63395001Y-129850000D01*
G75*
G02*
X63645000Y-130099999I0J-249999D01*
G01*
X63645000Y-130900001D01*
G75*
G02*
X63395001Y-131150000I-249999J0D01*
G01*
G37*
%TD*%
%TO.C,R3*%
G36*
G01*
X54895001Y-128100000D02*
X53644999Y-128100000D01*
G75*
G02*
X53395000Y-127850001I0J249999D01*
G01*
X53395000Y-127049999D01*
G75*
G02*
X53644999Y-126800000I249999J0D01*
G01*
X54895001Y-126800000D01*
G75*
G02*
X55145000Y-127049999I0J-249999D01*
G01*
X55145000Y-127850001D01*
G75*
G02*
X54895001Y-128100000I-249999J0D01*
G01*
G37*
G36*
G01*
X54895001Y-131200000D02*
X53644999Y-131200000D01*
G75*
G02*
X53395000Y-130950001I0J249999D01*
G01*
X53395000Y-130149999D01*
G75*
G02*
X53644999Y-129900000I249999J0D01*
G01*
X54895001Y-129900000D01*
G75*
G02*
X55145000Y-130149999I0J-249999D01*
G01*
X55145000Y-130950001D01*
G75*
G02*
X54895001Y-131200000I-249999J0D01*
G01*
G37*
%TD*%
M02*
