%TF.GenerationSoftware,KiCad,Pcbnew,(5.1.9-0-10_14)*%
%TF.CreationDate,2021-04-30T08:45:58+01:00*%
%TF.ProjectId,Controller,436f6e74-726f-46c6-9c65-722e6b696361,6*%
%TF.SameCoordinates,Original*%
%TF.FileFunction,Legend,Top*%
%TF.FilePolarity,Positive*%
%FSLAX46Y46*%
G04 Gerber Fmt 4.6, Leading zero omitted, Abs format (unit mm)*
G04 Created by KiCad (PCBNEW (5.1.9-0-10_14)) date 2021-04-30 08:45:58*
%MOMM*%
%LPD*%
G01*
G04 APERTURE LIST*
%ADD10C,0.120000*%
%ADD11C,0.150000*%
G04 APERTURE END LIST*
D10*
%TO.C,U6*%
X75365000Y-117710000D02*
X75365000Y-118435000D01*
X79585000Y-114215000D02*
X78860000Y-114215000D01*
X79585000Y-114940000D02*
X79585000Y-114215000D01*
X79585000Y-118435000D02*
X78860000Y-118435000D01*
X79585000Y-117710000D02*
X79585000Y-118435000D01*
X75365000Y-114215000D02*
X76090000Y-114215000D01*
X75365000Y-114940000D02*
X75365000Y-114215000D01*
%TO.C,D1*%
X52910000Y-99000000D02*
X52910000Y-96115000D01*
X52910000Y-96115000D02*
X51090000Y-96115000D01*
X51090000Y-96115000D02*
X51090000Y-99000000D01*
%TO.C,R15*%
X59790000Y-114877064D02*
X59790000Y-113422936D01*
X61610000Y-114877064D02*
X61610000Y-113422936D01*
%TO.C,Q1*%
X61960000Y-120480000D02*
X61960000Y-119550000D01*
X61960000Y-117320000D02*
X61960000Y-118250000D01*
X61960000Y-117320000D02*
X59800000Y-117320000D01*
X61960000Y-120480000D02*
X60500000Y-120480000D01*
%TO.C,M2*%
X73480000Y-101230000D02*
X86180000Y-101230000D01*
X86180000Y-101230000D02*
X86180000Y-111390000D01*
X86180000Y-111390000D02*
X73480000Y-111390000D01*
X73480000Y-111390000D02*
X73480000Y-101230000D01*
%TO.C,M1*%
X71520000Y-111390000D02*
X58820000Y-111390000D01*
X58820000Y-111390000D02*
X58820000Y-101230000D01*
X58820000Y-101230000D02*
X71520000Y-101230000D01*
X71520000Y-101230000D02*
X71520000Y-111390000D01*
%TO.C,J9*%
X95490000Y-117470000D02*
X88140000Y-117470000D01*
X88140000Y-117470000D02*
X88140000Y-108530000D01*
X88140000Y-108530000D02*
X95490000Y-108530000D01*
X95490000Y-117470000D02*
X95490000Y-108530000D01*
%TO.C,J2*%
X86290000Y-139860000D02*
X86290000Y-137450000D01*
X88700000Y-139860000D02*
X86290000Y-139860000D01*
X86590000Y-131940000D02*
X86590000Y-139560000D01*
X94710000Y-131940000D02*
X86590000Y-131940000D01*
X94710000Y-139560000D02*
X94710000Y-131940000D01*
X86590000Y-139560000D02*
X94710000Y-139560000D01*
%TO.C,J4*%
X86290000Y-107860000D02*
X86290000Y-105450000D01*
X88700000Y-107860000D02*
X86290000Y-107860000D01*
X86590000Y-94940000D02*
X86590000Y-107560000D01*
X94710000Y-94940000D02*
X86590000Y-94940000D01*
X94710000Y-107560000D02*
X94710000Y-94940000D01*
X86590000Y-107560000D02*
X94710000Y-107560000D01*
%TO.C,J3*%
X86290000Y-131360000D02*
X86290000Y-128950000D01*
X88700000Y-131360000D02*
X86290000Y-131360000D01*
X86590000Y-118440000D02*
X86590000Y-131060000D01*
X94710000Y-118440000D02*
X86590000Y-118440000D01*
X94710000Y-131060000D02*
X94710000Y-118440000D01*
X86590000Y-131060000D02*
X94710000Y-131060000D01*
%TO.C,J8*%
X75640000Y-131290000D02*
X78050000Y-131290000D01*
X75640000Y-133700000D02*
X75640000Y-131290000D01*
X83560000Y-131590000D02*
X75940000Y-131590000D01*
X83560000Y-139710000D02*
X83560000Y-131590000D01*
X75940000Y-139710000D02*
X83560000Y-139710000D01*
X75940000Y-131590000D02*
X75940000Y-139710000D01*
%TO.C,J7*%
X67140000Y-131290000D02*
X69550000Y-131290000D01*
X67140000Y-133700000D02*
X67140000Y-131290000D01*
X75060000Y-131590000D02*
X67440000Y-131590000D01*
X75060000Y-139710000D02*
X75060000Y-131590000D01*
X67440000Y-139710000D02*
X75060000Y-139710000D01*
X67440000Y-131590000D02*
X67440000Y-139710000D01*
%TO.C,J6*%
X58640000Y-131290000D02*
X61050000Y-131290000D01*
X58640000Y-133700000D02*
X58640000Y-131290000D01*
X66560000Y-131590000D02*
X58940000Y-131590000D01*
X66560000Y-139710000D02*
X66560000Y-131590000D01*
X58940000Y-139710000D02*
X66560000Y-139710000D01*
X58940000Y-131590000D02*
X58940000Y-139710000D01*
%TO.C,J5*%
X50140000Y-131290000D02*
X52550000Y-131290000D01*
X50140000Y-133700000D02*
X50140000Y-131290000D01*
X58060000Y-131590000D02*
X50440000Y-131590000D01*
X58060000Y-139710000D02*
X58060000Y-131590000D01*
X50440000Y-139710000D02*
X58060000Y-139710000D01*
X50440000Y-131590000D02*
X50440000Y-139710000D01*
%TO.C,J1*%
X58710000Y-101140000D02*
X58710000Y-103550000D01*
X56300000Y-101140000D02*
X58710000Y-101140000D01*
X58410000Y-126560000D02*
X58410000Y-101440000D01*
X50290000Y-126560000D02*
X58410000Y-126560000D01*
X50290000Y-101440000D02*
X50290000Y-126560000D01*
X58410000Y-101440000D02*
X50290000Y-101440000D01*
%TO.C,U5*%
D11*
X82238095Y-128452380D02*
X82238095Y-129261904D01*
X82285714Y-129357142D01*
X82333333Y-129404761D01*
X82428571Y-129452380D01*
X82619047Y-129452380D01*
X82714285Y-129404761D01*
X82761904Y-129357142D01*
X82809523Y-129261904D01*
X82809523Y-128452380D01*
X83761904Y-128452380D02*
X83285714Y-128452380D01*
X83238095Y-128928571D01*
X83285714Y-128880952D01*
X83380952Y-128833333D01*
X83619047Y-128833333D01*
X83714285Y-128880952D01*
X83761904Y-128928571D01*
X83809523Y-129023809D01*
X83809523Y-129261904D01*
X83761904Y-129357142D01*
X83714285Y-129404761D01*
X83619047Y-129452380D01*
X83380952Y-129452380D01*
X83285714Y-129404761D01*
X83238095Y-129357142D01*
%TO.C,U4*%
X73738095Y-128452380D02*
X73738095Y-129261904D01*
X73785714Y-129357142D01*
X73833333Y-129404761D01*
X73928571Y-129452380D01*
X74119047Y-129452380D01*
X74214285Y-129404761D01*
X74261904Y-129357142D01*
X74309523Y-129261904D01*
X74309523Y-128452380D01*
X75214285Y-128785714D02*
X75214285Y-129452380D01*
X74976190Y-128404761D02*
X74738095Y-129119047D01*
X75357142Y-129119047D01*
%TO.C,U3*%
X65238095Y-128452380D02*
X65238095Y-129261904D01*
X65285714Y-129357142D01*
X65333333Y-129404761D01*
X65428571Y-129452380D01*
X65619047Y-129452380D01*
X65714285Y-129404761D01*
X65761904Y-129357142D01*
X65809523Y-129261904D01*
X65809523Y-128452380D01*
X66190476Y-128452380D02*
X66809523Y-128452380D01*
X66476190Y-128833333D01*
X66619047Y-128833333D01*
X66714285Y-128880952D01*
X66761904Y-128928571D01*
X66809523Y-129023809D01*
X66809523Y-129261904D01*
X66761904Y-129357142D01*
X66714285Y-129404761D01*
X66619047Y-129452380D01*
X66333333Y-129452380D01*
X66238095Y-129404761D01*
X66190476Y-129357142D01*
%TO.C,U2*%
X56738095Y-128452380D02*
X56738095Y-129261904D01*
X56785714Y-129357142D01*
X56833333Y-129404761D01*
X56928571Y-129452380D01*
X57119047Y-129452380D01*
X57214285Y-129404761D01*
X57261904Y-129357142D01*
X57309523Y-129261904D01*
X57309523Y-128452380D01*
X57738095Y-128547619D02*
X57785714Y-128500000D01*
X57880952Y-128452380D01*
X58119047Y-128452380D01*
X58214285Y-128500000D01*
X58261904Y-128547619D01*
X58309523Y-128642857D01*
X58309523Y-128738095D01*
X58261904Y-128880952D01*
X57690476Y-129452380D01*
X58309523Y-129452380D01*
%TO.C,U6*%
X73627380Y-117086904D02*
X74436904Y-117086904D01*
X74532142Y-117039285D01*
X74579761Y-116991666D01*
X74627380Y-116896428D01*
X74627380Y-116705952D01*
X74579761Y-116610714D01*
X74532142Y-116563095D01*
X74436904Y-116515476D01*
X73627380Y-116515476D01*
X73627380Y-115610714D02*
X73627380Y-115801190D01*
X73675000Y-115896428D01*
X73722619Y-115944047D01*
X73865476Y-116039285D01*
X74055952Y-116086904D01*
X74436904Y-116086904D01*
X74532142Y-116039285D01*
X74579761Y-115991666D01*
X74627380Y-115896428D01*
X74627380Y-115705952D01*
X74579761Y-115610714D01*
X74532142Y-115563095D01*
X74436904Y-115515476D01*
X74198809Y-115515476D01*
X74103571Y-115563095D01*
X74055952Y-115610714D01*
X74008333Y-115705952D01*
X74008333Y-115896428D01*
X74055952Y-115991666D01*
X74103571Y-116039285D01*
X74198809Y-116086904D01*
%TO.C,D1*%
X54452380Y-98738095D02*
X53452380Y-98738095D01*
X53452380Y-98500000D01*
X53500000Y-98357142D01*
X53595238Y-98261904D01*
X53690476Y-98214285D01*
X53880952Y-98166666D01*
X54023809Y-98166666D01*
X54214285Y-98214285D01*
X54309523Y-98261904D01*
X54404761Y-98357142D01*
X54452380Y-98500000D01*
X54452380Y-98738095D01*
X54452380Y-97214285D02*
X54452380Y-97785714D01*
X54452380Y-97500000D02*
X53452380Y-97500000D01*
X53595238Y-97595238D01*
X53690476Y-97690476D01*
X53738095Y-97785714D01*
%TO.C,R15*%
X62952380Y-114742857D02*
X62476190Y-115076190D01*
X62952380Y-115314285D02*
X61952380Y-115314285D01*
X61952380Y-114933333D01*
X62000000Y-114838095D01*
X62047619Y-114790476D01*
X62142857Y-114742857D01*
X62285714Y-114742857D01*
X62380952Y-114790476D01*
X62428571Y-114838095D01*
X62476190Y-114933333D01*
X62476190Y-115314285D01*
X62952380Y-113790476D02*
X62952380Y-114361904D01*
X62952380Y-114076190D02*
X61952380Y-114076190D01*
X62095238Y-114171428D01*
X62190476Y-114266666D01*
X62238095Y-114361904D01*
X61952380Y-112885714D02*
X61952380Y-113361904D01*
X62428571Y-113409523D01*
X62380952Y-113361904D01*
X62333333Y-113266666D01*
X62333333Y-113028571D01*
X62380952Y-112933333D01*
X62428571Y-112885714D01*
X62523809Y-112838095D01*
X62761904Y-112838095D01*
X62857142Y-112885714D01*
X62904761Y-112933333D01*
X62952380Y-113028571D01*
X62952380Y-113266666D01*
X62904761Y-113361904D01*
X62857142Y-113409523D01*
%TO.C,Q1*%
X62904761Y-118147619D02*
X62809523Y-118100000D01*
X62714285Y-118004761D01*
X62571428Y-117861904D01*
X62476190Y-117814285D01*
X62380952Y-117814285D01*
X62428571Y-118052380D02*
X62333333Y-118004761D01*
X62238095Y-117909523D01*
X62190476Y-117719047D01*
X62190476Y-117385714D01*
X62238095Y-117195238D01*
X62333333Y-117100000D01*
X62428571Y-117052380D01*
X62619047Y-117052380D01*
X62714285Y-117100000D01*
X62809523Y-117195238D01*
X62857142Y-117385714D01*
X62857142Y-117719047D01*
X62809523Y-117909523D01*
X62714285Y-118004761D01*
X62619047Y-118052380D01*
X62428571Y-118052380D01*
X63809523Y-118052380D02*
X63238095Y-118052380D01*
X63523809Y-118052380D02*
X63523809Y-117052380D01*
X63428571Y-117195238D01*
X63333333Y-117290476D01*
X63238095Y-117338095D01*
%TO.C,M2*%
X79202380Y-106809523D02*
X78202380Y-106809523D01*
X78916666Y-106476190D01*
X78202380Y-106142857D01*
X79202380Y-106142857D01*
X78297619Y-105714285D02*
X78250000Y-105666666D01*
X78202380Y-105571428D01*
X78202380Y-105333333D01*
X78250000Y-105238095D01*
X78297619Y-105190476D01*
X78392857Y-105142857D01*
X78488095Y-105142857D01*
X78630952Y-105190476D01*
X79202380Y-105761904D01*
X79202380Y-105142857D01*
%TO.C,M1*%
X67202380Y-106809523D02*
X66202380Y-106809523D01*
X66916666Y-106476190D01*
X66202380Y-106142857D01*
X67202380Y-106142857D01*
X67202380Y-105142857D02*
X67202380Y-105714285D01*
X67202380Y-105428571D02*
X66202380Y-105428571D01*
X66345238Y-105523809D01*
X66440476Y-105619047D01*
X66488095Y-105714285D01*
%TO.C,J9*%
X91952380Y-113333333D02*
X92666666Y-113333333D01*
X92809523Y-113380952D01*
X92904761Y-113476190D01*
X92952380Y-113619047D01*
X92952380Y-113714285D01*
X92952380Y-112809523D02*
X92952380Y-112619047D01*
X92904761Y-112523809D01*
X92857142Y-112476190D01*
X92714285Y-112380952D01*
X92523809Y-112333333D01*
X92142857Y-112333333D01*
X92047619Y-112380952D01*
X92000000Y-112428571D01*
X91952380Y-112523809D01*
X91952380Y-112714285D01*
X92000000Y-112809523D01*
X92047619Y-112857142D01*
X92142857Y-112904761D01*
X92380952Y-112904761D01*
X92476190Y-112857142D01*
X92523809Y-112809523D01*
X92571428Y-112714285D01*
X92571428Y-112523809D01*
X92523809Y-112428571D01*
X92476190Y-112380952D01*
X92380952Y-112333333D01*
%TO.C,J2*%
X90252380Y-136083333D02*
X90966666Y-136083333D01*
X91109523Y-136130952D01*
X91204761Y-136226190D01*
X91252380Y-136369047D01*
X91252380Y-136464285D01*
X90347619Y-135654761D02*
X90300000Y-135607142D01*
X90252380Y-135511904D01*
X90252380Y-135273809D01*
X90300000Y-135178571D01*
X90347619Y-135130952D01*
X90442857Y-135083333D01*
X90538095Y-135083333D01*
X90680952Y-135130952D01*
X91252380Y-135702380D01*
X91252380Y-135083333D01*
%TO.C,J4*%
X91252380Y-101333333D02*
X91966666Y-101333333D01*
X92109523Y-101380952D01*
X92204761Y-101476190D01*
X92252380Y-101619047D01*
X92252380Y-101714285D01*
X91585714Y-100428571D02*
X92252380Y-100428571D01*
X91204761Y-100666666D02*
X91919047Y-100904761D01*
X91919047Y-100285714D01*
%TO.C,J3*%
X90252380Y-125083333D02*
X90966666Y-125083333D01*
X91109523Y-125130952D01*
X91204761Y-125226190D01*
X91252380Y-125369047D01*
X91252380Y-125464285D01*
X90252380Y-124702380D02*
X90252380Y-124083333D01*
X90633333Y-124416666D01*
X90633333Y-124273809D01*
X90680952Y-124178571D01*
X90728571Y-124130952D01*
X90823809Y-124083333D01*
X91061904Y-124083333D01*
X91157142Y-124130952D01*
X91204761Y-124178571D01*
X91252380Y-124273809D01*
X91252380Y-124559523D01*
X91204761Y-124654761D01*
X91157142Y-124702380D01*
%TO.C,J8*%
X79416666Y-135352380D02*
X79416666Y-136066666D01*
X79369047Y-136209523D01*
X79273809Y-136304761D01*
X79130952Y-136352380D01*
X79035714Y-136352380D01*
X80035714Y-135780952D02*
X79940476Y-135733333D01*
X79892857Y-135685714D01*
X79845238Y-135590476D01*
X79845238Y-135542857D01*
X79892857Y-135447619D01*
X79940476Y-135400000D01*
X80035714Y-135352380D01*
X80226190Y-135352380D01*
X80321428Y-135400000D01*
X80369047Y-135447619D01*
X80416666Y-135542857D01*
X80416666Y-135590476D01*
X80369047Y-135685714D01*
X80321428Y-135733333D01*
X80226190Y-135780952D01*
X80035714Y-135780952D01*
X79940476Y-135828571D01*
X79892857Y-135876190D01*
X79845238Y-135971428D01*
X79845238Y-136161904D01*
X79892857Y-136257142D01*
X79940476Y-136304761D01*
X80035714Y-136352380D01*
X80226190Y-136352380D01*
X80321428Y-136304761D01*
X80369047Y-136257142D01*
X80416666Y-136161904D01*
X80416666Y-135971428D01*
X80369047Y-135876190D01*
X80321428Y-135828571D01*
X80226190Y-135780952D01*
%TO.C,J7*%
X71066666Y-135352380D02*
X71066666Y-136066666D01*
X71019047Y-136209523D01*
X70923809Y-136304761D01*
X70780952Y-136352380D01*
X70685714Y-136352380D01*
X71447619Y-135352380D02*
X72114285Y-135352380D01*
X71685714Y-136352380D01*
%TO.C,J6*%
X62566666Y-135352380D02*
X62566666Y-136066666D01*
X62519047Y-136209523D01*
X62423809Y-136304761D01*
X62280952Y-136352380D01*
X62185714Y-136352380D01*
X63471428Y-135352380D02*
X63280952Y-135352380D01*
X63185714Y-135400000D01*
X63138095Y-135447619D01*
X63042857Y-135590476D01*
X62995238Y-135780952D01*
X62995238Y-136161904D01*
X63042857Y-136257142D01*
X63090476Y-136304761D01*
X63185714Y-136352380D01*
X63376190Y-136352380D01*
X63471428Y-136304761D01*
X63519047Y-136257142D01*
X63566666Y-136161904D01*
X63566666Y-135923809D01*
X63519047Y-135828571D01*
X63471428Y-135780952D01*
X63376190Y-135733333D01*
X63185714Y-135733333D01*
X63090476Y-135780952D01*
X63042857Y-135828571D01*
X62995238Y-135923809D01*
%TO.C,J5*%
X53916666Y-135352380D02*
X53916666Y-136066666D01*
X53869047Y-136209523D01*
X53773809Y-136304761D01*
X53630952Y-136352380D01*
X53535714Y-136352380D01*
X54869047Y-135352380D02*
X54392857Y-135352380D01*
X54345238Y-135828571D01*
X54392857Y-135780952D01*
X54488095Y-135733333D01*
X54726190Y-135733333D01*
X54821428Y-135780952D01*
X54869047Y-135828571D01*
X54916666Y-135923809D01*
X54916666Y-136161904D01*
X54869047Y-136257142D01*
X54821428Y-136304761D01*
X54726190Y-136352380D01*
X54488095Y-136352380D01*
X54392857Y-136304761D01*
X54345238Y-136257142D01*
%TO.C,J1*%
X52452380Y-114433333D02*
X53166666Y-114433333D01*
X53309523Y-114480952D01*
X53404761Y-114576190D01*
X53452380Y-114719047D01*
X53452380Y-114814285D01*
X53452380Y-113433333D02*
X53452380Y-114004761D01*
X53452380Y-113719047D02*
X52452380Y-113719047D01*
X52595238Y-113814285D01*
X52690476Y-113909523D01*
X52738095Y-114004761D01*
%TD*%
M02*
