%TF.GenerationSoftware,KiCad,Pcbnew,(5.1.9-0-10_14)*%
%TF.CreationDate,2021-04-21T10:30:55+01:00*%
%TF.ProjectId,Controller,436f6e74-726f-46c6-9c65-722e6b696361,rev?*%
%TF.SameCoordinates,Original*%
%TF.FileFunction,Soldermask,Top*%
%TF.FilePolarity,Negative*%
%FSLAX46Y46*%
G04 Gerber Fmt 4.6, Leading zero omitted, Abs format (unit mm)*
G04 Created by KiCad (PCBNEW (5.1.9-0-10_14)) date 2021-04-21 10:30:55*
%MOMM*%
%LPD*%
G01*
G04 APERTURE LIST*
%ADD10O,1.600000X1.600000*%
%ADD11R,1.600000X1.600000*%
%ADD12R,0.900000X0.800000*%
%ADD13C,1.524000*%
%ADD14R,2.100000X2.100000*%
%ADD15R,1.000000X0.300000*%
%ADD16R,0.300000X1.000000*%
%ADD17C,1.700000*%
%ADD18R,1.524000X1.524000*%
%ADD19R,1.140000X0.600000*%
%ADD20C,2.000000*%
%ADD21R,1.140000X0.300000*%
%ADD22C,0.600000*%
%ADD23O,1.850000X1.700000*%
%ADD24O,1.700000X1.850000*%
G04 APERTURE END LIST*
D10*
%TO.C,U5*%
X82250000Y-130100000D03*
X77170000Y-122480000D03*
X79710000Y-122480000D03*
X77170000Y-130100000D03*
D11*
X82250000Y-122480000D03*
%TD*%
%TO.C,R15*%
G36*
G01*
X61325001Y-113250000D02*
X60074999Y-113250000D01*
G75*
G02*
X59825000Y-113000001I0J249999D01*
G01*
X59825000Y-112199999D01*
G75*
G02*
X60074999Y-111950000I249999J0D01*
G01*
X61325001Y-111950000D01*
G75*
G02*
X61575000Y-112199999I0J-249999D01*
G01*
X61575000Y-113000001D01*
G75*
G02*
X61325001Y-113250000I-249999J0D01*
G01*
G37*
G36*
G01*
X61325001Y-116350000D02*
X60074999Y-116350000D01*
G75*
G02*
X59825000Y-116100001I0J249999D01*
G01*
X59825000Y-115299999D01*
G75*
G02*
X60074999Y-115050000I249999J0D01*
G01*
X61325001Y-115050000D01*
G75*
G02*
X61575000Y-115299999I0J-249999D01*
G01*
X61575000Y-116100001D01*
G75*
G02*
X61325001Y-116350000I-249999J0D01*
G01*
G37*
%TD*%
D12*
%TO.C,Q1*%
X62200000Y-118900000D03*
X60200000Y-119850000D03*
X60200000Y-117950000D03*
%TD*%
D13*
%TO.C,U6*%
X79000000Y-115000000D03*
D14*
X79000000Y-115000000D03*
D15*
X76950000Y-115975000D03*
X76950000Y-115325000D03*
X76950000Y-114675000D03*
X76950000Y-114025000D03*
D16*
X78025000Y-112950000D03*
X78675000Y-112950000D03*
X79325000Y-112950000D03*
X79975000Y-112950000D03*
D15*
X81050000Y-114025000D03*
X81050000Y-114675000D03*
X81050000Y-115325000D03*
X81050000Y-115975000D03*
D16*
X79975000Y-117050000D03*
X79325000Y-117050000D03*
X78675000Y-117050000D03*
X78025000Y-117050000D03*
%TD*%
D17*
%TO.C,M2*%
X74750000Y-102500000D03*
X74750000Y-110120000D03*
D18*
X74750000Y-107580000D03*
D17*
X74750000Y-105040000D03*
%TD*%
%TO.C,M1*%
X70250000Y-110120000D03*
X70250000Y-102500000D03*
D18*
X70250000Y-105040000D03*
D17*
X70250000Y-107580000D03*
%TD*%
D19*
%TO.C,J9*%
X88140000Y-109800000D03*
X88140000Y-115400000D03*
X88140000Y-116200000D03*
X88140000Y-110600000D03*
D17*
X92910000Y-108675000D03*
X92910000Y-117325000D03*
D20*
X88730000Y-108675000D03*
X88730000Y-117325000D03*
D21*
X88140000Y-112750000D03*
X88140000Y-113250000D03*
X88140000Y-112250000D03*
X88140000Y-113750000D03*
X88140000Y-111750000D03*
X88140000Y-114250000D03*
X88140000Y-111250000D03*
X88140000Y-114750000D03*
D19*
X88140000Y-110600000D03*
X88140000Y-115400000D03*
X88140000Y-109800000D03*
D22*
X89210000Y-110110000D03*
X89210000Y-115890000D03*
D19*
X88140000Y-116200000D03*
%TD*%
D10*
%TO.C,U4*%
X73750000Y-130120000D03*
X68670000Y-122500000D03*
X71210000Y-122500000D03*
X68670000Y-130120000D03*
D11*
X73750000Y-122500000D03*
%TD*%
D10*
%TO.C,U3*%
X65250000Y-130120000D03*
X60170000Y-122500000D03*
X62710000Y-122500000D03*
X60170000Y-130120000D03*
D11*
X65250000Y-122500000D03*
%TD*%
D10*
%TO.C,U2*%
X56750000Y-130120000D03*
X51670000Y-122500000D03*
X54210000Y-122500000D03*
X51670000Y-130120000D03*
D11*
X56750000Y-122500000D03*
%TD*%
D23*
%TO.C,J2*%
X88000000Y-134500000D03*
G36*
G01*
X88675000Y-137850000D02*
X87325000Y-137850000D01*
G75*
G02*
X87075000Y-137600000I0J250000D01*
G01*
X87075000Y-136400000D01*
G75*
G02*
X87325000Y-136150000I250000J0D01*
G01*
X88675000Y-136150000D01*
G75*
G02*
X88925000Y-136400000I0J-250000D01*
G01*
X88925000Y-137600000D01*
G75*
G02*
X88675000Y-137850000I-250000J0D01*
G01*
G37*
%TD*%
%TO.C,J4*%
X88000000Y-97500000D03*
X88000000Y-100000000D03*
X88000000Y-102500000D03*
G36*
G01*
X88675000Y-105850000D02*
X87325000Y-105850000D01*
G75*
G02*
X87075000Y-105600000I0J250000D01*
G01*
X87075000Y-104400000D01*
G75*
G02*
X87325000Y-104150000I250000J0D01*
G01*
X88675000Y-104150000D01*
G75*
G02*
X88925000Y-104400000I0J-250000D01*
G01*
X88925000Y-105600000D01*
G75*
G02*
X88675000Y-105850000I-250000J0D01*
G01*
G37*
%TD*%
%TO.C,J3*%
X88000000Y-121000000D03*
X88000000Y-123500000D03*
X88000000Y-126000000D03*
G36*
G01*
X88675000Y-129350000D02*
X87325000Y-129350000D01*
G75*
G02*
X87075000Y-129100000I0J250000D01*
G01*
X87075000Y-127900000D01*
G75*
G02*
X87325000Y-127650000I250000J0D01*
G01*
X88675000Y-127650000D01*
G75*
G02*
X88925000Y-127900000I0J-250000D01*
G01*
X88925000Y-129100000D01*
G75*
G02*
X88675000Y-129350000I-250000J0D01*
G01*
G37*
%TD*%
D24*
%TO.C,J8*%
X81000000Y-133000000D03*
G36*
G01*
X77650000Y-133675000D02*
X77650000Y-132325000D01*
G75*
G02*
X77900000Y-132075000I250000J0D01*
G01*
X79100000Y-132075000D01*
G75*
G02*
X79350000Y-132325000I0J-250000D01*
G01*
X79350000Y-133675000D01*
G75*
G02*
X79100000Y-133925000I-250000J0D01*
G01*
X77900000Y-133925000D01*
G75*
G02*
X77650000Y-133675000I0J250000D01*
G01*
G37*
%TD*%
%TO.C,J7*%
X72500000Y-133000000D03*
G36*
G01*
X69150000Y-133675000D02*
X69150000Y-132325000D01*
G75*
G02*
X69400000Y-132075000I250000J0D01*
G01*
X70600000Y-132075000D01*
G75*
G02*
X70850000Y-132325000I0J-250000D01*
G01*
X70850000Y-133675000D01*
G75*
G02*
X70600000Y-133925000I-250000J0D01*
G01*
X69400000Y-133925000D01*
G75*
G02*
X69150000Y-133675000I0J250000D01*
G01*
G37*
%TD*%
%TO.C,J6*%
X64000000Y-133000000D03*
G36*
G01*
X60650000Y-133675000D02*
X60650000Y-132325000D01*
G75*
G02*
X60900000Y-132075000I250000J0D01*
G01*
X62100000Y-132075000D01*
G75*
G02*
X62350000Y-132325000I0J-250000D01*
G01*
X62350000Y-133675000D01*
G75*
G02*
X62100000Y-133925000I-250000J0D01*
G01*
X60900000Y-133925000D01*
G75*
G02*
X60650000Y-133675000I0J250000D01*
G01*
G37*
%TD*%
%TO.C,J5*%
X55500000Y-133000000D03*
G36*
G01*
X52150000Y-133675000D02*
X52150000Y-132325000D01*
G75*
G02*
X52400000Y-132075000I250000J0D01*
G01*
X53600000Y-132075000D01*
G75*
G02*
X53850000Y-132325000I0J-250000D01*
G01*
X53850000Y-133675000D01*
G75*
G02*
X53600000Y-133925000I-250000J0D01*
G01*
X52400000Y-133925000D01*
G75*
G02*
X52150000Y-133675000I0J250000D01*
G01*
G37*
%TD*%
D23*
%TO.C,J1*%
X57000000Y-117500000D03*
X57000000Y-115000000D03*
X57000000Y-112500000D03*
X57000000Y-110000000D03*
X57000000Y-107500000D03*
X57000000Y-105000000D03*
X57000000Y-102500000D03*
X57000000Y-100000000D03*
G36*
G01*
X56325000Y-96650000D02*
X57675000Y-96650000D01*
G75*
G02*
X57925000Y-96900000I0J-250000D01*
G01*
X57925000Y-98100000D01*
G75*
G02*
X57675000Y-98350000I-250000J0D01*
G01*
X56325000Y-98350000D01*
G75*
G02*
X56075000Y-98100000I0J250000D01*
G01*
X56075000Y-96900000D01*
G75*
G02*
X56325000Y-96650000I250000J0D01*
G01*
G37*
%TD*%
M02*
