%TF.GenerationSoftware,KiCad,Pcbnew,(5.1.9-0-10_14)*%
%TF.CreationDate,2021-05-04T07:58:38+01:00*%
%TF.ProjectId,Controller,436f6e74-726f-46c6-9c65-722e6b696361,6*%
%TF.SameCoordinates,Original*%
%TF.FileFunction,Paste,Bot*%
%TF.FilePolarity,Positive*%
%FSLAX46Y46*%
G04 Gerber Fmt 4.6, Leading zero omitted, Abs format (unit mm)*
G04 Created by KiCad (PCBNEW (5.1.9-0-10_14)) date 2021-05-04 07:58:38*
%MOMM*%
%LPD*%
G01*
G04 APERTURE LIST*
%ADD10R,2.000000X0.900000*%
%ADD11R,0.900000X2.000000*%
%ADD12R,5.000000X5.000000*%
G04 APERTURE END LIST*
%TO.C,R16*%
G36*
G01*
X53675000Y-104237500D02*
X53675000Y-103762500D01*
G75*
G02*
X53912500Y-103525000I237500J0D01*
G01*
X54412500Y-103525000D01*
G75*
G02*
X54650000Y-103762500I0J-237500D01*
G01*
X54650000Y-104237500D01*
G75*
G02*
X54412500Y-104475000I-237500J0D01*
G01*
X53912500Y-104475000D01*
G75*
G02*
X53675000Y-104237500I0J237500D01*
G01*
G37*
G36*
G01*
X51850000Y-104237500D02*
X51850000Y-103762500D01*
G75*
G02*
X52087500Y-103525000I237500J0D01*
G01*
X52587500Y-103525000D01*
G75*
G02*
X52825000Y-103762500I0J-237500D01*
G01*
X52825000Y-104237500D01*
G75*
G02*
X52587500Y-104475000I-237500J0D01*
G01*
X52087500Y-104475000D01*
G75*
G02*
X51850000Y-104237500I0J237500D01*
G01*
G37*
%TD*%
%TO.C,R14*%
G36*
G01*
X91325000Y-110972500D02*
X91325000Y-111447500D01*
G75*
G02*
X91087500Y-111685000I-237500J0D01*
G01*
X90587500Y-111685000D01*
G75*
G02*
X90350000Y-111447500I0J237500D01*
G01*
X90350000Y-110972500D01*
G75*
G02*
X90587500Y-110735000I237500J0D01*
G01*
X91087500Y-110735000D01*
G75*
G02*
X91325000Y-110972500I0J-237500D01*
G01*
G37*
G36*
G01*
X93150000Y-110972500D02*
X93150000Y-111447500D01*
G75*
G02*
X92912500Y-111685000I-237500J0D01*
G01*
X92412500Y-111685000D01*
G75*
G02*
X92175000Y-111447500I0J237500D01*
G01*
X92175000Y-110972500D01*
G75*
G02*
X92412500Y-110735000I237500J0D01*
G01*
X92912500Y-110735000D01*
G75*
G02*
X93150000Y-110972500I0J-237500D01*
G01*
G37*
%TD*%
%TO.C,R13*%
G36*
G01*
X92175000Y-114737500D02*
X92175000Y-114262500D01*
G75*
G02*
X92412500Y-114025000I237500J0D01*
G01*
X92912500Y-114025000D01*
G75*
G02*
X93150000Y-114262500I0J-237500D01*
G01*
X93150000Y-114737500D01*
G75*
G02*
X92912500Y-114975000I-237500J0D01*
G01*
X92412500Y-114975000D01*
G75*
G02*
X92175000Y-114737500I0J237500D01*
G01*
G37*
G36*
G01*
X90350000Y-114737500D02*
X90350000Y-114262500D01*
G75*
G02*
X90587500Y-114025000I237500J0D01*
G01*
X91087500Y-114025000D01*
G75*
G02*
X91325000Y-114262500I0J-237500D01*
G01*
X91325000Y-114737500D01*
G75*
G02*
X91087500Y-114975000I-237500J0D01*
G01*
X90587500Y-114975000D01*
G75*
G02*
X90350000Y-114737500I0J237500D01*
G01*
G37*
%TD*%
%TO.C,R6*%
G36*
G01*
X80007500Y-128575000D02*
X79532500Y-128575000D01*
G75*
G02*
X79295000Y-128337500I0J237500D01*
G01*
X79295000Y-127837500D01*
G75*
G02*
X79532500Y-127600000I237500J0D01*
G01*
X80007500Y-127600000D01*
G75*
G02*
X80245000Y-127837500I0J-237500D01*
G01*
X80245000Y-128337500D01*
G75*
G02*
X80007500Y-128575000I-237500J0D01*
G01*
G37*
G36*
G01*
X80007500Y-130400000D02*
X79532500Y-130400000D01*
G75*
G02*
X79295000Y-130162500I0J237500D01*
G01*
X79295000Y-129662500D01*
G75*
G02*
X79532500Y-129425000I237500J0D01*
G01*
X80007500Y-129425000D01*
G75*
G02*
X80245000Y-129662500I0J-237500D01*
G01*
X80245000Y-130162500D01*
G75*
G02*
X80007500Y-130400000I-237500J0D01*
G01*
G37*
%TD*%
%TO.C,R5*%
G36*
G01*
X71507500Y-128575000D02*
X71032500Y-128575000D01*
G75*
G02*
X70795000Y-128337500I0J237500D01*
G01*
X70795000Y-127837500D01*
G75*
G02*
X71032500Y-127600000I237500J0D01*
G01*
X71507500Y-127600000D01*
G75*
G02*
X71745000Y-127837500I0J-237500D01*
G01*
X71745000Y-128337500D01*
G75*
G02*
X71507500Y-128575000I-237500J0D01*
G01*
G37*
G36*
G01*
X71507500Y-130400000D02*
X71032500Y-130400000D01*
G75*
G02*
X70795000Y-130162500I0J237500D01*
G01*
X70795000Y-129662500D01*
G75*
G02*
X71032500Y-129425000I237500J0D01*
G01*
X71507500Y-129425000D01*
G75*
G02*
X71745000Y-129662500I0J-237500D01*
G01*
X71745000Y-130162500D01*
G75*
G02*
X71507500Y-130400000I-237500J0D01*
G01*
G37*
%TD*%
%TO.C,R4*%
G36*
G01*
X63007500Y-128525000D02*
X62532500Y-128525000D01*
G75*
G02*
X62295000Y-128287500I0J237500D01*
G01*
X62295000Y-127787500D01*
G75*
G02*
X62532500Y-127550000I237500J0D01*
G01*
X63007500Y-127550000D01*
G75*
G02*
X63245000Y-127787500I0J-237500D01*
G01*
X63245000Y-128287500D01*
G75*
G02*
X63007500Y-128525000I-237500J0D01*
G01*
G37*
G36*
G01*
X63007500Y-130350000D02*
X62532500Y-130350000D01*
G75*
G02*
X62295000Y-130112500I0J237500D01*
G01*
X62295000Y-129612500D01*
G75*
G02*
X62532500Y-129375000I237500J0D01*
G01*
X63007500Y-129375000D01*
G75*
G02*
X63245000Y-129612500I0J-237500D01*
G01*
X63245000Y-130112500D01*
G75*
G02*
X63007500Y-130350000I-237500J0D01*
G01*
G37*
%TD*%
%TO.C,R3*%
G36*
G01*
X54507500Y-128575000D02*
X54032500Y-128575000D01*
G75*
G02*
X53795000Y-128337500I0J237500D01*
G01*
X53795000Y-127837500D01*
G75*
G02*
X54032500Y-127600000I237500J0D01*
G01*
X54507500Y-127600000D01*
G75*
G02*
X54745000Y-127837500I0J-237500D01*
G01*
X54745000Y-128337500D01*
G75*
G02*
X54507500Y-128575000I-237500J0D01*
G01*
G37*
G36*
G01*
X54507500Y-130400000D02*
X54032500Y-130400000D01*
G75*
G02*
X53795000Y-130162500I0J237500D01*
G01*
X53795000Y-129662500D01*
G75*
G02*
X54032500Y-129425000I237500J0D01*
G01*
X54507500Y-129425000D01*
G75*
G02*
X54745000Y-129662500I0J-237500D01*
G01*
X54745000Y-130162500D01*
G75*
G02*
X54507500Y-130400000I-237500J0D01*
G01*
G37*
%TD*%
D10*
%TO.C,U1*%
X64000000Y-102500000D03*
X64000000Y-103770000D03*
X64000000Y-105040000D03*
X64000000Y-106310000D03*
X64000000Y-107580000D03*
X64000000Y-108850000D03*
X64000000Y-110120000D03*
X64000000Y-111390000D03*
X64000000Y-112660000D03*
X64000000Y-113930000D03*
X64000000Y-115200000D03*
X64000000Y-116470000D03*
X64000000Y-117740000D03*
X64000000Y-119010000D03*
D11*
X66785000Y-120010000D03*
X68055000Y-120010000D03*
X69325000Y-120010000D03*
X70595000Y-120010000D03*
X71865000Y-120010000D03*
X73135000Y-120010000D03*
X74405000Y-120010000D03*
X75675000Y-120010000D03*
X76945000Y-120010000D03*
X78215000Y-120010000D03*
D10*
X81000000Y-119010000D03*
X81000000Y-117740000D03*
X81000000Y-116470000D03*
X81000000Y-115200000D03*
X81000000Y-113930000D03*
X81000000Y-112660000D03*
X81000000Y-111390000D03*
X81000000Y-110120000D03*
X81000000Y-108850000D03*
X81000000Y-107580000D03*
X81000000Y-106310000D03*
X81000000Y-105040000D03*
X81000000Y-103770000D03*
X81000000Y-102500000D03*
D12*
X73500000Y-110000000D03*
%TD*%
%TO.C,R12*%
G36*
G01*
X54150000Y-124625000D02*
X54150000Y-123375000D01*
G75*
G02*
X54400000Y-123125000I250000J0D01*
G01*
X55200000Y-123125000D01*
G75*
G02*
X55450000Y-123375000I0J-250000D01*
G01*
X55450000Y-124625000D01*
G75*
G02*
X55200000Y-124875000I-250000J0D01*
G01*
X54400000Y-124875000D01*
G75*
G02*
X54150000Y-124625000I0J250000D01*
G01*
G37*
G36*
G01*
X51050000Y-124625000D02*
X51050000Y-123375000D01*
G75*
G02*
X51300000Y-123125000I250000J0D01*
G01*
X52100000Y-123125000D01*
G75*
G02*
X52350000Y-123375000I0J-250000D01*
G01*
X52350000Y-124625000D01*
G75*
G02*
X52100000Y-124875000I-250000J0D01*
G01*
X51300000Y-124875000D01*
G75*
G02*
X51050000Y-124625000I0J250000D01*
G01*
G37*
%TD*%
%TO.C,R11*%
G36*
G01*
X54150000Y-122125000D02*
X54150000Y-120875000D01*
G75*
G02*
X54400000Y-120625000I250000J0D01*
G01*
X55200000Y-120625000D01*
G75*
G02*
X55450000Y-120875000I0J-250000D01*
G01*
X55450000Y-122125000D01*
G75*
G02*
X55200000Y-122375000I-250000J0D01*
G01*
X54400000Y-122375000D01*
G75*
G02*
X54150000Y-122125000I0J250000D01*
G01*
G37*
G36*
G01*
X51050000Y-122125000D02*
X51050000Y-120875000D01*
G75*
G02*
X51300000Y-120625000I250000J0D01*
G01*
X52100000Y-120625000D01*
G75*
G02*
X52350000Y-120875000I0J-250000D01*
G01*
X52350000Y-122125000D01*
G75*
G02*
X52100000Y-122375000I-250000J0D01*
G01*
X51300000Y-122375000D01*
G75*
G02*
X51050000Y-122125000I0J250000D01*
G01*
G37*
%TD*%
%TO.C,R10*%
G36*
G01*
X54150000Y-119625000D02*
X54150000Y-118375000D01*
G75*
G02*
X54400000Y-118125000I250000J0D01*
G01*
X55200000Y-118125000D01*
G75*
G02*
X55450000Y-118375000I0J-250000D01*
G01*
X55450000Y-119625000D01*
G75*
G02*
X55200000Y-119875000I-250000J0D01*
G01*
X54400000Y-119875000D01*
G75*
G02*
X54150000Y-119625000I0J250000D01*
G01*
G37*
G36*
G01*
X51050000Y-119625000D02*
X51050000Y-118375000D01*
G75*
G02*
X51300000Y-118125000I250000J0D01*
G01*
X52100000Y-118125000D01*
G75*
G02*
X52350000Y-118375000I0J-250000D01*
G01*
X52350000Y-119625000D01*
G75*
G02*
X52100000Y-119875000I-250000J0D01*
G01*
X51300000Y-119875000D01*
G75*
G02*
X51050000Y-119625000I0J250000D01*
G01*
G37*
%TD*%
%TO.C,R9*%
G36*
G01*
X54150000Y-117125000D02*
X54150000Y-115875000D01*
G75*
G02*
X54400000Y-115625000I250000J0D01*
G01*
X55200000Y-115625000D01*
G75*
G02*
X55450000Y-115875000I0J-250000D01*
G01*
X55450000Y-117125000D01*
G75*
G02*
X55200000Y-117375000I-250000J0D01*
G01*
X54400000Y-117375000D01*
G75*
G02*
X54150000Y-117125000I0J250000D01*
G01*
G37*
G36*
G01*
X51050000Y-117125000D02*
X51050000Y-115875000D01*
G75*
G02*
X51300000Y-115625000I250000J0D01*
G01*
X52100000Y-115625000D01*
G75*
G02*
X52350000Y-115875000I0J-250000D01*
G01*
X52350000Y-117125000D01*
G75*
G02*
X52100000Y-117375000I-250000J0D01*
G01*
X51300000Y-117375000D01*
G75*
G02*
X51050000Y-117125000I0J250000D01*
G01*
G37*
%TD*%
%TO.C,R8*%
G36*
G01*
X54150000Y-114625000D02*
X54150000Y-113375000D01*
G75*
G02*
X54400000Y-113125000I250000J0D01*
G01*
X55200000Y-113125000D01*
G75*
G02*
X55450000Y-113375000I0J-250000D01*
G01*
X55450000Y-114625000D01*
G75*
G02*
X55200000Y-114875000I-250000J0D01*
G01*
X54400000Y-114875000D01*
G75*
G02*
X54150000Y-114625000I0J250000D01*
G01*
G37*
G36*
G01*
X51050000Y-114625000D02*
X51050000Y-113375000D01*
G75*
G02*
X51300000Y-113125000I250000J0D01*
G01*
X52100000Y-113125000D01*
G75*
G02*
X52350000Y-113375000I0J-250000D01*
G01*
X52350000Y-114625000D01*
G75*
G02*
X52100000Y-114875000I-250000J0D01*
G01*
X51300000Y-114875000D01*
G75*
G02*
X51050000Y-114625000I0J250000D01*
G01*
G37*
%TD*%
%TO.C,R7*%
G36*
G01*
X54150000Y-112125000D02*
X54150000Y-110875000D01*
G75*
G02*
X54400000Y-110625000I250000J0D01*
G01*
X55200000Y-110625000D01*
G75*
G02*
X55450000Y-110875000I0J-250000D01*
G01*
X55450000Y-112125000D01*
G75*
G02*
X55200000Y-112375000I-250000J0D01*
G01*
X54400000Y-112375000D01*
G75*
G02*
X54150000Y-112125000I0J250000D01*
G01*
G37*
G36*
G01*
X51050000Y-112125000D02*
X51050000Y-110875000D01*
G75*
G02*
X51300000Y-110625000I250000J0D01*
G01*
X52100000Y-110625000D01*
G75*
G02*
X52350000Y-110875000I0J-250000D01*
G01*
X52350000Y-112125000D01*
G75*
G02*
X52100000Y-112375000I-250000J0D01*
G01*
X51300000Y-112375000D01*
G75*
G02*
X51050000Y-112125000I0J250000D01*
G01*
G37*
%TD*%
%TO.C,R2*%
G36*
G01*
X54150000Y-109625000D02*
X54150000Y-108375000D01*
G75*
G02*
X54400000Y-108125000I250000J0D01*
G01*
X55200000Y-108125000D01*
G75*
G02*
X55450000Y-108375000I0J-250000D01*
G01*
X55450000Y-109625000D01*
G75*
G02*
X55200000Y-109875000I-250000J0D01*
G01*
X54400000Y-109875000D01*
G75*
G02*
X54150000Y-109625000I0J250000D01*
G01*
G37*
G36*
G01*
X51050000Y-109625000D02*
X51050000Y-108375000D01*
G75*
G02*
X51300000Y-108125000I250000J0D01*
G01*
X52100000Y-108125000D01*
G75*
G02*
X52350000Y-108375000I0J-250000D01*
G01*
X52350000Y-109625000D01*
G75*
G02*
X52100000Y-109875000I-250000J0D01*
G01*
X51300000Y-109875000D01*
G75*
G02*
X51050000Y-109625000I0J250000D01*
G01*
G37*
%TD*%
%TO.C,R1*%
G36*
G01*
X54150000Y-107125000D02*
X54150000Y-105875000D01*
G75*
G02*
X54400000Y-105625000I250000J0D01*
G01*
X55200000Y-105625000D01*
G75*
G02*
X55450000Y-105875000I0J-250000D01*
G01*
X55450000Y-107125000D01*
G75*
G02*
X55200000Y-107375000I-250000J0D01*
G01*
X54400000Y-107375000D01*
G75*
G02*
X54150000Y-107125000I0J250000D01*
G01*
G37*
G36*
G01*
X51050000Y-107125000D02*
X51050000Y-105875000D01*
G75*
G02*
X51300000Y-105625000I250000J0D01*
G01*
X52100000Y-105625000D01*
G75*
G02*
X52350000Y-105875000I0J-250000D01*
G01*
X52350000Y-107125000D01*
G75*
G02*
X52100000Y-107375000I-250000J0D01*
G01*
X51300000Y-107375000D01*
G75*
G02*
X51050000Y-107125000I0J250000D01*
G01*
G37*
%TD*%
M02*
