%TF.GenerationSoftware,KiCad,Pcbnew,(6.0.2-0)*%
%TF.CreationDate,2022-02-18T16:19:39+00:00*%
%TF.ProjectId,GPS,4750532e-6b69-4636-9164-5f7063625858,5*%
%TF.SameCoordinates,Original*%
%TF.FileFunction,Soldermask,Top*%
%TF.FilePolarity,Negative*%
%FSLAX46Y46*%
G04 Gerber Fmt 4.6, Leading zero omitted, Abs format (unit mm)*
G04 Created by KiCad (PCBNEW (6.0.2-0)) date 2022-02-18 16:19:39*
%MOMM*%
%LPD*%
G01*
G04 APERTURE LIST*
G04 Aperture macros list*
%AMRoundRect*
0 Rectangle with rounded corners*
0 $1 Rounding radius*
0 $2 $3 $4 $5 $6 $7 $8 $9 X,Y pos of 4 corners*
0 Add a 4 corners polygon primitive as box body*
4,1,4,$2,$3,$4,$5,$6,$7,$8,$9,$2,$3,0*
0 Add four circle primitives for the rounded corners*
1,1,$1+$1,$2,$3*
1,1,$1+$1,$4,$5*
1,1,$1+$1,$6,$7*
1,1,$1+$1,$8,$9*
0 Add four rect primitives between the rounded corners*
20,1,$1+$1,$2,$3,$4,$5,0*
20,1,$1+$1,$4,$5,$6,$7,0*
20,1,$1+$1,$6,$7,$8,$9,0*
20,1,$1+$1,$8,$9,$2,$3,0*%
G04 Aperture macros list end*
%ADD10C,0.010000*%
%ADD11RoundRect,0.200000X0.200000X0.275000X-0.200000X0.275000X-0.200000X-0.275000X0.200000X-0.275000X0*%
%ADD12R,0.600000X1.140000*%
%ADD13C,0.800000*%
%ADD14RoundRect,0.075000X-0.075000X-0.495000X0.075000X-0.495000X0.075000X0.495000X-0.075000X0.495000X0*%
%ADD15C,1.500000*%
%ADD16C,1.250000*%
%ADD17R,5.000000X5.490000*%
%ADD18RoundRect,0.062500X0.062500X-0.350000X0.062500X0.350000X-0.062500X0.350000X-0.062500X-0.350000X0*%
%ADD19RoundRect,0.062500X0.350000X-0.062500X0.350000X0.062500X-0.350000X0.062500X-0.350000X-0.062500X0*%
%ADD20R,2.500000X2.500000*%
%ADD21RoundRect,0.200000X0.275000X-0.200000X0.275000X0.200000X-0.275000X0.200000X-0.275000X-0.200000X0*%
%ADD22R,0.500000X0.850000*%
%ADD23RoundRect,0.250001X-0.624999X0.462499X-0.624999X-0.462499X0.624999X-0.462499X0.624999X0.462499X0*%
%ADD24RoundRect,0.225000X-0.225000X-0.250000X0.225000X-0.250000X0.225000X0.250000X-0.225000X0.250000X0*%
%ADD25R,1.500000X0.700000*%
%ADD26R,0.700000X1.500000*%
%ADD27RoundRect,0.250000X-0.600000X-0.675000X0.600000X-0.675000X0.600000X0.675000X-0.600000X0.675000X0*%
%ADD28O,1.700000X1.850000*%
%ADD29R,0.400000X0.800000*%
%ADD30R,0.800000X0.400000*%
%ADD31R,1.450000X1.450000*%
%ADD32R,0.700000X0.700000*%
%ADD33RoundRect,0.200000X-0.200000X-0.275000X0.200000X-0.275000X0.200000X0.275000X-0.200000X0.275000X0*%
%ADD34RoundRect,0.225000X0.250000X-0.225000X0.250000X0.225000X-0.250000X0.225000X-0.250000X-0.225000X0*%
%ADD35RoundRect,0.249375X-0.463125X-0.625625X0.463125X-0.625625X0.463125X0.625625X-0.463125X0.625625X0*%
%ADD36R,1.425000X3.700000*%
%ADD37R,0.600000X1.100000*%
%ADD38RoundRect,0.250000X-0.475000X0.250000X-0.475000X-0.250000X0.475000X-0.250000X0.475000X0.250000X0*%
G04 APERTURE END LIST*
D10*
%TO.C,U1*%
X115581750Y-123225000D02*
X117231750Y-123225000D01*
X117231750Y-123225000D02*
X117231750Y-122175000D01*
X117231750Y-122175000D02*
X116631750Y-121575000D01*
X116631750Y-121575000D02*
X115581750Y-121575000D01*
X115581750Y-121575000D02*
X115581750Y-123225000D01*
G36*
X117231750Y-122175000D02*
G01*
X117231750Y-123225000D01*
X115581750Y-123225000D01*
X115581750Y-121575000D01*
X116631750Y-121575000D01*
X117231750Y-122175000D01*
G37*
X117231750Y-122175000D02*
X117231750Y-123225000D01*
X115581750Y-123225000D01*
X115581750Y-121575000D01*
X116631750Y-121575000D01*
X117231750Y-122175000D01*
%TD*%
D11*
%TO.C,R1*%
X95475000Y-134150000D03*
X93825000Y-134150000D03*
%TD*%
D12*
%TO.C,J3*%
X93850000Y-135440000D03*
D13*
X94160000Y-136510000D03*
X99940000Y-136510000D03*
D12*
X100250000Y-135440000D03*
D14*
X95300000Y-135440000D03*
X98800000Y-135440000D03*
X95800000Y-135440000D03*
X98300000Y-135440000D03*
X96300000Y-135440000D03*
X97800000Y-135440000D03*
X96800000Y-135440000D03*
X97300000Y-135440000D03*
D15*
X92730000Y-136020000D03*
X101370000Y-136020000D03*
D16*
X92730000Y-140190000D03*
X101370000Y-140190000D03*
D12*
X99450000Y-135440000D03*
X94650000Y-135440000D03*
D17*
X97050000Y-139555000D03*
%TD*%
D18*
%TO.C,U3*%
X103750000Y-131937500D03*
X104250000Y-131937500D03*
X104750000Y-131937500D03*
X105250000Y-131937500D03*
X105750000Y-131937500D03*
D19*
X106687500Y-131000000D03*
X106687500Y-130500000D03*
X106687500Y-130000000D03*
X106687500Y-129500000D03*
X106687500Y-129000000D03*
D18*
X105750000Y-128062500D03*
X105250000Y-128062500D03*
X104750000Y-128062500D03*
X104250000Y-128062500D03*
X103750000Y-128062500D03*
D19*
X102812500Y-129000000D03*
X102812500Y-129500000D03*
X102812500Y-130000000D03*
X102812500Y-130500000D03*
X102812500Y-131000000D03*
D20*
X104750000Y-130000000D03*
%TD*%
D11*
%TO.C,R2*%
X100275000Y-134150000D03*
X98625000Y-134150000D03*
%TD*%
D21*
%TO.C,R6*%
X114200000Y-133475000D03*
X114200000Y-131825000D03*
%TD*%
%TO.C,R7*%
X116500000Y-133475000D03*
X116500000Y-131825000D03*
%TD*%
%TO.C,R8*%
X115350000Y-133475000D03*
X115350000Y-131825000D03*
%TD*%
D22*
%TO.C,D2*%
X119250000Y-131775000D03*
X119250000Y-133525000D03*
X118250000Y-133525000D03*
X118250000Y-131775000D03*
%TD*%
D23*
%TO.C,D1*%
X99200000Y-129212500D03*
X99200000Y-132187500D03*
%TD*%
D24*
%TO.C,C1*%
X109675000Y-133150000D03*
X111225000Y-133150000D03*
%TD*%
D25*
%TO.C,U2*%
X94600000Y-131087500D03*
X94600000Y-130087500D03*
X94600000Y-129087500D03*
X94600000Y-128087500D03*
X94600000Y-127087500D03*
X94600000Y-126087500D03*
X94600000Y-125087500D03*
X94600000Y-124087500D03*
X94600000Y-123087500D03*
X94600000Y-122087500D03*
X94600000Y-121087500D03*
X94600000Y-120087500D03*
X94600000Y-118937500D03*
X85400000Y-118937500D03*
X85400000Y-120087500D03*
X85400000Y-121087500D03*
X85400000Y-122087500D03*
X85400000Y-123087500D03*
X85400000Y-124087500D03*
X85400000Y-125087500D03*
X85400000Y-126087500D03*
X85400000Y-127087500D03*
X85400000Y-128087500D03*
X85400000Y-129087500D03*
X85400000Y-130087500D03*
X85400000Y-131087500D03*
D26*
X88000000Y-131687500D03*
X89000000Y-131687500D03*
X90000000Y-131687500D03*
X91000000Y-131687500D03*
X92000000Y-131687500D03*
%TD*%
D27*
%TO.C,J2*%
X105100000Y-135650000D03*
D28*
X107600000Y-135650000D03*
X110100000Y-135650000D03*
X112600000Y-135650000D03*
X115100000Y-135650000D03*
X117600000Y-135650000D03*
%TD*%
D29*
%TO.C,U1*%
X118456750Y-118450000D03*
X117656750Y-118450000D03*
X116856750Y-118450000D03*
X116056750Y-118450000D03*
X115256750Y-118450000D03*
X114456750Y-118450000D03*
X113656750Y-118450000D03*
X112856750Y-118450000D03*
X112056750Y-118450000D03*
X111256750Y-118450000D03*
X110456750Y-118450000D03*
D30*
X109556750Y-119550000D03*
X109556750Y-120350000D03*
X109556750Y-121150000D03*
X109556750Y-121950000D03*
X109556750Y-122750000D03*
X109556750Y-123550000D03*
X109556750Y-124350000D03*
X109556750Y-125150000D03*
X109556750Y-125950000D03*
X109556750Y-126750000D03*
X109556750Y-127550000D03*
X109556750Y-128350000D03*
X109556750Y-129150000D03*
D29*
X110456750Y-130250000D03*
X111256750Y-130250000D03*
X112056750Y-130250000D03*
X112856750Y-130250000D03*
X113656750Y-130250000D03*
X114456750Y-130250000D03*
X115256750Y-130250000D03*
X116056750Y-130250000D03*
X116856750Y-130250000D03*
X117656750Y-130250000D03*
X118456750Y-130250000D03*
D30*
X119356750Y-129150000D03*
X119356750Y-128350000D03*
X119356750Y-127550000D03*
X119356750Y-126750000D03*
X119356750Y-125950000D03*
X119356750Y-125150000D03*
X119356750Y-124350000D03*
X119356750Y-123550000D03*
X119356750Y-122750000D03*
X119356750Y-121950000D03*
X119356750Y-121150000D03*
X119356750Y-120350000D03*
X119356750Y-119550000D03*
D31*
X114456750Y-124350000D03*
D32*
X119406750Y-130300000D03*
X109506750Y-130300000D03*
X109506750Y-118400000D03*
X119406750Y-118400000D03*
D31*
X114456750Y-122400000D03*
X112506750Y-122400000D03*
X112506750Y-124350000D03*
X112506750Y-126300000D03*
X114456750Y-126300000D03*
X116406750Y-126300000D03*
X116406750Y-124350000D03*
%TD*%
D33*
%TO.C,R9*%
X98350000Y-118500000D03*
X100000000Y-118500000D03*
%TD*%
D27*
%TO.C,J1*%
X86500000Y-135650000D03*
D28*
X89000000Y-135650000D03*
%TD*%
D34*
%TO.C,U4*%
X100000000Y-121825000D03*
D35*
X102897500Y-123970000D03*
D36*
X104500000Y-120850000D03*
D37*
X103050000Y-122150000D03*
D34*
X100000000Y-120275000D03*
D37*
X103050000Y-119450000D03*
X101150000Y-122150000D03*
D38*
X101250000Y-123400000D03*
D37*
X102100000Y-122150000D03*
D38*
X107500000Y-125300000D03*
X101250000Y-125300000D03*
D35*
X105862500Y-123970000D03*
D37*
X102100000Y-119450000D03*
D38*
X107500000Y-123400000D03*
D36*
X107500000Y-120850000D03*
D37*
X101150000Y-119450000D03*
%TD*%
D11*
%TO.C,R3*%
X86325000Y-133650000D03*
X84675000Y-133650000D03*
%TD*%
D21*
%TO.C,R5*%
X98350000Y-121325000D03*
X98350000Y-119675000D03*
%TD*%
D11*
%TO.C,R4*%
X88975000Y-133650000D03*
X87325000Y-133650000D03*
%TD*%
M02*
