%TF.GenerationSoftware,KiCad,Pcbnew,(6.0.2-0)*%
%TF.CreationDate,2022-02-18T16:19:39+00:00*%
%TF.ProjectId,GPS,4750532e-6b69-4636-9164-5f7063625858,5*%
%TF.SameCoordinates,Original*%
%TF.FileFunction,Legend,Top*%
%TF.FilePolarity,Positive*%
%FSLAX46Y46*%
G04 Gerber Fmt 4.6, Leading zero omitted, Abs format (unit mm)*
G04 Created by KiCad (PCBNEW (6.0.2-0)) date 2022-02-18 16:19:39*
%MOMM*%
%LPD*%
G01*
G04 APERTURE LIST*
%ADD10C,0.150000*%
%ADD11C,0.120000*%
%ADD12C,0.127000*%
%ADD13C,0.300000*%
%ADD14C,0.200000*%
G04 APERTURE END LIST*
D10*
%TO.C,J2*%
X103885714Y-136102380D02*
X103314285Y-136102380D01*
X103600000Y-136102380D02*
X103600000Y-135102380D01*
X103504761Y-135245238D01*
X103409523Y-135340476D01*
X103314285Y-135388095D01*
%TO.C,J1*%
X85285714Y-136102380D02*
X84714285Y-136102380D01*
X85000000Y-136102380D02*
X85000000Y-135102380D01*
X84904761Y-135245238D01*
X84809523Y-135340476D01*
X84714285Y-135388095D01*
D11*
%TO.C,R1*%
X94950000Y-134650000D02*
X94350000Y-134650000D01*
X94950000Y-133650000D02*
X94350000Y-133650000D01*
%TO.C,U3*%
X106860000Y-132110000D02*
X106135000Y-132110000D01*
X102640000Y-131385000D02*
X102640000Y-132110000D01*
X102640000Y-127890000D02*
X103365000Y-127890000D01*
X106860000Y-127890000D02*
X106135000Y-127890000D01*
X102640000Y-128615000D02*
X102640000Y-127890000D01*
X106860000Y-128615000D02*
X106860000Y-127890000D01*
X106860000Y-131385000D02*
X106860000Y-132110000D01*
%TO.C,R2*%
X99750000Y-134650000D02*
X99150000Y-134650000D01*
X99750000Y-133650000D02*
X99150000Y-133650000D01*
%TO.C,R6*%
X113700000Y-132950000D02*
X113700000Y-132350000D01*
X114700000Y-132950000D02*
X114700000Y-132350000D01*
%TO.C,R7*%
X116000000Y-132950000D02*
X116000000Y-132350000D01*
X117000000Y-132950000D02*
X117000000Y-132350000D01*
%TO.C,R8*%
X114850000Y-132950000D02*
X114850000Y-132350000D01*
X115850000Y-132950000D02*
X115850000Y-132350000D01*
%TO.C,D2*%
X118750000Y-131550000D02*
X118750000Y-132650000D01*
X118750000Y-132650000D02*
X119750000Y-132650000D01*
%TO.C,D1*%
X98065000Y-128240000D02*
X98065000Y-132300000D01*
X100335000Y-128240000D02*
X98065000Y-128240000D01*
X100335000Y-132300000D02*
X100335000Y-128240000D01*
%TO.C,C1*%
X110150000Y-133650000D02*
X110750000Y-133650000D01*
X110150000Y-132650000D02*
X110750000Y-132650000D01*
D12*
%TO.C,U2*%
X94875000Y-131962500D02*
X92650000Y-131962500D01*
X94875000Y-117812500D02*
X85125000Y-117812500D01*
X87350000Y-131962500D02*
X85125000Y-131962500D01*
X94875000Y-118187500D02*
X94875000Y-117812500D01*
X85125000Y-117812500D02*
X85125000Y-118187500D01*
D13*
X96800000Y-131087500D02*
G75*
G03*
X96800000Y-131087500I-100000J0D01*
G01*
D11*
%TO.C,J2*%
X102500000Y-134250000D02*
X102500000Y-142250000D01*
X102500000Y-134250000D02*
X120200000Y-134250000D01*
X120200000Y-134250000D02*
X120200000Y-142250000D01*
D12*
%TO.C,U1*%
X125456750Y-130950000D02*
X120056750Y-130950000D01*
X125456750Y-117750000D02*
X125456750Y-130950000D01*
X120056750Y-117750000D02*
X125456750Y-117750000D01*
D14*
X118556750Y-117000000D02*
G75*
G03*
X118556750Y-117000000I-100000J0D01*
G01*
D11*
%TO.C,R9*%
X98875000Y-118000000D02*
X99475000Y-118000000D01*
X98875000Y-119000000D02*
X99475000Y-119000000D01*
%TO.C,J1*%
X91600000Y-134250000D02*
X91600000Y-142250000D01*
X83900000Y-134250000D02*
X91600000Y-134250000D01*
X83900000Y-134250000D02*
X83900000Y-142250000D01*
%TO.C,U4*%
X100550000Y-120125000D02*
X103650000Y-120125000D01*
X103825000Y-123175000D02*
X103825000Y-124775000D01*
%TO.C,R3*%
X85800000Y-134150000D02*
X85200000Y-134150000D01*
X85800000Y-133150000D02*
X85200000Y-133150000D01*
%TO.C,R5*%
X97850000Y-120800000D02*
X97850000Y-120200000D01*
X98850000Y-120800000D02*
X98850000Y-120200000D01*
%TO.C,R4*%
X88450000Y-134150000D02*
X87850000Y-134150000D01*
X88450000Y-133150000D02*
X87850000Y-133150000D01*
%TD*%
M02*
