M48
; DRILL file {KiCad (6.0.5-0)} date Monday, 15 August 2022 at 15:28:09
; FORMAT={-:-/ absolute / inch / decimal}
; #@! TF.CreationDate,2022-08-15T15:28:09+01:00
; #@! TF.GenerationSoftware,Kicad,Pcbnew,(6.0.5-0)
; #@! TF.FileFunction,Plated,1,2,PTH
FMAT,2
INCH
; #@! TA.AperFunction,Plated,PTH,ViaDrill
T1C0.0157
; #@! TA.AperFunction,Plated,PTH,ComponentDrill
T2C0.0197
; #@! TA.AperFunction,Plated,PTH,ComponentDrill
T3C0.0256
; #@! TA.AperFunction,Plated,PTH,ComponentDrill
T4C0.0335
; #@! TA.AperFunction,Plated,PTH,ComponentDrill
T5C0.0394
%
G90
G05
T1
X3.4469Y-5.7402
X3.4724Y-5.8465
X3.4823Y-5.7087
X3.4921Y-5.2756
X3.5433Y-5.5278
X3.6024Y-5.2776
X3.6516Y-5.2756
X3.6516Y-5.3839
X3.6797Y-5.5051
X3.7008Y-4.1929
X3.7008Y-5.1437
X3.7008Y-5.3839
X3.7402Y-5.187
X3.7421Y-5.8169
X3.75Y-4.1929
X3.7579Y-5.2894
X3.7717Y-5.7244
X3.7795Y-5.7874
X3.7795Y-5.8563
X3.7823Y-5.681
X3.7992Y-5.6102
X3.8091Y-5.8858
X3.8307Y-4.6457
X3.8484Y-5.3346
X3.8681Y-5.5217
X3.9075Y-5.187
X3.9144Y-5.253
X3.9331Y-5.4685
X3.9862Y-5.935
X4.0354Y-4.1929
X4.0394Y-4.6457
X4.0453Y-5.1757
X4.0617Y-5.4176
X4.1929Y-5.561
X4.2089Y-5.1969
X4.2089Y-5.4649
X4.2323Y-4.1339
X4.2323Y-4.1929
T3
X3.837Y-4.5906
X3.837Y-5.0787
X3.887Y-4.5906
X3.887Y-5.0787
X3.937Y-4.5906
X3.937Y-5.0787
X3.987Y-4.5906
X3.987Y-5.0787
X4.037Y-4.5906
X4.037Y-5.0787
T4
X4.3209Y-5.7224
X4.4193Y-5.7224
T5
X3.4024Y-5.4528
X3.5024Y-5.4528
X3.6024Y-5.4528
X3.7024Y-5.4528
X3.8024Y-5.4528
T2
G00X4.2935Y-5.1646
M15
G01X4.262Y-5.1646
M16
G05
G00X4.2935Y-5.5047
M15
G01X4.262Y-5.5047
M16
G05
G00X4.4526Y-5.1646
M15
G01X4.4329Y-5.1646
M16
G05
G00X4.4526Y-5.5047
M15
G01X4.4329Y-5.5047
M16
G05
T0
M30
