%TF.GenerationSoftware,KiCad,Pcbnew,(6.0.2-0)*%
%TF.CreationDate,2022-02-18T15:30:41+00:00*%
%TF.ProjectId,GPS,4750532e-6b69-4636-9164-5f7063625858,5*%
%TF.SameCoordinates,Original*%
%TF.FileFunction,Copper,L1,Top*%
%TF.FilePolarity,Positive*%
%FSLAX46Y46*%
G04 Gerber Fmt 4.6, Leading zero omitted, Abs format (unit mm)*
G04 Created by KiCad (PCBNEW (6.0.2-0)) date 2022-02-18 15:30:41*
%MOMM*%
%LPD*%
G01*
G04 APERTURE LIST*
G04 Aperture macros list*
%AMRoundRect*
0 Rectangle with rounded corners*
0 $1 Rounding radius*
0 $2 $3 $4 $5 $6 $7 $8 $9 X,Y pos of 4 corners*
0 Add a 4 corners polygon primitive as box body*
4,1,4,$2,$3,$4,$5,$6,$7,$8,$9,$2,$3,0*
0 Add four circle primitives for the rounded corners*
1,1,$1+$1,$2,$3*
1,1,$1+$1,$4,$5*
1,1,$1+$1,$6,$7*
1,1,$1+$1,$8,$9*
0 Add four rect primitives between the rounded corners*
20,1,$1+$1,$2,$3,$4,$5,0*
20,1,$1+$1,$4,$5,$6,$7,0*
20,1,$1+$1,$6,$7,$8,$9,0*
20,1,$1+$1,$8,$9,$2,$3,0*%
%AMFreePoly0*
4,1,136,3.383385,4.221938,3.559722,4.168447,3.722236,4.081581,3.864680,3.964680,3.981581,3.822236,4.068447,3.659722,4.121938,3.483385,4.125213,3.450138,4.182769,3.539508,4.186818,3.554319,4.232803,3.599839,4.295387,3.616268,4.357802,3.599205,4.403322,3.553220,4.419751,3.490636,4.402688,3.428221,4.402685,3.428218,4.172864,3.069999,4.056927,2.918726,3.981581,2.777764,
3.864680,2.635320,3.750000,2.541204,3.750000,0.022998,4.066621,-0.229499,4.408387,-0.546611,4.440740,-0.602647,4.440740,-0.667351,4.408387,-0.723387,4.352351,-0.755740,4.287647,-0.755740,4.231611,-0.723387,4.223834,-0.709917,3.889556,-0.400914,3.520256,-0.109781,3.483169,-0.085000,2.500000,-0.085000,2.500000,-1.185000,3.750000,-1.185000,3.750000,-2.745000,-3.750000,-2.745000,
-3.750000,-1.185000,-2.500000,-1.185000,-2.500000,-0.085000,-3.483168,-0.085000,-3.520257,-0.109782,-3.889557,-0.400914,-4.223835,-0.709917,-4.231612,-0.723388,-4.287648,-0.755741,-4.352352,-0.755741,-4.408388,-0.723388,-4.440741,-0.667352,-4.440741,-0.602648,-4.408388,-0.546612,-4.066622,-0.229500,-3.750000,0.022998,-3.750000,2.541204,-3.864680,2.635320,-3.981581,2.777764,-4.057059,2.918973,
-4.182136,3.083248,-4.410822,3.442198,-4.427688,3.504666,-4.411060,3.567198,-4.365394,3.613038,-4.302926,3.629904,-4.240394,3.613276,-4.194554,3.567610,-4.190552,3.552787,-4.125171,3.450557,-4.121938,3.483385,-4.068447,3.659722,-3.981581,3.822236,-3.864680,3.964680,-3.722236,4.081581,-3.559722,4.168447,-3.383385,4.221938,-3.200000,4.240000,-3.137500,4.223253,-3.091747,4.177500,
-3.075000,4.115000,-3.091747,4.052500,-3.137500,4.006747,-3.200000,3.990000,-3.211471,3.993074,-3.354511,3.976957,-3.501274,3.925602,-3.632930,3.842877,-3.742877,3.732930,-3.825602,3.601274,-3.876957,3.454511,-3.894366,3.300000,-3.876957,3.145489,-3.839657,3.038894,-3.713800,2.875371,-3.594054,2.745000,-2.998152,2.745000,-3.015000,3.045000,-2.998253,3.107500,-2.952500,3.153253,
-2.890000,3.170000,-2.827500,3.153253,-2.781747,3.107500,-2.765000,3.045000,-2.768849,3.030634,-2.752213,2.745000,2.752213,2.745000,2.768849,3.030634,2.765000,3.045000,2.781747,3.107500,2.827500,3.153253,2.890000,3.170000,2.952500,3.153253,2.998253,3.107500,3.015000,3.045000,2.998152,2.745000,3.594234,2.745000,3.703871,2.863608,3.839648,3.038866,3.876957,3.145489,
3.894366,3.300000,3.876957,3.454511,3.825602,3.601274,3.742877,3.732930,3.632930,3.842877,3.501274,3.925602,3.354511,3.976957,3.211471,3.993074,3.200000,3.990000,3.137500,4.006747,3.091747,4.052500,3.075000,4.115000,3.091747,4.177500,3.137500,4.223253,3.200000,4.240000,3.383385,4.221938,3.383385,4.221938,$1*%
%AMFreePoly1*
4,1,6,1.000000,-1.000000,-1.000000,-1.000000,-1.000000,0.750000,-0.750000,1.000000,1.000000,1.000000,1.000000,-1.000000,1.000000,-1.000000,$1*%
%AMFreePoly2*
4,1,18,-0.124998,0.730000,0.725000,0.730000,0.728536,0.728536,0.730000,0.725000,0.730000,-0.725000,0.728536,-0.728536,0.725000,-0.730000,-0.725000,-0.730000,-0.728536,-0.728536,-0.730000,-0.725000,-0.730000,0.124998,-0.730001,0.125000,-0.728536,0.128536,-0.128536,0.728535,-0.128536,0.728536,-0.126768,0.729268,-0.125000,0.730001,-0.124998,0.730000,-0.124998,0.730000,$1*%
%AMFreePoly3*
4,1,43,1.102950,0.110584,1.224483,0.068057,1.333507,-0.000447,1.424553,-0.091493,1.493057,-0.200517,1.535584,-0.322050,1.550000,-0.450000,1.533253,-0.512500,1.487500,-0.558253,1.425000,-0.575000,1.362500,-0.558253,1.316747,-0.512500,1.300000,-0.450000,1.302546,-0.440498,1.287946,-0.348318,1.241208,-0.256589,1.168411,-0.183792,1.076682,-0.137054,0.984502,-0.122454,0.975000,-0.125000,
-0.975000,-0.125000,-0.984502,-0.122454,-1.076682,-0.137054,-1.168411,-0.183792,-1.241208,-0.256589,-1.287946,-0.348318,-1.302546,-0.440498,-1.300000,-0.450000,-1.316747,-0.512500,-1.362500,-0.558253,-1.425000,-0.575000,-1.487500,-0.558253,-1.533253,-0.512500,-1.550000,-0.450000,-1.535584,-0.322050,-1.493057,-0.200517,-1.424553,-0.091493,-1.333507,-0.000447,-1.224483,0.068057,-1.102950,0.110584,
-0.975000,0.125000,0.975000,0.125000,1.102950,0.110584,1.102950,0.110584,$1*%
%AMFreePoly4*
4,1,24,1.812500,0.558253,1.858253,0.512500,1.875000,0.450000,1.860584,0.322050,1.818057,0.200517,1.749553,0.091493,1.658507,0.000447,1.549483,-0.068057,1.427950,-0.110584,1.300000,-0.125000,-1.300000,-0.125000,-1.300000,0.125000,1.300000,0.125000,1.309502,0.122454,1.401682,0.137054,1.493411,0.183792,1.566208,0.256589,1.612946,0.348318,1.627546,0.440498,1.625000,0.450000,
1.641747,0.512500,1.687500,0.558253,1.750000,0.575000,1.812500,0.558253,1.812500,0.558253,$1*%
%AMFreePoly5*
4,1,37,1.095671,1.230970,1.176777,1.176777,1.230970,1.095671,1.250000,1.000000,1.234611,0.804457,1.188821,0.613729,1.113759,0.432512,1.011272,0.265269,0.883885,0.116117,0.734733,-0.011271,0.567490,-0.113758,0.386273,-0.188820,0.195545,-0.234610,0.000002,-0.250000,-0.095669,-0.230970,-0.176775,-0.176777,-0.230968,-0.095671,-0.249998,0.000000,-0.230968,0.095671,-0.176775,0.176777,
-0.095669,0.230970,0.000002,0.250000,0.012204,0.247573,0.147027,0.260852,0.288403,0.303738,0.418695,0.373381,0.532897,0.467104,0.626620,0.581306,0.696263,0.711599,0.739148,0.852974,0.752427,0.987798,0.750000,1.000000,0.769030,1.095671,0.823223,1.176777,0.904329,1.230970,1.000000,1.250000,1.095671,1.230970,1.095671,1.230970,$1*%
%AMFreePoly6*
4,1,72,4.686563,7.086550,4.817878,7.046716,4.938899,6.982029,5.044975,6.894975,5.132029,6.788899,5.196716,6.667878,5.236550,6.536563,5.250000,6.400000,5.250000,1.600000,5.230970,1.504329,5.176777,1.423223,5.112500,1.380275,5.112500,0.250000,6.600000,0.250000,6.695671,0.230970,6.776777,0.176777,6.830970,0.095671,6.850000,0.000000,6.830970,-0.095671,6.776777,-0.176777,
6.695671,-0.230970,6.600000,-0.250000,0.000000,-0.250000,-0.095671,-0.230970,-0.176777,-0.176777,-0.230970,-0.095671,-0.250000,0.000000,-0.230970,0.095671,-0.176777,0.176777,-0.095671,0.230970,0.000000,0.250000,4.612500,0.250000,4.612500,1.600000,4.631530,1.695671,4.685723,1.776777,4.750000,1.819725,4.750000,6.400000,4.751388,6.406978,4.742582,6.462574,4.713820,6.519022,
4.669022,6.563820,4.612574,6.592582,4.556978,6.601388,4.550000,6.600000,1.550000,6.600000,1.543022,6.601388,1.487426,6.592582,1.430978,6.563820,1.386180,6.519022,1.357418,6.462574,1.348612,6.406978,1.350000,6.400000,1.350000,5.900000,1.330970,5.804329,1.276777,5.723223,1.195671,5.669030,1.100000,5.650000,1.004329,5.669030,0.923223,5.723223,0.869030,5.804329,
0.850000,5.900000,0.850000,6.400000,0.863450,6.536563,0.903284,6.667878,0.967971,6.788899,1.055025,6.894975,1.161101,6.982029,1.282122,7.046716,1.413437,7.086550,1.550000,7.100000,4.550000,7.100000,4.686563,7.086550,4.686563,7.086550,$1*%
G04 Aperture macros list end*
%TA.AperFunction,SMDPad,CuDef*%
%ADD10RoundRect,0.200000X-0.275000X0.200000X-0.275000X-0.200000X0.275000X-0.200000X0.275000X0.200000X0*%
%TD*%
%TA.AperFunction,SMDPad,CuDef*%
%ADD11R,0.600000X1.140000*%
%TD*%
%TA.AperFunction,SMDPad,CuDef*%
%ADD12RoundRect,0.075000X-0.075000X-0.495000X0.075000X-0.495000X0.075000X0.495000X-0.075000X0.495000X0*%
%TD*%
%TA.AperFunction,ComponentPad*%
%ADD13C,0.600000*%
%TD*%
%TA.AperFunction,SMDPad,CuDef*%
%ADD14R,5.000000X5.490000*%
%TD*%
%TA.AperFunction,ComponentPad*%
%ADD15C,1.500000*%
%TD*%
%TA.AperFunction,ComponentPad*%
%ADD16C,1.250000*%
%TD*%
%TA.AperFunction,SMDPad,CuDef*%
%ADD17FreePoly0,0.000000*%
%TD*%
%TA.AperFunction,SMDPad,CuDef*%
%ADD18RoundRect,0.062500X0.062500X-0.287500X0.062500X0.287500X-0.062500X0.287500X-0.062500X-0.287500X0*%
%TD*%
%TA.AperFunction,SMDPad,CuDef*%
%ADD19RoundRect,0.062500X0.287500X-0.062500X0.287500X0.062500X-0.287500X0.062500X-0.287500X-0.062500X0*%
%TD*%
%TA.AperFunction,ComponentPad*%
%ADD20C,0.350000*%
%TD*%
%TA.AperFunction,SMDPad,CuDef*%
%ADD21FreePoly1,90.000000*%
%TD*%
%TA.AperFunction,SMDPad,CuDef*%
%ADD22RoundRect,0.200000X0.275000X-0.200000X0.275000X0.200000X-0.275000X0.200000X-0.275000X-0.200000X0*%
%TD*%
%TA.AperFunction,SMDPad,CuDef*%
%ADD23R,0.500000X0.850000*%
%TD*%
%TA.AperFunction,SMDPad,CuDef*%
%ADD24RoundRect,0.250001X-0.462499X-0.624999X0.462499X-0.624999X0.462499X0.624999X-0.462499X0.624999X0*%
%TD*%
%TA.AperFunction,SMDPad,CuDef*%
%ADD25RoundRect,0.225000X0.250000X-0.225000X0.250000X0.225000X-0.250000X0.225000X-0.250000X-0.225000X0*%
%TD*%
%TA.AperFunction,SMDPad,CuDef*%
%ADD26R,2.150000X0.700000*%
%TD*%
%TA.AperFunction,SMDPad,CuDef*%
%ADD27R,0.700000X2.150000*%
%TD*%
%TA.AperFunction,ComponentPad*%
%ADD28RoundRect,0.250000X-0.600000X-0.675000X0.600000X-0.675000X0.600000X0.675000X-0.600000X0.675000X0*%
%TD*%
%TA.AperFunction,ComponentPad*%
%ADD29O,1.700000X1.850000*%
%TD*%
%TA.AperFunction,SMDPad,CuDef*%
%ADD30R,0.400000X0.800000*%
%TD*%
%TA.AperFunction,SMDPad,CuDef*%
%ADD31R,0.800000X0.400000*%
%TD*%
%TA.AperFunction,SMDPad,CuDef*%
%ADD32R,1.450000X1.450000*%
%TD*%
%TA.AperFunction,SMDPad,CuDef*%
%ADD33R,0.700000X0.700000*%
%TD*%
%TA.AperFunction,SMDPad,CuDef*%
%ADD34FreePoly2,270.000000*%
%TD*%
%TA.AperFunction,SMDPad,CuDef*%
%ADD35RoundRect,0.200000X-0.200000X-0.275000X0.200000X-0.275000X0.200000X0.275000X-0.200000X0.275000X0*%
%TD*%
%TA.AperFunction,SMDPad,CuDef*%
%ADD36R,3.700000X1.425000*%
%TD*%
%TA.AperFunction,SMDPad,CuDef*%
%ADD37R,1.100000X0.600000*%
%TD*%
%TA.AperFunction,SMDPad,CuDef*%
%ADD38FreePoly3,90.000000*%
%TD*%
%TA.AperFunction,SMDPad,CuDef*%
%ADD39RoundRect,0.249375X0.625625X-0.463125X0.625625X0.463125X-0.625625X0.463125X-0.625625X-0.463125X0*%
%TD*%
%TA.AperFunction,SMDPad,CuDef*%
%ADD40RoundRect,0.225000X0.225000X0.250000X-0.225000X0.250000X-0.225000X-0.250000X0.225000X-0.250000X0*%
%TD*%
%TA.AperFunction,SMDPad,CuDef*%
%ADD41R,0.500000X2.000000*%
%TD*%
%TA.AperFunction,SMDPad,CuDef*%
%ADD42FreePoly4,90.000000*%
%TD*%
%TA.AperFunction,SMDPad,CuDef*%
%ADD43R,2.000000X0.500000*%
%TD*%
%TA.AperFunction,SMDPad,CuDef*%
%ADD44FreePoly5,90.000000*%
%TD*%
%TA.AperFunction,SMDPad,CuDef*%
%ADD45RoundRect,0.250000X-0.250000X-0.475000X0.250000X-0.475000X0.250000X0.475000X-0.250000X0.475000X0*%
%TD*%
%TA.AperFunction,SMDPad,CuDef*%
%ADD46FreePoly6,90.000000*%
%TD*%
%TA.AperFunction,SMDPad,CuDef*%
%ADD47R,4.000000X0.500000*%
%TD*%
G04 APERTURE END LIST*
D10*
%TO.P,R1,1*%
%TO.N,Net-(J3-PadA5)*%
X107000000Y-113850000D03*
%TO.P,R1,2*%
%TO.N,GND*%
X107000000Y-115500000D03*
%TD*%
D11*
%TO.P,J3,A1,GND*%
%TO.N,GND*%
X93850000Y-135440000D03*
%TO.P,J3,A4,VBUS*%
%TO.N,VBUS*%
X94650000Y-135440000D03*
D12*
%TO.P,J3,A5,CC1*%
%TO.N,Net-(J3-PadA5)*%
X95800000Y-135440000D03*
%TO.P,J3,A6,D+*%
%TO.N,D+*%
X96800000Y-135440000D03*
%TO.P,J3,A7,D-*%
%TO.N,D-*%
X97300000Y-135440000D03*
%TO.P,J3,A8,SBU1*%
%TO.N,unconnected-(J3-PadA8)*%
X98300000Y-135440000D03*
D11*
%TO.P,J3,A9,VBUS*%
%TO.N,VBUS*%
X99450000Y-135440000D03*
%TO.P,J3,A12,GND*%
%TO.N,GND*%
X100250000Y-135440000D03*
%TO.P,J3,B1,GND*%
X100250000Y-135440000D03*
%TO.P,J3,B4,VBUS*%
%TO.N,VBUS*%
X99450000Y-135440000D03*
D12*
%TO.P,J3,B5,CC2*%
%TO.N,Net-(J3-PadB5)*%
X98800000Y-135440000D03*
%TO.P,J3,B6,D+*%
%TO.N,D+*%
X97800000Y-135440000D03*
%TO.P,J3,B7,D-*%
%TO.N,D-*%
X96300000Y-135440000D03*
%TO.P,J3,B8,SBU2*%
%TO.N,unconnected-(J3-PadB8)*%
X95300000Y-135440000D03*
D11*
%TO.P,J3,B9,VBUS*%
%TO.N,VBUS*%
X94650000Y-135440000D03*
%TO.P,J3,B12,GND*%
%TO.N,GND*%
X93850000Y-135440000D03*
D13*
%TO.P,J3,S1,SHIELD*%
X94160000Y-136510000D03*
D14*
X97050000Y-139555000D03*
D15*
X92730000Y-136020000D03*
D16*
X92730000Y-140190000D03*
D13*
X99940000Y-136510000D03*
D15*
X101370000Y-136020000D03*
D17*
X97050000Y-139555000D03*
D16*
X101370000Y-140190000D03*
%TD*%
D18*
%TO.P,U3,1,RXD*%
%TO.N,O*%
X103750000Y-131900000D03*
%TO.P,U3,2,~{RI}*%
%TO.N,GND*%
X104250000Y-131900000D03*
%TO.P,U3,3,GND*%
X104750000Y-131900000D03*
%TO.P,U3,4,~{DSR}*%
X105250000Y-131900000D03*
%TO.P,U3,5,~{DCD}*%
X105750000Y-131900000D03*
D19*
%TO.P,U3,6,~{CTS}*%
X106650000Y-131000000D03*
%TO.P,U3,7,CBUS2*%
%TO.N,unconnected-(U3-Pad7)*%
X106650000Y-130500000D03*
%TO.P,U3,8,USBDP*%
%TO.N,D+*%
X106650000Y-130000000D03*
%TO.P,U3,9,USBDM*%
%TO.N,D-*%
X106650000Y-129500000D03*
%TO.P,U3,10,3V3OUT*%
%TO.N,+3V3*%
X106650000Y-129000000D03*
D18*
%TO.P,U3,11,~{RESET}*%
X105750000Y-128100000D03*
%TO.P,U3,12,VCC*%
X105250000Y-128100000D03*
%TO.P,U3,13,GND*%
%TO.N,GND*%
X104750000Y-128100000D03*
%TO.P,U3,14,CBUS1*%
%TO.N,unconnected-(U3-Pad14)*%
X104250000Y-128100000D03*
%TO.P,U3,15,CBUS0*%
%TO.N,unconnected-(U3-Pad15)*%
X103750000Y-128100000D03*
D19*
%TO.P,U3,16,CBUS3*%
%TO.N,unconnected-(U3-Pad16)*%
X102850000Y-129000000D03*
%TO.P,U3,17,TXD*%
%TO.N,I*%
X102850000Y-129500000D03*
%TO.P,U3,18,~{DTR}*%
%TO.N,BOOT*%
X102850000Y-130000000D03*
%TO.P,U3,19,~{RTS}*%
%TO.N,EN*%
X102850000Y-130500000D03*
%TO.P,U3,20,VCCIO*%
%TO.N,+3V3*%
X102850000Y-131000000D03*
D20*
%TO.P,U3,21,GND*%
%TO.N,GND*%
X104750000Y-130000000D03*
D21*
X104750000Y-130000000D03*
%TD*%
D10*
%TO.P,R2,1*%
%TO.N,GND*%
X98500000Y-114925000D03*
%TO.P,R2,2*%
%TO.N,Net-(J3-PadB5)*%
X98500000Y-116575000D03*
%TD*%
D22*
%TO.P,R6,1*%
%TO.N,Net-(D2-Pad2)*%
X114200000Y-133475000D03*
%TO.P,R6,2*%
%TO.N,R*%
X114200000Y-131825000D03*
%TD*%
%TO.P,R7,1*%
%TO.N,Net-(D2-Pad3)*%
X116500000Y-133475000D03*
%TO.P,R7,2*%
%TO.N,G*%
X116500000Y-131825000D03*
%TD*%
%TO.P,R8,1*%
%TO.N,Net-(D2-Pad4)*%
X115350000Y-133475000D03*
%TO.P,R8,2*%
%TO.N,B*%
X115350000Y-131825000D03*
%TD*%
D23*
%TO.P,D2,1,A*%
%TO.N,+3V3*%
X119250000Y-131775000D03*
%TO.P,D2,2,RK*%
%TO.N,Net-(D2-Pad2)*%
X119250000Y-133525000D03*
%TO.P,D2,3,GK*%
%TO.N,Net-(D2-Pad3)*%
X118250000Y-133525000D03*
%TO.P,D2,4,BK*%
%TO.N,Net-(D2-Pad4)*%
X118250000Y-131775000D03*
%TD*%
D24*
%TO.P,D1,1,K*%
%TO.N,DC*%
X110812500Y-114750000D03*
%TO.P,D1,2,A*%
%TO.N,VBUS*%
X113787500Y-114750000D03*
%TD*%
D25*
%TO.P,C1,1*%
%TO.N,+3V3*%
X95250000Y-116250000D03*
%TO.P,C1,2*%
%TO.N,GND*%
X95250000Y-114700000D03*
%TD*%
D26*
%TO.P,U2,1*%
%TO.N,N/C*%
X95800000Y-131200000D03*
%TO.P,U2,2,3D_FIX*%
%TO.N,FIX*%
X95800000Y-130200000D03*
%TO.P,U2,3,I2C_SDA*%
%TO.N,unconnected-(U2-Pad3)*%
X95800000Y-129200000D03*
%TO.P,U2,4,GND*%
%TO.N,GND*%
X95800000Y-128200000D03*
%TO.P,U2,5,GND*%
X95800000Y-127200000D03*
%TO.P,U2,6,I2C_SCL*%
%TO.N,unconnected-(U2-Pad6)*%
X95800000Y-126200000D03*
%TO.P,U2,7,EXTINT0*%
%TO.N,unconnected-(U2-Pad7)*%
X95800000Y-125200000D03*
%TO.P,U2,8,V_BCKP*%
%TO.N,unconnected-(U2-Pad8)*%
X95800000Y-124200000D03*
%TO.P,U2,9,VCC*%
%TO.N,+3V3*%
X95800000Y-123200000D03*
%TO.P,U2,10,GND*%
%TO.N,GND*%
X95800000Y-122200000D03*
%TO.P,U2,11,GND*%
X95800000Y-121200000D03*
%TO.P,U2,12,GND*%
X95800000Y-120200000D03*
%TO.P,U2,13,GND*%
X95800000Y-119050000D03*
%TO.P,U2,14,GND*%
X86200000Y-119050000D03*
%TO.P,U2,15,GND*%
X86200000Y-120200000D03*
%TO.P,U2,16,RF_OUT*%
%TO.N,unconnected-(U2-Pad16)*%
X86200000Y-121200000D03*
%TO.P,U2,17,RF_IN*%
%TO.N,unconnected-(U2-Pad17)*%
X86200000Y-122200000D03*
%TO.P,U2,18,GND*%
%TO.N,GND*%
X86200000Y-123200000D03*
%TO.P,U2,19,GND*%
X86200000Y-124200000D03*
%TO.P,U2,20,JAM_DET*%
%TO.N,JAM*%
X86200000Y-125200000D03*
%TO.P,U2,21,GND*%
%TO.N,GND*%
X86200000Y-126200000D03*
%TO.P,U2,22,GND*%
X86200000Y-127200000D03*
%TO.P,U2,23,~{RESET}*%
%TO.N,GPSRST*%
X86200000Y-128200000D03*
%TO.P,U2,24,GEO_FENCE*%
%TO.N,FENCE*%
X86200000Y-129200000D03*
%TO.P,U2,25,TXD1*%
%TO.N,GPSTX*%
X86200000Y-130200000D03*
%TO.P,U2,26,RXD1*%
%TO.N,GPSRX*%
X86200000Y-131200000D03*
D27*
%TO.P,U2,27,GND*%
%TO.N,GND*%
X89000000Y-132000000D03*
%TO.P,U2,28,FORCE_ON*%
%TO.N,GPSON*%
X90000000Y-132000000D03*
%TO.P,U2,29,TIMEPULSE*%
%TO.N,TICK*%
X91000000Y-132000000D03*
%TO.P,U2,30,ANTON*%
%TO.N,unconnected-(U2-Pad30)*%
X92000000Y-132000000D03*
%TO.P,U2,31,GND*%
%TO.N,GND*%
X93000000Y-132000000D03*
%TD*%
D28*
%TO.P,J2,1,Pin_1*%
%TO.N,unconnected-(J2-Pad1)*%
X105100000Y-135650000D03*
D29*
%TO.P,J2,2,Pin_2*%
%TO.N,unconnected-(J2-Pad2)*%
X107600000Y-135650000D03*
%TO.P,J2,3,Pin_3*%
%TO.N,unconnected-(J2-Pad3)*%
X110100000Y-135650000D03*
%TO.P,J2,4,Pin_4*%
%TO.N,unconnected-(J2-Pad4)*%
X112600000Y-135650000D03*
%TO.P,J2,5,Pin_5*%
%TO.N,unconnected-(J2-Pad5)*%
X115100000Y-135650000D03*
%TO.P,J2,6,Pin_6*%
%TO.N,unconnected-(J2-Pad6)*%
X117600000Y-135650000D03*
%TD*%
D30*
%TO.P,U1,1,GND*%
%TO.N,GND*%
X118456750Y-118450000D03*
%TO.P,U1,2,GND*%
X117656750Y-118450000D03*
%TO.P,U1,3,3V3*%
%TO.N,+3V3*%
X116856750Y-118450000D03*
%TO.P,U1,4,I36*%
%TO.N,FIX*%
X116056750Y-118450000D03*
%TO.P,U1,5,I37*%
%TO.N,JAM*%
X115256750Y-118450000D03*
%TO.P,U1,6,I38*%
%TO.N,FENCE*%
X114456750Y-118450000D03*
%TO.P,U1,7,I39*%
%TO.N,unconnected-(U1-Pad7)*%
X113656750Y-118450000D03*
%TO.P,U1,8,EN*%
%TO.N,EN*%
X112856750Y-118450000D03*
%TO.P,U1,9,I34*%
%TO.N,BAT*%
X112056750Y-118450000D03*
%TO.P,U1,10,I35*%
%TO.N,TICK*%
X111256750Y-118450000D03*
%TO.P,U1,11,GND*%
%TO.N,GND*%
X110456750Y-118450000D03*
D31*
%TO.P,U1,12,IO32*%
%TO.N,unconnected-(U1-Pad12)*%
X109556750Y-119550000D03*
%TO.P,U1,13,IO33*%
%TO.N,unconnected-(U1-Pad13)*%
X109556750Y-120350000D03*
%TO.P,U1,14,GND*%
%TO.N,GND*%
X109556750Y-121150000D03*
%TO.P,U1,15,IO25*%
%TO.N,G*%
X109556750Y-121950000D03*
%TO.P,U1,16,IO26*%
%TO.N,R*%
X109556750Y-122750000D03*
%TO.P,U1,17,IO27*%
%TO.N,B*%
X109556750Y-123550000D03*
%TO.P,U1,18,IO14*%
%TO.N,unconnected-(U1-Pad18)*%
X109556750Y-124350000D03*
%TO.P,U1,19,IO12*%
%TO.N,unconnected-(U1-Pad19)*%
X109556750Y-125150000D03*
%TO.P,U1,20,IO13*%
%TO.N,unconnected-(U1-Pad20)*%
X109556750Y-125950000D03*
%TO.P,U1,21,IO15*%
%TO.N,unconnected-(U1-Pad21)*%
X109556750Y-126750000D03*
%TO.P,U1,22,IO2*%
%TO.N,unconnected-(U1-Pad22)*%
X109556750Y-127550000D03*
%TO.P,U1,23,IO0*%
%TO.N,BOOT*%
X109556750Y-128350000D03*
%TO.P,U1,24,IO4*%
%TO.N,unconnected-(U1-Pad24)*%
X109556750Y-129150000D03*
D30*
%TO.P,U1,25,NC*%
%TO.N,unconnected-(U1-Pad25)*%
X110456750Y-130250000D03*
%TO.P,U1,26,IO20*%
%TO.N,GPSTX*%
X111256750Y-130250000D03*
%TO.P,U1,27,IO7*%
%TO.N,unconnected-(U1-Pad27)*%
X112056750Y-130250000D03*
%TO.P,U1,28,IO8*%
%TO.N,unconnected-(U1-Pad28)*%
X112856750Y-130250000D03*
%TO.P,U1,29,IO5*%
%TO.N,unconnected-(U1-Pad29)*%
X113656750Y-130250000D03*
%TO.P,U1,30,RXD0*%
%TO.N,I*%
X114456750Y-130250000D03*
%TO.P,U1,31,TXD0*%
%TO.N,O*%
X115256750Y-130250000D03*
%TO.P,U1,32,NC*%
%TO.N,unconnected-(U1-Pad32)*%
X116056750Y-130250000D03*
%TO.P,U1,33,IO19*%
%TO.N,GPSRX*%
X116856750Y-130250000D03*
%TO.P,U1,34,IO22*%
%TO.N,GPSON*%
X117656750Y-130250000D03*
%TO.P,U1,35,IO21*%
%TO.N,GPSRST*%
X118456750Y-130250000D03*
D31*
%TO.P,U1,36,GND*%
%TO.N,GND*%
X119356750Y-129150000D03*
%TO.P,U1,37,GND*%
X119356750Y-128350000D03*
%TO.P,U1,38,GND*%
X119356750Y-127550000D03*
%TO.P,U1,39,GND*%
X119356750Y-126750000D03*
%TO.P,U1,40,GND*%
X119356750Y-125950000D03*
%TO.P,U1,41,GND*%
X119356750Y-125150000D03*
%TO.P,U1,42,GND*%
X119356750Y-124350000D03*
%TO.P,U1,43,GND*%
X119356750Y-123550000D03*
%TO.P,U1,44,GND*%
X119356750Y-122750000D03*
%TO.P,U1,45,GND*%
X119356750Y-121950000D03*
%TO.P,U1,46,GND*%
X119356750Y-121150000D03*
%TO.P,U1,47,GND*%
X119356750Y-120350000D03*
%TO.P,U1,48,GND*%
X119356750Y-119550000D03*
D32*
%TO.P,U1,49,GND*%
X114456750Y-124350000D03*
D33*
%TO.P,U1,50,GND*%
X119406750Y-130300000D03*
%TO.P,U1,51,GND*%
X109506750Y-130300000D03*
%TO.P,U1,52,GND*%
X109506750Y-118400000D03*
%TO.P,U1,53,GND*%
X119406750Y-118400000D03*
D32*
%TO.P,U1,54,GND*%
X114456750Y-122400000D03*
%TO.P,U1,55,GND*%
X112506750Y-122400000D03*
%TO.P,U1,56,GND*%
X112506750Y-124350000D03*
%TO.P,U1,57,GND*%
X112506750Y-126300000D03*
%TO.P,U1,58,GND*%
X114456750Y-126300000D03*
%TO.P,U1,59,GND*%
X116406750Y-126300000D03*
%TO.P,U1,60,GND*%
X116406750Y-124350000D03*
D34*
%TO.P,U1,61,GND*%
X116406750Y-122400000D03*
%TD*%
D35*
%TO.P,R9,1*%
%TO.N,GND*%
X114975000Y-113450000D03*
%TO.P,R9,2*%
%TO.N,Net-(R5-Pad2)*%
X116625000Y-113450000D03*
%TD*%
D28*
%TO.P,J1,1,Pin_1*%
%TO.N,GND*%
X86500000Y-135650000D03*
D29*
%TO.P,J1,2,Pin_2*%
%TO.N,DC*%
X89000000Y-135650000D03*
%TD*%
D36*
%TO.P,U4,*%
%TO.N,*%
X101800000Y-121350000D03*
D37*
X103100000Y-122800000D03*
D38*
X102200000Y-124225000D03*
D39*
X104920000Y-122952500D03*
D40*
X102775000Y-125850000D03*
X101225000Y-125850000D03*
D41*
X103100000Y-121850000D03*
D37*
X100400000Y-122800000D03*
D42*
X101300000Y-124550000D03*
D43*
X104050000Y-122800000D03*
D37*
%TO.P,U4,1,SHDN*%
%TO.N,DC*%
X103100000Y-124700000D03*
%TO.P,U4,2,VIN*%
X103100000Y-123750000D03*
D44*
X104300000Y-124810000D03*
D45*
X104350000Y-124600000D03*
D37*
%TO.P,U4,3,GND*%
%TO.N,GND*%
X100400000Y-123750000D03*
D39*
X104920000Y-119987500D03*
D45*
X106250000Y-124600000D03*
D46*
X106250000Y-124850000D03*
D45*
X106250000Y-118350000D03*
D47*
%TO.P,U4,4,VOUT*%
%TO.N,+3V3*%
X102550000Y-118350000D03*
D45*
X104350000Y-118350000D03*
D36*
X101800000Y-118350000D03*
D37*
%TO.P,U4,5,FB*%
%TO.N,Net-(R5-Pad2)*%
X100400000Y-124700000D03*
%TD*%
D35*
%TO.P,R3,1*%
%TO.N,BAT*%
X90925000Y-116250000D03*
%TO.P,R3,2*%
%TO.N,DC*%
X92575000Y-116250000D03*
%TD*%
D22*
%TO.P,R5,1*%
%TO.N,+3V3*%
X118000000Y-115075000D03*
%TO.P,R5,2*%
%TO.N,Net-(R5-Pad2)*%
X118000000Y-113425000D03*
%TD*%
D35*
%TO.P,R4,1*%
%TO.N,GND*%
X86175000Y-116000000D03*
%TO.P,R4,2*%
%TO.N,BAT*%
X87825000Y-116000000D03*
%TD*%
M02*
