%TF.GenerationSoftware,KiCad,Pcbnew,(6.0.5-0)*%
%TF.CreationDate,2022-08-15T14:40:05+01:00*%
%TF.ProjectId,GPS,4750532e-6b69-4636-9164-5f7063625858,5*%
%TF.SameCoordinates,Original*%
%TF.FileFunction,Paste,Bot*%
%TF.FilePolarity,Positive*%
%FSLAX46Y46*%
G04 Gerber Fmt 4.6, Leading zero omitted, Abs format (unit mm)*
G04 Created by KiCad (PCBNEW (6.0.5-0)) date 2022-08-15 14:40:05*
%MOMM*%
%LPD*%
G01*
G04 APERTURE LIST*
G04 Aperture macros list*
%AMRoundRect*
0 Rectangle with rounded corners*
0 $1 Rounding radius*
0 $2 $3 $4 $5 $6 $7 $8 $9 X,Y pos of 4 corners*
0 Add a 4 corners polygon primitive as box body*
4,1,4,$2,$3,$4,$5,$6,$7,$8,$9,$2,$3,0*
0 Add four circle primitives for the rounded corners*
1,1,$1+$1,$2,$3*
1,1,$1+$1,$4,$5*
1,1,$1+$1,$6,$7*
1,1,$1+$1,$8,$9*
0 Add four rect primitives between the rounded corners*
20,1,$1+$1,$2,$3,$4,$5,0*
20,1,$1+$1,$4,$5,$6,$7,0*
20,1,$1+$1,$6,$7,$8,$9,0*
20,1,$1+$1,$8,$9,$2,$3,0*%
%AMFreePoly0*
4,1,6,0.696000,-0.696000,-0.118488,-0.696000,-0.696000,-0.118488,-0.696000,0.696000,0.696000,0.696000,0.696000,-0.696000,0.696000,-0.696000,$1*%
G04 Aperture macros list end*
%ADD10RoundRect,0.186000X-0.189000X0.189000X-0.189000X-0.189000X0.189000X-0.189000X0.189000X0.189000X0*%
%ADD11RoundRect,0.048500X-0.071500X0.287500X-0.071500X-0.287500X0.071500X-0.287500X0.071500X0.287500X0*%
%ADD12RoundRect,0.057500X-0.278500X0.062500X-0.278500X-0.062500X0.278500X-0.062500X0.278500X0.062500X0*%
%ADD13RoundRect,0.184000X-0.272000X0.200000X-0.272000X-0.200000X0.272000X-0.200000X0.272000X0.200000X0*%
%ADD14RoundRect,0.184000X0.200000X0.272000X-0.200000X0.272000X-0.200000X-0.272000X0.200000X-0.272000X0*%
%ADD15R,0.480000X0.816000*%
%ADD16RoundRect,0.184000X-0.200000X-0.272000X0.200000X-0.272000X0.200000X0.272000X-0.200000X0.272000X0*%
%ADD17RoundRect,0.232500X-0.232500X0.232500X-0.232500X-0.232500X0.232500X-0.232500X0.232500X0.232500X0*%
%ADD18R,0.798000X0.420000*%
%ADD19RoundRect,0.069000X-0.478200X0.075000X-0.478200X-0.075000X0.478200X-0.075000X0.478200X0.075000X0*%
%ADD20R,0.768000X0.384000*%
%ADD21R,0.384000X0.768000*%
%ADD22R,1.392000X1.392000*%
%ADD23FreePoly0,0.000000*%
%ADD24R,0.672000X0.672000*%
%ADD25RoundRect,0.225000X0.375000X0.615000X-0.375000X0.615000X-0.375000X-0.615000X0.375000X-0.615000X0*%
%ADD26RoundRect,0.207000X-0.225000X-0.249000X0.225000X-0.249000X0.225000X0.249000X-0.225000X0.249000X0*%
%ADD27R,1.056000X0.576000*%
%ADD28RoundRect,0.250000X0.250000X-0.350000X0.250000X0.350000X-0.250000X0.350000X-0.250000X-0.350000X0*%
%ADD29RoundRect,0.220875X0.619125X-0.463125X0.619125X0.463125X-0.619125X0.463125X-0.619125X-0.463125X0*%
%ADD30RoundRect,0.230000X0.250000X0.466000X-0.250000X0.466000X-0.250000X-0.466000X0.250000X-0.466000X0*%
%ADD31RoundRect,0.184000X0.272000X-0.200000X0.272000X0.200000X-0.272000X0.200000X-0.272000X-0.200000X0*%
G04 APERTURE END LIST*
D10*
%TO.C,U3*%
X100500000Y-136000000D03*
X101500000Y-135000000D03*
X100500000Y-135000000D03*
X101500000Y-136000000D03*
D11*
X100000000Y-133600000D03*
X100500000Y-133600000D03*
X101000000Y-133600000D03*
X101500000Y-133600000D03*
X102000000Y-133600000D03*
D12*
X102900000Y-134500000D03*
X102900000Y-135000000D03*
X102900000Y-135500000D03*
X102900000Y-136000000D03*
X102900000Y-136500000D03*
D11*
X102000000Y-137400000D03*
X101500000Y-137400000D03*
X101000000Y-137400000D03*
X100500000Y-137400000D03*
X100000000Y-137400000D03*
D12*
X99100000Y-136500000D03*
X99100000Y-136000000D03*
X99100000Y-135500000D03*
X99100000Y-135000000D03*
X99100000Y-134500000D03*
%TD*%
D13*
%TO.C,R1*%
X97500000Y-132850000D03*
X97500000Y-134500000D03*
%TD*%
D14*
%TO.C,R5*%
X106325000Y-134750000D03*
X104675000Y-134750000D03*
%TD*%
D15*
%TO.C,D2*%
X87250000Y-131125000D03*
X87250000Y-132875000D03*
X88250000Y-132875000D03*
X88250000Y-131125000D03*
%TD*%
D16*
%TO.C,R3*%
X104675000Y-137750000D03*
X106325000Y-137750000D03*
%TD*%
D14*
%TO.C,R4*%
X106325000Y-136000000D03*
X104675000Y-136000000D03*
%TD*%
D17*
%TO.C,J2*%
X111650000Y-137215000D03*
X110500000Y-133765000D03*
X112800000Y-134915000D03*
X111650000Y-136065000D03*
X110500000Y-136065000D03*
X112800000Y-137215000D03*
X112800000Y-133765000D03*
X111650000Y-133765000D03*
X110500000Y-134915000D03*
X110500000Y-137215000D03*
X111650000Y-134915000D03*
X112800000Y-136065000D03*
D18*
X108075000Y-132300000D03*
X108075000Y-133100000D03*
D19*
X108075000Y-134250000D03*
X108075000Y-135250000D03*
X108075000Y-135750000D03*
X108075000Y-136750000D03*
D18*
X108075000Y-138700000D03*
X108075000Y-137900000D03*
D19*
X108075000Y-137250000D03*
X108075000Y-136250000D03*
X108075000Y-134750000D03*
X108075000Y-133750000D03*
%TD*%
D13*
%TO.C,R10*%
X91200000Y-131175000D03*
X91200000Y-132825000D03*
%TD*%
D20*
%TO.C,U2*%
X85850000Y-150306750D03*
X85850000Y-149506750D03*
X85850000Y-148706750D03*
X85850000Y-147906750D03*
X85850000Y-147106750D03*
X85850000Y-146306750D03*
X85850000Y-145506750D03*
X85850000Y-144706750D03*
X85850000Y-143906750D03*
X85850000Y-143106750D03*
X85850000Y-142306750D03*
D21*
X86950000Y-141406750D03*
X87750000Y-141406750D03*
X88550000Y-141406750D03*
X89350000Y-141406750D03*
X90150000Y-141406750D03*
X90950000Y-141406750D03*
X91750000Y-141406750D03*
X92550000Y-141406750D03*
X93350000Y-141406750D03*
X94150000Y-141406750D03*
X94950000Y-141406750D03*
X95750000Y-141406750D03*
X96550000Y-141406750D03*
D20*
X97650000Y-142306750D03*
X97650000Y-143106750D03*
X97650000Y-143906750D03*
X97650000Y-144706750D03*
X97650000Y-145506750D03*
X97650000Y-146306750D03*
X97650000Y-147106750D03*
X97650000Y-147906750D03*
X97650000Y-148706750D03*
X97650000Y-149506750D03*
X97650000Y-150306750D03*
D21*
X96550000Y-151206750D03*
X95750000Y-151206750D03*
X94950000Y-151206750D03*
X94150000Y-151206750D03*
X93350000Y-151206750D03*
X92550000Y-151206750D03*
X91750000Y-151206750D03*
X90950000Y-151206750D03*
X90150000Y-151206750D03*
X89350000Y-151206750D03*
X88550000Y-151206750D03*
X87750000Y-151206750D03*
X86950000Y-151206750D03*
D22*
X89775000Y-144331750D03*
X91750000Y-144331750D03*
X93725000Y-144331750D03*
D23*
X89775000Y-148281750D03*
D22*
X91750000Y-146306750D03*
X93725000Y-148281750D03*
X93725000Y-146306750D03*
X89775000Y-146306750D03*
X91750000Y-148281750D03*
D24*
X97700000Y-151256750D03*
X97700000Y-141356750D03*
X85800000Y-141356750D03*
X85800000Y-151256750D03*
%TD*%
D25*
%TO.C,D1*%
X112400000Y-142500000D03*
X109600000Y-142500000D03*
%TD*%
D16*
%TO.C,R7*%
X101175000Y-139000000D03*
X102825000Y-139000000D03*
%TD*%
D13*
%TO.C,R9*%
X89800000Y-131175000D03*
X89800000Y-132825000D03*
%TD*%
D26*
%TO.C,U4*%
X104325000Y-150800000D03*
D27*
X105150000Y-147750000D03*
X102450000Y-147750000D03*
D28*
X103750000Y-146300000D03*
D26*
X102775000Y-150800000D03*
D28*
X103750000Y-143300000D03*
D29*
X100630000Y-147902500D03*
D28*
X102600000Y-146300000D03*
X102600000Y-143300000D03*
X104900000Y-143300000D03*
X104900000Y-146300000D03*
D27*
X102450000Y-149650000D03*
D30*
X101200000Y-149550000D03*
D27*
X102450000Y-148700000D03*
D30*
X99300000Y-143300000D03*
D29*
X100630000Y-144937500D03*
D30*
X99300000Y-149550000D03*
D27*
X105150000Y-148700000D03*
D30*
X101200000Y-143300000D03*
D27*
X105150000Y-149650000D03*
%TD*%
D31*
%TO.C,R12*%
X106500000Y-151325000D03*
X106500000Y-149675000D03*
%TD*%
D14*
%TO.C,R6*%
X102825000Y-140500000D03*
X101175000Y-140500000D03*
%TD*%
D13*
%TO.C,R11*%
X92600000Y-132825000D03*
X92600000Y-131175000D03*
%TD*%
D16*
%TO.C,C1*%
X100225000Y-132000000D03*
X101775000Y-132000000D03*
%TD*%
D14*
%TO.C,R2*%
X106325000Y-133000000D03*
X104675000Y-133000000D03*
%TD*%
D13*
%TO.C,R8*%
X106500000Y-142175000D03*
X106500000Y-143825000D03*
%TD*%
M02*
