%TF.GenerationSoftware,KiCad,Pcbnew,(6.0.2-0)*%
%TF.CreationDate,2022-03-10T12:45:53+00:00*%
%TF.ProjectId,GPS,4750532e-6b69-4636-9164-5f7063625858,5*%
%TF.SameCoordinates,Original*%
%TF.FileFunction,Copper,L1,Top*%
%TF.FilePolarity,Positive*%
%FSLAX46Y46*%
G04 Gerber Fmt 4.6, Leading zero omitted, Abs format (unit mm)*
G04 Created by KiCad (PCBNEW (6.0.2-0)) date 2022-03-10 12:45:53*
%MOMM*%
%LPD*%
G01*
G04 APERTURE LIST*
G04 Aperture macros list*
%AMRoundRect*
0 Rectangle with rounded corners*
0 $1 Rounding radius*
0 $2 $3 $4 $5 $6 $7 $8 $9 X,Y pos of 4 corners*
0 Add a 4 corners polygon primitive as box body*
4,1,4,$2,$3,$4,$5,$6,$7,$8,$9,$2,$3,0*
0 Add four circle primitives for the rounded corners*
1,1,$1+$1,$2,$3*
1,1,$1+$1,$4,$5*
1,1,$1+$1,$6,$7*
1,1,$1+$1,$8,$9*
0 Add four rect primitives between the rounded corners*
20,1,$1+$1,$2,$3,$4,$5,0*
20,1,$1+$1,$4,$5,$6,$7,0*
20,1,$1+$1,$6,$7,$8,$9,0*
20,1,$1+$1,$8,$9,$2,$3,0*%
%AMOutline5P*
0 Free polygon, 5 corners , with rotation*
0 The origin of the aperture is its center*
0 number of corners: always 5*
0 $1 to $10 corner X, Y*
0 $11 Rotation angle, in degrees counterclockwise*
0 create outline with 5 corners*
4,1,5,$1,$2,$3,$4,$5,$6,$7,$8,$9,$10,$1,$2,$11*%
%AMOutline6P*
0 Free polygon, 6 corners , with rotation*
0 The origin of the aperture is its center*
0 number of corners: always 6*
0 $1 to $12 corner X, Y*
0 $13 Rotation angle, in degrees counterclockwise*
0 create outline with 6 corners*
4,1,6,$1,$2,$3,$4,$5,$6,$7,$8,$9,$10,$11,$12,$1,$2,$13*%
%AMOutline7P*
0 Free polygon, 7 corners , with rotation*
0 The origin of the aperture is its center*
0 number of corners: always 7*
0 $1 to $14 corner X, Y*
0 $15 Rotation angle, in degrees counterclockwise*
0 create outline with 7 corners*
4,1,7,$1,$2,$3,$4,$5,$6,$7,$8,$9,$10,$11,$12,$13,$14,$1,$2,$15*%
%AMOutline8P*
0 Free polygon, 8 corners , with rotation*
0 The origin of the aperture is its center*
0 number of corners: always 8*
0 $1 to $16 corner X, Y*
0 $17 Rotation angle, in degrees counterclockwise*
0 create outline with 8 corners*
4,1,8,$1,$2,$3,$4,$5,$6,$7,$8,$9,$10,$11,$12,$13,$14,$15,$16,$1,$2,$17*%
G04 Aperture macros list end*
%TA.AperFunction,ComponentPad*%
%ADD10RoundRect,0.250000X-0.600000X-0.675000X0.600000X-0.675000X0.600000X0.675000X-0.600000X0.675000X0*%
%TD*%
%TA.AperFunction,ComponentPad*%
%ADD11O,1.700000X1.850000*%
%TD*%
%TA.AperFunction,SMDPad,CuDef*%
%ADD12R,0.400000X0.800000*%
%TD*%
%TA.AperFunction,SMDPad,CuDef*%
%ADD13R,0.800000X0.400000*%
%TD*%
%TA.AperFunction,SMDPad,CuDef*%
%ADD14Outline5P,-0.725000X0.130500X-0.130500X0.725000X0.725000X0.725000X0.725000X-0.725000X-0.725000X-0.725000X90.000000*%
%TD*%
%TA.AperFunction,SMDPad,CuDef*%
%ADD15R,1.450000X1.450000*%
%TD*%
%TA.AperFunction,SMDPad,CuDef*%
%ADD16R,0.700000X0.700000*%
%TD*%
%TA.AperFunction,SMDPad,CuDef*%
%ADD17R,0.600000X1.140000*%
%TD*%
%TA.AperFunction,SMDPad,CuDef*%
%ADD18RoundRect,0.075000X-0.075000X-0.495000X0.075000X-0.495000X0.075000X0.495000X-0.075000X0.495000X0*%
%TD*%
%TA.AperFunction,ComponentPad*%
%ADD19C,0.670000*%
%TD*%
%TA.AperFunction,ComponentPad*%
%ADD20C,1.250000*%
%TD*%
%TA.AperFunction,ComponentPad*%
%ADD21C,1.500000*%
%TD*%
%TA.AperFunction,SMDPad,CuDef*%
%ADD22R,7.500000X5.250000*%
%TD*%
%TA.AperFunction,SMDPad,CuDef*%
%ADD23RoundRect,0.500000X0.000000X0.750000X0.000000X-0.750000X0.000000X-0.750000X0.000000X0.750000X0*%
%TD*%
%TA.AperFunction,SMDPad,CuDef*%
%ADD24R,2.250000X1.500000*%
%TD*%
%TA.AperFunction,ViaPad*%
%ADD25C,0.800000*%
%TD*%
%TA.AperFunction,Conductor*%
%ADD26C,0.250000*%
%TD*%
%TA.AperFunction,Conductor*%
%ADD27C,0.500000*%
%TD*%
G04 APERTURE END LIST*
D10*
%TO.P,J1,1,GND*%
%TO.N,GND*%
X99000000Y-121650000D03*
D11*
%TO.P,J1,2,DC*%
%TO.N,DC*%
X101500000Y-121650000D03*
%TD*%
D12*
%TO.P,U2,1,GND*%
%TO.N,GND*%
X86550000Y-127600000D03*
%TO.P,U2,2,GND*%
X87350000Y-127600000D03*
%TO.P,U2,3,3V3*%
%TO.N,+3V3*%
X88150000Y-127600000D03*
%TO.P,U2,4,I36*%
%TO.N,unconnected-(U2-Pad4)*%
X88950000Y-127600000D03*
%TO.P,U2,5,I37*%
%TO.N,unconnected-(U2-Pad5)*%
X89750000Y-127600000D03*
%TO.P,U2,6,I38*%
%TO.N,unconnected-(U2-Pad6)*%
X90550000Y-127600000D03*
%TO.P,U2,7,I39*%
%TO.N,unconnected-(U2-Pad7)*%
X91350000Y-127600000D03*
%TO.P,U2,8,EN*%
%TO.N,EN*%
X92150000Y-127600000D03*
%TO.P,U2,9,I34*%
%TO.N,unconnected-(U2-Pad9)*%
X92950000Y-127600000D03*
%TO.P,U2,10,I35*%
%TO.N,unconnected-(U2-Pad10)*%
X93750000Y-127600000D03*
%TO.P,U2,11,GND*%
%TO.N,GND*%
X94550000Y-127600000D03*
D13*
%TO.P,U2,12,IO32*%
%TO.N,GPSRX*%
X95450000Y-126500000D03*
%TO.P,U2,13,IO33*%
%TO.N,TICK*%
X95450000Y-125700000D03*
%TO.P,U2,14,GND*%
%TO.N,GND*%
X95450000Y-124900000D03*
%TO.P,U2,15,IO25*%
%TO.N,GPSTX*%
X95450000Y-124100000D03*
%TO.P,U2,16,IO26*%
%TO.N,unconnected-(U2-Pad16)*%
X95450000Y-123300000D03*
%TO.P,U2,17,IO27*%
%TO.N,unconnected-(U2-Pad17)*%
X95450000Y-122500000D03*
%TO.P,U2,18,IO14*%
%TO.N,unconnected-(U2-Pad18)*%
X95450000Y-121700000D03*
%TO.P,U2,19,IO12*%
%TO.N,unconnected-(U2-Pad19)*%
X95450000Y-120900000D03*
%TO.P,U2,20,IO13*%
%TO.N,unconnected-(U2-Pad20)*%
X95450000Y-120100000D03*
%TO.P,U2,21,IO15*%
%TO.N,unconnected-(U2-Pad21)*%
X95450000Y-119300000D03*
%TO.P,U2,22,IO2*%
%TO.N,unconnected-(U2-Pad22)*%
X95450000Y-118500000D03*
%TO.P,U2,23,IO0*%
%TO.N,BOOT*%
X95450000Y-117700000D03*
%TO.P,U2,24,IO4*%
%TO.N,unconnected-(U2-Pad24)*%
X95450000Y-116900000D03*
D12*
%TO.P,U2,25,NC*%
%TO.N,unconnected-(U2-Pad25)*%
X94550000Y-115800000D03*
%TO.P,U2,26,IO20*%
%TO.N,unconnected-(U2-Pad26)*%
X93750000Y-115800000D03*
%TO.P,U2,27,IO7*%
%TO.N,unconnected-(U2-Pad27)*%
X92950000Y-115800000D03*
%TO.P,U2,28,IO8*%
%TO.N,unconnected-(U2-Pad28)*%
X92150000Y-115800000D03*
%TO.P,U2,29,IO5*%
%TO.N,unconnected-(U2-Pad29)*%
X91350000Y-115800000D03*
%TO.P,U2,30,RXD0*%
%TO.N,I*%
X90550000Y-115800000D03*
%TO.P,U2,31,TXD0*%
%TO.N,O*%
X89750000Y-115800000D03*
%TO.P,U2,32,NC*%
%TO.N,unconnected-(U2-Pad32)*%
X88950000Y-115800000D03*
%TO.P,U2,33,IO19*%
%TO.N,G*%
X88150000Y-115800000D03*
%TO.P,U2,34,IO22*%
%TO.N,R*%
X87350000Y-115800000D03*
%TO.P,U2,35,IO21*%
%TO.N,B*%
X86550000Y-115800000D03*
D13*
%TO.P,U2,36,GND*%
%TO.N,GND*%
X85650000Y-116900000D03*
%TO.P,U2,37,GND*%
X85650000Y-117700000D03*
%TO.P,U2,38,GND*%
X85650000Y-118500000D03*
%TO.P,U2,39,GND*%
X85650000Y-119300000D03*
%TO.P,U2,40,GND*%
X85650000Y-120100000D03*
%TO.P,U2,41,GND*%
X85650000Y-120900000D03*
%TO.P,U2,42,GND*%
X85650000Y-121700000D03*
%TO.P,U2,43,GND*%
X85650000Y-122500000D03*
%TO.P,U2,44,GND*%
X85650000Y-123300000D03*
%TO.P,U2,45,GND*%
X85650000Y-124100000D03*
%TO.P,U2,46,GND*%
X85650000Y-124900000D03*
%TO.P,U2,47,GND*%
X85650000Y-125700000D03*
%TO.P,U2,48,GND*%
X85650000Y-126500000D03*
D14*
%TO.P,U2,49,GND*%
X88575000Y-123675000D03*
D15*
X92525000Y-123675000D03*
X92525000Y-119725000D03*
X90550000Y-123675000D03*
X88575000Y-121700000D03*
X92525000Y-121700000D03*
X88575000Y-119725000D03*
X90550000Y-119725000D03*
X90550000Y-121700000D03*
D16*
%TO.P,U2,50,GND*%
X85600000Y-115750000D03*
%TO.P,U2,51,GND*%
X95500000Y-115750000D03*
%TO.P,U2,52,GND*%
X95500000Y-127650000D03*
%TO.P,U2,53,GND*%
X85600000Y-127650000D03*
%TD*%
D17*
%TO.P,J2,A1,GND*%
%TO.N,GND*%
X105550000Y-121390000D03*
%TO.P,J2,A4,VBUS*%
%TO.N,VBUS*%
X106350000Y-121390000D03*
D18*
%TO.P,J2,A5,CC1*%
%TO.N,Net-(J2-PadA5)*%
X107500000Y-121390000D03*
%TO.P,J2,A6,D+*%
%TO.N,Net-(J2-PadA6)*%
X108500000Y-121390000D03*
%TO.P,J2,A7,D-*%
%TO.N,Net-(J2-PadA7)*%
X109000000Y-121390000D03*
%TO.P,J2,A8,SBU1*%
%TO.N,unconnected-(J2-PadA8)*%
X110000000Y-121390000D03*
D17*
%TO.P,J2,A9,VBUS*%
%TO.N,VBUS*%
X111150000Y-121390000D03*
%TO.P,J2,A12,GND*%
%TO.N,GND*%
X111950000Y-121390000D03*
%TO.P,J2,B1,GND*%
X111950000Y-121390000D03*
%TO.P,J2,B4,VBUS*%
%TO.N,VBUS*%
X111150000Y-121390000D03*
D18*
%TO.P,J2,B5,CC2*%
%TO.N,Net-(J2-PadB5)*%
X110500000Y-121390000D03*
%TO.P,J2,B6,D+*%
%TO.N,Net-(J2-PadA6)*%
X109500000Y-121390000D03*
%TO.P,J2,B7,D-*%
%TO.N,Net-(J2-PadA7)*%
X108000000Y-121390000D03*
%TO.P,J2,B8,SBU2*%
%TO.N,unconnected-(J2-PadB8)*%
X107000000Y-121390000D03*
D17*
%TO.P,J2,B9,VBUS*%
%TO.N,VBUS*%
X106350000Y-121390000D03*
%TO.P,J2,B12,GND*%
%TO.N,GND*%
X105550000Y-121390000D03*
D19*
%TO.P,J2,S1,SHIELD*%
X111640000Y-122460000D03*
D20*
X113070000Y-126140000D03*
D21*
X104430000Y-121970000D03*
D22*
X108750000Y-125375000D03*
D21*
X113070000Y-121970000D03*
D19*
X105860000Y-122460000D03*
D20*
X104430000Y-126140000D03*
%TD*%
D23*
%TO.P,U1,1,RXD1*%
%TO.N,GPSRX*%
X93450000Y-107950000D03*
D24*
X92825000Y-107450000D03*
D23*
%TO.P,U1,2,TXD1*%
%TO.N,GPSTX*%
X95990000Y-107950000D03*
%TO.P,U1,3,GND*%
%TO.N,GND*%
X98530000Y-107950000D03*
%TO.P,U1,4,VCC*%
%TO.N,+3V3*%
X101070000Y-107950000D03*
%TO.P,U1,5,V_BKCP*%
%TO.N,Net-(BT1-Pad1)*%
X103610000Y-107950000D03*
%TO.P,U1,6,1PPS*%
%TO.N,TICK*%
X106150000Y-107950000D03*
%TO.P,U1,7,FORCE_ON*%
%TO.N,unconnected-(U1-Pad7)*%
X106150000Y-92450000D03*
%TO.P,U1,8,AADET_N*%
%TO.N,unconnected-(U1-Pad8)*%
X103610000Y-92450000D03*
%TO.P,U1,9,NC*%
%TO.N,unconnected-(U1-Pad9)*%
X101070000Y-92450000D03*
%TO.P,U1,10,RESET*%
%TO.N,unconnected-(U1-Pad10)*%
X98530000Y-92450000D03*
%TO.P,U1,11,EX_ANT*%
%TO.N,unconnected-(U1-Pad11)*%
X95990000Y-92450000D03*
%TO.P,U1,12,GND*%
%TO.N,GND*%
X93450000Y-92450000D03*
%TD*%
D25*
%TO.N,GND*%
X90550000Y-124950000D03*
X86550000Y-126700000D03*
X90650000Y-119750000D03*
X98750000Y-116500000D03*
X92500000Y-105000000D03*
X97200000Y-106200000D03*
X114000000Y-119000000D03*
%TO.N,+3V3*%
X100750000Y-106250000D03*
X94467851Y-122956805D03*
X98700480Y-115450480D03*
X88050000Y-126700000D03*
X92250000Y-116799502D03*
X97300000Y-127500000D03*
%TO.N,VBUS*%
X103500000Y-124750000D03*
%TO.N,O*%
X89555834Y-116644967D03*
%TO.N,I*%
X89550000Y-117700000D03*
%TO.N,Net-(J2-PadA5)*%
X103000000Y-119750000D03*
%TO.N,Net-(J2-PadA6)*%
X103000000Y-117750000D03*
%TO.N,EN*%
X91250000Y-116799502D03*
X92050000Y-125950000D03*
%TO.N,BOOT*%
X96482724Y-115405483D03*
%TO.N,G*%
X87202514Y-119579594D03*
%TO.N,R*%
X89050000Y-124999500D03*
%TO.N,B*%
X86701978Y-117707654D03*
%TO.N,Net-(J2-PadB5)*%
X103000000Y-116750000D03*
%TO.N,TICK*%
X94750000Y-106250000D03*
X94300000Y-125700000D03*
%TO.N,Net-(BT1-Pad1)*%
X103250000Y-106250000D03*
%TO.N,GPSTX*%
X96000000Y-106250000D03*
X94450498Y-124700000D03*
%TO.N,GPSRX*%
X93250000Y-106250000D03*
X93383989Y-126550314D03*
%TO.N,Net-(J2-PadA7)*%
X103000000Y-118750000D03*
%TD*%
D26*
%TO.N,BOOT*%
X96300000Y-115588207D02*
G75*
G02*
X96482724Y-115405483I182725J-1D01*
G01*
X95800000Y-117700000D02*
G75*
G03*
X96300000Y-117200000I-1J500001D01*
G01*
X96300000Y-115588207D02*
X96300000Y-117200000D01*
X95800000Y-117700000D02*
X95450000Y-117700000D01*
%TO.N,I*%
X90550000Y-115800000D02*
X90550000Y-116072183D01*
X89550000Y-117699999D02*
G75*
G03*
X89806066Y-117593934I-1J362135D01*
G01*
X90000000Y-117400000D02*
G75*
G03*
X90550000Y-116072183I-1327826J1327821D01*
G01*
X90000000Y-117400000D02*
X89806066Y-117593934D01*
%TO.N,+3V3*%
X101070000Y-107950000D02*
X101070000Y-106570000D01*
X94467851Y-122956805D02*
X94467851Y-117667851D01*
X92325500Y-116799502D02*
X93599502Y-116799502D01*
X98700480Y-115450480D02*
X98253916Y-115897044D01*
X88150000Y-127600000D02*
X88150000Y-126800000D01*
X97300000Y-118200000D02*
X97300000Y-127500000D01*
X93599502Y-116799502D02*
G75*
G02*
X94467851Y-117667851I-2J-868351D01*
G01*
X88050000Y-126700000D02*
G75*
G02*
X88150000Y-126800000I1J-99999D01*
G01*
X100750000Y-106250000D02*
G75*
G02*
X101070000Y-106570000I-1J-320001D01*
G01*
X97300000Y-118200000D02*
G75*
G02*
X98253916Y-115897044I3256873J-1D01*
G01*
%TO.N,VBUS*%
X102250000Y-116750000D02*
X102250000Y-119750000D01*
X102995489Y-120495489D02*
X103254511Y-120495489D01*
X106350000Y-120750000D02*
X106350000Y-121390000D01*
X103355489Y-120596467D02*
X103355489Y-124605489D01*
X103254511Y-120495489D02*
X106095489Y-120495489D01*
X111150000Y-121390000D02*
X111150000Y-121150000D01*
X106025499Y-116025499D02*
X102974501Y-116025499D01*
X103500000Y-124750000D02*
G75*
G02*
X103355489Y-124605489I-1J144510D01*
G01*
X102250000Y-116750000D02*
G75*
G02*
X102974501Y-116025499I724500J1D01*
G01*
X106025499Y-116025499D02*
G75*
G02*
X111150000Y-121150000I-1J-5124502D01*
G01*
X106350000Y-120750000D02*
G75*
G03*
X106095489Y-120495489I-254513J-2D01*
G01*
X102995489Y-120495489D02*
G75*
G02*
X102250000Y-119750000I1J745490D01*
G01*
%TO.N,O*%
X89750000Y-115800000D02*
X89750000Y-116450801D01*
X89555834Y-116644967D02*
G75*
G03*
X89750000Y-116450801I0J194166D01*
G01*
%TO.N,Net-(J2-PadA5)*%
X106495006Y-119750000D02*
X103000000Y-119750000D01*
X107500000Y-121390000D02*
X107500000Y-120754994D01*
X106495006Y-119750000D02*
G75*
G02*
X107500000Y-120754994I0J-1004994D01*
G01*
%TO.N,Net-(J2-PadA6)*%
X103000000Y-117750000D02*
X106000000Y-117750000D01*
X108500000Y-121390000D02*
X108500000Y-121900000D01*
X109500000Y-121390000D02*
X109500000Y-121250000D01*
X109500000Y-121900000D02*
X109500000Y-121390000D01*
X109500000Y-121900000D02*
G75*
G02*
X109000000Y-122400000I-500001J1D01*
G01*
X109000000Y-122400000D02*
G75*
G02*
X108500000Y-121900000I1J500001D01*
G01*
X106000000Y-117750000D02*
G75*
G02*
X109500000Y-121250000I1J-3499999D01*
G01*
%TO.N,EN*%
X91300000Y-116800000D02*
X91300000Y-116799502D01*
X93574511Y-124724511D02*
X93574511Y-118074511D01*
X92150000Y-127600000D02*
X92150000Y-126050000D01*
X92150000Y-126050000D02*
X92050000Y-125950000D01*
X92050000Y-125950000D02*
X92349022Y-125950000D01*
X93150000Y-117650000D02*
X92150000Y-117650000D01*
X93150000Y-117650000D02*
G75*
G02*
X93574511Y-118074511I1J-424510D01*
G01*
X91300000Y-116800000D02*
G75*
G03*
X92150000Y-117650000I849999J-1D01*
G01*
X93574511Y-124724511D02*
G75*
G02*
X92349022Y-125950000I-1225488J-1D01*
G01*
%TO.N,G*%
X88150000Y-117498960D02*
X88150000Y-115800000D01*
X87578771Y-118671229D02*
X87725000Y-118525000D01*
X88149999Y-117498960D02*
G75*
G02*
X87725000Y-118525000I-1451039J0D01*
G01*
X87578771Y-118671229D02*
G75*
G03*
X87202514Y-119579594I908363J-908364D01*
G01*
%TO.N,R*%
X87750498Y-124999502D02*
X87199502Y-124999502D01*
X89050000Y-124999500D02*
X87750500Y-124999500D01*
X87550000Y-117650000D02*
X87550000Y-116632842D01*
X87157148Y-118457148D02*
X87257048Y-118357247D01*
X86576534Y-119037762D02*
X87157148Y-118457148D01*
X87750500Y-124999500D02*
X87750498Y-124999502D01*
X86374511Y-124174511D02*
X86374511Y-119525489D01*
X87350000Y-116150000D02*
X87350000Y-115800000D01*
X86576534Y-119037762D02*
G75*
G03*
X86374511Y-119525489I487726J-487727D01*
G01*
X87549999Y-117650000D02*
G75*
G02*
X87257047Y-118357246I-1000196J0D01*
G01*
X86374511Y-124174511D02*
G75*
G03*
X87199502Y-124999502I824990J-1D01*
G01*
X87350000Y-116150000D02*
G75*
G02*
X87550000Y-116632842I-482839J-482841D01*
G01*
%TO.N,B*%
X86550000Y-115800000D02*
X86550000Y-117555676D01*
X86701978Y-117707654D02*
G75*
G02*
X86550000Y-117555676I-1J151977D01*
G01*
%TO.N,Net-(J2-PadB5)*%
X110500000Y-121390000D02*
X110500000Y-121250000D01*
X106000000Y-116750000D02*
X103000000Y-116750000D01*
X106000000Y-116750000D02*
G75*
G02*
X110500000Y-121250000I2J-4499998D01*
G01*
%TO.N,TICK*%
X95750000Y-105250000D02*
X105050000Y-105250000D01*
X106150000Y-106350000D02*
X106150000Y-107950000D01*
X95450000Y-125700000D02*
X94300000Y-125700000D01*
X95750000Y-105250000D02*
G75*
G03*
X94750000Y-106250000I-1J-999999D01*
G01*
X106150000Y-106350000D02*
G75*
G03*
X105050000Y-105250000I-1100002J-2D01*
G01*
D27*
%TO.N,Net-(BT1-Pad1)*%
X103610000Y-107950000D02*
X103610000Y-106610000D01*
X103610000Y-106610000D02*
X103250000Y-106250000D01*
D26*
%TO.N,GPSTX*%
X95450000Y-124100000D02*
X95050498Y-124100000D01*
X95990000Y-107950000D02*
X95990000Y-106260000D01*
X94450498Y-124700000D02*
G75*
G02*
X95050498Y-124100000I600000J0D01*
G01*
X96000000Y-106250000D02*
G75*
G03*
X95990000Y-106260000I0J-10000D01*
G01*
%TO.N,GPSRX*%
X95450000Y-126500000D02*
X93434303Y-126500000D01*
X93450000Y-107950000D02*
X93450000Y-106450000D01*
X93250000Y-106250000D02*
G75*
G02*
X93450000Y-106450000I-1J-200001D01*
G01*
X93383989Y-126550314D02*
G75*
G02*
X93434303Y-126500000I50315J-1D01*
G01*
%TO.N,Net-(J2-PadA7)*%
X109000000Y-120800000D02*
X109000000Y-121390000D01*
X108000000Y-121390000D02*
X108000000Y-120800000D01*
X106950000Y-118750000D02*
X103000000Y-118750000D01*
X108500000Y-120300000D02*
G75*
G03*
X108000000Y-120800000I1J-500001D01*
G01*
X106950000Y-118750000D02*
G75*
G02*
X108500000Y-120300000I2J-1549998D01*
G01*
X109000000Y-120800000D02*
G75*
G03*
X108500000Y-120300000I-500001J-1D01*
G01*
%TD*%
%TA.AperFunction,Conductor*%
%TO.N,GND*%
G36*
X112987153Y-85256421D02*
G01*
X113000000Y-85258976D01*
X113012171Y-85256555D01*
X113024581Y-85256555D01*
X113024581Y-85257198D01*
X113035326Y-85256527D01*
X113239491Y-85271129D01*
X113257285Y-85273687D01*
X113483101Y-85322810D01*
X113500350Y-85327875D01*
X113583148Y-85358757D01*
X113716877Y-85408635D01*
X113733226Y-85416102D01*
X113936049Y-85526852D01*
X113951173Y-85536571D01*
X114136176Y-85675063D01*
X114149762Y-85686836D01*
X114313164Y-85850238D01*
X114324937Y-85863824D01*
X114463429Y-86048827D01*
X114473148Y-86063951D01*
X114583898Y-86266774D01*
X114591367Y-86283127D01*
X114672125Y-86499650D01*
X114677190Y-86516899D01*
X114726313Y-86742715D01*
X114728871Y-86760509D01*
X114743473Y-86964674D01*
X114742802Y-86975419D01*
X114743445Y-86975419D01*
X114743445Y-86987829D01*
X114741024Y-87000000D01*
X114743445Y-87012170D01*
X114743579Y-87012844D01*
X114746000Y-87037425D01*
X114746000Y-126212575D01*
X114743579Y-126237153D01*
X114741024Y-126250000D01*
X114743445Y-126262171D01*
X114743445Y-126274581D01*
X114742802Y-126274581D01*
X114743473Y-126285326D01*
X114728871Y-126489491D01*
X114726313Y-126507285D01*
X114677190Y-126733101D01*
X114672125Y-126750350D01*
X114652954Y-126801749D01*
X114593841Y-126960241D01*
X114591367Y-126966873D01*
X114583898Y-126983226D01*
X114473148Y-127186049D01*
X114463431Y-127201170D01*
X114414267Y-127266845D01*
X114324937Y-127386176D01*
X114313164Y-127399762D01*
X114149762Y-127563164D01*
X114136176Y-127574937D01*
X114025637Y-127657686D01*
X113951173Y-127713429D01*
X113936049Y-127723148D01*
X113733226Y-127833898D01*
X113716877Y-127841365D01*
X113583148Y-127891243D01*
X113500350Y-127922125D01*
X113483101Y-127927190D01*
X113257285Y-127976313D01*
X113239491Y-127978871D01*
X113035326Y-127993473D01*
X113024581Y-127992802D01*
X113024581Y-127993445D01*
X113012171Y-127993445D01*
X113000000Y-127991024D01*
X112987153Y-127993579D01*
X112962575Y-127996000D01*
X97991705Y-127996000D01*
X97923584Y-127975998D01*
X97877091Y-127922342D01*
X97866987Y-127852068D01*
X97878417Y-127817890D01*
X97877755Y-127817624D01*
X97893684Y-127778000D01*
X97936842Y-127670641D01*
X97950462Y-127574937D01*
X97958581Y-127517891D01*
X97958581Y-127517888D01*
X97959162Y-127513807D01*
X97959307Y-127500000D01*
X97940276Y-127342733D01*
X97884280Y-127194546D01*
X97819781Y-127100699D01*
X97818833Y-127099319D01*
X103835041Y-127099319D01*
X103844923Y-127111809D01*
X103882259Y-127136756D01*
X103892371Y-127142247D01*
X104073081Y-127219885D01*
X104084014Y-127223437D01*
X104275844Y-127266845D01*
X104287253Y-127268347D01*
X104483783Y-127276068D01*
X104495265Y-127275466D01*
X104689905Y-127247245D01*
X104701101Y-127244557D01*
X104887343Y-127181336D01*
X104897840Y-127176662D01*
X105016401Y-127110266D01*
X105026264Y-127100189D01*
X105025929Y-127099319D01*
X112475041Y-127099319D01*
X112484923Y-127111809D01*
X112522259Y-127136756D01*
X112532371Y-127142247D01*
X112713081Y-127219885D01*
X112724014Y-127223437D01*
X112915844Y-127266845D01*
X112927253Y-127268347D01*
X113123783Y-127276068D01*
X113135265Y-127275466D01*
X113329905Y-127247245D01*
X113341101Y-127244557D01*
X113527343Y-127181336D01*
X113537840Y-127176662D01*
X113656401Y-127110266D01*
X113666264Y-127100189D01*
X113663309Y-127092519D01*
X113082812Y-126512022D01*
X113068868Y-126504408D01*
X113067035Y-126504539D01*
X113060420Y-126508790D01*
X112481237Y-127087973D01*
X112475041Y-127099319D01*
X105025929Y-127099319D01*
X105023309Y-127092519D01*
X104442812Y-126512022D01*
X104428868Y-126504408D01*
X104427035Y-126504539D01*
X104420420Y-126508790D01*
X103841237Y-127087973D01*
X103835041Y-127099319D01*
X97818833Y-127099319D01*
X97798855Y-127070251D01*
X97798854Y-127070249D01*
X97794553Y-127063992D01*
X97721681Y-126999065D01*
X97684126Y-126938816D01*
X97679500Y-126904989D01*
X97679500Y-122980648D01*
X97699502Y-122912527D01*
X97753158Y-122866034D01*
X97823432Y-122855930D01*
X97888012Y-122885424D01*
X97894519Y-122891476D01*
X97921829Y-122918739D01*
X97933240Y-122927751D01*
X98071243Y-123012816D01*
X98084424Y-123018963D01*
X98238710Y-123070138D01*
X98252086Y-123073005D01*
X98346438Y-123082672D01*
X98352854Y-123083000D01*
X98727885Y-123083000D01*
X98743124Y-123078525D01*
X98744329Y-123077135D01*
X98746000Y-123069452D01*
X98746000Y-123064884D01*
X99254000Y-123064884D01*
X99258475Y-123080123D01*
X99259865Y-123081328D01*
X99267548Y-123082999D01*
X99647095Y-123082999D01*
X99653614Y-123082662D01*
X99749206Y-123072743D01*
X99762600Y-123069851D01*
X99916784Y-123018412D01*
X99929962Y-123012239D01*
X100067807Y-122926937D01*
X100079208Y-122917901D01*
X100193739Y-122803171D01*
X100202751Y-122791760D01*
X100287816Y-122653757D01*
X100293963Y-122640576D01*
X100345138Y-122486290D01*
X100348005Y-122472914D01*
X100354869Y-122405919D01*
X100381710Y-122340192D01*
X100439824Y-122299410D01*
X100510762Y-122296520D01*
X100572001Y-122332442D01*
X100579299Y-122340928D01*
X100696514Y-122490149D01*
X100701044Y-122494080D01*
X100701045Y-122494081D01*
X100851165Y-122624350D01*
X100851170Y-122624354D01*
X100855696Y-122628281D01*
X101038126Y-122733819D01*
X101237222Y-122802957D01*
X101243155Y-122803817D01*
X101243158Y-122803818D01*
X101439860Y-122832338D01*
X101439863Y-122832338D01*
X101445800Y-122833199D01*
X101656333Y-122823455D01*
X101662157Y-122822051D01*
X101662160Y-122822051D01*
X101855393Y-122775482D01*
X101855395Y-122775481D01*
X101861226Y-122774076D01*
X101866684Y-122771594D01*
X101866688Y-122771593D01*
X101994308Y-122713567D01*
X102053084Y-122686843D01*
X102224986Y-122564904D01*
X102370728Y-122412660D01*
X102433317Y-122315727D01*
X102481800Y-122240640D01*
X102481801Y-122240637D01*
X102485052Y-122235603D01*
X102563834Y-122040122D01*
X102604229Y-121833271D01*
X102604500Y-121827730D01*
X102604500Y-121522341D01*
X102589507Y-121365194D01*
X102530177Y-121162958D01*
X102442777Y-120993260D01*
X102435487Y-120979106D01*
X102422078Y-120909387D01*
X102448491Y-120843487D01*
X102506340Y-120802328D01*
X102577257Y-120798978D01*
X102600752Y-120807218D01*
X102609250Y-120811181D01*
X102614558Y-120812603D01*
X102614560Y-120812604D01*
X102663786Y-120825794D01*
X102799390Y-120862129D01*
X102836836Y-120865405D01*
X102860971Y-120867517D01*
X102927089Y-120893380D01*
X102968729Y-120950884D01*
X102975989Y-120993037D01*
X102975989Y-124317437D01*
X102953076Y-124389888D01*
X102918950Y-124438444D01*
X102913802Y-124451649D01*
X102876287Y-124547870D01*
X102861406Y-124586037D01*
X102860414Y-124593570D01*
X102860414Y-124593571D01*
X102843176Y-124724511D01*
X102840729Y-124743096D01*
X102849421Y-124821825D01*
X102856899Y-124889556D01*
X102858113Y-124900553D01*
X102860723Y-124907684D01*
X102860723Y-124907686D01*
X102904145Y-125026342D01*
X102912553Y-125049319D01*
X102916789Y-125055622D01*
X102916789Y-125055623D01*
X102976628Y-125144672D01*
X103000908Y-125180805D01*
X103006527Y-125185918D01*
X103006528Y-125185919D01*
X103011797Y-125190713D01*
X103118076Y-125287419D01*
X103257293Y-125363008D01*
X103336292Y-125383733D01*
X103368577Y-125392203D01*
X103429392Y-125428837D01*
X103460747Y-125492534D01*
X103452688Y-125563072D01*
X103448111Y-125572747D01*
X103381450Y-125699448D01*
X103377048Y-125710076D01*
X103318724Y-125897910D01*
X103316332Y-125909164D01*
X103293215Y-126104479D01*
X103292914Y-126115980D01*
X103305777Y-126312233D01*
X103307577Y-126323601D01*
X103355991Y-126514228D01*
X103359829Y-126525066D01*
X103442173Y-126703685D01*
X103447922Y-126713642D01*
X103457850Y-126727690D01*
X103468439Y-126736078D01*
X103481740Y-126729050D01*
X104069658Y-126141132D01*
X104794408Y-126141132D01*
X104794539Y-126142965D01*
X104798790Y-126149580D01*
X105378603Y-126729393D01*
X105390983Y-126736153D01*
X105397563Y-126731227D01*
X105466662Y-126607840D01*
X105471336Y-126597343D01*
X105534557Y-126411101D01*
X105537245Y-126399905D01*
X105565762Y-126203224D01*
X105566392Y-126195843D01*
X105567757Y-126143704D01*
X105567514Y-126136305D01*
X105565647Y-126115980D01*
X111932914Y-126115980D01*
X111945777Y-126312233D01*
X111947577Y-126323601D01*
X111995991Y-126514228D01*
X111999829Y-126525066D01*
X112082173Y-126703685D01*
X112087922Y-126713642D01*
X112097850Y-126727690D01*
X112108439Y-126736078D01*
X112121740Y-126729050D01*
X112697978Y-126152812D01*
X112704356Y-126141132D01*
X113434408Y-126141132D01*
X113434539Y-126142965D01*
X113438790Y-126149580D01*
X114018603Y-126729393D01*
X114030983Y-126736153D01*
X114037563Y-126731227D01*
X114106662Y-126607840D01*
X114111336Y-126597343D01*
X114174557Y-126411101D01*
X114177245Y-126399905D01*
X114205762Y-126203224D01*
X114206392Y-126195843D01*
X114207757Y-126143704D01*
X114207514Y-126136305D01*
X114189330Y-125938397D01*
X114187233Y-125927083D01*
X114133846Y-125737789D01*
X114129724Y-125727050D01*
X114042736Y-125550656D01*
X114041577Y-125548765D01*
X114032732Y-125542126D01*
X114020312Y-125548898D01*
X113442022Y-126127188D01*
X113434408Y-126141132D01*
X112704356Y-126141132D01*
X112705592Y-126138868D01*
X112705461Y-126137035D01*
X112701210Y-126130420D01*
X112120031Y-125549241D01*
X112107651Y-125542481D01*
X112101685Y-125546947D01*
X112021452Y-125699445D01*
X112017047Y-125710079D01*
X111958724Y-125897910D01*
X111956332Y-125909164D01*
X111933215Y-126104479D01*
X111932914Y-126115980D01*
X105565647Y-126115980D01*
X105549330Y-125938397D01*
X105547233Y-125927083D01*
X105493846Y-125737789D01*
X105489724Y-125727050D01*
X105402736Y-125550656D01*
X105401577Y-125548765D01*
X105392732Y-125542126D01*
X105380312Y-125548898D01*
X104802022Y-126127188D01*
X104794408Y-126141132D01*
X104069658Y-126141132D01*
X105018407Y-125192383D01*
X105024931Y-125180436D01*
X112474547Y-125180436D01*
X112478033Y-125188823D01*
X113057188Y-125767978D01*
X113071132Y-125775592D01*
X113072965Y-125775461D01*
X113079580Y-125771210D01*
X113658407Y-125192383D01*
X113665167Y-125180003D01*
X113659137Y-125171948D01*
X113591459Y-125129246D01*
X113581211Y-125124025D01*
X113398531Y-125051143D01*
X113387504Y-125047876D01*
X113194605Y-125009506D01*
X113183159Y-125008303D01*
X112986507Y-125005730D01*
X112975027Y-125006633D01*
X112781199Y-125039938D01*
X112770079Y-125042918D01*
X112585557Y-125110992D01*
X112575179Y-125115942D01*
X112484146Y-125170101D01*
X112474547Y-125180436D01*
X105024931Y-125180436D01*
X105025167Y-125180003D01*
X105019137Y-125171948D01*
X104951459Y-125129246D01*
X104941211Y-125124025D01*
X104758531Y-125051143D01*
X104747504Y-125047876D01*
X104554605Y-125009506D01*
X104543159Y-125008303D01*
X104346507Y-125005730D01*
X104335025Y-125006633D01*
X104289777Y-125014408D01*
X104219253Y-125006231D01*
X104164346Y-124961223D01*
X104142487Y-124893675D01*
X104143697Y-124872475D01*
X104158581Y-124767891D01*
X104158581Y-124767888D01*
X104159162Y-124763807D01*
X104159307Y-124750000D01*
X104140276Y-124592733D01*
X104084280Y-124444546D01*
X104041247Y-124381932D01*
X103998855Y-124320251D01*
X103998854Y-124320249D01*
X103994553Y-124313992D01*
X103876275Y-124208611D01*
X103802028Y-124169299D01*
X103751186Y-124119747D01*
X103734989Y-124057946D01*
X103734989Y-123231741D01*
X103754991Y-123163620D01*
X103808647Y-123117127D01*
X103878921Y-123107023D01*
X103914239Y-123117546D01*
X103993113Y-123154326D01*
X104003405Y-123158072D01*
X104205401Y-123212196D01*
X104216196Y-123214099D01*
X104424525Y-123232326D01*
X104435475Y-123232326D01*
X104643804Y-123214099D01*
X104654599Y-123212196D01*
X104856595Y-123158072D01*
X104866887Y-123154326D01*
X105056416Y-123065947D01*
X105065912Y-123060464D01*
X105107148Y-123031590D01*
X105115523Y-123021113D01*
X105115023Y-123020161D01*
X112384393Y-123020161D01*
X112393687Y-123032175D01*
X112434088Y-123060464D01*
X112443584Y-123065947D01*
X112633113Y-123154326D01*
X112643405Y-123158072D01*
X112845401Y-123212196D01*
X112856196Y-123214099D01*
X113064525Y-123232326D01*
X113075475Y-123232326D01*
X113283804Y-123214099D01*
X113294599Y-123212196D01*
X113496595Y-123158072D01*
X113506887Y-123154326D01*
X113696416Y-123065947D01*
X113705912Y-123060464D01*
X113747148Y-123031590D01*
X113755523Y-123021112D01*
X113748457Y-123007668D01*
X113082811Y-122342021D01*
X113068868Y-122334408D01*
X113067034Y-122334539D01*
X113060420Y-122338790D01*
X112390820Y-123008391D01*
X112384393Y-123020161D01*
X105115023Y-123020161D01*
X105108455Y-123007667D01*
X104159884Y-122059095D01*
X104125859Y-121996783D01*
X104130924Y-121925967D01*
X104159885Y-121880905D01*
X104430000Y-121610790D01*
X104689188Y-121351601D01*
X104702000Y-121328139D01*
X104702000Y-121262000D01*
X104722002Y-121193879D01*
X104775658Y-121147386D01*
X104828000Y-121136000D01*
X104886674Y-121136000D01*
X104912319Y-121128470D01*
X105079124Y-120961665D01*
X105141436Y-120927639D01*
X105212251Y-120932704D01*
X105257314Y-120961665D01*
X105283190Y-120987541D01*
X105293276Y-120993048D01*
X105303623Y-120965306D01*
X105306126Y-120966240D01*
X105318476Y-120929131D01*
X105373756Y-120884581D01*
X105421977Y-120874989D01*
X105669500Y-120874989D01*
X105737621Y-120894991D01*
X105784114Y-120948647D01*
X105795500Y-121000989D01*
X105795501Y-121427884D01*
X105795501Y-121518000D01*
X105775499Y-121586121D01*
X105721844Y-121632614D01*
X105669501Y-121644000D01*
X105133326Y-121644000D01*
X105107681Y-121651530D01*
X104802021Y-121957189D01*
X104794408Y-121971132D01*
X104794539Y-121972966D01*
X104798790Y-121979580D01*
X105468391Y-122649180D01*
X105480161Y-122655607D01*
X105492176Y-122646311D01*
X105520466Y-122605907D01*
X105525946Y-122596417D01*
X105551904Y-122540749D01*
X105598821Y-122487464D01*
X105666099Y-122467999D01*
X105894669Y-122467999D01*
X105901490Y-122467629D01*
X105952352Y-122462105D01*
X105967604Y-122458479D01*
X106088054Y-122413324D01*
X106103649Y-122404786D01*
X106205724Y-122328285D01*
X106218281Y-122315728D01*
X106256348Y-122264935D01*
X106313208Y-122222420D01*
X106357175Y-122214500D01*
X106663177Y-122214499D01*
X106675066Y-122214499D01*
X106749301Y-122199734D01*
X106749782Y-122202153D01*
X106803294Y-122196404D01*
X106820298Y-122201803D01*
X106820412Y-122201411D01*
X106829671Y-122204110D01*
X106838404Y-122208182D01*
X106847957Y-122209440D01*
X106847958Y-122209440D01*
X106873857Y-122212850D01*
X106886392Y-122214500D01*
X107113608Y-122214500D01*
X107161596Y-122208182D01*
X107196752Y-122191789D01*
X107266942Y-122181128D01*
X107303246Y-122191788D01*
X107338404Y-122208182D01*
X107386392Y-122214500D01*
X107613608Y-122214500D01*
X107661596Y-122208182D01*
X107696752Y-122191789D01*
X107766942Y-122181128D01*
X107803246Y-122191788D01*
X107838404Y-122208182D01*
X107886392Y-122214500D01*
X108095327Y-122214500D01*
X108163448Y-122234502D01*
X108206449Y-122281103D01*
X108265184Y-122390988D01*
X108375090Y-122524910D01*
X108509012Y-122634816D01*
X108534529Y-122648455D01*
X108656343Y-122713567D01*
X108656346Y-122713568D01*
X108661801Y-122716484D01*
X108827587Y-122766775D01*
X108988371Y-122782611D01*
X108994734Y-122783427D01*
X108995109Y-122783456D01*
X108999999Y-122784231D01*
X109000001Y-122784231D01*
X109004891Y-122783456D01*
X109005266Y-122783427D01*
X109011629Y-122782611D01*
X109172413Y-122766775D01*
X109338199Y-122716484D01*
X109343654Y-122713568D01*
X109343657Y-122713567D01*
X109465471Y-122648455D01*
X109490988Y-122634816D01*
X109624910Y-122524910D01*
X109734816Y-122390988D01*
X109793551Y-122281103D01*
X109843304Y-122230455D01*
X109904673Y-122214500D01*
X110113608Y-122214500D01*
X110161596Y-122208182D01*
X110196752Y-122191789D01*
X110266942Y-122181128D01*
X110303246Y-122191788D01*
X110338404Y-122208182D01*
X110386392Y-122214500D01*
X110613608Y-122214500D01*
X110626143Y-122212850D01*
X110652042Y-122209440D01*
X110652043Y-122209440D01*
X110661596Y-122208182D01*
X110670329Y-122204110D01*
X110679588Y-122201411D01*
X110680343Y-122204001D01*
X110736031Y-122195545D01*
X110750129Y-122199353D01*
X110750699Y-122199734D01*
X110753882Y-122200367D01*
X110753889Y-122200369D01*
X110818223Y-122213165D01*
X110824933Y-122214500D01*
X111142826Y-122214500D01*
X111210944Y-122234501D01*
X111243651Y-122264934D01*
X111281718Y-122315727D01*
X111294276Y-122328285D01*
X111396351Y-122404786D01*
X111411946Y-122413324D01*
X111532394Y-122458478D01*
X111547649Y-122462105D01*
X111598514Y-122467631D01*
X111605328Y-122468000D01*
X111833901Y-122468000D01*
X111902022Y-122488002D01*
X111948095Y-122540749D01*
X111974052Y-122596412D01*
X111979534Y-122605907D01*
X112008411Y-122647149D01*
X112018887Y-122655523D01*
X112032334Y-122648455D01*
X112697979Y-121982811D01*
X112704356Y-121971132D01*
X113434408Y-121971132D01*
X113434539Y-121972966D01*
X113438790Y-121979580D01*
X114108391Y-122649180D01*
X114120161Y-122655607D01*
X114132176Y-122646311D01*
X114160466Y-122605907D01*
X114165946Y-122596417D01*
X114254326Y-122406887D01*
X114258072Y-122396595D01*
X114312196Y-122194599D01*
X114314099Y-122183804D01*
X114332326Y-121975475D01*
X114332326Y-121964525D01*
X114314099Y-121756196D01*
X114312196Y-121745401D01*
X114258072Y-121543405D01*
X114254326Y-121533113D01*
X114165946Y-121343583D01*
X114160466Y-121334093D01*
X114131589Y-121292851D01*
X114121113Y-121284477D01*
X114107666Y-121291545D01*
X113442021Y-121957189D01*
X113434408Y-121971132D01*
X112704356Y-121971132D01*
X112705592Y-121968868D01*
X112705461Y-121967034D01*
X112701210Y-121960421D01*
X112397597Y-121656808D01*
X112374141Y-121644000D01*
X111830500Y-121644000D01*
X111762379Y-121623998D01*
X111715886Y-121570342D01*
X111704500Y-121518000D01*
X111704499Y-120982235D01*
X112204000Y-120982235D01*
X112207237Y-120993260D01*
X112214330Y-120990021D01*
X112242686Y-120961665D01*
X112304998Y-120927639D01*
X112375813Y-120932704D01*
X112420876Y-120961665D01*
X112582399Y-121123188D01*
X112605861Y-121136000D01*
X112672000Y-121136000D01*
X112740121Y-121156002D01*
X112786614Y-121209658D01*
X112798000Y-121262000D01*
X112798000Y-121320674D01*
X112805530Y-121346319D01*
X113057189Y-121597979D01*
X113071132Y-121605592D01*
X113072966Y-121605461D01*
X113079580Y-121601210D01*
X113749180Y-120931609D01*
X113755607Y-120919839D01*
X113746313Y-120907825D01*
X113705912Y-120879536D01*
X113696416Y-120874053D01*
X113506887Y-120785674D01*
X113496595Y-120781928D01*
X113294599Y-120727804D01*
X113283804Y-120725901D01*
X113075475Y-120707674D01*
X113064525Y-120707674D01*
X112855793Y-120725936D01*
X112786188Y-120711947D01*
X112735196Y-120662548D01*
X112726829Y-120644645D01*
X112703324Y-120581946D01*
X112694786Y-120566351D01*
X112618285Y-120464276D01*
X112605724Y-120451715D01*
X112503649Y-120375214D01*
X112488054Y-120366676D01*
X112367606Y-120321522D01*
X112352351Y-120317895D01*
X112301486Y-120312369D01*
X112294672Y-120312000D01*
X112222115Y-120312000D01*
X112206876Y-120316475D01*
X112205671Y-120317865D01*
X112204000Y-120325548D01*
X112204000Y-120982235D01*
X111704499Y-120982235D01*
X111704499Y-120801123D01*
X111704499Y-120794934D01*
X111698421Y-120764375D01*
X111696000Y-120739796D01*
X111696000Y-120330116D01*
X111691525Y-120314877D01*
X111690135Y-120313672D01*
X111682452Y-120312001D01*
X111605331Y-120312001D01*
X111598517Y-120312370D01*
X111589838Y-120313313D01*
X111519956Y-120300785D01*
X111467940Y-120252464D01*
X111452912Y-120213907D01*
X111384927Y-119889673D01*
X111365641Y-119797692D01*
X111262987Y-119452885D01*
X111236471Y-119363818D01*
X111236470Y-119363816D01*
X111235729Y-119361326D01*
X111233584Y-119355827D01*
X111071176Y-118939612D01*
X111071174Y-118939607D01*
X111070226Y-118937178D01*
X110870262Y-118528145D01*
X110848946Y-118492371D01*
X110701588Y-118245073D01*
X110637204Y-118137023D01*
X110465328Y-117896295D01*
X110374159Y-117768605D01*
X110374156Y-117768602D01*
X110372643Y-117766482D01*
X110137767Y-117489166D01*
X110080075Y-117421049D01*
X110080073Y-117421047D01*
X110078386Y-117419055D01*
X109756444Y-117097113D01*
X109744071Y-117086633D01*
X109547166Y-116919863D01*
X109409017Y-116802856D01*
X109398743Y-116795520D01*
X109230575Y-116675451D01*
X109038476Y-116538295D01*
X108882877Y-116445578D01*
X108649595Y-116306572D01*
X108649589Y-116306569D01*
X108647354Y-116305237D01*
X108238321Y-116105273D01*
X108235892Y-116104325D01*
X108235887Y-116104323D01*
X107816601Y-115940717D01*
X107816592Y-115940714D01*
X107814173Y-115939770D01*
X107377807Y-115809858D01*
X106932202Y-115716425D01*
X106480404Y-115660108D01*
X106266033Y-115651242D01*
X106036363Y-115641742D01*
X106036361Y-115641742D01*
X106025713Y-115641302D01*
X106025499Y-115641268D01*
X106015694Y-115642821D01*
X106015692Y-115642821D01*
X106005422Y-115644448D01*
X105985711Y-115645999D01*
X103014290Y-115645999D01*
X102994579Y-115644448D01*
X102984307Y-115642821D01*
X102974502Y-115641268D01*
X102967252Y-115642416D01*
X102962646Y-115642819D01*
X102962645Y-115642819D01*
X102944026Y-115644448D01*
X102782061Y-115658618D01*
X102776747Y-115660042D01*
X102776746Y-115660042D01*
X102600778Y-115707192D01*
X102600776Y-115707193D01*
X102595468Y-115708615D01*
X102590488Y-115710937D01*
X102590486Y-115710938D01*
X102425373Y-115787932D01*
X102425370Y-115787934D01*
X102420392Y-115790255D01*
X102262152Y-115901055D01*
X102125556Y-116037651D01*
X102014756Y-116195891D01*
X102012435Y-116200869D01*
X102012433Y-116200872D01*
X101935493Y-116365870D01*
X101933116Y-116370967D01*
X101931694Y-116376275D01*
X101931693Y-116376277D01*
X101888281Y-116538295D01*
X101883119Y-116557560D01*
X101882640Y-116563036D01*
X101882639Y-116563041D01*
X101872805Y-116675451D01*
X101871956Y-116681076D01*
X101870982Y-116683851D01*
X101870500Y-116689416D01*
X101870500Y-116696290D01*
X101870021Y-116707272D01*
X101866917Y-116742751D01*
X101865769Y-116750001D01*
X101867320Y-116759793D01*
X101868949Y-116770078D01*
X101870500Y-116789789D01*
X101870500Y-119710213D01*
X101868949Y-119729923D01*
X101865769Y-119750001D01*
X101866739Y-119756123D01*
X101883360Y-119946099D01*
X101884784Y-119951412D01*
X101884784Y-119951414D01*
X101904589Y-120025325D01*
X101934308Y-120136239D01*
X101936631Y-120141220D01*
X101936631Y-120141221D01*
X102015173Y-120309656D01*
X102015176Y-120309661D01*
X102017499Y-120314643D01*
X102020656Y-120319151D01*
X102020659Y-120319157D01*
X102044662Y-120353437D01*
X102067350Y-120420711D01*
X102050065Y-120489571D01*
X101998295Y-120538155D01*
X101928477Y-120551037D01*
X101900116Y-120544734D01*
X101768452Y-120499012D01*
X101768439Y-120499009D01*
X101762778Y-120497043D01*
X101756845Y-120496183D01*
X101756842Y-120496182D01*
X101560140Y-120467662D01*
X101560137Y-120467662D01*
X101554200Y-120466801D01*
X101343667Y-120476545D01*
X101337843Y-120477949D01*
X101337840Y-120477949D01*
X101144607Y-120524518D01*
X101144605Y-120524519D01*
X101138774Y-120525924D01*
X101133316Y-120528406D01*
X101133312Y-120528407D01*
X101040603Y-120570560D01*
X100946916Y-120613157D01*
X100883395Y-120658216D01*
X100785032Y-120727990D01*
X100775014Y-120735096D01*
X100700816Y-120812604D01*
X100641096Y-120874989D01*
X100629272Y-120887340D01*
X100626021Y-120892375D01*
X100586447Y-120953664D01*
X100532692Y-121000042D01*
X100462396Y-121009995D01*
X100397879Y-120980363D01*
X100359623Y-120920555D01*
X100355268Y-120898319D01*
X100347743Y-120825794D01*
X100344851Y-120812400D01*
X100293412Y-120658216D01*
X100287239Y-120645038D01*
X100201937Y-120507193D01*
X100192901Y-120495792D01*
X100078171Y-120381261D01*
X100066760Y-120372249D01*
X99928757Y-120287184D01*
X99915576Y-120281037D01*
X99761290Y-120229862D01*
X99747914Y-120226995D01*
X99653562Y-120217328D01*
X99647145Y-120217000D01*
X99272115Y-120217000D01*
X99256876Y-120221475D01*
X99255671Y-120222865D01*
X99254000Y-120230548D01*
X99254000Y-123064884D01*
X98746000Y-123064884D01*
X98746000Y-120235116D01*
X98741525Y-120219877D01*
X98740135Y-120218672D01*
X98732452Y-120217001D01*
X98352905Y-120217001D01*
X98346386Y-120217338D01*
X98250794Y-120227257D01*
X98237400Y-120230149D01*
X98083216Y-120281588D01*
X98070038Y-120287761D01*
X97932193Y-120373063D01*
X97920791Y-120382099D01*
X97894672Y-120408264D01*
X97832389Y-120442342D01*
X97761569Y-120437339D01*
X97704697Y-120394841D01*
X97679829Y-120328342D01*
X97679500Y-120319245D01*
X97679500Y-118239788D01*
X97681051Y-118220077D01*
X97682680Y-118209792D01*
X97684231Y-118200000D01*
X97682680Y-118190207D01*
X97682680Y-118190202D01*
X97682659Y-118190069D01*
X97681260Y-118164180D01*
X97690654Y-117972940D01*
X97693052Y-117924146D01*
X97694263Y-117911845D01*
X97710803Y-117800347D01*
X97733880Y-117644777D01*
X97736291Y-117632652D01*
X97801895Y-117370749D01*
X97805484Y-117358917D01*
X97896442Y-117104706D01*
X97901174Y-117093282D01*
X97992366Y-116900473D01*
X98016613Y-116849206D01*
X98022440Y-116838305D01*
X98042675Y-116804546D01*
X98115017Y-116683851D01*
X98161245Y-116606724D01*
X98168115Y-116596443D01*
X98328947Y-116379587D01*
X98336791Y-116370029D01*
X98490104Y-116200872D01*
X98498184Y-116191958D01*
X98517482Y-116174639D01*
X98525608Y-116168736D01*
X98534829Y-116156045D01*
X98591051Y-116112692D01*
X98638743Y-116104123D01*
X98761798Y-116106056D01*
X98761801Y-116106056D01*
X98769396Y-116106175D01*
X98923812Y-116070809D01*
X99001187Y-116031894D01*
X99058552Y-116003043D01*
X99058555Y-116003041D01*
X99065335Y-115999631D01*
X99071106Y-115994702D01*
X99071109Y-115994700D01*
X99180016Y-115901684D01*
X99180016Y-115901683D01*
X99185794Y-115896749D01*
X99278235Y-115768104D01*
X99337322Y-115621121D01*
X99359642Y-115464287D01*
X99359787Y-115450480D01*
X99340756Y-115293213D01*
X99284760Y-115145026D01*
X99195033Y-115014472D01*
X99076755Y-114909091D01*
X99069369Y-114905180D01*
X98943468Y-114838519D01*
X98943469Y-114838519D01*
X98936754Y-114834964D01*
X98783113Y-114796372D01*
X98775514Y-114796332D01*
X98775513Y-114796332D01*
X98709661Y-114795987D01*
X98624701Y-114795542D01*
X98617321Y-114797314D01*
X98617319Y-114797314D01*
X98478043Y-114830751D01*
X98478040Y-114830752D01*
X98470664Y-114832523D01*
X98329894Y-114905180D01*
X98210519Y-115009318D01*
X98119430Y-115138924D01*
X98103112Y-115180777D01*
X98079430Y-115241520D01*
X98061886Y-115286517D01*
X98060894Y-115294050D01*
X98060894Y-115294051D01*
X98043869Y-115423374D01*
X98041209Y-115443576D01*
X98045575Y-115483125D01*
X98047376Y-115499436D01*
X98034970Y-115569341D01*
X97996199Y-115615198D01*
X97990246Y-115619523D01*
X97990244Y-115619525D01*
X97982224Y-115625352D01*
X97980344Y-115627939D01*
X97742529Y-115890328D01*
X97740685Y-115892814D01*
X97740682Y-115892818D01*
X97637537Y-116031894D01*
X97529694Y-116177304D01*
X97528105Y-116179954D01*
X97528105Y-116179955D01*
X97520909Y-116191961D01*
X97346011Y-116483759D01*
X97344697Y-116486538D01*
X97344695Y-116486541D01*
X97194571Y-116803951D01*
X97194567Y-116803960D01*
X97193251Y-116806743D01*
X97141782Y-116950590D01*
X97077767Y-117129500D01*
X97072885Y-117143144D01*
X97045464Y-117252616D01*
X96988787Y-117478883D01*
X96986071Y-117489724D01*
X96985617Y-117492786D01*
X96985616Y-117492790D01*
X96978071Y-117543657D01*
X96933646Y-117843143D01*
X96933495Y-117846227D01*
X96933494Y-117846232D01*
X96927428Y-117969710D01*
X96916271Y-118196833D01*
X96915769Y-118200000D01*
X96917321Y-118209797D01*
X96918949Y-118220077D01*
X96920500Y-118239788D01*
X96920500Y-126905187D01*
X96900498Y-126973308D01*
X96877330Y-127000135D01*
X96810039Y-127058838D01*
X96718950Y-127188444D01*
X96661406Y-127336037D01*
X96660414Y-127343570D01*
X96660414Y-127343571D01*
X96653017Y-127399762D01*
X96640729Y-127493096D01*
X96658113Y-127650553D01*
X96660723Y-127657684D01*
X96660723Y-127657686D01*
X96708636Y-127788614D01*
X96712553Y-127799319D01*
X96716789Y-127805622D01*
X96720239Y-127812394D01*
X96717306Y-127813889D01*
X96734217Y-127867453D01*
X96715596Y-127935964D01*
X96662891Y-127983532D01*
X96608243Y-127996000D01*
X96474017Y-127996000D01*
X96405896Y-127975998D01*
X96359403Y-127922342D01*
X96353687Y-127907016D01*
X96352135Y-127905671D01*
X96344452Y-127904000D01*
X94721540Y-127904000D01*
X94653419Y-127883998D01*
X94606926Y-127830342D01*
X94600644Y-127813497D01*
X94597526Y-127802876D01*
X94596135Y-127801671D01*
X94588452Y-127800000D01*
X94476000Y-127800000D01*
X94407879Y-127779998D01*
X94361386Y-127726342D01*
X94350000Y-127674000D01*
X94350000Y-127526000D01*
X94370002Y-127457879D01*
X94423658Y-127411386D01*
X94476000Y-127400000D01*
X94587803Y-127400000D01*
X94615623Y-127396000D01*
X96339884Y-127396000D01*
X96355123Y-127391525D01*
X96356328Y-127390135D01*
X96357999Y-127382452D01*
X96357999Y-127255331D01*
X96357629Y-127248510D01*
X96352105Y-127197648D01*
X96348479Y-127182396D01*
X96303324Y-127061946D01*
X96294786Y-127046351D01*
X96218285Y-126944276D01*
X96205724Y-126931715D01*
X96145354Y-126886470D01*
X96102839Y-126829611D01*
X96097340Y-126761063D01*
X96103293Y-126731135D01*
X96104500Y-126725067D01*
X96104499Y-126274934D01*
X96089734Y-126200699D01*
X96069223Y-126170002D01*
X96048008Y-126102249D01*
X96069223Y-126029998D01*
X96082839Y-126009621D01*
X96082840Y-126009618D01*
X96089734Y-125999301D01*
X96104500Y-125925067D01*
X96104499Y-125607175D01*
X96124501Y-125539056D01*
X96154934Y-125506350D01*
X96205724Y-125468285D01*
X96218285Y-125455724D01*
X96294786Y-125353649D01*
X96303324Y-125338054D01*
X96348478Y-125217606D01*
X96352105Y-125202351D01*
X96357631Y-125151486D01*
X96358000Y-125144672D01*
X96358000Y-125118115D01*
X96353525Y-125102876D01*
X96352135Y-125101671D01*
X96344452Y-125100000D01*
X95376000Y-125100000D01*
X95307879Y-125079998D01*
X95261386Y-125026342D01*
X95250000Y-124974000D01*
X95250000Y-124826000D01*
X95270002Y-124757879D01*
X95323658Y-124711386D01*
X95376000Y-124700000D01*
X96339884Y-124700000D01*
X96355123Y-124695525D01*
X96356328Y-124694135D01*
X96357999Y-124686452D01*
X96357999Y-124655331D01*
X96357629Y-124648510D01*
X96352105Y-124597648D01*
X96348479Y-124582396D01*
X96303324Y-124461946D01*
X96294786Y-124446351D01*
X96218285Y-124344276D01*
X96205728Y-124331719D01*
X96154935Y-124293652D01*
X96112420Y-124236792D01*
X96104500Y-124192825D01*
X96104499Y-123881123D01*
X96104499Y-123874934D01*
X96089734Y-123800699D01*
X96073268Y-123776055D01*
X96069223Y-123770002D01*
X96048008Y-123702249D01*
X96069223Y-123629998D01*
X96082839Y-123609621D01*
X96082840Y-123609618D01*
X96089734Y-123599301D01*
X96104500Y-123525067D01*
X96104499Y-123074934D01*
X96097388Y-123039182D01*
X96092156Y-123012874D01*
X96092155Y-123012872D01*
X96089734Y-123000699D01*
X96076337Y-122980648D01*
X96069223Y-122970002D01*
X96048008Y-122902249D01*
X96069223Y-122829998D01*
X96082839Y-122809621D01*
X96082840Y-122809618D01*
X96089734Y-122799301D01*
X96104500Y-122725067D01*
X96104499Y-122274934D01*
X96092239Y-122213293D01*
X96092156Y-122212874D01*
X96092155Y-122212872D01*
X96089734Y-122200699D01*
X96076063Y-122180238D01*
X96069223Y-122170002D01*
X96048008Y-122102249D01*
X96069223Y-122029998D01*
X96082839Y-122009621D01*
X96082840Y-122009618D01*
X96089734Y-121999301D01*
X96104500Y-121925067D01*
X96104499Y-121474934D01*
X96089734Y-121400699D01*
X96069223Y-121370002D01*
X96048008Y-121302249D01*
X96069223Y-121229998D01*
X96082839Y-121209621D01*
X96082840Y-121209618D01*
X96089734Y-121199301D01*
X96104500Y-121125067D01*
X96104499Y-120674934D01*
X96096858Y-120636516D01*
X96092156Y-120612874D01*
X96092155Y-120612872D01*
X96089734Y-120600699D01*
X96077204Y-120581946D01*
X96069223Y-120570002D01*
X96048008Y-120502249D01*
X96069223Y-120429998D01*
X96082839Y-120409621D01*
X96082840Y-120409618D01*
X96089734Y-120399301D01*
X96104500Y-120325067D01*
X96104499Y-119874934D01*
X96089734Y-119800699D01*
X96069223Y-119770002D01*
X96048008Y-119702249D01*
X96069223Y-119629998D01*
X96082839Y-119609621D01*
X96082840Y-119609618D01*
X96089734Y-119599301D01*
X96104500Y-119525067D01*
X96104499Y-119074934D01*
X96089734Y-119000699D01*
X96069223Y-118970002D01*
X96048008Y-118902249D01*
X96069223Y-118829998D01*
X96082839Y-118809621D01*
X96082840Y-118809618D01*
X96089734Y-118799301D01*
X96104500Y-118725067D01*
X96104499Y-118274934D01*
X96095536Y-118229870D01*
X96092156Y-118212874D01*
X96092155Y-118212872D01*
X96089734Y-118200699D01*
X96082838Y-118190379D01*
X96078089Y-118178913D01*
X96081914Y-118177329D01*
X96067572Y-118131541D01*
X96086349Y-118063072D01*
X96139105Y-118018179D01*
X96138199Y-118016484D01*
X96210829Y-117977662D01*
X96290988Y-117934816D01*
X96424910Y-117824910D01*
X96534816Y-117690988D01*
X96603936Y-117561675D01*
X96613567Y-117543657D01*
X96613568Y-117543654D01*
X96616484Y-117538199D01*
X96666775Y-117372413D01*
X96675533Y-117283484D01*
X96675895Y-117279813D01*
X96677240Y-117271210D01*
X96679018Y-117266149D01*
X96679500Y-117260584D01*
X96679500Y-117249400D01*
X96680107Y-117237050D01*
X96682610Y-117211636D01*
X96682680Y-117211091D01*
X96682680Y-117210926D01*
X96682975Y-117207931D01*
X96684231Y-117200001D01*
X96681051Y-117179923D01*
X96679500Y-117160213D01*
X96679500Y-116116836D01*
X96699502Y-116048715D01*
X96748886Y-116004271D01*
X96840796Y-115958046D01*
X96840799Y-115958044D01*
X96847579Y-115954634D01*
X96853350Y-115949705D01*
X96853353Y-115949703D01*
X96962260Y-115856687D01*
X96962260Y-115856686D01*
X96968038Y-115851752D01*
X97060479Y-115723107D01*
X97119566Y-115576124D01*
X97138430Y-115443576D01*
X97141305Y-115423374D01*
X97141305Y-115423371D01*
X97141886Y-115419290D01*
X97142031Y-115405483D01*
X97123000Y-115248216D01*
X97067004Y-115100029D01*
X97028686Y-115044276D01*
X96981579Y-114975734D01*
X96981578Y-114975732D01*
X96977277Y-114969475D01*
X96858999Y-114864094D01*
X96851613Y-114860183D01*
X96725712Y-114793522D01*
X96725713Y-114793522D01*
X96718998Y-114789967D01*
X96565357Y-114751375D01*
X96557758Y-114751335D01*
X96557757Y-114751335D01*
X96491905Y-114750990D01*
X96406945Y-114750545D01*
X96399565Y-114752317D01*
X96399563Y-114752317D01*
X96260287Y-114785754D01*
X96260284Y-114785755D01*
X96252908Y-114787526D01*
X96112138Y-114860183D01*
X96106421Y-114865170D01*
X96106414Y-114865175D01*
X96092211Y-114877566D01*
X96027730Y-114907276D01*
X95975677Y-114901724D01*
X95975291Y-114903349D01*
X95952351Y-114897895D01*
X95901486Y-114892369D01*
X95894672Y-114892000D01*
X95772115Y-114892000D01*
X95756876Y-114896475D01*
X95755671Y-114897865D01*
X95754000Y-114905548D01*
X95754000Y-115878000D01*
X95733998Y-115946121D01*
X95680342Y-115992614D01*
X95628000Y-116004000D01*
X95372000Y-116004000D01*
X95303879Y-115983998D01*
X95257386Y-115930342D01*
X95246000Y-115878000D01*
X95246000Y-114910116D01*
X95241525Y-114894877D01*
X95240135Y-114893672D01*
X95232452Y-114892001D01*
X95105331Y-114892001D01*
X95098510Y-114892371D01*
X95047648Y-114897895D01*
X95032396Y-114901521D01*
X94911946Y-114946676D01*
X94896351Y-114955214D01*
X94794276Y-115031715D01*
X94781719Y-115044272D01*
X94743652Y-115095065D01*
X94686792Y-115137580D01*
X94642825Y-115145500D01*
X94345059Y-115145501D01*
X94324934Y-115145501D01*
X94291610Y-115152129D01*
X94262874Y-115157844D01*
X94262872Y-115157845D01*
X94250699Y-115160266D01*
X94240379Y-115167161D01*
X94240378Y-115167162D01*
X94220002Y-115180777D01*
X94152249Y-115201992D01*
X94079998Y-115180777D01*
X94059621Y-115167161D01*
X94059618Y-115167160D01*
X94049301Y-115160266D01*
X93975067Y-115145500D01*
X93750037Y-115145500D01*
X93524934Y-115145501D01*
X93491610Y-115152129D01*
X93462874Y-115157844D01*
X93462872Y-115157845D01*
X93450699Y-115160266D01*
X93440379Y-115167161D01*
X93440378Y-115167162D01*
X93420002Y-115180777D01*
X93352249Y-115201992D01*
X93279998Y-115180777D01*
X93259621Y-115167161D01*
X93259618Y-115167160D01*
X93249301Y-115160266D01*
X93175067Y-115145500D01*
X92950037Y-115145500D01*
X92724934Y-115145501D01*
X92691610Y-115152129D01*
X92662874Y-115157844D01*
X92662872Y-115157845D01*
X92650699Y-115160266D01*
X92640379Y-115167161D01*
X92640378Y-115167162D01*
X92620002Y-115180777D01*
X92552249Y-115201992D01*
X92479998Y-115180777D01*
X92459621Y-115167161D01*
X92459618Y-115167160D01*
X92449301Y-115160266D01*
X92375067Y-115145500D01*
X92150037Y-115145500D01*
X91924934Y-115145501D01*
X91891610Y-115152129D01*
X91862874Y-115157844D01*
X91862872Y-115157845D01*
X91850699Y-115160266D01*
X91840379Y-115167161D01*
X91840378Y-115167162D01*
X91820002Y-115180777D01*
X91752249Y-115201992D01*
X91679998Y-115180777D01*
X91659621Y-115167161D01*
X91659618Y-115167160D01*
X91649301Y-115160266D01*
X91575067Y-115145500D01*
X91350037Y-115145500D01*
X91124934Y-115145501D01*
X91091610Y-115152129D01*
X91062874Y-115157844D01*
X91062872Y-115157845D01*
X91050699Y-115160266D01*
X91040379Y-115167161D01*
X91040378Y-115167162D01*
X91020002Y-115180777D01*
X90952249Y-115201992D01*
X90879998Y-115180777D01*
X90859621Y-115167161D01*
X90859618Y-115167160D01*
X90849301Y-115160266D01*
X90775067Y-115145500D01*
X90550037Y-115145500D01*
X90324934Y-115145501D01*
X90291610Y-115152129D01*
X90262874Y-115157844D01*
X90262872Y-115157845D01*
X90250699Y-115160266D01*
X90240379Y-115167161D01*
X90240378Y-115167162D01*
X90220002Y-115180777D01*
X90152249Y-115201992D01*
X90079998Y-115180777D01*
X90059621Y-115167161D01*
X90059618Y-115167160D01*
X90049301Y-115160266D01*
X89975067Y-115145500D01*
X89750037Y-115145500D01*
X89524934Y-115145501D01*
X89491610Y-115152129D01*
X89462874Y-115157844D01*
X89462872Y-115157845D01*
X89450699Y-115160266D01*
X89440379Y-115167161D01*
X89440378Y-115167162D01*
X89420002Y-115180777D01*
X89352249Y-115201992D01*
X89279998Y-115180777D01*
X89259621Y-115167161D01*
X89259618Y-115167160D01*
X89249301Y-115160266D01*
X89175067Y-115145500D01*
X88950037Y-115145500D01*
X88724934Y-115145501D01*
X88691610Y-115152129D01*
X88662874Y-115157844D01*
X88662872Y-115157845D01*
X88650699Y-115160266D01*
X88640379Y-115167161D01*
X88640378Y-115167162D01*
X88620002Y-115180777D01*
X88552249Y-115201992D01*
X88479998Y-115180777D01*
X88459621Y-115167161D01*
X88459618Y-115167160D01*
X88449301Y-115160266D01*
X88375067Y-115145500D01*
X88150037Y-115145500D01*
X87924934Y-115145501D01*
X87891610Y-115152129D01*
X87862874Y-115157844D01*
X87862872Y-115157845D01*
X87850699Y-115160266D01*
X87840379Y-115167161D01*
X87840378Y-115167162D01*
X87820002Y-115180777D01*
X87752249Y-115201992D01*
X87679998Y-115180777D01*
X87659621Y-115167161D01*
X87659618Y-115167160D01*
X87649301Y-115160266D01*
X87575067Y-115145500D01*
X87350037Y-115145500D01*
X87124934Y-115145501D01*
X87091610Y-115152129D01*
X87062874Y-115157844D01*
X87062872Y-115157845D01*
X87050699Y-115160266D01*
X87040379Y-115167161D01*
X87040378Y-115167162D01*
X87020002Y-115180777D01*
X86952249Y-115201992D01*
X86879998Y-115180777D01*
X86859621Y-115167161D01*
X86859618Y-115167160D01*
X86849301Y-115160266D01*
X86775067Y-115145500D01*
X86754949Y-115145500D01*
X86457175Y-115145501D01*
X86389056Y-115125499D01*
X86356350Y-115095066D01*
X86318285Y-115044276D01*
X86305724Y-115031715D01*
X86203649Y-114955214D01*
X86188054Y-114946676D01*
X86067606Y-114901522D01*
X86052351Y-114897895D01*
X86001486Y-114892369D01*
X85994672Y-114892000D01*
X85872115Y-114892000D01*
X85856876Y-114896475D01*
X85855671Y-114897865D01*
X85854000Y-114905548D01*
X85854000Y-116629612D01*
X85851121Y-116656395D01*
X85850000Y-116661548D01*
X85850000Y-125481885D01*
X85854475Y-125497124D01*
X85855865Y-125498329D01*
X85863548Y-125500000D01*
X86539884Y-125500000D01*
X86555123Y-125495525D01*
X86556328Y-125494135D01*
X86557999Y-125486452D01*
X86557999Y-125455331D01*
X86557630Y-125448512D01*
X86553732Y-125412630D01*
X86566261Y-125342748D01*
X86614582Y-125290733D01*
X86683354Y-125273099D01*
X86727212Y-125282615D01*
X86763735Y-125297743D01*
X86818676Y-125320500D01*
X86826143Y-125323593D01*
X87010496Y-125367852D01*
X87041971Y-125370329D01*
X87125080Y-125376870D01*
X87131207Y-125377767D01*
X87133353Y-125378520D01*
X87138918Y-125379002D01*
X87147221Y-125379002D01*
X87157109Y-125379391D01*
X87181945Y-125381346D01*
X87189004Y-125382181D01*
X87189706Y-125382181D01*
X87199502Y-125383733D01*
X87209295Y-125382182D01*
X87209296Y-125382182D01*
X87219579Y-125380553D01*
X87239290Y-125379002D01*
X87696578Y-125379002D01*
X87720526Y-125381551D01*
X87722191Y-125381630D01*
X87732374Y-125383822D01*
X87742715Y-125382598D01*
X87765721Y-125379875D01*
X87771566Y-125379530D01*
X87771558Y-125379437D01*
X87771582Y-125379435D01*
X87777021Y-125379209D01*
X87780531Y-125379002D01*
X87782022Y-125379002D01*
X87782030Y-125379001D01*
X87782046Y-125379000D01*
X88450141Y-125379000D01*
X88518262Y-125399002D01*
X88545522Y-125422669D01*
X88546672Y-125424001D01*
X88550908Y-125430305D01*
X88668076Y-125536919D01*
X88807293Y-125612508D01*
X88960522Y-125652707D01*
X89044477Y-125654026D01*
X89111319Y-125655076D01*
X89111322Y-125655076D01*
X89118916Y-125655195D01*
X89273332Y-125619829D01*
X89386182Y-125563072D01*
X89408072Y-125552063D01*
X89408075Y-125552061D01*
X89414855Y-125548651D01*
X89420626Y-125543722D01*
X89420629Y-125543720D01*
X89529536Y-125450704D01*
X89529536Y-125450703D01*
X89535314Y-125445769D01*
X89627755Y-125317124D01*
X89686842Y-125170141D01*
X89696415Y-125102876D01*
X89708744Y-125016247D01*
X89738145Y-124951624D01*
X89797816Y-124913155D01*
X89833487Y-124908000D01*
X90277885Y-124908000D01*
X90293124Y-124903525D01*
X90294329Y-124902135D01*
X90296000Y-124894452D01*
X90296000Y-124889884D01*
X90804000Y-124889884D01*
X90808475Y-124905123D01*
X90809865Y-124906328D01*
X90817548Y-124907999D01*
X91319669Y-124907999D01*
X91326490Y-124907629D01*
X91377352Y-124902105D01*
X91392606Y-124898478D01*
X91493271Y-124860741D01*
X91564078Y-124855558D01*
X91581729Y-124860741D01*
X91682391Y-124898478D01*
X91697649Y-124902105D01*
X91748514Y-124907631D01*
X91755328Y-124908000D01*
X92252885Y-124908000D01*
X92268124Y-124903525D01*
X92269329Y-124902135D01*
X92271000Y-124894452D01*
X92271000Y-123947115D01*
X92266525Y-123931876D01*
X92265135Y-123930671D01*
X92257452Y-123929000D01*
X90822115Y-123929000D01*
X90806876Y-123933475D01*
X90805671Y-123934865D01*
X90804000Y-123942548D01*
X90804000Y-124889884D01*
X90296000Y-124889884D01*
X90296000Y-123947115D01*
X90291525Y-123931876D01*
X90290135Y-123930671D01*
X90282452Y-123929000D01*
X87370491Y-123929000D01*
X87356622Y-123933072D01*
X87355684Y-123939229D01*
X87356135Y-123940925D01*
X87405473Y-124059743D01*
X87413873Y-124074176D01*
X87458929Y-124132157D01*
X87464124Y-124138044D01*
X87730987Y-124404907D01*
X87765013Y-124467219D01*
X87759948Y-124538034D01*
X87717401Y-124594870D01*
X87650881Y-124619681D01*
X87641892Y-124620002D01*
X87239290Y-124620002D01*
X87219579Y-124618451D01*
X87209296Y-124616822D01*
X87209295Y-124616822D01*
X87199502Y-124615271D01*
X87189707Y-124616823D01*
X87183615Y-124616823D01*
X87167165Y-124615745D01*
X87100644Y-124606987D01*
X87068877Y-124598475D01*
X86992079Y-124566665D01*
X86963595Y-124550219D01*
X86897652Y-124499619D01*
X86874394Y-124476361D01*
X86823794Y-124410418D01*
X86807347Y-124381932D01*
X86807186Y-124381543D01*
X86775538Y-124305136D01*
X86767026Y-124273369D01*
X86758268Y-124206849D01*
X86757190Y-124190398D01*
X86757190Y-124184306D01*
X86758742Y-124174511D01*
X86755562Y-124154433D01*
X86754011Y-124134723D01*
X86754011Y-122905327D01*
X87342000Y-122905327D01*
X87342001Y-123402885D01*
X87346476Y-123418124D01*
X87347866Y-123419329D01*
X87355549Y-123421000D01*
X88302885Y-123421000D01*
X88318124Y-123416525D01*
X88319329Y-123415135D01*
X88321000Y-123407452D01*
X88321000Y-123402885D01*
X88829000Y-123402885D01*
X88833475Y-123418124D01*
X88834865Y-123419329D01*
X88842548Y-123421000D01*
X90277885Y-123421000D01*
X90293124Y-123416525D01*
X90294329Y-123415135D01*
X90296000Y-123407452D01*
X90296000Y-123402885D01*
X90804000Y-123402885D01*
X90808475Y-123418124D01*
X90809865Y-123419329D01*
X90817548Y-123421000D01*
X92252885Y-123421000D01*
X92268124Y-123416525D01*
X92269329Y-123415135D01*
X92271000Y-123407452D01*
X92271000Y-121972115D01*
X92266525Y-121956876D01*
X92265135Y-121955671D01*
X92257452Y-121954000D01*
X90822115Y-121954000D01*
X90806876Y-121958475D01*
X90805671Y-121959865D01*
X90804000Y-121967548D01*
X90804000Y-123402885D01*
X90296000Y-123402885D01*
X90296000Y-121972115D01*
X90291525Y-121956876D01*
X90290135Y-121955671D01*
X90282452Y-121954000D01*
X88847115Y-121954000D01*
X88831876Y-121958475D01*
X88830671Y-121959865D01*
X88829000Y-121967548D01*
X88829000Y-123402885D01*
X88321000Y-123402885D01*
X88321000Y-121972115D01*
X88316525Y-121956876D01*
X88315135Y-121955671D01*
X88307452Y-121954000D01*
X87360116Y-121954000D01*
X87344877Y-121958475D01*
X87343672Y-121959865D01*
X87342001Y-121967548D01*
X87342001Y-122469669D01*
X87342371Y-122476490D01*
X87347895Y-122527352D01*
X87351522Y-122542606D01*
X87389259Y-122643271D01*
X87394442Y-122714078D01*
X87389259Y-122731729D01*
X87351522Y-122832391D01*
X87347895Y-122847649D01*
X87342369Y-122898514D01*
X87342000Y-122905327D01*
X86754011Y-122905327D01*
X86754011Y-120292651D01*
X86774013Y-120224530D01*
X86827669Y-120178037D01*
X86897943Y-120167933D01*
X86940133Y-120181920D01*
X86943530Y-120183764D01*
X86959807Y-120192602D01*
X87113036Y-120232801D01*
X87217980Y-120234449D01*
X87285778Y-120255518D01*
X87331422Y-120309897D01*
X87342001Y-120360433D01*
X87342001Y-120494669D01*
X87342371Y-120501490D01*
X87347895Y-120552352D01*
X87351522Y-120567606D01*
X87389259Y-120668271D01*
X87394442Y-120739078D01*
X87389259Y-120756729D01*
X87351522Y-120857391D01*
X87347895Y-120872649D01*
X87342369Y-120923514D01*
X87342000Y-120930328D01*
X87342000Y-121427884D01*
X87346475Y-121443124D01*
X87347865Y-121444329D01*
X87355548Y-121446000D01*
X88302885Y-121446000D01*
X88318124Y-121441525D01*
X88319329Y-121440135D01*
X88321000Y-121432452D01*
X88321000Y-121427884D01*
X88829000Y-121427884D01*
X88833475Y-121443124D01*
X88834865Y-121444329D01*
X88842548Y-121446000D01*
X90277885Y-121446000D01*
X90293124Y-121441525D01*
X90294329Y-121440135D01*
X90296000Y-121432452D01*
X90296000Y-121427884D01*
X90804000Y-121427884D01*
X90808475Y-121443124D01*
X90809865Y-121444329D01*
X90817548Y-121446000D01*
X92252885Y-121446000D01*
X92268124Y-121441525D01*
X92269329Y-121440135D01*
X92271000Y-121432452D01*
X92271000Y-119997115D01*
X92266525Y-119981876D01*
X92265135Y-119980671D01*
X92257452Y-119979000D01*
X90822115Y-119979000D01*
X90806876Y-119983475D01*
X90805671Y-119984865D01*
X90804000Y-119992548D01*
X90804000Y-121427884D01*
X90296000Y-121427884D01*
X90296000Y-119997115D01*
X90291525Y-119981876D01*
X90290135Y-119980671D01*
X90282452Y-119979000D01*
X88847115Y-119979000D01*
X88831876Y-119983475D01*
X88830671Y-119984865D01*
X88829000Y-119992548D01*
X88829000Y-121427884D01*
X88321000Y-121427884D01*
X88321000Y-118510116D01*
X88306789Y-118461719D01*
X88304245Y-118457759D01*
X88304253Y-118386762D01*
X88312139Y-118366546D01*
X88367014Y-118255270D01*
X88393787Y-118200980D01*
X88410684Y-118151204D01*
X88469593Y-117977662D01*
X88469594Y-117977659D01*
X88470919Y-117973755D01*
X88473304Y-117961769D01*
X88516929Y-117742447D01*
X88517733Y-117738406D01*
X88518297Y-117729809D01*
X88529229Y-117563001D01*
X88529235Y-117562917D01*
X88529236Y-117562886D01*
X88529318Y-117561640D01*
X88529324Y-117561574D01*
X88529342Y-117561521D01*
X88529429Y-117560373D01*
X88529498Y-117559576D01*
X88529990Y-117559619D01*
X88530229Y-117558918D01*
X88529500Y-117558870D01*
X88532481Y-117513390D01*
X88532679Y-117511616D01*
X88532679Y-117510366D01*
X88532859Y-117507620D01*
X88534231Y-117498960D01*
X88531934Y-117484454D01*
X88531051Y-117478883D01*
X88529500Y-117459172D01*
X88529500Y-116569157D01*
X88549502Y-116501036D01*
X88603158Y-116454543D01*
X88680080Y-116445578D01*
X88724933Y-116454500D01*
X88777054Y-116454500D01*
X88845175Y-116474502D01*
X88891668Y-116528158D01*
X88901976Y-116596946D01*
X88897676Y-116629612D01*
X88896563Y-116638063D01*
X88902532Y-116692127D01*
X88912953Y-116786515D01*
X88913947Y-116795520D01*
X88916557Y-116802651D01*
X88916557Y-116802653D01*
X88959450Y-116919863D01*
X88968387Y-116944286D01*
X89056742Y-117075772D01*
X89062362Y-117080885D01*
X89067323Y-117086633D01*
X89064843Y-117088774D01*
X89094066Y-117136832D01*
X89092301Y-117207806D01*
X89065960Y-117253626D01*
X89065764Y-117253844D01*
X89060039Y-117258838D01*
X88968950Y-117388444D01*
X88948672Y-117440454D01*
X88920236Y-117513390D01*
X88911406Y-117536037D01*
X88910414Y-117543570D01*
X88910414Y-117543571D01*
X88891725Y-117685532D01*
X88890729Y-117693096D01*
X88908113Y-117850553D01*
X88910723Y-117857684D01*
X88910723Y-117857686D01*
X88954628Y-117977662D01*
X88962553Y-117999319D01*
X88966789Y-118005622D01*
X88966789Y-118005623D01*
X89019110Y-118083484D01*
X89050908Y-118130805D01*
X89056527Y-118135918D01*
X89056528Y-118135919D01*
X89141101Y-118212874D01*
X89168076Y-118237419D01*
X89174751Y-118241043D01*
X89174752Y-118241044D01*
X89200952Y-118255270D01*
X89251273Y-118305352D01*
X89266529Y-118374691D01*
X89241876Y-118441269D01*
X89185141Y-118483951D01*
X89140829Y-118492000D01*
X88847115Y-118492000D01*
X88831876Y-118496475D01*
X88830671Y-118497865D01*
X88829000Y-118505548D01*
X88829000Y-119452885D01*
X88833475Y-119468124D01*
X88834865Y-119469329D01*
X88842548Y-119471000D01*
X90277885Y-119471000D01*
X90293124Y-119466525D01*
X90294329Y-119465135D01*
X90296000Y-119457452D01*
X90296000Y-119452885D01*
X90804000Y-119452885D01*
X90808475Y-119468124D01*
X90809865Y-119469329D01*
X90817548Y-119471000D01*
X92252885Y-119471000D01*
X92268124Y-119466525D01*
X92269329Y-119465135D01*
X92271000Y-119457452D01*
X92271000Y-118510116D01*
X92266525Y-118494877D01*
X92265135Y-118493672D01*
X92257452Y-118492001D01*
X91755331Y-118492001D01*
X91748510Y-118492371D01*
X91697648Y-118497895D01*
X91682394Y-118501522D01*
X91581729Y-118539259D01*
X91510922Y-118544442D01*
X91493271Y-118539259D01*
X91392609Y-118501522D01*
X91377351Y-118497895D01*
X91326486Y-118492369D01*
X91319672Y-118492000D01*
X90822115Y-118492000D01*
X90806876Y-118496475D01*
X90805671Y-118497865D01*
X90804000Y-118505548D01*
X90804000Y-119452885D01*
X90296000Y-119452885D01*
X90296000Y-118510116D01*
X90291525Y-118494877D01*
X90290135Y-118493672D01*
X90282452Y-118492001D01*
X89962949Y-118492001D01*
X89894828Y-118471999D01*
X89848335Y-118418343D01*
X89838231Y-118348069D01*
X89867725Y-118283489D01*
X89901849Y-118256929D01*
X89901742Y-118256768D01*
X89903881Y-118255347D01*
X89906336Y-118253436D01*
X89908069Y-118252565D01*
X89908075Y-118252561D01*
X89914855Y-118249151D01*
X89920626Y-118244222D01*
X89920629Y-118244220D01*
X90029536Y-118151204D01*
X90029536Y-118151203D01*
X90035314Y-118146269D01*
X90127755Y-118017624D01*
X90186842Y-117870641D01*
X90200962Y-117771426D01*
X90230363Y-117706803D01*
X90236610Y-117700084D01*
X90240210Y-117696484D01*
X90255244Y-117683643D01*
X90263673Y-117677519D01*
X90263674Y-117677518D01*
X90271693Y-117671692D01*
X90277519Y-117663673D01*
X90279080Y-117662112D01*
X90282766Y-117657542D01*
X90439805Y-117481814D01*
X90469152Y-117440454D01*
X90586519Y-117275040D01*
X90587434Y-117275690D01*
X90637097Y-117231746D01*
X90707262Y-117220913D01*
X90775425Y-117252616D01*
X90842877Y-117313992D01*
X90868076Y-117336921D01*
X91007293Y-117412510D01*
X91046844Y-117422886D01*
X91048932Y-117423434D01*
X91109747Y-117460068D01*
X91124385Y-117479467D01*
X91152237Y-117524917D01*
X91155454Y-117528684D01*
X91155455Y-117528685D01*
X91181235Y-117558870D01*
X91277923Y-117672077D01*
X91425083Y-117797763D01*
X91590093Y-117898881D01*
X91594663Y-117900774D01*
X91594667Y-117900776D01*
X91764315Y-117971046D01*
X91764322Y-117971048D01*
X91768889Y-117972940D01*
X91957069Y-118018118D01*
X91998473Y-118021376D01*
X92076142Y-118027489D01*
X92081895Y-118028331D01*
X92083851Y-118029018D01*
X92089416Y-118029500D01*
X92096741Y-118029500D01*
X92106625Y-118029888D01*
X92112870Y-118030379D01*
X92133411Y-118031996D01*
X92139182Y-118032679D01*
X92140204Y-118032679D01*
X92150000Y-118034231D01*
X92159793Y-118032680D01*
X92159794Y-118032680D01*
X92170077Y-118031051D01*
X92189788Y-118029500D01*
X93069011Y-118029500D01*
X93137132Y-118049502D01*
X93183625Y-118103158D01*
X93195011Y-118155500D01*
X93195011Y-118366000D01*
X93175009Y-118434121D01*
X93121353Y-118480614D01*
X93069011Y-118492000D01*
X92797115Y-118492000D01*
X92781876Y-118496475D01*
X92780671Y-118497865D01*
X92779000Y-118505548D01*
X92779000Y-124889884D01*
X92783475Y-124905123D01*
X92784865Y-124906328D01*
X92792548Y-124907999D01*
X92995365Y-124907999D01*
X93063486Y-124928001D01*
X93109979Y-124981657D01*
X93120083Y-125051931D01*
X93106487Y-125093394D01*
X93058285Y-125183575D01*
X93044564Y-125204110D01*
X92955100Y-125313123D01*
X92937635Y-125330588D01*
X92836407Y-125413664D01*
X92828624Y-125420051D01*
X92808090Y-125433772D01*
X92702689Y-125490110D01*
X92683711Y-125500254D01*
X92660900Y-125509703D01*
X92638141Y-125516607D01*
X92567151Y-125517242D01*
X92517748Y-125490110D01*
X92426275Y-125408611D01*
X92418889Y-125404700D01*
X92349295Y-125367852D01*
X92286274Y-125334484D01*
X92132633Y-125295892D01*
X92125034Y-125295852D01*
X92125033Y-125295852D01*
X92059181Y-125295507D01*
X91974221Y-125295062D01*
X91966841Y-125296834D01*
X91966839Y-125296834D01*
X91827563Y-125330271D01*
X91827560Y-125330272D01*
X91820184Y-125332043D01*
X91679414Y-125404700D01*
X91560039Y-125508838D01*
X91468950Y-125638444D01*
X91462419Y-125655195D01*
X91417187Y-125771210D01*
X91411406Y-125786037D01*
X91410414Y-125793570D01*
X91410414Y-125793571D01*
X91392304Y-125931135D01*
X91390729Y-125943096D01*
X91396934Y-125999301D01*
X91406454Y-126085524D01*
X91408113Y-126100553D01*
X91410723Y-126107684D01*
X91410723Y-126107686D01*
X91458349Y-126237830D01*
X91462553Y-126249319D01*
X91466789Y-126255622D01*
X91466789Y-126255623D01*
X91479766Y-126274934D01*
X91550908Y-126380805D01*
X91668076Y-126487419D01*
X91699366Y-126504408D01*
X91704622Y-126507262D01*
X91754944Y-126557345D01*
X91770500Y-126617993D01*
X91770500Y-126830843D01*
X91750498Y-126898964D01*
X91696842Y-126945457D01*
X91619920Y-126954422D01*
X91575067Y-126945500D01*
X91350037Y-126945500D01*
X91124934Y-126945501D01*
X91089182Y-126952612D01*
X91062874Y-126957844D01*
X91062872Y-126957845D01*
X91050699Y-126960266D01*
X91040379Y-126967161D01*
X91040378Y-126967162D01*
X91020002Y-126980777D01*
X90952249Y-127001992D01*
X90879998Y-126980777D01*
X90859621Y-126967161D01*
X90859618Y-126967160D01*
X90849301Y-126960266D01*
X90775067Y-126945500D01*
X90550037Y-126945500D01*
X90324934Y-126945501D01*
X90289182Y-126952612D01*
X90262874Y-126957844D01*
X90262872Y-126957845D01*
X90250699Y-126960266D01*
X90240379Y-126967161D01*
X90240378Y-126967162D01*
X90220002Y-126980777D01*
X90152249Y-127001992D01*
X90079998Y-126980777D01*
X90059621Y-126967161D01*
X90059618Y-126967160D01*
X90049301Y-126960266D01*
X89975067Y-126945500D01*
X89750037Y-126945500D01*
X89524934Y-126945501D01*
X89489182Y-126952612D01*
X89462874Y-126957844D01*
X89462872Y-126957845D01*
X89450699Y-126960266D01*
X89440379Y-126967161D01*
X89440378Y-126967162D01*
X89420002Y-126980777D01*
X89352249Y-127001992D01*
X89279998Y-126980777D01*
X89259621Y-126967161D01*
X89259618Y-126967160D01*
X89249301Y-126960266D01*
X89175067Y-126945500D01*
X89147934Y-126945500D01*
X88821389Y-126945501D01*
X88753270Y-126925499D01*
X88706777Y-126871844D01*
X88696647Y-126801749D01*
X88708581Y-126717894D01*
X88708582Y-126717884D01*
X88709162Y-126713807D01*
X88709231Y-126707265D01*
X88709264Y-126704134D01*
X88709264Y-126704128D01*
X88709307Y-126700000D01*
X88690276Y-126542733D01*
X88634280Y-126394546D01*
X88565270Y-126294135D01*
X88548855Y-126270251D01*
X88548854Y-126270249D01*
X88544553Y-126263992D01*
X88535790Y-126256184D01*
X88473514Y-126200699D01*
X88426275Y-126158611D01*
X88418889Y-126154700D01*
X88373032Y-126130420D01*
X88286274Y-126084484D01*
X88132633Y-126045892D01*
X88125034Y-126045852D01*
X88125033Y-126045852D01*
X88059181Y-126045507D01*
X87974221Y-126045062D01*
X87966841Y-126046834D01*
X87966839Y-126046834D01*
X87827563Y-126080271D01*
X87827560Y-126080272D01*
X87820184Y-126082043D01*
X87679414Y-126154700D01*
X87560039Y-126258838D01*
X87468950Y-126388444D01*
X87440178Y-126462241D01*
X87423687Y-126504539D01*
X87411406Y-126536037D01*
X87410414Y-126543570D01*
X87410414Y-126543571D01*
X87392489Y-126679727D01*
X87371518Y-126727132D01*
X87396896Y-126766620D01*
X87401239Y-126788291D01*
X87402766Y-126802118D01*
X87408113Y-126850553D01*
X87410723Y-126857684D01*
X87410723Y-126857686D01*
X87455768Y-126980777D01*
X87462553Y-126999319D01*
X87466789Y-127005622D01*
X87466789Y-127005623D01*
X87528582Y-127097581D01*
X87550000Y-127167857D01*
X87550000Y-127674000D01*
X87529998Y-127742121D01*
X87476342Y-127788614D01*
X87424000Y-127800000D01*
X86516115Y-127800000D01*
X86500876Y-127804475D01*
X86498708Y-127806976D01*
X86465883Y-127867094D01*
X86403571Y-127901120D01*
X86376786Y-127904000D01*
X85472000Y-127904000D01*
X85403879Y-127883998D01*
X85357386Y-127830342D01*
X85346000Y-127778000D01*
X85346000Y-126871540D01*
X85366002Y-126803419D01*
X85419658Y-126756926D01*
X85436503Y-126750644D01*
X85447124Y-126747526D01*
X85448329Y-126746135D01*
X85450000Y-126738452D01*
X85450000Y-126737803D01*
X85850000Y-126737803D01*
X85854000Y-126765623D01*
X85854000Y-127377885D01*
X85858475Y-127393124D01*
X85859865Y-127394329D01*
X85867548Y-127396000D01*
X86331885Y-127396000D01*
X86347124Y-127391525D01*
X86348329Y-127390135D01*
X86350000Y-127382452D01*
X86350000Y-127381885D01*
X86750000Y-127381885D01*
X86754475Y-127397124D01*
X86755865Y-127398329D01*
X86763548Y-127400000D01*
X87131885Y-127400000D01*
X87147124Y-127395525D01*
X87148329Y-127394135D01*
X87150000Y-127386452D01*
X87150000Y-126802118D01*
X87168676Y-126738514D01*
X87146671Y-126698779D01*
X87145525Y-126694877D01*
X87144135Y-126693672D01*
X87136452Y-126692001D01*
X87105331Y-126692001D01*
X87098510Y-126692371D01*
X87047648Y-126697895D01*
X87032397Y-126701521D01*
X86994230Y-126715829D01*
X86923423Y-126721012D01*
X86905770Y-126715829D01*
X86867606Y-126701522D01*
X86852351Y-126697895D01*
X86801486Y-126692369D01*
X86794672Y-126692000D01*
X86768115Y-126692000D01*
X86752876Y-126696475D01*
X86751671Y-126697865D01*
X86750000Y-126705548D01*
X86750000Y-127381885D01*
X86350000Y-127381885D01*
X86350000Y-126718115D01*
X86345525Y-126702876D01*
X86344135Y-126701671D01*
X86336452Y-126700000D01*
X85868115Y-126700000D01*
X85852876Y-126704475D01*
X85851671Y-126705865D01*
X85850000Y-126713548D01*
X85850000Y-126737803D01*
X85450000Y-126737803D01*
X85450000Y-126281885D01*
X85850000Y-126281885D01*
X85854475Y-126297124D01*
X85855865Y-126298329D01*
X85863548Y-126300000D01*
X86539884Y-126300000D01*
X86555123Y-126295525D01*
X86556328Y-126294135D01*
X86557999Y-126286452D01*
X86557999Y-126255331D01*
X86557629Y-126248510D01*
X86552105Y-126197648D01*
X86548479Y-126182397D01*
X86534171Y-126144230D01*
X86528988Y-126073423D01*
X86534171Y-126055770D01*
X86548478Y-126017606D01*
X86552105Y-126002351D01*
X86557631Y-125951486D01*
X86558000Y-125944672D01*
X86558000Y-125918115D01*
X86553525Y-125902876D01*
X86552135Y-125901671D01*
X86544452Y-125900000D01*
X85868115Y-125900000D01*
X85852876Y-125904475D01*
X85851671Y-125905865D01*
X85850000Y-125913548D01*
X85850000Y-126281885D01*
X85450000Y-126281885D01*
X85450000Y-116666115D01*
X85445525Y-116650876D01*
X85443024Y-116648708D01*
X85382906Y-116615883D01*
X85348880Y-116553571D01*
X85346000Y-116526786D01*
X85346000Y-114910116D01*
X85341525Y-114894877D01*
X85326724Y-114882052D01*
X85290905Y-114862493D01*
X85256880Y-114800181D01*
X85254000Y-114773397D01*
X85254000Y-106674933D01*
X91445500Y-106674933D01*
X91445501Y-108225066D01*
X91460266Y-108299301D01*
X91516516Y-108383484D01*
X91600699Y-108439734D01*
X91674933Y-108454500D01*
X92569500Y-108454500D01*
X92637621Y-108474502D01*
X92684114Y-108528158D01*
X92695500Y-108580500D01*
X92695500Y-108750128D01*
X92695837Y-108753374D01*
X92695837Y-108753378D01*
X92700123Y-108794681D01*
X92706417Y-108855343D01*
X92762097Y-109022237D01*
X92854678Y-109171846D01*
X92979194Y-109296144D01*
X93128964Y-109388464D01*
X93135912Y-109390769D01*
X93135913Y-109390769D01*
X93289424Y-109441687D01*
X93289426Y-109441687D01*
X93295955Y-109443853D01*
X93399872Y-109454500D01*
X93500128Y-109454500D01*
X93503374Y-109454163D01*
X93503378Y-109454163D01*
X93598485Y-109444295D01*
X93598489Y-109444294D01*
X93605343Y-109443583D01*
X93611879Y-109441402D01*
X93611881Y-109441402D01*
X93750257Y-109395236D01*
X93772237Y-109387903D01*
X93853236Y-109337779D01*
X93915620Y-109299175D01*
X93915621Y-109299174D01*
X93921846Y-109295322D01*
X94046144Y-109170806D01*
X94138464Y-109021036D01*
X94140769Y-109014087D01*
X94191687Y-108860576D01*
X94191687Y-108860574D01*
X94193853Y-108854045D01*
X94204500Y-108750128D01*
X94204500Y-107149872D01*
X94204499Y-107149865D01*
X94204499Y-106910391D01*
X94224501Y-106842270D01*
X94278157Y-106795777D01*
X94348431Y-106785673D01*
X94390621Y-106799660D01*
X94507293Y-106863008D01*
X94660522Y-106903207D01*
X94744477Y-106904526D01*
X94811319Y-106905576D01*
X94811322Y-106905576D01*
X94818916Y-106905695D01*
X94973332Y-106870329D01*
X95098597Y-106807328D01*
X95168440Y-106794590D01*
X95234084Y-106821634D01*
X95274686Y-106879875D01*
X95277355Y-106950821D01*
X95274804Y-106959558D01*
X95246147Y-107045955D01*
X95235500Y-107149872D01*
X95235500Y-108750128D01*
X95235837Y-108753374D01*
X95235837Y-108753378D01*
X95240123Y-108794681D01*
X95246417Y-108855343D01*
X95302097Y-109022237D01*
X95394678Y-109171846D01*
X95519194Y-109296144D01*
X95668964Y-109388464D01*
X95675912Y-109390769D01*
X95675913Y-109390769D01*
X95829424Y-109441687D01*
X95829426Y-109441687D01*
X95835955Y-109443853D01*
X95939872Y-109454500D01*
X96040128Y-109454500D01*
X96043374Y-109454163D01*
X96043378Y-109454163D01*
X96138485Y-109444295D01*
X96138489Y-109444294D01*
X96145343Y-109443583D01*
X96151879Y-109441402D01*
X96151881Y-109441402D01*
X96290257Y-109395236D01*
X96312237Y-109387903D01*
X96393236Y-109337779D01*
X96455620Y-109299175D01*
X96455621Y-109299174D01*
X96461846Y-109295322D01*
X96586144Y-109170806D01*
X96678464Y-109021036D01*
X96680769Y-109014087D01*
X96731687Y-108860576D01*
X96731687Y-108860574D01*
X96733853Y-108854045D01*
X96739935Y-108794681D01*
X97522000Y-108794681D01*
X97522077Y-108797733D01*
X97523233Y-108806945D01*
X97560162Y-108990091D01*
X97563752Y-109001833D01*
X97634978Y-109172943D01*
X97640778Y-109183759D01*
X97743885Y-109337779D01*
X97751678Y-109347266D01*
X97882734Y-109478322D01*
X97892221Y-109486115D01*
X98046241Y-109589222D01*
X98057057Y-109595022D01*
X98228172Y-109666250D01*
X98239904Y-109669837D01*
X98258242Y-109673535D01*
X98271059Y-109672421D01*
X98275412Y-109659000D01*
X98784000Y-109659000D01*
X98787624Y-109671344D01*
X98803533Y-109673177D01*
X98820096Y-109669837D01*
X98831828Y-109666250D01*
X99002943Y-109595022D01*
X99013759Y-109589222D01*
X99167779Y-109486115D01*
X99177266Y-109478322D01*
X99308322Y-109347266D01*
X99316115Y-109337779D01*
X99419222Y-109183759D01*
X99425022Y-109172943D01*
X99496248Y-109001833D01*
X99499838Y-108990091D01*
X99536767Y-108806945D01*
X99537923Y-108797733D01*
X99538000Y-108794681D01*
X99538000Y-108222115D01*
X99533525Y-108206876D01*
X99532135Y-108205671D01*
X99524452Y-108204000D01*
X98802115Y-108204000D01*
X98786876Y-108208475D01*
X98785671Y-108209865D01*
X98784000Y-108217548D01*
X98784000Y-109659000D01*
X98275412Y-109659000D01*
X98276000Y-109657188D01*
X98276000Y-108222115D01*
X98271525Y-108206876D01*
X98270135Y-108205671D01*
X98262452Y-108204000D01*
X97540115Y-108204000D01*
X97524876Y-108208475D01*
X97523671Y-108209865D01*
X97522000Y-108217548D01*
X97522000Y-108794681D01*
X96739935Y-108794681D01*
X96744500Y-108750128D01*
X96744500Y-107677885D01*
X97522000Y-107677885D01*
X97526475Y-107693124D01*
X97527865Y-107694329D01*
X97535548Y-107696000D01*
X98257885Y-107696000D01*
X98273124Y-107691525D01*
X98274329Y-107690135D01*
X98276000Y-107682452D01*
X98276000Y-107677885D01*
X98784000Y-107677885D01*
X98788475Y-107693124D01*
X98789865Y-107694329D01*
X98797548Y-107696000D01*
X99519885Y-107696000D01*
X99535124Y-107691525D01*
X99536329Y-107690135D01*
X99538000Y-107682452D01*
X99538000Y-107105319D01*
X99537923Y-107102267D01*
X99536767Y-107093055D01*
X99499838Y-106909909D01*
X99496248Y-106898167D01*
X99425022Y-106727057D01*
X99419222Y-106716241D01*
X99316115Y-106562221D01*
X99308322Y-106552734D01*
X99177266Y-106421678D01*
X99167779Y-106413885D01*
X99013759Y-106310778D01*
X99002943Y-106304978D01*
X98831828Y-106233750D01*
X98820096Y-106230163D01*
X98801758Y-106226465D01*
X98788941Y-106227579D01*
X98784000Y-106242812D01*
X98784000Y-107677885D01*
X98276000Y-107677885D01*
X98276000Y-106241000D01*
X98272376Y-106228656D01*
X98256467Y-106226823D01*
X98239904Y-106230163D01*
X98228172Y-106233750D01*
X98057057Y-106304978D01*
X98046241Y-106310778D01*
X97892221Y-106413885D01*
X97882734Y-106421678D01*
X97751678Y-106552734D01*
X97743885Y-106562221D01*
X97640778Y-106716241D01*
X97634978Y-106727057D01*
X97563752Y-106898167D01*
X97560162Y-106909909D01*
X97523233Y-107093055D01*
X97522077Y-107102267D01*
X97522000Y-107105319D01*
X97522000Y-107677885D01*
X96744500Y-107677885D01*
X96744500Y-107149872D01*
X96744163Y-107146622D01*
X96734295Y-107051515D01*
X96734294Y-107051511D01*
X96733583Y-107044657D01*
X96677903Y-106877763D01*
X96585322Y-106728154D01*
X96580140Y-106722981D01*
X96579421Y-106722074D01*
X96552783Y-106656264D01*
X96565954Y-106586500D01*
X96569823Y-106580156D01*
X96573318Y-106573799D01*
X96577755Y-106567624D01*
X96636842Y-106420641D01*
X96646895Y-106350001D01*
X96658581Y-106267891D01*
X96658582Y-106267884D01*
X96659162Y-106263807D01*
X96659307Y-106250000D01*
X96640276Y-106092733D01*
X96584280Y-105944546D01*
X96503402Y-105826867D01*
X96481302Y-105759397D01*
X96499188Y-105690691D01*
X96551380Y-105642560D01*
X96607242Y-105629500D01*
X100143519Y-105629500D01*
X100211640Y-105649502D01*
X100258133Y-105703158D01*
X100268237Y-105773432D01*
X100246606Y-105827951D01*
X100168950Y-105938444D01*
X100163802Y-105951649D01*
X100117540Y-106070305D01*
X100111406Y-106086037D01*
X100110414Y-106093570D01*
X100110414Y-106093571D01*
X100092432Y-106230163D01*
X100090729Y-106243096D01*
X100095354Y-106284983D01*
X100106925Y-106389789D01*
X100108113Y-106400553D01*
X100110723Y-106407684D01*
X100110723Y-106407686D01*
X100156111Y-106531714D01*
X100162553Y-106549319D01*
X100166789Y-106555622D01*
X100166789Y-106555623D01*
X100242885Y-106668865D01*
X100250908Y-106680805D01*
X100309787Y-106734380D01*
X100341161Y-106762928D01*
X100378084Y-106823568D01*
X100375955Y-106895790D01*
X100326147Y-107045955D01*
X100315500Y-107149872D01*
X100315500Y-108750128D01*
X100315837Y-108753374D01*
X100315837Y-108753378D01*
X100320123Y-108794681D01*
X100326417Y-108855343D01*
X100382097Y-109022237D01*
X100474678Y-109171846D01*
X100599194Y-109296144D01*
X100748964Y-109388464D01*
X100755912Y-109390769D01*
X100755913Y-109390769D01*
X100909424Y-109441687D01*
X100909426Y-109441687D01*
X100915955Y-109443853D01*
X101019872Y-109454500D01*
X101120128Y-109454500D01*
X101123374Y-109454163D01*
X101123378Y-109454163D01*
X101218485Y-109444295D01*
X101218489Y-109444294D01*
X101225343Y-109443583D01*
X101231879Y-109441402D01*
X101231881Y-109441402D01*
X101370257Y-109395236D01*
X101392237Y-109387903D01*
X101473236Y-109337779D01*
X101535620Y-109299175D01*
X101535621Y-109299174D01*
X101541846Y-109295322D01*
X101666144Y-109170806D01*
X101758464Y-109021036D01*
X101760769Y-109014087D01*
X101811687Y-108860576D01*
X101811687Y-108860574D01*
X101813853Y-108854045D01*
X101824500Y-108750128D01*
X101824500Y-107149872D01*
X101824163Y-107146622D01*
X101814295Y-107051515D01*
X101814294Y-107051511D01*
X101813583Y-107044657D01*
X101757903Y-106877763D01*
X101709256Y-106799151D01*
X101669175Y-106734380D01*
X101669174Y-106734379D01*
X101665322Y-106728154D01*
X101540806Y-106603856D01*
X101534577Y-106600017D01*
X101534574Y-106600014D01*
X101503908Y-106581111D01*
X101456415Y-106528339D01*
X101444632Y-106486203D01*
X101441930Y-106458773D01*
X101439379Y-106432873D01*
X101410534Y-106337784D01*
X101406365Y-106283460D01*
X101406707Y-106281056D01*
X101409162Y-106263807D01*
X101409307Y-106250000D01*
X101390276Y-106092733D01*
X101334280Y-105944546D01*
X101253402Y-105826867D01*
X101231302Y-105759397D01*
X101249188Y-105690691D01*
X101301380Y-105642560D01*
X101357242Y-105629500D01*
X102643519Y-105629500D01*
X102711640Y-105649502D01*
X102758133Y-105703158D01*
X102768237Y-105773432D01*
X102746606Y-105827951D01*
X102668950Y-105938444D01*
X102663802Y-105951649D01*
X102617540Y-106070305D01*
X102611406Y-106086037D01*
X102610414Y-106093570D01*
X102610414Y-106093571D01*
X102592432Y-106230163D01*
X102590729Y-106243096D01*
X102595354Y-106284983D01*
X102606925Y-106389789D01*
X102608113Y-106400553D01*
X102610723Y-106407684D01*
X102610723Y-106407686D01*
X102656111Y-106531714D01*
X102662553Y-106549319D01*
X102666789Y-106555622D01*
X102666789Y-106555623D01*
X102742885Y-106668865D01*
X102750908Y-106680805D01*
X102756527Y-106685918D01*
X102756528Y-106685919D01*
X102868076Y-106787419D01*
X102866710Y-106788920D01*
X102904219Y-106836519D01*
X102911039Y-106907187D01*
X102906885Y-106923133D01*
X102868746Y-107038119D01*
X102866147Y-107045955D01*
X102855500Y-107149872D01*
X102855500Y-108750128D01*
X102855837Y-108753374D01*
X102855837Y-108753378D01*
X102860123Y-108794681D01*
X102866417Y-108855343D01*
X102922097Y-109022237D01*
X103014678Y-109171846D01*
X103139194Y-109296144D01*
X103288964Y-109388464D01*
X103295912Y-109390769D01*
X103295913Y-109390769D01*
X103449424Y-109441687D01*
X103449426Y-109441687D01*
X103455955Y-109443853D01*
X103559872Y-109454500D01*
X103660128Y-109454500D01*
X103663374Y-109454163D01*
X103663378Y-109454163D01*
X103758485Y-109444295D01*
X103758489Y-109444294D01*
X103765343Y-109443583D01*
X103771879Y-109441402D01*
X103771881Y-109441402D01*
X103910257Y-109395236D01*
X103932237Y-109387903D01*
X104013236Y-109337779D01*
X104075620Y-109299175D01*
X104075621Y-109299174D01*
X104081846Y-109295322D01*
X104206144Y-109170806D01*
X104298464Y-109021036D01*
X104300769Y-109014087D01*
X104351687Y-108860576D01*
X104351687Y-108860574D01*
X104353853Y-108854045D01*
X104364500Y-108750128D01*
X104364500Y-107149872D01*
X104364163Y-107146622D01*
X104354295Y-107051515D01*
X104354294Y-107051511D01*
X104353583Y-107044657D01*
X104297903Y-106877763D01*
X104205322Y-106728154D01*
X104163012Y-106685918D01*
X104151482Y-106674408D01*
X104117403Y-106612126D01*
X104114500Y-106585235D01*
X104114500Y-106573774D01*
X104113620Y-106567624D01*
X104113034Y-106563536D01*
X104112004Y-106553481D01*
X104109654Y-106515601D01*
X104109654Y-106515599D01*
X104109098Y-106506642D01*
X104106051Y-106498201D01*
X104105372Y-106494923D01*
X104101416Y-106479055D01*
X104100473Y-106475831D01*
X104099201Y-106466948D01*
X104095487Y-106458779D01*
X104095485Y-106458773D01*
X104079775Y-106424221D01*
X104075961Y-106414852D01*
X104070799Y-106400553D01*
X104060028Y-106370716D01*
X104054731Y-106363466D01*
X104053154Y-106360499D01*
X104044907Y-106346386D01*
X104043102Y-106343563D01*
X104039388Y-106335395D01*
X104022237Y-106315490D01*
X104013778Y-106305674D01*
X104008753Y-106299842D01*
X104002475Y-106291936D01*
X103994527Y-106281056D01*
X103983665Y-106270194D01*
X103977307Y-106263347D01*
X103974149Y-106259682D01*
X103945056Y-106225918D01*
X103938266Y-106221517D01*
X103900321Y-106162040D01*
X103896249Y-106142095D01*
X103890276Y-106092733D01*
X103834280Y-105944546D01*
X103753402Y-105826867D01*
X103731302Y-105759397D01*
X103749188Y-105690691D01*
X103801380Y-105642560D01*
X103857242Y-105629500D01*
X105010211Y-105629500D01*
X105029921Y-105631051D01*
X105049999Y-105634231D01*
X105059792Y-105632680D01*
X105069710Y-105632680D01*
X105069710Y-105633335D01*
X105084509Y-105632899D01*
X105098034Y-105634231D01*
X105178212Y-105642128D01*
X105202432Y-105646945D01*
X105313856Y-105680745D01*
X105336664Y-105690193D01*
X105439348Y-105745080D01*
X105459880Y-105758799D01*
X105549877Y-105832657D01*
X105567342Y-105850122D01*
X105634725Y-105932228D01*
X105641199Y-105940117D01*
X105654922Y-105960654D01*
X105709806Y-106063334D01*
X105719255Y-106086144D01*
X105753055Y-106197568D01*
X105757872Y-106221788D01*
X105767101Y-106315490D01*
X105766665Y-106330290D01*
X105767320Y-106330290D01*
X105767320Y-106340208D01*
X105765769Y-106350001D01*
X105767320Y-106359791D01*
X105767320Y-106359793D01*
X105768949Y-106370078D01*
X105770500Y-106389789D01*
X105770500Y-106477330D01*
X105750498Y-106545451D01*
X105710803Y-106584474D01*
X105685688Y-106600016D01*
X105678154Y-106604678D01*
X105553856Y-106729194D01*
X105461536Y-106878964D01*
X105459231Y-106885912D01*
X105459231Y-106885913D01*
X105455167Y-106898167D01*
X105406147Y-107045955D01*
X105395500Y-107149872D01*
X105395500Y-108750128D01*
X105395837Y-108753374D01*
X105395837Y-108753378D01*
X105400123Y-108794681D01*
X105406417Y-108855343D01*
X105462097Y-109022237D01*
X105554678Y-109171846D01*
X105679194Y-109296144D01*
X105828964Y-109388464D01*
X105835912Y-109390769D01*
X105835913Y-109390769D01*
X105989424Y-109441687D01*
X105989426Y-109441687D01*
X105995955Y-109443853D01*
X106099872Y-109454500D01*
X106200128Y-109454500D01*
X106203374Y-109454163D01*
X106203378Y-109454163D01*
X106298485Y-109444295D01*
X106298489Y-109444294D01*
X106305343Y-109443583D01*
X106311879Y-109441402D01*
X106311881Y-109441402D01*
X106450257Y-109395236D01*
X106472237Y-109387903D01*
X106553236Y-109337779D01*
X106615620Y-109299175D01*
X106615621Y-109299174D01*
X106621846Y-109295322D01*
X106746144Y-109170806D01*
X106838464Y-109021036D01*
X106840769Y-109014087D01*
X106891687Y-108860576D01*
X106891687Y-108860574D01*
X106893853Y-108854045D01*
X106904500Y-108750128D01*
X106904500Y-107149872D01*
X106904163Y-107146622D01*
X106894295Y-107051515D01*
X106894294Y-107051511D01*
X106893583Y-107044657D01*
X106837903Y-106877763D01*
X106789256Y-106799151D01*
X106749175Y-106734380D01*
X106749174Y-106734379D01*
X106745322Y-106728154D01*
X106620806Y-106603856D01*
X106598748Y-106590260D01*
X106589384Y-106584487D01*
X106541890Y-106531714D01*
X106529500Y-106477227D01*
X106529500Y-106389787D01*
X106531051Y-106370076D01*
X106532680Y-106359791D01*
X106534231Y-106349999D01*
X106532680Y-106340207D01*
X106532680Y-106338622D01*
X106532109Y-106333646D01*
X106530811Y-106315490D01*
X106518181Y-106138907D01*
X106508137Y-106092733D01*
X106474153Y-105936515D01*
X106474152Y-105936513D01*
X106473195Y-105932112D01*
X106399237Y-105733824D01*
X106386059Y-105709689D01*
X106299972Y-105552033D01*
X106297813Y-105548079D01*
X106170987Y-105378659D01*
X106021341Y-105229013D01*
X105851921Y-105102187D01*
X105696013Y-105017055D01*
X105670123Y-105002918D01*
X105670121Y-105002917D01*
X105666176Y-105000763D01*
X105467888Y-104926805D01*
X105463487Y-104925848D01*
X105463485Y-104925847D01*
X105265494Y-104882776D01*
X105265489Y-104882775D01*
X105261093Y-104881819D01*
X105252625Y-104881213D01*
X105121203Y-104871813D01*
X105116678Y-104871168D01*
X105116149Y-104870982D01*
X105114183Y-104870812D01*
X105114178Y-104870811D01*
X105113437Y-104870747D01*
X105110584Y-104870500D01*
X105107337Y-104870500D01*
X105098349Y-104870179D01*
X105089546Y-104869549D01*
X105066350Y-104867890D01*
X105061378Y-104867320D01*
X105059793Y-104867320D01*
X105050001Y-104865769D01*
X105029924Y-104868949D01*
X105010213Y-104870500D01*
X95789788Y-104870500D01*
X95770077Y-104868949D01*
X95750000Y-104865769D01*
X95744165Y-104866693D01*
X95533532Y-104883270D01*
X95528725Y-104884424D01*
X95528719Y-104884425D01*
X95396073Y-104916271D01*
X95322393Y-104933960D01*
X95317822Y-104935853D01*
X95317820Y-104935854D01*
X95126357Y-105015160D01*
X95126353Y-105015162D01*
X95121783Y-105017055D01*
X94936643Y-105130509D01*
X94771529Y-105271529D01*
X94630509Y-105436643D01*
X94627925Y-105440860D01*
X94524793Y-105609156D01*
X94475150Y-105655287D01*
X94379414Y-105704700D01*
X94260039Y-105808838D01*
X94168950Y-105938444D01*
X94166190Y-105945524D01*
X94166188Y-105945527D01*
X94117060Y-106071535D01*
X94073680Y-106127737D01*
X94006801Y-106151564D01*
X93937657Y-106135451D01*
X93888201Y-106084513D01*
X93881801Y-106070305D01*
X93836963Y-105951647D01*
X93834280Y-105944546D01*
X93744553Y-105813992D01*
X93626275Y-105708611D01*
X93618889Y-105704700D01*
X93514638Y-105649502D01*
X93486274Y-105634484D01*
X93332633Y-105595892D01*
X93325034Y-105595852D01*
X93325033Y-105595852D01*
X93259181Y-105595507D01*
X93174221Y-105595062D01*
X93166841Y-105596834D01*
X93166839Y-105596834D01*
X93027563Y-105630271D01*
X93027560Y-105630272D01*
X93020184Y-105632043D01*
X92879414Y-105704700D01*
X92760039Y-105808838D01*
X92668950Y-105938444D01*
X92663802Y-105951649D01*
X92617540Y-106070305D01*
X92611406Y-106086037D01*
X92610414Y-106093570D01*
X92610414Y-106093571D01*
X92592432Y-106230163D01*
X92590729Y-106243096D01*
X92595354Y-106284983D01*
X92597638Y-106305674D01*
X92585232Y-106375578D01*
X92537003Y-106427678D01*
X92472399Y-106445501D01*
X91674934Y-106445501D01*
X91639182Y-106452612D01*
X91612874Y-106457844D01*
X91612872Y-106457845D01*
X91600699Y-106460266D01*
X91590379Y-106467161D01*
X91590378Y-106467162D01*
X91561882Y-106486203D01*
X91516516Y-106516516D01*
X91460266Y-106600699D01*
X91445500Y-106674933D01*
X85254000Y-106674933D01*
X85254000Y-101950000D01*
X92050000Y-101950000D01*
X93300000Y-101950000D01*
X106300000Y-101950000D01*
X107550000Y-101950000D01*
X107550000Y-99700000D01*
X106300000Y-99700000D01*
X106300000Y-101950000D01*
X93300000Y-101950000D01*
X93300000Y-101250000D01*
X98100000Y-101250000D01*
X98750000Y-101900000D01*
X99600000Y-101900000D01*
X100250000Y-101250000D01*
X100250000Y-100350000D01*
X99600000Y-99700000D01*
X98750000Y-99700000D01*
X98100000Y-100350000D01*
X98100000Y-101250000D01*
X93300000Y-101250000D01*
X93300000Y-99700000D01*
X92050000Y-99700000D01*
X92050000Y-101950000D01*
X85254000Y-101950000D01*
X85254000Y-93294681D01*
X92442000Y-93294681D01*
X92442077Y-93297733D01*
X92443233Y-93306945D01*
X92480162Y-93490091D01*
X92483752Y-93501833D01*
X92554978Y-93672943D01*
X92560778Y-93683759D01*
X92663885Y-93837779D01*
X92671678Y-93847266D01*
X92802734Y-93978322D01*
X92812221Y-93986115D01*
X92966241Y-94089222D01*
X92977057Y-94095022D01*
X93148172Y-94166250D01*
X93159904Y-94169837D01*
X93178242Y-94173535D01*
X93191059Y-94172421D01*
X93195412Y-94159000D01*
X93704000Y-94159000D01*
X93707624Y-94171344D01*
X93723533Y-94173177D01*
X93740096Y-94169837D01*
X93751828Y-94166250D01*
X93922943Y-94095022D01*
X93933759Y-94089222D01*
X94087779Y-93986115D01*
X94097266Y-93978322D01*
X94228322Y-93847266D01*
X94236115Y-93837779D01*
X94339222Y-93683759D01*
X94345022Y-93672943D01*
X94416248Y-93501833D01*
X94419838Y-93490091D01*
X94456767Y-93306945D01*
X94457923Y-93297733D01*
X94458000Y-93294681D01*
X94458000Y-93250128D01*
X95235500Y-93250128D01*
X95235837Y-93253374D01*
X95235837Y-93253378D01*
X95240123Y-93294681D01*
X95246417Y-93355343D01*
X95302097Y-93522237D01*
X95394678Y-93671846D01*
X95519194Y-93796144D01*
X95668964Y-93888464D01*
X95675912Y-93890769D01*
X95675913Y-93890769D01*
X95829424Y-93941687D01*
X95829426Y-93941687D01*
X95835955Y-93943853D01*
X95939872Y-93954500D01*
X96040128Y-93954500D01*
X96043374Y-93954163D01*
X96043378Y-93954163D01*
X96138485Y-93944295D01*
X96138489Y-93944294D01*
X96145343Y-93943583D01*
X96151879Y-93941402D01*
X96151881Y-93941402D01*
X96290257Y-93895236D01*
X96312237Y-93887903D01*
X96393236Y-93837779D01*
X96455620Y-93799175D01*
X96455621Y-93799174D01*
X96461846Y-93795322D01*
X96586144Y-93670806D01*
X96678464Y-93521036D01*
X96680769Y-93514087D01*
X96731687Y-93360576D01*
X96731687Y-93360574D01*
X96733853Y-93354045D01*
X96744500Y-93250128D01*
X97775500Y-93250128D01*
X97775837Y-93253374D01*
X97775837Y-93253378D01*
X97780123Y-93294681D01*
X97786417Y-93355343D01*
X97842097Y-93522237D01*
X97934678Y-93671846D01*
X98059194Y-93796144D01*
X98208964Y-93888464D01*
X98215912Y-93890769D01*
X98215913Y-93890769D01*
X98369424Y-93941687D01*
X98369426Y-93941687D01*
X98375955Y-93943853D01*
X98479872Y-93954500D01*
X98580128Y-93954500D01*
X98583374Y-93954163D01*
X98583378Y-93954163D01*
X98678485Y-93944295D01*
X98678489Y-93944294D01*
X98685343Y-93943583D01*
X98691879Y-93941402D01*
X98691881Y-93941402D01*
X98830257Y-93895236D01*
X98852237Y-93887903D01*
X98933236Y-93837779D01*
X98995620Y-93799175D01*
X98995621Y-93799174D01*
X99001846Y-93795322D01*
X99126144Y-93670806D01*
X99218464Y-93521036D01*
X99220769Y-93514087D01*
X99271687Y-93360576D01*
X99271687Y-93360574D01*
X99273853Y-93354045D01*
X99284500Y-93250128D01*
X100315500Y-93250128D01*
X100315837Y-93253374D01*
X100315837Y-93253378D01*
X100320123Y-93294681D01*
X100326417Y-93355343D01*
X100382097Y-93522237D01*
X100474678Y-93671846D01*
X100599194Y-93796144D01*
X100748964Y-93888464D01*
X100755912Y-93890769D01*
X100755913Y-93890769D01*
X100909424Y-93941687D01*
X100909426Y-93941687D01*
X100915955Y-93943853D01*
X101019872Y-93954500D01*
X101120128Y-93954500D01*
X101123374Y-93954163D01*
X101123378Y-93954163D01*
X101218485Y-93944295D01*
X101218489Y-93944294D01*
X101225343Y-93943583D01*
X101231879Y-93941402D01*
X101231881Y-93941402D01*
X101370257Y-93895236D01*
X101392237Y-93887903D01*
X101473236Y-93837779D01*
X101535620Y-93799175D01*
X101535621Y-93799174D01*
X101541846Y-93795322D01*
X101666144Y-93670806D01*
X101758464Y-93521036D01*
X101760769Y-93514087D01*
X101811687Y-93360576D01*
X101811687Y-93360574D01*
X101813853Y-93354045D01*
X101824500Y-93250128D01*
X102855500Y-93250128D01*
X102855837Y-93253374D01*
X102855837Y-93253378D01*
X102860123Y-93294681D01*
X102866417Y-93355343D01*
X102922097Y-93522237D01*
X103014678Y-93671846D01*
X103139194Y-93796144D01*
X103288964Y-93888464D01*
X103295912Y-93890769D01*
X103295913Y-93890769D01*
X103449424Y-93941687D01*
X103449426Y-93941687D01*
X103455955Y-93943853D01*
X103559872Y-93954500D01*
X103660128Y-93954500D01*
X103663374Y-93954163D01*
X103663378Y-93954163D01*
X103758485Y-93944295D01*
X103758489Y-93944294D01*
X103765343Y-93943583D01*
X103771879Y-93941402D01*
X103771881Y-93941402D01*
X103910257Y-93895236D01*
X103932237Y-93887903D01*
X104013236Y-93837779D01*
X104075620Y-93799175D01*
X104075621Y-93799174D01*
X104081846Y-93795322D01*
X104206144Y-93670806D01*
X104298464Y-93521036D01*
X104300769Y-93514087D01*
X104351687Y-93360576D01*
X104351687Y-93360574D01*
X104353853Y-93354045D01*
X104364500Y-93250128D01*
X105395500Y-93250128D01*
X105395837Y-93253374D01*
X105395837Y-93253378D01*
X105400123Y-93294681D01*
X105406417Y-93355343D01*
X105462097Y-93522237D01*
X105554678Y-93671846D01*
X105679194Y-93796144D01*
X105828964Y-93888464D01*
X105835912Y-93890769D01*
X105835913Y-93890769D01*
X105989424Y-93941687D01*
X105989426Y-93941687D01*
X105995955Y-93943853D01*
X106099872Y-93954500D01*
X106200128Y-93954500D01*
X106203374Y-93954163D01*
X106203378Y-93954163D01*
X106298485Y-93944295D01*
X106298489Y-93944294D01*
X106305343Y-93943583D01*
X106311879Y-93941402D01*
X106311881Y-93941402D01*
X106450257Y-93895236D01*
X106472237Y-93887903D01*
X106553236Y-93837779D01*
X106615620Y-93799175D01*
X106615621Y-93799174D01*
X106621846Y-93795322D01*
X106746144Y-93670806D01*
X106838464Y-93521036D01*
X106840769Y-93514087D01*
X106891687Y-93360576D01*
X106891687Y-93360574D01*
X106893853Y-93354045D01*
X106904500Y-93250128D01*
X106904500Y-91649872D01*
X106904163Y-91646622D01*
X106894295Y-91551515D01*
X106894294Y-91551511D01*
X106893583Y-91544657D01*
X106837903Y-91377763D01*
X106745322Y-91228154D01*
X106620806Y-91103856D01*
X106471036Y-91011536D01*
X106464087Y-91009231D01*
X106310576Y-90958313D01*
X106310574Y-90958313D01*
X106304045Y-90956147D01*
X106200128Y-90945500D01*
X106099872Y-90945500D01*
X106096626Y-90945837D01*
X106096622Y-90945837D01*
X106001515Y-90955705D01*
X106001511Y-90955706D01*
X105994657Y-90956417D01*
X105988121Y-90958598D01*
X105988119Y-90958598D01*
X105849743Y-91004764D01*
X105827763Y-91012097D01*
X105821531Y-91015953D01*
X105821532Y-91015953D01*
X105685688Y-91100016D01*
X105678154Y-91104678D01*
X105553856Y-91229194D01*
X105461536Y-91378964D01*
X105459231Y-91385912D01*
X105459231Y-91385913D01*
X105455167Y-91398167D01*
X105406147Y-91545955D01*
X105395500Y-91649872D01*
X105395500Y-93250128D01*
X104364500Y-93250128D01*
X104364500Y-91649872D01*
X104364163Y-91646622D01*
X104354295Y-91551515D01*
X104354294Y-91551511D01*
X104353583Y-91544657D01*
X104297903Y-91377763D01*
X104205322Y-91228154D01*
X104080806Y-91103856D01*
X103931036Y-91011536D01*
X103924087Y-91009231D01*
X103770576Y-90958313D01*
X103770574Y-90958313D01*
X103764045Y-90956147D01*
X103660128Y-90945500D01*
X103559872Y-90945500D01*
X103556626Y-90945837D01*
X103556622Y-90945837D01*
X103461515Y-90955705D01*
X103461511Y-90955706D01*
X103454657Y-90956417D01*
X103448121Y-90958598D01*
X103448119Y-90958598D01*
X103309743Y-91004764D01*
X103287763Y-91012097D01*
X103281531Y-91015953D01*
X103281532Y-91015953D01*
X103145688Y-91100016D01*
X103138154Y-91104678D01*
X103013856Y-91229194D01*
X102921536Y-91378964D01*
X102919231Y-91385912D01*
X102919231Y-91385913D01*
X102915167Y-91398167D01*
X102866147Y-91545955D01*
X102855500Y-91649872D01*
X102855500Y-93250128D01*
X101824500Y-93250128D01*
X101824500Y-91649872D01*
X101824163Y-91646622D01*
X101814295Y-91551515D01*
X101814294Y-91551511D01*
X101813583Y-91544657D01*
X101757903Y-91377763D01*
X101665322Y-91228154D01*
X101540806Y-91103856D01*
X101391036Y-91011536D01*
X101384087Y-91009231D01*
X101230576Y-90958313D01*
X101230574Y-90958313D01*
X101224045Y-90956147D01*
X101120128Y-90945500D01*
X101019872Y-90945500D01*
X101016626Y-90945837D01*
X101016622Y-90945837D01*
X100921515Y-90955705D01*
X100921511Y-90955706D01*
X100914657Y-90956417D01*
X100908121Y-90958598D01*
X100908119Y-90958598D01*
X100769743Y-91004764D01*
X100747763Y-91012097D01*
X100741531Y-91015953D01*
X100741532Y-91015953D01*
X100605688Y-91100016D01*
X100598154Y-91104678D01*
X100473856Y-91229194D01*
X100381536Y-91378964D01*
X100379231Y-91385912D01*
X100379231Y-91385913D01*
X100375167Y-91398167D01*
X100326147Y-91545955D01*
X100315500Y-91649872D01*
X100315500Y-93250128D01*
X99284500Y-93250128D01*
X99284500Y-91649872D01*
X99284163Y-91646622D01*
X99274295Y-91551515D01*
X99274294Y-91551511D01*
X99273583Y-91544657D01*
X99217903Y-91377763D01*
X99125322Y-91228154D01*
X99000806Y-91103856D01*
X98851036Y-91011536D01*
X98844087Y-91009231D01*
X98690576Y-90958313D01*
X98690574Y-90958313D01*
X98684045Y-90956147D01*
X98580128Y-90945500D01*
X98479872Y-90945500D01*
X98476626Y-90945837D01*
X98476622Y-90945837D01*
X98381515Y-90955705D01*
X98381511Y-90955706D01*
X98374657Y-90956417D01*
X98368121Y-90958598D01*
X98368119Y-90958598D01*
X98229743Y-91004764D01*
X98207763Y-91012097D01*
X98201531Y-91015953D01*
X98201532Y-91015953D01*
X98065688Y-91100016D01*
X98058154Y-91104678D01*
X97933856Y-91229194D01*
X97841536Y-91378964D01*
X97839231Y-91385912D01*
X97839231Y-91385913D01*
X97835167Y-91398167D01*
X97786147Y-91545955D01*
X97775500Y-91649872D01*
X97775500Y-93250128D01*
X96744500Y-93250128D01*
X96744500Y-91649872D01*
X96744163Y-91646622D01*
X96734295Y-91551515D01*
X96734294Y-91551511D01*
X96733583Y-91544657D01*
X96677903Y-91377763D01*
X96585322Y-91228154D01*
X96460806Y-91103856D01*
X96311036Y-91011536D01*
X96304087Y-91009231D01*
X96150576Y-90958313D01*
X96150574Y-90958313D01*
X96144045Y-90956147D01*
X96040128Y-90945500D01*
X95939872Y-90945500D01*
X95936626Y-90945837D01*
X95936622Y-90945837D01*
X95841515Y-90955705D01*
X95841511Y-90955706D01*
X95834657Y-90956417D01*
X95828121Y-90958598D01*
X95828119Y-90958598D01*
X95689743Y-91004764D01*
X95667763Y-91012097D01*
X95661531Y-91015953D01*
X95661532Y-91015953D01*
X95525688Y-91100016D01*
X95518154Y-91104678D01*
X95393856Y-91229194D01*
X95301536Y-91378964D01*
X95299231Y-91385912D01*
X95299231Y-91385913D01*
X95295167Y-91398167D01*
X95246147Y-91545955D01*
X95235500Y-91649872D01*
X95235500Y-93250128D01*
X94458000Y-93250128D01*
X94458000Y-92722115D01*
X94453525Y-92706876D01*
X94452135Y-92705671D01*
X94444452Y-92704000D01*
X93722115Y-92704000D01*
X93706876Y-92708475D01*
X93705671Y-92709865D01*
X93704000Y-92717548D01*
X93704000Y-94159000D01*
X93195412Y-94159000D01*
X93196000Y-94157188D01*
X93196000Y-92722115D01*
X93191525Y-92706876D01*
X93190135Y-92705671D01*
X93182452Y-92704000D01*
X92460115Y-92704000D01*
X92444876Y-92708475D01*
X92443671Y-92709865D01*
X92442000Y-92717548D01*
X92442000Y-93294681D01*
X85254000Y-93294681D01*
X85254000Y-92177885D01*
X92442000Y-92177885D01*
X92446475Y-92193124D01*
X92447865Y-92194329D01*
X92455548Y-92196000D01*
X93177885Y-92196000D01*
X93193124Y-92191525D01*
X93194329Y-92190135D01*
X93196000Y-92182452D01*
X93196000Y-92177885D01*
X93704000Y-92177885D01*
X93708475Y-92193124D01*
X93709865Y-92194329D01*
X93717548Y-92196000D01*
X94439885Y-92196000D01*
X94455124Y-92191525D01*
X94456329Y-92190135D01*
X94458000Y-92182452D01*
X94458000Y-91605319D01*
X94457923Y-91602267D01*
X94456767Y-91593055D01*
X94419838Y-91409909D01*
X94416248Y-91398167D01*
X94345022Y-91227057D01*
X94339222Y-91216241D01*
X94236115Y-91062221D01*
X94228322Y-91052734D01*
X94097266Y-90921678D01*
X94087779Y-90913885D01*
X93933759Y-90810778D01*
X93922943Y-90804978D01*
X93751828Y-90733750D01*
X93740096Y-90730163D01*
X93721758Y-90726465D01*
X93708941Y-90727579D01*
X93704000Y-90742812D01*
X93704000Y-92177885D01*
X93196000Y-92177885D01*
X93196000Y-90741000D01*
X93192376Y-90728656D01*
X93176467Y-90726823D01*
X93159904Y-90730163D01*
X93148172Y-90733750D01*
X92977057Y-90804978D01*
X92966241Y-90810778D01*
X92812221Y-90913885D01*
X92802734Y-90921678D01*
X92671678Y-91052734D01*
X92663885Y-91062221D01*
X92560778Y-91216241D01*
X92554978Y-91227057D01*
X92483752Y-91398167D01*
X92480162Y-91409909D01*
X92443233Y-91593055D01*
X92442077Y-91602267D01*
X92442000Y-91605319D01*
X92442000Y-92177885D01*
X85254000Y-92177885D01*
X85254000Y-87037425D01*
X85256421Y-87012844D01*
X85256555Y-87012170D01*
X85258976Y-87000000D01*
X85256555Y-86987829D01*
X85256555Y-86975419D01*
X85257198Y-86975419D01*
X85256527Y-86964674D01*
X85271129Y-86760509D01*
X85273687Y-86742715D01*
X85322810Y-86516899D01*
X85327875Y-86499650D01*
X85408633Y-86283127D01*
X85416102Y-86266774D01*
X85526852Y-86063951D01*
X85536571Y-86048827D01*
X85675063Y-85863824D01*
X85686836Y-85850238D01*
X85850238Y-85686836D01*
X85863824Y-85675063D01*
X86048827Y-85536571D01*
X86063951Y-85526852D01*
X86266774Y-85416102D01*
X86283123Y-85408635D01*
X86416852Y-85358757D01*
X86499650Y-85327875D01*
X86516899Y-85322810D01*
X86742715Y-85273687D01*
X86760509Y-85271129D01*
X86964674Y-85256527D01*
X86975419Y-85257198D01*
X86975419Y-85256555D01*
X86987829Y-85256555D01*
X87000000Y-85258976D01*
X87012847Y-85256421D01*
X87037425Y-85254000D01*
X112962575Y-85254000D01*
X112987153Y-85256421D01*
G37*
%TD.AperFunction*%
%TD*%
M02*
