M48
; DRILL file {KiCad (5.1.9-0-10_14)} date Monday, May 03, 2021 at 03:29:13 PM
; FORMAT={-:-/ absolute / inch / decimal}
; #@! TF.CreationDate,2021-05-03T15:29:13+01:00
; #@! TF.GenerationSoftware,Kicad,Pcbnew,(5.1.9-0-10_14)
; #@! TF.FileFunction,Plated,1,2,PTH
FMAT,2
INCH
T1C0.0157
T2C0.0236
T3C0.0300
T4C0.0335
T5C0.0394
T6C0.0472
T7C0.0591
%
G90
G05
T1
X4.3701Y-4.0276
X4.5172Y-4.5851
X4.6417Y-4.6067
X4.6467Y-4.1685
X4.6483Y-4.4941
X4.6565Y-4.4556
X4.6759Y-4.1971
X4.6944Y-4.4452
X4.7295Y-4.4737
X4.7352Y-4.117
X4.7591Y-4.4452
X4.7808Y-4.5075
X4.7875Y-5.064
X4.7953Y-4.4289
X4.7953Y-4.3886
X4.8927Y-4.525
X4.9055Y-4.4134
X4.9213Y-4.3543
X4.9409Y-4.5977
X4.9552Y-4.6548
X4.9605Y-4.5246
X4.9618Y-4.564
X5.0354Y-4.5774
X5.0354Y-4.6274
X5.0412Y-4.5325
T2
X4.5508Y-4.2642
X4.5508Y-4.4917
T3
X4.8002Y-4.6348
T4
X4.4449Y-4.8386
X4.5433Y-4.8386
X4.6417Y-4.8386
X4.7402Y-4.8386
T5
X4.4173Y-5.0354
X4.5173Y-5.0354
X4.6173Y-5.0354
X4.7173Y-5.0354
T6
X4.4051Y-4.2077
X4.4051Y-4.5482
T7
X4.5697Y-4.2077
X4.5697Y-4.5482
T0
M30
