%TF.GenerationSoftware,KiCad,Pcbnew,(5.1.9-0-10_14)*%
%TF.CreationDate,2021-05-02T14:38:14+01:00*%
%TF.ProjectId,Keypad,4b657970-6164-42e6-9b69-6361645f7063,4*%
%TF.SameCoordinates,Original*%
%TF.FileFunction,Copper,L2,Bot*%
%TF.FilePolarity,Positive*%
%FSLAX46Y46*%
G04 Gerber Fmt 4.6, Leading zero omitted, Abs format (unit mm)*
G04 Created by KiCad (PCBNEW (5.1.9-0-10_14)) date 2021-05-02 14:38:14*
%MOMM*%
%LPD*%
G01*
G04 APERTURE LIST*
%TA.AperFunction,EtchedComponent*%
%ADD10C,0.500000*%
%TD*%
%TA.AperFunction,EtchedComponent*%
%ADD11C,0.250000*%
%TD*%
%TA.AperFunction,SMDPad,CuDef*%
%ADD12C,0.100000*%
%TD*%
%TA.AperFunction,SMDPad,CuDef*%
%ADD13R,1.000000X0.800000*%
%TD*%
%TA.AperFunction,SMDPad,CuDef*%
%ADD14R,2.500000X0.500000*%
%TD*%
%TA.AperFunction,SMDPad,CuDef*%
%ADD15R,0.500000X1.000000*%
%TD*%
%TA.AperFunction,SMDPad,CuDef*%
%ADD16R,1.100000X3.700000*%
%TD*%
%TA.AperFunction,SMDPad,CuDef*%
%ADD17R,0.650000X1.560000*%
%TD*%
%TA.AperFunction,ComponentPad*%
%ADD18C,1.524000*%
%TD*%
%TA.AperFunction,SMDPad,CuDef*%
%ADD19R,0.200000X0.200000*%
%TD*%
%TA.AperFunction,SMDPad,CuDef*%
%ADD20C,0.500000*%
%TD*%
%TA.AperFunction,SMDPad,CuDef*%
%ADD21R,2.500000X2.500000*%
%TD*%
%TA.AperFunction,ComponentPad*%
%ADD22O,1.700000X1.700000*%
%TD*%
%TA.AperFunction,ComponentPad*%
%ADD23R,1.700000X1.700000*%
%TD*%
%TA.AperFunction,ComponentPad*%
%ADD24O,1.700000X1.850000*%
%TD*%
%TA.AperFunction,SMDPad,CuDef*%
%ADD25R,5.490000X8.340000*%
%TD*%
%TA.AperFunction,SMDPad,CuDef*%
%ADD26R,1.140000X0.600000*%
%TD*%
%TA.AperFunction,ComponentPad*%
%ADD27C,1.700000*%
%TD*%
%TA.AperFunction,ComponentPad*%
%ADD28C,2.000000*%
%TD*%
%TA.AperFunction,SMDPad,CuDef*%
%ADD29R,1.140000X0.300000*%
%TD*%
%TA.AperFunction,ComponentPad*%
%ADD30C,0.600000*%
%TD*%
%TA.AperFunction,ViaPad*%
%ADD31C,0.800000*%
%TD*%
%TA.AperFunction,Conductor*%
%ADD32C,0.250000*%
%TD*%
%TA.AperFunction,Conductor*%
%ADD33C,0.500000*%
%TD*%
%TA.AperFunction,Conductor*%
%ADD34C,0.254000*%
%TD*%
%TA.AperFunction,Conductor*%
%ADD35C,0.100000*%
%TD*%
G04 APERTURE END LIST*
D10*
%TO.C,Reg1*%
X125600000Y-107100000D02*
X124100000Y-107100000D01*
X125500000Y-102700000D02*
X124500000Y-102700000D01*
D11*
X121100000Y-102600000D02*
X121100000Y-103900000D01*
X127550000Y-101700000D02*
X122000000Y-101700000D01*
X127550000Y-103400000D02*
X127550000Y-101700000D01*
D10*
X125600000Y-105500000D02*
X124100000Y-105500000D01*
X122700000Y-102700000D02*
X124100000Y-103900000D01*
X125600000Y-107200000D02*
X125600000Y-105500000D01*
X125600000Y-105900000D02*
X124100000Y-105900000D01*
X125600000Y-106300000D02*
X124100000Y-106300000D01*
X125600000Y-106600000D02*
X124100000Y-106600000D01*
D11*
X122000000Y-101700000D02*
X121100000Y-102600000D01*
%TD*%
%TA.AperFunction,SMDPad,CuDef*%
D12*
%TO.P,Reg1,4*%
%TO.N,+3V3*%
G36*
X121847487Y-108613173D02*
G01*
X120786827Y-107552513D01*
X121352513Y-106986827D01*
X122413173Y-108047487D01*
X121847487Y-108613173D01*
G37*
%TD.AperFunction*%
%TA.AperFunction,SMDPad,CuDef*%
%TO.P,Reg1,3*%
%TO.N,GND*%
G36*
X125047487Y-109713173D02*
G01*
X123986827Y-108652513D01*
X124552513Y-108086827D01*
X125613173Y-109147487D01*
X125047487Y-109713173D01*
G37*
%TD.AperFunction*%
D13*
X126600000Y-109100000D03*
%TA.AperFunction,SMDPad,CuDef*%
D12*
%TO.P,Reg1,2*%
%TO.N,VBUS*%
G36*
X126766506Y-105991987D02*
G01*
X127266506Y-106858013D01*
X126833494Y-107108013D01*
X126333494Y-106241987D01*
X126766506Y-105991987D01*
G37*
%TD.AperFunction*%
D14*
%TO.P,Reg1,3*%
%TO.N,GND*%
X126600000Y-104200000D03*
D15*
X126600000Y-103800000D03*
D16*
%TO.P,Reg1,4*%
%TO.N,+3V3*%
X121100000Y-105700000D03*
%TO.P,Reg1,~*%
%TO.N,N/C*%
X124100000Y-105700000D03*
%TO.P,Reg1,3*%
%TO.N,GND*%
%TA.AperFunction,SMDPad,CuDef*%
G36*
G01*
X123550000Y-109150450D02*
X123550000Y-108249550D01*
G75*
G02*
X123799550Y-108000000I249550J0D01*
G01*
X124450450Y-108000000D01*
G75*
G02*
X124700000Y-108249550I0J-249550D01*
G01*
X124700000Y-109150450D01*
G75*
G02*
X124450450Y-109400000I-249550J0D01*
G01*
X123799550Y-109400000D01*
G75*
G02*
X123550000Y-109150450I0J249550D01*
G01*
G37*
%TD.AperFunction*%
%TO.P,Reg1,4*%
%TO.N,+3V3*%
%TA.AperFunction,SMDPad,CuDef*%
G36*
G01*
X121500000Y-109150450D02*
X121500000Y-108249550D01*
G75*
G02*
X121749550Y-108000000I249550J0D01*
G01*
X122400450Y-108000000D01*
G75*
G02*
X122650000Y-108249550I0J-249550D01*
G01*
X122650000Y-109150450D01*
G75*
G02*
X122400450Y-109400000I-249550J0D01*
G01*
X121749550Y-109400000D01*
G75*
G02*
X121500000Y-109150450I0J249550D01*
G01*
G37*
%TD.AperFunction*%
%TO.P,Reg1,3*%
%TO.N,GND*%
%TA.AperFunction,SMDPad,CuDef*%
G36*
G01*
X127337500Y-109600000D02*
X126862500Y-109600000D01*
G75*
G02*
X126625000Y-109362500I0J237500D01*
G01*
X126625000Y-108762500D01*
G75*
G02*
X126862500Y-108525000I237500J0D01*
G01*
X127337500Y-108525000D01*
G75*
G02*
X127575000Y-108762500I0J-237500D01*
G01*
X127575000Y-109362500D01*
G75*
G02*
X127337500Y-109600000I-237500J0D01*
G01*
G37*
%TD.AperFunction*%
%TO.P,Reg1,2*%
%TO.N,VBUS*%
%TA.AperFunction,SMDPad,CuDef*%
G36*
G01*
X127337500Y-107875000D02*
X126862500Y-107875000D01*
G75*
G02*
X126625000Y-107637500I0J237500D01*
G01*
X126625000Y-107037500D01*
G75*
G02*
X126862500Y-106800000I237500J0D01*
G01*
X127337500Y-106800000D01*
G75*
G02*
X127575000Y-107037500I0J-237500D01*
G01*
X127575000Y-107637500D01*
G75*
G02*
X127337500Y-107875000I-237500J0D01*
G01*
G37*
%TD.AperFunction*%
%TO.P,Reg1,~*%
%TO.N,N/C*%
%TA.AperFunction,SMDPad,CuDef*%
G36*
G01*
X125000000Y-102462500D02*
X125000000Y-102937500D01*
G75*
G02*
X124762500Y-103175000I-237500J0D01*
G01*
X124162500Y-103175000D01*
G75*
G02*
X123925000Y-102937500I0J237500D01*
G01*
X123925000Y-102462500D01*
G75*
G02*
X124162500Y-102225000I237500J0D01*
G01*
X124762500Y-102225000D01*
G75*
G02*
X125000000Y-102462500I0J-237500D01*
G01*
G37*
%TD.AperFunction*%
%TA.AperFunction,SMDPad,CuDef*%
G36*
G01*
X123275000Y-102462500D02*
X123275000Y-102937500D01*
G75*
G02*
X123037500Y-103175000I-237500J0D01*
G01*
X122437500Y-103175000D01*
G75*
G02*
X122200000Y-102937500I0J237500D01*
G01*
X122200000Y-102462500D01*
G75*
G02*
X122437500Y-102225000I237500J0D01*
G01*
X123037500Y-102225000D01*
G75*
G02*
X123275000Y-102462500I0J-237500D01*
G01*
G37*
%TD.AperFunction*%
%TO.P,Reg1,3*%
%TO.N,GND*%
%TA.AperFunction,SMDPad,CuDef*%
G36*
G01*
X126074725Y-109825000D02*
X125125275Y-109825000D01*
G75*
G02*
X124875000Y-109574725I0J250275D01*
G01*
X124875000Y-108900275D01*
G75*
G02*
X125125275Y-108650000I250275J0D01*
G01*
X126074725Y-108650000D01*
G75*
G02*
X126325000Y-108900275I0J-250275D01*
G01*
X126325000Y-109574725D01*
G75*
G02*
X126074725Y-109825000I-250275J0D01*
G01*
G37*
%TD.AperFunction*%
%TO.P,Reg1,~*%
%TO.N,N/C*%
%TA.AperFunction,SMDPad,CuDef*%
G36*
G01*
X126074725Y-107750000D02*
X125125275Y-107750000D01*
G75*
G02*
X124875000Y-107499725I0J250275D01*
G01*
X124875000Y-106825275D01*
G75*
G02*
X125125275Y-106575000I250275J0D01*
G01*
X126074725Y-106575000D01*
G75*
G02*
X126325000Y-106825275I0J-250275D01*
G01*
X126325000Y-107499725D01*
G75*
G02*
X126074725Y-107750000I-250275J0D01*
G01*
G37*
%TD.AperFunction*%
D17*
%TO.P,Reg1,1*%
%TO.N,VBUS*%
X127550000Y-105550000D03*
%TO.P,Reg1,2*%
X126600000Y-105550000D03*
%TO.P,Reg1,~*%
%TO.N,N/C*%
X125650000Y-105550000D03*
X125650000Y-102850000D03*
X127550000Y-102850000D03*
%TO.P,Reg1,3*%
%TO.N,GND*%
X126600000Y-102850000D03*
%TD*%
D18*
%TO.P,U2,21*%
%TO.N,GND*%
X121925000Y-117725000D03*
D19*
%TO.P,U2,~*%
%TO.N,N/C*%
X123925000Y-119725000D03*
X119925000Y-115725000D03*
X119925000Y-119725000D03*
X123925000Y-115725000D03*
D20*
X123925000Y-119725000D03*
D21*
%TO.P,U2,21*%
%TO.N,GND*%
X121925000Y-117725000D03*
%TO.P,U2,20*%
%TO.N,+3V3*%
%TA.AperFunction,SMDPad,CuDef*%
G36*
G01*
X124387500Y-118850000D02*
X123512500Y-118850000D01*
G75*
G02*
X123450000Y-118787500I0J62500D01*
G01*
X123450000Y-118662500D01*
G75*
G02*
X123512500Y-118600000I62500J0D01*
G01*
X124387500Y-118600000D01*
G75*
G02*
X124450000Y-118662500I0J-62500D01*
G01*
X124450000Y-118787500D01*
G75*
G02*
X124387500Y-118850000I-62500J0D01*
G01*
G37*
%TD.AperFunction*%
%TO.P,U2,19*%
%TO.N,EN*%
%TA.AperFunction,SMDPad,CuDef*%
G36*
G01*
X124387500Y-118350000D02*
X123512500Y-118350000D01*
G75*
G02*
X123450000Y-118287500I0J62500D01*
G01*
X123450000Y-118162500D01*
G75*
G02*
X123512500Y-118100000I62500J0D01*
G01*
X124387500Y-118100000D01*
G75*
G02*
X124450000Y-118162500I0J-62500D01*
G01*
X124450000Y-118287500D01*
G75*
G02*
X124387500Y-118350000I-62500J0D01*
G01*
G37*
%TD.AperFunction*%
%TO.P,U2,18*%
%TO.N,GPIO0*%
%TA.AperFunction,SMDPad,CuDef*%
G36*
G01*
X124387500Y-117850000D02*
X123512500Y-117850000D01*
G75*
G02*
X123450000Y-117787500I0J62500D01*
G01*
X123450000Y-117662500D01*
G75*
G02*
X123512500Y-117600000I62500J0D01*
G01*
X124387500Y-117600000D01*
G75*
G02*
X124450000Y-117662500I0J-62500D01*
G01*
X124450000Y-117787500D01*
G75*
G02*
X124387500Y-117850000I-62500J0D01*
G01*
G37*
%TD.AperFunction*%
%TO.P,U2,17*%
%TO.N,I*%
%TA.AperFunction,SMDPad,CuDef*%
G36*
G01*
X124387500Y-117350000D02*
X123512500Y-117350000D01*
G75*
G02*
X123450000Y-117287500I0J62500D01*
G01*
X123450000Y-117162500D01*
G75*
G02*
X123512500Y-117100000I62500J0D01*
G01*
X124387500Y-117100000D01*
G75*
G02*
X124450000Y-117162500I0J-62500D01*
G01*
X124450000Y-117287500D01*
G75*
G02*
X124387500Y-117350000I-62500J0D01*
G01*
G37*
%TD.AperFunction*%
%TO.P,U2,16*%
%TO.N,Net-(U2-Pad16)*%
%TA.AperFunction,SMDPad,CuDef*%
G36*
G01*
X124387500Y-116850000D02*
X123512500Y-116850000D01*
G75*
G02*
X123450000Y-116787500I0J62500D01*
G01*
X123450000Y-116662500D01*
G75*
G02*
X123512500Y-116600000I62500J0D01*
G01*
X124387500Y-116600000D01*
G75*
G02*
X124450000Y-116662500I0J-62500D01*
G01*
X124450000Y-116787500D01*
G75*
G02*
X124387500Y-116850000I-62500J0D01*
G01*
G37*
%TD.AperFunction*%
%TO.P,U2,15*%
%TO.N,Net-(U2-Pad15)*%
%TA.AperFunction,SMDPad,CuDef*%
G36*
G01*
X122987500Y-116200000D02*
X122862500Y-116200000D01*
G75*
G02*
X122800000Y-116137500I0J62500D01*
G01*
X122800000Y-115262500D01*
G75*
G02*
X122862500Y-115200000I62500J0D01*
G01*
X122987500Y-115200000D01*
G75*
G02*
X123050000Y-115262500I0J-62500D01*
G01*
X123050000Y-116137500D01*
G75*
G02*
X122987500Y-116200000I-62500J0D01*
G01*
G37*
%TD.AperFunction*%
%TO.P,U2,14*%
%TO.N,Net-(U2-Pad14)*%
%TA.AperFunction,SMDPad,CuDef*%
G36*
G01*
X122487500Y-116200000D02*
X122362500Y-116200000D01*
G75*
G02*
X122300000Y-116137500I0J62500D01*
G01*
X122300000Y-115262500D01*
G75*
G02*
X122362500Y-115200000I62500J0D01*
G01*
X122487500Y-115200000D01*
G75*
G02*
X122550000Y-115262500I0J-62500D01*
G01*
X122550000Y-116137500D01*
G75*
G02*
X122487500Y-116200000I-62500J0D01*
G01*
G37*
%TD.AperFunction*%
%TO.P,U2,13*%
%TO.N,GND*%
%TA.AperFunction,SMDPad,CuDef*%
G36*
G01*
X121987500Y-116200000D02*
X121862500Y-116200000D01*
G75*
G02*
X121800000Y-116137500I0J62500D01*
G01*
X121800000Y-115262500D01*
G75*
G02*
X121862500Y-115200000I62500J0D01*
G01*
X121987500Y-115200000D01*
G75*
G02*
X122050000Y-115262500I0J-62500D01*
G01*
X122050000Y-116137500D01*
G75*
G02*
X121987500Y-116200000I-62500J0D01*
G01*
G37*
%TD.AperFunction*%
%TO.P,U2,12*%
%TO.N,+3V3*%
%TA.AperFunction,SMDPad,CuDef*%
G36*
G01*
X121487500Y-116200000D02*
X121362500Y-116200000D01*
G75*
G02*
X121300000Y-116137500I0J62500D01*
G01*
X121300000Y-115262500D01*
G75*
G02*
X121362500Y-115200000I62500J0D01*
G01*
X121487500Y-115200000D01*
G75*
G02*
X121550000Y-115262500I0J-62500D01*
G01*
X121550000Y-116137500D01*
G75*
G02*
X121487500Y-116200000I-62500J0D01*
G01*
G37*
%TD.AperFunction*%
%TO.P,U2,11*%
%TA.AperFunction,SMDPad,CuDef*%
G36*
G01*
X120987500Y-116200000D02*
X120862500Y-116200000D01*
G75*
G02*
X120800000Y-116137500I0J62500D01*
G01*
X120800000Y-115262500D01*
G75*
G02*
X120862500Y-115200000I62500J0D01*
G01*
X120987500Y-115200000D01*
G75*
G02*
X121050000Y-115262500I0J-62500D01*
G01*
X121050000Y-116137500D01*
G75*
G02*
X120987500Y-116200000I-62500J0D01*
G01*
G37*
%TD.AperFunction*%
%TO.P,U2,10*%
%TA.AperFunction,SMDPad,CuDef*%
G36*
G01*
X120337500Y-116850000D02*
X119462500Y-116850000D01*
G75*
G02*
X119400000Y-116787500I0J62500D01*
G01*
X119400000Y-116662500D01*
G75*
G02*
X119462500Y-116600000I62500J0D01*
G01*
X120337500Y-116600000D01*
G75*
G02*
X120400000Y-116662500I0J-62500D01*
G01*
X120400000Y-116787500D01*
G75*
G02*
X120337500Y-116850000I-62500J0D01*
G01*
G37*
%TD.AperFunction*%
%TO.P,U2,9*%
%TO.N,D-*%
%TA.AperFunction,SMDPad,CuDef*%
G36*
G01*
X120337500Y-117350000D02*
X119462500Y-117350000D01*
G75*
G02*
X119400000Y-117287500I0J62500D01*
G01*
X119400000Y-117162500D01*
G75*
G02*
X119462500Y-117100000I62500J0D01*
G01*
X120337500Y-117100000D01*
G75*
G02*
X120400000Y-117162500I0J-62500D01*
G01*
X120400000Y-117287500D01*
G75*
G02*
X120337500Y-117350000I-62500J0D01*
G01*
G37*
%TD.AperFunction*%
%TO.P,U2,8*%
%TO.N,D+*%
%TA.AperFunction,SMDPad,CuDef*%
G36*
G01*
X120337500Y-117850000D02*
X119462500Y-117850000D01*
G75*
G02*
X119400000Y-117787500I0J62500D01*
G01*
X119400000Y-117662500D01*
G75*
G02*
X119462500Y-117600000I62500J0D01*
G01*
X120337500Y-117600000D01*
G75*
G02*
X120400000Y-117662500I0J-62500D01*
G01*
X120400000Y-117787500D01*
G75*
G02*
X120337500Y-117850000I-62500J0D01*
G01*
G37*
%TD.AperFunction*%
%TO.P,U2,7*%
%TO.N,Net-(U2-Pad7)*%
%TA.AperFunction,SMDPad,CuDef*%
G36*
G01*
X120337500Y-118350000D02*
X119462500Y-118350000D01*
G75*
G02*
X119400000Y-118287500I0J62500D01*
G01*
X119400000Y-118162500D01*
G75*
G02*
X119462500Y-118100000I62500J0D01*
G01*
X120337500Y-118100000D01*
G75*
G02*
X120400000Y-118162500I0J-62500D01*
G01*
X120400000Y-118287500D01*
G75*
G02*
X120337500Y-118350000I-62500J0D01*
G01*
G37*
%TD.AperFunction*%
%TO.P,U2,6*%
%TO.N,GND*%
%TA.AperFunction,SMDPad,CuDef*%
G36*
G01*
X120337500Y-118850000D02*
X119462500Y-118850000D01*
G75*
G02*
X119400000Y-118787500I0J62500D01*
G01*
X119400000Y-118662500D01*
G75*
G02*
X119462500Y-118600000I62500J0D01*
G01*
X120337500Y-118600000D01*
G75*
G02*
X120400000Y-118662500I0J-62500D01*
G01*
X120400000Y-118787500D01*
G75*
G02*
X120337500Y-118850000I-62500J0D01*
G01*
G37*
%TD.AperFunction*%
%TO.P,U2,5*%
%TA.AperFunction,SMDPad,CuDef*%
G36*
G01*
X120987500Y-120250000D02*
X120862500Y-120250000D01*
G75*
G02*
X120800000Y-120187500I0J62500D01*
G01*
X120800000Y-119312500D01*
G75*
G02*
X120862500Y-119250000I62500J0D01*
G01*
X120987500Y-119250000D01*
G75*
G02*
X121050000Y-119312500I0J-62500D01*
G01*
X121050000Y-120187500D01*
G75*
G02*
X120987500Y-120250000I-62500J0D01*
G01*
G37*
%TD.AperFunction*%
%TO.P,U2,4*%
%TA.AperFunction,SMDPad,CuDef*%
G36*
G01*
X121487500Y-120250000D02*
X121362500Y-120250000D01*
G75*
G02*
X121300000Y-120187500I0J62500D01*
G01*
X121300000Y-119312500D01*
G75*
G02*
X121362500Y-119250000I62500J0D01*
G01*
X121487500Y-119250000D01*
G75*
G02*
X121550000Y-119312500I0J-62500D01*
G01*
X121550000Y-120187500D01*
G75*
G02*
X121487500Y-120250000I-62500J0D01*
G01*
G37*
%TD.AperFunction*%
%TO.P,U2,3*%
%TA.AperFunction,SMDPad,CuDef*%
G36*
G01*
X121987500Y-120250000D02*
X121862500Y-120250000D01*
G75*
G02*
X121800000Y-120187500I0J62500D01*
G01*
X121800000Y-119312500D01*
G75*
G02*
X121862500Y-119250000I62500J0D01*
G01*
X121987500Y-119250000D01*
G75*
G02*
X122050000Y-119312500I0J-62500D01*
G01*
X122050000Y-120187500D01*
G75*
G02*
X121987500Y-120250000I-62500J0D01*
G01*
G37*
%TD.AperFunction*%
%TO.P,U2,2*%
%TA.AperFunction,SMDPad,CuDef*%
G36*
G01*
X122487500Y-120250000D02*
X122362500Y-120250000D01*
G75*
G02*
X122300000Y-120187500I0J62500D01*
G01*
X122300000Y-119312500D01*
G75*
G02*
X122362500Y-119250000I62500J0D01*
G01*
X122487500Y-119250000D01*
G75*
G02*
X122550000Y-119312500I0J-62500D01*
G01*
X122550000Y-120187500D01*
G75*
G02*
X122487500Y-120250000I-62500J0D01*
G01*
G37*
%TD.AperFunction*%
%TO.P,U2,1*%
%TO.N,O*%
%TA.AperFunction,SMDPad,CuDef*%
G36*
G01*
X122987500Y-120250000D02*
X122862500Y-120250000D01*
G75*
G02*
X122800000Y-120187500I0J62500D01*
G01*
X122800000Y-119312500D01*
G75*
G02*
X122862500Y-119250000I62500J0D01*
G01*
X122987500Y-119250000D01*
G75*
G02*
X123050000Y-119312500I0J-62500D01*
G01*
X123050000Y-120187500D01*
G75*
G02*
X122987500Y-120250000I-62500J0D01*
G01*
G37*
%TD.AperFunction*%
%TD*%
D22*
%TO.P,J3,4*%
%TO.N,Net-(J1-Pad4)*%
X119820000Y-127900000D03*
%TO.P,J3,3*%
%TO.N,Net-(J1-Pad3)*%
X117280000Y-127900000D03*
%TO.P,J3,2*%
%TO.N,VBUS*%
X114740000Y-127900000D03*
D23*
%TO.P,J3,1*%
%TO.N,GND*%
X112200000Y-127900000D03*
%TD*%
D24*
%TO.P,J1,4*%
%TO.N,Net-(J1-Pad4)*%
X120400000Y-122900000D03*
%TO.P,J1,3*%
%TO.N,Net-(J1-Pad3)*%
X117900000Y-122900000D03*
%TO.P,J1,2*%
%TO.N,VBUS*%
X115400000Y-122900000D03*
%TO.P,J1,1*%
%TO.N,GND*%
%TA.AperFunction,ComponentPad*%
G36*
G01*
X112050000Y-123575000D02*
X112050000Y-122225000D01*
G75*
G02*
X112300000Y-121975000I250000J0D01*
G01*
X113500000Y-121975000D01*
G75*
G02*
X113750000Y-122225000I0J-250000D01*
G01*
X113750000Y-123575000D01*
G75*
G02*
X113500000Y-123825000I-250000J0D01*
G01*
X112300000Y-123825000D01*
G75*
G02*
X112050000Y-123575000I0J250000D01*
G01*
G37*
%TD.AperFunction*%
%TD*%
%TO.P,U3,8*%
%TO.N,+3V3*%
%TA.AperFunction,SMDPad,CuDef*%
G36*
G01*
X123345000Y-127750000D02*
X123645000Y-127750000D01*
G75*
G02*
X123795000Y-127900000I0J-150000D01*
G01*
X123795000Y-129500000D01*
G75*
G02*
X123645000Y-129650000I-150000J0D01*
G01*
X123345000Y-129650000D01*
G75*
G02*
X123195000Y-129500000I0J150000D01*
G01*
X123195000Y-127900000D01*
G75*
G02*
X123345000Y-127750000I150000J0D01*
G01*
G37*
%TD.AperFunction*%
%TO.P,U3,7*%
%TO.N,Net-(J1-Pad4)*%
%TA.AperFunction,SMDPad,CuDef*%
G36*
G01*
X124615000Y-127750000D02*
X124915000Y-127750000D01*
G75*
G02*
X125065000Y-127900000I0J-150000D01*
G01*
X125065000Y-129500000D01*
G75*
G02*
X124915000Y-129650000I-150000J0D01*
G01*
X124615000Y-129650000D01*
G75*
G02*
X124465000Y-129500000I0J150000D01*
G01*
X124465000Y-127900000D01*
G75*
G02*
X124615000Y-127750000I150000J0D01*
G01*
G37*
%TD.AperFunction*%
%TO.P,U3,6*%
%TO.N,Net-(J1-Pad3)*%
%TA.AperFunction,SMDPad,CuDef*%
G36*
G01*
X125885000Y-127750000D02*
X126185000Y-127750000D01*
G75*
G02*
X126335000Y-127900000I0J-150000D01*
G01*
X126335000Y-129500000D01*
G75*
G02*
X126185000Y-129650000I-150000J0D01*
G01*
X125885000Y-129650000D01*
G75*
G02*
X125735000Y-129500000I0J150000D01*
G01*
X125735000Y-127900000D01*
G75*
G02*
X125885000Y-127750000I150000J0D01*
G01*
G37*
%TD.AperFunction*%
%TO.P,U3,5*%
%TO.N,GND*%
%TA.AperFunction,SMDPad,CuDef*%
G36*
G01*
X127155000Y-127750000D02*
X127455000Y-127750000D01*
G75*
G02*
X127605000Y-127900000I0J-150000D01*
G01*
X127605000Y-129500000D01*
G75*
G02*
X127455000Y-129650000I-150000J0D01*
G01*
X127155000Y-129650000D01*
G75*
G02*
X127005000Y-129500000I0J150000D01*
G01*
X127005000Y-127900000D01*
G75*
G02*
X127155000Y-127750000I150000J0D01*
G01*
G37*
%TD.AperFunction*%
%TO.P,U3,4*%
%TO.N,Net-(U1-Pad28)*%
%TA.AperFunction,SMDPad,CuDef*%
G36*
G01*
X127155000Y-120750000D02*
X127455000Y-120750000D01*
G75*
G02*
X127605000Y-120900000I0J-150000D01*
G01*
X127605000Y-122500000D01*
G75*
G02*
X127455000Y-122650000I-150000J0D01*
G01*
X127155000Y-122650000D01*
G75*
G02*
X127005000Y-122500000I0J150000D01*
G01*
X127005000Y-120900000D01*
G75*
G02*
X127155000Y-120750000I150000J0D01*
G01*
G37*
%TD.AperFunction*%
%TO.P,U3,3*%
%TO.N,Net-(U1-Pad26)*%
%TA.AperFunction,SMDPad,CuDef*%
G36*
G01*
X125885000Y-120750000D02*
X126185000Y-120750000D01*
G75*
G02*
X126335000Y-120900000I0J-150000D01*
G01*
X126335000Y-122500000D01*
G75*
G02*
X126185000Y-122650000I-150000J0D01*
G01*
X125885000Y-122650000D01*
G75*
G02*
X125735000Y-122500000I0J150000D01*
G01*
X125735000Y-120900000D01*
G75*
G02*
X125885000Y-120750000I150000J0D01*
G01*
G37*
%TD.AperFunction*%
%TO.P,U3,2*%
%TA.AperFunction,SMDPad,CuDef*%
G36*
G01*
X124615000Y-120750000D02*
X124915000Y-120750000D01*
G75*
G02*
X125065000Y-120900000I0J-150000D01*
G01*
X125065000Y-122500000D01*
G75*
G02*
X124915000Y-122650000I-150000J0D01*
G01*
X124615000Y-122650000D01*
G75*
G02*
X124465000Y-122500000I0J150000D01*
G01*
X124465000Y-120900000D01*
G75*
G02*
X124615000Y-120750000I150000J0D01*
G01*
G37*
%TD.AperFunction*%
%TO.P,U3,1*%
%TO.N,Net-(U1-Pad27)*%
%TA.AperFunction,SMDPad,CuDef*%
G36*
G01*
X123345000Y-120750000D02*
X123645000Y-120750000D01*
G75*
G02*
X123795000Y-120900000I0J-150000D01*
G01*
X123795000Y-122500000D01*
G75*
G02*
X123645000Y-122650000I-150000J0D01*
G01*
X123345000Y-122650000D01*
G75*
G02*
X123195000Y-122500000I0J150000D01*
G01*
X123195000Y-120900000D01*
G75*
G02*
X123345000Y-120750000I150000J0D01*
G01*
G37*
%TD.AperFunction*%
%TD*%
D25*
%TO.P,J2,S1*%
%TO.N,GND*%
X112545000Y-111200000D03*
D26*
%TO.P,J2,A12*%
X116660000Y-108000000D03*
%TO.P,J2,A4*%
%TO.N,VBUS*%
X116660000Y-113600000D03*
%TO.P,J2,B12*%
%TO.N,GND*%
X116660000Y-114400000D03*
%TO.P,J2,B4*%
%TO.N,VBUS*%
X116660000Y-108800000D03*
D27*
%TO.P,J2,S1*%
%TO.N,GND*%
X111890000Y-106875000D03*
X111890000Y-115525000D03*
D28*
X116070000Y-106875000D03*
X116070000Y-115525000D03*
D29*
%TO.P,J2,A7*%
%TO.N,D-*%
X116660000Y-110950000D03*
%TO.P,J2,A6*%
%TO.N,D+*%
X116660000Y-111450000D03*
%TO.P,J2,B6*%
X116660000Y-110450000D03*
%TO.P,J2,B7*%
%TO.N,D-*%
X116660000Y-111950000D03*
%TO.P,J2,A8*%
%TO.N,Net-(J2-PadA8)*%
X116660000Y-109950000D03*
%TO.P,J2,A5*%
%TO.N,Net-(J2-PadA5)*%
X116660000Y-112450000D03*
%TO.P,J2,B5*%
%TO.N,Net-(J2-PadB5)*%
X116660000Y-109450000D03*
%TO.P,J2,B8*%
%TO.N,Net-(J2-PadB8)*%
X116660000Y-112950000D03*
D26*
%TO.P,J2,A9*%
%TO.N,VBUS*%
X116660000Y-108800000D03*
%TO.P,J2,B9*%
X116660000Y-113600000D03*
%TO.P,J2,B1*%
%TO.N,GND*%
X116660000Y-108000000D03*
D30*
%TO.P,J2,S1*%
X115590000Y-108310000D03*
X115590000Y-114090000D03*
D26*
%TO.P,J2,A1*%
X116660000Y-114400000D03*
%TD*%
%TO.P,R7,2*%
%TO.N,Net-(J2-PadB5)*%
%TA.AperFunction,SMDPad,CuDef*%
G36*
G01*
X113550000Y-105375001D02*
X113550000Y-104124999D01*
G75*
G02*
X113799999Y-103875000I249999J0D01*
G01*
X114600001Y-103875000D01*
G75*
G02*
X114850000Y-104124999I0J-249999D01*
G01*
X114850000Y-105375001D01*
G75*
G02*
X114600001Y-105625000I-249999J0D01*
G01*
X113799999Y-105625000D01*
G75*
G02*
X113550000Y-105375001I0J249999D01*
G01*
G37*
%TD.AperFunction*%
%TO.P,R7,1*%
%TO.N,GND*%
%TA.AperFunction,SMDPad,CuDef*%
G36*
G01*
X110450000Y-105375001D02*
X110450000Y-104124999D01*
G75*
G02*
X110699999Y-103875000I249999J0D01*
G01*
X111500001Y-103875000D01*
G75*
G02*
X111750000Y-104124999I0J-249999D01*
G01*
X111750000Y-105375001D01*
G75*
G02*
X111500001Y-105625000I-249999J0D01*
G01*
X110699999Y-105625000D01*
G75*
G02*
X110450000Y-105375001I0J249999D01*
G01*
G37*
%TD.AperFunction*%
%TD*%
%TO.P,R6,2*%
%TO.N,GND*%
%TA.AperFunction,SMDPad,CuDef*%
G36*
G01*
X111750000Y-101674999D02*
X111750000Y-102925001D01*
G75*
G02*
X111500001Y-103175000I-249999J0D01*
G01*
X110699999Y-103175000D01*
G75*
G02*
X110450000Y-102925001I0J249999D01*
G01*
X110450000Y-101674999D01*
G75*
G02*
X110699999Y-101425000I249999J0D01*
G01*
X111500001Y-101425000D01*
G75*
G02*
X111750000Y-101674999I0J-249999D01*
G01*
G37*
%TD.AperFunction*%
%TO.P,R6,1*%
%TO.N,Net-(J2-PadA5)*%
%TA.AperFunction,SMDPad,CuDef*%
G36*
G01*
X114850000Y-101674999D02*
X114850000Y-102925001D01*
G75*
G02*
X114600001Y-103175000I-249999J0D01*
G01*
X113799999Y-103175000D01*
G75*
G02*
X113550000Y-102925001I0J249999D01*
G01*
X113550000Y-101674999D01*
G75*
G02*
X113799999Y-101425000I249999J0D01*
G01*
X114600001Y-101425000D01*
G75*
G02*
X114850000Y-101674999I0J-249999D01*
G01*
G37*
%TD.AperFunction*%
%TD*%
D31*
%TO.N,D+*%
X121799886Y-112494553D03*
X120129029Y-113632466D03*
%TO.N,GND*%
X111000000Y-102300000D03*
X124600000Y-110600000D03*
X124600000Y-112100000D03*
%TO.N,D-*%
X119238939Y-112907648D03*
X120881915Y-112907456D03*
%TO.N,+3V3*%
X121602532Y-128625010D03*
X125861930Y-118230814D03*
X120273079Y-104570983D03*
X124274290Y-114936020D03*
X121432949Y-114489255D03*
%TO.N,VBUS*%
X118067593Y-114149990D03*
X114737045Y-116461725D03*
%TO.N,O*%
X117899969Y-117009981D03*
%TO.N,I*%
X125997837Y-114925010D03*
%TO.N,EN*%
X126030254Y-115924496D03*
%TO.N,Net-(J2-PadA5)*%
X118767233Y-106605264D03*
X118274320Y-113171579D03*
%TO.N,Net-(J2-PadB5)*%
X118025034Y-105880254D03*
X121799979Y-111471124D03*
%TO.N,Net-(U1-Pad28)*%
X128046649Y-115125010D03*
%TO.N,Net-(U1-Pad27)*%
X127899980Y-116265000D03*
%TO.N,Net-(U1-Pad26)*%
X127899980Y-117535000D03*
%TO.N,GPIO0*%
X125500022Y-116780935D03*
%TD*%
D32*
%TO.N,D+*%
X121750406Y-112494553D02*
X121799886Y-112494553D01*
X116660000Y-110450000D02*
X119705853Y-110450000D01*
X119705853Y-110450000D02*
X121750406Y-112494553D01*
X118624979Y-115136516D02*
X120129029Y-113632466D01*
X119900000Y-117725000D02*
X119215567Y-117725000D01*
X119215567Y-117725000D02*
X118624979Y-117134412D01*
X119186411Y-111450000D02*
X120129029Y-112392618D01*
X118624979Y-117134412D02*
X118624979Y-115136516D01*
X120129029Y-112392618D02*
X120129029Y-113632466D01*
X116660000Y-111450000D02*
X119186411Y-111450000D01*
%TO.N,GND*%
X115590000Y-115045000D02*
X116070000Y-115525000D01*
X115590000Y-114090000D02*
X115590000Y-115045000D01*
X115590000Y-107355000D02*
X116070000Y-106875000D01*
X115590000Y-108310000D02*
X115590000Y-107355000D01*
X111100000Y-106085000D02*
X111890000Y-106875000D01*
X111100000Y-104750000D02*
X111100000Y-106085000D01*
X111890000Y-110545000D02*
X112545000Y-111200000D01*
X111890000Y-106875000D02*
X111890000Y-110545000D01*
X111890000Y-111855000D02*
X112545000Y-111200000D01*
X111890000Y-115525000D02*
X111890000Y-111855000D01*
X115590000Y-108310000D02*
X112700000Y-111200000D01*
X112700000Y-111200000D02*
X112545000Y-111200000D01*
X115590000Y-114090000D02*
X112700000Y-111200000D01*
X116660000Y-114935000D02*
X116070000Y-115525000D01*
X116660000Y-114400000D02*
X116660000Y-114935000D01*
X116660000Y-107465000D02*
X116070000Y-106875000D01*
X116660000Y-108000000D02*
X116660000Y-107465000D01*
X121925000Y-115700000D02*
X121925000Y-117725000D01*
X119900000Y-118725000D02*
X120925000Y-118725000D01*
X120925000Y-118725000D02*
X121925000Y-117725000D01*
X120925000Y-119750000D02*
X120925000Y-118725000D01*
X121425000Y-118225000D02*
X121925000Y-117725000D01*
X121425000Y-119750000D02*
X121425000Y-118225000D01*
X121925000Y-119750000D02*
X121925000Y-117725000D01*
X122425000Y-118225000D02*
X121925000Y-117725000D01*
X122425000Y-119750000D02*
X122425000Y-118225000D01*
X124600000Y-108700000D02*
X124800000Y-108900000D01*
X124125000Y-108700000D02*
X124600000Y-108700000D01*
X125137500Y-109237500D02*
X124800000Y-108900000D01*
X125600000Y-109237500D02*
X125137500Y-109237500D01*
X126462500Y-109237500D02*
X126600000Y-109100000D01*
X125600000Y-109237500D02*
X126462500Y-109237500D01*
X127062500Y-109100000D02*
X127100000Y-109062500D01*
X126600000Y-109100000D02*
X127062500Y-109100000D01*
X126600000Y-102850000D02*
X126600000Y-103800000D01*
X126600000Y-103800000D02*
X126600000Y-103900000D01*
X126600000Y-103800000D02*
X126900000Y-104100000D01*
X126900000Y-104100000D02*
X128200000Y-104100000D01*
X128200000Y-104100000D02*
X128300000Y-104100000D01*
X128300000Y-104100000D02*
X128600000Y-104400000D01*
X128600000Y-104400000D02*
X128600000Y-113300000D01*
D33*
X116660000Y-114400000D02*
X116900000Y-114400000D01*
X116900000Y-114400000D02*
X117800000Y-115300000D01*
X117800000Y-115851948D02*
X117049968Y-116601980D01*
X117049968Y-116601980D02*
X117049968Y-116750032D01*
X117800000Y-115300000D02*
X117800000Y-115851948D01*
X116070000Y-106875000D02*
X117575000Y-106875000D01*
X117575000Y-106875000D02*
X118500000Y-107800000D01*
X118500000Y-107800000D02*
X119700000Y-107800000D01*
X119700000Y-107800000D02*
X119700000Y-105200000D01*
X119700000Y-105200000D02*
X118700000Y-104200000D01*
X119700000Y-108090228D02*
X119700000Y-107800000D01*
X121459782Y-109850010D02*
X119700000Y-108090228D01*
X123850010Y-109850010D02*
X121459782Y-109850010D01*
X124600000Y-110600000D02*
X123850010Y-109850010D01*
X124600000Y-110600000D02*
X125300000Y-110600000D01*
X125600000Y-110300000D02*
X125600000Y-109237500D01*
X125300000Y-110600000D02*
X125600000Y-110300000D01*
D32*
%TO.N,D-*%
X116660000Y-111950000D02*
X119050000Y-111950000D01*
X119238939Y-112138939D02*
X119238939Y-112907648D01*
X119050000Y-111950000D02*
X119238939Y-112138939D01*
X120887766Y-112913307D02*
X120881915Y-112907456D01*
X120892638Y-112913307D02*
X120887766Y-112913307D01*
X120881915Y-112341771D02*
X120881915Y-112907456D01*
X119490144Y-110950000D02*
X120881915Y-112341771D01*
X116660000Y-110950000D02*
X119490144Y-110950000D01*
X119074990Y-116948012D02*
X119351977Y-117225000D01*
X119074990Y-115711824D02*
X119074990Y-116948012D01*
X119351977Y-117225000D02*
X119900000Y-117225000D01*
X120881915Y-113904899D02*
X119074990Y-115711824D01*
X120881915Y-112907456D02*
X120881915Y-113904899D01*
%TO.N,+3V3*%
X121677522Y-128700000D02*
X121602532Y-128625010D01*
X123495000Y-128700000D02*
X121677522Y-128700000D01*
X120925000Y-115700000D02*
X119900000Y-116725000D01*
X123950000Y-118725000D02*
X125367744Y-118725000D01*
X125367744Y-118725000D02*
X125861930Y-118230814D01*
X121100000Y-107300000D02*
X121600000Y-107800000D01*
X121100000Y-105700000D02*
X121100000Y-107300000D01*
X122075000Y-108275000D02*
X121600000Y-107800000D01*
X122075000Y-108700000D02*
X122075000Y-108275000D01*
X120273079Y-104873079D02*
X120273079Y-104570983D01*
X121100000Y-105700000D02*
X120273079Y-104873079D01*
X121432949Y-115692051D02*
X121425000Y-115700000D01*
X121432949Y-114767051D02*
X121432949Y-115692051D01*
X124274290Y-114936020D02*
X124071219Y-114732949D01*
X120925000Y-114740898D02*
X120932949Y-114732949D01*
X120925000Y-115700000D02*
X120925000Y-114740898D01*
X121432949Y-114489255D02*
X121432949Y-114727051D01*
X121432949Y-114727051D02*
X121427051Y-114732949D01*
X121427051Y-114732949D02*
X120932949Y-114732949D01*
X124071219Y-114732949D02*
X121427051Y-114732949D01*
%TO.N,VBUS*%
X116524999Y-108935001D02*
X115964999Y-108935001D01*
X116660000Y-108800000D02*
X116524999Y-108935001D01*
X115764999Y-113360001D02*
X116004998Y-113600000D01*
X115764999Y-109135001D02*
X115764999Y-113360001D01*
X116004998Y-113600000D02*
X116660000Y-113600000D01*
X115964999Y-108935001D02*
X115764999Y-109135001D01*
X127100000Y-106850000D02*
X126800000Y-106550000D01*
X127100000Y-107337500D02*
X127100000Y-106850000D01*
X126600000Y-106350000D02*
X126800000Y-106550000D01*
X126600000Y-105550000D02*
X126600000Y-106350000D01*
X127550000Y-105550000D02*
X126600000Y-105550000D01*
X116660000Y-113600000D02*
X117517603Y-113600000D01*
X117517603Y-113600000D02*
X118067593Y-114149990D01*
X115400000Y-117124680D02*
X114737045Y-116461725D01*
X115400000Y-122900000D02*
X115400000Y-117124680D01*
X117700000Y-108800000D02*
X116660000Y-108800000D01*
X121221605Y-110425021D02*
X120298292Y-109501708D01*
X122711744Y-111325002D02*
X121811763Y-110425021D01*
X128100000Y-110700000D02*
X127474998Y-111325002D01*
X118401708Y-109501708D02*
X117700000Y-108800000D01*
X120298292Y-109501708D02*
X118401708Y-109501708D01*
X121811763Y-110425021D02*
X121221605Y-110425021D01*
X127100000Y-107337500D02*
X128100000Y-108337500D01*
X128100000Y-108337500D02*
X128100000Y-110700000D01*
X127474998Y-111325002D02*
X122711744Y-111325002D01*
%TO.N,O*%
X122648012Y-120575010D02*
X119575010Y-120575010D01*
X122925000Y-119750000D02*
X122925000Y-120298022D01*
X122925000Y-120298022D02*
X122648012Y-120575010D01*
X117899969Y-117009981D02*
X117899969Y-117199969D01*
X118800000Y-118100000D02*
X118800000Y-119800000D01*
X117899969Y-117199969D02*
X118800000Y-118100000D01*
X119575010Y-120575010D02*
X118800000Y-119800000D01*
%TO.N,I*%
X124775010Y-116948012D02*
X124775010Y-116147837D01*
X123950000Y-117225000D02*
X124498022Y-117225000D01*
X124498022Y-117225000D02*
X124775010Y-116948012D01*
X124775010Y-116147837D02*
X125997837Y-114925010D01*
%TO.N,EN*%
X126430253Y-116324495D02*
X126030254Y-115924496D01*
X125848022Y-117505937D02*
X126430253Y-116923707D01*
X125489907Y-117505937D02*
X125848022Y-117505937D01*
X124770844Y-118225000D02*
X125489907Y-117505937D01*
X126430253Y-116923707D02*
X126430253Y-116324495D01*
X123950000Y-118225000D02*
X124770844Y-118225000D01*
%TO.N,Net-(J2-PadA5)*%
X115000000Y-102300000D02*
X114200000Y-102300000D01*
X115600000Y-104100000D02*
X115600000Y-102900000D01*
X116599988Y-105099988D02*
X115600000Y-104100000D01*
X118317772Y-105099988D02*
X116599988Y-105099988D01*
X118767233Y-105549449D02*
X118317772Y-105099988D01*
X115600000Y-102900000D02*
X115000000Y-102300000D01*
X118767233Y-106605264D02*
X118767233Y-105549449D01*
X117431534Y-112450000D02*
X118153113Y-113171579D01*
X116660000Y-112450000D02*
X117431534Y-112450000D01*
X118153113Y-113171579D02*
X118274320Y-113171579D01*
%TO.N,Net-(J2-PadB5)*%
X114999999Y-105549999D02*
X117694779Y-105549999D01*
X114200000Y-104750000D02*
X114999999Y-105549999D01*
X117694779Y-105549999D02*
X118025034Y-105880254D01*
X116660000Y-109450000D02*
X117713589Y-109450000D01*
X121631297Y-111471124D02*
X121799979Y-111471124D01*
X117713589Y-109450000D02*
X118215308Y-109951719D01*
X118215308Y-109951719D02*
X120111892Y-109951719D01*
X120111892Y-109951719D02*
X121631297Y-111471124D01*
%TO.N,Net-(U1-Pad28)*%
X127305000Y-119495000D02*
X128624990Y-118175010D01*
X128624990Y-115703351D02*
X128046649Y-115125010D01*
X128624990Y-118175010D02*
X128624990Y-115703351D01*
X127305000Y-121700000D02*
X127305000Y-119495000D01*
%TO.N,Net-(U1-Pad27)*%
X123495000Y-120750000D02*
X123495000Y-121700000D01*
X124865747Y-120300001D02*
X123944999Y-120300001D01*
X126586932Y-117578048D02*
X126586932Y-118578816D01*
X123944999Y-120300001D02*
X123495000Y-120750000D01*
X126586932Y-118578816D02*
X124865747Y-120300001D01*
X127899980Y-116265000D02*
X126586932Y-117578048D01*
%TO.N,Net-(U1-Pad26)*%
X124765000Y-121700000D02*
X126035000Y-121700000D01*
X126035000Y-121700000D02*
X126035000Y-119767159D01*
X126035000Y-119767159D02*
X127899980Y-117902179D01*
X127899980Y-117902179D02*
X127899980Y-117535000D01*
%TO.N,Net-(J1-Pad4)*%
X124765000Y-127750000D02*
X124765000Y-128700000D01*
X124065001Y-127050001D02*
X124765000Y-127750000D01*
X123249999Y-127050001D02*
X124065001Y-127050001D01*
X122400000Y-127900000D02*
X123249999Y-127050001D01*
X119820000Y-127900000D02*
X122400000Y-127900000D01*
%TO.N,Net-(J1-Pad3)*%
X122268194Y-122668194D02*
X121249990Y-121649990D01*
X119150010Y-121649990D02*
X117900000Y-122900000D01*
X126035000Y-128700000D02*
X126035000Y-127750000D01*
X126035000Y-127750000D02*
X122268194Y-123983194D01*
X122268194Y-123983194D02*
X122268194Y-122668194D01*
X121249990Y-121649990D02*
X119150010Y-121649990D01*
%TO.N,GPIO0*%
X125225021Y-117134412D02*
X125225021Y-117055936D01*
X124634433Y-117725000D02*
X125225021Y-117134412D01*
X123950000Y-117725000D02*
X124634433Y-117725000D01*
X125225021Y-117055936D02*
X125500022Y-116780935D01*
%TD*%
D34*
%TO.N,GND*%
X112918397Y-116373792D02*
X113167472Y-116296157D01*
X113293371Y-116032117D01*
X113300105Y-116005586D01*
X114106663Y-116006594D01*
X114048476Y-116093677D01*
X113989904Y-116235082D01*
X113960045Y-116385197D01*
X113960045Y-116538253D01*
X113989904Y-116688368D01*
X114048476Y-116829773D01*
X114133509Y-116957034D01*
X114241736Y-117065261D01*
X114368997Y-117150294D01*
X114510402Y-117208866D01*
X114660517Y-117238725D01*
X114804110Y-117238725D01*
X114898001Y-117332616D01*
X114898000Y-121702045D01*
X114715017Y-121799851D01*
X114528183Y-121953183D01*
X114387352Y-122124785D01*
X114388072Y-121975000D01*
X114375812Y-121850518D01*
X114339502Y-121730820D01*
X114280537Y-121620506D01*
X114201185Y-121523815D01*
X114104494Y-121444463D01*
X113994180Y-121385498D01*
X113874482Y-121349188D01*
X113750000Y-121336928D01*
X113185750Y-121340000D01*
X113027000Y-121498750D01*
X113027000Y-122773000D01*
X113047000Y-122773000D01*
X113047000Y-123027000D01*
X113027000Y-123027000D01*
X113027000Y-124301250D01*
X113185750Y-124460000D01*
X113750000Y-124463072D01*
X113874482Y-124450812D01*
X113994180Y-124414502D01*
X114104494Y-124355537D01*
X114201185Y-124276185D01*
X114280537Y-124179494D01*
X114339502Y-124069180D01*
X114375812Y-123949482D01*
X114388072Y-123825000D01*
X114387352Y-123675216D01*
X114528184Y-123846817D01*
X114715018Y-124000149D01*
X114928177Y-124114084D01*
X115159467Y-124184245D01*
X115400000Y-124207936D01*
X115640534Y-124184245D01*
X115871824Y-124114084D01*
X116084983Y-124000149D01*
X116271817Y-123846817D01*
X116425149Y-123659982D01*
X116539084Y-123446823D01*
X116609245Y-123215533D01*
X116627000Y-123035267D01*
X116627000Y-122764732D01*
X116609245Y-122584466D01*
X116539084Y-122353176D01*
X116425149Y-122140017D01*
X116271817Y-121953183D01*
X116084982Y-121799851D01*
X115902000Y-121702046D01*
X115902000Y-117152850D01*
X116132595Y-117166718D01*
X116451675Y-117122961D01*
X116756088Y-117017795D01*
X116930044Y-116924814D01*
X117025807Y-116660415D01*
X117141475Y-116776083D01*
X117165986Y-116751572D01*
X117152828Y-116783338D01*
X117122969Y-116933453D01*
X117122969Y-117086509D01*
X117152828Y-117236624D01*
X117211400Y-117378029D01*
X117296433Y-117505290D01*
X117404660Y-117613517D01*
X117531921Y-117698550D01*
X117673326Y-117757122D01*
X117765527Y-117775462D01*
X118298000Y-118307935D01*
X118298001Y-119775347D01*
X118295573Y-119800000D01*
X118305265Y-119898409D01*
X118333970Y-119993036D01*
X118380584Y-120080245D01*
X118427601Y-120137535D01*
X118427604Y-120137538D01*
X118443317Y-120156684D01*
X118462463Y-120172397D01*
X119202617Y-120912553D01*
X119218326Y-120931694D01*
X119237466Y-120947402D01*
X119237474Y-120947410D01*
X119294764Y-120994427D01*
X119341378Y-121019342D01*
X119381974Y-121041041D01*
X119476601Y-121069746D01*
X119550357Y-121077010D01*
X119550367Y-121077010D01*
X119575010Y-121079437D01*
X119599653Y-121077010D01*
X122623369Y-121077010D01*
X122648012Y-121079437D01*
X122672655Y-121077010D01*
X122672665Y-121077010D01*
X122746421Y-121069746D01*
X122816176Y-121048586D01*
X122816176Y-122500000D01*
X122826337Y-122603168D01*
X122856430Y-122702372D01*
X122905299Y-122793799D01*
X122971065Y-122873935D01*
X123051201Y-122939701D01*
X123142628Y-122988570D01*
X123241832Y-123018663D01*
X123345000Y-123028824D01*
X123645000Y-123028824D01*
X123748168Y-123018663D01*
X123847372Y-122988570D01*
X123938799Y-122939701D01*
X124018935Y-122873935D01*
X124084701Y-122793799D01*
X124130000Y-122709051D01*
X124175299Y-122793799D01*
X124241065Y-122873935D01*
X124321201Y-122939701D01*
X124412628Y-122988570D01*
X124511832Y-123018663D01*
X124615000Y-123028824D01*
X124915000Y-123028824D01*
X125018168Y-123018663D01*
X125117372Y-122988570D01*
X125208799Y-122939701D01*
X125288935Y-122873935D01*
X125354701Y-122793799D01*
X125400000Y-122709051D01*
X125445299Y-122793799D01*
X125511065Y-122873935D01*
X125591201Y-122939701D01*
X125682628Y-122988570D01*
X125781832Y-123018663D01*
X125885000Y-123028824D01*
X126185000Y-123028824D01*
X126288168Y-123018663D01*
X126387372Y-122988570D01*
X126478799Y-122939701D01*
X126558935Y-122873935D01*
X126624701Y-122793799D01*
X126670000Y-122709051D01*
X126715299Y-122793799D01*
X126781065Y-122873935D01*
X126861201Y-122939701D01*
X126952628Y-122988570D01*
X127051832Y-123018663D01*
X127155000Y-123028824D01*
X127455000Y-123028824D01*
X127558168Y-123018663D01*
X127657372Y-122988570D01*
X127748799Y-122939701D01*
X127828935Y-122873935D01*
X127894701Y-122793799D01*
X127943570Y-122702372D01*
X127973663Y-122603168D01*
X127983824Y-122500000D01*
X127983824Y-120900000D01*
X127973663Y-120796832D01*
X127943570Y-120697628D01*
X127894701Y-120606201D01*
X127828935Y-120526065D01*
X127807000Y-120508063D01*
X127807000Y-119702934D01*
X128573001Y-118936935D01*
X128573001Y-128979107D01*
X128560078Y-129110899D01*
X128527873Y-129217570D01*
X128475558Y-129315961D01*
X128405130Y-129402313D01*
X128319270Y-129473343D01*
X128242447Y-129514881D01*
X128240000Y-128985750D01*
X128081250Y-128827000D01*
X127432000Y-128827000D01*
X127432000Y-128847000D01*
X127178000Y-128847000D01*
X127178000Y-128827000D01*
X127158000Y-128827000D01*
X127158000Y-128573000D01*
X127178000Y-128573000D01*
X127178000Y-127273750D01*
X127432000Y-127273750D01*
X127432000Y-128573000D01*
X128081250Y-128573000D01*
X128240000Y-128414250D01*
X128243072Y-127750000D01*
X128230812Y-127625518D01*
X128194502Y-127505820D01*
X128135537Y-127395506D01*
X128056185Y-127298815D01*
X127959494Y-127219463D01*
X127849180Y-127160498D01*
X127729482Y-127124188D01*
X127605000Y-127111928D01*
X127590750Y-127115000D01*
X127432000Y-127273750D01*
X127178000Y-127273750D01*
X127019250Y-127115000D01*
X127005000Y-127111928D01*
X126880518Y-127124188D01*
X126760820Y-127160498D01*
X126650506Y-127219463D01*
X126553815Y-127298815D01*
X126474463Y-127395506D01*
X126448490Y-127444098D01*
X126421537Y-127429692D01*
X126391684Y-127393316D01*
X126372538Y-127377603D01*
X122770194Y-123775260D01*
X122770194Y-122692837D01*
X122772621Y-122668194D01*
X122770194Y-122643551D01*
X122770194Y-122643541D01*
X122762930Y-122569785D01*
X122734225Y-122475158D01*
X122687611Y-122387949D01*
X122624878Y-122311510D01*
X122605732Y-122295797D01*
X121622391Y-121312457D01*
X121606674Y-121293306D01*
X121530235Y-121230573D01*
X121443026Y-121183959D01*
X121348399Y-121155254D01*
X121274643Y-121147990D01*
X121274633Y-121147990D01*
X121249990Y-121145563D01*
X121225347Y-121147990D01*
X119174652Y-121147990D01*
X119150009Y-121145563D01*
X119125366Y-121147990D01*
X119125357Y-121147990D01*
X119051601Y-121155254D01*
X118956974Y-121183959D01*
X118869765Y-121230573D01*
X118793326Y-121293306D01*
X118777613Y-121312452D01*
X118392889Y-121697176D01*
X118371823Y-121685916D01*
X118140533Y-121615755D01*
X117900000Y-121592064D01*
X117659466Y-121615755D01*
X117428176Y-121685916D01*
X117215017Y-121799851D01*
X117028183Y-121953183D01*
X116874851Y-122140018D01*
X116760916Y-122353177D01*
X116690755Y-122584467D01*
X116673000Y-122764733D01*
X116673000Y-123035268D01*
X116690755Y-123215534D01*
X116760916Y-123446824D01*
X116874851Y-123659983D01*
X117028184Y-123846817D01*
X117215018Y-124000149D01*
X117428177Y-124114084D01*
X117659467Y-124184245D01*
X117900000Y-124207936D01*
X118140534Y-124184245D01*
X118371824Y-124114084D01*
X118584983Y-124000149D01*
X118771817Y-123846817D01*
X118925149Y-123659982D01*
X119039084Y-123446823D01*
X119109245Y-123215533D01*
X119127000Y-123035267D01*
X119127000Y-122764732D01*
X119109245Y-122584466D01*
X119066472Y-122443463D01*
X119357945Y-122151990D01*
X119368452Y-122151990D01*
X119260916Y-122353177D01*
X119190755Y-122584467D01*
X119173000Y-122764733D01*
X119173000Y-123035268D01*
X119190755Y-123215534D01*
X119260916Y-123446824D01*
X119374851Y-123659983D01*
X119528184Y-123846817D01*
X119715018Y-124000149D01*
X119928177Y-124114084D01*
X120159467Y-124184245D01*
X120400000Y-124207936D01*
X120640534Y-124184245D01*
X120871824Y-124114084D01*
X121084983Y-124000149D01*
X121271817Y-123846817D01*
X121425149Y-123659982D01*
X121539084Y-123446823D01*
X121609245Y-123215533D01*
X121627000Y-123035267D01*
X121627000Y-122764732D01*
X121623963Y-122733898D01*
X121766195Y-122876130D01*
X121766194Y-123958551D01*
X121763767Y-123983194D01*
X121766194Y-124007837D01*
X121766194Y-124007846D01*
X121773458Y-124081602D01*
X121802163Y-124176229D01*
X121848777Y-124263439D01*
X121911510Y-124339878D01*
X121930662Y-124355596D01*
X124126717Y-126551651D01*
X124089654Y-126548001D01*
X124089644Y-126548001D01*
X124065001Y-126545574D01*
X124040358Y-126548001D01*
X123274641Y-126548001D01*
X123249998Y-126545574D01*
X123225355Y-126548001D01*
X123225346Y-126548001D01*
X123151590Y-126555265D01*
X123056963Y-126583970D01*
X122969754Y-126630584D01*
X122893315Y-126693317D01*
X122877602Y-126712463D01*
X122192066Y-127398000D01*
X120940160Y-127398000D01*
X120907353Y-127318798D01*
X120773073Y-127117833D01*
X120602167Y-126946927D01*
X120401202Y-126812647D01*
X120177903Y-126720153D01*
X119940849Y-126673000D01*
X119699151Y-126673000D01*
X119462097Y-126720153D01*
X119238798Y-126812647D01*
X119037833Y-126946927D01*
X118866927Y-127117833D01*
X118732647Y-127318798D01*
X118640153Y-127542097D01*
X118593000Y-127779151D01*
X118593000Y-128020849D01*
X118640153Y-128257903D01*
X118732647Y-128481202D01*
X118866927Y-128682167D01*
X119037833Y-128853073D01*
X119238798Y-128987353D01*
X119462097Y-129079847D01*
X119699151Y-129127000D01*
X119940849Y-129127000D01*
X120177903Y-129079847D01*
X120401202Y-128987353D01*
X120602167Y-128853073D01*
X120773073Y-128682167D01*
X120825532Y-128603656D01*
X120825532Y-128701538D01*
X120855391Y-128851653D01*
X120913963Y-128993058D01*
X120998996Y-129120319D01*
X121107223Y-129228546D01*
X121234484Y-129313579D01*
X121375889Y-129372151D01*
X121526004Y-129402010D01*
X121679060Y-129402010D01*
X121829175Y-129372151D01*
X121970580Y-129313579D01*
X122097841Y-129228546D01*
X122124387Y-129202000D01*
X122816176Y-129202000D01*
X122816176Y-129500000D01*
X122823366Y-129573000D01*
X111020883Y-129573000D01*
X110889101Y-129560078D01*
X110782430Y-129527873D01*
X110684039Y-129475558D01*
X110597687Y-129405130D01*
X110526657Y-129319270D01*
X110473661Y-129221255D01*
X110440710Y-129114807D01*
X110427000Y-128984371D01*
X110427000Y-128750000D01*
X110711928Y-128750000D01*
X110724188Y-128874482D01*
X110760498Y-128994180D01*
X110819463Y-129104494D01*
X110898815Y-129201185D01*
X110995506Y-129280537D01*
X111105820Y-129339502D01*
X111225518Y-129375812D01*
X111350000Y-129388072D01*
X111914250Y-129385000D01*
X112073000Y-129226250D01*
X112073000Y-128027000D01*
X110873750Y-128027000D01*
X110715000Y-128185750D01*
X110711928Y-128750000D01*
X110427000Y-128750000D01*
X110427000Y-127050000D01*
X110711928Y-127050000D01*
X110715000Y-127614250D01*
X110873750Y-127773000D01*
X112073000Y-127773000D01*
X112073000Y-126573750D01*
X112327000Y-126573750D01*
X112327000Y-127773000D01*
X112347000Y-127773000D01*
X112347000Y-128027000D01*
X112327000Y-128027000D01*
X112327000Y-129226250D01*
X112485750Y-129385000D01*
X113050000Y-129388072D01*
X113174482Y-129375812D01*
X113294180Y-129339502D01*
X113404494Y-129280537D01*
X113501185Y-129201185D01*
X113580537Y-129104494D01*
X113639502Y-128994180D01*
X113675812Y-128874482D01*
X113688072Y-128750000D01*
X113686888Y-128532447D01*
X113786927Y-128682167D01*
X113957833Y-128853073D01*
X114158798Y-128987353D01*
X114382097Y-129079847D01*
X114619151Y-129127000D01*
X114860849Y-129127000D01*
X115097903Y-129079847D01*
X115321202Y-128987353D01*
X115522167Y-128853073D01*
X115693073Y-128682167D01*
X115827353Y-128481202D01*
X115919847Y-128257903D01*
X115967000Y-128020849D01*
X115967000Y-127779151D01*
X116053000Y-127779151D01*
X116053000Y-128020849D01*
X116100153Y-128257903D01*
X116192647Y-128481202D01*
X116326927Y-128682167D01*
X116497833Y-128853073D01*
X116698798Y-128987353D01*
X116922097Y-129079847D01*
X117159151Y-129127000D01*
X117400849Y-129127000D01*
X117637903Y-129079847D01*
X117861202Y-128987353D01*
X118062167Y-128853073D01*
X118233073Y-128682167D01*
X118367353Y-128481202D01*
X118459847Y-128257903D01*
X118507000Y-128020849D01*
X118507000Y-127779151D01*
X118459847Y-127542097D01*
X118367353Y-127318798D01*
X118233073Y-127117833D01*
X118062167Y-126946927D01*
X117861202Y-126812647D01*
X117637903Y-126720153D01*
X117400849Y-126673000D01*
X117159151Y-126673000D01*
X116922097Y-126720153D01*
X116698798Y-126812647D01*
X116497833Y-126946927D01*
X116326927Y-127117833D01*
X116192647Y-127318798D01*
X116100153Y-127542097D01*
X116053000Y-127779151D01*
X115967000Y-127779151D01*
X115919847Y-127542097D01*
X115827353Y-127318798D01*
X115693073Y-127117833D01*
X115522167Y-126946927D01*
X115321202Y-126812647D01*
X115097903Y-126720153D01*
X114860849Y-126673000D01*
X114619151Y-126673000D01*
X114382097Y-126720153D01*
X114158798Y-126812647D01*
X113957833Y-126946927D01*
X113786927Y-127117833D01*
X113686888Y-127267553D01*
X113688072Y-127050000D01*
X113675812Y-126925518D01*
X113639502Y-126805820D01*
X113580537Y-126695506D01*
X113501185Y-126598815D01*
X113404494Y-126519463D01*
X113294180Y-126460498D01*
X113174482Y-126424188D01*
X113050000Y-126411928D01*
X112485750Y-126415000D01*
X112327000Y-126573750D01*
X112073000Y-126573750D01*
X111914250Y-126415000D01*
X111350000Y-126411928D01*
X111225518Y-126424188D01*
X111105820Y-126460498D01*
X110995506Y-126519463D01*
X110898815Y-126598815D01*
X110819463Y-126695506D01*
X110760498Y-126805820D01*
X110724188Y-126925518D01*
X110711928Y-127050000D01*
X110427000Y-127050000D01*
X110427000Y-123825000D01*
X111411928Y-123825000D01*
X111424188Y-123949482D01*
X111460498Y-124069180D01*
X111519463Y-124179494D01*
X111598815Y-124276185D01*
X111695506Y-124355537D01*
X111805820Y-124414502D01*
X111925518Y-124450812D01*
X112050000Y-124463072D01*
X112614250Y-124460000D01*
X112773000Y-124301250D01*
X112773000Y-123027000D01*
X111573750Y-123027000D01*
X111415000Y-123185750D01*
X111411928Y-123825000D01*
X110427000Y-123825000D01*
X110427000Y-121975000D01*
X111411928Y-121975000D01*
X111415000Y-122614250D01*
X111573750Y-122773000D01*
X112773000Y-122773000D01*
X112773000Y-121498750D01*
X112614250Y-121340000D01*
X112050000Y-121336928D01*
X111925518Y-121349188D01*
X111805820Y-121385498D01*
X111695506Y-121444463D01*
X111598815Y-121523815D01*
X111519463Y-121620506D01*
X111460498Y-121730820D01*
X111424188Y-121850518D01*
X111411928Y-121975000D01*
X110427000Y-121975000D01*
X110427000Y-116007289D01*
X110485399Y-116007216D01*
X110539081Y-116158747D01*
X110612528Y-116296157D01*
X110861603Y-116373792D01*
X111229108Y-116006287D01*
X111588767Y-116005838D01*
X111041208Y-116553397D01*
X111118843Y-116802472D01*
X111382883Y-116928371D01*
X111666411Y-117000339D01*
X111958531Y-117015611D01*
X112248019Y-116973599D01*
X112523747Y-116875919D01*
X112661157Y-116802472D01*
X112738792Y-116553397D01*
X112190481Y-116005086D01*
X112259250Y-116005000D01*
X112404428Y-115859823D01*
X112918397Y-116373792D01*
%TA.AperFunction,Conductor*%
D35*
G36*
X112918397Y-116373792D02*
G01*
X113167472Y-116296157D01*
X113293371Y-116032117D01*
X113300105Y-116005586D01*
X114106663Y-116006594D01*
X114048476Y-116093677D01*
X113989904Y-116235082D01*
X113960045Y-116385197D01*
X113960045Y-116538253D01*
X113989904Y-116688368D01*
X114048476Y-116829773D01*
X114133509Y-116957034D01*
X114241736Y-117065261D01*
X114368997Y-117150294D01*
X114510402Y-117208866D01*
X114660517Y-117238725D01*
X114804110Y-117238725D01*
X114898001Y-117332616D01*
X114898000Y-121702045D01*
X114715017Y-121799851D01*
X114528183Y-121953183D01*
X114387352Y-122124785D01*
X114388072Y-121975000D01*
X114375812Y-121850518D01*
X114339502Y-121730820D01*
X114280537Y-121620506D01*
X114201185Y-121523815D01*
X114104494Y-121444463D01*
X113994180Y-121385498D01*
X113874482Y-121349188D01*
X113750000Y-121336928D01*
X113185750Y-121340000D01*
X113027000Y-121498750D01*
X113027000Y-122773000D01*
X113047000Y-122773000D01*
X113047000Y-123027000D01*
X113027000Y-123027000D01*
X113027000Y-124301250D01*
X113185750Y-124460000D01*
X113750000Y-124463072D01*
X113874482Y-124450812D01*
X113994180Y-124414502D01*
X114104494Y-124355537D01*
X114201185Y-124276185D01*
X114280537Y-124179494D01*
X114339502Y-124069180D01*
X114375812Y-123949482D01*
X114388072Y-123825000D01*
X114387352Y-123675216D01*
X114528184Y-123846817D01*
X114715018Y-124000149D01*
X114928177Y-124114084D01*
X115159467Y-124184245D01*
X115400000Y-124207936D01*
X115640534Y-124184245D01*
X115871824Y-124114084D01*
X116084983Y-124000149D01*
X116271817Y-123846817D01*
X116425149Y-123659982D01*
X116539084Y-123446823D01*
X116609245Y-123215533D01*
X116627000Y-123035267D01*
X116627000Y-122764732D01*
X116609245Y-122584466D01*
X116539084Y-122353176D01*
X116425149Y-122140017D01*
X116271817Y-121953183D01*
X116084982Y-121799851D01*
X115902000Y-121702046D01*
X115902000Y-117152850D01*
X116132595Y-117166718D01*
X116451675Y-117122961D01*
X116756088Y-117017795D01*
X116930044Y-116924814D01*
X117025807Y-116660415D01*
X117141475Y-116776083D01*
X117165986Y-116751572D01*
X117152828Y-116783338D01*
X117122969Y-116933453D01*
X117122969Y-117086509D01*
X117152828Y-117236624D01*
X117211400Y-117378029D01*
X117296433Y-117505290D01*
X117404660Y-117613517D01*
X117531921Y-117698550D01*
X117673326Y-117757122D01*
X117765527Y-117775462D01*
X118298000Y-118307935D01*
X118298001Y-119775347D01*
X118295573Y-119800000D01*
X118305265Y-119898409D01*
X118333970Y-119993036D01*
X118380584Y-120080245D01*
X118427601Y-120137535D01*
X118427604Y-120137538D01*
X118443317Y-120156684D01*
X118462463Y-120172397D01*
X119202617Y-120912553D01*
X119218326Y-120931694D01*
X119237466Y-120947402D01*
X119237474Y-120947410D01*
X119294764Y-120994427D01*
X119341378Y-121019342D01*
X119381974Y-121041041D01*
X119476601Y-121069746D01*
X119550357Y-121077010D01*
X119550367Y-121077010D01*
X119575010Y-121079437D01*
X119599653Y-121077010D01*
X122623369Y-121077010D01*
X122648012Y-121079437D01*
X122672655Y-121077010D01*
X122672665Y-121077010D01*
X122746421Y-121069746D01*
X122816176Y-121048586D01*
X122816176Y-122500000D01*
X122826337Y-122603168D01*
X122856430Y-122702372D01*
X122905299Y-122793799D01*
X122971065Y-122873935D01*
X123051201Y-122939701D01*
X123142628Y-122988570D01*
X123241832Y-123018663D01*
X123345000Y-123028824D01*
X123645000Y-123028824D01*
X123748168Y-123018663D01*
X123847372Y-122988570D01*
X123938799Y-122939701D01*
X124018935Y-122873935D01*
X124084701Y-122793799D01*
X124130000Y-122709051D01*
X124175299Y-122793799D01*
X124241065Y-122873935D01*
X124321201Y-122939701D01*
X124412628Y-122988570D01*
X124511832Y-123018663D01*
X124615000Y-123028824D01*
X124915000Y-123028824D01*
X125018168Y-123018663D01*
X125117372Y-122988570D01*
X125208799Y-122939701D01*
X125288935Y-122873935D01*
X125354701Y-122793799D01*
X125400000Y-122709051D01*
X125445299Y-122793799D01*
X125511065Y-122873935D01*
X125591201Y-122939701D01*
X125682628Y-122988570D01*
X125781832Y-123018663D01*
X125885000Y-123028824D01*
X126185000Y-123028824D01*
X126288168Y-123018663D01*
X126387372Y-122988570D01*
X126478799Y-122939701D01*
X126558935Y-122873935D01*
X126624701Y-122793799D01*
X126670000Y-122709051D01*
X126715299Y-122793799D01*
X126781065Y-122873935D01*
X126861201Y-122939701D01*
X126952628Y-122988570D01*
X127051832Y-123018663D01*
X127155000Y-123028824D01*
X127455000Y-123028824D01*
X127558168Y-123018663D01*
X127657372Y-122988570D01*
X127748799Y-122939701D01*
X127828935Y-122873935D01*
X127894701Y-122793799D01*
X127943570Y-122702372D01*
X127973663Y-122603168D01*
X127983824Y-122500000D01*
X127983824Y-120900000D01*
X127973663Y-120796832D01*
X127943570Y-120697628D01*
X127894701Y-120606201D01*
X127828935Y-120526065D01*
X127807000Y-120508063D01*
X127807000Y-119702934D01*
X128573001Y-118936935D01*
X128573001Y-128979107D01*
X128560078Y-129110899D01*
X128527873Y-129217570D01*
X128475558Y-129315961D01*
X128405130Y-129402313D01*
X128319270Y-129473343D01*
X128242447Y-129514881D01*
X128240000Y-128985750D01*
X128081250Y-128827000D01*
X127432000Y-128827000D01*
X127432000Y-128847000D01*
X127178000Y-128847000D01*
X127178000Y-128827000D01*
X127158000Y-128827000D01*
X127158000Y-128573000D01*
X127178000Y-128573000D01*
X127178000Y-127273750D01*
X127432000Y-127273750D01*
X127432000Y-128573000D01*
X128081250Y-128573000D01*
X128240000Y-128414250D01*
X128243072Y-127750000D01*
X128230812Y-127625518D01*
X128194502Y-127505820D01*
X128135537Y-127395506D01*
X128056185Y-127298815D01*
X127959494Y-127219463D01*
X127849180Y-127160498D01*
X127729482Y-127124188D01*
X127605000Y-127111928D01*
X127590750Y-127115000D01*
X127432000Y-127273750D01*
X127178000Y-127273750D01*
X127019250Y-127115000D01*
X127005000Y-127111928D01*
X126880518Y-127124188D01*
X126760820Y-127160498D01*
X126650506Y-127219463D01*
X126553815Y-127298815D01*
X126474463Y-127395506D01*
X126448490Y-127444098D01*
X126421537Y-127429692D01*
X126391684Y-127393316D01*
X126372538Y-127377603D01*
X122770194Y-123775260D01*
X122770194Y-122692837D01*
X122772621Y-122668194D01*
X122770194Y-122643551D01*
X122770194Y-122643541D01*
X122762930Y-122569785D01*
X122734225Y-122475158D01*
X122687611Y-122387949D01*
X122624878Y-122311510D01*
X122605732Y-122295797D01*
X121622391Y-121312457D01*
X121606674Y-121293306D01*
X121530235Y-121230573D01*
X121443026Y-121183959D01*
X121348399Y-121155254D01*
X121274643Y-121147990D01*
X121274633Y-121147990D01*
X121249990Y-121145563D01*
X121225347Y-121147990D01*
X119174652Y-121147990D01*
X119150009Y-121145563D01*
X119125366Y-121147990D01*
X119125357Y-121147990D01*
X119051601Y-121155254D01*
X118956974Y-121183959D01*
X118869765Y-121230573D01*
X118793326Y-121293306D01*
X118777613Y-121312452D01*
X118392889Y-121697176D01*
X118371823Y-121685916D01*
X118140533Y-121615755D01*
X117900000Y-121592064D01*
X117659466Y-121615755D01*
X117428176Y-121685916D01*
X117215017Y-121799851D01*
X117028183Y-121953183D01*
X116874851Y-122140018D01*
X116760916Y-122353177D01*
X116690755Y-122584467D01*
X116673000Y-122764733D01*
X116673000Y-123035268D01*
X116690755Y-123215534D01*
X116760916Y-123446824D01*
X116874851Y-123659983D01*
X117028184Y-123846817D01*
X117215018Y-124000149D01*
X117428177Y-124114084D01*
X117659467Y-124184245D01*
X117900000Y-124207936D01*
X118140534Y-124184245D01*
X118371824Y-124114084D01*
X118584983Y-124000149D01*
X118771817Y-123846817D01*
X118925149Y-123659982D01*
X119039084Y-123446823D01*
X119109245Y-123215533D01*
X119127000Y-123035267D01*
X119127000Y-122764732D01*
X119109245Y-122584466D01*
X119066472Y-122443463D01*
X119357945Y-122151990D01*
X119368452Y-122151990D01*
X119260916Y-122353177D01*
X119190755Y-122584467D01*
X119173000Y-122764733D01*
X119173000Y-123035268D01*
X119190755Y-123215534D01*
X119260916Y-123446824D01*
X119374851Y-123659983D01*
X119528184Y-123846817D01*
X119715018Y-124000149D01*
X119928177Y-124114084D01*
X120159467Y-124184245D01*
X120400000Y-124207936D01*
X120640534Y-124184245D01*
X120871824Y-124114084D01*
X121084983Y-124000149D01*
X121271817Y-123846817D01*
X121425149Y-123659982D01*
X121539084Y-123446823D01*
X121609245Y-123215533D01*
X121627000Y-123035267D01*
X121627000Y-122764732D01*
X121623963Y-122733898D01*
X121766195Y-122876130D01*
X121766194Y-123958551D01*
X121763767Y-123983194D01*
X121766194Y-124007837D01*
X121766194Y-124007846D01*
X121773458Y-124081602D01*
X121802163Y-124176229D01*
X121848777Y-124263439D01*
X121911510Y-124339878D01*
X121930662Y-124355596D01*
X124126717Y-126551651D01*
X124089654Y-126548001D01*
X124089644Y-126548001D01*
X124065001Y-126545574D01*
X124040358Y-126548001D01*
X123274641Y-126548001D01*
X123249998Y-126545574D01*
X123225355Y-126548001D01*
X123225346Y-126548001D01*
X123151590Y-126555265D01*
X123056963Y-126583970D01*
X122969754Y-126630584D01*
X122893315Y-126693317D01*
X122877602Y-126712463D01*
X122192066Y-127398000D01*
X120940160Y-127398000D01*
X120907353Y-127318798D01*
X120773073Y-127117833D01*
X120602167Y-126946927D01*
X120401202Y-126812647D01*
X120177903Y-126720153D01*
X119940849Y-126673000D01*
X119699151Y-126673000D01*
X119462097Y-126720153D01*
X119238798Y-126812647D01*
X119037833Y-126946927D01*
X118866927Y-127117833D01*
X118732647Y-127318798D01*
X118640153Y-127542097D01*
X118593000Y-127779151D01*
X118593000Y-128020849D01*
X118640153Y-128257903D01*
X118732647Y-128481202D01*
X118866927Y-128682167D01*
X119037833Y-128853073D01*
X119238798Y-128987353D01*
X119462097Y-129079847D01*
X119699151Y-129127000D01*
X119940849Y-129127000D01*
X120177903Y-129079847D01*
X120401202Y-128987353D01*
X120602167Y-128853073D01*
X120773073Y-128682167D01*
X120825532Y-128603656D01*
X120825532Y-128701538D01*
X120855391Y-128851653D01*
X120913963Y-128993058D01*
X120998996Y-129120319D01*
X121107223Y-129228546D01*
X121234484Y-129313579D01*
X121375889Y-129372151D01*
X121526004Y-129402010D01*
X121679060Y-129402010D01*
X121829175Y-129372151D01*
X121970580Y-129313579D01*
X122097841Y-129228546D01*
X122124387Y-129202000D01*
X122816176Y-129202000D01*
X122816176Y-129500000D01*
X122823366Y-129573000D01*
X111020883Y-129573000D01*
X110889101Y-129560078D01*
X110782430Y-129527873D01*
X110684039Y-129475558D01*
X110597687Y-129405130D01*
X110526657Y-129319270D01*
X110473661Y-129221255D01*
X110440710Y-129114807D01*
X110427000Y-128984371D01*
X110427000Y-128750000D01*
X110711928Y-128750000D01*
X110724188Y-128874482D01*
X110760498Y-128994180D01*
X110819463Y-129104494D01*
X110898815Y-129201185D01*
X110995506Y-129280537D01*
X111105820Y-129339502D01*
X111225518Y-129375812D01*
X111350000Y-129388072D01*
X111914250Y-129385000D01*
X112073000Y-129226250D01*
X112073000Y-128027000D01*
X110873750Y-128027000D01*
X110715000Y-128185750D01*
X110711928Y-128750000D01*
X110427000Y-128750000D01*
X110427000Y-127050000D01*
X110711928Y-127050000D01*
X110715000Y-127614250D01*
X110873750Y-127773000D01*
X112073000Y-127773000D01*
X112073000Y-126573750D01*
X112327000Y-126573750D01*
X112327000Y-127773000D01*
X112347000Y-127773000D01*
X112347000Y-128027000D01*
X112327000Y-128027000D01*
X112327000Y-129226250D01*
X112485750Y-129385000D01*
X113050000Y-129388072D01*
X113174482Y-129375812D01*
X113294180Y-129339502D01*
X113404494Y-129280537D01*
X113501185Y-129201185D01*
X113580537Y-129104494D01*
X113639502Y-128994180D01*
X113675812Y-128874482D01*
X113688072Y-128750000D01*
X113686888Y-128532447D01*
X113786927Y-128682167D01*
X113957833Y-128853073D01*
X114158798Y-128987353D01*
X114382097Y-129079847D01*
X114619151Y-129127000D01*
X114860849Y-129127000D01*
X115097903Y-129079847D01*
X115321202Y-128987353D01*
X115522167Y-128853073D01*
X115693073Y-128682167D01*
X115827353Y-128481202D01*
X115919847Y-128257903D01*
X115967000Y-128020849D01*
X115967000Y-127779151D01*
X116053000Y-127779151D01*
X116053000Y-128020849D01*
X116100153Y-128257903D01*
X116192647Y-128481202D01*
X116326927Y-128682167D01*
X116497833Y-128853073D01*
X116698798Y-128987353D01*
X116922097Y-129079847D01*
X117159151Y-129127000D01*
X117400849Y-129127000D01*
X117637903Y-129079847D01*
X117861202Y-128987353D01*
X118062167Y-128853073D01*
X118233073Y-128682167D01*
X118367353Y-128481202D01*
X118459847Y-128257903D01*
X118507000Y-128020849D01*
X118507000Y-127779151D01*
X118459847Y-127542097D01*
X118367353Y-127318798D01*
X118233073Y-127117833D01*
X118062167Y-126946927D01*
X117861202Y-126812647D01*
X117637903Y-126720153D01*
X117400849Y-126673000D01*
X117159151Y-126673000D01*
X116922097Y-126720153D01*
X116698798Y-126812647D01*
X116497833Y-126946927D01*
X116326927Y-127117833D01*
X116192647Y-127318798D01*
X116100153Y-127542097D01*
X116053000Y-127779151D01*
X115967000Y-127779151D01*
X115919847Y-127542097D01*
X115827353Y-127318798D01*
X115693073Y-127117833D01*
X115522167Y-126946927D01*
X115321202Y-126812647D01*
X115097903Y-126720153D01*
X114860849Y-126673000D01*
X114619151Y-126673000D01*
X114382097Y-126720153D01*
X114158798Y-126812647D01*
X113957833Y-126946927D01*
X113786927Y-127117833D01*
X113686888Y-127267553D01*
X113688072Y-127050000D01*
X113675812Y-126925518D01*
X113639502Y-126805820D01*
X113580537Y-126695506D01*
X113501185Y-126598815D01*
X113404494Y-126519463D01*
X113294180Y-126460498D01*
X113174482Y-126424188D01*
X113050000Y-126411928D01*
X112485750Y-126415000D01*
X112327000Y-126573750D01*
X112073000Y-126573750D01*
X111914250Y-126415000D01*
X111350000Y-126411928D01*
X111225518Y-126424188D01*
X111105820Y-126460498D01*
X110995506Y-126519463D01*
X110898815Y-126598815D01*
X110819463Y-126695506D01*
X110760498Y-126805820D01*
X110724188Y-126925518D01*
X110711928Y-127050000D01*
X110427000Y-127050000D01*
X110427000Y-123825000D01*
X111411928Y-123825000D01*
X111424188Y-123949482D01*
X111460498Y-124069180D01*
X111519463Y-124179494D01*
X111598815Y-124276185D01*
X111695506Y-124355537D01*
X111805820Y-124414502D01*
X111925518Y-124450812D01*
X112050000Y-124463072D01*
X112614250Y-124460000D01*
X112773000Y-124301250D01*
X112773000Y-123027000D01*
X111573750Y-123027000D01*
X111415000Y-123185750D01*
X111411928Y-123825000D01*
X110427000Y-123825000D01*
X110427000Y-121975000D01*
X111411928Y-121975000D01*
X111415000Y-122614250D01*
X111573750Y-122773000D01*
X112773000Y-122773000D01*
X112773000Y-121498750D01*
X112614250Y-121340000D01*
X112050000Y-121336928D01*
X111925518Y-121349188D01*
X111805820Y-121385498D01*
X111695506Y-121444463D01*
X111598815Y-121523815D01*
X111519463Y-121620506D01*
X111460498Y-121730820D01*
X111424188Y-121850518D01*
X111411928Y-121975000D01*
X110427000Y-121975000D01*
X110427000Y-116007289D01*
X110485399Y-116007216D01*
X110539081Y-116158747D01*
X110612528Y-116296157D01*
X110861603Y-116373792D01*
X111229108Y-116006287D01*
X111588767Y-116005838D01*
X111041208Y-116553397D01*
X111118843Y-116802472D01*
X111382883Y-116928371D01*
X111666411Y-117000339D01*
X111958531Y-117015611D01*
X112248019Y-116973599D01*
X112523747Y-116875919D01*
X112661157Y-116802472D01*
X112738792Y-116553397D01*
X112190481Y-116005086D01*
X112259250Y-116005000D01*
X112404428Y-115859823D01*
X112918397Y-116373792D01*
G37*
%TD.AperFunction*%
D34*
X128573000Y-114552516D02*
X128541958Y-114521474D01*
X128414697Y-114436441D01*
X128273292Y-114377869D01*
X128123177Y-114348010D01*
X127970121Y-114348010D01*
X127820006Y-114377869D01*
X127678601Y-114436441D01*
X127551340Y-114521474D01*
X127443113Y-114629701D01*
X127358080Y-114756962D01*
X127299508Y-114898367D01*
X127269649Y-115048482D01*
X127269649Y-115201538D01*
X127299508Y-115351653D01*
X127358080Y-115493058D01*
X127443113Y-115620319D01*
X127452380Y-115629586D01*
X127404671Y-115661464D01*
X127296444Y-115769691D01*
X127211411Y-115896952D01*
X127152839Y-116038357D01*
X127122980Y-116188472D01*
X127122980Y-116332065D01*
X126932253Y-116522792D01*
X126932253Y-116349137D01*
X126934680Y-116324494D01*
X126932253Y-116299851D01*
X126932253Y-116299842D01*
X126924989Y-116226086D01*
X126896284Y-116131459D01*
X126849670Y-116044250D01*
X126813955Y-116000732D01*
X126807254Y-115992567D01*
X126807254Y-115847968D01*
X126777395Y-115697853D01*
X126718823Y-115556448D01*
X126633790Y-115429187D01*
X126610805Y-115406202D01*
X126686406Y-115293058D01*
X126744978Y-115151653D01*
X126774837Y-115001538D01*
X126774837Y-114848482D01*
X126744978Y-114698367D01*
X126686406Y-114556962D01*
X126601373Y-114429701D01*
X126493146Y-114321474D01*
X126365885Y-114236441D01*
X126224480Y-114177869D01*
X126074365Y-114148010D01*
X125921309Y-114148010D01*
X125771194Y-114177869D01*
X125629789Y-114236441D01*
X125502528Y-114321474D01*
X125394301Y-114429701D01*
X125309268Y-114556962D01*
X125250696Y-114698367D01*
X125220837Y-114848482D01*
X125220837Y-114992075D01*
X125001053Y-115211859D01*
X125021431Y-115162663D01*
X125051290Y-115012548D01*
X125051290Y-114859492D01*
X125021431Y-114709377D01*
X124962859Y-114567972D01*
X124877826Y-114440711D01*
X124769599Y-114332484D01*
X124642338Y-114247451D01*
X124500933Y-114188879D01*
X124350818Y-114159020D01*
X124197762Y-114159020D01*
X124047647Y-114188879D01*
X123946081Y-114230949D01*
X122166975Y-114230949D01*
X122121518Y-114121207D01*
X122036485Y-113993946D01*
X121928258Y-113885719D01*
X121800997Y-113800686D01*
X121659592Y-113742114D01*
X121509477Y-113712255D01*
X121383915Y-113712255D01*
X121383915Y-113504301D01*
X121485451Y-113402765D01*
X121570484Y-113275504D01*
X121583633Y-113243761D01*
X121723358Y-113271553D01*
X121876414Y-113271553D01*
X122026529Y-113241694D01*
X122167934Y-113183122D01*
X122295195Y-113098089D01*
X122403422Y-112989862D01*
X122488455Y-112862601D01*
X122547027Y-112721196D01*
X122576886Y-112571081D01*
X122576886Y-112418025D01*
X122547027Y-112267910D01*
X122488455Y-112126505D01*
X122403422Y-111999244D01*
X122387063Y-111982885D01*
X122403515Y-111966433D01*
X122488548Y-111839172D01*
X122510340Y-111786560D01*
X122518708Y-111791033D01*
X122613335Y-111819738D01*
X122687091Y-111827002D01*
X122687100Y-111827002D01*
X122711743Y-111829429D01*
X122736386Y-111827002D01*
X127450355Y-111827002D01*
X127474998Y-111829429D01*
X127499641Y-111827002D01*
X127499651Y-111827002D01*
X127573407Y-111819738D01*
X127668034Y-111791033D01*
X127755243Y-111744419D01*
X127831682Y-111681686D01*
X127847399Y-111662535D01*
X128437538Y-111072397D01*
X128456684Y-111056684D01*
X128476835Y-111032131D01*
X128519416Y-110980246D01*
X128519417Y-110980245D01*
X128566031Y-110893036D01*
X128573000Y-110870061D01*
X128573000Y-114552516D01*
%TA.AperFunction,Conductor*%
D35*
G36*
X128573000Y-114552516D02*
G01*
X128541958Y-114521474D01*
X128414697Y-114436441D01*
X128273292Y-114377869D01*
X128123177Y-114348010D01*
X127970121Y-114348010D01*
X127820006Y-114377869D01*
X127678601Y-114436441D01*
X127551340Y-114521474D01*
X127443113Y-114629701D01*
X127358080Y-114756962D01*
X127299508Y-114898367D01*
X127269649Y-115048482D01*
X127269649Y-115201538D01*
X127299508Y-115351653D01*
X127358080Y-115493058D01*
X127443113Y-115620319D01*
X127452380Y-115629586D01*
X127404671Y-115661464D01*
X127296444Y-115769691D01*
X127211411Y-115896952D01*
X127152839Y-116038357D01*
X127122980Y-116188472D01*
X127122980Y-116332065D01*
X126932253Y-116522792D01*
X126932253Y-116349137D01*
X126934680Y-116324494D01*
X126932253Y-116299851D01*
X126932253Y-116299842D01*
X126924989Y-116226086D01*
X126896284Y-116131459D01*
X126849670Y-116044250D01*
X126813955Y-116000732D01*
X126807254Y-115992567D01*
X126807254Y-115847968D01*
X126777395Y-115697853D01*
X126718823Y-115556448D01*
X126633790Y-115429187D01*
X126610805Y-115406202D01*
X126686406Y-115293058D01*
X126744978Y-115151653D01*
X126774837Y-115001538D01*
X126774837Y-114848482D01*
X126744978Y-114698367D01*
X126686406Y-114556962D01*
X126601373Y-114429701D01*
X126493146Y-114321474D01*
X126365885Y-114236441D01*
X126224480Y-114177869D01*
X126074365Y-114148010D01*
X125921309Y-114148010D01*
X125771194Y-114177869D01*
X125629789Y-114236441D01*
X125502528Y-114321474D01*
X125394301Y-114429701D01*
X125309268Y-114556962D01*
X125250696Y-114698367D01*
X125220837Y-114848482D01*
X125220837Y-114992075D01*
X125001053Y-115211859D01*
X125021431Y-115162663D01*
X125051290Y-115012548D01*
X125051290Y-114859492D01*
X125021431Y-114709377D01*
X124962859Y-114567972D01*
X124877826Y-114440711D01*
X124769599Y-114332484D01*
X124642338Y-114247451D01*
X124500933Y-114188879D01*
X124350818Y-114159020D01*
X124197762Y-114159020D01*
X124047647Y-114188879D01*
X123946081Y-114230949D01*
X122166975Y-114230949D01*
X122121518Y-114121207D01*
X122036485Y-113993946D01*
X121928258Y-113885719D01*
X121800997Y-113800686D01*
X121659592Y-113742114D01*
X121509477Y-113712255D01*
X121383915Y-113712255D01*
X121383915Y-113504301D01*
X121485451Y-113402765D01*
X121570484Y-113275504D01*
X121583633Y-113243761D01*
X121723358Y-113271553D01*
X121876414Y-113271553D01*
X122026529Y-113241694D01*
X122167934Y-113183122D01*
X122295195Y-113098089D01*
X122403422Y-112989862D01*
X122488455Y-112862601D01*
X122547027Y-112721196D01*
X122576886Y-112571081D01*
X122576886Y-112418025D01*
X122547027Y-112267910D01*
X122488455Y-112126505D01*
X122403422Y-111999244D01*
X122387063Y-111982885D01*
X122403515Y-111966433D01*
X122488548Y-111839172D01*
X122510340Y-111786560D01*
X122518708Y-111791033D01*
X122613335Y-111819738D01*
X122687091Y-111827002D01*
X122687100Y-111827002D01*
X122711743Y-111829429D01*
X122736386Y-111827002D01*
X127450355Y-111827002D01*
X127474998Y-111829429D01*
X127499641Y-111827002D01*
X127499651Y-111827002D01*
X127573407Y-111819738D01*
X127668034Y-111791033D01*
X127755243Y-111744419D01*
X127831682Y-111681686D01*
X127847399Y-111662535D01*
X128437538Y-111072397D01*
X128456684Y-111056684D01*
X128476835Y-111032131D01*
X128519416Y-110980246D01*
X128519417Y-110980245D01*
X128566031Y-110893036D01*
X128573000Y-110870061D01*
X128573000Y-114552516D01*
G37*
%TD.AperFunction*%
D34*
X117840950Y-114897131D02*
X117991065Y-114926990D01*
X118144121Y-114926990D01*
X118170576Y-114921728D01*
X118158949Y-114943480D01*
X118130244Y-115038107D01*
X118120552Y-115136516D01*
X118122980Y-115161169D01*
X118122979Y-116262117D01*
X117976497Y-116232981D01*
X117823441Y-116232981D01*
X117673326Y-116262840D01*
X117531921Y-116321412D01*
X117485767Y-116352251D01*
X117610704Y-116095429D01*
X117692384Y-115783892D01*
X117711718Y-115462405D01*
X117670268Y-115160145D01*
X117681185Y-115151185D01*
X117760537Y-115054494D01*
X117819502Y-114944180D01*
X117834575Y-114894490D01*
X117840950Y-114897131D01*
%TA.AperFunction,Conductor*%
D35*
G36*
X117840950Y-114897131D02*
G01*
X117991065Y-114926990D01*
X118144121Y-114926990D01*
X118170576Y-114921728D01*
X118158949Y-114943480D01*
X118130244Y-115038107D01*
X118120552Y-115136516D01*
X118122980Y-115161169D01*
X118122979Y-116262117D01*
X117976497Y-116232981D01*
X117823441Y-116232981D01*
X117673326Y-116262840D01*
X117531921Y-116321412D01*
X117485767Y-116352251D01*
X117610704Y-116095429D01*
X117692384Y-115783892D01*
X117711718Y-115462405D01*
X117670268Y-115160145D01*
X117681185Y-115151185D01*
X117760537Y-115054494D01*
X117819502Y-114944180D01*
X117834575Y-114894490D01*
X117840950Y-114897131D01*
G37*
%TD.AperFunction*%
D34*
X116532998Y-115241607D02*
X116249605Y-115525000D01*
X116263748Y-115539143D01*
X116084143Y-115718748D01*
X116070000Y-115704605D01*
X116055858Y-115718748D01*
X115896210Y-115559100D01*
X115915812Y-115494482D01*
X115918345Y-115468765D01*
X116052711Y-115334399D01*
X116059692Y-115335087D01*
X116070000Y-115345395D01*
X116078460Y-115336935D01*
X116090000Y-115338072D01*
X116374250Y-115335000D01*
X116532998Y-115176252D01*
X116532998Y-115241607D01*
%TA.AperFunction,Conductor*%
D35*
G36*
X116532998Y-115241607D02*
G01*
X116249605Y-115525000D01*
X116263748Y-115539143D01*
X116084143Y-115718748D01*
X116070000Y-115704605D01*
X116055858Y-115718748D01*
X115896210Y-115559100D01*
X115915812Y-115494482D01*
X115918345Y-115468765D01*
X116052711Y-115334399D01*
X116059692Y-115335087D01*
X116070000Y-115345395D01*
X116078460Y-115336935D01*
X116090000Y-115338072D01*
X116374250Y-115335000D01*
X116532998Y-115176252D01*
X116532998Y-115241607D01*
G37*
%TD.AperFunction*%
D34*
X112672000Y-111073000D02*
X112692000Y-111073000D01*
X112692000Y-111327000D01*
X112672000Y-111327000D01*
X112672000Y-114282315D01*
X112661157Y-114247528D01*
X112418000Y-114131586D01*
X112418000Y-111327000D01*
X112398000Y-111327000D01*
X112398000Y-111073000D01*
X112418000Y-111073000D01*
X112418000Y-108263381D01*
X112523747Y-108225919D01*
X112661157Y-108152472D01*
X112672000Y-108117685D01*
X112672000Y-111073000D01*
%TA.AperFunction,Conductor*%
D35*
G36*
X112672000Y-111073000D02*
G01*
X112692000Y-111073000D01*
X112692000Y-111327000D01*
X112672000Y-111327000D01*
X112672000Y-114282315D01*
X112661157Y-114247528D01*
X112418000Y-114131586D01*
X112418000Y-111327000D01*
X112398000Y-111327000D01*
X112398000Y-111073000D01*
X112418000Y-111073000D01*
X112418000Y-108263381D01*
X112523747Y-108225919D01*
X112661157Y-108152472D01*
X112672000Y-108117685D01*
X112672000Y-111073000D01*
G37*
%TD.AperFunction*%
D34*
X120762467Y-102227599D02*
X120743316Y-102243316D01*
X120680583Y-102319755D01*
X120633969Y-102406965D01*
X120605264Y-102501592D01*
X120598000Y-102575348D01*
X120598000Y-102575357D01*
X120595573Y-102600000D01*
X120598000Y-102624643D01*
X120598001Y-103471176D01*
X120550000Y-103471176D01*
X120476095Y-103478455D01*
X120405030Y-103500012D01*
X120339537Y-103535019D01*
X120282131Y-103582131D01*
X120235019Y-103639537D01*
X120200012Y-103705030D01*
X120178455Y-103776095D01*
X120176296Y-103798012D01*
X120046436Y-103823842D01*
X119905031Y-103882414D01*
X119777770Y-103967447D01*
X119669543Y-104075674D01*
X119584510Y-104202935D01*
X119525938Y-104344340D01*
X119496079Y-104494455D01*
X119496079Y-104647511D01*
X119525938Y-104797626D01*
X119584510Y-104939031D01*
X119669543Y-105066292D01*
X119777770Y-105174519D01*
X119905031Y-105259552D01*
X119981146Y-105291080D01*
X120171176Y-105481110D01*
X120171176Y-107550000D01*
X120178455Y-107623905D01*
X120200012Y-107694970D01*
X120235019Y-107760463D01*
X120282131Y-107817869D01*
X120339537Y-107864981D01*
X120405030Y-107899988D01*
X120476095Y-107921545D01*
X120550000Y-107928824D01*
X120627400Y-107928824D01*
X121121176Y-108422600D01*
X121121176Y-109150450D01*
X121133250Y-109273040D01*
X121169008Y-109390918D01*
X121227076Y-109499556D01*
X121305222Y-109594778D01*
X121400444Y-109672924D01*
X121509082Y-109730992D01*
X121626960Y-109766750D01*
X121749550Y-109778824D01*
X122400450Y-109778824D01*
X122523040Y-109766750D01*
X122640918Y-109730992D01*
X122749556Y-109672924D01*
X122844778Y-109594778D01*
X122922924Y-109499556D01*
X122960837Y-109428625D01*
X122979494Y-109490128D01*
X123061519Y-109643586D01*
X123171906Y-109778094D01*
X123306414Y-109888481D01*
X123459872Y-109970506D01*
X123626384Y-110021017D01*
X123799550Y-110038072D01*
X124276061Y-110038072D01*
X124285498Y-110069180D01*
X124344463Y-110179494D01*
X124423815Y-110276185D01*
X124520506Y-110355537D01*
X124630820Y-110414502D01*
X124750518Y-110450812D01*
X124875000Y-110463072D01*
X125314250Y-110460000D01*
X125473000Y-110301250D01*
X125473000Y-110185427D01*
X125498672Y-110164358D01*
X125577287Y-110081399D01*
X125577287Y-109864028D01*
X125648815Y-109951185D01*
X125727000Y-110015350D01*
X125727000Y-110301250D01*
X125885750Y-110460000D01*
X126325000Y-110463072D01*
X126449482Y-110450812D01*
X126569180Y-110414502D01*
X126679494Y-110355537D01*
X126776185Y-110276185D01*
X126811579Y-110233057D01*
X126862500Y-110238072D01*
X127337500Y-110238072D01*
X127508316Y-110221248D01*
X127598001Y-110194042D01*
X127598001Y-110492064D01*
X127267064Y-110823002D01*
X122919679Y-110823002D01*
X122184164Y-110087488D01*
X122168447Y-110068337D01*
X122092008Y-110005604D01*
X122004799Y-109958990D01*
X121910172Y-109930285D01*
X121836416Y-109923021D01*
X121836406Y-109923021D01*
X121811763Y-109920594D01*
X121787120Y-109923021D01*
X121429541Y-109923021D01*
X120670693Y-109164175D01*
X120654976Y-109145024D01*
X120578537Y-109082291D01*
X120491328Y-109035677D01*
X120396701Y-109006972D01*
X120322945Y-108999708D01*
X120322935Y-108999708D01*
X120298292Y-108997281D01*
X120273649Y-108999708D01*
X118609643Y-108999708D01*
X118072401Y-108462467D01*
X118056684Y-108443316D01*
X117980245Y-108380583D01*
X117893036Y-108333969D01*
X117865548Y-108325630D01*
X117868072Y-108300000D01*
X117865000Y-108285750D01*
X117706250Y-108127000D01*
X117289132Y-108127000D01*
X117230000Y-108121176D01*
X116985690Y-108121176D01*
X117025808Y-108010413D01*
X116888395Y-107873000D01*
X117706250Y-107873000D01*
X117865000Y-107714250D01*
X117868072Y-107700000D01*
X117855812Y-107575518D01*
X117819502Y-107455820D01*
X117760537Y-107345506D01*
X117681185Y-107248815D01*
X117665605Y-107236029D01*
X117692384Y-107133892D01*
X117711718Y-106812405D01*
X117679599Y-106578190D01*
X117798391Y-106627395D01*
X117948506Y-106657254D01*
X117990233Y-106657254D01*
X117990233Y-106681792D01*
X118020092Y-106831907D01*
X118078664Y-106973312D01*
X118163697Y-107100573D01*
X118271924Y-107208800D01*
X118399185Y-107293833D01*
X118540590Y-107352405D01*
X118690705Y-107382264D01*
X118843761Y-107382264D01*
X118993876Y-107352405D01*
X119135281Y-107293833D01*
X119262542Y-107208800D01*
X119370769Y-107100573D01*
X119455802Y-106973312D01*
X119514374Y-106831907D01*
X119544233Y-106681792D01*
X119544233Y-106528736D01*
X119514374Y-106378621D01*
X119455802Y-106237216D01*
X119370769Y-106109955D01*
X119269233Y-106008419D01*
X119269233Y-105574092D01*
X119271660Y-105549449D01*
X119269233Y-105524806D01*
X119269233Y-105524796D01*
X119261969Y-105451040D01*
X119233264Y-105356413D01*
X119186650Y-105269204D01*
X119178191Y-105258897D01*
X119139633Y-105211913D01*
X119139625Y-105211905D01*
X119123917Y-105192765D01*
X119104776Y-105177056D01*
X118690173Y-104762455D01*
X118674456Y-104743304D01*
X118598017Y-104680571D01*
X118510808Y-104633957D01*
X118416181Y-104605252D01*
X118342425Y-104597988D01*
X118342415Y-104597988D01*
X118317772Y-104595561D01*
X118293129Y-104597988D01*
X116807924Y-104597988D01*
X116102000Y-103892066D01*
X116102000Y-102924642D01*
X116104427Y-102899999D01*
X116102000Y-102875356D01*
X116102000Y-102875347D01*
X116094736Y-102801591D01*
X116066031Y-102706964D01*
X116019417Y-102619755D01*
X115991509Y-102585750D01*
X115972399Y-102562464D01*
X115972397Y-102562462D01*
X115956684Y-102543316D01*
X115937538Y-102527603D01*
X115372401Y-101962467D01*
X115356684Y-101943316D01*
X115280245Y-101880583D01*
X115228824Y-101853098D01*
X115228824Y-101674999D01*
X115216741Y-101552322D01*
X115180958Y-101434359D01*
X115177024Y-101427000D01*
X121563065Y-101427000D01*
X120762467Y-102227599D01*
%TA.AperFunction,Conductor*%
D35*
G36*
X120762467Y-102227599D02*
G01*
X120743316Y-102243316D01*
X120680583Y-102319755D01*
X120633969Y-102406965D01*
X120605264Y-102501592D01*
X120598000Y-102575348D01*
X120598000Y-102575357D01*
X120595573Y-102600000D01*
X120598000Y-102624643D01*
X120598001Y-103471176D01*
X120550000Y-103471176D01*
X120476095Y-103478455D01*
X120405030Y-103500012D01*
X120339537Y-103535019D01*
X120282131Y-103582131D01*
X120235019Y-103639537D01*
X120200012Y-103705030D01*
X120178455Y-103776095D01*
X120176296Y-103798012D01*
X120046436Y-103823842D01*
X119905031Y-103882414D01*
X119777770Y-103967447D01*
X119669543Y-104075674D01*
X119584510Y-104202935D01*
X119525938Y-104344340D01*
X119496079Y-104494455D01*
X119496079Y-104647511D01*
X119525938Y-104797626D01*
X119584510Y-104939031D01*
X119669543Y-105066292D01*
X119777770Y-105174519D01*
X119905031Y-105259552D01*
X119981146Y-105291080D01*
X120171176Y-105481110D01*
X120171176Y-107550000D01*
X120178455Y-107623905D01*
X120200012Y-107694970D01*
X120235019Y-107760463D01*
X120282131Y-107817869D01*
X120339537Y-107864981D01*
X120405030Y-107899988D01*
X120476095Y-107921545D01*
X120550000Y-107928824D01*
X120627400Y-107928824D01*
X121121176Y-108422600D01*
X121121176Y-109150450D01*
X121133250Y-109273040D01*
X121169008Y-109390918D01*
X121227076Y-109499556D01*
X121305222Y-109594778D01*
X121400444Y-109672924D01*
X121509082Y-109730992D01*
X121626960Y-109766750D01*
X121749550Y-109778824D01*
X122400450Y-109778824D01*
X122523040Y-109766750D01*
X122640918Y-109730992D01*
X122749556Y-109672924D01*
X122844778Y-109594778D01*
X122922924Y-109499556D01*
X122960837Y-109428625D01*
X122979494Y-109490128D01*
X123061519Y-109643586D01*
X123171906Y-109778094D01*
X123306414Y-109888481D01*
X123459872Y-109970506D01*
X123626384Y-110021017D01*
X123799550Y-110038072D01*
X124276061Y-110038072D01*
X124285498Y-110069180D01*
X124344463Y-110179494D01*
X124423815Y-110276185D01*
X124520506Y-110355537D01*
X124630820Y-110414502D01*
X124750518Y-110450812D01*
X124875000Y-110463072D01*
X125314250Y-110460000D01*
X125473000Y-110301250D01*
X125473000Y-110185427D01*
X125498672Y-110164358D01*
X125577287Y-110081399D01*
X125577287Y-109864028D01*
X125648815Y-109951185D01*
X125727000Y-110015350D01*
X125727000Y-110301250D01*
X125885750Y-110460000D01*
X126325000Y-110463072D01*
X126449482Y-110450812D01*
X126569180Y-110414502D01*
X126679494Y-110355537D01*
X126776185Y-110276185D01*
X126811579Y-110233057D01*
X126862500Y-110238072D01*
X127337500Y-110238072D01*
X127508316Y-110221248D01*
X127598001Y-110194042D01*
X127598001Y-110492064D01*
X127267064Y-110823002D01*
X122919679Y-110823002D01*
X122184164Y-110087488D01*
X122168447Y-110068337D01*
X122092008Y-110005604D01*
X122004799Y-109958990D01*
X121910172Y-109930285D01*
X121836416Y-109923021D01*
X121836406Y-109923021D01*
X121811763Y-109920594D01*
X121787120Y-109923021D01*
X121429541Y-109923021D01*
X120670693Y-109164175D01*
X120654976Y-109145024D01*
X120578537Y-109082291D01*
X120491328Y-109035677D01*
X120396701Y-109006972D01*
X120322945Y-108999708D01*
X120322935Y-108999708D01*
X120298292Y-108997281D01*
X120273649Y-108999708D01*
X118609643Y-108999708D01*
X118072401Y-108462467D01*
X118056684Y-108443316D01*
X117980245Y-108380583D01*
X117893036Y-108333969D01*
X117865548Y-108325630D01*
X117868072Y-108300000D01*
X117865000Y-108285750D01*
X117706250Y-108127000D01*
X117289132Y-108127000D01*
X117230000Y-108121176D01*
X116985690Y-108121176D01*
X117025808Y-108010413D01*
X116888395Y-107873000D01*
X117706250Y-107873000D01*
X117865000Y-107714250D01*
X117868072Y-107700000D01*
X117855812Y-107575518D01*
X117819502Y-107455820D01*
X117760537Y-107345506D01*
X117681185Y-107248815D01*
X117665605Y-107236029D01*
X117692384Y-107133892D01*
X117711718Y-106812405D01*
X117679599Y-106578190D01*
X117798391Y-106627395D01*
X117948506Y-106657254D01*
X117990233Y-106657254D01*
X117990233Y-106681792D01*
X118020092Y-106831907D01*
X118078664Y-106973312D01*
X118163697Y-107100573D01*
X118271924Y-107208800D01*
X118399185Y-107293833D01*
X118540590Y-107352405D01*
X118690705Y-107382264D01*
X118843761Y-107382264D01*
X118993876Y-107352405D01*
X119135281Y-107293833D01*
X119262542Y-107208800D01*
X119370769Y-107100573D01*
X119455802Y-106973312D01*
X119514374Y-106831907D01*
X119544233Y-106681792D01*
X119544233Y-106528736D01*
X119514374Y-106378621D01*
X119455802Y-106237216D01*
X119370769Y-106109955D01*
X119269233Y-106008419D01*
X119269233Y-105574092D01*
X119271660Y-105549449D01*
X119269233Y-105524806D01*
X119269233Y-105524796D01*
X119261969Y-105451040D01*
X119233264Y-105356413D01*
X119186650Y-105269204D01*
X119178191Y-105258897D01*
X119139633Y-105211913D01*
X119139625Y-105211905D01*
X119123917Y-105192765D01*
X119104776Y-105177056D01*
X118690173Y-104762455D01*
X118674456Y-104743304D01*
X118598017Y-104680571D01*
X118510808Y-104633957D01*
X118416181Y-104605252D01*
X118342425Y-104597988D01*
X118342415Y-104597988D01*
X118317772Y-104595561D01*
X118293129Y-104597988D01*
X116807924Y-104597988D01*
X116102000Y-103892066D01*
X116102000Y-102924642D01*
X116104427Y-102899999D01*
X116102000Y-102875356D01*
X116102000Y-102875347D01*
X116094736Y-102801591D01*
X116066031Y-102706964D01*
X116019417Y-102619755D01*
X115991509Y-102585750D01*
X115972399Y-102562464D01*
X115972397Y-102562462D01*
X115956684Y-102543316D01*
X115937538Y-102527603D01*
X115372401Y-101962467D01*
X115356684Y-101943316D01*
X115280245Y-101880583D01*
X115228824Y-101853098D01*
X115228824Y-101674999D01*
X115216741Y-101552322D01*
X115180958Y-101434359D01*
X115177024Y-101427000D01*
X121563065Y-101427000D01*
X120762467Y-102227599D01*
G37*
%TD.AperFunction*%
D34*
X128110900Y-101439922D02*
X128217573Y-101472129D01*
X128315961Y-101524442D01*
X128402311Y-101594868D01*
X128473342Y-101680728D01*
X128526339Y-101778745D01*
X128559290Y-101885193D01*
X128573000Y-102015629D01*
X128573000Y-108167437D01*
X128566031Y-108144463D01*
X128519417Y-108057254D01*
X128472400Y-107999965D01*
X128472397Y-107999962D01*
X128456684Y-107980816D01*
X128437538Y-107965103D01*
X127953824Y-107481390D01*
X127953824Y-107037500D01*
X127941982Y-106917261D01*
X127906909Y-106801643D01*
X127857296Y-106708824D01*
X127875000Y-106708824D01*
X127948905Y-106701545D01*
X128019970Y-106679988D01*
X128085463Y-106644981D01*
X128142869Y-106597869D01*
X128189981Y-106540463D01*
X128224988Y-106474970D01*
X128246545Y-106403905D01*
X128253824Y-106330000D01*
X128253824Y-104940112D01*
X128296593Y-104905731D01*
X128376920Y-104809848D01*
X128436999Y-104700137D01*
X128474519Y-104580813D01*
X128485000Y-104481750D01*
X128326250Y-104323000D01*
X127485807Y-104323000D01*
X127488072Y-104300000D01*
X127488072Y-104077000D01*
X128326250Y-104077000D01*
X128485000Y-103918250D01*
X128474519Y-103819187D01*
X128436999Y-103699863D01*
X128376920Y-103590152D01*
X128296593Y-103494269D01*
X128253824Y-103459888D01*
X128253824Y-102070000D01*
X128246545Y-101996095D01*
X128224988Y-101925030D01*
X128189981Y-101859537D01*
X128142869Y-101802131D01*
X128085463Y-101755019D01*
X128052000Y-101737133D01*
X128052000Y-101724653D01*
X128054428Y-101700000D01*
X128044736Y-101601591D01*
X128016031Y-101506964D01*
X127973290Y-101427000D01*
X127979117Y-101427000D01*
X128110900Y-101439922D01*
%TA.AperFunction,Conductor*%
D35*
G36*
X128110900Y-101439922D02*
G01*
X128217573Y-101472129D01*
X128315961Y-101524442D01*
X128402311Y-101594868D01*
X128473342Y-101680728D01*
X128526339Y-101778745D01*
X128559290Y-101885193D01*
X128573000Y-102015629D01*
X128573000Y-108167437D01*
X128566031Y-108144463D01*
X128519417Y-108057254D01*
X128472400Y-107999965D01*
X128472397Y-107999962D01*
X128456684Y-107980816D01*
X128437538Y-107965103D01*
X127953824Y-107481390D01*
X127953824Y-107037500D01*
X127941982Y-106917261D01*
X127906909Y-106801643D01*
X127857296Y-106708824D01*
X127875000Y-106708824D01*
X127948905Y-106701545D01*
X128019970Y-106679988D01*
X128085463Y-106644981D01*
X128142869Y-106597869D01*
X128189981Y-106540463D01*
X128224988Y-106474970D01*
X128246545Y-106403905D01*
X128253824Y-106330000D01*
X128253824Y-104940112D01*
X128296593Y-104905731D01*
X128376920Y-104809848D01*
X128436999Y-104700137D01*
X128474519Y-104580813D01*
X128485000Y-104481750D01*
X128326250Y-104323000D01*
X127485807Y-104323000D01*
X127488072Y-104300000D01*
X127488072Y-104077000D01*
X128326250Y-104077000D01*
X128485000Y-103918250D01*
X128474519Y-103819187D01*
X128436999Y-103699863D01*
X128376920Y-103590152D01*
X128296593Y-103494269D01*
X128253824Y-103459888D01*
X128253824Y-102070000D01*
X128246545Y-101996095D01*
X128224988Y-101925030D01*
X128189981Y-101859537D01*
X128142869Y-101802131D01*
X128085463Y-101755019D01*
X128052000Y-101737133D01*
X128052000Y-101724653D01*
X128054428Y-101700000D01*
X128044736Y-101601591D01*
X128016031Y-101506964D01*
X127973290Y-101427000D01*
X127979117Y-101427000D01*
X128110900Y-101439922D01*
G37*
%TD.AperFunction*%
D34*
X116263748Y-106860858D02*
X116249605Y-106875000D01*
X116532998Y-107158393D01*
X116532998Y-107223748D01*
X116374250Y-107065000D01*
X116090000Y-107061928D01*
X116078460Y-107063065D01*
X116070000Y-107054605D01*
X116059692Y-107064913D01*
X116052711Y-107065601D01*
X115918345Y-106931235D01*
X115915812Y-106905518D01*
X115896210Y-106840900D01*
X116055858Y-106681253D01*
X116070000Y-106695395D01*
X116084143Y-106681253D01*
X116263748Y-106860858D01*
%TA.AperFunction,Conductor*%
D35*
G36*
X116263748Y-106860858D02*
G01*
X116249605Y-106875000D01*
X116532998Y-107158393D01*
X116532998Y-107223748D01*
X116374250Y-107065000D01*
X116090000Y-107061928D01*
X116078460Y-107063065D01*
X116070000Y-107054605D01*
X116059692Y-107064913D01*
X116052711Y-107065601D01*
X115918345Y-106931235D01*
X115915812Y-106905518D01*
X115896210Y-106840900D01*
X116055858Y-106681253D01*
X116070000Y-106695395D01*
X116084143Y-106681253D01*
X116263748Y-106860858D01*
G37*
%TD.AperFunction*%
D34*
X113219042Y-101434359D02*
X113183259Y-101552322D01*
X113171176Y-101674999D01*
X113171176Y-102925001D01*
X113183259Y-103047678D01*
X113219042Y-103165641D01*
X113277152Y-103274356D01*
X113355354Y-103369646D01*
X113450644Y-103447848D01*
X113559359Y-103505958D01*
X113622133Y-103525000D01*
X113559359Y-103544042D01*
X113450644Y-103602152D01*
X113355354Y-103680354D01*
X113277152Y-103775644D01*
X113219042Y-103884359D01*
X113183259Y-104002322D01*
X113171176Y-104124999D01*
X113171176Y-105375001D01*
X113183259Y-105497678D01*
X113219042Y-105615641D01*
X113277152Y-105724356D01*
X113355354Y-105819646D01*
X113450644Y-105897848D01*
X113559359Y-105955958D01*
X113677322Y-105991741D01*
X113799999Y-106003824D01*
X114600001Y-106003824D01*
X114722678Y-105991741D01*
X114747458Y-105984224D01*
X114750519Y-105985860D01*
X114670186Y-106014956D01*
X114529296Y-106304571D01*
X114506136Y-106392907D01*
X113295180Y-106394420D01*
X113240919Y-106241253D01*
X113167472Y-106103843D01*
X112918397Y-106026208D01*
X112404428Y-106540178D01*
X112259250Y-106395000D01*
X112190481Y-106394914D01*
X112738792Y-105846603D01*
X112661157Y-105597528D01*
X112397117Y-105471629D01*
X112387259Y-105469127D01*
X112385000Y-105035750D01*
X112226250Y-104877000D01*
X111227000Y-104877000D01*
X111227000Y-105539717D01*
X111118843Y-105597528D01*
X111041209Y-105846601D01*
X110973000Y-105778392D01*
X110973000Y-104877000D01*
X110953000Y-104877000D01*
X110953000Y-104623000D01*
X110973000Y-104623000D01*
X110973000Y-102427000D01*
X111227000Y-102427000D01*
X111227000Y-104623000D01*
X112226250Y-104623000D01*
X112385000Y-104464250D01*
X112388072Y-103875000D01*
X112375812Y-103750518D01*
X112339502Y-103630820D01*
X112282939Y-103525000D01*
X112339502Y-103419180D01*
X112375812Y-103299482D01*
X112388072Y-103175000D01*
X112385000Y-102585750D01*
X112226250Y-102427000D01*
X111227000Y-102427000D01*
X110973000Y-102427000D01*
X110953000Y-102427000D01*
X110953000Y-102173000D01*
X110973000Y-102173000D01*
X110973000Y-102153000D01*
X111227000Y-102153000D01*
X111227000Y-102173000D01*
X112226250Y-102173000D01*
X112385000Y-102014250D01*
X112388062Y-101427000D01*
X113222976Y-101427000D01*
X113219042Y-101434359D01*
%TA.AperFunction,Conductor*%
D35*
G36*
X113219042Y-101434359D02*
G01*
X113183259Y-101552322D01*
X113171176Y-101674999D01*
X113171176Y-102925001D01*
X113183259Y-103047678D01*
X113219042Y-103165641D01*
X113277152Y-103274356D01*
X113355354Y-103369646D01*
X113450644Y-103447848D01*
X113559359Y-103505958D01*
X113622133Y-103525000D01*
X113559359Y-103544042D01*
X113450644Y-103602152D01*
X113355354Y-103680354D01*
X113277152Y-103775644D01*
X113219042Y-103884359D01*
X113183259Y-104002322D01*
X113171176Y-104124999D01*
X113171176Y-105375001D01*
X113183259Y-105497678D01*
X113219042Y-105615641D01*
X113277152Y-105724356D01*
X113355354Y-105819646D01*
X113450644Y-105897848D01*
X113559359Y-105955958D01*
X113677322Y-105991741D01*
X113799999Y-106003824D01*
X114600001Y-106003824D01*
X114722678Y-105991741D01*
X114747458Y-105984224D01*
X114750519Y-105985860D01*
X114670186Y-106014956D01*
X114529296Y-106304571D01*
X114506136Y-106392907D01*
X113295180Y-106394420D01*
X113240919Y-106241253D01*
X113167472Y-106103843D01*
X112918397Y-106026208D01*
X112404428Y-106540178D01*
X112259250Y-106395000D01*
X112190481Y-106394914D01*
X112738792Y-105846603D01*
X112661157Y-105597528D01*
X112397117Y-105471629D01*
X112387259Y-105469127D01*
X112385000Y-105035750D01*
X112226250Y-104877000D01*
X111227000Y-104877000D01*
X111227000Y-105539717D01*
X111118843Y-105597528D01*
X111041209Y-105846601D01*
X110973000Y-105778392D01*
X110973000Y-104877000D01*
X110953000Y-104877000D01*
X110953000Y-104623000D01*
X110973000Y-104623000D01*
X110973000Y-102427000D01*
X111227000Y-102427000D01*
X111227000Y-104623000D01*
X112226250Y-104623000D01*
X112385000Y-104464250D01*
X112388072Y-103875000D01*
X112375812Y-103750518D01*
X112339502Y-103630820D01*
X112282939Y-103525000D01*
X112339502Y-103419180D01*
X112375812Y-103299482D01*
X112388072Y-103175000D01*
X112385000Y-102585750D01*
X112226250Y-102427000D01*
X111227000Y-102427000D01*
X110973000Y-102427000D01*
X110953000Y-102427000D01*
X110953000Y-102173000D01*
X110973000Y-102173000D01*
X110973000Y-102153000D01*
X111227000Y-102153000D01*
X111227000Y-102173000D01*
X112226250Y-102173000D01*
X112385000Y-102014250D01*
X112388062Y-101427000D01*
X113222976Y-101427000D01*
X113219042Y-101434359D01*
G37*
%TD.AperFunction*%
%TD*%
M02*
