%TF.GenerationSoftware,KiCad,Pcbnew,(5.1.9-0-10_14)*%
%TF.CreationDate,2021-05-15T13:02:13+01:00*%
%TF.ProjectId,Keypad,4b657970-6164-42e6-9b69-6361645f7063,4*%
%TF.SameCoordinates,Original*%
%TF.FileFunction,Copper,L2,Bot*%
%TF.FilePolarity,Positive*%
%FSLAX46Y46*%
G04 Gerber Fmt 4.6, Leading zero omitted, Abs format (unit mm)*
G04 Created by KiCad (PCBNEW (5.1.9-0-10_14)) date 2021-05-15 13:02:13*
%MOMM*%
%LPD*%
G01*
G04 APERTURE LIST*
%TA.AperFunction,EtchedComponent*%
%ADD10C,0.200000*%
%TD*%
%TA.AperFunction,ComponentPad*%
%ADD11C,1.700000*%
%TD*%
%TA.AperFunction,ComponentPad*%
%ADD12C,2.000000*%
%TD*%
%TA.AperFunction,ComponentPad*%
%ADD13C,0.600000*%
%TD*%
%TA.AperFunction,ComponentPad*%
%ADD14O,1.700000X1.850000*%
%TD*%
%TA.AperFunction,ComponentPad*%
%ADD15O,1.700000X1.700000*%
%TD*%
%TA.AperFunction,ComponentPad*%
%ADD16R,1.700000X1.700000*%
%TD*%
%TA.AperFunction,ComponentPad*%
%ADD17C,0.350000*%
%TD*%
%TA.AperFunction,SMDPad,CuDef*%
%ADD18R,2.000000X0.900000*%
%TD*%
%TA.AperFunction,SMDPad,CuDef*%
%ADD19R,0.900000X2.000000*%
%TD*%
%TA.AperFunction,SMDPad,CuDef*%
%ADD20R,5.000000X5.000000*%
%TD*%
%TA.AperFunction,ViaPad*%
%ADD21C,0.800000*%
%TD*%
%TA.AperFunction,Conductor*%
%ADD22C,0.250000*%
%TD*%
%TA.AperFunction,Conductor*%
%ADD23C,0.500000*%
%TD*%
%TA.AperFunction,Conductor*%
%ADD24C,0.254000*%
%TD*%
%TA.AperFunction,Conductor*%
%ADD25C,0.100000*%
%TD*%
G04 APERTURE END LIST*
D10*
%TO.C,AJK1*%
X120830000Y-117650000D02*
X122594710Y-119708820D01*
X122594700Y-119709000D02*
X124065300Y-119709000D01*
X122594710Y-119708820D02*
X120830000Y-121767650D01*
X123849926Y-122287579D02*
X124065288Y-121767650D01*
X122810062Y-122287579D02*
X123329994Y-122502940D01*
X123329994Y-122502940D02*
X123849926Y-122287579D01*
X122594700Y-117650000D02*
X122594700Y-121767650D01*
X122594700Y-121767650D02*
X122810062Y-122287579D01*
X125535880Y-121767650D02*
X122594700Y-117650000D01*
%TD*%
D11*
%TO.P,J2,S1*%
%TO.N,GND*%
X137010000Y-100475000D03*
X137010000Y-109125000D03*
D12*
X132830000Y-100475000D03*
X132830000Y-109125000D03*
D13*
X133310000Y-101910000D03*
X133310000Y-107690000D03*
%TD*%
D14*
%TO.P,J1,4*%
%TO.N,Net-(J1-Pad4)*%
X128500000Y-116500000D03*
%TO.P,J1,3*%
%TO.N,Net-(J1-Pad3)*%
X131000000Y-116500000D03*
%TO.P,J1,2*%
%TO.N,VBUS*%
X133500000Y-116500000D03*
%TO.P,J1,1*%
%TO.N,GND*%
%TA.AperFunction,ComponentPad*%
G36*
G01*
X136850000Y-115825000D02*
X136850000Y-117175000D01*
G75*
G02*
X136600000Y-117425000I-250000J0D01*
G01*
X135400000Y-117425000D01*
G75*
G02*
X135150000Y-117175000I0J250000D01*
G01*
X135150000Y-115825000D01*
G75*
G02*
X135400000Y-115575000I250000J0D01*
G01*
X136600000Y-115575000D01*
G75*
G02*
X136850000Y-115825000I0J-250000D01*
G01*
G37*
%TD.AperFunction*%
%TD*%
D15*
%TO.P,J3,4*%
%TO.N,Net-(J1-Pad4)*%
X129080000Y-121500000D03*
%TO.P,J3,3*%
%TO.N,Net-(J1-Pad3)*%
X131620000Y-121500000D03*
%TO.P,J3,2*%
%TO.N,VBUS*%
X134160000Y-121500000D03*
D16*
%TO.P,J3,1*%
%TO.N,GND*%
X136700000Y-121500000D03*
%TD*%
D17*
%TO.P,U2,21*%
%TO.N,GND*%
X126975000Y-111325000D03*
%TD*%
D18*
%TO.P,U1,38*%
%TO.N,GND*%
X120900000Y-95895000D03*
%TO.P,U1,37*%
%TO.N,Net-(U1-Pad37)*%
X120900000Y-97165000D03*
%TO.P,U1,36*%
%TO.N,Net-(U1-Pad36)*%
X120900000Y-98435000D03*
%TO.P,U1,35*%
%TO.N,O*%
X120900000Y-99705000D03*
%TO.P,U1,34*%
%TO.N,I*%
X120900000Y-100975000D03*
%TO.P,U1,33*%
%TO.N,Net-(U1-Pad33)*%
X120900000Y-102245000D03*
%TO.P,U1,32*%
%TO.N,Net-(U1-Pad32)*%
X120900000Y-103515000D03*
%TO.P,U1,31*%
%TO.N,Net-(U1-Pad31)*%
X120900000Y-104785000D03*
%TO.P,U1,30*%
%TO.N,Net-(U1-Pad30)*%
X120900000Y-106055000D03*
%TO.P,U1,29*%
%TO.N,Net-(U1-Pad29)*%
X120900000Y-107325000D03*
%TO.P,U1,28*%
%TO.N,Net-(U1-Pad28)*%
X120900000Y-108595000D03*
%TO.P,U1,27*%
%TO.N,Net-(U1-Pad27)*%
X120900000Y-109865000D03*
%TO.P,U1,26*%
%TO.N,Net-(U1-Pad26)*%
X120900000Y-111135000D03*
%TO.P,U1,25*%
%TO.N,GPIO0*%
X120900000Y-112405000D03*
D19*
%TO.P,U1,24*%
%TO.N,Net-(U1-Pad24)*%
X123685000Y-113405000D03*
%TO.P,U1,23*%
%TO.N,Net-(U1-Pad23)*%
X124955000Y-113405000D03*
%TO.P,U1,22*%
%TO.N,Net-(U1-Pad22)*%
X126225000Y-113405000D03*
%TO.P,U1,21*%
%TO.N,Net-(U1-Pad21)*%
X127495000Y-113405000D03*
%TO.P,U1,20*%
%TO.N,Net-(U1-Pad20)*%
X128765000Y-113405000D03*
%TO.P,U1,19*%
%TO.N,Net-(U1-Pad19)*%
X130035000Y-113405000D03*
%TO.P,U1,18*%
%TO.N,Net-(U1-Pad18)*%
X131305000Y-113405000D03*
%TO.P,U1,17*%
%TO.N,Net-(U1-Pad17)*%
X132575000Y-113405000D03*
%TO.P,U1,16*%
%TO.N,Net-(U1-Pad16)*%
X133845000Y-113405000D03*
%TO.P,U1,15*%
%TO.N,GND*%
X135115000Y-113405000D03*
D18*
%TO.P,U1,14*%
%TO.N,Net-(U1-Pad14)*%
X137900000Y-112405000D03*
%TO.P,U1,13*%
%TO.N,Net-(U1-Pad13)*%
X137900000Y-111135000D03*
%TO.P,U1,12*%
%TO.N,GND*%
X137900000Y-109865000D03*
%TO.P,U1,11*%
X137900000Y-108595000D03*
%TO.P,U1,10*%
%TO.N,Net-(U1-Pad10)*%
X137900000Y-107325000D03*
%TO.P,U1,9*%
%TO.N,Net-(U1-Pad9)*%
X137900000Y-106055000D03*
%TO.P,U1,8*%
%TO.N,Net-(U1-Pad8)*%
X137900000Y-104785000D03*
%TO.P,U1,7*%
%TO.N,Net-(U1-Pad7)*%
X137900000Y-103515000D03*
%TO.P,U1,6*%
%TO.N,Net-(U1-Pad6)*%
X137900000Y-102245000D03*
%TO.P,U1,5*%
%TO.N,GND*%
X137900000Y-100975000D03*
%TO.P,U1,4*%
X137900000Y-99705000D03*
%TO.P,U1,3*%
%TO.N,EN*%
X137900000Y-98435000D03*
%TO.P,U1,2*%
%TO.N,+3V3*%
X137900000Y-97165000D03*
%TO.P,U1,1*%
%TO.N,GND*%
X137900000Y-95895000D03*
D20*
%TO.P,U1,39*%
X130400000Y-103395000D03*
%TD*%
D21*
%TO.N,D+*%
X127080377Y-106377148D03*
X128875885Y-107284312D03*
X127080377Y-106377148D03*
%TO.N,GND*%
X137900000Y-95900000D03*
X124500000Y-103900000D03*
X124500000Y-105700000D03*
%TO.N,D-*%
X129661061Y-106507648D03*
X128146845Y-106599824D03*
%TO.N,+3V3*%
X127297468Y-122225010D03*
X123038070Y-111830814D03*
X124625710Y-108536020D03*
X127467051Y-108089255D03*
X126268616Y-104065382D03*
%TO.N,VBUS*%
X130832407Y-107749990D03*
X134162955Y-110061725D03*
%TO.N,O*%
X131000031Y-110609981D03*
%TO.N,I*%
X122902163Y-108525010D03*
%TO.N,EN*%
X122869746Y-109524496D03*
%TO.N,Net-(J2-PadA5)*%
X130132767Y-100205264D03*
X130625680Y-106771579D03*
%TO.N,Net-(J2-PadB5)*%
X130874966Y-99480254D03*
X127121565Y-105310640D03*
%TO.N,Net-(U1-Pad28)*%
X120853351Y-108725010D03*
%TO.N,Net-(U1-Pad27)*%
X121000020Y-109865000D03*
%TO.N,Net-(U1-Pad26)*%
X121000020Y-111135000D03*
%TO.N,GPIO0*%
X123399978Y-110380935D03*
%TD*%
D22*
%TO.N,D+*%
X127080377Y-106942833D02*
X127462369Y-107324825D01*
X127462369Y-107324825D02*
X128835372Y-107324825D01*
X128835372Y-107324825D02*
X128875885Y-107284312D01*
X127080377Y-106377148D02*
X127080377Y-106942833D01*
%TO.N,GND*%
X136000000Y-120800000D02*
X136700000Y-121500000D01*
X136000000Y-116500000D02*
X136000000Y-120800000D01*
X137780000Y-99705000D02*
X137010000Y-100475000D01*
X137900000Y-99705000D02*
X137780000Y-99705000D01*
X137510000Y-100975000D02*
X137010000Y-100475000D01*
X137900000Y-100975000D02*
X137510000Y-100975000D01*
X137540000Y-108595000D02*
X137010000Y-109125000D01*
X137900000Y-108595000D02*
X137540000Y-108595000D01*
X137750000Y-109865000D02*
X137010000Y-109125000D01*
X137900000Y-109865000D02*
X137750000Y-109865000D01*
X136574999Y-109560001D02*
X136574999Y-110125001D01*
X137010000Y-109125000D02*
X136574999Y-109560001D01*
X136574999Y-110125001D02*
X135115000Y-111585000D01*
D23*
X132830000Y-100965000D02*
X130400000Y-103395000D01*
X132830000Y-100475000D02*
X132830000Y-100965000D01*
D22*
X135115000Y-111785000D02*
X135115000Y-113405000D01*
X135115000Y-111585000D02*
X135115000Y-111785000D01*
D23*
X127559994Y-111909994D02*
X134990006Y-111909994D01*
X126975000Y-111325000D02*
X127559994Y-111909994D01*
X134990006Y-111909994D02*
X135115000Y-111785000D01*
D22*
X124500000Y-103900000D02*
X124500000Y-96200000D01*
X124195000Y-95895000D02*
X120900000Y-95895000D01*
X124500000Y-96200000D02*
X124195000Y-95895000D01*
D23*
X132830000Y-109125000D02*
X132647062Y-108942062D01*
X125418614Y-106854006D02*
X125418614Y-98913614D01*
X132647062Y-108942062D02*
X127061854Y-108942062D01*
X126617049Y-108497257D02*
X126617049Y-108052441D01*
X126617049Y-108052441D02*
X125418614Y-106854006D01*
X125418614Y-98913614D02*
X122400000Y-95895000D01*
X127061854Y-108942062D02*
X126617049Y-108497257D01*
X122400000Y-95895000D02*
X120900000Y-95895000D01*
D22*
%TO.N,D-*%
X129661061Y-106507648D02*
X128239021Y-106507648D01*
X128239021Y-106507648D02*
X128146845Y-106599824D01*
%TO.N,+3V3*%
X127297468Y-119497466D02*
X127297468Y-122225010D01*
X124700002Y-116900000D02*
X127297468Y-119497466D01*
X123100000Y-116900000D02*
X124700002Y-116900000D01*
X122225001Y-116025001D02*
X123100000Y-116900000D01*
X122225001Y-112643883D02*
X122225001Y-116025001D01*
X123038070Y-111830814D02*
X122225001Y-112643883D01*
X123038070Y-111830814D02*
X124625710Y-110243174D01*
X124625710Y-110243174D02*
X124625710Y-108536020D01*
X129632904Y-97165000D02*
X126268616Y-100529288D01*
X137900000Y-97165000D02*
X129632904Y-97165000D01*
X127467051Y-108089255D02*
X126268616Y-106890820D01*
X126268616Y-106890820D02*
X126268616Y-104065382D01*
X126268616Y-100529288D02*
X126268616Y-104065382D01*
%TO.N,VBUS*%
X133500000Y-120840000D02*
X134160000Y-121500000D01*
X133500000Y-116500000D02*
X133500000Y-120840000D01*
X132325008Y-107749990D02*
X133009999Y-107064999D01*
X134162955Y-107462955D02*
X134162955Y-110061725D01*
X130832407Y-107749990D02*
X132325008Y-107749990D01*
X133009999Y-107064999D02*
X133764999Y-107064999D01*
X133764999Y-107064999D02*
X134162955Y-107462955D01*
%TO.N,O*%
X122675012Y-106775012D02*
X124526432Y-106775012D01*
X122675012Y-100230012D02*
X122675012Y-106775012D01*
X126042038Y-108290618D02*
X126042038Y-108735434D01*
X124526432Y-106775012D02*
X126042038Y-108290618D01*
X126823677Y-109517073D02*
X129907123Y-109517073D01*
X129907123Y-109517073D02*
X131000031Y-110609981D01*
X120900000Y-99705000D02*
X122150000Y-99705000D01*
X122150000Y-99705000D02*
X122675012Y-100230012D01*
X126042038Y-108735434D02*
X126823677Y-109517073D01*
%TO.N,I*%
X122225001Y-101050001D02*
X122225001Y-107847848D01*
X122225001Y-107847848D02*
X122902163Y-108525010D01*
X122150000Y-100975000D02*
X122225001Y-101050001D01*
X120900000Y-100975000D02*
X122150000Y-100975000D01*
%TO.N,EN*%
X133915017Y-111334983D02*
X129497704Y-111334983D01*
X135701410Y-98435000D02*
X134912956Y-99223454D01*
X128129805Y-109967084D02*
X126637277Y-109967084D01*
X134912956Y-99223454D02*
X134912956Y-110337044D01*
X137900000Y-98435000D02*
X135701410Y-98435000D01*
X125592027Y-108477017D02*
X124839586Y-107724577D01*
X126637277Y-109967084D02*
X125592027Y-108921834D01*
X134912956Y-110337044D02*
X133915017Y-111334983D01*
X129497704Y-111334983D02*
X128129805Y-109967084D01*
X124839586Y-107724577D02*
X124411833Y-107724577D01*
X125592027Y-108921834D02*
X125592027Y-108477017D01*
X124411833Y-107724577D02*
X123627164Y-108509246D01*
X123627164Y-108509246D02*
X123627164Y-109332763D01*
X123627164Y-109332763D02*
X123435431Y-109524496D01*
X123435431Y-109524496D02*
X122869746Y-109524496D01*
%TO.N,Net-(J2-PadA5)*%
X134155001Y-99838999D02*
X134155001Y-105225001D01*
X134155001Y-105225001D02*
X132608423Y-106771579D01*
X131504999Y-100569999D02*
X131504999Y-99838999D01*
X133466001Y-99149999D02*
X134155001Y-99838999D01*
X130132767Y-100205264D02*
X130497502Y-100569999D01*
X132608423Y-106771579D02*
X130625680Y-106771579D01*
X130497502Y-100569999D02*
X131504999Y-100569999D01*
X131504999Y-99838999D02*
X132193999Y-99149999D01*
X132193999Y-99149999D02*
X133466001Y-99149999D01*
%TO.N,Net-(J2-PadB5)*%
X130874966Y-99480254D02*
X128729744Y-99480254D01*
X128729744Y-99480254D02*
X127121565Y-101088433D01*
X127121565Y-101088433D02*
X127121565Y-105310640D01*
%TO.N,Net-(U1-Pad28)*%
X120983361Y-108595000D02*
X120853351Y-108725010D01*
X121642690Y-108595000D02*
X120983361Y-108595000D01*
%TO.N,Net-(J1-Pad4)*%
X128500000Y-120920000D02*
X129080000Y-121500000D01*
X128500000Y-116500000D02*
X128500000Y-120920000D01*
%TO.N,Net-(J1-Pad3)*%
X131000000Y-120880000D02*
X131620000Y-121500000D01*
X131000000Y-116500000D02*
X131000000Y-120880000D01*
%TO.N,GPIO0*%
X120900000Y-112405000D02*
X121795000Y-112405000D01*
X121795000Y-112405000D02*
X122300000Y-111900000D01*
X122300000Y-111480913D02*
X122300000Y-111900000D01*
X123399978Y-110380935D02*
X122300000Y-111480913D01*
%TD*%
D24*
%TO.N,GND*%
X136310498Y-99010820D02*
X136274188Y-99130518D01*
X136269186Y-99181310D01*
X136238843Y-99197528D01*
X136161208Y-99446603D01*
X136546605Y-99832000D01*
X136423750Y-99832000D01*
X136305573Y-99950178D01*
X135981603Y-99626208D01*
X135732528Y-99703843D01*
X135606629Y-99967883D01*
X135534661Y-100251411D01*
X135519389Y-100543531D01*
X135561401Y-100833019D01*
X135659081Y-101108747D01*
X135732528Y-101246157D01*
X135981603Y-101323792D01*
X136265000Y-101040395D01*
X136265000Y-101102002D01*
X136423748Y-101102002D01*
X136265000Y-101260750D01*
X136262353Y-101402252D01*
X136161208Y-101503397D01*
X136238843Y-101752472D01*
X136417003Y-101837422D01*
X136448815Y-101876185D01*
X136521176Y-101935570D01*
X136521176Y-102695000D01*
X136528455Y-102768905D01*
X136550012Y-102839970D01*
X136571409Y-102880000D01*
X136550012Y-102920030D01*
X136528455Y-102991095D01*
X136521176Y-103065000D01*
X136521176Y-103965000D01*
X136528455Y-104038905D01*
X136550012Y-104109970D01*
X136571409Y-104150000D01*
X136550012Y-104190030D01*
X136528455Y-104261095D01*
X136521176Y-104335000D01*
X136521176Y-105235000D01*
X136528455Y-105308905D01*
X136550012Y-105379970D01*
X136571409Y-105420000D01*
X136550012Y-105460030D01*
X136528455Y-105531095D01*
X136521176Y-105605000D01*
X136521176Y-106505000D01*
X136528455Y-106578905D01*
X136550012Y-106649970D01*
X136571409Y-106690000D01*
X136550012Y-106730030D01*
X136528455Y-106801095D01*
X136521176Y-106875000D01*
X136521176Y-107634430D01*
X136448815Y-107693815D01*
X136385685Y-107770740D01*
X136376253Y-107774081D01*
X136238843Y-107847528D01*
X136161208Y-108096603D01*
X136262925Y-108198320D01*
X136265000Y-108309250D01*
X136423748Y-108467998D01*
X136265000Y-108467998D01*
X136265000Y-108559605D01*
X135981603Y-108276208D01*
X135732528Y-108353843D01*
X135606629Y-108617883D01*
X135534661Y-108901411D01*
X135519389Y-109193531D01*
X135561401Y-109483019D01*
X135659081Y-109758747D01*
X135732528Y-109896157D01*
X135981603Y-109973792D01*
X136320573Y-109634823D01*
X136423750Y-109738000D01*
X136576605Y-109738000D01*
X136161208Y-110153397D01*
X136238843Y-110402472D01*
X136272105Y-110418332D01*
X136274188Y-110439482D01*
X136310498Y-110559180D01*
X136369463Y-110669494D01*
X136448815Y-110766185D01*
X136521176Y-110825570D01*
X136521176Y-111585000D01*
X136528455Y-111658905D01*
X136550012Y-111729970D01*
X136571409Y-111770000D01*
X136550012Y-111810030D01*
X136528455Y-111881095D01*
X136521176Y-111955000D01*
X136521176Y-112855000D01*
X136528455Y-112928905D01*
X136550012Y-112999970D01*
X136585019Y-113065463D01*
X136632131Y-113122869D01*
X136689537Y-113169981D01*
X136755030Y-113204988D01*
X136826095Y-113226545D01*
X136900000Y-113233824D01*
X138473000Y-113233824D01*
X138473000Y-122579117D01*
X138460078Y-122710899D01*
X138427873Y-122817570D01*
X138375558Y-122915961D01*
X138305130Y-123002313D01*
X138219270Y-123073343D01*
X138121255Y-123126339D01*
X138014807Y-123159290D01*
X137884371Y-123173000D01*
X120920883Y-123173000D01*
X120789101Y-123160078D01*
X120682430Y-123127873D01*
X120584039Y-123075558D01*
X120497687Y-123005130D01*
X120426657Y-122919270D01*
X120373661Y-122821255D01*
X120340710Y-122714807D01*
X120327000Y-122584371D01*
X120327000Y-113233824D01*
X121723001Y-113233824D01*
X121723002Y-116000348D01*
X121720574Y-116025001D01*
X121730266Y-116123410D01*
X121758971Y-116218037D01*
X121805585Y-116305246D01*
X121852602Y-116362536D01*
X121852605Y-116362539D01*
X121868318Y-116381685D01*
X121887464Y-116397398D01*
X122666833Y-117176768D01*
X122634062Y-117174570D01*
X122594700Y-117170693D01*
X122587229Y-117171429D01*
X122579748Y-117170927D01*
X122540555Y-117176026D01*
X122501192Y-117179903D01*
X122494011Y-117182081D01*
X122486573Y-117183049D01*
X122449130Y-117195696D01*
X122411277Y-117207178D01*
X122404656Y-117210717D01*
X122397553Y-117213116D01*
X122363298Y-117232823D01*
X122328411Y-117251471D01*
X122322610Y-117256232D01*
X122316109Y-117259972D01*
X122286356Y-117285985D01*
X122255779Y-117311079D01*
X122251017Y-117316882D01*
X122245372Y-117321817D01*
X122221271Y-117353127D01*
X122196171Y-117383711D01*
X122192632Y-117390332D01*
X122188058Y-117396274D01*
X122170525Y-117431692D01*
X122151878Y-117466578D01*
X122149699Y-117473761D01*
X122146372Y-117480482D01*
X122136083Y-117518647D01*
X122124603Y-117556493D01*
X122123868Y-117563960D01*
X122121915Y-117571203D01*
X122119270Y-117610639D01*
X122117700Y-117626578D01*
X122117700Y-117634045D01*
X122115627Y-117664952D01*
X122117700Y-117680886D01*
X122117700Y-118419359D01*
X121176921Y-117321788D01*
X121126069Y-117273068D01*
X121046844Y-117222550D01*
X120959286Y-117188459D01*
X120866760Y-117172106D01*
X120772822Y-117174116D01*
X120681080Y-117194415D01*
X120595061Y-117232223D01*
X120518071Y-117286084D01*
X120453068Y-117353931D01*
X120402550Y-117433156D01*
X120368459Y-117520714D01*
X120352106Y-117613240D01*
X120354116Y-117707178D01*
X120374415Y-117798920D01*
X120412223Y-117884939D01*
X120452592Y-117942644D01*
X121966463Y-119708821D01*
X120452591Y-121475007D01*
X120412222Y-121532712D01*
X120374415Y-121618731D01*
X120354116Y-121710473D01*
X120352106Y-121804411D01*
X120368460Y-121896937D01*
X120402551Y-121984495D01*
X120453069Y-122063720D01*
X120518072Y-122131567D01*
X120595062Y-122185428D01*
X120681081Y-122223235D01*
X120772823Y-122243534D01*
X120866761Y-122245544D01*
X120959287Y-122229190D01*
X121046845Y-122195099D01*
X121126070Y-122144581D01*
X121176922Y-122095861D01*
X122117701Y-120998285D01*
X122117701Y-121744217D01*
X122115393Y-121767650D01*
X122124604Y-121861158D01*
X122145046Y-121928550D01*
X122145049Y-121928557D01*
X122151879Y-121951073D01*
X122162971Y-121971825D01*
X122360408Y-122448477D01*
X122367241Y-122471003D01*
X122411534Y-122553868D01*
X122448189Y-122598532D01*
X122471141Y-122626500D01*
X122543774Y-122686108D01*
X122626639Y-122730400D01*
X122649165Y-122737233D01*
X123125814Y-122934667D01*
X123146570Y-122945761D01*
X123169093Y-122952593D01*
X123169095Y-122952594D01*
X123236487Y-122973037D01*
X123311573Y-122980433D01*
X123329993Y-122982247D01*
X123329995Y-122982247D01*
X123423504Y-122973037D01*
X123513418Y-122945761D01*
X123534177Y-122934665D01*
X124010829Y-122737231D01*
X124033348Y-122730400D01*
X124054100Y-122719308D01*
X124054105Y-122719306D01*
X124088123Y-122701123D01*
X124116214Y-122686108D01*
X124188847Y-122626500D01*
X124211799Y-122598532D01*
X124248454Y-122553868D01*
X124292747Y-122471003D01*
X124299581Y-122448474D01*
X124514941Y-121928551D01*
X124535384Y-121861159D01*
X124544595Y-121767651D01*
X124535385Y-121674142D01*
X124508109Y-121584228D01*
X124463817Y-121501363D01*
X124404209Y-121428730D01*
X124331576Y-121369122D01*
X124248711Y-121324829D01*
X124158796Y-121297554D01*
X124065288Y-121288344D01*
X123971779Y-121297553D01*
X123881865Y-121324829D01*
X123799000Y-121369121D01*
X123726367Y-121428729D01*
X123666760Y-121501362D01*
X123633562Y-121563470D01*
X123484847Y-121922499D01*
X123329994Y-121986640D01*
X123175141Y-121922499D01*
X123071700Y-121672771D01*
X123071700Y-120186000D01*
X123819943Y-120186000D01*
X125161343Y-122063960D01*
X125207696Y-122116979D01*
X125282153Y-122174292D01*
X125366361Y-122215978D01*
X125457082Y-122240435D01*
X125550832Y-122246723D01*
X125644007Y-122234601D01*
X125733027Y-122204534D01*
X125814471Y-122157678D01*
X125885209Y-122095833D01*
X125942522Y-122021376D01*
X125984208Y-121937169D01*
X126008665Y-121846447D01*
X126014953Y-121752698D01*
X126002831Y-121659522D01*
X125972764Y-121570502D01*
X125937645Y-121509459D01*
X124471066Y-119456249D01*
X124463829Y-119442711D01*
X124445056Y-119419836D01*
X123000809Y-117397892D01*
X122998644Y-117393842D01*
X123001591Y-117394736D01*
X123075347Y-117402000D01*
X123075356Y-117402000D01*
X123099999Y-117404427D01*
X123124642Y-117402000D01*
X124492068Y-117402000D01*
X126795468Y-119705402D01*
X126795469Y-121628164D01*
X126693932Y-121729701D01*
X126608899Y-121856962D01*
X126550327Y-121998367D01*
X126520468Y-122148482D01*
X126520468Y-122301538D01*
X126550327Y-122451653D01*
X126608899Y-122593058D01*
X126693932Y-122720319D01*
X126802159Y-122828546D01*
X126929420Y-122913579D01*
X127070825Y-122972151D01*
X127220940Y-123002010D01*
X127373996Y-123002010D01*
X127524111Y-122972151D01*
X127665516Y-122913579D01*
X127792777Y-122828546D01*
X127901004Y-122720319D01*
X127986037Y-122593058D01*
X128044609Y-122451653D01*
X128074468Y-122301538D01*
X128074468Y-122203656D01*
X128126927Y-122282167D01*
X128297833Y-122453073D01*
X128498798Y-122587353D01*
X128722097Y-122679847D01*
X128959151Y-122727000D01*
X129200849Y-122727000D01*
X129437903Y-122679847D01*
X129661202Y-122587353D01*
X129862167Y-122453073D01*
X130033073Y-122282167D01*
X130167353Y-122081202D01*
X130259847Y-121857903D01*
X130307000Y-121620849D01*
X130307000Y-121379151D01*
X130259847Y-121142097D01*
X130167353Y-120918798D01*
X130033073Y-120717833D01*
X129862167Y-120546927D01*
X129661202Y-120412647D01*
X129437903Y-120320153D01*
X129200849Y-120273000D01*
X129002000Y-120273000D01*
X129002000Y-117697954D01*
X129184982Y-117600149D01*
X129371817Y-117446817D01*
X129525149Y-117259983D01*
X129639084Y-117046824D01*
X129709245Y-116815534D01*
X129727000Y-116635268D01*
X129727000Y-116364733D01*
X129727000Y-116364732D01*
X129773000Y-116364732D01*
X129773000Y-116635267D01*
X129790755Y-116815533D01*
X129860916Y-117046823D01*
X129974851Y-117259982D01*
X130128183Y-117446817D01*
X130315017Y-117600149D01*
X130498000Y-117697955D01*
X130498001Y-120855347D01*
X130495573Y-120880000D01*
X130505265Y-120978409D01*
X130506402Y-120982158D01*
X130440153Y-121142097D01*
X130393000Y-121379151D01*
X130393000Y-121620849D01*
X130440153Y-121857903D01*
X130532647Y-122081202D01*
X130666927Y-122282167D01*
X130837833Y-122453073D01*
X131038798Y-122587353D01*
X131262097Y-122679847D01*
X131499151Y-122727000D01*
X131740849Y-122727000D01*
X131977903Y-122679847D01*
X132201202Y-122587353D01*
X132402167Y-122453073D01*
X132573073Y-122282167D01*
X132707353Y-122081202D01*
X132799847Y-121857903D01*
X132847000Y-121620849D01*
X132847000Y-121379151D01*
X132799847Y-121142097D01*
X132707353Y-120918798D01*
X132573073Y-120717833D01*
X132402167Y-120546927D01*
X132201202Y-120412647D01*
X131977903Y-120320153D01*
X131740849Y-120273000D01*
X131502000Y-120273000D01*
X131502000Y-117697954D01*
X131684982Y-117600149D01*
X131871817Y-117446817D01*
X132025149Y-117259983D01*
X132139084Y-117046824D01*
X132209245Y-116815534D01*
X132227000Y-116635268D01*
X132227000Y-116364733D01*
X132209245Y-116184467D01*
X132139084Y-115953177D01*
X132025149Y-115740018D01*
X131871817Y-115553183D01*
X131684983Y-115399851D01*
X131471824Y-115285916D01*
X131240534Y-115215755D01*
X131000000Y-115192064D01*
X130759467Y-115215755D01*
X130528177Y-115285916D01*
X130315018Y-115399851D01*
X130128184Y-115553183D01*
X129974851Y-115740017D01*
X129860916Y-115953176D01*
X129790755Y-116184466D01*
X129773000Y-116364732D01*
X129727000Y-116364732D01*
X129709245Y-116184467D01*
X129639084Y-115953177D01*
X129525149Y-115740018D01*
X129371817Y-115553183D01*
X129184983Y-115399851D01*
X128971824Y-115285916D01*
X128740534Y-115215755D01*
X128500000Y-115192064D01*
X128259467Y-115215755D01*
X128028177Y-115285916D01*
X127815018Y-115399851D01*
X127628184Y-115553183D01*
X127474851Y-115740017D01*
X127360916Y-115953176D01*
X127290755Y-116184466D01*
X127273000Y-116364732D01*
X127273000Y-116635267D01*
X127290755Y-116815533D01*
X127360916Y-117046823D01*
X127474851Y-117259982D01*
X127628183Y-117446817D01*
X127815017Y-117600149D01*
X127998000Y-117697955D01*
X127998001Y-120895347D01*
X127996218Y-120913454D01*
X127992647Y-120918798D01*
X127900153Y-121142097D01*
X127853000Y-121379151D01*
X127853000Y-121620849D01*
X127868109Y-121696806D01*
X127799468Y-121628165D01*
X127799468Y-119522109D01*
X127801895Y-119497466D01*
X127799468Y-119472823D01*
X127799468Y-119472813D01*
X127792204Y-119399057D01*
X127763499Y-119304430D01*
X127732952Y-119247280D01*
X127716885Y-119217220D01*
X127669868Y-119159930D01*
X127669860Y-119159922D01*
X127654152Y-119140782D01*
X127635011Y-119125073D01*
X125072403Y-116562467D01*
X125056686Y-116543316D01*
X124980247Y-116480583D01*
X124893038Y-116433969D01*
X124798411Y-116405264D01*
X124724655Y-116398000D01*
X124724645Y-116398000D01*
X124700002Y-116395573D01*
X124675359Y-116398000D01*
X123307935Y-116398000D01*
X122727001Y-115817067D01*
X122727001Y-112851817D01*
X122856176Y-112722642D01*
X122856176Y-114405000D01*
X122863455Y-114478905D01*
X122885012Y-114549970D01*
X122920019Y-114615463D01*
X122967131Y-114672869D01*
X123024537Y-114719981D01*
X123090030Y-114754988D01*
X123161095Y-114776545D01*
X123235000Y-114783824D01*
X124135000Y-114783824D01*
X124208905Y-114776545D01*
X124279970Y-114754988D01*
X124320000Y-114733591D01*
X124360030Y-114754988D01*
X124431095Y-114776545D01*
X124505000Y-114783824D01*
X125405000Y-114783824D01*
X125478905Y-114776545D01*
X125549970Y-114754988D01*
X125590000Y-114733591D01*
X125630030Y-114754988D01*
X125701095Y-114776545D01*
X125775000Y-114783824D01*
X126675000Y-114783824D01*
X126748905Y-114776545D01*
X126819970Y-114754988D01*
X126860000Y-114733591D01*
X126900030Y-114754988D01*
X126971095Y-114776545D01*
X127045000Y-114783824D01*
X127945000Y-114783824D01*
X128018905Y-114776545D01*
X128089970Y-114754988D01*
X128130000Y-114733591D01*
X128170030Y-114754988D01*
X128241095Y-114776545D01*
X128315000Y-114783824D01*
X129215000Y-114783824D01*
X129288905Y-114776545D01*
X129359970Y-114754988D01*
X129400000Y-114733591D01*
X129440030Y-114754988D01*
X129511095Y-114776545D01*
X129585000Y-114783824D01*
X130485000Y-114783824D01*
X130558905Y-114776545D01*
X130629970Y-114754988D01*
X130670000Y-114733591D01*
X130710030Y-114754988D01*
X130781095Y-114776545D01*
X130855000Y-114783824D01*
X131755000Y-114783824D01*
X131828905Y-114776545D01*
X131899970Y-114754988D01*
X131940000Y-114733591D01*
X131980030Y-114754988D01*
X132051095Y-114776545D01*
X132125000Y-114783824D01*
X133025000Y-114783824D01*
X133098905Y-114776545D01*
X133169970Y-114754988D01*
X133210000Y-114733591D01*
X133250030Y-114754988D01*
X133321095Y-114776545D01*
X133395000Y-114783824D01*
X134154430Y-114783824D01*
X134213815Y-114856185D01*
X134310506Y-114935537D01*
X134420820Y-114994502D01*
X134540518Y-115030812D01*
X134665000Y-115043072D01*
X134802935Y-115040492D01*
X134795506Y-115044463D01*
X134698815Y-115123815D01*
X134619463Y-115220506D01*
X134560498Y-115330820D01*
X134524188Y-115450518D01*
X134511928Y-115575000D01*
X134512648Y-115724785D01*
X134371817Y-115553183D01*
X134184983Y-115399851D01*
X133971824Y-115285916D01*
X133740534Y-115215755D01*
X133500000Y-115192064D01*
X133259467Y-115215755D01*
X133028177Y-115285916D01*
X132815018Y-115399851D01*
X132628184Y-115553183D01*
X132474851Y-115740017D01*
X132360916Y-115953176D01*
X132290755Y-116184466D01*
X132273000Y-116364732D01*
X132273000Y-116635267D01*
X132290755Y-116815533D01*
X132360916Y-117046823D01*
X132474851Y-117259982D01*
X132628183Y-117446817D01*
X132815017Y-117600149D01*
X132998000Y-117697955D01*
X132998001Y-120815347D01*
X132995573Y-120840000D01*
X133005265Y-120938409D01*
X133030317Y-121020992D01*
X132980153Y-121142097D01*
X132933000Y-121379151D01*
X132933000Y-121620849D01*
X132980153Y-121857903D01*
X133072647Y-122081202D01*
X133206927Y-122282167D01*
X133377833Y-122453073D01*
X133578798Y-122587353D01*
X133802097Y-122679847D01*
X134039151Y-122727000D01*
X134280849Y-122727000D01*
X134517903Y-122679847D01*
X134741202Y-122587353D01*
X134942167Y-122453073D01*
X135113073Y-122282167D01*
X135213112Y-122132447D01*
X135211928Y-122350000D01*
X135224188Y-122474482D01*
X135260498Y-122594180D01*
X135319463Y-122704494D01*
X135398815Y-122801185D01*
X135495506Y-122880537D01*
X135605820Y-122939502D01*
X135725518Y-122975812D01*
X135850000Y-122988072D01*
X136414250Y-122985000D01*
X136573000Y-122826250D01*
X136573000Y-121627000D01*
X136827000Y-121627000D01*
X136827000Y-122826250D01*
X136985750Y-122985000D01*
X137550000Y-122988072D01*
X137674482Y-122975812D01*
X137794180Y-122939502D01*
X137904494Y-122880537D01*
X138001185Y-122801185D01*
X138080537Y-122704494D01*
X138139502Y-122594180D01*
X138175812Y-122474482D01*
X138188072Y-122350000D01*
X138185000Y-121785750D01*
X138026250Y-121627000D01*
X136827000Y-121627000D01*
X136573000Y-121627000D01*
X136553000Y-121627000D01*
X136553000Y-121373000D01*
X136573000Y-121373000D01*
X136573000Y-120173750D01*
X136827000Y-120173750D01*
X136827000Y-121373000D01*
X138026250Y-121373000D01*
X138185000Y-121214250D01*
X138188072Y-120650000D01*
X138175812Y-120525518D01*
X138139502Y-120405820D01*
X138080537Y-120295506D01*
X138001185Y-120198815D01*
X137904494Y-120119463D01*
X137794180Y-120060498D01*
X137674482Y-120024188D01*
X137550000Y-120011928D01*
X136985750Y-120015000D01*
X136827000Y-120173750D01*
X136573000Y-120173750D01*
X136414250Y-120015000D01*
X135850000Y-120011928D01*
X135725518Y-120024188D01*
X135605820Y-120060498D01*
X135495506Y-120119463D01*
X135398815Y-120198815D01*
X135319463Y-120295506D01*
X135260498Y-120405820D01*
X135224188Y-120525518D01*
X135211928Y-120650000D01*
X135213112Y-120867553D01*
X135113073Y-120717833D01*
X134942167Y-120546927D01*
X134741202Y-120412647D01*
X134517903Y-120320153D01*
X134280849Y-120273000D01*
X134039151Y-120273000D01*
X134002000Y-120280390D01*
X134002000Y-117697954D01*
X134184982Y-117600149D01*
X134371817Y-117446817D01*
X134512648Y-117275216D01*
X134511928Y-117425000D01*
X134524188Y-117549482D01*
X134560498Y-117669180D01*
X134619463Y-117779494D01*
X134698815Y-117876185D01*
X134795506Y-117955537D01*
X134905820Y-118014502D01*
X135025518Y-118050812D01*
X135150000Y-118063072D01*
X135714250Y-118060000D01*
X135873000Y-117901250D01*
X135873000Y-116627000D01*
X136127000Y-116627000D01*
X136127000Y-117901250D01*
X136285750Y-118060000D01*
X136850000Y-118063072D01*
X136974482Y-118050812D01*
X137094180Y-118014502D01*
X137204494Y-117955537D01*
X137301185Y-117876185D01*
X137380537Y-117779494D01*
X137439502Y-117669180D01*
X137475812Y-117549482D01*
X137488072Y-117425000D01*
X137485000Y-116785750D01*
X137326250Y-116627000D01*
X136127000Y-116627000D01*
X135873000Y-116627000D01*
X135853000Y-116627000D01*
X135853000Y-116373000D01*
X135873000Y-116373000D01*
X135873000Y-115098750D01*
X136127000Y-115098750D01*
X136127000Y-116373000D01*
X137326250Y-116373000D01*
X137485000Y-116214250D01*
X137488072Y-115575000D01*
X137475812Y-115450518D01*
X137439502Y-115330820D01*
X137380537Y-115220506D01*
X137301185Y-115123815D01*
X137204494Y-115044463D01*
X137094180Y-114985498D01*
X136974482Y-114949188D01*
X136850000Y-114936928D01*
X136285750Y-114940000D01*
X136127000Y-115098750D01*
X135873000Y-115098750D01*
X135778161Y-115003911D01*
X135809180Y-114994502D01*
X135919494Y-114935537D01*
X136016185Y-114856185D01*
X136095537Y-114759494D01*
X136154502Y-114649180D01*
X136190812Y-114529482D01*
X136203072Y-114405000D01*
X136200000Y-113690750D01*
X136041250Y-113532000D01*
X135242000Y-113532000D01*
X135242000Y-113552000D01*
X134988000Y-113552000D01*
X134988000Y-113532000D01*
X134968000Y-113532000D01*
X134968000Y-113278000D01*
X134988000Y-113278000D01*
X134988000Y-111928750D01*
X135242000Y-111928750D01*
X135242000Y-113278000D01*
X136041250Y-113278000D01*
X136200000Y-113119250D01*
X136203072Y-112405000D01*
X136190812Y-112280518D01*
X136154502Y-112160820D01*
X136095537Y-112050506D01*
X136016185Y-111953815D01*
X135919494Y-111874463D01*
X135809180Y-111815498D01*
X135689482Y-111779188D01*
X135565000Y-111766928D01*
X135400750Y-111770000D01*
X135242000Y-111928750D01*
X134988000Y-111928750D01*
X134829250Y-111770000D01*
X134665000Y-111766928D01*
X134540518Y-111779188D01*
X134420820Y-111815498D01*
X134310506Y-111874463D01*
X134213815Y-111953815D01*
X134154430Y-112026176D01*
X133395000Y-112026176D01*
X133321095Y-112033455D01*
X133250030Y-112055012D01*
X133210000Y-112076409D01*
X133169970Y-112055012D01*
X133098905Y-112033455D01*
X133025000Y-112026176D01*
X132125000Y-112026176D01*
X132051095Y-112033455D01*
X131980030Y-112055012D01*
X131940000Y-112076409D01*
X131899970Y-112055012D01*
X131828905Y-112033455D01*
X131755000Y-112026176D01*
X130855000Y-112026176D01*
X130781095Y-112033455D01*
X130710030Y-112055012D01*
X130670000Y-112076409D01*
X130629970Y-112055012D01*
X130558905Y-112033455D01*
X130485000Y-112026176D01*
X129585000Y-112026176D01*
X129511095Y-112033455D01*
X129440030Y-112055012D01*
X129400000Y-112076409D01*
X129359970Y-112055012D01*
X129288905Y-112033455D01*
X129215000Y-112026176D01*
X128315000Y-112026176D01*
X128241095Y-112033455D01*
X128170030Y-112055012D01*
X128130000Y-112076409D01*
X128089970Y-112055012D01*
X128018905Y-112033455D01*
X127945000Y-112026176D01*
X127045000Y-112026176D01*
X126971095Y-112033455D01*
X126900030Y-112055012D01*
X126860000Y-112076409D01*
X126819970Y-112055012D01*
X126748905Y-112033455D01*
X126675000Y-112026176D01*
X125775000Y-112026176D01*
X125701095Y-112033455D01*
X125630030Y-112055012D01*
X125590000Y-112076409D01*
X125549970Y-112055012D01*
X125478905Y-112033455D01*
X125405000Y-112026176D01*
X124505000Y-112026176D01*
X124431095Y-112033455D01*
X124360030Y-112055012D01*
X124320000Y-112076409D01*
X124279970Y-112055012D01*
X124208905Y-112033455D01*
X124135000Y-112026176D01*
X123791433Y-112026176D01*
X123815070Y-111907342D01*
X123815070Y-111763748D01*
X124963248Y-110615571D01*
X124982394Y-110599858D01*
X125003639Y-110573972D01*
X125036892Y-110533453D01*
X125045127Y-110523419D01*
X125091741Y-110436210D01*
X125120446Y-110341583D01*
X125127710Y-110267827D01*
X125127710Y-110267818D01*
X125130137Y-110243175D01*
X125127710Y-110218532D01*
X125127710Y-109132865D01*
X125132861Y-109127714D01*
X125172610Y-109202079D01*
X125235343Y-109278518D01*
X125254494Y-109294235D01*
X126264884Y-110304627D01*
X126280593Y-110323768D01*
X126299733Y-110339476D01*
X126299741Y-110339484D01*
X126357031Y-110386501D01*
X126403645Y-110411416D01*
X126444241Y-110433115D01*
X126538868Y-110461820D01*
X126612624Y-110469084D01*
X126612634Y-110469084D01*
X126637277Y-110471511D01*
X126661920Y-110469084D01*
X127921871Y-110469084D01*
X129125307Y-111672521D01*
X129141020Y-111691667D01*
X129217459Y-111754400D01*
X129304668Y-111801014D01*
X129399295Y-111829719D01*
X129473051Y-111836983D01*
X129473060Y-111836983D01*
X129497703Y-111839410D01*
X129522346Y-111836983D01*
X133890374Y-111836983D01*
X133915017Y-111839410D01*
X133939660Y-111836983D01*
X133939670Y-111836983D01*
X134013426Y-111829719D01*
X134108053Y-111801014D01*
X134195262Y-111754400D01*
X134271701Y-111691667D01*
X134287418Y-111672516D01*
X135250499Y-110709437D01*
X135269640Y-110693728D01*
X135285348Y-110674588D01*
X135285356Y-110674580D01*
X135332372Y-110617290D01*
X135332373Y-110617289D01*
X135378987Y-110530080D01*
X135407692Y-110435453D01*
X135414956Y-110361697D01*
X135414956Y-110361687D01*
X135417383Y-110337044D01*
X135414956Y-110312401D01*
X135414956Y-99431388D01*
X135909345Y-98937000D01*
X136349956Y-98937000D01*
X136310498Y-99010820D01*
%TA.AperFunction,Conductor*%
D25*
G36*
X136310498Y-99010820D02*
G01*
X136274188Y-99130518D01*
X136269186Y-99181310D01*
X136238843Y-99197528D01*
X136161208Y-99446603D01*
X136546605Y-99832000D01*
X136423750Y-99832000D01*
X136305573Y-99950178D01*
X135981603Y-99626208D01*
X135732528Y-99703843D01*
X135606629Y-99967883D01*
X135534661Y-100251411D01*
X135519389Y-100543531D01*
X135561401Y-100833019D01*
X135659081Y-101108747D01*
X135732528Y-101246157D01*
X135981603Y-101323792D01*
X136265000Y-101040395D01*
X136265000Y-101102002D01*
X136423748Y-101102002D01*
X136265000Y-101260750D01*
X136262353Y-101402252D01*
X136161208Y-101503397D01*
X136238843Y-101752472D01*
X136417003Y-101837422D01*
X136448815Y-101876185D01*
X136521176Y-101935570D01*
X136521176Y-102695000D01*
X136528455Y-102768905D01*
X136550012Y-102839970D01*
X136571409Y-102880000D01*
X136550012Y-102920030D01*
X136528455Y-102991095D01*
X136521176Y-103065000D01*
X136521176Y-103965000D01*
X136528455Y-104038905D01*
X136550012Y-104109970D01*
X136571409Y-104150000D01*
X136550012Y-104190030D01*
X136528455Y-104261095D01*
X136521176Y-104335000D01*
X136521176Y-105235000D01*
X136528455Y-105308905D01*
X136550012Y-105379970D01*
X136571409Y-105420000D01*
X136550012Y-105460030D01*
X136528455Y-105531095D01*
X136521176Y-105605000D01*
X136521176Y-106505000D01*
X136528455Y-106578905D01*
X136550012Y-106649970D01*
X136571409Y-106690000D01*
X136550012Y-106730030D01*
X136528455Y-106801095D01*
X136521176Y-106875000D01*
X136521176Y-107634430D01*
X136448815Y-107693815D01*
X136385685Y-107770740D01*
X136376253Y-107774081D01*
X136238843Y-107847528D01*
X136161208Y-108096603D01*
X136262925Y-108198320D01*
X136265000Y-108309250D01*
X136423748Y-108467998D01*
X136265000Y-108467998D01*
X136265000Y-108559605D01*
X135981603Y-108276208D01*
X135732528Y-108353843D01*
X135606629Y-108617883D01*
X135534661Y-108901411D01*
X135519389Y-109193531D01*
X135561401Y-109483019D01*
X135659081Y-109758747D01*
X135732528Y-109896157D01*
X135981603Y-109973792D01*
X136320573Y-109634823D01*
X136423750Y-109738000D01*
X136576605Y-109738000D01*
X136161208Y-110153397D01*
X136238843Y-110402472D01*
X136272105Y-110418332D01*
X136274188Y-110439482D01*
X136310498Y-110559180D01*
X136369463Y-110669494D01*
X136448815Y-110766185D01*
X136521176Y-110825570D01*
X136521176Y-111585000D01*
X136528455Y-111658905D01*
X136550012Y-111729970D01*
X136571409Y-111770000D01*
X136550012Y-111810030D01*
X136528455Y-111881095D01*
X136521176Y-111955000D01*
X136521176Y-112855000D01*
X136528455Y-112928905D01*
X136550012Y-112999970D01*
X136585019Y-113065463D01*
X136632131Y-113122869D01*
X136689537Y-113169981D01*
X136755030Y-113204988D01*
X136826095Y-113226545D01*
X136900000Y-113233824D01*
X138473000Y-113233824D01*
X138473000Y-122579117D01*
X138460078Y-122710899D01*
X138427873Y-122817570D01*
X138375558Y-122915961D01*
X138305130Y-123002313D01*
X138219270Y-123073343D01*
X138121255Y-123126339D01*
X138014807Y-123159290D01*
X137884371Y-123173000D01*
X120920883Y-123173000D01*
X120789101Y-123160078D01*
X120682430Y-123127873D01*
X120584039Y-123075558D01*
X120497687Y-123005130D01*
X120426657Y-122919270D01*
X120373661Y-122821255D01*
X120340710Y-122714807D01*
X120327000Y-122584371D01*
X120327000Y-113233824D01*
X121723001Y-113233824D01*
X121723002Y-116000348D01*
X121720574Y-116025001D01*
X121730266Y-116123410D01*
X121758971Y-116218037D01*
X121805585Y-116305246D01*
X121852602Y-116362536D01*
X121852605Y-116362539D01*
X121868318Y-116381685D01*
X121887464Y-116397398D01*
X122666833Y-117176768D01*
X122634062Y-117174570D01*
X122594700Y-117170693D01*
X122587229Y-117171429D01*
X122579748Y-117170927D01*
X122540555Y-117176026D01*
X122501192Y-117179903D01*
X122494011Y-117182081D01*
X122486573Y-117183049D01*
X122449130Y-117195696D01*
X122411277Y-117207178D01*
X122404656Y-117210717D01*
X122397553Y-117213116D01*
X122363298Y-117232823D01*
X122328411Y-117251471D01*
X122322610Y-117256232D01*
X122316109Y-117259972D01*
X122286356Y-117285985D01*
X122255779Y-117311079D01*
X122251017Y-117316882D01*
X122245372Y-117321817D01*
X122221271Y-117353127D01*
X122196171Y-117383711D01*
X122192632Y-117390332D01*
X122188058Y-117396274D01*
X122170525Y-117431692D01*
X122151878Y-117466578D01*
X122149699Y-117473761D01*
X122146372Y-117480482D01*
X122136083Y-117518647D01*
X122124603Y-117556493D01*
X122123868Y-117563960D01*
X122121915Y-117571203D01*
X122119270Y-117610639D01*
X122117700Y-117626578D01*
X122117700Y-117634045D01*
X122115627Y-117664952D01*
X122117700Y-117680886D01*
X122117700Y-118419359D01*
X121176921Y-117321788D01*
X121126069Y-117273068D01*
X121046844Y-117222550D01*
X120959286Y-117188459D01*
X120866760Y-117172106D01*
X120772822Y-117174116D01*
X120681080Y-117194415D01*
X120595061Y-117232223D01*
X120518071Y-117286084D01*
X120453068Y-117353931D01*
X120402550Y-117433156D01*
X120368459Y-117520714D01*
X120352106Y-117613240D01*
X120354116Y-117707178D01*
X120374415Y-117798920D01*
X120412223Y-117884939D01*
X120452592Y-117942644D01*
X121966463Y-119708821D01*
X120452591Y-121475007D01*
X120412222Y-121532712D01*
X120374415Y-121618731D01*
X120354116Y-121710473D01*
X120352106Y-121804411D01*
X120368460Y-121896937D01*
X120402551Y-121984495D01*
X120453069Y-122063720D01*
X120518072Y-122131567D01*
X120595062Y-122185428D01*
X120681081Y-122223235D01*
X120772823Y-122243534D01*
X120866761Y-122245544D01*
X120959287Y-122229190D01*
X121046845Y-122195099D01*
X121126070Y-122144581D01*
X121176922Y-122095861D01*
X122117701Y-120998285D01*
X122117701Y-121744217D01*
X122115393Y-121767650D01*
X122124604Y-121861158D01*
X122145046Y-121928550D01*
X122145049Y-121928557D01*
X122151879Y-121951073D01*
X122162971Y-121971825D01*
X122360408Y-122448477D01*
X122367241Y-122471003D01*
X122411534Y-122553868D01*
X122448189Y-122598532D01*
X122471141Y-122626500D01*
X122543774Y-122686108D01*
X122626639Y-122730400D01*
X122649165Y-122737233D01*
X123125814Y-122934667D01*
X123146570Y-122945761D01*
X123169093Y-122952593D01*
X123169095Y-122952594D01*
X123236487Y-122973037D01*
X123311573Y-122980433D01*
X123329993Y-122982247D01*
X123329995Y-122982247D01*
X123423504Y-122973037D01*
X123513418Y-122945761D01*
X123534177Y-122934665D01*
X124010829Y-122737231D01*
X124033348Y-122730400D01*
X124054100Y-122719308D01*
X124054105Y-122719306D01*
X124088123Y-122701123D01*
X124116214Y-122686108D01*
X124188847Y-122626500D01*
X124211799Y-122598532D01*
X124248454Y-122553868D01*
X124292747Y-122471003D01*
X124299581Y-122448474D01*
X124514941Y-121928551D01*
X124535384Y-121861159D01*
X124544595Y-121767651D01*
X124535385Y-121674142D01*
X124508109Y-121584228D01*
X124463817Y-121501363D01*
X124404209Y-121428730D01*
X124331576Y-121369122D01*
X124248711Y-121324829D01*
X124158796Y-121297554D01*
X124065288Y-121288344D01*
X123971779Y-121297553D01*
X123881865Y-121324829D01*
X123799000Y-121369121D01*
X123726367Y-121428729D01*
X123666760Y-121501362D01*
X123633562Y-121563470D01*
X123484847Y-121922499D01*
X123329994Y-121986640D01*
X123175141Y-121922499D01*
X123071700Y-121672771D01*
X123071700Y-120186000D01*
X123819943Y-120186000D01*
X125161343Y-122063960D01*
X125207696Y-122116979D01*
X125282153Y-122174292D01*
X125366361Y-122215978D01*
X125457082Y-122240435D01*
X125550832Y-122246723D01*
X125644007Y-122234601D01*
X125733027Y-122204534D01*
X125814471Y-122157678D01*
X125885209Y-122095833D01*
X125942522Y-122021376D01*
X125984208Y-121937169D01*
X126008665Y-121846447D01*
X126014953Y-121752698D01*
X126002831Y-121659522D01*
X125972764Y-121570502D01*
X125937645Y-121509459D01*
X124471066Y-119456249D01*
X124463829Y-119442711D01*
X124445056Y-119419836D01*
X123000809Y-117397892D01*
X122998644Y-117393842D01*
X123001591Y-117394736D01*
X123075347Y-117402000D01*
X123075356Y-117402000D01*
X123099999Y-117404427D01*
X123124642Y-117402000D01*
X124492068Y-117402000D01*
X126795468Y-119705402D01*
X126795469Y-121628164D01*
X126693932Y-121729701D01*
X126608899Y-121856962D01*
X126550327Y-121998367D01*
X126520468Y-122148482D01*
X126520468Y-122301538D01*
X126550327Y-122451653D01*
X126608899Y-122593058D01*
X126693932Y-122720319D01*
X126802159Y-122828546D01*
X126929420Y-122913579D01*
X127070825Y-122972151D01*
X127220940Y-123002010D01*
X127373996Y-123002010D01*
X127524111Y-122972151D01*
X127665516Y-122913579D01*
X127792777Y-122828546D01*
X127901004Y-122720319D01*
X127986037Y-122593058D01*
X128044609Y-122451653D01*
X128074468Y-122301538D01*
X128074468Y-122203656D01*
X128126927Y-122282167D01*
X128297833Y-122453073D01*
X128498798Y-122587353D01*
X128722097Y-122679847D01*
X128959151Y-122727000D01*
X129200849Y-122727000D01*
X129437903Y-122679847D01*
X129661202Y-122587353D01*
X129862167Y-122453073D01*
X130033073Y-122282167D01*
X130167353Y-122081202D01*
X130259847Y-121857903D01*
X130307000Y-121620849D01*
X130307000Y-121379151D01*
X130259847Y-121142097D01*
X130167353Y-120918798D01*
X130033073Y-120717833D01*
X129862167Y-120546927D01*
X129661202Y-120412647D01*
X129437903Y-120320153D01*
X129200849Y-120273000D01*
X129002000Y-120273000D01*
X129002000Y-117697954D01*
X129184982Y-117600149D01*
X129371817Y-117446817D01*
X129525149Y-117259983D01*
X129639084Y-117046824D01*
X129709245Y-116815534D01*
X129727000Y-116635268D01*
X129727000Y-116364733D01*
X129727000Y-116364732D01*
X129773000Y-116364732D01*
X129773000Y-116635267D01*
X129790755Y-116815533D01*
X129860916Y-117046823D01*
X129974851Y-117259982D01*
X130128183Y-117446817D01*
X130315017Y-117600149D01*
X130498000Y-117697955D01*
X130498001Y-120855347D01*
X130495573Y-120880000D01*
X130505265Y-120978409D01*
X130506402Y-120982158D01*
X130440153Y-121142097D01*
X130393000Y-121379151D01*
X130393000Y-121620849D01*
X130440153Y-121857903D01*
X130532647Y-122081202D01*
X130666927Y-122282167D01*
X130837833Y-122453073D01*
X131038798Y-122587353D01*
X131262097Y-122679847D01*
X131499151Y-122727000D01*
X131740849Y-122727000D01*
X131977903Y-122679847D01*
X132201202Y-122587353D01*
X132402167Y-122453073D01*
X132573073Y-122282167D01*
X132707353Y-122081202D01*
X132799847Y-121857903D01*
X132847000Y-121620849D01*
X132847000Y-121379151D01*
X132799847Y-121142097D01*
X132707353Y-120918798D01*
X132573073Y-120717833D01*
X132402167Y-120546927D01*
X132201202Y-120412647D01*
X131977903Y-120320153D01*
X131740849Y-120273000D01*
X131502000Y-120273000D01*
X131502000Y-117697954D01*
X131684982Y-117600149D01*
X131871817Y-117446817D01*
X132025149Y-117259983D01*
X132139084Y-117046824D01*
X132209245Y-116815534D01*
X132227000Y-116635268D01*
X132227000Y-116364733D01*
X132209245Y-116184467D01*
X132139084Y-115953177D01*
X132025149Y-115740018D01*
X131871817Y-115553183D01*
X131684983Y-115399851D01*
X131471824Y-115285916D01*
X131240534Y-115215755D01*
X131000000Y-115192064D01*
X130759467Y-115215755D01*
X130528177Y-115285916D01*
X130315018Y-115399851D01*
X130128184Y-115553183D01*
X129974851Y-115740017D01*
X129860916Y-115953176D01*
X129790755Y-116184466D01*
X129773000Y-116364732D01*
X129727000Y-116364732D01*
X129709245Y-116184467D01*
X129639084Y-115953177D01*
X129525149Y-115740018D01*
X129371817Y-115553183D01*
X129184983Y-115399851D01*
X128971824Y-115285916D01*
X128740534Y-115215755D01*
X128500000Y-115192064D01*
X128259467Y-115215755D01*
X128028177Y-115285916D01*
X127815018Y-115399851D01*
X127628184Y-115553183D01*
X127474851Y-115740017D01*
X127360916Y-115953176D01*
X127290755Y-116184466D01*
X127273000Y-116364732D01*
X127273000Y-116635267D01*
X127290755Y-116815533D01*
X127360916Y-117046823D01*
X127474851Y-117259982D01*
X127628183Y-117446817D01*
X127815017Y-117600149D01*
X127998000Y-117697955D01*
X127998001Y-120895347D01*
X127996218Y-120913454D01*
X127992647Y-120918798D01*
X127900153Y-121142097D01*
X127853000Y-121379151D01*
X127853000Y-121620849D01*
X127868109Y-121696806D01*
X127799468Y-121628165D01*
X127799468Y-119522109D01*
X127801895Y-119497466D01*
X127799468Y-119472823D01*
X127799468Y-119472813D01*
X127792204Y-119399057D01*
X127763499Y-119304430D01*
X127732952Y-119247280D01*
X127716885Y-119217220D01*
X127669868Y-119159930D01*
X127669860Y-119159922D01*
X127654152Y-119140782D01*
X127635011Y-119125073D01*
X125072403Y-116562467D01*
X125056686Y-116543316D01*
X124980247Y-116480583D01*
X124893038Y-116433969D01*
X124798411Y-116405264D01*
X124724655Y-116398000D01*
X124724645Y-116398000D01*
X124700002Y-116395573D01*
X124675359Y-116398000D01*
X123307935Y-116398000D01*
X122727001Y-115817067D01*
X122727001Y-112851817D01*
X122856176Y-112722642D01*
X122856176Y-114405000D01*
X122863455Y-114478905D01*
X122885012Y-114549970D01*
X122920019Y-114615463D01*
X122967131Y-114672869D01*
X123024537Y-114719981D01*
X123090030Y-114754988D01*
X123161095Y-114776545D01*
X123235000Y-114783824D01*
X124135000Y-114783824D01*
X124208905Y-114776545D01*
X124279970Y-114754988D01*
X124320000Y-114733591D01*
X124360030Y-114754988D01*
X124431095Y-114776545D01*
X124505000Y-114783824D01*
X125405000Y-114783824D01*
X125478905Y-114776545D01*
X125549970Y-114754988D01*
X125590000Y-114733591D01*
X125630030Y-114754988D01*
X125701095Y-114776545D01*
X125775000Y-114783824D01*
X126675000Y-114783824D01*
X126748905Y-114776545D01*
X126819970Y-114754988D01*
X126860000Y-114733591D01*
X126900030Y-114754988D01*
X126971095Y-114776545D01*
X127045000Y-114783824D01*
X127945000Y-114783824D01*
X128018905Y-114776545D01*
X128089970Y-114754988D01*
X128130000Y-114733591D01*
X128170030Y-114754988D01*
X128241095Y-114776545D01*
X128315000Y-114783824D01*
X129215000Y-114783824D01*
X129288905Y-114776545D01*
X129359970Y-114754988D01*
X129400000Y-114733591D01*
X129440030Y-114754988D01*
X129511095Y-114776545D01*
X129585000Y-114783824D01*
X130485000Y-114783824D01*
X130558905Y-114776545D01*
X130629970Y-114754988D01*
X130670000Y-114733591D01*
X130710030Y-114754988D01*
X130781095Y-114776545D01*
X130855000Y-114783824D01*
X131755000Y-114783824D01*
X131828905Y-114776545D01*
X131899970Y-114754988D01*
X131940000Y-114733591D01*
X131980030Y-114754988D01*
X132051095Y-114776545D01*
X132125000Y-114783824D01*
X133025000Y-114783824D01*
X133098905Y-114776545D01*
X133169970Y-114754988D01*
X133210000Y-114733591D01*
X133250030Y-114754988D01*
X133321095Y-114776545D01*
X133395000Y-114783824D01*
X134154430Y-114783824D01*
X134213815Y-114856185D01*
X134310506Y-114935537D01*
X134420820Y-114994502D01*
X134540518Y-115030812D01*
X134665000Y-115043072D01*
X134802935Y-115040492D01*
X134795506Y-115044463D01*
X134698815Y-115123815D01*
X134619463Y-115220506D01*
X134560498Y-115330820D01*
X134524188Y-115450518D01*
X134511928Y-115575000D01*
X134512648Y-115724785D01*
X134371817Y-115553183D01*
X134184983Y-115399851D01*
X133971824Y-115285916D01*
X133740534Y-115215755D01*
X133500000Y-115192064D01*
X133259467Y-115215755D01*
X133028177Y-115285916D01*
X132815018Y-115399851D01*
X132628184Y-115553183D01*
X132474851Y-115740017D01*
X132360916Y-115953176D01*
X132290755Y-116184466D01*
X132273000Y-116364732D01*
X132273000Y-116635267D01*
X132290755Y-116815533D01*
X132360916Y-117046823D01*
X132474851Y-117259982D01*
X132628183Y-117446817D01*
X132815017Y-117600149D01*
X132998000Y-117697955D01*
X132998001Y-120815347D01*
X132995573Y-120840000D01*
X133005265Y-120938409D01*
X133030317Y-121020992D01*
X132980153Y-121142097D01*
X132933000Y-121379151D01*
X132933000Y-121620849D01*
X132980153Y-121857903D01*
X133072647Y-122081202D01*
X133206927Y-122282167D01*
X133377833Y-122453073D01*
X133578798Y-122587353D01*
X133802097Y-122679847D01*
X134039151Y-122727000D01*
X134280849Y-122727000D01*
X134517903Y-122679847D01*
X134741202Y-122587353D01*
X134942167Y-122453073D01*
X135113073Y-122282167D01*
X135213112Y-122132447D01*
X135211928Y-122350000D01*
X135224188Y-122474482D01*
X135260498Y-122594180D01*
X135319463Y-122704494D01*
X135398815Y-122801185D01*
X135495506Y-122880537D01*
X135605820Y-122939502D01*
X135725518Y-122975812D01*
X135850000Y-122988072D01*
X136414250Y-122985000D01*
X136573000Y-122826250D01*
X136573000Y-121627000D01*
X136827000Y-121627000D01*
X136827000Y-122826250D01*
X136985750Y-122985000D01*
X137550000Y-122988072D01*
X137674482Y-122975812D01*
X137794180Y-122939502D01*
X137904494Y-122880537D01*
X138001185Y-122801185D01*
X138080537Y-122704494D01*
X138139502Y-122594180D01*
X138175812Y-122474482D01*
X138188072Y-122350000D01*
X138185000Y-121785750D01*
X138026250Y-121627000D01*
X136827000Y-121627000D01*
X136573000Y-121627000D01*
X136553000Y-121627000D01*
X136553000Y-121373000D01*
X136573000Y-121373000D01*
X136573000Y-120173750D01*
X136827000Y-120173750D01*
X136827000Y-121373000D01*
X138026250Y-121373000D01*
X138185000Y-121214250D01*
X138188072Y-120650000D01*
X138175812Y-120525518D01*
X138139502Y-120405820D01*
X138080537Y-120295506D01*
X138001185Y-120198815D01*
X137904494Y-120119463D01*
X137794180Y-120060498D01*
X137674482Y-120024188D01*
X137550000Y-120011928D01*
X136985750Y-120015000D01*
X136827000Y-120173750D01*
X136573000Y-120173750D01*
X136414250Y-120015000D01*
X135850000Y-120011928D01*
X135725518Y-120024188D01*
X135605820Y-120060498D01*
X135495506Y-120119463D01*
X135398815Y-120198815D01*
X135319463Y-120295506D01*
X135260498Y-120405820D01*
X135224188Y-120525518D01*
X135211928Y-120650000D01*
X135213112Y-120867553D01*
X135113073Y-120717833D01*
X134942167Y-120546927D01*
X134741202Y-120412647D01*
X134517903Y-120320153D01*
X134280849Y-120273000D01*
X134039151Y-120273000D01*
X134002000Y-120280390D01*
X134002000Y-117697954D01*
X134184982Y-117600149D01*
X134371817Y-117446817D01*
X134512648Y-117275216D01*
X134511928Y-117425000D01*
X134524188Y-117549482D01*
X134560498Y-117669180D01*
X134619463Y-117779494D01*
X134698815Y-117876185D01*
X134795506Y-117955537D01*
X134905820Y-118014502D01*
X135025518Y-118050812D01*
X135150000Y-118063072D01*
X135714250Y-118060000D01*
X135873000Y-117901250D01*
X135873000Y-116627000D01*
X136127000Y-116627000D01*
X136127000Y-117901250D01*
X136285750Y-118060000D01*
X136850000Y-118063072D01*
X136974482Y-118050812D01*
X137094180Y-118014502D01*
X137204494Y-117955537D01*
X137301185Y-117876185D01*
X137380537Y-117779494D01*
X137439502Y-117669180D01*
X137475812Y-117549482D01*
X137488072Y-117425000D01*
X137485000Y-116785750D01*
X137326250Y-116627000D01*
X136127000Y-116627000D01*
X135873000Y-116627000D01*
X135853000Y-116627000D01*
X135853000Y-116373000D01*
X135873000Y-116373000D01*
X135873000Y-115098750D01*
X136127000Y-115098750D01*
X136127000Y-116373000D01*
X137326250Y-116373000D01*
X137485000Y-116214250D01*
X137488072Y-115575000D01*
X137475812Y-115450518D01*
X137439502Y-115330820D01*
X137380537Y-115220506D01*
X137301185Y-115123815D01*
X137204494Y-115044463D01*
X137094180Y-114985498D01*
X136974482Y-114949188D01*
X136850000Y-114936928D01*
X136285750Y-114940000D01*
X136127000Y-115098750D01*
X135873000Y-115098750D01*
X135778161Y-115003911D01*
X135809180Y-114994502D01*
X135919494Y-114935537D01*
X136016185Y-114856185D01*
X136095537Y-114759494D01*
X136154502Y-114649180D01*
X136190812Y-114529482D01*
X136203072Y-114405000D01*
X136200000Y-113690750D01*
X136041250Y-113532000D01*
X135242000Y-113532000D01*
X135242000Y-113552000D01*
X134988000Y-113552000D01*
X134988000Y-113532000D01*
X134968000Y-113532000D01*
X134968000Y-113278000D01*
X134988000Y-113278000D01*
X134988000Y-111928750D01*
X135242000Y-111928750D01*
X135242000Y-113278000D01*
X136041250Y-113278000D01*
X136200000Y-113119250D01*
X136203072Y-112405000D01*
X136190812Y-112280518D01*
X136154502Y-112160820D01*
X136095537Y-112050506D01*
X136016185Y-111953815D01*
X135919494Y-111874463D01*
X135809180Y-111815498D01*
X135689482Y-111779188D01*
X135565000Y-111766928D01*
X135400750Y-111770000D01*
X135242000Y-111928750D01*
X134988000Y-111928750D01*
X134829250Y-111770000D01*
X134665000Y-111766928D01*
X134540518Y-111779188D01*
X134420820Y-111815498D01*
X134310506Y-111874463D01*
X134213815Y-111953815D01*
X134154430Y-112026176D01*
X133395000Y-112026176D01*
X133321095Y-112033455D01*
X133250030Y-112055012D01*
X133210000Y-112076409D01*
X133169970Y-112055012D01*
X133098905Y-112033455D01*
X133025000Y-112026176D01*
X132125000Y-112026176D01*
X132051095Y-112033455D01*
X131980030Y-112055012D01*
X131940000Y-112076409D01*
X131899970Y-112055012D01*
X131828905Y-112033455D01*
X131755000Y-112026176D01*
X130855000Y-112026176D01*
X130781095Y-112033455D01*
X130710030Y-112055012D01*
X130670000Y-112076409D01*
X130629970Y-112055012D01*
X130558905Y-112033455D01*
X130485000Y-112026176D01*
X129585000Y-112026176D01*
X129511095Y-112033455D01*
X129440030Y-112055012D01*
X129400000Y-112076409D01*
X129359970Y-112055012D01*
X129288905Y-112033455D01*
X129215000Y-112026176D01*
X128315000Y-112026176D01*
X128241095Y-112033455D01*
X128170030Y-112055012D01*
X128130000Y-112076409D01*
X128089970Y-112055012D01*
X128018905Y-112033455D01*
X127945000Y-112026176D01*
X127045000Y-112026176D01*
X126971095Y-112033455D01*
X126900030Y-112055012D01*
X126860000Y-112076409D01*
X126819970Y-112055012D01*
X126748905Y-112033455D01*
X126675000Y-112026176D01*
X125775000Y-112026176D01*
X125701095Y-112033455D01*
X125630030Y-112055012D01*
X125590000Y-112076409D01*
X125549970Y-112055012D01*
X125478905Y-112033455D01*
X125405000Y-112026176D01*
X124505000Y-112026176D01*
X124431095Y-112033455D01*
X124360030Y-112055012D01*
X124320000Y-112076409D01*
X124279970Y-112055012D01*
X124208905Y-112033455D01*
X124135000Y-112026176D01*
X123791433Y-112026176D01*
X123815070Y-111907342D01*
X123815070Y-111763748D01*
X124963248Y-110615571D01*
X124982394Y-110599858D01*
X125003639Y-110573972D01*
X125036892Y-110533453D01*
X125045127Y-110523419D01*
X125091741Y-110436210D01*
X125120446Y-110341583D01*
X125127710Y-110267827D01*
X125127710Y-110267818D01*
X125130137Y-110243175D01*
X125127710Y-110218532D01*
X125127710Y-109132865D01*
X125132861Y-109127714D01*
X125172610Y-109202079D01*
X125235343Y-109278518D01*
X125254494Y-109294235D01*
X126264884Y-110304627D01*
X126280593Y-110323768D01*
X126299733Y-110339476D01*
X126299741Y-110339484D01*
X126357031Y-110386501D01*
X126403645Y-110411416D01*
X126444241Y-110433115D01*
X126538868Y-110461820D01*
X126612624Y-110469084D01*
X126612634Y-110469084D01*
X126637277Y-110471511D01*
X126661920Y-110469084D01*
X127921871Y-110469084D01*
X129125307Y-111672521D01*
X129141020Y-111691667D01*
X129217459Y-111754400D01*
X129304668Y-111801014D01*
X129399295Y-111829719D01*
X129473051Y-111836983D01*
X129473060Y-111836983D01*
X129497703Y-111839410D01*
X129522346Y-111836983D01*
X133890374Y-111836983D01*
X133915017Y-111839410D01*
X133939660Y-111836983D01*
X133939670Y-111836983D01*
X134013426Y-111829719D01*
X134108053Y-111801014D01*
X134195262Y-111754400D01*
X134271701Y-111691667D01*
X134287418Y-111672516D01*
X135250499Y-110709437D01*
X135269640Y-110693728D01*
X135285348Y-110674588D01*
X135285356Y-110674580D01*
X135332372Y-110617290D01*
X135332373Y-110617289D01*
X135378987Y-110530080D01*
X135407692Y-110435453D01*
X135414956Y-110361697D01*
X135414956Y-110361687D01*
X135417383Y-110337044D01*
X135414956Y-110312401D01*
X135414956Y-99431388D01*
X135909345Y-98937000D01*
X136349956Y-98937000D01*
X136310498Y-99010820D01*
G37*
%TD.AperFunction*%
D24*
X136369463Y-95090506D02*
X136310498Y-95200820D01*
X136274188Y-95320518D01*
X136261928Y-95445000D01*
X136265000Y-95609250D01*
X136423750Y-95768000D01*
X137773000Y-95768000D01*
X137773000Y-95748000D01*
X138027000Y-95748000D01*
X138027000Y-95768000D01*
X138047000Y-95768000D01*
X138047000Y-96022000D01*
X138027000Y-96022000D01*
X138027000Y-96042000D01*
X137773000Y-96042000D01*
X137773000Y-96022000D01*
X136423750Y-96022000D01*
X136265000Y-96180750D01*
X136261928Y-96345000D01*
X136274188Y-96469482D01*
X136310498Y-96589180D01*
X136349956Y-96663000D01*
X129657547Y-96663000D01*
X129632904Y-96660573D01*
X129608261Y-96663000D01*
X129608251Y-96663000D01*
X129534495Y-96670264D01*
X129439868Y-96698969D01*
X129409876Y-96715000D01*
X129352658Y-96745583D01*
X129295368Y-96792600D01*
X129295360Y-96792608D01*
X129276220Y-96808316D01*
X129260511Y-96827457D01*
X125931083Y-100156887D01*
X125911932Y-100172604D01*
X125849199Y-100249043D01*
X125802585Y-100336253D01*
X125773880Y-100430880D01*
X125766616Y-100504636D01*
X125766616Y-100504645D01*
X125764189Y-100529288D01*
X125766616Y-100553931D01*
X125766617Y-103468536D01*
X125665080Y-103570073D01*
X125580047Y-103697334D01*
X125521475Y-103838739D01*
X125491616Y-103988854D01*
X125491616Y-104141910D01*
X125521475Y-104292025D01*
X125580047Y-104433430D01*
X125665080Y-104560691D01*
X125766617Y-104662228D01*
X125766616Y-106866177D01*
X125764189Y-106890820D01*
X125766616Y-106915463D01*
X125766616Y-106915472D01*
X125773880Y-106989228D01*
X125802585Y-107083855D01*
X125849199Y-107171065D01*
X125911932Y-107247504D01*
X125931083Y-107263221D01*
X126690051Y-108022190D01*
X126690051Y-108165783D01*
X126719910Y-108315898D01*
X126778482Y-108457303D01*
X126863515Y-108584564D01*
X126971742Y-108692791D01*
X127099003Y-108777824D01*
X127240408Y-108836396D01*
X127390523Y-108866255D01*
X127543579Y-108866255D01*
X127693694Y-108836396D01*
X127835099Y-108777824D01*
X127962360Y-108692791D01*
X128070587Y-108584564D01*
X128155620Y-108457303D01*
X128214192Y-108315898D01*
X128244051Y-108165783D01*
X128244051Y-108012727D01*
X128214192Y-107862612D01*
X128199369Y-107826825D01*
X128319553Y-107826825D01*
X128380576Y-107887848D01*
X128507837Y-107972881D01*
X128649242Y-108031453D01*
X128799357Y-108061312D01*
X128952413Y-108061312D01*
X129102528Y-108031453D01*
X129243933Y-107972881D01*
X129371194Y-107887848D01*
X129479421Y-107779621D01*
X129564454Y-107652360D01*
X129623026Y-107510955D01*
X129652885Y-107360840D01*
X129652885Y-107284648D01*
X129737589Y-107284648D01*
X129887704Y-107254789D01*
X129986669Y-107213796D01*
X130022144Y-107266888D01*
X130130371Y-107375115D01*
X130143134Y-107383643D01*
X130085266Y-107523347D01*
X130055407Y-107673462D01*
X130055407Y-107826518D01*
X130085266Y-107976633D01*
X130143838Y-108118038D01*
X130228871Y-108245299D01*
X130337098Y-108353526D01*
X130464359Y-108438559D01*
X130605764Y-108497131D01*
X130755879Y-108526990D01*
X130908935Y-108526990D01*
X131059050Y-108497131D01*
X131200455Y-108438559D01*
X131327716Y-108353526D01*
X131429252Y-108251990D01*
X131465985Y-108251990D01*
X131430186Y-108264956D01*
X131289296Y-108554571D01*
X131207616Y-108866108D01*
X131188282Y-109187595D01*
X131232039Y-109506675D01*
X131337205Y-109811088D01*
X131411783Y-109950614D01*
X131368079Y-109921412D01*
X131226674Y-109862840D01*
X131076559Y-109832981D01*
X130932966Y-109832981D01*
X130279524Y-109179540D01*
X130263807Y-109160389D01*
X130187368Y-109097656D01*
X130100159Y-109051042D01*
X130005532Y-109022337D01*
X129931776Y-109015073D01*
X129931766Y-109015073D01*
X129907123Y-109012646D01*
X129882480Y-109015073D01*
X127031612Y-109015073D01*
X126544038Y-108527500D01*
X126544038Y-108315263D01*
X126546465Y-108290618D01*
X126544038Y-108265972D01*
X126544038Y-108265965D01*
X126536774Y-108192209D01*
X126536774Y-108192208D01*
X126508069Y-108097581D01*
X126461455Y-108010372D01*
X126414438Y-107953083D01*
X126414435Y-107953080D01*
X126398722Y-107933934D01*
X126379576Y-107918221D01*
X124898833Y-106437479D01*
X124883116Y-106418328D01*
X124806677Y-106355595D01*
X124719468Y-106308981D01*
X124624841Y-106280276D01*
X124551085Y-106273012D01*
X124551075Y-106273012D01*
X124526432Y-106270585D01*
X124501789Y-106273012D01*
X123177012Y-106273012D01*
X123177012Y-100254654D01*
X123179439Y-100230011D01*
X123177012Y-100205368D01*
X123177012Y-100205359D01*
X123169748Y-100131603D01*
X123141043Y-100036976D01*
X123094429Y-99949767D01*
X123078751Y-99930664D01*
X123047411Y-99892476D01*
X123047409Y-99892474D01*
X123031696Y-99873328D01*
X123012550Y-99857615D01*
X122522401Y-99367467D01*
X122506684Y-99348316D01*
X122430245Y-99285583D01*
X122343036Y-99238969D01*
X122275219Y-99218397D01*
X122271545Y-99181095D01*
X122249988Y-99110030D01*
X122228591Y-99070000D01*
X122249988Y-99029970D01*
X122271545Y-98958905D01*
X122278824Y-98885000D01*
X122278824Y-97985000D01*
X122271545Y-97911095D01*
X122249988Y-97840030D01*
X122228591Y-97800000D01*
X122249988Y-97759970D01*
X122271545Y-97688905D01*
X122278824Y-97615000D01*
X122278824Y-96855570D01*
X122351185Y-96796185D01*
X122430537Y-96699494D01*
X122489502Y-96589180D01*
X122525812Y-96469482D01*
X122538072Y-96345000D01*
X122535000Y-96180750D01*
X122376250Y-96022000D01*
X121027000Y-96022000D01*
X121027000Y-96042000D01*
X120773000Y-96042000D01*
X120773000Y-96022000D01*
X120753000Y-96022000D01*
X120753000Y-95768000D01*
X120773000Y-95768000D01*
X120773000Y-95748000D01*
X121027000Y-95748000D01*
X121027000Y-95768000D01*
X122376250Y-95768000D01*
X122535000Y-95609250D01*
X122538072Y-95445000D01*
X122525812Y-95320518D01*
X122489502Y-95200820D01*
X122430537Y-95090506D01*
X122378419Y-95027000D01*
X136421581Y-95027000D01*
X136369463Y-95090506D01*
%TA.AperFunction,Conductor*%
D25*
G36*
X136369463Y-95090506D02*
G01*
X136310498Y-95200820D01*
X136274188Y-95320518D01*
X136261928Y-95445000D01*
X136265000Y-95609250D01*
X136423750Y-95768000D01*
X137773000Y-95768000D01*
X137773000Y-95748000D01*
X138027000Y-95748000D01*
X138027000Y-95768000D01*
X138047000Y-95768000D01*
X138047000Y-96022000D01*
X138027000Y-96022000D01*
X138027000Y-96042000D01*
X137773000Y-96042000D01*
X137773000Y-96022000D01*
X136423750Y-96022000D01*
X136265000Y-96180750D01*
X136261928Y-96345000D01*
X136274188Y-96469482D01*
X136310498Y-96589180D01*
X136349956Y-96663000D01*
X129657547Y-96663000D01*
X129632904Y-96660573D01*
X129608261Y-96663000D01*
X129608251Y-96663000D01*
X129534495Y-96670264D01*
X129439868Y-96698969D01*
X129409876Y-96715000D01*
X129352658Y-96745583D01*
X129295368Y-96792600D01*
X129295360Y-96792608D01*
X129276220Y-96808316D01*
X129260511Y-96827457D01*
X125931083Y-100156887D01*
X125911932Y-100172604D01*
X125849199Y-100249043D01*
X125802585Y-100336253D01*
X125773880Y-100430880D01*
X125766616Y-100504636D01*
X125766616Y-100504645D01*
X125764189Y-100529288D01*
X125766616Y-100553931D01*
X125766617Y-103468536D01*
X125665080Y-103570073D01*
X125580047Y-103697334D01*
X125521475Y-103838739D01*
X125491616Y-103988854D01*
X125491616Y-104141910D01*
X125521475Y-104292025D01*
X125580047Y-104433430D01*
X125665080Y-104560691D01*
X125766617Y-104662228D01*
X125766616Y-106866177D01*
X125764189Y-106890820D01*
X125766616Y-106915463D01*
X125766616Y-106915472D01*
X125773880Y-106989228D01*
X125802585Y-107083855D01*
X125849199Y-107171065D01*
X125911932Y-107247504D01*
X125931083Y-107263221D01*
X126690051Y-108022190D01*
X126690051Y-108165783D01*
X126719910Y-108315898D01*
X126778482Y-108457303D01*
X126863515Y-108584564D01*
X126971742Y-108692791D01*
X127099003Y-108777824D01*
X127240408Y-108836396D01*
X127390523Y-108866255D01*
X127543579Y-108866255D01*
X127693694Y-108836396D01*
X127835099Y-108777824D01*
X127962360Y-108692791D01*
X128070587Y-108584564D01*
X128155620Y-108457303D01*
X128214192Y-108315898D01*
X128244051Y-108165783D01*
X128244051Y-108012727D01*
X128214192Y-107862612D01*
X128199369Y-107826825D01*
X128319553Y-107826825D01*
X128380576Y-107887848D01*
X128507837Y-107972881D01*
X128649242Y-108031453D01*
X128799357Y-108061312D01*
X128952413Y-108061312D01*
X129102528Y-108031453D01*
X129243933Y-107972881D01*
X129371194Y-107887848D01*
X129479421Y-107779621D01*
X129564454Y-107652360D01*
X129623026Y-107510955D01*
X129652885Y-107360840D01*
X129652885Y-107284648D01*
X129737589Y-107284648D01*
X129887704Y-107254789D01*
X129986669Y-107213796D01*
X130022144Y-107266888D01*
X130130371Y-107375115D01*
X130143134Y-107383643D01*
X130085266Y-107523347D01*
X130055407Y-107673462D01*
X130055407Y-107826518D01*
X130085266Y-107976633D01*
X130143838Y-108118038D01*
X130228871Y-108245299D01*
X130337098Y-108353526D01*
X130464359Y-108438559D01*
X130605764Y-108497131D01*
X130755879Y-108526990D01*
X130908935Y-108526990D01*
X131059050Y-108497131D01*
X131200455Y-108438559D01*
X131327716Y-108353526D01*
X131429252Y-108251990D01*
X131465985Y-108251990D01*
X131430186Y-108264956D01*
X131289296Y-108554571D01*
X131207616Y-108866108D01*
X131188282Y-109187595D01*
X131232039Y-109506675D01*
X131337205Y-109811088D01*
X131411783Y-109950614D01*
X131368079Y-109921412D01*
X131226674Y-109862840D01*
X131076559Y-109832981D01*
X130932966Y-109832981D01*
X130279524Y-109179540D01*
X130263807Y-109160389D01*
X130187368Y-109097656D01*
X130100159Y-109051042D01*
X130005532Y-109022337D01*
X129931776Y-109015073D01*
X129931766Y-109015073D01*
X129907123Y-109012646D01*
X129882480Y-109015073D01*
X127031612Y-109015073D01*
X126544038Y-108527500D01*
X126544038Y-108315263D01*
X126546465Y-108290618D01*
X126544038Y-108265972D01*
X126544038Y-108265965D01*
X126536774Y-108192209D01*
X126536774Y-108192208D01*
X126508069Y-108097581D01*
X126461455Y-108010372D01*
X126414438Y-107953083D01*
X126414435Y-107953080D01*
X126398722Y-107933934D01*
X126379576Y-107918221D01*
X124898833Y-106437479D01*
X124883116Y-106418328D01*
X124806677Y-106355595D01*
X124719468Y-106308981D01*
X124624841Y-106280276D01*
X124551085Y-106273012D01*
X124551075Y-106273012D01*
X124526432Y-106270585D01*
X124501789Y-106273012D01*
X123177012Y-106273012D01*
X123177012Y-100254654D01*
X123179439Y-100230011D01*
X123177012Y-100205368D01*
X123177012Y-100205359D01*
X123169748Y-100131603D01*
X123141043Y-100036976D01*
X123094429Y-99949767D01*
X123078751Y-99930664D01*
X123047411Y-99892476D01*
X123047409Y-99892474D01*
X123031696Y-99873328D01*
X123012550Y-99857615D01*
X122522401Y-99367467D01*
X122506684Y-99348316D01*
X122430245Y-99285583D01*
X122343036Y-99238969D01*
X122275219Y-99218397D01*
X122271545Y-99181095D01*
X122249988Y-99110030D01*
X122228591Y-99070000D01*
X122249988Y-99029970D01*
X122271545Y-98958905D01*
X122278824Y-98885000D01*
X122278824Y-97985000D01*
X122271545Y-97911095D01*
X122249988Y-97840030D01*
X122228591Y-97800000D01*
X122249988Y-97759970D01*
X122271545Y-97688905D01*
X122278824Y-97615000D01*
X122278824Y-96855570D01*
X122351185Y-96796185D01*
X122430537Y-96699494D01*
X122489502Y-96589180D01*
X122525812Y-96469482D01*
X122538072Y-96345000D01*
X122535000Y-96180750D01*
X122376250Y-96022000D01*
X121027000Y-96022000D01*
X121027000Y-96042000D01*
X120773000Y-96042000D01*
X120773000Y-96022000D01*
X120753000Y-96022000D01*
X120753000Y-95768000D01*
X120773000Y-95768000D01*
X120773000Y-95748000D01*
X121027000Y-95748000D01*
X121027000Y-95768000D01*
X122376250Y-95768000D01*
X122535000Y-95609250D01*
X122538072Y-95445000D01*
X122525812Y-95320518D01*
X122489502Y-95200820D01*
X122430537Y-95090506D01*
X122378419Y-95027000D01*
X136421581Y-95027000D01*
X136369463Y-95090506D01*
G37*
%TD.AperFunction*%
D24*
X133023748Y-109110858D02*
X133009605Y-109125000D01*
X133023748Y-109139143D01*
X132844143Y-109318748D01*
X132830000Y-109304605D01*
X132815858Y-109318748D01*
X132636253Y-109139143D01*
X132650395Y-109125000D01*
X132636253Y-109110858D01*
X132815858Y-108931253D01*
X132830000Y-108945395D01*
X132844143Y-108931253D01*
X133023748Y-109110858D01*
%TA.AperFunction,Conductor*%
D25*
G36*
X133023748Y-109110858D02*
G01*
X133009605Y-109125000D01*
X133023748Y-109139143D01*
X132844143Y-109318748D01*
X132830000Y-109304605D01*
X132815858Y-109318748D01*
X132636253Y-109139143D01*
X132650395Y-109125000D01*
X132636253Y-109110858D01*
X132815858Y-108931253D01*
X132830000Y-108945395D01*
X132844143Y-108931253D01*
X133023748Y-109110858D01*
G37*
%TD.AperFunction*%
D24*
X133423324Y-107595434D02*
X133400429Y-107584296D01*
X133334456Y-107566999D01*
X133394889Y-107566999D01*
X133423324Y-107595434D01*
%TA.AperFunction,Conductor*%
D25*
G36*
X133423324Y-107595434D02*
G01*
X133400429Y-107584296D01*
X133334456Y-107566999D01*
X133394889Y-107566999D01*
X133423324Y-107595434D01*
G37*
%TD.AperFunction*%
D24*
X133653002Y-105017064D02*
X133537015Y-105133051D01*
X133535000Y-103680750D01*
X133376250Y-103522000D01*
X130527000Y-103522000D01*
X130527000Y-103542000D01*
X130273000Y-103542000D01*
X130273000Y-103522000D01*
X130253000Y-103522000D01*
X130253000Y-103268000D01*
X130273000Y-103268000D01*
X130273000Y-103248000D01*
X130527000Y-103248000D01*
X130527000Y-103268000D01*
X133376250Y-103268000D01*
X133535000Y-103109250D01*
X133535403Y-102818568D01*
X133581061Y-102809574D01*
X133653002Y-102779932D01*
X133653002Y-105017064D01*
%TA.AperFunction,Conductor*%
D25*
G36*
X133653002Y-105017064D02*
G01*
X133537015Y-105133051D01*
X133535000Y-103680750D01*
X133376250Y-103522000D01*
X130527000Y-103522000D01*
X130527000Y-103542000D01*
X130273000Y-103542000D01*
X130273000Y-103522000D01*
X130253000Y-103522000D01*
X130253000Y-103268000D01*
X130273000Y-103268000D01*
X130273000Y-103248000D01*
X130527000Y-103248000D01*
X130527000Y-103268000D01*
X133376250Y-103268000D01*
X133535000Y-103109250D01*
X133535403Y-102818568D01*
X133581061Y-102809574D01*
X133653002Y-102779932D01*
X133653002Y-105017064D01*
G37*
%TD.AperFunction*%
%TD*%
M02*
