%TF.GenerationSoftware,KiCad,Pcbnew,(6.0.2-0)*%
%TF.CreationDate,2022-02-22T18:44:19+00:00*%
%TF.ProjectId,Keypad2,4b657970-6164-4322-9e6b-696361645f70,5*%
%TF.SameCoordinates,Original*%
%TF.FileFunction,Copper,L2,Bot*%
%TF.FilePolarity,Positive*%
%FSLAX46Y46*%
G04 Gerber Fmt 4.6, Leading zero omitted, Abs format (unit mm)*
G04 Created by KiCad (PCBNEW (6.0.2-0)) date 2022-02-22 18:44:19*
%MOMM*%
%LPD*%
G01*
G04 APERTURE LIST*
G04 Aperture macros list*
%AMRoundRect*
0 Rectangle with rounded corners*
0 $1 Rounding radius*
0 $2 $3 $4 $5 $6 $7 $8 $9 X,Y pos of 4 corners*
0 Add a 4 corners polygon primitive as box body*
4,1,4,$2,$3,$4,$5,$6,$7,$8,$9,$2,$3,0*
0 Add four circle primitives for the rounded corners*
1,1,$1+$1,$2,$3*
1,1,$1+$1,$4,$5*
1,1,$1+$1,$6,$7*
1,1,$1+$1,$8,$9*
0 Add four rect primitives between the rounded corners*
20,1,$1+$1,$2,$3,$4,$5,0*
20,1,$1+$1,$4,$5,$6,$7,0*
20,1,$1+$1,$6,$7,$8,$9,0*
20,1,$1+$1,$8,$9,$2,$3,0*%
G04 Aperture macros list end*
%ADD10C,0.100000*%
%TA.AperFunction,NonConductor*%
%ADD11C,0.100000*%
%TD*%
%TA.AperFunction,EtchedComponent*%
%ADD12C,0.375000*%
%TD*%
%TA.AperFunction,EtchedComponent*%
%ADD13C,0.200000*%
%TD*%
%TA.AperFunction,ComponentPad*%
%ADD14RoundRect,0.250000X-0.600000X-0.675000X0.600000X-0.675000X0.600000X0.675000X-0.600000X0.675000X0*%
%TD*%
%TA.AperFunction,ComponentPad*%
%ADD15O,1.700000X1.850000*%
%TD*%
%TA.AperFunction,ComponentPad*%
%ADD16R,1.700000X1.700000*%
%TD*%
%TA.AperFunction,ComponentPad*%
%ADD17O,1.700000X1.700000*%
%TD*%
%TA.AperFunction,ViaPad*%
%ADD18C,0.800000*%
%TD*%
%TA.AperFunction,Conductor*%
%ADD19C,0.250000*%
%TD*%
G04 APERTURE END LIST*
D10*
D11*
X171142857Y-94660714D02*
X171107142Y-94625000D01*
X171035714Y-94589285D01*
X170857142Y-94589285D01*
X170785714Y-94625000D01*
X170750000Y-94660714D01*
X170714285Y-94732142D01*
X170714285Y-94803571D01*
X170750000Y-94910714D01*
X171178571Y-95339285D01*
X170714285Y-95339285D01*
X170250000Y-94589285D02*
X170178571Y-94589285D01*
X170107142Y-94625000D01*
X170071428Y-94660714D01*
X170035714Y-94732142D01*
X170000000Y-94875000D01*
X170000000Y-95053571D01*
X170035714Y-95196428D01*
X170071428Y-95267857D01*
X170107142Y-95303571D01*
X170178571Y-95339285D01*
X170250000Y-95339285D01*
X170321428Y-95303571D01*
X170357142Y-95267857D01*
X170392857Y-95196428D01*
X170428571Y-95053571D01*
X170428571Y-94875000D01*
X170392857Y-94732142D01*
X170357142Y-94660714D01*
X170321428Y-94625000D01*
X170250000Y-94589285D01*
X169714285Y-94660714D02*
X169678571Y-94625000D01*
X169607142Y-94589285D01*
X169428571Y-94589285D01*
X169357142Y-94625000D01*
X169321428Y-94660714D01*
X169285714Y-94732142D01*
X169285714Y-94803571D01*
X169321428Y-94910714D01*
X169750000Y-95339285D01*
X169285714Y-95339285D01*
X169000000Y-94660714D02*
X168964285Y-94625000D01*
X168892857Y-94589285D01*
X168714285Y-94589285D01*
X168642857Y-94625000D01*
X168607142Y-94660714D01*
X168571428Y-94732142D01*
X168571428Y-94803571D01*
X168607142Y-94910714D01*
X169035714Y-95339285D01*
X168571428Y-95339285D01*
X168250000Y-95053571D02*
X167678571Y-95053571D01*
X167178571Y-94589285D02*
X167107142Y-94589285D01*
X167035714Y-94625000D01*
X167000000Y-94660714D01*
X166964285Y-94732142D01*
X166928571Y-94875000D01*
X166928571Y-95053571D01*
X166964285Y-95196428D01*
X167000000Y-95267857D01*
X167035714Y-95303571D01*
X167107142Y-95339285D01*
X167178571Y-95339285D01*
X167250000Y-95303571D01*
X167285714Y-95267857D01*
X167321428Y-95196428D01*
X167357142Y-95053571D01*
X167357142Y-94875000D01*
X167321428Y-94732142D01*
X167285714Y-94660714D01*
X167250000Y-94625000D01*
X167178571Y-94589285D01*
X166642857Y-94660714D02*
X166607142Y-94625000D01*
X166535714Y-94589285D01*
X166357142Y-94589285D01*
X166285714Y-94625000D01*
X166250000Y-94660714D01*
X166214285Y-94732142D01*
X166214285Y-94803571D01*
X166250000Y-94910714D01*
X166678571Y-95339285D01*
X166214285Y-95339285D01*
X165892857Y-95053571D02*
X165321428Y-95053571D01*
X165000000Y-94660714D02*
X164964285Y-94625000D01*
X164892857Y-94589285D01*
X164714285Y-94589285D01*
X164642857Y-94625000D01*
X164607142Y-94660714D01*
X164571428Y-94732142D01*
X164571428Y-94803571D01*
X164607142Y-94910714D01*
X165035714Y-95339285D01*
X164571428Y-95339285D01*
X164285714Y-94660714D02*
X164250000Y-94625000D01*
X164178571Y-94589285D01*
X164000000Y-94589285D01*
X163928571Y-94625000D01*
X163892857Y-94660714D01*
X163857142Y-94732142D01*
X163857142Y-94803571D01*
X163892857Y-94910714D01*
X164321428Y-95339285D01*
X163857142Y-95339285D01*
D12*
%TO.C,Logo1*%
X169737500Y-100700000D02*
G75*
G03*
X169737500Y-100700000I-937500J0D01*
G01*
X167337500Y-100700000D02*
G75*
G03*
X167337500Y-100700000I-937500J0D01*
G01*
D13*
X170000000Y-100700000D02*
G75*
G03*
X170000000Y-100700000I-2400000J0D01*
G01*
G36*
X168050000Y-101625000D02*
G01*
X167675000Y-101800000D01*
X167675000Y-99600000D01*
X168050000Y-99600000D01*
X168050000Y-101625000D01*
G37*
G36*
X167525000Y-101800000D02*
G01*
X167150000Y-101625000D01*
X167150000Y-99600000D01*
X167525000Y-99600000D01*
X167525000Y-101800000D01*
G37*
%TD*%
D14*
%TO.P,J1,1,Pin_1*%
%TO.N,GND*%
X163850000Y-121100000D03*
D15*
%TO.P,J1,2,Pin_2*%
%TO.N,+12V*%
X166350000Y-121100000D03*
%TO.P,J1,3,Pin_3*%
%TO.N,Net-(J1-Pad3)*%
X168850000Y-121100000D03*
%TO.P,J1,4,Pin_4*%
%TO.N,Net-(J1-Pad4)*%
X171350000Y-121100000D03*
%TD*%
D16*
%TO.P,J2,1,Pin_1*%
%TO.N,GND*%
X162600000Y-118700000D03*
D17*
%TO.P,J2,2,Pin_2*%
%TO.N,GPIO0*%
X165140000Y-118700000D03*
%TO.P,J2,3,Pin_3*%
%TO.N,+3V3*%
X167680000Y-118700000D03*
%TO.P,J2,4,Pin_4*%
%TO.N,O*%
X170220000Y-118700000D03*
%TO.P,J2,5,Pin_5*%
%TO.N,I*%
X172760000Y-118700000D03*
%TD*%
D18*
%TO.N,RX*%
X168900000Y-106900000D03*
%TO.N,DE*%
X168175500Y-106068507D03*
%TO.N,GND*%
X173300000Y-122000000D03*
X172200000Y-96000000D03*
X168282452Y-112786679D03*
%TO.N,+3V3*%
X169924500Y-106600000D03*
X167800000Y-117200000D03*
X162600000Y-105500000D03*
X165600000Y-113700000D03*
X162500000Y-101200000D03*
%TO.N,GPIO0*%
X170653056Y-105513718D03*
%TO.N,O*%
X171900000Y-98800000D03*
%TO.N,I*%
X172673308Y-99579271D03*
%TO.N,+12V*%
X169284711Y-108344044D03*
%TO.N,TX*%
X162024500Y-111656918D03*
X167461864Y-105368700D03*
%TO.N,RX*%
X165600000Y-111700000D03*
%TO.N,DE*%
X163100000Y-111700000D03*
%TD*%
D19*
%TO.N,GPIO0*%
X170653056Y-107435591D02*
G75*
G02*
X170325758Y-108225758I-1117466J1D01*
G01*
X165274937Y-117864249D02*
X165405087Y-117550038D01*
X165900638Y-116863658D02*
X168798313Y-113965983D01*
X170175758Y-108375758D02*
G75*
G03*
X169797509Y-109288931I913178J-913176D01*
G01*
X169218020Y-113538141D02*
X169224348Y-113527181D01*
X169672547Y-112737804D02*
X169755616Y-112427786D01*
X169798210Y-111828961D02*
X169797509Y-111828047D01*
X165405087Y-117550038D02*
X165575137Y-117255503D01*
X165575137Y-117255503D02*
X165782177Y-116985684D01*
X168798313Y-113965983D02*
X168809648Y-113965806D01*
X165782177Y-116985684D02*
X165900638Y-116863658D01*
X165140000Y-118700000D02*
X165142521Y-118529950D01*
X168809648Y-113965806D02*
X169182360Y-113581246D01*
X169182360Y-113581246D02*
X169182322Y-113578815D01*
X169182322Y-113578815D02*
X169193861Y-113566912D01*
X169549723Y-113034327D02*
X169672547Y-112737804D01*
X170653056Y-107435591D02*
X170653056Y-105513718D01*
X169193861Y-113566912D02*
X169215399Y-113538843D01*
X169215399Y-113538843D02*
X169218020Y-113538141D01*
X165186912Y-118192760D02*
X165274937Y-117864249D01*
X169797509Y-111828047D02*
X169797509Y-109288931D01*
X169755616Y-112427786D02*
X169797509Y-112109577D01*
X165142521Y-118529950D02*
X165186912Y-118192760D01*
X169797509Y-111834286D02*
X169798210Y-111828961D01*
X169224348Y-113527181D02*
X169389246Y-113312282D01*
X169389246Y-113312282D02*
X169549723Y-113034327D01*
X169797509Y-112109577D02*
X169797509Y-111834286D01*
X170175758Y-108375758D02*
X170325758Y-108225758D01*
%TO.N,+3V3*%
X169255801Y-104644199D02*
X169844199Y-104644199D01*
X163455801Y-104644199D02*
X169255801Y-104644199D01*
X169255801Y-104644199D02*
X170810140Y-104644199D01*
X171398506Y-105232565D02*
G75*
G03*
X170810140Y-104644199I-588365J1D01*
G01*
%TO.N,DE*%
X168175500Y-106068507D02*
X168175500Y-106124500D01*
X167500000Y-106800000D02*
G75*
G03*
X168175500Y-106124500I1J675499D01*
G01*
%TO.N,RX*%
X168900000Y-106900000D02*
X166660661Y-109139339D01*
X165600000Y-111700000D02*
G75*
G02*
X166660661Y-109139339I3621322J-1D01*
G01*
%TO.N,+12V*%
X164250019Y-117878573D02*
X168614296Y-113514296D01*
%TO.N,+3V3*%
X171358968Y-107514522D02*
X171282080Y-107751156D01*
X169634726Y-113760390D02*
X169570487Y-113826669D01*
%TO.N,TX*%
X167486630Y-105679811D02*
G75*
G02*
X166646925Y-106299999I-841881J261312D01*
G01*
%TO.N,+3V3*%
X170664134Y-108591492D02*
X170521865Y-108837908D01*
X167838586Y-116314326D02*
X167802181Y-116637427D01*
%TO.N,TX*%
X167486631Y-105393467D02*
X167461864Y-105368700D01*
%TO.N,+3V3*%
X168018327Y-115690433D02*
X167910938Y-115997333D01*
%TO.N,GPIO0*%
X168941193Y-113830079D02*
X168970940Y-113826163D01*
%TO.N,+3V3*%
X169859214Y-113438210D02*
X169835575Y-113469016D01*
X167802181Y-116637427D02*
X167800000Y-116800000D01*
X171048903Y-108138317D02*
X171022874Y-108174143D01*
X169893764Y-113378368D02*
X169892100Y-113379057D01*
X170521865Y-108837908D02*
X170412977Y-109100787D01*
X171398506Y-105232565D02*
X171400000Y-105300000D01*
X169002842Y-114412349D02*
X169002836Y-114412355D01*
X170936397Y-108263603D02*
X170837349Y-108365753D01*
X169214209Y-114247528D02*
X169155047Y-114255316D01*
X169155047Y-114255316D02*
X169153511Y-114256901D01*
%TO.N,TX*%
X162024500Y-111656918D02*
X162024500Y-107175500D01*
%TO.N,+3V3*%
X169374883Y-114038136D02*
X169214214Y-114247525D01*
X169214214Y-114247525D02*
X169214211Y-114247525D01*
X169214211Y-114247525D02*
X169214209Y-114247528D01*
X167800000Y-116800000D02*
X167800000Y-117200000D01*
X169514170Y-113924176D02*
X169479115Y-113933565D01*
X169634691Y-113757984D02*
X169634729Y-113760385D01*
X170261348Y-112384435D02*
X170188871Y-112701978D01*
X169645959Y-113730039D02*
X169646208Y-113746104D01*
X170412977Y-109100787D02*
X170339334Y-109375628D01*
X169667435Y-113703109D02*
X169645959Y-113730039D01*
X169900000Y-104700000D02*
X169900000Y-106575500D01*
X169685438Y-113698285D02*
X169667435Y-113703109D01*
X169722566Y-113633977D02*
X169685438Y-113698285D01*
X170188871Y-112701978D02*
X170081296Y-113009410D01*
X169835575Y-113469016D02*
X169766688Y-113578650D01*
X169766688Y-113578650D02*
X169722566Y-113633977D01*
X169892100Y-113379057D02*
X169858472Y-113432576D01*
X171400000Y-105300000D02*
X171400000Y-107144367D01*
X169939976Y-113302864D02*
X169896145Y-113372621D01*
X169410457Y-113991785D02*
X169410422Y-113991822D01*
X169002852Y-114412349D02*
X169002842Y-114412349D01*
X168987404Y-114412596D02*
X168648529Y-114751471D01*
X169002836Y-114412355D02*
X168987404Y-114412596D01*
X169437136Y-113988273D02*
X169410457Y-113991785D01*
X169410422Y-113991822D02*
X169374883Y-114038136D01*
X169514205Y-113924149D02*
X169514182Y-113924155D01*
X169514182Y-113924155D02*
X169514170Y-113924176D01*
%TO.N,+12V*%
X169325500Y-111797298D02*
X169325500Y-108384833D01*
%TO.N,+3V3*%
X170837349Y-108365753D02*
X170664134Y-108591492D01*
X171022874Y-108174143D02*
X170936397Y-108263603D01*
%TO.N,TX*%
X162900000Y-106300000D02*
G75*
G03*
X162024500Y-107175500I0J-875500D01*
G01*
%TO.N,+3V3*%
X170300000Y-111897919D02*
X170297816Y-112060774D01*
X169844199Y-104644199D02*
X169900000Y-104700000D01*
X170300000Y-109800000D02*
X170300000Y-111897919D01*
X169153511Y-114256901D02*
X169002852Y-114412349D01*
X171169122Y-107972850D02*
X171102567Y-108064455D01*
X171282080Y-107751156D02*
X171169122Y-107972850D01*
X171397890Y-107268773D02*
X171358968Y-107514522D01*
X162600000Y-105500000D02*
X163455801Y-104644199D01*
%TO.N,+12V*%
X164250019Y-117878573D02*
G75*
G03*
X163965489Y-118565489I686913J-686915D01*
G01*
%TO.N,+3V3*%
X171400000Y-107144367D02*
X171397890Y-107268773D01*
X170302194Y-109657731D02*
X170300000Y-109800000D01*
X168332390Y-115122179D02*
X168159402Y-115397487D01*
X170339334Y-109375628D02*
X170302194Y-109657731D01*
X171102566Y-108084654D02*
X171048903Y-108138317D01*
%TO.N,+12V*%
X169325500Y-111797298D02*
G75*
G02*
X168614296Y-113514296I-2428201J0D01*
G01*
%TO.N,+3V3*%
X167910938Y-115997333D02*
X167838586Y-116314326D01*
X169858472Y-113432576D02*
X169859214Y-113438210D01*
%TO.N,GPIO0*%
X168970940Y-113826163D02*
X169069587Y-113697604D01*
%TO.N,+3V3*%
X170297816Y-112060774D02*
X170261348Y-112384435D01*
X169646208Y-113746104D02*
X169634691Y-113757984D01*
%TO.N,+12V*%
X163965489Y-119186499D02*
X163965489Y-118565489D01*
%TO.N,+3V3*%
X168648529Y-114751471D02*
X168535115Y-114867970D01*
X168535115Y-114867970D02*
X168332390Y-115122179D01*
%TO.N,+12V*%
X164774511Y-119874511D02*
X164653501Y-119874511D01*
%TO.N,+3V3*%
X169634729Y-113760385D02*
X169634726Y-113760390D01*
X169896145Y-113372621D02*
X169893764Y-113378368D01*
X168159402Y-115397487D02*
X168018327Y-115690433D01*
X170081296Y-113009410D02*
X169939976Y-113302864D01*
%TO.N,+12V*%
X165752512Y-120852513D02*
X164774511Y-119874511D01*
%TO.N,+3V3*%
X169479115Y-113933565D02*
X169437136Y-113988273D01*
%TO.N,TX*%
X167486631Y-105679811D02*
X167486631Y-105393467D01*
X162900000Y-106300000D02*
X166646925Y-106300000D01*
%TO.N,+12V*%
X169325500Y-108384833D02*
X169284711Y-108344044D01*
X164653501Y-119874511D02*
X163965489Y-119186499D01*
X165752512Y-120852513D02*
G75*
G03*
X166350000Y-121100000I597489J597493D01*
G01*
%TO.N,+3V3*%
X169570487Y-113826669D02*
X169514205Y-113924149D01*
X171102567Y-108064455D02*
X171102566Y-108084654D01*
X169900000Y-106575500D02*
X169924500Y-106600000D01*
%TO.N,GND*%
X163850000Y-121100000D02*
X165350000Y-122600000D01*
X165350000Y-122600000D02*
X166700000Y-122600000D01*
%TO.N,+3V3*%
X167680000Y-118700000D02*
X167680000Y-117320000D01*
X162600000Y-113700000D02*
X165600000Y-113700000D01*
X161300000Y-112400000D02*
X161300000Y-106800000D01*
X167680000Y-117320000D02*
X167800000Y-117200000D01*
X162500000Y-101200000D02*
X162500000Y-105400000D01*
X161300000Y-106800000D02*
G75*
G02*
X162600000Y-105500000I1299999J1D01*
G01*
X162600000Y-113700000D02*
G75*
G02*
X161300000Y-112400000I-1J1299999D01*
G01*
X162600000Y-105500000D02*
G75*
G02*
X162500000Y-105400000I-1J99999D01*
G01*
%TO.N,O*%
X171916619Y-117003381D02*
X170220000Y-118700000D01*
X172850000Y-101627817D02*
X172850000Y-114750000D01*
X171900000Y-98800000D02*
X171900000Y-99334315D01*
X172849999Y-101627817D02*
G75*
G03*
X172299999Y-100300001I-1877813J1D01*
G01*
X171916619Y-117003381D02*
G75*
G03*
X172850000Y-114750000I-2253383J2253382D01*
G01*
X172300000Y-100300000D02*
G75*
G02*
X171900000Y-99334315I965689J965687D01*
G01*
%TO.N,I*%
X173300000Y-118160000D02*
X173300000Y-101218502D01*
X172673308Y-99695562D02*
X172673308Y-99579271D01*
X172913487Y-99935741D02*
X172673308Y-99695562D01*
X172760000Y-118700000D02*
X173300000Y-118160000D01*
X172913487Y-99935741D02*
G75*
G02*
X173300000Y-101218502I-1950468J-1287313D01*
G01*
%TO.N,DE*%
X163700000Y-106800000D02*
X167590592Y-106800000D01*
X163100000Y-111700000D02*
X163100000Y-107400000D01*
X163700000Y-106800000D02*
G75*
G03*
X163100000Y-107400000I0J-600000D01*
G01*
%TD*%
%TA.AperFunction,Conductor*%
%TO.N,GND*%
G36*
X161455565Y-119964218D02*
G01*
X161496352Y-119994786D01*
X161511946Y-120003324D01*
X161632394Y-120048478D01*
X161647649Y-120052105D01*
X161698514Y-120057631D01*
X161705328Y-120058000D01*
X162398551Y-120058000D01*
X162466672Y-120078002D01*
X162513165Y-120131658D01*
X162523269Y-120201932D01*
X162518144Y-120223668D01*
X162504862Y-120263710D01*
X162501995Y-120277086D01*
X162492328Y-120371438D01*
X162492000Y-120377855D01*
X162492000Y-120827885D01*
X162496475Y-120843124D01*
X162497865Y-120844329D01*
X162505548Y-120846000D01*
X163978000Y-120846000D01*
X164046121Y-120866002D01*
X164092614Y-120919658D01*
X164104000Y-120972000D01*
X164104000Y-121228000D01*
X164083998Y-121296121D01*
X164030342Y-121342614D01*
X163978000Y-121354000D01*
X162510116Y-121354000D01*
X162494877Y-121358475D01*
X162493672Y-121359865D01*
X162492001Y-121367548D01*
X162492001Y-121822095D01*
X162492338Y-121828614D01*
X162502257Y-121924206D01*
X162505149Y-121937600D01*
X162556588Y-122091784D01*
X162562761Y-122104962D01*
X162648063Y-122242807D01*
X162657099Y-122254208D01*
X162771829Y-122368739D01*
X162783240Y-122377751D01*
X162921243Y-122462816D01*
X162934424Y-122468963D01*
X163029224Y-122500407D01*
X163087583Y-122540838D01*
X163114820Y-122606402D01*
X163102286Y-122676284D01*
X163053962Y-122728296D01*
X162989556Y-122746000D01*
X161380000Y-122746000D01*
X161311879Y-122725998D01*
X161265386Y-122672342D01*
X161254000Y-122620000D01*
X161254000Y-120065044D01*
X161274002Y-119996923D01*
X161327658Y-119950430D01*
X161397932Y-119940326D01*
X161455565Y-119964218D01*
G37*
%TD.AperFunction*%
%TA.AperFunction,Conductor*%
G36*
X163352407Y-94274002D02*
G01*
X163398900Y-94327658D01*
X163410286Y-94380000D01*
X163410286Y-95932750D01*
X171589715Y-95932750D01*
X171589715Y-94380000D01*
X171609717Y-94311879D01*
X171663373Y-94265386D01*
X171715715Y-94254000D01*
X173820000Y-94254000D01*
X173888121Y-94274002D01*
X173934614Y-94327658D01*
X173946000Y-94380000D01*
X173946000Y-118067170D01*
X173925998Y-118135291D01*
X173872342Y-118181784D01*
X173802068Y-118191888D01*
X173737488Y-118162394D01*
X173712395Y-118129893D01*
X173711349Y-118130534D01*
X173708331Y-118125609D01*
X173705776Y-118120428D01*
X173702321Y-118115801D01*
X173699301Y-118110873D01*
X173701175Y-118109725D01*
X173679809Y-118052208D01*
X173679500Y-118043386D01*
X173679500Y-101257793D01*
X173681013Y-101238325D01*
X173682698Y-101227553D01*
X173682698Y-101227550D01*
X173684230Y-101217754D01*
X173682660Y-101207963D01*
X173682657Y-101206665D01*
X173681616Y-101196764D01*
X173669557Y-100957690D01*
X173669556Y-100957680D01*
X173669403Y-100954647D01*
X173630737Y-100694056D01*
X173606015Y-100594845D01*
X173567781Y-100441405D01*
X173567780Y-100441401D01*
X173567039Y-100438428D01*
X173487588Y-100214618D01*
X173479928Y-100193039D01*
X173479928Y-100193038D01*
X173478907Y-100190163D01*
X173409456Y-100041878D01*
X173368461Y-99954350D01*
X173368458Y-99954345D01*
X173367168Y-99951590D01*
X173316601Y-99866252D01*
X173299084Y-99797454D01*
X173306084Y-99764494D01*
X173305350Y-99764297D01*
X173307314Y-99756966D01*
X173310150Y-99749912D01*
X173332470Y-99593078D01*
X173332615Y-99579271D01*
X173313584Y-99422004D01*
X173257588Y-99273817D01*
X173228027Y-99230805D01*
X173172163Y-99149522D01*
X173172162Y-99149520D01*
X173167861Y-99143263D01*
X173134502Y-99113541D01*
X173055254Y-99042935D01*
X173049583Y-99037882D01*
X172909582Y-98963755D01*
X172755941Y-98925163D01*
X172748342Y-98925123D01*
X172748341Y-98925123D01*
X172724909Y-98925000D01*
X172684500Y-98924789D01*
X172616486Y-98904431D01*
X172570275Y-98850533D01*
X172559352Y-98805719D01*
X172559264Y-98804116D01*
X172559307Y-98800000D01*
X172557561Y-98785565D01*
X172546388Y-98693244D01*
X172540276Y-98642733D01*
X172484280Y-98494546D01*
X172475814Y-98482228D01*
X172398855Y-98370251D01*
X172398854Y-98370249D01*
X172394553Y-98363992D01*
X172276275Y-98258611D01*
X172268889Y-98254700D01*
X172142988Y-98188039D01*
X172142989Y-98188039D01*
X172136274Y-98184484D01*
X171982633Y-98145892D01*
X171975034Y-98145852D01*
X171975033Y-98145852D01*
X171909181Y-98145507D01*
X171824221Y-98145062D01*
X171816841Y-98146834D01*
X171816839Y-98146834D01*
X171677563Y-98180271D01*
X171677560Y-98180272D01*
X171670184Y-98182043D01*
X171529414Y-98254700D01*
X171410039Y-98358838D01*
X171318950Y-98488444D01*
X171316190Y-98495524D01*
X171268215Y-98618574D01*
X171261406Y-98636037D01*
X171260414Y-98643570D01*
X171260414Y-98643571D01*
X171242663Y-98778409D01*
X171240729Y-98793096D01*
X171241563Y-98800646D01*
X171256703Y-98937780D01*
X171258113Y-98950553D01*
X171260723Y-98957684D01*
X171260723Y-98957686D01*
X171291920Y-99042935D01*
X171312553Y-99099319D01*
X171400908Y-99230805D01*
X171477128Y-99300159D01*
X171479282Y-99302119D01*
X171516205Y-99362759D01*
X171520213Y-99387071D01*
X171531718Y-99562597D01*
X171532520Y-99566630D01*
X171532521Y-99566636D01*
X171571878Y-99764494D01*
X171576349Y-99786971D01*
X171577676Y-99790880D01*
X171577677Y-99790884D01*
X171648559Y-99999695D01*
X171649885Y-100003601D01*
X171668761Y-100041878D01*
X171740527Y-100187404D01*
X171751068Y-100208780D01*
X171753362Y-100212213D01*
X171857815Y-100368538D01*
X171878166Y-100398996D01*
X171880880Y-100402090D01*
X171880884Y-100402096D01*
X171917649Y-100444018D01*
X172007817Y-100546834D01*
X172018181Y-100558652D01*
X172021044Y-100562236D01*
X172022481Y-100563673D01*
X172028308Y-100571693D01*
X172036328Y-100577520D01*
X172040797Y-100581989D01*
X172054889Y-100594845D01*
X172155434Y-100709494D01*
X172165467Y-100722570D01*
X172265173Y-100871790D01*
X172273414Y-100886063D01*
X172352796Y-101047033D01*
X172359103Y-101062261D01*
X172416789Y-101232201D01*
X172421055Y-101248120D01*
X172456070Y-101424150D01*
X172458221Y-101440491D01*
X172468194Y-101592646D01*
X172467321Y-101611697D01*
X172467321Y-101618021D01*
X172465769Y-101627817D01*
X172467320Y-101637610D01*
X172467320Y-101637611D01*
X172468949Y-101647894D01*
X172470500Y-101667605D01*
X172470500Y-114710212D01*
X172468949Y-114729922D01*
X172465769Y-114750000D01*
X172467320Y-114759792D01*
X172467320Y-114759796D01*
X172467341Y-114759929D01*
X172468740Y-114785820D01*
X172457305Y-115018597D01*
X172457286Y-115018977D01*
X172456074Y-115031283D01*
X172417468Y-115291543D01*
X172415056Y-115303671D01*
X172351124Y-115558899D01*
X172347535Y-115570731D01*
X172258895Y-115818465D01*
X172254163Y-115829889D01*
X172141668Y-116067739D01*
X172135839Y-116078644D01*
X172000571Y-116304325D01*
X171993701Y-116314606D01*
X171836968Y-116525936D01*
X171829124Y-116535494D01*
X171746857Y-116626262D01*
X171672994Y-116707758D01*
X171672353Y-116708465D01*
X171653054Y-116725784D01*
X171644927Y-116731689D01*
X171639100Y-116739709D01*
X171632979Y-116748134D01*
X171620138Y-116763168D01*
X170745144Y-117638162D01*
X170682832Y-117672188D01*
X170609360Y-117666097D01*
X170535039Y-117636446D01*
X170529379Y-117635320D01*
X170529375Y-117635319D01*
X170341613Y-117597971D01*
X170341610Y-117597971D01*
X170335946Y-117596844D01*
X170330171Y-117596768D01*
X170330167Y-117596768D01*
X170228793Y-117595441D01*
X170132971Y-117594187D01*
X170127274Y-117595166D01*
X170127273Y-117595166D01*
X169938607Y-117627585D01*
X169932910Y-117628564D01*
X169742463Y-117698824D01*
X169737502Y-117701776D01*
X169737501Y-117701776D01*
X169722813Y-117710515D01*
X169568010Y-117802612D01*
X169563670Y-117806418D01*
X169563666Y-117806421D01*
X169419733Y-117932648D01*
X169415392Y-117936455D01*
X169289720Y-118095869D01*
X169287031Y-118100980D01*
X169287029Y-118100983D01*
X169268979Y-118135291D01*
X169195203Y-118275515D01*
X169135007Y-118469378D01*
X169111148Y-118670964D01*
X169124424Y-118873522D01*
X169125845Y-118879118D01*
X169125846Y-118879123D01*
X169144863Y-118954000D01*
X169174392Y-119070269D01*
X169176809Y-119075512D01*
X169252635Y-119239992D01*
X169259377Y-119254616D01*
X169376533Y-119420389D01*
X169380675Y-119424424D01*
X169437637Y-119479913D01*
X169521938Y-119562035D01*
X169690720Y-119674812D01*
X169696023Y-119677090D01*
X169696026Y-119677092D01*
X169784707Y-119715192D01*
X169877228Y-119754942D01*
X169950244Y-119771464D01*
X170069579Y-119798467D01*
X170069584Y-119798468D01*
X170075216Y-119799742D01*
X170080987Y-119799969D01*
X170080989Y-119799969D01*
X170140756Y-119802317D01*
X170278053Y-119807712D01*
X170378499Y-119793148D01*
X170473231Y-119779413D01*
X170473236Y-119779412D01*
X170478945Y-119778584D01*
X170484409Y-119776729D01*
X170484414Y-119776728D01*
X170665693Y-119715192D01*
X170665698Y-119715190D01*
X170671165Y-119713334D01*
X170848276Y-119614147D01*
X170910934Y-119562035D01*
X170999913Y-119488031D01*
X171004345Y-119484345D01*
X171068065Y-119407731D01*
X171130453Y-119332718D01*
X171130455Y-119332715D01*
X171134147Y-119328276D01*
X171233334Y-119151165D01*
X171235190Y-119145698D01*
X171235192Y-119145693D01*
X171296728Y-118964414D01*
X171296729Y-118964409D01*
X171298584Y-118958945D01*
X171299412Y-118953236D01*
X171299413Y-118953231D01*
X171327179Y-118761727D01*
X171327712Y-118758053D01*
X171329232Y-118700000D01*
X171312808Y-118521254D01*
X171311187Y-118503613D01*
X171311186Y-118503610D01*
X171310658Y-118497859D01*
X171309090Y-118492299D01*
X171257127Y-118308053D01*
X171257126Y-118308051D01*
X171255557Y-118302487D01*
X171256058Y-118302346D01*
X171250618Y-118235289D01*
X171284894Y-118171800D01*
X172156832Y-117299862D01*
X172171866Y-117287021D01*
X172188311Y-117275073D01*
X172190653Y-117271850D01*
X172423320Y-117015141D01*
X172517401Y-116888288D01*
X172630209Y-116736183D01*
X172632052Y-116733698D01*
X172671130Y-116668501D01*
X172686426Y-116642981D01*
X172738604Y-116594835D01*
X172808528Y-116582541D01*
X172873998Y-116610003D01*
X172914229Y-116668501D01*
X172920500Y-116707758D01*
X172920500Y-117469767D01*
X172900498Y-117537888D01*
X172846842Y-117584381D01*
X172792851Y-117595756D01*
X172740661Y-117595073D01*
X172672971Y-117594187D01*
X172667274Y-117595166D01*
X172667273Y-117595166D01*
X172478607Y-117627585D01*
X172472910Y-117628564D01*
X172282463Y-117698824D01*
X172277502Y-117701776D01*
X172277501Y-117701776D01*
X172262813Y-117710515D01*
X172108010Y-117802612D01*
X172103670Y-117806418D01*
X172103666Y-117806421D01*
X171959733Y-117932648D01*
X171955392Y-117936455D01*
X171829720Y-118095869D01*
X171827031Y-118100980D01*
X171827029Y-118100983D01*
X171808979Y-118135291D01*
X171735203Y-118275515D01*
X171675007Y-118469378D01*
X171651148Y-118670964D01*
X171664424Y-118873522D01*
X171665845Y-118879118D01*
X171665846Y-118879123D01*
X171684863Y-118954000D01*
X171714392Y-119070269D01*
X171716809Y-119075512D01*
X171792635Y-119239992D01*
X171799377Y-119254616D01*
X171916533Y-119420389D01*
X171920675Y-119424424D01*
X171977637Y-119479913D01*
X172061938Y-119562035D01*
X172230720Y-119674812D01*
X172236023Y-119677090D01*
X172236026Y-119677092D01*
X172324707Y-119715192D01*
X172417228Y-119754942D01*
X172490244Y-119771464D01*
X172609579Y-119798467D01*
X172609584Y-119798468D01*
X172615216Y-119799742D01*
X172620987Y-119799969D01*
X172620989Y-119799969D01*
X172680756Y-119802317D01*
X172818053Y-119807712D01*
X172918499Y-119793148D01*
X173013231Y-119779413D01*
X173013236Y-119779412D01*
X173018945Y-119778584D01*
X173024409Y-119776729D01*
X173024414Y-119776728D01*
X173205693Y-119715192D01*
X173205698Y-119715190D01*
X173211165Y-119713334D01*
X173388276Y-119614147D01*
X173450934Y-119562035D01*
X173539913Y-119488031D01*
X173544345Y-119484345D01*
X173608065Y-119407731D01*
X173670453Y-119332718D01*
X173670455Y-119332715D01*
X173674147Y-119328276D01*
X173710067Y-119264136D01*
X173760802Y-119214476D01*
X173830334Y-119200129D01*
X173896585Y-119225650D01*
X173938520Y-119282938D01*
X173946000Y-119325704D01*
X173946000Y-122620000D01*
X173925998Y-122688121D01*
X173872342Y-122734614D01*
X173820000Y-122746000D01*
X164710551Y-122746000D01*
X164642430Y-122725998D01*
X164595937Y-122672342D01*
X164585833Y-122602068D01*
X164615327Y-122537488D01*
X164670675Y-122500476D01*
X164766784Y-122468412D01*
X164779962Y-122462239D01*
X164917807Y-122376937D01*
X164929208Y-122367901D01*
X165043739Y-122253171D01*
X165052751Y-122241760D01*
X165137816Y-122103757D01*
X165143963Y-122090576D01*
X165195138Y-121936290D01*
X165198005Y-121922914D01*
X165204869Y-121855919D01*
X165231710Y-121790192D01*
X165289824Y-121749410D01*
X165360762Y-121746520D01*
X165422001Y-121782442D01*
X165429299Y-121790928D01*
X165546514Y-121940149D01*
X165551044Y-121944080D01*
X165551045Y-121944081D01*
X165701165Y-122074350D01*
X165701170Y-122074354D01*
X165705696Y-122078281D01*
X165888126Y-122183819D01*
X166087222Y-122252957D01*
X166093155Y-122253817D01*
X166093158Y-122253818D01*
X166289860Y-122282338D01*
X166289863Y-122282338D01*
X166295800Y-122283199D01*
X166506333Y-122273455D01*
X166512157Y-122272051D01*
X166512160Y-122272051D01*
X166705393Y-122225482D01*
X166705395Y-122225481D01*
X166711226Y-122224076D01*
X166716684Y-122221594D01*
X166716688Y-122221593D01*
X166831294Y-122169484D01*
X166903084Y-122136843D01*
X167074986Y-122014904D01*
X167220728Y-121862660D01*
X167277710Y-121774410D01*
X167331800Y-121690640D01*
X167331801Y-121690637D01*
X167335052Y-121685603D01*
X167413834Y-121490122D01*
X167454229Y-121283271D01*
X167454500Y-121277730D01*
X167454500Y-121227659D01*
X167745500Y-121227659D01*
X167760493Y-121384806D01*
X167819823Y-121587042D01*
X167822573Y-121592381D01*
X167901960Y-121746520D01*
X167916324Y-121774410D01*
X167928721Y-121790192D01*
X168042808Y-121935432D01*
X168042812Y-121935436D01*
X168046514Y-121940149D01*
X168051044Y-121944080D01*
X168051045Y-121944081D01*
X168201165Y-122074350D01*
X168201170Y-122074354D01*
X168205696Y-122078281D01*
X168388126Y-122183819D01*
X168587222Y-122252957D01*
X168593155Y-122253817D01*
X168593158Y-122253818D01*
X168789860Y-122282338D01*
X168789863Y-122282338D01*
X168795800Y-122283199D01*
X169006333Y-122273455D01*
X169012157Y-122272051D01*
X169012160Y-122272051D01*
X169205393Y-122225482D01*
X169205395Y-122225481D01*
X169211226Y-122224076D01*
X169216684Y-122221594D01*
X169216688Y-122221593D01*
X169331294Y-122169484D01*
X169403084Y-122136843D01*
X169574986Y-122014904D01*
X169720728Y-121862660D01*
X169777710Y-121774410D01*
X169831800Y-121690640D01*
X169831801Y-121690637D01*
X169835052Y-121685603D01*
X169913834Y-121490122D01*
X169954229Y-121283271D01*
X169954500Y-121277730D01*
X169954500Y-121227659D01*
X170245500Y-121227659D01*
X170260493Y-121384806D01*
X170319823Y-121587042D01*
X170322573Y-121592381D01*
X170401960Y-121746520D01*
X170416324Y-121774410D01*
X170428721Y-121790192D01*
X170542808Y-121935432D01*
X170542812Y-121935436D01*
X170546514Y-121940149D01*
X170551044Y-121944080D01*
X170551045Y-121944081D01*
X170701165Y-122074350D01*
X170701170Y-122074354D01*
X170705696Y-122078281D01*
X170888126Y-122183819D01*
X171087222Y-122252957D01*
X171093155Y-122253817D01*
X171093158Y-122253818D01*
X171289860Y-122282338D01*
X171289863Y-122282338D01*
X171295800Y-122283199D01*
X171506333Y-122273455D01*
X171512157Y-122272051D01*
X171512160Y-122272051D01*
X171705393Y-122225482D01*
X171705395Y-122225481D01*
X171711226Y-122224076D01*
X171716684Y-122221594D01*
X171716688Y-122221593D01*
X171831294Y-122169484D01*
X171903084Y-122136843D01*
X172074986Y-122014904D01*
X172220728Y-121862660D01*
X172277710Y-121774410D01*
X172331800Y-121690640D01*
X172331801Y-121690637D01*
X172335052Y-121685603D01*
X172413834Y-121490122D01*
X172454229Y-121283271D01*
X172454500Y-121277730D01*
X172454500Y-120972341D01*
X172439507Y-120815194D01*
X172380177Y-120612958D01*
X172329415Y-120514397D01*
X172286422Y-120430921D01*
X172286420Y-120430918D01*
X172283676Y-120425590D01*
X172214355Y-120337340D01*
X172157192Y-120264568D01*
X172157188Y-120264564D01*
X172153486Y-120259851D01*
X172146201Y-120253529D01*
X171998835Y-120125650D01*
X171998830Y-120125646D01*
X171994304Y-120121719D01*
X171811874Y-120016181D01*
X171612778Y-119947043D01*
X171606845Y-119946183D01*
X171606842Y-119946182D01*
X171410140Y-119917662D01*
X171410137Y-119917662D01*
X171404200Y-119916801D01*
X171193667Y-119926545D01*
X171187843Y-119927949D01*
X171187840Y-119927949D01*
X170994607Y-119974518D01*
X170994605Y-119974519D01*
X170988774Y-119975924D01*
X170983316Y-119978406D01*
X170983312Y-119978407D01*
X170947289Y-119994786D01*
X170796916Y-120063157D01*
X170718594Y-120118715D01*
X170634877Y-120178100D01*
X170625014Y-120185096D01*
X170479272Y-120337340D01*
X170476021Y-120342375D01*
X170418848Y-120430921D01*
X170364948Y-120514397D01*
X170286166Y-120709878D01*
X170245771Y-120916729D01*
X170245500Y-120922270D01*
X170245500Y-121227659D01*
X169954500Y-121227659D01*
X169954500Y-120972341D01*
X169939507Y-120815194D01*
X169880177Y-120612958D01*
X169829415Y-120514397D01*
X169786422Y-120430921D01*
X169786420Y-120430918D01*
X169783676Y-120425590D01*
X169714355Y-120337340D01*
X169657192Y-120264568D01*
X169657188Y-120264564D01*
X169653486Y-120259851D01*
X169646201Y-120253529D01*
X169498835Y-120125650D01*
X169498830Y-120125646D01*
X169494304Y-120121719D01*
X169311874Y-120016181D01*
X169112778Y-119947043D01*
X169106845Y-119946183D01*
X169106842Y-119946182D01*
X168910140Y-119917662D01*
X168910137Y-119917662D01*
X168904200Y-119916801D01*
X168693667Y-119926545D01*
X168687843Y-119927949D01*
X168687840Y-119927949D01*
X168494607Y-119974518D01*
X168494605Y-119974519D01*
X168488774Y-119975924D01*
X168483316Y-119978406D01*
X168483312Y-119978407D01*
X168447289Y-119994786D01*
X168296916Y-120063157D01*
X168218594Y-120118715D01*
X168134877Y-120178100D01*
X168125014Y-120185096D01*
X167979272Y-120337340D01*
X167976021Y-120342375D01*
X167918848Y-120430921D01*
X167864948Y-120514397D01*
X167786166Y-120709878D01*
X167745771Y-120916729D01*
X167745500Y-120922270D01*
X167745500Y-121227659D01*
X167454500Y-121227659D01*
X167454500Y-120972341D01*
X167439507Y-120815194D01*
X167380177Y-120612958D01*
X167329415Y-120514397D01*
X167286422Y-120430921D01*
X167286420Y-120430918D01*
X167283676Y-120425590D01*
X167214355Y-120337340D01*
X167157192Y-120264568D01*
X167157188Y-120264564D01*
X167153486Y-120259851D01*
X167146201Y-120253529D01*
X166998835Y-120125650D01*
X166998830Y-120125646D01*
X166994304Y-120121719D01*
X166811874Y-120016181D01*
X166612778Y-119947043D01*
X166606845Y-119946183D01*
X166606842Y-119946182D01*
X166410140Y-119917662D01*
X166410137Y-119917662D01*
X166404200Y-119916801D01*
X166193667Y-119926545D01*
X166187843Y-119927949D01*
X166187840Y-119927949D01*
X165994607Y-119974518D01*
X165994605Y-119974519D01*
X165988774Y-119975924D01*
X165983316Y-119978406D01*
X165983312Y-119978407D01*
X165947289Y-119994786D01*
X165796916Y-120063157D01*
X165792026Y-120066626D01*
X165792022Y-120066628D01*
X165709898Y-120124883D01*
X165642764Y-120147982D01*
X165573800Y-120131118D01*
X165547903Y-120111209D01*
X165405101Y-119968407D01*
X165371075Y-119906095D01*
X165376140Y-119835280D01*
X165418687Y-119778444D01*
X165453693Y-119760000D01*
X165591165Y-119713334D01*
X165768276Y-119614147D01*
X165830934Y-119562035D01*
X165919913Y-119488031D01*
X165924345Y-119484345D01*
X165988065Y-119407731D01*
X166050453Y-119332718D01*
X166050455Y-119332715D01*
X166054147Y-119328276D01*
X166153334Y-119151165D01*
X166155190Y-119145698D01*
X166155192Y-119145693D01*
X166216728Y-118964414D01*
X166216729Y-118964409D01*
X166218584Y-118958945D01*
X166219412Y-118953236D01*
X166219413Y-118953231D01*
X166247179Y-118761727D01*
X166247712Y-118758053D01*
X166249232Y-118700000D01*
X166232808Y-118521254D01*
X166231187Y-118503613D01*
X166231186Y-118503610D01*
X166230658Y-118497859D01*
X166229090Y-118492299D01*
X166177125Y-118308046D01*
X166177124Y-118308044D01*
X166175557Y-118302487D01*
X166164978Y-118281033D01*
X166088331Y-118125609D01*
X166085776Y-118120428D01*
X165964320Y-117957779D01*
X165815258Y-117819987D01*
X165813393Y-117818810D01*
X165772212Y-117762408D01*
X165767992Y-117691537D01*
X165781665Y-117656787D01*
X165887229Y-117473946D01*
X165896385Y-117460242D01*
X165915154Y-117435782D01*
X166065380Y-117240004D01*
X166074927Y-117228954D01*
X166170397Y-117130610D01*
X166171647Y-117129343D01*
X167276899Y-116024091D01*
X167339211Y-115990065D01*
X167410026Y-115995130D01*
X167466862Y-116037677D01*
X167491673Y-116104197D01*
X167488835Y-116141223D01*
X167481363Y-116173961D01*
X167475226Y-116191470D01*
X167475330Y-116191505D01*
X167472803Y-116199024D01*
X167469358Y-116206157D01*
X167468256Y-116211633D01*
X167467953Y-116214323D01*
X167467952Y-116214329D01*
X167464652Y-116243621D01*
X167463364Y-116251203D01*
X167462745Y-116255535D01*
X167461586Y-116260612D01*
X167461277Y-116265807D01*
X167460494Y-116278953D01*
X167459925Y-116285572D01*
X167431874Y-116534526D01*
X167428015Y-116550889D01*
X167428585Y-116551020D01*
X167426812Y-116558753D01*
X167424084Y-116566199D01*
X167423528Y-116571757D01*
X167423280Y-116590271D01*
X167423087Y-116604611D01*
X167402172Y-116672457D01*
X167379928Y-116697868D01*
X167315766Y-116753841D01*
X167315762Y-116753846D01*
X167310039Y-116758838D01*
X167218950Y-116888444D01*
X167161406Y-117036037D01*
X167160414Y-117043570D01*
X167160414Y-117043571D01*
X167149033Y-117130023D01*
X167140729Y-117193096D01*
X167145267Y-117234201D01*
X167157210Y-117342371D01*
X167158113Y-117350553D01*
X167160723Y-117357684D01*
X167160723Y-117357686D01*
X167201739Y-117469767D01*
X167212553Y-117499319D01*
X167216788Y-117505622D01*
X167216792Y-117505629D01*
X167231194Y-117527061D01*
X167252587Y-117594758D01*
X167233983Y-117663274D01*
X167191036Y-117705622D01*
X167032978Y-117799656D01*
X167032977Y-117799657D01*
X167028010Y-117802612D01*
X167023670Y-117806418D01*
X167023666Y-117806421D01*
X166879733Y-117932648D01*
X166875392Y-117936455D01*
X166749720Y-118095869D01*
X166747031Y-118100980D01*
X166747029Y-118100983D01*
X166728979Y-118135291D01*
X166655203Y-118275515D01*
X166595007Y-118469378D01*
X166571148Y-118670964D01*
X166584424Y-118873522D01*
X166585845Y-118879118D01*
X166585846Y-118879123D01*
X166604863Y-118954000D01*
X166634392Y-119070269D01*
X166636809Y-119075512D01*
X166712635Y-119239992D01*
X166719377Y-119254616D01*
X166836533Y-119420389D01*
X166840675Y-119424424D01*
X166897637Y-119479913D01*
X166981938Y-119562035D01*
X167150720Y-119674812D01*
X167156023Y-119677090D01*
X167156026Y-119677092D01*
X167244707Y-119715192D01*
X167337228Y-119754942D01*
X167410244Y-119771464D01*
X167529579Y-119798467D01*
X167529584Y-119798468D01*
X167535216Y-119799742D01*
X167540987Y-119799969D01*
X167540989Y-119799969D01*
X167600756Y-119802317D01*
X167738053Y-119807712D01*
X167838499Y-119793148D01*
X167933231Y-119779413D01*
X167933236Y-119779412D01*
X167938945Y-119778584D01*
X167944409Y-119776729D01*
X167944414Y-119776728D01*
X168125693Y-119715192D01*
X168125698Y-119715190D01*
X168131165Y-119713334D01*
X168308276Y-119614147D01*
X168370934Y-119562035D01*
X168459913Y-119488031D01*
X168464345Y-119484345D01*
X168528065Y-119407731D01*
X168590453Y-119332718D01*
X168590455Y-119332715D01*
X168594147Y-119328276D01*
X168693334Y-119151165D01*
X168695190Y-119145698D01*
X168695192Y-119145693D01*
X168756728Y-118964414D01*
X168756729Y-118964409D01*
X168758584Y-118958945D01*
X168759412Y-118953236D01*
X168759413Y-118953231D01*
X168787179Y-118761727D01*
X168787712Y-118758053D01*
X168789232Y-118700000D01*
X168772808Y-118521254D01*
X168771187Y-118503613D01*
X168771186Y-118503610D01*
X168770658Y-118497859D01*
X168769090Y-118492299D01*
X168717125Y-118308046D01*
X168717124Y-118308044D01*
X168715557Y-118302487D01*
X168704978Y-118281033D01*
X168628331Y-118125609D01*
X168625776Y-118120428D01*
X168504320Y-117957779D01*
X168355258Y-117819987D01*
X168350375Y-117816906D01*
X168350367Y-117816900D01*
X168334425Y-117806842D01*
X168287486Y-117753576D01*
X168276796Y-117683389D01*
X168299337Y-117626754D01*
X168313618Y-117606880D01*
X168377755Y-117517624D01*
X168436842Y-117370641D01*
X168447913Y-117292848D01*
X168458581Y-117217891D01*
X168458581Y-117217888D01*
X168459162Y-117213807D01*
X168459307Y-117200000D01*
X168440276Y-117042733D01*
X168384280Y-116894546D01*
X168294553Y-116763992D01*
X168288769Y-116758838D01*
X168229892Y-116706382D01*
X168192336Y-116646132D01*
X168188502Y-116598197D01*
X168212521Y-116385029D01*
X168214888Y-116371099D01*
X168274609Y-116109448D01*
X168278521Y-116095871D01*
X168367154Y-115842570D01*
X168372561Y-115829516D01*
X168489000Y-115587727D01*
X168495835Y-115575360D01*
X168638617Y-115348125D01*
X168646793Y-115336601D01*
X168722533Y-115241626D01*
X168816248Y-115124111D01*
X168824462Y-115114795D01*
X168918112Y-115018597D01*
X168919300Y-115017394D01*
X169180962Y-114755732D01*
X169210300Y-114734939D01*
X169210257Y-114734872D01*
X169211816Y-114733865D01*
X169215516Y-114731243D01*
X169216923Y-114730568D01*
X169216929Y-114730564D01*
X169224068Y-114727136D01*
X169227150Y-114724545D01*
X169228981Y-114723630D01*
X169233200Y-114719970D01*
X169234544Y-114718583D01*
X169238666Y-114716359D01*
X169240736Y-114714120D01*
X169243368Y-114712646D01*
X169249526Y-114705772D01*
X169276566Y-114675588D01*
X169281324Y-114670561D01*
X169293480Y-114658406D01*
X169294956Y-114656340D01*
X169296199Y-114654969D01*
X169321365Y-114629003D01*
X169360182Y-114602028D01*
X169368863Y-114599823D01*
X169376189Y-114595038D01*
X169376235Y-114595019D01*
X169376870Y-114594715D01*
X169385276Y-114592153D01*
X169388336Y-114589942D01*
X169391924Y-114588772D01*
X169412001Y-114573665D01*
X169427909Y-114563469D01*
X169450028Y-114551535D01*
X169457096Y-114543888D01*
X169463157Y-114539187D01*
X169468003Y-114535070D01*
X169474641Y-114530735D01*
X169478411Y-114526614D01*
X169479304Y-114525451D01*
X169482801Y-114521688D01*
X169487683Y-114518161D01*
X169489861Y-114515079D01*
X169492878Y-114512809D01*
X169496366Y-114508446D01*
X169497871Y-114506189D01*
X169497878Y-114506179D01*
X169507666Y-114491498D01*
X169519972Y-114475870D01*
X169535788Y-114458760D01*
X169539998Y-114449238D01*
X169545717Y-114440532D01*
X169546076Y-114440768D01*
X169552188Y-114430467D01*
X169637606Y-114319146D01*
X169668667Y-114290357D01*
X169690928Y-114275818D01*
X169690934Y-114275813D01*
X169697562Y-114271484D01*
X169701332Y-114267363D01*
X169702995Y-114265196D01*
X169703792Y-114264245D01*
X169706211Y-114262084D01*
X169710610Y-114258906D01*
X169712050Y-114256869D01*
X169724204Y-114246012D01*
X169726678Y-114244907D01*
X169727583Y-114244064D01*
X169728727Y-114243544D01*
X169735993Y-114236687D01*
X169735995Y-114236685D01*
X169765980Y-114208384D01*
X169770386Y-114204417D01*
X169803353Y-114176112D01*
X169803355Y-114176110D01*
X169809366Y-114170949D01*
X169810024Y-114170008D01*
X169810431Y-114169655D01*
X169813610Y-114165062D01*
X169814959Y-114162702D01*
X169815010Y-114162620D01*
X169819122Y-114158790D01*
X169819728Y-114157657D01*
X169820608Y-114156826D01*
X169825209Y-114148083D01*
X169825212Y-114148079D01*
X169845520Y-114109487D01*
X169847885Y-114105199D01*
X169862303Y-114080226D01*
X169863211Y-114078654D01*
X169886062Y-114049821D01*
X169889483Y-114046608D01*
X169898140Y-114040822D01*
X169904459Y-114032540D01*
X169911969Y-114025486D01*
X169914289Y-114023070D01*
X169914178Y-114022966D01*
X169919596Y-114017178D01*
X169925698Y-114012115D01*
X169928974Y-114007591D01*
X169930365Y-114005273D01*
X169930378Y-114005253D01*
X169940982Y-113987578D01*
X169966947Y-113956806D01*
X169974586Y-113950247D01*
X169974589Y-113950244D01*
X169980603Y-113945080D01*
X169983803Y-113940501D01*
X169985173Y-113938127D01*
X169986567Y-113935937D01*
X169986645Y-113935863D01*
X169986784Y-113935952D01*
X169987176Y-113935362D01*
X169991902Y-113930901D01*
X170016998Y-113883200D01*
X170019386Y-113878869D01*
X170024136Y-113870641D01*
X170025806Y-113867749D01*
X170044737Y-113842760D01*
X170046214Y-113841246D01*
X170052419Y-113836309D01*
X170055788Y-113831853D01*
X170072918Y-113804591D01*
X170077365Y-113798324D01*
X170079810Y-113794679D01*
X170083047Y-113790619D01*
X170092000Y-113774549D01*
X170095372Y-113768855D01*
X170131478Y-113711392D01*
X170141923Y-113697105D01*
X170145156Y-113693279D01*
X170153094Y-113686535D01*
X170170257Y-113657683D01*
X170173582Y-113652778D01*
X170173501Y-113652726D01*
X170176321Y-113648346D01*
X170179479Y-113644230D01*
X170188566Y-113627177D01*
X170191468Y-113622027D01*
X170197938Y-113611152D01*
X170212368Y-113591508D01*
X170213310Y-113590456D01*
X170218601Y-113584550D01*
X170221176Y-113579594D01*
X170222217Y-113577081D01*
X170223319Y-113574715D01*
X170223400Y-113574615D01*
X170223544Y-113574682D01*
X170223843Y-113574072D01*
X170227943Y-113569038D01*
X170231550Y-113559266D01*
X170236713Y-113550217D01*
X170237400Y-113550609D01*
X170247841Y-113531818D01*
X170252758Y-113526912D01*
X170255607Y-113522107D01*
X170269573Y-113493106D01*
X170273303Y-113486358D01*
X170275318Y-113482473D01*
X170278080Y-113478078D01*
X170285175Y-113461113D01*
X170287897Y-113455058D01*
X170398327Y-113225747D01*
X170408207Y-113210042D01*
X170408113Y-113209985D01*
X170412247Y-113203222D01*
X170417197Y-113197029D01*
X170419490Y-113191935D01*
X170430123Y-113161547D01*
X170433062Y-113154452D01*
X170434638Y-113150346D01*
X170436891Y-113145667D01*
X170438344Y-113140686D01*
X170438348Y-113140676D01*
X170442037Y-113128031D01*
X170444065Y-113121705D01*
X170528132Y-112881456D01*
X170536192Y-112864745D01*
X170536091Y-112864698D01*
X170539441Y-112857518D01*
X170543667Y-112850808D01*
X170545375Y-112845490D01*
X170552539Y-112814104D01*
X170554667Y-112806715D01*
X170555769Y-112802474D01*
X170557487Y-112797564D01*
X170560626Y-112779459D01*
X170561933Y-112772944D01*
X170618571Y-112524798D01*
X170624708Y-112507290D01*
X170624603Y-112507255D01*
X170627128Y-112499745D01*
X170630576Y-112492605D01*
X170631678Y-112487129D01*
X170635283Y-112455135D01*
X170636571Y-112447557D01*
X170637191Y-112443220D01*
X170638348Y-112438148D01*
X170639440Y-112419811D01*
X170640009Y-112413194D01*
X170668124Y-112163667D01*
X170671984Y-112147305D01*
X170671413Y-112147174D01*
X170673185Y-112139447D01*
X170675913Y-112131999D01*
X170676469Y-112126441D01*
X170676947Y-112090842D01*
X170677728Y-112078424D01*
X170677878Y-112077095D01*
X170678459Y-112071939D01*
X170677675Y-112057084D01*
X170677511Y-112048754D01*
X170678174Y-111999319D01*
X170678521Y-111973425D01*
X170679583Y-111964117D01*
X170679018Y-111964068D01*
X170679266Y-111961204D01*
X170679500Y-111958503D01*
X170679500Y-111901355D01*
X170679511Y-111899665D01*
X170679511Y-111899636D01*
X170679889Y-111871486D01*
X170679555Y-111869297D01*
X170679500Y-111867712D01*
X170679500Y-109803911D01*
X170679515Y-109801968D01*
X170681199Y-109692796D01*
X170682262Y-109678293D01*
X170711262Y-109458017D01*
X170714477Y-109441852D01*
X170770971Y-109231011D01*
X170776269Y-109215404D01*
X170859799Y-109013744D01*
X170867089Y-108998962D01*
X170976221Y-108809941D01*
X170985377Y-108796237D01*
X171102680Y-108643363D01*
X171120639Y-108619958D01*
X171130142Y-108608953D01*
X171165671Y-108572311D01*
X171166546Y-108571445D01*
X171167148Y-108570922D01*
X171209188Y-108527431D01*
X171230793Y-108505150D01*
X171230942Y-108504933D01*
X171231023Y-108504842D01*
X171248226Y-108487047D01*
X171260822Y-108474017D01*
X171279770Y-108457943D01*
X171284097Y-108454952D01*
X171284103Y-108454947D01*
X171290625Y-108450439D01*
X171294286Y-108446220D01*
X171312376Y-108421322D01*
X171314814Y-108418161D01*
X171317641Y-108415237D01*
X171325340Y-108404068D01*
X171346514Y-108383521D01*
X171345037Y-108381897D01*
X171352740Y-108374888D01*
X171361492Y-108369238D01*
X171382291Y-108342857D01*
X171386241Y-108338412D01*
X171386168Y-108338350D01*
X171389521Y-108334393D01*
X171393204Y-108330710D01*
X171404420Y-108315014D01*
X171407981Y-108310273D01*
X171433263Y-108278206D01*
X171433265Y-108278202D01*
X171439713Y-108270024D01*
X171442749Y-108261380D01*
X171448080Y-108253920D01*
X171451063Y-108243944D01*
X171455646Y-108234589D01*
X171457424Y-108235460D01*
X171471469Y-108208944D01*
X171476799Y-108203859D01*
X171479755Y-108199119D01*
X171493347Y-108172443D01*
X171493843Y-108171553D01*
X171494673Y-108170411D01*
X171509251Y-108141237D01*
X171509685Y-108140378D01*
X171528187Y-108104066D01*
X171599365Y-107964370D01*
X171611470Y-107945128D01*
X171617294Y-107937498D01*
X171617296Y-107937494D01*
X171622106Y-107931192D01*
X171624284Y-107926048D01*
X171625121Y-107923472D01*
X171625127Y-107923456D01*
X171633535Y-107897580D01*
X171633892Y-107896607D01*
X171634529Y-107895356D01*
X171635652Y-107891805D01*
X171635656Y-107891794D01*
X171644325Y-107864380D01*
X171644628Y-107863434D01*
X171650429Y-107845582D01*
X171705704Y-107675466D01*
X171714648Y-107654574D01*
X171719212Y-107646116D01*
X171719212Y-107646115D01*
X171722972Y-107639147D01*
X171724319Y-107633726D01*
X171724741Y-107631059D01*
X171724744Y-107631046D01*
X171729001Y-107604162D01*
X171729200Y-107603153D01*
X171729635Y-107601814D01*
X171734456Y-107569751D01*
X171734606Y-107568775D01*
X171756606Y-107429870D01*
X171764860Y-107377755D01*
X171771151Y-107353709D01*
X171775732Y-107341340D01*
X171776308Y-107335784D01*
X171776830Y-107305022D01*
X171777013Y-107301017D01*
X171777649Y-107297003D01*
X171777445Y-107271012D01*
X171777459Y-107267914D01*
X171778261Y-107220667D01*
X171779426Y-107210551D01*
X171779018Y-107210516D01*
X171779266Y-107207652D01*
X171779500Y-107204951D01*
X171779500Y-107148660D01*
X171779518Y-107146523D01*
X171779892Y-107124483D01*
X171779892Y-107124481D01*
X171779980Y-107119283D01*
X171779571Y-107116537D01*
X171779500Y-107114378D01*
X171779500Y-105369108D01*
X171780582Y-105357750D01*
X171780390Y-105357738D01*
X171780573Y-105354894D01*
X171780749Y-105352164D01*
X171780641Y-105347265D01*
X171779531Y-105297184D01*
X171779500Y-105294393D01*
X171779500Y-105268476D01*
X171779878Y-105268476D01*
X171780749Y-105245121D01*
X171782737Y-105232566D01*
X171781116Y-105222332D01*
X171780043Y-105213597D01*
X171778649Y-105197655D01*
X171766943Y-105063855D01*
X171723111Y-104900271D01*
X171720790Y-104895294D01*
X171720788Y-104895288D01*
X171653864Y-104751770D01*
X171651539Y-104746783D01*
X171554401Y-104608056D01*
X171434649Y-104488304D01*
X171430141Y-104485147D01*
X171430138Y-104485145D01*
X171373360Y-104445389D01*
X171295922Y-104391166D01*
X171228419Y-104359689D01*
X171147417Y-104321917D01*
X171147411Y-104321915D01*
X171142434Y-104319594D01*
X171137126Y-104318172D01*
X171137124Y-104318171D01*
X171086124Y-104304506D01*
X170978850Y-104275762D01*
X170927565Y-104271275D01*
X170888758Y-104267880D01*
X170880374Y-104266616D01*
X170876289Y-104265181D01*
X170870724Y-104264699D01*
X170857902Y-104264699D01*
X170846923Y-104264220D01*
X170834667Y-104263148D01*
X170829104Y-104262661D01*
X170820373Y-104261589D01*
X170819931Y-104261519D01*
X170810139Y-104259968D01*
X170793130Y-104262662D01*
X170790062Y-104263148D01*
X170770351Y-104264699D01*
X169904222Y-104264699D01*
X169898648Y-104264348D01*
X169892421Y-104262486D01*
X169838564Y-104264602D01*
X169833617Y-104264699D01*
X163509721Y-104264699D01*
X163485774Y-104262150D01*
X163484108Y-104262071D01*
X163473925Y-104259879D01*
X163463583Y-104261103D01*
X163463580Y-104261103D01*
X163440588Y-104263825D01*
X163434647Y-104264176D01*
X163434655Y-104264271D01*
X163429475Y-104264699D01*
X163424277Y-104264699D01*
X163419155Y-104265552D01*
X163419150Y-104265552D01*
X163405228Y-104267870D01*
X163399351Y-104268707D01*
X163392850Y-104269476D01*
X163358798Y-104273506D01*
X163358796Y-104273507D01*
X163348460Y-104274730D01*
X163340211Y-104278691D01*
X163331175Y-104280195D01*
X163322006Y-104285142D01*
X163322004Y-104285143D01*
X163286041Y-104304547D01*
X163280752Y-104307242D01*
X163250192Y-104321917D01*
X163234569Y-104329419D01*
X163230293Y-104333013D01*
X163228353Y-104334953D01*
X163226442Y-104336706D01*
X163226352Y-104336755D01*
X163226240Y-104336632D01*
X163225705Y-104337104D01*
X163219987Y-104340189D01*
X163212920Y-104347834D01*
X163183385Y-104379785D01*
X163179955Y-104383351D01*
X163094595Y-104468711D01*
X163032283Y-104502737D01*
X162961468Y-104497672D01*
X162904632Y-104455125D01*
X162879821Y-104388605D01*
X162879500Y-104379616D01*
X162879500Y-101794730D01*
X162899502Y-101726609D01*
X162923669Y-101698919D01*
X162979536Y-101651204D01*
X162985314Y-101646269D01*
X163077755Y-101517624D01*
X163136842Y-101370641D01*
X163159162Y-101213807D01*
X163159307Y-101200000D01*
X163140276Y-101042733D01*
X163084280Y-100894546D01*
X163041984Y-100833005D01*
X162998855Y-100770251D01*
X162998854Y-100770249D01*
X162994553Y-100763992D01*
X162890301Y-100671108D01*
X164841117Y-100671108D01*
X164841489Y-100678567D01*
X164841489Y-100678575D01*
X164857030Y-100990740D01*
X164857628Y-101002761D01*
X164858269Y-101006492D01*
X164858270Y-101006500D01*
X164901451Y-101257793D01*
X164913863Y-101330028D01*
X164914951Y-101333667D01*
X164914952Y-101333670D01*
X164998100Y-101611697D01*
X165009007Y-101648169D01*
X165141683Y-101952575D01*
X165143606Y-101955847D01*
X165143608Y-101955850D01*
X165197797Y-102048029D01*
X165309968Y-102238838D01*
X165312269Y-102241853D01*
X165509125Y-102499797D01*
X165509130Y-102499803D01*
X165511425Y-102502810D01*
X165514069Y-102505524D01*
X165713028Y-102709760D01*
X165743136Y-102740667D01*
X165817136Y-102800271D01*
X165998791Y-102946587D01*
X165998796Y-102946591D01*
X166001744Y-102948965D01*
X166283503Y-103124686D01*
X166584332Y-103265285D01*
X166899873Y-103368725D01*
X167225556Y-103433507D01*
X167229328Y-103433794D01*
X167229336Y-103433795D01*
X167552886Y-103458407D01*
X167552891Y-103458407D01*
X167556663Y-103458694D01*
X167888398Y-103443920D01*
X167892136Y-103443298D01*
X167892144Y-103443297D01*
X168212213Y-103390022D01*
X168212215Y-103390021D01*
X168215955Y-103389399D01*
X168534589Y-103295922D01*
X168538056Y-103294432D01*
X168538060Y-103294431D01*
X168836202Y-103166339D01*
X168836204Y-103166338D01*
X168839686Y-103164842D01*
X169126826Y-102998058D01*
X169191857Y-102948965D01*
X169388822Y-102800271D01*
X169391849Y-102797986D01*
X169630917Y-102567524D01*
X169656653Y-102535913D01*
X169838169Y-102312954D01*
X169840566Y-102310010D01*
X169999114Y-102058727D01*
X170015738Y-102032380D01*
X170015739Y-102032377D01*
X170017760Y-102029175D01*
X170019383Y-102025749D01*
X170019387Y-102025742D01*
X170143971Y-101762775D01*
X170159932Y-101729086D01*
X170169997Y-101698919D01*
X170256214Y-101440491D01*
X170265022Y-101414091D01*
X170331509Y-101088751D01*
X170358429Y-100757781D01*
X170359034Y-100700000D01*
X170357743Y-100678575D01*
X170339279Y-100372316D01*
X170339279Y-100372312D01*
X170339051Y-100368538D01*
X170319147Y-100259556D01*
X170280072Y-100045600D01*
X170280071Y-100045596D01*
X170279392Y-100041878D01*
X170271848Y-100017580D01*
X170208243Y-99812740D01*
X170180922Y-99724751D01*
X170170446Y-99701385D01*
X170050450Y-99433759D01*
X170045066Y-99421750D01*
X169927646Y-99226716D01*
X169875751Y-99140519D01*
X169875747Y-99140513D01*
X169873792Y-99137266D01*
X169871465Y-99134282D01*
X169871460Y-99134275D01*
X169671918Y-98878413D01*
X169671916Y-98878410D01*
X169669582Y-98875418D01*
X169435393Y-98640000D01*
X169408215Y-98618574D01*
X169177599Y-98436771D01*
X169174618Y-98434421D01*
X168891034Y-98261661D01*
X168770436Y-98206828D01*
X168592201Y-98125789D01*
X168592193Y-98125786D01*
X168588749Y-98124220D01*
X168272142Y-98024090D01*
X168127351Y-97996862D01*
X167949523Y-97963422D01*
X167949518Y-97963421D01*
X167945799Y-97962722D01*
X167614446Y-97941004D01*
X167610666Y-97941212D01*
X167610665Y-97941212D01*
X167513980Y-97946533D01*
X167282884Y-97959251D01*
X167279157Y-97959912D01*
X167279153Y-97959912D01*
X167017527Y-98006279D01*
X166955916Y-98017198D01*
X166952291Y-98018303D01*
X166952286Y-98018304D01*
X166704261Y-98093897D01*
X166638278Y-98114007D01*
X166334570Y-98248275D01*
X166221281Y-98315675D01*
X166052448Y-98416120D01*
X166052442Y-98416124D01*
X166049193Y-98418057D01*
X166046201Y-98420365D01*
X166046197Y-98420368D01*
X165948781Y-98495524D01*
X165786279Y-98620893D01*
X165783577Y-98623553D01*
X165783570Y-98623559D01*
X165608495Y-98795906D01*
X165549638Y-98853846D01*
X165547274Y-98856813D01*
X165547271Y-98856816D01*
X165345062Y-99110573D01*
X165342697Y-99113541D01*
X165168454Y-99396216D01*
X165029432Y-99697778D01*
X165028273Y-99701378D01*
X165028270Y-99701385D01*
X164928808Y-100010247D01*
X164927646Y-100013856D01*
X164926927Y-100017572D01*
X164926925Y-100017580D01*
X164865289Y-100336155D01*
X164865288Y-100336164D01*
X164864570Y-100339874D01*
X164864303Y-100343650D01*
X164864302Y-100343655D01*
X164841644Y-100663664D01*
X164841117Y-100671108D01*
X162890301Y-100671108D01*
X162876275Y-100658611D01*
X162868889Y-100654700D01*
X162742988Y-100588039D01*
X162742989Y-100588039D01*
X162736274Y-100584484D01*
X162582633Y-100545892D01*
X162575034Y-100545852D01*
X162575033Y-100545852D01*
X162509181Y-100545507D01*
X162424221Y-100545062D01*
X162416841Y-100546834D01*
X162416839Y-100546834D01*
X162277563Y-100580271D01*
X162277560Y-100580272D01*
X162270184Y-100582043D01*
X162129414Y-100654700D01*
X162010039Y-100758838D01*
X161918950Y-100888444D01*
X161916190Y-100895524D01*
X161879067Y-100990740D01*
X161861406Y-101036037D01*
X161860414Y-101043570D01*
X161860414Y-101043571D01*
X161846708Y-101147682D01*
X161840729Y-101193096D01*
X161858113Y-101350553D01*
X161912553Y-101499319D01*
X162000908Y-101630805D01*
X162006527Y-101635918D01*
X162006528Y-101635919D01*
X162079299Y-101702135D01*
X162116222Y-101762775D01*
X162120500Y-101795329D01*
X162120500Y-105004104D01*
X162097587Y-105076555D01*
X162033578Y-105167631D01*
X162018950Y-105188444D01*
X162017592Y-105191928D01*
X161968930Y-105241339D01*
X161951733Y-105249272D01*
X161904739Y-105266799D01*
X161904734Y-105266801D01*
X161900528Y-105268370D01*
X161896584Y-105270523D01*
X161896583Y-105270524D01*
X161769283Y-105340035D01*
X161689674Y-105383505D01*
X161686065Y-105386206D01*
X161686066Y-105386206D01*
X161515612Y-105513807D01*
X161497352Y-105527476D01*
X161469095Y-105555733D01*
X161406783Y-105589759D01*
X161335968Y-105584694D01*
X161279132Y-105542147D01*
X161254321Y-105475627D01*
X161254000Y-105466638D01*
X161254000Y-94380000D01*
X161274002Y-94311879D01*
X161327658Y-94265386D01*
X161380000Y-94254000D01*
X163284286Y-94254000D01*
X163352407Y-94274002D01*
G37*
%TD.AperFunction*%
%TA.AperFunction,Conductor*%
G36*
X167863417Y-107140047D02*
G01*
X167922213Y-107179841D01*
X167950161Y-107245105D01*
X167938388Y-107315119D01*
X167914147Y-107349159D01*
X166420448Y-108842858D01*
X166405415Y-108855698D01*
X166388969Y-108867647D01*
X166384201Y-108874210D01*
X166380405Y-108878352D01*
X166380285Y-108878418D01*
X166379975Y-108878742D01*
X166379370Y-108879482D01*
X166153595Y-109125871D01*
X166151928Y-109128043D01*
X166151925Y-109128047D01*
X165947403Y-109394586D01*
X165940918Y-109403037D01*
X165753208Y-109697683D01*
X165591891Y-110007569D01*
X165458197Y-110330335D01*
X165457371Y-110332955D01*
X165457368Y-110332963D01*
X165353972Y-110660894D01*
X165353143Y-110663524D01*
X165277528Y-111004603D01*
X165277170Y-111007324D01*
X165277168Y-111007334D01*
X165267660Y-111079553D01*
X165238937Y-111144480D01*
X165225568Y-111158055D01*
X165110039Y-111258838D01*
X165018950Y-111388444D01*
X164961406Y-111536037D01*
X164940729Y-111693096D01*
X164947841Y-111757510D01*
X164956154Y-111832808D01*
X164958113Y-111850553D01*
X164960723Y-111857684D01*
X164960723Y-111857686D01*
X164997617Y-111958503D01*
X165012553Y-111999319D01*
X165016789Y-112005622D01*
X165016789Y-112005623D01*
X165093338Y-112119539D01*
X165100908Y-112130805D01*
X165106527Y-112135918D01*
X165106528Y-112135919D01*
X165187372Y-112209481D01*
X165218076Y-112237419D01*
X165357293Y-112313008D01*
X165510522Y-112353207D01*
X165594477Y-112354526D01*
X165661319Y-112355576D01*
X165661322Y-112355576D01*
X165668916Y-112355695D01*
X165823332Y-112320329D01*
X165915778Y-112273834D01*
X165958072Y-112252563D01*
X165958075Y-112252561D01*
X165964855Y-112249151D01*
X165970626Y-112244222D01*
X165970629Y-112244220D01*
X166079536Y-112151204D01*
X166079536Y-112151203D01*
X166085314Y-112146269D01*
X166177755Y-112017624D01*
X166236842Y-111870641D01*
X166251531Y-111767428D01*
X166258581Y-111717891D01*
X166258581Y-111717888D01*
X166259162Y-111713807D01*
X166259307Y-111700000D01*
X166240276Y-111542733D01*
X166184280Y-111394546D01*
X166175814Y-111382228D01*
X166098855Y-111270251D01*
X166098854Y-111270249D01*
X166094553Y-111263992D01*
X166088887Y-111258944D01*
X166088881Y-111258937D01*
X166073014Y-111244801D01*
X166035458Y-111184552D01*
X166032196Y-111132235D01*
X166040883Y-111073675D01*
X166043295Y-111061549D01*
X166117587Y-110764958D01*
X166121176Y-110753125D01*
X166224184Y-110465237D01*
X166228916Y-110453813D01*
X166359645Y-110177411D01*
X166365474Y-110166506D01*
X166522666Y-109904247D01*
X166529529Y-109893975D01*
X166711686Y-109648364D01*
X166719513Y-109638828D01*
X166904931Y-109434253D01*
X166924222Y-109416939D01*
X166924332Y-109416859D01*
X166924333Y-109416858D01*
X166932353Y-109411031D01*
X166944302Y-109394585D01*
X166957142Y-109379552D01*
X168746178Y-107590516D01*
X168808490Y-107556490D01*
X168837253Y-107553627D01*
X168871169Y-107554160D01*
X168938967Y-107575230D01*
X168984611Y-107629609D01*
X168993609Y-107700033D01*
X168963105Y-107764143D01*
X168926976Y-107792111D01*
X168920872Y-107795261D01*
X168920868Y-107795264D01*
X168914125Y-107798744D01*
X168794750Y-107902882D01*
X168703661Y-108032488D01*
X168700901Y-108039568D01*
X168649089Y-108172459D01*
X168646117Y-108180081D01*
X168645125Y-108187614D01*
X168645125Y-108187615D01*
X168626844Y-108326478D01*
X168625440Y-108337140D01*
X168642824Y-108494597D01*
X168645434Y-108501728D01*
X168645434Y-108501730D01*
X168688700Y-108619960D01*
X168697264Y-108643363D01*
X168785619Y-108774849D01*
X168791238Y-108779962D01*
X168791239Y-108779963D01*
X168902787Y-108881463D01*
X168900950Y-108883482D01*
X168936932Y-108929152D01*
X168946000Y-108976087D01*
X168946000Y-111757510D01*
X168944449Y-111777220D01*
X168941269Y-111797298D01*
X168942821Y-111807095D01*
X168942821Y-111809353D01*
X168944006Y-111832808D01*
X168933515Y-112019615D01*
X168931934Y-112033651D01*
X168923273Y-112084622D01*
X168895820Y-112246201D01*
X168892676Y-112259976D01*
X168887212Y-112278942D01*
X168832990Y-112467152D01*
X168828329Y-112480472D01*
X168791041Y-112570493D01*
X168745823Y-112679659D01*
X168739694Y-112692385D01*
X168721768Y-112724821D01*
X168635405Y-112881081D01*
X168627888Y-112893044D01*
X168518125Y-113047743D01*
X168503135Y-113068869D01*
X168494326Y-113079915D01*
X168492425Y-113082043D01*
X168369647Y-113219431D01*
X168352220Y-113235181D01*
X168350623Y-113236778D01*
X168342604Y-113242604D01*
X168336777Y-113250624D01*
X168330656Y-113259049D01*
X168317815Y-113274083D01*
X164040715Y-117551183D01*
X163978403Y-117585209D01*
X163907588Y-117580144D01*
X163850793Y-117537653D01*
X163818281Y-117494272D01*
X163805724Y-117481715D01*
X163703649Y-117405214D01*
X163688054Y-117396676D01*
X163567606Y-117351522D01*
X163552351Y-117347895D01*
X163501486Y-117342369D01*
X163494672Y-117342000D01*
X162872115Y-117342000D01*
X162856876Y-117346475D01*
X162855671Y-117347865D01*
X162854000Y-117355548D01*
X162854000Y-118828000D01*
X162833998Y-118896121D01*
X162780342Y-118942614D01*
X162728000Y-118954000D01*
X162472000Y-118954000D01*
X162403879Y-118933998D01*
X162357386Y-118880342D01*
X162346000Y-118828000D01*
X162346000Y-117360116D01*
X162341525Y-117344877D01*
X162340135Y-117343672D01*
X162332452Y-117342001D01*
X161705331Y-117342001D01*
X161698510Y-117342371D01*
X161647648Y-117347895D01*
X161632396Y-117351521D01*
X161511946Y-117396676D01*
X161496352Y-117405214D01*
X161455565Y-117435782D01*
X161389059Y-117460630D01*
X161319676Y-117445577D01*
X161269446Y-117395403D01*
X161254000Y-117334956D01*
X161254000Y-113733362D01*
X161274002Y-113665241D01*
X161327658Y-113618748D01*
X161397932Y-113608644D01*
X161462512Y-113638138D01*
X161469095Y-113644267D01*
X161497352Y-113672524D01*
X161689674Y-113816495D01*
X161900528Y-113931630D01*
X161904740Y-113933201D01*
X162121401Y-114014011D01*
X162121405Y-114014012D01*
X162125622Y-114015585D01*
X162130025Y-114016543D01*
X162130029Y-114016544D01*
X162241634Y-114040822D01*
X162360372Y-114066652D01*
X162406318Y-114069938D01*
X162535650Y-114079188D01*
X162537507Y-114079335D01*
X162539387Y-114079497D01*
X162539324Y-114080226D01*
X162539948Y-114080438D01*
X162540015Y-114079500D01*
X162594923Y-114083427D01*
X162600000Y-114084231D01*
X162620078Y-114081051D01*
X162639788Y-114079500D01*
X165000141Y-114079500D01*
X165068262Y-114099502D01*
X165095522Y-114123169D01*
X165096672Y-114124501D01*
X165100908Y-114130805D01*
X165218076Y-114237419D01*
X165357293Y-114313008D01*
X165510522Y-114353207D01*
X165594477Y-114354526D01*
X165661319Y-114355576D01*
X165661322Y-114355576D01*
X165668916Y-114355695D01*
X165823332Y-114320329D01*
X165911833Y-114275818D01*
X165958072Y-114252563D01*
X165958075Y-114252561D01*
X165964855Y-114249151D01*
X165970626Y-114244222D01*
X165970629Y-114244220D01*
X166079536Y-114151204D01*
X166079536Y-114151203D01*
X166085314Y-114146269D01*
X166177755Y-114017624D01*
X166236842Y-113870641D01*
X166259162Y-113713807D01*
X166259307Y-113700000D01*
X166240276Y-113542733D01*
X166184280Y-113394546D01*
X166130138Y-113315769D01*
X166098855Y-113270251D01*
X166098854Y-113270249D01*
X166094553Y-113263992D01*
X166070548Y-113242604D01*
X166058260Y-113231656D01*
X165976275Y-113158611D01*
X165968889Y-113154700D01*
X165842988Y-113088039D01*
X165842989Y-113088039D01*
X165836274Y-113084484D01*
X165682633Y-113045892D01*
X165675034Y-113045852D01*
X165675033Y-113045852D01*
X165609181Y-113045507D01*
X165524221Y-113045062D01*
X165516841Y-113046834D01*
X165516839Y-113046834D01*
X165377563Y-113080271D01*
X165377560Y-113080272D01*
X165370184Y-113082043D01*
X165229414Y-113154700D01*
X165110039Y-113258838D01*
X165105672Y-113265051D01*
X165105667Y-113265057D01*
X165104336Y-113266951D01*
X165103013Y-113268005D01*
X165100589Y-113270697D01*
X165100140Y-113270293D01*
X165048802Y-113311183D01*
X165001250Y-113320500D01*
X162639788Y-113320500D01*
X162620077Y-113318949D01*
X162609794Y-113317320D01*
X162609793Y-113317320D01*
X162600000Y-113315769D01*
X162590204Y-113317321D01*
X162580290Y-113317321D01*
X162580290Y-113316946D01*
X162565350Y-113317469D01*
X162451135Y-113307476D01*
X162429507Y-113303662D01*
X162295817Y-113267839D01*
X162275179Y-113260328D01*
X162149740Y-113201835D01*
X162130719Y-113190853D01*
X162017340Y-113111464D01*
X162000516Y-113097346D01*
X161902654Y-112999484D01*
X161888536Y-112982660D01*
X161809147Y-112869281D01*
X161798165Y-112850260D01*
X161739672Y-112724821D01*
X161732161Y-112704183D01*
X161696338Y-112570493D01*
X161692523Y-112548862D01*
X161686886Y-112484423D01*
X161682531Y-112434650D01*
X161683054Y-112419713D01*
X161682679Y-112419713D01*
X161682679Y-112409798D01*
X161683558Y-112404249D01*
X161683599Y-112404109D01*
X161683605Y-112403951D01*
X161684232Y-112399994D01*
X161684782Y-112400081D01*
X161702681Y-112339123D01*
X161756337Y-112292630D01*
X161826611Y-112282526D01*
X161840652Y-112285368D01*
X161927671Y-112308197D01*
X161927675Y-112308198D01*
X161935022Y-112310125D01*
X162018977Y-112311444D01*
X162085819Y-112312494D01*
X162085822Y-112312494D01*
X162093416Y-112312613D01*
X162247832Y-112277247D01*
X162337182Y-112232309D01*
X162382572Y-112209481D01*
X162382575Y-112209479D01*
X162389355Y-112206069D01*
X162395128Y-112201138D01*
X162395133Y-112201135D01*
X162456679Y-112148570D01*
X162521469Y-112119539D01*
X162591669Y-112130144D01*
X162623307Y-112151186D01*
X162718076Y-112237419D01*
X162857293Y-112313008D01*
X163010522Y-112353207D01*
X163094477Y-112354526D01*
X163161319Y-112355576D01*
X163161322Y-112355576D01*
X163168916Y-112355695D01*
X163323332Y-112320329D01*
X163415778Y-112273834D01*
X163458072Y-112252563D01*
X163458075Y-112252561D01*
X163464855Y-112249151D01*
X163470626Y-112244222D01*
X163470629Y-112244220D01*
X163579536Y-112151204D01*
X163579536Y-112151203D01*
X163585314Y-112146269D01*
X163677755Y-112017624D01*
X163736842Y-111870641D01*
X163751531Y-111767428D01*
X163758581Y-111717891D01*
X163758581Y-111717888D01*
X163759162Y-111713807D01*
X163759307Y-111700000D01*
X163740276Y-111542733D01*
X163684280Y-111394546D01*
X163675814Y-111382228D01*
X163598855Y-111270251D01*
X163598854Y-111270249D01*
X163594553Y-111263992D01*
X163588880Y-111258937D01*
X163553026Y-111226993D01*
X163521681Y-111199065D01*
X163484126Y-111138816D01*
X163479500Y-111104989D01*
X163479500Y-107439788D01*
X163481051Y-107420077D01*
X163482680Y-107409794D01*
X163482680Y-107409792D01*
X163484231Y-107400000D01*
X163482679Y-107390203D01*
X163482679Y-107389848D01*
X163484231Y-107370132D01*
X163487171Y-107351571D01*
X163499353Y-107314079D01*
X163512554Y-107288171D01*
X163535725Y-107256280D01*
X163556280Y-107235725D01*
X163588171Y-107212554D01*
X163614079Y-107199353D01*
X163651571Y-107187171D01*
X163670132Y-107184231D01*
X163689848Y-107182679D01*
X163690203Y-107182679D01*
X163700000Y-107184231D01*
X163709793Y-107182680D01*
X163709794Y-107182680D01*
X163720077Y-107181051D01*
X163739788Y-107179500D01*
X167460211Y-107179500D01*
X167479921Y-107181051D01*
X167499999Y-107184231D01*
X167509791Y-107182680D01*
X167511030Y-107182680D01*
X167514266Y-107182283D01*
X167540586Y-107179980D01*
X167551569Y-107179500D01*
X167622116Y-107179500D01*
X167627245Y-107178646D01*
X167627249Y-107178646D01*
X167704946Y-107165714D01*
X167704948Y-107165713D01*
X167715218Y-107164004D01*
X167724380Y-107159060D01*
X167734239Y-107155685D01*
X167734242Y-107155695D01*
X167747705Y-107150344D01*
X167753990Y-107148660D01*
X167792442Y-107138357D01*
X167863417Y-107140047D01*
G37*
%TD.AperFunction*%
%TD*%
M02*
