%TF.GenerationSoftware,KiCad,Pcbnew,(5.1.9-0-10_14)*%
%TF.CreationDate,2021-07-20T13:18:58+01:00*%
%TF.ProjectId,Keypad,4b657970-6164-42e6-9b69-6361645f7063,5*%
%TF.SameCoordinates,Original*%
%TF.FileFunction,Legend,Top*%
%TF.FilePolarity,Positive*%
%FSLAX46Y46*%
G04 Gerber Fmt 4.6, Leading zero omitted, Abs format (unit mm)*
G04 Created by KiCad (PCBNEW (5.1.9-0-10_14)) date 2021-07-20 13:18:58*
%MOMM*%
%LPD*%
G01*
G04 APERTURE LIST*
%ADD10C,0.100000*%
%ADD11C,0.150000*%
%ADD12C,0.120000*%
%ADD13C,0.080000*%
G04 APERTURE END LIST*
D10*
X120414285Y-97578571D02*
X120566666Y-98111904D01*
X120719047Y-97730952D01*
X120871428Y-98111904D01*
X121023809Y-97578571D01*
X121252380Y-97578571D02*
X121404761Y-98111904D01*
X121557142Y-97730952D01*
X121709523Y-98111904D01*
X121861904Y-97578571D01*
X122090476Y-97578571D02*
X122242857Y-98111904D01*
X122395238Y-97730952D01*
X122547619Y-98111904D01*
X122700000Y-97578571D01*
X123004761Y-98035714D02*
X123042857Y-98073809D01*
X123004761Y-98111904D01*
X122966666Y-98073809D01*
X123004761Y-98035714D01*
X123004761Y-98111904D01*
X123385714Y-98111904D02*
X123385714Y-97578571D01*
X123385714Y-97654761D02*
X123423809Y-97616666D01*
X123500000Y-97578571D01*
X123614285Y-97578571D01*
X123690476Y-97616666D01*
X123728571Y-97692857D01*
X123728571Y-98111904D01*
X123728571Y-97692857D02*
X123766666Y-97616666D01*
X123842857Y-97578571D01*
X123957142Y-97578571D01*
X124033333Y-97616666D01*
X124071428Y-97692857D01*
X124071428Y-98111904D01*
X124757142Y-98073809D02*
X124680952Y-98111904D01*
X124528571Y-98111904D01*
X124452380Y-98073809D01*
X124414285Y-97997619D01*
X124414285Y-97692857D01*
X124452380Y-97616666D01*
X124528571Y-97578571D01*
X124680952Y-97578571D01*
X124757142Y-97616666D01*
X124795238Y-97692857D01*
X124795238Y-97769047D01*
X124414285Y-97845238D01*
X125138095Y-98035714D02*
X125176190Y-98073809D01*
X125138095Y-98111904D01*
X125100000Y-98073809D01*
X125138095Y-98035714D01*
X125138095Y-98111904D01*
X125861904Y-97578571D02*
X125861904Y-98111904D01*
X125519047Y-97578571D02*
X125519047Y-97997619D01*
X125557142Y-98073809D01*
X125633333Y-98111904D01*
X125747619Y-98111904D01*
X125823809Y-98073809D01*
X125861904Y-98035714D01*
X126242857Y-98111904D02*
X126242857Y-97311904D01*
X126319047Y-97807142D02*
X126547619Y-98111904D01*
X126547619Y-97578571D02*
X126242857Y-97883333D01*
D11*
X134000000Y-101250000D02*
X134000000Y-94600000D01*
X119900000Y-101250000D02*
X134000000Y-101250000D01*
X127161904Y-119166666D02*
X127638095Y-119166666D01*
X127066666Y-119452380D02*
X127400000Y-118452380D01*
X127733333Y-119452380D01*
X124519047Y-119071428D02*
X125280952Y-119071428D01*
X124900000Y-119452380D02*
X124900000Y-118690476D01*
X129971428Y-118928571D02*
X130114285Y-118976190D01*
X130161904Y-119023809D01*
X130209523Y-119119047D01*
X130209523Y-119261904D01*
X130161904Y-119357142D01*
X130114285Y-119404761D01*
X130019047Y-119452380D01*
X129638095Y-119452380D01*
X129638095Y-118452380D01*
X129971428Y-118452380D01*
X130066666Y-118500000D01*
X130114285Y-118547619D01*
X130161904Y-118642857D01*
X130161904Y-118738095D01*
X130114285Y-118833333D01*
X130066666Y-118880952D01*
X129971428Y-118928571D01*
X129638095Y-118928571D01*
X122019047Y-119071428D02*
X122780952Y-119071428D01*
D12*
%TO.C,U3*%
X122690000Y-102165000D02*
X122690000Y-101440000D01*
X122690000Y-101440000D02*
X123415000Y-101440000D01*
X126910000Y-104935000D02*
X126910000Y-105660000D01*
X126910000Y-105660000D02*
X126185000Y-105660000D01*
X126910000Y-102165000D02*
X126910000Y-101440000D01*
X126910000Y-101440000D02*
X126185000Y-101440000D01*
X122690000Y-104935000D02*
X122690000Y-105660000D01*
%TO.C,R5*%
X136990580Y-99290000D02*
X136709420Y-99290000D01*
X136990580Y-100310000D02*
X136709420Y-100310000D01*
%TO.C,R2*%
X129990000Y-104609420D02*
X129990000Y-104890580D01*
X131010000Y-104609420D02*
X131010000Y-104890580D01*
%TO.C,R3*%
X136990580Y-100440000D02*
X136709420Y-100440000D01*
X136990580Y-101460000D02*
X136709420Y-101460000D01*
%TO.C,R4*%
X136990580Y-98140000D02*
X136709420Y-98140000D01*
X136990580Y-99160000D02*
X136709420Y-99160000D01*
%TO.C,D2*%
X130040000Y-115235000D02*
X134100000Y-115235000D01*
X130040000Y-112965000D02*
X130040000Y-115235000D01*
X134100000Y-112965000D02*
X130040000Y-112965000D01*
%TO.C,U2*%
X132890000Y-119050000D02*
X132890000Y-121000000D01*
X132890000Y-119050000D02*
X132890000Y-117100000D01*
X138010000Y-119050000D02*
X138010000Y-121000000D01*
X138010000Y-119050000D02*
X138010000Y-115600000D01*
%TO.C,C1*%
X121210000Y-105140580D02*
X121210000Y-104859420D01*
X120190000Y-105140580D02*
X120190000Y-104859420D01*
%TO.C,R1*%
X129990000Y-109359420D02*
X129990000Y-109640580D01*
X131010000Y-109359420D02*
X131010000Y-109640580D01*
%TO.C,J1*%
X119750000Y-115600000D02*
X119750000Y-123600000D01*
X119750000Y-115600000D02*
X132450000Y-115600000D01*
X132450000Y-115600000D02*
X132450000Y-123600000D01*
%TO.C,U3*%
D13*
X121826190Y-103880952D02*
X122230952Y-103880952D01*
X122278571Y-103857142D01*
X122302380Y-103833333D01*
X122326190Y-103785714D01*
X122326190Y-103690476D01*
X122302380Y-103642857D01*
X122278571Y-103619047D01*
X122230952Y-103595238D01*
X121826190Y-103595238D01*
X121826190Y-103404761D02*
X121826190Y-103095238D01*
X122016666Y-103261904D01*
X122016666Y-103190476D01*
X122040476Y-103142857D01*
X122064285Y-103119047D01*
X122111904Y-103095238D01*
X122230952Y-103095238D01*
X122278571Y-103119047D01*
X122302380Y-103142857D01*
X122326190Y-103190476D01*
X122326190Y-103333333D01*
X122302380Y-103380952D01*
X122278571Y-103404761D01*
%TO.C,R5*%
X138676190Y-99883333D02*
X138438095Y-100050000D01*
X138676190Y-100169047D02*
X138176190Y-100169047D01*
X138176190Y-99978571D01*
X138200000Y-99930952D01*
X138223809Y-99907142D01*
X138271428Y-99883333D01*
X138342857Y-99883333D01*
X138390476Y-99907142D01*
X138414285Y-99930952D01*
X138438095Y-99978571D01*
X138438095Y-100169047D01*
X138176190Y-99430952D02*
X138176190Y-99669047D01*
X138414285Y-99692857D01*
X138390476Y-99669047D01*
X138366666Y-99621428D01*
X138366666Y-99502380D01*
X138390476Y-99454761D01*
X138414285Y-99430952D01*
X138461904Y-99407142D01*
X138580952Y-99407142D01*
X138628571Y-99430952D01*
X138652380Y-99454761D01*
X138676190Y-99502380D01*
X138676190Y-99621428D01*
X138652380Y-99669047D01*
X138628571Y-99692857D01*
%TO.C,R2*%
X130416666Y-103376190D02*
X130250000Y-103138095D01*
X130130952Y-103376190D02*
X130130952Y-102876190D01*
X130321428Y-102876190D01*
X130369047Y-102900000D01*
X130392857Y-102923809D01*
X130416666Y-102971428D01*
X130416666Y-103042857D01*
X130392857Y-103090476D01*
X130369047Y-103114285D01*
X130321428Y-103138095D01*
X130130952Y-103138095D01*
X130607142Y-102923809D02*
X130630952Y-102900000D01*
X130678571Y-102876190D01*
X130797619Y-102876190D01*
X130845238Y-102900000D01*
X130869047Y-102923809D01*
X130892857Y-102971428D01*
X130892857Y-103019047D01*
X130869047Y-103090476D01*
X130583333Y-103376190D01*
X130892857Y-103376190D01*
%TO.C,R3*%
X138676190Y-101033333D02*
X138438095Y-101200000D01*
X138676190Y-101319047D02*
X138176190Y-101319047D01*
X138176190Y-101128571D01*
X138200000Y-101080952D01*
X138223809Y-101057142D01*
X138271428Y-101033333D01*
X138342857Y-101033333D01*
X138390476Y-101057142D01*
X138414285Y-101080952D01*
X138438095Y-101128571D01*
X138438095Y-101319047D01*
X138176190Y-100866666D02*
X138176190Y-100557142D01*
X138366666Y-100723809D01*
X138366666Y-100652380D01*
X138390476Y-100604761D01*
X138414285Y-100580952D01*
X138461904Y-100557142D01*
X138580952Y-100557142D01*
X138628571Y-100580952D01*
X138652380Y-100604761D01*
X138676190Y-100652380D01*
X138676190Y-100795238D01*
X138652380Y-100842857D01*
X138628571Y-100866666D01*
%TO.C,R4*%
X138676190Y-98733333D02*
X138438095Y-98900000D01*
X138676190Y-99019047D02*
X138176190Y-99019047D01*
X138176190Y-98828571D01*
X138200000Y-98780952D01*
X138223809Y-98757142D01*
X138271428Y-98733333D01*
X138342857Y-98733333D01*
X138390476Y-98757142D01*
X138414285Y-98780952D01*
X138438095Y-98828571D01*
X138438095Y-99019047D01*
X138342857Y-98304761D02*
X138676190Y-98304761D01*
X138152380Y-98423809D02*
X138509523Y-98542857D01*
X138509523Y-98233333D01*
%TO.C,D2*%
X129726190Y-114469047D02*
X129226190Y-114469047D01*
X129226190Y-114350000D01*
X129250000Y-114278571D01*
X129297619Y-114230952D01*
X129345238Y-114207142D01*
X129440476Y-114183333D01*
X129511904Y-114183333D01*
X129607142Y-114207142D01*
X129654761Y-114230952D01*
X129702380Y-114278571D01*
X129726190Y-114350000D01*
X129726190Y-114469047D01*
X129273809Y-113992857D02*
X129250000Y-113969047D01*
X129226190Y-113921428D01*
X129226190Y-113802380D01*
X129250000Y-113754761D01*
X129273809Y-113730952D01*
X129321428Y-113707142D01*
X129369047Y-113707142D01*
X129440476Y-113730952D01*
X129726190Y-114016666D01*
X129726190Y-113707142D01*
%TO.C,D1*%
X138726190Y-96869047D02*
X138226190Y-96869047D01*
X138226190Y-96750000D01*
X138250000Y-96678571D01*
X138297619Y-96630952D01*
X138345238Y-96607142D01*
X138440476Y-96583333D01*
X138511904Y-96583333D01*
X138607142Y-96607142D01*
X138654761Y-96630952D01*
X138702380Y-96678571D01*
X138726190Y-96750000D01*
X138726190Y-96869047D01*
X138726190Y-96107142D02*
X138726190Y-96392857D01*
X138726190Y-96250000D02*
X138226190Y-96250000D01*
X138297619Y-96297619D01*
X138345238Y-96345238D01*
X138369047Y-96392857D01*
%TO.C,U2*%
X135019047Y-122726190D02*
X135019047Y-123130952D01*
X135042857Y-123178571D01*
X135066666Y-123202380D01*
X135114285Y-123226190D01*
X135209523Y-123226190D01*
X135257142Y-123202380D01*
X135280952Y-123178571D01*
X135304761Y-123130952D01*
X135304761Y-122726190D01*
X135519047Y-122773809D02*
X135542857Y-122750000D01*
X135590476Y-122726190D01*
X135709523Y-122726190D01*
X135757142Y-122750000D01*
X135780952Y-122773809D01*
X135804761Y-122821428D01*
X135804761Y-122869047D01*
X135780952Y-122940476D01*
X135495238Y-123226190D01*
X135804761Y-123226190D01*
%TO.C,C1*%
X120616666Y-106778571D02*
X120592857Y-106802380D01*
X120521428Y-106826190D01*
X120473809Y-106826190D01*
X120402380Y-106802380D01*
X120354761Y-106754761D01*
X120330952Y-106707142D01*
X120307142Y-106611904D01*
X120307142Y-106540476D01*
X120330952Y-106445238D01*
X120354761Y-106397619D01*
X120402380Y-106350000D01*
X120473809Y-106326190D01*
X120521428Y-106326190D01*
X120592857Y-106350000D01*
X120616666Y-106373809D01*
X121092857Y-106826190D02*
X120807142Y-106826190D01*
X120950000Y-106826190D02*
X120950000Y-106326190D01*
X120902380Y-106397619D01*
X120854761Y-106445238D01*
X120807142Y-106469047D01*
%TO.C,R1*%
X130416666Y-108126190D02*
X130250000Y-107888095D01*
X130130952Y-108126190D02*
X130130952Y-107626190D01*
X130321428Y-107626190D01*
X130369047Y-107650000D01*
X130392857Y-107673809D01*
X130416666Y-107721428D01*
X130416666Y-107792857D01*
X130392857Y-107840476D01*
X130369047Y-107864285D01*
X130321428Y-107888095D01*
X130130952Y-107888095D01*
X130892857Y-108126190D02*
X130607142Y-108126190D01*
X130750000Y-108126190D02*
X130750000Y-107626190D01*
X130702380Y-107697619D01*
X130654761Y-107745238D01*
X130607142Y-107769047D01*
%TO.C,Reg1*%
D10*
X120926190Y-114930238D02*
X120688095Y-115096904D01*
X120926190Y-115215952D02*
X120426190Y-115215952D01*
X120426190Y-115025476D01*
X120450000Y-114977857D01*
X120473809Y-114954047D01*
X120521428Y-114930238D01*
X120592857Y-114930238D01*
X120640476Y-114954047D01*
X120664285Y-114977857D01*
X120688095Y-115025476D01*
X120688095Y-115215952D01*
X120902380Y-114525476D02*
X120926190Y-114573095D01*
X120926190Y-114668333D01*
X120902380Y-114715952D01*
X120854761Y-114739761D01*
X120664285Y-114739761D01*
X120616666Y-114715952D01*
X120592857Y-114668333D01*
X120592857Y-114573095D01*
X120616666Y-114525476D01*
X120664285Y-114501666D01*
X120711904Y-114501666D01*
X120759523Y-114739761D01*
X120592857Y-114073095D02*
X120997619Y-114073095D01*
X121045238Y-114096904D01*
X121069047Y-114120714D01*
X121092857Y-114168333D01*
X121092857Y-114239761D01*
X121069047Y-114287380D01*
X120902380Y-114073095D02*
X120926190Y-114120714D01*
X120926190Y-114215952D01*
X120902380Y-114263571D01*
X120878571Y-114287380D01*
X120830952Y-114311190D01*
X120688095Y-114311190D01*
X120640476Y-114287380D01*
X120616666Y-114263571D01*
X120592857Y-114215952D01*
X120592857Y-114120714D01*
X120616666Y-114073095D01*
X120926190Y-113573095D02*
X120926190Y-113858809D01*
X120926190Y-113715952D02*
X120426190Y-113715952D01*
X120497619Y-113763571D01*
X120545238Y-113811190D01*
X120569047Y-113858809D01*
%TO.C,J3*%
D11*
X134252380Y-110933333D02*
X134966666Y-110933333D01*
X135109523Y-110980952D01*
X135204761Y-111076190D01*
X135252380Y-111219047D01*
X135252380Y-111314285D01*
X134252380Y-110552380D02*
X134252380Y-109933333D01*
X134633333Y-110266666D01*
X134633333Y-110123809D01*
X134680952Y-110028571D01*
X134728571Y-109980952D01*
X134823809Y-109933333D01*
X135061904Y-109933333D01*
X135157142Y-109980952D01*
X135204761Y-110028571D01*
X135252380Y-110123809D01*
X135252380Y-110409523D01*
X135204761Y-110504761D01*
X135157142Y-110552380D01*
%TO.C,J1*%
D13*
X131583333Y-115976190D02*
X131583333Y-116333333D01*
X131559523Y-116404761D01*
X131511904Y-116452380D01*
X131440476Y-116476190D01*
X131392857Y-116476190D01*
X132083333Y-116476190D02*
X131797619Y-116476190D01*
X131940476Y-116476190D02*
X131940476Y-115976190D01*
X131892857Y-116047619D01*
X131845238Y-116095238D01*
X131797619Y-116119047D01*
D11*
X121135714Y-117452380D02*
X120564285Y-117452380D01*
X120850000Y-117452380D02*
X120850000Y-116452380D01*
X120754761Y-116595238D01*
X120659523Y-116690476D01*
X120564285Y-116738095D01*
%TD*%
M02*
