%TF.GenerationSoftware,KiCad,Pcbnew,(6.0.1-0)*%
%TF.CreationDate,2022-01-25T08:04:47+00:00*%
%TF.ProjectId,Keypad,4b657970-6164-42e6-9b69-6361645f7063,5*%
%TF.SameCoordinates,Original*%
%TF.FileFunction,Soldermask,Bot*%
%TF.FilePolarity,Negative*%
%FSLAX46Y46*%
G04 Gerber Fmt 4.6, Leading zero omitted, Abs format (unit mm)*
G04 Created by KiCad (PCBNEW (6.0.1-0)) date 2022-01-25 08:04:47*
%MOMM*%
%LPD*%
G01*
G04 APERTURE LIST*
G04 Aperture macros list*
%AMRoundRect*
0 Rectangle with rounded corners*
0 $1 Rounding radius*
0 $2 $3 $4 $5 $6 $7 $8 $9 X,Y pos of 4 corners*
0 Add a 4 corners polygon primitive as box body*
4,1,4,$2,$3,$4,$5,$6,$7,$8,$9,$2,$3,0*
0 Add four circle primitives for the rounded corners*
1,1,$1+$1,$2,$3*
1,1,$1+$1,$4,$5*
1,1,$1+$1,$6,$7*
1,1,$1+$1,$8,$9*
0 Add four rect primitives between the rounded corners*
20,1,$1+$1,$2,$3,$4,$5,0*
20,1,$1+$1,$4,$5,$6,$7,0*
20,1,$1+$1,$6,$7,$8,$9,0*
20,1,$1+$1,$8,$9,$2,$3,0*%
G04 Aperture macros list end*
%ADD10C,1.500000*%
%ADD11C,1.250000*%
%ADD12O,1.700000X1.850000*%
%ADD13RoundRect,0.250000X-0.600000X-0.675000X0.600000X-0.675000X0.600000X0.675000X-0.600000X0.675000X0*%
%ADD14C,0.350000*%
%ADD15O,1.700000X1.700000*%
%ADD16R,1.700000X1.700000*%
%ADD17C,5.500000*%
%ADD18R,2.000000X0.900000*%
%ADD19R,0.900000X2.000000*%
%ADD20R,5.000000X5.000000*%
G04 APERTURE END LIST*
D10*
%TO.C,J3*%
X132620000Y-111420000D03*
D11*
X136790000Y-111420000D03*
D10*
X132620000Y-102780000D03*
D11*
X136790000Y-102780000D03*
%TD*%
D12*
%TO.C,J1*%
X129850000Y-117000000D03*
X127350000Y-117000000D03*
X124850000Y-117000000D03*
D13*
X122350000Y-117000000D03*
%TD*%
D14*
%TO.C,U3*%
X124800000Y-103550000D03*
%TD*%
D15*
%TO.C,J2*%
X129320000Y-121800000D03*
X126780000Y-121800000D03*
X124240000Y-121800000D03*
D16*
X121700000Y-121800000D03*
%TD*%
D17*
%TO.C,Logo1*%
X135000000Y-119600000D03*
%TD*%
D18*
%TO.C,U1*%
X137900000Y-95895000D03*
X137900000Y-97165000D03*
X137900000Y-98435000D03*
X137900000Y-99705000D03*
X137900000Y-100975000D03*
X137900000Y-102245000D03*
X137900000Y-103515000D03*
X137900000Y-104785000D03*
X137900000Y-106055000D03*
X137900000Y-107325000D03*
X137900000Y-108595000D03*
X137900000Y-109865000D03*
X137900000Y-111135000D03*
X137900000Y-112405000D03*
D19*
X135115000Y-113405000D03*
X133845000Y-113405000D03*
X132575000Y-113405000D03*
X131305000Y-113405000D03*
X130035000Y-113405000D03*
X128765000Y-113405000D03*
X127495000Y-113405000D03*
X126225000Y-113405000D03*
X124955000Y-113405000D03*
X123685000Y-113405000D03*
D18*
X120900000Y-112405000D03*
X120900000Y-111135000D03*
X120900000Y-109865000D03*
X120900000Y-108595000D03*
X120900000Y-107325000D03*
X120900000Y-106055000D03*
X120900000Y-104785000D03*
X120900000Y-103515000D03*
X120900000Y-102245000D03*
X120900000Y-100975000D03*
X120900000Y-99705000D03*
X120900000Y-98435000D03*
X120900000Y-97165000D03*
X120900000Y-95895000D03*
D20*
X130400000Y-103395000D03*
%TD*%
M02*
