%TF.GenerationSoftware,KiCad,Pcbnew,(6.0.2-0)*%
%TF.CreationDate,2022-02-13T13:55:32+00:00*%
%TF.ProjectId,Keypad,4b657970-6164-42e6-9b69-6361645f7063,5*%
%TF.SameCoordinates,Original*%
%TF.FileFunction,Copper,L1,Top*%
%TF.FilePolarity,Positive*%
%FSLAX46Y46*%
G04 Gerber Fmt 4.6, Leading zero omitted, Abs format (unit mm)*
G04 Created by KiCad (PCBNEW (6.0.2-0)) date 2022-02-13 13:55:32*
%MOMM*%
%LPD*%
G01*
G04 APERTURE LIST*
G04 Aperture macros list*
%AMRoundRect*
0 Rectangle with rounded corners*
0 $1 Rounding radius*
0 $2 $3 $4 $5 $6 $7 $8 $9 X,Y pos of 4 corners*
0 Add a 4 corners polygon primitive as box body*
4,1,4,$2,$3,$4,$5,$6,$7,$8,$9,$2,$3,0*
0 Add four circle primitives for the rounded corners*
1,1,$1+$1,$2,$3*
1,1,$1+$1,$4,$5*
1,1,$1+$1,$6,$7*
1,1,$1+$1,$8,$9*
0 Add four rect primitives between the rounded corners*
20,1,$1+$1,$2,$3,$4,$5,0*
20,1,$1+$1,$4,$5,$6,$7,0*
20,1,$1+$1,$6,$7,$8,$9,0*
20,1,$1+$1,$8,$9,$2,$3,0*%
%AMFreePoly0*
4,1,136,3.383385,4.221938,3.559722,4.168447,3.722236,4.081581,3.864680,3.964680,3.981581,3.822236,4.068447,3.659722,4.121938,3.483385,4.125213,3.450138,4.182769,3.539508,4.186818,3.554319,4.232803,3.599839,4.295387,3.616268,4.357802,3.599205,4.403322,3.553220,4.419751,3.490636,4.402688,3.428221,4.402685,3.428218,4.172864,3.069999,4.056927,2.918726,3.981581,2.777764,
3.864680,2.635320,3.750000,2.541204,3.750000,0.022998,4.066621,-0.229499,4.408387,-0.546611,4.440740,-0.602647,4.440740,-0.667351,4.408387,-0.723387,4.352351,-0.755740,4.287647,-0.755740,4.231611,-0.723387,4.223834,-0.709917,3.889556,-0.400914,3.520256,-0.109781,3.483169,-0.085000,2.500000,-0.085000,2.500000,-1.185000,3.750000,-1.185000,3.750000,-2.745000,-3.750000,-2.745000,
-3.750000,-1.185000,-2.500000,-1.185000,-2.500000,-0.085000,-3.483168,-0.085000,-3.520257,-0.109782,-3.889557,-0.400914,-4.223835,-0.709917,-4.231612,-0.723388,-4.287648,-0.755741,-4.352352,-0.755741,-4.408388,-0.723388,-4.440741,-0.667352,-4.440741,-0.602648,-4.408388,-0.546612,-4.066622,-0.229500,-3.750000,0.022998,-3.750000,2.541204,-3.864680,2.635320,-3.981581,2.777764,-4.057059,2.918973,
-4.182136,3.083248,-4.410822,3.442198,-4.427688,3.504666,-4.411060,3.567198,-4.365394,3.613038,-4.302926,3.629904,-4.240394,3.613276,-4.194554,3.567610,-4.190552,3.552787,-4.125171,3.450557,-4.121938,3.483385,-4.068447,3.659722,-3.981581,3.822236,-3.864680,3.964680,-3.722236,4.081581,-3.559722,4.168447,-3.383385,4.221938,-3.200000,4.240000,-3.137500,4.223253,-3.091747,4.177500,
-3.075000,4.115000,-3.091747,4.052500,-3.137500,4.006747,-3.200000,3.990000,-3.211471,3.993074,-3.354511,3.976957,-3.501274,3.925602,-3.632930,3.842877,-3.742877,3.732930,-3.825602,3.601274,-3.876957,3.454511,-3.894366,3.300000,-3.876957,3.145489,-3.839657,3.038894,-3.713800,2.875371,-3.594054,2.745000,-2.998152,2.745000,-3.015000,3.045000,-2.998253,3.107500,-2.952500,3.153253,
-2.890000,3.170000,-2.827500,3.153253,-2.781747,3.107500,-2.765000,3.045000,-2.768849,3.030634,-2.752213,2.745000,2.752213,2.745000,2.768849,3.030634,2.765000,3.045000,2.781747,3.107500,2.827500,3.153253,2.890000,3.170000,2.952500,3.153253,2.998253,3.107500,3.015000,3.045000,2.998152,2.745000,3.594234,2.745000,3.703871,2.863608,3.839648,3.038866,3.876957,3.145489,
3.894366,3.300000,3.876957,3.454511,3.825602,3.601274,3.742877,3.732930,3.632930,3.842877,3.501274,3.925602,3.354511,3.976957,3.211471,3.993074,3.200000,3.990000,3.137500,4.006747,3.091747,4.052500,3.075000,4.115000,3.091747,4.177500,3.137500,4.223253,3.200000,4.240000,3.383385,4.221938,3.383385,4.221938,$1*%
%AMFreePoly1*
4,1,6,1.000000,-1.000000,-1.000000,-1.000000,-1.000000,0.750000,-0.750000,1.000000,1.000000,1.000000,1.000000,-1.000000,1.000000,-1.000000,$1*%
%AMFreePoly2*
4,1,43,1.102950,0.110584,1.224483,0.068057,1.333507,-0.000447,1.424553,-0.091493,1.493057,-0.200517,1.535584,-0.322050,1.550000,-0.450000,1.533253,-0.512500,1.487500,-0.558253,1.425000,-0.575000,1.362500,-0.558253,1.316747,-0.512500,1.300000,-0.450000,1.302546,-0.440498,1.287946,-0.348318,1.241208,-0.256589,1.168411,-0.183792,1.076682,-0.137054,0.984502,-0.122454,0.975000,-0.125000,
-0.975000,-0.125000,-0.984502,-0.122454,-1.076682,-0.137054,-1.168411,-0.183792,-1.241208,-0.256589,-1.287946,-0.348318,-1.302546,-0.440498,-1.300000,-0.450000,-1.316747,-0.512500,-1.362500,-0.558253,-1.425000,-0.575000,-1.487500,-0.558253,-1.533253,-0.512500,-1.550000,-0.450000,-1.535584,-0.322050,-1.493057,-0.200517,-1.424553,-0.091493,-1.333507,-0.000447,-1.224483,0.068057,-1.102950,0.110584,
-0.975000,0.125000,0.975000,0.125000,1.102950,0.110584,1.102950,0.110584,$1*%
%AMFreePoly3*
4,1,24,1.812500,0.558253,1.858253,0.512500,1.875000,0.450000,1.860584,0.322050,1.818057,0.200517,1.749553,0.091493,1.658507,0.000447,1.549483,-0.068057,1.427950,-0.110584,1.300000,-0.125000,-1.300000,-0.125000,-1.300000,0.125000,1.300000,0.125000,1.309502,0.122454,1.401682,0.137054,1.493411,0.183792,1.566208,0.256589,1.612946,0.348318,1.627546,0.440498,1.625000,0.450000,
1.641747,0.512500,1.687500,0.558253,1.750000,0.575000,1.812500,0.558253,1.812500,0.558253,$1*%
%AMFreePoly4*
4,1,37,1.095671,1.230970,1.176777,1.176777,1.230970,1.095671,1.250000,1.000000,1.234611,0.804457,1.188821,0.613729,1.113759,0.432512,1.011272,0.265269,0.883885,0.116117,0.734733,-0.011271,0.567490,-0.113758,0.386273,-0.188820,0.195545,-0.234610,0.000002,-0.250000,-0.095669,-0.230970,-0.176775,-0.176777,-0.230968,-0.095671,-0.249998,0.000000,-0.230968,0.095671,-0.176775,0.176777,
-0.095669,0.230970,0.000002,0.250000,0.012204,0.247573,0.147027,0.260852,0.288403,0.303738,0.418695,0.373381,0.532897,0.467104,0.626620,0.581306,0.696263,0.711599,0.739148,0.852974,0.752427,0.987798,0.750000,1.000000,0.769030,1.095671,0.823223,1.176777,0.904329,1.230970,1.000000,1.250000,1.095671,1.230970,1.095671,1.230970,$1*%
%AMFreePoly5*
4,1,72,4.686563,7.086550,4.817878,7.046716,4.938899,6.982029,5.044975,6.894975,5.132029,6.788899,5.196716,6.667878,5.236550,6.536563,5.250000,6.400000,5.250000,1.600000,5.230970,1.504329,5.176777,1.423223,5.112500,1.380275,5.112500,0.250000,6.600000,0.250000,6.695671,0.230970,6.776777,0.176777,6.830970,0.095671,6.850000,0.000000,6.830970,-0.095671,6.776777,-0.176777,
6.695671,-0.230970,6.600000,-0.250000,0.000000,-0.250000,-0.095671,-0.230970,-0.176777,-0.176777,-0.230970,-0.095671,-0.250000,0.000000,-0.230970,0.095671,-0.176777,0.176777,-0.095671,0.230970,0.000000,0.250000,4.612500,0.250000,4.612500,1.600000,4.631530,1.695671,4.685723,1.776777,4.750000,1.819725,4.750000,6.400000,4.751388,6.406978,4.742582,6.462574,4.713820,6.519022,
4.669022,6.563820,4.612574,6.592582,4.556978,6.601388,4.550000,6.600000,1.550000,6.600000,1.543022,6.601388,1.487426,6.592582,1.430978,6.563820,1.386180,6.519022,1.357418,6.462574,1.348612,6.406978,1.350000,6.400000,1.350000,5.900000,1.330970,5.804329,1.276777,5.723223,1.195671,5.669030,1.100000,5.650000,1.004329,5.669030,0.923223,5.723223,0.869030,5.804329,
0.850000,5.900000,0.850000,6.400000,0.863450,6.536563,0.903284,6.667878,0.967971,6.788899,1.055025,6.894975,1.161101,6.982029,1.282122,7.046716,1.413437,7.086550,1.550000,7.100000,4.550000,7.100000,4.686563,7.086550,4.686563,7.086550,$1*%
G04 Aperture macros list end*
%ADD10C,0.080000*%
%TA.AperFunction,NonConductor*%
%ADD11C,0.080000*%
%TD*%
%TA.AperFunction,SMDPad,CuDef*%
%ADD12RoundRect,0.200000X-0.275000X0.200000X-0.275000X-0.200000X0.275000X-0.200000X0.275000X0.200000X0*%
%TD*%
%TA.AperFunction,SMDPad,CuDef*%
%ADD13R,1.140000X0.600000*%
%TD*%
%TA.AperFunction,SMDPad,CuDef*%
%ADD14RoundRect,0.075000X0.495000X-0.075000X0.495000X0.075000X-0.495000X0.075000X-0.495000X-0.075000X0*%
%TD*%
%TA.AperFunction,ComponentPad*%
%ADD15C,0.600000*%
%TD*%
%TA.AperFunction,SMDPad,CuDef*%
%ADD16R,5.490000X5.000000*%
%TD*%
%TA.AperFunction,ComponentPad*%
%ADD17C,1.500000*%
%TD*%
%TA.AperFunction,ComponentPad*%
%ADD18C,1.250000*%
%TD*%
%TA.AperFunction,SMDPad,CuDef*%
%ADD19FreePoly0,90.000000*%
%TD*%
%TA.AperFunction,ComponentPad*%
%ADD20RoundRect,0.250000X-0.600000X-0.675000X0.600000X-0.675000X0.600000X0.675000X-0.600000X0.675000X0*%
%TD*%
%TA.AperFunction,ComponentPad*%
%ADD21O,1.700000X1.850000*%
%TD*%
%TA.AperFunction,SMDPad,CuDef*%
%ADD22RoundRect,0.150000X-0.150000X0.825000X-0.150000X-0.825000X0.150000X-0.825000X0.150000X0.825000X0*%
%TD*%
%TA.AperFunction,SMDPad,CuDef*%
%ADD23RoundRect,0.062500X0.062500X-0.287500X0.062500X0.287500X-0.062500X0.287500X-0.062500X-0.287500X0*%
%TD*%
%TA.AperFunction,SMDPad,CuDef*%
%ADD24RoundRect,0.062500X0.287500X-0.062500X0.287500X0.062500X-0.287500X0.062500X-0.287500X-0.062500X0*%
%TD*%
%TA.AperFunction,ComponentPad*%
%ADD25C,0.350000*%
%TD*%
%TA.AperFunction,SMDPad,CuDef*%
%ADD26FreePoly1,90.000000*%
%TD*%
%TA.AperFunction,SMDPad,CuDef*%
%ADD27RoundRect,0.200000X0.200000X0.275000X-0.200000X0.275000X-0.200000X-0.275000X0.200000X-0.275000X0*%
%TD*%
%TA.AperFunction,SMDPad,CuDef*%
%ADD28R,0.850000X0.500000*%
%TD*%
%TA.AperFunction,SMDPad,CuDef*%
%ADD29RoundRect,0.250001X-0.462499X-0.624999X0.462499X-0.624999X0.462499X0.624999X-0.462499X0.624999X0*%
%TD*%
%TA.AperFunction,SMDPad,CuDef*%
%ADD30RoundRect,0.225000X0.250000X-0.225000X0.250000X0.225000X-0.250000X0.225000X-0.250000X-0.225000X0*%
%TD*%
%TA.AperFunction,SMDPad,CuDef*%
%ADD31RoundRect,0.200000X-0.200000X-0.275000X0.200000X-0.275000X0.200000X0.275000X-0.200000X0.275000X0*%
%TD*%
%TA.AperFunction,SMDPad,CuDef*%
%ADD32R,3.700000X1.425000*%
%TD*%
%TA.AperFunction,SMDPad,CuDef*%
%ADD33R,1.100000X0.600000*%
%TD*%
%TA.AperFunction,SMDPad,CuDef*%
%ADD34FreePoly2,90.000000*%
%TD*%
%TA.AperFunction,SMDPad,CuDef*%
%ADD35RoundRect,0.249375X0.625625X-0.463125X0.625625X0.463125X-0.625625X0.463125X-0.625625X-0.463125X0*%
%TD*%
%TA.AperFunction,SMDPad,CuDef*%
%ADD36RoundRect,0.225000X0.225000X0.250000X-0.225000X0.250000X-0.225000X-0.250000X0.225000X-0.250000X0*%
%TD*%
%TA.AperFunction,SMDPad,CuDef*%
%ADD37R,0.500000X2.000000*%
%TD*%
%TA.AperFunction,SMDPad,CuDef*%
%ADD38FreePoly3,90.000000*%
%TD*%
%TA.AperFunction,SMDPad,CuDef*%
%ADD39R,2.000000X0.500000*%
%TD*%
%TA.AperFunction,SMDPad,CuDef*%
%ADD40FreePoly4,90.000000*%
%TD*%
%TA.AperFunction,SMDPad,CuDef*%
%ADD41RoundRect,0.250000X-0.250000X-0.475000X0.250000X-0.475000X0.250000X0.475000X-0.250000X0.475000X0*%
%TD*%
%TA.AperFunction,SMDPad,CuDef*%
%ADD42FreePoly5,90.000000*%
%TD*%
%TA.AperFunction,SMDPad,CuDef*%
%ADD43R,4.000000X0.500000*%
%TD*%
%TA.AperFunction,SMDPad,CuDef*%
%ADD44RoundRect,0.200000X0.275000X-0.200000X0.275000X0.200000X-0.275000X0.200000X-0.275000X-0.200000X0*%
%TD*%
%TA.AperFunction,ComponentPad*%
%ADD45R,1.700000X1.700000*%
%TD*%
%TA.AperFunction,ComponentPad*%
%ADD46O,1.700000X1.700000*%
%TD*%
%TA.AperFunction,ViaPad*%
%ADD47C,0.800000*%
%TD*%
%TA.AperFunction,Conductor*%
%ADD48C,0.250000*%
%TD*%
%TA.AperFunction,Conductor*%
%ADD49C,0.500000*%
%TD*%
G04 APERTURE END LIST*
D10*
D11*
X123671428Y-118771309D02*
X123695238Y-118747500D01*
X123742857Y-118723690D01*
X123861904Y-118723690D01*
X123909523Y-118747500D01*
X123933333Y-118771309D01*
X123957142Y-118818928D01*
X123957142Y-118866547D01*
X123933333Y-118937976D01*
X123647619Y-119223690D01*
X123957142Y-119223690D01*
X124266666Y-118723690D02*
X124314285Y-118723690D01*
X124361904Y-118747500D01*
X124385714Y-118771309D01*
X124409523Y-118818928D01*
X124433333Y-118914166D01*
X124433333Y-119033214D01*
X124409523Y-119128452D01*
X124385714Y-119176071D01*
X124361904Y-119199880D01*
X124314285Y-119223690D01*
X124266666Y-119223690D01*
X124219047Y-119199880D01*
X124195238Y-119176071D01*
X124171428Y-119128452D01*
X124147619Y-119033214D01*
X124147619Y-118914166D01*
X124171428Y-118818928D01*
X124195238Y-118771309D01*
X124219047Y-118747500D01*
X124266666Y-118723690D01*
X124623809Y-118771309D02*
X124647619Y-118747500D01*
X124695238Y-118723690D01*
X124814285Y-118723690D01*
X124861904Y-118747500D01*
X124885714Y-118771309D01*
X124909523Y-118818928D01*
X124909523Y-118866547D01*
X124885714Y-118937976D01*
X124600000Y-119223690D01*
X124909523Y-119223690D01*
X125100000Y-118771309D02*
X125123809Y-118747500D01*
X125171428Y-118723690D01*
X125290476Y-118723690D01*
X125338095Y-118747500D01*
X125361904Y-118771309D01*
X125385714Y-118818928D01*
X125385714Y-118866547D01*
X125361904Y-118937976D01*
X125076190Y-119223690D01*
X125385714Y-119223690D01*
X125600000Y-119033214D02*
X125980952Y-119033214D01*
X126314285Y-118723690D02*
X126361904Y-118723690D01*
X126409523Y-118747500D01*
X126433333Y-118771309D01*
X126457142Y-118818928D01*
X126480952Y-118914166D01*
X126480952Y-119033214D01*
X126457142Y-119128452D01*
X126433333Y-119176071D01*
X126409523Y-119199880D01*
X126361904Y-119223690D01*
X126314285Y-119223690D01*
X126266666Y-119199880D01*
X126242857Y-119176071D01*
X126219047Y-119128452D01*
X126195238Y-119033214D01*
X126195238Y-118914166D01*
X126219047Y-118818928D01*
X126242857Y-118771309D01*
X126266666Y-118747500D01*
X126314285Y-118723690D01*
X126671428Y-118771309D02*
X126695238Y-118747500D01*
X126742857Y-118723690D01*
X126861904Y-118723690D01*
X126909523Y-118747500D01*
X126933333Y-118771309D01*
X126957142Y-118818928D01*
X126957142Y-118866547D01*
X126933333Y-118937976D01*
X126647619Y-119223690D01*
X126957142Y-119223690D01*
X127171428Y-119033214D02*
X127552380Y-119033214D01*
X128052380Y-119223690D02*
X127766666Y-119223690D01*
X127909523Y-119223690D02*
X127909523Y-118723690D01*
X127861904Y-118795119D01*
X127814285Y-118842738D01*
X127766666Y-118866547D01*
X128219047Y-118723690D02*
X128528571Y-118723690D01*
X128361904Y-118914166D01*
X128433333Y-118914166D01*
X128480952Y-118937976D01*
X128504761Y-118961785D01*
X128528571Y-119009404D01*
X128528571Y-119128452D01*
X128504761Y-119176071D01*
X128480952Y-119199880D01*
X128433333Y-119223690D01*
X128290476Y-119223690D01*
X128242857Y-119199880D01*
X128219047Y-119176071D01*
X124885714Y-120028690D02*
X124885714Y-119528690D01*
X125171428Y-120028690D02*
X124957142Y-119742976D01*
X125171428Y-119528690D02*
X124885714Y-119814404D01*
X125576190Y-120004880D02*
X125528571Y-120028690D01*
X125433333Y-120028690D01*
X125385714Y-120004880D01*
X125361904Y-119957261D01*
X125361904Y-119766785D01*
X125385714Y-119719166D01*
X125433333Y-119695357D01*
X125528571Y-119695357D01*
X125576190Y-119719166D01*
X125600000Y-119766785D01*
X125600000Y-119814404D01*
X125361904Y-119862023D01*
X125766666Y-119695357D02*
X125885714Y-120028690D01*
X126004761Y-119695357D02*
X125885714Y-120028690D01*
X125838095Y-120147738D01*
X125814285Y-120171547D01*
X125766666Y-120195357D01*
X126195238Y-119695357D02*
X126195238Y-120195357D01*
X126195238Y-119719166D02*
X126242857Y-119695357D01*
X126338095Y-119695357D01*
X126385714Y-119719166D01*
X126409523Y-119742976D01*
X126433333Y-119790595D01*
X126433333Y-119933452D01*
X126409523Y-119981071D01*
X126385714Y-120004880D01*
X126338095Y-120028690D01*
X126242857Y-120028690D01*
X126195238Y-120004880D01*
X126861904Y-120028690D02*
X126861904Y-119766785D01*
X126838095Y-119719166D01*
X126790476Y-119695357D01*
X126695238Y-119695357D01*
X126647619Y-119719166D01*
X126861904Y-120004880D02*
X126814285Y-120028690D01*
X126695238Y-120028690D01*
X126647619Y-120004880D01*
X126623809Y-119957261D01*
X126623809Y-119909642D01*
X126647619Y-119862023D01*
X126695238Y-119838214D01*
X126814285Y-119838214D01*
X126861904Y-119814404D01*
X127314285Y-120028690D02*
X127314285Y-119528690D01*
X127314285Y-120004880D02*
X127266666Y-120028690D01*
X127171428Y-120028690D01*
X127123809Y-120004880D01*
X127100000Y-119981071D01*
X127076190Y-119933452D01*
X127076190Y-119790595D01*
X127100000Y-119742976D01*
X127123809Y-119719166D01*
X127171428Y-119695357D01*
X127266666Y-119695357D01*
X127314285Y-119719166D01*
D12*
%TO.P,R1,1*%
%TO.N,Net-(J3-PadA5)*%
X130500000Y-108675000D03*
%TO.P,R1,2*%
%TO.N,GND*%
X130500000Y-110325000D03*
%TD*%
D13*
%TO.P,J3,A1,GND*%
%TO.N,GND*%
X132040000Y-110300000D03*
%TO.P,J3,A4,VBUS*%
%TO.N,VBUS*%
X132040000Y-109500000D03*
D14*
%TO.P,J3,A5,CC1*%
%TO.N,Net-(J3-PadA5)*%
X132040000Y-108350000D03*
%TO.P,J3,A6,D+*%
%TO.N,D+*%
X132040000Y-107350000D03*
%TO.P,J3,A7,D-*%
%TO.N,D-*%
X132040000Y-106850000D03*
%TO.P,J3,A8,SBU1*%
%TO.N,unconnected-(J3-PadA8)*%
X132040000Y-105850000D03*
D13*
%TO.P,J3,A9,VBUS*%
%TO.N,VBUS*%
X132040000Y-104700000D03*
%TO.P,J3,A12,GND*%
%TO.N,GND*%
X132040000Y-103900000D03*
%TO.P,J3,B1,GND*%
X132040000Y-103900000D03*
%TO.P,J3,B4,VBUS*%
%TO.N,VBUS*%
X132040000Y-104700000D03*
D14*
%TO.P,J3,B5,CC2*%
%TO.N,Net-(J3-PadB5)*%
X132040000Y-105350000D03*
%TO.P,J3,B6,D+*%
%TO.N,D+*%
X132040000Y-106350000D03*
%TO.P,J3,B7,D-*%
%TO.N,D-*%
X132040000Y-107850000D03*
%TO.P,J3,B8,SBU2*%
%TO.N,unconnected-(J3-PadB8)*%
X132040000Y-108850000D03*
D13*
%TO.P,J3,B9,VBUS*%
%TO.N,VBUS*%
X132040000Y-109500000D03*
%TO.P,J3,B12,GND*%
%TO.N,GND*%
X132040000Y-110300000D03*
D15*
%TO.P,J3,S1,SHIELD*%
X133110000Y-109990000D03*
D16*
X136155000Y-107100000D03*
D17*
X132620000Y-111420000D03*
D18*
X136790000Y-111420000D03*
D15*
X133110000Y-104210000D03*
D17*
X132620000Y-102780000D03*
D19*
X136155000Y-107100000D03*
D18*
X136790000Y-102780000D03*
%TD*%
D20*
%TO.P,J1,1,Pin_1*%
%TO.N,GND*%
X122350000Y-117000000D03*
D21*
%TO.P,J1,2,Pin_2*%
%TO.N,+12V*%
X124850000Y-117000000D03*
%TO.P,J1,3,Pin_3*%
%TO.N,Net-(J1-Pad3)*%
X127350000Y-117000000D03*
%TO.P,J1,4,Pin_4*%
%TO.N,Net-(J1-Pad4)*%
X129850000Y-117000000D03*
%TD*%
D22*
%TO.P,U2,1,RO*%
%TO.N,RX*%
X137355000Y-116575000D03*
%TO.P,U2,2,RE*%
%TO.N,DE*%
X136085000Y-116575000D03*
%TO.P,U2,3,DE*%
X134815000Y-116575000D03*
%TO.P,U2,4,DI*%
%TO.N,TX*%
X133545000Y-116575000D03*
%TO.P,U2,5,GND*%
%TO.N,GND*%
X133545000Y-121525000D03*
%TO.P,U2,6,A*%
%TO.N,Net-(J1-Pad3)*%
X134815000Y-121525000D03*
%TO.P,U2,7,B*%
%TO.N,Net-(J1-Pad4)*%
X136085000Y-121525000D03*
%TO.P,U2,8,Vcc*%
%TO.N,+3V3*%
X137355000Y-121525000D03*
%TD*%
D23*
%TO.P,U3,1,RXD*%
%TO.N,O*%
X123800000Y-105450000D03*
%TO.P,U3,2,~{RI}*%
%TO.N,GND*%
X124300000Y-105450000D03*
%TO.P,U3,3,GND*%
X124800000Y-105450000D03*
%TO.P,U3,4,~{DSR}*%
X125300000Y-105450000D03*
%TO.P,U3,5,~{DCD}*%
X125800000Y-105450000D03*
D24*
%TO.P,U3,6,~{CTS}*%
X126700000Y-104550000D03*
%TO.P,U3,7,CBUS2*%
%TO.N,unconnected-(U3-Pad7)*%
X126700000Y-104050000D03*
%TO.P,U3,8,USBDP*%
%TO.N,D+*%
X126700000Y-103550000D03*
%TO.P,U3,9,USBDM*%
%TO.N,D-*%
X126700000Y-103050000D03*
%TO.P,U3,10,3V3OUT*%
%TO.N,+3V3*%
X126700000Y-102550000D03*
D23*
%TO.P,U3,11,~{RESET}*%
X125800000Y-101650000D03*
%TO.P,U3,12,VCC*%
X125300000Y-101650000D03*
%TO.P,U3,13,GND*%
%TO.N,GND*%
X124800000Y-101650000D03*
%TO.P,U3,14,CBUS1*%
%TO.N,unconnected-(U3-Pad14)*%
X124300000Y-101650000D03*
%TO.P,U3,15,CBUS0*%
%TO.N,unconnected-(U3-Pad15)*%
X123800000Y-101650000D03*
D24*
%TO.P,U3,16,CBUS3*%
%TO.N,unconnected-(U3-Pad16)*%
X122900000Y-102550000D03*
%TO.P,U3,17,TXD*%
%TO.N,I*%
X122900000Y-103050000D03*
%TO.P,U3,18,~{DTR}*%
%TO.N,BOOT*%
X122900000Y-103550000D03*
%TO.P,U3,19,~{RTS}*%
%TO.N,EN*%
X122900000Y-104050000D03*
%TO.P,U3,20,VCCIO*%
%TO.N,+3V3*%
X122900000Y-104550000D03*
D25*
%TO.P,U3,21,GND*%
%TO.N,GND*%
X124800000Y-103550000D03*
D26*
X124800000Y-103550000D03*
%TD*%
D12*
%TO.P,R2,1*%
%TO.N,GND*%
X130500000Y-103925000D03*
%TO.P,R2,2*%
%TO.N,Net-(J3-PadB5)*%
X130500000Y-105575000D03*
%TD*%
D27*
%TO.P,R3,1*%
%TO.N,Net-(D1-Pad2)*%
X137675000Y-100950000D03*
%TO.P,R3,2*%
%TO.N,R*%
X136025000Y-100950000D03*
%TD*%
%TO.P,R4,1*%
%TO.N,Net-(D1-Pad3)*%
X137675000Y-98650000D03*
%TO.P,R4,2*%
%TO.N,G*%
X136025000Y-98650000D03*
%TD*%
%TO.P,R5,1*%
%TO.N,Net-(D1-Pad4)*%
X137675000Y-99800000D03*
%TO.P,R5,2*%
%TO.N,B*%
X136025000Y-99800000D03*
%TD*%
D28*
%TO.P,D1,1,A*%
%TO.N,+3V3*%
X135975000Y-95900000D03*
%TO.P,D1,2,RK*%
%TO.N,Net-(D1-Pad2)*%
X137725000Y-95900000D03*
%TO.P,D1,3,GK*%
%TO.N,Net-(D1-Pad3)*%
X137725000Y-96900000D03*
%TO.P,D1,4,BK*%
%TO.N,Net-(D1-Pad4)*%
X135975000Y-96900000D03*
%TD*%
D29*
%TO.P,D2,1,K*%
%TO.N,+12V*%
X131012500Y-114100000D03*
%TO.P,D2,2,A*%
%TO.N,VBUS*%
X133987500Y-114100000D03*
%TD*%
D30*
%TO.P,C1,1*%
%TO.N,+3V3*%
X120700000Y-105775000D03*
%TO.P,C1,2*%
%TO.N,GND*%
X120700000Y-104225000D03*
%TD*%
D31*
%TO.P,R7,1*%
%TO.N,GND*%
X135175000Y-112800000D03*
%TO.P,R7,2*%
%TO.N,Net-(R6-Pad2)*%
X136825000Y-112800000D03*
%TD*%
D32*
%TO.P,U4,*%
%TO.N,*%
X123240000Y-110400000D03*
D33*
X124540000Y-111850000D03*
D34*
X123640000Y-113275000D03*
D35*
X126360000Y-112002500D03*
D36*
X124215000Y-114900000D03*
X122665000Y-114900000D03*
D37*
X124540000Y-110900000D03*
D33*
X121840000Y-111850000D03*
D38*
X122740000Y-113600000D03*
D39*
X125490000Y-111850000D03*
D33*
%TO.P,U4,1,SHDN*%
%TO.N,+12V*%
X124540000Y-113750000D03*
%TO.P,U4,2,VIN*%
X124540000Y-112800000D03*
D40*
X125740000Y-113860000D03*
D41*
X125790000Y-113650000D03*
D33*
%TO.P,U4,3,GND*%
%TO.N,GND*%
X121840000Y-112800000D03*
D35*
X126360000Y-109037500D03*
D41*
X127690000Y-113650000D03*
D42*
X127690000Y-113900000D03*
D41*
X127690000Y-107400000D03*
D43*
%TO.P,U4,4,VOUT*%
%TO.N,+3V3*%
X123990000Y-107400000D03*
D41*
X125790000Y-107400000D03*
D32*
X123240000Y-107400000D03*
D33*
%TO.P,U4,5,FB*%
%TO.N,Net-(R6-Pad2)*%
X121840000Y-113750000D03*
%TD*%
D44*
%TO.P,R6,1*%
%TO.N,+3V3*%
X138200000Y-114425000D03*
%TO.P,R6,2*%
%TO.N,Net-(R6-Pad2)*%
X138200000Y-112775000D03*
%TD*%
D45*
%TO.P,J2,1,Pin_1*%
%TO.N,GND*%
X121700000Y-121800000D03*
D46*
%TO.P,J2,2,Pin_2*%
%TO.N,+12V*%
X124240000Y-121800000D03*
%TO.P,J2,3,Pin_3*%
%TO.N,Net-(J1-Pad3)*%
X126780000Y-121800000D03*
%TO.P,J2,4,Pin_4*%
%TO.N,Net-(J1-Pad4)*%
X129320000Y-121800000D03*
%TD*%
D47*
%TO.N,GND*%
X131950000Y-98750000D03*
X131750000Y-121750000D03*
X131200000Y-118500000D03*
X122750000Y-97550000D03*
X128975500Y-111446753D03*
X126300000Y-110450000D03*
X130350000Y-100650000D03*
%TO.N,D-*%
X129274623Y-106599500D03*
X127118148Y-101500010D03*
X129200000Y-108350000D03*
%TO.N,+3V3*%
X122596295Y-105224795D03*
X134950000Y-96574990D03*
X124395957Y-100695175D03*
%TO.N,O*%
X123120991Y-106075500D03*
%TO.N,I*%
X123210852Y-100802099D03*
%TO.N,Net-(R6-Pad2)*%
X136200000Y-114100000D03*
X121300000Y-115000000D03*
%TO.N,EN*%
X122722169Y-98979990D03*
%TO.N,BOOT*%
X123877321Y-98980262D03*
%TO.N,G*%
X135127796Y-98825010D03*
%TO.N,R*%
X135051723Y-100951723D03*
%TO.N,B*%
X135114063Y-99864063D03*
%TO.N,TX*%
X132124500Y-116450917D03*
%TO.N,RX*%
X137125500Y-114600000D03*
%TO.N,DE*%
X135671985Y-115171206D03*
%TD*%
D48*
%TO.N,+3V3*%
X137760000Y-120050000D02*
G75*
G03*
X137355000Y-120455000I1J-405001D01*
G01*
X138200000Y-119610000D02*
G75*
G02*
X137760000Y-120050000I-440000J0D01*
G01*
X137355000Y-121525000D02*
X137355000Y-120455000D01*
X138200000Y-119610000D02*
X138200000Y-114425000D01*
%TO.N,DE*%
X134815000Y-116575000D02*
X134815000Y-115485000D01*
X135130000Y-115170000D02*
G75*
G03*
X134815000Y-115485000I-1J-314999D01*
G01*
X135130000Y-115170000D02*
X135670779Y-115170000D01*
X135671985Y-115171206D02*
G75*
G03*
X135670779Y-115170000I-1205J1D01*
G01*
%TO.N,Net-(J1-Pad4)*%
X130900000Y-119600000D02*
G75*
G02*
X129850000Y-118550000I0J1050000D01*
G01*
X136085000Y-120495000D02*
G75*
G03*
X135190000Y-119600000I-894999J1D01*
G01*
X129850000Y-117000000D02*
X129850000Y-118550000D01*
X130900000Y-119600000D02*
X135190000Y-119600000D01*
X136085000Y-120495000D02*
X136085000Y-121525000D01*
%TO.N,D+*%
X127400000Y-104000000D02*
X127400000Y-105920000D01*
X127810000Y-106330000D02*
G75*
G02*
X127400000Y-105920000I-1J409999D01*
G01*
X128550000Y-106370000D02*
G75*
G03*
X128510000Y-106330000I-40001J-1D01*
G01*
X127810000Y-106330000D02*
X128510000Y-106330000D01*
X128550000Y-106750000D02*
X128550000Y-106370000D01*
X129170000Y-105750000D02*
G75*
G03*
X128550000Y-106370000I1J-620001D01*
G01*
X129170000Y-105750000D02*
X129330000Y-105750000D01*
X128550000Y-106750000D02*
G75*
G03*
X129150000Y-107350000I600000J0D01*
G01*
X132040000Y-107350000D02*
X129150000Y-107350000D01*
X129900000Y-106200000D02*
G75*
G03*
X130262132Y-106350000I362134J362137D01*
G01*
X129330000Y-105750000D02*
G75*
G02*
X129534853Y-105834853I3J-289698D01*
G01*
X126950000Y-103550000D02*
X126700000Y-103550000D01*
X126950000Y-103550000D02*
G75*
G02*
X127400000Y-104000000I0J-450000D01*
G01*
X132040000Y-106350000D02*
X130262132Y-106350000D01*
X129900000Y-106200000D02*
X129534853Y-105834853D01*
%TO.N,Net-(J1-Pad3)*%
X134300000Y-120100000D02*
X129700000Y-120100000D01*
X129700000Y-120100001D02*
G75*
G03*
X127617330Y-120962670I1J-2945343D01*
G01*
X126780000Y-121800000D02*
X127617330Y-120962670D01*
%TO.N,Net-(R6-Pad2)*%
X136347703Y-113952297D02*
G75*
G03*
X136825000Y-112800000I-1152290J1152294D01*
G01*
X136347703Y-113952297D02*
X136200000Y-114100000D01*
%TO.N,GND*%
X132015000Y-110325000D02*
X132040000Y-110300000D01*
X130500000Y-110325000D02*
X132015000Y-110325000D01*
X124300000Y-105450000D02*
X124300000Y-104757106D01*
X125163604Y-103913604D02*
X124800000Y-103550000D01*
X124800000Y-105450000D02*
X124800000Y-103550000D01*
X125300000Y-105450000D02*
X125300000Y-104757106D01*
X132040000Y-103900000D02*
X130525000Y-103900000D01*
X124800000Y-101650000D02*
X124800000Y-103550000D01*
X126370000Y-108937500D02*
X126370000Y-110380000D01*
X126370000Y-110380000D02*
X126300000Y-110450000D01*
X124800000Y-103550000D02*
G75*
G02*
X125300000Y-104757106I-1207108J-1207107D01*
G01*
X125163604Y-103913604D02*
G75*
G03*
X126700000Y-104550000I1536395J1536395D01*
G01*
X124800000Y-103550000D02*
G75*
G03*
X124300000Y-104757106I1207108J-1207107D01*
G01*
X130500000Y-103925000D02*
G75*
G02*
X130525000Y-103900000I24999J1D01*
G01*
X125163604Y-103913604D02*
G75*
G02*
X125800000Y-105450000I-1536395J-1536395D01*
G01*
%TO.N,D-*%
X126700000Y-103050000D02*
X127098022Y-103050000D01*
X129525123Y-106850000D02*
X129274623Y-106599500D01*
X132040000Y-106850000D02*
X129525123Y-106850000D01*
X132040000Y-107850000D02*
X129700000Y-107850000D01*
X127518147Y-102629875D02*
X127518147Y-101900009D01*
X127518147Y-102629875D02*
G75*
G02*
X127098022Y-103050000I-420126J1D01*
G01*
X127118148Y-101500010D02*
G75*
G02*
X127518147Y-101900009I0J-399999D01*
G01*
X129200000Y-108350000D02*
G75*
G02*
X129700000Y-107850000I500001J-1D01*
G01*
%TO.N,+3V3*%
X121500000Y-105800000D02*
X120725000Y-105800000D01*
X121800000Y-104800000D02*
X121800000Y-105300000D01*
X132450000Y-101600000D02*
X128500000Y-101600000D01*
X124469263Y-100621869D02*
X124395957Y-100695175D01*
X121800000Y-105300000D02*
X121800000Y-105500000D01*
X125300000Y-101650000D02*
X125300000Y-101100000D01*
X135975000Y-95900000D02*
X135624990Y-95900000D01*
X137355000Y-121525000D02*
X137355000Y-122745000D01*
X120200000Y-107400000D02*
X120200000Y-122400000D01*
X125300000Y-101650000D02*
X125800000Y-101650000D01*
X121000000Y-123200000D02*
X136900000Y-123200000D01*
X134950000Y-96574990D02*
X134160147Y-97364843D01*
X121850993Y-105229063D02*
X122592027Y-105229063D01*
X120600000Y-106700000D02*
X120500000Y-106700000D01*
X125800000Y-101200000D02*
X125800000Y-101650000D01*
X120200000Y-107000000D02*
X120200000Y-107400000D01*
X133400000Y-99200000D02*
X133400000Y-100650000D01*
X127675000Y-100775000D02*
X126225000Y-100775000D01*
X124883299Y-100621869D02*
X124469263Y-100621869D01*
X122592027Y-105229063D02*
X122596295Y-105224795D01*
X122900000Y-104550000D02*
X122050000Y-104550000D01*
X120700000Y-105775000D02*
X120700000Y-106600000D01*
X123240000Y-107400000D02*
X120200000Y-107400000D01*
X132450000Y-101600000D02*
G75*
G03*
X133400000Y-100650000I-2J950002D01*
G01*
X127675000Y-100775000D02*
G75*
G02*
X128100000Y-101200000I-1J-425001D01*
G01*
X125800000Y-101200000D02*
G75*
G02*
X126225000Y-100775000I425001J-1D01*
G01*
X121800000Y-104800000D02*
G75*
G02*
X122050000Y-104550000I249999J1D01*
G01*
X120600000Y-106700000D02*
G75*
G03*
X120700000Y-106600000I1J99999D01*
G01*
X134950000Y-96574990D02*
G75*
G02*
X135624990Y-95900000I674990J0D01*
G01*
X120200000Y-107000000D02*
G75*
G02*
X120500000Y-106700000I300000J0D01*
G01*
X126700000Y-102550000D02*
G75*
G02*
X125800000Y-101650000I0J900000D01*
G01*
X120700000Y-105775000D02*
G75*
G03*
X120725000Y-105800000I24999J-1D01*
G01*
X124883299Y-100621868D02*
G75*
G02*
X125300000Y-101100000I-68248J-480127D01*
G01*
X128100000Y-101200000D02*
G75*
G03*
X128500000Y-101600000I399999J-1D01*
G01*
X121850993Y-105229063D02*
G75*
G03*
X121800000Y-105300000I28176J-74051D01*
G01*
X121500000Y-105800000D02*
G75*
G03*
X121800000Y-105500000I0J300000D01*
G01*
X121000000Y-123200000D02*
G75*
G02*
X120200000Y-122400000I1J800001D01*
G01*
X136900000Y-123200000D02*
G75*
G03*
X137355000Y-122745000I1J454999D01*
G01*
X133400000Y-99200000D02*
G75*
G02*
X134160147Y-97364843I2595301J1D01*
G01*
%TO.N,VBUS*%
X129700000Y-112100000D02*
X129700000Y-110100000D01*
X130300000Y-109500000D02*
X132040000Y-109500000D01*
X132935001Y-105109995D02*
X132935001Y-109090005D01*
X131500000Y-112800000D02*
X130400000Y-112800000D01*
X133987500Y-114100000D02*
X132800000Y-114100000D01*
X132525006Y-109500000D02*
X132040000Y-109500000D01*
X132040000Y-104700000D02*
X132525006Y-104700000D01*
X130300000Y-109500000D02*
G75*
G03*
X129700000Y-110100000I0J-600000D01*
G01*
X132200000Y-113500000D02*
G75*
G03*
X132800000Y-114100000I600000J0D01*
G01*
X131500000Y-112800000D02*
G75*
G02*
X132200000Y-113500000I1J-699999D01*
G01*
X132525006Y-109500000D02*
G75*
G03*
X132935001Y-109090005I-1J409996D01*
G01*
X132935001Y-105109995D02*
G75*
G03*
X132525006Y-104700000I-409996J-1D01*
G01*
X129700000Y-112100000D02*
G75*
G03*
X130400000Y-112800000I699999J-1D01*
G01*
%TO.N,O*%
X123133556Y-106088065D02*
X123120991Y-106075500D01*
X123705487Y-106088065D02*
X123133556Y-106088065D01*
X123800000Y-105450000D02*
X123800000Y-105970000D01*
X123705487Y-106088065D02*
G75*
G03*
X123800000Y-105970000I-28912J120006D01*
G01*
%TO.N,I*%
X122700000Y-100800000D02*
X123208753Y-100800000D01*
X122224990Y-102772318D02*
X122224990Y-101275010D01*
X122900000Y-103050000D02*
X122502672Y-103050000D01*
X123210852Y-100802099D02*
G75*
G03*
X123208753Y-100800000I-2100J-1D01*
G01*
X122224990Y-102772318D02*
G75*
G03*
X122502672Y-103050000I277681J-1D01*
G01*
X122700000Y-100800000D02*
G75*
G03*
X122224990Y-101275010I-1J-475009D01*
G01*
%TO.N,Net-(R6-Pad2)*%
X138200000Y-112775000D02*
X136850000Y-112775000D01*
X136850000Y-112775000D02*
X136825000Y-112800000D01*
X121300000Y-114290000D02*
X121300000Y-115000000D01*
X121300000Y-114290000D02*
G75*
G02*
X121840000Y-113750000I539999J1D01*
G01*
%TO.N,EN*%
X121300000Y-100000000D02*
X121300000Y-102900000D01*
X122722169Y-98979990D02*
X122320010Y-98979990D01*
X122900000Y-104050000D02*
X122450000Y-104050000D01*
X121300000Y-102900000D02*
G75*
G03*
X122450000Y-104050000I1149999J-1D01*
G01*
X121300000Y-100000000D02*
G75*
G02*
X122320010Y-98979990I1020010J0D01*
G01*
%TO.N,Net-(J1-Pad3)*%
X134815000Y-121525000D02*
X134815000Y-120615000D01*
X134300000Y-120100000D02*
G75*
G02*
X134815000Y-120615000I0J-515000D01*
G01*
D49*
%TO.N,+12V*%
X125800000Y-115100000D02*
X125800000Y-113550000D01*
X125800000Y-116050000D02*
X125800000Y-115100000D01*
X131012500Y-114100000D02*
X131012500Y-114250000D01*
X125800000Y-115100000D02*
X130162500Y-115100000D01*
D48*
X124550000Y-113650000D02*
X124550000Y-112700000D01*
D49*
X125800000Y-116050000D02*
G75*
G02*
X124850000Y-117000000I-950002J2D01*
G01*
X130162500Y-115100000D02*
G75*
G03*
X131012500Y-114250000I1J849999D01*
G01*
D48*
%TO.N,BOOT*%
X122900000Y-103550000D02*
X122450000Y-103550000D01*
X121774979Y-102874979D02*
X121774979Y-100525021D01*
X122400000Y-99900000D02*
X122957316Y-99900000D01*
X123840130Y-99247789D02*
X123840130Y-99017453D01*
X123840130Y-99017453D02*
X123877321Y-98980262D01*
X121774979Y-102874979D02*
G75*
G03*
X122450000Y-103550000I675021J0D01*
G01*
X123840129Y-99247789D02*
G75*
G02*
X122957316Y-99900000I-884948J274260D01*
G01*
X122400000Y-99900000D02*
G75*
G03*
X121774979Y-100525021I-1J-625020D01*
G01*
%TO.N,G*%
X135302806Y-98650000D02*
X136025000Y-98650000D01*
X135302806Y-98650000D02*
G75*
G03*
X135127796Y-98825010I-1J-175009D01*
G01*
%TO.N,R*%
X135053446Y-100950000D02*
X136025000Y-100950000D01*
X135053446Y-100950000D02*
G75*
G03*
X135051723Y-100951723I1J-1724D01*
G01*
%TO.N,B*%
X135178126Y-99800000D02*
X136025000Y-99800000D01*
X135178126Y-99800000D02*
G75*
G03*
X135114063Y-99864063I1J-64064D01*
G01*
%TO.N,TX*%
X133545000Y-116475000D02*
X132148583Y-116475000D01*
X132148583Y-116475000D02*
X132124500Y-116450917D01*
%TO.N,RX*%
X137355000Y-116575000D02*
X137355000Y-114829500D01*
X137125500Y-114600000D02*
G75*
G02*
X137355000Y-114829500I0J-229500D01*
G01*
%TO.N,DE*%
X136085000Y-116575000D02*
X136085000Y-115584221D01*
X135671985Y-115171206D02*
G75*
G02*
X136085000Y-115584221I1J-413014D01*
G01*
%TO.N,Net-(D1-Pad4)*%
X136750010Y-97675010D02*
X136750010Y-98875010D01*
X137675000Y-99800000D02*
G75*
G02*
X136750010Y-98875010I-1J924989D01*
G01*
X136750010Y-97675010D02*
G75*
G03*
X135975000Y-96900000I-775009J1D01*
G01*
%TO.N,Net-(D1-Pad3)*%
X137675000Y-98650000D02*
X137675000Y-96950000D01*
X137675000Y-96950000D02*
X137725000Y-96900000D01*
%TO.N,Net-(D1-Pad2)*%
X137675000Y-100950000D02*
X137900002Y-100950000D01*
X138475001Y-96475001D02*
X138475001Y-100375001D01*
X137725000Y-95900000D02*
X137900000Y-95900000D01*
X138475001Y-96475001D02*
G75*
G03*
X137900000Y-95900000I-575001J0D01*
G01*
X138475001Y-100375001D02*
G75*
G02*
X137900002Y-100950000I-574998J-1D01*
G01*
%TO.N,Net-(J3-PadA5)*%
X132040000Y-108350000D02*
X130825000Y-108350000D01*
X130500000Y-108675000D02*
G75*
G02*
X130825000Y-108350000I324999J1D01*
G01*
%TO.N,Net-(J3-PadB5)*%
X132040000Y-105350000D02*
X130725000Y-105350000D01*
X130500000Y-105575000D02*
G75*
G02*
X130725000Y-105350000I225000J0D01*
G01*
%TD*%
%TA.AperFunction,Conductor*%
%TO.N,GND*%
G36*
X132681253Y-120495502D02*
G01*
X132727746Y-120549158D01*
X132738744Y-120611387D01*
X132737193Y-120631089D01*
X132737000Y-120636014D01*
X132737000Y-121252885D01*
X132741475Y-121268124D01*
X132742865Y-121269329D01*
X132750548Y-121271000D01*
X133673000Y-121271000D01*
X133741121Y-121291002D01*
X133787614Y-121344658D01*
X133799000Y-121397000D01*
X133799000Y-121653000D01*
X133778998Y-121721121D01*
X133725342Y-121767614D01*
X133673000Y-121779000D01*
X132755116Y-121779000D01*
X132739877Y-121783475D01*
X132738672Y-121784865D01*
X132737001Y-121792548D01*
X132737001Y-122413984D01*
X132737195Y-122418920D01*
X132739430Y-122447336D01*
X132741730Y-122459931D01*
X132784107Y-122605790D01*
X132790354Y-122620225D01*
X132798714Y-122634362D01*
X132816173Y-122703178D01*
X132793656Y-122770509D01*
X132738311Y-122814978D01*
X132690260Y-122824500D01*
X130157882Y-122824500D01*
X130089761Y-122804498D01*
X130043268Y-122750842D01*
X130033164Y-122680568D01*
X130062658Y-122615988D01*
X130077313Y-122601626D01*
X130097068Y-122585196D01*
X130097073Y-122585191D01*
X130101505Y-122581505D01*
X130230837Y-122426001D01*
X130329664Y-122249531D01*
X130394678Y-122058007D01*
X130395507Y-122052291D01*
X130395508Y-122052286D01*
X130423167Y-121861516D01*
X130423700Y-121857842D01*
X130425215Y-121800000D01*
X130406708Y-121598591D01*
X130351807Y-121403926D01*
X130269649Y-121237326D01*
X130264906Y-121227708D01*
X130262351Y-121222527D01*
X130244079Y-121198057D01*
X130144788Y-121065091D01*
X130144787Y-121065090D01*
X130141335Y-121060467D01*
X130137099Y-121056551D01*
X129997053Y-120927094D01*
X129997051Y-120927092D01*
X129992812Y-120923174D01*
X129964533Y-120905331D01*
X129826637Y-120818325D01*
X129821757Y-120815246D01*
X129633898Y-120740298D01*
X129584158Y-120730404D01*
X129521249Y-120697496D01*
X129486117Y-120635801D01*
X129489917Y-120564906D01*
X129531443Y-120507320D01*
X129601675Y-120481023D01*
X129664725Y-120477482D01*
X129687442Y-120478630D01*
X129690207Y-120478630D01*
X129700000Y-120480181D01*
X129719763Y-120477051D01*
X129739473Y-120475500D01*
X132613132Y-120475500D01*
X132681253Y-120495502D01*
G37*
%TD.AperFunction*%
%TA.AperFunction,Conductor*%
G36*
X120784012Y-115405684D02*
G01*
X120796883Y-115418579D01*
X120799722Y-115421868D01*
X120803958Y-115428172D01*
X120920410Y-115534135D01*
X120941885Y-115545795D01*
X121052099Y-115605637D01*
X121052101Y-115605638D01*
X121058776Y-115609262D01*
X121096597Y-115619184D01*
X121111802Y-115623173D01*
X121172617Y-115659807D01*
X121203972Y-115723504D01*
X121195913Y-115794042D01*
X121169000Y-115834067D01*
X121156265Y-115846824D01*
X121147249Y-115858240D01*
X121062184Y-115996243D01*
X121056037Y-116009424D01*
X121004862Y-116163710D01*
X121001995Y-116177086D01*
X120992328Y-116271438D01*
X120992000Y-116277855D01*
X120992000Y-116727885D01*
X120996475Y-116743124D01*
X120997865Y-116744329D01*
X121005548Y-116746000D01*
X122478000Y-116746000D01*
X122546121Y-116766002D01*
X122592614Y-116819658D01*
X122604000Y-116872000D01*
X122604000Y-118414884D01*
X122608475Y-118430123D01*
X122609865Y-118431328D01*
X122617548Y-118432999D01*
X122997095Y-118432999D01*
X123003614Y-118432662D01*
X123099206Y-118422743D01*
X123112605Y-118419850D01*
X123120314Y-118417278D01*
X123191263Y-118414692D01*
X123252347Y-118450876D01*
X123284173Y-118514339D01*
X123286191Y-118536801D01*
X123286191Y-120515000D01*
X123837780Y-120515000D01*
X123905901Y-120535002D01*
X123952394Y-120588658D01*
X123962498Y-120658932D01*
X123933004Y-120723512D01*
X123881390Y-120759212D01*
X123764193Y-120802449D01*
X123759232Y-120805401D01*
X123759231Y-120805401D01*
X123602729Y-120898510D01*
X123590371Y-120905862D01*
X123438305Y-121039220D01*
X123313089Y-121198057D01*
X123300740Y-121221529D01*
X123295507Y-121231475D01*
X123246087Y-121282447D01*
X123176954Y-121298609D01*
X123110058Y-121274829D01*
X123066638Y-121218658D01*
X123057999Y-121172806D01*
X123057999Y-120905331D01*
X123057629Y-120898510D01*
X123052105Y-120847648D01*
X123048479Y-120832396D01*
X123003324Y-120711946D01*
X122994786Y-120696351D01*
X122918285Y-120594276D01*
X122905724Y-120581715D01*
X122803649Y-120505214D01*
X122788054Y-120496676D01*
X122667606Y-120451522D01*
X122652351Y-120447895D01*
X122601486Y-120442369D01*
X122594672Y-120442000D01*
X121972115Y-120442000D01*
X121956876Y-120446475D01*
X121955671Y-120447865D01*
X121954000Y-120455548D01*
X121954000Y-121928000D01*
X121933998Y-121996121D01*
X121880342Y-122042614D01*
X121828000Y-122054000D01*
X121572000Y-122054000D01*
X121503879Y-122033998D01*
X121457386Y-121980342D01*
X121446000Y-121928000D01*
X121446000Y-120460116D01*
X121441525Y-120444877D01*
X121440135Y-120443672D01*
X121432452Y-120442001D01*
X120805331Y-120442001D01*
X120798510Y-120442371D01*
X120747649Y-120447895D01*
X120730641Y-120451938D01*
X120659742Y-120448233D01*
X120602100Y-120406785D01*
X120576017Y-120340753D01*
X120575500Y-120329354D01*
X120575500Y-117722095D01*
X120992001Y-117722095D01*
X120992338Y-117728614D01*
X121002257Y-117824206D01*
X121005149Y-117837600D01*
X121056588Y-117991784D01*
X121062761Y-118004962D01*
X121148063Y-118142807D01*
X121157099Y-118154208D01*
X121271829Y-118268739D01*
X121283240Y-118277751D01*
X121421243Y-118362816D01*
X121434424Y-118368963D01*
X121588710Y-118420138D01*
X121602086Y-118423005D01*
X121696438Y-118432672D01*
X121702854Y-118433000D01*
X122077885Y-118433000D01*
X122093124Y-118428525D01*
X122094329Y-118427135D01*
X122096000Y-118419452D01*
X122096000Y-117272115D01*
X122091525Y-117256876D01*
X122090135Y-117255671D01*
X122082452Y-117254000D01*
X121010116Y-117254000D01*
X120994877Y-117258475D01*
X120993672Y-117259865D01*
X120992001Y-117267548D01*
X120992001Y-117722095D01*
X120575500Y-117722095D01*
X120575500Y-115500908D01*
X120595502Y-115432787D01*
X120649158Y-115386294D01*
X120719432Y-115376190D01*
X120784012Y-115405684D01*
G37*
%TD.AperFunction*%
%TA.AperFunction,Conductor*%
G36*
X132173770Y-114252375D02*
G01*
X132310387Y-114348035D01*
X132315371Y-114350359D01*
X132460096Y-114417845D01*
X132460100Y-114417846D01*
X132465085Y-114420171D01*
X132515292Y-114433624D01*
X132624644Y-114462925D01*
X132624646Y-114462925D01*
X132629959Y-114464349D01*
X132635435Y-114464828D01*
X132635440Y-114464829D01*
X132685628Y-114469220D01*
X132722743Y-114472467D01*
X132730675Y-114473663D01*
X132734548Y-114475023D01*
X132740055Y-114475500D01*
X132751910Y-114475500D01*
X132762891Y-114475979D01*
X132782154Y-114477664D01*
X132790009Y-114478629D01*
X132790203Y-114478629D01*
X132800000Y-114480181D01*
X132809793Y-114478630D01*
X132809794Y-114478630D01*
X132819762Y-114477051D01*
X132839473Y-114475500D01*
X132898500Y-114475500D01*
X132966621Y-114495502D01*
X133013114Y-114549158D01*
X133024500Y-114601500D01*
X133024500Y-114772376D01*
X133024869Y-114775772D01*
X133024869Y-114775773D01*
X133026620Y-114791886D01*
X133031149Y-114833579D01*
X133081474Y-114967823D01*
X133086854Y-114975002D01*
X133086856Y-114975005D01*
X133115874Y-115013723D01*
X133167454Y-115082546D01*
X133270845Y-115160033D01*
X133313359Y-115216891D01*
X133318385Y-115287709D01*
X133284325Y-115350003D01*
X133252482Y-115373125D01*
X133156658Y-115421950D01*
X133066950Y-115511658D01*
X133009354Y-115624696D01*
X133007804Y-115634485D01*
X133007803Y-115634487D01*
X133005193Y-115650968D01*
X132994500Y-115718481D01*
X132994500Y-115973500D01*
X132974498Y-116041621D01*
X132920842Y-116088114D01*
X132868500Y-116099500D01*
X132738629Y-116099500D01*
X132670508Y-116079498D01*
X132634790Y-116044868D01*
X132620337Y-116023839D01*
X132620336Y-116023838D01*
X132616031Y-116017574D01*
X132566564Y-115973500D01*
X132504148Y-115917889D01*
X132504145Y-115917887D01*
X132498476Y-115912836D01*
X132359331Y-115839162D01*
X132333533Y-115832682D01*
X132213998Y-115802657D01*
X132213996Y-115802657D01*
X132206628Y-115800806D01*
X132199030Y-115800766D01*
X132199028Y-115800766D01*
X132131819Y-115800414D01*
X132049184Y-115799982D01*
X132041805Y-115801754D01*
X132041801Y-115801754D01*
X131903467Y-115834965D01*
X131903463Y-115834966D01*
X131896088Y-115836737D01*
X131756179Y-115908949D01*
X131750457Y-115913941D01*
X131750455Y-115913942D01*
X131643259Y-116007455D01*
X131643256Y-116007458D01*
X131637534Y-116012450D01*
X131602460Y-116062355D01*
X131581296Y-116092469D01*
X131547001Y-116141265D01*
X131489809Y-116287956D01*
X131488818Y-116295485D01*
X131472187Y-116421809D01*
X131469258Y-116444055D01*
X131486535Y-116600550D01*
X131540643Y-116748407D01*
X131628458Y-116879089D01*
X131744910Y-116985052D01*
X131751585Y-116988676D01*
X131876599Y-117056554D01*
X131876601Y-117056555D01*
X131883276Y-117060179D01*
X131890625Y-117062107D01*
X132028219Y-117098204D01*
X132028221Y-117098204D01*
X132035569Y-117100132D01*
X132118880Y-117101441D01*
X132185398Y-117102486D01*
X132185401Y-117102486D01*
X132192995Y-117102605D01*
X132346468Y-117067455D01*
X132487125Y-116996712D01*
X132606848Y-116894459D01*
X132609628Y-116890590D01*
X132669430Y-116854608D01*
X132701341Y-116850500D01*
X132868501Y-116850500D01*
X132936622Y-116870502D01*
X132983115Y-116924158D01*
X132994501Y-116976500D01*
X132994501Y-117431518D01*
X132995276Y-117436411D01*
X132995276Y-117436412D01*
X133003902Y-117490876D01*
X133009354Y-117525304D01*
X133066950Y-117638342D01*
X133156658Y-117728050D01*
X133269696Y-117785646D01*
X133279485Y-117787196D01*
X133279487Y-117787197D01*
X133306849Y-117791530D01*
X133363481Y-117800500D01*
X133544963Y-117800500D01*
X133726518Y-117800499D01*
X133731412Y-117799724D01*
X133810506Y-117787198D01*
X133810508Y-117787197D01*
X133820304Y-117785646D01*
X133831299Y-117780044D01*
X133870305Y-117760169D01*
X133933342Y-117728050D01*
X134023050Y-117638342D01*
X134067733Y-117550647D01*
X134116481Y-117499032D01*
X134185396Y-117481966D01*
X134252598Y-117504867D01*
X134292267Y-117550647D01*
X134336950Y-117638342D01*
X134426658Y-117728050D01*
X134539696Y-117785646D01*
X134549485Y-117787196D01*
X134549487Y-117787197D01*
X134576849Y-117791530D01*
X134633481Y-117800500D01*
X134814963Y-117800500D01*
X134996518Y-117800499D01*
X135001412Y-117799724D01*
X135080506Y-117787198D01*
X135080508Y-117787197D01*
X135090304Y-117785646D01*
X135101299Y-117780044D01*
X135140305Y-117760169D01*
X135203342Y-117728050D01*
X135293050Y-117638342D01*
X135337733Y-117550647D01*
X135386481Y-117499032D01*
X135455396Y-117481966D01*
X135522598Y-117504867D01*
X135562267Y-117550647D01*
X135606950Y-117638342D01*
X135696658Y-117728050D01*
X135809696Y-117785646D01*
X135819485Y-117787196D01*
X135819487Y-117787197D01*
X135846849Y-117791530D01*
X135903481Y-117800500D01*
X136084963Y-117800500D01*
X136266518Y-117800499D01*
X136271412Y-117799724D01*
X136350506Y-117787198D01*
X136350508Y-117787197D01*
X136360304Y-117785646D01*
X136371299Y-117780044D01*
X136410305Y-117760169D01*
X136473342Y-117728050D01*
X136563050Y-117638342D01*
X136607733Y-117550647D01*
X136656481Y-117499032D01*
X136725396Y-117481966D01*
X136792598Y-117504867D01*
X136832267Y-117550647D01*
X136876950Y-117638342D01*
X136966658Y-117728050D01*
X137079696Y-117785646D01*
X137089485Y-117787196D01*
X137089487Y-117787197D01*
X137116849Y-117791530D01*
X137173481Y-117800500D01*
X137354963Y-117800500D01*
X137536518Y-117800499D01*
X137541412Y-117799724D01*
X137620506Y-117787198D01*
X137620508Y-117787197D01*
X137630304Y-117785646D01*
X137639139Y-117781144D01*
X137639143Y-117781143D01*
X137641299Y-117780044D01*
X137644202Y-117779499D01*
X137648572Y-117778079D01*
X137648756Y-117778644D01*
X137711076Y-117766941D01*
X137776860Y-117793642D01*
X137817766Y-117851671D01*
X137824500Y-117892312D01*
X137824500Y-119550171D01*
X137804498Y-119618292D01*
X137750842Y-119664785D01*
X137710850Y-119675564D01*
X137687969Y-119677818D01*
X137606995Y-119685793D01*
X137459870Y-119730423D01*
X137454415Y-119733339D01*
X137454412Y-119733340D01*
X137360847Y-119783352D01*
X137324279Y-119802898D01*
X137205433Y-119900433D01*
X137107898Y-120019279D01*
X137104980Y-120024737D01*
X137104980Y-120024738D01*
X137073718Y-120083226D01*
X137035423Y-120154870D01*
X137033626Y-120160794D01*
X136996558Y-120282992D01*
X136990793Y-120301995D01*
X136990186Y-120308161D01*
X136988979Y-120314227D01*
X136987770Y-120313986D01*
X136963625Y-120373786D01*
X136953908Y-120384700D01*
X136876950Y-120461658D01*
X136869107Y-120477051D01*
X136832267Y-120549353D01*
X136783519Y-120600968D01*
X136714604Y-120618034D01*
X136647402Y-120595133D01*
X136607733Y-120549353D01*
X136570893Y-120477051D01*
X136563050Y-120461658D01*
X136486026Y-120384634D01*
X136452000Y-120322322D01*
X136449509Y-120305420D01*
X136449128Y-120300572D01*
X136449127Y-120300565D01*
X136448739Y-120295636D01*
X136447585Y-120290829D01*
X136447584Y-120290823D01*
X136414944Y-120154870D01*
X136402054Y-120101180D01*
X136378062Y-120043257D01*
X136327420Y-119920995D01*
X136327418Y-119920991D01*
X136325525Y-119916421D01*
X136221035Y-119745909D01*
X136091158Y-119593842D01*
X135939091Y-119463965D01*
X135768579Y-119359475D01*
X135764009Y-119357582D01*
X135764005Y-119357580D01*
X135588393Y-119284840D01*
X135588391Y-119284839D01*
X135583820Y-119282946D01*
X135389364Y-119236261D01*
X135340355Y-119232404D01*
X135261864Y-119226227D01*
X135256971Y-119225511D01*
X135255452Y-119224977D01*
X135249945Y-119224500D01*
X135244877Y-119224500D01*
X135234993Y-119224112D01*
X135219679Y-119222907D01*
X135204362Y-119221701D01*
X135201569Y-119221371D01*
X135200161Y-119221371D01*
X135199438Y-119221314D01*
X135190000Y-119219819D01*
X135180207Y-119221370D01*
X135180206Y-119221370D01*
X135170238Y-119222949D01*
X135150527Y-119224500D01*
X130939473Y-119224500D01*
X130919762Y-119222949D01*
X130909793Y-119221370D01*
X130900000Y-119219819D01*
X130890206Y-119221370D01*
X130880291Y-119221370D01*
X130880291Y-119220322D01*
X130865772Y-119220643D01*
X130764015Y-119209178D01*
X130736512Y-119202901D01*
X130620743Y-119162392D01*
X130595326Y-119150152D01*
X130491473Y-119084896D01*
X130469415Y-119067304D01*
X130382696Y-118980585D01*
X130365104Y-118958527D01*
X130299848Y-118854674D01*
X130287608Y-118829257D01*
X130247099Y-118713488D01*
X130240822Y-118685985D01*
X130229357Y-118584228D01*
X130229678Y-118569709D01*
X130228630Y-118569709D01*
X130228630Y-118559794D01*
X130230181Y-118550000D01*
X130228630Y-118540204D01*
X130227051Y-118530238D01*
X130225500Y-118510527D01*
X130225500Y-118194315D01*
X130245502Y-118126194D01*
X130299348Y-118079615D01*
X130401081Y-118033360D01*
X130572360Y-117911863D01*
X130717575Y-117760169D01*
X130766457Y-117684464D01*
X130828233Y-117588791D01*
X130828234Y-117588788D01*
X130831485Y-117583754D01*
X130858990Y-117515506D01*
X130907739Y-117394545D01*
X130907740Y-117394542D01*
X130909981Y-117388981D01*
X130911129Y-117383100D01*
X130911131Y-117383095D01*
X130949362Y-117187324D01*
X130949362Y-117187321D01*
X130950230Y-117182878D01*
X130950500Y-117177357D01*
X130950500Y-116872531D01*
X130935561Y-116715954D01*
X130876447Y-116514451D01*
X130780295Y-116327761D01*
X130707824Y-116235501D01*
X130654282Y-116167338D01*
X130654278Y-116167333D01*
X130650576Y-116162621D01*
X130634127Y-116148347D01*
X130496502Y-116028921D01*
X130496497Y-116028917D01*
X130491971Y-116024990D01*
X130310201Y-115919834D01*
X130111826Y-115850947D01*
X130112613Y-115848680D01*
X130060254Y-115818379D01*
X130027786Y-115755241D01*
X130034608Y-115684573D01*
X130078553Y-115628811D01*
X130145669Y-115605660D01*
X130153071Y-115605532D01*
X130157627Y-115605588D01*
X130157634Y-115605588D01*
X130162499Y-115605647D01*
X130167322Y-115604956D01*
X130167325Y-115604956D01*
X130172029Y-115604282D01*
X130173567Y-115604062D01*
X130181538Y-115603177D01*
X130374418Y-115587998D01*
X130581118Y-115538374D01*
X130626810Y-115519448D01*
X130772936Y-115458921D01*
X130772940Y-115458919D01*
X130777510Y-115457026D01*
X130958759Y-115345956D01*
X130962519Y-115342744D01*
X130962524Y-115342741D01*
X131064448Y-115255689D01*
X131129237Y-115226658D01*
X131146278Y-115225500D01*
X131522376Y-115225500D01*
X131525773Y-115225131D01*
X131575728Y-115219704D01*
X131575729Y-115219704D01*
X131583579Y-115218851D01*
X131590972Y-115216079D01*
X131590974Y-115216079D01*
X131628438Y-115202034D01*
X131717823Y-115168526D01*
X131725002Y-115163146D01*
X131725005Y-115163144D01*
X131825366Y-115087927D01*
X131832546Y-115082546D01*
X131884126Y-115013723D01*
X131913144Y-114975005D01*
X131913146Y-114975002D01*
X131918526Y-114967823D01*
X131968851Y-114833579D01*
X131973381Y-114791886D01*
X131975131Y-114775773D01*
X131975131Y-114775772D01*
X131975500Y-114772376D01*
X131975500Y-114355588D01*
X131995502Y-114287467D01*
X132049158Y-114240974D01*
X132119432Y-114230870D01*
X132173770Y-114252375D01*
G37*
%TD.AperFunction*%
%TA.AperFunction,Conductor*%
G36*
X135296959Y-97223839D02*
G01*
X135313131Y-97248344D01*
X135314034Y-97247740D01*
X135369399Y-97330601D01*
X135452260Y-97385966D01*
X135525326Y-97400500D01*
X136201488Y-97400500D01*
X136269609Y-97420502D01*
X136301455Y-97449802D01*
X136310892Y-97462102D01*
X136327334Y-97490581D01*
X136354549Y-97556283D01*
X136363062Y-97588056D01*
X136370302Y-97643049D01*
X136371380Y-97659495D01*
X136371380Y-97665217D01*
X136369829Y-97675010D01*
X136371380Y-97684803D01*
X136372959Y-97694772D01*
X136374510Y-97714483D01*
X136374510Y-97798500D01*
X136354508Y-97866621D01*
X136300852Y-97913114D01*
X136248510Y-97924500D01*
X135771166Y-97924500D01*
X135753248Y-97926194D01*
X135747278Y-97926758D01*
X135747277Y-97926758D01*
X135739631Y-97927481D01*
X135611816Y-97972366D01*
X135604246Y-97977958D01*
X135604243Y-97977959D01*
X135556491Y-98013230D01*
X135502850Y-98052850D01*
X135497258Y-98060421D01*
X135431130Y-98149950D01*
X135374569Y-98192861D01*
X135299084Y-98197294D01*
X135217294Y-98176750D01*
X135217292Y-98176750D01*
X135209924Y-98174899D01*
X135202326Y-98174859D01*
X135202324Y-98174859D01*
X135135115Y-98174507D01*
X135052480Y-98174075D01*
X135045101Y-98175847D01*
X135045097Y-98175847D01*
X134906763Y-98209058D01*
X134906759Y-98209059D01*
X134899384Y-98210830D01*
X134759475Y-98283042D01*
X134753753Y-98288034D01*
X134753751Y-98288035D01*
X134646555Y-98381548D01*
X134646552Y-98381551D01*
X134640830Y-98386543D01*
X134604225Y-98438626D01*
X134584393Y-98466845D01*
X134550297Y-98515358D01*
X134493105Y-98662049D01*
X134472554Y-98818148D01*
X134489831Y-98974643D01*
X134543939Y-99122500D01*
X134548176Y-99128806D01*
X134548178Y-99128809D01*
X134587123Y-99186765D01*
X134631754Y-99253182D01*
X134634722Y-99255882D01*
X134663459Y-99319125D01*
X134653223Y-99389380D01*
X134632519Y-99420866D01*
X134627097Y-99425596D01*
X134622730Y-99431810D01*
X134556492Y-99526057D01*
X134536564Y-99554411D01*
X134479372Y-99701102D01*
X134478381Y-99708631D01*
X134468851Y-99781019D01*
X134458821Y-99857201D01*
X134476098Y-100013696D01*
X134530206Y-100161553D01*
X134534443Y-100167859D01*
X134534445Y-100167862D01*
X134574071Y-100226831D01*
X134618021Y-100292235D01*
X134622931Y-100296703D01*
X134652129Y-100360972D01*
X134641888Y-100431226D01*
X134610209Y-100473606D01*
X134564757Y-100513256D01*
X134528802Y-100564415D01*
X134478732Y-100635657D01*
X134474224Y-100642071D01*
X134417032Y-100788762D01*
X134416041Y-100796291D01*
X134402484Y-100899266D01*
X134396481Y-100944861D01*
X134413758Y-101101356D01*
X134467866Y-101249213D01*
X134472103Y-101255519D01*
X134472105Y-101255522D01*
X134492203Y-101285430D01*
X134555681Y-101379895D01*
X134561297Y-101385005D01*
X134655109Y-101470367D01*
X134672133Y-101485858D01*
X134699465Y-101500698D01*
X134803822Y-101557360D01*
X134803824Y-101557361D01*
X134810499Y-101560985D01*
X134817848Y-101562913D01*
X134955442Y-101599010D01*
X134955444Y-101599010D01*
X134962792Y-101600938D01*
X135046103Y-101602247D01*
X135112621Y-101603292D01*
X135112624Y-101603292D01*
X135120218Y-101603411D01*
X135273691Y-101568261D01*
X135360195Y-101524754D01*
X135430039Y-101512016D01*
X135495683Y-101539060D01*
X135499211Y-101542223D01*
X135502850Y-101547150D01*
X135510424Y-101552744D01*
X135604243Y-101622041D01*
X135604246Y-101622042D01*
X135611816Y-101627634D01*
X135739631Y-101672519D01*
X135747277Y-101673242D01*
X135747278Y-101673242D01*
X135753248Y-101673806D01*
X135771166Y-101675500D01*
X136068955Y-101675500D01*
X136137076Y-101695502D01*
X136183569Y-101749158D01*
X136191699Y-101813582D01*
X136198033Y-101828823D01*
X136777188Y-102407978D01*
X136791132Y-102415592D01*
X136792965Y-102415461D01*
X136799580Y-102411210D01*
X137378407Y-101832383D01*
X137386022Y-101818439D01*
X137385453Y-101810489D01*
X137400544Y-101741115D01*
X137450747Y-101690912D01*
X137511132Y-101675500D01*
X137928834Y-101675500D01*
X137946752Y-101673806D01*
X137952722Y-101673242D01*
X137952723Y-101673242D01*
X137960369Y-101672519D01*
X138088184Y-101627634D01*
X138095754Y-101622042D01*
X138095757Y-101622041D01*
X138189579Y-101552742D01*
X138197150Y-101547150D01*
X138231460Y-101500698D01*
X138272041Y-101445757D01*
X138272042Y-101445754D01*
X138277634Y-101438184D01*
X138322519Y-101310369D01*
X138324214Y-101292437D01*
X138350537Y-101226501D01*
X138377384Y-101201080D01*
X138440148Y-101157132D01*
X138451729Y-101149023D01*
X138519003Y-101126335D01*
X138587864Y-101143620D01*
X138636448Y-101195390D01*
X138650000Y-101252236D01*
X138650000Y-111998500D01*
X138629998Y-112066621D01*
X138576342Y-112113114D01*
X138524000Y-112124500D01*
X137909103Y-112124500D01*
X137840982Y-112104498D01*
X137794489Y-112050842D01*
X137784385Y-111980568D01*
X137799169Y-111936933D01*
X137826661Y-111887843D01*
X137831336Y-111877343D01*
X137894557Y-111691101D01*
X137897245Y-111679905D01*
X137925762Y-111483224D01*
X137926392Y-111475843D01*
X137927757Y-111423704D01*
X137927514Y-111416305D01*
X137909330Y-111218397D01*
X137907233Y-111207083D01*
X137853846Y-111017789D01*
X137849724Y-111007050D01*
X137762736Y-110830656D01*
X137761577Y-110828765D01*
X137752732Y-110822126D01*
X137740312Y-110828898D01*
X136879095Y-111690115D01*
X136816783Y-111724141D01*
X136745968Y-111719076D01*
X136700905Y-111690115D01*
X135840031Y-110829241D01*
X135827651Y-110822481D01*
X135821685Y-110826947D01*
X135741452Y-110979445D01*
X135737047Y-110990079D01*
X135678724Y-111177910D01*
X135676332Y-111189164D01*
X135653215Y-111384479D01*
X135652914Y-111395980D01*
X135665777Y-111592233D01*
X135667577Y-111603600D01*
X135686830Y-111679405D01*
X135684212Y-111750353D01*
X135643652Y-111808623D01*
X135578028Y-111835715D01*
X135527031Y-111830656D01*
X135511356Y-111825744D01*
X135498306Y-111823131D01*
X135443414Y-111818087D01*
X135431876Y-111821475D01*
X135430671Y-111822865D01*
X135429000Y-111830548D01*
X135429000Y-113764884D01*
X135433475Y-113780123D01*
X135434865Y-113781328D01*
X135455783Y-113785878D01*
X135455416Y-113787564D01*
X135501676Y-113796665D01*
X135552870Y-113845856D01*
X135569342Y-113914915D01*
X135566390Y-113934266D01*
X135565309Y-113937039D01*
X135564317Y-113944575D01*
X135554687Y-114017724D01*
X135544758Y-114093138D01*
X135562035Y-114249633D01*
X135598896Y-114350359D01*
X135607273Y-114373251D01*
X135611899Y-114444096D01*
X135577490Y-114506197D01*
X135518361Y-114539071D01*
X135450952Y-114555254D01*
X135450948Y-114555255D01*
X135443573Y-114557026D01*
X135303664Y-114629238D01*
X135297942Y-114634230D01*
X135297940Y-114634231D01*
X135190746Y-114727743D01*
X135185019Y-114732739D01*
X135180649Y-114738957D01*
X135179587Y-114740468D01*
X135178532Y-114741308D01*
X135175569Y-114744599D01*
X135175021Y-114744105D01*
X135124053Y-114784700D01*
X135053421Y-114791886D01*
X134990116Y-114759745D01*
X134954238Y-114698481D01*
X134950500Y-114668018D01*
X134950500Y-113427624D01*
X134943851Y-113366421D01*
X134941078Y-113359023D01*
X134929018Y-113326852D01*
X134921000Y-113282624D01*
X134921000Y-113072115D01*
X134916525Y-113056876D01*
X134915135Y-113055671D01*
X134907452Y-113054000D01*
X134763552Y-113054000D01*
X134703045Y-113038521D01*
X134700004Y-113036856D01*
X134692823Y-113031474D01*
X134625095Y-113006084D01*
X134565974Y-112983921D01*
X134565972Y-112983921D01*
X134558579Y-112981149D01*
X134550729Y-112980296D01*
X134550728Y-112980296D01*
X134500773Y-112974869D01*
X134500772Y-112974869D01*
X134497376Y-112974500D01*
X133477624Y-112974500D01*
X133474228Y-112974869D01*
X133474227Y-112974869D01*
X133424272Y-112980296D01*
X133424271Y-112980296D01*
X133416421Y-112981149D01*
X133409028Y-112983921D01*
X133409026Y-112983921D01*
X133371562Y-112997966D01*
X133282177Y-113031474D01*
X133274998Y-113036854D01*
X133274995Y-113036856D01*
X133204578Y-113089631D01*
X133167454Y-113117454D01*
X133162073Y-113124634D01*
X133086856Y-113224995D01*
X133086854Y-113224998D01*
X133081474Y-113232177D01*
X133078324Y-113240581D01*
X133045983Y-113326852D01*
X133031149Y-113366421D01*
X133024500Y-113427624D01*
X133024500Y-113598500D01*
X133004498Y-113666621D01*
X132950842Y-113713114D01*
X132898500Y-113724500D01*
X132839473Y-113724500D01*
X132819762Y-113722949D01*
X132809793Y-113721370D01*
X132800000Y-113719819D01*
X132790206Y-113721370D01*
X132790158Y-113721370D01*
X132770449Y-113719819D01*
X132750338Y-113716634D01*
X132712846Y-113704453D01*
X132685820Y-113690682D01*
X132653929Y-113667511D01*
X132632489Y-113646071D01*
X132609317Y-113614179D01*
X132601328Y-113598500D01*
X132595547Y-113587154D01*
X132583366Y-113549662D01*
X132580181Y-113529551D01*
X132578630Y-113509842D01*
X132578630Y-113509794D01*
X132580181Y-113500000D01*
X132578901Y-113491917D01*
X132578630Y-113488819D01*
X132578630Y-113488450D01*
X132578519Y-113487546D01*
X132568609Y-113374272D01*
X132563207Y-113312528D01*
X132519946Y-113151076D01*
X132515923Y-113136062D01*
X132515922Y-113136060D01*
X132514500Y-113130752D01*
X132506922Y-113114500D01*
X132437291Y-112965177D01*
X132437289Y-112965174D01*
X132434968Y-112960196D01*
X132370971Y-112868799D01*
X132348284Y-112801527D01*
X132365569Y-112732666D01*
X132417339Y-112684082D01*
X132485166Y-112671009D01*
X132614524Y-112682326D01*
X132625475Y-112682326D01*
X132833804Y-112664099D01*
X132844599Y-112662196D01*
X133046595Y-112608072D01*
X133056887Y-112604326D01*
X133220815Y-112527885D01*
X134267000Y-112527885D01*
X134271475Y-112543124D01*
X134272865Y-112544329D01*
X134280548Y-112546000D01*
X134902885Y-112546000D01*
X134918124Y-112541525D01*
X134919329Y-112540135D01*
X134921000Y-112532452D01*
X134921000Y-111835116D01*
X134916525Y-111819877D01*
X134915135Y-111818672D01*
X134910706Y-111817709D01*
X134851685Y-111823132D01*
X134838649Y-111825743D01*
X134688757Y-111872715D01*
X134675012Y-111878921D01*
X134541426Y-111959824D01*
X134529557Y-111969131D01*
X134419131Y-112079557D01*
X134409824Y-112091426D01*
X134328921Y-112225012D01*
X134322715Y-112238757D01*
X134275744Y-112388644D01*
X134273131Y-112401694D01*
X134267266Y-112465521D01*
X134267000Y-112471309D01*
X134267000Y-112527885D01*
X133220815Y-112527885D01*
X133246416Y-112515947D01*
X133255912Y-112510464D01*
X133297148Y-112481590D01*
X133305523Y-112471113D01*
X133298454Y-112457665D01*
X132261922Y-111421132D01*
X132984408Y-111421132D01*
X132984539Y-111422966D01*
X132988790Y-111429580D01*
X133658391Y-112099180D01*
X133670161Y-112105607D01*
X133682176Y-112096311D01*
X133710466Y-112055907D01*
X133715946Y-112046417D01*
X133804326Y-111856887D01*
X133808072Y-111846595D01*
X133862196Y-111644599D01*
X133864099Y-111633804D01*
X133882326Y-111425475D01*
X133882326Y-111414525D01*
X133864099Y-111206196D01*
X133862196Y-111195401D01*
X133808072Y-110993405D01*
X133804326Y-110983113D01*
X133715946Y-110793583D01*
X133710466Y-110784093D01*
X133681589Y-110742851D01*
X133671113Y-110734477D01*
X133657666Y-110741545D01*
X132992021Y-111407189D01*
X132984408Y-111421132D01*
X132261922Y-111421132D01*
X132260790Y-111420000D01*
X132001599Y-111160810D01*
X131978139Y-111148000D01*
X131912000Y-111148000D01*
X131843879Y-111127998D01*
X131797386Y-111074342D01*
X131786000Y-111022000D01*
X131786000Y-110963326D01*
X131778470Y-110937681D01*
X131611665Y-110770876D01*
X131577639Y-110708564D01*
X131582704Y-110637749D01*
X131611665Y-110592686D01*
X131637541Y-110566810D01*
X131643048Y-110556724D01*
X131635744Y-110554000D01*
X131541115Y-110554000D01*
X131496720Y-110567035D01*
X131486043Y-110573897D01*
X131450548Y-110579000D01*
X130772115Y-110579000D01*
X130756876Y-110583475D01*
X130755671Y-110584865D01*
X130754000Y-110592548D01*
X130754000Y-111214884D01*
X130758475Y-111230123D01*
X130759865Y-111231328D01*
X130767548Y-111232999D01*
X130828705Y-111232999D01*
X130834454Y-111232736D01*
X130898315Y-111226868D01*
X130911351Y-111224257D01*
X131061243Y-111177285D01*
X131074988Y-111171079D01*
X131183542Y-111105336D01*
X131252172Y-111087157D01*
X131319736Y-111108967D01*
X131364782Y-111163843D01*
X131374335Y-111224094D01*
X131357674Y-111414525D01*
X131357674Y-111425475D01*
X131375901Y-111633804D01*
X131377804Y-111644599D01*
X131431928Y-111846595D01*
X131435674Y-111856887D01*
X131524056Y-112046421D01*
X131529534Y-112055907D01*
X131648345Y-112225589D01*
X131671033Y-112292863D01*
X131653748Y-112361723D01*
X131601978Y-112410307D01*
X131534148Y-112423379D01*
X131512458Y-112421481D01*
X131511554Y-112421370D01*
X131511179Y-112421370D01*
X131508081Y-112421099D01*
X131499999Y-112419819D01*
X131490206Y-112421370D01*
X131480237Y-112422949D01*
X131460526Y-112424500D01*
X130439472Y-112424500D01*
X130419761Y-112422949D01*
X130409792Y-112421370D01*
X130399999Y-112419819D01*
X130390205Y-112421370D01*
X130390157Y-112421370D01*
X130370447Y-112419819D01*
X130319434Y-112411740D01*
X130281944Y-112399559D01*
X130227041Y-112371584D01*
X130195150Y-112348413D01*
X130151587Y-112304850D01*
X130128415Y-112272958D01*
X130124247Y-112264778D01*
X130100441Y-112218056D01*
X130088260Y-112180565D01*
X130086962Y-112172366D01*
X130080181Y-112129553D01*
X130078630Y-112109843D01*
X130078630Y-112109795D01*
X130080181Y-112100001D01*
X130077051Y-112080237D01*
X130075500Y-112060528D01*
X130075500Y-111359000D01*
X130095502Y-111290879D01*
X130149158Y-111244386D01*
X130201500Y-111233000D01*
X130227885Y-111233000D01*
X130243124Y-111228525D01*
X130244329Y-111227135D01*
X130246000Y-111219452D01*
X130246000Y-110197000D01*
X130266002Y-110128879D01*
X130319658Y-110082386D01*
X130372000Y-110071000D01*
X130903885Y-110071000D01*
X130948280Y-110057965D01*
X130958957Y-110051103D01*
X130994452Y-110046000D01*
X131410293Y-110046000D01*
X131434875Y-110048421D01*
X131445326Y-110050500D01*
X132168000Y-110050500D01*
X132236121Y-110070502D01*
X132282614Y-110124158D01*
X132294000Y-110176500D01*
X132294000Y-110716674D01*
X132301530Y-110742319D01*
X132607189Y-111047979D01*
X132621132Y-111055592D01*
X132622966Y-111055461D01*
X132629580Y-111051210D01*
X133220353Y-110460436D01*
X136194547Y-110460436D01*
X136198033Y-110468823D01*
X136777188Y-111047978D01*
X136791132Y-111055592D01*
X136792965Y-111055461D01*
X136799580Y-111051210D01*
X137378407Y-110472383D01*
X137385167Y-110460003D01*
X137379137Y-110451948D01*
X137311459Y-110409246D01*
X137301211Y-110404025D01*
X137118531Y-110331143D01*
X137107504Y-110327876D01*
X136914605Y-110289506D01*
X136903159Y-110288303D01*
X136706507Y-110285730D01*
X136695027Y-110286633D01*
X136501199Y-110319938D01*
X136490079Y-110322918D01*
X136305557Y-110390992D01*
X136295179Y-110395942D01*
X136204146Y-110450101D01*
X136194547Y-110460436D01*
X133220353Y-110460436D01*
X133299180Y-110381609D01*
X133305607Y-110369839D01*
X133296313Y-110357825D01*
X133255912Y-110329536D01*
X133246412Y-110324051D01*
X133190750Y-110298096D01*
X133137464Y-110251179D01*
X133117999Y-110183901D01*
X133117999Y-109955331D01*
X133117629Y-109948510D01*
X133112105Y-109897648D01*
X133108479Y-109882397D01*
X133065738Y-109768386D01*
X133060555Y-109697579D01*
X133086320Y-109644224D01*
X133181281Y-109528514D01*
X133254220Y-109392056D01*
X133299136Y-109243990D01*
X133306181Y-109172467D01*
X133307891Y-109161533D01*
X133310024Y-109155457D01*
X133310501Y-109149950D01*
X133310501Y-109134787D01*
X133311106Y-109122453D01*
X133312494Y-109108367D01*
X133313435Y-109101035D01*
X133313631Y-109099798D01*
X133315182Y-109090006D01*
X133312052Y-109070243D01*
X133310501Y-109050533D01*
X133310501Y-105149467D01*
X133312052Y-105129756D01*
X133313631Y-105119787D01*
X133315182Y-105109994D01*
X133313434Y-105098956D01*
X133312490Y-105091600D01*
X133309420Y-105060421D01*
X133299136Y-104956010D01*
X133254220Y-104807944D01*
X133231198Y-104764872D01*
X133184199Y-104676945D01*
X133184199Y-104676944D01*
X133181281Y-104671486D01*
X133086320Y-104555776D01*
X133058567Y-104490431D01*
X133065738Y-104431614D01*
X133108478Y-104317606D01*
X133112105Y-104302351D01*
X133117631Y-104251486D01*
X133118000Y-104244672D01*
X133118000Y-104016099D01*
X133138002Y-103947978D01*
X133190750Y-103901904D01*
X133246416Y-103875947D01*
X133255912Y-103870464D01*
X133297148Y-103841590D01*
X133305523Y-103831112D01*
X133298457Y-103817668D01*
X133220108Y-103739319D01*
X136195041Y-103739319D01*
X136204923Y-103751809D01*
X136242259Y-103776756D01*
X136252371Y-103782247D01*
X136433081Y-103859885D01*
X136444014Y-103863437D01*
X136635844Y-103906845D01*
X136647253Y-103908347D01*
X136843783Y-103916068D01*
X136855265Y-103915466D01*
X137049905Y-103887245D01*
X137061101Y-103884557D01*
X137247343Y-103821336D01*
X137257840Y-103816662D01*
X137376401Y-103750266D01*
X137386264Y-103740189D01*
X137383309Y-103732519D01*
X136802812Y-103152022D01*
X136788868Y-103144408D01*
X136787035Y-103144539D01*
X136780420Y-103148790D01*
X136201237Y-103727973D01*
X136195041Y-103739319D01*
X133220108Y-103739319D01*
X132632811Y-103152021D01*
X132618868Y-103144408D01*
X132617034Y-103144539D01*
X132610421Y-103148790D01*
X132306808Y-103452403D01*
X132294000Y-103475859D01*
X132294000Y-104023500D01*
X132273998Y-104091621D01*
X132220342Y-104138114D01*
X132168000Y-104149500D01*
X131445326Y-104149500D01*
X131372260Y-104164034D01*
X131363624Y-104169804D01*
X131317392Y-104179000D01*
X129535116Y-104179000D01*
X129519877Y-104183475D01*
X129518672Y-104184865D01*
X129517709Y-104189294D01*
X129523132Y-104248315D01*
X129525743Y-104261351D01*
X129572715Y-104411243D01*
X129578921Y-104424988D01*
X129659824Y-104558574D01*
X129669131Y-104570443D01*
X129779557Y-104680869D01*
X129791426Y-104690176D01*
X129925012Y-104771079D01*
X129945677Y-104780409D01*
X129945156Y-104781563D01*
X129997779Y-104816744D01*
X130026097Y-104881849D01*
X130014722Y-104951928D01*
X129975936Y-104998867D01*
X129902850Y-105052850D01*
X129897258Y-105060421D01*
X129827959Y-105154243D01*
X129827958Y-105154246D01*
X129822366Y-105161816D01*
X129777481Y-105289631D01*
X129774696Y-105319096D01*
X129774695Y-105319098D01*
X129774505Y-105321118D01*
X129774500Y-105321166D01*
X129773997Y-105321118D01*
X129751549Y-105386059D01*
X129695759Y-105429968D01*
X129625086Y-105436744D01*
X129597215Y-105426871D01*
X129596976Y-105427448D01*
X129591251Y-105425077D01*
X129585796Y-105422161D01*
X129460402Y-105384124D01*
X129432384Y-105381364D01*
X129417445Y-105379893D01*
X129403277Y-105377678D01*
X129402932Y-105377604D01*
X129395452Y-105374977D01*
X129389945Y-105374500D01*
X129369469Y-105374500D01*
X129349761Y-105372949D01*
X129339790Y-105371370D01*
X129329996Y-105369819D01*
X129320204Y-105371370D01*
X129320203Y-105371370D01*
X129310234Y-105372949D01*
X129290523Y-105374500D01*
X129209472Y-105374500D01*
X129189761Y-105372949D01*
X129179793Y-105371370D01*
X129179792Y-105371370D01*
X129169999Y-105369819D01*
X129160202Y-105371371D01*
X129159694Y-105371371D01*
X129153235Y-105372164D01*
X128996472Y-105385879D01*
X128991162Y-105387302D01*
X128991161Y-105387302D01*
X128912345Y-105408421D01*
X128828218Y-105430963D01*
X128823238Y-105433285D01*
X128823233Y-105433287D01*
X128675336Y-105502253D01*
X128675331Y-105502256D01*
X128670349Y-105504579D01*
X128665842Y-105507735D01*
X128665840Y-105507736D01*
X128532172Y-105601331D01*
X128532169Y-105601333D01*
X128527661Y-105604490D01*
X128404490Y-105727661D01*
X128304579Y-105870349D01*
X128302255Y-105875333D01*
X128302252Y-105875338D01*
X128299262Y-105881751D01*
X128252344Y-105935036D01*
X128185068Y-105954500D01*
X127901500Y-105954500D01*
X127833379Y-105934498D01*
X127786886Y-105880842D01*
X127775500Y-105828500D01*
X127775500Y-104039473D01*
X127777051Y-104019762D01*
X127778630Y-104009794D01*
X127778630Y-104009793D01*
X127780181Y-104000000D01*
X127778629Y-103990203D01*
X127778629Y-103989736D01*
X127778000Y-103984833D01*
X127764163Y-103844337D01*
X127763556Y-103838174D01*
X127758449Y-103821336D01*
X127718150Y-103688489D01*
X127718149Y-103688486D01*
X127716353Y-103682566D01*
X127702466Y-103656586D01*
X129518087Y-103656586D01*
X129521475Y-103668124D01*
X129522865Y-103669329D01*
X129530548Y-103671000D01*
X130227885Y-103671000D01*
X130243124Y-103666525D01*
X130244329Y-103665135D01*
X130246000Y-103657452D01*
X130246000Y-103035116D01*
X130241525Y-103019877D01*
X130240135Y-103018672D01*
X130232452Y-103017001D01*
X130171295Y-103017001D01*
X130165546Y-103017264D01*
X130101685Y-103023132D01*
X130088649Y-103025743D01*
X129938757Y-103072715D01*
X129925012Y-103078921D01*
X129791427Y-103159823D01*
X129779557Y-103169131D01*
X129669131Y-103279557D01*
X129659824Y-103291426D01*
X129578921Y-103425012D01*
X129572715Y-103438757D01*
X129525744Y-103588644D01*
X129523131Y-103601694D01*
X129518087Y-103656586D01*
X127702466Y-103656586D01*
X127639699Y-103539158D01*
X127571709Y-103456311D01*
X127560465Y-103442610D01*
X127532712Y-103377263D01*
X127544694Y-103307284D01*
X127577932Y-103265278D01*
X127658551Y-103199116D01*
X127663336Y-103195189D01*
X127762761Y-103074039D01*
X127793108Y-103017264D01*
X127833723Y-102941279D01*
X127833724Y-102941276D01*
X127836640Y-102935821D01*
X127882135Y-102785845D01*
X127889416Y-102711922D01*
X127891081Y-102701277D01*
X127893170Y-102695327D01*
X127893647Y-102689820D01*
X127893647Y-102675149D01*
X127894254Y-102662800D01*
X127895766Y-102647447D01*
X127896711Y-102640081D01*
X127898328Y-102629876D01*
X127895198Y-102610113D01*
X127893647Y-102590403D01*
X127893647Y-101965446D01*
X127913649Y-101897325D01*
X127967305Y-101850832D01*
X128037579Y-101840728D01*
X128079043Y-101854324D01*
X128196331Y-101917016D01*
X128196335Y-101917018D01*
X128201793Y-101919935D01*
X128207713Y-101921731D01*
X128207716Y-101921732D01*
X128342054Y-101962483D01*
X128342058Y-101962484D01*
X128347976Y-101964279D01*
X128354139Y-101964886D01*
X128417109Y-101971088D01*
X128428345Y-101972845D01*
X128434548Y-101975023D01*
X128440055Y-101975500D01*
X128455722Y-101975500D01*
X128468070Y-101976107D01*
X128480794Y-101977360D01*
X128488144Y-101978303D01*
X128500001Y-101980181D01*
X128509794Y-101978630D01*
X128509795Y-101978630D01*
X128519763Y-101977051D01*
X128539474Y-101975500D01*
X131409315Y-101975500D01*
X131477436Y-101995502D01*
X131523929Y-102049158D01*
X131534033Y-102119432D01*
X131523510Y-102154750D01*
X131435674Y-102343113D01*
X131431928Y-102353405D01*
X131377804Y-102555401D01*
X131375901Y-102566196D01*
X131357674Y-102774525D01*
X131357674Y-102785475D01*
X131375936Y-102994207D01*
X131361947Y-103063812D01*
X131312548Y-103114804D01*
X131294643Y-103123171D01*
X131261325Y-103135661D01*
X131190518Y-103140844D01*
X131151826Y-103125455D01*
X131074992Y-103078923D01*
X131061243Y-103072715D01*
X130911356Y-103025744D01*
X130898306Y-103023131D01*
X130834479Y-103017266D01*
X130828691Y-103017000D01*
X130772115Y-103017000D01*
X130756876Y-103021475D01*
X130755671Y-103022865D01*
X130754000Y-103030548D01*
X130754000Y-103652885D01*
X130758475Y-103668124D01*
X130759865Y-103669329D01*
X130767548Y-103671000D01*
X130903885Y-103671000D01*
X130948280Y-103657965D01*
X130958957Y-103651103D01*
X130994452Y-103646000D01*
X131632235Y-103646000D01*
X131643260Y-103642763D01*
X131640021Y-103635670D01*
X131611665Y-103607314D01*
X131577639Y-103545002D01*
X131582704Y-103474187D01*
X131611665Y-103429124D01*
X131773188Y-103267601D01*
X131786000Y-103244139D01*
X131786000Y-103178000D01*
X131806002Y-103109879D01*
X131859658Y-103063386D01*
X131912000Y-103052000D01*
X131970674Y-103052000D01*
X131996319Y-103044470D01*
X132259657Y-102781132D01*
X132984408Y-102781132D01*
X132984539Y-102782966D01*
X132988790Y-102789580D01*
X133658391Y-103459180D01*
X133670161Y-103465607D01*
X133682176Y-103456311D01*
X133710466Y-103415907D01*
X133715946Y-103406417D01*
X133804326Y-103216887D01*
X133808072Y-103206595D01*
X133862196Y-103004599D01*
X133864099Y-102993804D01*
X133882326Y-102785475D01*
X133882326Y-102774525D01*
X133880703Y-102755980D01*
X135652914Y-102755980D01*
X135665777Y-102952233D01*
X135667577Y-102963601D01*
X135715991Y-103154228D01*
X135719829Y-103165066D01*
X135802173Y-103343685D01*
X135807922Y-103353642D01*
X135817850Y-103367690D01*
X135828439Y-103376078D01*
X135841740Y-103369050D01*
X136417978Y-102792812D01*
X136424356Y-102781132D01*
X137154408Y-102781132D01*
X137154539Y-102782965D01*
X137158790Y-102789580D01*
X137738603Y-103369393D01*
X137750983Y-103376153D01*
X137757563Y-103371227D01*
X137826662Y-103247840D01*
X137831336Y-103237343D01*
X137894557Y-103051101D01*
X137897245Y-103039905D01*
X137925762Y-102843224D01*
X137926392Y-102835843D01*
X137927757Y-102783704D01*
X137927514Y-102776305D01*
X137909330Y-102578397D01*
X137907233Y-102567083D01*
X137853846Y-102377789D01*
X137849724Y-102367050D01*
X137762736Y-102190656D01*
X137761577Y-102188765D01*
X137752732Y-102182126D01*
X137740312Y-102188898D01*
X137162022Y-102767188D01*
X137154408Y-102781132D01*
X136424356Y-102781132D01*
X136425592Y-102778868D01*
X136425461Y-102777035D01*
X136421210Y-102770420D01*
X135840031Y-102189241D01*
X135827651Y-102182481D01*
X135821685Y-102186947D01*
X135741452Y-102339445D01*
X135737047Y-102350079D01*
X135678724Y-102537910D01*
X135676332Y-102549164D01*
X135653215Y-102744479D01*
X135652914Y-102755980D01*
X133880703Y-102755980D01*
X133864099Y-102566196D01*
X133862196Y-102555401D01*
X133808072Y-102353405D01*
X133804326Y-102343113D01*
X133715946Y-102153583D01*
X133710466Y-102144093D01*
X133681589Y-102102851D01*
X133671113Y-102094477D01*
X133657666Y-102101545D01*
X132992021Y-102767189D01*
X132984408Y-102781132D01*
X132259657Y-102781132D01*
X132620000Y-102420790D01*
X133299177Y-101741612D01*
X133307269Y-101726792D01*
X133321952Y-101659294D01*
X133350708Y-101623870D01*
X133390168Y-101590168D01*
X133393381Y-101586406D01*
X133393386Y-101586401D01*
X133522449Y-101435286D01*
X133522450Y-101435285D01*
X133525667Y-101431518D01*
X133634681Y-101253625D01*
X133639465Y-101242077D01*
X133712629Y-101065442D01*
X133712630Y-101065440D01*
X133714523Y-101060869D01*
X133740562Y-100952411D01*
X133762074Y-100862809D01*
X133762075Y-100862803D01*
X133763229Y-100857996D01*
X133774041Y-100720617D01*
X133774635Y-100716556D01*
X133775023Y-100715452D01*
X133775500Y-100709945D01*
X133775500Y-100707037D01*
X133775888Y-100697152D01*
X133778629Y-100662320D01*
X133779024Y-100657305D01*
X133780181Y-100650001D01*
X133777051Y-100630237D01*
X133775500Y-100610528D01*
X133775500Y-99239473D01*
X133777051Y-99219762D01*
X133778630Y-99209793D01*
X133780181Y-99200000D01*
X133778630Y-99190208D01*
X133778630Y-99187459D01*
X133777481Y-99164719D01*
X133777919Y-99156914D01*
X133789061Y-98958522D01*
X133790643Y-98944485D01*
X133829970Y-98713023D01*
X133833114Y-98699248D01*
X133857291Y-98615326D01*
X133898112Y-98473634D01*
X133902771Y-98460320D01*
X133992626Y-98243390D01*
X133998755Y-98230666D01*
X134112315Y-98025194D01*
X134119832Y-98013230D01*
X134255697Y-97821745D01*
X134264508Y-97810697D01*
X134402126Y-97656705D01*
X134419005Y-97641449D01*
X134420955Y-97639499D01*
X134428975Y-97633672D01*
X134440739Y-97617480D01*
X134453576Y-97602451D01*
X134794549Y-97261479D01*
X134856861Y-97227454D01*
X134885623Y-97224591D01*
X135010897Y-97226559D01*
X135010900Y-97226559D01*
X135018495Y-97226678D01*
X135171968Y-97191528D01*
X135172277Y-97192879D01*
X135235038Y-97189107D01*
X135296959Y-97223839D01*
G37*
%TD.AperFunction*%
%TA.AperFunction,Conductor*%
G36*
X128662241Y-108723985D02*
G01*
X128684310Y-108748933D01*
X128703958Y-108778172D01*
X128749057Y-108819209D01*
X128803619Y-108868856D01*
X128820410Y-108884135D01*
X128841885Y-108895795D01*
X128952099Y-108955637D01*
X128952101Y-108955638D01*
X128958776Y-108959262D01*
X128966125Y-108961190D01*
X129103719Y-108997287D01*
X129103721Y-108997287D01*
X129111069Y-108999215D01*
X129194380Y-109000524D01*
X129260898Y-109001569D01*
X129260901Y-109001569D01*
X129268495Y-109001688D01*
X129421968Y-108966538D01*
X129562625Y-108895795D01*
X129572597Y-108887278D01*
X129637386Y-108858249D01*
X129707585Y-108868856D01*
X129760907Y-108915732D01*
X129776951Y-108954762D01*
X129777481Y-108960369D01*
X129780024Y-108967611D01*
X129780025Y-108967615D01*
X129818475Y-109077104D01*
X129822366Y-109088184D01*
X129827962Y-109095760D01*
X129831474Y-109102393D01*
X129845673Y-109171955D01*
X129820010Y-109238151D01*
X129792391Y-109264566D01*
X129675077Y-109346710D01*
X129675074Y-109346712D01*
X129670566Y-109349869D01*
X129549869Y-109470566D01*
X129451965Y-109610387D01*
X129449641Y-109615371D01*
X129388598Y-109746280D01*
X129379829Y-109765085D01*
X129335651Y-109929959D01*
X129335172Y-109935435D01*
X129335171Y-109935440D01*
X129327534Y-110022738D01*
X129326337Y-110030675D01*
X129324977Y-110034548D01*
X129324500Y-110040055D01*
X129324500Y-110051910D01*
X129324021Y-110062891D01*
X129322336Y-110082152D01*
X129321371Y-110090009D01*
X129321371Y-110090203D01*
X129319819Y-110100000D01*
X129321370Y-110109793D01*
X129321370Y-110109794D01*
X129322949Y-110119762D01*
X129324500Y-110139473D01*
X129324500Y-112060526D01*
X129322949Y-112080236D01*
X129319819Y-112099999D01*
X129321099Y-112108081D01*
X129321370Y-112111179D01*
X129321370Y-112111548D01*
X129321482Y-112112460D01*
X129336793Y-112287472D01*
X129385500Y-112469248D01*
X129387822Y-112474228D01*
X129387823Y-112474230D01*
X129453956Y-112616051D01*
X129465032Y-112639804D01*
X129572972Y-112793959D01*
X129706041Y-112927028D01*
X129860196Y-113034968D01*
X129865174Y-113037289D01*
X129865177Y-113037291D01*
X130027104Y-113112799D01*
X130080389Y-113159717D01*
X130099850Y-113227994D01*
X130091836Y-113271222D01*
X130058922Y-113359023D01*
X130056149Y-113366421D01*
X130049500Y-113427624D01*
X130049500Y-114473500D01*
X130029498Y-114541621D01*
X129975842Y-114588114D01*
X129923500Y-114599500D01*
X128756320Y-114599500D01*
X128688199Y-114579498D01*
X128641706Y-114525842D01*
X128631602Y-114455568D01*
X128636727Y-114433833D01*
X128641259Y-114420171D01*
X128649796Y-114394432D01*
X128685632Y-114286389D01*
X128685632Y-114286387D01*
X128687797Y-114279861D01*
X128688599Y-114272039D01*
X128698172Y-114178598D01*
X128698500Y-114175400D01*
X128698500Y-113124600D01*
X128694872Y-113089631D01*
X128688238Y-113025692D01*
X128688237Y-113025688D01*
X128687526Y-113018834D01*
X128666462Y-112955696D01*
X128633868Y-112858002D01*
X128631550Y-112851054D01*
X128538478Y-112700652D01*
X128490711Y-112652968D01*
X128456632Y-112590685D01*
X128453729Y-112563795D01*
X128453729Y-109112148D01*
X128455011Y-109094217D01*
X128455701Y-109089417D01*
X128456582Y-109083290D01*
X128453316Y-109022350D01*
X128454079Y-109012876D01*
X128453729Y-109012876D01*
X128453729Y-108819209D01*
X128473731Y-108751088D01*
X128527387Y-108704595D01*
X128597661Y-108694491D01*
X128662241Y-108723985D01*
G37*
%TD.AperFunction*%
%TA.AperFunction,Conductor*%
G36*
X125456167Y-110206851D02*
G01*
X125573113Y-110245640D01*
X125573115Y-110245640D01*
X125579641Y-110247805D01*
X125586478Y-110248505D01*
X125586480Y-110248506D01*
X125629179Y-110252881D01*
X125684023Y-110258500D01*
X125714950Y-110258500D01*
X126800271Y-110258499D01*
X126868392Y-110278501D01*
X126914885Y-110332157D01*
X126926271Y-110384499D01*
X126926271Y-110963500D01*
X126906269Y-111031621D01*
X126852613Y-111078114D01*
X126800271Y-111089500D01*
X125709276Y-111089501D01*
X125680628Y-111089501D01*
X125677678Y-111089780D01*
X125677673Y-111089780D01*
X125656774Y-111091755D01*
X125656773Y-111091755D01*
X125649125Y-111092478D01*
X125521488Y-111137301D01*
X125491357Y-111159556D01*
X125424682Y-111183938D01*
X125355406Y-111168402D01*
X125305527Y-111117878D01*
X125290500Y-111058204D01*
X125290500Y-110326444D01*
X125310502Y-110258323D01*
X125364158Y-110211830D01*
X125434432Y-110201726D01*
X125456167Y-110206851D01*
G37*
%TD.AperFunction*%
%TA.AperFunction,Conductor*%
G36*
X121601881Y-94870002D02*
G01*
X121648374Y-94923658D01*
X121651878Y-94932136D01*
X121722808Y-95123188D01*
X121723844Y-95125425D01*
X121723847Y-95125431D01*
X121875941Y-95453682D01*
X121921910Y-95552893D01*
X122154057Y-95965683D01*
X122202562Y-96038015D01*
X122398362Y-96329999D01*
X122417824Y-96359022D01*
X122711589Y-96730492D01*
X122713261Y-96732296D01*
X122713263Y-96732298D01*
X122792941Y-96818252D01*
X123033548Y-97077811D01*
X123381721Y-97398845D01*
X123753971Y-97691621D01*
X124148009Y-97954341D01*
X124561415Y-98185391D01*
X124991648Y-98383350D01*
X124993967Y-98384204D01*
X124993972Y-98384206D01*
X125433747Y-98546148D01*
X125433752Y-98546150D01*
X125436064Y-98547001D01*
X125891933Y-98675341D01*
X126229314Y-98742334D01*
X126354027Y-98767098D01*
X126354030Y-98767098D01*
X126356455Y-98767580D01*
X126605766Y-98797037D01*
X126824315Y-98822860D01*
X126824326Y-98822861D01*
X126826773Y-98823150D01*
X127300000Y-98841712D01*
X127773227Y-98823150D01*
X127775674Y-98822861D01*
X127775685Y-98822860D01*
X127994234Y-98797037D01*
X128243545Y-98767580D01*
X128245970Y-98767098D01*
X128245973Y-98767098D01*
X128370686Y-98742334D01*
X128708067Y-98675341D01*
X129163936Y-98547001D01*
X129166248Y-98546150D01*
X129166253Y-98546148D01*
X129606028Y-98384206D01*
X129606033Y-98384204D01*
X129608352Y-98383350D01*
X130038585Y-98185391D01*
X130451991Y-97954341D01*
X130846029Y-97691621D01*
X131218279Y-97398845D01*
X131566452Y-97077811D01*
X131807059Y-96818252D01*
X131886737Y-96732298D01*
X131886739Y-96732296D01*
X131888411Y-96730492D01*
X132182176Y-96359022D01*
X132201639Y-96329999D01*
X132397438Y-96038015D01*
X132445943Y-95965683D01*
X132678090Y-95552893D01*
X132724059Y-95453682D01*
X132876153Y-95125431D01*
X132876156Y-95125425D01*
X132877192Y-95123188D01*
X132948119Y-94932145D01*
X132990579Y-94875246D01*
X133057061Y-94850335D01*
X133066240Y-94850000D01*
X137862966Y-94850000D01*
X137887547Y-94852421D01*
X137900000Y-94854898D01*
X137912171Y-94852477D01*
X137918963Y-94852477D01*
X137931313Y-94853084D01*
X138033966Y-94863194D01*
X138058189Y-94868012D01*
X138175139Y-94903488D01*
X138197954Y-94912938D01*
X138305734Y-94970548D01*
X138326271Y-94984271D01*
X138420737Y-95061798D01*
X138438202Y-95079263D01*
X138515729Y-95173729D01*
X138529451Y-95194264D01*
X138587062Y-95302046D01*
X138596512Y-95324861D01*
X138631988Y-95441811D01*
X138636806Y-95466036D01*
X138646916Y-95568687D01*
X138647523Y-95581037D01*
X138647523Y-95587829D01*
X138647483Y-95588030D01*
X138627521Y-95656015D01*
X138573865Y-95702508D01*
X138503591Y-95712612D01*
X138439011Y-95683118D01*
X138400627Y-95623392D01*
X138397944Y-95612476D01*
X138388387Y-95564431D01*
X138385966Y-95552260D01*
X138330601Y-95469399D01*
X138247740Y-95414034D01*
X138174674Y-95399500D01*
X137275326Y-95399500D01*
X137202260Y-95414034D01*
X137119399Y-95469399D01*
X137064034Y-95552260D01*
X137049500Y-95625326D01*
X137049500Y-96174674D01*
X137064034Y-96247740D01*
X137070928Y-96258057D01*
X137070928Y-96258058D01*
X137118997Y-96329999D01*
X137140211Y-96397752D01*
X137118997Y-96470000D01*
X137064034Y-96552260D01*
X137049500Y-96625326D01*
X137049500Y-96818252D01*
X137029498Y-96886373D01*
X136975842Y-96932866D01*
X136905568Y-96942970D01*
X136840988Y-96913476D01*
X136834405Y-96907347D01*
X136717359Y-96790301D01*
X136704228Y-96781106D01*
X136659901Y-96725651D01*
X136650500Y-96677895D01*
X136650500Y-96625326D01*
X136635966Y-96552260D01*
X136581003Y-96470000D01*
X136559789Y-96402248D01*
X136581003Y-96329999D01*
X136629072Y-96258058D01*
X136629072Y-96258057D01*
X136635966Y-96247740D01*
X136650500Y-96174674D01*
X136650500Y-95625326D01*
X136635966Y-95552260D01*
X136580601Y-95469399D01*
X136497740Y-95414034D01*
X136424674Y-95399500D01*
X135525326Y-95399500D01*
X135452260Y-95414034D01*
X135369399Y-95469399D01*
X135362507Y-95479714D01*
X135324376Y-95536782D01*
X135269899Y-95582310D01*
X135267777Y-95583157D01*
X135264329Y-95584081D01*
X135248619Y-95591407D01*
X135102726Y-95659438D01*
X135102722Y-95659441D01*
X135097739Y-95661764D01*
X135093232Y-95664920D01*
X135093230Y-95664921D01*
X134951680Y-95764035D01*
X134951677Y-95764037D01*
X134947169Y-95767194D01*
X134817194Y-95897169D01*
X134810329Y-95906974D01*
X134754876Y-95951301D01*
X134736528Y-95957223D01*
X134728970Y-95959037D01*
X134728964Y-95959039D01*
X134721588Y-95960810D01*
X134581679Y-96033022D01*
X134575957Y-96038014D01*
X134575955Y-96038015D01*
X134468759Y-96131528D01*
X134468756Y-96131531D01*
X134463034Y-96136523D01*
X134372501Y-96265338D01*
X134315309Y-96412029D01*
X134294758Y-96568128D01*
X134300403Y-96619259D01*
X134301150Y-96626025D01*
X134288744Y-96695930D01*
X134265006Y-96728947D01*
X133922542Y-97071411D01*
X133907508Y-97084252D01*
X133899341Y-97090185D01*
X133899339Y-97090187D01*
X133891319Y-97096014D01*
X133885491Y-97104035D01*
X133883063Y-97106463D01*
X133880768Y-97109289D01*
X133696072Y-97313069D01*
X133694228Y-97315555D01*
X133694225Y-97315559D01*
X133576374Y-97474463D01*
X133522192Y-97547519D01*
X133520609Y-97550160D01*
X133520603Y-97550169D01*
X133383321Y-97779211D01*
X133372129Y-97797884D01*
X133370815Y-97800663D01*
X133370813Y-97800666D01*
X133248649Y-98058959D01*
X133248645Y-98058968D01*
X133247329Y-98061751D01*
X133200417Y-98192861D01*
X133150033Y-98333673D01*
X133150030Y-98333682D01*
X133148993Y-98336581D01*
X133148243Y-98339577D01*
X133148241Y-98339582D01*
X133097658Y-98541523D01*
X133078069Y-98619726D01*
X133035239Y-98908459D01*
X133035088Y-98911543D01*
X133035087Y-98911548D01*
X133021745Y-99183146D01*
X133021371Y-99186765D01*
X133021371Y-99190203D01*
X133019819Y-99200000D01*
X133021370Y-99209793D01*
X133021370Y-99209794D01*
X133022949Y-99219762D01*
X133024500Y-99239473D01*
X133024500Y-100610526D01*
X133022949Y-100630236D01*
X133019819Y-100649999D01*
X133021370Y-100659793D01*
X133021370Y-100669708D01*
X133020322Y-100669708D01*
X133020643Y-100684228D01*
X133011685Y-100763732D01*
X133005406Y-100791240D01*
X132972294Y-100885867D01*
X132960053Y-100911286D01*
X132906715Y-100996174D01*
X132889122Y-101018234D01*
X132818234Y-101089122D01*
X132796176Y-101106713D01*
X132758584Y-101130334D01*
X132711286Y-101160053D01*
X132685867Y-101172294D01*
X132591240Y-101205406D01*
X132563732Y-101211685D01*
X132484228Y-101220643D01*
X132469708Y-101220322D01*
X132469708Y-101221370D01*
X132459793Y-101221370D01*
X132449999Y-101219819D01*
X132440206Y-101221370D01*
X132430237Y-101222949D01*
X132410526Y-101224500D01*
X128595985Y-101224500D01*
X128527864Y-101204498D01*
X128481371Y-101150842D01*
X128470592Y-101110850D01*
X128470360Y-101108488D01*
X128463917Y-101043074D01*
X128418143Y-100892180D01*
X128399872Y-100857996D01*
X128346729Y-100758573D01*
X128346728Y-100758572D01*
X128343811Y-100753114D01*
X128243777Y-100631223D01*
X128121886Y-100531189D01*
X128078998Y-100508265D01*
X127988278Y-100459774D01*
X127988275Y-100459773D01*
X127982820Y-100456857D01*
X127831926Y-100411083D01*
X127756848Y-100403689D01*
X127746342Y-100402046D01*
X127740452Y-100399977D01*
X127734945Y-100399500D01*
X127720510Y-100399500D01*
X127708161Y-100398893D01*
X127692199Y-100397321D01*
X127684836Y-100396376D01*
X127684798Y-100396370D01*
X127684793Y-100396370D01*
X127675001Y-100394819D01*
X127665208Y-100396370D01*
X127655239Y-100397949D01*
X127635528Y-100399500D01*
X126264472Y-100399500D01*
X126244761Y-100397949D01*
X126234792Y-100396370D01*
X126224999Y-100394819D01*
X126215207Y-100396370D01*
X126215202Y-100396370D01*
X126215164Y-100396376D01*
X126207805Y-100397321D01*
X126068074Y-100411083D01*
X125917180Y-100456857D01*
X125911725Y-100459773D01*
X125911722Y-100459774D01*
X125821002Y-100508265D01*
X125778114Y-100531189D01*
X125773329Y-100535116D01*
X125684638Y-100607903D01*
X125619291Y-100635657D01*
X125549312Y-100623675D01*
X125502727Y-100584508D01*
X125469647Y-100538924D01*
X125466348Y-100534378D01*
X125459985Y-100528271D01*
X125359486Y-100431819D01*
X125359482Y-100431816D01*
X125355429Y-100427926D01*
X125346632Y-100422078D01*
X125232072Y-100345926D01*
X125232069Y-100345925D01*
X125227399Y-100342820D01*
X125086311Y-100281754D01*
X125080850Y-100280474D01*
X125080842Y-100280471D01*
X124978102Y-100256383D01*
X124965120Y-100252594D01*
X124956227Y-100249471D01*
X124956225Y-100249471D01*
X124948751Y-100246846D01*
X124943244Y-100246369D01*
X124940540Y-100246369D01*
X124939586Y-100246328D01*
X124936802Y-100245472D01*
X124919443Y-100245748D01*
X124851015Y-100226831D01*
X124833623Y-100213840D01*
X124775605Y-100162147D01*
X124775602Y-100162145D01*
X124769933Y-100157094D01*
X124630788Y-100083420D01*
X124586111Y-100072198D01*
X124485455Y-100046915D01*
X124485453Y-100046915D01*
X124478085Y-100045064D01*
X124470487Y-100045024D01*
X124470485Y-100045024D01*
X124403276Y-100044672D01*
X124320641Y-100044240D01*
X124313262Y-100046012D01*
X124313258Y-100046012D01*
X124174924Y-100079223D01*
X124174920Y-100079224D01*
X124167545Y-100080995D01*
X124027636Y-100153207D01*
X124021914Y-100158199D01*
X124021912Y-100158200D01*
X123914716Y-100251713D01*
X123914713Y-100251716D01*
X123908991Y-100256708D01*
X123862325Y-100323107D01*
X123806790Y-100367338D01*
X123736158Y-100374524D01*
X123675421Y-100344733D01*
X123612192Y-100288399D01*
X123574638Y-100228150D01*
X123575619Y-100157160D01*
X123614823Y-100097969D01*
X123629401Y-100087372D01*
X123726976Y-100026600D01*
X123726980Y-100026597D01*
X123731222Y-100023955D01*
X123887286Y-99888304D01*
X124019984Y-99729722D01*
X124080573Y-99628247D01*
X124132142Y-99580277D01*
X124195931Y-99548194D01*
X124239946Y-99526057D01*
X124275019Y-99496102D01*
X124353895Y-99428736D01*
X124353897Y-99428733D01*
X124359669Y-99423804D01*
X124451545Y-99295945D01*
X124510271Y-99149860D01*
X124532455Y-98993985D01*
X124532599Y-98980262D01*
X124513684Y-98823956D01*
X124492491Y-98767869D01*
X124460715Y-98683776D01*
X124460714Y-98683773D01*
X124458031Y-98676674D01*
X124368852Y-98546919D01*
X124286609Y-98473643D01*
X124256969Y-98447234D01*
X124256966Y-98447232D01*
X124251297Y-98442181D01*
X124112152Y-98368507D01*
X123996996Y-98339582D01*
X123966819Y-98332002D01*
X123966817Y-98332002D01*
X123959449Y-98330151D01*
X123951851Y-98330111D01*
X123951849Y-98330111D01*
X123884640Y-98329759D01*
X123802005Y-98329327D01*
X123794626Y-98331099D01*
X123794622Y-98331099D01*
X123656288Y-98364310D01*
X123656284Y-98364311D01*
X123648909Y-98366082D01*
X123509000Y-98438294D01*
X123503278Y-98443286D01*
X123503276Y-98443287D01*
X123396079Y-98536801D01*
X123396076Y-98536804D01*
X123391207Y-98541052D01*
X123391205Y-98541053D01*
X123390355Y-98541795D01*
X123390231Y-98541653D01*
X123333106Y-98576845D01*
X123262122Y-98575491D01*
X123215189Y-98544976D01*
X123213700Y-98546647D01*
X123101817Y-98446962D01*
X123101814Y-98446960D01*
X123096145Y-98441909D01*
X122957000Y-98368235D01*
X122949635Y-98366385D01*
X122811667Y-98331730D01*
X122811665Y-98331730D01*
X122804297Y-98329879D01*
X122796699Y-98329839D01*
X122796697Y-98329839D01*
X122729488Y-98329487D01*
X122646853Y-98329055D01*
X122639474Y-98330827D01*
X122639470Y-98330827D01*
X122501136Y-98364038D01*
X122501132Y-98364039D01*
X122493757Y-98365810D01*
X122353848Y-98438022D01*
X122348126Y-98443014D01*
X122348124Y-98443015D01*
X122240928Y-98536528D01*
X122240925Y-98536531D01*
X122235203Y-98541523D01*
X122230836Y-98547737D01*
X122230834Y-98547739D01*
X122220697Y-98562163D01*
X122165163Y-98606396D01*
X122127495Y-98615326D01*
X122101029Y-98617409D01*
X122096222Y-98618563D01*
X122096216Y-98618564D01*
X121961583Y-98650887D01*
X121887440Y-98668687D01*
X121882869Y-98670580D01*
X121882867Y-98670581D01*
X121851012Y-98683776D01*
X121684503Y-98752747D01*
X121497214Y-98867518D01*
X121330184Y-99010174D01*
X121187528Y-99177204D01*
X121072757Y-99364493D01*
X121070862Y-99369068D01*
X120994090Y-99554411D01*
X120988697Y-99567430D01*
X120981321Y-99598155D01*
X120943510Y-99755649D01*
X120937419Y-99781019D01*
X120937031Y-99785952D01*
X120925617Y-99930966D01*
X120925176Y-99933980D01*
X120924977Y-99934548D01*
X120924500Y-99940055D01*
X120924500Y-99942767D01*
X120924382Y-99945496D01*
X120924293Y-99945492D01*
X120924112Y-99950098D01*
X120920546Y-99995407D01*
X120919819Y-100000000D01*
X120921369Y-100009786D01*
X120921369Y-100009789D01*
X120922949Y-100019762D01*
X120924500Y-100039473D01*
X120924500Y-102860527D01*
X120922949Y-102880237D01*
X120919819Y-102900000D01*
X120921249Y-102909026D01*
X120921371Y-102910731D01*
X120921371Y-102912117D01*
X120921634Y-102914409D01*
X120936170Y-103117656D01*
X120956976Y-103213300D01*
X120956976Y-103266865D01*
X120954000Y-103280545D01*
X120954000Y-104353000D01*
X120933998Y-104421121D01*
X120880342Y-104467614D01*
X120828000Y-104479000D01*
X120572000Y-104479000D01*
X120503879Y-104458998D01*
X120457386Y-104405342D01*
X120446000Y-104353000D01*
X120446000Y-103285115D01*
X120441525Y-103269876D01*
X120440135Y-103268671D01*
X120432452Y-103267000D01*
X120404562Y-103267000D01*
X120398047Y-103267337D01*
X120305944Y-103276894D01*
X120302602Y-103277616D01*
X120300480Y-103277461D01*
X120299084Y-103277606D01*
X120299058Y-103277357D01*
X120231794Y-103272447D01*
X120175021Y-103229816D01*
X120150308Y-103163260D01*
X120150000Y-103154456D01*
X120150000Y-95637034D01*
X120152421Y-95612453D01*
X120152477Y-95612171D01*
X120154898Y-95600000D01*
X120152477Y-95587829D01*
X120152477Y-95581037D01*
X120153084Y-95568687D01*
X120163194Y-95466036D01*
X120168012Y-95441811D01*
X120203488Y-95324861D01*
X120212938Y-95302046D01*
X120270549Y-95194264D01*
X120284271Y-95173729D01*
X120361798Y-95079263D01*
X120379263Y-95061798D01*
X120473729Y-94984271D01*
X120494266Y-94970548D01*
X120602046Y-94912938D01*
X120624861Y-94903488D01*
X120741811Y-94868012D01*
X120766034Y-94863194D01*
X120868687Y-94853084D01*
X120881037Y-94852477D01*
X120887829Y-94852477D01*
X120900000Y-94854898D01*
X120912171Y-94852477D01*
X120912453Y-94852421D01*
X120937034Y-94850000D01*
X121533760Y-94850000D01*
X121601881Y-94870002D01*
G37*
%TD.AperFunction*%
%TD*%
M02*
