%TF.GenerationSoftware,KiCad,Pcbnew,(5.1.9-0-10_14)*%
%TF.CreationDate,2021-04-21T10:29:31+01:00*%
%TF.ProjectId,Keypad,4b657970-6164-42e6-9b69-6361645f7063,2*%
%TF.SameCoordinates,Original*%
%TF.FileFunction,Soldermask,Top*%
%TF.FilePolarity,Negative*%
%FSLAX46Y46*%
G04 Gerber Fmt 4.6, Leading zero omitted, Abs format (unit mm)*
G04 Created by KiCad (PCBNEW (5.1.9-0-10_14)) date 2021-04-21 10:29:31*
%MOMM*%
%LPD*%
G01*
G04 APERTURE LIST*
%ADD10O,1.700000X1.700000*%
%ADD11R,1.700000X1.700000*%
%ADD12O,1.700000X1.850000*%
%ADD13R,1.524000X1.524000*%
%ADD14C,1.524000*%
%ADD15C,1.700000*%
%ADD16C,2.000000*%
%ADD17C,0.600000*%
%ADD18R,2.000000X0.900000*%
%ADD19R,0.900000X2.000000*%
%ADD20R,5.000000X5.000000*%
G04 APERTURE END LIST*
D10*
%TO.C,J3*%
X119820000Y-127900000D03*
X117280000Y-127900000D03*
X114740000Y-127900000D03*
D11*
X112200000Y-127900000D03*
%TD*%
D12*
%TO.C,J1*%
X120400000Y-122900000D03*
X117900000Y-122900000D03*
X115400000Y-122900000D03*
G36*
G01*
X112050000Y-123575000D02*
X112050000Y-122225000D01*
G75*
G02*
X112300000Y-121975000I250000J0D01*
G01*
X113500000Y-121975000D01*
G75*
G02*
X113750000Y-122225000I0J-250000D01*
G01*
X113750000Y-123575000D01*
G75*
G02*
X113500000Y-123825000I-250000J0D01*
G01*
X112300000Y-123825000D01*
G75*
G02*
X112050000Y-123575000I0J250000D01*
G01*
G37*
%TD*%
D13*
%TO.C,M1*%
X125070000Y-102270000D03*
%TD*%
D14*
%TO.C,U2*%
X120850000Y-117750000D03*
%TD*%
D15*
%TO.C,J2*%
X111890000Y-106875000D03*
X111890000Y-115525000D03*
D16*
X116070000Y-106875000D03*
X116070000Y-115525000D03*
D17*
X115590000Y-108310000D03*
X115590000Y-114090000D03*
%TD*%
D18*
%TO.C,U1*%
X128000000Y-102295000D03*
X128000000Y-103565000D03*
X128000000Y-104835000D03*
X128000000Y-106105000D03*
X128000000Y-107375000D03*
X128000000Y-108645000D03*
X128000000Y-109915000D03*
X128000000Y-111185000D03*
X128000000Y-112455000D03*
X128000000Y-113725000D03*
X128000000Y-114995000D03*
X128000000Y-116265000D03*
X128000000Y-117535000D03*
X128000000Y-118805000D03*
D19*
X125215000Y-119805000D03*
X123945000Y-119805000D03*
X122675000Y-119805000D03*
X121405000Y-119805000D03*
X120135000Y-119805000D03*
X118865000Y-119805000D03*
X117595000Y-119805000D03*
X116325000Y-119805000D03*
X115055000Y-119805000D03*
X113785000Y-119805000D03*
D18*
X111000000Y-118805000D03*
X111000000Y-117535000D03*
X111000000Y-116265000D03*
X111000000Y-114995000D03*
X111000000Y-113725000D03*
X111000000Y-112455000D03*
X111000000Y-111185000D03*
X111000000Y-109915000D03*
X111000000Y-108645000D03*
X111000000Y-107375000D03*
X111000000Y-106105000D03*
X111000000Y-104835000D03*
X111000000Y-103565000D03*
X111000000Y-102295000D03*
D20*
X118500000Y-109795000D03*
%TD*%
M02*
