%TF.GenerationSoftware,KiCad,Pcbnew,(6.0.2-0)*%
%TF.CreationDate,2022-03-10T12:53:33+00:00*%
%TF.ProjectId,Keypad2,4b657970-6164-4322-9e6b-696361645f70,5*%
%TF.SameCoordinates,Original*%
%TF.FileFunction,Soldermask,Top*%
%TF.FilePolarity,Negative*%
%FSLAX46Y46*%
G04 Gerber Fmt 4.6, Leading zero omitted, Abs format (unit mm)*
G04 Created by KiCad (PCBNEW (6.0.2-0)) date 2022-03-10 12:53:33*
%MOMM*%
%LPD*%
G01*
G04 APERTURE LIST*
G04 Aperture macros list*
%AMRoundRect*
0 Rectangle with rounded corners*
0 $1 Rounding radius*
0 $2 $3 $4 $5 $6 $7 $8 $9 X,Y pos of 4 corners*
0 Add a 4 corners polygon primitive as box body*
4,1,4,$2,$3,$4,$5,$6,$7,$8,$9,$2,$3,0*
0 Add four circle primitives for the rounded corners*
1,1,$1+$1,$2,$3*
1,1,$1+$1,$4,$5*
1,1,$1+$1,$6,$7*
1,1,$1+$1,$8,$9*
0 Add four rect primitives between the rounded corners*
20,1,$1+$1,$2,$3,$4,$5,0*
20,1,$1+$1,$4,$5,$6,$7,0*
20,1,$1+$1,$6,$7,$8,$9,0*
20,1,$1+$1,$8,$9,$2,$3,0*%
%AMFreePoly0*
4,1,19,0.792580,0.830157,0.838704,0.776927,0.850000,0.725000,0.850000,-0.725000,0.830157,-0.792580,0.776927,-0.838704,0.725000,-0.850000,-0.725000,-0.850000,-0.792580,-0.830157,-0.838704,-0.776927,-0.850000,-0.725000,-0.850000,0.130500,-0.830157,0.198080,-0.813388,0.218888,-0.218888,0.813388,-0.157071,0.847143,-0.130500,0.850000,0.725000,0.850000,0.792580,0.830157,0.792580,0.830157,
$1*%
G04 Aperture macros list end*
%ADD10RoundRect,0.325000X0.275000X-0.200000X0.275000X0.200000X-0.275000X0.200000X-0.275000X-0.200000X0*%
%ADD11RoundRect,0.125000X-0.400000X-0.200000X0.400000X-0.200000X0.400000X0.200000X-0.400000X0.200000X0*%
%ADD12RoundRect,0.125000X-0.200000X-0.400000X0.200000X-0.400000X0.200000X0.400000X-0.200000X0.400000X0*%
%ADD13FreePoly0,0.000000*%
%ADD14RoundRect,0.125000X-0.725000X-0.725000X0.725000X-0.725000X0.725000X0.725000X-0.725000X0.725000X0*%
%ADD15RoundRect,0.125000X-0.350000X-0.350000X0.350000X-0.350000X0.350000X0.350000X-0.350000X0.350000X0*%
%ADD16RoundRect,0.375000X-0.600000X-0.675000X0.600000X-0.675000X0.600000X0.675000X-0.600000X0.675000X0*%
%ADD17O,1.950000X2.100000*%
%ADD18RoundRect,0.325000X-0.200000X-0.275000X0.200000X-0.275000X0.200000X0.275000X-0.200000X0.275000X0*%
%ADD19RoundRect,0.275000X-0.150000X0.725000X-0.150000X-0.725000X0.150000X-0.725000X0.150000X0.725000X0*%
%ADD20RoundRect,0.125000X0.250000X-0.425000X0.250000X0.425000X-0.250000X0.425000X-0.250000X-0.425000X0*%
%ADD21RoundRect,0.125000X-0.550000X-0.300000X0.550000X-0.300000X0.550000X0.300000X-0.550000X0.300000X0*%
%ADD22RoundRect,0.350000X-0.225000X-0.250000X0.225000X-0.250000X0.225000X0.250000X-0.225000X0.250000X0*%
%ADD23RoundRect,0.374375X-0.625625X0.463125X-0.625625X-0.463125X0.625625X-0.463125X0.625625X0.463125X0*%
%ADD24RoundRect,0.125000X-1.850000X-0.712500X1.850000X-0.712500X1.850000X0.712500X-1.850000X0.712500X0*%
%ADD25RoundRect,0.375000X0.250000X0.475000X-0.250000X0.475000X-0.250000X-0.475000X0.250000X-0.475000X0*%
%ADD26RoundRect,0.325000X-0.275000X0.200000X-0.275000X-0.200000X0.275000X-0.200000X0.275000X0.200000X0*%
%ADD27RoundRect,0.125000X-0.850000X0.850000X-0.850000X-0.850000X0.850000X-0.850000X0.850000X0.850000X0*%
%ADD28O,1.950000X1.950000*%
G04 APERTURE END LIST*
D10*
%TO.C,R3*%
X166400000Y-107925000D03*
X166400000Y-106275000D03*
%TD*%
D11*
%TO.C,U2*%
X161700000Y-95600000D03*
X161700000Y-96400000D03*
X161700000Y-97200000D03*
X161700000Y-98000000D03*
X161700000Y-98800000D03*
X161700000Y-99600000D03*
X161700000Y-100400000D03*
X161700000Y-101200000D03*
X161700000Y-102000000D03*
X161700000Y-102800000D03*
X161700000Y-103600000D03*
D12*
X162800000Y-104500000D03*
X163600000Y-104500000D03*
X164400000Y-104500000D03*
X165200000Y-104500000D03*
X166000000Y-104500000D03*
X166800000Y-104500000D03*
X167600000Y-104500000D03*
X168400000Y-104500000D03*
X169200000Y-104500000D03*
X170000000Y-104500000D03*
X170800000Y-104500000D03*
X171600000Y-104500000D03*
X172400000Y-104500000D03*
D11*
X173500000Y-103600000D03*
X173500000Y-102800000D03*
X173500000Y-102000000D03*
X173500000Y-101200000D03*
X173500000Y-100400000D03*
X173500000Y-99600000D03*
X173500000Y-98800000D03*
X173500000Y-98000000D03*
X173500000Y-97200000D03*
X173500000Y-96400000D03*
X173500000Y-95600000D03*
D12*
X172400000Y-94700000D03*
X171600000Y-94700000D03*
X170800000Y-94700000D03*
X170000000Y-94700000D03*
X169200000Y-94700000D03*
X168400000Y-94700000D03*
X167600000Y-94700000D03*
X166800000Y-94700000D03*
X166000000Y-94700000D03*
X165200000Y-94700000D03*
X164400000Y-94700000D03*
X163600000Y-94700000D03*
X162800000Y-94700000D03*
D13*
X165625000Y-97625000D03*
D14*
X167600000Y-101575000D03*
X169575000Y-101575000D03*
X165625000Y-99600000D03*
X169575000Y-97625000D03*
X165625000Y-101575000D03*
X167600000Y-97625000D03*
X167600000Y-99600000D03*
X169575000Y-99600000D03*
D15*
X173550000Y-94650000D03*
X173550000Y-104550000D03*
X161650000Y-104550000D03*
X161650000Y-94650000D03*
%TD*%
D16*
%TO.C,J1*%
X163850000Y-121100000D03*
D17*
X166350000Y-121100000D03*
X168850000Y-121100000D03*
X171350000Y-121100000D03*
%TD*%
D18*
%TO.C,R4*%
X170725000Y-106600000D03*
X172375000Y-106600000D03*
%TD*%
D19*
%TO.C,U1*%
X165605000Y-110125000D03*
X164335000Y-110125000D03*
X163065000Y-110125000D03*
X161795000Y-110125000D03*
X161795000Y-115275000D03*
X163065000Y-115275000D03*
X164335000Y-115275000D03*
X165605000Y-115275000D03*
%TD*%
D20*
%TO.C,D1*%
X162750000Y-106225000D03*
X162750000Y-107975000D03*
X161750000Y-107975000D03*
X161750000Y-106225000D03*
%TD*%
D21*
%TO.C,U3*%
X169999000Y-111450000D03*
D22*
X170324000Y-108400000D03*
D23*
X168179000Y-111297500D03*
D22*
X171874000Y-108400000D03*
D24*
X171299000Y-112900000D03*
D21*
X172699000Y-111450000D03*
X169999000Y-109550000D03*
X169999000Y-110500000D03*
D25*
X168749000Y-109650000D03*
D23*
X168179000Y-114262500D03*
D25*
X166849000Y-109650000D03*
X166849000Y-115900000D03*
D21*
X172699000Y-110500000D03*
D25*
X168749000Y-115900000D03*
D24*
X171299000Y-115900000D03*
D21*
X172699000Y-109550000D03*
%TD*%
D26*
%TO.C,R5*%
X173450000Y-106775000D03*
X173450000Y-108425000D03*
%TD*%
D10*
%TO.C,R2*%
X165150000Y-107925000D03*
X165150000Y-106275000D03*
%TD*%
%TO.C,R1*%
X163900000Y-107925000D03*
X163900000Y-106275000D03*
%TD*%
D27*
%TO.C,J2*%
X162600000Y-118500000D03*
D28*
X165140000Y-118500000D03*
X167680000Y-118500000D03*
X170220000Y-118500000D03*
X172760000Y-118500000D03*
%TD*%
M02*
