%TF.GenerationSoftware,KiCad,Pcbnew,(5.1.9-0-10_14)*%
%TF.CreationDate,2021-04-21T10:29:31+01:00*%
%TF.ProjectId,Keypad,4b657970-6164-42e6-9b69-6361645f7063,2*%
%TF.SameCoordinates,Original*%
%TF.FileFunction,Copper,L1,Top*%
%TF.FilePolarity,Positive*%
%FSLAX46Y46*%
G04 Gerber Fmt 4.6, Leading zero omitted, Abs format (unit mm)*
G04 Created by KiCad (PCBNEW (5.1.9-0-10_14)) date 2021-04-21 10:29:31*
%MOMM*%
%LPD*%
G01*
G04 APERTURE LIST*
%TA.AperFunction,EtchedComponent*%
%ADD10C,0.200000*%
%TD*%
%TA.AperFunction,ComponentPad*%
%ADD11O,1.700000X1.700000*%
%TD*%
%TA.AperFunction,ComponentPad*%
%ADD12R,1.700000X1.700000*%
%TD*%
%TA.AperFunction,ComponentPad*%
%ADD13O,1.700000X1.850000*%
%TD*%
%TA.AperFunction,ComponentPad*%
%ADD14R,1.524000X1.524000*%
%TD*%
%TA.AperFunction,ComponentPad*%
%ADD15C,1.524000*%
%TD*%
%TA.AperFunction,ComponentPad*%
%ADD16C,1.700000*%
%TD*%
%TA.AperFunction,ComponentPad*%
%ADD17C,2.000000*%
%TD*%
%TA.AperFunction,ComponentPad*%
%ADD18C,0.600000*%
%TD*%
%TA.AperFunction,SMDPad,CuDef*%
%ADD19R,2.000000X0.900000*%
%TD*%
%TA.AperFunction,SMDPad,CuDef*%
%ADD20R,0.900000X2.000000*%
%TD*%
%TA.AperFunction,SMDPad,CuDef*%
%ADD21R,5.000000X5.000000*%
%TD*%
%TA.AperFunction,ViaPad*%
%ADD22C,0.800000*%
%TD*%
%TA.AperFunction,Conductor*%
%ADD23C,0.250000*%
%TD*%
%TA.AperFunction,Conductor*%
%ADD24C,0.254000*%
%TD*%
%TA.AperFunction,Conductor*%
%ADD25C,0.100000*%
%TD*%
G04 APERTURE END LIST*
D10*
%TO.C,AJK1*%
X128070000Y-124050000D02*
X126305290Y-126108820D01*
X126305300Y-126109000D02*
X124834700Y-126109000D01*
X126305290Y-126108820D02*
X128070000Y-128167650D01*
X125050074Y-128687579D02*
X124834712Y-128167650D01*
X126089938Y-128687579D02*
X125570006Y-128902940D01*
X125570006Y-128902940D02*
X125050074Y-128687579D01*
X126305300Y-124050000D02*
X126305300Y-128167650D01*
X126305300Y-128167650D02*
X126089938Y-128687579D01*
X123364120Y-128167650D02*
X126305300Y-124050000D01*
%TD*%
D11*
%TO.P,J3,4*%
%TO.N,Net-(J1-Pad4)*%
X119820000Y-127900000D03*
%TO.P,J3,3*%
%TO.N,Net-(J1-Pad3)*%
X117280000Y-127900000D03*
%TO.P,J3,2*%
%TO.N,VBUS*%
X114740000Y-127900000D03*
D12*
%TO.P,J3,1*%
%TO.N,GND*%
X112200000Y-127900000D03*
%TD*%
D13*
%TO.P,J1,4*%
%TO.N,Net-(J1-Pad4)*%
X120400000Y-122900000D03*
%TO.P,J1,3*%
%TO.N,Net-(J1-Pad3)*%
X117900000Y-122900000D03*
%TO.P,J1,2*%
%TO.N,VBUS*%
X115400000Y-122900000D03*
%TO.P,J1,1*%
%TO.N,GND*%
%TA.AperFunction,ComponentPad*%
G36*
G01*
X112050000Y-123575000D02*
X112050000Y-122225000D01*
G75*
G02*
X112300000Y-121975000I250000J0D01*
G01*
X113500000Y-121975000D01*
G75*
G02*
X113750000Y-122225000I0J-250000D01*
G01*
X113750000Y-123575000D01*
G75*
G02*
X113500000Y-123825000I-250000J0D01*
G01*
X112300000Y-123825000D01*
G75*
G02*
X112050000Y-123575000I0J250000D01*
G01*
G37*
%TD.AperFunction*%
%TD*%
D14*
%TO.P,M1,3*%
%TO.N,GND*%
X125070000Y-102270000D03*
%TD*%
D15*
%TO.P,U2,17*%
%TO.N,GND*%
X120850000Y-117750000D03*
%TD*%
D16*
%TO.P,J2,S1*%
%TO.N,GND*%
X111890000Y-106875000D03*
X111890000Y-115525000D03*
D17*
X116070000Y-106875000D03*
X116070000Y-115525000D03*
D18*
X115590000Y-108310000D03*
X115590000Y-114090000D03*
%TD*%
D19*
%TO.P,U1,38*%
%TO.N,GND*%
X128000000Y-102295000D03*
%TO.P,U1,37*%
%TO.N,Net-(U1-Pad37)*%
X128000000Y-103565000D03*
%TO.P,U1,36*%
%TO.N,Net-(U1-Pad36)*%
X128000000Y-104835000D03*
%TO.P,U1,35*%
%TO.N,O*%
X128000000Y-106105000D03*
%TO.P,U1,34*%
%TO.N,I*%
X128000000Y-107375000D03*
%TO.P,U1,33*%
%TO.N,Net-(U1-Pad33)*%
X128000000Y-108645000D03*
%TO.P,U1,32*%
%TO.N,Net-(U1-Pad32)*%
X128000000Y-109915000D03*
%TO.P,U1,31*%
%TO.N,Net-(U1-Pad31)*%
X128000000Y-111185000D03*
%TO.P,U1,30*%
%TO.N,Net-(U1-Pad30)*%
X128000000Y-112455000D03*
%TO.P,U1,29*%
%TO.N,Net-(U1-Pad29)*%
X128000000Y-113725000D03*
%TO.P,U1,28*%
%TO.N,Net-(U1-Pad28)*%
X128000000Y-114995000D03*
%TO.P,U1,27*%
%TO.N,Net-(U1-Pad27)*%
X128000000Y-116265000D03*
%TO.P,U1,26*%
%TO.N,Net-(U1-Pad26)*%
X128000000Y-117535000D03*
%TO.P,U1,25*%
%TO.N,CBUS0*%
X128000000Y-118805000D03*
D20*
%TO.P,U1,24*%
%TO.N,Net-(U1-Pad24)*%
X125215000Y-119805000D03*
%TO.P,U1,23*%
%TO.N,Net-(U1-Pad23)*%
X123945000Y-119805000D03*
%TO.P,U1,22*%
%TO.N,Net-(U1-Pad22)*%
X122675000Y-119805000D03*
%TO.P,U1,21*%
%TO.N,Net-(U1-Pad21)*%
X121405000Y-119805000D03*
%TO.P,U1,20*%
%TO.N,Net-(U1-Pad20)*%
X120135000Y-119805000D03*
%TO.P,U1,19*%
%TO.N,Net-(U1-Pad19)*%
X118865000Y-119805000D03*
%TO.P,U1,18*%
%TO.N,Net-(U1-Pad18)*%
X117595000Y-119805000D03*
%TO.P,U1,17*%
%TO.N,Net-(U1-Pad17)*%
X116325000Y-119805000D03*
%TO.P,U1,16*%
%TO.N,Net-(U1-Pad16)*%
X115055000Y-119805000D03*
%TO.P,U1,15*%
%TO.N,GND*%
X113785000Y-119805000D03*
D19*
%TO.P,U1,14*%
%TO.N,Net-(U1-Pad14)*%
X111000000Y-118805000D03*
%TO.P,U1,13*%
%TO.N,Net-(U1-Pad13)*%
X111000000Y-117535000D03*
%TO.P,U1,12*%
%TO.N,GND*%
X111000000Y-116265000D03*
%TO.P,U1,11*%
X111000000Y-114995000D03*
%TO.P,U1,10*%
%TO.N,Net-(U1-Pad10)*%
X111000000Y-113725000D03*
%TO.P,U1,9*%
%TO.N,Net-(U1-Pad9)*%
X111000000Y-112455000D03*
%TO.P,U1,8*%
%TO.N,Net-(U1-Pad8)*%
X111000000Y-111185000D03*
%TO.P,U1,7*%
%TO.N,Net-(U1-Pad7)*%
X111000000Y-109915000D03*
%TO.P,U1,6*%
%TO.N,Net-(U1-Pad6)*%
X111000000Y-108645000D03*
%TO.P,U1,5*%
%TO.N,GND*%
X111000000Y-107375000D03*
%TO.P,U1,4*%
X111000000Y-106105000D03*
%TO.P,U1,3*%
%TO.N,EN*%
X111000000Y-104835000D03*
%TO.P,U1,2*%
%TO.N,+3V3*%
X111000000Y-103565000D03*
%TO.P,U1,1*%
%TO.N,GND*%
X111000000Y-102295000D03*
D21*
%TO.P,U1,39*%
X118500000Y-109795000D03*
%TD*%
D22*
%TO.N,D+*%
X122477182Y-111249454D03*
X116983549Y-116918097D03*
%TO.N,GND*%
X111000000Y-102300000D03*
%TO.N,D-*%
X119407937Y-112895003D03*
X121183725Y-113022703D03*
%TO.N,+3V3*%
X125800000Y-123300000D03*
X123225010Y-106900117D03*
X125400000Y-104700000D03*
X121602532Y-128625010D03*
%TO.N,VBUS*%
X122530000Y-103750000D03*
X114637478Y-116611492D03*
%TO.N,O*%
X126600000Y-106100000D03*
X124669878Y-107645492D03*
X116198756Y-117573437D03*
%TO.N,I*%
X126010230Y-112926181D03*
%TO.N,EN*%
X125217361Y-118204988D03*
%TO.N,CBUS0*%
X123874582Y-115791396D03*
%TO.N,Net-(J2-PadA5)*%
X118200000Y-113500000D03*
X118669982Y-106462635D03*
%TO.N,Net-(J2-PadB5)*%
X123200000Y-104700000D03*
X117770811Y-106025010D03*
%TO.N,Net-(U1-Pad28)*%
X126735240Y-115000000D03*
%TO.N,Net-(U1-Pad27)*%
X126783267Y-116517094D03*
%TO.N,Net-(U1-Pad26)*%
X127116232Y-117629728D03*
%TD*%
D23*
%TO.N,D+*%
X122145769Y-115050009D02*
X118851637Y-115050009D01*
X122477182Y-111249454D02*
X122674976Y-111447248D01*
X122674976Y-111447248D02*
X122674976Y-114520802D01*
X122674976Y-114520802D02*
X122145769Y-115050009D01*
X118851637Y-115050009D02*
X116983549Y-116918097D01*
%TO.N,GND*%
X112900000Y-127200000D02*
X112200000Y-127900000D01*
X112900000Y-122900000D02*
X112900000Y-127200000D01*
X111120000Y-106105000D02*
X111890000Y-106875000D01*
X111000000Y-106105000D02*
X111120000Y-106105000D01*
X111390000Y-107375000D02*
X111890000Y-106875000D01*
X111000000Y-107375000D02*
X111390000Y-107375000D01*
X111360000Y-114995000D02*
X111890000Y-115525000D01*
X111000000Y-114995000D02*
X111360000Y-114995000D01*
X111150000Y-116265000D02*
X111890000Y-115525000D01*
X111000000Y-116265000D02*
X111150000Y-116265000D01*
X112325001Y-115960001D02*
X112325001Y-116525001D01*
X111890000Y-115525000D02*
X112325001Y-115960001D01*
X113785000Y-117985000D02*
X113785000Y-119805000D01*
X112325001Y-116525001D02*
X113785000Y-117985000D01*
%TO.N,D-*%
X119700000Y-113000000D02*
X119525320Y-113000000D01*
X119420323Y-112895003D02*
X119407937Y-112895003D01*
X119525320Y-113000000D02*
X119420323Y-112895003D01*
X121161022Y-113000000D02*
X121183725Y-113022703D01*
X119525320Y-113000000D02*
X121161022Y-113000000D01*
%TO.N,+3V3*%
X122878001Y-103024999D02*
X123737004Y-103884002D01*
X118152179Y-103874999D02*
X119002179Y-103024999D01*
X119002179Y-103024999D02*
X122878001Y-103024999D01*
X111000000Y-103565000D02*
X112250000Y-103565000D01*
X112250000Y-103565000D02*
X112559999Y-103874999D01*
X112559999Y-103874999D02*
X118152179Y-103874999D01*
X123225010Y-106780987D02*
X123225010Y-106900117D01*
X123737004Y-103884002D02*
X123737004Y-103937004D01*
X123737004Y-103937004D02*
X124052998Y-104252998D01*
X124052998Y-105952998D02*
X123225010Y-106780987D01*
X124052998Y-104747002D02*
X125352998Y-104747002D01*
X124052998Y-104252998D02*
X124052998Y-104747002D01*
X124052998Y-104747002D02*
X124052998Y-105952998D01*
X121602532Y-125897466D02*
X121602532Y-128625010D01*
X124199998Y-123300000D02*
X124049999Y-123449999D01*
X125800000Y-123300000D02*
X124199998Y-123300000D01*
X124049999Y-123449999D02*
X121602532Y-125897466D01*
X126199999Y-122900001D02*
X125800000Y-123300000D01*
X126199999Y-118754997D02*
X126199999Y-122900001D01*
X125942363Y-118497361D02*
X126199999Y-118754997D01*
X125942363Y-117856986D02*
X125942363Y-118497361D01*
X125565363Y-117479986D02*
X125942363Y-117856986D01*
X123149581Y-116139397D02*
X124490170Y-117479986D01*
X125405295Y-110194705D02*
X123574998Y-112025002D01*
X124490170Y-117479986D02*
X125565363Y-117479986D01*
X123149581Y-115443395D02*
X123149581Y-116139397D01*
X124052998Y-105952998D02*
X125405295Y-107305295D01*
X125405295Y-107305295D02*
X125405295Y-110194705D01*
X123574998Y-115017978D02*
X123149581Y-115443395D01*
X123574998Y-112025002D02*
X123574998Y-115017978D01*
%TO.N,VBUS*%
X115400000Y-127240000D02*
X114740000Y-127900000D01*
X115400000Y-122900000D02*
X115400000Y-127240000D01*
X118913589Y-103750000D02*
X122530000Y-103750000D01*
X113515012Y-107625400D02*
X113515012Y-104884988D01*
X113100000Y-108040412D02*
X113515012Y-107625400D01*
X113100000Y-113900000D02*
X113100000Y-108040412D01*
X113515012Y-115489026D02*
X113515012Y-114315012D01*
X118231794Y-104431794D02*
X118913589Y-103750000D01*
X113968206Y-104431794D02*
X118231794Y-104431794D01*
X113515012Y-114315012D02*
X113100000Y-113900000D01*
X113515012Y-104884988D02*
X113968206Y-104431794D01*
X114637478Y-116611492D02*
X113515012Y-115489026D01*
%TO.N,O*%
X127995000Y-106100000D02*
X128000000Y-106105000D01*
X126600000Y-106100000D02*
X127995000Y-106100000D01*
X124669878Y-110230122D02*
X123124987Y-111775013D01*
X123124987Y-111775013D02*
X123124987Y-114781902D01*
X120372801Y-115500020D02*
X118059580Y-117813241D01*
X123124987Y-114781902D02*
X122406869Y-115500020D01*
X116438560Y-117813241D02*
X116198756Y-117573437D01*
X118059580Y-117813241D02*
X116438560Y-117813241D01*
X122406869Y-115500020D02*
X120372801Y-115500020D01*
X124669878Y-107645492D02*
X124669878Y-110230122D01*
%TO.N,I*%
X128000000Y-107375000D02*
X126750000Y-107375000D01*
X126572006Y-107552994D02*
X126572006Y-112364405D01*
X126750000Y-107375000D02*
X126572006Y-107552994D01*
X126572006Y-112364405D02*
X126010230Y-112926181D01*
%TO.N,EN*%
X112250000Y-104835000D02*
X111000000Y-104835000D01*
X113065001Y-105650001D02*
X112250000Y-104835000D01*
X112600000Y-114300000D02*
X112600000Y-107900000D01*
X113065001Y-116238005D02*
X113065001Y-114765001D01*
X115943643Y-118343643D02*
X114936502Y-117336502D01*
X113065001Y-107434999D02*
X113065001Y-105650001D01*
X122806501Y-116662999D02*
X120328239Y-116662999D01*
X118647595Y-118343643D02*
X115943643Y-118343643D01*
X120328239Y-116662999D02*
X118647595Y-118343643D01*
X114163498Y-117336502D02*
X113065001Y-116238005D01*
X113065001Y-114765001D02*
X112600000Y-114300000D01*
X114936502Y-117336502D02*
X114163498Y-117336502D01*
X124348490Y-118204988D02*
X122806501Y-116662999D01*
X112600000Y-107900000D02*
X113065001Y-107434999D01*
X125217361Y-118204988D02*
X124348490Y-118204988D01*
%TO.N,CBUS0*%
X128000000Y-118805000D02*
X126886413Y-118805000D01*
X126886413Y-118805000D02*
X126392374Y-118310960D01*
X126392374Y-118310960D02*
X126392374Y-117670586D01*
X126392374Y-117670586D02*
X124513184Y-115791396D01*
X124513184Y-115791396D02*
X123874582Y-115791396D01*
%TO.N,Net-(J2-PadA5)*%
X118599999Y-113899999D02*
X118200000Y-113500000D01*
X122199991Y-113000009D02*
X122199991Y-113093328D01*
X121393320Y-113899999D02*
X118599999Y-113899999D01*
X121325001Y-112125019D02*
X122199991Y-113000009D01*
X122199991Y-113093328D02*
X121393320Y-113899999D01*
X121325001Y-111274999D02*
X121325001Y-112125019D01*
X122200000Y-110400000D02*
X121325001Y-111274999D01*
X123800000Y-110400000D02*
X122200000Y-110400000D01*
X122500000Y-105400000D02*
X122500000Y-107500000D01*
X118669982Y-106462635D02*
X119732617Y-105400000D01*
X123800000Y-108800000D02*
X123800000Y-110400000D01*
X119732617Y-105400000D02*
X122500000Y-105400000D01*
X122500000Y-107500000D02*
X123800000Y-108800000D01*
%TO.N,Net-(J2-PadB5)*%
X119095821Y-104700000D02*
X117770811Y-106025010D01*
X123200000Y-104700000D02*
X119095821Y-104700000D01*
%TO.N,Net-(U1-Pad28)*%
X128000000Y-114995000D02*
X126740240Y-114995000D01*
X126740240Y-114995000D02*
X126735240Y-115000000D01*
%TO.N,Net-(U1-Pad27)*%
X127035361Y-116265000D02*
X126783267Y-116517094D01*
X128000000Y-116265000D02*
X127035361Y-116265000D01*
%TO.N,Net-(U1-Pad26)*%
X127210960Y-117535000D02*
X127116232Y-117629728D01*
X128000000Y-117535000D02*
X127210960Y-117535000D01*
%TO.N,Net-(J1-Pad4)*%
X120400000Y-127320000D02*
X119820000Y-127900000D01*
X120400000Y-122900000D02*
X120400000Y-127320000D01*
%TO.N,Net-(J1-Pad3)*%
X117900000Y-127280000D02*
X117280000Y-127900000D01*
X117900000Y-122900000D02*
X117900000Y-127280000D01*
%TD*%
D24*
%TO.N,GND*%
X112727468Y-116610406D02*
X113791101Y-117674040D01*
X113806814Y-117693186D01*
X113825960Y-117708899D01*
X113825962Y-117708901D01*
X113833188Y-117714831D01*
X113883253Y-117755919D01*
X113970462Y-117802533D01*
X114065089Y-117831238D01*
X114138845Y-117838502D01*
X114138854Y-117838502D01*
X114163497Y-117840929D01*
X114188140Y-117838502D01*
X114728568Y-117838502D01*
X115316241Y-118426176D01*
X114745570Y-118426176D01*
X114686185Y-118353815D01*
X114589494Y-118274463D01*
X114479180Y-118215498D01*
X114359482Y-118179188D01*
X114235000Y-118166928D01*
X114070750Y-118170000D01*
X113912000Y-118328750D01*
X113912000Y-119678000D01*
X113932000Y-119678000D01*
X113932000Y-119932000D01*
X113912000Y-119932000D01*
X113912000Y-119952000D01*
X113658000Y-119952000D01*
X113658000Y-119932000D01*
X112858750Y-119932000D01*
X112700000Y-120090750D01*
X112696928Y-120805000D01*
X112709188Y-120929482D01*
X112745498Y-121049180D01*
X112804463Y-121159494D01*
X112883815Y-121256185D01*
X112980506Y-121335537D01*
X113090820Y-121394502D01*
X113121839Y-121403911D01*
X113027000Y-121498750D01*
X113027000Y-122773000D01*
X113047000Y-122773000D01*
X113047000Y-123027000D01*
X113027000Y-123027000D01*
X113027000Y-124301250D01*
X113185750Y-124460000D01*
X113750000Y-124463072D01*
X113874482Y-124450812D01*
X113994180Y-124414502D01*
X114104494Y-124355537D01*
X114201185Y-124276185D01*
X114280537Y-124179494D01*
X114339502Y-124069180D01*
X114375812Y-123949482D01*
X114388072Y-123825000D01*
X114387352Y-123675216D01*
X114528184Y-123846817D01*
X114715018Y-124000149D01*
X114898000Y-124097954D01*
X114898001Y-126680390D01*
X114860849Y-126673000D01*
X114619151Y-126673000D01*
X114382097Y-126720153D01*
X114158798Y-126812647D01*
X113957833Y-126946927D01*
X113786927Y-127117833D01*
X113686888Y-127267553D01*
X113688072Y-127050000D01*
X113675812Y-126925518D01*
X113639502Y-126805820D01*
X113580537Y-126695506D01*
X113501185Y-126598815D01*
X113404494Y-126519463D01*
X113294180Y-126460498D01*
X113174482Y-126424188D01*
X113050000Y-126411928D01*
X112485750Y-126415000D01*
X112327000Y-126573750D01*
X112327000Y-127773000D01*
X112347000Y-127773000D01*
X112347000Y-128027000D01*
X112327000Y-128027000D01*
X112327000Y-129226250D01*
X112485750Y-129385000D01*
X113050000Y-129388072D01*
X113174482Y-129375812D01*
X113294180Y-129339502D01*
X113404494Y-129280537D01*
X113501185Y-129201185D01*
X113580537Y-129104494D01*
X113639502Y-128994180D01*
X113675812Y-128874482D01*
X113688072Y-128750000D01*
X113686888Y-128532447D01*
X113786927Y-128682167D01*
X113957833Y-128853073D01*
X114158798Y-128987353D01*
X114382097Y-129079847D01*
X114619151Y-129127000D01*
X114860849Y-129127000D01*
X115097903Y-129079847D01*
X115321202Y-128987353D01*
X115522167Y-128853073D01*
X115693073Y-128682167D01*
X115827353Y-128481202D01*
X115919847Y-128257903D01*
X115967000Y-128020849D01*
X115967000Y-127779151D01*
X116053000Y-127779151D01*
X116053000Y-128020849D01*
X116100153Y-128257903D01*
X116192647Y-128481202D01*
X116326927Y-128682167D01*
X116497833Y-128853073D01*
X116698798Y-128987353D01*
X116922097Y-129079847D01*
X117159151Y-129127000D01*
X117400849Y-129127000D01*
X117637903Y-129079847D01*
X117861202Y-128987353D01*
X118062167Y-128853073D01*
X118233073Y-128682167D01*
X118367353Y-128481202D01*
X118459847Y-128257903D01*
X118507000Y-128020849D01*
X118507000Y-127779151D01*
X118459847Y-127542097D01*
X118393598Y-127382159D01*
X118394736Y-127378409D01*
X118402000Y-127304653D01*
X118402000Y-127304644D01*
X118404427Y-127280001D01*
X118402000Y-127255358D01*
X118402000Y-124097955D01*
X118584983Y-124000149D01*
X118771817Y-123846817D01*
X118925149Y-123659982D01*
X119039084Y-123446823D01*
X119109245Y-123215533D01*
X119127000Y-123035267D01*
X119127000Y-122764732D01*
X119109245Y-122584466D01*
X119039084Y-122353176D01*
X118925149Y-122140017D01*
X118771817Y-121953183D01*
X118584982Y-121799851D01*
X118371823Y-121685916D01*
X118140533Y-121615755D01*
X117900000Y-121592064D01*
X117659466Y-121615755D01*
X117428176Y-121685916D01*
X117215017Y-121799851D01*
X117028183Y-121953183D01*
X116874851Y-122140018D01*
X116760916Y-122353177D01*
X116690755Y-122584467D01*
X116673000Y-122764733D01*
X116673000Y-123035268D01*
X116690755Y-123215534D01*
X116760916Y-123446824D01*
X116874851Y-123659983D01*
X117028184Y-123846817D01*
X117215018Y-124000149D01*
X117398000Y-124097954D01*
X117398001Y-126673000D01*
X117159151Y-126673000D01*
X116922097Y-126720153D01*
X116698798Y-126812647D01*
X116497833Y-126946927D01*
X116326927Y-127117833D01*
X116192647Y-127318798D01*
X116100153Y-127542097D01*
X116053000Y-127779151D01*
X115967000Y-127779151D01*
X115919847Y-127542097D01*
X115869684Y-127420994D01*
X115894736Y-127338409D01*
X115902000Y-127264653D01*
X115902000Y-127264643D01*
X115904427Y-127240000D01*
X115902000Y-127215357D01*
X115902000Y-124097955D01*
X116084983Y-124000149D01*
X116271817Y-123846817D01*
X116425149Y-123659982D01*
X116539084Y-123446823D01*
X116609245Y-123215533D01*
X116627000Y-123035267D01*
X116627000Y-122764732D01*
X116609245Y-122584466D01*
X116539084Y-122353176D01*
X116425149Y-122140017D01*
X116271817Y-121953183D01*
X116084982Y-121799851D01*
X115871823Y-121685916D01*
X115640533Y-121615755D01*
X115400000Y-121592064D01*
X115159466Y-121615755D01*
X114928176Y-121685916D01*
X114715017Y-121799851D01*
X114528183Y-121953183D01*
X114387352Y-122124785D01*
X114388072Y-121975000D01*
X114375812Y-121850518D01*
X114339502Y-121730820D01*
X114280537Y-121620506D01*
X114201185Y-121523815D01*
X114104494Y-121444463D01*
X114097065Y-121440492D01*
X114235000Y-121443072D01*
X114359482Y-121430812D01*
X114479180Y-121394502D01*
X114589494Y-121335537D01*
X114686185Y-121256185D01*
X114745570Y-121183824D01*
X115505000Y-121183824D01*
X115578905Y-121176545D01*
X115649970Y-121154988D01*
X115690000Y-121133591D01*
X115730030Y-121154988D01*
X115801095Y-121176545D01*
X115875000Y-121183824D01*
X116775000Y-121183824D01*
X116848905Y-121176545D01*
X116919970Y-121154988D01*
X116960000Y-121133591D01*
X117000030Y-121154988D01*
X117071095Y-121176545D01*
X117145000Y-121183824D01*
X118045000Y-121183824D01*
X118118905Y-121176545D01*
X118189970Y-121154988D01*
X118230000Y-121133591D01*
X118270030Y-121154988D01*
X118341095Y-121176545D01*
X118415000Y-121183824D01*
X119315000Y-121183824D01*
X119388905Y-121176545D01*
X119459970Y-121154988D01*
X119500000Y-121133591D01*
X119540030Y-121154988D01*
X119611095Y-121176545D01*
X119685000Y-121183824D01*
X120585000Y-121183824D01*
X120658905Y-121176545D01*
X120729970Y-121154988D01*
X120770000Y-121133591D01*
X120810030Y-121154988D01*
X120881095Y-121176545D01*
X120955000Y-121183824D01*
X121855000Y-121183824D01*
X121928905Y-121176545D01*
X121999970Y-121154988D01*
X122040000Y-121133591D01*
X122080030Y-121154988D01*
X122151095Y-121176545D01*
X122225000Y-121183824D01*
X123125000Y-121183824D01*
X123198905Y-121176545D01*
X123269970Y-121154988D01*
X123310000Y-121133591D01*
X123350030Y-121154988D01*
X123421095Y-121176545D01*
X123495000Y-121183824D01*
X124395000Y-121183824D01*
X124468905Y-121176545D01*
X124539970Y-121154988D01*
X124580000Y-121133591D01*
X124620030Y-121154988D01*
X124691095Y-121176545D01*
X124765000Y-121183824D01*
X125665000Y-121183824D01*
X125698000Y-121180574D01*
X125698000Y-122528067D01*
X125573357Y-122552859D01*
X125431952Y-122611431D01*
X125304691Y-122696464D01*
X125203155Y-122798000D01*
X124224643Y-122798000D01*
X124199998Y-122795573D01*
X124175352Y-122798000D01*
X124175345Y-122798000D01*
X124110430Y-122804393D01*
X124101588Y-122805264D01*
X124006962Y-122833969D01*
X123919753Y-122880583D01*
X123862463Y-122927600D01*
X123862460Y-122927603D01*
X123843314Y-122943316D01*
X123827600Y-122962463D01*
X123712468Y-123077596D01*
X123712463Y-123077600D01*
X121264999Y-125525064D01*
X121245848Y-125540782D01*
X121183115Y-125617221D01*
X121136501Y-125704431D01*
X121107796Y-125799058D01*
X121100532Y-125872814D01*
X121100532Y-125872823D01*
X121098105Y-125897466D01*
X121100532Y-125922109D01*
X121100533Y-128028164D01*
X121031891Y-128096806D01*
X121047000Y-128020849D01*
X121047000Y-127779151D01*
X120999847Y-127542097D01*
X120907353Y-127318798D01*
X120903782Y-127313454D01*
X120902000Y-127295357D01*
X120902000Y-124097955D01*
X121084983Y-124000149D01*
X121271817Y-123846817D01*
X121425149Y-123659982D01*
X121539084Y-123446823D01*
X121609245Y-123215533D01*
X121627000Y-123035267D01*
X121627000Y-122764732D01*
X121609245Y-122584466D01*
X121539084Y-122353176D01*
X121425149Y-122140017D01*
X121271817Y-121953183D01*
X121084982Y-121799851D01*
X120871823Y-121685916D01*
X120640533Y-121615755D01*
X120400000Y-121592064D01*
X120159466Y-121615755D01*
X119928176Y-121685916D01*
X119715017Y-121799851D01*
X119528183Y-121953183D01*
X119374851Y-122140018D01*
X119260916Y-122353177D01*
X119190755Y-122584467D01*
X119173000Y-122764733D01*
X119173000Y-123035268D01*
X119190755Y-123215534D01*
X119260916Y-123446824D01*
X119374851Y-123659983D01*
X119528184Y-123846817D01*
X119715018Y-124000149D01*
X119898000Y-124097954D01*
X119898001Y-126673000D01*
X119699151Y-126673000D01*
X119462097Y-126720153D01*
X119238798Y-126812647D01*
X119037833Y-126946927D01*
X118866927Y-127117833D01*
X118732647Y-127318798D01*
X118640153Y-127542097D01*
X118593000Y-127779151D01*
X118593000Y-128020849D01*
X118640153Y-128257903D01*
X118732647Y-128481202D01*
X118866927Y-128682167D01*
X119037833Y-128853073D01*
X119238798Y-128987353D01*
X119462097Y-129079847D01*
X119699151Y-129127000D01*
X119940849Y-129127000D01*
X120177903Y-129079847D01*
X120401202Y-128987353D01*
X120602167Y-128853073D01*
X120773073Y-128682167D01*
X120825532Y-128603656D01*
X120825532Y-128701538D01*
X120855391Y-128851653D01*
X120913963Y-128993058D01*
X120998996Y-129120319D01*
X121107223Y-129228546D01*
X121234484Y-129313579D01*
X121375889Y-129372151D01*
X121526004Y-129402010D01*
X121679060Y-129402010D01*
X121829175Y-129372151D01*
X121970580Y-129313579D01*
X122097841Y-129228546D01*
X122206068Y-129120319D01*
X122291101Y-128993058D01*
X122349673Y-128851653D01*
X122379532Y-128701538D01*
X122379532Y-128548482D01*
X122349673Y-128398367D01*
X122291101Y-128256962D01*
X122206068Y-128129701D01*
X122104532Y-128028165D01*
X122104532Y-126105400D01*
X124407933Y-123802000D01*
X125203155Y-123802000D01*
X125304691Y-123903536D01*
X125431952Y-123988569D01*
X125573357Y-124047141D01*
X125702769Y-124072882D01*
X124454943Y-125819838D01*
X124436171Y-125842711D01*
X124428935Y-125856249D01*
X122962355Y-127909460D01*
X122927236Y-127970503D01*
X122897169Y-128059523D01*
X122885047Y-128152698D01*
X122891335Y-128246447D01*
X122915792Y-128337168D01*
X122957478Y-128421376D01*
X123014792Y-128495833D01*
X123085529Y-128557678D01*
X123166973Y-128604534D01*
X123255993Y-128634601D01*
X123349168Y-128646723D01*
X123442917Y-128640435D01*
X123533638Y-128615978D01*
X123617846Y-128574292D01*
X123692303Y-128516978D01*
X123738656Y-128463960D01*
X125080057Y-126586000D01*
X125828301Y-126586000D01*
X125828301Y-128072768D01*
X125724859Y-128322499D01*
X125570006Y-128386640D01*
X125415153Y-128322499D01*
X125266438Y-127963470D01*
X125233240Y-127901362D01*
X125173633Y-127828729D01*
X125101000Y-127769121D01*
X125018134Y-127724829D01*
X124928220Y-127697553D01*
X124834712Y-127688343D01*
X124741204Y-127697554D01*
X124651289Y-127724829D01*
X124568424Y-127769122D01*
X124495791Y-127828729D01*
X124436183Y-127901362D01*
X124391891Y-127984228D01*
X124364615Y-128074142D01*
X124355405Y-128167650D01*
X124364616Y-128261158D01*
X124385058Y-128328550D01*
X124600420Y-128848477D01*
X124607253Y-128871003D01*
X124651546Y-128953868D01*
X124688201Y-128998532D01*
X124711153Y-129026500D01*
X124783786Y-129086108D01*
X124866651Y-129130400D01*
X124889177Y-129137233D01*
X125365826Y-129334667D01*
X125386582Y-129345761D01*
X125409105Y-129352593D01*
X125409107Y-129352594D01*
X125476499Y-129373037D01*
X125551585Y-129380433D01*
X125570005Y-129382247D01*
X125570007Y-129382247D01*
X125663516Y-129373037D01*
X125753430Y-129345761D01*
X125774189Y-129334665D01*
X126250841Y-129137231D01*
X126273360Y-129130400D01*
X126294112Y-129119308D01*
X126294117Y-129119306D01*
X126328135Y-129101123D01*
X126356226Y-129086108D01*
X126428859Y-129026500D01*
X126451811Y-128998532D01*
X126488466Y-128953868D01*
X126532759Y-128871003D01*
X126539593Y-128848474D01*
X126737023Y-128371837D01*
X126748122Y-128351073D01*
X126775397Y-128261158D01*
X126782300Y-128191073D01*
X126782300Y-128191071D01*
X126784607Y-128167651D01*
X126782300Y-128144228D01*
X126782300Y-127398286D01*
X127723077Y-128495861D01*
X127773929Y-128544581D01*
X127853154Y-128595099D01*
X127940712Y-128629190D01*
X128033238Y-128645544D01*
X128127177Y-128643534D01*
X128218919Y-128623235D01*
X128304938Y-128585428D01*
X128381928Y-128531566D01*
X128446931Y-128463719D01*
X128497449Y-128384495D01*
X128531540Y-128296937D01*
X128547894Y-128204411D01*
X128545884Y-128110472D01*
X128525585Y-128018730D01*
X128487778Y-127932711D01*
X128447408Y-127875006D01*
X126933536Y-126108821D01*
X128447408Y-124342644D01*
X128487778Y-124284940D01*
X128525585Y-124198921D01*
X128545884Y-124107179D01*
X128547895Y-124013240D01*
X128531541Y-123920714D01*
X128497450Y-123833156D01*
X128446932Y-123753931D01*
X128381929Y-123686084D01*
X128304939Y-123632222D01*
X128218920Y-123594415D01*
X128127178Y-123574116D01*
X128033239Y-123572105D01*
X127940713Y-123588459D01*
X127853155Y-123622550D01*
X127773930Y-123673068D01*
X127723078Y-123721788D01*
X126782300Y-124819358D01*
X126782300Y-124080886D01*
X126784373Y-124064952D01*
X126782300Y-124034045D01*
X126782300Y-124026577D01*
X126780730Y-124010635D01*
X126778085Y-123971203D01*
X126776133Y-123963961D01*
X126775397Y-123956492D01*
X126763916Y-123918642D01*
X126753628Y-123880481D01*
X126750301Y-123873760D01*
X126748122Y-123866577D01*
X126729474Y-123831690D01*
X126711942Y-123796274D01*
X126707368Y-123790331D01*
X126703829Y-123783711D01*
X126678739Y-123753139D01*
X126654629Y-123721817D01*
X126648981Y-123716879D01*
X126644221Y-123711079D01*
X126613651Y-123685991D01*
X126583891Y-123659972D01*
X126577390Y-123656232D01*
X126571589Y-123651471D01*
X126536707Y-123632826D01*
X126509615Y-123617240D01*
X126547141Y-123526643D01*
X126577000Y-123376528D01*
X126577000Y-123231929D01*
X126590456Y-123215534D01*
X126619415Y-123180247D01*
X126655646Y-123112464D01*
X126666030Y-123093037D01*
X126694735Y-122998410D01*
X126701999Y-122924654D01*
X126701999Y-122924645D01*
X126704426Y-122900002D01*
X126701999Y-122875359D01*
X126701999Y-119486153D01*
X126732131Y-119522869D01*
X126789537Y-119569981D01*
X126855030Y-119604988D01*
X126926095Y-119626545D01*
X127000000Y-119633824D01*
X128573001Y-119633824D01*
X128573001Y-128979107D01*
X128560078Y-129110899D01*
X128527873Y-129217570D01*
X128475558Y-129315961D01*
X128405130Y-129402313D01*
X128319270Y-129473343D01*
X128221255Y-129526339D01*
X128114807Y-129559290D01*
X127984371Y-129573000D01*
X111020883Y-129573000D01*
X110889101Y-129560078D01*
X110782430Y-129527873D01*
X110684039Y-129475558D01*
X110597687Y-129405130D01*
X110526657Y-129319270D01*
X110473661Y-129221255D01*
X110440710Y-129114807D01*
X110427000Y-128984371D01*
X110427000Y-128750000D01*
X110711928Y-128750000D01*
X110724188Y-128874482D01*
X110760498Y-128994180D01*
X110819463Y-129104494D01*
X110898815Y-129201185D01*
X110995506Y-129280537D01*
X111105820Y-129339502D01*
X111225518Y-129375812D01*
X111350000Y-129388072D01*
X111914250Y-129385000D01*
X112073000Y-129226250D01*
X112073000Y-128027000D01*
X110873750Y-128027000D01*
X110715000Y-128185750D01*
X110711928Y-128750000D01*
X110427000Y-128750000D01*
X110427000Y-127050000D01*
X110711928Y-127050000D01*
X110715000Y-127614250D01*
X110873750Y-127773000D01*
X112073000Y-127773000D01*
X112073000Y-126573750D01*
X111914250Y-126415000D01*
X111350000Y-126411928D01*
X111225518Y-126424188D01*
X111105820Y-126460498D01*
X110995506Y-126519463D01*
X110898815Y-126598815D01*
X110819463Y-126695506D01*
X110760498Y-126805820D01*
X110724188Y-126925518D01*
X110711928Y-127050000D01*
X110427000Y-127050000D01*
X110427000Y-123825000D01*
X111411928Y-123825000D01*
X111424188Y-123949482D01*
X111460498Y-124069180D01*
X111519463Y-124179494D01*
X111598815Y-124276185D01*
X111695506Y-124355537D01*
X111805820Y-124414502D01*
X111925518Y-124450812D01*
X112050000Y-124463072D01*
X112614250Y-124460000D01*
X112773000Y-124301250D01*
X112773000Y-123027000D01*
X111573750Y-123027000D01*
X111415000Y-123185750D01*
X111411928Y-123825000D01*
X110427000Y-123825000D01*
X110427000Y-121975000D01*
X111411928Y-121975000D01*
X111415000Y-122614250D01*
X111573750Y-122773000D01*
X112773000Y-122773000D01*
X112773000Y-121498750D01*
X112614250Y-121340000D01*
X112050000Y-121336928D01*
X111925518Y-121349188D01*
X111805820Y-121385498D01*
X111695506Y-121444463D01*
X111598815Y-121523815D01*
X111519463Y-121620506D01*
X111460498Y-121730820D01*
X111424188Y-121850518D01*
X111411928Y-121975000D01*
X110427000Y-121975000D01*
X110427000Y-119633824D01*
X112000000Y-119633824D01*
X112073905Y-119626545D01*
X112144970Y-119604988D01*
X112210463Y-119569981D01*
X112267869Y-119522869D01*
X112314981Y-119465463D01*
X112349988Y-119399970D01*
X112371545Y-119328905D01*
X112378824Y-119255000D01*
X112378824Y-118805000D01*
X112696928Y-118805000D01*
X112700000Y-119519250D01*
X112858750Y-119678000D01*
X113658000Y-119678000D01*
X113658000Y-118328750D01*
X113499250Y-118170000D01*
X113335000Y-118166928D01*
X113210518Y-118179188D01*
X113090820Y-118215498D01*
X112980506Y-118274463D01*
X112883815Y-118353815D01*
X112804463Y-118450506D01*
X112745498Y-118560820D01*
X112709188Y-118680518D01*
X112696928Y-118805000D01*
X112378824Y-118805000D01*
X112378824Y-118355000D01*
X112371545Y-118281095D01*
X112349988Y-118210030D01*
X112328591Y-118170000D01*
X112349988Y-118129970D01*
X112371545Y-118058905D01*
X112378824Y-117985000D01*
X112378824Y-117225570D01*
X112451185Y-117166185D01*
X112530537Y-117069494D01*
X112589502Y-116959180D01*
X112625812Y-116839482D01*
X112627696Y-116820357D01*
X112661157Y-116802472D01*
X112722336Y-116606194D01*
X112727468Y-116610406D01*
%TA.AperFunction,Conductor*%
D25*
G36*
X112727468Y-116610406D02*
G01*
X113791101Y-117674040D01*
X113806814Y-117693186D01*
X113825960Y-117708899D01*
X113825962Y-117708901D01*
X113833188Y-117714831D01*
X113883253Y-117755919D01*
X113970462Y-117802533D01*
X114065089Y-117831238D01*
X114138845Y-117838502D01*
X114138854Y-117838502D01*
X114163497Y-117840929D01*
X114188140Y-117838502D01*
X114728568Y-117838502D01*
X115316241Y-118426176D01*
X114745570Y-118426176D01*
X114686185Y-118353815D01*
X114589494Y-118274463D01*
X114479180Y-118215498D01*
X114359482Y-118179188D01*
X114235000Y-118166928D01*
X114070750Y-118170000D01*
X113912000Y-118328750D01*
X113912000Y-119678000D01*
X113932000Y-119678000D01*
X113932000Y-119932000D01*
X113912000Y-119932000D01*
X113912000Y-119952000D01*
X113658000Y-119952000D01*
X113658000Y-119932000D01*
X112858750Y-119932000D01*
X112700000Y-120090750D01*
X112696928Y-120805000D01*
X112709188Y-120929482D01*
X112745498Y-121049180D01*
X112804463Y-121159494D01*
X112883815Y-121256185D01*
X112980506Y-121335537D01*
X113090820Y-121394502D01*
X113121839Y-121403911D01*
X113027000Y-121498750D01*
X113027000Y-122773000D01*
X113047000Y-122773000D01*
X113047000Y-123027000D01*
X113027000Y-123027000D01*
X113027000Y-124301250D01*
X113185750Y-124460000D01*
X113750000Y-124463072D01*
X113874482Y-124450812D01*
X113994180Y-124414502D01*
X114104494Y-124355537D01*
X114201185Y-124276185D01*
X114280537Y-124179494D01*
X114339502Y-124069180D01*
X114375812Y-123949482D01*
X114388072Y-123825000D01*
X114387352Y-123675216D01*
X114528184Y-123846817D01*
X114715018Y-124000149D01*
X114898000Y-124097954D01*
X114898001Y-126680390D01*
X114860849Y-126673000D01*
X114619151Y-126673000D01*
X114382097Y-126720153D01*
X114158798Y-126812647D01*
X113957833Y-126946927D01*
X113786927Y-127117833D01*
X113686888Y-127267553D01*
X113688072Y-127050000D01*
X113675812Y-126925518D01*
X113639502Y-126805820D01*
X113580537Y-126695506D01*
X113501185Y-126598815D01*
X113404494Y-126519463D01*
X113294180Y-126460498D01*
X113174482Y-126424188D01*
X113050000Y-126411928D01*
X112485750Y-126415000D01*
X112327000Y-126573750D01*
X112327000Y-127773000D01*
X112347000Y-127773000D01*
X112347000Y-128027000D01*
X112327000Y-128027000D01*
X112327000Y-129226250D01*
X112485750Y-129385000D01*
X113050000Y-129388072D01*
X113174482Y-129375812D01*
X113294180Y-129339502D01*
X113404494Y-129280537D01*
X113501185Y-129201185D01*
X113580537Y-129104494D01*
X113639502Y-128994180D01*
X113675812Y-128874482D01*
X113688072Y-128750000D01*
X113686888Y-128532447D01*
X113786927Y-128682167D01*
X113957833Y-128853073D01*
X114158798Y-128987353D01*
X114382097Y-129079847D01*
X114619151Y-129127000D01*
X114860849Y-129127000D01*
X115097903Y-129079847D01*
X115321202Y-128987353D01*
X115522167Y-128853073D01*
X115693073Y-128682167D01*
X115827353Y-128481202D01*
X115919847Y-128257903D01*
X115967000Y-128020849D01*
X115967000Y-127779151D01*
X116053000Y-127779151D01*
X116053000Y-128020849D01*
X116100153Y-128257903D01*
X116192647Y-128481202D01*
X116326927Y-128682167D01*
X116497833Y-128853073D01*
X116698798Y-128987353D01*
X116922097Y-129079847D01*
X117159151Y-129127000D01*
X117400849Y-129127000D01*
X117637903Y-129079847D01*
X117861202Y-128987353D01*
X118062167Y-128853073D01*
X118233073Y-128682167D01*
X118367353Y-128481202D01*
X118459847Y-128257903D01*
X118507000Y-128020849D01*
X118507000Y-127779151D01*
X118459847Y-127542097D01*
X118393598Y-127382159D01*
X118394736Y-127378409D01*
X118402000Y-127304653D01*
X118402000Y-127304644D01*
X118404427Y-127280001D01*
X118402000Y-127255358D01*
X118402000Y-124097955D01*
X118584983Y-124000149D01*
X118771817Y-123846817D01*
X118925149Y-123659982D01*
X119039084Y-123446823D01*
X119109245Y-123215533D01*
X119127000Y-123035267D01*
X119127000Y-122764732D01*
X119109245Y-122584466D01*
X119039084Y-122353176D01*
X118925149Y-122140017D01*
X118771817Y-121953183D01*
X118584982Y-121799851D01*
X118371823Y-121685916D01*
X118140533Y-121615755D01*
X117900000Y-121592064D01*
X117659466Y-121615755D01*
X117428176Y-121685916D01*
X117215017Y-121799851D01*
X117028183Y-121953183D01*
X116874851Y-122140018D01*
X116760916Y-122353177D01*
X116690755Y-122584467D01*
X116673000Y-122764733D01*
X116673000Y-123035268D01*
X116690755Y-123215534D01*
X116760916Y-123446824D01*
X116874851Y-123659983D01*
X117028184Y-123846817D01*
X117215018Y-124000149D01*
X117398000Y-124097954D01*
X117398001Y-126673000D01*
X117159151Y-126673000D01*
X116922097Y-126720153D01*
X116698798Y-126812647D01*
X116497833Y-126946927D01*
X116326927Y-127117833D01*
X116192647Y-127318798D01*
X116100153Y-127542097D01*
X116053000Y-127779151D01*
X115967000Y-127779151D01*
X115919847Y-127542097D01*
X115869684Y-127420994D01*
X115894736Y-127338409D01*
X115902000Y-127264653D01*
X115902000Y-127264643D01*
X115904427Y-127240000D01*
X115902000Y-127215357D01*
X115902000Y-124097955D01*
X116084983Y-124000149D01*
X116271817Y-123846817D01*
X116425149Y-123659982D01*
X116539084Y-123446823D01*
X116609245Y-123215533D01*
X116627000Y-123035267D01*
X116627000Y-122764732D01*
X116609245Y-122584466D01*
X116539084Y-122353176D01*
X116425149Y-122140017D01*
X116271817Y-121953183D01*
X116084982Y-121799851D01*
X115871823Y-121685916D01*
X115640533Y-121615755D01*
X115400000Y-121592064D01*
X115159466Y-121615755D01*
X114928176Y-121685916D01*
X114715017Y-121799851D01*
X114528183Y-121953183D01*
X114387352Y-122124785D01*
X114388072Y-121975000D01*
X114375812Y-121850518D01*
X114339502Y-121730820D01*
X114280537Y-121620506D01*
X114201185Y-121523815D01*
X114104494Y-121444463D01*
X114097065Y-121440492D01*
X114235000Y-121443072D01*
X114359482Y-121430812D01*
X114479180Y-121394502D01*
X114589494Y-121335537D01*
X114686185Y-121256185D01*
X114745570Y-121183824D01*
X115505000Y-121183824D01*
X115578905Y-121176545D01*
X115649970Y-121154988D01*
X115690000Y-121133591D01*
X115730030Y-121154988D01*
X115801095Y-121176545D01*
X115875000Y-121183824D01*
X116775000Y-121183824D01*
X116848905Y-121176545D01*
X116919970Y-121154988D01*
X116960000Y-121133591D01*
X117000030Y-121154988D01*
X117071095Y-121176545D01*
X117145000Y-121183824D01*
X118045000Y-121183824D01*
X118118905Y-121176545D01*
X118189970Y-121154988D01*
X118230000Y-121133591D01*
X118270030Y-121154988D01*
X118341095Y-121176545D01*
X118415000Y-121183824D01*
X119315000Y-121183824D01*
X119388905Y-121176545D01*
X119459970Y-121154988D01*
X119500000Y-121133591D01*
X119540030Y-121154988D01*
X119611095Y-121176545D01*
X119685000Y-121183824D01*
X120585000Y-121183824D01*
X120658905Y-121176545D01*
X120729970Y-121154988D01*
X120770000Y-121133591D01*
X120810030Y-121154988D01*
X120881095Y-121176545D01*
X120955000Y-121183824D01*
X121855000Y-121183824D01*
X121928905Y-121176545D01*
X121999970Y-121154988D01*
X122040000Y-121133591D01*
X122080030Y-121154988D01*
X122151095Y-121176545D01*
X122225000Y-121183824D01*
X123125000Y-121183824D01*
X123198905Y-121176545D01*
X123269970Y-121154988D01*
X123310000Y-121133591D01*
X123350030Y-121154988D01*
X123421095Y-121176545D01*
X123495000Y-121183824D01*
X124395000Y-121183824D01*
X124468905Y-121176545D01*
X124539970Y-121154988D01*
X124580000Y-121133591D01*
X124620030Y-121154988D01*
X124691095Y-121176545D01*
X124765000Y-121183824D01*
X125665000Y-121183824D01*
X125698000Y-121180574D01*
X125698000Y-122528067D01*
X125573357Y-122552859D01*
X125431952Y-122611431D01*
X125304691Y-122696464D01*
X125203155Y-122798000D01*
X124224643Y-122798000D01*
X124199998Y-122795573D01*
X124175352Y-122798000D01*
X124175345Y-122798000D01*
X124110430Y-122804393D01*
X124101588Y-122805264D01*
X124006962Y-122833969D01*
X123919753Y-122880583D01*
X123862463Y-122927600D01*
X123862460Y-122927603D01*
X123843314Y-122943316D01*
X123827600Y-122962463D01*
X123712468Y-123077596D01*
X123712463Y-123077600D01*
X121264999Y-125525064D01*
X121245848Y-125540782D01*
X121183115Y-125617221D01*
X121136501Y-125704431D01*
X121107796Y-125799058D01*
X121100532Y-125872814D01*
X121100532Y-125872823D01*
X121098105Y-125897466D01*
X121100532Y-125922109D01*
X121100533Y-128028164D01*
X121031891Y-128096806D01*
X121047000Y-128020849D01*
X121047000Y-127779151D01*
X120999847Y-127542097D01*
X120907353Y-127318798D01*
X120903782Y-127313454D01*
X120902000Y-127295357D01*
X120902000Y-124097955D01*
X121084983Y-124000149D01*
X121271817Y-123846817D01*
X121425149Y-123659982D01*
X121539084Y-123446823D01*
X121609245Y-123215533D01*
X121627000Y-123035267D01*
X121627000Y-122764732D01*
X121609245Y-122584466D01*
X121539084Y-122353176D01*
X121425149Y-122140017D01*
X121271817Y-121953183D01*
X121084982Y-121799851D01*
X120871823Y-121685916D01*
X120640533Y-121615755D01*
X120400000Y-121592064D01*
X120159466Y-121615755D01*
X119928176Y-121685916D01*
X119715017Y-121799851D01*
X119528183Y-121953183D01*
X119374851Y-122140018D01*
X119260916Y-122353177D01*
X119190755Y-122584467D01*
X119173000Y-122764733D01*
X119173000Y-123035268D01*
X119190755Y-123215534D01*
X119260916Y-123446824D01*
X119374851Y-123659983D01*
X119528184Y-123846817D01*
X119715018Y-124000149D01*
X119898000Y-124097954D01*
X119898001Y-126673000D01*
X119699151Y-126673000D01*
X119462097Y-126720153D01*
X119238798Y-126812647D01*
X119037833Y-126946927D01*
X118866927Y-127117833D01*
X118732647Y-127318798D01*
X118640153Y-127542097D01*
X118593000Y-127779151D01*
X118593000Y-128020849D01*
X118640153Y-128257903D01*
X118732647Y-128481202D01*
X118866927Y-128682167D01*
X119037833Y-128853073D01*
X119238798Y-128987353D01*
X119462097Y-129079847D01*
X119699151Y-129127000D01*
X119940849Y-129127000D01*
X120177903Y-129079847D01*
X120401202Y-128987353D01*
X120602167Y-128853073D01*
X120773073Y-128682167D01*
X120825532Y-128603656D01*
X120825532Y-128701538D01*
X120855391Y-128851653D01*
X120913963Y-128993058D01*
X120998996Y-129120319D01*
X121107223Y-129228546D01*
X121234484Y-129313579D01*
X121375889Y-129372151D01*
X121526004Y-129402010D01*
X121679060Y-129402010D01*
X121829175Y-129372151D01*
X121970580Y-129313579D01*
X122097841Y-129228546D01*
X122206068Y-129120319D01*
X122291101Y-128993058D01*
X122349673Y-128851653D01*
X122379532Y-128701538D01*
X122379532Y-128548482D01*
X122349673Y-128398367D01*
X122291101Y-128256962D01*
X122206068Y-128129701D01*
X122104532Y-128028165D01*
X122104532Y-126105400D01*
X124407933Y-123802000D01*
X125203155Y-123802000D01*
X125304691Y-123903536D01*
X125431952Y-123988569D01*
X125573357Y-124047141D01*
X125702769Y-124072882D01*
X124454943Y-125819838D01*
X124436171Y-125842711D01*
X124428935Y-125856249D01*
X122962355Y-127909460D01*
X122927236Y-127970503D01*
X122897169Y-128059523D01*
X122885047Y-128152698D01*
X122891335Y-128246447D01*
X122915792Y-128337168D01*
X122957478Y-128421376D01*
X123014792Y-128495833D01*
X123085529Y-128557678D01*
X123166973Y-128604534D01*
X123255993Y-128634601D01*
X123349168Y-128646723D01*
X123442917Y-128640435D01*
X123533638Y-128615978D01*
X123617846Y-128574292D01*
X123692303Y-128516978D01*
X123738656Y-128463960D01*
X125080057Y-126586000D01*
X125828301Y-126586000D01*
X125828301Y-128072768D01*
X125724859Y-128322499D01*
X125570006Y-128386640D01*
X125415153Y-128322499D01*
X125266438Y-127963470D01*
X125233240Y-127901362D01*
X125173633Y-127828729D01*
X125101000Y-127769121D01*
X125018134Y-127724829D01*
X124928220Y-127697553D01*
X124834712Y-127688343D01*
X124741204Y-127697554D01*
X124651289Y-127724829D01*
X124568424Y-127769122D01*
X124495791Y-127828729D01*
X124436183Y-127901362D01*
X124391891Y-127984228D01*
X124364615Y-128074142D01*
X124355405Y-128167650D01*
X124364616Y-128261158D01*
X124385058Y-128328550D01*
X124600420Y-128848477D01*
X124607253Y-128871003D01*
X124651546Y-128953868D01*
X124688201Y-128998532D01*
X124711153Y-129026500D01*
X124783786Y-129086108D01*
X124866651Y-129130400D01*
X124889177Y-129137233D01*
X125365826Y-129334667D01*
X125386582Y-129345761D01*
X125409105Y-129352593D01*
X125409107Y-129352594D01*
X125476499Y-129373037D01*
X125551585Y-129380433D01*
X125570005Y-129382247D01*
X125570007Y-129382247D01*
X125663516Y-129373037D01*
X125753430Y-129345761D01*
X125774189Y-129334665D01*
X126250841Y-129137231D01*
X126273360Y-129130400D01*
X126294112Y-129119308D01*
X126294117Y-129119306D01*
X126328135Y-129101123D01*
X126356226Y-129086108D01*
X126428859Y-129026500D01*
X126451811Y-128998532D01*
X126488466Y-128953868D01*
X126532759Y-128871003D01*
X126539593Y-128848474D01*
X126737023Y-128371837D01*
X126748122Y-128351073D01*
X126775397Y-128261158D01*
X126782300Y-128191073D01*
X126782300Y-128191071D01*
X126784607Y-128167651D01*
X126782300Y-128144228D01*
X126782300Y-127398286D01*
X127723077Y-128495861D01*
X127773929Y-128544581D01*
X127853154Y-128595099D01*
X127940712Y-128629190D01*
X128033238Y-128645544D01*
X128127177Y-128643534D01*
X128218919Y-128623235D01*
X128304938Y-128585428D01*
X128381928Y-128531566D01*
X128446931Y-128463719D01*
X128497449Y-128384495D01*
X128531540Y-128296937D01*
X128547894Y-128204411D01*
X128545884Y-128110472D01*
X128525585Y-128018730D01*
X128487778Y-127932711D01*
X128447408Y-127875006D01*
X126933536Y-126108821D01*
X128447408Y-124342644D01*
X128487778Y-124284940D01*
X128525585Y-124198921D01*
X128545884Y-124107179D01*
X128547895Y-124013240D01*
X128531541Y-123920714D01*
X128497450Y-123833156D01*
X128446932Y-123753931D01*
X128381929Y-123686084D01*
X128304939Y-123632222D01*
X128218920Y-123594415D01*
X128127178Y-123574116D01*
X128033239Y-123572105D01*
X127940713Y-123588459D01*
X127853155Y-123622550D01*
X127773930Y-123673068D01*
X127723078Y-123721788D01*
X126782300Y-124819358D01*
X126782300Y-124080886D01*
X126784373Y-124064952D01*
X126782300Y-124034045D01*
X126782300Y-124026577D01*
X126780730Y-124010635D01*
X126778085Y-123971203D01*
X126776133Y-123963961D01*
X126775397Y-123956492D01*
X126763916Y-123918642D01*
X126753628Y-123880481D01*
X126750301Y-123873760D01*
X126748122Y-123866577D01*
X126729474Y-123831690D01*
X126711942Y-123796274D01*
X126707368Y-123790331D01*
X126703829Y-123783711D01*
X126678739Y-123753139D01*
X126654629Y-123721817D01*
X126648981Y-123716879D01*
X126644221Y-123711079D01*
X126613651Y-123685991D01*
X126583891Y-123659972D01*
X126577390Y-123656232D01*
X126571589Y-123651471D01*
X126536707Y-123632826D01*
X126509615Y-123617240D01*
X126547141Y-123526643D01*
X126577000Y-123376528D01*
X126577000Y-123231929D01*
X126590456Y-123215534D01*
X126619415Y-123180247D01*
X126655646Y-123112464D01*
X126666030Y-123093037D01*
X126694735Y-122998410D01*
X126701999Y-122924654D01*
X126701999Y-122924645D01*
X126704426Y-122900002D01*
X126701999Y-122875359D01*
X126701999Y-119486153D01*
X126732131Y-119522869D01*
X126789537Y-119569981D01*
X126855030Y-119604988D01*
X126926095Y-119626545D01*
X127000000Y-119633824D01*
X128573001Y-119633824D01*
X128573001Y-128979107D01*
X128560078Y-129110899D01*
X128527873Y-129217570D01*
X128475558Y-129315961D01*
X128405130Y-129402313D01*
X128319270Y-129473343D01*
X128221255Y-129526339D01*
X128114807Y-129559290D01*
X127984371Y-129573000D01*
X111020883Y-129573000D01*
X110889101Y-129560078D01*
X110782430Y-129527873D01*
X110684039Y-129475558D01*
X110597687Y-129405130D01*
X110526657Y-129319270D01*
X110473661Y-129221255D01*
X110440710Y-129114807D01*
X110427000Y-128984371D01*
X110427000Y-128750000D01*
X110711928Y-128750000D01*
X110724188Y-128874482D01*
X110760498Y-128994180D01*
X110819463Y-129104494D01*
X110898815Y-129201185D01*
X110995506Y-129280537D01*
X111105820Y-129339502D01*
X111225518Y-129375812D01*
X111350000Y-129388072D01*
X111914250Y-129385000D01*
X112073000Y-129226250D01*
X112073000Y-128027000D01*
X110873750Y-128027000D01*
X110715000Y-128185750D01*
X110711928Y-128750000D01*
X110427000Y-128750000D01*
X110427000Y-127050000D01*
X110711928Y-127050000D01*
X110715000Y-127614250D01*
X110873750Y-127773000D01*
X112073000Y-127773000D01*
X112073000Y-126573750D01*
X111914250Y-126415000D01*
X111350000Y-126411928D01*
X111225518Y-126424188D01*
X111105820Y-126460498D01*
X110995506Y-126519463D01*
X110898815Y-126598815D01*
X110819463Y-126695506D01*
X110760498Y-126805820D01*
X110724188Y-126925518D01*
X110711928Y-127050000D01*
X110427000Y-127050000D01*
X110427000Y-123825000D01*
X111411928Y-123825000D01*
X111424188Y-123949482D01*
X111460498Y-124069180D01*
X111519463Y-124179494D01*
X111598815Y-124276185D01*
X111695506Y-124355537D01*
X111805820Y-124414502D01*
X111925518Y-124450812D01*
X112050000Y-124463072D01*
X112614250Y-124460000D01*
X112773000Y-124301250D01*
X112773000Y-123027000D01*
X111573750Y-123027000D01*
X111415000Y-123185750D01*
X111411928Y-123825000D01*
X110427000Y-123825000D01*
X110427000Y-121975000D01*
X111411928Y-121975000D01*
X111415000Y-122614250D01*
X111573750Y-122773000D01*
X112773000Y-122773000D01*
X112773000Y-121498750D01*
X112614250Y-121340000D01*
X112050000Y-121336928D01*
X111925518Y-121349188D01*
X111805820Y-121385498D01*
X111695506Y-121444463D01*
X111598815Y-121523815D01*
X111519463Y-121620506D01*
X111460498Y-121730820D01*
X111424188Y-121850518D01*
X111411928Y-121975000D01*
X110427000Y-121975000D01*
X110427000Y-119633824D01*
X112000000Y-119633824D01*
X112073905Y-119626545D01*
X112144970Y-119604988D01*
X112210463Y-119569981D01*
X112267869Y-119522869D01*
X112314981Y-119465463D01*
X112349988Y-119399970D01*
X112371545Y-119328905D01*
X112378824Y-119255000D01*
X112378824Y-118805000D01*
X112696928Y-118805000D01*
X112700000Y-119519250D01*
X112858750Y-119678000D01*
X113658000Y-119678000D01*
X113658000Y-118328750D01*
X113499250Y-118170000D01*
X113335000Y-118166928D01*
X113210518Y-118179188D01*
X113090820Y-118215498D01*
X112980506Y-118274463D01*
X112883815Y-118353815D01*
X112804463Y-118450506D01*
X112745498Y-118560820D01*
X112709188Y-118680518D01*
X112696928Y-118805000D01*
X112378824Y-118805000D01*
X112378824Y-118355000D01*
X112371545Y-118281095D01*
X112349988Y-118210030D01*
X112328591Y-118170000D01*
X112349988Y-118129970D01*
X112371545Y-118058905D01*
X112378824Y-117985000D01*
X112378824Y-117225570D01*
X112451185Y-117166185D01*
X112530537Y-117069494D01*
X112589502Y-116959180D01*
X112625812Y-116839482D01*
X112627696Y-116820357D01*
X112661157Y-116802472D01*
X112722336Y-116606194D01*
X112727468Y-116610406D01*
G37*
%TD.AperFunction*%
D24*
X121043748Y-117735858D02*
X121029605Y-117750000D01*
X121043748Y-117764143D01*
X120864143Y-117943748D01*
X120850000Y-117929605D01*
X120835858Y-117943748D01*
X120656253Y-117764143D01*
X120670395Y-117750000D01*
X120656253Y-117735858D01*
X120835858Y-117556253D01*
X120850000Y-117570395D01*
X120864143Y-117556253D01*
X121043748Y-117735858D01*
%TA.AperFunction,Conductor*%
D25*
G36*
X121043748Y-117735858D02*
G01*
X121029605Y-117750000D01*
X121043748Y-117764143D01*
X120864143Y-117943748D01*
X120850000Y-117929605D01*
X120835858Y-117943748D01*
X120656253Y-117764143D01*
X120670395Y-117750000D01*
X120656253Y-117735858D01*
X120835858Y-117556253D01*
X120850000Y-117570395D01*
X120864143Y-117556253D01*
X121043748Y-117735858D01*
G37*
%TD.AperFunction*%
D24*
X123669928Y-101508000D02*
X123673000Y-101984250D01*
X123831750Y-102143000D01*
X124943000Y-102143000D01*
X124943000Y-102123000D01*
X125197000Y-102123000D01*
X125197000Y-102143000D01*
X126308250Y-102143000D01*
X126403500Y-102047750D01*
X126523750Y-102168000D01*
X127873000Y-102168000D01*
X127873000Y-102148000D01*
X128127000Y-102148000D01*
X128127000Y-102168000D01*
X128147000Y-102168000D01*
X128147000Y-102422000D01*
X128127000Y-102422000D01*
X128127000Y-102442000D01*
X127873000Y-102442000D01*
X127873000Y-102422000D01*
X126523750Y-102422000D01*
X126428500Y-102517250D01*
X126308250Y-102397000D01*
X125197000Y-102397000D01*
X125197000Y-103508250D01*
X125355750Y-103667000D01*
X125832000Y-103670072D01*
X125956482Y-103657812D01*
X126076180Y-103621502D01*
X126186494Y-103562537D01*
X126283185Y-103483185D01*
X126362537Y-103386494D01*
X126421502Y-103276180D01*
X126457812Y-103156482D01*
X126464364Y-103089955D01*
X126469463Y-103099494D01*
X126548815Y-103196185D01*
X126621176Y-103255570D01*
X126621176Y-104015000D01*
X126628455Y-104088905D01*
X126650012Y-104159970D01*
X126671409Y-104200000D01*
X126650012Y-104240030D01*
X126628455Y-104311095D01*
X126621176Y-104385000D01*
X126621176Y-105285000D01*
X126624919Y-105323000D01*
X126523472Y-105323000D01*
X126373357Y-105352859D01*
X126231952Y-105411431D01*
X126104691Y-105496464D01*
X125996464Y-105604691D01*
X125911431Y-105731952D01*
X125852859Y-105873357D01*
X125823000Y-106023472D01*
X125823000Y-106176528D01*
X125852859Y-106326643D01*
X125911431Y-106468048D01*
X125996464Y-106595309D01*
X126104691Y-106703536D01*
X126231952Y-106788569D01*
X126373357Y-106847141D01*
X126523472Y-106877000D01*
X126625904Y-106877000D01*
X126624781Y-106888397D01*
X126556964Y-106908969D01*
X126469755Y-106955583D01*
X126393316Y-107018316D01*
X126377598Y-107037468D01*
X126234474Y-107180592D01*
X126215322Y-107196310D01*
X126152589Y-107272749D01*
X126105975Y-107359959D01*
X126077270Y-107454586D01*
X126070006Y-107528342D01*
X126070006Y-107528351D01*
X126067579Y-107552994D01*
X126070006Y-107577637D01*
X126070007Y-112149181D01*
X125933702Y-112149181D01*
X125783587Y-112179040D01*
X125642182Y-112237612D01*
X125514921Y-112322645D01*
X125406694Y-112430872D01*
X125321661Y-112558133D01*
X125263089Y-112699538D01*
X125233230Y-112849653D01*
X125233230Y-113002709D01*
X125263089Y-113152824D01*
X125321661Y-113294229D01*
X125406694Y-113421490D01*
X125514921Y-113529717D01*
X125642182Y-113614750D01*
X125783587Y-113673322D01*
X125933702Y-113703181D01*
X126086758Y-113703181D01*
X126236873Y-113673322D01*
X126378278Y-113614750D01*
X126505539Y-113529717D01*
X126613766Y-113421490D01*
X126621176Y-113410400D01*
X126621176Y-114175000D01*
X126626534Y-114229400D01*
X126508597Y-114252859D01*
X126367192Y-114311431D01*
X126239931Y-114396464D01*
X126131704Y-114504691D01*
X126046671Y-114631952D01*
X125988099Y-114773357D01*
X125958240Y-114923472D01*
X125958240Y-115076528D01*
X125988099Y-115226643D01*
X126046671Y-115368048D01*
X126131704Y-115495309D01*
X126239931Y-115603536D01*
X126367192Y-115688569D01*
X126508597Y-115747141D01*
X126589954Y-115763323D01*
X126556624Y-115769953D01*
X126415219Y-115828525D01*
X126287958Y-115913558D01*
X126179731Y-116021785D01*
X126094698Y-116149046D01*
X126036126Y-116290451D01*
X126006267Y-116440566D01*
X126006267Y-116574544D01*
X124885585Y-115453863D01*
X124869868Y-115434712D01*
X124793429Y-115371979D01*
X124706220Y-115325365D01*
X124611593Y-115296660D01*
X124537837Y-115289396D01*
X124537827Y-115289396D01*
X124513184Y-115286969D01*
X124488541Y-115289396D01*
X124471427Y-115289396D01*
X124369891Y-115187860D01*
X124242630Y-115102827D01*
X124101225Y-115044255D01*
X124077306Y-115039497D01*
X124079425Y-115017979D01*
X124076998Y-114993336D01*
X124076998Y-112232936D01*
X125742838Y-110567098D01*
X125761979Y-110551389D01*
X125777687Y-110532249D01*
X125777695Y-110532241D01*
X125824711Y-110474951D01*
X125851596Y-110424653D01*
X125871326Y-110387741D01*
X125900031Y-110293114D01*
X125907295Y-110219358D01*
X125907295Y-110219348D01*
X125909722Y-110194705D01*
X125907295Y-110170062D01*
X125907295Y-107329938D01*
X125909722Y-107305295D01*
X125907295Y-107280652D01*
X125907295Y-107280642D01*
X125900031Y-107206886D01*
X125871326Y-107112259D01*
X125842462Y-107058258D01*
X125824712Y-107025049D01*
X125777695Y-106967759D01*
X125777687Y-106967751D01*
X125761979Y-106948611D01*
X125742838Y-106932902D01*
X124554998Y-105745064D01*
X124554998Y-105249002D01*
X124850157Y-105249002D01*
X124904691Y-105303536D01*
X125031952Y-105388569D01*
X125173357Y-105447141D01*
X125323472Y-105477000D01*
X125476528Y-105477000D01*
X125626643Y-105447141D01*
X125768048Y-105388569D01*
X125895309Y-105303536D01*
X126003536Y-105195309D01*
X126088569Y-105068048D01*
X126147141Y-104926643D01*
X126177000Y-104776528D01*
X126177000Y-104623472D01*
X126147141Y-104473357D01*
X126088569Y-104331952D01*
X126003536Y-104204691D01*
X125895309Y-104096464D01*
X125768048Y-104011431D01*
X125626643Y-103952859D01*
X125476528Y-103923000D01*
X125323472Y-103923000D01*
X125173357Y-103952859D01*
X125031952Y-104011431D01*
X124904691Y-104096464D01*
X124796464Y-104204691D01*
X124769529Y-104245002D01*
X124556638Y-104245002D01*
X124554998Y-104228354D01*
X124554998Y-104228345D01*
X124547734Y-104154589D01*
X124519029Y-104059962D01*
X124472415Y-103972753D01*
X124409682Y-103896314D01*
X124390530Y-103880596D01*
X124203965Y-103694031D01*
X124203035Y-103690966D01*
X124185414Y-103657999D01*
X124308000Y-103670072D01*
X124784250Y-103667000D01*
X124943000Y-103508250D01*
X124943000Y-102397000D01*
X123831750Y-102397000D01*
X123673000Y-102555750D01*
X123669928Y-103032000D01*
X123678121Y-103115184D01*
X123250402Y-102687466D01*
X123234685Y-102668315D01*
X123158246Y-102605582D01*
X123071037Y-102558968D01*
X122976410Y-102530263D01*
X122902654Y-102522999D01*
X122902644Y-102522999D01*
X122878001Y-102520572D01*
X122853358Y-102522999D01*
X119026824Y-102522999D01*
X119002179Y-102520572D01*
X118977533Y-102522999D01*
X118977526Y-102522999D01*
X118912611Y-102529392D01*
X118903769Y-102530263D01*
X118809142Y-102558968D01*
X118721933Y-102605582D01*
X118664644Y-102652599D01*
X118664643Y-102652600D01*
X118645495Y-102668315D01*
X118629782Y-102687461D01*
X117944245Y-103372999D01*
X112767934Y-103372999D01*
X112622401Y-103227467D01*
X112606684Y-103208316D01*
X112530245Y-103145583D01*
X112504157Y-103131639D01*
X112530537Y-103099494D01*
X112589502Y-102989180D01*
X112625812Y-102869482D01*
X112638072Y-102745000D01*
X112635000Y-102580750D01*
X112476250Y-102422000D01*
X111127000Y-102422000D01*
X111127000Y-102442000D01*
X110873000Y-102442000D01*
X110873000Y-102422000D01*
X110853000Y-102422000D01*
X110853000Y-102168000D01*
X110873000Y-102168000D01*
X110873000Y-102148000D01*
X111127000Y-102148000D01*
X111127000Y-102168000D01*
X112476250Y-102168000D01*
X112635000Y-102009250D01*
X112638072Y-101845000D01*
X112625812Y-101720518D01*
X112589502Y-101600820D01*
X112530537Y-101490506D01*
X112478419Y-101427000D01*
X123677906Y-101427000D01*
X123669928Y-101508000D01*
%TA.AperFunction,Conductor*%
D25*
G36*
X123669928Y-101508000D02*
G01*
X123673000Y-101984250D01*
X123831750Y-102143000D01*
X124943000Y-102143000D01*
X124943000Y-102123000D01*
X125197000Y-102123000D01*
X125197000Y-102143000D01*
X126308250Y-102143000D01*
X126403500Y-102047750D01*
X126523750Y-102168000D01*
X127873000Y-102168000D01*
X127873000Y-102148000D01*
X128127000Y-102148000D01*
X128127000Y-102168000D01*
X128147000Y-102168000D01*
X128147000Y-102422000D01*
X128127000Y-102422000D01*
X128127000Y-102442000D01*
X127873000Y-102442000D01*
X127873000Y-102422000D01*
X126523750Y-102422000D01*
X126428500Y-102517250D01*
X126308250Y-102397000D01*
X125197000Y-102397000D01*
X125197000Y-103508250D01*
X125355750Y-103667000D01*
X125832000Y-103670072D01*
X125956482Y-103657812D01*
X126076180Y-103621502D01*
X126186494Y-103562537D01*
X126283185Y-103483185D01*
X126362537Y-103386494D01*
X126421502Y-103276180D01*
X126457812Y-103156482D01*
X126464364Y-103089955D01*
X126469463Y-103099494D01*
X126548815Y-103196185D01*
X126621176Y-103255570D01*
X126621176Y-104015000D01*
X126628455Y-104088905D01*
X126650012Y-104159970D01*
X126671409Y-104200000D01*
X126650012Y-104240030D01*
X126628455Y-104311095D01*
X126621176Y-104385000D01*
X126621176Y-105285000D01*
X126624919Y-105323000D01*
X126523472Y-105323000D01*
X126373357Y-105352859D01*
X126231952Y-105411431D01*
X126104691Y-105496464D01*
X125996464Y-105604691D01*
X125911431Y-105731952D01*
X125852859Y-105873357D01*
X125823000Y-106023472D01*
X125823000Y-106176528D01*
X125852859Y-106326643D01*
X125911431Y-106468048D01*
X125996464Y-106595309D01*
X126104691Y-106703536D01*
X126231952Y-106788569D01*
X126373357Y-106847141D01*
X126523472Y-106877000D01*
X126625904Y-106877000D01*
X126624781Y-106888397D01*
X126556964Y-106908969D01*
X126469755Y-106955583D01*
X126393316Y-107018316D01*
X126377598Y-107037468D01*
X126234474Y-107180592D01*
X126215322Y-107196310D01*
X126152589Y-107272749D01*
X126105975Y-107359959D01*
X126077270Y-107454586D01*
X126070006Y-107528342D01*
X126070006Y-107528351D01*
X126067579Y-107552994D01*
X126070006Y-107577637D01*
X126070007Y-112149181D01*
X125933702Y-112149181D01*
X125783587Y-112179040D01*
X125642182Y-112237612D01*
X125514921Y-112322645D01*
X125406694Y-112430872D01*
X125321661Y-112558133D01*
X125263089Y-112699538D01*
X125233230Y-112849653D01*
X125233230Y-113002709D01*
X125263089Y-113152824D01*
X125321661Y-113294229D01*
X125406694Y-113421490D01*
X125514921Y-113529717D01*
X125642182Y-113614750D01*
X125783587Y-113673322D01*
X125933702Y-113703181D01*
X126086758Y-113703181D01*
X126236873Y-113673322D01*
X126378278Y-113614750D01*
X126505539Y-113529717D01*
X126613766Y-113421490D01*
X126621176Y-113410400D01*
X126621176Y-114175000D01*
X126626534Y-114229400D01*
X126508597Y-114252859D01*
X126367192Y-114311431D01*
X126239931Y-114396464D01*
X126131704Y-114504691D01*
X126046671Y-114631952D01*
X125988099Y-114773357D01*
X125958240Y-114923472D01*
X125958240Y-115076528D01*
X125988099Y-115226643D01*
X126046671Y-115368048D01*
X126131704Y-115495309D01*
X126239931Y-115603536D01*
X126367192Y-115688569D01*
X126508597Y-115747141D01*
X126589954Y-115763323D01*
X126556624Y-115769953D01*
X126415219Y-115828525D01*
X126287958Y-115913558D01*
X126179731Y-116021785D01*
X126094698Y-116149046D01*
X126036126Y-116290451D01*
X126006267Y-116440566D01*
X126006267Y-116574544D01*
X124885585Y-115453863D01*
X124869868Y-115434712D01*
X124793429Y-115371979D01*
X124706220Y-115325365D01*
X124611593Y-115296660D01*
X124537837Y-115289396D01*
X124537827Y-115289396D01*
X124513184Y-115286969D01*
X124488541Y-115289396D01*
X124471427Y-115289396D01*
X124369891Y-115187860D01*
X124242630Y-115102827D01*
X124101225Y-115044255D01*
X124077306Y-115039497D01*
X124079425Y-115017979D01*
X124076998Y-114993336D01*
X124076998Y-112232936D01*
X125742838Y-110567098D01*
X125761979Y-110551389D01*
X125777687Y-110532249D01*
X125777695Y-110532241D01*
X125824711Y-110474951D01*
X125851596Y-110424653D01*
X125871326Y-110387741D01*
X125900031Y-110293114D01*
X125907295Y-110219358D01*
X125907295Y-110219348D01*
X125909722Y-110194705D01*
X125907295Y-110170062D01*
X125907295Y-107329938D01*
X125909722Y-107305295D01*
X125907295Y-107280652D01*
X125907295Y-107280642D01*
X125900031Y-107206886D01*
X125871326Y-107112259D01*
X125842462Y-107058258D01*
X125824712Y-107025049D01*
X125777695Y-106967759D01*
X125777687Y-106967751D01*
X125761979Y-106948611D01*
X125742838Y-106932902D01*
X124554998Y-105745064D01*
X124554998Y-105249002D01*
X124850157Y-105249002D01*
X124904691Y-105303536D01*
X125031952Y-105388569D01*
X125173357Y-105447141D01*
X125323472Y-105477000D01*
X125476528Y-105477000D01*
X125626643Y-105447141D01*
X125768048Y-105388569D01*
X125895309Y-105303536D01*
X126003536Y-105195309D01*
X126088569Y-105068048D01*
X126147141Y-104926643D01*
X126177000Y-104776528D01*
X126177000Y-104623472D01*
X126147141Y-104473357D01*
X126088569Y-104331952D01*
X126003536Y-104204691D01*
X125895309Y-104096464D01*
X125768048Y-104011431D01*
X125626643Y-103952859D01*
X125476528Y-103923000D01*
X125323472Y-103923000D01*
X125173357Y-103952859D01*
X125031952Y-104011431D01*
X124904691Y-104096464D01*
X124796464Y-104204691D01*
X124769529Y-104245002D01*
X124556638Y-104245002D01*
X124554998Y-104228354D01*
X124554998Y-104228345D01*
X124547734Y-104154589D01*
X124519029Y-104059962D01*
X124472415Y-103972753D01*
X124409682Y-103896314D01*
X124390530Y-103880596D01*
X124203965Y-103694031D01*
X124203035Y-103690966D01*
X124185414Y-103657999D01*
X124308000Y-103670072D01*
X124784250Y-103667000D01*
X124943000Y-103508250D01*
X124943000Y-102397000D01*
X123831750Y-102397000D01*
X123673000Y-102555750D01*
X123669928Y-103032000D01*
X123678121Y-103115184D01*
X123250402Y-102687466D01*
X123234685Y-102668315D01*
X123158246Y-102605582D01*
X123071037Y-102558968D01*
X122976410Y-102530263D01*
X122902654Y-102522999D01*
X122902644Y-102522999D01*
X122878001Y-102520572D01*
X122853358Y-102522999D01*
X119026824Y-102522999D01*
X119002179Y-102520572D01*
X118977533Y-102522999D01*
X118977526Y-102522999D01*
X118912611Y-102529392D01*
X118903769Y-102530263D01*
X118809142Y-102558968D01*
X118721933Y-102605582D01*
X118664644Y-102652599D01*
X118664643Y-102652600D01*
X118645495Y-102668315D01*
X118629782Y-102687461D01*
X117944245Y-103372999D01*
X112767934Y-103372999D01*
X112622401Y-103227467D01*
X112606684Y-103208316D01*
X112530245Y-103145583D01*
X112504157Y-103131639D01*
X112530537Y-103099494D01*
X112589502Y-102989180D01*
X112625812Y-102869482D01*
X112638072Y-102745000D01*
X112635000Y-102580750D01*
X112476250Y-102422000D01*
X111127000Y-102422000D01*
X111127000Y-102442000D01*
X110873000Y-102442000D01*
X110873000Y-102422000D01*
X110853000Y-102422000D01*
X110853000Y-102168000D01*
X110873000Y-102168000D01*
X110873000Y-102148000D01*
X111127000Y-102148000D01*
X111127000Y-102168000D01*
X112476250Y-102168000D01*
X112635000Y-102009250D01*
X112638072Y-101845000D01*
X112625812Y-101720518D01*
X112589502Y-101600820D01*
X112530537Y-101490506D01*
X112478419Y-101427000D01*
X123677906Y-101427000D01*
X123669928Y-101508000D01*
G37*
%TD.AperFunction*%
D24*
X117837877Y-105248010D02*
X117694283Y-105248010D01*
X117544168Y-105277869D01*
X117402763Y-105336441D01*
X117275502Y-105421474D01*
X117167275Y-105529701D01*
X117082242Y-105656962D01*
X117063724Y-105701668D01*
X117025807Y-105739585D01*
X116930044Y-105475186D01*
X116640429Y-105334296D01*
X116328892Y-105252616D01*
X116007405Y-105233282D01*
X115688325Y-105277039D01*
X115383912Y-105382205D01*
X115209956Y-105475186D01*
X115114192Y-105739587D01*
X116031577Y-106656972D01*
X116000000Y-106656928D01*
X115875518Y-106669188D01*
X115755820Y-106705498D01*
X115733059Y-106717664D01*
X114934587Y-105919192D01*
X114670186Y-106014956D01*
X114529296Y-106304571D01*
X114447616Y-106616108D01*
X114428282Y-106937595D01*
X114472039Y-107256675D01*
X114577205Y-107561088D01*
X114670186Y-107735044D01*
X114929277Y-107828885D01*
X114932892Y-107832500D01*
X114907732Y-107857660D01*
X114762237Y-107865575D01*
X114691438Y-108035603D01*
X114655172Y-108216176D01*
X114654829Y-108400355D01*
X114690426Y-108581061D01*
X114760592Y-108751351D01*
X114762237Y-108754425D01*
X114955459Y-108764936D01*
X115363401Y-108356994D01*
X115363899Y-108715706D01*
X115135064Y-108944541D01*
X115145575Y-109137763D01*
X115315603Y-109208562D01*
X115364596Y-109218402D01*
X115365000Y-109509250D01*
X115523750Y-109668000D01*
X118373000Y-109668000D01*
X118373000Y-109648000D01*
X118627000Y-109648000D01*
X118627000Y-109668000D01*
X121476250Y-109668000D01*
X121635000Y-109509250D01*
X121638072Y-107295000D01*
X121625812Y-107170518D01*
X121589502Y-107050820D01*
X121530537Y-106940506D01*
X121451185Y-106843815D01*
X121354494Y-106764463D01*
X121244180Y-106705498D01*
X121124482Y-106669188D01*
X121000000Y-106656928D01*
X119423123Y-106659116D01*
X119446982Y-106539163D01*
X119446982Y-106395570D01*
X119940553Y-105902000D01*
X121998000Y-105902000D01*
X121998001Y-107475347D01*
X121995573Y-107500000D01*
X122005265Y-107598409D01*
X122033970Y-107693036D01*
X122080584Y-107780245D01*
X122127601Y-107837535D01*
X122127604Y-107837538D01*
X122143317Y-107856684D01*
X122162463Y-107872397D01*
X123298000Y-109007936D01*
X123298001Y-109898000D01*
X122224642Y-109898000D01*
X122199999Y-109895573D01*
X122175356Y-109898000D01*
X122175347Y-109898000D01*
X122101591Y-109905264D01*
X122006964Y-109933969D01*
X121919755Y-109980583D01*
X121843316Y-110043316D01*
X121827603Y-110062462D01*
X121635242Y-110254824D01*
X121635000Y-110080750D01*
X121476250Y-109922000D01*
X118627000Y-109922000D01*
X118627000Y-109942000D01*
X118373000Y-109942000D01*
X118373000Y-109922000D01*
X115523750Y-109922000D01*
X115365000Y-110080750D01*
X115361928Y-112295000D01*
X115374188Y-112419482D01*
X115410498Y-112539180D01*
X115469463Y-112649494D01*
X115548815Y-112746185D01*
X115645506Y-112825537D01*
X115755820Y-112884502D01*
X115875518Y-112920812D01*
X116000000Y-112933072D01*
X117670400Y-112930755D01*
X117596464Y-113004691D01*
X117511431Y-113131952D01*
X117452859Y-113273357D01*
X117423000Y-113423472D01*
X117423000Y-113576528D01*
X117452859Y-113726643D01*
X117511431Y-113868048D01*
X117596464Y-113995309D01*
X117704691Y-114103536D01*
X117831952Y-114188569D01*
X117973357Y-114247141D01*
X118123472Y-114277000D01*
X118268071Y-114277000D01*
X118294841Y-114298970D01*
X118319754Y-114319416D01*
X118406963Y-114366030D01*
X118501590Y-114394735D01*
X118575346Y-114401999D01*
X118575355Y-114401999D01*
X118599998Y-114404426D01*
X118624641Y-114401999D01*
X121368677Y-114401999D01*
X121393320Y-114404426D01*
X121417963Y-114401999D01*
X121417973Y-114401999D01*
X121491729Y-114394735D01*
X121586356Y-114366030D01*
X121673565Y-114319416D01*
X121750004Y-114256683D01*
X121765721Y-114237532D01*
X122172977Y-113830277D01*
X122172977Y-114312866D01*
X121937834Y-114548009D01*
X118876279Y-114548009D01*
X118851636Y-114545582D01*
X118826993Y-114548009D01*
X118826984Y-114548009D01*
X118753228Y-114555273D01*
X118658601Y-114583978D01*
X118571392Y-114630592D01*
X118553131Y-114645579D01*
X118515810Y-114676208D01*
X118494953Y-114693325D01*
X118479240Y-114712471D01*
X117710593Y-115481119D01*
X117711718Y-115462405D01*
X117667961Y-115143325D01*
X117562795Y-114838912D01*
X117469814Y-114664956D01*
X117205413Y-114569192D01*
X116249605Y-115525000D01*
X116263748Y-115539143D01*
X116084143Y-115718748D01*
X116070000Y-115704605D01*
X116055858Y-115718748D01*
X115876253Y-115539143D01*
X115890395Y-115525000D01*
X115876253Y-115510858D01*
X116055858Y-115331253D01*
X116070000Y-115345395D01*
X117025808Y-114389587D01*
X116930044Y-114125186D01*
X116640429Y-113984296D01*
X116515706Y-113951596D01*
X116489574Y-113818939D01*
X116419408Y-113648649D01*
X116417763Y-113645575D01*
X116224541Y-113635064D01*
X115971383Y-113888222D01*
X115688325Y-113927039D01*
X115383912Y-114032205D01*
X115363507Y-114043112D01*
X114955459Y-113635064D01*
X114762237Y-113645575D01*
X114691438Y-113815603D01*
X114655172Y-113996176D01*
X114654829Y-114180355D01*
X114690426Y-114361061D01*
X114760592Y-114531351D01*
X114762237Y-114534425D01*
X114907732Y-114542340D01*
X114932892Y-114567500D01*
X114929277Y-114571115D01*
X114670186Y-114664956D01*
X114529296Y-114954571D01*
X114447616Y-115266108D01*
X114428282Y-115587595D01*
X114444932Y-115709011D01*
X114017012Y-115281092D01*
X114017012Y-114339657D01*
X114019439Y-114315012D01*
X114017012Y-114290366D01*
X114017012Y-114290359D01*
X114009748Y-114216603D01*
X114005194Y-114201591D01*
X113981043Y-114121975D01*
X113934429Y-114034766D01*
X113887412Y-113977476D01*
X113887404Y-113977468D01*
X113871696Y-113958328D01*
X113852555Y-113942619D01*
X113602000Y-113692065D01*
X113602000Y-113455459D01*
X115135064Y-113455459D01*
X115590000Y-113910395D01*
X116044936Y-113455459D01*
X116034425Y-113262237D01*
X115864397Y-113191438D01*
X115683824Y-113155172D01*
X115499645Y-113154829D01*
X115318939Y-113190426D01*
X115148649Y-113260592D01*
X115145575Y-113262237D01*
X115135064Y-113455459D01*
X113602000Y-113455459D01*
X113602000Y-108248347D01*
X113852555Y-107997793D01*
X113871696Y-107982084D01*
X113887404Y-107962944D01*
X113887412Y-107962936D01*
X113934429Y-107905646D01*
X113981043Y-107818437D01*
X114009748Y-107723810D01*
X114011407Y-107706964D01*
X114017012Y-107650053D01*
X114017012Y-107650046D01*
X114019439Y-107625400D01*
X114017012Y-107600755D01*
X114017012Y-105092922D01*
X114176141Y-104933794D01*
X118152092Y-104933794D01*
X117837877Y-105248010D01*
%TA.AperFunction,Conductor*%
D25*
G36*
X117837877Y-105248010D02*
G01*
X117694283Y-105248010D01*
X117544168Y-105277869D01*
X117402763Y-105336441D01*
X117275502Y-105421474D01*
X117167275Y-105529701D01*
X117082242Y-105656962D01*
X117063724Y-105701668D01*
X117025807Y-105739585D01*
X116930044Y-105475186D01*
X116640429Y-105334296D01*
X116328892Y-105252616D01*
X116007405Y-105233282D01*
X115688325Y-105277039D01*
X115383912Y-105382205D01*
X115209956Y-105475186D01*
X115114192Y-105739587D01*
X116031577Y-106656972D01*
X116000000Y-106656928D01*
X115875518Y-106669188D01*
X115755820Y-106705498D01*
X115733059Y-106717664D01*
X114934587Y-105919192D01*
X114670186Y-106014956D01*
X114529296Y-106304571D01*
X114447616Y-106616108D01*
X114428282Y-106937595D01*
X114472039Y-107256675D01*
X114577205Y-107561088D01*
X114670186Y-107735044D01*
X114929277Y-107828885D01*
X114932892Y-107832500D01*
X114907732Y-107857660D01*
X114762237Y-107865575D01*
X114691438Y-108035603D01*
X114655172Y-108216176D01*
X114654829Y-108400355D01*
X114690426Y-108581061D01*
X114760592Y-108751351D01*
X114762237Y-108754425D01*
X114955459Y-108764936D01*
X115363401Y-108356994D01*
X115363899Y-108715706D01*
X115135064Y-108944541D01*
X115145575Y-109137763D01*
X115315603Y-109208562D01*
X115364596Y-109218402D01*
X115365000Y-109509250D01*
X115523750Y-109668000D01*
X118373000Y-109668000D01*
X118373000Y-109648000D01*
X118627000Y-109648000D01*
X118627000Y-109668000D01*
X121476250Y-109668000D01*
X121635000Y-109509250D01*
X121638072Y-107295000D01*
X121625812Y-107170518D01*
X121589502Y-107050820D01*
X121530537Y-106940506D01*
X121451185Y-106843815D01*
X121354494Y-106764463D01*
X121244180Y-106705498D01*
X121124482Y-106669188D01*
X121000000Y-106656928D01*
X119423123Y-106659116D01*
X119446982Y-106539163D01*
X119446982Y-106395570D01*
X119940553Y-105902000D01*
X121998000Y-105902000D01*
X121998001Y-107475347D01*
X121995573Y-107500000D01*
X122005265Y-107598409D01*
X122033970Y-107693036D01*
X122080584Y-107780245D01*
X122127601Y-107837535D01*
X122127604Y-107837538D01*
X122143317Y-107856684D01*
X122162463Y-107872397D01*
X123298000Y-109007936D01*
X123298001Y-109898000D01*
X122224642Y-109898000D01*
X122199999Y-109895573D01*
X122175356Y-109898000D01*
X122175347Y-109898000D01*
X122101591Y-109905264D01*
X122006964Y-109933969D01*
X121919755Y-109980583D01*
X121843316Y-110043316D01*
X121827603Y-110062462D01*
X121635242Y-110254824D01*
X121635000Y-110080750D01*
X121476250Y-109922000D01*
X118627000Y-109922000D01*
X118627000Y-109942000D01*
X118373000Y-109942000D01*
X118373000Y-109922000D01*
X115523750Y-109922000D01*
X115365000Y-110080750D01*
X115361928Y-112295000D01*
X115374188Y-112419482D01*
X115410498Y-112539180D01*
X115469463Y-112649494D01*
X115548815Y-112746185D01*
X115645506Y-112825537D01*
X115755820Y-112884502D01*
X115875518Y-112920812D01*
X116000000Y-112933072D01*
X117670400Y-112930755D01*
X117596464Y-113004691D01*
X117511431Y-113131952D01*
X117452859Y-113273357D01*
X117423000Y-113423472D01*
X117423000Y-113576528D01*
X117452859Y-113726643D01*
X117511431Y-113868048D01*
X117596464Y-113995309D01*
X117704691Y-114103536D01*
X117831952Y-114188569D01*
X117973357Y-114247141D01*
X118123472Y-114277000D01*
X118268071Y-114277000D01*
X118294841Y-114298970D01*
X118319754Y-114319416D01*
X118406963Y-114366030D01*
X118501590Y-114394735D01*
X118575346Y-114401999D01*
X118575355Y-114401999D01*
X118599998Y-114404426D01*
X118624641Y-114401999D01*
X121368677Y-114401999D01*
X121393320Y-114404426D01*
X121417963Y-114401999D01*
X121417973Y-114401999D01*
X121491729Y-114394735D01*
X121586356Y-114366030D01*
X121673565Y-114319416D01*
X121750004Y-114256683D01*
X121765721Y-114237532D01*
X122172977Y-113830277D01*
X122172977Y-114312866D01*
X121937834Y-114548009D01*
X118876279Y-114548009D01*
X118851636Y-114545582D01*
X118826993Y-114548009D01*
X118826984Y-114548009D01*
X118753228Y-114555273D01*
X118658601Y-114583978D01*
X118571392Y-114630592D01*
X118553131Y-114645579D01*
X118515810Y-114676208D01*
X118494953Y-114693325D01*
X118479240Y-114712471D01*
X117710593Y-115481119D01*
X117711718Y-115462405D01*
X117667961Y-115143325D01*
X117562795Y-114838912D01*
X117469814Y-114664956D01*
X117205413Y-114569192D01*
X116249605Y-115525000D01*
X116263748Y-115539143D01*
X116084143Y-115718748D01*
X116070000Y-115704605D01*
X116055858Y-115718748D01*
X115876253Y-115539143D01*
X115890395Y-115525000D01*
X115876253Y-115510858D01*
X116055858Y-115331253D01*
X116070000Y-115345395D01*
X117025808Y-114389587D01*
X116930044Y-114125186D01*
X116640429Y-113984296D01*
X116515706Y-113951596D01*
X116489574Y-113818939D01*
X116419408Y-113648649D01*
X116417763Y-113645575D01*
X116224541Y-113635064D01*
X115971383Y-113888222D01*
X115688325Y-113927039D01*
X115383912Y-114032205D01*
X115363507Y-114043112D01*
X114955459Y-113635064D01*
X114762237Y-113645575D01*
X114691438Y-113815603D01*
X114655172Y-113996176D01*
X114654829Y-114180355D01*
X114690426Y-114361061D01*
X114760592Y-114531351D01*
X114762237Y-114534425D01*
X114907732Y-114542340D01*
X114932892Y-114567500D01*
X114929277Y-114571115D01*
X114670186Y-114664956D01*
X114529296Y-114954571D01*
X114447616Y-115266108D01*
X114428282Y-115587595D01*
X114444932Y-115709011D01*
X114017012Y-115281092D01*
X114017012Y-114339657D01*
X114019439Y-114315012D01*
X114017012Y-114290366D01*
X114017012Y-114290359D01*
X114009748Y-114216603D01*
X114005194Y-114201591D01*
X113981043Y-114121975D01*
X113934429Y-114034766D01*
X113887412Y-113977476D01*
X113887404Y-113977468D01*
X113871696Y-113958328D01*
X113852555Y-113942619D01*
X113602000Y-113692065D01*
X113602000Y-113455459D01*
X115135064Y-113455459D01*
X115590000Y-113910395D01*
X116044936Y-113455459D01*
X116034425Y-113262237D01*
X115864397Y-113191438D01*
X115683824Y-113155172D01*
X115499645Y-113154829D01*
X115318939Y-113190426D01*
X115148649Y-113260592D01*
X115145575Y-113262237D01*
X115135064Y-113455459D01*
X113602000Y-113455459D01*
X113602000Y-108248347D01*
X113852555Y-107997793D01*
X113871696Y-107982084D01*
X113887404Y-107962944D01*
X113887412Y-107962936D01*
X113934429Y-107905646D01*
X113981043Y-107818437D01*
X114009748Y-107723810D01*
X114011407Y-107706964D01*
X114017012Y-107650053D01*
X114017012Y-107650046D01*
X114019439Y-107625400D01*
X114017012Y-107600755D01*
X114017012Y-105092922D01*
X114176141Y-104933794D01*
X118152092Y-104933794D01*
X117837877Y-105248010D01*
G37*
%TD.AperFunction*%
%TD*%
M02*
