M48
; DRILL file {KiCad (6.0.2-0)} date Tuesday, 29 March 2022 at 11:32:48
; FORMAT={-:-/ absolute / inch / decimal}
; #@! TF.CreationDate,2022-03-29T11:32:48+01:00
; #@! TF.GenerationSoftware,Kicad,Pcbnew,(6.0.2-0)
; #@! TF.FileFunction,Plated,1,2,PTH
FMAT,2
INCH
; #@! TA.AperFunction,Plated,PTH,ViaDrill
T1C0.0157
; #@! TA.AperFunction,Plated,PTH,ComponentDrill
T2C0.0335
; #@! TA.AperFunction,Plated,PTH,ComponentDrill
T3C0.0394
%
G90
G05
T1
X6.3858Y-4.4409
X6.4025Y-4.5984
X6.4062Y-4.0485
X6.4075Y-4.1535
X6.4213Y-4.4843
X6.4282Y-4.0139
X6.4291Y-4.3937
X6.4685Y-4.3937
X6.5157Y-4.3936
X6.5157Y-4.4625
X6.5197Y-4.063
X6.5518Y-4.4898
X6.593Y-4.1467
X6.6337Y-4.1583
X6.6669Y-4.2901
X6.6753Y-4.2077
X6.6841Y-4.1653
X6.7411Y-4.1526
X6.752Y-4.0059
X6.752Y-4.0453
X6.8268Y-4.815
T2
X6.4508Y-4.7677
X6.5492Y-4.7677
X6.6476Y-4.7677
X6.7461Y-4.7677
T3
X6.4016Y-4.6654
X6.5016Y-4.6654
X6.6016Y-4.6654
X6.7016Y-4.6654
X6.8016Y-4.6654
T0
M30
