%TF.GenerationSoftware,KiCad,Pcbnew,(6.0.2-0)*%
%TF.CreationDate,2022-02-22T17:01:45+00:00*%
%TF.ProjectId,Keypad2,4b657970-6164-4322-9e6b-696361645f70,5*%
%TF.SameCoordinates,Original*%
%TF.FileFunction,Legend,Bot*%
%TF.FilePolarity,Positive*%
%FSLAX46Y46*%
G04 Gerber Fmt 4.6, Leading zero omitted, Abs format (unit mm)*
G04 Created by KiCad (PCBNEW (6.0.2-0)) date 2022-02-22 17:01:45*
%MOMM*%
%LPD*%
G01*
G04 APERTURE LIST*
%ADD10C,0.150000*%
%ADD11C,0.120000*%
G04 APERTURE END LIST*
D10*
X172457142Y-94647619D02*
X172409523Y-94600000D01*
X172314285Y-94552380D01*
X172076190Y-94552380D01*
X171980952Y-94600000D01*
X171933333Y-94647619D01*
X171885714Y-94742857D01*
X171885714Y-94838095D01*
X171933333Y-94980952D01*
X172504761Y-95552380D01*
X171885714Y-95552380D01*
X171266666Y-94552380D02*
X171171428Y-94552380D01*
X171076190Y-94600000D01*
X171028571Y-94647619D01*
X170980952Y-94742857D01*
X170933333Y-94933333D01*
X170933333Y-95171428D01*
X170980952Y-95361904D01*
X171028571Y-95457142D01*
X171076190Y-95504761D01*
X171171428Y-95552380D01*
X171266666Y-95552380D01*
X171361904Y-95504761D01*
X171409523Y-95457142D01*
X171457142Y-95361904D01*
X171504761Y-95171428D01*
X171504761Y-94933333D01*
X171457142Y-94742857D01*
X171409523Y-94647619D01*
X171361904Y-94600000D01*
X171266666Y-94552380D01*
X170552380Y-94647619D02*
X170504761Y-94600000D01*
X170409523Y-94552380D01*
X170171428Y-94552380D01*
X170076190Y-94600000D01*
X170028571Y-94647619D01*
X169980952Y-94742857D01*
X169980952Y-94838095D01*
X170028571Y-94980952D01*
X170600000Y-95552380D01*
X169980952Y-95552380D01*
X169600000Y-94647619D02*
X169552380Y-94600000D01*
X169457142Y-94552380D01*
X169219047Y-94552380D01*
X169123809Y-94600000D01*
X169076190Y-94647619D01*
X169028571Y-94742857D01*
X169028571Y-94838095D01*
X169076190Y-94980952D01*
X169647619Y-95552380D01*
X169028571Y-95552380D01*
X168600000Y-95171428D02*
X167838095Y-95171428D01*
X167171428Y-94552380D02*
X167076190Y-94552380D01*
X166980952Y-94600000D01*
X166933333Y-94647619D01*
X166885714Y-94742857D01*
X166838095Y-94933333D01*
X166838095Y-95171428D01*
X166885714Y-95361904D01*
X166933333Y-95457142D01*
X166980952Y-95504761D01*
X167076190Y-95552380D01*
X167171428Y-95552380D01*
X167266666Y-95504761D01*
X167314285Y-95457142D01*
X167361904Y-95361904D01*
X167409523Y-95171428D01*
X167409523Y-94933333D01*
X167361904Y-94742857D01*
X167314285Y-94647619D01*
X167266666Y-94600000D01*
X167171428Y-94552380D01*
X166457142Y-94647619D02*
X166409523Y-94600000D01*
X166314285Y-94552380D01*
X166076190Y-94552380D01*
X165980952Y-94600000D01*
X165933333Y-94647619D01*
X165885714Y-94742857D01*
X165885714Y-94838095D01*
X165933333Y-94980952D01*
X166504761Y-95552380D01*
X165885714Y-95552380D01*
X165457142Y-95171428D02*
X164695238Y-95171428D01*
X164266666Y-94647619D02*
X164219047Y-94600000D01*
X164123809Y-94552380D01*
X163885714Y-94552380D01*
X163790476Y-94600000D01*
X163742857Y-94647619D01*
X163695238Y-94742857D01*
X163695238Y-94838095D01*
X163742857Y-94980952D01*
X164314285Y-95552380D01*
X163695238Y-95552380D01*
X163314285Y-94647619D02*
X163266666Y-94600000D01*
X163171428Y-94552380D01*
X162933333Y-94552380D01*
X162838095Y-94600000D01*
X162790476Y-94647619D01*
X162742857Y-94742857D01*
X162742857Y-94838095D01*
X162790476Y-94980952D01*
X163361904Y-95552380D01*
X162742857Y-95552380D01*
D11*
%TO.C,J2*%
X163870000Y-120030000D02*
X174090000Y-120030000D01*
X162600000Y-117370000D02*
X161270000Y-117370000D01*
X161270000Y-117370000D02*
X161270000Y-118700000D01*
X163870000Y-117370000D02*
X163870000Y-120030000D01*
X163870000Y-117370000D02*
X174090000Y-117370000D01*
X174090000Y-117370000D02*
X174090000Y-120030000D01*
%TD*%
M02*
