%TF.GenerationSoftware,KiCad,Pcbnew,(6.0.0-0)*%
%TF.CreationDate,2021-12-30T08:02:44+00:00*%
%TF.ProjectId,Keypad,4b657970-6164-42e6-9b69-6361645f7063,5*%
%TF.SameCoordinates,Original*%
%TF.FileFunction,Copper,L2,Bot*%
%TF.FilePolarity,Positive*%
%FSLAX46Y46*%
G04 Gerber Fmt 4.6, Leading zero omitted, Abs format (unit mm)*
G04 Created by KiCad (PCBNEW (6.0.0-0)) date 2021-12-30 08:02:44*
%MOMM*%
%LPD*%
G01*
G04 APERTURE LIST*
G04 Aperture macros list*
%AMRoundRect*
0 Rectangle with rounded corners*
0 $1 Rounding radius*
0 $2 $3 $4 $5 $6 $7 $8 $9 X,Y pos of 4 corners*
0 Add a 4 corners polygon primitive as box body*
4,1,4,$2,$3,$4,$5,$6,$7,$8,$9,$2,$3,0*
0 Add four circle primitives for the rounded corners*
1,1,$1+$1,$2,$3*
1,1,$1+$1,$4,$5*
1,1,$1+$1,$6,$7*
1,1,$1+$1,$8,$9*
0 Add four rect primitives between the rounded corners*
20,1,$1+$1,$2,$3,$4,$5,0*
20,1,$1+$1,$4,$5,$6,$7,0*
20,1,$1+$1,$6,$7,$8,$9,0*
20,1,$1+$1,$8,$9,$2,$3,0*%
%AMFreePoly0*
4,1,230,0.030956,0.095067,0.156976,0.095067,0.468453,0.055718,0.772542,-0.022359,1.064448,-0.137932,1.339567,-0.289180,1.593560,-0.473717,1.822422,-0.688632,2.022542,-0.930537,2.190767,-1.195616,2.324441,-1.479689,2.421458,-1.778275,2.480287,-2.086667,2.500000,-2.400000,2.480287,-2.713333,2.421458,-3.021725,2.324441,-3.320311,2.190767,-3.604384,2.022542,-3.869463,1.822422,-4.111368,
1.593560,-4.326283,1.339567,-4.510820,1.064448,-4.662068,0.772542,-4.777641,0.468453,-4.855718,0.156976,-4.895067,-0.156976,-4.895067,-0.468453,-4.855718,-0.772542,-4.777641,-1.064448,-4.662068,-1.339567,-4.510820,-1.593560,-4.326283,-1.822422,-4.111368,-2.022542,-3.869463,-2.190767,-3.604384,-2.324441,-3.320311,-2.421458,-3.021725,-2.480287,-2.713333,-2.483001,-2.670187,-2.287226,-2.670187,
-2.285216,-2.700854,-2.226396,-2.996561,-2.129482,-3.282060,-1.996132,-3.552467,-1.828628,-3.803156,-1.629835,-4.029835,-1.403156,-4.228628,-1.152468,-4.396132,-0.882060,-4.529482,-0.596561,-4.626396,-0.300854,-4.685216,0.000000,-4.704935,0.300854,-4.685216,0.596561,-4.626396,0.882060,-4.529482,1.152468,-4.396132,1.403156,-4.228628,1.629835,-4.029835,1.828628,-3.803156,1.996132,-3.552467,
2.129482,-3.282060,2.226396,-2.996561,2.285216,-2.700854,2.286239,-2.685241,2.227739,-2.857579,2.127142,-3.037207,1.995495,-3.195495,1.837207,-3.327142,1.657579,-3.427739,1.462626,-3.493916,1.258878,-3.523458,1.053158,-3.515375,0.852356,-3.469939,0.663196,-3.388669,0.492015,-3.274289,0.450000,-3.233360,0.450000,-3.500000,0.075000,-3.500000,0.075000,-2.437112,0.450000,-2.437112,
0.461747,-2.556921,0.514859,-2.716580,0.602023,-2.860505,0.718907,-2.981542,0.859702,-3.073676,1.017410,-3.132327,1.184194,-3.154580,1.351763,-3.139331,1.511789,-3.087335,1.656319,-3.001178,1.778169,-2.885141,1.871283,-2.744993,1.931034,-2.587698,1.954452,-2.421074,1.954746,-2.400000,1.935990,-2.232787,1.880654,-2.073885,1.791490,-1.931191,1.672927,-1.811798,1.530859,-1.721639,
1.372347,-1.665195,1.205269,-1.645272,1.037929,-1.662861,0.878645,-1.717085,0.735332,-1.805252,0.615114,-1.922978,0.523965,-2.064413,0.466416,-2.222527,0.450000,-2.352478,0.450000,-2.437112,0.075000,-2.437112,0.075000,-1.300000,0.450000,-1.475000,0.450000,-1.567680,0.538742,-1.489856,0.715675,-1.384592,0.908829,-1.313333,1.111734,-1.278468,1.317595,-1.281163,1.519517,-1.321328,
1.710739,-1.397618,1.884857,-1.507477,2.036038,-1.647228,2.159220,-1.812189,2.250278,-1.996836,2.287058,-2.127247,2.285216,-2.099146,2.226396,-1.803439,2.129482,-1.517940,1.996132,-1.247533,1.828628,-0.996844,1.629835,-0.770165,1.403156,-0.571372,1.152468,-0.403868,0.882060,-0.270518,0.596561,-0.173604,0.300854,-0.114784,0.000626,-0.095106,-0.000626,-0.095106,-0.300854,-0.114784,
-0.596561,-0.173604,-0.882060,-0.270518,-1.152467,-0.403868,-1.403156,-0.571372,-1.629835,-0.770165,-1.828628,-0.996844,-1.996132,-1.247533,-2.129482,-1.517940,-2.226396,-1.803439,-2.285216,-2.099146,-2.286712,-2.121964,-2.239364,-1.969481,-2.143504,-1.787281,-2.016046,-1.625601,-1.861258,-1.489856,-1.684325,-1.384592,-1.491171,-1.313333,-1.288266,-1.278468,-1.082405,-1.281163,-0.880483,-1.321328,
-0.689261,-1.397618,-0.515143,-1.507477,-0.450000,-1.567695,-0.450000,-1.475000,-0.075000,-1.300000,-0.075000,-3.500000,-0.450000,-3.500000,-0.450000,-3.233333,-0.562793,-3.327142,-0.742421,-3.427739,-0.937374,-3.493916,-1.141122,-3.523458,-1.346842,-3.515375,-1.547644,-3.469939,-1.736804,-3.388669,-1.907985,-3.274289,-2.055457,-3.130629,-2.174279,-2.962500,-2.260472,-2.775533,-2.287226,-2.670187,
-2.483001,-2.670187,-2.500000,-2.400000,-2.499337,-2.389462,-1.954672,-2.389462,-1.938253,-2.556921,-1.885141,-2.716580,-1.797977,-2.860505,-1.681093,-2.981542,-1.540298,-3.073676,-1.382590,-3.132327,-1.215806,-3.154580,-1.048237,-3.139331,-0.888211,-3.087335,-0.743681,-3.001178,-0.621831,-2.885141,-0.528717,-2.744993,-0.468966,-2.587698,-0.450000,-2.452751,-0.450000,-2.357689,-0.464010,-2.232787,
-0.519346,-2.073885,-0.608510,-1.931191,-0.727073,-1.811798,-0.869141,-1.721639,-1.027653,-1.665195,-1.194731,-1.645272,-1.362071,-1.662861,-1.521355,-1.717085,-1.664668,-1.805252,-1.784886,-1.922978,-1.876035,-2.064413,-1.933584,-2.222527,-1.954672,-2.389462,-2.499337,-2.389462,-2.480287,-2.086667,-2.421458,-1.778275,-2.324441,-1.479689,-2.190767,-1.195616,-2.022542,-0.930537,-1.822422,-0.688632,
-1.593560,-0.473717,-1.339567,-0.289180,-1.064448,-0.137932,-0.772542,-0.022359,-0.468453,0.055718,-0.156976,0.095067,-0.030956,0.095067,-0.030902,0.095106,0.030902,0.095106,0.030956,0.095067,0.030956,0.095067,$1*%
G04 Aperture macros list end*
%TA.AperFunction,SMDPad,CuDef*%
%ADD10R,2.000000X0.900000*%
%TD*%
%TA.AperFunction,SMDPad,CuDef*%
%ADD11R,0.900000X2.000000*%
%TD*%
%TA.AperFunction,SMDPad,CuDef*%
%ADD12R,5.000000X5.000000*%
%TD*%
%TA.AperFunction,ComponentPad*%
%ADD13C,0.350000*%
%TD*%
%TA.AperFunction,SMDPad,CuDef*%
%ADD14FreePoly0,180.000000*%
%TD*%
%TA.AperFunction,ComponentPad*%
%ADD15C,0.600000*%
%TD*%
%TA.AperFunction,ComponentPad*%
%ADD16C,1.500000*%
%TD*%
%TA.AperFunction,ComponentPad*%
%ADD17C,1.250000*%
%TD*%
%TA.AperFunction,ComponentPad*%
%ADD18RoundRect,0.250000X-0.600000X-0.675000X0.600000X-0.675000X0.600000X0.675000X-0.600000X0.675000X0*%
%TD*%
%TA.AperFunction,ComponentPad*%
%ADD19O,1.700000X1.850000*%
%TD*%
%TA.AperFunction,ComponentPad*%
%ADD20R,1.700000X1.700000*%
%TD*%
%TA.AperFunction,ComponentPad*%
%ADD21O,1.700000X1.700000*%
%TD*%
%TA.AperFunction,ViaPad*%
%ADD22C,0.800000*%
%TD*%
%TA.AperFunction,Conductor*%
%ADD23C,0.250000*%
%TD*%
%TA.AperFunction,Conductor*%
%ADD24C,0.500000*%
%TD*%
G04 APERTURE END LIST*
D10*
%TO.P,U1,1*%
%TO.N,GND*%
X137900000Y-95895000D03*
%TO.P,U1,2*%
%TO.N,+3V3*%
X137900000Y-97165000D03*
%TO.P,U1,3*%
%TO.N,EN*%
X137900000Y-98435000D03*
%TO.P,U1,4*%
%TO.N,Net-(U1-Pad4)*%
X137900000Y-99705000D03*
%TO.P,U1,5*%
%TO.N,Net-(U1-Pad5)*%
X137900000Y-100975000D03*
%TO.P,U1,6*%
%TO.N,GND*%
X137900000Y-102245000D03*
%TO.P,U1,7*%
X137900000Y-103515000D03*
%TO.P,U1,8*%
%TO.N,R*%
X137900000Y-104785000D03*
%TO.P,U1,9*%
%TO.N,B*%
X137900000Y-106055000D03*
%TO.P,U1,10*%
%TO.N,Net-(U1-Pad10)*%
X137900000Y-107325000D03*
%TO.P,U1,11*%
%TO.N,G*%
X137900000Y-108595000D03*
%TO.P,U1,12*%
%TO.N,RX*%
X137900000Y-109865000D03*
%TO.P,U1,13*%
%TO.N,GND*%
X137900000Y-111135000D03*
%TO.P,U1,14*%
X137900000Y-112405000D03*
D11*
%TO.P,U1,15*%
X135115000Y-113405000D03*
%TO.P,U1,16*%
%TO.N,DE*%
X133845000Y-113405000D03*
%TO.P,U1,17*%
%TO.N,Net-(U1-Pad17)*%
X132575000Y-113405000D03*
%TO.P,U1,18*%
%TO.N,Net-(U1-Pad18)*%
X131305000Y-113405000D03*
%TO.P,U1,19*%
%TO.N,Net-(U1-Pad19)*%
X130035000Y-113405000D03*
%TO.P,U1,20*%
%TO.N,Net-(U1-Pad20)*%
X128765000Y-113405000D03*
%TO.P,U1,21*%
%TO.N,Net-(U1-Pad21)*%
X127495000Y-113405000D03*
%TO.P,U1,22*%
%TO.N,Net-(U1-Pad22)*%
X126225000Y-113405000D03*
%TO.P,U1,23*%
%TO.N,TX*%
X124955000Y-113405000D03*
%TO.P,U1,24*%
%TO.N,Net-(U1-Pad24)*%
X123685000Y-113405000D03*
D10*
%TO.P,U1,25*%
%TO.N,BOOT*%
X120900000Y-112405000D03*
%TO.P,U1,26*%
%TO.N,Net-(U1-Pad26)*%
X120900000Y-111135000D03*
%TO.P,U1,27*%
%TO.N,Net-(U1-Pad27)*%
X120900000Y-109865000D03*
%TO.P,U1,28*%
%TO.N,Net-(U1-Pad28)*%
X120900000Y-108595000D03*
%TO.P,U1,29*%
%TO.N,Net-(U1-Pad29)*%
X120900000Y-107325000D03*
%TO.P,U1,30*%
%TO.N,Net-(U1-Pad30)*%
X120900000Y-106055000D03*
%TO.P,U1,31*%
%TO.N,Net-(U1-Pad31)*%
X120900000Y-104785000D03*
%TO.P,U1,32*%
%TO.N,Net-(U1-Pad32)*%
X120900000Y-103515000D03*
%TO.P,U1,33*%
%TO.N,Net-(U1-Pad33)*%
X120900000Y-102245000D03*
%TO.P,U1,34*%
%TO.N,I*%
X120900000Y-100975000D03*
%TO.P,U1,35*%
%TO.N,O*%
X120900000Y-99705000D03*
%TO.P,U1,36*%
%TO.N,Net-(U1-Pad36)*%
X120900000Y-98435000D03*
%TO.P,U1,37*%
%TO.N,Net-(U1-Pad37)*%
X120900000Y-97165000D03*
%TO.P,U1,38*%
%TO.N,GND*%
X120900000Y-95895000D03*
D12*
%TO.P,U1,39*%
X130400000Y-103395000D03*
%TD*%
D13*
%TO.P,U3,21*%
%TO.N,GND*%
X124800000Y-103550000D03*
%TD*%
D14*
%TO.P,Logo1,1*%
%TO.N,N/C*%
X135000000Y-122000000D03*
%TD*%
D15*
%TO.P,J3,S1*%
%TO.N,GND*%
X133110000Y-109990000D03*
X133110000Y-104210000D03*
D16*
X132620000Y-111420000D03*
X132620000Y-102780000D03*
D17*
X136790000Y-111420000D03*
X136790000Y-102780000D03*
%TD*%
D18*
%TO.P,J1,1*%
%TO.N,GND*%
X122350000Y-117000000D03*
D19*
%TO.P,J1,2*%
%TO.N,+12V*%
X124850000Y-117000000D03*
%TO.P,J1,3*%
%TO.N,Net-(J1-Pad3)*%
X127350000Y-117000000D03*
%TO.P,J1,4*%
%TO.N,Net-(J1-Pad4)*%
X129850000Y-117000000D03*
%TD*%
D20*
%TO.P,J2,1*%
%TO.N,GND*%
X121700000Y-121800000D03*
D21*
%TO.P,J2,2*%
%TO.N,+12V*%
X124240000Y-121800000D03*
%TO.P,J2,3*%
%TO.N,Net-(J1-Pad3)*%
X126780000Y-121800000D03*
%TO.P,J2,4*%
%TO.N,Net-(J1-Pad4)*%
X129320000Y-121800000D03*
%TD*%
D22*
%TO.N,+3V3*%
X122599502Y-105230000D03*
%TO.N,O*%
X123120000Y-106087998D03*
%TO.N,GND*%
X126300000Y-110450000D03*
X131750000Y-121750000D03*
X129000000Y-111450000D03*
X131950000Y-98750000D03*
X130350000Y-100650000D03*
X122750000Y-97550000D03*
%TO.N,D-*%
X129200000Y-108350000D03*
X129275001Y-106592799D03*
X127118148Y-101500010D03*
%TO.N,+3V3*%
X134950000Y-96574990D03*
X124417918Y-100620352D03*
%TO.N,I*%
X123210852Y-100802099D03*
%TO.N,EN*%
X122722169Y-98979990D03*
%TO.N,BOOT*%
X123877326Y-98979990D03*
%TO.N,G*%
X135127796Y-98825010D03*
%TO.N,R*%
X135051723Y-100951723D03*
%TO.N,B*%
X135114063Y-99864063D03*
%TO.N,TX*%
X131900000Y-117000000D03*
%TO.N,RX*%
X137200000Y-114000000D03*
%TO.N,DE*%
X136100000Y-115000000D03*
%TD*%
D23*
%TO.N,+3V3*%
X124417918Y-100620352D02*
X122500000Y-102538270D01*
X122500000Y-102538270D02*
X122500000Y-105130498D01*
X122500000Y-105130498D02*
X122599502Y-105230000D01*
%TO.N,O*%
X123324003Y-105883995D02*
X123120000Y-106087998D01*
X123324003Y-102739587D02*
X123324003Y-105883995D01*
X125263599Y-100436420D02*
X125263599Y-100799991D01*
X124532179Y-99705000D02*
X125263599Y-100436420D01*
X120900000Y-99705000D02*
X124532179Y-99705000D01*
X125263599Y-100799991D02*
X123324003Y-102739587D01*
%TO.N,BOOT*%
X120900000Y-112405000D02*
X122150000Y-112405000D01*
X123860000Y-106372598D02*
X123860000Y-102870000D01*
X122150000Y-112405000D02*
X122327500Y-112227500D01*
X122327500Y-112227500D02*
X122327500Y-107522500D01*
X122327500Y-107522500D02*
X123037501Y-106812499D01*
X125750000Y-100163589D02*
X124566401Y-98979990D01*
X124566401Y-98979990D02*
X123877326Y-98979990D01*
X123037501Y-106812499D02*
X123420099Y-106812499D01*
X123420099Y-106812499D02*
X123860000Y-106372598D01*
X123860000Y-102870000D02*
X125750000Y-100980000D01*
X125750000Y-100980000D02*
X125750000Y-100163589D01*
%TO.N,GND*%
X137615000Y-111420000D02*
X137900000Y-111135000D01*
X136790000Y-111420000D02*
X137615000Y-111420000D01*
X137775000Y-112405000D02*
X136790000Y-111420000D01*
X137900000Y-112405000D02*
X137775000Y-112405000D01*
X137325000Y-102245000D02*
X136790000Y-102780000D01*
X137900000Y-102245000D02*
X137325000Y-102245000D01*
X137525000Y-103515000D02*
X136790000Y-102780000D01*
X137900000Y-103515000D02*
X137525000Y-103515000D01*
X131650000Y-110450000D02*
X132620000Y-111420000D01*
X126300000Y-110450000D02*
X131650000Y-110450000D01*
X136790000Y-102780000D02*
X135900000Y-101890000D01*
X122750000Y-96979998D02*
X122750000Y-97550000D01*
X121665002Y-95895000D02*
X122750000Y-96979998D01*
X120900000Y-95895000D02*
X121665002Y-95895000D01*
%TO.N,D-*%
X129200000Y-108350000D02*
X129200000Y-106667800D01*
X129200000Y-106667800D02*
X129275001Y-106592799D01*
X127118148Y-105698150D02*
X127118148Y-101500010D01*
X129275001Y-106592799D02*
X128012797Y-106592799D01*
X128012797Y-106592799D02*
X127118148Y-105698150D01*
%TO.N,+3V3*%
X136501410Y-97165000D02*
X135911400Y-96574990D01*
X135911400Y-96574990D02*
X134950000Y-96574990D01*
X137900000Y-97165000D02*
X136501410Y-97165000D01*
%TO.N,I*%
X120900000Y-100975000D02*
X123037951Y-100975000D01*
X123037951Y-100975000D02*
X123210852Y-100802099D01*
%TO.N,EN*%
X124477810Y-98254988D02*
X123447171Y-98254988D01*
X136300000Y-98100000D02*
X134200000Y-98100000D01*
X137900000Y-98435000D02*
X136635000Y-98435000D01*
X134200000Y-98100000D02*
X132400000Y-99900000D01*
X123447171Y-98254988D02*
X122722169Y-98979990D01*
X136635000Y-98435000D02*
X136300000Y-98100000D01*
X126122822Y-99900000D02*
X124477810Y-98254988D01*
X132400000Y-99900000D02*
X126122822Y-99900000D01*
%TO.N,Net-(J1-Pad4)*%
X129850000Y-121270000D02*
X129320000Y-121800000D01*
X129850000Y-117000000D02*
X129850000Y-121270000D01*
%TO.N,Net-(J1-Pad3)*%
X127350000Y-121230000D02*
X126780000Y-121800000D01*
X127350000Y-117000000D02*
X127350000Y-121230000D01*
D24*
%TO.N,+12V*%
X124850000Y-121190000D02*
X124240000Y-121800000D01*
X124850000Y-117000000D02*
X124850000Y-121190000D01*
D23*
%TO.N,G*%
X133695001Y-100257805D02*
X135127796Y-98825010D01*
X133695001Y-103395001D02*
X133695001Y-100257805D01*
X136574999Y-106274999D02*
X133695001Y-103395001D01*
X137900000Y-108595000D02*
X136650000Y-108595000D01*
X136650000Y-108595000D02*
X136574999Y-108519999D01*
X136574999Y-108519999D02*
X136574999Y-106274999D01*
%TO.N,R*%
X136650000Y-104785000D02*
X137900000Y-104785000D01*
X134600000Y-102735000D02*
X136650000Y-104785000D01*
X134600000Y-101300000D02*
X134600000Y-102735000D01*
X134948277Y-100951723D02*
X134600000Y-101300000D01*
X135051723Y-100951723D02*
X134948277Y-100951723D01*
%TO.N,B*%
X134145012Y-100833114D02*
X135114063Y-99864063D01*
X137900000Y-106055000D02*
X137055000Y-106055000D01*
X134145012Y-103145012D02*
X134145012Y-100833114D01*
X137055000Y-106055000D02*
X134145012Y-103145012D01*
%TO.N,TX*%
X125030001Y-114730001D02*
X129630001Y-114730001D01*
X124955000Y-114655000D02*
X125030001Y-114730001D01*
X129630001Y-114730001D02*
X131900000Y-117000000D01*
X124955000Y-113405000D02*
X124955000Y-114655000D01*
%TO.N,RX*%
X136574999Y-113374999D02*
X137200000Y-114000000D01*
X136574999Y-112611001D02*
X136574999Y-113374999D01*
X135839999Y-111876001D02*
X136574999Y-112611001D01*
X135839999Y-110675001D02*
X135839999Y-111876001D01*
X136650000Y-109865000D02*
X135839999Y-110675001D01*
X137900000Y-109865000D02*
X136650000Y-109865000D01*
%TO.N,DE*%
X134190000Y-115000000D02*
X133845000Y-114655000D01*
X133845000Y-114655000D02*
X133845000Y-113405000D01*
X136100000Y-115000000D02*
X134190000Y-115000000D01*
%TD*%
%TA.AperFunction,Conductor*%
%TO.N,GND*%
G36*
X134413790Y-98521413D02*
G01*
X134470626Y-98563960D01*
X134495437Y-98630480D01*
X134492595Y-98661982D01*
X134493105Y-98662049D01*
X134473561Y-98810500D01*
X134472554Y-98818148D01*
X134476136Y-98850592D01*
X134478946Y-98876045D01*
X134466540Y-98945950D01*
X134442802Y-98978967D01*
X133467312Y-99954457D01*
X133449081Y-99969182D01*
X133447541Y-99970583D01*
X133438791Y-99976233D01*
X133432344Y-99984411D01*
X133418265Y-100002270D01*
X133414384Y-100006637D01*
X133414462Y-100006703D01*
X133411108Y-100010661D01*
X133407426Y-100014343D01*
X133396340Y-100029857D01*
X133392789Y-100034586D01*
X133361398Y-100074405D01*
X133358396Y-100082954D01*
X133353129Y-100090324D01*
X133350145Y-100100303D01*
X133338609Y-100138875D01*
X133336775Y-100144519D01*
X133322605Y-100184870D01*
X133322604Y-100184876D01*
X133319978Y-100192353D01*
X133319501Y-100197860D01*
X133319501Y-100200567D01*
X133319390Y-100203140D01*
X133319342Y-100203299D01*
X133319198Y-100203293D01*
X133319159Y-100203913D01*
X133317311Y-100210092D01*
X133318987Y-100252740D01*
X133319404Y-100263360D01*
X133319501Y-100268307D01*
X133319501Y-101520353D01*
X133299499Y-101588474D01*
X133245843Y-101634967D01*
X133175569Y-101645071D01*
X133140250Y-101634547D01*
X133056892Y-101595676D01*
X133046595Y-101591928D01*
X132844599Y-101537804D01*
X132833804Y-101535901D01*
X132625475Y-101517674D01*
X132614525Y-101517674D01*
X132406196Y-101535901D01*
X132395401Y-101537804D01*
X132193405Y-101591928D01*
X132183113Y-101595674D01*
X131993583Y-101684054D01*
X131984093Y-101689534D01*
X131942851Y-101718411D01*
X131934477Y-101728886D01*
X131941545Y-101742333D01*
X132890116Y-102690905D01*
X132924141Y-102753217D01*
X132919076Y-102824033D01*
X132890115Y-102869095D01*
X132620000Y-103139210D01*
X131940824Y-103818387D01*
X131934394Y-103830162D01*
X131943690Y-103842176D01*
X131984088Y-103870464D01*
X131993584Y-103875947D01*
X132183113Y-103964326D01*
X132193405Y-103968072D01*
X132395401Y-104022196D01*
X132406196Y-104024099D01*
X132614525Y-104042326D01*
X132625475Y-104042326D01*
X132833804Y-104024099D01*
X132844599Y-104022196D01*
X133046595Y-103968072D01*
X133056887Y-103964326D01*
X133246416Y-103875947D01*
X133255911Y-103870464D01*
X133394875Y-103773160D01*
X133462149Y-103750472D01*
X133531009Y-103767757D01*
X133556241Y-103787278D01*
X136162594Y-106393631D01*
X136196620Y-106455943D01*
X136199499Y-106482726D01*
X136199499Y-108466503D01*
X136197020Y-108489800D01*
X136196922Y-108491885D01*
X136194730Y-108502065D01*
X136195954Y-108512404D01*
X136198626Y-108534983D01*
X136198970Y-108540820D01*
X136199071Y-108540812D01*
X136199499Y-108545991D01*
X136199499Y-108551192D01*
X136200353Y-108556320D01*
X136200353Y-108556326D01*
X136202627Y-108569986D01*
X136203464Y-108575862D01*
X136209423Y-108626209D01*
X136213345Y-108634376D01*
X136214832Y-108643312D01*
X136219776Y-108652474D01*
X136219777Y-108652478D01*
X136238905Y-108687928D01*
X136241601Y-108693219D01*
X136263536Y-108738899D01*
X136267093Y-108743130D01*
X136269025Y-108745062D01*
X136270744Y-108746936D01*
X136270818Y-108747073D01*
X136270708Y-108747173D01*
X136271131Y-108747653D01*
X136274193Y-108753328D01*
X136281840Y-108760397D01*
X136281841Y-108760398D01*
X136313366Y-108789539D01*
X136316932Y-108792969D01*
X136346652Y-108822689D01*
X136361377Y-108840920D01*
X136362778Y-108842460D01*
X136368428Y-108851210D01*
X136376606Y-108857657D01*
X136394465Y-108871736D01*
X136398832Y-108875617D01*
X136398898Y-108875539D01*
X136402856Y-108878893D01*
X136406538Y-108882575D01*
X136410769Y-108885598D01*
X136410772Y-108885601D01*
X136413792Y-108887759D01*
X136422052Y-108893661D01*
X136426781Y-108897212D01*
X136466600Y-108928603D01*
X136475149Y-108931605D01*
X136482519Y-108936872D01*
X136531078Y-108951394D01*
X136536701Y-108953221D01*
X136553905Y-108959262D01*
X136566522Y-108963693D01*
X136624166Y-109005138D01*
X136649500Y-109068565D01*
X136649500Y-109069674D01*
X136664034Y-109142740D01*
X136670930Y-109153060D01*
X136670930Y-109153061D01*
X136675565Y-109159999D01*
X136696780Y-109227752D01*
X136675565Y-109300001D01*
X136670930Y-109306939D01*
X136664034Y-109317260D01*
X136649500Y-109390326D01*
X136649354Y-109390297D01*
X136623777Y-109453643D01*
X136560122Y-109496459D01*
X136554130Y-109498200D01*
X136543790Y-109499424D01*
X136535623Y-109503346D01*
X136526687Y-109504833D01*
X136517525Y-109509777D01*
X136517521Y-109509778D01*
X136482071Y-109528906D01*
X136476780Y-109531602D01*
X136438251Y-109550103D01*
X136431100Y-109553537D01*
X136426869Y-109557094D01*
X136424937Y-109559026D01*
X136423063Y-109560745D01*
X136422926Y-109560819D01*
X136422826Y-109560709D01*
X136422346Y-109561132D01*
X136416671Y-109564194D01*
X136409602Y-109571841D01*
X136409601Y-109571842D01*
X136380460Y-109603367D01*
X136377030Y-109606933D01*
X135612310Y-110371653D01*
X135594079Y-110386378D01*
X135592539Y-110387779D01*
X135583789Y-110393429D01*
X135577342Y-110401607D01*
X135563263Y-110419466D01*
X135559382Y-110423833D01*
X135559460Y-110423899D01*
X135556106Y-110427857D01*
X135552424Y-110431539D01*
X135541338Y-110447053D01*
X135537787Y-110451782D01*
X135506396Y-110491601D01*
X135503394Y-110500150D01*
X135498127Y-110507520D01*
X135495143Y-110517499D01*
X135483607Y-110556071D01*
X135481773Y-110561715D01*
X135467603Y-110602066D01*
X135467602Y-110602072D01*
X135464976Y-110609549D01*
X135464499Y-110615056D01*
X135464499Y-110617763D01*
X135464388Y-110620336D01*
X135464340Y-110620495D01*
X135464196Y-110620489D01*
X135464157Y-110621109D01*
X135462309Y-110627288D01*
X135462718Y-110637693D01*
X135464402Y-110680556D01*
X135464499Y-110685503D01*
X135464499Y-111779956D01*
X135444497Y-111848077D01*
X135390841Y-111894570D01*
X135373997Y-111900852D01*
X135371876Y-111901475D01*
X135370671Y-111902865D01*
X135369000Y-111910548D01*
X135369000Y-113533000D01*
X135348998Y-113601121D01*
X135295342Y-113647614D01*
X135243000Y-113659000D01*
X134987000Y-113659000D01*
X134918879Y-113638998D01*
X134872386Y-113585342D01*
X134861000Y-113533000D01*
X134861000Y-111915116D01*
X134856525Y-111899877D01*
X134855135Y-111898672D01*
X134847452Y-111897001D01*
X134620331Y-111897001D01*
X134613510Y-111897371D01*
X134562648Y-111902895D01*
X134547396Y-111906521D01*
X134426946Y-111951676D01*
X134411351Y-111960214D01*
X134309276Y-112036715D01*
X134296715Y-112049276D01*
X134255653Y-112104065D01*
X134198794Y-112146580D01*
X134154827Y-112154500D01*
X133863327Y-112154500D01*
X133795206Y-112134498D01*
X133748713Y-112080842D01*
X133738609Y-112010568D01*
X133749132Y-111975250D01*
X133804326Y-111856887D01*
X133808072Y-111846595D01*
X133862196Y-111644599D01*
X133864099Y-111633804D01*
X133882326Y-111425475D01*
X133882326Y-111414525D01*
X133864099Y-111206196D01*
X133862196Y-111195401D01*
X133808072Y-110993405D01*
X133804326Y-110983113D01*
X133715946Y-110793583D01*
X133710466Y-110784093D01*
X133681589Y-110742851D01*
X133671113Y-110734477D01*
X133657666Y-110741545D01*
X132979210Y-111420000D01*
X132709095Y-111690116D01*
X132646783Y-111724141D01*
X132575967Y-111719076D01*
X132530905Y-111690115D01*
X132260790Y-111420000D01*
X131581613Y-110740824D01*
X131569839Y-110734394D01*
X131557824Y-110743690D01*
X131529534Y-110784093D01*
X131524054Y-110793583D01*
X131435674Y-110983113D01*
X131431928Y-110993405D01*
X131377804Y-111195401D01*
X131375901Y-111206196D01*
X131357674Y-111414525D01*
X131357674Y-111425475D01*
X131375901Y-111633804D01*
X131377804Y-111644599D01*
X131431928Y-111846595D01*
X131435674Y-111856887D01*
X131490868Y-111975250D01*
X131501529Y-112045441D01*
X131472549Y-112110254D01*
X131413130Y-112149111D01*
X131376673Y-112154500D01*
X130830326Y-112154500D01*
X130757260Y-112169034D01*
X130746940Y-112175930D01*
X130746939Y-112175930D01*
X130740001Y-112180565D01*
X130672248Y-112201780D01*
X130599999Y-112180565D01*
X130593061Y-112175930D01*
X130593060Y-112175930D01*
X130582740Y-112169034D01*
X130509674Y-112154500D01*
X129560326Y-112154500D01*
X129487260Y-112169034D01*
X129476940Y-112175930D01*
X129476939Y-112175930D01*
X129470001Y-112180565D01*
X129402248Y-112201780D01*
X129329999Y-112180565D01*
X129323061Y-112175930D01*
X129323060Y-112175930D01*
X129312740Y-112169034D01*
X129239674Y-112154500D01*
X128290326Y-112154500D01*
X128217260Y-112169034D01*
X128206940Y-112175930D01*
X128206939Y-112175930D01*
X128200001Y-112180565D01*
X128132248Y-112201780D01*
X128059999Y-112180565D01*
X128053061Y-112175930D01*
X128053060Y-112175930D01*
X128042740Y-112169034D01*
X127969674Y-112154500D01*
X127020326Y-112154500D01*
X126947260Y-112169034D01*
X126936940Y-112175930D01*
X126936939Y-112175930D01*
X126930001Y-112180565D01*
X126862248Y-112201780D01*
X126789999Y-112180565D01*
X126783061Y-112175930D01*
X126783060Y-112175930D01*
X126772740Y-112169034D01*
X126699674Y-112154500D01*
X125750326Y-112154500D01*
X125677260Y-112169034D01*
X125666940Y-112175930D01*
X125666939Y-112175930D01*
X125660001Y-112180565D01*
X125592248Y-112201780D01*
X125519999Y-112180565D01*
X125513061Y-112175930D01*
X125513060Y-112175930D01*
X125502740Y-112169034D01*
X125429674Y-112154500D01*
X124480326Y-112154500D01*
X124407260Y-112169034D01*
X124396940Y-112175930D01*
X124396939Y-112175930D01*
X124390001Y-112180565D01*
X124322248Y-112201780D01*
X124249999Y-112180565D01*
X124243061Y-112175930D01*
X124243060Y-112175930D01*
X124232740Y-112169034D01*
X124159674Y-112154500D01*
X123210326Y-112154500D01*
X123137260Y-112169034D01*
X123054399Y-112224399D01*
X122999034Y-112307260D01*
X122984500Y-112380326D01*
X122984500Y-114429674D01*
X122999034Y-114502740D01*
X123054399Y-114585601D01*
X123137260Y-114640966D01*
X123210326Y-114655500D01*
X124159674Y-114655500D01*
X124232740Y-114640966D01*
X124243061Y-114634070D01*
X124249999Y-114629435D01*
X124317752Y-114608220D01*
X124390001Y-114629435D01*
X124396939Y-114634070D01*
X124407260Y-114640966D01*
X124419431Y-114643387D01*
X124474251Y-114654292D01*
X124474255Y-114654292D01*
X124479553Y-114655346D01*
X124479555Y-114655347D01*
X124480326Y-114655500D01*
X124480297Y-114655646D01*
X124543643Y-114681223D01*
X124586460Y-114744880D01*
X124588200Y-114750869D01*
X124589424Y-114761210D01*
X124593346Y-114769377D01*
X124594833Y-114778313D01*
X124599777Y-114787475D01*
X124599778Y-114787479D01*
X124618906Y-114822929D01*
X124621602Y-114828220D01*
X124632653Y-114851234D01*
X124643537Y-114873900D01*
X124647094Y-114878131D01*
X124649026Y-114880063D01*
X124650745Y-114881937D01*
X124650819Y-114882074D01*
X124650709Y-114882174D01*
X124651132Y-114882654D01*
X124654194Y-114888329D01*
X124661841Y-114895398D01*
X124661842Y-114895399D01*
X124693367Y-114924540D01*
X124696933Y-114927970D01*
X124726653Y-114957690D01*
X124741378Y-114975921D01*
X124742779Y-114977461D01*
X124748429Y-114986211D01*
X124756607Y-114992658D01*
X124774466Y-115006737D01*
X124778833Y-115010618D01*
X124778899Y-115010540D01*
X124782857Y-115013894D01*
X124786539Y-115017576D01*
X124790770Y-115020599D01*
X124790773Y-115020602D01*
X124795592Y-115024045D01*
X124802053Y-115028662D01*
X124806782Y-115032213D01*
X124846601Y-115063604D01*
X124855150Y-115066606D01*
X124862520Y-115071873D01*
X124911079Y-115086395D01*
X124916720Y-115088228D01*
X124957065Y-115102396D01*
X124964549Y-115105024D01*
X124970056Y-115105501D01*
X124972763Y-115105501D01*
X124975335Y-115105612D01*
X124975495Y-115105660D01*
X124975489Y-115105804D01*
X124976107Y-115105843D01*
X124982287Y-115107691D01*
X125035556Y-115105598D01*
X125040502Y-115105501D01*
X129422274Y-115105501D01*
X129490395Y-115125503D01*
X129511369Y-115142406D01*
X129975368Y-115606405D01*
X130009394Y-115668717D01*
X130004329Y-115739532D01*
X129961782Y-115796368D01*
X129892099Y-115821365D01*
X129694233Y-115830523D01*
X129579226Y-115858240D01*
X129495915Y-115878318D01*
X129495913Y-115878319D01*
X129490082Y-115879724D01*
X129484624Y-115882206D01*
X129484620Y-115882207D01*
X129368270Y-115935108D01*
X129298919Y-115966640D01*
X129127640Y-116088137D01*
X128982425Y-116239831D01*
X128979174Y-116244866D01*
X128887790Y-116386395D01*
X128868515Y-116416246D01*
X128866273Y-116421809D01*
X128805375Y-116572917D01*
X128790019Y-116611019D01*
X128788871Y-116616900D01*
X128788869Y-116616905D01*
X128750638Y-116812676D01*
X128749770Y-116817122D01*
X128749500Y-116822643D01*
X128749500Y-117127469D01*
X128764439Y-117284046D01*
X128766128Y-117289802D01*
X128766128Y-117289804D01*
X128768383Y-117297490D01*
X128823553Y-117485549D01*
X128826297Y-117490876D01*
X128914638Y-117662400D01*
X128919705Y-117672239D01*
X128933959Y-117690385D01*
X129045718Y-117832662D01*
X129045722Y-117832667D01*
X129049424Y-117837379D01*
X129053954Y-117841310D01*
X129053955Y-117841311D01*
X129203498Y-117971079D01*
X129203503Y-117971083D01*
X129208029Y-117975010D01*
X129389799Y-118080166D01*
X129395467Y-118082134D01*
X129400920Y-118084631D01*
X129399777Y-118087128D01*
X129448015Y-118121923D01*
X129474000Y-118187993D01*
X129474500Y-118199206D01*
X129474500Y-120573689D01*
X129454498Y-120641810D01*
X129400842Y-120688303D01*
X129346851Y-120699678D01*
X129288207Y-120698911D01*
X129233286Y-120698192D01*
X129227589Y-120699171D01*
X129227588Y-120699171D01*
X129039646Y-120731465D01*
X129039645Y-120731465D01*
X129033949Y-120732444D01*
X128844193Y-120802449D01*
X128839232Y-120805401D01*
X128839231Y-120805401D01*
X128682729Y-120898510D01*
X128670371Y-120905862D01*
X128518305Y-121039220D01*
X128393089Y-121198057D01*
X128298914Y-121377053D01*
X128238937Y-121570213D01*
X128215164Y-121771069D01*
X128228392Y-121972894D01*
X128229815Y-121978496D01*
X128269631Y-122135272D01*
X128278178Y-122168928D01*
X128362856Y-122352607D01*
X128479588Y-122517780D01*
X128624466Y-122658913D01*
X128792637Y-122771282D01*
X128797940Y-122773560D01*
X128797943Y-122773562D01*
X128886291Y-122811519D01*
X128978470Y-122851122D01*
X129175740Y-122895760D01*
X129181509Y-122895987D01*
X129181512Y-122895987D01*
X129257683Y-122898979D01*
X129377842Y-122903700D01*
X129485753Y-122888054D01*
X129572286Y-122875508D01*
X129572291Y-122875507D01*
X129578007Y-122874678D01*
X129583479Y-122872820D01*
X129583481Y-122872820D01*
X129764067Y-122811519D01*
X129764069Y-122811518D01*
X129769531Y-122809664D01*
X129946001Y-122710837D01*
X130008433Y-122658913D01*
X130097073Y-122585191D01*
X130101505Y-122581505D01*
X130230837Y-122426001D01*
X130243554Y-122403294D01*
X130281340Y-122335821D01*
X130329664Y-122249531D01*
X130368736Y-122134431D01*
X130392820Y-122063481D01*
X130392820Y-122063479D01*
X130394678Y-122058007D01*
X130395507Y-122052291D01*
X130395508Y-122052286D01*
X130423167Y-121861516D01*
X130423700Y-121857842D01*
X130425215Y-121800000D01*
X130406708Y-121598591D01*
X130400502Y-121576584D01*
X130359957Y-121432824D01*
X130351807Y-121403926D01*
X130262351Y-121222527D01*
X130250542Y-121206713D01*
X130225810Y-121140164D01*
X130225500Y-121131324D01*
X130225500Y-119619195D01*
X132189955Y-119619195D01*
X132190079Y-119621174D01*
X132190080Y-119621190D01*
X132195753Y-119711360D01*
X132209707Y-119933148D01*
X132214519Y-119971236D01*
X132214890Y-119973182D01*
X132214891Y-119973187D01*
X132227806Y-120040890D01*
X132273464Y-120280237D01*
X132273961Y-120282172D01*
X132282521Y-120315515D01*
X132282524Y-120315527D01*
X132283011Y-120317422D01*
X132283618Y-120319290D01*
X132283620Y-120319297D01*
X132366278Y-120573689D01*
X132380220Y-120616599D01*
X132380950Y-120618443D01*
X132380953Y-120618451D01*
X132393620Y-120650444D01*
X132393626Y-120650458D01*
X132394353Y-120652294D01*
X132528292Y-120936928D01*
X132546787Y-120970570D01*
X132562167Y-120994805D01*
X132577692Y-121019268D01*
X132714275Y-121234489D01*
X132715344Y-121236174D01*
X132716503Y-121237770D01*
X132716511Y-121237781D01*
X132716518Y-121237790D01*
X132737909Y-121267233D01*
X132739183Y-121268773D01*
X132885781Y-121445979D01*
X132938425Y-121509615D01*
X132939769Y-121511046D01*
X132939775Y-121511053D01*
X132963364Y-121536172D01*
X132964705Y-121537600D01*
X132966133Y-121538941D01*
X133023729Y-121593027D01*
X133194019Y-121752941D01*
X133195537Y-121754197D01*
X133195544Y-121754203D01*
X133222056Y-121776136D01*
X133223600Y-121777413D01*
X133478095Y-121962314D01*
X133510510Y-121982884D01*
X133786173Y-122134431D01*
X133820910Y-122150777D01*
X133822749Y-122151505D01*
X134083047Y-122254564D01*
X134113393Y-122266579D01*
X134115268Y-122267188D01*
X134115270Y-122267189D01*
X134148019Y-122277831D01*
X134148025Y-122277833D01*
X134149903Y-122278443D01*
X134151823Y-122278936D01*
X134151830Y-122278938D01*
X134452652Y-122356177D01*
X134452663Y-122356179D01*
X134454593Y-122356675D01*
X134456535Y-122357045D01*
X134456551Y-122357049D01*
X134478195Y-122361177D01*
X134492305Y-122363868D01*
X134494283Y-122364118D01*
X134494290Y-122364119D01*
X134638751Y-122382368D01*
X134804398Y-122403294D01*
X134806367Y-122403418D01*
X134806368Y-122403418D01*
X134840720Y-122405580D01*
X134840733Y-122405580D01*
X134842713Y-122405705D01*
X135157287Y-122405705D01*
X135159267Y-122405580D01*
X135159280Y-122405580D01*
X135193632Y-122403418D01*
X135193633Y-122403418D01*
X135195602Y-122403294D01*
X135361249Y-122382368D01*
X135505710Y-122364119D01*
X135505717Y-122364118D01*
X135507695Y-122363868D01*
X135521805Y-122361177D01*
X135543449Y-122357049D01*
X135543465Y-122357045D01*
X135545407Y-122356675D01*
X135547337Y-122356179D01*
X135547348Y-122356177D01*
X135848170Y-122278938D01*
X135848177Y-122278936D01*
X135850097Y-122278443D01*
X135851975Y-122277833D01*
X135851981Y-122277831D01*
X135884730Y-122267189D01*
X135884732Y-122267188D01*
X135886607Y-122266579D01*
X135916954Y-122254564D01*
X136177251Y-122151505D01*
X136179090Y-122150777D01*
X136213827Y-122134431D01*
X136489490Y-121982884D01*
X136521905Y-121962314D01*
X136776400Y-121777413D01*
X136777944Y-121776136D01*
X136804456Y-121754203D01*
X136804463Y-121754197D01*
X136805981Y-121752941D01*
X136976272Y-121593027D01*
X137033867Y-121538941D01*
X137035295Y-121537600D01*
X137036636Y-121536172D01*
X137060225Y-121511053D01*
X137060231Y-121511046D01*
X137061575Y-121509615D01*
X137114220Y-121445979D01*
X137260817Y-121268773D01*
X137262091Y-121267233D01*
X137284656Y-121236174D01*
X137406764Y-121043762D01*
X137452143Y-120972257D01*
X137452151Y-120972243D01*
X137453213Y-120970570D01*
X137471708Y-120936928D01*
X137605647Y-120652294D01*
X137606374Y-120650458D01*
X137606380Y-120650444D01*
X137619047Y-120618451D01*
X137619050Y-120618443D01*
X137619780Y-120616599D01*
X137633723Y-120573689D01*
X137716379Y-120319300D01*
X137716381Y-120319294D01*
X137716989Y-120317422D01*
X137726536Y-120280238D01*
X137726912Y-120278271D01*
X137780360Y-119998084D01*
X137783557Y-119998694D01*
X137783558Y-119998690D01*
X137780361Y-119998080D01*
X137785110Y-119973185D01*
X137785112Y-119973175D01*
X137785482Y-119971233D01*
X137790293Y-119933148D01*
X137809386Y-119629667D01*
X137809386Y-119629658D01*
X137810044Y-119619200D01*
X137810045Y-119580805D01*
X137809920Y-119578810D01*
X137794103Y-119327417D01*
X137790293Y-119266852D01*
X137789097Y-119257381D01*
X137785730Y-119230737D01*
X137785481Y-119228764D01*
X137771929Y-119157719D01*
X137726911Y-118921729D01*
X137726536Y-118919763D01*
X137716989Y-118882578D01*
X137619780Y-118583401D01*
X137619047Y-118581549D01*
X137606380Y-118549556D01*
X137606374Y-118549542D01*
X137605647Y-118547706D01*
X137471708Y-118263072D01*
X137462179Y-118245738D01*
X137454177Y-118231183D01*
X137454173Y-118231176D01*
X137453213Y-118229430D01*
X137452151Y-118227757D01*
X137452143Y-118227743D01*
X137330357Y-118035840D01*
X137284656Y-117963826D01*
X137262091Y-117932767D01*
X137179277Y-117832662D01*
X137062832Y-117691904D01*
X137062826Y-117691897D01*
X137061575Y-117690385D01*
X137046465Y-117674294D01*
X137036636Y-117663828D01*
X137035295Y-117662400D01*
X136805981Y-117447059D01*
X136776400Y-117422587D01*
X136612902Y-117303799D01*
X136523506Y-117238849D01*
X136523502Y-117238846D01*
X136521905Y-117237686D01*
X136489490Y-117217116D01*
X136213827Y-117065569D01*
X136179090Y-117049223D01*
X135886607Y-116933421D01*
X135884730Y-116932811D01*
X135851981Y-116922169D01*
X135851975Y-116922167D01*
X135850097Y-116921557D01*
X135848177Y-116921064D01*
X135848170Y-116921062D01*
X135547348Y-116843823D01*
X135547337Y-116843821D01*
X135545407Y-116843325D01*
X135543465Y-116842955D01*
X135543449Y-116842951D01*
X135521805Y-116838823D01*
X135507695Y-116836132D01*
X135505717Y-116835882D01*
X135505710Y-116835881D01*
X135322019Y-116812676D01*
X135195602Y-116796706D01*
X135193633Y-116796582D01*
X135193632Y-116796582D01*
X135159280Y-116794420D01*
X135159267Y-116794420D01*
X135157287Y-116794295D01*
X134842713Y-116794295D01*
X134840733Y-116794420D01*
X134840720Y-116794420D01*
X134806368Y-116796582D01*
X134806367Y-116796582D01*
X134804398Y-116796706D01*
X134677981Y-116812676D01*
X134494290Y-116835881D01*
X134494283Y-116835882D01*
X134492305Y-116836132D01*
X134478195Y-116838823D01*
X134456551Y-116842951D01*
X134456535Y-116842955D01*
X134454593Y-116843325D01*
X134452663Y-116843821D01*
X134452652Y-116843823D01*
X134151830Y-116921062D01*
X134151823Y-116921064D01*
X134149903Y-116921557D01*
X134148025Y-116922167D01*
X134148019Y-116922169D01*
X134115270Y-116932811D01*
X134113393Y-116933421D01*
X133820910Y-117049223D01*
X133786173Y-117065569D01*
X133510510Y-117217116D01*
X133478095Y-117237686D01*
X133476498Y-117238846D01*
X133476494Y-117238849D01*
X133387098Y-117303799D01*
X133223600Y-117422587D01*
X133194019Y-117447059D01*
X132964705Y-117662400D01*
X132963364Y-117663828D01*
X132953536Y-117674294D01*
X132938425Y-117690385D01*
X132937174Y-117691897D01*
X132937168Y-117691904D01*
X132820723Y-117832662D01*
X132737909Y-117932767D01*
X132715344Y-117963826D01*
X132577329Y-118181303D01*
X132575905Y-118183547D01*
X132547857Y-118227743D01*
X132547849Y-118227757D01*
X132546787Y-118229430D01*
X132545827Y-118231176D01*
X132545823Y-118231183D01*
X132537822Y-118245738D01*
X132528292Y-118263072D01*
X132394353Y-118547706D01*
X132393626Y-118549542D01*
X132393620Y-118549556D01*
X132380953Y-118581549D01*
X132380220Y-118583401D01*
X132283011Y-118882578D01*
X132273464Y-118919763D01*
X132273089Y-118921729D01*
X132228072Y-119157719D01*
X132214519Y-119228764D01*
X132214270Y-119230737D01*
X132210904Y-119257381D01*
X132209707Y-119266852D01*
X132205897Y-119327417D01*
X132190080Y-119578810D01*
X132190080Y-119578811D01*
X132189955Y-119580805D01*
X132189955Y-119619195D01*
X130225500Y-119619195D01*
X130225500Y-118194315D01*
X130245502Y-118126194D01*
X130299348Y-118079615D01*
X130401081Y-118033360D01*
X130572360Y-117911863D01*
X130717575Y-117760169D01*
X130773024Y-117674294D01*
X130828233Y-117588791D01*
X130828234Y-117588788D01*
X130831485Y-117583754D01*
X130833727Y-117578191D01*
X130907739Y-117394545D01*
X130907740Y-117394542D01*
X130909981Y-117388981D01*
X130911129Y-117383100D01*
X130911131Y-117383095D01*
X130949362Y-117187324D01*
X130949362Y-117187321D01*
X130950230Y-117182878D01*
X130950500Y-117177357D01*
X130950500Y-116885727D01*
X130970502Y-116817606D01*
X131024158Y-116771113D01*
X131094432Y-116761009D01*
X131159012Y-116790503D01*
X131165595Y-116796632D01*
X131214472Y-116845509D01*
X131248498Y-116907821D01*
X131250299Y-116951049D01*
X131244758Y-116993138D01*
X131262035Y-117149633D01*
X131316143Y-117297490D01*
X131320380Y-117303796D01*
X131320382Y-117303799D01*
X131360709Y-117363811D01*
X131403958Y-117428172D01*
X131520410Y-117534135D01*
X131527085Y-117537759D01*
X131652099Y-117605637D01*
X131652101Y-117605638D01*
X131658776Y-117609262D01*
X131666125Y-117611190D01*
X131803719Y-117647287D01*
X131803721Y-117647287D01*
X131811069Y-117649215D01*
X131894380Y-117650524D01*
X131960898Y-117651569D01*
X131960901Y-117651569D01*
X131968495Y-117651688D01*
X132121968Y-117616538D01*
X132262625Y-117545795D01*
X132339894Y-117479801D01*
X132376574Y-117448474D01*
X132376576Y-117448471D01*
X132382348Y-117443542D01*
X132474224Y-117315683D01*
X132532950Y-117169598D01*
X132555134Y-117013723D01*
X132555278Y-117000000D01*
X132536363Y-116843694D01*
X132524642Y-116812676D01*
X132483394Y-116703514D01*
X132483393Y-116703511D01*
X132480710Y-116696412D01*
X132391531Y-116566657D01*
X132339388Y-116520199D01*
X132279648Y-116466972D01*
X132279645Y-116466970D01*
X132273976Y-116461919D01*
X132134831Y-116388245D01*
X132047655Y-116366348D01*
X131989498Y-116351740D01*
X131989496Y-116351740D01*
X131982128Y-116349889D01*
X131974530Y-116349849D01*
X131974528Y-116349849D01*
X131925331Y-116349592D01*
X131831671Y-116349102D01*
X131763657Y-116328744D01*
X131743236Y-116312199D01*
X130301632Y-114870595D01*
X130267606Y-114808283D01*
X130272671Y-114737468D01*
X130315218Y-114680632D01*
X130381738Y-114655821D01*
X130390727Y-114655500D01*
X130509674Y-114655500D01*
X130582740Y-114640966D01*
X130593061Y-114634070D01*
X130599999Y-114629435D01*
X130667752Y-114608220D01*
X130740001Y-114629435D01*
X130746939Y-114634070D01*
X130757260Y-114640966D01*
X130830326Y-114655500D01*
X131779674Y-114655500D01*
X131852740Y-114640966D01*
X131863061Y-114634070D01*
X131869999Y-114629435D01*
X131937752Y-114608220D01*
X132010001Y-114629435D01*
X132016939Y-114634070D01*
X132027260Y-114640966D01*
X132100326Y-114655500D01*
X133049674Y-114655500D01*
X133122740Y-114640966D01*
X133133061Y-114634070D01*
X133139999Y-114629435D01*
X133207752Y-114608220D01*
X133280001Y-114629435D01*
X133286939Y-114634070D01*
X133297260Y-114640966D01*
X133309431Y-114643387D01*
X133364251Y-114654292D01*
X133364255Y-114654292D01*
X133369553Y-114655346D01*
X133369555Y-114655347D01*
X133370326Y-114655500D01*
X133370297Y-114655646D01*
X133433643Y-114681223D01*
X133476460Y-114744880D01*
X133478200Y-114750869D01*
X133479424Y-114761210D01*
X133483346Y-114769377D01*
X133484833Y-114778313D01*
X133489777Y-114787475D01*
X133489778Y-114787479D01*
X133508906Y-114822929D01*
X133511602Y-114828220D01*
X133522653Y-114851234D01*
X133533537Y-114873900D01*
X133537094Y-114878131D01*
X133539026Y-114880063D01*
X133540745Y-114881937D01*
X133540819Y-114882074D01*
X133540709Y-114882174D01*
X133541132Y-114882654D01*
X133544194Y-114888329D01*
X133551841Y-114895398D01*
X133551842Y-114895399D01*
X133583353Y-114924527D01*
X133586920Y-114927957D01*
X133886656Y-115227694D01*
X133901368Y-115245911D01*
X133902779Y-115247462D01*
X133908428Y-115256210D01*
X133916607Y-115262658D01*
X133916609Y-115262660D01*
X133934461Y-115276734D01*
X133938835Y-115280621D01*
X133938901Y-115280543D01*
X133942860Y-115283898D01*
X133946538Y-115287576D01*
X133950762Y-115290595D01*
X133950771Y-115290602D01*
X133962074Y-115298679D01*
X133966820Y-115302243D01*
X134006600Y-115333603D01*
X134015148Y-115336605D01*
X134022519Y-115341872D01*
X134032492Y-115344855D01*
X134032495Y-115344856D01*
X134071083Y-115356396D01*
X134076730Y-115358231D01*
X134117064Y-115372395D01*
X134117065Y-115372395D01*
X134124548Y-115375023D01*
X134130055Y-115375500D01*
X134132762Y-115375500D01*
X134135332Y-115375611D01*
X134135494Y-115375659D01*
X134135488Y-115375804D01*
X134136108Y-115375843D01*
X134142287Y-115377691D01*
X134195581Y-115375597D01*
X134200527Y-115375500D01*
X135502010Y-115375500D01*
X135570131Y-115395502D01*
X135597391Y-115419169D01*
X135599726Y-115421875D01*
X135603958Y-115428172D01*
X135609568Y-115433277D01*
X135609570Y-115433279D01*
X135714794Y-115529025D01*
X135720410Y-115534135D01*
X135727085Y-115537759D01*
X135852099Y-115605637D01*
X135852101Y-115605638D01*
X135858776Y-115609262D01*
X135866125Y-115611190D01*
X136003719Y-115647287D01*
X136003721Y-115647287D01*
X136011069Y-115649215D01*
X136094380Y-115650524D01*
X136160898Y-115651569D01*
X136160901Y-115651569D01*
X136168495Y-115651688D01*
X136321968Y-115616538D01*
X136462625Y-115545795D01*
X136488869Y-115523381D01*
X136576574Y-115448474D01*
X136576576Y-115448471D01*
X136582348Y-115443542D01*
X136674224Y-115315683D01*
X136732950Y-115169598D01*
X136746858Y-115071873D01*
X136754553Y-115017807D01*
X136754553Y-115017804D01*
X136755134Y-115013723D01*
X136755278Y-115000000D01*
X136736363Y-114843694D01*
X136687261Y-114713748D01*
X136681893Y-114642957D01*
X136715651Y-114580499D01*
X136777816Y-114546207D01*
X136848653Y-114550969D01*
X136865249Y-114558481D01*
X136952099Y-114605637D01*
X136952101Y-114605638D01*
X136958776Y-114609262D01*
X136966125Y-114611190D01*
X137103719Y-114647287D01*
X137103721Y-114647287D01*
X137111069Y-114649215D01*
X137194380Y-114650524D01*
X137260898Y-114651569D01*
X137260901Y-114651569D01*
X137268495Y-114651688D01*
X137421968Y-114616538D01*
X137562625Y-114545795D01*
X137613036Y-114502740D01*
X137676574Y-114448474D01*
X137676576Y-114448471D01*
X137682348Y-114443542D01*
X137774224Y-114315683D01*
X137832950Y-114169598D01*
X137855134Y-114013723D01*
X137855278Y-114000000D01*
X137836363Y-113843694D01*
X137832289Y-113832911D01*
X137783394Y-113703514D01*
X137783393Y-113703511D01*
X137780710Y-113696412D01*
X137691531Y-113566657D01*
X137655224Y-113534309D01*
X137617670Y-113474059D01*
X137618651Y-113403070D01*
X137643820Y-113357722D01*
X137644329Y-113357135D01*
X137646000Y-113349452D01*
X137646000Y-112240987D01*
X137642763Y-112229962D01*
X137635672Y-112233200D01*
X137528926Y-112339946D01*
X137466614Y-112373972D01*
X137395799Y-112368907D01*
X137350736Y-112339946D01*
X136494287Y-111483497D01*
X136460261Y-111421185D01*
X136457703Y-111403392D01*
X136456934Y-111392636D01*
X136455864Y-111392237D01*
X137125300Y-111392237D01*
X137128538Y-111399328D01*
X137633188Y-111903978D01*
X137643277Y-111909487D01*
X137646000Y-111902186D01*
X137646000Y-111407115D01*
X137641525Y-111391876D01*
X137640135Y-111390671D01*
X137632452Y-111389000D01*
X137136325Y-111389000D01*
X137125300Y-111392237D01*
X136455864Y-111392237D01*
X136433966Y-111384069D01*
X136377131Y-111341522D01*
X136352321Y-111275002D01*
X136352000Y-111266014D01*
X136352000Y-111007000D01*
X136372002Y-110938879D01*
X136425658Y-110892386D01*
X136478000Y-110881000D01*
X138028000Y-110881000D01*
X138096121Y-110901002D01*
X138142614Y-110954658D01*
X138154000Y-111007000D01*
X138154000Y-113344884D01*
X138158475Y-113360123D01*
X138159865Y-113361328D01*
X138167548Y-113362999D01*
X138524000Y-113362999D01*
X138592121Y-113383001D01*
X138638614Y-113436657D01*
X138650000Y-113488999D01*
X138650000Y-122562966D01*
X138647579Y-122587547D01*
X138645102Y-122600000D01*
X138647523Y-122612171D01*
X138647523Y-122618963D01*
X138646916Y-122631313D01*
X138643882Y-122662123D01*
X138636806Y-122733964D01*
X138631988Y-122758189D01*
X138617229Y-122806845D01*
X138596512Y-122875139D01*
X138587062Y-122897954D01*
X138529457Y-123005724D01*
X138529452Y-123005734D01*
X138515729Y-123026271D01*
X138438202Y-123120737D01*
X138420737Y-123138202D01*
X138326271Y-123215729D01*
X138305736Y-123229451D01*
X138197954Y-123287062D01*
X138175139Y-123296512D01*
X138058189Y-123331988D01*
X138033966Y-123336806D01*
X137949731Y-123345102D01*
X137931313Y-123346916D01*
X137918963Y-123347523D01*
X137912171Y-123347523D01*
X137900000Y-123345102D01*
X137887829Y-123347523D01*
X137887547Y-123347579D01*
X137862966Y-123350000D01*
X122825098Y-123350000D01*
X122756977Y-123329998D01*
X122710484Y-123276342D01*
X122700380Y-123206068D01*
X122729874Y-123141488D01*
X122780868Y-123106018D01*
X122788054Y-123103324D01*
X122803649Y-123094786D01*
X122905724Y-123018285D01*
X122918285Y-123005724D01*
X122994786Y-122903649D01*
X123003324Y-122888054D01*
X123048478Y-122767606D01*
X123052105Y-122752351D01*
X123057631Y-122701486D01*
X123058000Y-122694672D01*
X123058000Y-122431045D01*
X123078002Y-122362924D01*
X123131658Y-122316431D01*
X123201932Y-122306327D01*
X123266512Y-122335821D01*
X123286897Y-122358325D01*
X123318503Y-122403046D01*
X123399588Y-122517780D01*
X123544466Y-122658913D01*
X123712637Y-122771282D01*
X123717940Y-122773560D01*
X123717943Y-122773562D01*
X123806291Y-122811519D01*
X123898470Y-122851122D01*
X124095740Y-122895760D01*
X124101509Y-122895987D01*
X124101512Y-122895987D01*
X124177683Y-122898979D01*
X124297842Y-122903700D01*
X124405753Y-122888054D01*
X124492286Y-122875508D01*
X124492291Y-122875507D01*
X124498007Y-122874678D01*
X124503479Y-122872820D01*
X124503481Y-122872820D01*
X124684067Y-122811519D01*
X124684069Y-122811518D01*
X124689531Y-122809664D01*
X124866001Y-122710837D01*
X124928433Y-122658913D01*
X125017073Y-122585191D01*
X125021505Y-122581505D01*
X125150837Y-122426001D01*
X125163554Y-122403294D01*
X125201340Y-122335821D01*
X125249664Y-122249531D01*
X125288736Y-122134431D01*
X125312820Y-122063481D01*
X125312820Y-122063479D01*
X125314678Y-122058007D01*
X125315507Y-122052291D01*
X125315508Y-122052286D01*
X125343167Y-121861516D01*
X125343700Y-121857842D01*
X125345215Y-121800000D01*
X125342557Y-121771069D01*
X125675164Y-121771069D01*
X125688392Y-121972894D01*
X125689815Y-121978496D01*
X125729631Y-122135272D01*
X125738178Y-122168928D01*
X125822856Y-122352607D01*
X125939588Y-122517780D01*
X126084466Y-122658913D01*
X126252637Y-122771282D01*
X126257940Y-122773560D01*
X126257943Y-122773562D01*
X126346291Y-122811519D01*
X126438470Y-122851122D01*
X126635740Y-122895760D01*
X126641509Y-122895987D01*
X126641512Y-122895987D01*
X126717683Y-122898979D01*
X126837842Y-122903700D01*
X126945753Y-122888054D01*
X127032286Y-122875508D01*
X127032291Y-122875507D01*
X127038007Y-122874678D01*
X127043479Y-122872820D01*
X127043481Y-122872820D01*
X127224067Y-122811519D01*
X127224069Y-122811518D01*
X127229531Y-122809664D01*
X127406001Y-122710837D01*
X127468433Y-122658913D01*
X127557073Y-122585191D01*
X127561505Y-122581505D01*
X127690837Y-122426001D01*
X127703554Y-122403294D01*
X127741340Y-122335821D01*
X127789664Y-122249531D01*
X127828736Y-122134431D01*
X127852820Y-122063481D01*
X127852820Y-122063479D01*
X127854678Y-122058007D01*
X127855507Y-122052291D01*
X127855508Y-122052286D01*
X127883167Y-121861516D01*
X127883700Y-121857842D01*
X127885215Y-121800000D01*
X127866708Y-121598591D01*
X127860502Y-121576584D01*
X127819957Y-121432824D01*
X127811807Y-121403926D01*
X127738494Y-121255262D01*
X127725500Y-121199534D01*
X127725500Y-118194315D01*
X127745502Y-118126194D01*
X127799348Y-118079615D01*
X127901081Y-118033360D01*
X128072360Y-117911863D01*
X128217575Y-117760169D01*
X128273024Y-117674294D01*
X128328233Y-117588791D01*
X128328234Y-117588788D01*
X128331485Y-117583754D01*
X128333727Y-117578191D01*
X128407739Y-117394545D01*
X128407740Y-117394542D01*
X128409981Y-117388981D01*
X128411129Y-117383100D01*
X128411131Y-117383095D01*
X128449362Y-117187324D01*
X128449362Y-117187321D01*
X128450230Y-117182878D01*
X128450500Y-117177357D01*
X128450500Y-116872531D01*
X128435561Y-116715954D01*
X128376447Y-116514451D01*
X128313277Y-116391799D01*
X128283041Y-116333092D01*
X128283039Y-116333089D01*
X128280295Y-116327761D01*
X128207824Y-116235501D01*
X128154282Y-116167338D01*
X128154278Y-116167333D01*
X128150576Y-116162621D01*
X128069728Y-116092464D01*
X127996502Y-116028921D01*
X127996497Y-116028917D01*
X127991971Y-116024990D01*
X127810201Y-115919834D01*
X127629813Y-115857193D01*
X127617491Y-115852914D01*
X127617489Y-115852914D01*
X127611826Y-115850947D01*
X127605891Y-115850086D01*
X127605889Y-115850086D01*
X127409944Y-115821675D01*
X127409941Y-115821675D01*
X127404004Y-115820814D01*
X127194233Y-115830523D01*
X127079226Y-115858240D01*
X126995915Y-115878318D01*
X126995913Y-115878319D01*
X126990082Y-115879724D01*
X126984624Y-115882206D01*
X126984620Y-115882207D01*
X126868270Y-115935108D01*
X126798919Y-115966640D01*
X126627640Y-116088137D01*
X126482425Y-116239831D01*
X126479174Y-116244866D01*
X126387790Y-116386395D01*
X126368515Y-116416246D01*
X126366273Y-116421809D01*
X126305375Y-116572917D01*
X126290019Y-116611019D01*
X126288871Y-116616900D01*
X126288869Y-116616905D01*
X126250638Y-116812676D01*
X126249770Y-116817122D01*
X126249500Y-116822643D01*
X126249500Y-117127469D01*
X126264439Y-117284046D01*
X126266128Y-117289802D01*
X126266128Y-117289804D01*
X126268383Y-117297490D01*
X126323553Y-117485549D01*
X126326297Y-117490876D01*
X126414638Y-117662400D01*
X126419705Y-117672239D01*
X126433959Y-117690385D01*
X126545718Y-117832662D01*
X126545722Y-117832667D01*
X126549424Y-117837379D01*
X126553954Y-117841310D01*
X126553955Y-117841311D01*
X126703498Y-117971079D01*
X126703503Y-117971083D01*
X126708029Y-117975010D01*
X126889799Y-118080166D01*
X126895467Y-118082134D01*
X126900920Y-118084631D01*
X126899777Y-118087128D01*
X126948015Y-118121923D01*
X126974000Y-118187993D01*
X126974500Y-118199206D01*
X126974500Y-120574213D01*
X126954498Y-120642334D01*
X126900842Y-120688827D01*
X126846851Y-120700202D01*
X126693286Y-120698192D01*
X126687589Y-120699171D01*
X126687588Y-120699171D01*
X126499646Y-120731465D01*
X126499645Y-120731465D01*
X126493949Y-120732444D01*
X126304193Y-120802449D01*
X126299232Y-120805401D01*
X126299231Y-120805401D01*
X126142729Y-120898510D01*
X126130371Y-120905862D01*
X125978305Y-121039220D01*
X125853089Y-121198057D01*
X125758914Y-121377053D01*
X125698937Y-121570213D01*
X125675164Y-121771069D01*
X125342557Y-121771069D01*
X125326708Y-121598591D01*
X125296994Y-121493233D01*
X125297754Y-121422242D01*
X125300282Y-121414802D01*
X125309857Y-121389262D01*
X125313783Y-121379944D01*
X125333553Y-121337837D01*
X125334935Y-121328964D01*
X125336042Y-121325342D01*
X125339891Y-121310672D01*
X125340702Y-121306983D01*
X125343852Y-121298581D01*
X125344517Y-121289636D01*
X125344519Y-121289626D01*
X125347302Y-121252172D01*
X125348452Y-121242145D01*
X125350500Y-121228991D01*
X125350500Y-121213797D01*
X125350846Y-121204460D01*
X125353811Y-121164557D01*
X125354476Y-121155609D01*
X125352603Y-121146833D01*
X125351992Y-121137876D01*
X125351998Y-121137876D01*
X125350500Y-121123683D01*
X125350500Y-118134343D01*
X125370502Y-118066222D01*
X125403600Y-118031573D01*
X125405969Y-118029893D01*
X125572360Y-117911863D01*
X125717575Y-117760169D01*
X125773024Y-117674294D01*
X125828233Y-117588791D01*
X125828234Y-117588788D01*
X125831485Y-117583754D01*
X125833727Y-117578191D01*
X125907739Y-117394545D01*
X125907740Y-117394542D01*
X125909981Y-117388981D01*
X125911129Y-117383100D01*
X125911131Y-117383095D01*
X125949362Y-117187324D01*
X125949362Y-117187321D01*
X125950230Y-117182878D01*
X125950500Y-117177357D01*
X125950500Y-116872531D01*
X125935561Y-116715954D01*
X125876447Y-116514451D01*
X125813277Y-116391799D01*
X125783041Y-116333092D01*
X125783039Y-116333089D01*
X125780295Y-116327761D01*
X125707824Y-116235501D01*
X125654282Y-116167338D01*
X125654278Y-116167333D01*
X125650576Y-116162621D01*
X125569728Y-116092464D01*
X125496502Y-116028921D01*
X125496497Y-116028917D01*
X125491971Y-116024990D01*
X125310201Y-115919834D01*
X125129813Y-115857193D01*
X125117491Y-115852914D01*
X125117489Y-115852914D01*
X125111826Y-115850947D01*
X125105891Y-115850086D01*
X125105889Y-115850086D01*
X124909944Y-115821675D01*
X124909941Y-115821675D01*
X124904004Y-115820814D01*
X124694233Y-115830523D01*
X124579226Y-115858240D01*
X124495915Y-115878318D01*
X124495913Y-115878319D01*
X124490082Y-115879724D01*
X124484624Y-115882206D01*
X124484620Y-115882207D01*
X124368270Y-115935108D01*
X124298919Y-115966640D01*
X124127640Y-116088137D01*
X123982425Y-116239831D01*
X123979176Y-116244863D01*
X123979168Y-116244873D01*
X123937105Y-116310017D01*
X123883350Y-116356395D01*
X123813055Y-116366348D01*
X123748537Y-116336716D01*
X123710282Y-116276908D01*
X123705927Y-116254672D01*
X123697743Y-116175794D01*
X123694851Y-116162400D01*
X123643412Y-116008216D01*
X123637239Y-115995038D01*
X123551937Y-115857193D01*
X123542901Y-115845792D01*
X123428171Y-115731261D01*
X123416760Y-115722249D01*
X123278757Y-115637184D01*
X123265576Y-115631037D01*
X123111290Y-115579862D01*
X123097914Y-115576995D01*
X123003562Y-115567328D01*
X122997145Y-115567000D01*
X122622115Y-115567000D01*
X122606876Y-115571475D01*
X122605671Y-115572865D01*
X122604000Y-115580548D01*
X122604000Y-118414884D01*
X122608475Y-118430123D01*
X122609865Y-118431328D01*
X122617548Y-118432999D01*
X122997095Y-118432999D01*
X123003614Y-118432662D01*
X123099206Y-118422743D01*
X123112600Y-118419851D01*
X123266784Y-118368412D01*
X123279962Y-118362239D01*
X123417807Y-118276937D01*
X123429208Y-118267901D01*
X123543739Y-118153171D01*
X123552751Y-118141760D01*
X123637816Y-118003757D01*
X123643963Y-117990576D01*
X123695138Y-117836290D01*
X123698005Y-117822914D01*
X123705456Y-117750191D01*
X123732297Y-117684464D01*
X123790412Y-117643681D01*
X123861349Y-117640793D01*
X123922588Y-117676714D01*
X123929886Y-117685200D01*
X124045718Y-117832662D01*
X124045722Y-117832667D01*
X124049424Y-117837379D01*
X124053954Y-117841310D01*
X124053955Y-117841311D01*
X124203498Y-117971079D01*
X124203503Y-117971083D01*
X124208029Y-117975010D01*
X124282926Y-118018339D01*
X124286596Y-118020462D01*
X124335544Y-118071888D01*
X124349500Y-118129526D01*
X124349500Y-120573100D01*
X124329498Y-120641221D01*
X124275842Y-120687714D01*
X124221852Y-120699089D01*
X124188306Y-120698650D01*
X124153286Y-120698192D01*
X124147589Y-120699171D01*
X124147588Y-120699171D01*
X123959646Y-120731465D01*
X123959645Y-120731465D01*
X123953949Y-120732444D01*
X123764193Y-120802449D01*
X123759232Y-120805401D01*
X123759231Y-120805401D01*
X123602729Y-120898510D01*
X123590371Y-120905862D01*
X123438305Y-121039220D01*
X123313089Y-121198057D01*
X123300518Y-121221951D01*
X123295507Y-121231475D01*
X123246087Y-121282447D01*
X123176954Y-121298609D01*
X123110058Y-121274829D01*
X123066638Y-121218658D01*
X123057999Y-121172806D01*
X123057999Y-120905331D01*
X123057629Y-120898510D01*
X123052105Y-120847648D01*
X123048479Y-120832396D01*
X123003324Y-120711946D01*
X122994786Y-120696351D01*
X122918285Y-120594276D01*
X122905724Y-120581715D01*
X122803649Y-120505214D01*
X122788054Y-120496676D01*
X122667606Y-120451522D01*
X122652351Y-120447895D01*
X122601486Y-120442369D01*
X122594672Y-120442000D01*
X121972115Y-120442000D01*
X121956876Y-120446475D01*
X121955671Y-120447865D01*
X121954000Y-120455548D01*
X121954000Y-121928000D01*
X121933998Y-121996121D01*
X121880342Y-122042614D01*
X121828000Y-122054000D01*
X121572000Y-122054000D01*
X121503879Y-122033998D01*
X121457386Y-121980342D01*
X121446000Y-121928000D01*
X121446000Y-120460116D01*
X121441525Y-120444877D01*
X121440135Y-120443672D01*
X121432452Y-120442001D01*
X120805331Y-120442001D01*
X120798510Y-120442371D01*
X120747648Y-120447895D01*
X120732396Y-120451521D01*
X120611946Y-120496676D01*
X120596351Y-120505214D01*
X120494276Y-120581715D01*
X120481715Y-120594276D01*
X120405214Y-120696351D01*
X120396676Y-120711946D01*
X120393982Y-120719132D01*
X120351340Y-120775896D01*
X120284778Y-120800596D01*
X120215430Y-120785388D01*
X120165312Y-120735102D01*
X120150000Y-120674902D01*
X120150000Y-117722095D01*
X120992001Y-117722095D01*
X120992338Y-117728614D01*
X121002257Y-117824206D01*
X121005149Y-117837600D01*
X121056588Y-117991784D01*
X121062761Y-118004962D01*
X121148063Y-118142807D01*
X121157099Y-118154208D01*
X121271829Y-118268739D01*
X121283240Y-118277751D01*
X121421243Y-118362816D01*
X121434424Y-118368963D01*
X121588710Y-118420138D01*
X121602086Y-118423005D01*
X121696438Y-118432672D01*
X121702854Y-118433000D01*
X122077885Y-118433000D01*
X122093124Y-118428525D01*
X122094329Y-118427135D01*
X122096000Y-118419452D01*
X122096000Y-117272115D01*
X122091525Y-117256876D01*
X122090135Y-117255671D01*
X122082452Y-117254000D01*
X121010116Y-117254000D01*
X120994877Y-117258475D01*
X120993672Y-117259865D01*
X120992001Y-117267548D01*
X120992001Y-117722095D01*
X120150000Y-117722095D01*
X120150000Y-116727885D01*
X120992000Y-116727885D01*
X120996475Y-116743124D01*
X120997865Y-116744329D01*
X121005548Y-116746000D01*
X122077885Y-116746000D01*
X122093124Y-116741525D01*
X122094329Y-116740135D01*
X122096000Y-116732452D01*
X122096000Y-115585116D01*
X122091525Y-115569877D01*
X122090135Y-115568672D01*
X122082452Y-115567001D01*
X121702905Y-115567001D01*
X121696386Y-115567338D01*
X121600794Y-115577257D01*
X121587400Y-115580149D01*
X121433216Y-115631588D01*
X121420038Y-115637761D01*
X121282193Y-115723063D01*
X121270792Y-115732099D01*
X121156261Y-115846829D01*
X121147249Y-115858240D01*
X121062184Y-115996243D01*
X121056037Y-116009424D01*
X121004862Y-116163710D01*
X121001995Y-116177086D01*
X120992328Y-116271438D01*
X120992000Y-116277855D01*
X120992000Y-116727885D01*
X120150000Y-116727885D01*
X120150000Y-113231500D01*
X120170002Y-113163379D01*
X120223658Y-113116886D01*
X120276000Y-113105500D01*
X121924674Y-113105500D01*
X121997740Y-113090966D01*
X122080601Y-113035601D01*
X122135966Y-112952740D01*
X122150500Y-112879674D01*
X122150646Y-112879703D01*
X122176223Y-112816357D01*
X122239880Y-112773540D01*
X122245869Y-112771800D01*
X122256210Y-112770576D01*
X122264377Y-112766654D01*
X122273313Y-112765167D01*
X122282475Y-112760223D01*
X122282479Y-112760222D01*
X122317929Y-112741094D01*
X122323220Y-112738398D01*
X122361749Y-112719897D01*
X122361750Y-112719896D01*
X122368900Y-112716463D01*
X122373131Y-112712906D01*
X122375063Y-112710974D01*
X122376937Y-112709255D01*
X122377074Y-112709181D01*
X122377174Y-112709291D01*
X122377654Y-112708868D01*
X122383329Y-112705806D01*
X122419541Y-112666632D01*
X122422970Y-112663067D01*
X122555189Y-112530848D01*
X122573420Y-112516123D01*
X122574960Y-112514722D01*
X122583710Y-112509072D01*
X122604236Y-112483035D01*
X122608117Y-112478668D01*
X122608039Y-112478602D01*
X122611393Y-112474644D01*
X122615075Y-112470962D01*
X122626161Y-112455448D01*
X122629717Y-112450712D01*
X122661103Y-112410900D01*
X122664105Y-112402351D01*
X122669372Y-112394981D01*
X122683896Y-112346417D01*
X122685731Y-112340770D01*
X122699895Y-112300436D01*
X122699895Y-112300435D01*
X122702523Y-112292952D01*
X122703000Y-112287445D01*
X122703000Y-112284738D01*
X122703111Y-112282168D01*
X122703159Y-112282006D01*
X122703304Y-112282012D01*
X122703343Y-112281392D01*
X122705191Y-112275213D01*
X122703097Y-112221919D01*
X122703000Y-112216973D01*
X122703000Y-110368887D01*
X131934477Y-110368887D01*
X131941545Y-110382334D01*
X132607189Y-111047979D01*
X132621132Y-111055592D01*
X132622966Y-111055461D01*
X132629580Y-111051210D01*
X133299180Y-110381609D01*
X133305607Y-110369839D01*
X133296313Y-110357825D01*
X133255912Y-110329536D01*
X133246416Y-110324053D01*
X133056887Y-110235674D01*
X133046595Y-110231928D01*
X132844599Y-110177804D01*
X132833804Y-110175901D01*
X132625475Y-110157674D01*
X132614525Y-110157674D01*
X132406196Y-110175901D01*
X132395401Y-110177804D01*
X132193405Y-110231928D01*
X132183113Y-110235674D01*
X131993583Y-110324054D01*
X131984093Y-110329534D01*
X131942851Y-110358411D01*
X131934477Y-110368887D01*
X122703000Y-110368887D01*
X122703000Y-107730227D01*
X122723002Y-107662106D01*
X122739905Y-107641132D01*
X123156133Y-107224904D01*
X123218445Y-107190878D01*
X123245228Y-107187999D01*
X123366603Y-107187999D01*
X123389900Y-107190478D01*
X123391985Y-107190576D01*
X123402165Y-107192768D01*
X123435083Y-107188872D01*
X123440920Y-107188528D01*
X123440912Y-107188427D01*
X123446091Y-107187999D01*
X123451292Y-107187999D01*
X123456420Y-107187145D01*
X123456426Y-107187145D01*
X123470086Y-107184871D01*
X123475962Y-107184034D01*
X123481051Y-107183432D01*
X123526309Y-107178075D01*
X123534476Y-107174153D01*
X123543412Y-107172666D01*
X123552574Y-107167722D01*
X123552578Y-107167721D01*
X123588028Y-107148593D01*
X123593319Y-107145897D01*
X123631848Y-107127396D01*
X123631849Y-107127395D01*
X123638999Y-107123962D01*
X123643230Y-107120405D01*
X123645162Y-107118473D01*
X123647036Y-107116754D01*
X123647173Y-107116680D01*
X123647273Y-107116790D01*
X123647753Y-107116367D01*
X123653428Y-107113305D01*
X123689640Y-107074131D01*
X123693069Y-107070566D01*
X124087689Y-106675946D01*
X124105920Y-106661221D01*
X124107460Y-106659820D01*
X124116210Y-106654170D01*
X124136736Y-106628133D01*
X124140617Y-106623766D01*
X124140539Y-106623700D01*
X124143893Y-106619742D01*
X124147575Y-106616060D01*
X124151473Y-106610606D01*
X124157093Y-106602740D01*
X124158661Y-106600546D01*
X124162217Y-106595810D01*
X124166349Y-106590569D01*
X124193603Y-106555998D01*
X124196605Y-106547449D01*
X124201872Y-106540079D01*
X124216396Y-106491515D01*
X124218231Y-106485868D01*
X124232395Y-106445534D01*
X124232395Y-106445533D01*
X124235023Y-106438050D01*
X124235500Y-106432543D01*
X124235500Y-106429836D01*
X124235611Y-106427266D01*
X124235659Y-106427104D01*
X124235804Y-106427110D01*
X124235843Y-106426490D01*
X124237691Y-106420311D01*
X124235597Y-106367028D01*
X124235500Y-106362080D01*
X124235500Y-103077727D01*
X124255502Y-103009606D01*
X124272405Y-102988632D01*
X125116945Y-102144093D01*
X125767890Y-101493148D01*
X126462906Y-101493148D01*
X126480183Y-101649643D01*
X126534291Y-101797500D01*
X126538528Y-101803806D01*
X126538530Y-101803809D01*
X126555339Y-101828823D01*
X126622106Y-101928182D01*
X126627721Y-101933291D01*
X126627726Y-101933297D01*
X126701448Y-102000379D01*
X126738370Y-102061019D01*
X126742648Y-102093572D01*
X126742648Y-105644654D01*
X126740169Y-105667951D01*
X126740071Y-105670036D01*
X126737879Y-105680216D01*
X126739103Y-105690555D01*
X126741775Y-105713134D01*
X126742119Y-105718971D01*
X126742220Y-105718963D01*
X126742648Y-105724142D01*
X126742648Y-105729343D01*
X126743502Y-105734471D01*
X126743502Y-105734477D01*
X126745776Y-105748137D01*
X126746613Y-105754013D01*
X126752572Y-105804360D01*
X126756494Y-105812527D01*
X126757981Y-105821463D01*
X126762925Y-105830625D01*
X126762926Y-105830629D01*
X126782054Y-105866079D01*
X126784750Y-105871370D01*
X126806685Y-105917050D01*
X126810242Y-105921281D01*
X126812174Y-105923213D01*
X126813893Y-105925087D01*
X126813967Y-105925224D01*
X126813857Y-105925324D01*
X126814280Y-105925804D01*
X126817342Y-105931479D01*
X126824989Y-105938548D01*
X126824990Y-105938549D01*
X126856501Y-105967677D01*
X126860068Y-105971107D01*
X127709454Y-106820494D01*
X127724161Y-106838705D01*
X127725576Y-106840260D01*
X127731225Y-106849009D01*
X127739405Y-106855457D01*
X127739407Y-106855460D01*
X127757258Y-106869533D01*
X127761632Y-106873420D01*
X127761698Y-106873342D01*
X127765657Y-106876697D01*
X127769335Y-106880375D01*
X127773559Y-106883394D01*
X127773568Y-106883401D01*
X127784871Y-106891478D01*
X127789617Y-106895042D01*
X127829397Y-106926402D01*
X127837945Y-106929404D01*
X127845316Y-106934671D01*
X127855289Y-106937654D01*
X127855292Y-106937655D01*
X127893880Y-106949195D01*
X127899527Y-106951030D01*
X127939861Y-106965194D01*
X127939862Y-106965194D01*
X127947345Y-106967822D01*
X127952852Y-106968299D01*
X127955559Y-106968299D01*
X127958129Y-106968410D01*
X127958291Y-106968458D01*
X127958285Y-106968603D01*
X127958905Y-106968642D01*
X127965084Y-106970490D01*
X128018378Y-106968396D01*
X128023324Y-106968299D01*
X128677012Y-106968299D01*
X128745133Y-106988301D01*
X128772393Y-107011968D01*
X128774723Y-107014668D01*
X128778959Y-107020971D01*
X128784576Y-107026082D01*
X128789541Y-107031834D01*
X128788209Y-107032984D01*
X128820222Y-107085559D01*
X128824500Y-107118114D01*
X128824500Y-107757006D01*
X128804498Y-107825127D01*
X128781331Y-107851953D01*
X128713034Y-107911533D01*
X128622501Y-108040348D01*
X128565309Y-108187039D01*
X128544758Y-108343138D01*
X128562035Y-108499633D01*
X128616143Y-108647490D01*
X128620380Y-108653796D01*
X128620382Y-108653799D01*
X128643316Y-108687928D01*
X128703958Y-108778172D01*
X128726270Y-108798474D01*
X128811835Y-108876332D01*
X128820410Y-108884135D01*
X128841885Y-108895795D01*
X128952099Y-108955637D01*
X128952101Y-108955638D01*
X128958776Y-108959262D01*
X128966125Y-108961190D01*
X129103719Y-108997287D01*
X129103721Y-108997287D01*
X129111069Y-108999215D01*
X129194380Y-109000524D01*
X129260898Y-109001569D01*
X129260901Y-109001569D01*
X129268495Y-109001688D01*
X129421968Y-108966538D01*
X129562625Y-108895795D01*
X129588869Y-108873381D01*
X129676574Y-108798474D01*
X129676576Y-108798471D01*
X129682348Y-108793542D01*
X129774224Y-108665683D01*
X129832950Y-108519598D01*
X129855134Y-108363723D01*
X129855278Y-108350000D01*
X129836363Y-108193694D01*
X129780710Y-108046412D01*
X129691531Y-107916657D01*
X129617681Y-107850859D01*
X129580125Y-107790609D01*
X129575500Y-107756783D01*
X129575500Y-107246335D01*
X129595502Y-107178214D01*
X129631477Y-107141687D01*
X129637626Y-107138594D01*
X129699722Y-107085559D01*
X129751575Y-107041273D01*
X129751577Y-107041270D01*
X129757349Y-107036341D01*
X129849225Y-106908482D01*
X129907951Y-106762397D01*
X129917935Y-106692248D01*
X129929554Y-106610606D01*
X129929554Y-106610603D01*
X129930135Y-106606522D01*
X129930279Y-106592799D01*
X129911364Y-106436493D01*
X129892091Y-106385488D01*
X129858395Y-106296313D01*
X129858394Y-106296310D01*
X129855711Y-106289211D01*
X129766532Y-106159456D01*
X129678628Y-106081136D01*
X129654649Y-106059771D01*
X129654646Y-106059769D01*
X129648977Y-106054718D01*
X129509832Y-105981044D01*
X129463284Y-105969352D01*
X129364499Y-105944539D01*
X129364497Y-105944539D01*
X129357129Y-105942688D01*
X129349531Y-105942648D01*
X129349529Y-105942648D01*
X129282320Y-105942296D01*
X129199685Y-105941864D01*
X129192306Y-105943636D01*
X129192302Y-105943636D01*
X129053968Y-105976847D01*
X129053964Y-105976848D01*
X129046589Y-105978619D01*
X128906680Y-106050831D01*
X128900958Y-106055823D01*
X128900956Y-106055824D01*
X128793760Y-106149337D01*
X128793757Y-106149340D01*
X128788035Y-106154332D01*
X128783668Y-106160546D01*
X128783665Y-106160549D01*
X128781416Y-106163749D01*
X128779180Y-106165530D01*
X128778583Y-106166193D01*
X128778472Y-106166093D01*
X128725882Y-106207981D01*
X128678329Y-106217299D01*
X128220524Y-106217299D01*
X128152403Y-106197297D01*
X128131429Y-106180394D01*
X127530553Y-105579518D01*
X127496527Y-105517206D01*
X127493648Y-105490423D01*
X127493648Y-102785475D01*
X131357674Y-102785475D01*
X131375901Y-102993804D01*
X131377804Y-103004599D01*
X131431928Y-103206595D01*
X131435674Y-103216887D01*
X131524054Y-103406417D01*
X131529534Y-103415907D01*
X131558411Y-103457149D01*
X131568887Y-103465523D01*
X131582334Y-103458455D01*
X132247979Y-102792811D01*
X132255592Y-102778868D01*
X132255461Y-102777034D01*
X132251210Y-102770420D01*
X131581609Y-102100820D01*
X131569839Y-102094393D01*
X131557824Y-102103689D01*
X131529534Y-102144093D01*
X131524054Y-102153583D01*
X131435674Y-102343113D01*
X131431928Y-102353405D01*
X131377804Y-102555401D01*
X131375901Y-102566196D01*
X131357674Y-102774525D01*
X131357674Y-102785475D01*
X127493648Y-102785475D01*
X127493648Y-102092896D01*
X127513650Y-102024775D01*
X127537817Y-101997085D01*
X127594724Y-101948482D01*
X127594725Y-101948481D01*
X127600496Y-101943552D01*
X127692372Y-101815693D01*
X127751098Y-101669608D01*
X127760557Y-101603148D01*
X127772701Y-101517817D01*
X127772701Y-101517814D01*
X127773282Y-101513733D01*
X127773426Y-101500010D01*
X127754511Y-101343704D01*
X127728120Y-101273862D01*
X127701542Y-101203524D01*
X127701541Y-101203521D01*
X127698858Y-101196422D01*
X127609679Y-101066667D01*
X127506144Y-100974420D01*
X127497796Y-100966982D01*
X127497793Y-100966980D01*
X127492124Y-100961929D01*
X127352979Y-100888255D01*
X127336270Y-100884058D01*
X127207646Y-100851750D01*
X127207644Y-100851750D01*
X127200276Y-100849899D01*
X127192678Y-100849859D01*
X127192676Y-100849859D01*
X127125467Y-100849507D01*
X127042832Y-100849075D01*
X127035453Y-100850847D01*
X127035449Y-100850847D01*
X126897115Y-100884058D01*
X126897111Y-100884059D01*
X126889736Y-100885830D01*
X126749827Y-100958042D01*
X126744105Y-100963034D01*
X126744103Y-100963035D01*
X126636907Y-101056548D01*
X126636904Y-101056551D01*
X126631182Y-101061543D01*
X126626815Y-101067757D01*
X126562410Y-101159396D01*
X126540649Y-101190358D01*
X126483457Y-101337049D01*
X126482466Y-101344578D01*
X126468299Y-101452188D01*
X126462906Y-101493148D01*
X125767890Y-101493148D01*
X125977692Y-101283346D01*
X125995909Y-101268633D01*
X125997460Y-101267222D01*
X126006210Y-101261572D01*
X126012658Y-101253392D01*
X126012661Y-101253390D01*
X126026734Y-101235539D01*
X126030621Y-101231165D01*
X126030543Y-101231099D01*
X126033898Y-101227140D01*
X126037576Y-101223462D01*
X126040595Y-101219238D01*
X126040602Y-101219229D01*
X126048679Y-101207926D01*
X126052243Y-101203180D01*
X126077154Y-101171580D01*
X126083603Y-101163400D01*
X126086605Y-101154852D01*
X126091872Y-101147481D01*
X126101947Y-101113795D01*
X126106396Y-101098917D01*
X126108231Y-101093270D01*
X126122395Y-101052936D01*
X126122395Y-101052935D01*
X126125023Y-101045452D01*
X126125500Y-101039945D01*
X126125500Y-101037238D01*
X126125611Y-101034668D01*
X126125659Y-101034506D01*
X126125804Y-101034512D01*
X126125843Y-101033892D01*
X126127691Y-101027713D01*
X126125597Y-100974419D01*
X126125500Y-100969473D01*
X126125500Y-100401500D01*
X126145502Y-100333379D01*
X126199158Y-100286886D01*
X126251500Y-100275500D01*
X132346504Y-100275500D01*
X132369801Y-100277979D01*
X132371886Y-100278077D01*
X132382066Y-100280269D01*
X132414984Y-100276373D01*
X132420821Y-100276029D01*
X132420813Y-100275928D01*
X132425992Y-100275500D01*
X132431193Y-100275500D01*
X132436321Y-100274646D01*
X132436327Y-100274646D01*
X132449987Y-100272372D01*
X132455863Y-100271535D01*
X132468840Y-100269999D01*
X132506210Y-100265576D01*
X132514377Y-100261654D01*
X132523313Y-100260167D01*
X132532475Y-100255223D01*
X132532479Y-100255222D01*
X132567929Y-100236094D01*
X132573220Y-100233398D01*
X132611749Y-100214897D01*
X132611750Y-100214896D01*
X132618900Y-100211463D01*
X132623131Y-100207906D01*
X132625063Y-100205974D01*
X132626937Y-100204255D01*
X132627074Y-100204181D01*
X132627174Y-100204291D01*
X132627654Y-100203868D01*
X132633329Y-100200806D01*
X132650820Y-100181885D01*
X132669540Y-100161633D01*
X132672970Y-100158067D01*
X134280663Y-98550374D01*
X134342975Y-98516348D01*
X134413790Y-98521413D01*
G37*
%TD.AperFunction*%
%TA.AperFunction,Conductor*%
G36*
X136160394Y-98495502D02*
G01*
X136181368Y-98512405D01*
X136331652Y-98662689D01*
X136346377Y-98680920D01*
X136347778Y-98682460D01*
X136353428Y-98691210D01*
X136361606Y-98697657D01*
X136379465Y-98711736D01*
X136383834Y-98715619D01*
X136383900Y-98715541D01*
X136387855Y-98718892D01*
X136391539Y-98722576D01*
X136395779Y-98725605D01*
X136395778Y-98725605D01*
X136407049Y-98733660D01*
X136411798Y-98737226D01*
X136443415Y-98762152D01*
X136443422Y-98762156D01*
X136451600Y-98768603D01*
X136460149Y-98771605D01*
X136467519Y-98776872D01*
X136477500Y-98779857D01*
X136516083Y-98791396D01*
X136521730Y-98793231D01*
X136567057Y-98809149D01*
X136624702Y-98850592D01*
X136648389Y-98909895D01*
X136649500Y-98909674D01*
X136664034Y-98982740D01*
X136670930Y-98993060D01*
X136670930Y-98993061D01*
X136675565Y-98999999D01*
X136696780Y-99067752D01*
X136675565Y-99140001D01*
X136670930Y-99146939D01*
X136664034Y-99157260D01*
X136649500Y-99230326D01*
X136649500Y-100179674D01*
X136664034Y-100252740D01*
X136670930Y-100263060D01*
X136670930Y-100263061D01*
X136675565Y-100269999D01*
X136696780Y-100337752D01*
X136675565Y-100410001D01*
X136670930Y-100416939D01*
X136664034Y-100427260D01*
X136649500Y-100500326D01*
X136649500Y-101284827D01*
X136629498Y-101352948D01*
X136599065Y-101385653D01*
X136544276Y-101426715D01*
X136531715Y-101439276D01*
X136455214Y-101541351D01*
X136446676Y-101556946D01*
X136405155Y-101667703D01*
X136362513Y-101724467D01*
X136330784Y-101741685D01*
X136305557Y-101750992D01*
X136295179Y-101755942D01*
X136204146Y-101810101D01*
X136194547Y-101820436D01*
X136198033Y-101828823D01*
X136347398Y-101978188D01*
X136370860Y-101991000D01*
X138028000Y-101991000D01*
X138096121Y-102011002D01*
X138142614Y-102064658D01*
X138154000Y-102117000D01*
X138154000Y-103643000D01*
X138133998Y-103711121D01*
X138080342Y-103757614D01*
X138028000Y-103769000D01*
X137459872Y-103769000D01*
X137459872Y-103767442D01*
X137433505Y-103767442D01*
X137433106Y-103771157D01*
X137413040Y-103769000D01*
X136478000Y-103769000D01*
X136409879Y-103748998D01*
X136363386Y-103695342D01*
X136352000Y-103643000D01*
X136352000Y-103387000D01*
X136372002Y-103318879D01*
X136425658Y-103272386D01*
X136478000Y-103261000D01*
X136893675Y-103261000D01*
X136904700Y-103257763D01*
X136901462Y-103250672D01*
X136153027Y-102502237D01*
X136875300Y-102502237D01*
X136878538Y-102509328D01*
X137617398Y-103248188D01*
X137636323Y-103258522D01*
X137643124Y-103256525D01*
X137644329Y-103255135D01*
X137646000Y-103247452D01*
X137646000Y-102517115D01*
X137641525Y-102501876D01*
X137640135Y-102500671D01*
X137632452Y-102499000D01*
X136886325Y-102499000D01*
X136875300Y-102502237D01*
X136153027Y-102502237D01*
X135840031Y-102189241D01*
X135827651Y-102182481D01*
X135821685Y-102186947D01*
X135741452Y-102339445D01*
X135737047Y-102350079D01*
X135678724Y-102537910D01*
X135676332Y-102549164D01*
X135653215Y-102744479D01*
X135652914Y-102755980D01*
X135666152Y-102957954D01*
X135650648Y-103027237D01*
X135600148Y-103077140D01*
X135530686Y-103091818D01*
X135464314Y-103066612D01*
X135451327Y-103055290D01*
X135012405Y-102616368D01*
X134978379Y-102554056D01*
X134975500Y-102527273D01*
X134975500Y-101729132D01*
X134995502Y-101661011D01*
X135049158Y-101614518D01*
X135103479Y-101603148D01*
X135105486Y-101603180D01*
X135112621Y-101603292D01*
X135112624Y-101603292D01*
X135120218Y-101603411D01*
X135273691Y-101568261D01*
X135414348Y-101497518D01*
X135497248Y-101426715D01*
X135528297Y-101400197D01*
X135528299Y-101400194D01*
X135534071Y-101395265D01*
X135625947Y-101267406D01*
X135631582Y-101253390D01*
X135670158Y-101157427D01*
X135684673Y-101121321D01*
X135693891Y-101056548D01*
X135706276Y-100969530D01*
X135706276Y-100969527D01*
X135706857Y-100965446D01*
X135707001Y-100951723D01*
X135688086Y-100795417D01*
X135632433Y-100648135D01*
X135543254Y-100518380D01*
X135542780Y-100517957D01*
X135513988Y-100456322D01*
X135523487Y-100385964D01*
X135556715Y-100341509D01*
X135596411Y-100307605D01*
X135688287Y-100179746D01*
X135747013Y-100033661D01*
X135756190Y-99969182D01*
X135768616Y-99881870D01*
X135768616Y-99881867D01*
X135769197Y-99877786D01*
X135769341Y-99864063D01*
X135750426Y-99707757D01*
X135694773Y-99560475D01*
X135605594Y-99430720D01*
X135606187Y-99430313D01*
X135578584Y-99371213D01*
X135588088Y-99300855D01*
X135608284Y-99270140D01*
X135610144Y-99268552D01*
X135702020Y-99140693D01*
X135760746Y-98994608D01*
X135782930Y-98838733D01*
X135783074Y-98825010D01*
X135764159Y-98668704D01*
X135755594Y-98646037D01*
X135750226Y-98575246D01*
X135783983Y-98512788D01*
X135846148Y-98478496D01*
X135873460Y-98475500D01*
X136092273Y-98475500D01*
X136160394Y-98495502D01*
G37*
%TD.AperFunction*%
%TA.AperFunction,Conductor*%
G36*
X136536684Y-94870002D02*
G01*
X136583177Y-94923658D01*
X136593281Y-94993932D01*
X136563787Y-95058512D01*
X136544667Y-95076324D01*
X136531715Y-95089276D01*
X136455214Y-95191351D01*
X136446676Y-95206946D01*
X136401522Y-95327394D01*
X136397895Y-95342649D01*
X136392369Y-95393514D01*
X136392000Y-95400328D01*
X136392000Y-95622885D01*
X136396475Y-95638124D01*
X136397865Y-95639329D01*
X136405548Y-95641000D01*
X138028000Y-95641000D01*
X138096121Y-95661002D01*
X138142614Y-95714658D01*
X138154000Y-95767000D01*
X138154000Y-96023000D01*
X138133998Y-96091121D01*
X138080342Y-96137614D01*
X138028000Y-96149000D01*
X136410116Y-96149000D01*
X136394877Y-96153475D01*
X136393672Y-96154865D01*
X136392001Y-96162548D01*
X136392001Y-96215906D01*
X136371999Y-96284027D01*
X136318343Y-96330520D01*
X136248069Y-96340624D01*
X136187996Y-96314857D01*
X136166936Y-96298255D01*
X136162568Y-96294373D01*
X136162502Y-96294451D01*
X136158544Y-96291097D01*
X136154862Y-96287415D01*
X136150631Y-96284392D01*
X136150628Y-96284389D01*
X136145809Y-96280946D01*
X136139348Y-96276329D01*
X136134612Y-96272773D01*
X136094800Y-96241387D01*
X136086251Y-96238385D01*
X136078881Y-96233118D01*
X136045603Y-96223166D01*
X136030330Y-96218598D01*
X136024686Y-96216764D01*
X135984335Y-96202594D01*
X135984329Y-96202593D01*
X135976852Y-96199967D01*
X135971345Y-96199490D01*
X135968638Y-96199490D01*
X135966065Y-96199379D01*
X135965906Y-96199331D01*
X135965912Y-96199187D01*
X135965292Y-96199148D01*
X135959113Y-96197300D01*
X135905845Y-96199393D01*
X135900898Y-96199490D01*
X135547577Y-96199490D01*
X135479456Y-96179488D01*
X135451853Y-96152726D01*
X135450856Y-96153605D01*
X135445837Y-96147912D01*
X135441531Y-96141647D01*
X135384822Y-96091121D01*
X135329648Y-96041962D01*
X135329645Y-96041960D01*
X135323976Y-96036909D01*
X135184831Y-95963235D01*
X135168122Y-95959038D01*
X135039498Y-95926730D01*
X135039496Y-95926730D01*
X135032128Y-95924879D01*
X135024530Y-95924839D01*
X135024528Y-95924839D01*
X134957319Y-95924487D01*
X134874684Y-95924055D01*
X134867305Y-95925827D01*
X134867301Y-95925827D01*
X134728967Y-95959038D01*
X134728963Y-95959039D01*
X134721588Y-95960810D01*
X134581679Y-96033022D01*
X134575957Y-96038014D01*
X134575955Y-96038015D01*
X134468759Y-96131528D01*
X134468756Y-96131531D01*
X134463034Y-96136523D01*
X134451120Y-96153475D01*
X134388153Y-96243068D01*
X134372501Y-96265338D01*
X134315309Y-96412029D01*
X134314318Y-96419558D01*
X134297037Y-96550821D01*
X134294758Y-96568128D01*
X134312035Y-96724623D01*
X134366143Y-96872480D01*
X134453958Y-97003162D01*
X134570410Y-97109125D01*
X134577085Y-97112749D01*
X134702099Y-97180627D01*
X134702101Y-97180628D01*
X134708776Y-97184252D01*
X134716125Y-97186180D01*
X134853719Y-97222277D01*
X134853721Y-97222277D01*
X134861069Y-97224205D01*
X134944380Y-97225514D01*
X135010898Y-97226559D01*
X135010901Y-97226559D01*
X135018495Y-97226678D01*
X135171968Y-97191528D01*
X135312625Y-97120785D01*
X135362941Y-97077811D01*
X135426574Y-97023464D01*
X135426576Y-97023461D01*
X135432348Y-97018532D01*
X135436777Y-97012368D01*
X135436780Y-97012365D01*
X135443536Y-97002963D01*
X135499531Y-96959316D01*
X135545858Y-96950490D01*
X135703673Y-96950490D01*
X135771794Y-96970492D01*
X135792768Y-96987395D01*
X136198062Y-97392689D01*
X136212787Y-97410920D01*
X136214188Y-97412460D01*
X136219838Y-97421210D01*
X136228016Y-97427657D01*
X136245875Y-97441736D01*
X136250242Y-97445617D01*
X136250308Y-97445539D01*
X136254266Y-97448893D01*
X136257948Y-97452575D01*
X136262179Y-97455598D01*
X136262182Y-97455601D01*
X136267001Y-97459044D01*
X136273462Y-97463661D01*
X136278198Y-97467217D01*
X136318010Y-97498603D01*
X136315745Y-97501476D01*
X136352493Y-97538442D01*
X136367379Y-97607860D01*
X136342372Y-97674307D01*
X136285410Y-97716685D01*
X136241727Y-97724500D01*
X134253496Y-97724500D01*
X134230208Y-97722021D01*
X134228110Y-97721922D01*
X134217933Y-97719731D01*
X134185870Y-97723526D01*
X134185015Y-97723627D01*
X134179179Y-97723971D01*
X134179187Y-97724072D01*
X134174008Y-97724500D01*
X134168807Y-97724500D01*
X134163677Y-97725354D01*
X134163675Y-97725354D01*
X134150008Y-97727629D01*
X134144131Y-97728466D01*
X134093790Y-97734424D01*
X134085623Y-97738346D01*
X134076687Y-97739833D01*
X134067525Y-97744777D01*
X134067521Y-97744778D01*
X134032071Y-97763906D01*
X134026780Y-97766602D01*
X133992212Y-97783201D01*
X133981100Y-97788537D01*
X133976869Y-97792094D01*
X133974937Y-97794026D01*
X133973063Y-97795745D01*
X133972926Y-97795819D01*
X133972826Y-97795709D01*
X133972346Y-97796132D01*
X133966671Y-97799194D01*
X133959602Y-97806841D01*
X133959601Y-97806842D01*
X133930460Y-97838367D01*
X133927030Y-97841933D01*
X132281368Y-99487595D01*
X132219056Y-99521621D01*
X132192273Y-99524500D01*
X126330549Y-99524500D01*
X126262428Y-99504498D01*
X126241454Y-99487595D01*
X125588988Y-98835129D01*
X125554962Y-98772817D01*
X125560027Y-98702002D01*
X125602574Y-98645166D01*
X125669094Y-98620355D01*
X125712228Y-98624749D01*
X125846993Y-98662689D01*
X125891933Y-98675341D01*
X126094776Y-98715619D01*
X126354027Y-98767098D01*
X126354030Y-98767098D01*
X126356455Y-98767580D01*
X126573553Y-98793231D01*
X126824315Y-98822860D01*
X126824326Y-98822861D01*
X126826773Y-98823150D01*
X127300000Y-98841712D01*
X127773227Y-98823150D01*
X127775674Y-98822861D01*
X127775685Y-98822860D01*
X128026447Y-98793231D01*
X128243545Y-98767580D01*
X128245970Y-98767098D01*
X128245973Y-98767098D01*
X128505224Y-98715619D01*
X128708067Y-98675341D01*
X129163936Y-98547001D01*
X129166248Y-98546150D01*
X129166253Y-98546148D01*
X129606028Y-98384206D01*
X129606033Y-98384204D01*
X129608352Y-98383350D01*
X130038585Y-98185391D01*
X130451991Y-97954341D01*
X130769336Y-97742755D01*
X130843970Y-97692994D01*
X130843973Y-97692992D01*
X130846029Y-97691621D01*
X131218279Y-97398845D01*
X131519845Y-97120785D01*
X131564627Y-97079494D01*
X131564630Y-97079491D01*
X131566452Y-97077811D01*
X131888411Y-96730492D01*
X132182176Y-96359022D01*
X132194514Y-96340624D01*
X132313928Y-96162548D01*
X132445943Y-95965683D01*
X132678090Y-95552893D01*
X132747148Y-95403852D01*
X132876153Y-95125431D01*
X132876156Y-95125425D01*
X132877192Y-95123188D01*
X132948119Y-94932145D01*
X132990579Y-94875246D01*
X133057061Y-94850335D01*
X133066240Y-94850000D01*
X136468563Y-94850000D01*
X136536684Y-94870002D01*
G37*
%TD.AperFunction*%
%TA.AperFunction,Conductor*%
G36*
X122531241Y-96518492D02*
G01*
X122569502Y-96550821D01*
X122711589Y-96730492D01*
X123033548Y-97077811D01*
X123035370Y-97079491D01*
X123035373Y-97079494D01*
X123080155Y-97120785D01*
X123381721Y-97398845D01*
X123512211Y-97501476D01*
X123706710Y-97654450D01*
X123747889Y-97712284D01*
X123751263Y-97783201D01*
X123715761Y-97844684D01*
X123652654Y-97877212D01*
X123628816Y-97879488D01*
X123500668Y-97879488D01*
X123477379Y-97877009D01*
X123475288Y-97876910D01*
X123465105Y-97874718D01*
X123454763Y-97875942D01*
X123432179Y-97878615D01*
X123426349Y-97878959D01*
X123426357Y-97879060D01*
X123421178Y-97879488D01*
X123415978Y-97879488D01*
X123410852Y-97880341D01*
X123410843Y-97880342D01*
X123397194Y-97882614D01*
X123391318Y-97883451D01*
X123379803Y-97884814D01*
X123340962Y-97889411D01*
X123332793Y-97893334D01*
X123323858Y-97894821D01*
X123279235Y-97918899D01*
X123273972Y-97921580D01*
X123228271Y-97943525D01*
X123224040Y-97947082D01*
X123222108Y-97949014D01*
X123220234Y-97950733D01*
X123220097Y-97950807D01*
X123219997Y-97950697D01*
X123219517Y-97951120D01*
X123213842Y-97954182D01*
X123206773Y-97961829D01*
X123206772Y-97961830D01*
X123177631Y-97993355D01*
X123174201Y-97996921D01*
X122878229Y-98292893D01*
X122815917Y-98326919D01*
X122788475Y-98329796D01*
X122730035Y-98329490D01*
X122646853Y-98329055D01*
X122639474Y-98330827D01*
X122639470Y-98330827D01*
X122501136Y-98364038D01*
X122501132Y-98364039D01*
X122493757Y-98365810D01*
X122353848Y-98438022D01*
X122348124Y-98443015D01*
X122347324Y-98443559D01*
X122279740Y-98465306D01*
X122211128Y-98447063D01*
X122163270Y-98394620D01*
X122150500Y-98339348D01*
X122150500Y-97960326D01*
X122135966Y-97887260D01*
X122127586Y-97874718D01*
X122124435Y-97870001D01*
X122103220Y-97802248D01*
X122124435Y-97729999D01*
X122129070Y-97723061D01*
X122129070Y-97723060D01*
X122135966Y-97712740D01*
X122150500Y-97639674D01*
X122150500Y-96855173D01*
X122170502Y-96787052D01*
X122200935Y-96754347D01*
X122255724Y-96713285D01*
X122268285Y-96700724D01*
X122344786Y-96598649D01*
X122357634Y-96575182D01*
X122359222Y-96576051D01*
X122395331Y-96527984D01*
X122461893Y-96503284D01*
X122531241Y-96518492D01*
G37*
%TD.AperFunction*%
%TD*%
M02*
