M48
; DRILL file {KiCad (5.1.9-0-10_14)} date Friday, April 09, 2021 at 04:47:01 PM
; FORMAT={-:-/ absolute / inch / decimal}
; #@! TF.CreationDate,2021-04-09T16:47:01+01:00
; #@! TF.GenerationSoftware,Kicad,Pcbnew,(5.1.9-0-10_14)
; #@! TF.FileFunction,Plated,1,2,PTH
FMAT,2
INCH
T1C0.0157
T2C0.0236
T3C0.0300
T4C0.0335
T5C0.0394
T6C0.0472
T7C0.0591
%
G90
G05
T1
X4.4685Y-3.9291
X4.6117Y-4.4926
X4.6732Y-4.5305
X4.7041Y-4.5046
X4.7351Y-4.0758
X4.752Y-4.3701
X4.7705Y-4.093
X4.7995Y-4.3463
X4.8694Y-4.3513
X4.8859Y-4.9656
X4.9204Y-4.2815
X4.9224Y-3.9862
X4.9488Y-4.0236
X4.9498Y-4.1102
X4.9754Y-4.4603
X5.0067Y-4.1396
X5.0282Y-4.5553
X5.0354Y-4.0236
X5.0512Y-4.7559
X5.0595Y-4.3475
X5.0827Y-4.0787
X5.088Y-4.4291
X5.0899Y-4.4889
X5.103Y-4.5327
T2
X4.6492Y-4.1657
X4.6492Y-4.3933
T3
X4.8563Y-4.5374
T4
X4.5433Y-4.7402
X4.6417Y-4.7402
X4.7402Y-4.7402
X4.8386Y-4.7402
T5
X4.5157Y-4.937
X4.6157Y-4.937
X4.7157Y-4.937
X4.8157Y-4.937
X5.0224Y-3.928
T6
X4.5035Y-4.1093
X4.5035Y-4.4498
T7
X4.6681Y-4.1093
X4.6681Y-4.4498
T0
M30
