%TF.GenerationSoftware,KiCad,Pcbnew,(5.1.9-0-10_14)*%
%TF.CreationDate,2021-05-20T09:36:31+01:00*%
%TF.ProjectId,Keypad,4b657970-6164-42e6-9b69-6361645f7063,4*%
%TF.SameCoordinates,Original*%
%TF.FileFunction,Legend,Top*%
%TF.FilePolarity,Positive*%
%FSLAX46Y46*%
G04 Gerber Fmt 4.6, Leading zero omitted, Abs format (unit mm)*
G04 Created by KiCad (PCBNEW (5.1.9-0-10_14)) date 2021-05-20 09:36:31*
%MOMM*%
%LPD*%
G01*
G04 APERTURE LIST*
%ADD10C,0.120000*%
%ADD11C,0.150000*%
G04 APERTURE END LIST*
D10*
%TO.C,R6*%
X135522936Y-96810000D02*
X136977064Y-96810000D01*
X135522936Y-94990000D02*
X136977064Y-94990000D01*
%TO.C,R7*%
X136977064Y-97440000D02*
X135522936Y-97440000D01*
X136977064Y-99260000D02*
X135522936Y-99260000D01*
%TO.C,J2*%
X139590000Y-109270000D02*
X132240000Y-109270000D01*
X132240000Y-109270000D02*
X132240000Y-100330000D01*
X132240000Y-100330000D02*
X139590000Y-100330000D01*
X139590000Y-109270000D02*
X139590000Y-100330000D01*
%TO.C,U3*%
X125965000Y-116040000D02*
X125965000Y-114350000D01*
X126710000Y-116040000D02*
X125965000Y-116040000D01*
X126710000Y-118800000D02*
X126710000Y-116040000D01*
X126710000Y-121560000D02*
X125965000Y-121560000D01*
X126710000Y-118800000D02*
X126710000Y-121560000D01*
X120290000Y-116040000D02*
X121035000Y-116040000D01*
X120290000Y-118800000D02*
X120290000Y-116040000D01*
X120290000Y-121560000D02*
X121035000Y-121560000D01*
X120290000Y-118800000D02*
X120290000Y-121560000D01*
%TO.C,J3*%
X138030000Y-120170000D02*
X138030000Y-121500000D01*
X136700000Y-120170000D02*
X138030000Y-120170000D01*
X135430000Y-120170000D02*
X135430000Y-122830000D01*
X135430000Y-122830000D02*
X127750000Y-122830000D01*
X135430000Y-120170000D02*
X127750000Y-120170000D01*
X127750000Y-120170000D02*
X127750000Y-122830000D01*
%TO.C,U2*%
X124865000Y-109940000D02*
X124865000Y-109215000D01*
X124865000Y-109215000D02*
X125590000Y-109215000D01*
X129085000Y-112710000D02*
X129085000Y-113435000D01*
X129085000Y-113435000D02*
X128360000Y-113435000D01*
X129085000Y-109940000D02*
X129085000Y-109215000D01*
X129085000Y-109215000D02*
X128360000Y-109215000D01*
X124865000Y-112710000D02*
X124865000Y-113435000D01*
%TO.C,Reg1*%
X120800000Y-94700000D02*
X128800000Y-94700000D01*
X128800000Y-94700000D02*
X128800000Y-103700000D01*
X128800000Y-103700000D02*
X120800000Y-103700000D01*
X120800000Y-103700000D02*
X120800000Y-94700000D01*
%TO.C,R6*%
D11*
X132533333Y-96402380D02*
X132200000Y-95926190D01*
X131961904Y-96402380D02*
X131961904Y-95402380D01*
X132342857Y-95402380D01*
X132438095Y-95450000D01*
X132485714Y-95497619D01*
X132533333Y-95592857D01*
X132533333Y-95735714D01*
X132485714Y-95830952D01*
X132438095Y-95878571D01*
X132342857Y-95926190D01*
X131961904Y-95926190D01*
X133390476Y-95402380D02*
X133200000Y-95402380D01*
X133104761Y-95450000D01*
X133057142Y-95497619D01*
X132961904Y-95640476D01*
X132914285Y-95830952D01*
X132914285Y-96211904D01*
X132961904Y-96307142D01*
X133009523Y-96354761D01*
X133104761Y-96402380D01*
X133295238Y-96402380D01*
X133390476Y-96354761D01*
X133438095Y-96307142D01*
X133485714Y-96211904D01*
X133485714Y-95973809D01*
X133438095Y-95878571D01*
X133390476Y-95830952D01*
X133295238Y-95783333D01*
X133104761Y-95783333D01*
X133009523Y-95830952D01*
X132961904Y-95878571D01*
X132914285Y-95973809D01*
%TO.C,R7*%
X132533333Y-98852380D02*
X132200000Y-98376190D01*
X131961904Y-98852380D02*
X131961904Y-97852380D01*
X132342857Y-97852380D01*
X132438095Y-97900000D01*
X132485714Y-97947619D01*
X132533333Y-98042857D01*
X132533333Y-98185714D01*
X132485714Y-98280952D01*
X132438095Y-98328571D01*
X132342857Y-98376190D01*
X131961904Y-98376190D01*
X132866666Y-97852380D02*
X133533333Y-97852380D01*
X133104761Y-98852380D01*
%TO.C,J2*%
X137052380Y-116833333D02*
X137766666Y-116833333D01*
X137909523Y-116880952D01*
X138004761Y-116976190D01*
X138052380Y-117119047D01*
X138052380Y-117214285D01*
X137147619Y-116404761D02*
X137100000Y-116357142D01*
X137052380Y-116261904D01*
X137052380Y-116023809D01*
X137100000Y-115928571D01*
X137147619Y-115880952D01*
X137242857Y-115833333D01*
X137338095Y-115833333D01*
X137480952Y-115880952D01*
X138052380Y-116452380D01*
X138052380Y-115833333D01*
%TO.C,U3*%
X122538095Y-118352380D02*
X122538095Y-119161904D01*
X122585714Y-119257142D01*
X122633333Y-119304761D01*
X122728571Y-119352380D01*
X122919047Y-119352380D01*
X123014285Y-119304761D01*
X123061904Y-119257142D01*
X123109523Y-119161904D01*
X123109523Y-118352380D01*
X123490476Y-118352380D02*
X124109523Y-118352380D01*
X123776190Y-118733333D01*
X123919047Y-118733333D01*
X124014285Y-118780952D01*
X124061904Y-118828571D01*
X124109523Y-118923809D01*
X124109523Y-119161904D01*
X124061904Y-119257142D01*
X124014285Y-119304761D01*
X123919047Y-119352380D01*
X123633333Y-119352380D01*
X123538095Y-119304761D01*
X123490476Y-119257142D01*
%TO.C,J3*%
X137052380Y-119133333D02*
X137766666Y-119133333D01*
X137909523Y-119180952D01*
X138004761Y-119276190D01*
X138052380Y-119419047D01*
X138052380Y-119514285D01*
X137052380Y-118752380D02*
X137052380Y-118133333D01*
X137433333Y-118466666D01*
X137433333Y-118323809D01*
X137480952Y-118228571D01*
X137528571Y-118180952D01*
X137623809Y-118133333D01*
X137861904Y-118133333D01*
X137957142Y-118180952D01*
X138004761Y-118228571D01*
X138052380Y-118323809D01*
X138052380Y-118609523D01*
X138004761Y-118704761D01*
X137957142Y-118752380D01*
%TO.C,U2*%
X123127380Y-112086904D02*
X123936904Y-112086904D01*
X124032142Y-112039285D01*
X124079761Y-111991666D01*
X124127380Y-111896428D01*
X124127380Y-111705952D01*
X124079761Y-111610714D01*
X124032142Y-111563095D01*
X123936904Y-111515476D01*
X123127380Y-111515476D01*
X123222619Y-111086904D02*
X123175000Y-111039285D01*
X123127380Y-110944047D01*
X123127380Y-110705952D01*
X123175000Y-110610714D01*
X123222619Y-110563095D01*
X123317857Y-110515476D01*
X123413095Y-110515476D01*
X123555952Y-110563095D01*
X124127380Y-111134523D01*
X124127380Y-110515476D01*
%TO.C,Reg1*%
X121402380Y-105002380D02*
X121069047Y-104526190D01*
X120830952Y-105002380D02*
X120830952Y-104002380D01*
X121211904Y-104002380D01*
X121307142Y-104050000D01*
X121354761Y-104097619D01*
X121402380Y-104192857D01*
X121402380Y-104335714D01*
X121354761Y-104430952D01*
X121307142Y-104478571D01*
X121211904Y-104526190D01*
X120830952Y-104526190D01*
X122211904Y-104954761D02*
X122116666Y-105002380D01*
X121926190Y-105002380D01*
X121830952Y-104954761D01*
X121783333Y-104859523D01*
X121783333Y-104478571D01*
X121830952Y-104383333D01*
X121926190Y-104335714D01*
X122116666Y-104335714D01*
X122211904Y-104383333D01*
X122259523Y-104478571D01*
X122259523Y-104573809D01*
X121783333Y-104669047D01*
X123116666Y-104335714D02*
X123116666Y-105145238D01*
X123069047Y-105240476D01*
X123021428Y-105288095D01*
X122926190Y-105335714D01*
X122783333Y-105335714D01*
X122688095Y-105288095D01*
X123116666Y-104954761D02*
X123021428Y-105002380D01*
X122830952Y-105002380D01*
X122735714Y-104954761D01*
X122688095Y-104907142D01*
X122640476Y-104811904D01*
X122640476Y-104526190D01*
X122688095Y-104430952D01*
X122735714Y-104383333D01*
X122830952Y-104335714D01*
X123021428Y-104335714D01*
X123116666Y-104383333D01*
X124116666Y-105002380D02*
X123545238Y-105002380D01*
X123830952Y-105002380D02*
X123830952Y-104002380D01*
X123735714Y-104145238D01*
X123640476Y-104240476D01*
X123545238Y-104288095D01*
%TD*%
M02*
