%TF.GenerationSoftware,KiCad,Pcbnew,(5.1.9-0-10_14)*%
%TF.CreationDate,2021-04-15T09:22:03+01:00*%
%TF.ProjectId,PN532,504e3533-322e-46b6-9963-61645f706362,rev?*%
%TF.SameCoordinates,Original*%
%TF.FileFunction,Legend,Top*%
%TF.FilePolarity,Positive*%
%FSLAX46Y46*%
G04 Gerber Fmt 4.6, Leading zero omitted, Abs format (unit mm)*
G04 Created by KiCad (PCBNEW (5.1.9-0-10_14)) date 2021-04-15 09:22:03*
%MOMM*%
%LPD*%
G01*
G04 APERTURE LIST*
%ADD10C,0.150000*%
%ADD11C,0.120000*%
G04 APERTURE END LIST*
D10*
X130004761Y-91052380D02*
X130576190Y-91052380D01*
X130290476Y-92052380D02*
X130290476Y-91052380D01*
X131338095Y-92052380D02*
X131338095Y-91528571D01*
X131290476Y-91433333D01*
X131195238Y-91385714D01*
X131004761Y-91385714D01*
X130909523Y-91433333D01*
X131338095Y-92004761D02*
X131242857Y-92052380D01*
X131004761Y-92052380D01*
X130909523Y-92004761D01*
X130861904Y-91909523D01*
X130861904Y-91814285D01*
X130909523Y-91719047D01*
X131004761Y-91671428D01*
X131242857Y-91671428D01*
X131338095Y-91623809D01*
X131814285Y-92052380D02*
X131814285Y-91385714D01*
X131814285Y-91480952D02*
X131861904Y-91433333D01*
X131957142Y-91385714D01*
X132100000Y-91385714D01*
X132195238Y-91433333D01*
X132242857Y-91528571D01*
X132242857Y-92052380D01*
X132242857Y-91528571D02*
X132290476Y-91433333D01*
X132385714Y-91385714D01*
X132528571Y-91385714D01*
X132623809Y-91433333D01*
X132671428Y-91528571D01*
X132671428Y-92052380D01*
X133147619Y-91385714D02*
X133147619Y-92385714D01*
X133147619Y-91433333D02*
X133242857Y-91385714D01*
X133433333Y-91385714D01*
X133528571Y-91433333D01*
X133576190Y-91480952D01*
X133623809Y-91576190D01*
X133623809Y-91861904D01*
X133576190Y-91957142D01*
X133528571Y-92004761D01*
X133433333Y-92052380D01*
X133242857Y-92052380D01*
X133147619Y-92004761D01*
X134433333Y-92004761D02*
X134338095Y-92052380D01*
X134147619Y-92052380D01*
X134052380Y-92004761D01*
X134004761Y-91909523D01*
X134004761Y-91528571D01*
X134052380Y-91433333D01*
X134147619Y-91385714D01*
X134338095Y-91385714D01*
X134433333Y-91433333D01*
X134480952Y-91528571D01*
X134480952Y-91623809D01*
X134004761Y-91719047D01*
X134909523Y-92052380D02*
X134909523Y-91385714D01*
X134909523Y-91576190D02*
X134957142Y-91480952D01*
X135004761Y-91433333D01*
X135100000Y-91385714D01*
X135195238Y-91385714D01*
X106261904Y-77500000D02*
X106166666Y-77452380D01*
X106023809Y-77452380D01*
X105880952Y-77500000D01*
X105785714Y-77595238D01*
X105738095Y-77690476D01*
X105690476Y-77880952D01*
X105690476Y-78023809D01*
X105738095Y-78214285D01*
X105785714Y-78309523D01*
X105880952Y-78404761D01*
X106023809Y-78452380D01*
X106119047Y-78452380D01*
X106261904Y-78404761D01*
X106309523Y-78357142D01*
X106309523Y-78023809D01*
X106119047Y-78023809D01*
X105761904Y-73166666D02*
X106238095Y-73166666D01*
X105666666Y-73452380D02*
X106000000Y-72452380D01*
X106333333Y-73452380D01*
X106309523Y-68452380D02*
X105976190Y-67976190D01*
X105738095Y-68452380D02*
X105738095Y-67452380D01*
X106119047Y-67452380D01*
X106214285Y-67500000D01*
X106261904Y-67547619D01*
X106309523Y-67642857D01*
X106309523Y-67785714D01*
X106261904Y-67880952D01*
X106214285Y-67928571D01*
X106119047Y-67976190D01*
X105738095Y-67976190D01*
X125252380Y-93366666D02*
X124776190Y-93700000D01*
X125252380Y-93938095D02*
X124252380Y-93938095D01*
X124252380Y-93557142D01*
X124300000Y-93461904D01*
X124347619Y-93414285D01*
X124442857Y-93366666D01*
X124585714Y-93366666D01*
X124680952Y-93414285D01*
X124728571Y-93461904D01*
X124776190Y-93557142D01*
X124776190Y-93938095D01*
X124252380Y-93033333D02*
X125252380Y-92366666D01*
X124252380Y-92366666D02*
X125252380Y-93033333D01*
X122062380Y-93961904D02*
X122062380Y-93390476D01*
X123062380Y-93676190D02*
X122062380Y-93676190D01*
X122062380Y-93152380D02*
X123062380Y-92485714D01*
X122062380Y-92485714D02*
X123062380Y-93152380D01*
X119252380Y-94533333D02*
X120252380Y-94200000D01*
X119252380Y-93866666D01*
X120157142Y-92961904D02*
X120204761Y-93009523D01*
X120252380Y-93152380D01*
X120252380Y-93247619D01*
X120204761Y-93390476D01*
X120109523Y-93485714D01*
X120014285Y-93533333D01*
X119823809Y-93580952D01*
X119680952Y-93580952D01*
X119490476Y-93533333D01*
X119395238Y-93485714D01*
X119300000Y-93390476D01*
X119252380Y-93247619D01*
X119252380Y-93152380D01*
X119300000Y-93009523D01*
X119347619Y-92961904D01*
X120157142Y-91961904D02*
X120204761Y-92009523D01*
X120252380Y-92152380D01*
X120252380Y-92247619D01*
X120204761Y-92390476D01*
X120109523Y-92485714D01*
X120014285Y-92533333D01*
X119823809Y-92580952D01*
X119680952Y-92580952D01*
X119490476Y-92533333D01*
X119395238Y-92485714D01*
X119300000Y-92390476D01*
X119252380Y-92247619D01*
X119252380Y-92152380D01*
X119300000Y-92009523D01*
X119347619Y-91961904D01*
X116800000Y-93961904D02*
X116752380Y-94057142D01*
X116752380Y-94200000D01*
X116800000Y-94342857D01*
X116895238Y-94438095D01*
X116990476Y-94485714D01*
X117180952Y-94533333D01*
X117323809Y-94533333D01*
X117514285Y-94485714D01*
X117609523Y-94438095D01*
X117704761Y-94342857D01*
X117752380Y-94200000D01*
X117752380Y-94104761D01*
X117704761Y-93961904D01*
X117657142Y-93914285D01*
X117323809Y-93914285D01*
X117323809Y-94104761D01*
X117752380Y-93485714D02*
X116752380Y-93485714D01*
X117752380Y-92914285D01*
X116752380Y-92914285D01*
X117752380Y-92438095D02*
X116752380Y-92438095D01*
X116752380Y-92200000D01*
X116800000Y-92057142D01*
X116895238Y-91961904D01*
X116990476Y-91914285D01*
X117180952Y-91866666D01*
X117323809Y-91866666D01*
X117514285Y-91914285D01*
X117609523Y-91961904D01*
X117704761Y-92057142D01*
X117752380Y-92200000D01*
X117752380Y-92438095D01*
D11*
%TO.C,A1*%
X105000000Y-58500000D02*
X137000000Y-58500000D01*
X100500000Y-95000000D02*
X100500000Y-63000000D01*
X137000000Y-99500000D02*
X105000000Y-99500000D01*
X141500000Y-63000000D02*
X141500000Y-95000000D01*
X137500000Y-63000000D02*
X137500000Y-95000000D01*
X105000000Y-62500000D02*
X137000000Y-62500000D01*
X104500000Y-95000000D02*
X104500000Y-63000000D01*
X137000000Y-95500000D02*
X105000000Y-95500000D01*
X141500000Y-63000000D02*
G75*
G03*
X137000000Y-58500000I-4500000J0D01*
G01*
X105000000Y-58500000D02*
G75*
G03*
X100500000Y-63000000I0J-4500000D01*
G01*
X100500000Y-95000000D02*
G75*
G03*
X105000000Y-99500000I4500000J0D01*
G01*
X137000000Y-99500000D02*
G75*
G03*
X141500000Y-95000000I0J4500000D01*
G01*
X137500000Y-63000000D02*
G75*
G03*
X137000000Y-62500000I-500000J0D01*
G01*
X105000000Y-62500000D02*
G75*
G03*
X104500000Y-63000000I0J-500000D01*
G01*
X104500000Y-95000000D02*
G75*
G03*
X105000000Y-95500000I500000J0D01*
G01*
X137000000Y-95500000D02*
G75*
G03*
X137500000Y-95000000I0J500000D01*
G01*
%TO.C,C11*%
X114726248Y-82310000D02*
X116148752Y-82310000D01*
X114726248Y-80490000D02*
X116148752Y-80490000D01*
%TO.C,C7*%
X114726248Y-79910000D02*
X116148752Y-79910000D01*
X114726248Y-78090000D02*
X116148752Y-78090000D01*
%TO.C,D3*%
X111560000Y-76920000D02*
X111560000Y-76764000D01*
X111560000Y-79236000D02*
X111560000Y-79080000D01*
X108958870Y-76920163D02*
G75*
G02*
X111040961Y-76920000I1041130J-1079837D01*
G01*
X108958870Y-79079837D02*
G75*
G03*
X111040961Y-79080000I1041130J1079837D01*
G01*
X108327665Y-76921392D02*
G75*
G02*
X111560000Y-76764484I1672335J-1078608D01*
G01*
X108327665Y-79078608D02*
G75*
G03*
X111560000Y-79235516I1672335J1078608D01*
G01*
%TO.C,D2*%
X111560000Y-71920000D02*
X111560000Y-71764000D01*
X111560000Y-74236000D02*
X111560000Y-74080000D01*
X108958870Y-71920163D02*
G75*
G02*
X111040961Y-71920000I1041130J-1079837D01*
G01*
X108958870Y-74079837D02*
G75*
G03*
X111040961Y-74080000I1041130J1079837D01*
G01*
X108327665Y-71921392D02*
G75*
G02*
X111560000Y-71764484I1672335J-1078608D01*
G01*
X108327665Y-74078608D02*
G75*
G03*
X111560000Y-74235516I1672335J1078608D01*
G01*
%TO.C,D1*%
X111560000Y-66920000D02*
X111560000Y-66764000D01*
X111560000Y-69236000D02*
X111560000Y-69080000D01*
X108958870Y-66920163D02*
G75*
G02*
X111040961Y-66920000I1041130J-1079837D01*
G01*
X108958870Y-69079837D02*
G75*
G03*
X111040961Y-69080000I1041130J1079837D01*
G01*
X108327665Y-66921392D02*
G75*
G02*
X111560000Y-66764484I1672335J-1078608D01*
G01*
X108327665Y-69078608D02*
G75*
G03*
X111560000Y-69235516I1672335J1078608D01*
G01*
%TO.C,SW1*%
X129250000Y-91000000D02*
X129250000Y-92500000D01*
X130500000Y-95000000D02*
X135000000Y-95000000D01*
X136250000Y-92500000D02*
X136250000Y-91000000D01*
X135000000Y-88500000D02*
X130500000Y-88500000D01*
%TO.C,U1*%
X124390000Y-81835000D02*
X123915000Y-81835000D01*
X123915000Y-81835000D02*
X123915000Y-81360000D01*
X129660000Y-75615000D02*
X130135000Y-75615000D01*
X130135000Y-75615000D02*
X130135000Y-76090000D01*
X124390000Y-75615000D02*
X123915000Y-75615000D01*
X123915000Y-75615000D02*
X123915000Y-76090000D01*
X129660000Y-81835000D02*
X130135000Y-81835000D01*
%TO.C,J3*%
X124150000Y-82325000D02*
X117850000Y-82325000D01*
X124150000Y-75675000D02*
X124150000Y-82325000D01*
X117850000Y-75675000D02*
X124150000Y-75675000D01*
X117850000Y-82325000D02*
X117850000Y-75675000D01*
%TO.C,R7*%
X116177064Y-75590000D02*
X114722936Y-75590000D01*
X116177064Y-77410000D02*
X114722936Y-77410000D01*
%TO.C,R6*%
X116177064Y-73190000D02*
X114722936Y-73190000D01*
X116177064Y-75010000D02*
X114722936Y-75010000D01*
%TO.C,R5*%
X116177064Y-70790000D02*
X114722936Y-70790000D01*
X116177064Y-72610000D02*
X114722936Y-72610000D01*
%TO.C,J2*%
X114840000Y-86990000D02*
X114840000Y-95110000D01*
X114840000Y-95110000D02*
X127460000Y-95110000D01*
X127460000Y-95110000D02*
X127460000Y-86990000D01*
X127460000Y-86990000D02*
X114840000Y-86990000D01*
X114540000Y-89100000D02*
X114540000Y-86690000D01*
X114540000Y-86690000D02*
X116950000Y-86690000D01*
%TO.C,L2*%
X131990000Y-74302258D02*
X131990000Y-75972742D01*
X133810000Y-74302258D02*
X133810000Y-75972742D01*
%TO.C,L1*%
X131990000Y-82027258D02*
X131990000Y-83697742D01*
X133810000Y-82027258D02*
X133810000Y-83697742D01*
%TO.C,R4*%
X111922936Y-84710000D02*
X113377064Y-84710000D01*
X111922936Y-82890000D02*
X113377064Y-82890000D01*
%TO.C,R3*%
X112140000Y-86772936D02*
X112140000Y-88227064D01*
X113960000Y-86772936D02*
X113960000Y-88227064D01*
%TO.C,R2*%
X118177064Y-67790000D02*
X116722936Y-67790000D01*
X118177064Y-69610000D02*
X116722936Y-69610000D01*
%TO.C,R1*%
X126972936Y-69560000D02*
X128427064Y-69560000D01*
X126972936Y-67740000D02*
X128427064Y-67740000D01*
%TO.C,C17*%
X119972500Y-73873752D02*
X119972500Y-72451248D01*
X118152500Y-73873752D02*
X118152500Y-72451248D01*
%TO.C,C16*%
X124810000Y-73273752D02*
X124810000Y-71851248D01*
X122990000Y-73273752D02*
X122990000Y-71851248D01*
%TO.C,C15*%
X131210000Y-73248752D02*
X131210000Y-71826248D01*
X129390000Y-73248752D02*
X129390000Y-71826248D01*
%TO.C,C14*%
X118548752Y-83490000D02*
X117126248Y-83490000D01*
X118548752Y-85310000D02*
X117126248Y-85310000D01*
%TO.C,C13*%
X129548752Y-83490000D02*
X128126248Y-83490000D01*
X129548752Y-85310000D02*
X128126248Y-85310000D01*
%TO.C,C12*%
X122426248Y-85310000D02*
X123848752Y-85310000D01*
X122426248Y-83490000D02*
X123848752Y-83490000D01*
%TO.C,C10*%
X120590000Y-72451248D02*
X120590000Y-73873752D01*
X122410000Y-72451248D02*
X122410000Y-73873752D01*
%TO.C,C9*%
X134526248Y-79910000D02*
X135948752Y-79910000D01*
X134526248Y-78090000D02*
X135948752Y-78090000D01*
%TO.C,C8*%
X121826248Y-69572500D02*
X123248752Y-69572500D01*
X121826248Y-67752500D02*
X123248752Y-67752500D01*
%TO.C,C6*%
X135648752Y-70490000D02*
X134226248Y-70490000D01*
X135648752Y-72310000D02*
X134226248Y-72310000D01*
%TO.C,C5*%
X135648752Y-85690000D02*
X134226248Y-85690000D01*
X135648752Y-87510000D02*
X134226248Y-87510000D01*
%TO.C,C4*%
X137448752Y-73290000D02*
X136026248Y-73290000D01*
X137448752Y-75110000D02*
X136026248Y-75110000D01*
%TO.C,C3*%
X136026248Y-84710000D02*
X137448752Y-84710000D01*
X136026248Y-82890000D02*
X137448752Y-82890000D01*
%TO.C,C2*%
X136026248Y-77510000D02*
X137448752Y-77510000D01*
X136026248Y-75690000D02*
X137448752Y-75690000D01*
%TO.C,C1*%
X137448752Y-80490000D02*
X136026248Y-80490000D01*
X137448752Y-82310000D02*
X136026248Y-82310000D01*
%TO.C,C11*%
D10*
X115957142Y-82042857D02*
X116004761Y-82090476D01*
X116052380Y-82233333D01*
X116052380Y-82328571D01*
X116004761Y-82471428D01*
X115909523Y-82566666D01*
X115814285Y-82614285D01*
X115623809Y-82661904D01*
X115480952Y-82661904D01*
X115290476Y-82614285D01*
X115195238Y-82566666D01*
X115100000Y-82471428D01*
X115052380Y-82328571D01*
X115052380Y-82233333D01*
X115100000Y-82090476D01*
X115147619Y-82042857D01*
X116052380Y-81090476D02*
X116052380Y-81661904D01*
X116052380Y-81376190D02*
X115052380Y-81376190D01*
X115195238Y-81471428D01*
X115290476Y-81566666D01*
X115338095Y-81661904D01*
X116052380Y-80138095D02*
X116052380Y-80709523D01*
X116052380Y-80423809D02*
X115052380Y-80423809D01*
X115195238Y-80519047D01*
X115290476Y-80614285D01*
X115338095Y-80709523D01*
%TO.C,C7*%
X115333333Y-79457142D02*
X115285714Y-79504761D01*
X115142857Y-79552380D01*
X115047619Y-79552380D01*
X114904761Y-79504761D01*
X114809523Y-79409523D01*
X114761904Y-79314285D01*
X114714285Y-79123809D01*
X114714285Y-78980952D01*
X114761904Y-78790476D01*
X114809523Y-78695238D01*
X114904761Y-78600000D01*
X115047619Y-78552380D01*
X115142857Y-78552380D01*
X115285714Y-78600000D01*
X115333333Y-78647619D01*
X115666666Y-78552380D02*
X116333333Y-78552380D01*
X115904761Y-79552380D01*
%TO.C,Y1*%
X126623809Y-70136190D02*
X126623809Y-70612380D01*
X126290476Y-69612380D02*
X126623809Y-70136190D01*
X126957142Y-69612380D01*
X127814285Y-70612380D02*
X127242857Y-70612380D01*
X127528571Y-70612380D02*
X127528571Y-69612380D01*
X127433333Y-69755238D01*
X127338095Y-69850476D01*
X127242857Y-69898095D01*
%TO.C,D3*%
X110861904Y-76752380D02*
X110861904Y-75752380D01*
X111100000Y-75752380D01*
X111242857Y-75800000D01*
X111338095Y-75895238D01*
X111385714Y-75990476D01*
X111433333Y-76180952D01*
X111433333Y-76323809D01*
X111385714Y-76514285D01*
X111338095Y-76609523D01*
X111242857Y-76704761D01*
X111100000Y-76752380D01*
X110861904Y-76752380D01*
X111766666Y-75752380D02*
X112385714Y-75752380D01*
X112052380Y-76133333D01*
X112195238Y-76133333D01*
X112290476Y-76180952D01*
X112338095Y-76228571D01*
X112385714Y-76323809D01*
X112385714Y-76561904D01*
X112338095Y-76657142D01*
X112290476Y-76704761D01*
X112195238Y-76752380D01*
X111909523Y-76752380D01*
X111814285Y-76704761D01*
X111766666Y-76657142D01*
%TO.C,D2*%
X110861904Y-71752380D02*
X110861904Y-70752380D01*
X111100000Y-70752380D01*
X111242857Y-70800000D01*
X111338095Y-70895238D01*
X111385714Y-70990476D01*
X111433333Y-71180952D01*
X111433333Y-71323809D01*
X111385714Y-71514285D01*
X111338095Y-71609523D01*
X111242857Y-71704761D01*
X111100000Y-71752380D01*
X110861904Y-71752380D01*
X111814285Y-70847619D02*
X111861904Y-70800000D01*
X111957142Y-70752380D01*
X112195238Y-70752380D01*
X112290476Y-70800000D01*
X112338095Y-70847619D01*
X112385714Y-70942857D01*
X112385714Y-71038095D01*
X112338095Y-71180952D01*
X111766666Y-71752380D01*
X112385714Y-71752380D01*
%TO.C,D1*%
X110861904Y-66752380D02*
X110861904Y-65752380D01*
X111100000Y-65752380D01*
X111242857Y-65800000D01*
X111338095Y-65895238D01*
X111385714Y-65990476D01*
X111433333Y-66180952D01*
X111433333Y-66323809D01*
X111385714Y-66514285D01*
X111338095Y-66609523D01*
X111242857Y-66704761D01*
X111100000Y-66752380D01*
X110861904Y-66752380D01*
X112385714Y-66752380D02*
X111814285Y-66752380D01*
X112100000Y-66752380D02*
X112100000Y-65752380D01*
X112004761Y-65895238D01*
X111909523Y-65990476D01*
X111814285Y-66038095D01*
%TO.C,U1*%
X122738095Y-75052380D02*
X122738095Y-75861904D01*
X122785714Y-75957142D01*
X122833333Y-76004761D01*
X122928571Y-76052380D01*
X123119047Y-76052380D01*
X123214285Y-76004761D01*
X123261904Y-75957142D01*
X123309523Y-75861904D01*
X123309523Y-75052380D01*
X124309523Y-76052380D02*
X123738095Y-76052380D01*
X124023809Y-76052380D02*
X124023809Y-75052380D01*
X123928571Y-75195238D01*
X123833333Y-75290476D01*
X123738095Y-75338095D01*
%TO.C,R7*%
X115283333Y-76952380D02*
X114950000Y-76476190D01*
X114711904Y-76952380D02*
X114711904Y-75952380D01*
X115092857Y-75952380D01*
X115188095Y-76000000D01*
X115235714Y-76047619D01*
X115283333Y-76142857D01*
X115283333Y-76285714D01*
X115235714Y-76380952D01*
X115188095Y-76428571D01*
X115092857Y-76476190D01*
X114711904Y-76476190D01*
X115616666Y-75952380D02*
X116283333Y-75952380D01*
X115854761Y-76952380D01*
%TO.C,R6*%
X115283333Y-74552380D02*
X114950000Y-74076190D01*
X114711904Y-74552380D02*
X114711904Y-73552380D01*
X115092857Y-73552380D01*
X115188095Y-73600000D01*
X115235714Y-73647619D01*
X115283333Y-73742857D01*
X115283333Y-73885714D01*
X115235714Y-73980952D01*
X115188095Y-74028571D01*
X115092857Y-74076190D01*
X114711904Y-74076190D01*
X116140476Y-73552380D02*
X115950000Y-73552380D01*
X115854761Y-73600000D01*
X115807142Y-73647619D01*
X115711904Y-73790476D01*
X115664285Y-73980952D01*
X115664285Y-74361904D01*
X115711904Y-74457142D01*
X115759523Y-74504761D01*
X115854761Y-74552380D01*
X116045238Y-74552380D01*
X116140476Y-74504761D01*
X116188095Y-74457142D01*
X116235714Y-74361904D01*
X116235714Y-74123809D01*
X116188095Y-74028571D01*
X116140476Y-73980952D01*
X116045238Y-73933333D01*
X115854761Y-73933333D01*
X115759523Y-73980952D01*
X115711904Y-74028571D01*
X115664285Y-74123809D01*
%TO.C,R5*%
X115283333Y-72152380D02*
X114950000Y-71676190D01*
X114711904Y-72152380D02*
X114711904Y-71152380D01*
X115092857Y-71152380D01*
X115188095Y-71200000D01*
X115235714Y-71247619D01*
X115283333Y-71342857D01*
X115283333Y-71485714D01*
X115235714Y-71580952D01*
X115188095Y-71628571D01*
X115092857Y-71676190D01*
X114711904Y-71676190D01*
X116188095Y-71152380D02*
X115711904Y-71152380D01*
X115664285Y-71628571D01*
X115711904Y-71580952D01*
X115807142Y-71533333D01*
X116045238Y-71533333D01*
X116140476Y-71580952D01*
X116188095Y-71628571D01*
X116235714Y-71723809D01*
X116235714Y-71961904D01*
X116188095Y-72057142D01*
X116140476Y-72104761D01*
X116045238Y-72152380D01*
X115807142Y-72152380D01*
X115711904Y-72104761D01*
X115664285Y-72057142D01*
%TO.C,L2*%
X133352380Y-75304166D02*
X133352380Y-75780357D01*
X132352380Y-75780357D01*
X132447619Y-75018452D02*
X132400000Y-74970833D01*
X132352380Y-74875595D01*
X132352380Y-74637500D01*
X132400000Y-74542261D01*
X132447619Y-74494642D01*
X132542857Y-74447023D01*
X132638095Y-74447023D01*
X132780952Y-74494642D01*
X133352380Y-75066071D01*
X133352380Y-74447023D01*
%TO.C,L1*%
X133352380Y-83029166D02*
X133352380Y-83505357D01*
X132352380Y-83505357D01*
X133352380Y-82172023D02*
X133352380Y-82743452D01*
X133352380Y-82457738D02*
X132352380Y-82457738D01*
X132495238Y-82552976D01*
X132590476Y-82648214D01*
X132638095Y-82743452D01*
%TO.C,R4*%
X112483333Y-84252380D02*
X112150000Y-83776190D01*
X111911904Y-84252380D02*
X111911904Y-83252380D01*
X112292857Y-83252380D01*
X112388095Y-83300000D01*
X112435714Y-83347619D01*
X112483333Y-83442857D01*
X112483333Y-83585714D01*
X112435714Y-83680952D01*
X112388095Y-83728571D01*
X112292857Y-83776190D01*
X111911904Y-83776190D01*
X113340476Y-83585714D02*
X113340476Y-84252380D01*
X113102380Y-83204761D02*
X112864285Y-83919047D01*
X113483333Y-83919047D01*
%TO.C,R3*%
X113702380Y-87716666D02*
X113226190Y-88050000D01*
X113702380Y-88288095D02*
X112702380Y-88288095D01*
X112702380Y-87907142D01*
X112750000Y-87811904D01*
X112797619Y-87764285D01*
X112892857Y-87716666D01*
X113035714Y-87716666D01*
X113130952Y-87764285D01*
X113178571Y-87811904D01*
X113226190Y-87907142D01*
X113226190Y-88288095D01*
X112702380Y-87383333D02*
X112702380Y-86764285D01*
X113083333Y-87097619D01*
X113083333Y-86954761D01*
X113130952Y-86859523D01*
X113178571Y-86811904D01*
X113273809Y-86764285D01*
X113511904Y-86764285D01*
X113607142Y-86811904D01*
X113654761Y-86859523D01*
X113702380Y-86954761D01*
X113702380Y-87240476D01*
X113654761Y-87335714D01*
X113607142Y-87383333D01*
%TO.C,R2*%
X117283333Y-69152380D02*
X116950000Y-68676190D01*
X116711904Y-69152380D02*
X116711904Y-68152380D01*
X117092857Y-68152380D01*
X117188095Y-68200000D01*
X117235714Y-68247619D01*
X117283333Y-68342857D01*
X117283333Y-68485714D01*
X117235714Y-68580952D01*
X117188095Y-68628571D01*
X117092857Y-68676190D01*
X116711904Y-68676190D01*
X117664285Y-68247619D02*
X117711904Y-68200000D01*
X117807142Y-68152380D01*
X118045238Y-68152380D01*
X118140476Y-68200000D01*
X118188095Y-68247619D01*
X118235714Y-68342857D01*
X118235714Y-68438095D01*
X118188095Y-68580952D01*
X117616666Y-69152380D01*
X118235714Y-69152380D01*
%TO.C,R1*%
X127533333Y-69102380D02*
X127200000Y-68626190D01*
X126961904Y-69102380D02*
X126961904Y-68102380D01*
X127342857Y-68102380D01*
X127438095Y-68150000D01*
X127485714Y-68197619D01*
X127533333Y-68292857D01*
X127533333Y-68435714D01*
X127485714Y-68530952D01*
X127438095Y-68578571D01*
X127342857Y-68626190D01*
X126961904Y-68626190D01*
X128485714Y-69102380D02*
X127914285Y-69102380D01*
X128200000Y-69102380D02*
X128200000Y-68102380D01*
X128104761Y-68245238D01*
X128009523Y-68340476D01*
X127914285Y-68388095D01*
%TO.C,C17*%
X118257142Y-73519642D02*
X118209523Y-73567261D01*
X118066666Y-73614880D01*
X117971428Y-73614880D01*
X117828571Y-73567261D01*
X117733333Y-73472023D01*
X117685714Y-73376785D01*
X117638095Y-73186309D01*
X117638095Y-73043452D01*
X117685714Y-72852976D01*
X117733333Y-72757738D01*
X117828571Y-72662500D01*
X117971428Y-72614880D01*
X118066666Y-72614880D01*
X118209523Y-72662500D01*
X118257142Y-72710119D01*
X119209523Y-73614880D02*
X118638095Y-73614880D01*
X118923809Y-73614880D02*
X118923809Y-72614880D01*
X118828571Y-72757738D01*
X118733333Y-72852976D01*
X118638095Y-72900595D01*
X119542857Y-72614880D02*
X120209523Y-72614880D01*
X119780952Y-73614880D01*
%TO.C,C16*%
X123257142Y-72957142D02*
X123209523Y-73004761D01*
X123066666Y-73052380D01*
X122971428Y-73052380D01*
X122828571Y-73004761D01*
X122733333Y-72909523D01*
X122685714Y-72814285D01*
X122638095Y-72623809D01*
X122638095Y-72480952D01*
X122685714Y-72290476D01*
X122733333Y-72195238D01*
X122828571Y-72100000D01*
X122971428Y-72052380D01*
X123066666Y-72052380D01*
X123209523Y-72100000D01*
X123257142Y-72147619D01*
X124209523Y-73052380D02*
X123638095Y-73052380D01*
X123923809Y-73052380D02*
X123923809Y-72052380D01*
X123828571Y-72195238D01*
X123733333Y-72290476D01*
X123638095Y-72338095D01*
X125066666Y-72052380D02*
X124876190Y-72052380D01*
X124780952Y-72100000D01*
X124733333Y-72147619D01*
X124638095Y-72290476D01*
X124590476Y-72480952D01*
X124590476Y-72861904D01*
X124638095Y-72957142D01*
X124685714Y-73004761D01*
X124780952Y-73052380D01*
X124971428Y-73052380D01*
X125066666Y-73004761D01*
X125114285Y-72957142D01*
X125161904Y-72861904D01*
X125161904Y-72623809D01*
X125114285Y-72528571D01*
X125066666Y-72480952D01*
X124971428Y-72433333D01*
X124780952Y-72433333D01*
X124685714Y-72480952D01*
X124638095Y-72528571D01*
X124590476Y-72623809D01*
%TO.C,C15*%
X129657142Y-72894642D02*
X129609523Y-72942261D01*
X129466666Y-72989880D01*
X129371428Y-72989880D01*
X129228571Y-72942261D01*
X129133333Y-72847023D01*
X129085714Y-72751785D01*
X129038095Y-72561309D01*
X129038095Y-72418452D01*
X129085714Y-72227976D01*
X129133333Y-72132738D01*
X129228571Y-72037500D01*
X129371428Y-71989880D01*
X129466666Y-71989880D01*
X129609523Y-72037500D01*
X129657142Y-72085119D01*
X130609523Y-72989880D02*
X130038095Y-72989880D01*
X130323809Y-72989880D02*
X130323809Y-71989880D01*
X130228571Y-72132738D01*
X130133333Y-72227976D01*
X130038095Y-72275595D01*
X131514285Y-71989880D02*
X131038095Y-71989880D01*
X130990476Y-72466071D01*
X131038095Y-72418452D01*
X131133333Y-72370833D01*
X131371428Y-72370833D01*
X131466666Y-72418452D01*
X131514285Y-72466071D01*
X131561904Y-72561309D01*
X131561904Y-72799404D01*
X131514285Y-72894642D01*
X131466666Y-72942261D01*
X131371428Y-72989880D01*
X131133333Y-72989880D01*
X131038095Y-72942261D01*
X130990476Y-72894642D01*
%TO.C,C14*%
X118194642Y-85042857D02*
X118242261Y-85090476D01*
X118289880Y-85233333D01*
X118289880Y-85328571D01*
X118242261Y-85471428D01*
X118147023Y-85566666D01*
X118051785Y-85614285D01*
X117861309Y-85661904D01*
X117718452Y-85661904D01*
X117527976Y-85614285D01*
X117432738Y-85566666D01*
X117337500Y-85471428D01*
X117289880Y-85328571D01*
X117289880Y-85233333D01*
X117337500Y-85090476D01*
X117385119Y-85042857D01*
X118289880Y-84090476D02*
X118289880Y-84661904D01*
X118289880Y-84376190D02*
X117289880Y-84376190D01*
X117432738Y-84471428D01*
X117527976Y-84566666D01*
X117575595Y-84661904D01*
X117623214Y-83233333D02*
X118289880Y-83233333D01*
X117242261Y-83471428D02*
X117956547Y-83709523D01*
X117956547Y-83090476D01*
%TO.C,C13*%
X128957142Y-85042857D02*
X129004761Y-85090476D01*
X129052380Y-85233333D01*
X129052380Y-85328571D01*
X129004761Y-85471428D01*
X128909523Y-85566666D01*
X128814285Y-85614285D01*
X128623809Y-85661904D01*
X128480952Y-85661904D01*
X128290476Y-85614285D01*
X128195238Y-85566666D01*
X128100000Y-85471428D01*
X128052380Y-85328571D01*
X128052380Y-85233333D01*
X128100000Y-85090476D01*
X128147619Y-85042857D01*
X129052380Y-84090476D02*
X129052380Y-84661904D01*
X129052380Y-84376190D02*
X128052380Y-84376190D01*
X128195238Y-84471428D01*
X128290476Y-84566666D01*
X128338095Y-84661904D01*
X128052380Y-83757142D02*
X128052380Y-83138095D01*
X128433333Y-83471428D01*
X128433333Y-83328571D01*
X128480952Y-83233333D01*
X128528571Y-83185714D01*
X128623809Y-83138095D01*
X128861904Y-83138095D01*
X128957142Y-83185714D01*
X129004761Y-83233333D01*
X129052380Y-83328571D01*
X129052380Y-83614285D01*
X129004761Y-83709523D01*
X128957142Y-83757142D01*
%TO.C,C12*%
X123457142Y-85042857D02*
X123504761Y-85090476D01*
X123552380Y-85233333D01*
X123552380Y-85328571D01*
X123504761Y-85471428D01*
X123409523Y-85566666D01*
X123314285Y-85614285D01*
X123123809Y-85661904D01*
X122980952Y-85661904D01*
X122790476Y-85614285D01*
X122695238Y-85566666D01*
X122600000Y-85471428D01*
X122552380Y-85328571D01*
X122552380Y-85233333D01*
X122600000Y-85090476D01*
X122647619Y-85042857D01*
X123552380Y-84090476D02*
X123552380Y-84661904D01*
X123552380Y-84376190D02*
X122552380Y-84376190D01*
X122695238Y-84471428D01*
X122790476Y-84566666D01*
X122838095Y-84661904D01*
X122647619Y-83709523D02*
X122600000Y-83661904D01*
X122552380Y-83566666D01*
X122552380Y-83328571D01*
X122600000Y-83233333D01*
X122647619Y-83185714D01*
X122742857Y-83138095D01*
X122838095Y-83138095D01*
X122980952Y-83185714D01*
X123552380Y-83757142D01*
X123552380Y-83138095D01*
%TO.C,C10*%
X120857142Y-73482142D02*
X120809523Y-73529761D01*
X120666666Y-73577380D01*
X120571428Y-73577380D01*
X120428571Y-73529761D01*
X120333333Y-73434523D01*
X120285714Y-73339285D01*
X120238095Y-73148809D01*
X120238095Y-73005952D01*
X120285714Y-72815476D01*
X120333333Y-72720238D01*
X120428571Y-72625000D01*
X120571428Y-72577380D01*
X120666666Y-72577380D01*
X120809523Y-72625000D01*
X120857142Y-72672619D01*
X121809523Y-73577380D02*
X121238095Y-73577380D01*
X121523809Y-73577380D02*
X121523809Y-72577380D01*
X121428571Y-72720238D01*
X121333333Y-72815476D01*
X121238095Y-72863095D01*
X122428571Y-72577380D02*
X122523809Y-72577380D01*
X122619047Y-72625000D01*
X122666666Y-72672619D01*
X122714285Y-72767857D01*
X122761904Y-72958333D01*
X122761904Y-73196428D01*
X122714285Y-73386904D01*
X122666666Y-73482142D01*
X122619047Y-73529761D01*
X122523809Y-73577380D01*
X122428571Y-73577380D01*
X122333333Y-73529761D01*
X122285714Y-73482142D01*
X122238095Y-73386904D01*
X122190476Y-73196428D01*
X122190476Y-72958333D01*
X122238095Y-72767857D01*
X122285714Y-72672619D01*
X122333333Y-72625000D01*
X122428571Y-72577380D01*
%TO.C,C9*%
X135070833Y-79357142D02*
X135023214Y-79404761D01*
X134880357Y-79452380D01*
X134785119Y-79452380D01*
X134642261Y-79404761D01*
X134547023Y-79309523D01*
X134499404Y-79214285D01*
X134451785Y-79023809D01*
X134451785Y-78880952D01*
X134499404Y-78690476D01*
X134547023Y-78595238D01*
X134642261Y-78500000D01*
X134785119Y-78452380D01*
X134880357Y-78452380D01*
X135023214Y-78500000D01*
X135070833Y-78547619D01*
X135547023Y-79452380D02*
X135737500Y-79452380D01*
X135832738Y-79404761D01*
X135880357Y-79357142D01*
X135975595Y-79214285D01*
X136023214Y-79023809D01*
X136023214Y-78642857D01*
X135975595Y-78547619D01*
X135927976Y-78500000D01*
X135832738Y-78452380D01*
X135642261Y-78452380D01*
X135547023Y-78500000D01*
X135499404Y-78547619D01*
X135451785Y-78642857D01*
X135451785Y-78880952D01*
X135499404Y-78976190D01*
X135547023Y-79023809D01*
X135642261Y-79071428D01*
X135832738Y-79071428D01*
X135927976Y-79023809D01*
X135975595Y-78976190D01*
X136023214Y-78880952D01*
%TO.C,C8*%
X122370833Y-69019642D02*
X122323214Y-69067261D01*
X122180357Y-69114880D01*
X122085119Y-69114880D01*
X121942261Y-69067261D01*
X121847023Y-68972023D01*
X121799404Y-68876785D01*
X121751785Y-68686309D01*
X121751785Y-68543452D01*
X121799404Y-68352976D01*
X121847023Y-68257738D01*
X121942261Y-68162500D01*
X122085119Y-68114880D01*
X122180357Y-68114880D01*
X122323214Y-68162500D01*
X122370833Y-68210119D01*
X122942261Y-68543452D02*
X122847023Y-68495833D01*
X122799404Y-68448214D01*
X122751785Y-68352976D01*
X122751785Y-68305357D01*
X122799404Y-68210119D01*
X122847023Y-68162500D01*
X122942261Y-68114880D01*
X123132738Y-68114880D01*
X123227976Y-68162500D01*
X123275595Y-68210119D01*
X123323214Y-68305357D01*
X123323214Y-68352976D01*
X123275595Y-68448214D01*
X123227976Y-68495833D01*
X123132738Y-68543452D01*
X122942261Y-68543452D01*
X122847023Y-68591071D01*
X122799404Y-68638690D01*
X122751785Y-68733928D01*
X122751785Y-68924404D01*
X122799404Y-69019642D01*
X122847023Y-69067261D01*
X122942261Y-69114880D01*
X123132738Y-69114880D01*
X123227976Y-69067261D01*
X123275595Y-69019642D01*
X123323214Y-68924404D01*
X123323214Y-68733928D01*
X123275595Y-68638690D01*
X123227976Y-68591071D01*
X123132738Y-68543452D01*
%TO.C,C6*%
X134770833Y-71757142D02*
X134723214Y-71804761D01*
X134580357Y-71852380D01*
X134485119Y-71852380D01*
X134342261Y-71804761D01*
X134247023Y-71709523D01*
X134199404Y-71614285D01*
X134151785Y-71423809D01*
X134151785Y-71280952D01*
X134199404Y-71090476D01*
X134247023Y-70995238D01*
X134342261Y-70900000D01*
X134485119Y-70852380D01*
X134580357Y-70852380D01*
X134723214Y-70900000D01*
X134770833Y-70947619D01*
X135627976Y-70852380D02*
X135437500Y-70852380D01*
X135342261Y-70900000D01*
X135294642Y-70947619D01*
X135199404Y-71090476D01*
X135151785Y-71280952D01*
X135151785Y-71661904D01*
X135199404Y-71757142D01*
X135247023Y-71804761D01*
X135342261Y-71852380D01*
X135532738Y-71852380D01*
X135627976Y-71804761D01*
X135675595Y-71757142D01*
X135723214Y-71661904D01*
X135723214Y-71423809D01*
X135675595Y-71328571D01*
X135627976Y-71280952D01*
X135532738Y-71233333D01*
X135342261Y-71233333D01*
X135247023Y-71280952D01*
X135199404Y-71328571D01*
X135151785Y-71423809D01*
%TO.C,C5*%
X134733333Y-86957142D02*
X134685714Y-87004761D01*
X134542857Y-87052380D01*
X134447619Y-87052380D01*
X134304761Y-87004761D01*
X134209523Y-86909523D01*
X134161904Y-86814285D01*
X134114285Y-86623809D01*
X134114285Y-86480952D01*
X134161904Y-86290476D01*
X134209523Y-86195238D01*
X134304761Y-86100000D01*
X134447619Y-86052380D01*
X134542857Y-86052380D01*
X134685714Y-86100000D01*
X134733333Y-86147619D01*
X135638095Y-86052380D02*
X135161904Y-86052380D01*
X135114285Y-86528571D01*
X135161904Y-86480952D01*
X135257142Y-86433333D01*
X135495238Y-86433333D01*
X135590476Y-86480952D01*
X135638095Y-86528571D01*
X135685714Y-86623809D01*
X135685714Y-86861904D01*
X135638095Y-86957142D01*
X135590476Y-87004761D01*
X135495238Y-87052380D01*
X135257142Y-87052380D01*
X135161904Y-87004761D01*
X135114285Y-86957142D01*
%TO.C,C4*%
X136570833Y-74557142D02*
X136523214Y-74604761D01*
X136380357Y-74652380D01*
X136285119Y-74652380D01*
X136142261Y-74604761D01*
X136047023Y-74509523D01*
X135999404Y-74414285D01*
X135951785Y-74223809D01*
X135951785Y-74080952D01*
X135999404Y-73890476D01*
X136047023Y-73795238D01*
X136142261Y-73700000D01*
X136285119Y-73652380D01*
X136380357Y-73652380D01*
X136523214Y-73700000D01*
X136570833Y-73747619D01*
X137427976Y-73985714D02*
X137427976Y-74652380D01*
X137189880Y-73604761D02*
X136951785Y-74319047D01*
X137570833Y-74319047D01*
%TO.C,C3*%
X136533333Y-84357142D02*
X136485714Y-84404761D01*
X136342857Y-84452380D01*
X136247619Y-84452380D01*
X136104761Y-84404761D01*
X136009523Y-84309523D01*
X135961904Y-84214285D01*
X135914285Y-84023809D01*
X135914285Y-83880952D01*
X135961904Y-83690476D01*
X136009523Y-83595238D01*
X136104761Y-83500000D01*
X136247619Y-83452380D01*
X136342857Y-83452380D01*
X136485714Y-83500000D01*
X136533333Y-83547619D01*
X136866666Y-83452380D02*
X137485714Y-83452380D01*
X137152380Y-83833333D01*
X137295238Y-83833333D01*
X137390476Y-83880952D01*
X137438095Y-83928571D01*
X137485714Y-84023809D01*
X137485714Y-84261904D01*
X137438095Y-84357142D01*
X137390476Y-84404761D01*
X137295238Y-84452380D01*
X137009523Y-84452380D01*
X136914285Y-84404761D01*
X136866666Y-84357142D01*
%TO.C,C2*%
X136533333Y-76957142D02*
X136485714Y-77004761D01*
X136342857Y-77052380D01*
X136247619Y-77052380D01*
X136104761Y-77004761D01*
X136009523Y-76909523D01*
X135961904Y-76814285D01*
X135914285Y-76623809D01*
X135914285Y-76480952D01*
X135961904Y-76290476D01*
X136009523Y-76195238D01*
X136104761Y-76100000D01*
X136247619Y-76052380D01*
X136342857Y-76052380D01*
X136485714Y-76100000D01*
X136533333Y-76147619D01*
X136914285Y-76147619D02*
X136961904Y-76100000D01*
X137057142Y-76052380D01*
X137295238Y-76052380D01*
X137390476Y-76100000D01*
X137438095Y-76147619D01*
X137485714Y-76242857D01*
X137485714Y-76338095D01*
X137438095Y-76480952D01*
X136866666Y-77052380D01*
X137485714Y-77052380D01*
%TO.C,C1*%
X136570833Y-81757142D02*
X136523214Y-81804761D01*
X136380357Y-81852380D01*
X136285119Y-81852380D01*
X136142261Y-81804761D01*
X136047023Y-81709523D01*
X135999404Y-81614285D01*
X135951785Y-81423809D01*
X135951785Y-81280952D01*
X135999404Y-81090476D01*
X136047023Y-80995238D01*
X136142261Y-80900000D01*
X136285119Y-80852380D01*
X136380357Y-80852380D01*
X136523214Y-80900000D01*
X136570833Y-80947619D01*
X137523214Y-81852380D02*
X136951785Y-81852380D01*
X137237500Y-81852380D02*
X137237500Y-80852380D01*
X137142261Y-80995238D01*
X137047023Y-81090476D01*
X136951785Y-81138095D01*
%TD*%
M02*
