%TF.GenerationSoftware,KiCad,Pcbnew,(5.1.9-0-10_14)*%
%TF.CreationDate,2021-04-15T09:33:33+01:00*%
%TF.ProjectId,PN532,504e3533-322e-46b6-9963-61645f706362,rev?*%
%TF.SameCoordinates,Original*%
%TF.FileFunction,Legend,Bot*%
%TF.FilePolarity,Positive*%
%FSLAX46Y46*%
G04 Gerber Fmt 4.6, Leading zero omitted, Abs format (unit mm)*
G04 Created by KiCad (PCBNEW (5.1.9-0-10_14)) date 2021-04-15 09:33:33*
%MOMM*%
%LPD*%
G01*
G04 APERTURE LIST*
%ADD10C,0.150000*%
%ADD11C,0.300000*%
%ADD12C,0.120000*%
%ADD13C,0.250000*%
G04 APERTURE END LIST*
D10*
X135195238Y-91052380D02*
X134623809Y-91052380D01*
X134909523Y-92052380D02*
X134909523Y-91052380D01*
X133861904Y-92052380D02*
X133861904Y-91528571D01*
X133909523Y-91433333D01*
X134004761Y-91385714D01*
X134195238Y-91385714D01*
X134290476Y-91433333D01*
X133861904Y-92004761D02*
X133957142Y-92052380D01*
X134195238Y-92052380D01*
X134290476Y-92004761D01*
X134338095Y-91909523D01*
X134338095Y-91814285D01*
X134290476Y-91719047D01*
X134195238Y-91671428D01*
X133957142Y-91671428D01*
X133861904Y-91623809D01*
X133385714Y-92052380D02*
X133385714Y-91385714D01*
X133385714Y-91480952D02*
X133338095Y-91433333D01*
X133242857Y-91385714D01*
X133100000Y-91385714D01*
X133004761Y-91433333D01*
X132957142Y-91528571D01*
X132957142Y-92052380D01*
X132957142Y-91528571D02*
X132909523Y-91433333D01*
X132814285Y-91385714D01*
X132671428Y-91385714D01*
X132576190Y-91433333D01*
X132528571Y-91528571D01*
X132528571Y-92052380D01*
X132052380Y-91385714D02*
X132052380Y-92385714D01*
X132052380Y-91433333D02*
X131957142Y-91385714D01*
X131766666Y-91385714D01*
X131671428Y-91433333D01*
X131623809Y-91480952D01*
X131576190Y-91576190D01*
X131576190Y-91861904D01*
X131623809Y-91957142D01*
X131671428Y-92004761D01*
X131766666Y-92052380D01*
X131957142Y-92052380D01*
X132052380Y-92004761D01*
X130766666Y-92004761D02*
X130861904Y-92052380D01*
X131052380Y-92052380D01*
X131147619Y-92004761D01*
X131195238Y-91909523D01*
X131195238Y-91528571D01*
X131147619Y-91433333D01*
X131052380Y-91385714D01*
X130861904Y-91385714D01*
X130766666Y-91433333D01*
X130719047Y-91528571D01*
X130719047Y-91623809D01*
X131195238Y-91719047D01*
X130290476Y-92052380D02*
X130290476Y-91385714D01*
X130290476Y-91576190D02*
X130242857Y-91480952D01*
X130195238Y-91433333D01*
X130100000Y-91385714D01*
X130004761Y-91385714D01*
D11*
X126785714Y-65678571D02*
X126500000Y-66678571D01*
X126214285Y-65964285D01*
X125928571Y-66678571D01*
X125642857Y-65678571D01*
X125214285Y-65678571D02*
X124928571Y-66678571D01*
X124642857Y-65964285D01*
X124357142Y-66678571D01*
X124071428Y-65678571D01*
X123642857Y-65678571D02*
X123357142Y-66678571D01*
X123071428Y-65964285D01*
X122785714Y-66678571D01*
X122500000Y-65678571D01*
X121928571Y-66535714D02*
X121857142Y-66607142D01*
X121928571Y-66678571D01*
X122000000Y-66607142D01*
X121928571Y-66535714D01*
X121928571Y-66678571D01*
X121214285Y-66678571D02*
X121214285Y-65678571D01*
X121214285Y-65821428D02*
X121142857Y-65750000D01*
X121000000Y-65678571D01*
X120785714Y-65678571D01*
X120642857Y-65750000D01*
X120571428Y-65892857D01*
X120571428Y-66678571D01*
X120571428Y-65892857D02*
X120500000Y-65750000D01*
X120357142Y-65678571D01*
X120142857Y-65678571D01*
X120000000Y-65750000D01*
X119928571Y-65892857D01*
X119928571Y-66678571D01*
X118642857Y-66607142D02*
X118785714Y-66678571D01*
X119071428Y-66678571D01*
X119214285Y-66607142D01*
X119285714Y-66464285D01*
X119285714Y-65892857D01*
X119214285Y-65750000D01*
X119071428Y-65678571D01*
X118785714Y-65678571D01*
X118642857Y-65750000D01*
X118571428Y-65892857D01*
X118571428Y-66035714D01*
X119285714Y-66178571D01*
X117928571Y-66535714D02*
X117857142Y-66607142D01*
X117928571Y-66678571D01*
X118000000Y-66607142D01*
X117928571Y-66535714D01*
X117928571Y-66678571D01*
X116571428Y-65678571D02*
X116571428Y-66678571D01*
X117214285Y-65678571D02*
X117214285Y-66464285D01*
X117142857Y-66607142D01*
X117000000Y-66678571D01*
X116785714Y-66678571D01*
X116642857Y-66607142D01*
X116571428Y-66535714D01*
X115857142Y-66678571D02*
X115857142Y-65178571D01*
X115714285Y-66107142D02*
X115285714Y-66678571D01*
X115285714Y-65678571D02*
X115857142Y-66250000D01*
D10*
X118062267Y-75697969D02*
X118163282Y-76270389D01*
X117658206Y-76102030D02*
X118365312Y-76809137D01*
X118634687Y-76539763D01*
X118668358Y-76438748D01*
X118668358Y-76371404D01*
X118634687Y-76270389D01*
X118533671Y-76169374D01*
X118432656Y-76135702D01*
X118365312Y-76135702D01*
X118264297Y-76169374D01*
X117994923Y-76438748D01*
X119005076Y-76169374D02*
X118769374Y-74990862D01*
X119476480Y-75697969D02*
X118297969Y-75462267D01*
X122774026Y-75748477D02*
X123178087Y-76152538D01*
X123683164Y-75243400D02*
X122976057Y-75950507D01*
X123346446Y-76320896D02*
X124524957Y-76085194D01*
X123817851Y-76792301D02*
X124053553Y-75613790D01*
X117069965Y-81544416D02*
X118012774Y-81073011D01*
X117541370Y-82015820D01*
X118820896Y-82015820D02*
X118820896Y-81948477D01*
X118753553Y-81813790D01*
X118686209Y-81746446D01*
X118551522Y-81679103D01*
X118416835Y-81679103D01*
X118315820Y-81712774D01*
X118147461Y-81813790D01*
X118046446Y-81914805D01*
X117945431Y-82083164D01*
X117911759Y-82184179D01*
X117911759Y-82318866D01*
X117979103Y-82453553D01*
X118046446Y-82520896D01*
X118181133Y-82588240D01*
X118248477Y-82588240D01*
X119528003Y-82722927D02*
X119528003Y-82655583D01*
X119460660Y-82520896D01*
X119393316Y-82453553D01*
X119258629Y-82386209D01*
X119123942Y-82386209D01*
X119022927Y-82419881D01*
X118854568Y-82520896D01*
X118753553Y-82621912D01*
X118652538Y-82790270D01*
X118618866Y-82891286D01*
X118618866Y-83025973D01*
X118686209Y-83160660D01*
X118753553Y-83228003D01*
X118888240Y-83295347D01*
X118955583Y-83295347D01*
X123985194Y-81207698D02*
X124018866Y-81106683D01*
X124119881Y-81005668D01*
X124254568Y-80938324D01*
X124389255Y-80938324D01*
X124490270Y-80971996D01*
X124658629Y-81073011D01*
X124759644Y-81174026D01*
X124860660Y-81342385D01*
X124894331Y-81443400D01*
X124894331Y-81578087D01*
X124826988Y-81712774D01*
X124759644Y-81780118D01*
X124624957Y-81847461D01*
X124557614Y-81847461D01*
X124321912Y-81611759D01*
X124456599Y-81477072D01*
X124321912Y-82217851D02*
X123614805Y-81510744D01*
X123917851Y-82621912D01*
X123210744Y-81914805D01*
X123581133Y-82958629D02*
X122874026Y-82251522D01*
X122705668Y-82419881D01*
X122638324Y-82554568D01*
X122638324Y-82689255D01*
X122671996Y-82790270D01*
X122773011Y-82958629D01*
X122874026Y-83059644D01*
X123042385Y-83160660D01*
X123143400Y-83194331D01*
X123278087Y-83194331D01*
X123412774Y-83126988D01*
X123581133Y-82958629D01*
X106238095Y-73166666D02*
X105761904Y-73166666D01*
X106333333Y-73452380D02*
X106000000Y-72452380D01*
X105666666Y-73452380D01*
X105738095Y-77500000D02*
X105833333Y-77452380D01*
X105976190Y-77452380D01*
X106119047Y-77500000D01*
X106214285Y-77595238D01*
X106261904Y-77690476D01*
X106309523Y-77880952D01*
X106309523Y-78023809D01*
X106261904Y-78214285D01*
X106214285Y-78309523D01*
X106119047Y-78404761D01*
X105976190Y-78452380D01*
X105880952Y-78452380D01*
X105738095Y-78404761D01*
X105690476Y-78357142D01*
X105690476Y-78023809D01*
X105880952Y-78023809D01*
X105690476Y-68452380D02*
X106023809Y-67976190D01*
X106261904Y-68452380D02*
X106261904Y-67452380D01*
X105880952Y-67452380D01*
X105785714Y-67500000D01*
X105738095Y-67547619D01*
X105690476Y-67642857D01*
X105690476Y-67785714D01*
X105738095Y-67880952D01*
X105785714Y-67928571D01*
X105880952Y-67976190D01*
X106261904Y-67976190D01*
X125282380Y-93033333D02*
X124806190Y-92700000D01*
X125282380Y-92461904D02*
X124282380Y-92461904D01*
X124282380Y-92842857D01*
X124330000Y-92938095D01*
X124377619Y-92985714D01*
X124472857Y-93033333D01*
X124615714Y-93033333D01*
X124710952Y-92985714D01*
X124758571Y-92938095D01*
X124806190Y-92842857D01*
X124806190Y-92461904D01*
X124282380Y-93366666D02*
X125282380Y-94033333D01*
X124282380Y-94033333D02*
X125282380Y-93366666D01*
X119252380Y-91866666D02*
X120252380Y-92200000D01*
X119252380Y-92533333D01*
X120157142Y-93438095D02*
X120204761Y-93390476D01*
X120252380Y-93247619D01*
X120252380Y-93152380D01*
X120204761Y-93009523D01*
X120109523Y-92914285D01*
X120014285Y-92866666D01*
X119823809Y-92819047D01*
X119680952Y-92819047D01*
X119490476Y-92866666D01*
X119395238Y-92914285D01*
X119300000Y-93009523D01*
X119252380Y-93152380D01*
X119252380Y-93247619D01*
X119300000Y-93390476D01*
X119347619Y-93438095D01*
X120157142Y-94438095D02*
X120204761Y-94390476D01*
X120252380Y-94247619D01*
X120252380Y-94152380D01*
X120204761Y-94009523D01*
X120109523Y-93914285D01*
X120014285Y-93866666D01*
X119823809Y-93819047D01*
X119680952Y-93819047D01*
X119490476Y-93866666D01*
X119395238Y-93914285D01*
X119300000Y-94009523D01*
X119252380Y-94152380D01*
X119252380Y-94247619D01*
X119300000Y-94390476D01*
X119347619Y-94438095D01*
X122062380Y-92438095D02*
X122062380Y-93009523D01*
X123062380Y-92723809D02*
X122062380Y-92723809D01*
X122062380Y-93247619D02*
X123062380Y-93914285D01*
X122062380Y-93914285D02*
X123062380Y-93247619D01*
X116800000Y-92438095D02*
X116752380Y-92342857D01*
X116752380Y-92200000D01*
X116800000Y-92057142D01*
X116895238Y-91961904D01*
X116990476Y-91914285D01*
X117180952Y-91866666D01*
X117323809Y-91866666D01*
X117514285Y-91914285D01*
X117609523Y-91961904D01*
X117704761Y-92057142D01*
X117752380Y-92200000D01*
X117752380Y-92295238D01*
X117704761Y-92438095D01*
X117657142Y-92485714D01*
X117323809Y-92485714D01*
X117323809Y-92295238D01*
X117752380Y-92914285D02*
X116752380Y-92914285D01*
X117752380Y-93485714D01*
X116752380Y-93485714D01*
X117752380Y-93961904D02*
X116752380Y-93961904D01*
X116752380Y-94200000D01*
X116800000Y-94342857D01*
X116895238Y-94438095D01*
X116990476Y-94485714D01*
X117180952Y-94533333D01*
X117323809Y-94533333D01*
X117514285Y-94485714D01*
X117609523Y-94438095D01*
X117704761Y-94342857D01*
X117752380Y-94200000D01*
X117752380Y-93961904D01*
D12*
%TO.C,J1*%
X126350000Y-85670000D02*
X126350000Y-88330000D01*
X118670000Y-85670000D02*
X126350000Y-85670000D01*
X118670000Y-88330000D02*
X126350000Y-88330000D01*
X118670000Y-85670000D02*
X118670000Y-88330000D01*
X117400000Y-85670000D02*
X116070000Y-85670000D01*
X116070000Y-85670000D02*
X116070000Y-87000000D01*
%TO.C,A1*%
X105000000Y-58500000D02*
G75*
G03*
X100500000Y-63000000I0J-4500000D01*
G01*
X100500000Y-95000000D02*
G75*
G03*
X105000000Y-99500000I4500000J0D01*
G01*
X137000000Y-99500000D02*
G75*
G03*
X141500000Y-95000000I0J4500000D01*
G01*
X141500000Y-63000000D02*
G75*
G03*
X137000000Y-58500000I-4500000J0D01*
G01*
X137500000Y-63000000D02*
G75*
G03*
X137000000Y-62500000I-500000J0D01*
G01*
X105000000Y-62500000D02*
G75*
G03*
X104500000Y-63000000I0J-500000D01*
G01*
X104500000Y-95000000D02*
G75*
G03*
X105000000Y-95500000I500000J0D01*
G01*
X137000000Y-95500000D02*
G75*
G03*
X137500000Y-95000000I0J500000D01*
G01*
X104500000Y-95000000D02*
X104500000Y-63000000D01*
X100500000Y-95000000D02*
X100500000Y-63000000D01*
X105000000Y-95500000D02*
X137000000Y-95500000D01*
X137000000Y-99500000D02*
X105000000Y-99500000D01*
X137500000Y-95000000D02*
X137500000Y-63000000D01*
X137000000Y-62500000D02*
X105000000Y-62500000D01*
X105000000Y-58500000D02*
X137000000Y-58500000D01*
X141500000Y-63000000D02*
X141500000Y-95000000D01*
D10*
X107714285Y-94666666D02*
X107238095Y-94666666D01*
X107809523Y-94952380D02*
X107476190Y-93952380D01*
X107142857Y-94952380D01*
X106285714Y-94952380D02*
X106857142Y-94952380D01*
X106571428Y-94952380D02*
X106571428Y-93952380D01*
X106666666Y-94095238D01*
X106761904Y-94190476D01*
X106857142Y-94238095D01*
D13*
X140857142Y-64428571D02*
X137857142Y-64428571D01*
X140857142Y-66142857D01*
X137857142Y-66142857D01*
X139285714Y-68571428D02*
X139285714Y-67571428D01*
X140857142Y-67571428D02*
X137857142Y-67571428D01*
X137857142Y-69000000D01*
X140571428Y-71857142D02*
X140714285Y-71714285D01*
X140857142Y-71285714D01*
X140857142Y-71000000D01*
X140714285Y-70571428D01*
X140428571Y-70285714D01*
X140142857Y-70142857D01*
X139571428Y-70000000D01*
X139142857Y-70000000D01*
X138571428Y-70142857D01*
X138285714Y-70285714D01*
X138000000Y-70571428D01*
X137857142Y-71000000D01*
X137857142Y-71285714D01*
X138000000Y-71714285D01*
X138142857Y-71857142D01*
X140000000Y-75285714D02*
X140000000Y-76714285D01*
X140857142Y-75000000D02*
X137857142Y-76000000D01*
X140857142Y-77000000D01*
X140857142Y-78000000D02*
X137857142Y-78000000D01*
X140857142Y-79714285D01*
X137857142Y-79714285D01*
X137857142Y-80714285D02*
X137857142Y-82428571D01*
X140857142Y-81571428D02*
X137857142Y-81571428D01*
X139285714Y-83428571D02*
X139285714Y-84428571D01*
X140857142Y-84857142D02*
X140857142Y-83428571D01*
X137857142Y-83428571D01*
X137857142Y-84857142D01*
X140857142Y-86142857D02*
X137857142Y-86142857D01*
X140857142Y-87857142D01*
X137857142Y-87857142D01*
X140857142Y-89285714D02*
X137857142Y-89285714D01*
X140857142Y-90999999D01*
X137857142Y-90999999D01*
X140000000Y-92285714D02*
X140000000Y-93714285D01*
X140857142Y-91999999D02*
X137857142Y-92999999D01*
X140857142Y-93999999D01*
X101142857Y-93571428D02*
X104142857Y-93571428D01*
X101142857Y-91857142D01*
X104142857Y-91857142D01*
X102714285Y-89428571D02*
X102714285Y-90428571D01*
X101142857Y-90428571D02*
X104142857Y-90428571D01*
X104142857Y-89000000D01*
X101428571Y-86142857D02*
X101285714Y-86285714D01*
X101142857Y-86714285D01*
X101142857Y-87000000D01*
X101285714Y-87428571D01*
X101571428Y-87714285D01*
X101857142Y-87857142D01*
X102428571Y-88000000D01*
X102857142Y-88000000D01*
X103428571Y-87857142D01*
X103714285Y-87714285D01*
X104000000Y-87428571D01*
X104142857Y-87000000D01*
X104142857Y-86714285D01*
X104000000Y-86285714D01*
X103857142Y-86142857D01*
X102000000Y-82714285D02*
X102000000Y-81285714D01*
X101142857Y-83000000D02*
X104142857Y-82000000D01*
X101142857Y-81000000D01*
X101142857Y-80000000D02*
X104142857Y-80000000D01*
X101142857Y-78285714D01*
X104142857Y-78285714D01*
X104142857Y-77285714D02*
X104142857Y-75571428D01*
X101142857Y-76428571D02*
X104142857Y-76428571D01*
X102714285Y-74571428D02*
X102714285Y-73571428D01*
X101142857Y-73142857D02*
X101142857Y-74571428D01*
X104142857Y-74571428D01*
X104142857Y-73142857D01*
X101142857Y-71857142D02*
X104142857Y-71857142D01*
X101142857Y-70142857D01*
X104142857Y-70142857D01*
X101142857Y-68714285D02*
X104142857Y-68714285D01*
X101142857Y-67000000D01*
X104142857Y-67000000D01*
X102000000Y-65714285D02*
X102000000Y-64285714D01*
X101142857Y-66000000D02*
X104142857Y-65000000D01*
X101142857Y-64000000D01*
X106428571Y-59142857D02*
X106428571Y-62142857D01*
X108142857Y-59142857D01*
X108142857Y-62142857D01*
X110571428Y-60714285D02*
X109571428Y-60714285D01*
X109571428Y-59142857D02*
X109571428Y-62142857D01*
X111000000Y-62142857D01*
X113857142Y-59428571D02*
X113714285Y-59285714D01*
X113285714Y-59142857D01*
X113000000Y-59142857D01*
X112571428Y-59285714D01*
X112285714Y-59571428D01*
X112142857Y-59857142D01*
X112000000Y-60428571D01*
X112000000Y-60857142D01*
X112142857Y-61428571D01*
X112285714Y-61714285D01*
X112571428Y-62000000D01*
X113000000Y-62142857D01*
X113285714Y-62142857D01*
X113714285Y-62000000D01*
X113857142Y-61857142D01*
X117285714Y-60000000D02*
X118714285Y-60000000D01*
X117000000Y-59142857D02*
X118000000Y-62142857D01*
X119000000Y-59142857D01*
X120000000Y-59142857D02*
X120000000Y-62142857D01*
X121714285Y-59142857D01*
X121714285Y-62142857D01*
X122714285Y-62142857D02*
X124428571Y-62142857D01*
X123571428Y-59142857D02*
X123571428Y-62142857D01*
X125428571Y-60714285D02*
X126428571Y-60714285D01*
X126857142Y-59142857D02*
X125428571Y-59142857D01*
X125428571Y-62142857D01*
X126857142Y-62142857D01*
X128142857Y-59142857D02*
X128142857Y-62142857D01*
X129857142Y-59142857D01*
X129857142Y-62142857D01*
X131285714Y-59142857D02*
X131285714Y-62142857D01*
X132999999Y-59142857D01*
X132999999Y-62142857D01*
X134285714Y-60000000D02*
X135714285Y-60000000D01*
X133999999Y-59142857D02*
X135000000Y-62142857D01*
X136000000Y-59142857D01*
X135571428Y-98857142D02*
X135571428Y-95857142D01*
X133857142Y-98857142D01*
X133857142Y-95857142D01*
X131428571Y-97285714D02*
X132428571Y-97285714D01*
X132428571Y-98857142D02*
X132428571Y-95857142D01*
X131000000Y-95857142D01*
X128142857Y-98571428D02*
X128285714Y-98714285D01*
X128714285Y-98857142D01*
X129000000Y-98857142D01*
X129428571Y-98714285D01*
X129714285Y-98428571D01*
X129857142Y-98142857D01*
X130000000Y-97571428D01*
X130000000Y-97142857D01*
X129857142Y-96571428D01*
X129714285Y-96285714D01*
X129428571Y-96000000D01*
X129000000Y-95857142D01*
X128714285Y-95857142D01*
X128285714Y-96000000D01*
X128142857Y-96142857D01*
X124714285Y-98000000D02*
X123285714Y-98000000D01*
X125000000Y-98857142D02*
X124000000Y-95857142D01*
X123000000Y-98857142D01*
X122000000Y-98857142D02*
X122000000Y-95857142D01*
X120285714Y-98857142D01*
X120285714Y-95857142D01*
X119285714Y-95857142D02*
X117571428Y-95857142D01*
X118428571Y-98857142D02*
X118428571Y-95857142D01*
X116571428Y-97285714D02*
X115571428Y-97285714D01*
X115142857Y-98857142D02*
X116571428Y-98857142D01*
X116571428Y-95857142D01*
X115142857Y-95857142D01*
X113857142Y-98857142D02*
X113857142Y-95857142D01*
X112142857Y-98857142D01*
X112142857Y-95857142D01*
X110714285Y-98857142D02*
X110714285Y-95857142D01*
X109000000Y-98857142D01*
X109000000Y-95857142D01*
X107714285Y-98000000D02*
X106285714Y-98000000D01*
X108000000Y-98857142D02*
X107000000Y-95857142D01*
X106000000Y-98857142D01*
%TD*%
M02*
