%TF.GenerationSoftware,KiCad,Pcbnew,(5.1.9-0-10_14)*%
%TF.CreationDate,2021-04-20T20:33:20+01:00*%
%TF.ProjectId,PN532,504e3533-322e-46b6-9963-61645f706362,rev?*%
%TF.SameCoordinates,Original*%
%TF.FileFunction,Copper,L2,Bot*%
%TF.FilePolarity,Positive*%
%FSLAX46Y46*%
G04 Gerber Fmt 4.6, Leading zero omitted, Abs format (unit mm)*
G04 Created by KiCad (PCBNEW (5.1.9-0-10_14)) date 2021-04-20 20:33:20*
%MOMM*%
%LPD*%
G01*
G04 APERTURE LIST*
%TA.AperFunction,EtchedComponent*%
%ADD10C,0.600000*%
%TD*%
%TA.AperFunction,ComponentPad*%
%ADD11C,0.600000*%
%TD*%
%TA.AperFunction,ComponentPad*%
%ADD12C,1.000000*%
%TD*%
%TA.AperFunction,ComponentPad*%
%ADD13O,1.700000X1.700000*%
%TD*%
%TA.AperFunction,ComponentPad*%
%ADD14R,1.700000X1.700000*%
%TD*%
%TA.AperFunction,ComponentPad*%
%ADD15O,1.700000X1.850000*%
%TD*%
%TA.AperFunction,ComponentPad*%
%ADD16C,1.300000*%
%TD*%
%TA.AperFunction,ComponentPad*%
%ADD17R,1.300000X1.300000*%
%TD*%
%TA.AperFunction,ComponentPad*%
%ADD18C,2.000000*%
%TD*%
%TA.AperFunction,ComponentPad*%
%ADD19C,1.800000*%
%TD*%
%TA.AperFunction,ComponentPad*%
%ADD20R,1.800000X1.800000*%
%TD*%
%TA.AperFunction,ComponentPad*%
%ADD21C,0.800000*%
%TD*%
%TA.AperFunction,ComponentPad*%
%ADD22C,6.400000*%
%TD*%
%TA.AperFunction,ViaPad*%
%ADD23C,0.800000*%
%TD*%
%TA.AperFunction,Conductor*%
%ADD24C,0.500000*%
%TD*%
%TA.AperFunction,Conductor*%
%ADD25C,0.250000*%
%TD*%
%TA.AperFunction,Conductor*%
%ADD26C,0.254000*%
%TD*%
%TA.AperFunction,Conductor*%
%ADD27C,0.100000*%
%TD*%
G04 APERTURE END LIST*
D10*
%TO.C,A1*%
X105000000Y-99000000D02*
X137000000Y-99000000D01*
X141000000Y-95000000D02*
X141000000Y-63000000D01*
X137000000Y-59000000D02*
X105000000Y-59000000D01*
X140000000Y-95000000D02*
X140000000Y-63000000D01*
X137000000Y-60000000D02*
X105000000Y-60000000D01*
X137000000Y-98000000D02*
X105000000Y-98000000D01*
X105000000Y-97000000D02*
X137000000Y-97000000D01*
X139000000Y-95000000D02*
X139000000Y-63000000D01*
X137000000Y-61000000D02*
X105000000Y-61000000D01*
X105000000Y-96000000D02*
X137000000Y-96000000D01*
X138000000Y-95000000D02*
X138000000Y-82500000D01*
X138000000Y-63000000D02*
X138000000Y-75500000D01*
X137000000Y-62000000D02*
X105000000Y-62000000D01*
X104000000Y-95000000D02*
X104000000Y-80000000D01*
X103000000Y-95000000D02*
X103000000Y-80000000D01*
X103000000Y-80000000D02*
X104000000Y-78000000D01*
X104000000Y-78000000D02*
X104000000Y-63000000D01*
X102000000Y-95000000D02*
X102000000Y-80000000D01*
X102000000Y-80000000D02*
X103000000Y-78000000D01*
X103000000Y-78000000D02*
X103000000Y-63000000D01*
X101000000Y-95000000D02*
X101000000Y-80000000D01*
X101000000Y-80000000D02*
X102000000Y-78000000D01*
X102000000Y-78000000D02*
X102000000Y-63000000D01*
X101000000Y-63000000D02*
X101000000Y-78000000D01*
X105000000Y-59000000D02*
G75*
G03*
X101000000Y-63000000I0J-4000000D01*
G01*
X105000000Y-60000000D02*
G75*
G03*
X102000000Y-63000000I0J-3000000D01*
G01*
X105000000Y-61000000D02*
G75*
G03*
X103000000Y-63000000I0J-2000000D01*
G01*
X105000000Y-62000000D02*
G75*
G03*
X104000000Y-63000000I0J-1000000D01*
G01*
X101000000Y-95000000D02*
G75*
G03*
X105000000Y-99000000I4000000J0D01*
G01*
X102000000Y-95000000D02*
G75*
G03*
X105000000Y-98000000I3000000J0D01*
G01*
X103000000Y-95000000D02*
G75*
G03*
X105000000Y-97000000I2000000J0D01*
G01*
X104000000Y-95000000D02*
G75*
G03*
X105000000Y-96000000I1000000J0D01*
G01*
X141000000Y-63000000D02*
G75*
G03*
X137000000Y-59000000I-4000000J0D01*
G01*
X140000000Y-63000000D02*
G75*
G03*
X137000000Y-60000000I-3000000J0D01*
G01*
X139000000Y-63000000D02*
G75*
G03*
X137000000Y-61000000I-2000000J0D01*
G01*
X138000000Y-63000000D02*
G75*
G03*
X137000000Y-62000000I-1000000J0D01*
G01*
X137000000Y-99000000D02*
G75*
G03*
X141000000Y-95000000I0J4000000D01*
G01*
X137000000Y-98000000D02*
G75*
G03*
X140000000Y-95000000I0J3000000D01*
G01*
X137000000Y-97000000D02*
G75*
G03*
X139000000Y-95000000I0J2000000D01*
G01*
X137000000Y-96000000D02*
G75*
G03*
X138000000Y-95000000I0J1000000D01*
G01*
%TD*%
D11*
%TO.P,A1,~*%
%TO.N,N/C*%
X101000000Y-78000000D03*
X104000000Y-80000000D03*
%TO.P,A1,3*%
%TO.N,Net-(A1-Pad3)*%
X138000000Y-75500000D03*
%TO.P,A1,1*%
%TO.N,Net-(A1-Pad1)*%
X138000000Y-82500000D03*
%TO.P,A1,2*%
%TO.N,GND*%
X140000000Y-79000000D03*
%TD*%
D12*
%TO.P,U1,41*%
%TO.N,GND*%
X127025000Y-78725000D03*
X128525000Y-77225000D03*
X125525000Y-77225000D03*
X125525000Y-80225000D03*
X128525000Y-80225000D03*
%TD*%
D13*
%TO.P,J1,4*%
%TO.N,Net-(J1-Pad4)*%
X124810000Y-87000000D03*
%TO.P,J1,3*%
%TO.N,Net-(J1-Pad3)*%
X122270000Y-87000000D03*
%TO.P,J1,2*%
%TO.N,+5V*%
X119730000Y-87000000D03*
D14*
%TO.P,J1,1*%
%TO.N,GND*%
X117190000Y-87000000D03*
%TD*%
D15*
%TO.P,J2,4*%
%TO.N,Net-(J1-Pad4)*%
X124750000Y-88400000D03*
%TO.P,J2,3*%
%TO.N,Net-(J1-Pad3)*%
X122250000Y-88400000D03*
%TO.P,J2,2*%
%TO.N,+5V*%
X119750000Y-88400000D03*
%TO.P,J2,1*%
%TO.N,GND*%
%TA.AperFunction,ComponentPad*%
G36*
G01*
X116400000Y-89075000D02*
X116400000Y-87725000D01*
G75*
G02*
X116650000Y-87475000I250000J0D01*
G01*
X117850000Y-87475000D01*
G75*
G02*
X118100000Y-87725000I0J-250000D01*
G01*
X118100000Y-89075000D01*
G75*
G02*
X117850000Y-89325000I-250000J0D01*
G01*
X116650000Y-89325000D01*
G75*
G02*
X116400000Y-89075000I0J250000D01*
G01*
G37*
%TD.AperFunction*%
%TD*%
D16*
%TO.P,J3,4*%
%TO.N,Net-(J1-Pad4)*%
X120000000Y-78000000D03*
%TO.P,J3,3*%
%TO.N,Net-(J1-Pad3)*%
X122000000Y-78000000D03*
%TO.P,J3,2*%
%TO.N,+5V*%
X120000000Y-80000000D03*
D17*
%TO.P,J3,1*%
%TO.N,GND*%
X122000000Y-80000000D03*
%TD*%
D18*
%TO.P,SW1,1*%
%TO.N,GND*%
X129350000Y-89275000D03*
%TO.P,SW1,2*%
%TO.N,Net-(R10-Pad2)*%
X129350000Y-93775000D03*
%TO.P,SW1,1*%
%TO.N,GND*%
X135850000Y-89275000D03*
%TO.P,SW1,2*%
%TO.N,Net-(R10-Pad2)*%
X135850000Y-93775000D03*
%TD*%
%TO.P,D1,1*%
%TO.N,GND*%
%TA.AperFunction,SMDPad,CuDef*%
G36*
G01*
X111800000Y-67549999D02*
X111800000Y-68450001D01*
G75*
G02*
X111550001Y-68700000I-249999J0D01*
G01*
X110849999Y-68700000D01*
G75*
G02*
X110600000Y-68450001I0J249999D01*
G01*
X110600000Y-67549999D01*
G75*
G02*
X110849999Y-67300000I249999J0D01*
G01*
X111550001Y-67300000D01*
G75*
G02*
X111800000Y-67549999I0J-249999D01*
G01*
G37*
%TD.AperFunction*%
%TO.P,D1,2*%
%TO.N,Net-(D1-Pad2)*%
%TA.AperFunction,SMDPad,CuDef*%
G36*
G01*
X109800000Y-67549999D02*
X109800000Y-68450001D01*
G75*
G02*
X109550001Y-68700000I-249999J0D01*
G01*
X108849999Y-68700000D01*
G75*
G02*
X108600000Y-68450001I0J249999D01*
G01*
X108600000Y-67549999D01*
G75*
G02*
X108849999Y-67300000I249999J0D01*
G01*
X109550001Y-67300000D01*
G75*
G02*
X109800000Y-67549999I0J-249999D01*
G01*
G37*
%TD.AperFunction*%
%TA.AperFunction,SMDPad,CuDef*%
G36*
G01*
X108995000Y-67375000D02*
X108995000Y-68625000D01*
G75*
G02*
X108745000Y-68875000I-250000J0D01*
G01*
X107820000Y-68875000D01*
G75*
G02*
X107570000Y-68625000I0J250000D01*
G01*
X107570000Y-67375000D01*
G75*
G02*
X107820000Y-67125000I250000J0D01*
G01*
X108745000Y-67125000D01*
G75*
G02*
X108995000Y-67375000I0J-250000D01*
G01*
G37*
%TD.AperFunction*%
%TO.P,D1,1*%
%TO.N,GND*%
%TA.AperFunction,SMDPad,CuDef*%
G36*
G01*
X111970000Y-67375000D02*
X111970000Y-68625000D01*
G75*
G02*
X111720000Y-68875000I-250000J0D01*
G01*
X110795000Y-68875000D01*
G75*
G02*
X110545000Y-68625000I0J250000D01*
G01*
X110545000Y-67375000D01*
G75*
G02*
X110795000Y-67125000I250000J0D01*
G01*
X111720000Y-67125000D01*
G75*
G02*
X111970000Y-67375000I0J-250000D01*
G01*
G37*
%TD.AperFunction*%
D19*
%TO.P,D1,2*%
%TO.N,Net-(D1-Pad2)*%
X108730000Y-68000000D03*
D20*
%TO.P,D1,1*%
%TO.N,GND*%
X111270000Y-68000000D03*
%TD*%
%TO.P,D2,1*%
%TO.N,GND*%
%TA.AperFunction,SMDPad,CuDef*%
G36*
G01*
X111800000Y-73049999D02*
X111800000Y-73950001D01*
G75*
G02*
X111550001Y-74200000I-249999J0D01*
G01*
X110849999Y-74200000D01*
G75*
G02*
X110600000Y-73950001I0J249999D01*
G01*
X110600000Y-73049999D01*
G75*
G02*
X110849999Y-72800000I249999J0D01*
G01*
X111550001Y-72800000D01*
G75*
G02*
X111800000Y-73049999I0J-249999D01*
G01*
G37*
%TD.AperFunction*%
%TO.P,D2,2*%
%TO.N,Net-(D2-Pad2)*%
%TA.AperFunction,SMDPad,CuDef*%
G36*
G01*
X109800000Y-73049999D02*
X109800000Y-73950001D01*
G75*
G02*
X109550001Y-74200000I-249999J0D01*
G01*
X108849999Y-74200000D01*
G75*
G02*
X108600000Y-73950001I0J249999D01*
G01*
X108600000Y-73049999D01*
G75*
G02*
X108849999Y-72800000I249999J0D01*
G01*
X109550001Y-72800000D01*
G75*
G02*
X109800000Y-73049999I0J-249999D01*
G01*
G37*
%TD.AperFunction*%
%TA.AperFunction,SMDPad,CuDef*%
G36*
G01*
X108995000Y-72875000D02*
X108995000Y-74125000D01*
G75*
G02*
X108745000Y-74375000I-250000J0D01*
G01*
X107820000Y-74375000D01*
G75*
G02*
X107570000Y-74125000I0J250000D01*
G01*
X107570000Y-72875000D01*
G75*
G02*
X107820000Y-72625000I250000J0D01*
G01*
X108745000Y-72625000D01*
G75*
G02*
X108995000Y-72875000I0J-250000D01*
G01*
G37*
%TD.AperFunction*%
%TO.P,D2,1*%
%TO.N,GND*%
%TA.AperFunction,SMDPad,CuDef*%
G36*
G01*
X111970000Y-72875000D02*
X111970000Y-74125000D01*
G75*
G02*
X111720000Y-74375000I-250000J0D01*
G01*
X110795000Y-74375000D01*
G75*
G02*
X110545000Y-74125000I0J250000D01*
G01*
X110545000Y-72875000D01*
G75*
G02*
X110795000Y-72625000I250000J0D01*
G01*
X111720000Y-72625000D01*
G75*
G02*
X111970000Y-72875000I0J-250000D01*
G01*
G37*
%TD.AperFunction*%
D19*
%TO.P,D2,2*%
%TO.N,Net-(D2-Pad2)*%
X108730000Y-73500000D03*
D20*
%TO.P,D2,1*%
%TO.N,GND*%
X111270000Y-73500000D03*
%TD*%
%TO.P,D3,1*%
%TO.N,GND*%
%TA.AperFunction,SMDPad,CuDef*%
G36*
G01*
X111800000Y-78549999D02*
X111800000Y-79450001D01*
G75*
G02*
X111550001Y-79700000I-249999J0D01*
G01*
X110849999Y-79700000D01*
G75*
G02*
X110600000Y-79450001I0J249999D01*
G01*
X110600000Y-78549999D01*
G75*
G02*
X110849999Y-78300000I249999J0D01*
G01*
X111550001Y-78300000D01*
G75*
G02*
X111800000Y-78549999I0J-249999D01*
G01*
G37*
%TD.AperFunction*%
%TO.P,D3,2*%
%TO.N,Net-(D3-Pad2)*%
%TA.AperFunction,SMDPad,CuDef*%
G36*
G01*
X109800000Y-78549999D02*
X109800000Y-79450001D01*
G75*
G02*
X109550001Y-79700000I-249999J0D01*
G01*
X108849999Y-79700000D01*
G75*
G02*
X108600000Y-79450001I0J249999D01*
G01*
X108600000Y-78549999D01*
G75*
G02*
X108849999Y-78300000I249999J0D01*
G01*
X109550001Y-78300000D01*
G75*
G02*
X109800000Y-78549999I0J-249999D01*
G01*
G37*
%TD.AperFunction*%
%TA.AperFunction,SMDPad,CuDef*%
G36*
G01*
X108995000Y-78375000D02*
X108995000Y-79625000D01*
G75*
G02*
X108745000Y-79875000I-250000J0D01*
G01*
X107820000Y-79875000D01*
G75*
G02*
X107570000Y-79625000I0J250000D01*
G01*
X107570000Y-78375000D01*
G75*
G02*
X107820000Y-78125000I250000J0D01*
G01*
X108745000Y-78125000D01*
G75*
G02*
X108995000Y-78375000I0J-250000D01*
G01*
G37*
%TD.AperFunction*%
%TO.P,D3,1*%
%TO.N,GND*%
%TA.AperFunction,SMDPad,CuDef*%
G36*
G01*
X111970000Y-78375000D02*
X111970000Y-79625000D01*
G75*
G02*
X111720000Y-79875000I-250000J0D01*
G01*
X110795000Y-79875000D01*
G75*
G02*
X110545000Y-79625000I0J250000D01*
G01*
X110545000Y-78375000D01*
G75*
G02*
X110795000Y-78125000I250000J0D01*
G01*
X111720000Y-78125000D01*
G75*
G02*
X111970000Y-78375000I0J-250000D01*
G01*
G37*
%TD.AperFunction*%
D19*
%TO.P,D3,2*%
%TO.N,Net-(D3-Pad2)*%
X108730000Y-79000000D03*
D20*
%TO.P,D3,1*%
%TO.N,GND*%
X111270000Y-79000000D03*
%TD*%
D21*
%TO.P,H1,1*%
%TO.N,N/C*%
X135697056Y-64302944D03*
X134000000Y-63600000D03*
X132302944Y-64302944D03*
X131600000Y-66000000D03*
X132302944Y-67697056D03*
X134000000Y-68400000D03*
X135697056Y-67697056D03*
X136400000Y-66000000D03*
D22*
X134000000Y-66000000D03*
%TD*%
D21*
%TO.P,H2,1*%
%TO.N,N/C*%
X109697056Y-90302944D03*
X108000000Y-89600000D03*
X106302944Y-90302944D03*
X105600000Y-92000000D03*
X106302944Y-93697056D03*
X108000000Y-94400000D03*
X109697056Y-93697056D03*
X110400000Y-92000000D03*
D22*
X108000000Y-92000000D03*
%TD*%
D23*
%TO.N,GND*%
X113000000Y-82700000D03*
X120150000Y-75400000D03*
X124325000Y-84200000D03*
X134600000Y-79000000D03*
X128300000Y-85675000D03*
X134575000Y-71800000D03*
X134575000Y-86200000D03*
X121800000Y-71425000D03*
X128500000Y-73500000D03*
%TO.N,Net-(C8-Pad1)*%
X129950810Y-74847094D03*
X124625160Y-69400160D03*
%TO.N,+5V*%
X130481905Y-83556586D03*
%TO.N,Net-(R5-Pad1)*%
X125101533Y-89910927D03*
X127051144Y-82895924D03*
%TO.N,Net-(C10-Pad1)*%
X120800000Y-69400000D03*
X130720199Y-73675000D03*
%TO.N,Net-(R9-Pad1)*%
X125574844Y-83023497D03*
X118899980Y-84183424D03*
%TO.N,Net-(R10-Pad2)*%
X124075000Y-74250000D03*
X120500000Y-84250000D03*
%TD*%
D24*
%TO.N,GND*%
X129750000Y-79000000D02*
X128525000Y-80225000D01*
X134600000Y-79000000D02*
X129750000Y-79000000D01*
X134575000Y-71800000D02*
X134255906Y-71800000D01*
X130358811Y-75697095D02*
X130052905Y-75697095D01*
X130052905Y-75697095D02*
X128525000Y-77225000D01*
X134255906Y-71800000D02*
X130358811Y-75697095D01*
X134500000Y-86200000D02*
X128525000Y-80225000D01*
X134575000Y-86200000D02*
X134500000Y-86200000D01*
D25*
X122000000Y-80000000D02*
X121700000Y-80000000D01*
%TO.N,Net-(C8-Pad1)*%
X124625160Y-69965845D02*
X124625160Y-69400160D01*
X129400000Y-71000000D02*
X125659315Y-71000000D01*
X129950810Y-74847094D02*
X129950810Y-71550810D01*
X129950810Y-71550810D02*
X129400000Y-71000000D01*
X125659315Y-71000000D02*
X124625160Y-69965845D01*
%TO.N,+5V*%
X128825319Y-81900000D02*
X130481905Y-83556586D01*
X126300000Y-82400000D02*
X126800000Y-81900000D01*
X126300000Y-83371347D02*
X126300000Y-82400000D01*
X126800000Y-81900000D02*
X128825319Y-81900000D01*
X116750000Y-85750000D02*
X121144588Y-85750000D01*
X125226843Y-83748498D02*
X125348498Y-83748498D01*
X124849843Y-83249843D02*
X124849843Y-83371498D01*
X125500000Y-83900000D02*
X125771347Y-83900000D01*
X124500000Y-82900000D02*
X124849843Y-83249843D01*
X125771347Y-83900000D02*
X126300000Y-83371347D01*
X116500000Y-81500000D02*
X116500000Y-85500000D01*
X123994588Y-82900000D02*
X124500000Y-82900000D01*
X121144588Y-85750000D02*
X123994588Y-82900000D01*
X124849843Y-83371498D02*
X125226843Y-83748498D01*
X118000000Y-80000000D02*
X116500000Y-81500000D01*
X116500000Y-85500000D02*
X116750000Y-85750000D01*
X125348498Y-83748498D02*
X125500000Y-83900000D01*
X120000000Y-80000000D02*
X118000000Y-80000000D01*
%TO.N,Net-(J1-Pad4)*%
X123634999Y-85824999D02*
X123175001Y-85824999D01*
X123324999Y-85824999D02*
X123634999Y-85824999D01*
X123175001Y-85824999D02*
X123324999Y-85824999D01*
X123634999Y-85824999D02*
X122424999Y-85824999D01*
X124810000Y-87000000D02*
X123634999Y-85824999D01*
X122424999Y-85824999D02*
X123175001Y-85824999D01*
X121975001Y-85824999D02*
X122424999Y-85824999D01*
X121705999Y-85824999D02*
X121975001Y-85824999D01*
X121074990Y-86456008D02*
X121705999Y-85824999D01*
X116014999Y-89253189D02*
X116611799Y-89849989D01*
X116014999Y-81235001D02*
X116014999Y-89253189D01*
X116611799Y-89849989D02*
X120186706Y-89849989D01*
X121074990Y-88961705D02*
X121074990Y-86456008D01*
X119250000Y-78000000D02*
X116014999Y-81235001D01*
X120186706Y-89849989D02*
X121074990Y-88961705D01*
X120000000Y-78000000D02*
X119250000Y-78000000D01*
%TO.N,Net-(J1-Pad3)*%
X115564988Y-80992010D02*
X115564988Y-89439590D01*
X119531999Y-77024999D02*
X115564988Y-80992010D01*
X116425399Y-90300000D02*
X121675000Y-90300000D01*
X115564988Y-89439590D02*
X116425399Y-90300000D01*
X121024999Y-77024999D02*
X119531999Y-77024999D01*
X122000000Y-78000000D02*
X121024999Y-77024999D01*
X122250000Y-89725000D02*
X121675000Y-90300000D01*
X122250000Y-88400000D02*
X122250000Y-89725000D01*
%TO.N,Net-(R5-Pad1)*%
X127051144Y-82895924D02*
X128795924Y-82895924D01*
X125790607Y-90600001D02*
X125101533Y-89910927D01*
X130675001Y-89911001D02*
X129986001Y-90600001D01*
X130675001Y-84775001D02*
X130675001Y-89911001D01*
X129986001Y-90600001D02*
X125790607Y-90600001D01*
X128795924Y-82895924D02*
X130675001Y-84775001D01*
%TO.N,Net-(C10-Pad1)*%
X124400000Y-68600000D02*
X123600000Y-69400000D01*
X123600000Y-69400000D02*
X120800000Y-69400000D01*
X125700000Y-68950000D02*
X125350000Y-68600000D01*
X125350000Y-68600000D02*
X124400000Y-68600000D01*
X125700000Y-70050000D02*
X125700000Y-68950000D01*
X126150000Y-70500000D02*
X125700000Y-70050000D01*
X130000000Y-70500000D02*
X126150000Y-70500000D01*
X130720199Y-71220199D02*
X130000000Y-70500000D01*
X130720199Y-73675000D02*
X130720199Y-71220199D01*
%TO.N,Net-(R9-Pad1)*%
X119966556Y-85250000D02*
X118899980Y-84183424D01*
X124951347Y-82400000D02*
X123736410Y-82400000D01*
X125574844Y-83023497D02*
X124951347Y-82400000D01*
X123736410Y-82400000D02*
X120886410Y-85250000D01*
X120886410Y-85250000D02*
X119966556Y-85250000D01*
%TO.N,Net-(R10-Pad2)*%
X120500000Y-84250000D02*
X120500000Y-84250000D01*
X123000000Y-75325000D02*
X124075000Y-74250000D01*
X123000000Y-82500000D02*
X123000000Y-75325000D01*
X121250000Y-84250000D02*
X123000000Y-82500000D01*
X120500000Y-84250000D02*
X121250000Y-84250000D01*
%TD*%
D26*
%TO.N,GND*%
X111327000Y-67873000D02*
X111347000Y-67873000D01*
X111347000Y-68127000D01*
X111327000Y-68127000D01*
X111327000Y-69176250D01*
X111384500Y-69233750D01*
X111384500Y-69351250D01*
X111397000Y-69363750D01*
X111397000Y-69376250D01*
X111555750Y-69535000D01*
X112170000Y-69538072D01*
X112294482Y-69525812D01*
X112373191Y-69501936D01*
X112375440Y-69524776D01*
X112382667Y-69548601D01*
X112394403Y-69570557D01*
X112410197Y-69589803D01*
X113410197Y-70589803D01*
X113429443Y-70605597D01*
X113451399Y-70617333D01*
X113475224Y-70624560D01*
X113500000Y-70627000D01*
X124211513Y-70627000D01*
X125095515Y-71511002D01*
X125119314Y-71540001D01*
X125148312Y-71563799D01*
X125235038Y-71634974D01*
X125356311Y-71699796D01*
X125367068Y-71705546D01*
X125510329Y-71749003D01*
X125621982Y-71760000D01*
X125621991Y-71760000D01*
X125659314Y-71763676D01*
X125696637Y-71760000D01*
X129085199Y-71760000D01*
X129190811Y-71865612D01*
X129190810Y-74143383D01*
X129146873Y-74187320D01*
X129033605Y-74356838D01*
X128955584Y-74545196D01*
X128915810Y-74745155D01*
X128915810Y-74949033D01*
X128955584Y-75148992D01*
X129033605Y-75337350D01*
X129146873Y-75506868D01*
X129291036Y-75651031D01*
X129460554Y-75764299D01*
X129648912Y-75842320D01*
X129848871Y-75882094D01*
X129873000Y-75882094D01*
X129873000Y-81872880D01*
X129389122Y-81389002D01*
X129365320Y-81359999D01*
X129249595Y-81265026D01*
X129117566Y-81194454D01*
X129093302Y-81187094D01*
X129123561Y-81003166D01*
X128525000Y-80404605D01*
X127926439Y-81003166D01*
X127948950Y-81140000D01*
X126837325Y-81140000D01*
X126800000Y-81136324D01*
X126762675Y-81140000D01*
X126762667Y-81140000D01*
X126651014Y-81150997D01*
X126507753Y-81194454D01*
X126375724Y-81265026D01*
X126259999Y-81359999D01*
X126236196Y-81389003D01*
X125788998Y-81836201D01*
X125760000Y-81859999D01*
X125736202Y-81888997D01*
X125736201Y-81888998D01*
X125665026Y-81975724D01*
X125658199Y-81988497D01*
X125614645Y-81988497D01*
X125515150Y-81889002D01*
X125491348Y-81859999D01*
X125375623Y-81765026D01*
X125243594Y-81694454D01*
X125100333Y-81650997D01*
X124988680Y-81640000D01*
X124988669Y-81640000D01*
X124951347Y-81636324D01*
X124914025Y-81640000D01*
X123773735Y-81640000D01*
X123760000Y-81638647D01*
X123760000Y-81003166D01*
X124926439Y-81003166D01*
X124961550Y-81216588D01*
X125165826Y-81307458D01*
X125383905Y-81356731D01*
X125607406Y-81362511D01*
X125827740Y-81324577D01*
X126036440Y-81244387D01*
X126088450Y-81216588D01*
X126123561Y-81003166D01*
X125525000Y-80404605D01*
X124926439Y-81003166D01*
X123760000Y-81003166D01*
X123760000Y-80307406D01*
X124387489Y-80307406D01*
X124425423Y-80527740D01*
X124505613Y-80736440D01*
X124533412Y-80788450D01*
X124746834Y-80823561D01*
X125345395Y-80225000D01*
X125704605Y-80225000D01*
X126303166Y-80823561D01*
X126516588Y-80788450D01*
X126607458Y-80584174D01*
X126656731Y-80366095D01*
X126662511Y-80142594D01*
X126624577Y-79922260D01*
X126562868Y-79761658D01*
X126665826Y-79807458D01*
X126883905Y-79856731D01*
X127107406Y-79862511D01*
X127327740Y-79824577D01*
X127488342Y-79762868D01*
X127442542Y-79865826D01*
X127393269Y-80083905D01*
X127387489Y-80307406D01*
X127425423Y-80527740D01*
X127505613Y-80736440D01*
X127533412Y-80788450D01*
X127746834Y-80823561D01*
X128345395Y-80225000D01*
X128704605Y-80225000D01*
X129303166Y-80823561D01*
X129516588Y-80788450D01*
X129607458Y-80584174D01*
X129656731Y-80366095D01*
X129662511Y-80142594D01*
X129624577Y-79922260D01*
X129544387Y-79713560D01*
X129516588Y-79661550D01*
X129303166Y-79626439D01*
X128704605Y-80225000D01*
X128345395Y-80225000D01*
X127746834Y-79626439D01*
X127599287Y-79650713D01*
X127623561Y-79503166D01*
X127025000Y-78904605D01*
X126426439Y-79503166D01*
X126450713Y-79650713D01*
X126303166Y-79626439D01*
X125704605Y-80225000D01*
X125345395Y-80225000D01*
X124746834Y-79626439D01*
X124533412Y-79661550D01*
X124442542Y-79865826D01*
X124393269Y-80083905D01*
X124387489Y-80307406D01*
X123760000Y-80307406D01*
X123760000Y-78003166D01*
X124926439Y-78003166D01*
X124961550Y-78216588D01*
X125165826Y-78307458D01*
X125383905Y-78356731D01*
X125607406Y-78362511D01*
X125827740Y-78324577D01*
X125988342Y-78262868D01*
X125942542Y-78365826D01*
X125893269Y-78583905D01*
X125887489Y-78807406D01*
X125925423Y-79027740D01*
X125987132Y-79188342D01*
X125884174Y-79142542D01*
X125666095Y-79093269D01*
X125442594Y-79087489D01*
X125222260Y-79125423D01*
X125013560Y-79205613D01*
X124961550Y-79233412D01*
X124926439Y-79446834D01*
X125525000Y-80045395D01*
X126123561Y-79446834D01*
X126099287Y-79299287D01*
X126246834Y-79323561D01*
X126845395Y-78725000D01*
X127204605Y-78725000D01*
X127803166Y-79323561D01*
X127950713Y-79299287D01*
X127926439Y-79446834D01*
X128525000Y-80045395D01*
X129123561Y-79446834D01*
X129088450Y-79233412D01*
X128884174Y-79142542D01*
X128666095Y-79093269D01*
X128442594Y-79087489D01*
X128222260Y-79125423D01*
X128061658Y-79187132D01*
X128107458Y-79084174D01*
X128156731Y-78866095D01*
X128162511Y-78642594D01*
X128124577Y-78422260D01*
X128062868Y-78261658D01*
X128165826Y-78307458D01*
X128383905Y-78356731D01*
X128607406Y-78362511D01*
X128827740Y-78324577D01*
X129036440Y-78244387D01*
X129088450Y-78216588D01*
X129123561Y-78003166D01*
X128525000Y-77404605D01*
X127926439Y-78003166D01*
X127950713Y-78150713D01*
X127803166Y-78126439D01*
X127204605Y-78725000D01*
X126845395Y-78725000D01*
X126246834Y-78126439D01*
X126099287Y-78150713D01*
X126123561Y-78003166D01*
X125525000Y-77404605D01*
X124926439Y-78003166D01*
X123760000Y-78003166D01*
X123760000Y-77307406D01*
X124387489Y-77307406D01*
X124425423Y-77527740D01*
X124505613Y-77736440D01*
X124533412Y-77788450D01*
X124746834Y-77823561D01*
X125345395Y-77225000D01*
X125704605Y-77225000D01*
X126303166Y-77823561D01*
X126450713Y-77799287D01*
X126426439Y-77946834D01*
X127025000Y-78545395D01*
X127623561Y-77946834D01*
X127599287Y-77799287D01*
X127746834Y-77823561D01*
X128345395Y-77225000D01*
X128704605Y-77225000D01*
X129303166Y-77823561D01*
X129516588Y-77788450D01*
X129607458Y-77584174D01*
X129656731Y-77366095D01*
X129662511Y-77142594D01*
X129624577Y-76922260D01*
X129544387Y-76713560D01*
X129516588Y-76661550D01*
X129303166Y-76626439D01*
X128704605Y-77225000D01*
X128345395Y-77225000D01*
X127746834Y-76626439D01*
X127533412Y-76661550D01*
X127442542Y-76865826D01*
X127393269Y-77083905D01*
X127387489Y-77307406D01*
X127425423Y-77527740D01*
X127487132Y-77688342D01*
X127384174Y-77642542D01*
X127166095Y-77593269D01*
X126942594Y-77587489D01*
X126722260Y-77625423D01*
X126561658Y-77687132D01*
X126607458Y-77584174D01*
X126656731Y-77366095D01*
X126662511Y-77142594D01*
X126624577Y-76922260D01*
X126544387Y-76713560D01*
X126516588Y-76661550D01*
X126303166Y-76626439D01*
X125704605Y-77225000D01*
X125345395Y-77225000D01*
X124746834Y-76626439D01*
X124533412Y-76661550D01*
X124442542Y-76865826D01*
X124393269Y-77083905D01*
X124387489Y-77307406D01*
X123760000Y-77307406D01*
X123760000Y-76446834D01*
X124926439Y-76446834D01*
X125525000Y-77045395D01*
X126123561Y-76446834D01*
X127926439Y-76446834D01*
X128525000Y-77045395D01*
X129123561Y-76446834D01*
X129088450Y-76233412D01*
X128884174Y-76142542D01*
X128666095Y-76093269D01*
X128442594Y-76087489D01*
X128222260Y-76125423D01*
X128013560Y-76205613D01*
X127961550Y-76233412D01*
X127926439Y-76446834D01*
X126123561Y-76446834D01*
X126088450Y-76233412D01*
X125884174Y-76142542D01*
X125666095Y-76093269D01*
X125442594Y-76087489D01*
X125222260Y-76125423D01*
X125013560Y-76205613D01*
X124961550Y-76233412D01*
X124926439Y-76446834D01*
X123760000Y-76446834D01*
X123760000Y-75639801D01*
X124114802Y-75285000D01*
X124176939Y-75285000D01*
X124376898Y-75245226D01*
X124565256Y-75167205D01*
X124734774Y-75053937D01*
X124878937Y-74909774D01*
X124992205Y-74740256D01*
X125070226Y-74551898D01*
X125110000Y-74351939D01*
X125110000Y-74148061D01*
X125070226Y-73948102D01*
X124992205Y-73759744D01*
X124878937Y-73590226D01*
X124734774Y-73446063D01*
X124565256Y-73332795D01*
X124376898Y-73254774D01*
X124176939Y-73215000D01*
X123973061Y-73215000D01*
X123773102Y-73254774D01*
X123584744Y-73332795D01*
X123415226Y-73446063D01*
X123271063Y-73590226D01*
X123157795Y-73759744D01*
X123079774Y-73948102D01*
X123040000Y-74148061D01*
X123040000Y-74210198D01*
X122488998Y-74761201D01*
X122460000Y-74784999D01*
X122436202Y-74813997D01*
X122436201Y-74813998D01*
X122365026Y-74900724D01*
X122294454Y-75032754D01*
X122250998Y-75176015D01*
X122236324Y-75325000D01*
X122240001Y-75362332D01*
X122240001Y-76737564D01*
X122126561Y-76715000D01*
X121873439Y-76715000D01*
X121803677Y-76728876D01*
X121588803Y-76514001D01*
X121565000Y-76484998D01*
X121449275Y-76390025D01*
X121317246Y-76319453D01*
X121173985Y-76275996D01*
X121062332Y-76264999D01*
X121062321Y-76264999D01*
X121024999Y-76261323D01*
X120987677Y-76264999D01*
X119569324Y-76264999D01*
X119531999Y-76261323D01*
X119494674Y-76264999D01*
X119494666Y-76264999D01*
X119383013Y-76275996D01*
X119239752Y-76319453D01*
X119107723Y-76390025D01*
X118991998Y-76484998D01*
X118968200Y-76513996D01*
X115053991Y-80428206D01*
X115024987Y-80452009D01*
X114976572Y-80511003D01*
X114930014Y-80567734D01*
X114921227Y-80584174D01*
X114859442Y-80699764D01*
X114815985Y-80843025D01*
X114804988Y-80954678D01*
X114804988Y-80954688D01*
X114801312Y-80992010D01*
X114804988Y-81029332D01*
X114804989Y-89402258D01*
X114801312Y-89439590D01*
X114815986Y-89588576D01*
X114859442Y-89731836D01*
X114930015Y-89863866D01*
X114937511Y-89873000D01*
X111191099Y-89873000D01*
X110978839Y-89555330D01*
X110444670Y-89021161D01*
X110127000Y-88808901D01*
X110127000Y-80489860D01*
X110245518Y-80525812D01*
X110370000Y-80538072D01*
X110984250Y-80535000D01*
X111143000Y-80376250D01*
X111143000Y-79127000D01*
X111327000Y-79127000D01*
X111327000Y-80176250D01*
X111384500Y-80233750D01*
X111384500Y-80351250D01*
X111397000Y-80363750D01*
X111397000Y-80376250D01*
X111555750Y-80535000D01*
X112170000Y-80538072D01*
X112294482Y-80525812D01*
X112414180Y-80489502D01*
X112524494Y-80430537D01*
X112621185Y-80351185D01*
X112700537Y-80254494D01*
X112759502Y-80144180D01*
X112795812Y-80024482D01*
X112808072Y-79900000D01*
X112805000Y-79285750D01*
X112646250Y-79127000D01*
X111327000Y-79127000D01*
X111143000Y-79127000D01*
X111123000Y-79127000D01*
X111123000Y-78873000D01*
X111143000Y-78873000D01*
X111143000Y-77823750D01*
X111327000Y-77823750D01*
X111327000Y-78873000D01*
X112646250Y-78873000D01*
X112805000Y-78714250D01*
X112808072Y-78100000D01*
X112795812Y-77975518D01*
X112759502Y-77855820D01*
X112700537Y-77745506D01*
X112621185Y-77648815D01*
X112524494Y-77569463D01*
X112414180Y-77510498D01*
X112294482Y-77474188D01*
X112170000Y-77461928D01*
X111555750Y-77465000D01*
X111397000Y-77623750D01*
X111397000Y-77636250D01*
X111384500Y-77648750D01*
X111384500Y-77766250D01*
X111327000Y-77823750D01*
X111143000Y-77823750D01*
X111143000Y-77623750D01*
X110984250Y-77465000D01*
X110370000Y-77461928D01*
X110245518Y-77474188D01*
X110127000Y-77510140D01*
X110127000Y-74989860D01*
X110245518Y-75025812D01*
X110370000Y-75038072D01*
X110984250Y-75035000D01*
X111143000Y-74876250D01*
X111143000Y-73627000D01*
X111327000Y-73627000D01*
X111327000Y-74676250D01*
X111384500Y-74733750D01*
X111384500Y-74851250D01*
X111397000Y-74863750D01*
X111397000Y-74876250D01*
X111555750Y-75035000D01*
X112170000Y-75038072D01*
X112294482Y-75025812D01*
X112414180Y-74989502D01*
X112524494Y-74930537D01*
X112621185Y-74851185D01*
X112700537Y-74754494D01*
X112759502Y-74644180D01*
X112795812Y-74524482D01*
X112808072Y-74400000D01*
X112805000Y-73785750D01*
X112646250Y-73627000D01*
X111327000Y-73627000D01*
X111143000Y-73627000D01*
X111123000Y-73627000D01*
X111123000Y-73373000D01*
X111143000Y-73373000D01*
X111143000Y-72323750D01*
X111327000Y-72323750D01*
X111327000Y-73373000D01*
X112646250Y-73373000D01*
X112805000Y-73214250D01*
X112808072Y-72600000D01*
X112795812Y-72475518D01*
X112759502Y-72355820D01*
X112700537Y-72245506D01*
X112621185Y-72148815D01*
X112524494Y-72069463D01*
X112414180Y-72010498D01*
X112294482Y-71974188D01*
X112170000Y-71961928D01*
X111555750Y-71965000D01*
X111397000Y-72123750D01*
X111397000Y-72136250D01*
X111384500Y-72148750D01*
X111384500Y-72266250D01*
X111327000Y-72323750D01*
X111143000Y-72323750D01*
X111143000Y-72123750D01*
X110984250Y-71965000D01*
X110370000Y-71961928D01*
X110245518Y-71974188D01*
X110127000Y-72010140D01*
X110127000Y-69489860D01*
X110245518Y-69525812D01*
X110370000Y-69538072D01*
X110984250Y-69535000D01*
X111143000Y-69376250D01*
X111143000Y-68127000D01*
X111123000Y-68127000D01*
X111123000Y-67873000D01*
X111143000Y-67873000D01*
X111143000Y-67853000D01*
X111327000Y-67853000D01*
X111327000Y-67873000D01*
%TA.AperFunction,Conductor*%
D27*
G36*
X111327000Y-67873000D02*
G01*
X111347000Y-67873000D01*
X111347000Y-68127000D01*
X111327000Y-68127000D01*
X111327000Y-69176250D01*
X111384500Y-69233750D01*
X111384500Y-69351250D01*
X111397000Y-69363750D01*
X111397000Y-69376250D01*
X111555750Y-69535000D01*
X112170000Y-69538072D01*
X112294482Y-69525812D01*
X112373191Y-69501936D01*
X112375440Y-69524776D01*
X112382667Y-69548601D01*
X112394403Y-69570557D01*
X112410197Y-69589803D01*
X113410197Y-70589803D01*
X113429443Y-70605597D01*
X113451399Y-70617333D01*
X113475224Y-70624560D01*
X113500000Y-70627000D01*
X124211513Y-70627000D01*
X125095515Y-71511002D01*
X125119314Y-71540001D01*
X125148312Y-71563799D01*
X125235038Y-71634974D01*
X125356311Y-71699796D01*
X125367068Y-71705546D01*
X125510329Y-71749003D01*
X125621982Y-71760000D01*
X125621991Y-71760000D01*
X125659314Y-71763676D01*
X125696637Y-71760000D01*
X129085199Y-71760000D01*
X129190811Y-71865612D01*
X129190810Y-74143383D01*
X129146873Y-74187320D01*
X129033605Y-74356838D01*
X128955584Y-74545196D01*
X128915810Y-74745155D01*
X128915810Y-74949033D01*
X128955584Y-75148992D01*
X129033605Y-75337350D01*
X129146873Y-75506868D01*
X129291036Y-75651031D01*
X129460554Y-75764299D01*
X129648912Y-75842320D01*
X129848871Y-75882094D01*
X129873000Y-75882094D01*
X129873000Y-81872880D01*
X129389122Y-81389002D01*
X129365320Y-81359999D01*
X129249595Y-81265026D01*
X129117566Y-81194454D01*
X129093302Y-81187094D01*
X129123561Y-81003166D01*
X128525000Y-80404605D01*
X127926439Y-81003166D01*
X127948950Y-81140000D01*
X126837325Y-81140000D01*
X126800000Y-81136324D01*
X126762675Y-81140000D01*
X126762667Y-81140000D01*
X126651014Y-81150997D01*
X126507753Y-81194454D01*
X126375724Y-81265026D01*
X126259999Y-81359999D01*
X126236196Y-81389003D01*
X125788998Y-81836201D01*
X125760000Y-81859999D01*
X125736202Y-81888997D01*
X125736201Y-81888998D01*
X125665026Y-81975724D01*
X125658199Y-81988497D01*
X125614645Y-81988497D01*
X125515150Y-81889002D01*
X125491348Y-81859999D01*
X125375623Y-81765026D01*
X125243594Y-81694454D01*
X125100333Y-81650997D01*
X124988680Y-81640000D01*
X124988669Y-81640000D01*
X124951347Y-81636324D01*
X124914025Y-81640000D01*
X123773735Y-81640000D01*
X123760000Y-81638647D01*
X123760000Y-81003166D01*
X124926439Y-81003166D01*
X124961550Y-81216588D01*
X125165826Y-81307458D01*
X125383905Y-81356731D01*
X125607406Y-81362511D01*
X125827740Y-81324577D01*
X126036440Y-81244387D01*
X126088450Y-81216588D01*
X126123561Y-81003166D01*
X125525000Y-80404605D01*
X124926439Y-81003166D01*
X123760000Y-81003166D01*
X123760000Y-80307406D01*
X124387489Y-80307406D01*
X124425423Y-80527740D01*
X124505613Y-80736440D01*
X124533412Y-80788450D01*
X124746834Y-80823561D01*
X125345395Y-80225000D01*
X125704605Y-80225000D01*
X126303166Y-80823561D01*
X126516588Y-80788450D01*
X126607458Y-80584174D01*
X126656731Y-80366095D01*
X126662511Y-80142594D01*
X126624577Y-79922260D01*
X126562868Y-79761658D01*
X126665826Y-79807458D01*
X126883905Y-79856731D01*
X127107406Y-79862511D01*
X127327740Y-79824577D01*
X127488342Y-79762868D01*
X127442542Y-79865826D01*
X127393269Y-80083905D01*
X127387489Y-80307406D01*
X127425423Y-80527740D01*
X127505613Y-80736440D01*
X127533412Y-80788450D01*
X127746834Y-80823561D01*
X128345395Y-80225000D01*
X128704605Y-80225000D01*
X129303166Y-80823561D01*
X129516588Y-80788450D01*
X129607458Y-80584174D01*
X129656731Y-80366095D01*
X129662511Y-80142594D01*
X129624577Y-79922260D01*
X129544387Y-79713560D01*
X129516588Y-79661550D01*
X129303166Y-79626439D01*
X128704605Y-80225000D01*
X128345395Y-80225000D01*
X127746834Y-79626439D01*
X127599287Y-79650713D01*
X127623561Y-79503166D01*
X127025000Y-78904605D01*
X126426439Y-79503166D01*
X126450713Y-79650713D01*
X126303166Y-79626439D01*
X125704605Y-80225000D01*
X125345395Y-80225000D01*
X124746834Y-79626439D01*
X124533412Y-79661550D01*
X124442542Y-79865826D01*
X124393269Y-80083905D01*
X124387489Y-80307406D01*
X123760000Y-80307406D01*
X123760000Y-78003166D01*
X124926439Y-78003166D01*
X124961550Y-78216588D01*
X125165826Y-78307458D01*
X125383905Y-78356731D01*
X125607406Y-78362511D01*
X125827740Y-78324577D01*
X125988342Y-78262868D01*
X125942542Y-78365826D01*
X125893269Y-78583905D01*
X125887489Y-78807406D01*
X125925423Y-79027740D01*
X125987132Y-79188342D01*
X125884174Y-79142542D01*
X125666095Y-79093269D01*
X125442594Y-79087489D01*
X125222260Y-79125423D01*
X125013560Y-79205613D01*
X124961550Y-79233412D01*
X124926439Y-79446834D01*
X125525000Y-80045395D01*
X126123561Y-79446834D01*
X126099287Y-79299287D01*
X126246834Y-79323561D01*
X126845395Y-78725000D01*
X127204605Y-78725000D01*
X127803166Y-79323561D01*
X127950713Y-79299287D01*
X127926439Y-79446834D01*
X128525000Y-80045395D01*
X129123561Y-79446834D01*
X129088450Y-79233412D01*
X128884174Y-79142542D01*
X128666095Y-79093269D01*
X128442594Y-79087489D01*
X128222260Y-79125423D01*
X128061658Y-79187132D01*
X128107458Y-79084174D01*
X128156731Y-78866095D01*
X128162511Y-78642594D01*
X128124577Y-78422260D01*
X128062868Y-78261658D01*
X128165826Y-78307458D01*
X128383905Y-78356731D01*
X128607406Y-78362511D01*
X128827740Y-78324577D01*
X129036440Y-78244387D01*
X129088450Y-78216588D01*
X129123561Y-78003166D01*
X128525000Y-77404605D01*
X127926439Y-78003166D01*
X127950713Y-78150713D01*
X127803166Y-78126439D01*
X127204605Y-78725000D01*
X126845395Y-78725000D01*
X126246834Y-78126439D01*
X126099287Y-78150713D01*
X126123561Y-78003166D01*
X125525000Y-77404605D01*
X124926439Y-78003166D01*
X123760000Y-78003166D01*
X123760000Y-77307406D01*
X124387489Y-77307406D01*
X124425423Y-77527740D01*
X124505613Y-77736440D01*
X124533412Y-77788450D01*
X124746834Y-77823561D01*
X125345395Y-77225000D01*
X125704605Y-77225000D01*
X126303166Y-77823561D01*
X126450713Y-77799287D01*
X126426439Y-77946834D01*
X127025000Y-78545395D01*
X127623561Y-77946834D01*
X127599287Y-77799287D01*
X127746834Y-77823561D01*
X128345395Y-77225000D01*
X128704605Y-77225000D01*
X129303166Y-77823561D01*
X129516588Y-77788450D01*
X129607458Y-77584174D01*
X129656731Y-77366095D01*
X129662511Y-77142594D01*
X129624577Y-76922260D01*
X129544387Y-76713560D01*
X129516588Y-76661550D01*
X129303166Y-76626439D01*
X128704605Y-77225000D01*
X128345395Y-77225000D01*
X127746834Y-76626439D01*
X127533412Y-76661550D01*
X127442542Y-76865826D01*
X127393269Y-77083905D01*
X127387489Y-77307406D01*
X127425423Y-77527740D01*
X127487132Y-77688342D01*
X127384174Y-77642542D01*
X127166095Y-77593269D01*
X126942594Y-77587489D01*
X126722260Y-77625423D01*
X126561658Y-77687132D01*
X126607458Y-77584174D01*
X126656731Y-77366095D01*
X126662511Y-77142594D01*
X126624577Y-76922260D01*
X126544387Y-76713560D01*
X126516588Y-76661550D01*
X126303166Y-76626439D01*
X125704605Y-77225000D01*
X125345395Y-77225000D01*
X124746834Y-76626439D01*
X124533412Y-76661550D01*
X124442542Y-76865826D01*
X124393269Y-77083905D01*
X124387489Y-77307406D01*
X123760000Y-77307406D01*
X123760000Y-76446834D01*
X124926439Y-76446834D01*
X125525000Y-77045395D01*
X126123561Y-76446834D01*
X127926439Y-76446834D01*
X128525000Y-77045395D01*
X129123561Y-76446834D01*
X129088450Y-76233412D01*
X128884174Y-76142542D01*
X128666095Y-76093269D01*
X128442594Y-76087489D01*
X128222260Y-76125423D01*
X128013560Y-76205613D01*
X127961550Y-76233412D01*
X127926439Y-76446834D01*
X126123561Y-76446834D01*
X126088450Y-76233412D01*
X125884174Y-76142542D01*
X125666095Y-76093269D01*
X125442594Y-76087489D01*
X125222260Y-76125423D01*
X125013560Y-76205613D01*
X124961550Y-76233412D01*
X124926439Y-76446834D01*
X123760000Y-76446834D01*
X123760000Y-75639801D01*
X124114802Y-75285000D01*
X124176939Y-75285000D01*
X124376898Y-75245226D01*
X124565256Y-75167205D01*
X124734774Y-75053937D01*
X124878937Y-74909774D01*
X124992205Y-74740256D01*
X125070226Y-74551898D01*
X125110000Y-74351939D01*
X125110000Y-74148061D01*
X125070226Y-73948102D01*
X124992205Y-73759744D01*
X124878937Y-73590226D01*
X124734774Y-73446063D01*
X124565256Y-73332795D01*
X124376898Y-73254774D01*
X124176939Y-73215000D01*
X123973061Y-73215000D01*
X123773102Y-73254774D01*
X123584744Y-73332795D01*
X123415226Y-73446063D01*
X123271063Y-73590226D01*
X123157795Y-73759744D01*
X123079774Y-73948102D01*
X123040000Y-74148061D01*
X123040000Y-74210198D01*
X122488998Y-74761201D01*
X122460000Y-74784999D01*
X122436202Y-74813997D01*
X122436201Y-74813998D01*
X122365026Y-74900724D01*
X122294454Y-75032754D01*
X122250998Y-75176015D01*
X122236324Y-75325000D01*
X122240001Y-75362332D01*
X122240001Y-76737564D01*
X122126561Y-76715000D01*
X121873439Y-76715000D01*
X121803677Y-76728876D01*
X121588803Y-76514001D01*
X121565000Y-76484998D01*
X121449275Y-76390025D01*
X121317246Y-76319453D01*
X121173985Y-76275996D01*
X121062332Y-76264999D01*
X121062321Y-76264999D01*
X121024999Y-76261323D01*
X120987677Y-76264999D01*
X119569324Y-76264999D01*
X119531999Y-76261323D01*
X119494674Y-76264999D01*
X119494666Y-76264999D01*
X119383013Y-76275996D01*
X119239752Y-76319453D01*
X119107723Y-76390025D01*
X118991998Y-76484998D01*
X118968200Y-76513996D01*
X115053991Y-80428206D01*
X115024987Y-80452009D01*
X114976572Y-80511003D01*
X114930014Y-80567734D01*
X114921227Y-80584174D01*
X114859442Y-80699764D01*
X114815985Y-80843025D01*
X114804988Y-80954678D01*
X114804988Y-80954688D01*
X114801312Y-80992010D01*
X114804988Y-81029332D01*
X114804989Y-89402258D01*
X114801312Y-89439590D01*
X114815986Y-89588576D01*
X114859442Y-89731836D01*
X114930015Y-89863866D01*
X114937511Y-89873000D01*
X111191099Y-89873000D01*
X110978839Y-89555330D01*
X110444670Y-89021161D01*
X110127000Y-88808901D01*
X110127000Y-80489860D01*
X110245518Y-80525812D01*
X110370000Y-80538072D01*
X110984250Y-80535000D01*
X111143000Y-80376250D01*
X111143000Y-79127000D01*
X111327000Y-79127000D01*
X111327000Y-80176250D01*
X111384500Y-80233750D01*
X111384500Y-80351250D01*
X111397000Y-80363750D01*
X111397000Y-80376250D01*
X111555750Y-80535000D01*
X112170000Y-80538072D01*
X112294482Y-80525812D01*
X112414180Y-80489502D01*
X112524494Y-80430537D01*
X112621185Y-80351185D01*
X112700537Y-80254494D01*
X112759502Y-80144180D01*
X112795812Y-80024482D01*
X112808072Y-79900000D01*
X112805000Y-79285750D01*
X112646250Y-79127000D01*
X111327000Y-79127000D01*
X111143000Y-79127000D01*
X111123000Y-79127000D01*
X111123000Y-78873000D01*
X111143000Y-78873000D01*
X111143000Y-77823750D01*
X111327000Y-77823750D01*
X111327000Y-78873000D01*
X112646250Y-78873000D01*
X112805000Y-78714250D01*
X112808072Y-78100000D01*
X112795812Y-77975518D01*
X112759502Y-77855820D01*
X112700537Y-77745506D01*
X112621185Y-77648815D01*
X112524494Y-77569463D01*
X112414180Y-77510498D01*
X112294482Y-77474188D01*
X112170000Y-77461928D01*
X111555750Y-77465000D01*
X111397000Y-77623750D01*
X111397000Y-77636250D01*
X111384500Y-77648750D01*
X111384500Y-77766250D01*
X111327000Y-77823750D01*
X111143000Y-77823750D01*
X111143000Y-77623750D01*
X110984250Y-77465000D01*
X110370000Y-77461928D01*
X110245518Y-77474188D01*
X110127000Y-77510140D01*
X110127000Y-74989860D01*
X110245518Y-75025812D01*
X110370000Y-75038072D01*
X110984250Y-75035000D01*
X111143000Y-74876250D01*
X111143000Y-73627000D01*
X111327000Y-73627000D01*
X111327000Y-74676250D01*
X111384500Y-74733750D01*
X111384500Y-74851250D01*
X111397000Y-74863750D01*
X111397000Y-74876250D01*
X111555750Y-75035000D01*
X112170000Y-75038072D01*
X112294482Y-75025812D01*
X112414180Y-74989502D01*
X112524494Y-74930537D01*
X112621185Y-74851185D01*
X112700537Y-74754494D01*
X112759502Y-74644180D01*
X112795812Y-74524482D01*
X112808072Y-74400000D01*
X112805000Y-73785750D01*
X112646250Y-73627000D01*
X111327000Y-73627000D01*
X111143000Y-73627000D01*
X111123000Y-73627000D01*
X111123000Y-73373000D01*
X111143000Y-73373000D01*
X111143000Y-72323750D01*
X111327000Y-72323750D01*
X111327000Y-73373000D01*
X112646250Y-73373000D01*
X112805000Y-73214250D01*
X112808072Y-72600000D01*
X112795812Y-72475518D01*
X112759502Y-72355820D01*
X112700537Y-72245506D01*
X112621185Y-72148815D01*
X112524494Y-72069463D01*
X112414180Y-72010498D01*
X112294482Y-71974188D01*
X112170000Y-71961928D01*
X111555750Y-71965000D01*
X111397000Y-72123750D01*
X111397000Y-72136250D01*
X111384500Y-72148750D01*
X111384500Y-72266250D01*
X111327000Y-72323750D01*
X111143000Y-72323750D01*
X111143000Y-72123750D01*
X110984250Y-71965000D01*
X110370000Y-71961928D01*
X110245518Y-71974188D01*
X110127000Y-72010140D01*
X110127000Y-69489860D01*
X110245518Y-69525812D01*
X110370000Y-69538072D01*
X110984250Y-69535000D01*
X111143000Y-69376250D01*
X111143000Y-68127000D01*
X111123000Y-68127000D01*
X111123000Y-67873000D01*
X111143000Y-67873000D01*
X111143000Y-67853000D01*
X111327000Y-67853000D01*
X111327000Y-67873000D01*
G37*
%TD.AperFunction*%
D26*
X129873000Y-85047802D02*
X129873000Y-87721861D01*
X129608892Y-87652616D01*
X129287405Y-87633282D01*
X128968325Y-87677039D01*
X128663912Y-87782205D01*
X128489956Y-87875186D01*
X128394192Y-88139587D01*
X129350000Y-89095395D01*
X129364143Y-89081253D01*
X129543748Y-89260858D01*
X129529605Y-89275000D01*
X129543748Y-89289143D01*
X129364143Y-89468748D01*
X129350000Y-89454605D01*
X129335858Y-89468748D01*
X129156253Y-89289143D01*
X129170395Y-89275000D01*
X128214587Y-88319192D01*
X127950186Y-88414956D01*
X127809296Y-88704571D01*
X127727616Y-89016108D01*
X127708282Y-89337595D01*
X127752039Y-89656675D01*
X127815373Y-89840001D01*
X126136533Y-89840001D01*
X126136533Y-89808988D01*
X126096759Y-89609029D01*
X126018738Y-89420671D01*
X125963192Y-89337540D01*
X125990706Y-89304013D01*
X126128599Y-89046033D01*
X126213513Y-88766110D01*
X126235000Y-88547949D01*
X126235000Y-88252050D01*
X126213513Y-88033889D01*
X126128599Y-87753966D01*
X126112427Y-87723710D01*
X126125990Y-87703411D01*
X126237932Y-87433158D01*
X126295000Y-87146260D01*
X126295000Y-86853740D01*
X126237932Y-86566842D01*
X126125990Y-86296589D01*
X125963475Y-86053368D01*
X125756632Y-85846525D01*
X125513411Y-85684010D01*
X125243158Y-85572068D01*
X124956260Y-85515000D01*
X124663740Y-85515000D01*
X124443592Y-85558791D01*
X124198803Y-85314002D01*
X124175000Y-85284998D01*
X124059275Y-85190025D01*
X123927246Y-85119453D01*
X123783985Y-85075996D01*
X123672332Y-85064999D01*
X123672321Y-85064999D01*
X123634999Y-85061323D01*
X123597677Y-85064999D01*
X122904390Y-85064999D01*
X124200499Y-83768891D01*
X124214869Y-83795774D01*
X124309842Y-83911499D01*
X124338845Y-83935301D01*
X124663039Y-84259495D01*
X124686842Y-84288499D01*
X124802567Y-84383472D01*
X124908324Y-84440001D01*
X124934596Y-84454044D01*
X125002039Y-84474502D01*
X125075724Y-84534974D01*
X125207753Y-84605546D01*
X125351014Y-84649003D01*
X125462667Y-84660000D01*
X125462676Y-84660000D01*
X125499999Y-84663676D01*
X125537322Y-84660000D01*
X125734025Y-84660000D01*
X125771347Y-84663676D01*
X125808669Y-84660000D01*
X125808680Y-84660000D01*
X125920333Y-84649003D01*
X126063594Y-84605546D01*
X126195623Y-84534974D01*
X126311348Y-84440001D01*
X126335150Y-84410998D01*
X126811003Y-83935145D01*
X126840001Y-83911348D01*
X126841515Y-83909503D01*
X126949205Y-83930924D01*
X127153083Y-83930924D01*
X127353042Y-83891150D01*
X127541400Y-83813129D01*
X127710918Y-83699861D01*
X127754855Y-83655924D01*
X128481123Y-83655924D01*
X129873000Y-85047802D01*
%TA.AperFunction,Conductor*%
D27*
G36*
X129873000Y-85047802D02*
G01*
X129873000Y-87721861D01*
X129608892Y-87652616D01*
X129287405Y-87633282D01*
X128968325Y-87677039D01*
X128663912Y-87782205D01*
X128489956Y-87875186D01*
X128394192Y-88139587D01*
X129350000Y-89095395D01*
X129364143Y-89081253D01*
X129543748Y-89260858D01*
X129529605Y-89275000D01*
X129543748Y-89289143D01*
X129364143Y-89468748D01*
X129350000Y-89454605D01*
X129335858Y-89468748D01*
X129156253Y-89289143D01*
X129170395Y-89275000D01*
X128214587Y-88319192D01*
X127950186Y-88414956D01*
X127809296Y-88704571D01*
X127727616Y-89016108D01*
X127708282Y-89337595D01*
X127752039Y-89656675D01*
X127815373Y-89840001D01*
X126136533Y-89840001D01*
X126136533Y-89808988D01*
X126096759Y-89609029D01*
X126018738Y-89420671D01*
X125963192Y-89337540D01*
X125990706Y-89304013D01*
X126128599Y-89046033D01*
X126213513Y-88766110D01*
X126235000Y-88547949D01*
X126235000Y-88252050D01*
X126213513Y-88033889D01*
X126128599Y-87753966D01*
X126112427Y-87723710D01*
X126125990Y-87703411D01*
X126237932Y-87433158D01*
X126295000Y-87146260D01*
X126295000Y-86853740D01*
X126237932Y-86566842D01*
X126125990Y-86296589D01*
X125963475Y-86053368D01*
X125756632Y-85846525D01*
X125513411Y-85684010D01*
X125243158Y-85572068D01*
X124956260Y-85515000D01*
X124663740Y-85515000D01*
X124443592Y-85558791D01*
X124198803Y-85314002D01*
X124175000Y-85284998D01*
X124059275Y-85190025D01*
X123927246Y-85119453D01*
X123783985Y-85075996D01*
X123672332Y-85064999D01*
X123672321Y-85064999D01*
X123634999Y-85061323D01*
X123597677Y-85064999D01*
X122904390Y-85064999D01*
X124200499Y-83768891D01*
X124214869Y-83795774D01*
X124309842Y-83911499D01*
X124338845Y-83935301D01*
X124663039Y-84259495D01*
X124686842Y-84288499D01*
X124802567Y-84383472D01*
X124908324Y-84440001D01*
X124934596Y-84454044D01*
X125002039Y-84474502D01*
X125075724Y-84534974D01*
X125207753Y-84605546D01*
X125351014Y-84649003D01*
X125462667Y-84660000D01*
X125462676Y-84660000D01*
X125499999Y-84663676D01*
X125537322Y-84660000D01*
X125734025Y-84660000D01*
X125771347Y-84663676D01*
X125808669Y-84660000D01*
X125808680Y-84660000D01*
X125920333Y-84649003D01*
X126063594Y-84605546D01*
X126195623Y-84534974D01*
X126311348Y-84440001D01*
X126335150Y-84410998D01*
X126811003Y-83935145D01*
X126840001Y-83911348D01*
X126841515Y-83909503D01*
X126949205Y-83930924D01*
X127153083Y-83930924D01*
X127353042Y-83891150D01*
X127541400Y-83813129D01*
X127710918Y-83699861D01*
X127754855Y-83655924D01*
X128481123Y-83655924D01*
X129873000Y-85047802D01*
G37*
%TD.AperFunction*%
D26*
X117317000Y-86873000D02*
X117337000Y-86873000D01*
X117337000Y-87127000D01*
X117317000Y-87127000D01*
X117317000Y-88326250D01*
X117397000Y-88406250D01*
X117397000Y-88527000D01*
X117377000Y-88527000D01*
X117377000Y-88547000D01*
X117123000Y-88547000D01*
X117123000Y-88527000D01*
X117103000Y-88527000D01*
X117103000Y-88273000D01*
X117123000Y-88273000D01*
X117123000Y-86998750D01*
X117043000Y-86918750D01*
X117043000Y-86873000D01*
X117063000Y-86873000D01*
X117063000Y-86853000D01*
X117317000Y-86853000D01*
X117317000Y-86873000D01*
%TA.AperFunction,Conductor*%
D27*
G36*
X117317000Y-86873000D02*
G01*
X117337000Y-86873000D01*
X117337000Y-87127000D01*
X117317000Y-87127000D01*
X117317000Y-88326250D01*
X117397000Y-88406250D01*
X117397000Y-88527000D01*
X117377000Y-88527000D01*
X117377000Y-88547000D01*
X117123000Y-88547000D01*
X117123000Y-88527000D01*
X117103000Y-88527000D01*
X117103000Y-88273000D01*
X117123000Y-88273000D01*
X117123000Y-86998750D01*
X117043000Y-86918750D01*
X117043000Y-86873000D01*
X117063000Y-86873000D01*
X117063000Y-86853000D01*
X117317000Y-86853000D01*
X117317000Y-86873000D01*
G37*
%TD.AperFunction*%
D26*
X122127000Y-79873000D02*
X122147000Y-79873000D01*
X122147000Y-80127000D01*
X122127000Y-80127000D01*
X122127000Y-81126250D01*
X122240000Y-81239250D01*
X122240000Y-82185198D01*
X121051489Y-83373710D01*
X120990256Y-83332795D01*
X120801898Y-83254774D01*
X120601939Y-83215000D01*
X120398061Y-83215000D01*
X120198102Y-83254774D01*
X120009744Y-83332795D01*
X119840226Y-83446063D01*
X119727438Y-83558851D01*
X119703917Y-83523650D01*
X119559754Y-83379487D01*
X119390236Y-83266219D01*
X119201878Y-83188198D01*
X119001919Y-83148424D01*
X118798041Y-83148424D01*
X118598082Y-83188198D01*
X118409724Y-83266219D01*
X118240206Y-83379487D01*
X118096043Y-83523650D01*
X117982775Y-83693168D01*
X117904754Y-83881526D01*
X117864980Y-84081485D01*
X117864980Y-84285363D01*
X117904754Y-84485322D01*
X117982775Y-84673680D01*
X118096043Y-84843198D01*
X118240206Y-84987361D01*
X118244156Y-84990000D01*
X117260000Y-84990000D01*
X117260000Y-81814801D01*
X118314802Y-80760000D01*
X118962359Y-80760000D01*
X119001875Y-80819140D01*
X119180860Y-80998125D01*
X119391324Y-81138753D01*
X119625179Y-81235619D01*
X119873439Y-81285000D01*
X120126561Y-81285000D01*
X120374821Y-81235619D01*
X120608676Y-81138753D01*
X120816870Y-80999642D01*
X120819463Y-81004494D01*
X120898815Y-81101185D01*
X120995506Y-81180537D01*
X121105820Y-81239502D01*
X121225518Y-81275812D01*
X121350000Y-81288072D01*
X121714250Y-81285000D01*
X121873000Y-81126250D01*
X121873000Y-80127000D01*
X121853000Y-80127000D01*
X121853000Y-79873000D01*
X121873000Y-79873000D01*
X121873000Y-79853000D01*
X122127000Y-79853000D01*
X122127000Y-79873000D01*
%TA.AperFunction,Conductor*%
D27*
G36*
X122127000Y-79873000D02*
G01*
X122147000Y-79873000D01*
X122147000Y-80127000D01*
X122127000Y-80127000D01*
X122127000Y-81126250D01*
X122240000Y-81239250D01*
X122240000Y-82185198D01*
X121051489Y-83373710D01*
X120990256Y-83332795D01*
X120801898Y-83254774D01*
X120601939Y-83215000D01*
X120398061Y-83215000D01*
X120198102Y-83254774D01*
X120009744Y-83332795D01*
X119840226Y-83446063D01*
X119727438Y-83558851D01*
X119703917Y-83523650D01*
X119559754Y-83379487D01*
X119390236Y-83266219D01*
X119201878Y-83188198D01*
X119001919Y-83148424D01*
X118798041Y-83148424D01*
X118598082Y-83188198D01*
X118409724Y-83266219D01*
X118240206Y-83379487D01*
X118096043Y-83523650D01*
X117982775Y-83693168D01*
X117904754Y-83881526D01*
X117864980Y-84081485D01*
X117864980Y-84285363D01*
X117904754Y-84485322D01*
X117982775Y-84673680D01*
X118096043Y-84843198D01*
X118240206Y-84987361D01*
X118244156Y-84990000D01*
X117260000Y-84990000D01*
X117260000Y-81814801D01*
X118314802Y-80760000D01*
X118962359Y-80760000D01*
X119001875Y-80819140D01*
X119180860Y-80998125D01*
X119391324Y-81138753D01*
X119625179Y-81235619D01*
X119873439Y-81285000D01*
X120126561Y-81285000D01*
X120374821Y-81235619D01*
X120608676Y-81138753D01*
X120816870Y-80999642D01*
X120819463Y-81004494D01*
X120898815Y-81101185D01*
X120995506Y-81180537D01*
X121105820Y-81239502D01*
X121225518Y-81275812D01*
X121350000Y-81288072D01*
X121714250Y-81285000D01*
X121873000Y-81126250D01*
X121873000Y-80127000D01*
X121853000Y-80127000D01*
X121853000Y-79873000D01*
X121873000Y-79873000D01*
X121873000Y-79853000D01*
X122127000Y-79853000D01*
X122127000Y-79873000D01*
G37*
%TD.AperFunction*%
%TD*%
M02*
