M48
; DRILL file {KiCad (6.0.5-0)} date Tuesday, 31 May 2022 at 15:13:00
; FORMAT={-:-/ absolute / inch / decimal}
; #@! TF.CreationDate,2022-05-31T15:13:00+01:00
; #@! TF.GenerationSoftware,Kicad,Pcbnew,(6.0.5-0)
; #@! TF.FileFunction,Plated,1,2,PTH
FMAT,2
INCH
; #@! TA.AperFunction,Plated,PTH,ViaDrill
T1C0.0157
; #@! TA.AperFunction,Plated,PTH,ComponentDrill
T2C0.0236
; #@! TA.AperFunction,Plated,PTH,ComponentDrill
T3C0.0335
; #@! TA.AperFunction,Plated,PTH,ComponentDrill
T4C0.0394
; #@! TA.AperFunction,Plated,PTH,ComponentDrill
T5C0.0492
%
G90
G05
T1
X3.5728Y-1.3189
X3.6925Y-1.7214
X3.75Y-1.2795
X3.8287Y-1.3681
X3.8287Y-1.4665
X3.8701Y-1.7992
X3.9291Y-2.0236
X3.937Y-1.4803
X3.9685Y-1.8031
X3.9926Y-1.751
X4.0472Y-1.7165
X4.0846Y-1.8406
X4.1043Y-1.565
X4.124Y-1.6831
X4.1339Y-2.0236
X4.1535Y-1.565
X4.1634Y-1.9193
X4.1654Y-1.7283
X4.2287Y-1.571
X4.252Y-1.3386
X4.2707Y-1.4084
X4.315Y-1.3858
X4.3386Y-2.2756
X4.4783Y-1.25
X4.5276Y-2.3031
X4.5768Y-2.0079
T2
X3.9217Y-2.1539
X4.1492Y-2.1539
T3
X3.4705Y-1.0039
X3.4705Y-1.1024
X3.4705Y-1.2992
X3.4705Y-1.3976
X3.4705Y-1.5945
X3.4705Y-1.6929
X3.4705Y-1.8898
X3.4705Y-1.9882
X3.4705Y-2.185
X3.4705Y-2.2835
X3.6319Y-2.1201
X3.7303Y-2.1201
X4.7776Y-1.0039
X4.7776Y-1.1024
X4.7776Y-1.2992
X4.7776Y-1.3976
X4.7776Y-1.5945
X4.7776Y-1.6929
X4.7776Y-1.8898
X4.7776Y-1.9882
X4.7776Y-2.185
X4.7776Y-2.2835
T4
X3.8654Y-2.2988
X4.2055Y-2.2988
T5
X3.8654Y-2.1346
X4.2055Y-2.1346
T0
M30
