%TF.GenerationSoftware,KiCad,Pcbnew,(6.0.5-0)*%
%TF.CreationDate,2022-08-15T15:57:22+01:00*%
%TF.ProjectId,Relay8,52656c61-7938-42e6-9b69-6361645f7063,1*%
%TF.SameCoordinates,Original*%
%TF.FileFunction,Legend,Bot*%
%TF.FilePolarity,Positive*%
%FSLAX46Y46*%
G04 Gerber Fmt 4.6, Leading zero omitted, Abs format (unit mm)*
G04 Created by KiCad (PCBNEW (6.0.5-0)) date 2022-08-15 15:57:22*
%MOMM*%
%LPD*%
G01*
G04 APERTURE LIST*
%ADD10C,0.100000*%
%ADD11C,0.150000*%
G04 APERTURE END LIST*
D10*
X124347619Y-56578571D02*
X124347619Y-57111904D01*
X124538095Y-56273809D02*
X124728571Y-56845238D01*
X124233333Y-56845238D01*
X125109523Y-48888095D02*
X125071428Y-48850000D01*
X124995238Y-48811904D01*
X124804761Y-48811904D01*
X124728571Y-48850000D01*
X124690476Y-48888095D01*
X124652380Y-48964285D01*
X124652380Y-49040476D01*
X124690476Y-49154761D01*
X125147619Y-49611904D01*
X124652380Y-49611904D01*
X124157142Y-48811904D02*
X124080952Y-48811904D01*
X124004761Y-48850000D01*
X123966666Y-48888095D01*
X123928571Y-48964285D01*
X123890476Y-49116666D01*
X123890476Y-49307142D01*
X123928571Y-49459523D01*
X123966666Y-49535714D01*
X124004761Y-49573809D01*
X124080952Y-49611904D01*
X124157142Y-49611904D01*
X124233333Y-49573809D01*
X124271428Y-49535714D01*
X124309523Y-49459523D01*
X124347619Y-49307142D01*
X124347619Y-49116666D01*
X124309523Y-48964285D01*
X124271428Y-48888095D01*
X124233333Y-48850000D01*
X124157142Y-48811904D01*
D11*
X107357142Y-33047619D02*
X107309523Y-33000000D01*
X107214285Y-32952380D01*
X106976190Y-32952380D01*
X106880952Y-33000000D01*
X106833333Y-33047619D01*
X106785714Y-33142857D01*
X106785714Y-33238095D01*
X106833333Y-33380952D01*
X107404761Y-33952380D01*
X106785714Y-33952380D01*
X106166666Y-32952380D02*
X106071428Y-32952380D01*
X105976190Y-33000000D01*
X105928571Y-33047619D01*
X105880952Y-33142857D01*
X105833333Y-33333333D01*
X105833333Y-33571428D01*
X105880952Y-33761904D01*
X105928571Y-33857142D01*
X105976190Y-33904761D01*
X106071428Y-33952380D01*
X106166666Y-33952380D01*
X106261904Y-33904761D01*
X106309523Y-33857142D01*
X106357142Y-33761904D01*
X106404761Y-33571428D01*
X106404761Y-33333333D01*
X106357142Y-33142857D01*
X106309523Y-33047619D01*
X106261904Y-33000000D01*
X106166666Y-32952380D01*
X105452380Y-33047619D02*
X105404761Y-33000000D01*
X105309523Y-32952380D01*
X105071428Y-32952380D01*
X104976190Y-33000000D01*
X104928571Y-33047619D01*
X104880952Y-33142857D01*
X104880952Y-33238095D01*
X104928571Y-33380952D01*
X105500000Y-33952380D01*
X104880952Y-33952380D01*
X104500000Y-33047619D02*
X104452380Y-33000000D01*
X104357142Y-32952380D01*
X104119047Y-32952380D01*
X104023809Y-33000000D01*
X103976190Y-33047619D01*
X103928571Y-33142857D01*
X103928571Y-33238095D01*
X103976190Y-33380952D01*
X104547619Y-33952380D01*
X103928571Y-33952380D01*
X103500000Y-33571428D02*
X102738095Y-33571428D01*
X102071428Y-32952380D02*
X101976190Y-32952380D01*
X101880952Y-33000000D01*
X101833333Y-33047619D01*
X101785714Y-33142857D01*
X101738095Y-33333333D01*
X101738095Y-33571428D01*
X101785714Y-33761904D01*
X101833333Y-33857142D01*
X101880952Y-33904761D01*
X101976190Y-33952380D01*
X102071428Y-33952380D01*
X102166666Y-33904761D01*
X102214285Y-33857142D01*
X102261904Y-33761904D01*
X102309523Y-33571428D01*
X102309523Y-33333333D01*
X102261904Y-33142857D01*
X102214285Y-33047619D01*
X102166666Y-33000000D01*
X102071428Y-32952380D01*
X100833333Y-32952380D02*
X101309523Y-32952380D01*
X101357142Y-33428571D01*
X101309523Y-33380952D01*
X101214285Y-33333333D01*
X100976190Y-33333333D01*
X100880952Y-33380952D01*
X100833333Y-33428571D01*
X100785714Y-33523809D01*
X100785714Y-33761904D01*
X100833333Y-33857142D01*
X100880952Y-33904761D01*
X100976190Y-33952380D01*
X101214285Y-33952380D01*
X101309523Y-33904761D01*
X101357142Y-33857142D01*
X100357142Y-33571428D02*
X99595238Y-33571428D01*
X99166666Y-33047619D02*
X99119047Y-33000000D01*
X99023809Y-32952380D01*
X98785714Y-32952380D01*
X98690476Y-33000000D01*
X98642857Y-33047619D01*
X98595238Y-33142857D01*
X98595238Y-33238095D01*
X98642857Y-33380952D01*
X99214285Y-33952380D01*
X98595238Y-33952380D01*
X98119047Y-33952380D02*
X97928571Y-33952380D01*
X97833333Y-33904761D01*
X97785714Y-33857142D01*
X97690476Y-33714285D01*
X97642857Y-33523809D01*
X97642857Y-33142857D01*
X97690476Y-33047619D01*
X97738095Y-33000000D01*
X97833333Y-32952380D01*
X98023809Y-32952380D01*
X98119047Y-33000000D01*
X98166666Y-33047619D01*
X98214285Y-33142857D01*
X98214285Y-33380952D01*
X98166666Y-33476190D01*
X98119047Y-33523809D01*
X98023809Y-33571428D01*
X97833333Y-33571428D01*
X97738095Y-33523809D01*
X97690476Y-33476190D01*
X97642857Y-33380952D01*
X82452380Y-37642857D02*
X82452380Y-37738095D01*
X82500000Y-37833333D01*
X82547619Y-37880952D01*
X82642857Y-37928571D01*
X82833333Y-37976190D01*
X83071428Y-37976190D01*
X83261904Y-37928571D01*
X83357142Y-37880952D01*
X83404761Y-37833333D01*
X83452380Y-37738095D01*
X83452380Y-37642857D01*
X83404761Y-37547619D01*
X83357142Y-37500000D01*
X83261904Y-37452380D01*
X83071428Y-37404761D01*
X82833333Y-37404761D01*
X82642857Y-37452380D01*
X82547619Y-37500000D01*
X82500000Y-37547619D01*
X82452380Y-37642857D01*
X82452380Y-38261904D02*
X83452380Y-38595238D01*
X82452380Y-38928571D01*
X82404761Y-39976190D02*
X83690476Y-39119047D01*
X83452380Y-40309523D02*
X82452380Y-40309523D01*
X82452380Y-40547619D01*
X82500000Y-40690476D01*
X82595238Y-40785714D01*
X82690476Y-40833333D01*
X82880952Y-40880952D01*
X83023809Y-40880952D01*
X83214285Y-40833333D01*
X83309523Y-40785714D01*
X83404761Y-40690476D01*
X83452380Y-40547619D01*
X83452380Y-40309523D01*
X83357142Y-41880952D02*
X83404761Y-41833333D01*
X83452380Y-41690476D01*
X83452380Y-41595238D01*
X83404761Y-41452380D01*
X83309523Y-41357142D01*
X83214285Y-41309523D01*
X83023809Y-41261904D01*
X82880952Y-41261904D01*
X82690476Y-41309523D01*
X82595238Y-41357142D01*
X82500000Y-41452380D01*
X82452380Y-41595238D01*
X82452380Y-41690476D01*
X82500000Y-41833333D01*
X82547619Y-41880952D01*
X83452380Y-43071428D02*
X82452380Y-43071428D01*
X82452380Y-43309523D01*
X82500000Y-43452380D01*
X82595238Y-43547619D01*
X82690476Y-43595238D01*
X82880952Y-43642857D01*
X83023809Y-43642857D01*
X83214285Y-43595238D01*
X83309523Y-43547619D01*
X83404761Y-43452380D01*
X83452380Y-43309523D01*
X83452380Y-43071428D01*
X83452380Y-44071428D02*
X82785714Y-44071428D01*
X82976190Y-44071428D02*
X82880952Y-44119047D01*
X82833333Y-44166666D01*
X82785714Y-44261904D01*
X82785714Y-44357142D01*
X83452380Y-44690476D02*
X82785714Y-44690476D01*
X82452380Y-44690476D02*
X82500000Y-44642857D01*
X82547619Y-44690476D01*
X82500000Y-44738095D01*
X82452380Y-44690476D01*
X82547619Y-44690476D01*
X82785714Y-45071428D02*
X83452380Y-45309523D01*
X82785714Y-45547619D01*
X83404761Y-46309523D02*
X83452380Y-46214285D01*
X83452380Y-46023809D01*
X83404761Y-45928571D01*
X83309523Y-45880952D01*
X82928571Y-45880952D01*
X82833333Y-45928571D01*
X82785714Y-46023809D01*
X82785714Y-46214285D01*
X82833333Y-46309523D01*
X82928571Y-46357142D01*
X83023809Y-46357142D01*
X83119047Y-45880952D01*
X82785714Y-46785714D02*
X83452380Y-46785714D01*
X82880952Y-46785714D02*
X82833333Y-46833333D01*
X82785714Y-46928571D01*
X82785714Y-47071428D01*
X82833333Y-47166666D01*
X82928571Y-47214285D01*
X83452380Y-47214285D01*
X83452380Y-48595238D02*
X83404761Y-48500000D01*
X83357142Y-48452380D01*
X83261904Y-48404761D01*
X82976190Y-48404761D01*
X82880952Y-48452380D01*
X82833333Y-48500000D01*
X82785714Y-48595238D01*
X82785714Y-48738095D01*
X82833333Y-48833333D01*
X82880952Y-48880952D01*
X82976190Y-48928571D01*
X83261904Y-48928571D01*
X83357142Y-48880952D01*
X83404761Y-48833333D01*
X83452380Y-48738095D01*
X83452380Y-48595238D01*
X82785714Y-49785714D02*
X83452380Y-49785714D01*
X82785714Y-49357142D02*
X83309523Y-49357142D01*
X83404761Y-49404761D01*
X83452380Y-49500000D01*
X83452380Y-49642857D01*
X83404761Y-49738095D01*
X83357142Y-49785714D01*
X82785714Y-50119047D02*
X82785714Y-50500000D01*
X82452380Y-50261904D02*
X83309523Y-50261904D01*
X83404761Y-50309523D01*
X83452380Y-50404761D01*
X83452380Y-50500000D01*
X82785714Y-50833333D02*
X83785714Y-50833333D01*
X82833333Y-50833333D02*
X82785714Y-50928571D01*
X82785714Y-51119047D01*
X82833333Y-51214285D01*
X82880952Y-51261904D01*
X82976190Y-51309523D01*
X83261904Y-51309523D01*
X83357142Y-51261904D01*
X83404761Y-51214285D01*
X83452380Y-51119047D01*
X83452380Y-50928571D01*
X83404761Y-50833333D01*
X82785714Y-52166666D02*
X83452380Y-52166666D01*
X82785714Y-51738095D02*
X83309523Y-51738095D01*
X83404761Y-51785714D01*
X83452380Y-51880952D01*
X83452380Y-52023809D01*
X83404761Y-52119047D01*
X83357142Y-52166666D01*
X82785714Y-52500000D02*
X82785714Y-52880952D01*
X82452380Y-52642857D02*
X83309523Y-52642857D01*
X83404761Y-52690476D01*
X83452380Y-52785714D01*
X83452380Y-52880952D01*
X83404761Y-53166666D02*
X83452380Y-53261904D01*
X83452380Y-53452380D01*
X83404761Y-53547619D01*
X83309523Y-53595238D01*
X83261904Y-53595238D01*
X83166666Y-53547619D01*
X83119047Y-53452380D01*
X83119047Y-53309523D01*
X83071428Y-53214285D01*
X82976190Y-53166666D01*
X82928571Y-53166666D01*
X82833333Y-53214285D01*
X82785714Y-53309523D01*
X82785714Y-53452380D01*
X82833333Y-53547619D01*
D10*
X85859523Y-48888095D02*
X85821428Y-48850000D01*
X85745238Y-48811904D01*
X85554761Y-48811904D01*
X85478571Y-48850000D01*
X85440476Y-48888095D01*
X85402380Y-48964285D01*
X85402380Y-49040476D01*
X85440476Y-49154761D01*
X85897619Y-49611904D01*
X85402380Y-49611904D01*
X84716666Y-48811904D02*
X84869047Y-48811904D01*
X84945238Y-48850000D01*
X84983333Y-48888095D01*
X85059523Y-49002380D01*
X85097619Y-49154761D01*
X85097619Y-49459523D01*
X85059523Y-49535714D01*
X85021428Y-49573809D01*
X84945238Y-49611904D01*
X84792857Y-49611904D01*
X84716666Y-49573809D01*
X84678571Y-49535714D01*
X84640476Y-49459523D01*
X84640476Y-49269047D01*
X84678571Y-49192857D01*
X84716666Y-49154761D01*
X84792857Y-49116666D01*
X84945238Y-49116666D01*
X85021428Y-49154761D01*
X85059523Y-49192857D01*
X85097619Y-49269047D01*
X85859523Y-56388095D02*
X85821428Y-56350000D01*
X85745238Y-56311904D01*
X85554761Y-56311904D01*
X85478571Y-56350000D01*
X85440476Y-56388095D01*
X85402380Y-56464285D01*
X85402380Y-56540476D01*
X85440476Y-56654761D01*
X85897619Y-57111904D01*
X85402380Y-57111904D01*
X84678571Y-56311904D02*
X85059523Y-56311904D01*
X85097619Y-56692857D01*
X85059523Y-56654761D01*
X84983333Y-56616666D01*
X84792857Y-56616666D01*
X84716666Y-56654761D01*
X84678571Y-56692857D01*
X84640476Y-56769047D01*
X84640476Y-56959523D01*
X84678571Y-57035714D01*
X84716666Y-57073809D01*
X84792857Y-57111904D01*
X84983333Y-57111904D01*
X85059523Y-57073809D01*
X85097619Y-57035714D01*
X124576190Y-41654761D02*
X124652380Y-41616666D01*
X124690476Y-41578571D01*
X124728571Y-41502380D01*
X124728571Y-41464285D01*
X124690476Y-41388095D01*
X124652380Y-41350000D01*
X124576190Y-41311904D01*
X124423809Y-41311904D01*
X124347619Y-41350000D01*
X124309523Y-41388095D01*
X124271428Y-41464285D01*
X124271428Y-41502380D01*
X124309523Y-41578571D01*
X124347619Y-41616666D01*
X124423809Y-41654761D01*
X124576190Y-41654761D01*
X124652380Y-41692857D01*
X124690476Y-41730952D01*
X124728571Y-41807142D01*
X124728571Y-41959523D01*
X124690476Y-42035714D01*
X124652380Y-42073809D01*
X124576190Y-42111904D01*
X124423809Y-42111904D01*
X124347619Y-42073809D01*
X124309523Y-42035714D01*
X124271428Y-41959523D01*
X124271428Y-41807142D01*
X124309523Y-41730952D01*
X124347619Y-41692857D01*
X124423809Y-41654761D01*
D11*
X94261904Y-57147380D02*
X94261904Y-56147380D01*
X94023809Y-56147380D01*
X93880952Y-56195000D01*
X93785714Y-56290238D01*
X93738095Y-56385476D01*
X93690476Y-56575952D01*
X93690476Y-56718809D01*
X93738095Y-56909285D01*
X93785714Y-57004523D01*
X93880952Y-57099761D01*
X94023809Y-57147380D01*
X94261904Y-57147380D01*
X92690476Y-57052142D02*
X92738095Y-57099761D01*
X92880952Y-57147380D01*
X92976190Y-57147380D01*
X93119047Y-57099761D01*
X93214285Y-57004523D01*
X93261904Y-56909285D01*
X93309523Y-56718809D01*
X93309523Y-56575952D01*
X93261904Y-56385476D01*
X93214285Y-56290238D01*
X93119047Y-56195000D01*
X92976190Y-56147380D01*
X92880952Y-56147380D01*
X92738095Y-56195000D01*
X92690476Y-56242619D01*
X95690476Y-57757380D02*
X96166666Y-57757380D01*
X96214285Y-58233571D01*
X96166666Y-58185952D01*
X96071428Y-58138333D01*
X95833333Y-58138333D01*
X95738095Y-58185952D01*
X95690476Y-58233571D01*
X95642857Y-58328809D01*
X95642857Y-58566904D01*
X95690476Y-58662142D01*
X95738095Y-58709761D01*
X95833333Y-58757380D01*
X96071428Y-58757380D01*
X96166666Y-58709761D01*
X96214285Y-58662142D01*
X95357142Y-57757380D02*
X95023809Y-58757380D01*
X94690476Y-57757380D01*
X94357142Y-58376428D02*
X93595238Y-58376428D01*
X92595238Y-58757380D02*
X93166666Y-58757380D01*
X92880952Y-58757380D02*
X92880952Y-57757380D01*
X92976190Y-57900238D01*
X93071428Y-57995476D01*
X93166666Y-58043095D01*
X92023809Y-58185952D02*
X92119047Y-58138333D01*
X92166666Y-58090714D01*
X92214285Y-57995476D01*
X92214285Y-57947857D01*
X92166666Y-57852619D01*
X92119047Y-57805000D01*
X92023809Y-57757380D01*
X91833333Y-57757380D01*
X91738095Y-57805000D01*
X91690476Y-57852619D01*
X91642857Y-57947857D01*
X91642857Y-57995476D01*
X91690476Y-58090714D01*
X91738095Y-58138333D01*
X91833333Y-58185952D01*
X92023809Y-58185952D01*
X92119047Y-58233571D01*
X92166666Y-58281190D01*
X92214285Y-58376428D01*
X92214285Y-58566904D01*
X92166666Y-58662142D01*
X92119047Y-58709761D01*
X92023809Y-58757380D01*
X91833333Y-58757380D01*
X91738095Y-58709761D01*
X91690476Y-58662142D01*
X91642857Y-58566904D01*
X91642857Y-58376428D01*
X91690476Y-58281190D01*
X91738095Y-58233571D01*
X91833333Y-58185952D01*
X91357142Y-57757380D02*
X91023809Y-58757380D01*
X90690476Y-57757380D01*
D10*
X116402380Y-34361904D02*
X116859523Y-34361904D01*
X116630952Y-34361904D02*
X116630952Y-33561904D01*
X116707142Y-33676190D01*
X116783333Y-33752380D01*
X116859523Y-33790476D01*
X115678571Y-33561904D02*
X116059523Y-33561904D01*
X116097619Y-33942857D01*
X116059523Y-33904761D01*
X115983333Y-33866666D01*
X115792857Y-33866666D01*
X115716666Y-33904761D01*
X115678571Y-33942857D01*
X115640476Y-34019047D01*
X115640476Y-34209523D01*
X115678571Y-34285714D01*
X115716666Y-34323809D01*
X115792857Y-34361904D01*
X115983333Y-34361904D01*
X116059523Y-34323809D01*
X116097619Y-34285714D01*
X91111904Y-32328571D02*
X90730952Y-32061904D01*
X91111904Y-31871428D02*
X90311904Y-31871428D01*
X90311904Y-32176190D01*
X90350000Y-32252380D01*
X90388095Y-32290476D01*
X90464285Y-32328571D01*
X90578571Y-32328571D01*
X90654761Y-32290476D01*
X90692857Y-32252380D01*
X90730952Y-32176190D01*
X90730952Y-31871428D01*
X90350000Y-33090476D02*
X90311904Y-33014285D01*
X90311904Y-32900000D01*
X90350000Y-32785714D01*
X90426190Y-32709523D01*
X90502380Y-32671428D01*
X90654761Y-32633333D01*
X90769047Y-32633333D01*
X90921428Y-32671428D01*
X90997619Y-32709523D01*
X91073809Y-32785714D01*
X91111904Y-32900000D01*
X91111904Y-32976190D01*
X91073809Y-33090476D01*
X91035714Y-33128571D01*
X90769047Y-33128571D01*
X90769047Y-32976190D01*
X90692857Y-33738095D02*
X90730952Y-33852380D01*
X90769047Y-33890476D01*
X90845238Y-33928571D01*
X90959523Y-33928571D01*
X91035714Y-33890476D01*
X91073809Y-33852380D01*
X91111904Y-33776190D01*
X91111904Y-33471428D01*
X90311904Y-33471428D01*
X90311904Y-33738095D01*
X90350000Y-33814285D01*
X90388095Y-33852380D01*
X90464285Y-33890476D01*
X90540476Y-33890476D01*
X90616666Y-33852380D01*
X90654761Y-33814285D01*
X90692857Y-33738095D01*
X90692857Y-33471428D01*
X91035714Y-34271428D02*
X91073809Y-34309523D01*
X91111904Y-34271428D01*
X91073809Y-34233333D01*
X91035714Y-34271428D01*
X91111904Y-34271428D01*
X90616666Y-34271428D02*
X90654761Y-34309523D01*
X90692857Y-34271428D01*
X90654761Y-34233333D01*
X90616666Y-34271428D01*
X90692857Y-34271428D01*
X90388095Y-35223809D02*
X90350000Y-35261904D01*
X90311904Y-35338095D01*
X90311904Y-35528571D01*
X90350000Y-35604761D01*
X90388095Y-35642857D01*
X90464285Y-35680952D01*
X90540476Y-35680952D01*
X90654761Y-35642857D01*
X91111904Y-35185714D01*
X91111904Y-35680952D01*
X90388095Y-35985714D02*
X90350000Y-36023809D01*
X90311904Y-36100000D01*
X90311904Y-36290476D01*
X90350000Y-36366666D01*
X90388095Y-36404761D01*
X90464285Y-36442857D01*
X90540476Y-36442857D01*
X90654761Y-36404761D01*
X91111904Y-35947619D01*
X91111904Y-36442857D01*
X90273809Y-37357142D02*
X91302380Y-36671428D01*
X91111904Y-38042857D02*
X91111904Y-37585714D01*
X91111904Y-37814285D02*
X90311904Y-37814285D01*
X90426190Y-37738095D01*
X90502380Y-37661904D01*
X90540476Y-37585714D01*
X91111904Y-38423809D02*
X91111904Y-38576190D01*
X91073809Y-38652380D01*
X91035714Y-38690476D01*
X90921428Y-38766666D01*
X90769047Y-38804761D01*
X90464285Y-38804761D01*
X90388095Y-38766666D01*
X90350000Y-38728571D01*
X90311904Y-38652380D01*
X90311904Y-38500000D01*
X90350000Y-38423809D01*
X90388095Y-38385714D01*
X90464285Y-38347619D01*
X90654761Y-38347619D01*
X90730952Y-38385714D01*
X90769047Y-38423809D01*
X90807142Y-38500000D01*
X90807142Y-38652380D01*
X90769047Y-38728571D01*
X90730952Y-38766666D01*
X90654761Y-38804761D01*
X90273809Y-39719047D02*
X91302380Y-39033333D01*
X90388095Y-39947619D02*
X90350000Y-39985714D01*
X90311904Y-40061904D01*
X90311904Y-40252380D01*
X90350000Y-40328571D01*
X90388095Y-40366666D01*
X90464285Y-40404761D01*
X90540476Y-40404761D01*
X90654761Y-40366666D01*
X91111904Y-39909523D01*
X91111904Y-40404761D01*
X91111904Y-41166666D02*
X91111904Y-40709523D01*
X91111904Y-40938095D02*
X90311904Y-40938095D01*
X90426190Y-40861904D01*
X90502380Y-40785714D01*
X90540476Y-40709523D01*
D11*
X116773809Y-53897380D02*
X116583333Y-53897380D01*
X116488095Y-53945000D01*
X116392857Y-54040238D01*
X116345238Y-54230714D01*
X116345238Y-54564047D01*
X116392857Y-54754523D01*
X116488095Y-54849761D01*
X116583333Y-54897380D01*
X116773809Y-54897380D01*
X116869047Y-54849761D01*
X116964285Y-54754523D01*
X117011904Y-54564047D01*
X117011904Y-54230714D01*
X116964285Y-54040238D01*
X116869047Y-53945000D01*
X116773809Y-53897380D01*
X115488095Y-54230714D02*
X115488095Y-54897380D01*
X115916666Y-54230714D02*
X115916666Y-54754523D01*
X115869047Y-54849761D01*
X115773809Y-54897380D01*
X115630952Y-54897380D01*
X115535714Y-54849761D01*
X115488095Y-54802142D01*
X115154761Y-54230714D02*
X114773809Y-54230714D01*
X115011904Y-53897380D02*
X115011904Y-54754523D01*
X114964285Y-54849761D01*
X114869047Y-54897380D01*
X114773809Y-54897380D01*
X114440476Y-54230714D02*
X114440476Y-55230714D01*
X114440476Y-54278333D02*
X114345238Y-54230714D01*
X114154761Y-54230714D01*
X114059523Y-54278333D01*
X114011904Y-54325952D01*
X113964285Y-54421190D01*
X113964285Y-54706904D01*
X114011904Y-54802142D01*
X114059523Y-54849761D01*
X114154761Y-54897380D01*
X114345238Y-54897380D01*
X114440476Y-54849761D01*
X113107142Y-54230714D02*
X113107142Y-54897380D01*
X113535714Y-54230714D02*
X113535714Y-54754523D01*
X113488095Y-54849761D01*
X113392857Y-54897380D01*
X113250000Y-54897380D01*
X113154761Y-54849761D01*
X113107142Y-54802142D01*
X112773809Y-54230714D02*
X112392857Y-54230714D01*
X112630952Y-53897380D02*
X112630952Y-54754523D01*
X112583333Y-54849761D01*
X112488095Y-54897380D01*
X112392857Y-54897380D01*
X116345238Y-55983571D02*
X116202380Y-56031190D01*
X116154761Y-56078809D01*
X116107142Y-56174047D01*
X116107142Y-56316904D01*
X116154761Y-56412142D01*
X116202380Y-56459761D01*
X116297619Y-56507380D01*
X116678571Y-56507380D01*
X116678571Y-55507380D01*
X116345238Y-55507380D01*
X116250000Y-55555000D01*
X116202380Y-55602619D01*
X116154761Y-55697857D01*
X116154761Y-55793095D01*
X116202380Y-55888333D01*
X116250000Y-55935952D01*
X116345238Y-55983571D01*
X116678571Y-55983571D01*
X115535714Y-56507380D02*
X115630952Y-56459761D01*
X115678571Y-56412142D01*
X115726190Y-56316904D01*
X115726190Y-56031190D01*
X115678571Y-55935952D01*
X115630952Y-55888333D01*
X115535714Y-55840714D01*
X115392857Y-55840714D01*
X115297619Y-55888333D01*
X115250000Y-55935952D01*
X115202380Y-56031190D01*
X115202380Y-56316904D01*
X115250000Y-56412142D01*
X115297619Y-56459761D01*
X115392857Y-56507380D01*
X115535714Y-56507380D01*
X114345238Y-56507380D02*
X114345238Y-55983571D01*
X114392857Y-55888333D01*
X114488095Y-55840714D01*
X114678571Y-55840714D01*
X114773809Y-55888333D01*
X114345238Y-56459761D02*
X114440476Y-56507380D01*
X114678571Y-56507380D01*
X114773809Y-56459761D01*
X114821428Y-56364523D01*
X114821428Y-56269285D01*
X114773809Y-56174047D01*
X114678571Y-56126428D01*
X114440476Y-56126428D01*
X114345238Y-56078809D01*
X113869047Y-56507380D02*
X113869047Y-55840714D01*
X113869047Y-56031190D02*
X113821428Y-55935952D01*
X113773809Y-55888333D01*
X113678571Y-55840714D01*
X113583333Y-55840714D01*
X112821428Y-56507380D02*
X112821428Y-55507380D01*
X112821428Y-56459761D02*
X112916666Y-56507380D01*
X113107142Y-56507380D01*
X113202380Y-56459761D01*
X113250000Y-56412142D01*
X113297619Y-56316904D01*
X113297619Y-56031190D01*
X113250000Y-55935952D01*
X113202380Y-55888333D01*
X113107142Y-55840714D01*
X112916666Y-55840714D01*
X112821428Y-55888333D01*
D10*
X85647619Y-33961904D02*
X85152380Y-33961904D01*
X85419047Y-34266666D01*
X85304761Y-34266666D01*
X85228571Y-34304761D01*
X85190476Y-34342857D01*
X85152380Y-34419047D01*
X85152380Y-34609523D01*
X85190476Y-34685714D01*
X85228571Y-34723809D01*
X85304761Y-34761904D01*
X85533333Y-34761904D01*
X85609523Y-34723809D01*
X85647619Y-34685714D01*
X84847619Y-34038095D02*
X84809523Y-34000000D01*
X84733333Y-33961904D01*
X84542857Y-33961904D01*
X84466666Y-34000000D01*
X84428571Y-34038095D01*
X84390476Y-34114285D01*
X84390476Y-34190476D01*
X84428571Y-34304761D01*
X84885714Y-34761904D01*
X84390476Y-34761904D01*
X124766666Y-33811904D02*
X124233333Y-33811904D01*
X124576190Y-34611904D01*
D11*
X117892857Y-31952380D02*
X117892857Y-30952380D01*
X117416666Y-31285714D02*
X117416666Y-31952380D01*
X117416666Y-31380952D02*
X117369047Y-31333333D01*
X117273809Y-31285714D01*
X117130952Y-31285714D01*
X117035714Y-31333333D01*
X116988095Y-31428571D01*
X116988095Y-31952380D01*
X116511904Y-31285714D02*
X116511904Y-32285714D01*
X116511904Y-31333333D02*
X116416666Y-31285714D01*
X116226190Y-31285714D01*
X116130952Y-31333333D01*
X116083333Y-31380952D01*
X116035714Y-31476190D01*
X116035714Y-31761904D01*
X116083333Y-31857142D01*
X116130952Y-31904761D01*
X116226190Y-31952380D01*
X116416666Y-31952380D01*
X116511904Y-31904761D01*
X115178571Y-31285714D02*
X115178571Y-31952380D01*
X115607142Y-31285714D02*
X115607142Y-31809523D01*
X115559523Y-31904761D01*
X115464285Y-31952380D01*
X115321428Y-31952380D01*
X115226190Y-31904761D01*
X115178571Y-31857142D01*
X114845238Y-31285714D02*
X114464285Y-31285714D01*
X114702380Y-30952380D02*
X114702380Y-31809523D01*
X114654761Y-31904761D01*
X114559523Y-31952380D01*
X114464285Y-31952380D01*
X127047619Y-53357142D02*
X127047619Y-53261904D01*
X127000000Y-53166666D01*
X126952380Y-53119047D01*
X126857142Y-53071428D01*
X126666666Y-53023809D01*
X126428571Y-53023809D01*
X126238095Y-53071428D01*
X126142857Y-53119047D01*
X126095238Y-53166666D01*
X126047619Y-53261904D01*
X126047619Y-53357142D01*
X126095238Y-53452380D01*
X126142857Y-53500000D01*
X126238095Y-53547619D01*
X126428571Y-53595238D01*
X126666666Y-53595238D01*
X126857142Y-53547619D01*
X126952380Y-53500000D01*
X127000000Y-53452380D01*
X127047619Y-53357142D01*
X127047619Y-52738095D02*
X126047619Y-52404761D01*
X127047619Y-52071428D01*
X127095238Y-51023809D02*
X125809523Y-51880952D01*
X126047619Y-50690476D02*
X127047619Y-50690476D01*
X127047619Y-50452380D01*
X127000000Y-50309523D01*
X126904761Y-50214285D01*
X126809523Y-50166666D01*
X126619047Y-50119047D01*
X126476190Y-50119047D01*
X126285714Y-50166666D01*
X126190476Y-50214285D01*
X126095238Y-50309523D01*
X126047619Y-50452380D01*
X126047619Y-50690476D01*
X126142857Y-49119047D02*
X126095238Y-49166666D01*
X126047619Y-49309523D01*
X126047619Y-49404761D01*
X126095238Y-49547619D01*
X126190476Y-49642857D01*
X126285714Y-49690476D01*
X126476190Y-49738095D01*
X126619047Y-49738095D01*
X126809523Y-49690476D01*
X126904761Y-49642857D01*
X127000000Y-49547619D01*
X127047619Y-49404761D01*
X127047619Y-49309523D01*
X127000000Y-49166666D01*
X126952380Y-49119047D01*
X126047619Y-47928571D02*
X127047619Y-47928571D01*
X127047619Y-47690476D01*
X127000000Y-47547619D01*
X126904761Y-47452380D01*
X126809523Y-47404761D01*
X126619047Y-47357142D01*
X126476190Y-47357142D01*
X126285714Y-47404761D01*
X126190476Y-47452380D01*
X126095238Y-47547619D01*
X126047619Y-47690476D01*
X126047619Y-47928571D01*
X126047619Y-46928571D02*
X126714285Y-46928571D01*
X126523809Y-46928571D02*
X126619047Y-46880952D01*
X126666666Y-46833333D01*
X126714285Y-46738095D01*
X126714285Y-46642857D01*
X126047619Y-46309523D02*
X126714285Y-46309523D01*
X127047619Y-46309523D02*
X127000000Y-46357142D01*
X126952380Y-46309523D01*
X127000000Y-46261904D01*
X127047619Y-46309523D01*
X126952380Y-46309523D01*
X126714285Y-45928571D02*
X126047619Y-45690476D01*
X126714285Y-45452380D01*
X126095238Y-44690476D02*
X126047619Y-44785714D01*
X126047619Y-44976190D01*
X126095238Y-45071428D01*
X126190476Y-45119047D01*
X126571428Y-45119047D01*
X126666666Y-45071428D01*
X126714285Y-44976190D01*
X126714285Y-44785714D01*
X126666666Y-44690476D01*
X126571428Y-44642857D01*
X126476190Y-44642857D01*
X126380952Y-45119047D01*
X126714285Y-44214285D02*
X126047619Y-44214285D01*
X126619047Y-44214285D02*
X126666666Y-44166666D01*
X126714285Y-44071428D01*
X126714285Y-43928571D01*
X126666666Y-43833333D01*
X126571428Y-43785714D01*
X126047619Y-43785714D01*
X126047619Y-42404761D02*
X126095238Y-42500000D01*
X126142857Y-42547619D01*
X126238095Y-42595238D01*
X126523809Y-42595238D01*
X126619047Y-42547619D01*
X126666666Y-42500000D01*
X126714285Y-42404761D01*
X126714285Y-42261904D01*
X126666666Y-42166666D01*
X126619047Y-42119047D01*
X126523809Y-42071428D01*
X126238095Y-42071428D01*
X126142857Y-42119047D01*
X126095238Y-42166666D01*
X126047619Y-42261904D01*
X126047619Y-42404761D01*
X126714285Y-41214285D02*
X126047619Y-41214285D01*
X126714285Y-41642857D02*
X126190476Y-41642857D01*
X126095238Y-41595238D01*
X126047619Y-41500000D01*
X126047619Y-41357142D01*
X126095238Y-41261904D01*
X126142857Y-41214285D01*
X126714285Y-40880952D02*
X126714285Y-40500000D01*
X127047619Y-40738095D02*
X126190476Y-40738095D01*
X126095238Y-40690476D01*
X126047619Y-40595238D01*
X126047619Y-40500000D01*
X126714285Y-40166666D02*
X125714285Y-40166666D01*
X126666666Y-40166666D02*
X126714285Y-40071428D01*
X126714285Y-39880952D01*
X126666666Y-39785714D01*
X126619047Y-39738095D01*
X126523809Y-39690476D01*
X126238095Y-39690476D01*
X126142857Y-39738095D01*
X126095238Y-39785714D01*
X126047619Y-39880952D01*
X126047619Y-40071428D01*
X126095238Y-40166666D01*
X126714285Y-38833333D02*
X126047619Y-38833333D01*
X126714285Y-39261904D02*
X126190476Y-39261904D01*
X126095238Y-39214285D01*
X126047619Y-39119047D01*
X126047619Y-38976190D01*
X126095238Y-38880952D01*
X126142857Y-38833333D01*
X126714285Y-38500000D02*
X126714285Y-38119047D01*
X127047619Y-38357142D02*
X126190476Y-38357142D01*
X126095238Y-38309523D01*
X126047619Y-38214285D01*
X126047619Y-38119047D01*
X126095238Y-37833333D02*
X126047619Y-37738095D01*
X126047619Y-37547619D01*
X126095238Y-37452380D01*
X126190476Y-37404761D01*
X126238095Y-37404761D01*
X126333333Y-37452380D01*
X126380952Y-37547619D01*
X126380952Y-37690476D01*
X126428571Y-37785714D01*
X126523809Y-37833333D01*
X126571428Y-37833333D01*
X126666666Y-37785714D01*
X126714285Y-37690476D01*
X126714285Y-37547619D01*
X126666666Y-37452380D01*
D10*
X85647619Y-41311904D02*
X85152380Y-41311904D01*
X85419047Y-41616666D01*
X85304761Y-41616666D01*
X85228571Y-41654761D01*
X85190476Y-41692857D01*
X85152380Y-41769047D01*
X85152380Y-41959523D01*
X85190476Y-42035714D01*
X85228571Y-42073809D01*
X85304761Y-42111904D01*
X85533333Y-42111904D01*
X85609523Y-42073809D01*
X85647619Y-42035714D01*
X84885714Y-41311904D02*
X84390476Y-41311904D01*
X84657142Y-41616666D01*
X84542857Y-41616666D01*
X84466666Y-41654761D01*
X84428571Y-41692857D01*
X84390476Y-41769047D01*
X84390476Y-41959523D01*
X84428571Y-42035714D01*
X84466666Y-42073809D01*
X84542857Y-42111904D01*
X84771428Y-42111904D01*
X84847619Y-42073809D01*
X84885714Y-42035714D01*
%TO.C,AJK1*%
X95487142Y-48735714D02*
X95363333Y-49169047D01*
X95239523Y-48859523D01*
X95115714Y-49169047D01*
X94991904Y-48735714D01*
X94806190Y-48735714D02*
X94682380Y-49169047D01*
X94558571Y-48859523D01*
X94434761Y-49169047D01*
X94310952Y-48735714D01*
X94125238Y-48735714D02*
X94001428Y-49169047D01*
X93877619Y-48859523D01*
X93753809Y-49169047D01*
X93630000Y-48735714D01*
X93382380Y-49107142D02*
X93351428Y-49138095D01*
X93382380Y-49169047D01*
X93413333Y-49138095D01*
X93382380Y-49107142D01*
X93382380Y-49169047D01*
X93072857Y-49169047D02*
X93072857Y-48735714D01*
X93072857Y-48797619D02*
X93041904Y-48766666D01*
X92980000Y-48735714D01*
X92887142Y-48735714D01*
X92825238Y-48766666D01*
X92794285Y-48828571D01*
X92794285Y-49169047D01*
X92794285Y-48828571D02*
X92763333Y-48766666D01*
X92701428Y-48735714D01*
X92608571Y-48735714D01*
X92546666Y-48766666D01*
X92515714Y-48828571D01*
X92515714Y-49169047D01*
X91958571Y-49138095D02*
X92020476Y-49169047D01*
X92144285Y-49169047D01*
X92206190Y-49138095D01*
X92237142Y-49076190D01*
X92237142Y-48828571D01*
X92206190Y-48766666D01*
X92144285Y-48735714D01*
X92020476Y-48735714D01*
X91958571Y-48766666D01*
X91927619Y-48828571D01*
X91927619Y-48890476D01*
X92237142Y-48952380D01*
X91649047Y-49107142D02*
X91618095Y-49138095D01*
X91649047Y-49169047D01*
X91680000Y-49138095D01*
X91649047Y-49107142D01*
X91649047Y-49169047D01*
X91060952Y-48735714D02*
X91060952Y-49169047D01*
X91339523Y-48735714D02*
X91339523Y-49076190D01*
X91308571Y-49138095D01*
X91246666Y-49169047D01*
X91153809Y-49169047D01*
X91091904Y-49138095D01*
X91060952Y-49107142D01*
X90751428Y-49169047D02*
X90751428Y-48519047D01*
X90689523Y-48921428D02*
X90503809Y-49169047D01*
X90503809Y-48735714D02*
X90751428Y-48983333D01*
%TD*%
M02*
