%TF.GenerationSoftware,KiCad,Pcbnew,(5.1.9-0-10_14)*%
%TF.CreationDate,2021-04-13T14:48:48+01:00*%
%TF.ProjectId,PN532,504e3533-322e-46b6-9963-61645f706362,rev?*%
%TF.SameCoordinates,Original*%
%TF.FileFunction,Copper,L2,Bot*%
%TF.FilePolarity,Positive*%
%FSLAX46Y46*%
G04 Gerber Fmt 4.6, Leading zero omitted, Abs format (unit mm)*
G04 Created by KiCad (PCBNEW (5.1.9-0-10_14)) date 2021-04-13 14:48:48*
%MOMM*%
%LPD*%
G01*
G04 APERTURE LIST*
%TA.AperFunction,EtchedComponent*%
%ADD10C,0.500000*%
%TD*%
%TA.AperFunction,ComponentPad*%
%ADD11C,0.500000*%
%TD*%
%TA.AperFunction,ComponentPad*%
%ADD12C,0.800000*%
%TD*%
%TA.AperFunction,ComponentPad*%
%ADD13C,6.400000*%
%TD*%
%TA.AperFunction,ComponentPad*%
%ADD14C,1.800000*%
%TD*%
%TA.AperFunction,ComponentPad*%
%ADD15R,1.800000X1.800000*%
%TD*%
%TA.AperFunction,ComponentPad*%
%ADD16C,2.000000*%
%TD*%
%TA.AperFunction,ComponentPad*%
%ADD17C,1.000000*%
%TD*%
%TA.AperFunction,ComponentPad*%
%ADD18C,1.300000*%
%TD*%
%TA.AperFunction,ComponentPad*%
%ADD19R,1.300000X1.300000*%
%TD*%
%TA.AperFunction,ComponentPad*%
%ADD20O,1.700000X1.850000*%
%TD*%
%TA.AperFunction,ComponentPad*%
%ADD21O,1.700000X1.700000*%
%TD*%
%TA.AperFunction,ComponentPad*%
%ADD22R,1.700000X1.700000*%
%TD*%
%TA.AperFunction,ViaPad*%
%ADD23C,0.800000*%
%TD*%
%TA.AperFunction,Conductor*%
%ADD24C,0.250000*%
%TD*%
%TA.AperFunction,Conductor*%
%ADD25C,0.500000*%
%TD*%
%TA.AperFunction,Conductor*%
%ADD26C,0.254000*%
%TD*%
%TA.AperFunction,Conductor*%
%ADD27C,0.100000*%
%TD*%
G04 APERTURE END LIST*
D10*
%TO.C,A1*%
X105000000Y-99000000D02*
X137000000Y-99000000D01*
X141000000Y-95000000D02*
X141000000Y-63000000D01*
X137000000Y-59000000D02*
X105000000Y-59000000D01*
X140000000Y-95000000D02*
X140000000Y-63000000D01*
X137000000Y-60000000D02*
X105000000Y-60000000D01*
X137000000Y-98000000D02*
X105000000Y-98000000D01*
X105000000Y-97000000D02*
X137000000Y-97000000D01*
X139000000Y-95000000D02*
X139000000Y-63000000D01*
X137000000Y-61000000D02*
X105000000Y-61000000D01*
X105000000Y-96000000D02*
X137000000Y-96000000D01*
X138000000Y-95000000D02*
X138000000Y-82500000D01*
X138000000Y-63000000D02*
X138000000Y-75500000D01*
X137000000Y-62000000D02*
X105000000Y-62000000D01*
X104000000Y-95000000D02*
X104000000Y-80000000D01*
X103000000Y-95000000D02*
X103000000Y-80000000D01*
X103000000Y-80000000D02*
X104000000Y-78000000D01*
X104000000Y-78000000D02*
X104000000Y-63000000D01*
X102000000Y-95000000D02*
X102000000Y-80000000D01*
X102000000Y-80000000D02*
X103000000Y-78000000D01*
X103000000Y-78000000D02*
X103000000Y-63000000D01*
X101000000Y-95000000D02*
X101000000Y-80000000D01*
X101000000Y-80000000D02*
X102000000Y-78000000D01*
X102000000Y-78000000D02*
X102000000Y-63000000D01*
X101000000Y-63000000D02*
X101000000Y-78000000D01*
X105000000Y-59000000D02*
G75*
G03*
X101000000Y-63000000I0J-4000000D01*
G01*
X105000000Y-60000000D02*
G75*
G03*
X102000000Y-63000000I0J-3000000D01*
G01*
X105000000Y-61000000D02*
G75*
G03*
X103000000Y-63000000I0J-2000000D01*
G01*
X105000000Y-62000000D02*
G75*
G03*
X104000000Y-63000000I0J-1000000D01*
G01*
X101000000Y-95000000D02*
G75*
G03*
X105000000Y-99000000I4000000J0D01*
G01*
X102000000Y-95000000D02*
G75*
G03*
X105000000Y-98000000I3000000J0D01*
G01*
X103000000Y-95000000D02*
G75*
G03*
X105000000Y-97000000I2000000J0D01*
G01*
X104000000Y-95000000D02*
G75*
G03*
X105000000Y-96000000I1000000J0D01*
G01*
X141000000Y-63000000D02*
G75*
G03*
X137000000Y-59000000I-4000000J0D01*
G01*
X140000000Y-63000000D02*
G75*
G03*
X137000000Y-60000000I-3000000J0D01*
G01*
X139000000Y-63000000D02*
G75*
G03*
X137000000Y-61000000I-2000000J0D01*
G01*
X138000000Y-63000000D02*
G75*
G03*
X137000000Y-62000000I-1000000J0D01*
G01*
X137000000Y-99000000D02*
G75*
G03*
X141000000Y-95000000I0J4000000D01*
G01*
X137000000Y-98000000D02*
G75*
G03*
X140000000Y-95000000I0J3000000D01*
G01*
X137000000Y-97000000D02*
G75*
G03*
X139000000Y-95000000I0J2000000D01*
G01*
X137000000Y-96000000D02*
G75*
G03*
X138000000Y-95000000I0J1000000D01*
G01*
%TD*%
D11*
%TO.P,A1,~*%
%TO.N,N/C*%
X101000000Y-78000000D03*
X104000000Y-80000000D03*
%TO.P,A1,3*%
%TO.N,Net-(A1-Pad3)*%
X138000000Y-75500000D03*
%TO.P,A1,1*%
%TO.N,Net-(A1-Pad1)*%
X138000000Y-82500000D03*
%TO.P,A1,2*%
%TO.N,GND*%
X140000000Y-79000000D03*
%TD*%
D12*
%TO.P,H2,1*%
%TO.N,N/C*%
X109697056Y-90302944D03*
X108000000Y-89600000D03*
X106302944Y-90302944D03*
X105600000Y-92000000D03*
X106302944Y-93697056D03*
X108000000Y-94400000D03*
X109697056Y-93697056D03*
X110400000Y-92000000D03*
D13*
X108000000Y-92000000D03*
%TD*%
D12*
%TO.P,H1,1*%
%TO.N,N/C*%
X135697056Y-64302944D03*
X134000000Y-63600000D03*
X132302944Y-64302944D03*
X131600000Y-66000000D03*
X132302944Y-67697056D03*
X134000000Y-68400000D03*
X135697056Y-67697056D03*
X136400000Y-66000000D03*
D13*
X134000000Y-66000000D03*
%TD*%
%TO.P,D3,2*%
%TO.N,Net-(D3-Pad2)*%
%TA.AperFunction,SMDPad,CuDef*%
G36*
G01*
X108995000Y-77374373D02*
X108995000Y-78625627D01*
G75*
G02*
X108745627Y-78875000I-249373J0D01*
G01*
X107819373Y-78875000D01*
G75*
G02*
X107570000Y-78625627I0J249373D01*
G01*
X107570000Y-77374373D01*
G75*
G02*
X107819373Y-77125000I249373J0D01*
G01*
X108745627Y-77125000D01*
G75*
G02*
X108995000Y-77374373I0J-249373D01*
G01*
G37*
%TD.AperFunction*%
%TO.P,D3,1*%
%TO.N,GND*%
%TA.AperFunction,SMDPad,CuDef*%
G36*
G01*
X111970000Y-77374373D02*
X111970000Y-78625627D01*
G75*
G02*
X111720627Y-78875000I-249373J0D01*
G01*
X110794373Y-78875000D01*
G75*
G02*
X110545000Y-78625627I0J249373D01*
G01*
X110545000Y-77374373D01*
G75*
G02*
X110794373Y-77125000I249373J0D01*
G01*
X111720627Y-77125000D01*
G75*
G02*
X111970000Y-77374373I0J-249373D01*
G01*
G37*
%TD.AperFunction*%
D14*
%TO.P,D3,2*%
%TO.N,Net-(D3-Pad2)*%
X108730000Y-78000000D03*
D15*
%TO.P,D3,1*%
%TO.N,GND*%
X111270000Y-78000000D03*
%TD*%
%TO.P,D2,2*%
%TO.N,Net-(D2-Pad2)*%
%TA.AperFunction,SMDPad,CuDef*%
G36*
G01*
X108995000Y-72374373D02*
X108995000Y-73625627D01*
G75*
G02*
X108745627Y-73875000I-249373J0D01*
G01*
X107819373Y-73875000D01*
G75*
G02*
X107570000Y-73625627I0J249373D01*
G01*
X107570000Y-72374373D01*
G75*
G02*
X107819373Y-72125000I249373J0D01*
G01*
X108745627Y-72125000D01*
G75*
G02*
X108995000Y-72374373I0J-249373D01*
G01*
G37*
%TD.AperFunction*%
%TO.P,D2,1*%
%TO.N,GND*%
%TA.AperFunction,SMDPad,CuDef*%
G36*
G01*
X111970000Y-72374373D02*
X111970000Y-73625627D01*
G75*
G02*
X111720627Y-73875000I-249373J0D01*
G01*
X110794373Y-73875000D01*
G75*
G02*
X110545000Y-73625627I0J249373D01*
G01*
X110545000Y-72374373D01*
G75*
G02*
X110794373Y-72125000I249373J0D01*
G01*
X111720627Y-72125000D01*
G75*
G02*
X111970000Y-72374373I0J-249373D01*
G01*
G37*
%TD.AperFunction*%
D14*
%TO.P,D2,2*%
%TO.N,Net-(D2-Pad2)*%
X108730000Y-73000000D03*
D15*
%TO.P,D2,1*%
%TO.N,GND*%
X111270000Y-73000000D03*
%TD*%
%TO.P,D1,2*%
%TO.N,Net-(D1-Pad2)*%
%TA.AperFunction,SMDPad,CuDef*%
G36*
G01*
X108995000Y-67374373D02*
X108995000Y-68625627D01*
G75*
G02*
X108745627Y-68875000I-249373J0D01*
G01*
X107819373Y-68875000D01*
G75*
G02*
X107570000Y-68625627I0J249373D01*
G01*
X107570000Y-67374373D01*
G75*
G02*
X107819373Y-67125000I249373J0D01*
G01*
X108745627Y-67125000D01*
G75*
G02*
X108995000Y-67374373I0J-249373D01*
G01*
G37*
%TD.AperFunction*%
%TO.P,D1,1*%
%TO.N,GND*%
%TA.AperFunction,SMDPad,CuDef*%
G36*
G01*
X111970000Y-67374373D02*
X111970000Y-68625627D01*
G75*
G02*
X111720627Y-68875000I-249373J0D01*
G01*
X110794373Y-68875000D01*
G75*
G02*
X110545000Y-68625627I0J249373D01*
G01*
X110545000Y-67374373D01*
G75*
G02*
X110794373Y-67125000I249373J0D01*
G01*
X111720627Y-67125000D01*
G75*
G02*
X111970000Y-67374373I0J-249373D01*
G01*
G37*
%TD.AperFunction*%
D14*
%TO.P,D1,2*%
%TO.N,Net-(D1-Pad2)*%
X108730000Y-68000000D03*
D15*
%TO.P,D1,1*%
%TO.N,GND*%
X111270000Y-68000000D03*
%TD*%
D16*
%TO.P,SW1,1*%
%TO.N,GND*%
X129500000Y-94000000D03*
%TO.P,SW1,2*%
%TO.N,Net-(SW1-Pad2)*%
X129500000Y-89500000D03*
%TO.P,SW1,1*%
%TO.N,GND*%
X136000000Y-94000000D03*
%TO.P,SW1,2*%
%TO.N,Net-(SW1-Pad2)*%
X136000000Y-89500000D03*
%TD*%
D17*
%TO.P,U1,41*%
%TO.N,GND*%
X127025000Y-78725000D03*
X128525000Y-77225000D03*
X125525000Y-77225000D03*
X125525000Y-80225000D03*
X128525000Y-80225000D03*
%TD*%
D18*
%TO.P,J3,4*%
%TO.N,Net-(J1-Pad3)*%
X120000000Y-78000000D03*
%TO.P,J3,3*%
%TO.N,Net-(J1-Pad4)*%
X122000000Y-78000000D03*
%TO.P,J3,2*%
%TO.N,+5V*%
X120000000Y-80000000D03*
D19*
%TO.P,J3,1*%
%TO.N,GND*%
X122000000Y-80000000D03*
%TD*%
D20*
%TO.P,J2,4*%
%TO.N,Net-(J1-Pad4)*%
X124900000Y-88400000D03*
%TO.P,J2,3*%
%TO.N,Net-(J1-Pad3)*%
X122400000Y-88400000D03*
%TO.P,J2,2*%
%TO.N,+5V*%
X119900000Y-88400000D03*
%TO.P,J2,1*%
%TO.N,GND*%
%TA.AperFunction,ComponentPad*%
G36*
G01*
X116550000Y-89075000D02*
X116550000Y-87725000D01*
G75*
G02*
X116800000Y-87475000I250000J0D01*
G01*
X118000000Y-87475000D01*
G75*
G02*
X118250000Y-87725000I0J-250000D01*
G01*
X118250000Y-89075000D01*
G75*
G02*
X118000000Y-89325000I-250000J0D01*
G01*
X116800000Y-89325000D01*
G75*
G02*
X116550000Y-89075000I0J250000D01*
G01*
G37*
%TD.AperFunction*%
%TD*%
D21*
%TO.P,J1,4*%
%TO.N,Net-(J1-Pad4)*%
X125020000Y-87000000D03*
%TO.P,J1,3*%
%TO.N,Net-(J1-Pad3)*%
X122480000Y-87000000D03*
%TO.P,J1,2*%
%TO.N,+5V*%
X119940000Y-87000000D03*
D22*
%TO.P,J1,1*%
%TO.N,GND*%
X117400000Y-87000000D03*
%TD*%
D23*
%TO.N,GND*%
X111100000Y-83800000D03*
X121500000Y-74700000D03*
X119000000Y-71600000D03*
X130300000Y-70900000D03*
X123900000Y-71000000D03*
X127300000Y-84400000D03*
X116300000Y-84700000D03*
X124700000Y-84700000D03*
X128150000Y-72540000D03*
X125990000Y-74150000D03*
X117000000Y-79000000D03*
X117000000Y-81200000D03*
X137025000Y-78995000D03*
%TO.N,+3V3*%
X127524978Y-86000000D03*
X128974990Y-85997837D03*
%TO.N,+5V*%
X129674990Y-82700000D03*
X113050000Y-89050000D03*
%TO.N,Net-(J1-Pad4)*%
X120830000Y-81970000D03*
%TO.N,Net-(R5-Pad1)*%
X117000000Y-71700000D03*
X126003052Y-84008230D03*
%TO.N,Net-(R6-Pad1)*%
X117000000Y-74100000D03*
X125590955Y-83045777D03*
%TO.N,Net-(R7-Pad1)*%
X117000000Y-76500000D03*
X122309248Y-82384270D03*
%TO.N,Net-(C10-Pad1)*%
X121500000Y-72500000D03*
X132138215Y-75137488D03*
%TO.N,Net-(SW1-Pad2)*%
X129800000Y-86700000D03*
X123072552Y-81738213D03*
%TD*%
D24*
%TO.N,GND*%
X129500000Y-94000000D02*
X131012660Y-92487340D01*
X134487340Y-92487340D02*
X136000000Y-94000000D01*
X131012660Y-92487340D02*
X131612660Y-92487340D01*
X111270000Y-72987500D02*
X111257500Y-73000000D01*
X111270000Y-68000000D02*
X111270000Y-72987500D01*
X111270000Y-73000000D02*
X111270000Y-78000000D01*
X128525000Y-80225000D02*
X130525000Y-80225000D01*
X131612660Y-81312660D02*
X131612660Y-92487340D01*
X131612660Y-92487340D02*
X134487340Y-92487340D01*
X130525000Y-80225000D02*
X131612660Y-81312660D01*
D25*
X129755000Y-78995000D02*
X128525000Y-80225000D01*
X137025000Y-78995000D02*
X129755000Y-78995000D01*
D24*
%TO.N,+3V3*%
X127527141Y-85997837D02*
X127524978Y-86000000D01*
X128974990Y-85997837D02*
X127527141Y-85997837D01*
%TO.N,+5V*%
X119900000Y-88400000D02*
X119900000Y-90600000D01*
X130525002Y-83550012D02*
X130525002Y-87048002D01*
X130148002Y-87425002D02*
X129574998Y-87425002D01*
X126400000Y-90600000D02*
X119900000Y-90600000D01*
X129674990Y-82700000D02*
X130525002Y-83550012D01*
X129574998Y-87425002D02*
X126400000Y-90600000D01*
X130525002Y-87048002D02*
X130148002Y-87425002D01*
X119900000Y-90600000D02*
X114600000Y-90600000D01*
X114600000Y-90600000D02*
X113050000Y-89050000D01*
%TO.N,Net-(J1-Pad4)*%
X120975001Y-79024999D02*
X122000000Y-78000000D01*
X120975001Y-81824999D02*
X120975001Y-79024999D01*
X120830000Y-81970000D02*
X120975001Y-81824999D01*
%TO.N,Net-(R5-Pad1)*%
X115100000Y-73600000D02*
X117000000Y-71700000D01*
X125437367Y-84008230D02*
X126003052Y-84008230D01*
X116321501Y-83448499D02*
X119392676Y-83448499D01*
X115000000Y-82126998D02*
X116321501Y-83448499D01*
X121240801Y-83855023D02*
X121399813Y-83696011D01*
X115000000Y-73700000D02*
X115000000Y-82126998D01*
X119392676Y-83448499D02*
X119799199Y-83855023D01*
X125125148Y-83696011D02*
X125437367Y-84008230D01*
X121399813Y-83696011D02*
X125125148Y-83696011D01*
X119799199Y-83855023D02*
X121240801Y-83855023D01*
X117000000Y-71700000D02*
X115000000Y-73700000D01*
%TO.N,Net-(R6-Pad1)*%
X115600000Y-75500000D02*
X117000000Y-74100000D01*
X115500000Y-81900000D02*
X116510000Y-82910000D01*
X124936035Y-83135012D02*
X125025270Y-83045777D01*
X119490587Y-82910000D02*
X119985599Y-83405012D01*
X125025270Y-83045777D02*
X125590955Y-83045777D01*
X121324400Y-83135012D02*
X124936035Y-83135012D01*
X121054401Y-83405012D02*
X121324400Y-83135012D01*
X116510000Y-82910000D02*
X119490587Y-82910000D01*
X119985599Y-83405012D02*
X121054401Y-83405012D01*
X117000000Y-74100000D02*
X115500000Y-75600000D01*
X115500000Y-75600000D02*
X115500000Y-81900000D01*
%TO.N,Net-(R7-Pad1)*%
X119644999Y-82428001D02*
X119911999Y-82695001D01*
X116000000Y-77500000D02*
X116000000Y-81700000D01*
X116728001Y-82428001D02*
X119644999Y-82428001D01*
X119911999Y-82695001D02*
X121178001Y-82695001D01*
X117000000Y-76500000D02*
X116000000Y-77500000D01*
X116000000Y-81700000D02*
X116728001Y-82428001D01*
X121178001Y-82695001D02*
X121488732Y-82384270D01*
X121488732Y-82384270D02*
X122309248Y-82384270D01*
%TO.N,Net-(C10-Pad1)*%
X131760714Y-75514989D02*
X132138215Y-75137488D01*
X124752489Y-75514989D02*
X131760714Y-75514989D01*
X121881250Y-72881250D02*
X121500000Y-72500000D01*
X122118750Y-72881250D02*
X121881250Y-72881250D01*
X122118750Y-72881250D02*
X124752489Y-75514989D01*
%TO.N,Net-(SW1-Pad2)*%
X129800000Y-86700000D02*
X129800000Y-84100000D01*
X125938956Y-82320776D02*
X123655115Y-82320776D01*
X128160000Y-82460000D02*
X126078180Y-82460000D01*
X123655115Y-82320776D02*
X123072552Y-81738213D01*
X129800000Y-84100000D02*
X128160000Y-82460000D01*
X126078180Y-82460000D02*
X125938956Y-82320776D01*
%TD*%
D26*
%TO.N,GND*%
X111384500Y-67873000D02*
X111404500Y-67873000D01*
X111404500Y-68127000D01*
X111384500Y-68127000D01*
X111384500Y-69351250D01*
X111397000Y-69363750D01*
X111397000Y-69376250D01*
X111555750Y-69535000D01*
X112170000Y-69538072D01*
X112294482Y-69525812D01*
X112373191Y-69501936D01*
X112375440Y-69524776D01*
X112382667Y-69548601D01*
X112394403Y-69570557D01*
X112410197Y-69589803D01*
X113410197Y-70589803D01*
X113429443Y-70605597D01*
X113451399Y-70617333D01*
X113475224Y-70624560D01*
X113500000Y-70627000D01*
X130873000Y-70627000D01*
X130873000Y-74447394D01*
X130565405Y-74754989D01*
X125067292Y-74754989D01*
X122682554Y-72370253D01*
X122658751Y-72341249D01*
X122543026Y-72246276D01*
X122500262Y-72223418D01*
X122495226Y-72198102D01*
X122417205Y-72009744D01*
X122303937Y-71840226D01*
X122159774Y-71696063D01*
X121990256Y-71582795D01*
X121801898Y-71504774D01*
X121601939Y-71465000D01*
X121398061Y-71465000D01*
X121198102Y-71504774D01*
X121009744Y-71582795D01*
X120840226Y-71696063D01*
X120696063Y-71840226D01*
X120582795Y-72009744D01*
X120504774Y-72198102D01*
X120465000Y-72398061D01*
X120465000Y-72601939D01*
X120504774Y-72801898D01*
X120582795Y-72990256D01*
X120696063Y-73159774D01*
X120840226Y-73303937D01*
X121009744Y-73417205D01*
X121198102Y-73495226D01*
X121398061Y-73535000D01*
X121492101Y-73535000D01*
X121589003Y-73586796D01*
X121732264Y-73630253D01*
X121799582Y-73636883D01*
X124188694Y-76025997D01*
X124212488Y-76054990D01*
X124241481Y-76078784D01*
X124241485Y-76078788D01*
X124298311Y-76125423D01*
X124328213Y-76149963D01*
X124460242Y-76220535D01*
X124603503Y-76263992D01*
X124715156Y-76274989D01*
X124715165Y-76274989D01*
X124752488Y-76278665D01*
X124789811Y-76274989D01*
X124954710Y-76274989D01*
X124926439Y-76446834D01*
X125525000Y-77045395D01*
X126123561Y-76446834D01*
X126095290Y-76274989D01*
X127954710Y-76274989D01*
X127926439Y-76446834D01*
X128525000Y-77045395D01*
X129123561Y-76446834D01*
X129095290Y-76274989D01*
X129873000Y-76274989D01*
X129873000Y-81684110D01*
X129776929Y-81665000D01*
X129573051Y-81665000D01*
X129373092Y-81704774D01*
X129184734Y-81782795D01*
X129015216Y-81896063D01*
X128871053Y-82040226D01*
X128848612Y-82073811D01*
X128723804Y-81949003D01*
X128700001Y-81919999D01*
X128584276Y-81825026D01*
X128452247Y-81754454D01*
X128308986Y-81710997D01*
X128197333Y-81700000D01*
X128197322Y-81700000D01*
X128160000Y-81696324D01*
X128122678Y-81700000D01*
X126380532Y-81700000D01*
X126363232Y-81685802D01*
X126231203Y-81615230D01*
X126087942Y-81571773D01*
X125976289Y-81560776D01*
X125976278Y-81560776D01*
X125938956Y-81557100D01*
X125901634Y-81560776D01*
X124092535Y-81560776D01*
X124067778Y-81436315D01*
X123989757Y-81247957D01*
X123876489Y-81078439D01*
X123801216Y-81003166D01*
X124926439Y-81003166D01*
X124961550Y-81216588D01*
X125165826Y-81307458D01*
X125383905Y-81356731D01*
X125607406Y-81362511D01*
X125827740Y-81324577D01*
X126036440Y-81244387D01*
X126088450Y-81216588D01*
X126123561Y-81003166D01*
X127926439Y-81003166D01*
X127961550Y-81216588D01*
X128165826Y-81307458D01*
X128383905Y-81356731D01*
X128607406Y-81362511D01*
X128827740Y-81324577D01*
X129036440Y-81244387D01*
X129088450Y-81216588D01*
X129123561Y-81003166D01*
X128525000Y-80404605D01*
X127926439Y-81003166D01*
X126123561Y-81003166D01*
X125525000Y-80404605D01*
X124926439Y-81003166D01*
X123801216Y-81003166D01*
X123732326Y-80934276D01*
X123562808Y-80821008D01*
X123374450Y-80742987D01*
X123280750Y-80724349D01*
X123288072Y-80650000D01*
X123285183Y-80307406D01*
X124387489Y-80307406D01*
X124425423Y-80527740D01*
X124505613Y-80736440D01*
X124533412Y-80788450D01*
X124746834Y-80823561D01*
X125345395Y-80225000D01*
X125704605Y-80225000D01*
X126303166Y-80823561D01*
X126516588Y-80788450D01*
X126607458Y-80584174D01*
X126656731Y-80366095D01*
X126662511Y-80142594D01*
X126624577Y-79922260D01*
X126562868Y-79761658D01*
X126665826Y-79807458D01*
X126883905Y-79856731D01*
X127107406Y-79862511D01*
X127327740Y-79824577D01*
X127488342Y-79762868D01*
X127442542Y-79865826D01*
X127393269Y-80083905D01*
X127387489Y-80307406D01*
X127425423Y-80527740D01*
X127505613Y-80736440D01*
X127533412Y-80788450D01*
X127746834Y-80823561D01*
X128345395Y-80225000D01*
X128704605Y-80225000D01*
X129303166Y-80823561D01*
X129516588Y-80788450D01*
X129607458Y-80584174D01*
X129656731Y-80366095D01*
X129662511Y-80142594D01*
X129624577Y-79922260D01*
X129544387Y-79713560D01*
X129516588Y-79661550D01*
X129303166Y-79626439D01*
X128704605Y-80225000D01*
X128345395Y-80225000D01*
X127746834Y-79626439D01*
X127599287Y-79650713D01*
X127623561Y-79503166D01*
X127025000Y-78904605D01*
X126426439Y-79503166D01*
X126450713Y-79650713D01*
X126303166Y-79626439D01*
X125704605Y-80225000D01*
X125345395Y-80225000D01*
X124746834Y-79626439D01*
X124533412Y-79661550D01*
X124442542Y-79865826D01*
X124393269Y-80083905D01*
X124387489Y-80307406D01*
X123285183Y-80307406D01*
X123285000Y-80285750D01*
X123126250Y-80127000D01*
X122127000Y-80127000D01*
X122127000Y-81126250D01*
X122192742Y-81191992D01*
X122155347Y-81247957D01*
X122104948Y-81369631D01*
X122007350Y-81389044D01*
X121818992Y-81467065D01*
X121758653Y-81507382D01*
X121747205Y-81479744D01*
X121735001Y-81461479D01*
X121735001Y-81264249D01*
X121873000Y-81126250D01*
X121873000Y-80127000D01*
X121853000Y-80127000D01*
X121853000Y-79873000D01*
X121873000Y-79873000D01*
X121873000Y-79853000D01*
X122127000Y-79853000D01*
X122127000Y-79873000D01*
X123126250Y-79873000D01*
X123285000Y-79714250D01*
X123288072Y-79350000D01*
X123275812Y-79225518D01*
X123239502Y-79105820D01*
X123180537Y-78995506D01*
X123101185Y-78898815D01*
X123004494Y-78819463D01*
X122999642Y-78816870D01*
X123138753Y-78608676D01*
X123235619Y-78374821D01*
X123285000Y-78126561D01*
X123285000Y-78003166D01*
X124926439Y-78003166D01*
X124961550Y-78216588D01*
X125165826Y-78307458D01*
X125383905Y-78356731D01*
X125607406Y-78362511D01*
X125827740Y-78324577D01*
X125988342Y-78262868D01*
X125942542Y-78365826D01*
X125893269Y-78583905D01*
X125887489Y-78807406D01*
X125925423Y-79027740D01*
X125987132Y-79188342D01*
X125884174Y-79142542D01*
X125666095Y-79093269D01*
X125442594Y-79087489D01*
X125222260Y-79125423D01*
X125013560Y-79205613D01*
X124961550Y-79233412D01*
X124926439Y-79446834D01*
X125525000Y-80045395D01*
X126123561Y-79446834D01*
X126099287Y-79299287D01*
X126246834Y-79323561D01*
X126845395Y-78725000D01*
X127204605Y-78725000D01*
X127803166Y-79323561D01*
X127950713Y-79299287D01*
X127926439Y-79446834D01*
X128525000Y-80045395D01*
X129123561Y-79446834D01*
X129088450Y-79233412D01*
X128884174Y-79142542D01*
X128666095Y-79093269D01*
X128442594Y-79087489D01*
X128222260Y-79125423D01*
X128061658Y-79187132D01*
X128107458Y-79084174D01*
X128156731Y-78866095D01*
X128162511Y-78642594D01*
X128124577Y-78422260D01*
X128062868Y-78261658D01*
X128165826Y-78307458D01*
X128383905Y-78356731D01*
X128607406Y-78362511D01*
X128827740Y-78324577D01*
X129036440Y-78244387D01*
X129088450Y-78216588D01*
X129123561Y-78003166D01*
X128525000Y-77404605D01*
X127926439Y-78003166D01*
X127950713Y-78150713D01*
X127803166Y-78126439D01*
X127204605Y-78725000D01*
X126845395Y-78725000D01*
X126246834Y-78126439D01*
X126099287Y-78150713D01*
X126123561Y-78003166D01*
X125525000Y-77404605D01*
X124926439Y-78003166D01*
X123285000Y-78003166D01*
X123285000Y-77873439D01*
X123235619Y-77625179D01*
X123138753Y-77391324D01*
X123082681Y-77307406D01*
X124387489Y-77307406D01*
X124425423Y-77527740D01*
X124505613Y-77736440D01*
X124533412Y-77788450D01*
X124746834Y-77823561D01*
X125345395Y-77225000D01*
X125704605Y-77225000D01*
X126303166Y-77823561D01*
X126450713Y-77799287D01*
X126426439Y-77946834D01*
X127025000Y-78545395D01*
X127623561Y-77946834D01*
X127599287Y-77799287D01*
X127746834Y-77823561D01*
X128345395Y-77225000D01*
X128704605Y-77225000D01*
X129303166Y-77823561D01*
X129516588Y-77788450D01*
X129607458Y-77584174D01*
X129656731Y-77366095D01*
X129662511Y-77142594D01*
X129624577Y-76922260D01*
X129544387Y-76713560D01*
X129516588Y-76661550D01*
X129303166Y-76626439D01*
X128704605Y-77225000D01*
X128345395Y-77225000D01*
X127746834Y-76626439D01*
X127533412Y-76661550D01*
X127442542Y-76865826D01*
X127393269Y-77083905D01*
X127387489Y-77307406D01*
X127425423Y-77527740D01*
X127487132Y-77688342D01*
X127384174Y-77642542D01*
X127166095Y-77593269D01*
X126942594Y-77587489D01*
X126722260Y-77625423D01*
X126561658Y-77687132D01*
X126607458Y-77584174D01*
X126656731Y-77366095D01*
X126662511Y-77142594D01*
X126624577Y-76922260D01*
X126544387Y-76713560D01*
X126516588Y-76661550D01*
X126303166Y-76626439D01*
X125704605Y-77225000D01*
X125345395Y-77225000D01*
X124746834Y-76626439D01*
X124533412Y-76661550D01*
X124442542Y-76865826D01*
X124393269Y-77083905D01*
X124387489Y-77307406D01*
X123082681Y-77307406D01*
X122998125Y-77180860D01*
X122819140Y-77001875D01*
X122608676Y-76861247D01*
X122374821Y-76764381D01*
X122126561Y-76715000D01*
X121873439Y-76715000D01*
X121625179Y-76764381D01*
X121391324Y-76861247D01*
X121180860Y-77001875D01*
X121001875Y-77180860D01*
X121000000Y-77183666D01*
X120998125Y-77180860D01*
X120819140Y-77001875D01*
X120608676Y-76861247D01*
X120374821Y-76764381D01*
X120126561Y-76715000D01*
X119873439Y-76715000D01*
X119625179Y-76764381D01*
X119391324Y-76861247D01*
X119180860Y-77001875D01*
X119001875Y-77180860D01*
X118861247Y-77391324D01*
X118764381Y-77625179D01*
X118715000Y-77873439D01*
X118715000Y-78126561D01*
X118764381Y-78374821D01*
X118861247Y-78608676D01*
X119001875Y-78819140D01*
X119180860Y-78998125D01*
X119183666Y-79000000D01*
X119180860Y-79001875D01*
X119001875Y-79180860D01*
X118861247Y-79391324D01*
X118764381Y-79625179D01*
X118715000Y-79873439D01*
X118715000Y-80126561D01*
X118764381Y-80374821D01*
X118861247Y-80608676D01*
X119001875Y-80819140D01*
X119180860Y-80998125D01*
X119391324Y-81138753D01*
X119625179Y-81235619D01*
X119873439Y-81285000D01*
X120051289Y-81285000D01*
X120026063Y-81310226D01*
X119912795Y-81479744D01*
X119834774Y-81668102D01*
X119830409Y-81690047D01*
X119793985Y-81678998D01*
X119682332Y-81668001D01*
X119682321Y-81668001D01*
X119644999Y-81664325D01*
X119607677Y-81668001D01*
X117042803Y-81668001D01*
X116760000Y-81385199D01*
X116760000Y-77814801D01*
X117039802Y-77535000D01*
X117101939Y-77535000D01*
X117301898Y-77495226D01*
X117490256Y-77417205D01*
X117659774Y-77303937D01*
X117803937Y-77159774D01*
X117917205Y-76990256D01*
X117995226Y-76801898D01*
X118035000Y-76601939D01*
X118035000Y-76398061D01*
X117995226Y-76198102D01*
X117917205Y-76009744D01*
X117803937Y-75840226D01*
X117659774Y-75696063D01*
X117490256Y-75582795D01*
X117301898Y-75504774D01*
X117101939Y-75465000D01*
X116898061Y-75465000D01*
X116698102Y-75504774D01*
X116650175Y-75524626D01*
X117039802Y-75135000D01*
X117101939Y-75135000D01*
X117301898Y-75095226D01*
X117490256Y-75017205D01*
X117659774Y-74903937D01*
X117803937Y-74759774D01*
X117917205Y-74590256D01*
X117995226Y-74401898D01*
X118035000Y-74201939D01*
X118035000Y-73998061D01*
X117995226Y-73798102D01*
X117917205Y-73609744D01*
X117803937Y-73440226D01*
X117659774Y-73296063D01*
X117490256Y-73182795D01*
X117301898Y-73104774D01*
X117101939Y-73065000D01*
X116898061Y-73065000D01*
X116698102Y-73104774D01*
X116650176Y-73124626D01*
X117039802Y-72735000D01*
X117101939Y-72735000D01*
X117301898Y-72695226D01*
X117490256Y-72617205D01*
X117659774Y-72503937D01*
X117803937Y-72359774D01*
X117917205Y-72190256D01*
X117995226Y-72001898D01*
X118035000Y-71801939D01*
X118035000Y-71598061D01*
X117995226Y-71398102D01*
X117917205Y-71209744D01*
X117803937Y-71040226D01*
X117659774Y-70896063D01*
X117490256Y-70782795D01*
X117301898Y-70704774D01*
X117101939Y-70665000D01*
X116898061Y-70665000D01*
X116698102Y-70704774D01*
X116509744Y-70782795D01*
X116340226Y-70896063D01*
X116196063Y-71040226D01*
X116082795Y-71209744D01*
X116004774Y-71398102D01*
X115965000Y-71598061D01*
X115965000Y-71660198D01*
X114489003Y-73136196D01*
X114459999Y-73159999D01*
X114404871Y-73227174D01*
X114365026Y-73275724D01*
X114324791Y-73350998D01*
X114294454Y-73407754D01*
X114250997Y-73551015D01*
X114240000Y-73662668D01*
X114240000Y-73662678D01*
X114236324Y-73700000D01*
X114240000Y-73737322D01*
X114240001Y-82089666D01*
X114236324Y-82126998D01*
X114240001Y-82164331D01*
X114250998Y-82275984D01*
X114257305Y-82296775D01*
X114294454Y-82419244D01*
X114365026Y-82551274D01*
X114424720Y-82624010D01*
X114460000Y-82666999D01*
X114488998Y-82690797D01*
X115757701Y-83959501D01*
X115781500Y-83988500D01*
X115897225Y-84083473D01*
X116029254Y-84154045D01*
X116172515Y-84197502D01*
X116284168Y-84208499D01*
X116284176Y-84208499D01*
X116321501Y-84212175D01*
X116358826Y-84208499D01*
X119077874Y-84208499D01*
X119235395Y-84366020D01*
X119259198Y-84395024D01*
X119374923Y-84489997D01*
X119506952Y-84560569D01*
X119650213Y-84604026D01*
X119761866Y-84615023D01*
X119761875Y-84615023D01*
X119799198Y-84618699D01*
X119836523Y-84615023D01*
X121203479Y-84615023D01*
X121240801Y-84618699D01*
X121278123Y-84615023D01*
X121278134Y-84615023D01*
X121389787Y-84604026D01*
X121533048Y-84560569D01*
X121665077Y-84489997D01*
X121706489Y-84456011D01*
X124810347Y-84456011D01*
X124873563Y-84519227D01*
X124897366Y-84548231D01*
X125013091Y-84643204D01*
X125145120Y-84713776D01*
X125288328Y-84757217D01*
X125343278Y-84812167D01*
X125512796Y-84925435D01*
X125701154Y-85003456D01*
X125901113Y-85043230D01*
X126104991Y-85043230D01*
X126304950Y-85003456D01*
X126493308Y-84925435D01*
X126662826Y-84812167D01*
X126806989Y-84668004D01*
X126920257Y-84498486D01*
X126998278Y-84310128D01*
X127038052Y-84110169D01*
X127038052Y-83906291D01*
X126998278Y-83706332D01*
X126920257Y-83517974D01*
X126806989Y-83348456D01*
X126678533Y-83220000D01*
X127845199Y-83220000D01*
X129040001Y-84414803D01*
X129040001Y-84962837D01*
X128873051Y-84962837D01*
X128673092Y-85002611D01*
X128484734Y-85080632D01*
X128315216Y-85193900D01*
X128271279Y-85237837D01*
X128226526Y-85237837D01*
X128184752Y-85196063D01*
X128015234Y-85082795D01*
X127826876Y-85004774D01*
X127626917Y-84965000D01*
X127423039Y-84965000D01*
X127223080Y-85004774D01*
X127034722Y-85082795D01*
X126865204Y-85196063D01*
X126721041Y-85340226D01*
X126607773Y-85509744D01*
X126529752Y-85698102D01*
X126489978Y-85898061D01*
X126489978Y-86101939D01*
X126529752Y-86301898D01*
X126607773Y-86490256D01*
X126721041Y-86659774D01*
X126865204Y-86803937D01*
X127034722Y-86917205D01*
X127223080Y-86995226D01*
X127423039Y-87035000D01*
X127626917Y-87035000D01*
X127826876Y-86995226D01*
X128015234Y-86917205D01*
X128184752Y-86803937D01*
X128230852Y-86757837D01*
X128271279Y-86757837D01*
X128315216Y-86801774D01*
X128484734Y-86915042D01*
X128673092Y-86993063D01*
X128812610Y-87020815D01*
X128839490Y-87085708D01*
X126085199Y-89840000D01*
X125496476Y-89840000D01*
X125729014Y-89715706D01*
X125955134Y-89530134D01*
X126140706Y-89304013D01*
X126278599Y-89046033D01*
X126363513Y-88766110D01*
X126385000Y-88547949D01*
X126385000Y-88252050D01*
X126363513Y-88033889D01*
X126285971Y-87778269D01*
X126335990Y-87703411D01*
X126447932Y-87433158D01*
X126505000Y-87146260D01*
X126505000Y-86853740D01*
X126447932Y-86566842D01*
X126335990Y-86296589D01*
X126173475Y-86053368D01*
X125966632Y-85846525D01*
X125723411Y-85684010D01*
X125453158Y-85572068D01*
X125166260Y-85515000D01*
X124873740Y-85515000D01*
X124586842Y-85572068D01*
X124316589Y-85684010D01*
X124073368Y-85846525D01*
X123866525Y-86053368D01*
X123750000Y-86227760D01*
X123633475Y-86053368D01*
X123426632Y-85846525D01*
X123183411Y-85684010D01*
X122913158Y-85572068D01*
X122626260Y-85515000D01*
X122333740Y-85515000D01*
X122046842Y-85572068D01*
X121776589Y-85684010D01*
X121533368Y-85846525D01*
X121326525Y-86053368D01*
X121210000Y-86227760D01*
X121093475Y-86053368D01*
X120886632Y-85846525D01*
X120643411Y-85684010D01*
X120373158Y-85572068D01*
X120086260Y-85515000D01*
X119793740Y-85515000D01*
X119506842Y-85572068D01*
X119236589Y-85684010D01*
X118993368Y-85846525D01*
X118861513Y-85978380D01*
X118839502Y-85905820D01*
X118780537Y-85795506D01*
X118701185Y-85698815D01*
X118604494Y-85619463D01*
X118494180Y-85560498D01*
X118374482Y-85524188D01*
X118250000Y-85511928D01*
X117685750Y-85515000D01*
X117527000Y-85673750D01*
X117527000Y-86873000D01*
X117547000Y-86873000D01*
X117547000Y-86978750D01*
X117527000Y-86998750D01*
X117527000Y-88326250D01*
X117547000Y-88346250D01*
X117547000Y-88527000D01*
X117527000Y-88527000D01*
X117527000Y-88547000D01*
X117273000Y-88547000D01*
X117273000Y-88527000D01*
X116073750Y-88527000D01*
X115915000Y-88685750D01*
X115911928Y-89325000D01*
X115924188Y-89449482D01*
X115960498Y-89569180D01*
X116019463Y-89679494D01*
X116098815Y-89776185D01*
X116176574Y-89840000D01*
X114914802Y-89840000D01*
X114085000Y-89010199D01*
X114085000Y-88948061D01*
X114045226Y-88748102D01*
X113967205Y-88559744D01*
X113853937Y-88390226D01*
X113709774Y-88246063D01*
X113540256Y-88132795D01*
X113351898Y-88054774D01*
X113151939Y-88015000D01*
X112948061Y-88015000D01*
X112748102Y-88054774D01*
X112559744Y-88132795D01*
X112390226Y-88246063D01*
X112246063Y-88390226D01*
X112132795Y-88559744D01*
X112054774Y-88748102D01*
X112015000Y-88948061D01*
X112015000Y-89151939D01*
X112054774Y-89351898D01*
X112132795Y-89540256D01*
X112246063Y-89709774D01*
X112390226Y-89853937D01*
X112418756Y-89873000D01*
X111191099Y-89873000D01*
X110978839Y-89555330D01*
X110444670Y-89021161D01*
X110127000Y-88808901D01*
X110127000Y-86150000D01*
X115911928Y-86150000D01*
X115915000Y-86714250D01*
X116073750Y-86873000D01*
X116347020Y-86873000D01*
X116305820Y-86885498D01*
X116195506Y-86944463D01*
X116098815Y-87023815D01*
X116019463Y-87120506D01*
X115960498Y-87230820D01*
X115956391Y-87244359D01*
X115915000Y-87285750D01*
X115914089Y-87453057D01*
X115911928Y-87475000D01*
X115912885Y-87674185D01*
X115911928Y-87850000D01*
X115913823Y-87869236D01*
X115915000Y-88114250D01*
X116073750Y-88273000D01*
X116075684Y-88273000D01*
X116098815Y-88301185D01*
X116195506Y-88380537D01*
X116305820Y-88439502D01*
X116425518Y-88475812D01*
X116550000Y-88488072D01*
X117114250Y-88485000D01*
X117273000Y-88326250D01*
X117273000Y-86998750D01*
X117147250Y-86873000D01*
X117273000Y-86873000D01*
X117273000Y-85673750D01*
X117114250Y-85515000D01*
X116550000Y-85511928D01*
X116425518Y-85524188D01*
X116305820Y-85560498D01*
X116195506Y-85619463D01*
X116098815Y-85698815D01*
X116019463Y-85795506D01*
X115960498Y-85905820D01*
X115924188Y-86025518D01*
X115911928Y-86150000D01*
X110127000Y-86150000D01*
X110127000Y-79489860D01*
X110245518Y-79525812D01*
X110370000Y-79538072D01*
X110984250Y-79535000D01*
X111143000Y-79376250D01*
X111143000Y-78127000D01*
X111384500Y-78127000D01*
X111384500Y-79351250D01*
X111397000Y-79363750D01*
X111397000Y-79376250D01*
X111555750Y-79535000D01*
X112170000Y-79538072D01*
X112294482Y-79525812D01*
X112414180Y-79489502D01*
X112524494Y-79430537D01*
X112621185Y-79351185D01*
X112700537Y-79254494D01*
X112759502Y-79144180D01*
X112795812Y-79024482D01*
X112808072Y-78900000D01*
X112805000Y-78285750D01*
X112646250Y-78127000D01*
X111384500Y-78127000D01*
X111143000Y-78127000D01*
X111123000Y-78127000D01*
X111123000Y-77873000D01*
X111143000Y-77873000D01*
X111143000Y-76648750D01*
X111384500Y-76648750D01*
X111384500Y-77873000D01*
X112646250Y-77873000D01*
X112805000Y-77714250D01*
X112808072Y-77100000D01*
X112795812Y-76975518D01*
X112759502Y-76855820D01*
X112700537Y-76745506D01*
X112621185Y-76648815D01*
X112524494Y-76569463D01*
X112414180Y-76510498D01*
X112294482Y-76474188D01*
X112170000Y-76461928D01*
X111555750Y-76465000D01*
X111397000Y-76623750D01*
X111397000Y-76636250D01*
X111384500Y-76648750D01*
X111143000Y-76648750D01*
X111143000Y-76623750D01*
X110984250Y-76465000D01*
X110370000Y-76461928D01*
X110245518Y-76474188D01*
X110127000Y-76510140D01*
X110127000Y-74489860D01*
X110245518Y-74525812D01*
X110370000Y-74538072D01*
X110984250Y-74535000D01*
X111143000Y-74376250D01*
X111143000Y-73127000D01*
X111384500Y-73127000D01*
X111384500Y-74351250D01*
X111397000Y-74363750D01*
X111397000Y-74376250D01*
X111555750Y-74535000D01*
X112170000Y-74538072D01*
X112294482Y-74525812D01*
X112414180Y-74489502D01*
X112524494Y-74430537D01*
X112621185Y-74351185D01*
X112700537Y-74254494D01*
X112759502Y-74144180D01*
X112795812Y-74024482D01*
X112808072Y-73900000D01*
X112805000Y-73285750D01*
X112646250Y-73127000D01*
X111384500Y-73127000D01*
X111143000Y-73127000D01*
X111123000Y-73127000D01*
X111123000Y-72873000D01*
X111143000Y-72873000D01*
X111143000Y-71648750D01*
X111384500Y-71648750D01*
X111384500Y-72873000D01*
X112646250Y-72873000D01*
X112805000Y-72714250D01*
X112808072Y-72100000D01*
X112795812Y-71975518D01*
X112759502Y-71855820D01*
X112700537Y-71745506D01*
X112621185Y-71648815D01*
X112524494Y-71569463D01*
X112414180Y-71510498D01*
X112294482Y-71474188D01*
X112170000Y-71461928D01*
X111555750Y-71465000D01*
X111397000Y-71623750D01*
X111397000Y-71636250D01*
X111384500Y-71648750D01*
X111143000Y-71648750D01*
X111143000Y-71623750D01*
X110984250Y-71465000D01*
X110370000Y-71461928D01*
X110245518Y-71474188D01*
X110127000Y-71510140D01*
X110127000Y-69489860D01*
X110245518Y-69525812D01*
X110370000Y-69538072D01*
X110984250Y-69535000D01*
X111143000Y-69376250D01*
X111143000Y-68127000D01*
X111123000Y-68127000D01*
X111123000Y-67873000D01*
X111143000Y-67873000D01*
X111143000Y-67853000D01*
X111384500Y-67853000D01*
X111384500Y-67873000D01*
%TA.AperFunction,Conductor*%
D27*
G36*
X111384500Y-67873000D02*
G01*
X111404500Y-67873000D01*
X111404500Y-68127000D01*
X111384500Y-68127000D01*
X111384500Y-69351250D01*
X111397000Y-69363750D01*
X111397000Y-69376250D01*
X111555750Y-69535000D01*
X112170000Y-69538072D01*
X112294482Y-69525812D01*
X112373191Y-69501936D01*
X112375440Y-69524776D01*
X112382667Y-69548601D01*
X112394403Y-69570557D01*
X112410197Y-69589803D01*
X113410197Y-70589803D01*
X113429443Y-70605597D01*
X113451399Y-70617333D01*
X113475224Y-70624560D01*
X113500000Y-70627000D01*
X130873000Y-70627000D01*
X130873000Y-74447394D01*
X130565405Y-74754989D01*
X125067292Y-74754989D01*
X122682554Y-72370253D01*
X122658751Y-72341249D01*
X122543026Y-72246276D01*
X122500262Y-72223418D01*
X122495226Y-72198102D01*
X122417205Y-72009744D01*
X122303937Y-71840226D01*
X122159774Y-71696063D01*
X121990256Y-71582795D01*
X121801898Y-71504774D01*
X121601939Y-71465000D01*
X121398061Y-71465000D01*
X121198102Y-71504774D01*
X121009744Y-71582795D01*
X120840226Y-71696063D01*
X120696063Y-71840226D01*
X120582795Y-72009744D01*
X120504774Y-72198102D01*
X120465000Y-72398061D01*
X120465000Y-72601939D01*
X120504774Y-72801898D01*
X120582795Y-72990256D01*
X120696063Y-73159774D01*
X120840226Y-73303937D01*
X121009744Y-73417205D01*
X121198102Y-73495226D01*
X121398061Y-73535000D01*
X121492101Y-73535000D01*
X121589003Y-73586796D01*
X121732264Y-73630253D01*
X121799582Y-73636883D01*
X124188694Y-76025997D01*
X124212488Y-76054990D01*
X124241481Y-76078784D01*
X124241485Y-76078788D01*
X124298311Y-76125423D01*
X124328213Y-76149963D01*
X124460242Y-76220535D01*
X124603503Y-76263992D01*
X124715156Y-76274989D01*
X124715165Y-76274989D01*
X124752488Y-76278665D01*
X124789811Y-76274989D01*
X124954710Y-76274989D01*
X124926439Y-76446834D01*
X125525000Y-77045395D01*
X126123561Y-76446834D01*
X126095290Y-76274989D01*
X127954710Y-76274989D01*
X127926439Y-76446834D01*
X128525000Y-77045395D01*
X129123561Y-76446834D01*
X129095290Y-76274989D01*
X129873000Y-76274989D01*
X129873000Y-81684110D01*
X129776929Y-81665000D01*
X129573051Y-81665000D01*
X129373092Y-81704774D01*
X129184734Y-81782795D01*
X129015216Y-81896063D01*
X128871053Y-82040226D01*
X128848612Y-82073811D01*
X128723804Y-81949003D01*
X128700001Y-81919999D01*
X128584276Y-81825026D01*
X128452247Y-81754454D01*
X128308986Y-81710997D01*
X128197333Y-81700000D01*
X128197322Y-81700000D01*
X128160000Y-81696324D01*
X128122678Y-81700000D01*
X126380532Y-81700000D01*
X126363232Y-81685802D01*
X126231203Y-81615230D01*
X126087942Y-81571773D01*
X125976289Y-81560776D01*
X125976278Y-81560776D01*
X125938956Y-81557100D01*
X125901634Y-81560776D01*
X124092535Y-81560776D01*
X124067778Y-81436315D01*
X123989757Y-81247957D01*
X123876489Y-81078439D01*
X123801216Y-81003166D01*
X124926439Y-81003166D01*
X124961550Y-81216588D01*
X125165826Y-81307458D01*
X125383905Y-81356731D01*
X125607406Y-81362511D01*
X125827740Y-81324577D01*
X126036440Y-81244387D01*
X126088450Y-81216588D01*
X126123561Y-81003166D01*
X127926439Y-81003166D01*
X127961550Y-81216588D01*
X128165826Y-81307458D01*
X128383905Y-81356731D01*
X128607406Y-81362511D01*
X128827740Y-81324577D01*
X129036440Y-81244387D01*
X129088450Y-81216588D01*
X129123561Y-81003166D01*
X128525000Y-80404605D01*
X127926439Y-81003166D01*
X126123561Y-81003166D01*
X125525000Y-80404605D01*
X124926439Y-81003166D01*
X123801216Y-81003166D01*
X123732326Y-80934276D01*
X123562808Y-80821008D01*
X123374450Y-80742987D01*
X123280750Y-80724349D01*
X123288072Y-80650000D01*
X123285183Y-80307406D01*
X124387489Y-80307406D01*
X124425423Y-80527740D01*
X124505613Y-80736440D01*
X124533412Y-80788450D01*
X124746834Y-80823561D01*
X125345395Y-80225000D01*
X125704605Y-80225000D01*
X126303166Y-80823561D01*
X126516588Y-80788450D01*
X126607458Y-80584174D01*
X126656731Y-80366095D01*
X126662511Y-80142594D01*
X126624577Y-79922260D01*
X126562868Y-79761658D01*
X126665826Y-79807458D01*
X126883905Y-79856731D01*
X127107406Y-79862511D01*
X127327740Y-79824577D01*
X127488342Y-79762868D01*
X127442542Y-79865826D01*
X127393269Y-80083905D01*
X127387489Y-80307406D01*
X127425423Y-80527740D01*
X127505613Y-80736440D01*
X127533412Y-80788450D01*
X127746834Y-80823561D01*
X128345395Y-80225000D01*
X128704605Y-80225000D01*
X129303166Y-80823561D01*
X129516588Y-80788450D01*
X129607458Y-80584174D01*
X129656731Y-80366095D01*
X129662511Y-80142594D01*
X129624577Y-79922260D01*
X129544387Y-79713560D01*
X129516588Y-79661550D01*
X129303166Y-79626439D01*
X128704605Y-80225000D01*
X128345395Y-80225000D01*
X127746834Y-79626439D01*
X127599287Y-79650713D01*
X127623561Y-79503166D01*
X127025000Y-78904605D01*
X126426439Y-79503166D01*
X126450713Y-79650713D01*
X126303166Y-79626439D01*
X125704605Y-80225000D01*
X125345395Y-80225000D01*
X124746834Y-79626439D01*
X124533412Y-79661550D01*
X124442542Y-79865826D01*
X124393269Y-80083905D01*
X124387489Y-80307406D01*
X123285183Y-80307406D01*
X123285000Y-80285750D01*
X123126250Y-80127000D01*
X122127000Y-80127000D01*
X122127000Y-81126250D01*
X122192742Y-81191992D01*
X122155347Y-81247957D01*
X122104948Y-81369631D01*
X122007350Y-81389044D01*
X121818992Y-81467065D01*
X121758653Y-81507382D01*
X121747205Y-81479744D01*
X121735001Y-81461479D01*
X121735001Y-81264249D01*
X121873000Y-81126250D01*
X121873000Y-80127000D01*
X121853000Y-80127000D01*
X121853000Y-79873000D01*
X121873000Y-79873000D01*
X121873000Y-79853000D01*
X122127000Y-79853000D01*
X122127000Y-79873000D01*
X123126250Y-79873000D01*
X123285000Y-79714250D01*
X123288072Y-79350000D01*
X123275812Y-79225518D01*
X123239502Y-79105820D01*
X123180537Y-78995506D01*
X123101185Y-78898815D01*
X123004494Y-78819463D01*
X122999642Y-78816870D01*
X123138753Y-78608676D01*
X123235619Y-78374821D01*
X123285000Y-78126561D01*
X123285000Y-78003166D01*
X124926439Y-78003166D01*
X124961550Y-78216588D01*
X125165826Y-78307458D01*
X125383905Y-78356731D01*
X125607406Y-78362511D01*
X125827740Y-78324577D01*
X125988342Y-78262868D01*
X125942542Y-78365826D01*
X125893269Y-78583905D01*
X125887489Y-78807406D01*
X125925423Y-79027740D01*
X125987132Y-79188342D01*
X125884174Y-79142542D01*
X125666095Y-79093269D01*
X125442594Y-79087489D01*
X125222260Y-79125423D01*
X125013560Y-79205613D01*
X124961550Y-79233412D01*
X124926439Y-79446834D01*
X125525000Y-80045395D01*
X126123561Y-79446834D01*
X126099287Y-79299287D01*
X126246834Y-79323561D01*
X126845395Y-78725000D01*
X127204605Y-78725000D01*
X127803166Y-79323561D01*
X127950713Y-79299287D01*
X127926439Y-79446834D01*
X128525000Y-80045395D01*
X129123561Y-79446834D01*
X129088450Y-79233412D01*
X128884174Y-79142542D01*
X128666095Y-79093269D01*
X128442594Y-79087489D01*
X128222260Y-79125423D01*
X128061658Y-79187132D01*
X128107458Y-79084174D01*
X128156731Y-78866095D01*
X128162511Y-78642594D01*
X128124577Y-78422260D01*
X128062868Y-78261658D01*
X128165826Y-78307458D01*
X128383905Y-78356731D01*
X128607406Y-78362511D01*
X128827740Y-78324577D01*
X129036440Y-78244387D01*
X129088450Y-78216588D01*
X129123561Y-78003166D01*
X128525000Y-77404605D01*
X127926439Y-78003166D01*
X127950713Y-78150713D01*
X127803166Y-78126439D01*
X127204605Y-78725000D01*
X126845395Y-78725000D01*
X126246834Y-78126439D01*
X126099287Y-78150713D01*
X126123561Y-78003166D01*
X125525000Y-77404605D01*
X124926439Y-78003166D01*
X123285000Y-78003166D01*
X123285000Y-77873439D01*
X123235619Y-77625179D01*
X123138753Y-77391324D01*
X123082681Y-77307406D01*
X124387489Y-77307406D01*
X124425423Y-77527740D01*
X124505613Y-77736440D01*
X124533412Y-77788450D01*
X124746834Y-77823561D01*
X125345395Y-77225000D01*
X125704605Y-77225000D01*
X126303166Y-77823561D01*
X126450713Y-77799287D01*
X126426439Y-77946834D01*
X127025000Y-78545395D01*
X127623561Y-77946834D01*
X127599287Y-77799287D01*
X127746834Y-77823561D01*
X128345395Y-77225000D01*
X128704605Y-77225000D01*
X129303166Y-77823561D01*
X129516588Y-77788450D01*
X129607458Y-77584174D01*
X129656731Y-77366095D01*
X129662511Y-77142594D01*
X129624577Y-76922260D01*
X129544387Y-76713560D01*
X129516588Y-76661550D01*
X129303166Y-76626439D01*
X128704605Y-77225000D01*
X128345395Y-77225000D01*
X127746834Y-76626439D01*
X127533412Y-76661550D01*
X127442542Y-76865826D01*
X127393269Y-77083905D01*
X127387489Y-77307406D01*
X127425423Y-77527740D01*
X127487132Y-77688342D01*
X127384174Y-77642542D01*
X127166095Y-77593269D01*
X126942594Y-77587489D01*
X126722260Y-77625423D01*
X126561658Y-77687132D01*
X126607458Y-77584174D01*
X126656731Y-77366095D01*
X126662511Y-77142594D01*
X126624577Y-76922260D01*
X126544387Y-76713560D01*
X126516588Y-76661550D01*
X126303166Y-76626439D01*
X125704605Y-77225000D01*
X125345395Y-77225000D01*
X124746834Y-76626439D01*
X124533412Y-76661550D01*
X124442542Y-76865826D01*
X124393269Y-77083905D01*
X124387489Y-77307406D01*
X123082681Y-77307406D01*
X122998125Y-77180860D01*
X122819140Y-77001875D01*
X122608676Y-76861247D01*
X122374821Y-76764381D01*
X122126561Y-76715000D01*
X121873439Y-76715000D01*
X121625179Y-76764381D01*
X121391324Y-76861247D01*
X121180860Y-77001875D01*
X121001875Y-77180860D01*
X121000000Y-77183666D01*
X120998125Y-77180860D01*
X120819140Y-77001875D01*
X120608676Y-76861247D01*
X120374821Y-76764381D01*
X120126561Y-76715000D01*
X119873439Y-76715000D01*
X119625179Y-76764381D01*
X119391324Y-76861247D01*
X119180860Y-77001875D01*
X119001875Y-77180860D01*
X118861247Y-77391324D01*
X118764381Y-77625179D01*
X118715000Y-77873439D01*
X118715000Y-78126561D01*
X118764381Y-78374821D01*
X118861247Y-78608676D01*
X119001875Y-78819140D01*
X119180860Y-78998125D01*
X119183666Y-79000000D01*
X119180860Y-79001875D01*
X119001875Y-79180860D01*
X118861247Y-79391324D01*
X118764381Y-79625179D01*
X118715000Y-79873439D01*
X118715000Y-80126561D01*
X118764381Y-80374821D01*
X118861247Y-80608676D01*
X119001875Y-80819140D01*
X119180860Y-80998125D01*
X119391324Y-81138753D01*
X119625179Y-81235619D01*
X119873439Y-81285000D01*
X120051289Y-81285000D01*
X120026063Y-81310226D01*
X119912795Y-81479744D01*
X119834774Y-81668102D01*
X119830409Y-81690047D01*
X119793985Y-81678998D01*
X119682332Y-81668001D01*
X119682321Y-81668001D01*
X119644999Y-81664325D01*
X119607677Y-81668001D01*
X117042803Y-81668001D01*
X116760000Y-81385199D01*
X116760000Y-77814801D01*
X117039802Y-77535000D01*
X117101939Y-77535000D01*
X117301898Y-77495226D01*
X117490256Y-77417205D01*
X117659774Y-77303937D01*
X117803937Y-77159774D01*
X117917205Y-76990256D01*
X117995226Y-76801898D01*
X118035000Y-76601939D01*
X118035000Y-76398061D01*
X117995226Y-76198102D01*
X117917205Y-76009744D01*
X117803937Y-75840226D01*
X117659774Y-75696063D01*
X117490256Y-75582795D01*
X117301898Y-75504774D01*
X117101939Y-75465000D01*
X116898061Y-75465000D01*
X116698102Y-75504774D01*
X116650175Y-75524626D01*
X117039802Y-75135000D01*
X117101939Y-75135000D01*
X117301898Y-75095226D01*
X117490256Y-75017205D01*
X117659774Y-74903937D01*
X117803937Y-74759774D01*
X117917205Y-74590256D01*
X117995226Y-74401898D01*
X118035000Y-74201939D01*
X118035000Y-73998061D01*
X117995226Y-73798102D01*
X117917205Y-73609744D01*
X117803937Y-73440226D01*
X117659774Y-73296063D01*
X117490256Y-73182795D01*
X117301898Y-73104774D01*
X117101939Y-73065000D01*
X116898061Y-73065000D01*
X116698102Y-73104774D01*
X116650176Y-73124626D01*
X117039802Y-72735000D01*
X117101939Y-72735000D01*
X117301898Y-72695226D01*
X117490256Y-72617205D01*
X117659774Y-72503937D01*
X117803937Y-72359774D01*
X117917205Y-72190256D01*
X117995226Y-72001898D01*
X118035000Y-71801939D01*
X118035000Y-71598061D01*
X117995226Y-71398102D01*
X117917205Y-71209744D01*
X117803937Y-71040226D01*
X117659774Y-70896063D01*
X117490256Y-70782795D01*
X117301898Y-70704774D01*
X117101939Y-70665000D01*
X116898061Y-70665000D01*
X116698102Y-70704774D01*
X116509744Y-70782795D01*
X116340226Y-70896063D01*
X116196063Y-71040226D01*
X116082795Y-71209744D01*
X116004774Y-71398102D01*
X115965000Y-71598061D01*
X115965000Y-71660198D01*
X114489003Y-73136196D01*
X114459999Y-73159999D01*
X114404871Y-73227174D01*
X114365026Y-73275724D01*
X114324791Y-73350998D01*
X114294454Y-73407754D01*
X114250997Y-73551015D01*
X114240000Y-73662668D01*
X114240000Y-73662678D01*
X114236324Y-73700000D01*
X114240000Y-73737322D01*
X114240001Y-82089666D01*
X114236324Y-82126998D01*
X114240001Y-82164331D01*
X114250998Y-82275984D01*
X114257305Y-82296775D01*
X114294454Y-82419244D01*
X114365026Y-82551274D01*
X114424720Y-82624010D01*
X114460000Y-82666999D01*
X114488998Y-82690797D01*
X115757701Y-83959501D01*
X115781500Y-83988500D01*
X115897225Y-84083473D01*
X116029254Y-84154045D01*
X116172515Y-84197502D01*
X116284168Y-84208499D01*
X116284176Y-84208499D01*
X116321501Y-84212175D01*
X116358826Y-84208499D01*
X119077874Y-84208499D01*
X119235395Y-84366020D01*
X119259198Y-84395024D01*
X119374923Y-84489997D01*
X119506952Y-84560569D01*
X119650213Y-84604026D01*
X119761866Y-84615023D01*
X119761875Y-84615023D01*
X119799198Y-84618699D01*
X119836523Y-84615023D01*
X121203479Y-84615023D01*
X121240801Y-84618699D01*
X121278123Y-84615023D01*
X121278134Y-84615023D01*
X121389787Y-84604026D01*
X121533048Y-84560569D01*
X121665077Y-84489997D01*
X121706489Y-84456011D01*
X124810347Y-84456011D01*
X124873563Y-84519227D01*
X124897366Y-84548231D01*
X125013091Y-84643204D01*
X125145120Y-84713776D01*
X125288328Y-84757217D01*
X125343278Y-84812167D01*
X125512796Y-84925435D01*
X125701154Y-85003456D01*
X125901113Y-85043230D01*
X126104991Y-85043230D01*
X126304950Y-85003456D01*
X126493308Y-84925435D01*
X126662826Y-84812167D01*
X126806989Y-84668004D01*
X126920257Y-84498486D01*
X126998278Y-84310128D01*
X127038052Y-84110169D01*
X127038052Y-83906291D01*
X126998278Y-83706332D01*
X126920257Y-83517974D01*
X126806989Y-83348456D01*
X126678533Y-83220000D01*
X127845199Y-83220000D01*
X129040001Y-84414803D01*
X129040001Y-84962837D01*
X128873051Y-84962837D01*
X128673092Y-85002611D01*
X128484734Y-85080632D01*
X128315216Y-85193900D01*
X128271279Y-85237837D01*
X128226526Y-85237837D01*
X128184752Y-85196063D01*
X128015234Y-85082795D01*
X127826876Y-85004774D01*
X127626917Y-84965000D01*
X127423039Y-84965000D01*
X127223080Y-85004774D01*
X127034722Y-85082795D01*
X126865204Y-85196063D01*
X126721041Y-85340226D01*
X126607773Y-85509744D01*
X126529752Y-85698102D01*
X126489978Y-85898061D01*
X126489978Y-86101939D01*
X126529752Y-86301898D01*
X126607773Y-86490256D01*
X126721041Y-86659774D01*
X126865204Y-86803937D01*
X127034722Y-86917205D01*
X127223080Y-86995226D01*
X127423039Y-87035000D01*
X127626917Y-87035000D01*
X127826876Y-86995226D01*
X128015234Y-86917205D01*
X128184752Y-86803937D01*
X128230852Y-86757837D01*
X128271279Y-86757837D01*
X128315216Y-86801774D01*
X128484734Y-86915042D01*
X128673092Y-86993063D01*
X128812610Y-87020815D01*
X128839490Y-87085708D01*
X126085199Y-89840000D01*
X125496476Y-89840000D01*
X125729014Y-89715706D01*
X125955134Y-89530134D01*
X126140706Y-89304013D01*
X126278599Y-89046033D01*
X126363513Y-88766110D01*
X126385000Y-88547949D01*
X126385000Y-88252050D01*
X126363513Y-88033889D01*
X126285971Y-87778269D01*
X126335990Y-87703411D01*
X126447932Y-87433158D01*
X126505000Y-87146260D01*
X126505000Y-86853740D01*
X126447932Y-86566842D01*
X126335990Y-86296589D01*
X126173475Y-86053368D01*
X125966632Y-85846525D01*
X125723411Y-85684010D01*
X125453158Y-85572068D01*
X125166260Y-85515000D01*
X124873740Y-85515000D01*
X124586842Y-85572068D01*
X124316589Y-85684010D01*
X124073368Y-85846525D01*
X123866525Y-86053368D01*
X123750000Y-86227760D01*
X123633475Y-86053368D01*
X123426632Y-85846525D01*
X123183411Y-85684010D01*
X122913158Y-85572068D01*
X122626260Y-85515000D01*
X122333740Y-85515000D01*
X122046842Y-85572068D01*
X121776589Y-85684010D01*
X121533368Y-85846525D01*
X121326525Y-86053368D01*
X121210000Y-86227760D01*
X121093475Y-86053368D01*
X120886632Y-85846525D01*
X120643411Y-85684010D01*
X120373158Y-85572068D01*
X120086260Y-85515000D01*
X119793740Y-85515000D01*
X119506842Y-85572068D01*
X119236589Y-85684010D01*
X118993368Y-85846525D01*
X118861513Y-85978380D01*
X118839502Y-85905820D01*
X118780537Y-85795506D01*
X118701185Y-85698815D01*
X118604494Y-85619463D01*
X118494180Y-85560498D01*
X118374482Y-85524188D01*
X118250000Y-85511928D01*
X117685750Y-85515000D01*
X117527000Y-85673750D01*
X117527000Y-86873000D01*
X117547000Y-86873000D01*
X117547000Y-86978750D01*
X117527000Y-86998750D01*
X117527000Y-88326250D01*
X117547000Y-88346250D01*
X117547000Y-88527000D01*
X117527000Y-88527000D01*
X117527000Y-88547000D01*
X117273000Y-88547000D01*
X117273000Y-88527000D01*
X116073750Y-88527000D01*
X115915000Y-88685750D01*
X115911928Y-89325000D01*
X115924188Y-89449482D01*
X115960498Y-89569180D01*
X116019463Y-89679494D01*
X116098815Y-89776185D01*
X116176574Y-89840000D01*
X114914802Y-89840000D01*
X114085000Y-89010199D01*
X114085000Y-88948061D01*
X114045226Y-88748102D01*
X113967205Y-88559744D01*
X113853937Y-88390226D01*
X113709774Y-88246063D01*
X113540256Y-88132795D01*
X113351898Y-88054774D01*
X113151939Y-88015000D01*
X112948061Y-88015000D01*
X112748102Y-88054774D01*
X112559744Y-88132795D01*
X112390226Y-88246063D01*
X112246063Y-88390226D01*
X112132795Y-88559744D01*
X112054774Y-88748102D01*
X112015000Y-88948061D01*
X112015000Y-89151939D01*
X112054774Y-89351898D01*
X112132795Y-89540256D01*
X112246063Y-89709774D01*
X112390226Y-89853937D01*
X112418756Y-89873000D01*
X111191099Y-89873000D01*
X110978839Y-89555330D01*
X110444670Y-89021161D01*
X110127000Y-88808901D01*
X110127000Y-86150000D01*
X115911928Y-86150000D01*
X115915000Y-86714250D01*
X116073750Y-86873000D01*
X116347020Y-86873000D01*
X116305820Y-86885498D01*
X116195506Y-86944463D01*
X116098815Y-87023815D01*
X116019463Y-87120506D01*
X115960498Y-87230820D01*
X115956391Y-87244359D01*
X115915000Y-87285750D01*
X115914089Y-87453057D01*
X115911928Y-87475000D01*
X115912885Y-87674185D01*
X115911928Y-87850000D01*
X115913823Y-87869236D01*
X115915000Y-88114250D01*
X116073750Y-88273000D01*
X116075684Y-88273000D01*
X116098815Y-88301185D01*
X116195506Y-88380537D01*
X116305820Y-88439502D01*
X116425518Y-88475812D01*
X116550000Y-88488072D01*
X117114250Y-88485000D01*
X117273000Y-88326250D01*
X117273000Y-86998750D01*
X117147250Y-86873000D01*
X117273000Y-86873000D01*
X117273000Y-85673750D01*
X117114250Y-85515000D01*
X116550000Y-85511928D01*
X116425518Y-85524188D01*
X116305820Y-85560498D01*
X116195506Y-85619463D01*
X116098815Y-85698815D01*
X116019463Y-85795506D01*
X115960498Y-85905820D01*
X115924188Y-86025518D01*
X115911928Y-86150000D01*
X110127000Y-86150000D01*
X110127000Y-79489860D01*
X110245518Y-79525812D01*
X110370000Y-79538072D01*
X110984250Y-79535000D01*
X111143000Y-79376250D01*
X111143000Y-78127000D01*
X111384500Y-78127000D01*
X111384500Y-79351250D01*
X111397000Y-79363750D01*
X111397000Y-79376250D01*
X111555750Y-79535000D01*
X112170000Y-79538072D01*
X112294482Y-79525812D01*
X112414180Y-79489502D01*
X112524494Y-79430537D01*
X112621185Y-79351185D01*
X112700537Y-79254494D01*
X112759502Y-79144180D01*
X112795812Y-79024482D01*
X112808072Y-78900000D01*
X112805000Y-78285750D01*
X112646250Y-78127000D01*
X111384500Y-78127000D01*
X111143000Y-78127000D01*
X111123000Y-78127000D01*
X111123000Y-77873000D01*
X111143000Y-77873000D01*
X111143000Y-76648750D01*
X111384500Y-76648750D01*
X111384500Y-77873000D01*
X112646250Y-77873000D01*
X112805000Y-77714250D01*
X112808072Y-77100000D01*
X112795812Y-76975518D01*
X112759502Y-76855820D01*
X112700537Y-76745506D01*
X112621185Y-76648815D01*
X112524494Y-76569463D01*
X112414180Y-76510498D01*
X112294482Y-76474188D01*
X112170000Y-76461928D01*
X111555750Y-76465000D01*
X111397000Y-76623750D01*
X111397000Y-76636250D01*
X111384500Y-76648750D01*
X111143000Y-76648750D01*
X111143000Y-76623750D01*
X110984250Y-76465000D01*
X110370000Y-76461928D01*
X110245518Y-76474188D01*
X110127000Y-76510140D01*
X110127000Y-74489860D01*
X110245518Y-74525812D01*
X110370000Y-74538072D01*
X110984250Y-74535000D01*
X111143000Y-74376250D01*
X111143000Y-73127000D01*
X111384500Y-73127000D01*
X111384500Y-74351250D01*
X111397000Y-74363750D01*
X111397000Y-74376250D01*
X111555750Y-74535000D01*
X112170000Y-74538072D01*
X112294482Y-74525812D01*
X112414180Y-74489502D01*
X112524494Y-74430537D01*
X112621185Y-74351185D01*
X112700537Y-74254494D01*
X112759502Y-74144180D01*
X112795812Y-74024482D01*
X112808072Y-73900000D01*
X112805000Y-73285750D01*
X112646250Y-73127000D01*
X111384500Y-73127000D01*
X111143000Y-73127000D01*
X111123000Y-73127000D01*
X111123000Y-72873000D01*
X111143000Y-72873000D01*
X111143000Y-71648750D01*
X111384500Y-71648750D01*
X111384500Y-72873000D01*
X112646250Y-72873000D01*
X112805000Y-72714250D01*
X112808072Y-72100000D01*
X112795812Y-71975518D01*
X112759502Y-71855820D01*
X112700537Y-71745506D01*
X112621185Y-71648815D01*
X112524494Y-71569463D01*
X112414180Y-71510498D01*
X112294482Y-71474188D01*
X112170000Y-71461928D01*
X111555750Y-71465000D01*
X111397000Y-71623750D01*
X111397000Y-71636250D01*
X111384500Y-71648750D01*
X111143000Y-71648750D01*
X111143000Y-71623750D01*
X110984250Y-71465000D01*
X110370000Y-71461928D01*
X110245518Y-71474188D01*
X110127000Y-71510140D01*
X110127000Y-69489860D01*
X110245518Y-69525812D01*
X110370000Y-69538072D01*
X110984250Y-69535000D01*
X111143000Y-69376250D01*
X111143000Y-68127000D01*
X111123000Y-68127000D01*
X111123000Y-67873000D01*
X111143000Y-67873000D01*
X111143000Y-67853000D01*
X111384500Y-67853000D01*
X111384500Y-67873000D01*
G37*
%TD.AperFunction*%
%TD*%
M02*
