M48
; DRILL file {KiCad (5.1.9-0-10_14)} date Tuesday, April 13, 2021 at 01:11:45 PM
; FORMAT={-:-/ absolute / inch / decimal}
; #@! TF.CreationDate,2021-04-13T13:11:45+01:00
; #@! TF.GenerationSoftware,Kicad,Pcbnew,(5.1.9-0-10_14)
; #@! TF.FileFunction,Plated,1,2,PTH
FMAT,2
INCH
T1C0.0079
T2C0.0098
T3C0.0157
T4C0.0197
T5C0.0300
T6C0.0335
T7C0.0354
T8C0.0394
T9C0.0433
T10C0.1260
%
G90
G05
T1
X4.0945Y-3.1496
T2
X3.9764Y-3.0709
X5.4331Y-3.0709
X5.4331Y-3.1496
X5.5118Y-3.1102
T3
X4.378Y-3.2598
X4.378Y-3.3543
X4.5748Y-3.3228
X4.6024Y-2.7441
X4.6024Y-2.8386
X4.6024Y-2.9331
X4.622Y-3.0551
X4.622Y-3.1417
X4.685Y-2.8189
X4.7835Y-2.8189
X4.7835Y-2.9449
X4.8126Y-3.2461
X4.8425Y-3.2205
X4.878Y-2.7913
X4.9094Y-3.3238
X4.954Y-3.2648
X4.9602Y-2.9193
X4.9606Y-3.3071
X5.0118Y-3.3228
X5.0207Y-3.3858
X5.0453Y-2.8559
X5.0778Y-3.3857
X5.1053Y-3.2559
X5.1102Y-3.4134
X5.1299Y-2.7913
X5.1417Y-2.8622
X5.1693Y-3.4764
X5.1953Y-2.9405
X5.2314Y-2.9582
T4
X4.1575Y-3.622
X4.1852Y-3.5552
X4.1852Y-3.6889
X4.252Y-3.5276
X4.252Y-3.7165
X4.3188Y-3.5552
X4.3188Y-3.6889
X4.3465Y-3.622
X4.9419Y-3.0404
X4.9419Y-3.1585
X5.001Y-3.0994
X5.06Y-3.0404
X5.06Y-3.1585
X5.1811Y-2.5984
X5.2088Y-2.5316
X5.2088Y-2.6652
X5.2756Y-2.5039
X5.2756Y-2.6929
X5.3424Y-2.5316
X5.3424Y-2.6652
X5.3701Y-2.5984
T5
X4.7244Y-3.0709
X4.7244Y-3.1496
X4.8031Y-3.0709
X4.8031Y-3.1496
T6
X4.622Y-3.4803
X4.7205Y-3.4803
X4.8189Y-3.4803
X4.9173Y-3.4803
T7
X4.2807Y-2.6772
X4.2807Y-2.874
X4.2807Y-3.0709
X4.3807Y-2.6772
X4.3807Y-2.874
X4.3807Y-3.0709
T8
X4.622Y-3.4252
X4.722Y-3.4252
X4.822Y-3.4252
X4.922Y-3.4252
T9
X5.0984Y-3.5236
X5.0984Y-3.7008
X5.3543Y-3.5236
X5.3543Y-3.7008
T10
X4.252Y-3.622
X5.2756Y-2.5984
T0
M30
