%TF.GenerationSoftware,KiCad,Pcbnew,(5.1.9-0-10_14)*%
%TF.CreationDate,2021-04-13T14:44:22+01:00*%
%TF.ProjectId,PN532,504e3533-322e-46b6-9963-61645f706362,rev?*%
%TF.SameCoordinates,Original*%
%TF.FileFunction,Paste,Bot*%
%TF.FilePolarity,Positive*%
%FSLAX46Y46*%
G04 Gerber Fmt 4.6, Leading zero omitted, Abs format (unit mm)*
G04 Created by KiCad (PCBNEW (5.1.9-0-10_14)) date 2021-04-13 14:44:22*
%MOMM*%
%LPD*%
G01*
G04 APERTURE LIST*
G04 APERTURE END LIST*
%TO.C,D3*%
G36*
G01*
X108995000Y-77374373D02*
X108995000Y-78625627D01*
G75*
G02*
X108745627Y-78875000I-249373J0D01*
G01*
X107819373Y-78875000D01*
G75*
G02*
X107570000Y-78625627I0J249373D01*
G01*
X107570000Y-77374373D01*
G75*
G02*
X107819373Y-77125000I249373J0D01*
G01*
X108745627Y-77125000D01*
G75*
G02*
X108995000Y-77374373I0J-249373D01*
G01*
G37*
G36*
G01*
X111970000Y-77374373D02*
X111970000Y-78625627D01*
G75*
G02*
X111720627Y-78875000I-249373J0D01*
G01*
X110794373Y-78875000D01*
G75*
G02*
X110545000Y-78625627I0J249373D01*
G01*
X110545000Y-77374373D01*
G75*
G02*
X110794373Y-77125000I249373J0D01*
G01*
X111720627Y-77125000D01*
G75*
G02*
X111970000Y-77374373I0J-249373D01*
G01*
G37*
%TD*%
%TO.C,D2*%
G36*
G01*
X108995000Y-72374373D02*
X108995000Y-73625627D01*
G75*
G02*
X108745627Y-73875000I-249373J0D01*
G01*
X107819373Y-73875000D01*
G75*
G02*
X107570000Y-73625627I0J249373D01*
G01*
X107570000Y-72374373D01*
G75*
G02*
X107819373Y-72125000I249373J0D01*
G01*
X108745627Y-72125000D01*
G75*
G02*
X108995000Y-72374373I0J-249373D01*
G01*
G37*
G36*
G01*
X111970000Y-72374373D02*
X111970000Y-73625627D01*
G75*
G02*
X111720627Y-73875000I-249373J0D01*
G01*
X110794373Y-73875000D01*
G75*
G02*
X110545000Y-73625627I0J249373D01*
G01*
X110545000Y-72374373D01*
G75*
G02*
X110794373Y-72125000I249373J0D01*
G01*
X111720627Y-72125000D01*
G75*
G02*
X111970000Y-72374373I0J-249373D01*
G01*
G37*
%TD*%
%TO.C,D1*%
G36*
G01*
X108995000Y-67374373D02*
X108995000Y-68625627D01*
G75*
G02*
X108745627Y-68875000I-249373J0D01*
G01*
X107819373Y-68875000D01*
G75*
G02*
X107570000Y-68625627I0J249373D01*
G01*
X107570000Y-67374373D01*
G75*
G02*
X107819373Y-67125000I249373J0D01*
G01*
X108745627Y-67125000D01*
G75*
G02*
X108995000Y-67374373I0J-249373D01*
G01*
G37*
G36*
G01*
X111970000Y-67374373D02*
X111970000Y-68625627D01*
G75*
G02*
X111720627Y-68875000I-249373J0D01*
G01*
X110794373Y-68875000D01*
G75*
G02*
X110545000Y-68625627I0J249373D01*
G01*
X110545000Y-67374373D01*
G75*
G02*
X110794373Y-67125000I249373J0D01*
G01*
X111720627Y-67125000D01*
G75*
G02*
X111970000Y-67374373I0J-249373D01*
G01*
G37*
%TD*%
M02*
